<?xml version='1.0' encoding='utf-8'?>
<mlt LC_NUMERIC="C" producer="main_bin" version="7.11.0" root="/home/federico/Videos/Edit/Projects/DS3_cinders/2-KdenFiles">
 <profile frame_rate_num="60" sample_aspect_num="1" display_aspect_den="9" colorspace="709" progressive="1" description="HD 1080p 60 fps" display_aspect_num="16" frame_rate_den="1" width="1920" height="1080" sample_aspect_den="1"/>
 <producer id="producer1" in="00:00:00.000" out="00:00:01.517">
  <property name="length">92</property>
  <property name="eof">pause</property>
  <property name="resource">/home/federico/Nextcloud/Kden/EditingUT/censor.wav</property>
  <property name="meta.media.nb_streams">1</property>
  <property name="meta.media.0.stream.type">audio</property>
  <property name="meta.media.0.codec.sample_fmt">s16</property>
  <property name="meta.media.0.codec.sample_rate">48000</property>
  <property name="meta.media.0.codec.channels">2</property>
  <property name="meta.media.0.codec.name">pcm_s16le</property>
  <property name="meta.media.0.codec.long_name">PCM signed 16-bit little-endian</property>
  <property name="meta.media.0.codec.bit_rate">1536000</property>
  <property name="meta.attr.encoder.markup">Lavf60.16.100</property>
  <property name="seekable">1</property>
  <property name="audio_index">0</property>
  <property name="video_index">-1</property>
  <property name="mute_on_pause">1</property>
  <property name="mlt_service">avformat</property>
  <property name="kdenlive:clipname"/>
  <property name="kdenlive:clip_type">1</property>
  <property name="kdenlive:folderid">5</property>
  <property name="kdenlive:id">6</property>
  <property name="kdenlive:file_size">294990</property>
  <property name="kdenlive:file_hash">11768959a659614d952e74d271daca7a</property>
  <property name="kdenlive:audio_max0">147</property>
  <property name="kdenlive:zone_in">0</property>
  <property name="kdenlive:zone_out">14</property>
 </producer>
 <producer id="producer3" in="00:00:00.000" out="00:00:00.817">
  <property name="length">00:00:00.833</property>
  <property name="eof">pause</property>
  <property name="resource">/home/federico/Nextcloud/Kden/EditingUT/Image/broken_glass.png</property>
  <property name="ttl">25</property>
  <property name="aspect_ratio">1</property>
  <property name="progressive">1</property>
  <property name="seekable">1</property>
  <property name="format">2</property>
  <property name="meta.media.width">494</property>
  <property name="meta.media.height">505</property>
  <property name="mlt_service">qimage</property>
  <property name="kdenlive:clipname"/>
  <property name="kdenlive:duration">00:00:00.833</property>
  <property name="kdenlive:folderid">7</property>
  <property name="kdenlive:clip_type">2</property>
  <property name="kdenlive:id">8</property>
  <property name="kdenlive:file_size">173573</property>
  <property name="kdenlive:file_hash">bb4a18dd3e6abe9d8474e2d2e52512c3</property>
 </producer>
 <producer id="producer0" in="00:00:00.000" out="00:00:00.817">
  <property name="length">00:00:00.833</property>
  <property name="eof">pause</property>
  <property name="resource">/home/federico/Nextcloud/Kden/EditingUT/Image/doubt.png</property>
  <property name="ttl">25</property>
  <property name="aspect_ratio">1</property>
  <property name="progressive">1</property>
  <property name="seekable">1</property>
  <property name="format">2</property>
  <property name="meta.media.width">600</property>
  <property name="meta.media.height">358</property>
  <property name="mlt_service">qimage</property>
  <property name="kdenlive:clipname"/>
  <property name="kdenlive:duration">00:00:00.833</property>
  <property name="kdenlive:folderid">7</property>
  <property name="kdenlive:clip_type">2</property>
  <property name="kdenlive:id">9</property>
  <property name="kdenlive:file_size">97751</property>
  <property name="kdenlive:file_hash">b1da696f7c306a82db4cb944894f2b6f</property>
 </producer>
 <producer id="producer2" in="00:00:00.000" out="00:00:00.817">
  <property name="length">00:00:00.833</property>
  <property name="eof">pause</property>
  <property name="resource">/home/federico/Nextcloud/Kden/EditingUT/Image/git gud.png</property>
  <property name="ttl">25</property>
  <property name="aspect_ratio">1</property>
  <property name="progressive">1</property>
  <property name="seekable">1</property>
  <property name="format">2</property>
  <property name="meta.media.width">1920</property>
  <property name="meta.media.height">1080</property>
  <property name="mlt_service">qimage</property>
  <property name="kdenlive:clipname"/>
  <property name="kdenlive:duration">00:00:00.833</property>
  <property name="kdenlive:folderid">7</property>
  <property name="kdenlive:clip_type">2</property>
  <property name="kdenlive:id">10</property>
  <property name="kdenlive:file_size">68993</property>
  <property name="kdenlive:file_hash">0181892e6034ac3a66d1e4a6110f9e7c</property>
 </producer>
 <producer id="producer13" in="00:00:00.000" out="00:00:00.817">
  <property name="length">00:00:00.833</property>
  <property name="eof">pause</property>
  <property name="resource">/home/federico/Nextcloud/Kden/EditingUT/Image/grabbing_hand.png</property>
  <property name="ttl">25</property>
  <property name="aspect_ratio">1</property>
  <property name="progressive">1</property>
  <property name="seekable">1</property>
  <property name="format">2</property>
  <property name="meta.media.width">960</property>
  <property name="meta.media.height">569</property>
  <property name="mlt_service">qimage</property>
  <property name="kdenlive:clipname"/>
  <property name="kdenlive:duration">00:00:00.833</property>
  <property name="kdenlive:folderid">7</property>
  <property name="kdenlive:clip_type">2</property>
  <property name="kdenlive:id">11</property>
  <property name="kdenlive:file_size">413355</property>
  <property name="kdenlive:file_hash">2ca2d110a73bf57f9da63e189f65dbba</property>
 </producer>
 <producer id="producer7" in="00:00:00.000" out="00:00:00.817">
  <property name="length">00:00:00.833</property>
  <property name="eof">pause</property>
  <property name="resource">/home/federico/Nextcloud/Kden/EditingUT/Image/gun.png</property>
  <property name="ttl">25</property>
  <property name="aspect_ratio">1</property>
  <property name="progressive">1</property>
  <property name="seekable">1</property>
  <property name="format">2</property>
  <property name="meta.media.width">666</property>
  <property name="meta.media.height">375</property>
  <property name="mlt_service">qimage</property>
  <property name="kdenlive:clipname"/>
  <property name="kdenlive:duration">00:00:00.833</property>
  <property name="kdenlive:folderid">7</property>
  <property name="kdenlive:clip_type">2</property>
  <property name="kdenlive:id">12</property>
  <property name="kdenlive:file_size">104531</property>
  <property name="kdenlive:file_hash">aadf478f2a34893ad34aa0b8f49c1ffd</property>
 </producer>
 <producer id="producer4" in="00:00:00.000" out="00:00:00.817">
  <property name="length">00:00:00.833</property>
  <property name="eof">pause</property>
  <property name="resource">/home/federico/Nextcloud/Kden/EditingUT/Image/hand.png</property>
  <property name="ttl">25</property>
  <property name="aspect_ratio">1</property>
  <property name="progressive">1</property>
  <property name="seekable">1</property>
  <property name="format">2</property>
  <property name="meta.media.width">540</property>
  <property name="meta.media.height">360</property>
  <property name="mlt_service">qimage</property>
  <property name="kdenlive:clipname"/>
  <property name="kdenlive:duration">00:00:00.833</property>
  <property name="kdenlive:folderid">7</property>
  <property name="kdenlive:clip_type">2</property>
  <property name="kdenlive:id">13</property>
  <property name="kdenlive:file_size">48692</property>
  <property name="kdenlive:file_hash">7d411d1b7c7750b4a1997b8819f6c26f</property>
 </producer>
 <producer id="producer5" in="00:00:00.000" out="00:00:00.817">
  <property name="length">00:00:00.833</property>
  <property name="eof">pause</property>
  <property name="resource">/home/federico/Nextcloud/Kden/EditingUT/Image/italian_meme_hand.png</property>
  <property name="ttl">25</property>
  <property name="aspect_ratio">1</property>
  <property name="progressive">1</property>
  <property name="seekable">1</property>
  <property name="format">2</property>
  <property name="meta.media.width">540</property>
  <property name="meta.media.height">360</property>
  <property name="mlt_service">qimage</property>
  <property name="kdenlive:clipname"/>
  <property name="kdenlive:duration">00:00:00.833</property>
  <property name="kdenlive:folderid">7</property>
  <property name="kdenlive:clip_type">2</property>
  <property name="kdenlive:id">14</property>
  <property name="kdenlive:file_size">61607</property>
  <property name="kdenlive:file_hash">57602302cb8b7cfb70d221b8984c4a2a</property>
 </producer>
 <producer id="producer6" in="00:00:00.000" out="00:00:00.817">
  <property name="length">00:00:00.833</property>
  <property name="eof">pause</property>
  <property name="resource">/home/federico/Nextcloud/Kden/EditingUT/Image/like.png</property>
  <property name="ttl">25</property>
  <property name="aspect_ratio">1</property>
  <property name="progressive">1</property>
  <property name="seekable">1</property>
  <property name="format">2</property>
  <property name="meta.media.width">590</property>
  <property name="meta.media.height">312</property>
  <property name="mlt_service">qimage</property>
  <property name="kdenlive:clipname"/>
  <property name="kdenlive:duration">00:00:00.833</property>
  <property name="kdenlive:folderid">7</property>
  <property name="kdenlive:clip_type">2</property>
  <property name="kdenlive:id">15</property>
  <property name="kdenlive:file_size">48924</property>
  <property name="kdenlive:file_hash">64aa07dad9fdc5d0fd24b231b002d4d6</property>
 </producer>
 <producer id="producer8" in="00:00:00.000" out="00:00:00.817">
  <property name="length">00:00:00.833</property>
  <property name="eof">pause</property>
  <property name="resource">/home/federico/Nextcloud/Kden/EditingUT/Image/minecraft-hardcore-template-death-empty.png</property>
  <property name="ttl">25</property>
  <property name="aspect_ratio">1</property>
  <property name="progressive">1</property>
  <property name="seekable">1</property>
  <property name="format">2</property>
  <property name="meta.media.width">666</property>
  <property name="meta.media.height">374</property>
  <property name="mlt_service">qimage</property>
  <property name="kdenlive:clipname"/>
  <property name="kdenlive:duration">00:00:00.833</property>
  <property name="kdenlive:folderid">7</property>
  <property name="kdenlive:clip_type">2</property>
  <property name="kdenlive:id">16</property>
  <property name="kdenlive:file_size">54314</property>
  <property name="kdenlive:file_hash">085b9b4b854d59d48c560639cae84991</property>
 </producer>
 <producer id="producer9" in="00:00:00.000" out="00:00:00.817">
  <property name="length">00:00:00.833</property>
  <property name="eof">pause</property>
  <property name="resource">/home/federico/Nextcloud/Kden/EditingUT/Image/minecraft-hardcore-template-death.png</property>
  <property name="ttl">25</property>
  <property name="aspect_ratio">1</property>
  <property name="progressive">1</property>
  <property name="seekable">1</property>
  <property name="format">2</property>
  <property name="meta.media.width">666</property>
  <property name="meta.media.height">374</property>
  <property name="mlt_service">qimage</property>
  <property name="kdenlive:clipname"/>
  <property name="kdenlive:duration">00:00:00.833</property>
  <property name="kdenlive:folderid">7</property>
  <property name="kdenlive:clip_type">2</property>
  <property name="kdenlive:id">17</property>
  <property name="kdenlive:file_size">41657</property>
  <property name="kdenlive:file_hash">c9976ea66c1ff69f64c4b90035e8a6cf</property>
 </producer>
 <producer id="producer11" in="00:00:00.000" out="00:00:00.817">
  <property name="length">00:00:00.833</property>
  <property name="eof">pause</property>
  <property name="resource">/home/federico/Nextcloud/Kden/EditingUT/Image/owl_gufo.png</property>
  <property name="ttl">25</property>
  <property name="aspect_ratio">1</property>
  <property name="progressive">1</property>
  <property name="seekable">1</property>
  <property name="format">2</property>
  <property name="meta.media.width">432</property>
  <property name="meta.media.height">577</property>
  <property name="mlt_service">qimage</property>
  <property name="kdenlive:clipname"/>
  <property name="kdenlive:duration">00:00:00.833</property>
  <property name="kdenlive:folderid">7</property>
  <property name="kdenlive:clip_type">2</property>
  <property name="kdenlive:id">18</property>
  <property name="kdenlive:file_size">240164</property>
  <property name="kdenlive:file_hash">e00c9b0cea89d0baec139162ecfdd069</property>
 </producer>
 <producer id="producer10" in="00:00:00.000" out="00:00:00.817">
  <property name="length">00:00:00.833</property>
  <property name="eof">pause</property>
  <property name="resource">/home/federico/Nextcloud/Kden/EditingUT/Image/shiny-removebg-preview.png</property>
  <property name="ttl">25</property>
  <property name="aspect_ratio">1</property>
  <property name="progressive">1</property>
  <property name="seekable">1</property>
  <property name="format">2</property>
  <property name="meta.media.width">480</property>
  <property name="meta.media.height">360</property>
  <property name="mlt_service">qimage</property>
  <property name="kdenlive:clipname"/>
  <property name="kdenlive:duration">00:00:00.833</property>
  <property name="kdenlive:folderid">7</property>
  <property name="kdenlive:clip_type">2</property>
  <property name="kdenlive:id">19</property>
  <property name="kdenlive:file_size">13659</property>
  <property name="kdenlive:file_hash">765b7ea07d5631b2827eb318f6fd83a5</property>
 </producer>
 <producer id="producer12" in="00:00:00.000" out="00:00:00.817">
  <property name="length">00:00:00.833</property>
  <property name="eof">pause</property>
  <property name="resource">/home/federico/Nextcloud/Kden/EditingUT/Image/side_eye_dog_meme.jpg</property>
  <property name="ttl">25</property>
  <property name="aspect_ratio">1</property>
  <property name="progressive">1</property>
  <property name="seekable">1</property>
  <property name="format">1</property>
  <property name="meta.media.width">686</property>
  <property name="meta.media.height">386</property>
  <property name="mlt_service">qimage</property>
  <property name="kdenlive:clipname"/>
  <property name="kdenlive:duration">00:00:00.833</property>
  <property name="kdenlive:folderid">7</property>
  <property name="kdenlive:clip_type">2</property>
  <property name="kdenlive:id">20</property>
  <property name="kdenlive:file_size">45205</property>
  <property name="kdenlive:file_hash">b7f6c916fce987d5a6099c0a12b3de78</property>
 </producer>
 <producer id="producer15" in="00:00:00.000" out="00:00:00.817">
  <property name="length">00:00:00.833</property>
  <property name="eof">pause</property>
  <property name="resource">/home/federico/Nextcloud/Kden/EditingUT/Image/tombstone_meme_spongebob.jpg</property>
  <property name="ttl">25</property>
  <property name="aspect_ratio">1</property>
  <property name="progressive">1</property>
  <property name="seekable">1</property>
  <property name="format">1</property>
  <property name="meta.media.width">563</property>
  <property name="meta.media.height">561</property>
  <property name="mlt_service">qimage</property>
  <property name="kdenlive:clipname"/>
  <property name="kdenlive:duration">00:00:00.833</property>
  <property name="kdenlive:folderid">7</property>
  <property name="kdenlive:clip_type">2</property>
  <property name="kdenlive:id">21</property>
  <property name="kdenlive:file_size">43989</property>
  <property name="kdenlive:file_hash">5db885b24b03d1af733c09a3077a4517</property>
 </producer>
 <producer id="producer14" in="00:00:00.000" out="00:00:01.517">
  <property name="length">92</property>
  <property name="eof">pause</property>
  <property name="resource">/home/federico/Nextcloud/Kden/EditingUT/Image/youtube-demonetiztion-demonetizzazione.png</property>
  <property name="ttl">25</property>
  <property name="aspect_ratio">1</property>
  <property name="progressive">1</property>
  <property name="seekable">1</property>
  <property name="format">2</property>
  <property name="meta.media.width">638</property>
  <property name="meta.media.height">391</property>
  <property name="mlt_service">qimage</property>
  <property name="kdenlive:clipname"/>
  <property name="kdenlive:duration">00:00:00.833</property>
  <property name="kdenlive:folderid">7</property>
  <property name="kdenlive:clip_type">2</property>
  <property name="kdenlive:id">22</property>
  <property name="kdenlive:file_size">94350</property>
  <property name="kdenlive:file_hash">ef370b599b0ef7143846e1867e62a560</property>
 </producer>
 <producer id="producer20" in="00:00:00.000" out="00:00:00.817">
  <property name="length">00:00:00.833</property>
  <property name="eof">pause</property>
  <property name="resource">/home/federico/Nextcloud/Kden/EditingUT/Image/youtube-grabbing-hand-mano.png</property>
  <property name="ttl">25</property>
  <property name="aspect_ratio">1</property>
  <property name="progressive">1</property>
  <property name="seekable">1</property>
  <property name="format">2</property>
  <property name="meta.media.width">1920</property>
  <property name="meta.media.height">1080</property>
  <property name="mlt_service">qimage</property>
  <property name="kdenlive:clipname"/>
  <property name="kdenlive:duration">00:00:00.833</property>
  <property name="kdenlive:folderid">7</property>
  <property name="kdenlive:clip_type">2</property>
  <property name="kdenlive:id">23</property>
  <property name="kdenlive:file_size">522264</property>
  <property name="kdenlive:file_hash">fd567eb51ff67817092eb95d0d7999b8</property>
 </producer>
 <producer id="producer16" in="00:00:00.000" out="00:00:00.817">
  <property name="length">00:00:00.833</property>
  <property name="eof">pause</property>
  <property name="resource">/home/federico/Nextcloud/Kden/EditingUT/Image/yt youtube logo.png</property>
  <property name="ttl">25</property>
  <property name="aspect_ratio">1</property>
  <property name="progressive">1</property>
  <property name="seekable">1</property>
  <property name="format">2</property>
  <property name="meta.media.width">500</property>
  <property name="meta.media.height">500</property>
  <property name="mlt_service">qimage</property>
  <property name="kdenlive:clipname"/>
  <property name="kdenlive:duration">00:00:00.833</property>
  <property name="kdenlive:folderid">7</property>
  <property name="kdenlive:clip_type">2</property>
  <property name="kdenlive:id">24</property>
  <property name="kdenlive:file_size">63111</property>
  <property name="kdenlive:file_hash">5031f47fe490cdf21716ab6038195f89</property>
 </producer>
 <producer id="producer17" in="00:00:00.000" out="00:00:00.817">
  <property name="length">00:00:00.833</property>
  <property name="eof">pause</property>
  <property name="resource">/home/federico/Nextcloud/Kden/EditingUT/Image/DarkSouls/ds1_logo.png</property>
  <property name="ttl">25</property>
  <property name="aspect_ratio">1</property>
  <property name="progressive">1</property>
  <property name="seekable">1</property>
  <property name="format">2</property>
  <property name="meta.media.width">1023</property>
  <property name="meta.media.height">394</property>
  <property name="mlt_service">qimage</property>
  <property name="kdenlive:clipname"/>
  <property name="kdenlive:duration">00:00:00.833</property>
  <property name="kdenlive:folderid">25</property>
  <property name="kdenlive:clip_type">2</property>
  <property name="kdenlive:id">26</property>
  <property name="kdenlive:file_size">153368</property>
  <property name="kdenlive:file_hash">055d4ca1d739e58b83c9a23eda2a04bf</property>
 </producer>
 <producer id="producer21" in="00:00:00.000" out="00:00:00.817">
  <property name="length">00:00:00.833</property>
  <property name="eof">pause</property>
  <property name="resource">/home/federico/Nextcloud/Kden/EditingUT/Image/DarkSouls/ds2.jpg</property>
  <property name="ttl">25</property>
  <property name="aspect_ratio">1</property>
  <property name="progressive">1</property>
  <property name="seekable">1</property>
  <property name="format">1</property>
  <property name="meta.media.width">1920</property>
  <property name="meta.media.height">1080</property>
  <property name="mlt_service">qimage</property>
  <property name="kdenlive:clipname"/>
  <property name="kdenlive:duration">00:00:00.833</property>
  <property name="kdenlive:folderid">25</property>
  <property name="kdenlive:clip_type">2</property>
  <property name="kdenlive:id">27</property>
  <property name="kdenlive:file_size">1104103</property>
  <property name="kdenlive:file_hash">cf03a9b23a63ccd27b7a7441e6e91632</property>
 </producer>
 <producer id="producer18" in="00:00:00.000" out="00:00:00.817">
  <property name="length">00:00:00.833</property>
  <property name="eof">pause</property>
  <property name="resource">/home/federico/Nextcloud/Kden/EditingUT/Image/DarkSouls/ds2_logo.png</property>
  <property name="ttl">25</property>
  <property name="aspect_ratio">1</property>
  <property name="progressive">1</property>
  <property name="seekable">1</property>
  <property name="format">2</property>
  <property name="meta.media.width">940</property>
  <property name="meta.media.height">208</property>
  <property name="mlt_service">qimage</property>
  <property name="kdenlive:clipname"/>
  <property name="kdenlive:duration">00:00:00.833</property>
  <property name="kdenlive:folderid">25</property>
  <property name="kdenlive:clip_type">2</property>
  <property name="kdenlive:id">28</property>
  <property name="kdenlive:file_size">573054</property>
  <property name="kdenlive:file_hash">b94a6025376c0bc4c649869c8493e1ca</property>
 </producer>
 <producer id="producer22" in="00:00:00.000" out="00:00:00.817">
  <property name="length">00:00:00.833</property>
  <property name="eof">pause</property>
  <property name="resource">/home/federico/Nextcloud/Kden/EditingUT/Image/DarkSouls/ds2_no_logo.jpg</property>
  <property name="ttl">25</property>
  <property name="aspect_ratio">1</property>
  <property name="progressive">1</property>
  <property name="seekable">1</property>
  <property name="format">1</property>
  <property name="meta.media.width">1920</property>
  <property name="meta.media.height">1200</property>
  <property name="mlt_service">qimage</property>
  <property name="kdenlive:clipname"/>
  <property name="kdenlive:duration">00:00:00.833</property>
  <property name="kdenlive:folderid">25</property>
  <property name="kdenlive:clip_type">2</property>
  <property name="kdenlive:id">29</property>
  <property name="kdenlive:file_size">385687</property>
  <property name="kdenlive:file_hash">19ff0193646a1795a8f85eadb501a3bd</property>
 </producer>
 <producer id="producer19" in="00:00:00.000" out="00:00:00.817">
  <property name="length">00:00:00.833</property>
  <property name="eof">pause</property>
  <property name="resource">/home/federico/Nextcloud/Kden/EditingUT/Image/DarkSouls/ds_prepare_to_die.png</property>
  <property name="ttl">25</property>
  <property name="aspect_ratio">1</property>
  <property name="progressive">1</property>
  <property name="seekable">1</property>
  <property name="format">2</property>
  <property name="meta.media.width">531</property>
  <property name="meta.media.height">95</property>
  <property name="mlt_service">qimage</property>
  <property name="kdenlive:clipname"/>
  <property name="kdenlive:duration">00:00:00.833</property>
  <property name="kdenlive:folderid">25</property>
  <property name="kdenlive:clip_type">2</property>
  <property name="kdenlive:id">30</property>
  <property name="kdenlive:file_size">75165</property>
  <property name="kdenlive:file_hash">af14f53de8d6b942a957b88cb3a7d925</property>
 </producer>
 <producer id="producer23" in="00:00:00.000" out="00:00:05.783">
  <property name="length">348</property>
  <property name="eof">pause</property>
  <property name="resource">/home/federico/Nextcloud/Kden/EditingUT/MemeFresh/among us impostor.wav</property>
  <property name="meta.media.nb_streams">1</property>
  <property name="meta.media.0.stream.type">audio</property>
  <property name="meta.media.0.codec.sample_fmt">s16</property>
  <property name="meta.media.0.codec.sample_rate">44100</property>
  <property name="meta.media.0.codec.channels">2</property>
  <property name="meta.media.0.codec.name">pcm_s16le</property>
  <property name="meta.media.0.codec.long_name">PCM signed 16-bit little-endian</property>
  <property name="meta.media.0.codec.bit_rate">1411200</property>
  <property name="meta.attr.encoder.markup">Lavf60.16.100</property>
  <property name="seekable">1</property>
  <property name="audio_index">0</property>
  <property name="video_index">-1</property>
  <property name="mute_on_pause">1</property>
  <property name="mlt_service">avformat</property>
  <property name="kdenlive:clipname"/>
  <property name="kdenlive:clip_type">1</property>
  <property name="kdenlive:folderid">31</property>
  <property name="kdenlive:id">32</property>
  <property name="kdenlive:file_size">1023054</property>
  <property name="kdenlive:file_hash">06c0b60c9b67bc14e081eab46d43f608</property>
  <property name="kdenlive:audio_max0">198</property>
  <property name="kdenlive:zone_in">0</property>
  <property name="kdenlive:zone_out">96</property>
 </producer>
 <producer id="producer24" in="00:00:00.000" out="00:00:01.300">
  <property name="length">79</property>
  <property name="eof">pause</property>
  <property name="resource">/home/federico/Nextcloud/Kden/EditingUT/MemeFresh/Among Us Meme Deep Voice.wav</property>
  <property name="meta.media.nb_streams">1</property>
  <property name="meta.media.0.stream.type">audio</property>
  <property name="meta.media.0.codec.sample_fmt">s16</property>
  <property name="meta.media.0.codec.sample_rate">48000</property>
  <property name="meta.media.0.codec.channels">2</property>
  <property name="meta.media.0.codec.name">pcm_s16le</property>
  <property name="meta.media.0.codec.long_name">PCM signed 16-bit little-endian</property>
  <property name="meta.media.0.codec.bit_rate">1536000</property>
  <property name="meta.attr.encoder.markup">Lavf61.7.100</property>
  <property name="seekable">1</property>
  <property name="audio_index">0</property>
  <property name="video_index">-1</property>
  <property name="mute_on_pause">1</property>
  <property name="mlt_service">avformat</property>
  <property name="kdenlive:clipname"/>
  <property name="kdenlive:clip_type">1</property>
  <property name="kdenlive:folderid">31</property>
  <property name="kdenlive:id">33</property>
  <property name="kdenlive:file_size">252878</property>
  <property name="kdenlive:file_hash">145675af8f58add654c8cdf0423e9588</property>
  <property name="kdenlive:audio_max0">185</property>
 </producer>
 <producer id="producer27" in="00:00:00.000" out="00:00:01.650">
  <property name="length">100</property>
  <property name="eof">pause</property>
  <property name="resource">/home/federico/Nextcloud/Kden/EditingUT/MemeFresh/bone crack.wav</property>
  <property name="meta.media.nb_streams">1</property>
  <property name="meta.media.0.stream.type">audio</property>
  <property name="meta.media.0.codec.sample_fmt">s16</property>
  <property name="meta.media.0.codec.sample_rate">44100</property>
  <property name="meta.media.0.codec.channels">2</property>
  <property name="meta.media.0.codec.name">pcm_s16le</property>
  <property name="meta.media.0.codec.long_name">PCM signed 16-bit little-endian</property>
  <property name="meta.media.0.codec.bit_rate">1411200</property>
  <property name="meta.attr.encoder.markup">Lavf60.16.100</property>
  <property name="seekable">1</property>
  <property name="audio_index">0</property>
  <property name="video_index">-1</property>
  <property name="mute_on_pause">1</property>
  <property name="mlt_service">avformat</property>
  <property name="kdenlive:clipname"/>
  <property name="kdenlive:clip_type">1</property>
  <property name="kdenlive:folderid">31</property>
  <property name="kdenlive:id">34</property>
  <property name="kdenlive:file_size">294990</property>
  <property name="kdenlive:file_hash">ac62a025803c8941bdd5aca3eb2fa625</property>
  <property name="kdenlive:audio_max0">214</property>
 </producer>
 <producer id="producer25" in="00:00:00.000" out="00:00:01.883">
  <property name="length">114</property>
  <property name="eof">pause</property>
  <property name="resource">/home/federico/Nextcloud/Kden/EditingUT/MemeFresh/bonk.wav</property>
  <property name="meta.media.nb_streams">1</property>
  <property name="meta.media.0.stream.type">audio</property>
  <property name="meta.media.0.codec.sample_fmt">s16</property>
  <property name="meta.media.0.codec.sample_rate">44100</property>
  <property name="meta.media.0.codec.channels">2</property>
  <property name="meta.media.0.codec.name">pcm_s16le</property>
  <property name="meta.media.0.codec.long_name">PCM signed 16-bit little-endian</property>
  <property name="meta.media.0.codec.bit_rate">1411200</property>
  <property name="meta.attr.encoder.markup">Lavf60.16.100</property>
  <property name="seekable">1</property>
  <property name="audio_index">0</property>
  <property name="video_index">-1</property>
  <property name="mute_on_pause">1</property>
  <property name="mlt_service">avformat</property>
  <property name="kdenlive:clipname"/>
  <property name="kdenlive:clip_type">1</property>
  <property name="kdenlive:folderid">31</property>
  <property name="kdenlive:id">35</property>
  <property name="kdenlive:file_size">336462</property>
  <property name="kdenlive:file_hash">336b3f3af1e146f3f6a53566f05127ea</property>
  <property name="kdenlive:audio_max0">181</property>
  <property name="kdenlive:zone_in">31</property>
  <property name="kdenlive:zone_out">57</property>
 </producer>
 <producer id="producer28" in="00:00:00.000" out="00:00:08.500">
  <property name="length">511</property>
  <property name="eof">pause</property>
  <property name="resource">/home/federico/Nextcloud/Kden/EditingUT/MemeFresh/earthquake angry meme.wav</property>
  <property name="meta.media.nb_streams">1</property>
  <property name="meta.media.0.stream.type">audio</property>
  <property name="meta.media.0.codec.sample_fmt">s16</property>
  <property name="meta.media.0.codec.sample_rate">48000</property>
  <property name="meta.media.0.codec.channels">2</property>
  <property name="meta.media.0.codec.name">pcm_s16le</property>
  <property name="meta.media.0.codec.long_name">PCM signed 16-bit little-endian</property>
  <property name="meta.media.0.codec.bit_rate">1536000</property>
  <property name="meta.attr.encoder.markup">Lavf59.16.100</property>
  <property name="seekable">1</property>
  <property name="audio_index">0</property>
  <property name="video_index">-1</property>
  <property name="mute_on_pause">1</property>
  <property name="mlt_service">avformat</property>
  <property name="kdenlive:clipname"/>
  <property name="kdenlive:clip_type">1</property>
  <property name="kdenlive:folderid">31</property>
  <property name="kdenlive:id">36</property>
  <property name="kdenlive:file_size">1635278</property>
  <property name="kdenlive:file_hash">52ae46de89a949ae2902b1c92a6c7fd3</property>
  <property name="kdenlive:audio_max0">214</property>
 </producer>
 <producer id="producer26" in="00:00:00.000" out="00:00:04.117">
  <property name="length">248</property>
  <property name="eof">pause</property>
  <property name="resource">/home/federico/Nextcloud/Kden/EditingUT/MemeFresh/explosive diarrhea.wav</property>
  <property name="meta.media.nb_streams">1</property>
  <property name="meta.media.0.stream.type">audio</property>
  <property name="meta.media.0.codec.sample_fmt">s16</property>
  <property name="meta.media.0.codec.sample_rate">44100</property>
  <property name="meta.media.0.codec.channels">2</property>
  <property name="meta.media.0.codec.name">pcm_s16le</property>
  <property name="meta.media.0.codec.long_name">PCM signed 16-bit little-endian</property>
  <property name="meta.media.0.codec.bit_rate">1411200</property>
  <property name="meta.attr.encoder.markup">Lavf60.16.100</property>
  <property name="seekable">1</property>
  <property name="audio_index">0</property>
  <property name="video_index">-1</property>
  <property name="mute_on_pause">1</property>
  <property name="mlt_service">avformat</property>
  <property name="kdenlive:clipname"/>
  <property name="kdenlive:clip_type">1</property>
  <property name="kdenlive:folderid">31</property>
  <property name="kdenlive:id">37</property>
  <property name="kdenlive:file_size">728142</property>
  <property name="kdenlive:file_hash">40bdaac5d8f544fe7599a44d2e39adc9</property>
  <property name="kdenlive:audio_max0">173</property>
  <property name="kdenlive:zone_in">108</property>
  <property name="kdenlive:zone_out">196</property>
 </producer>
 <producer id="producer29" in="00:00:00.000" out="00:00:10.817">
  <property name="length">650</property>
  <property name="eof">pause</property>
  <property name="resource">/home/federico/Nextcloud/Kden/EditingUT/MemeFresh/fnaf 2 hallway ambience.wav</property>
  <property name="meta.media.nb_streams">1</property>
  <property name="meta.media.0.stream.type">audio</property>
  <property name="meta.media.0.codec.sample_fmt">s16</property>
  <property name="meta.media.0.codec.sample_rate">44100</property>
  <property name="meta.media.0.codec.channels">2</property>
  <property name="meta.media.0.codec.name">pcm_s16le</property>
  <property name="meta.media.0.codec.long_name">PCM signed 16-bit little-endian</property>
  <property name="meta.media.0.codec.bit_rate">1411200</property>
  <property name="meta.attr.encoder.markup">Lavf60.16.100</property>
  <property name="seekable">1</property>
  <property name="audio_index">0</property>
  <property name="video_index">-1</property>
  <property name="mute_on_pause">1</property>
  <property name="mlt_service">avformat</property>
  <property name="kdenlive:clipname"/>
  <property name="kdenlive:clip_type">1</property>
  <property name="kdenlive:folderid">31</property>
  <property name="kdenlive:id">38</property>
  <property name="kdenlive:file_size">1912398</property>
  <property name="kdenlive:file_hash">2be6c239b8f83a2eb5ba055707c0ae35</property>
  <property name="kdenlive:audio_max0">230</property>
 </producer>
 <producer id="producer30" in="00:00:00.000" out="00:00:12.283">
  <property name="length">738</property>
  <property name="eof">pause</property>
  <property name="resource">/home/federico/Nextcloud/Kden/EditingUT/MemeFresh/gangstas paradise choir.wav</property>
  <property name="meta.media.nb_streams">1</property>
  <property name="meta.media.0.stream.type">audio</property>
  <property name="meta.media.0.codec.sample_fmt">s16</property>
  <property name="meta.media.0.codec.sample_rate">44100</property>
  <property name="meta.media.0.codec.channels">2</property>
  <property name="meta.media.0.codec.name">pcm_s16le</property>
  <property name="meta.media.0.codec.long_name">PCM signed 16-bit little-endian</property>
  <property name="meta.media.0.codec.bit_rate">1411200</property>
  <property name="meta.attr.encoder.markup">Lavf60.16.100</property>
  <property name="seekable">1</property>
  <property name="audio_index">0</property>
  <property name="video_index">-1</property>
  <property name="mute_on_pause">1</property>
  <property name="mlt_service">avformat</property>
  <property name="kdenlive:clipname"/>
  <property name="kdenlive:clip_type">1</property>
  <property name="kdenlive:folderid">31</property>
  <property name="kdenlive:id">39</property>
  <property name="kdenlive:file_size">2170446</property>
  <property name="kdenlive:file_hash">18767d36687a9d457703a2e5cdbf4738</property>
  <property name="kdenlive:audio_max0">173</property>
  <property name="kdenlive:zone_in">0</property>
  <property name="kdenlive:zone_out">38</property>
 </producer>
 <producer id="producer32" in="00:00:00.000" out="00:00:11.350">
  <property name="length">682</property>
  <property name="eof">pause</property>
  <property name="resource">/home/federico/Nextcloud/Kden/EditingUT/MemeFresh/gmod_garrys mod ragdoll.wav</property>
  <property name="meta.media.nb_streams">1</property>
  <property name="meta.media.0.stream.type">audio</property>
  <property name="meta.media.0.codec.sample_fmt">s16</property>
  <property name="meta.media.0.codec.sample_rate">44100</property>
  <property name="meta.media.0.codec.channels">2</property>
  <property name="meta.media.0.codec.name">pcm_s16le</property>
  <property name="meta.media.0.codec.long_name">PCM signed 16-bit little-endian</property>
  <property name="meta.media.0.codec.bit_rate">1411200</property>
  <property name="meta.attr.encoder.markup">Lavf60.16.100</property>
  <property name="seekable">1</property>
  <property name="audio_index">0</property>
  <property name="video_index">-1</property>
  <property name="mute_on_pause">1</property>
  <property name="mlt_service">avformat</property>
  <property name="kdenlive:clipname"/>
  <property name="kdenlive:clip_type">1</property>
  <property name="kdenlive:folderid">31</property>
  <property name="kdenlive:id">40</property>
  <property name="kdenlive:file_size">2004558</property>
  <property name="kdenlive:file_hash">ab661e579efdeb879486a0a73fddcba4</property>
  <property name="kdenlive:audio_max0">248</property>
 </producer>
 <producer id="producer31" in="00:00:00.000" out="00:00:10.017">
  <property name="length">602</property>
  <property name="eof">pause</property>
  <property name="resource">/home/federico/Nextcloud/Kden/EditingUT/MemeFresh/guy snoring.wav</property>
  <property name="meta.media.nb_streams">1</property>
  <property name="meta.media.0.stream.type">audio</property>
  <property name="meta.media.0.codec.sample_fmt">s16</property>
  <property name="meta.media.0.codec.sample_rate">44100</property>
  <property name="meta.media.0.codec.channels">2</property>
  <property name="meta.media.0.codec.name">pcm_s16le</property>
  <property name="meta.media.0.codec.long_name">PCM signed 16-bit little-endian</property>
  <property name="meta.media.0.codec.bit_rate">1411200</property>
  <property name="meta.attr.encoder.markup">Lavf60.16.100</property>
  <property name="seekable">1</property>
  <property name="audio_index">0</property>
  <property name="video_index">-1</property>
  <property name="mute_on_pause">1</property>
  <property name="mlt_service">avformat</property>
  <property name="kdenlive:clipname"/>
  <property name="kdenlive:clip_type">1</property>
  <property name="kdenlive:folderid">31</property>
  <property name="kdenlive:id">41</property>
  <property name="kdenlive:file_size">1769550</property>
  <property name="kdenlive:file_hash">014bbb81133a672835baf8cb812d5929</property>
  <property name="kdenlive:audio_max0">188</property>
  <property name="kdenlive:zone_in">0</property>
  <property name="kdenlive:zone_out">53</property>
 </producer>
 <producer id="producer34" in="00:00:00.000" out="00:00:01.217">
  <property name="length">74</property>
  <property name="eof">pause</property>
  <property name="resource">/home/federico/Nextcloud/Kden/EditingUT/MemeFresh/huh.wav</property>
  <property name="meta.media.nb_streams">1</property>
  <property name="meta.media.0.stream.type">audio</property>
  <property name="meta.media.0.codec.sample_fmt">s16</property>
  <property name="meta.media.0.codec.sample_rate">44100</property>
  <property name="meta.media.0.codec.channels">2</property>
  <property name="meta.media.0.codec.name">pcm_s16le</property>
  <property name="meta.media.0.codec.long_name">PCM signed 16-bit little-endian</property>
  <property name="meta.media.0.codec.bit_rate">1411200</property>
  <property name="meta.attr.encoder.markup">Lavf60.16.100</property>
  <property name="seekable">1</property>
  <property name="audio_index">0</property>
  <property name="video_index">-1</property>
  <property name="mute_on_pause">1</property>
  <property name="mlt_service">avformat</property>
  <property name="kdenlive:clipname"/>
  <property name="kdenlive:clip_type">1</property>
  <property name="kdenlive:folderid">31</property>
  <property name="kdenlive:id">42</property>
  <property name="kdenlive:file_size">216654</property>
  <property name="kdenlive:file_hash">6146e79f50f39e10d379507cce5bc903</property>
  <property name="kdenlive:audio_max0">169</property>
 </producer>
 <producer id="producer33" in="00:00:00.000" out="00:00:00.967">
  <property name="length">59</property>
  <property name="eof">pause</property>
  <property name="resource">/home/federico/Nextcloud/Kden/EditingUT/MemeFresh/landing.wav</property>
  <property name="meta.media.nb_streams">1</property>
  <property name="meta.media.0.stream.type">audio</property>
  <property name="meta.media.0.codec.sample_fmt">s16</property>
  <property name="meta.media.0.codec.sample_rate">48000</property>
  <property name="meta.media.0.codec.channels">2</property>
  <property name="meta.media.0.codec.name">pcm_s16le</property>
  <property name="meta.media.0.codec.long_name">PCM signed 16-bit little-endian</property>
  <property name="meta.media.0.codec.bit_rate">1536000</property>
  <property name="meta.attr.encoder.markup">Lavf59.16.100</property>
  <property name="seekable">1</property>
  <property name="audio_index">0</property>
  <property name="video_index">-1</property>
  <property name="mute_on_pause">1</property>
  <property name="mlt_service">avformat</property>
  <property name="kdenlive:clipname"/>
  <property name="kdenlive:clip_type">1</property>
  <property name="kdenlive:folderid">31</property>
  <property name="kdenlive:id">43</property>
  <property name="kdenlive:file_size">188878</property>
  <property name="kdenlive:file_hash">45e0bb9ba60cc0a272c5aebb535bdadb</property>
  <property name="kdenlive:audio_max0">205</property>
 </producer>
 <producer id="producer35" in="00:00:00.000" out="00:00:14.617">
  <property name="length">878</property>
  <property name="eof">pause</property>
  <property name="resource">/home/federico/Nextcloud/Kden/EditingUT/MemeFresh/Look At This Dude laugh_meme.wav</property>
  <property name="meta.media.nb_streams">1</property>
  <property name="meta.media.0.stream.type">audio</property>
  <property name="meta.media.0.codec.sample_fmt">s16</property>
  <property name="meta.media.0.codec.sample_rate">48000</property>
  <property name="meta.media.0.codec.channels">2</property>
  <property name="meta.media.0.codec.name">pcm_s16le</property>
  <property name="meta.media.0.codec.long_name">PCM signed 16-bit little-endian</property>
  <property name="meta.media.0.codec.bit_rate">1536000</property>
  <property name="meta.attr.encoder.markup">Lavf59.16.100</property>
  <property name="seekable">1</property>
  <property name="audio_index">0</property>
  <property name="video_index">-1</property>
  <property name="mute_on_pause">1</property>
  <property name="mlt_service">avformat</property>
  <property name="kdenlive:clipname"/>
  <property name="kdenlive:clip_type">1</property>
  <property name="kdenlive:folderid">31</property>
  <property name="kdenlive:id">44</property>
  <property name="kdenlive:file_size">2809678</property>
  <property name="kdenlive:file_hash">61fd882b49f0d8ce86cfe3fa855e1c57</property>
  <property name="kdenlive:audio_max0">202</property>
 </producer>
 <producer id="producer36" in="00:00:00.000" out="00:00:07.117">
  <property name="length">428</property>
  <property name="eof">pause</property>
  <property name="resource">/home/federico/Nextcloud/Kden/EditingUT/MemeFresh/meme_messicano_mexican.wav</property>
  <property name="meta.media.nb_streams">1</property>
  <property name="meta.media.0.stream.type">audio</property>
  <property name="meta.media.0.codec.sample_fmt">s16</property>
  <property name="meta.media.0.codec.sample_rate">48000</property>
  <property name="meta.media.0.codec.channels">2</property>
  <property name="meta.media.0.codec.name">pcm_s16le</property>
  <property name="meta.media.0.codec.long_name">PCM signed 16-bit little-endian</property>
  <property name="meta.media.0.codec.bit_rate">1536000</property>
  <property name="meta.attr.encoder.markup">Lavf59.16.100</property>
  <property name="seekable">1</property>
  <property name="audio_index">0</property>
  <property name="video_index">-1</property>
  <property name="mute_on_pause">1</property>
  <property name="mlt_service">avformat</property>
  <property name="kdenlive:clipname"/>
  <property name="kdenlive:clip_type">1</property>
  <property name="kdenlive:folderid">31</property>
  <property name="kdenlive:id">45</property>
  <property name="kdenlive:file_size">1369678</property>
  <property name="kdenlive:file_hash">0e0eed76dbe857fab9912a2a8acc4b55</property>
  <property name="kdenlive:audio_max0">161</property>
 </producer>
 <producer id="producer37" in="00:00:00.000" out="00:00:06.700">
  <property name="length">403</property>
  <property name="eof">pause</property>
  <property name="resource">/home/federico/Nextcloud/Kden/EditingUT/MemeFresh/meme_npc_music.wav</property>
  <property name="meta.media.nb_streams">1</property>
  <property name="meta.media.0.stream.type">audio</property>
  <property name="meta.media.0.codec.sample_fmt">s16</property>
  <property name="meta.media.0.codec.sample_rate">48000</property>
  <property name="meta.media.0.codec.channels">2</property>
  <property name="meta.media.0.codec.name">pcm_s16le</property>
  <property name="meta.media.0.codec.long_name">PCM signed 16-bit little-endian</property>
  <property name="meta.media.0.codec.bit_rate">1536000</property>
  <property name="meta.attr.encoder.markup">Lavf61.7.100</property>
  <property name="seekable">1</property>
  <property name="audio_index">0</property>
  <property name="video_index">-1</property>
  <property name="mute_on_pause">1</property>
  <property name="mlt_service">avformat</property>
  <property name="kdenlive:clipname"/>
  <property name="kdenlive:clip_type">1</property>
  <property name="kdenlive:folderid">31</property>
  <property name="kdenlive:id">46</property>
  <property name="kdenlive:file_size">1289678</property>
  <property name="kdenlive:file_hash">54eadf3940d556a842e1612dee7cb53a</property>
  <property name="kdenlive:audio_max0">195</property>
 </producer>
 <producer id="producer38" in="00:00:00.000" out="00:00:03.200">
  <property name="length">193</property>
  <property name="eof">pause</property>
  <property name="resource">/home/federico/Nextcloud/Kden/EditingUT/MemeFresh/metal pipe falling.wav</property>
  <property name="meta.media.nb_streams">1</property>
  <property name="meta.media.0.stream.type">audio</property>
  <property name="meta.media.0.codec.sample_fmt">s16</property>
  <property name="meta.media.0.codec.sample_rate">48000</property>
  <property name="meta.media.0.codec.channels">2</property>
  <property name="meta.media.0.codec.name">pcm_s16le</property>
  <property name="meta.media.0.codec.long_name">PCM signed 16-bit little-endian</property>
  <property name="meta.media.0.codec.bit_rate">1536000</property>
  <property name="meta.attr.encoder.markup">Lavf60.16.100</property>
  <property name="seekable">1</property>
  <property name="audio_index">0</property>
  <property name="video_index">-1</property>
  <property name="mute_on_pause">1</property>
  <property name="mlt_service">avformat</property>
  <property name="kdenlive:clipname"/>
  <property name="kdenlive:clip_type">1</property>
  <property name="kdenlive:folderid">31</property>
  <property name="kdenlive:id">47</property>
  <property name="kdenlive:file_size">617550</property>
  <property name="kdenlive:file_hash">3c52f29b9870f386be0d1029694a62fb</property>
  <property name="kdenlive:audio_max0">168</property>
 </producer>
 <producer id="producer39" in="00:00:00.000" out="00:00:04.117">
  <property name="length">248</property>
  <property name="eof">pause</property>
  <property name="resource">/home/federico/Nextcloud/Kden/EditingUT/MemeFresh/metal pipe falling_reverb.wav</property>
  <property name="meta.media.nb_streams">1</property>
  <property name="meta.media.0.stream.type">audio</property>
  <property name="meta.media.0.codec.sample_fmt">s16</property>
  <property name="meta.media.0.codec.sample_rate">48000</property>
  <property name="meta.media.0.codec.channels">2</property>
  <property name="meta.media.0.codec.name">pcm_s16le</property>
  <property name="meta.media.0.codec.long_name">PCM signed 16-bit little-endian</property>
  <property name="meta.media.0.codec.bit_rate">1536000</property>
  <property name="meta.attr.encoder.markup">Lavf60.16.100 (libsndfile-1.2.0)</property>
  <property name="seekable">1</property>
  <property name="audio_index">0</property>
  <property name="video_index">-1</property>
  <property name="mute_on_pause">1</property>
  <property name="mlt_service">avformat</property>
  <property name="kdenlive:clipname"/>
  <property name="kdenlive:clip_type">1</property>
  <property name="kdenlive:folderid">31</property>
  <property name="kdenlive:id">48</property>
  <property name="kdenlive:file_size">792614</property>
  <property name="kdenlive:file_hash">ec44bb3eed431a650bf9411ae275755b</property>
  <property name="kdenlive:audio_max0">168</property>
  <property name="kdenlive:zone_in">0</property>
  <property name="kdenlive:zone_out">30</property>
 </producer>
 <producer id="producer40" in="00:00:00.000" out="00:00:10.383">
  <property name="length">624</property>
  <property name="eof">pause</property>
  <property name="resource">/home/federico/Nextcloud/Kden/EditingUT/MemeFresh/pokemon wall bump.wav</property>
  <property name="meta.media.nb_streams">1</property>
  <property name="meta.media.0.stream.type">audio</property>
  <property name="meta.media.0.codec.sample_fmt">s16</property>
  <property name="meta.media.0.codec.sample_rate">48000</property>
  <property name="meta.media.0.codec.channels">2</property>
  <property name="meta.media.0.codec.name">pcm_s16le</property>
  <property name="meta.media.0.codec.long_name">PCM signed 16-bit little-endian</property>
  <property name="meta.media.0.codec.bit_rate">1536000</property>
  <property name="meta.attr.artist.markup">Azure</property>
  <property name="meta.attr.comment.markup">https://www.youtube.com/watch?v=nMFFIwv7F_s</property>
  <property name="meta.attr.date.markup">2017</property>
  <property name="meta.attr.title.markup">Pokemon Wall Bump Sound Effect</property>
  <property name="meta.attr.encoder.markup">Lavf60.16.100</property>
  <property name="seekable">1</property>
  <property name="audio_index">0</property>
  <property name="video_index">-1</property>
  <property name="mute_on_pause">1</property>
  <property name="mlt_service">avformat</property>
  <property name="kdenlive:clipname"/>
  <property name="kdenlive:clip_type">1</property>
  <property name="kdenlive:folderid">31</property>
  <property name="kdenlive:id">49</property>
  <property name="kdenlive:file_size">1997486</property>
  <property name="kdenlive:file_hash">c7a7c904152bb1b3606ab1a13d44c06d</property>
  <property name="kdenlive:audio_max0">146</property>
 </producer>
 <producer id="producer42" in="00:00:00.000" out="00:00:07.400">
  <property name="length">445</property>
  <property name="eof">pause</property>
  <property name="resource">/home/federico/Nextcloud/Kden/EditingUT/MemeFresh/siren meme.wav</property>
  <property name="meta.media.nb_streams">1</property>
  <property name="meta.media.0.stream.type">audio</property>
  <property name="meta.media.0.codec.sample_fmt">s16</property>
  <property name="meta.media.0.codec.sample_rate">48000</property>
  <property name="meta.media.0.codec.channels">2</property>
  <property name="meta.media.0.codec.name">pcm_s16le</property>
  <property name="meta.media.0.codec.long_name">PCM signed 16-bit little-endian</property>
  <property name="meta.media.0.codec.bit_rate">1536000</property>
  <property name="meta.attr.encoder.markup">Lavf59.16.100</property>
  <property name="seekable">1</property>
  <property name="audio_index">0</property>
  <property name="video_index">-1</property>
  <property name="mute_on_pause">1</property>
  <property name="mlt_service">avformat</property>
  <property name="kdenlive:clipname"/>
  <property name="kdenlive:clip_type">1</property>
  <property name="kdenlive:folderid">31</property>
  <property name="kdenlive:id">50</property>
  <property name="kdenlive:file_size">1424078</property>
  <property name="kdenlive:file_hash">41a488d1a9b2960398f12688a8941235</property>
  <property name="kdenlive:audio_max0">148</property>
  <property name="kdenlive:zone_in">0</property>
  <property name="kdenlive:zone_out">66</property>
 </producer>
 <producer id="producer41" in="00:00:00.000" out="00:00:00.950">
  <property name="length">58</property>
  <property name="eof">pause</property>
  <property name="resource">/home/federico/Nextcloud/Kden/EditingUT/MemeFresh/slap.wav</property>
  <property name="meta.media.nb_streams">1</property>
  <property name="meta.media.0.stream.type">audio</property>
  <property name="meta.media.0.codec.sample_fmt">s16</property>
  <property name="meta.media.0.codec.sample_rate">48000</property>
  <property name="meta.media.0.codec.channels">2</property>
  <property name="meta.media.0.codec.name">pcm_s16le</property>
  <property name="meta.media.0.codec.long_name">PCM signed 16-bit little-endian</property>
  <property name="meta.media.0.codec.bit_rate">1536000</property>
  <property name="meta.attr.encoder.markup">Lavf59.16.100</property>
  <property name="seekable">1</property>
  <property name="audio_index">0</property>
  <property name="video_index">-1</property>
  <property name="mute_on_pause">1</property>
  <property name="mlt_service">avformat</property>
  <property name="kdenlive:clipname"/>
  <property name="kdenlive:clip_type">1</property>
  <property name="kdenlive:folderid">31</property>
  <property name="kdenlive:id">51</property>
  <property name="kdenlive:file_size">185678</property>
  <property name="kdenlive:file_hash">40a136ca4432692234991dba0020f97e</property>
  <property name="kdenlive:audio_max0">195</property>
 </producer>
 <producer id="producer44" in="00:00:00.000" out="00:00:05.150">
  <property name="length">310</property>
  <property name="eof">pause</property>
  <property name="resource">/home/federico/Nextcloud/Kden/EditingUT/MemeFresh/slenderman death.wav</property>
  <property name="meta.media.nb_streams">1</property>
  <property name="meta.media.0.stream.type">audio</property>
  <property name="meta.media.0.codec.sample_fmt">s16</property>
  <property name="meta.media.0.codec.sample_rate">44100</property>
  <property name="meta.media.0.codec.channels">2</property>
  <property name="meta.media.0.codec.name">pcm_s16le</property>
  <property name="meta.media.0.codec.long_name">PCM signed 16-bit little-endian</property>
  <property name="meta.media.0.codec.bit_rate">1411200</property>
  <property name="meta.attr.encoder.markup">Lavf60.16.100</property>
  <property name="seekable">1</property>
  <property name="audio_index">0</property>
  <property name="video_index">-1</property>
  <property name="mute_on_pause">1</property>
  <property name="mlt_service">avformat</property>
  <property name="kdenlive:clipname"/>
  <property name="kdenlive:clip_type">1</property>
  <property name="kdenlive:folderid">31</property>
  <property name="kdenlive:id">52</property>
  <property name="kdenlive:file_size">912462</property>
  <property name="kdenlive:file_hash">9f9ad9ffc798a6dbba67d586545b5614</property>
  <property name="kdenlive:audio_max0">181</property>
  <property name="kdenlive:zone_in">51</property>
  <property name="kdenlive:zone_out">92</property>
 </producer>
 <producer id="producer43" in="00:00:00.000" out="00:00:01.867">
  <property name="length">113</property>
  <property name="eof">pause</property>
  <property name="resource">/home/federico/Nextcloud/Kden/EditingUT/MemeFresh/taco_bell_death.wav</property>
  <property name="meta.media.nb_streams">1</property>
  <property name="meta.media.0.stream.type">audio</property>
  <property name="meta.media.0.codec.sample_fmt">s16</property>
  <property name="meta.media.0.codec.sample_rate">48000</property>
  <property name="meta.media.0.codec.channels">2</property>
  <property name="meta.media.0.codec.name">pcm_s16le</property>
  <property name="meta.media.0.codec.long_name">PCM signed 16-bit little-endian</property>
  <property name="meta.media.0.codec.bit_rate">1536000</property>
  <property name="meta.attr.encoder.markup">Lavf61.7.100</property>
  <property name="seekable">1</property>
  <property name="audio_index">0</property>
  <property name="video_index">-1</property>
  <property name="mute_on_pause">1</property>
  <property name="mlt_service">avformat</property>
  <property name="kdenlive:clipname"/>
  <property name="kdenlive:clip_type">1</property>
  <property name="kdenlive:folderid">31</property>
  <property name="kdenlive:id">53</property>
  <property name="kdenlive:file_size">361678</property>
  <property name="kdenlive:file_hash">580c1a00c35fff60953328ea291f8e71</property>
  <property name="kdenlive:audio_max0">188</property>
 </producer>
 <producer id="producer51" in="00:00:00.000" out="00:00:05.633">
  <property name="length">339</property>
  <property name="eof">pause</property>
  <property name="resource">/home/federico/Nextcloud/Kden/EditingUT/MemeFresh/troll face smiling meme template.mkv</property>
  <property name="audio_index">1</property>
  <property name="video_index">0</property>
  <property name="mute_on_pause">0</property>
  <property name="mlt_service">avformat-novalidate</property>
  <property name="meta.media.nb_streams">2</property>
  <property name="meta.media.0.stream.type">video</property>
  <property name="meta.media.0.stream.frame_rate">60</property>
  <property name="meta.media.0.stream.sample_aspect_ratio">1</property>
  <property name="meta.media.0.codec.width">1920</property>
  <property name="meta.media.0.codec.height">1080</property>
  <property name="meta.media.0.codec.rotate">0</property>
  <property name="meta.media.0.codec.pix_fmt">yuv420p</property>
  <property name="meta.media.0.codec.sample_aspect_ratio">1</property>
  <property name="meta.media.0.codec.colorspace">709</property>
  <property name="meta.media.0.codec.color_trc">1</property>
  <property name="meta.media.0.codec.name">h264</property>
  <property name="meta.media.0.codec.long_name">H.264 / AVC / MPEG-4 AVC / MPEG-4 part 10</property>
  <property name="meta.media.0.codec.bit_rate">0</property>
  <property name="meta.attr.0.stream.DURATION.markup">00:00:05.638000000</property>
  <property name="meta.media.1.stream.type">audio</property>
  <property name="meta.media.1.codec.sample_fmt">fltp</property>
  <property name="meta.media.1.codec.sample_rate">48000</property>
  <property name="meta.media.1.codec.channels">2</property>
  <property name="meta.media.1.codec.name">aac</property>
  <property name="meta.media.1.codec.long_name">AAC (Advanced Audio Coding)</property>
  <property name="meta.media.1.codec.bit_rate">0</property>
  <property name="meta.attr.1.stream.DURATION.markup">00:00:05.653000000</property>
  <property name="meta.attr.ENCODER.markup">Lavf59.16.100</property>
  <property name="seekable">1</property>
  <property name="meta.media.sample_aspect_num">1</property>
  <property name="meta.media.sample_aspect_den">1</property>
  <property name="aspect_ratio">1</property>
  <property name="format">3</property>
  <property name="kdenlive:clipname"/>
  <property name="meta.media.frame_rate_num">60</property>
  <property name="meta.media.frame_rate_den">1</property>
  <property name="meta.media.colorspace">709</property>
  <property name="meta.media.color_trc">1</property>
  <property name="meta.media.has_b_frames">0</property>
  <property name="meta.media.width">1920</property>
  <property name="meta.media.height">1080</property>
  <property name="meta.media.color_range">mpeg</property>
  <property name="meta.media.top_field_first">0</property>
  <property name="meta.media.progressive">1</property>
  <property name="kdenlive:clip_type">0</property>
  <property name="kdenlive:folderid">31</property>
  <property name="kdenlive:id">54</property>
  <property name="kdenlive:file_size">4464917</property>
  <property name="kdenlive:file_hash">2cf7e6929a529c4637fe5faa7b980a3c</property>
  <property name="kdenlive:audio_max1">154</property>
  <property name="kdenlive:zone_in">16</property>
  <property name="kdenlive:zone_out">35</property>
 </producer>
 <producer id="producer45" in="00:00:00.000" out="00:00:03.117">
  <property name="length">188</property>
  <property name="eof">pause</property>
  <property name="resource">/home/federico/Nextcloud/Kden/EditingUT/MemeFresh/vine boom.wav</property>
  <property name="meta.media.nb_streams">1</property>
  <property name="meta.media.0.stream.type">audio</property>
  <property name="meta.media.0.codec.sample_fmt">s16</property>
  <property name="meta.media.0.codec.sample_rate">44100</property>
  <property name="meta.media.0.codec.channels">2</property>
  <property name="meta.media.0.codec.name">pcm_s16le</property>
  <property name="meta.media.0.codec.long_name">PCM signed 16-bit little-endian</property>
  <property name="meta.media.0.codec.bit_rate">1411200</property>
  <property name="meta.attr.encoder.markup">Lavf60.16.100</property>
  <property name="seekable">1</property>
  <property name="audio_index">0</property>
  <property name="video_index">-1</property>
  <property name="mute_on_pause">1</property>
  <property name="mlt_service">avformat</property>
  <property name="kdenlive:clipname"/>
  <property name="kdenlive:clip_type">1</property>
  <property name="kdenlive:folderid">31</property>
  <property name="kdenlive:id">55</property>
  <property name="kdenlive:file_size">553038</property>
  <property name="kdenlive:file_hash">ba2b5fa54af603ecc7dd45ec7b28486a</property>
  <property name="kdenlive:audio_max0">250</property>
  <property name="kdenlive:zone_in">0</property>
  <property name="kdenlive:zone_out">28</property>
 </producer>
 <producer id="producer46" in="00:00:00.000" out="00:00:09.567">
  <property name="length">575</property>
  <property name="eof">pause</property>
  <property name="resource">/home/federico/Nextcloud/Kden/EditingUT/MemeFresh/vomiting.wav</property>
  <property name="meta.media.nb_streams">1</property>
  <property name="meta.media.0.stream.type">audio</property>
  <property name="meta.media.0.codec.sample_fmt">s16</property>
  <property name="meta.media.0.codec.sample_rate">44100</property>
  <property name="meta.media.0.codec.channels">2</property>
  <property name="meta.media.0.codec.name">pcm_s16le</property>
  <property name="meta.media.0.codec.long_name">PCM signed 16-bit little-endian</property>
  <property name="meta.media.0.codec.bit_rate">1411200</property>
  <property name="meta.attr.encoder.markup">Lavf60.16.100</property>
  <property name="seekable">1</property>
  <property name="audio_index">0</property>
  <property name="video_index">-1</property>
  <property name="mute_on_pause">1</property>
  <property name="mlt_service">avformat</property>
  <property name="kdenlive:clipname"/>
  <property name="kdenlive:clip_type">1</property>
  <property name="kdenlive:folderid">31</property>
  <property name="kdenlive:id">56</property>
  <property name="kdenlive:file_size">1691214</property>
  <property name="kdenlive:file_hash">420ecd0045f5b700b7db3ba405a8e12d</property>
  <property name="kdenlive:audio_max0">176</property>
 </producer>
 <producer id="producer47" in="00:00:00.000" out="00:00:03.150">
  <property name="length">190</property>
  <property name="eof">pause</property>
  <property name="resource">/home/federico/Nextcloud/Kden/EditingUT/MemeFresh/what are you doing step bro.wav</property>
  <property name="meta.media.nb_streams">1</property>
  <property name="meta.media.0.stream.type">audio</property>
  <property name="meta.media.0.codec.sample_fmt">s16</property>
  <property name="meta.media.0.codec.sample_rate">44100</property>
  <property name="meta.media.0.codec.channels">2</property>
  <property name="meta.media.0.codec.name">pcm_s16le</property>
  <property name="meta.media.0.codec.long_name">PCM signed 16-bit little-endian</property>
  <property name="meta.media.0.codec.bit_rate">1411200</property>
  <property name="meta.attr.encoder.markup">Lavf60.16.100</property>
  <property name="seekable">1</property>
  <property name="audio_index">0</property>
  <property name="video_index">-1</property>
  <property name="mute_on_pause">1</property>
  <property name="mlt_service">avformat</property>
  <property name="kdenlive:clipname"/>
  <property name="kdenlive:clip_type">1</property>
  <property name="kdenlive:folderid">31</property>
  <property name="kdenlive:id">57</property>
  <property name="kdenlive:file_size">557646</property>
  <property name="kdenlive:file_hash">ba81579900f81b84eb6c11095b4b7705</property>
  <property name="kdenlive:audio_max0">223</property>
 </producer>
 <producer id="producer48" in="00:00:00.000" out="00:00:03.717">
  <property name="length">224</property>
  <property name="eof">pause</property>
  <property name="resource">/home/federico/Nextcloud/Kden/EditingUT/Music/cant touch this -.wav</property>
  <property name="meta.media.nb_streams">1</property>
  <property name="meta.media.0.stream.type">audio</property>
  <property name="meta.media.0.codec.sample_fmt">s16</property>
  <property name="meta.media.0.codec.sample_rate">44100</property>
  <property name="meta.media.0.codec.channels">2</property>
  <property name="meta.media.0.codec.name">pcm_s16le</property>
  <property name="meta.media.0.codec.long_name">PCM signed 16-bit little-endian</property>
  <property name="meta.media.0.codec.bit_rate">1411200</property>
  <property name="meta.attr.encoder.markup">Lavf60.16.100</property>
  <property name="seekable">1</property>
  <property name="audio_index">0</property>
  <property name="video_index">-1</property>
  <property name="mute_on_pause">1</property>
  <property name="mlt_service">avformat</property>
  <property name="kdenlive:clipname"/>
  <property name="kdenlive:clip_type">1</property>
  <property name="kdenlive:folderid">58</property>
  <property name="kdenlive:id">59</property>
  <property name="kdenlive:file_size">659022</property>
  <property name="kdenlive:file_hash">5823fe05dfecd7878c3828b48fc59afd</property>
  <property name="kdenlive:audio_max0">171</property>
 </producer>
 <producer id="producer49" in="00:00:00.000" out="00:00:18.967">
  <property name="length">1139</property>
  <property name="eof">pause</property>
  <property name="resource">/home/federico/Nextcloud/Kden/EditingUT/Music/heavenly music - gaming.wav</property>
  <property name="meta.media.nb_streams">1</property>
  <property name="meta.media.0.stream.type">audio</property>
  <property name="meta.media.0.codec.sample_fmt">s16</property>
  <property name="meta.media.0.codec.sample_rate">44100</property>
  <property name="meta.media.0.codec.channels">2</property>
  <property name="meta.media.0.codec.name">pcm_s16le</property>
  <property name="meta.media.0.codec.long_name">PCM signed 16-bit little-endian</property>
  <property name="meta.media.0.codec.bit_rate">1411200</property>
  <property name="meta.attr.encoder.markup">Lavf60.16.100</property>
  <property name="seekable">1</property>
  <property name="audio_index">0</property>
  <property name="video_index">-1</property>
  <property name="mute_on_pause">1</property>
  <property name="mlt_service">avformat</property>
  <property name="kdenlive:clipname"/>
  <property name="kdenlive:clip_type">1</property>
  <property name="kdenlive:folderid">58</property>
  <property name="kdenlive:id">60</property>
  <property name="kdenlive:file_size">3350094</property>
  <property name="kdenlive:file_hash">d1bbbb8794a71a0a556bbf0c2c817987</property>
  <property name="kdenlive:audio_max0">176</property>
 </producer>
 <producer id="producer50" in="00:00:00.000" out="00:00:12.900">
  <property name="length">775</property>
  <property name="eof">pause</property>
  <property name="resource">/home/federico/Nextcloud/Kden/EditingUT/Music/sigla superquark - aria sulla quarta corda.wav</property>
  <property name="meta.media.nb_streams">1</property>
  <property name="meta.media.0.stream.type">audio</property>
  <property name="meta.media.0.codec.sample_fmt">s16</property>
  <property name="meta.media.0.codec.sample_rate">48000</property>
  <property name="meta.media.0.codec.channels">2</property>
  <property name="meta.media.0.codec.name">pcm_s16le</property>
  <property name="meta.media.0.codec.long_name">PCM signed 16-bit little-endian</property>
  <property name="meta.media.0.codec.bit_rate">1536000</property>
  <property name="meta.attr.encoder.markup">Lavf59.16.100</property>
  <property name="seekable">1</property>
  <property name="audio_index">0</property>
  <property name="video_index">-1</property>
  <property name="mute_on_pause">1</property>
  <property name="mlt_service">avformat</property>
  <property name="kdenlive:clipname"/>
  <property name="kdenlive:clip_type">1</property>
  <property name="kdenlive:folderid">58</property>
  <property name="kdenlive:id">61</property>
  <property name="kdenlive:file_size">2480078</property>
  <property name="kdenlive:file_hash">3d75c2640b38b809ae7382a228cf0321</property>
  <property name="kdenlive:audio_max0">219</property>
 </producer>
 <producer id="producer52" in="00:00:00.000" out="00:00:07.667">
  <property name="length">461</property>
  <property name="eof">pause</property>
  <property name="resource">/home/federico/Nextcloud/Kden/EditingUT/Music/tarantella napoletana.wav</property>
  <property name="meta.media.nb_streams">1</property>
  <property name="meta.media.0.stream.type">audio</property>
  <property name="meta.media.0.codec.sample_fmt">s16</property>
  <property name="meta.media.0.codec.sample_rate">48000</property>
  <property name="meta.media.0.codec.channels">2</property>
  <property name="meta.media.0.codec.name">pcm_s16le</property>
  <property name="meta.media.0.codec.long_name">PCM signed 16-bit little-endian</property>
  <property name="meta.media.0.codec.bit_rate">1536000</property>
  <property name="meta.attr.encoder.markup">Lavf59.16.100</property>
  <property name="seekable">1</property>
  <property name="audio_index">0</property>
  <property name="video_index">-1</property>
  <property name="mute_on_pause">1</property>
  <property name="mlt_service">avformat</property>
  <property name="kdenlive:clipname"/>
  <property name="kdenlive:clip_type">1</property>
  <property name="kdenlive:folderid">58</property>
  <property name="kdenlive:id">62</property>
  <property name="kdenlive:file_size">1475278</property>
  <property name="kdenlive:file_hash">2e9583a3c2176ee156ff216a12445460</property>
  <property name="kdenlive:audio_max0">195</property>
 </producer>
 <producer id="producer53" in="00:00:00.000" out="00:00:05.100">
  <property name="length">307</property>
  <property name="eof">pause</property>
  <property name="resource">/home/federico/Nextcloud/Kden/EditingUT/Music/vanilla ice - ice ice baby_meme.wav</property>
  <property name="meta.media.nb_streams">1</property>
  <property name="meta.media.0.stream.type">audio</property>
  <property name="meta.media.0.codec.sample_fmt">s16</property>
  <property name="meta.media.0.codec.sample_rate">48000</property>
  <property name="meta.media.0.codec.channels">2</property>
  <property name="meta.media.0.codec.name">pcm_s16le</property>
  <property name="meta.media.0.codec.long_name">PCM signed 16-bit little-endian</property>
  <property name="meta.media.0.codec.bit_rate">1536000</property>
  <property name="meta.attr.encoder.markup">Lavf59.16.100</property>
  <property name="seekable">1</property>
  <property name="audio_index">0</property>
  <property name="video_index">-1</property>
  <property name="mute_on_pause">1</property>
  <property name="mlt_service">avformat</property>
  <property name="kdenlive:clipname"/>
  <property name="kdenlive:clip_type">1</property>
  <property name="kdenlive:folderid">58</property>
  <property name="kdenlive:id">63</property>
  <property name="kdenlive:file_size">982478</property>
  <property name="kdenlive:file_hash">60027b9b6689f7ee2c92bc1853ad915d</property>
  <property name="kdenlive:audio_max0">164</property>
 </producer>
 <producer id="producer54" in="00:00:00.000" out="00:00:18.733">
  <property name="length">1125</property>
  <property name="eof">pause</property>
  <property name="resource">/home/federico/Nextcloud/Kden/EditingUT/Music/Doom/doom eternal track ost - the only thing they fear is you.wav</property>
  <property name="meta.media.nb_streams">1</property>
  <property name="meta.media.0.stream.type">audio</property>
  <property name="meta.media.0.codec.sample_fmt">s16</property>
  <property name="meta.media.0.codec.sample_rate">48000</property>
  <property name="meta.media.0.codec.channels">2</property>
  <property name="meta.media.0.codec.name">pcm_s16le</property>
  <property name="meta.media.0.codec.long_name">PCM signed 16-bit little-endian</property>
  <property name="meta.media.0.codec.bit_rate">1536000</property>
  <property name="meta.attr.encoder.markup">Lavf59.16.100</property>
  <property name="seekable">1</property>
  <property name="audio_index">0</property>
  <property name="video_index">-1</property>
  <property name="mute_on_pause">1</property>
  <property name="mlt_service">avformat</property>
  <property name="kdenlive:clipname"/>
  <property name="kdenlive:clip_type">1</property>
  <property name="kdenlive:folderid">64</property>
  <property name="kdenlive:id">65</property>
  <property name="kdenlive:file_size">3600078</property>
  <property name="kdenlive:file_hash">11b7d1f58a94ab21e258f0a8db78f510</property>
  <property name="kdenlive:audio_max0">253</property>
 </producer>
 <producer id="producer55" in="00:00:00.000" out="00:00:22.350">
  <property name="length">1342</property>
  <property name="eof">pause</property>
  <property name="resource">/home/federico/Nextcloud/Kden/EditingUT/Music/Doom/doom ost - e1m1 - at dooms gate.wav</property>
  <property name="meta.media.nb_streams">1</property>
  <property name="meta.media.0.stream.type">audio</property>
  <property name="meta.media.0.codec.sample_fmt">s16</property>
  <property name="meta.media.0.codec.sample_rate">48000</property>
  <property name="meta.media.0.codec.channels">2</property>
  <property name="meta.media.0.codec.name">pcm_s16le</property>
  <property name="meta.media.0.codec.long_name">PCM signed 16-bit little-endian</property>
  <property name="meta.media.0.codec.bit_rate">1536000</property>
  <property name="meta.attr.encoder.markup">Lavf59.16.100</property>
  <property name="seekable">1</property>
  <property name="audio_index">0</property>
  <property name="video_index">-1</property>
  <property name="mute_on_pause">1</property>
  <property name="mlt_service">avformat</property>
  <property name="kdenlive:clipname"/>
  <property name="kdenlive:clip_type">1</property>
  <property name="kdenlive:folderid">64</property>
  <property name="kdenlive:id">66</property>
  <property name="kdenlive:file_size">4294478</property>
  <property name="kdenlive:file_hash">6728f2264addb27c6926e8a17d1f47f6</property>
  <property name="kdenlive:audio_max0">230</property>
 </producer>
 <producer id="producer56" in="00:00:00.000" out="00:00:28.433">
  <property name="length">1707</property>
  <property name="eof">pause</property>
  <property name="resource">/home/federico/Nextcloud/Kden/EditingUT/Music/Doom/mick gordon - doom- rip &amp; tear.wav</property>
  <property name="meta.media.nb_streams">1</property>
  <property name="meta.media.0.stream.type">audio</property>
  <property name="meta.media.0.codec.sample_fmt">s16</property>
  <property name="meta.media.0.codec.sample_rate">48000</property>
  <property name="meta.media.0.codec.channels">2</property>
  <property name="meta.media.0.codec.name">pcm_s16le</property>
  <property name="meta.media.0.codec.long_name">PCM signed 16-bit little-endian</property>
  <property name="meta.media.0.codec.bit_rate">1536000</property>
  <property name="meta.attr.encoder.markup">Lavf59.16.100</property>
  <property name="seekable">1</property>
  <property name="audio_index">0</property>
  <property name="video_index">-1</property>
  <property name="mute_on_pause">1</property>
  <property name="mlt_service">avformat</property>
  <property name="kdenlive:clipname"/>
  <property name="kdenlive:clip_type">1</property>
  <property name="kdenlive:folderid">64</property>
  <property name="kdenlive:id">67</property>
  <property name="kdenlive:file_size">5462478</property>
  <property name="kdenlive:file_hash">05a1c8e5b769ba77b17bd9705debcdbd</property>
  <property name="kdenlive:audio_max0">254</property>
 </producer>
 <producer id="producer57" in="00:00:00.000" out="00:00:10.467">
  <property name="length">629</property>
  <property name="eof">pause</property>
  <property name="resource">/home/federico/Nextcloud/Kden/EditingUT/Music/Meme/1,2,3_can i have a little more_the beatles - all together now children.wav</property>
  <property name="meta.media.nb_streams">1</property>
  <property name="meta.media.0.stream.type">audio</property>
  <property name="meta.media.0.codec.sample_fmt">s16</property>
  <property name="meta.media.0.codec.sample_rate">48000</property>
  <property name="meta.media.0.codec.channels">2</property>
  <property name="meta.media.0.codec.name">pcm_s16le</property>
  <property name="meta.media.0.codec.long_name">PCM signed 16-bit little-endian</property>
  <property name="meta.media.0.codec.bit_rate">1536000</property>
  <property name="meta.attr.encoder.markup">Lavf59.16.100</property>
  <property name="seekable">1</property>
  <property name="audio_index">0</property>
  <property name="video_index">-1</property>
  <property name="mute_on_pause">1</property>
  <property name="mlt_service">avformat</property>
  <property name="kdenlive:clipname"/>
  <property name="kdenlive:clip_type">1</property>
  <property name="kdenlive:folderid">68</property>
  <property name="kdenlive:id">69</property>
  <property name="kdenlive:file_size">2012878</property>
  <property name="kdenlive:file_hash">fc9f2834c8971fa8292d65adb2e481d1</property>
  <property name="kdenlive:audio_max0">127</property>
 </producer>
 <producer id="producer58" in="00:00:00.000" out="00:00:07.683">
  <property name="length">462</property>
  <property name="eof">pause</property>
  <property name="resource">/home/federico/Nextcloud/Kden/EditingUT/Music/Meme/boss music meme.wav</property>
  <property name="meta.media.nb_streams">1</property>
  <property name="meta.media.0.stream.type">audio</property>
  <property name="meta.media.0.codec.sample_fmt">s16</property>
  <property name="meta.media.0.codec.sample_rate">48000</property>
  <property name="meta.media.0.codec.channels">2</property>
  <property name="meta.media.0.codec.name">pcm_s16le</property>
  <property name="meta.media.0.codec.long_name">PCM signed 16-bit little-endian</property>
  <property name="meta.media.0.codec.bit_rate">1536000</property>
  <property name="meta.attr.encoder.markup">Lavf61.7.100</property>
  <property name="seekable">1</property>
  <property name="audio_index">0</property>
  <property name="video_index">-1</property>
  <property name="mute_on_pause">1</property>
  <property name="mlt_service">avformat</property>
  <property name="kdenlive:clipname"/>
  <property name="kdenlive:clip_type">1</property>
  <property name="kdenlive:folderid">68</property>
  <property name="kdenlive:id">70</property>
  <property name="kdenlive:file_size">1478478</property>
  <property name="kdenlive:file_hash">7640102b4c07155f7bec241ee63ba3f0</property>
  <property name="kdenlive:audio_max0">186</property>
 </producer>
 <producer id="producer59" in="00:00:00.000" out="00:00:23.733">
  <property name="length">1425</property>
  <property name="eof">pause</property>
  <property name="resource">/home/federico/Nextcloud/Kden/EditingUT/Music/Meme/careless whisper - romantic music meme.wav</property>
  <property name="meta.media.nb_streams">1</property>
  <property name="meta.media.0.stream.type">audio</property>
  <property name="meta.media.0.codec.sample_fmt">s16</property>
  <property name="meta.media.0.codec.sample_rate">48000</property>
  <property name="meta.media.0.codec.channels">2</property>
  <property name="meta.media.0.codec.name">pcm_s16le</property>
  <property name="meta.media.0.codec.long_name">PCM signed 16-bit little-endian</property>
  <property name="meta.media.0.codec.bit_rate">1536000</property>
  <property name="meta.attr.encoder.markup">Lavf59.16.100</property>
  <property name="seekable">1</property>
  <property name="audio_index">0</property>
  <property name="video_index">-1</property>
  <property name="mute_on_pause">1</property>
  <property name="mlt_service">avformat</property>
  <property name="kdenlive:clipname"/>
  <property name="kdenlive:clip_type">1</property>
  <property name="kdenlive:folderid">68</property>
  <property name="kdenlive:id">71</property>
  <property name="kdenlive:file_size">4560078</property>
  <property name="kdenlive:file_hash">7420bcefa2137857c76ae31e440b878b</property>
  <property name="kdenlive:audio_max0">204</property>
 </producer>
 <producer id="producer60" in="00:00:00.000" out="00:00:30.717">
  <property name="length">1844</property>
  <property name="eof">pause</property>
  <property name="resource">/home/federico/Nextcloud/Kden/EditingUT/Music/Meme/circus theme music.wav</property>
  <property name="meta.media.nb_streams">1</property>
  <property name="meta.media.0.stream.type">audio</property>
  <property name="meta.media.0.codec.sample_fmt">s16</property>
  <property name="meta.media.0.codec.sample_rate">48000</property>
  <property name="meta.media.0.codec.channels">2</property>
  <property name="meta.media.0.codec.name">pcm_s16le</property>
  <property name="meta.media.0.codec.long_name">PCM signed 16-bit little-endian</property>
  <property name="meta.media.0.codec.bit_rate">1536000</property>
  <property name="meta.attr.encoder.markup">Lavf61.7.100</property>
  <property name="seekable">1</property>
  <property name="audio_index">0</property>
  <property name="video_index">-1</property>
  <property name="mute_on_pause">1</property>
  <property name="mlt_service">avformat</property>
  <property name="kdenlive:clipname"/>
  <property name="kdenlive:clip_type">1</property>
  <property name="kdenlive:folderid">68</property>
  <property name="kdenlive:id">72</property>
  <property name="kdenlive:file_size">5900878</property>
  <property name="kdenlive:file_hash">961874622cfcf8cf08275086a07553f9</property>
  <property name="kdenlive:audio_max0">195</property>
 </producer>
 <producer id="producer61" in="00:00:00.000" out="00:00:39.717">
  <property name="length">2384</property>
  <property name="eof">pause</property>
  <property name="resource">/home/federico/Nextcloud/Kden/EditingUT/Music/Meme/csimiami intro.wav</property>
  <property name="meta.media.nb_streams">1</property>
  <property name="meta.media.0.stream.type">audio</property>
  <property name="meta.media.0.codec.sample_fmt">s16</property>
  <property name="meta.media.0.codec.sample_rate">44100</property>
  <property name="meta.media.0.codec.channels">1</property>
  <property name="meta.media.0.codec.name">pcm_s16le</property>
  <property name="meta.media.0.codec.long_name">PCM signed 16-bit little-endian</property>
  <property name="meta.media.0.codec.bit_rate">705600</property>
  <property name="meta.attr.encoder.markup">Lavf60.16.100</property>
  <property name="seekable">1</property>
  <property name="audio_index">0</property>
  <property name="video_index">-1</property>
  <property name="mute_on_pause">1</property>
  <property name="mlt_service">avformat</property>
  <property name="kdenlive:clipname"/>
  <property name="kdenlive:clip_type">1</property>
  <property name="kdenlive:folderid">68</property>
  <property name="kdenlive:id">73</property>
  <property name="kdenlive:file_size">3504462</property>
  <property name="kdenlive:file_hash">4cb1a3d355958e4f80ab04c3559171d6</property>
  <property name="kdenlive:audio_max0">200</property>
 </producer>
 <producer id="producer63" in="00:00:00.000" out="00:00:12.550">
  <property name="length">754</property>
  <property name="eof">pause</property>
  <property name="resource">/home/federico/Nextcloud/Kden/EditingUT/Music/Meme/elevator music - gaming.wav</property>
  <property name="meta.media.nb_streams">1</property>
  <property name="meta.media.0.stream.type">audio</property>
  <property name="meta.media.0.codec.sample_fmt">s16</property>
  <property name="meta.media.0.codec.sample_rate">48000</property>
  <property name="meta.media.0.codec.channels">2</property>
  <property name="meta.media.0.codec.name">pcm_s16le</property>
  <property name="meta.media.0.codec.long_name">PCM signed 16-bit little-endian</property>
  <property name="meta.media.0.codec.bit_rate">1536000</property>
  <property name="meta.attr.encoder.markup">Lavf59.16.100</property>
  <property name="seekable">1</property>
  <property name="audio_index">0</property>
  <property name="video_index">-1</property>
  <property name="mute_on_pause">1</property>
  <property name="mlt_service">avformat</property>
  <property name="kdenlive:clipname"/>
  <property name="kdenlive:clip_type">1</property>
  <property name="kdenlive:folderid">68</property>
  <property name="kdenlive:id">74</property>
  <property name="kdenlive:file_size">2412878</property>
  <property name="kdenlive:file_hash">6b210849bbe05538879089bd4897b83f</property>
  <property name="kdenlive:audio_max0">174</property>
 </producer>
 <producer id="producer62" in="00:00:00.000" out="00:00:11.500">
  <property name="length">691</property>
  <property name="eof">pause</property>
  <property name="resource">/home/federico/Nextcloud/Kden/EditingUT/Music/Meme/escubidubidu meme.wav</property>
  <property name="meta.media.nb_streams">1</property>
  <property name="meta.media.0.stream.type">audio</property>
  <property name="meta.media.0.codec.sample_fmt">s16</property>
  <property name="meta.media.0.codec.sample_rate">44100</property>
  <property name="meta.media.0.codec.channels">2</property>
  <property name="meta.media.0.codec.name">pcm_s16le</property>
  <property name="meta.media.0.codec.long_name">PCM signed 16-bit little-endian</property>
  <property name="meta.media.0.codec.bit_rate">1411200</property>
  <property name="meta.attr.encoder.markup">Lavf60.16.100</property>
  <property name="seekable">1</property>
  <property name="audio_index">0</property>
  <property name="video_index">-1</property>
  <property name="mute_on_pause">1</property>
  <property name="mlt_service">avformat</property>
  <property name="kdenlive:clipname"/>
  <property name="kdenlive:clip_type">1</property>
  <property name="kdenlive:folderid">68</property>
  <property name="kdenlive:id">75</property>
  <property name="kdenlive:file_size">2032206</property>
  <property name="kdenlive:file_hash">00d6781b7b731b1d6e7bacd32bede8fd</property>
  <property name="kdenlive:audio_max0">190</property>
 </producer>
 <producer id="producer64" in="00:00:00.000" out="00:00:24.850">
  <property name="length">1492</property>
  <property name="eof">pause</property>
  <property name="resource">/home/federico/Nextcloud/Kden/EditingUT/Music/Meme/fu_k this sh!t i’m out.wav</property>
  <property name="meta.media.nb_streams">1</property>
  <property name="meta.media.0.stream.type">audio</property>
  <property name="meta.media.0.codec.sample_fmt">s16</property>
  <property name="meta.media.0.codec.sample_rate">44100</property>
  <property name="meta.media.0.codec.channels">2</property>
  <property name="meta.media.0.codec.name">pcm_s16le</property>
  <property name="meta.media.0.codec.long_name">PCM signed 16-bit little-endian</property>
  <property name="meta.media.0.codec.bit_rate">1411200</property>
  <property name="meta.attr.encoder.markup">Lavf60.16.100</property>
  <property name="seekable">1</property>
  <property name="audio_index">0</property>
  <property name="video_index">-1</property>
  <property name="mute_on_pause">1</property>
  <property name="mlt_service">avformat</property>
  <property name="kdenlive:clipname"/>
  <property name="kdenlive:clip_type">1</property>
  <property name="kdenlive:folderid">68</property>
  <property name="kdenlive:id">76</property>
  <property name="kdenlive:file_size">4386894</property>
  <property name="kdenlive:file_hash">d0c4c9a4ef7661309a02186a10a509e2</property>
  <property name="kdenlive:audio_max0">213</property>
 </producer>
 <producer id="producer65" in="00:00:00.000" out="00:00:08.850">
  <property name="length">532</property>
  <property name="eof">pause</property>
  <property name="resource">/home/federico/Nextcloud/Kden/EditingUT/Music/Meme/giga chad - can you feel my heart.wav</property>
  <property name="meta.media.nb_streams">1</property>
  <property name="meta.media.0.stream.type">audio</property>
  <property name="meta.media.0.codec.sample_fmt">s16</property>
  <property name="meta.media.0.codec.sample_rate">48000</property>
  <property name="meta.media.0.codec.channels">2</property>
  <property name="meta.media.0.codec.name">pcm_s16le</property>
  <property name="meta.media.0.codec.long_name">PCM signed 16-bit little-endian</property>
  <property name="meta.media.0.codec.bit_rate">1536000</property>
  <property name="meta.attr.encoder.markup">Lavf59.16.100</property>
  <property name="seekable">1</property>
  <property name="audio_index">0</property>
  <property name="video_index">-1</property>
  <property name="mute_on_pause">1</property>
  <property name="mlt_service">avformat</property>
  <property name="kdenlive:clipname"/>
  <property name="kdenlive:clip_type">1</property>
  <property name="kdenlive:folderid">68</property>
  <property name="kdenlive:id">77</property>
  <property name="kdenlive:file_size">1702478</property>
  <property name="kdenlive:file_hash">b39093ccc0f8e0180adae5e7ae60b219</property>
  <property name="kdenlive:audio_max0">189</property>
 </producer>
 <producer id="producer66" in="00:00:00.000" out="00:00:09.600">
  <property name="length">577</property>
  <property name="eof">pause</property>
  <property name="resource">/home/federico/Nextcloud/Kden/EditingUT/Music/Meme/hallelujah chorus.wav</property>
  <property name="meta.media.nb_streams">1</property>
  <property name="meta.media.0.stream.type">audio</property>
  <property name="meta.media.0.codec.sample_fmt">s16</property>
  <property name="meta.media.0.codec.sample_rate">44100</property>
  <property name="meta.media.0.codec.channels">2</property>
  <property name="meta.media.0.codec.name">pcm_s16le</property>
  <property name="meta.media.0.codec.long_name">PCM signed 16-bit little-endian</property>
  <property name="meta.media.0.codec.bit_rate">1411200</property>
  <property name="meta.attr.encoder.markup">Lavf60.16.100</property>
  <property name="seekable">1</property>
  <property name="audio_index">0</property>
  <property name="video_index">-1</property>
  <property name="mute_on_pause">1</property>
  <property name="mlt_service">avformat</property>
  <property name="kdenlive:clipname"/>
  <property name="kdenlive:clip_type">1</property>
  <property name="kdenlive:folderid">68</property>
  <property name="kdenlive:id">78</property>
  <property name="kdenlive:file_size">1695822</property>
  <property name="kdenlive:file_hash">3a32c778b77761cc90e73d5ed71414b9</property>
  <property name="kdenlive:audio_max0">199</property>
 </producer>
 <producer id="producer67" in="00:00:00.000" out="00:00:10.433">
  <property name="length">627</property>
  <property name="eof">pause</property>
  <property name="resource">/home/federico/Nextcloud/Kden/EditingUT/Music/Meme/holy.wav</property>
  <property name="meta.media.nb_streams">1</property>
  <property name="meta.media.0.stream.type">audio</property>
  <property name="meta.media.0.codec.sample_fmt">s16</property>
  <property name="meta.media.0.codec.sample_rate">44100</property>
  <property name="meta.media.0.codec.channels">2</property>
  <property name="meta.media.0.codec.name">pcm_s16le</property>
  <property name="meta.media.0.codec.long_name">PCM signed 16-bit little-endian</property>
  <property name="meta.media.0.codec.bit_rate">1411200</property>
  <property name="meta.attr.encoder.markup">Lavf60.16.100</property>
  <property name="seekable">1</property>
  <property name="audio_index">0</property>
  <property name="video_index">-1</property>
  <property name="mute_on_pause">1</property>
  <property name="mlt_service">avformat</property>
  <property name="kdenlive:clipname"/>
  <property name="kdenlive:clip_type">1</property>
  <property name="kdenlive:folderid">68</property>
  <property name="kdenlive:id">79</property>
  <property name="kdenlive:file_size">1843278</property>
  <property name="kdenlive:file_hash">b15a855464e53269df575a0aee8e8d1a</property>
  <property name="kdenlive:audio_max0">181</property>
 </producer>
 <producer id="producer69" in="00:00:00.000" out="00:00:04.783">
  <property name="length">288</property>
  <property name="eof">pause</property>
  <property name="resource">/home/federico/Nextcloud/Kden/EditingUT/Music/Meme/hyper_chad_meme.wav</property>
  <property name="meta.media.nb_streams">1</property>
  <property name="meta.media.0.stream.type">audio</property>
  <property name="meta.media.0.codec.sample_fmt">s16</property>
  <property name="meta.media.0.codec.sample_rate">48000</property>
  <property name="meta.media.0.codec.channels">2</property>
  <property name="meta.media.0.codec.name">pcm_s16le</property>
  <property name="meta.media.0.codec.long_name">PCM signed 16-bit little-endian</property>
  <property name="meta.media.0.codec.bit_rate">1536000</property>
  <property name="meta.attr.encoder.markup">Lavf60.16.100</property>
  <property name="seekable">1</property>
  <property name="audio_index">0</property>
  <property name="video_index">-1</property>
  <property name="mute_on_pause">1</property>
  <property name="mlt_service">avformat</property>
  <property name="kdenlive:clipname"/>
  <property name="kdenlive:clip_type">1</property>
  <property name="kdenlive:folderid">68</property>
  <property name="kdenlive:id">80</property>
  <property name="kdenlive:file_size">921678</property>
  <property name="kdenlive:file_hash">bfde8c404c300ba6a56a83355a70a700</property>
  <property name="kdenlive:audio_max0">247</property>
  <property name="kdenlive:zone_in">0</property>
  <property name="kdenlive:zone_out">139</property>
 </producer>
 <producer id="producer68" in="00:00:00.000" out="00:00:04.383">
  <property name="length">264</property>
  <property name="eof">pause</property>
  <property name="resource">/home/federico/Nextcloud/Kden/EditingUT/Music/Meme/meme_music_what.wav</property>
  <property name="meta.media.nb_streams">1</property>
  <property name="meta.media.0.stream.type">audio</property>
  <property name="meta.media.0.codec.sample_fmt">s16</property>
  <property name="meta.media.0.codec.sample_rate">48000</property>
  <property name="meta.media.0.codec.channels">2</property>
  <property name="meta.media.0.codec.name">pcm_s16le</property>
  <property name="meta.media.0.codec.long_name">PCM signed 16-bit little-endian</property>
  <property name="meta.media.0.codec.bit_rate">1536000</property>
  <property name="meta.attr.encoder.markup">Lavf60.16.100</property>
  <property name="seekable">1</property>
  <property name="audio_index">0</property>
  <property name="video_index">-1</property>
  <property name="mute_on_pause">1</property>
  <property name="mlt_service">avformat</property>
  <property name="kdenlive:clipname"/>
  <property name="kdenlive:clip_type">1</property>
  <property name="kdenlive:folderid">68</property>
  <property name="kdenlive:id">81</property>
  <property name="kdenlive:file_size">843342</property>
  <property name="kdenlive:file_hash">29fef772fabe1fb806db6727392e00c1</property>
  <property name="kdenlive:audio_max0">180</property>
 </producer>
 <producer id="producer70" in="00:00:00.000" out="00:00:11.683">
  <property name="length">702</property>
  <property name="eof">pause</property>
  <property name="resource">/home/federico/Nextcloud/Kden/EditingUT/Music/Meme/meme_sad_music_beach_my heart will go on - flute fail.wav</property>
  <property name="meta.media.nb_streams">1</property>
  <property name="meta.media.0.stream.type">audio</property>
  <property name="meta.media.0.codec.sample_fmt">s16</property>
  <property name="meta.media.0.codec.sample_rate">48000</property>
  <property name="meta.media.0.codec.channels">2</property>
  <property name="meta.media.0.codec.name">pcm_s16le</property>
  <property name="meta.media.0.codec.long_name">PCM signed 16-bit little-endian</property>
  <property name="meta.media.0.codec.bit_rate">1536000</property>
  <property name="meta.attr.encoder.markup">Lavf61.7.100</property>
  <property name="seekable">1</property>
  <property name="audio_index">0</property>
  <property name="video_index">-1</property>
  <property name="mute_on_pause">1</property>
  <property name="mlt_service">avformat</property>
  <property name="kdenlive:clipname"/>
  <property name="kdenlive:clip_type">1</property>
  <property name="kdenlive:folderid">68</property>
  <property name="kdenlive:id">82</property>
  <property name="kdenlive:file_size">2246478</property>
  <property name="kdenlive:file_hash">32985ef0c99132daf8c33d8ce3e0163e</property>
  <property name="kdenlive:audio_max0">159</property>
 </producer>
 <producer id="producer71" in="00:00:00.000" out="00:00:10.617">
  <property name="length">638</property>
  <property name="eof">pause</property>
  <property name="resource">/home/federico/Nextcloud/Kden/EditingUT/Music/Meme/mission impossible flute failed  meme.wav</property>
  <property name="meta.media.nb_streams">1</property>
  <property name="meta.media.0.stream.type">audio</property>
  <property name="meta.media.0.codec.sample_fmt">s16</property>
  <property name="meta.media.0.codec.sample_rate">48000</property>
  <property name="meta.media.0.codec.channels">2</property>
  <property name="meta.media.0.codec.name">pcm_s16le</property>
  <property name="meta.media.0.codec.long_name">PCM signed 16-bit little-endian</property>
  <property name="meta.media.0.codec.bit_rate">1536000</property>
  <property name="meta.attr.encoder.markup">Lavf61.7.100</property>
  <property name="seekable">1</property>
  <property name="audio_index">0</property>
  <property name="video_index">-1</property>
  <property name="mute_on_pause">1</property>
  <property name="mlt_service">avformat</property>
  <property name="kdenlive:clipname"/>
  <property name="kdenlive:clip_type">1</property>
  <property name="kdenlive:folderid">68</property>
  <property name="kdenlive:id">83</property>
  <property name="kdenlive:file_size">2041678</property>
  <property name="kdenlive:file_hash">63b98754951d2e3487cb512c253d2373</property>
  <property name="kdenlive:audio_max0">196</property>
 </producer>
 <producer id="producer72" in="00:00:00.000" out="00:00:16.250">
  <property name="length">976</property>
  <property name="eof">pause</property>
  <property name="resource">/home/federico/Nextcloud/Kden/EditingUT/Music/Meme/run meme bgm.wav</property>
  <property name="meta.media.nb_streams">1</property>
  <property name="meta.media.0.stream.type">audio</property>
  <property name="meta.media.0.codec.sample_fmt">s16</property>
  <property name="meta.media.0.codec.sample_rate">44100</property>
  <property name="meta.media.0.codec.channels">2</property>
  <property name="meta.media.0.codec.name">pcm_s16le</property>
  <property name="meta.media.0.codec.long_name">PCM signed 16-bit little-endian</property>
  <property name="meta.media.0.codec.bit_rate">1411200</property>
  <property name="meta.attr.encoder.markup">Lavf60.16.100</property>
  <property name="seekable">1</property>
  <property name="audio_index">0</property>
  <property name="video_index">-1</property>
  <property name="mute_on_pause">1</property>
  <property name="mlt_service">avformat</property>
  <property name="kdenlive:clipname"/>
  <property name="kdenlive:clip_type">1</property>
  <property name="kdenlive:folderid">68</property>
  <property name="kdenlive:id">84</property>
  <property name="kdenlive:file_size">2870862</property>
  <property name="kdenlive:file_hash">fc08cfa02c9d986bfda5a50c3c068449</property>
  <property name="kdenlive:audio_max0">240</property>
 </producer>
 <producer id="producer73" in="00:00:00.000" out="00:00:16.133">
  <property name="length">969</property>
  <property name="eof">pause</property>
  <property name="resource">/home/federico/Nextcloud/Kden/EditingUT/Music/Meme/spider-man 3 meme.wav</property>
  <property name="meta.media.nb_streams">1</property>
  <property name="meta.media.0.stream.type">audio</property>
  <property name="meta.media.0.codec.sample_fmt">s16</property>
  <property name="meta.media.0.codec.sample_rate">44100</property>
  <property name="meta.media.0.codec.channels">2</property>
  <property name="meta.media.0.codec.name">pcm_s16le</property>
  <property name="meta.media.0.codec.long_name">PCM signed 16-bit little-endian</property>
  <property name="meta.media.0.codec.bit_rate">1411200</property>
  <property name="meta.attr.encoder.markup">Lavf60.16.100</property>
  <property name="seekable">1</property>
  <property name="audio_index">0</property>
  <property name="video_index">-1</property>
  <property name="mute_on_pause">1</property>
  <property name="mlt_service">avformat</property>
  <property name="kdenlive:clipname"/>
  <property name="kdenlive:clip_type">1</property>
  <property name="kdenlive:folderid">68</property>
  <property name="kdenlive:id">85</property>
  <property name="kdenlive:file_size">2847822</property>
  <property name="kdenlive:file_hash">dcfda784a68816aa69fd9806c2c201ce</property>
  <property name="kdenlive:audio_max0">225</property>
  <property name="kdenlive:zone_in">40</property>
  <property name="kdenlive:zone_out">152</property>
 </producer>
 <producer id="producer74" in="00:00:00.000" out="00:00:13.167">
  <property name="length">791</property>
  <property name="eof">pause</property>
  <property name="resource">/home/federico/Nextcloud/Kden/EditingUT/Music/Meme/spiderman pizza theme recorder.wav</property>
  <property name="meta.media.nb_streams">1</property>
  <property name="meta.media.0.stream.type">audio</property>
  <property name="meta.media.0.codec.sample_fmt">s16</property>
  <property name="meta.media.0.codec.sample_rate">48000</property>
  <property name="meta.media.0.codec.channels">2</property>
  <property name="meta.media.0.codec.name">pcm_s16le</property>
  <property name="meta.media.0.codec.long_name">PCM signed 16-bit little-endian</property>
  <property name="meta.media.0.codec.bit_rate">1536000</property>
  <property name="meta.attr.encoder.markup">Lavf61.7.100</property>
  <property name="seekable">1</property>
  <property name="audio_index">0</property>
  <property name="video_index">-1</property>
  <property name="mute_on_pause">1</property>
  <property name="mlt_service">avformat</property>
  <property name="kdenlive:clipname"/>
  <property name="kdenlive:clip_type">1</property>
  <property name="kdenlive:folderid">68</property>
  <property name="kdenlive:id">86</property>
  <property name="kdenlive:file_size">2531278</property>
  <property name="kdenlive:file_hash">c76aa0aaa96a57ddc88c3b46a97b8a0a</property>
  <property name="kdenlive:audio_max0">219</property>
 </producer>
 <producer id="producer75" in="00:00:00.000" out="00:00:03.450">
  <property name="length">208</property>
  <property name="eof">pause</property>
  <property name="resource">/home/federico/Nextcloud/Kden/EditingUT/Music/Meme/travis scott meme.wav</property>
  <property name="meta.media.nb_streams">1</property>
  <property name="meta.media.0.stream.type">audio</property>
  <property name="meta.media.0.codec.sample_fmt">s16</property>
  <property name="meta.media.0.codec.sample_rate">44100</property>
  <property name="meta.media.0.codec.channels">2</property>
  <property name="meta.media.0.codec.name">pcm_s16le</property>
  <property name="meta.media.0.codec.long_name">PCM signed 16-bit little-endian</property>
  <property name="meta.media.0.codec.bit_rate">1411200</property>
  <property name="meta.attr.encoder.markup">Lavf60.16.100</property>
  <property name="seekable">1</property>
  <property name="audio_index">0</property>
  <property name="video_index">-1</property>
  <property name="mute_on_pause">1</property>
  <property name="mlt_service">avformat</property>
  <property name="kdenlive:clipname"/>
  <property name="kdenlive:clip_type">1</property>
  <property name="kdenlive:folderid">68</property>
  <property name="kdenlive:id">87</property>
  <property name="kdenlive:file_size">612942</property>
  <property name="kdenlive:file_hash">d65de8868a19ddf230ce725a9814f551</property>
  <property name="kdenlive:audio_max0">113</property>
 </producer>
 <producer id="producer77" in="00:00:00.000" out="00:00:05.783">
  <property name="length">348</property>
  <property name="eof">pause</property>
  <property name="resource">/home/federico/Nextcloud/Kden/EditingUT/Music/Meme/why are we still here just to suffer.wav</property>
  <property name="meta.media.nb_streams">1</property>
  <property name="meta.media.0.stream.type">audio</property>
  <property name="meta.media.0.codec.sample_fmt">s16</property>
  <property name="meta.media.0.codec.sample_rate">48000</property>
  <property name="meta.media.0.codec.channels">2</property>
  <property name="meta.media.0.codec.name">pcm_s16le</property>
  <property name="meta.media.0.codec.long_name">PCM signed 16-bit little-endian</property>
  <property name="meta.media.0.codec.bit_rate">1536000</property>
  <property name="meta.attr.encoder.markup">Lavf61.7.100</property>
  <property name="seekable">1</property>
  <property name="audio_index">0</property>
  <property name="video_index">-1</property>
  <property name="mute_on_pause">1</property>
  <property name="mlt_service">avformat</property>
  <property name="kdenlive:clipname"/>
  <property name="kdenlive:clip_type">1</property>
  <property name="kdenlive:folderid">68</property>
  <property name="kdenlive:id">88</property>
  <property name="kdenlive:file_size">1113678</property>
  <property name="kdenlive:file_hash">09c9f75e139e5e80689b595517e72f39</property>
  <property name="kdenlive:audio_max0">169</property>
 </producer>
 <producer id="producer78" in="00:00:00.000" out="00:00:22.900">
  <property name="length">1375</property>
  <property name="eof">pause</property>
  <property name="resource">/home/federico/Nextcloud/Kden/EditingUT/Music/Sad/mad world - gary jules  sad music.wav</property>
  <property name="meta.media.nb_streams">1</property>
  <property name="meta.media.0.stream.type">audio</property>
  <property name="meta.media.0.codec.sample_fmt">s16</property>
  <property name="meta.media.0.codec.sample_rate">48000</property>
  <property name="meta.media.0.codec.channels">2</property>
  <property name="meta.media.0.codec.name">pcm_s16le</property>
  <property name="meta.media.0.codec.long_name">PCM signed 16-bit little-endian</property>
  <property name="meta.media.0.codec.bit_rate">1536000</property>
  <property name="meta.attr.encoder.markup">Lavf59.16.100</property>
  <property name="seekable">1</property>
  <property name="audio_index">0</property>
  <property name="video_index">-1</property>
  <property name="mute_on_pause">1</property>
  <property name="mlt_service">avformat</property>
  <property name="kdenlive:clipname"/>
  <property name="kdenlive:clip_type">1</property>
  <property name="kdenlive:folderid">89</property>
  <property name="kdenlive:id">90</property>
  <property name="kdenlive:file_size">4400078</property>
  <property name="kdenlive:file_hash">f80ff5ac5e65b585939e36db77f3491b</property>
  <property name="kdenlive:audio_max0">208</property>
 </producer>
 <producer id="producer76" in="00:00:00.000" out="00:00:09.850">
  <property name="length">592</property>
  <property name="eof">pause</property>
  <property name="resource">/home/federico/Nextcloud/Kden/EditingUT/Music/Sad/sad music piano.wav</property>
  <property name="meta.media.nb_streams">1</property>
  <property name="meta.media.0.stream.type">audio</property>
  <property name="meta.media.0.codec.sample_fmt">s16</property>
  <property name="meta.media.0.codec.sample_rate">44100</property>
  <property name="meta.media.0.codec.channels">2</property>
  <property name="meta.media.0.codec.name">pcm_s16le</property>
  <property name="meta.media.0.codec.long_name">PCM signed 16-bit little-endian</property>
  <property name="meta.media.0.codec.bit_rate">1411200</property>
  <property name="meta.attr.encoder.markup">Lavf60.16.100</property>
  <property name="seekable">1</property>
  <property name="audio_index">0</property>
  <property name="video_index">-1</property>
  <property name="mute_on_pause">1</property>
  <property name="mlt_service">avformat</property>
  <property name="kdenlive:clipname"/>
  <property name="kdenlive:clip_type">1</property>
  <property name="kdenlive:folderid">89</property>
  <property name="kdenlive:id">91</property>
  <property name="kdenlive:file_size">1741902</property>
  <property name="kdenlive:file_hash">8714395d89e3796e16c4651857e97b78</property>
  <property name="kdenlive:audio_max0">203</property>
 </producer>
 <producer id="producer80" in="00:00:00.000" out="00:00:02.783">
  <property name="length">168</property>
  <property name="eof">pause</property>
  <property name="resource">/home/federico/Nextcloud/Kden/EditingUT/Music/Sad/sad_music_meme.wav</property>
  <property name="meta.media.nb_streams">1</property>
  <property name="meta.media.0.stream.type">audio</property>
  <property name="meta.media.0.codec.sample_fmt">s16</property>
  <property name="meta.media.0.codec.sample_rate">48000</property>
  <property name="meta.media.0.codec.channels">2</property>
  <property name="meta.media.0.codec.name">pcm_s16le</property>
  <property name="meta.media.0.codec.long_name">PCM signed 16-bit little-endian</property>
  <property name="meta.media.0.codec.bit_rate">1536000</property>
  <property name="meta.attr.encoder.markup">Lavf60.16.100</property>
  <property name="seekable">1</property>
  <property name="audio_index">0</property>
  <property name="video_index">-1</property>
  <property name="mute_on_pause">1</property>
  <property name="mlt_service">avformat</property>
  <property name="kdenlive:clipname"/>
  <property name="kdenlive:clip_type">1</property>
  <property name="kdenlive:folderid">89</property>
  <property name="kdenlive:id">92</property>
  <property name="kdenlive:file_size">539214</property>
  <property name="kdenlive:file_hash">d062a5d99712c600796ed83dffdfa336</property>
  <property name="kdenlive:audio_max0">180</property>
 </producer>
 <producer id="producer79" in="00:00:00.000" out="00:00:18.450">
  <property name="length">1108</property>
  <property name="eof">pause</property>
  <property name="resource">/home/federico/Nextcloud/Kden/EditingUT/Music/Themes/charge! ballpark organ.wav</property>
  <property name="meta.media.nb_streams">1</property>
  <property name="meta.media.0.stream.type">audio</property>
  <property name="meta.media.0.codec.sample_fmt">s16</property>
  <property name="meta.media.0.codec.sample_rate">44100</property>
  <property name="meta.media.0.codec.channels">2</property>
  <property name="meta.media.0.codec.name">pcm_s16le</property>
  <property name="meta.media.0.codec.long_name">PCM signed 16-bit little-endian</property>
  <property name="meta.media.0.codec.bit_rate">1411200</property>
  <property name="meta.attr.encoder.markup">Lavf60.16.100</property>
  <property name="seekable">1</property>
  <property name="audio_index">0</property>
  <property name="video_index">-1</property>
  <property name="mute_on_pause">1</property>
  <property name="mlt_service">avformat</property>
  <property name="kdenlive:clipname"/>
  <property name="kdenlive:clip_type">1</property>
  <property name="kdenlive:folderid">93</property>
  <property name="kdenlive:id">94</property>
  <property name="kdenlive:file_size">3257934</property>
  <property name="kdenlive:file_hash">e839f4b1aea81fae8b9e9b85cf1f4372</property>
  <property name="kdenlive:audio_max0">234</property>
 </producer>
 <producer id="producer81" in="00:00:00.000" out="00:00:11.000">
  <property name="length">661</property>
  <property name="eof">pause</property>
  <property name="resource">/home/federico/Nextcloud/Kden/EditingUT/Music/Themes/charge_baseball nfl theme song.wav</property>
  <property name="meta.media.nb_streams">1</property>
  <property name="meta.media.0.stream.type">audio</property>
  <property name="meta.media.0.codec.sample_fmt">s16</property>
  <property name="meta.media.0.codec.sample_rate">48000</property>
  <property name="meta.media.0.codec.channels">2</property>
  <property name="meta.media.0.codec.name">pcm_s16le</property>
  <property name="meta.media.0.codec.long_name">PCM signed 16-bit little-endian</property>
  <property name="meta.media.0.codec.bit_rate">1536000</property>
  <property name="meta.attr.encoder.markup">Lavf59.16.100</property>
  <property name="seekable">1</property>
  <property name="audio_index">0</property>
  <property name="video_index">-1</property>
  <property name="mute_on_pause">1</property>
  <property name="mlt_service">avformat</property>
  <property name="kdenlive:clipname"/>
  <property name="kdenlive:clip_type">1</property>
  <property name="kdenlive:folderid">93</property>
  <property name="kdenlive:id">95</property>
  <property name="kdenlive:file_size">2115278</property>
  <property name="kdenlive:file_hash">5cf5e245cf5ccf8adfabe2e89cba5683</property>
  <property name="kdenlive:audio_max0">223</property>
 </producer>
 <producer id="producer82" in="00:00:00.000" out="00:00:08.267">
  <property name="length">497</property>
  <property name="eof">pause</property>
  <property name="resource">/home/federico/Nextcloud/Kden/EditingUT/Music/Themes/directed by robert b. weide- theme meme.wav</property>
  <property name="meta.media.nb_streams">1</property>
  <property name="meta.media.0.stream.type">audio</property>
  <property name="meta.media.0.codec.sample_fmt">s16</property>
  <property name="meta.media.0.codec.sample_rate">48000</property>
  <property name="meta.media.0.codec.channels">2</property>
  <property name="meta.media.0.codec.name">pcm_s16le</property>
  <property name="meta.media.0.codec.long_name">PCM signed 16-bit little-endian</property>
  <property name="meta.media.0.codec.bit_rate">1536000</property>
  <property name="meta.attr.encoder.markup">Lavf59.16.100</property>
  <property name="seekable">1</property>
  <property name="audio_index">0</property>
  <property name="video_index">-1</property>
  <property name="mute_on_pause">1</property>
  <property name="mlt_service">avformat</property>
  <property name="kdenlive:clipname"/>
  <property name="kdenlive:clip_type">1</property>
  <property name="kdenlive:folderid">93</property>
  <property name="kdenlive:id">96</property>
  <property name="kdenlive:file_size">1590478</property>
  <property name="kdenlive:file_hash">b78be5a891859bc5e7231182452d4b14</property>
  <property name="kdenlive:audio_max0">197</property>
 </producer>
 <producer id="producer83" in="00:00:00.000" out="00:00:09.017">
  <property name="length">542</property>
  <property name="eof">pause</property>
  <property name="resource">/home/federico/Nextcloud/Kden/EditingUT/Music/Themes/harry potter theme song.wav</property>
  <property name="meta.media.nb_streams">1</property>
  <property name="meta.media.0.stream.type">audio</property>
  <property name="meta.media.0.codec.sample_fmt">s16</property>
  <property name="meta.media.0.codec.sample_rate">48000</property>
  <property name="meta.media.0.codec.channels">2</property>
  <property name="meta.media.0.codec.name">pcm_s16le</property>
  <property name="meta.media.0.codec.long_name">PCM signed 16-bit little-endian</property>
  <property name="meta.media.0.codec.bit_rate">1536000</property>
  <property name="meta.attr.encoder.markup">Lavf59.16.100</property>
  <property name="seekable">1</property>
  <property name="audio_index">0</property>
  <property name="video_index">-1</property>
  <property name="mute_on_pause">1</property>
  <property name="mlt_service">avformat</property>
  <property name="kdenlive:clipname"/>
  <property name="kdenlive:clip_type">1</property>
  <property name="kdenlive:folderid">93</property>
  <property name="kdenlive:id">97</property>
  <property name="kdenlive:file_size">1734478</property>
  <property name="kdenlive:file_hash">2dc17e6e7894509b61a547b7d681328b</property>
  <property name="kdenlive:audio_max0">166</property>
 </producer>
 <producer id="producer84" in="00:00:00.000" out="00:00:10.300">
  <property name="length">619</property>
  <property name="eof">pause</property>
  <property name="resource">/home/federico/Nextcloud/Kden/EditingUT/Music/Themes/lord of the rings main theme - only best part.wav</property>
  <property name="meta.media.nb_streams">1</property>
  <property name="meta.media.0.stream.type">audio</property>
  <property name="meta.media.0.codec.sample_fmt">s16</property>
  <property name="meta.media.0.codec.sample_rate">48000</property>
  <property name="meta.media.0.codec.channels">2</property>
  <property name="meta.media.0.codec.name">pcm_s16le</property>
  <property name="meta.media.0.codec.long_name">PCM signed 16-bit little-endian</property>
  <property name="meta.media.0.codec.bit_rate">1536000</property>
  <property name="meta.attr.encoder.markup">Lavf59.16.100</property>
  <property name="seekable">1</property>
  <property name="audio_index">0</property>
  <property name="video_index">-1</property>
  <property name="mute_on_pause">1</property>
  <property name="mlt_service">avformat</property>
  <property name="kdenlive:clipname"/>
  <property name="kdenlive:clip_type">1</property>
  <property name="kdenlive:folderid">93</property>
  <property name="kdenlive:id">98</property>
  <property name="kdenlive:file_size">1980878</property>
  <property name="kdenlive:file_hash">389e8466d8c2f7d903b57b30cc49c447</property>
  <property name="kdenlive:audio_max0">180</property>
 </producer>
 <producer id="producer85" in="00:00:00.000" out="00:00:11.967">
  <property name="length">719</property>
  <property name="eof">pause</property>
  <property name="resource">/home/federico/Nextcloud/Kden/EditingUT/Music/Themes/pirates of the caribbean theme song.wav</property>
  <property name="meta.media.nb_streams">1</property>
  <property name="meta.media.0.stream.type">audio</property>
  <property name="meta.media.0.codec.sample_fmt">s16</property>
  <property name="meta.media.0.codec.sample_rate">48000</property>
  <property name="meta.media.0.codec.channels">2</property>
  <property name="meta.media.0.codec.name">pcm_s16le</property>
  <property name="meta.media.0.codec.long_name">PCM signed 16-bit little-endian</property>
  <property name="meta.media.0.codec.bit_rate">1536000</property>
  <property name="meta.attr.encoder.markup">Lavf59.16.100</property>
  <property name="seekable">1</property>
  <property name="audio_index">0</property>
  <property name="video_index">-1</property>
  <property name="mute_on_pause">1</property>
  <property name="mlt_service">avformat</property>
  <property name="kdenlive:clipname"/>
  <property name="kdenlive:clip_type">1</property>
  <property name="kdenlive:folderid">93</property>
  <property name="kdenlive:id">99</property>
  <property name="kdenlive:file_size">2300878</property>
  <property name="kdenlive:file_hash">984574a315eb6cd7e9fa530be50be4b0</property>
  <property name="kdenlive:audio_max0">238</property>
 </producer>
 <producer id="producer86" in="00:00:00.000" out="00:00:06.300">
  <property name="length">379</property>
  <property name="eof">pause</property>
  <property name="resource">/home/federico/Nextcloud/Kden/EditingUT/Music/Themes/thomas the tank engine.wav</property>
  <property name="meta.media.nb_streams">1</property>
  <property name="meta.media.0.stream.type">audio</property>
  <property name="meta.media.0.codec.sample_fmt">s16</property>
  <property name="meta.media.0.codec.sample_rate">48000</property>
  <property name="meta.media.0.codec.channels">2</property>
  <property name="meta.media.0.codec.name">pcm_s16le</property>
  <property name="meta.media.0.codec.long_name">PCM signed 16-bit little-endian</property>
  <property name="meta.media.0.codec.bit_rate">1536000</property>
  <property name="meta.attr.encoder.markup">Lavf59.16.100</property>
  <property name="seekable">1</property>
  <property name="audio_index">0</property>
  <property name="video_index">-1</property>
  <property name="mute_on_pause">1</property>
  <property name="mlt_service">avformat</property>
  <property name="kdenlive:clipname"/>
  <property name="kdenlive:clip_type">1</property>
  <property name="kdenlive:folderid">93</property>
  <property name="kdenlive:id">100</property>
  <property name="kdenlive:file_size">1212878</property>
  <property name="kdenlive:file_hash">4a00e6d8f11559a750e6e7454da04db2</property>
  <property name="kdenlive:audio_max0">138</property>
 </producer>
 <producer id="producer87" in="00:00:00.000" out="00:00:12.567">
  <property name="length">755</property>
  <property name="eof">pause</property>
  <property name="resource">/home/federico/Nextcloud/Kden/EditingUT/Music/Themes/ultra instinct opening theme -.wav</property>
  <property name="meta.media.nb_streams">1</property>
  <property name="meta.media.0.stream.type">audio</property>
  <property name="meta.media.0.codec.sample_fmt">s16</property>
  <property name="meta.media.0.codec.sample_rate">44100</property>
  <property name="meta.media.0.codec.channels">2</property>
  <property name="meta.media.0.codec.name">pcm_s16le</property>
  <property name="meta.media.0.codec.long_name">PCM signed 16-bit little-endian</property>
  <property name="meta.media.0.codec.bit_rate">1411200</property>
  <property name="meta.attr.encoder.markup">Lavf60.16.100</property>
  <property name="seekable">1</property>
  <property name="audio_index">0</property>
  <property name="video_index">-1</property>
  <property name="mute_on_pause">1</property>
  <property name="mlt_service">avformat</property>
  <property name="kdenlive:clipname"/>
  <property name="kdenlive:clip_type">1</property>
  <property name="kdenlive:folderid">93</property>
  <property name="kdenlive:id">101</property>
  <property name="kdenlive:file_size">2221134</property>
  <property name="kdenlive:file_hash">33dbed9ca7f8c5643a05331dea1531be</property>
  <property name="kdenlive:audio_max0">193</property>
 </producer>
 <producer id="producer88" in="00:00:00.000" out="00:00:32.267">
  <property name="length">1937</property>
  <property name="eof">pause</property>
  <property name="resource">/home/federico/Nextcloud/Kden/EditingUT/Music/Themes/waiting_meme_jeopardy theme.wav</property>
  <property name="meta.media.nb_streams">1</property>
  <property name="meta.media.0.stream.type">audio</property>
  <property name="meta.media.0.codec.sample_fmt">s16</property>
  <property name="meta.media.0.codec.sample_rate">44100</property>
  <property name="meta.media.0.codec.channels">2</property>
  <property name="meta.media.0.codec.name">pcm_s16le</property>
  <property name="meta.media.0.codec.long_name">PCM signed 16-bit little-endian</property>
  <property name="meta.media.0.codec.bit_rate">1411200</property>
  <property name="meta.attr.encoder.markup">Lavf60.16.100</property>
  <property name="seekable">1</property>
  <property name="audio_index">0</property>
  <property name="video_index">-1</property>
  <property name="mute_on_pause">1</property>
  <property name="mlt_service">avformat</property>
  <property name="kdenlive:clipname"/>
  <property name="kdenlive:clip_type">1</property>
  <property name="kdenlive:folderid">93</property>
  <property name="kdenlive:id">102</property>
  <property name="kdenlive:file_size">5695566</property>
  <property name="kdenlive:file_hash">328cd35f546cf889a82a74e6db718e5d</property>
  <property name="kdenlive:audio_max0">200</property>
 </producer>
 <producer id="producer89" in="00:00:00.000" out="00:00:01.617">
  <property name="length">98</property>
  <property name="eof">pause</property>
  <property name="resource">/home/federico/Nextcloud/Kden/EditingUT/Sound/android notification.wav</property>
  <property name="meta.media.nb_streams">1</property>
  <property name="meta.media.0.stream.type">audio</property>
  <property name="meta.media.0.codec.sample_fmt">s16</property>
  <property name="meta.media.0.codec.sample_rate">48000</property>
  <property name="meta.media.0.codec.channels">2</property>
  <property name="meta.media.0.codec.name">pcm_s16le</property>
  <property name="meta.media.0.codec.long_name">PCM signed 16-bit little-endian</property>
  <property name="meta.media.0.codec.bit_rate">1536000</property>
  <property name="meta.attr.encoder.markup">Lavf61.7.100</property>
  <property name="seekable">1</property>
  <property name="audio_index">0</property>
  <property name="video_index">-1</property>
  <property name="mute_on_pause">1</property>
  <property name="mlt_service">avformat</property>
  <property name="kdenlive:clipname"/>
  <property name="kdenlive:clip_type">1</property>
  <property name="kdenlive:folderid">103</property>
  <property name="kdenlive:id">104</property>
  <property name="kdenlive:file_size">313678</property>
  <property name="kdenlive:file_hash">b367a72617d9522d7309a0006eae870b</property>
  <property name="kdenlive:audio_max0">179</property>
 </producer>
 <producer id="producer90" in="00:00:00.000" out="00:00:02.000">
  <property name="length">121</property>
  <property name="eof">pause</property>
  <property name="resource">/home/federico/Nextcloud/Kden/EditingUT/Sound/ba dum tss-.wav</property>
  <property name="meta.media.nb_streams">1</property>
  <property name="meta.media.0.stream.type">audio</property>
  <property name="meta.media.0.codec.sample_fmt">s16</property>
  <property name="meta.media.0.codec.sample_rate">44100</property>
  <property name="meta.media.0.codec.channels">2</property>
  <property name="meta.media.0.codec.name">pcm_s16le</property>
  <property name="meta.media.0.codec.long_name">PCM signed 16-bit little-endian</property>
  <property name="meta.media.0.codec.bit_rate">1411200</property>
  <property name="meta.attr.encoder.markup">Lavf60.16.100</property>
  <property name="seekable">1</property>
  <property name="audio_index">0</property>
  <property name="video_index">-1</property>
  <property name="mute_on_pause">1</property>
  <property name="mlt_service">avformat</property>
  <property name="kdenlive:clipname"/>
  <property name="kdenlive:clip_type">1</property>
  <property name="kdenlive:folderid">103</property>
  <property name="kdenlive:id">105</property>
  <property name="kdenlive:file_size">354894</property>
  <property name="kdenlive:file_hash">5e4b78f403f93acebf7b7d86ae1d8348</property>
  <property name="kdenlive:audio_max0">250</property>
 </producer>
 <producer id="producer91" in="00:00:00.000" out="00:00:02.300">
  <property name="length">139</property>
  <property name="eof">pause</property>
  <property name="resource">/home/federico/Nextcloud/Kden/EditingUT/Sound/burp.wav</property>
  <property name="meta.media.nb_streams">1</property>
  <property name="meta.media.0.stream.type">audio</property>
  <property name="meta.media.0.codec.sample_fmt">s16</property>
  <property name="meta.media.0.codec.sample_rate">44100</property>
  <property name="meta.media.0.codec.channels">2</property>
  <property name="meta.media.0.codec.name">pcm_s16le</property>
  <property name="meta.media.0.codec.long_name">PCM signed 16-bit little-endian</property>
  <property name="meta.media.0.codec.bit_rate">1411200</property>
  <property name="meta.attr.encoder.markup">Lavf60.16.100</property>
  <property name="seekable">1</property>
  <property name="audio_index">0</property>
  <property name="video_index">-1</property>
  <property name="mute_on_pause">1</property>
  <property name="mlt_service">avformat</property>
  <property name="kdenlive:clipname"/>
  <property name="kdenlive:clip_type">1</property>
  <property name="kdenlive:folderid">103</property>
  <property name="kdenlive:id">106</property>
  <property name="kdenlive:file_size">410190</property>
  <property name="kdenlive:file_hash">2b5cafe3d73a202e20dc5bbdf931c183</property>
  <property name="kdenlive:audio_max0">208</property>
 </producer>
 <producer id="producer92" in="00:00:00.000" out="00:00:01.100">
  <property name="length">67</property>
  <property name="eof">pause</property>
  <property name="resource">/home/federico/Nextcloud/Kden/EditingUT/Sound/camera shutter.wav</property>
  <property name="meta.media.nb_streams">1</property>
  <property name="meta.media.0.stream.type">audio</property>
  <property name="meta.media.0.codec.sample_fmt">s16</property>
  <property name="meta.media.0.codec.sample_rate">44100</property>
  <property name="meta.media.0.codec.channels">2</property>
  <property name="meta.media.0.codec.name">pcm_s16le</property>
  <property name="meta.media.0.codec.long_name">PCM signed 16-bit little-endian</property>
  <property name="meta.media.0.codec.bit_rate">1411200</property>
  <property name="meta.attr.encoder.markup">Lavf60.16.100</property>
  <property name="seekable">1</property>
  <property name="audio_index">0</property>
  <property name="video_index">-1</property>
  <property name="mute_on_pause">1</property>
  <property name="mlt_service">avformat</property>
  <property name="kdenlive:clipname"/>
  <property name="kdenlive:clip_type">1</property>
  <property name="kdenlive:folderid">103</property>
  <property name="kdenlive:id">107</property>
  <property name="kdenlive:file_size">198222</property>
  <property name="kdenlive:file_hash">270a35f4071a27fe04ae741c1d812594</property>
  <property name="kdenlive:audio_max0">212</property>
 </producer>
 <producer id="producer93" in="00:00:00.000" out="00:00:04.083">
  <property name="length">246</property>
  <property name="eof">pause</property>
  <property name="resource">/home/federico/Nextcloud/Kden/EditingUT/Sound/clock ticking.wav</property>
  <property name="meta.media.nb_streams">1</property>
  <property name="meta.media.0.stream.type">audio</property>
  <property name="meta.media.0.codec.sample_fmt">s16</property>
  <property name="meta.media.0.codec.sample_rate">44100</property>
  <property name="meta.media.0.codec.channels">2</property>
  <property name="meta.media.0.codec.name">pcm_s16le</property>
  <property name="meta.media.0.codec.long_name">PCM signed 16-bit little-endian</property>
  <property name="meta.media.0.codec.bit_rate">1411200</property>
  <property name="meta.attr.encoder.markup">Lavf60.16.100</property>
  <property name="seekable">1</property>
  <property name="audio_index">0</property>
  <property name="video_index">-1</property>
  <property name="mute_on_pause">1</property>
  <property name="mlt_service">avformat</property>
  <property name="kdenlive:clipname"/>
  <property name="kdenlive:clip_type">1</property>
  <property name="kdenlive:folderid">103</property>
  <property name="kdenlive:id">108</property>
  <property name="kdenlive:file_size">723534</property>
  <property name="kdenlive:file_hash">c76429b900871e178c919b35e81deaab</property>
  <property name="kdenlive:audio_max0">131</property>
 </producer>
 <producer id="producer94" in="00:00:00.000" out="00:00:04.600">
  <property name="length">277</property>
  <property name="eof">pause</property>
  <property name="resource">/home/federico/Nextcloud/Kden/EditingUT/Sound/Coins Drop.wav</property>
  <property name="meta.media.nb_streams">1</property>
  <property name="meta.media.0.stream.type">audio</property>
  <property name="meta.media.0.codec.sample_fmt">s16</property>
  <property name="meta.media.0.codec.sample_rate">44100</property>
  <property name="meta.media.0.codec.channels">2</property>
  <property name="meta.media.0.codec.name">pcm_s16le</property>
  <property name="meta.media.0.codec.long_name">PCM signed 16-bit little-endian</property>
  <property name="meta.media.0.codec.bit_rate">1411200</property>
  <property name="meta.attr.encoder.markup">Lavf60.16.100</property>
  <property name="seekable">1</property>
  <property name="audio_index">0</property>
  <property name="video_index">-1</property>
  <property name="mute_on_pause">1</property>
  <property name="mlt_service">avformat</property>
  <property name="kdenlive:clipname"/>
  <property name="kdenlive:clip_type">1</property>
  <property name="kdenlive:folderid">103</property>
  <property name="kdenlive:id">109</property>
  <property name="kdenlive:file_size">815694</property>
  <property name="kdenlive:file_hash">06b70aa98186915f5bf73b27ed59492f</property>
  <property name="kdenlive:audio_max0">217</property>
 </producer>
 <producer id="producer95" in="00:00:00.000" out="00:00:03.050">
  <property name="length">184</property>
  <property name="eof">pause</property>
  <property name="resource">/home/federico/Nextcloud/Kden/EditingUT/Sound/death_chorus_meme_ooooh.wav</property>
  <property name="meta.media.nb_streams">1</property>
  <property name="meta.media.0.stream.type">audio</property>
  <property name="meta.media.0.codec.sample_fmt">s16</property>
  <property name="meta.media.0.codec.sample_rate">48000</property>
  <property name="meta.media.0.codec.channels">2</property>
  <property name="meta.media.0.codec.name">pcm_s16le</property>
  <property name="meta.media.0.codec.long_name">PCM signed 16-bit little-endian</property>
  <property name="meta.media.0.codec.bit_rate">1536000</property>
  <property name="meta.attr.encoder.markup">Lavf60.16.100</property>
  <property name="seekable">1</property>
  <property name="audio_index">0</property>
  <property name="video_index">-1</property>
  <property name="mute_on_pause">1</property>
  <property name="mlt_service">avformat</property>
  <property name="kdenlive:clipname"/>
  <property name="kdenlive:clip_type">1</property>
  <property name="kdenlive:folderid">103</property>
  <property name="kdenlive:id">110</property>
  <property name="kdenlive:file_size">589902</property>
  <property name="kdenlive:file_hash">8d3977ae767b11ff1760e3ef3cb5dc07</property>
  <property name="kdenlive:audio_max0">210</property>
 </producer>
 <producer id="producer96" in="00:00:00.000" out="00:00:02.850">
  <property name="length">172</property>
  <property name="eof">pause</property>
  <property name="resource">/home/federico/Nextcloud/Kden/EditingUT/Sound/ding.wav</property>
  <property name="meta.media.nb_streams">1</property>
  <property name="meta.media.0.stream.type">audio</property>
  <property name="meta.media.0.codec.sample_fmt">s16</property>
  <property name="meta.media.0.codec.sample_rate">44100</property>
  <property name="meta.media.0.codec.channels">2</property>
  <property name="meta.media.0.codec.name">pcm_s16le</property>
  <property name="meta.media.0.codec.long_name">PCM signed 16-bit little-endian</property>
  <property name="meta.media.0.codec.bit_rate">1411200</property>
  <property name="meta.attr.encoder.markup">Lavf60.16.100</property>
  <property name="seekable">1</property>
  <property name="audio_index">0</property>
  <property name="video_index">-1</property>
  <property name="mute_on_pause">1</property>
  <property name="mlt_service">avformat</property>
  <property name="kdenlive:clipname"/>
  <property name="kdenlive:clip_type">1</property>
  <property name="kdenlive:folderid">103</property>
  <property name="kdenlive:id">111</property>
  <property name="kdenlive:file_size">506958</property>
  <property name="kdenlive:file_hash">2ea49f9d0d2d8e2a0f87d19f88174fc3</property>
  <property name="kdenlive:audio_max0">178</property>
 </producer>
 <producer id="producer98" in="00:00:00.000" out="00:00:03.100">
  <property name="length">187</property>
  <property name="eof">pause</property>
  <property name="resource">/home/federico/Nextcloud/Kden/EditingUT/Sound/discord disconnect -.wav</property>
  <property name="meta.media.nb_streams">1</property>
  <property name="meta.media.0.stream.type">audio</property>
  <property name="meta.media.0.codec.sample_fmt">s16</property>
  <property name="meta.media.0.codec.sample_rate">44100</property>
  <property name="meta.media.0.codec.channels">2</property>
  <property name="meta.media.0.codec.name">pcm_s16le</property>
  <property name="meta.media.0.codec.long_name">PCM signed 16-bit little-endian</property>
  <property name="meta.media.0.codec.bit_rate">1411200</property>
  <property name="meta.attr.encoder.markup">Lavf60.16.100</property>
  <property name="seekable">1</property>
  <property name="audio_index">0</property>
  <property name="video_index">-1</property>
  <property name="mute_on_pause">1</property>
  <property name="mlt_service">avformat</property>
  <property name="kdenlive:clipname"/>
  <property name="kdenlive:clip_type">1</property>
  <property name="kdenlive:folderid">103</property>
  <property name="kdenlive:id">112</property>
  <property name="kdenlive:file_size">548430</property>
  <property name="kdenlive:file_hash">0632e251aceb32b7224e76bb46ae1cd9</property>
  <property name="kdenlive:audio_max0">226</property>
 </producer>
 <producer id="producer97" in="00:00:00.000" out="00:00:01.683">
  <property name="length">102</property>
  <property name="eof">pause</property>
  <property name="resource">/home/federico/Nextcloud/Kden/EditingUT/Sound/dj stop.wav</property>
  <property name="meta.media.nb_streams">1</property>
  <property name="meta.media.0.stream.type">audio</property>
  <property name="meta.media.0.codec.sample_fmt">s16</property>
  <property name="meta.media.0.codec.sample_rate">44100</property>
  <property name="meta.media.0.codec.channels">2</property>
  <property name="meta.media.0.codec.name">pcm_s16le</property>
  <property name="meta.media.0.codec.long_name">PCM signed 16-bit little-endian</property>
  <property name="meta.media.0.codec.bit_rate">1411200</property>
  <property name="meta.attr.encoder.markup">Lavf60.16.100</property>
  <property name="seekable">1</property>
  <property name="audio_index">0</property>
  <property name="video_index">-1</property>
  <property name="mute_on_pause">1</property>
  <property name="mlt_service">avformat</property>
  <property name="kdenlive:clipname"/>
  <property name="kdenlive:clip_type">1</property>
  <property name="kdenlive:folderid">103</property>
  <property name="kdenlive:id">113</property>
  <property name="kdenlive:file_size">299598</property>
  <property name="kdenlive:file_hash">f6503028985aef615ef2c4a2b2854ccd</property>
  <property name="kdenlive:audio_max0">150</property>
 </producer>
 <producer id="producer99" in="00:00:00.000" out="00:00:05.450">
  <property name="length">328</property>
  <property name="eof">pause</property>
  <property name="resource">/home/federico/Nextcloud/Kden/EditingUT/Sound/drumroll.wav</property>
  <property name="meta.media.nb_streams">1</property>
  <property name="meta.media.0.stream.type">audio</property>
  <property name="meta.media.0.codec.sample_fmt">s16</property>
  <property name="meta.media.0.codec.sample_rate">44100</property>
  <property name="meta.media.0.codec.channels">2</property>
  <property name="meta.media.0.codec.name">pcm_s16le</property>
  <property name="meta.media.0.codec.long_name">PCM signed 16-bit little-endian</property>
  <property name="meta.media.0.codec.bit_rate">1411200</property>
  <property name="meta.attr.encoder.markup">Lavf60.16.100</property>
  <property name="seekable">1</property>
  <property name="audio_index">0</property>
  <property name="video_index">-1</property>
  <property name="mute_on_pause">1</property>
  <property name="mlt_service">avformat</property>
  <property name="kdenlive:clipname"/>
  <property name="kdenlive:clip_type">1</property>
  <property name="kdenlive:folderid">103</property>
  <property name="kdenlive:id">114</property>
  <property name="kdenlive:file_size">963150</property>
  <property name="kdenlive:file_hash">7352872dd0002bb6fc9430386cec3d91</property>
  <property name="kdenlive:audio_max0">202</property>
 </producer>
 <producer id="producer101" in="00:00:00.000" out="00:00:04.450">
  <property name="length">268</property>
  <property name="eof">pause</property>
  <property name="resource">/home/federico/Nextcloud/Kden/EditingUT/Sound/elevator bell ring -.wav</property>
  <property name="meta.media.nb_streams">1</property>
  <property name="meta.media.0.stream.type">audio</property>
  <property name="meta.media.0.codec.sample_fmt">s16</property>
  <property name="meta.media.0.codec.sample_rate">44100</property>
  <property name="meta.media.0.codec.channels">2</property>
  <property name="meta.media.0.codec.name">pcm_s16le</property>
  <property name="meta.media.0.codec.long_name">PCM signed 16-bit little-endian</property>
  <property name="meta.media.0.codec.bit_rate">1411200</property>
  <property name="meta.attr.encoder.markup">Lavf60.16.100</property>
  <property name="seekable">1</property>
  <property name="audio_index">0</property>
  <property name="video_index">-1</property>
  <property name="mute_on_pause">1</property>
  <property name="mlt_service">avformat</property>
  <property name="kdenlive:clipname"/>
  <property name="kdenlive:clip_type">1</property>
  <property name="kdenlive:folderid">103</property>
  <property name="kdenlive:id">115</property>
  <property name="kdenlive:file_size">788046</property>
  <property name="kdenlive:file_hash">6ce6046eeaf13cb908a9c22ef60bec27</property>
  <property name="kdenlive:audio_max0">213</property>
 </producer>
 <producer id="producer100" in="00:00:00.000" out="00:00:05.083">
  <property name="length">306</property>
  <property name="eof">pause</property>
  <property name="resource">/home/federico/Nextcloud/Kden/EditingUT/Sound/epic choir suspense -.wav</property>
  <property name="meta.media.nb_streams">1</property>
  <property name="meta.media.0.stream.type">audio</property>
  <property name="meta.media.0.codec.sample_fmt">s16</property>
  <property name="meta.media.0.codec.sample_rate">44100</property>
  <property name="meta.media.0.codec.channels">2</property>
  <property name="meta.media.0.codec.name">pcm_s16le</property>
  <property name="meta.media.0.codec.long_name">PCM signed 16-bit little-endian</property>
  <property name="meta.media.0.codec.bit_rate">1411200</property>
  <property name="meta.attr.encoder.markup">Lavf60.16.100</property>
  <property name="seekable">1</property>
  <property name="audio_index">0</property>
  <property name="video_index">-1</property>
  <property name="mute_on_pause">1</property>
  <property name="mlt_service">avformat</property>
  <property name="kdenlive:clipname"/>
  <property name="kdenlive:clip_type">1</property>
  <property name="kdenlive:folderid">103</property>
  <property name="kdenlive:id">116</property>
  <property name="kdenlive:file_size">898638</property>
  <property name="kdenlive:file_hash">b05f0e616fcab6ef458f0dc1674a85a3</property>
  <property name="kdenlive:audio_max0">207</property>
 </producer>
 <producer id="producer102" in="00:00:00.000" out="00:00:04.450">
  <property name="length">268</property>
  <property name="eof">pause</property>
  <property name="resource">/home/federico/Nextcloud/Kden/EditingUT/Sound/flashback.wav</property>
  <property name="meta.media.nb_streams">1</property>
  <property name="meta.media.0.stream.type">audio</property>
  <property name="meta.media.0.codec.sample_fmt">s16</property>
  <property name="meta.media.0.codec.sample_rate">44100</property>
  <property name="meta.media.0.codec.channels">2</property>
  <property name="meta.media.0.codec.name">pcm_s16le</property>
  <property name="meta.media.0.codec.long_name">PCM signed 16-bit little-endian</property>
  <property name="meta.media.0.codec.bit_rate">1411200</property>
  <property name="meta.attr.encoder.markup">Lavf60.16.100</property>
  <property name="seekable">1</property>
  <property name="audio_index">0</property>
  <property name="video_index">-1</property>
  <property name="mute_on_pause">1</property>
  <property name="mlt_service">avformat</property>
  <property name="kdenlive:clipname"/>
  <property name="kdenlive:clip_type">1</property>
  <property name="kdenlive:folderid">103</property>
  <property name="kdenlive:id">117</property>
  <property name="kdenlive:file_size">788046</property>
  <property name="kdenlive:file_hash">0ec852bf13152c81942e3308bb008ae3</property>
  <property name="kdenlive:audio_max0">188</property>
 </producer>
 <producer id="producer103" in="00:00:00.000" out="00:00:01.550">
  <property name="length">94</property>
  <property name="eof">pause</property>
  <property name="resource">/home/federico/Nextcloud/Kden/EditingUT/Sound/glass breaking.wav</property>
  <property name="meta.media.nb_streams">1</property>
  <property name="meta.media.0.stream.type">audio</property>
  <property name="meta.media.0.codec.sample_fmt">s16</property>
  <property name="meta.media.0.codec.sample_rate">44100</property>
  <property name="meta.media.0.codec.channels">2</property>
  <property name="meta.media.0.codec.name">pcm_s16le</property>
  <property name="meta.media.0.codec.long_name">PCM signed 16-bit little-endian</property>
  <property name="meta.media.0.codec.bit_rate">1411200</property>
  <property name="meta.attr.encoder.markup">Lavf60.16.100</property>
  <property name="seekable">1</property>
  <property name="audio_index">0</property>
  <property name="video_index">-1</property>
  <property name="mute_on_pause">1</property>
  <property name="mlt_service">avformat</property>
  <property name="kdenlive:clipname"/>
  <property name="kdenlive:clip_type">1</property>
  <property name="kdenlive:folderid">103</property>
  <property name="kdenlive:id">118</property>
  <property name="kdenlive:file_size">276558</property>
  <property name="kdenlive:file_hash">68c96990e801f186d427e9226ea57f7f</property>
  <property name="kdenlive:audio_max0">188</property>
 </producer>
 <producer id="producer104" in="00:00:00.000" out="00:00:02.000">
  <property name="length">121</property>
  <property name="eof">pause</property>
  <property name="resource">/home/federico/Nextcloud/Kden/EditingUT/Sound/glass shatter .wav</property>
  <property name="meta.media.nb_streams">1</property>
  <property name="meta.media.0.stream.type">audio</property>
  <property name="meta.media.0.codec.sample_fmt">s16</property>
  <property name="meta.media.0.codec.sample_rate">44100</property>
  <property name="meta.media.0.codec.channels">2</property>
  <property name="meta.media.0.codec.name">pcm_s16le</property>
  <property name="meta.media.0.codec.long_name">PCM signed 16-bit little-endian</property>
  <property name="meta.media.0.codec.bit_rate">1411200</property>
  <property name="meta.attr.encoder.markup">Lavf60.16.100</property>
  <property name="seekable">1</property>
  <property name="audio_index">0</property>
  <property name="video_index">-1</property>
  <property name="mute_on_pause">1</property>
  <property name="mlt_service">avformat</property>
  <property name="kdenlive:clipname"/>
  <property name="kdenlive:clip_type">1</property>
  <property name="kdenlive:folderid">103</property>
  <property name="kdenlive:id">119</property>
  <property name="kdenlive:file_size">354894</property>
  <property name="kdenlive:file_hash">5bc83e1d5af04f6b387196368c06b55d</property>
  <property name="kdenlive:audio_max0">208</property>
 </producer>
 <producer id="producer105" in="00:00:00.000" out="00:00:00.733">
  <property name="length">45</property>
  <property name="eof">pause</property>
  <property name="resource">/home/federico/Nextcloud/Kden/EditingUT/Sound/Home Alone Hello.wav</property>
  <property name="meta.media.nb_streams">1</property>
  <property name="meta.media.0.stream.type">audio</property>
  <property name="meta.media.0.codec.sample_fmt">s16</property>
  <property name="meta.media.0.codec.sample_rate">48000</property>
  <property name="meta.media.0.codec.channels">2</property>
  <property name="meta.media.0.codec.name">pcm_s16le</property>
  <property name="meta.media.0.codec.long_name">PCM signed 16-bit little-endian</property>
  <property name="meta.media.0.codec.bit_rate">1536000</property>
  <property name="meta.attr.encoder.markup">Lavf61.7.100</property>
  <property name="seekable">1</property>
  <property name="audio_index">0</property>
  <property name="video_index">-1</property>
  <property name="mute_on_pause">1</property>
  <property name="mlt_service">avformat</property>
  <property name="kdenlive:clipname"/>
  <property name="kdenlive:clip_type">1</property>
  <property name="kdenlive:folderid">103</property>
  <property name="kdenlive:id">120</property>
  <property name="kdenlive:file_size">144078</property>
  <property name="kdenlive:file_hash">c62ca56e5bac6542a10ff1979ff32eee</property>
  <property name="kdenlive:audio_max0">206</property>
 </producer>
 <producer id="producer106" in="00:00:00.000" out="00:00:05.100">
  <property name="length">307</property>
  <property name="eof">pause</property>
  <property name="resource">/home/federico/Nextcloud/Kden/EditingUT/Sound/in nomine patris et filli et spiritus sancti.wav</property>
  <property name="meta.media.nb_streams">1</property>
  <property name="meta.media.0.stream.type">audio</property>
  <property name="meta.media.0.codec.sample_fmt">s16</property>
  <property name="meta.media.0.codec.sample_rate">48000</property>
  <property name="meta.media.0.codec.channels">2</property>
  <property name="meta.media.0.codec.name">pcm_s16le</property>
  <property name="meta.media.0.codec.long_name">PCM signed 16-bit little-endian</property>
  <property name="meta.media.0.codec.bit_rate">1536000</property>
  <property name="meta.attr.artist.markup">Random Videos 139</property>
  <property name="meta.attr.comment.markup">https://www.youtube.com/watch?v=gDLnAjvcJgA</property>
  <property name="meta.attr.date.markup">2022</property>
  <property name="meta.attr.title.markup">In Nomine Patris Et Filli Et Spiritus Sancti Sound Effect</property>
  <property name="meta.attr.encoder.markup">Lavf60.16.100</property>
  <property name="seekable">1</property>
  <property name="audio_index">0</property>
  <property name="video_index">-1</property>
  <property name="mute_on_pause">1</property>
  <property name="mlt_service">avformat</property>
  <property name="kdenlive:clipname"/>
  <property name="kdenlive:clip_type">1</property>
  <property name="kdenlive:folderid">103</property>
  <property name="kdenlive:id">121</property>
  <property name="kdenlive:file_size">981048</property>
  <property name="kdenlive:file_hash">37c845b50c70f3635288a2eb3fdbaa50</property>
  <property name="kdenlive:audio_max0">205</property>
  <property name="kdenlive:zone_in">0</property>
  <property name="kdenlive:zone_out">68</property>
 </producer>
 <producer id="producer107" in="00:00:00.000" out="00:00:07.183">
  <property name="length">432</property>
  <property name="eof">pause</property>
  <property name="resource">/home/federico/Nextcloud/Kden/EditingUT/Sound/meme_fascista.wav</property>
  <property name="meta.media.nb_streams">1</property>
  <property name="meta.media.0.stream.type">audio</property>
  <property name="meta.media.0.codec.sample_fmt">s16</property>
  <property name="meta.media.0.codec.sample_rate">48000</property>
  <property name="meta.media.0.codec.channels">2</property>
  <property name="meta.media.0.codec.name">pcm_s16le</property>
  <property name="meta.media.0.codec.long_name">PCM signed 16-bit little-endian</property>
  <property name="meta.media.0.codec.bit_rate">1536000</property>
  <property name="meta.attr.encoder.markup">Lavf59.16.100</property>
  <property name="seekable">1</property>
  <property name="audio_index">0</property>
  <property name="video_index">-1</property>
  <property name="mute_on_pause">1</property>
  <property name="mlt_service">avformat</property>
  <property name="kdenlive:clipname"/>
  <property name="kdenlive:clip_type">1</property>
  <property name="kdenlive:folderid">103</property>
  <property name="kdenlive:id">122</property>
  <property name="kdenlive:file_size">1382478</property>
  <property name="kdenlive:file_hash">38b444a7cb7894030c9cedfaa84a2fb9</property>
  <property name="kdenlive:audio_max0">175</property>
 </producer>
 <producer id="producer108" in="00:00:00.000" out="00:00:01.600">
  <property name="length">97</property>
  <property name="eof">pause</property>
  <property name="resource">/home/federico/Nextcloud/Kden/EditingUT/Sound/money cash register cha-ching.wav</property>
  <property name="meta.media.nb_streams">1</property>
  <property name="meta.media.0.stream.type">audio</property>
  <property name="meta.media.0.codec.sample_fmt">s16</property>
  <property name="meta.media.0.codec.sample_rate">44100</property>
  <property name="meta.media.0.codec.channels">2</property>
  <property name="meta.media.0.codec.name">pcm_s16le</property>
  <property name="meta.media.0.codec.long_name">PCM signed 16-bit little-endian</property>
  <property name="meta.media.0.codec.bit_rate">1411200</property>
  <property name="meta.attr.encoder.markup">Lavf60.16.100</property>
  <property name="seekable">1</property>
  <property name="audio_index">0</property>
  <property name="video_index">-1</property>
  <property name="mute_on_pause">1</property>
  <property name="mlt_service">avformat</property>
  <property name="kdenlive:clipname"/>
  <property name="kdenlive:clip_type">1</property>
  <property name="kdenlive:folderid">103</property>
  <property name="kdenlive:id">123</property>
  <property name="kdenlive:file_size">285774</property>
  <property name="kdenlive:file_hash">c6847c337d194885f906dfcb2cc598f6</property>
  <property name="kdenlive:audio_max0">164</property>
 </producer>
 <producer id="producer109" in="00:00:00.000" out="00:00:01.817">
  <property name="length">110</property>
  <property name="eof">pause</property>
  <property name="resource">/home/federico/Nextcloud/Kden/EditingUT/Sound/nani.wav</property>
  <property name="meta.media.nb_streams">1</property>
  <property name="meta.media.0.stream.type">audio</property>
  <property name="meta.media.0.codec.sample_fmt">s16</property>
  <property name="meta.media.0.codec.sample_rate">44100</property>
  <property name="meta.media.0.codec.channels">2</property>
  <property name="meta.media.0.codec.name">pcm_s16le</property>
  <property name="meta.media.0.codec.long_name">PCM signed 16-bit little-endian</property>
  <property name="meta.media.0.codec.bit_rate">1411200</property>
  <property name="meta.attr.encoder.markup">Lavf60.16.100</property>
  <property name="seekable">1</property>
  <property name="audio_index">0</property>
  <property name="video_index">-1</property>
  <property name="mute_on_pause">1</property>
  <property name="mlt_service">avformat</property>
  <property name="kdenlive:clipname"/>
  <property name="kdenlive:clip_type">1</property>
  <property name="kdenlive:folderid">103</property>
  <property name="kdenlive:id">124</property>
  <property name="kdenlive:file_size">322638</property>
  <property name="kdenlive:file_hash">995bfa3be0c2f062177488190a459d29</property>
  <property name="kdenlive:audio_max0">217</property>
 </producer>
 <producer id="producer110" in="00:00:00.000" out="00:00:02.617">
  <property name="length">158</property>
  <property name="eof">pause</property>
  <property name="resource">/home/federico/Nextcloud/Kden/EditingUT/Sound/neil degrasse tyson nyoom.wav</property>
  <property name="meta.media.nb_streams">1</property>
  <property name="meta.media.0.stream.type">audio</property>
  <property name="meta.media.0.codec.sample_fmt">s16</property>
  <property name="meta.media.0.codec.sample_rate">44100</property>
  <property name="meta.media.0.codec.channels">2</property>
  <property name="meta.media.0.codec.name">pcm_s16le</property>
  <property name="meta.media.0.codec.long_name">PCM signed 16-bit little-endian</property>
  <property name="meta.media.0.codec.bit_rate">1411200</property>
  <property name="meta.attr.encoder.markup">Lavf60.16.100</property>
  <property name="seekable">1</property>
  <property name="audio_index">0</property>
  <property name="video_index">-1</property>
  <property name="mute_on_pause">1</property>
  <property name="mlt_service">avformat</property>
  <property name="kdenlive:clipname"/>
  <property name="kdenlive:clip_type">1</property>
  <property name="kdenlive:folderid">103</property>
  <property name="kdenlive:id">125</property>
  <property name="kdenlive:file_size">465486</property>
  <property name="kdenlive:file_hash">802101e7d3c889af8fbbf6235a1556aa</property>
  <property name="kdenlive:audio_max0">213</property>
 </producer>
 <producer id="producer111" in="00:00:00.000" out="00:00:28.167">
  <property name="length">1691</property>
  <property name="eof">pause</property>
  <property name="resource">/home/federico/Nextcloud/Kden/EditingUT/Sound/police siren.wav</property>
  <property name="meta.media.nb_streams">1</property>
  <property name="meta.media.0.stream.type">audio</property>
  <property name="meta.media.0.codec.sample_fmt">s16</property>
  <property name="meta.media.0.codec.sample_rate">44100</property>
  <property name="meta.media.0.codec.channels">2</property>
  <property name="meta.media.0.codec.name">pcm_s16le</property>
  <property name="meta.media.0.codec.long_name">PCM signed 16-bit little-endian</property>
  <property name="meta.media.0.codec.bit_rate">1411200</property>
  <property name="meta.attr.encoder.markup">Lavf60.16.100</property>
  <property name="seekable">1</property>
  <property name="audio_index">0</property>
  <property name="video_index">-1</property>
  <property name="mute_on_pause">1</property>
  <property name="mlt_service">avformat</property>
  <property name="kdenlive:clipname"/>
  <property name="kdenlive:clip_type">1</property>
  <property name="kdenlive:folderid">103</property>
  <property name="kdenlive:id">126</property>
  <property name="kdenlive:file_size">4972110</property>
  <property name="kdenlive:file_hash">6b1dcae86c65fbb19597944dc7d246f2</property>
  <property name="kdenlive:audio_max0">138</property>
 </producer>
 <producer id="producer112" in="00:00:00.000" out="00:00:02.467">
  <property name="length">149</property>
  <property name="eof">pause</property>
  <property name="resource">/home/federico/Nextcloud/Kden/EditingUT/Sound/presidente.wav</property>
  <property name="meta.media.nb_streams">1</property>
  <property name="meta.media.0.stream.type">audio</property>
  <property name="meta.media.0.codec.sample_fmt">s16</property>
  <property name="meta.media.0.codec.sample_rate">48000</property>
  <property name="meta.media.0.codec.channels">2</property>
  <property name="meta.media.0.codec.name">pcm_s16le</property>
  <property name="meta.media.0.codec.long_name">PCM signed 16-bit little-endian</property>
  <property name="meta.media.0.codec.bit_rate">1536000</property>
  <property name="meta.attr.encoder.markup">Lavf59.16.100</property>
  <property name="seekable">1</property>
  <property name="audio_index">0</property>
  <property name="video_index">-1</property>
  <property name="mute_on_pause">1</property>
  <property name="mlt_service">avformat</property>
  <property name="kdenlive:clipname"/>
  <property name="kdenlive:clip_type">1</property>
  <property name="kdenlive:folderid">103</property>
  <property name="kdenlive:id">127</property>
  <property name="kdenlive:file_size">476878</property>
  <property name="kdenlive:file_hash">162c7a5dcf2ad234868524e86ca9dadf</property>
  <property name="kdenlive:audio_max0">143</property>
 </producer>
 <producer id="producer113" in="00:00:00.000" out="00:00:01.150">
  <property name="length">70</property>
  <property name="eof">pause</property>
  <property name="resource">/home/federico/Nextcloud/Kden/EditingUT/Sound/sium.wav</property>
  <property name="meta.media.nb_streams">1</property>
  <property name="meta.media.0.stream.type">audio</property>
  <property name="meta.media.0.codec.sample_fmt">s16</property>
  <property name="meta.media.0.codec.sample_rate">48000</property>
  <property name="meta.media.0.codec.channels">2</property>
  <property name="meta.media.0.codec.name">pcm_s16le</property>
  <property name="meta.media.0.codec.long_name">PCM signed 16-bit little-endian</property>
  <property name="meta.media.0.codec.bit_rate">1536000</property>
  <property name="meta.attr.encoder.markup">Lavf59.16.100</property>
  <property name="seekable">1</property>
  <property name="audio_index">0</property>
  <property name="video_index">-1</property>
  <property name="mute_on_pause">1</property>
  <property name="mlt_service">avformat</property>
  <property name="kdenlive:clipname"/>
  <property name="kdenlive:clip_type">1</property>
  <property name="kdenlive:folderid">103</property>
  <property name="kdenlive:id">128</property>
  <property name="kdenlive:file_size">224078</property>
  <property name="kdenlive:file_hash">4a90ee75d1ff00df26594d81cab6593a</property>
  <property name="kdenlive:audio_max0">228</property>
 </producer>
 <producer id="producer114" in="00:00:00.000" out="00:00:01.183">
  <property name="length">72</property>
  <property name="eof">pause</property>
  <property name="resource">/home/federico/Nextcloud/Kden/EditingUT/Sound/skype end call.wav</property>
  <property name="meta.media.nb_streams">1</property>
  <property name="meta.media.0.stream.type">audio</property>
  <property name="meta.media.0.codec.sample_fmt">s16</property>
  <property name="meta.media.0.codec.sample_rate">44100</property>
  <property name="meta.media.0.codec.channels">2</property>
  <property name="meta.media.0.codec.name">pcm_s16le</property>
  <property name="meta.media.0.codec.long_name">PCM signed 16-bit little-endian</property>
  <property name="meta.media.0.codec.bit_rate">1411200</property>
  <property name="meta.attr.encoder.markup">Lavf60.16.100</property>
  <property name="seekable">1</property>
  <property name="audio_index">0</property>
  <property name="video_index">-1</property>
  <property name="mute_on_pause">1</property>
  <property name="mlt_service">avformat</property>
  <property name="kdenlive:clipname"/>
  <property name="kdenlive:clip_type">1</property>
  <property name="kdenlive:folderid">103</property>
  <property name="kdenlive:id">129</property>
  <property name="kdenlive:file_size">212046</property>
  <property name="kdenlive:file_hash">d39f16513dfb9ae7c0eb79c29ab10fb4</property>
  <property name="kdenlive:audio_max0">203</property>
 </producer>
 <producer id="producer116" in="00:00:00.000" out="00:00:07.950">
  <property name="length">478</property>
  <property name="eof">pause</property>
  <property name="resource">/home/federico/Nextcloud/Kden/EditingUT/Sound/slow motion.wav</property>
  <property name="meta.media.nb_streams">1</property>
  <property name="meta.media.0.stream.type">audio</property>
  <property name="meta.media.0.codec.sample_fmt">s16</property>
  <property name="meta.media.0.codec.sample_rate">44100</property>
  <property name="meta.media.0.codec.channels">2</property>
  <property name="meta.media.0.codec.name">pcm_s16le</property>
  <property name="meta.media.0.codec.long_name">PCM signed 16-bit little-endian</property>
  <property name="meta.media.0.codec.bit_rate">1411200</property>
  <property name="meta.attr.encoder.markup">Lavf60.16.100</property>
  <property name="seekable">1</property>
  <property name="audio_index">0</property>
  <property name="video_index">-1</property>
  <property name="mute_on_pause">1</property>
  <property name="mlt_service">avformat</property>
  <property name="kdenlive:clipname"/>
  <property name="kdenlive:clip_type">1</property>
  <property name="kdenlive:folderid">103</property>
  <property name="kdenlive:id">130</property>
  <property name="kdenlive:file_size">1405518</property>
  <property name="kdenlive:file_hash">4cfbb52321eb0aaa486530fc0c95745e</property>
  <property name="kdenlive:audio_max0">171</property>
 </producer>
 <producer id="producer115" in="00:00:00.000" out="00:00:04.000">
  <property name="length">241</property>
  <property name="eof">pause</property>
  <property name="resource">/home/federico/Nextcloud/Kden/EditingUT/Sound/storm lightning and thunder.wav</property>
  <property name="meta.media.nb_streams">1</property>
  <property name="meta.media.0.stream.type">audio</property>
  <property name="meta.media.0.codec.sample_fmt">s16</property>
  <property name="meta.media.0.codec.sample_rate">44100</property>
  <property name="meta.media.0.codec.channels">2</property>
  <property name="meta.media.0.codec.name">pcm_s16le</property>
  <property name="meta.media.0.codec.long_name">PCM signed 16-bit little-endian</property>
  <property name="meta.media.0.codec.bit_rate">1411200</property>
  <property name="meta.attr.encoder.markup">Lavf60.16.100</property>
  <property name="seekable">1</property>
  <property name="audio_index">0</property>
  <property name="video_index">-1</property>
  <property name="mute_on_pause">1</property>
  <property name="mlt_service">avformat</property>
  <property name="kdenlive:clipname"/>
  <property name="kdenlive:clip_type">1</property>
  <property name="kdenlive:folderid">103</property>
  <property name="kdenlive:id">131</property>
  <property name="kdenlive:file_size">709710</property>
  <property name="kdenlive:file_hash">96e3e7516d56b75133be10c3d372face</property>
  <property name="kdenlive:audio_max0">186</property>
 </producer>
 <producer id="producer117" in="00:00:00.000" out="00:00:05.133">
  <property name="length">309</property>
  <property name="eof">pause</property>
  <property name="resource">/home/federico/Nextcloud/Kden/EditingUT/Sound/victory.wav</property>
  <property name="meta.media.nb_streams">1</property>
  <property name="meta.media.0.stream.type">audio</property>
  <property name="meta.media.0.codec.sample_fmt">s16</property>
  <property name="meta.media.0.codec.sample_rate">44100</property>
  <property name="meta.media.0.codec.channels">2</property>
  <property name="meta.media.0.codec.name">pcm_s16le</property>
  <property name="meta.media.0.codec.long_name">PCM signed 16-bit little-endian</property>
  <property name="meta.media.0.codec.bit_rate">1411200</property>
  <property name="meta.attr.encoder.markup">Lavf60.16.100</property>
  <property name="seekable">1</property>
  <property name="audio_index">0</property>
  <property name="video_index">-1</property>
  <property name="mute_on_pause">1</property>
  <property name="mlt_service">avformat</property>
  <property name="kdenlive:clipname"/>
  <property name="kdenlive:clip_type">1</property>
  <property name="kdenlive:folderid">103</property>
  <property name="kdenlive:id">132</property>
  <property name="kdenlive:file_size">907854</property>
  <property name="kdenlive:file_hash">f12a71d8d42d2906e2511a3ddcbbaa3e</property>
  <property name="kdenlive:audio_max0">154</property>
 </producer>
 <producer id="producer118" in="00:00:00.000" out="00:00:06.850">
  <property name="length">412</property>
  <property name="eof">pause</property>
  <property name="resource">/home/federico/Nextcloud/Kden/EditingUT/Sound/weeeee! - ..wav</property>
  <property name="meta.media.nb_streams">1</property>
  <property name="meta.media.0.stream.type">audio</property>
  <property name="meta.media.0.codec.sample_fmt">s16</property>
  <property name="meta.media.0.codec.sample_rate">44100</property>
  <property name="meta.media.0.codec.channels">2</property>
  <property name="meta.media.0.codec.name">pcm_s16le</property>
  <property name="meta.media.0.codec.long_name">PCM signed 16-bit little-endian</property>
  <property name="meta.media.0.codec.bit_rate">1411200</property>
  <property name="meta.attr.encoder.markup">Lavf60.16.100</property>
  <property name="seekable">1</property>
  <property name="audio_index">0</property>
  <property name="video_index">-1</property>
  <property name="mute_on_pause">1</property>
  <property name="mlt_service">avformat</property>
  <property name="kdenlive:clipname"/>
  <property name="kdenlive:clip_type">1</property>
  <property name="kdenlive:folderid">103</property>
  <property name="kdenlive:id">133</property>
  <property name="kdenlive:file_size">1211982</property>
  <property name="kdenlive:file_hash">8cd325726c839e43e5682bf74a32bf04</property>
  <property name="kdenlive:audio_max0">177</property>
 </producer>
 <producer id="producer119" in="00:00:00.000" out="00:00:07.833">
  <property name="length">471</property>
  <property name="eof">pause</property>
  <property name="resource">/home/federico/Nextcloud/Kden/EditingUT/Sound/Wide Putin Walking meme.wav</property>
  <property name="meta.media.nb_streams">1</property>
  <property name="meta.media.0.stream.type">audio</property>
  <property name="meta.media.0.codec.sample_fmt">s16</property>
  <property name="meta.media.0.codec.sample_rate">48000</property>
  <property name="meta.media.0.codec.channels">2</property>
  <property name="meta.media.0.codec.name">pcm_s16le</property>
  <property name="meta.media.0.codec.long_name">PCM signed 16-bit little-endian</property>
  <property name="meta.media.0.codec.bit_rate">1536000</property>
  <property name="meta.attr.encoder.markup">Lavf61.7.100</property>
  <property name="seekable">1</property>
  <property name="audio_index">0</property>
  <property name="video_index">-1</property>
  <property name="mute_on_pause">1</property>
  <property name="mlt_service">avformat</property>
  <property name="kdenlive:clipname"/>
  <property name="kdenlive:clip_type">1</property>
  <property name="kdenlive:folderid">103</property>
  <property name="kdenlive:id">134</property>
  <property name="kdenlive:file_size">1507278</property>
  <property name="kdenlive:file_hash">1d8dc62298b8f78ed214e0152ef7099d</property>
  <property name="kdenlive:audio_max0">145</property>
 </producer>
 <producer id="producer120" in="00:00:00.000" out="00:00:31.350">
  <property name="length">1882</property>
  <property name="eof">pause</property>
  <property name="resource">/home/federico/Nextcloud/Kden/EditingUT/Sound/wind.wav</property>
  <property name="meta.media.nb_streams">1</property>
  <property name="meta.media.0.stream.type">audio</property>
  <property name="meta.media.0.codec.sample_fmt">s16</property>
  <property name="meta.media.0.codec.sample_rate">44100</property>
  <property name="meta.media.0.codec.channels">2</property>
  <property name="meta.media.0.codec.name">pcm_s16le</property>
  <property name="meta.media.0.codec.long_name">PCM signed 16-bit little-endian</property>
  <property name="meta.media.0.codec.bit_rate">1411200</property>
  <property name="meta.attr.encoder.markup">Lavf60.16.100</property>
  <property name="seekable">1</property>
  <property name="audio_index">0</property>
  <property name="video_index">-1</property>
  <property name="mute_on_pause">1</property>
  <property name="mlt_service">avformat</property>
  <property name="kdenlive:clipname"/>
  <property name="kdenlive:clip_type">1</property>
  <property name="kdenlive:folderid">103</property>
  <property name="kdenlive:id">135</property>
  <property name="kdenlive:file_size">5534286</property>
  <property name="kdenlive:file_hash">024f39369014cc95722c313c27b980a9</property>
  <property name="kdenlive:audio_max0">189</property>
 </producer>
 <producer id="producer121" in="00:00:00.000" out="00:00:02.733">
  <property name="length">165</property>
  <property name="eof">pause</property>
  <property name="resource">/home/federico/Nextcloud/Kden/EditingUT/Sound/wwe bell ring s.wav</property>
  <property name="meta.media.nb_streams">1</property>
  <property name="meta.media.0.stream.type">audio</property>
  <property name="meta.media.0.codec.sample_fmt">s16</property>
  <property name="meta.media.0.codec.sample_rate">44100</property>
  <property name="meta.media.0.codec.channels">2</property>
  <property name="meta.media.0.codec.name">pcm_s16le</property>
  <property name="meta.media.0.codec.long_name">PCM signed 16-bit little-endian</property>
  <property name="meta.media.0.codec.bit_rate">1411200</property>
  <property name="meta.attr.encoder.markup">Lavf60.16.100</property>
  <property name="seekable">1</property>
  <property name="audio_index">0</property>
  <property name="video_index">-1</property>
  <property name="mute_on_pause">1</property>
  <property name="mlt_service">avformat</property>
  <property name="kdenlive:clipname"/>
  <property name="kdenlive:clip_type">1</property>
  <property name="kdenlive:folderid">103</property>
  <property name="kdenlive:id">136</property>
  <property name="kdenlive:file_size">483918</property>
  <property name="kdenlive:file_hash">110057a0a53b3c35a942ae226f301181</property>
  <property name="kdenlive:audio_max0">187</property>
 </producer>
 <producer id="producer122" in="00:00:00.000" out="00:00:01.567">
  <property name="length">95</property>
  <property name="eof">pause</property>
  <property name="resource">/home/federico/Nextcloud/Kden/EditingUT/Sound/Animals/angry cat meow -.wav</property>
  <property name="meta.media.nb_streams">1</property>
  <property name="meta.media.0.stream.type">audio</property>
  <property name="meta.media.0.codec.sample_fmt">s16</property>
  <property name="meta.media.0.codec.sample_rate">48000</property>
  <property name="meta.media.0.codec.channels">2</property>
  <property name="meta.media.0.codec.name">pcm_s16le</property>
  <property name="meta.media.0.codec.long_name">PCM signed 16-bit little-endian</property>
  <property name="meta.media.0.codec.bit_rate">1536000</property>
  <property name="meta.attr.artist.markup">Free Sound Effects</property>
  <property name="meta.attr.comment.markup">https://www.youtube.com/watch?v=RqcjDMq97Xs</property>
  <property name="meta.attr.date.markup">2021</property>
  <property name="meta.attr.title.markup">Angry Cat Meow - Sound Effect</property>
  <property name="meta.attr.encoder.markup">Lavf60.16.100</property>
  <property name="seekable">1</property>
  <property name="audio_index">0</property>
  <property name="video_index">-1</property>
  <property name="mute_on_pause">1</property>
  <property name="mlt_service">avformat</property>
  <property name="kdenlive:clipname"/>
  <property name="kdenlive:clip_type">1</property>
  <property name="kdenlive:folderid">137</property>
  <property name="kdenlive:id">138</property>
  <property name="kdenlive:file_size">305602</property>
  <property name="kdenlive:file_hash">3f53967e1ce482a0b25676b6efa5d9e5</property>
  <property name="kdenlive:audio_max0">177</property>
 </producer>
 <producer id="producer123" in="00:00:00.000" out="00:00:04.450">
  <property name="length">268</property>
  <property name="eof">pause</property>
  <property name="resource">/home/federico/Nextcloud/Kden/EditingUT/Sound/Animals/awkward cricket.wav</property>
  <property name="meta.media.nb_streams">1</property>
  <property name="meta.media.0.stream.type">audio</property>
  <property name="meta.media.0.codec.sample_fmt">s16</property>
  <property name="meta.media.0.codec.sample_rate">44100</property>
  <property name="meta.media.0.codec.channels">2</property>
  <property name="meta.media.0.codec.name">pcm_s16le</property>
  <property name="meta.media.0.codec.long_name">PCM signed 16-bit little-endian</property>
  <property name="meta.media.0.codec.bit_rate">1411200</property>
  <property name="meta.attr.encoder.markup">Lavf60.16.100</property>
  <property name="seekable">1</property>
  <property name="audio_index">0</property>
  <property name="video_index">-1</property>
  <property name="mute_on_pause">1</property>
  <property name="mlt_service">avformat</property>
  <property name="kdenlive:clipname"/>
  <property name="kdenlive:clip_type">1</property>
  <property name="kdenlive:folderid">137</property>
  <property name="kdenlive:id">139</property>
  <property name="kdenlive:file_size">788046</property>
  <property name="kdenlive:file_hash">acd8cfcfe2613eee0db254c893277db5</property>
  <property name="kdenlive:audio_max0">170</property>
 </producer>
 <producer id="producer124" in="00:00:00.000" out="00:00:08.467">
  <property name="length">509</property>
  <property name="eof">pause</property>
  <property name="resource">/home/federico/Nextcloud/Kden/EditingUT/Sound/Animals/crow.wav</property>
  <property name="meta.media.nb_streams">1</property>
  <property name="meta.media.0.stream.type">audio</property>
  <property name="meta.media.0.codec.sample_fmt">s16</property>
  <property name="meta.media.0.codec.sample_rate">44100</property>
  <property name="meta.media.0.codec.channels">2</property>
  <property name="meta.media.0.codec.name">pcm_s16le</property>
  <property name="meta.media.0.codec.long_name">PCM signed 16-bit little-endian</property>
  <property name="meta.media.0.codec.bit_rate">1411200</property>
  <property name="meta.attr.encoder.markup">Lavf60.16.100</property>
  <property name="seekable">1</property>
  <property name="audio_index">0</property>
  <property name="video_index">-1</property>
  <property name="mute_on_pause">1</property>
  <property name="mlt_service">avformat</property>
  <property name="kdenlive:clipname"/>
  <property name="kdenlive:clip_type">1</property>
  <property name="kdenlive:folderid">137</property>
  <property name="kdenlive:id">140</property>
  <property name="kdenlive:file_size">1497678</property>
  <property name="kdenlive:file_hash">3ecf00ae5f491fb5431f6530c7e5131f</property>
  <property name="kdenlive:audio_max0">201</property>
 </producer>
 <producer id="producer125" in="00:00:00.000" out="00:00:13.567">
  <property name="length">815</property>
  <property name="eof">pause</property>
  <property name="resource">/home/federico/Nextcloud/Kden/EditingUT/Sound/Animals/dog barking -.wav</property>
  <property name="meta.media.nb_streams">1</property>
  <property name="meta.media.0.stream.type">audio</property>
  <property name="meta.media.0.codec.sample_fmt">s16</property>
  <property name="meta.media.0.codec.sample_rate">44100</property>
  <property name="meta.media.0.codec.channels">2</property>
  <property name="meta.media.0.codec.name">pcm_s16le</property>
  <property name="meta.media.0.codec.long_name">PCM signed 16-bit little-endian</property>
  <property name="meta.media.0.codec.bit_rate">1411200</property>
  <property name="meta.attr.encoder.markup">Lavf60.16.100</property>
  <property name="seekable">1</property>
  <property name="audio_index">0</property>
  <property name="video_index">-1</property>
  <property name="mute_on_pause">1</property>
  <property name="mlt_service">avformat</property>
  <property name="kdenlive:clipname"/>
  <property name="kdenlive:clip_type">1</property>
  <property name="kdenlive:folderid">137</property>
  <property name="kdenlive:id">141</property>
  <property name="kdenlive:file_size">2396238</property>
  <property name="kdenlive:file_hash">da3194f0d0f681b92227116078e04f35</property>
  <property name="kdenlive:audio_max0">213</property>
 </producer>
 <producer id="producer127" in="00:00:00.000" out="00:00:03.100">
  <property name="length">187</property>
  <property name="eof">pause</property>
  <property name="resource">/home/federico/Nextcloud/Kden/EditingUT/Sound/Animals/duck quack -.wav</property>
  <property name="meta.media.nb_streams">1</property>
  <property name="meta.media.0.stream.type">audio</property>
  <property name="meta.media.0.codec.sample_fmt">s16</property>
  <property name="meta.media.0.codec.sample_rate">44100</property>
  <property name="meta.media.0.codec.channels">2</property>
  <property name="meta.media.0.codec.name">pcm_s16le</property>
  <property name="meta.media.0.codec.long_name">PCM signed 16-bit little-endian</property>
  <property name="meta.media.0.codec.bit_rate">1411200</property>
  <property name="meta.attr.encoder.markup">Lavf60.16.100</property>
  <property name="seekable">1</property>
  <property name="audio_index">0</property>
  <property name="video_index">-1</property>
  <property name="mute_on_pause">1</property>
  <property name="mlt_service">avformat</property>
  <property name="kdenlive:clipname"/>
  <property name="kdenlive:clip_type">1</property>
  <property name="kdenlive:folderid">137</property>
  <property name="kdenlive:id">142</property>
  <property name="kdenlive:file_size">548430</property>
  <property name="kdenlive:file_hash">6f5a3f3a2ac5d0e3cd46f1714cf9cfc2</property>
  <property name="kdenlive:audio_max0">210</property>
 </producer>
 <producer id="producer126" in="00:00:00.000" out="00:00:06.850">
  <property name="length">412</property>
  <property name="eof">pause</property>
  <property name="resource">/home/federico/Nextcloud/Kden/EditingUT/Sound/Animals/elephant -.wav</property>
  <property name="meta.media.nb_streams">1</property>
  <property name="meta.media.0.stream.type">audio</property>
  <property name="meta.media.0.codec.sample_fmt">s16</property>
  <property name="meta.media.0.codec.sample_rate">44100</property>
  <property name="meta.media.0.codec.channels">2</property>
  <property name="meta.media.0.codec.name">pcm_s16le</property>
  <property name="meta.media.0.codec.long_name">PCM signed 16-bit little-endian</property>
  <property name="meta.media.0.codec.bit_rate">1411200</property>
  <property name="meta.attr.encoder.markup">Lavf60.16.100</property>
  <property name="seekable">1</property>
  <property name="audio_index">0</property>
  <property name="video_index">-1</property>
  <property name="mute_on_pause">1</property>
  <property name="mlt_service">avformat</property>
  <property name="kdenlive:clipname"/>
  <property name="kdenlive:clip_type">1</property>
  <property name="kdenlive:folderid">137</property>
  <property name="kdenlive:id">143</property>
  <property name="kdenlive:file_size">1211982</property>
  <property name="kdenlive:file_hash">9dfd11c5519bc659b11d58a197b7b6d8</property>
  <property name="kdenlive:audio_max0">236</property>
 </producer>
 <producer id="producer128" in="00:00:00.000" out="00:00:12.233">
  <property name="length">735</property>
  <property name="eof">pause</property>
  <property name="resource">/home/federico/Nextcloud/Kden/EditingUT/Sound/Animals/funny animal screaming meme.wav</property>
  <property name="meta.media.nb_streams">1</property>
  <property name="meta.media.0.stream.type">audio</property>
  <property name="meta.media.0.codec.sample_fmt">s16</property>
  <property name="meta.media.0.codec.sample_rate">44100</property>
  <property name="meta.media.0.codec.channels">2</property>
  <property name="meta.media.0.codec.name">pcm_s16le</property>
  <property name="meta.media.0.codec.long_name">PCM signed 16-bit little-endian</property>
  <property name="meta.media.0.codec.bit_rate">1411200</property>
  <property name="meta.attr.encoder.markup">Lavf60.16.100</property>
  <property name="seekable">1</property>
  <property name="audio_index">0</property>
  <property name="video_index">-1</property>
  <property name="mute_on_pause">1</property>
  <property name="mlt_service">avformat</property>
  <property name="kdenlive:clipname"/>
  <property name="kdenlive:clip_type">1</property>
  <property name="kdenlive:folderid">137</property>
  <property name="kdenlive:id">144</property>
  <property name="kdenlive:file_size">2161230</property>
  <property name="kdenlive:file_hash">3264e10251c1d4d62da130b3fff1df66</property>
  <property name="kdenlive:audio_max0">212</property>
 </producer>
 <producer id="producer129" in="00:00:00.000" out="00:00:19.367">
  <property name="length">1163</property>
  <property name="eof">pause</property>
  <property name="resource">/home/federico/Nextcloud/Kden/EditingUT/Sound/Animals/moo!  cow.wav</property>
  <property name="meta.media.nb_streams">1</property>
  <property name="meta.media.0.stream.type">audio</property>
  <property name="meta.media.0.codec.sample_fmt">s16</property>
  <property name="meta.media.0.codec.sample_rate">44100</property>
  <property name="meta.media.0.codec.channels">2</property>
  <property name="meta.media.0.codec.name">pcm_s16le</property>
  <property name="meta.media.0.codec.long_name">PCM signed 16-bit little-endian</property>
  <property name="meta.media.0.codec.bit_rate">1411200</property>
  <property name="meta.attr.encoder.markup">Lavf60.16.100</property>
  <property name="seekable">1</property>
  <property name="audio_index">0</property>
  <property name="video_index">-1</property>
  <property name="mute_on_pause">1</property>
  <property name="mlt_service">avformat</property>
  <property name="kdenlive:clipname"/>
  <property name="kdenlive:clip_type">1</property>
  <property name="kdenlive:folderid">137</property>
  <property name="kdenlive:id">145</property>
  <property name="kdenlive:file_size">3419214</property>
  <property name="kdenlive:file_hash">bf3f7be7891aecf3b0f838b1aa7873b5</property>
  <property name="kdenlive:audio_max0">203</property>
 </producer>
 <producer id="producer130" in="00:00:00.000" out="00:00:14.800">
  <property name="length">889</property>
  <property name="eof">pause</property>
  <property name="resource">/home/federico/Nextcloud/Kden/EditingUT/Sound/Animals/mosquito flying buzz.wav</property>
  <property name="meta.media.nb_streams">1</property>
  <property name="meta.media.0.stream.type">audio</property>
  <property name="meta.media.0.codec.sample_fmt">s16</property>
  <property name="meta.media.0.codec.sample_rate">44100</property>
  <property name="meta.media.0.codec.channels">2</property>
  <property name="meta.media.0.codec.name">pcm_s16le</property>
  <property name="meta.media.0.codec.long_name">PCM signed 16-bit little-endian</property>
  <property name="meta.media.0.codec.bit_rate">1411200</property>
  <property name="meta.attr.artist.markup">Clean Sounds</property>
  <property name="meta.attr.comment.markup">https://www.youtube.com/watch?v=COaFOK0U0rU</property>
  <property name="meta.attr.date.markup">20221217</property>
  <property name="meta.attr.title.markup">Mosquito Flying Buzz Sound Effect</property>
  <property name="meta.attr.encoder.markup">Lavf60.16.100</property>
  <property name="seekable">1</property>
  <property name="audio_index">0</property>
  <property name="video_index">-1</property>
  <property name="mute_on_pause">1</property>
  <property name="mlt_service">avformat</property>
  <property name="kdenlive:clipname"/>
  <property name="kdenlive:clip_type">1</property>
  <property name="kdenlive:folderid">137</property>
  <property name="kdenlive:id">146</property>
  <property name="kdenlive:file_size">2613460</property>
  <property name="kdenlive:file_hash">c1d36edd19b75c48da468bbd71c57ad7</property>
  <property name="kdenlive:audio_max0">188</property>
 </producer>
 <producer id="producer132" in="00:00:00.000" out="00:00:04.850">
  <property name="length">292</property>
  <property name="eof">pause</property>
  <property name="resource">/home/federico/Nextcloud/Kden/EditingUT/Sound/Animals/Owl Hooting Noise.wav</property>
  <property name="meta.media.nb_streams">1</property>
  <property name="meta.media.0.stream.type">audio</property>
  <property name="meta.media.0.codec.sample_fmt">s16</property>
  <property name="meta.media.0.codec.sample_rate">44100</property>
  <property name="meta.media.0.codec.channels">2</property>
  <property name="meta.media.0.codec.name">pcm_s16le</property>
  <property name="meta.media.0.codec.long_name">PCM signed 16-bit little-endian</property>
  <property name="meta.media.0.codec.bit_rate">1411200</property>
  <property name="meta.attr.encoder.markup">Lavf60.16.100</property>
  <property name="seekable">1</property>
  <property name="audio_index">0</property>
  <property name="video_index">-1</property>
  <property name="mute_on_pause">1</property>
  <property name="mlt_service">avformat</property>
  <property name="kdenlive:clipname"/>
  <property name="kdenlive:clip_type">1</property>
  <property name="kdenlive:folderid">137</property>
  <property name="kdenlive:id">147</property>
  <property name="kdenlive:file_size">857166</property>
  <property name="kdenlive:file_hash">6030f526de0a44fa5de525f2dfa0b831</property>
  <property name="kdenlive:audio_max0">230</property>
 </producer>
 <producer id="producer131" in="00:00:00.000" out="00:00:02.750">
  <property name="length">166</property>
  <property name="eof">pause</property>
  <property name="resource">/home/federico/Nextcloud/Kden/EditingUT/Sound/Animals/rubber duck.wav</property>
  <property name="meta.media.nb_streams">1</property>
  <property name="meta.media.0.stream.type">audio</property>
  <property name="meta.media.0.codec.sample_fmt">s16</property>
  <property name="meta.media.0.codec.sample_rate">44100</property>
  <property name="meta.media.0.codec.channels">2</property>
  <property name="meta.media.0.codec.name">pcm_s16le</property>
  <property name="meta.media.0.codec.long_name">PCM signed 16-bit little-endian</property>
  <property name="meta.media.0.codec.bit_rate">1411200</property>
  <property name="meta.attr.encoder.markup">Lavf60.16.100</property>
  <property name="seekable">1</property>
  <property name="audio_index">0</property>
  <property name="video_index">-1</property>
  <property name="mute_on_pause">1</property>
  <property name="mlt_service">avformat</property>
  <property name="kdenlive:clipname"/>
  <property name="kdenlive:clip_type">1</property>
  <property name="kdenlive:folderid">137</property>
  <property name="kdenlive:id">148</property>
  <property name="kdenlive:file_size">488526</property>
  <property name="kdenlive:file_hash">d8991451f877baa3de0a1301b9935325</property>
  <property name="kdenlive:audio_max0">167</property>
  <property name="kdenlive:zone_in">73</property>
  <property name="kdenlive:zone_out">115</property>
 </producer>
 <producer id="producer133" in="00:00:00.000" out="00:00:04.717">
  <property name="length">284</property>
  <property name="eof">pause</property>
  <property name="resource">/home/federico/Nextcloud/Kden/EditingUT/Sound/Animals/t-rex roar.wav</property>
  <property name="meta.media.nb_streams">1</property>
  <property name="meta.media.0.stream.type">audio</property>
  <property name="meta.media.0.codec.sample_fmt">s16</property>
  <property name="meta.media.0.codec.sample_rate">44100</property>
  <property name="meta.media.0.codec.channels">2</property>
  <property name="meta.media.0.codec.name">pcm_s16le</property>
  <property name="meta.media.0.codec.long_name">PCM signed 16-bit little-endian</property>
  <property name="meta.media.0.codec.bit_rate">1411200</property>
  <property name="meta.attr.encoder.markup">Lavf60.16.100</property>
  <property name="seekable">1</property>
  <property name="audio_index">0</property>
  <property name="video_index">-1</property>
  <property name="mute_on_pause">1</property>
  <property name="mlt_service">avformat</property>
  <property name="kdenlive:clipname"/>
  <property name="kdenlive:clip_type">1</property>
  <property name="kdenlive:folderid">137</property>
  <property name="kdenlive:id">149</property>
  <property name="kdenlive:file_size">834126</property>
  <property name="kdenlive:file_hash">c10462049551114cda429a4f3aa8674c</property>
  <property name="kdenlive:audio_max0">193</property>
 </producer>
 <producer id="producer134" in="00:00:00.000" out="00:00:00.983">
  <property name="length">60</property>
  <property name="eof">pause</property>
  <property name="resource">/home/federico/Nextcloud/Kden/EditingUT/Sound/Anime/anime pop   #2.wav</property>
  <property name="meta.media.nb_streams">1</property>
  <property name="meta.media.0.stream.type">audio</property>
  <property name="meta.media.0.codec.sample_fmt">s16</property>
  <property name="meta.media.0.codec.sample_rate">44100</property>
  <property name="meta.media.0.codec.channels">2</property>
  <property name="meta.media.0.codec.name">pcm_s16le</property>
  <property name="meta.media.0.codec.long_name">PCM signed 16-bit little-endian</property>
  <property name="meta.media.0.codec.bit_rate">1411200</property>
  <property name="meta.attr.encoder.markup">Lavf60.16.100</property>
  <property name="seekable">1</property>
  <property name="audio_index">0</property>
  <property name="video_index">-1</property>
  <property name="mute_on_pause">1</property>
  <property name="mlt_service">avformat</property>
  <property name="kdenlive:clipname"/>
  <property name="kdenlive:clip_type">1</property>
  <property name="kdenlive:folderid">150</property>
  <property name="kdenlive:id">151</property>
  <property name="kdenlive:file_size">175182</property>
  <property name="kdenlive:file_hash">fea036f54779abb899b64f47a7db4e16</property>
  <property name="kdenlive:audio_max0">156</property>
 </producer>
 <producer id="producer135" in="00:00:00.000" out="00:00:03.100">
  <property name="length">187</property>
  <property name="eof">pause</property>
  <property name="resource">/home/federico/Nextcloud/Kden/EditingUT/Sound/Anime/anime shine.wav</property>
  <property name="meta.media.nb_streams">1</property>
  <property name="meta.media.0.stream.type">audio</property>
  <property name="meta.media.0.codec.sample_fmt">s16</property>
  <property name="meta.media.0.codec.sample_rate">44100</property>
  <property name="meta.media.0.codec.channels">2</property>
  <property name="meta.media.0.codec.name">pcm_s16le</property>
  <property name="meta.media.0.codec.long_name">PCM signed 16-bit little-endian</property>
  <property name="meta.media.0.codec.bit_rate">1411200</property>
  <property name="meta.attr.encoder.markup">Lavf60.16.100</property>
  <property name="seekable">1</property>
  <property name="audio_index">0</property>
  <property name="video_index">-1</property>
  <property name="mute_on_pause">1</property>
  <property name="mlt_service">avformat</property>
  <property name="kdenlive:clipname"/>
  <property name="kdenlive:clip_type">1</property>
  <property name="kdenlive:folderid">150</property>
  <property name="kdenlive:id">152</property>
  <property name="kdenlive:file_size">548430</property>
  <property name="kdenlive:file_hash">3f86f240022013a927d4e657b6f333c0</property>
  <property name="kdenlive:audio_max0">161</property>
 </producer>
 <producer id="producer136" in="00:00:00.000" out="00:00:03.983">
  <property name="length">240</property>
  <property name="eof">pause</property>
  <property name="resource">/home/federico/Nextcloud/Kden/EditingUT/Sound/Anime/anime wow -   to use.wav</property>
  <property name="meta.media.nb_streams">1</property>
  <property name="meta.media.0.stream.type">audio</property>
  <property name="meta.media.0.codec.sample_fmt">s16</property>
  <property name="meta.media.0.codec.sample_rate">44100</property>
  <property name="meta.media.0.codec.channels">2</property>
  <property name="meta.media.0.codec.name">pcm_s16le</property>
  <property name="meta.media.0.codec.long_name">PCM signed 16-bit little-endian</property>
  <property name="meta.media.0.codec.bit_rate">1411200</property>
  <property name="meta.attr.encoder.markup">Lavf60.16.100</property>
  <property name="seekable">1</property>
  <property name="audio_index">0</property>
  <property name="video_index">-1</property>
  <property name="mute_on_pause">1</property>
  <property name="mlt_service">avformat</property>
  <property name="kdenlive:clipname"/>
  <property name="kdenlive:clip_type">1</property>
  <property name="kdenlive:folderid">150</property>
  <property name="kdenlive:id">153</property>
  <property name="kdenlive:file_size">705102</property>
  <property name="kdenlive:file_hash">2951b71f99b744a9134af7fefd520325</property>
  <property name="kdenlive:audio_max0">116</property>
 </producer>
 <producer id="producer137" in="00:00:00.000" out="00:00:06.333">
  <property name="length">381</property>
  <property name="eof">pause</property>
  <property name="resource">/home/federico/Nextcloud/Kden/EditingUT/Sound/Anime/nani meme.wav</property>
  <property name="meta.media.nb_streams">1</property>
  <property name="meta.media.0.stream.type">audio</property>
  <property name="meta.media.0.codec.sample_fmt">s16</property>
  <property name="meta.media.0.codec.sample_rate">44100</property>
  <property name="meta.media.0.codec.channels">2</property>
  <property name="meta.media.0.codec.name">pcm_s16le</property>
  <property name="meta.media.0.codec.long_name">PCM signed 16-bit little-endian</property>
  <property name="meta.media.0.codec.bit_rate">1411200</property>
  <property name="meta.attr.encoder.markup">Lavf60.16.100</property>
  <property name="seekable">1</property>
  <property name="audio_index">0</property>
  <property name="video_index">-1</property>
  <property name="mute_on_pause">1</property>
  <property name="mlt_service">avformat</property>
  <property name="kdenlive:clipname"/>
  <property name="kdenlive:clip_type">1</property>
  <property name="kdenlive:folderid">150</property>
  <property name="kdenlive:id">154</property>
  <property name="kdenlive:file_size">1119822</property>
  <property name="kdenlive:file_hash">e5f4e1a3372932ddc94518f5669fd93c</property>
  <property name="kdenlive:audio_max0">155</property>
 </producer>
 <producer id="producer140" in="00:00:00.000" out="00:00:02.150">
  <property name="length">130</property>
  <property name="eof">pause</property>
  <property name="resource">/home/federico/Nextcloud/Kden/EditingUT/Sound/Anime/naruto hand sceals.wav</property>
  <property name="meta.media.nb_streams">1</property>
  <property name="meta.media.0.stream.type">audio</property>
  <property name="meta.media.0.codec.sample_fmt">s16</property>
  <property name="meta.media.0.codec.sample_rate">44100</property>
  <property name="meta.media.0.codec.channels">2</property>
  <property name="meta.media.0.codec.name">pcm_s16le</property>
  <property name="meta.media.0.codec.long_name">PCM signed 16-bit little-endian</property>
  <property name="meta.media.0.codec.bit_rate">1411200</property>
  <property name="meta.attr.encoder.markup">Lavf60.16.100</property>
  <property name="seekable">1</property>
  <property name="audio_index">0</property>
  <property name="video_index">-1</property>
  <property name="mute_on_pause">1</property>
  <property name="mlt_service">avformat</property>
  <property name="kdenlive:clipname"/>
  <property name="kdenlive:clip_type">1</property>
  <property name="kdenlive:folderid">150</property>
  <property name="kdenlive:id">155</property>
  <property name="kdenlive:file_size">382542</property>
  <property name="kdenlive:file_hash">52ae10c9aca00b1f4b482b1c3cd1b21f</property>
  <property name="kdenlive:audio_max0">197</property>
 </producer>
 <producer id="producer138" in="00:00:00.000" out="00:00:02.100">
  <property name="length">127</property>
  <property name="eof">pause</property>
  <property name="resource">/home/federico/Nextcloud/Kden/EditingUT/Sound/Anime/pop.wav</property>
  <property name="meta.media.nb_streams">1</property>
  <property name="meta.media.0.stream.type">audio</property>
  <property name="meta.media.0.codec.sample_fmt">s16</property>
  <property name="meta.media.0.codec.sample_rate">44100</property>
  <property name="meta.media.0.codec.channels">2</property>
  <property name="meta.media.0.codec.name">pcm_s16le</property>
  <property name="meta.media.0.codec.long_name">PCM signed 16-bit little-endian</property>
  <property name="meta.media.0.codec.bit_rate">1411200</property>
  <property name="meta.attr.encoder.markup">Lavf60.16.100</property>
  <property name="seekable">1</property>
  <property name="audio_index">0</property>
  <property name="video_index">-1</property>
  <property name="mute_on_pause">1</property>
  <property name="mlt_service">avformat</property>
  <property name="kdenlive:clipname"/>
  <property name="kdenlive:clip_type">1</property>
  <property name="kdenlive:folderid">150</property>
  <property name="kdenlive:id">156</property>
  <property name="kdenlive:file_size">373326</property>
  <property name="kdenlive:file_hash">fa6a42c4ccc18f56a3987be64a422a69</property>
  <property name="kdenlive:audio_max0">202</property>
 </producer>
 <producer id="producer139" in="00:00:00.000" out="00:00:00.700">
  <property name="length">43</property>
  <property name="eof">pause</property>
  <property name="resource">/home/federico/Nextcloud/Kden/EditingUT/Sound/Anime/uwu.wav</property>
  <property name="meta.media.nb_streams">1</property>
  <property name="meta.media.0.stream.type">audio</property>
  <property name="meta.media.0.codec.sample_fmt">s16</property>
  <property name="meta.media.0.codec.sample_rate">48000</property>
  <property name="meta.media.0.codec.channels">2</property>
  <property name="meta.media.0.codec.name">pcm_s16le</property>
  <property name="meta.media.0.codec.long_name">PCM signed 16-bit little-endian</property>
  <property name="meta.media.0.codec.bit_rate">1536000</property>
  <property name="meta.attr.encoder.markup">Lavf59.16.100</property>
  <property name="seekable">1</property>
  <property name="audio_index">0</property>
  <property name="video_index">-1</property>
  <property name="mute_on_pause">1</property>
  <property name="mlt_service">avformat</property>
  <property name="kdenlive:clipname"/>
  <property name="kdenlive:clip_type">1</property>
  <property name="kdenlive:folderid">150</property>
  <property name="kdenlive:id">157</property>
  <property name="kdenlive:file_size">137678</property>
  <property name="kdenlive:file_hash">eea824b7ee7f9013695914cdd0951401</property>
  <property name="kdenlive:audio_max0">184</property>
 </producer>
 <producer id="producer141" in="00:00:00.000" out="00:00:04.367">
  <property name="length">263</property>
  <property name="eof">pause</property>
  <property name="resource">/home/federico/Nextcloud/Kden/EditingUT/Sound/BassDrop/bass impact_hit_meme.wav</property>
  <property name="meta.media.nb_streams">1</property>
  <property name="meta.media.0.stream.type">audio</property>
  <property name="meta.media.0.codec.sample_fmt">s16</property>
  <property name="meta.media.0.codec.sample_rate">44100</property>
  <property name="meta.media.0.codec.channels">2</property>
  <property name="meta.media.0.codec.name">pcm_s16le</property>
  <property name="meta.media.0.codec.long_name">PCM signed 16-bit little-endian</property>
  <property name="meta.media.0.codec.bit_rate">1411200</property>
  <property name="meta.attr.encoder.markup">Lavf60.16.100</property>
  <property name="seekable">1</property>
  <property name="audio_index">0</property>
  <property name="video_index">-1</property>
  <property name="mute_on_pause">1</property>
  <property name="mlt_service">avformat</property>
  <property name="kdenlive:clipname"/>
  <property name="kdenlive:clip_type">1</property>
  <property name="kdenlive:folderid">158</property>
  <property name="kdenlive:id">159</property>
  <property name="kdenlive:file_size">774222</property>
  <property name="kdenlive:file_hash">d6f585a870288b3026ca87935a90d505</property>
  <property name="kdenlive:audio_max0">253</property>
 </producer>
 <producer id="producer142" in="00:00:00.000" out="00:00:03.800">
  <property name="length">229</property>
  <property name="eof">pause</property>
  <property name="resource">/home/federico/Nextcloud/Kden/EditingUT/Sound/BassDrop/bass_thum_meme.wav</property>
  <property name="meta.media.nb_streams">1</property>
  <property name="meta.media.0.stream.type">audio</property>
  <property name="meta.media.0.codec.sample_fmt">s16</property>
  <property name="meta.media.0.codec.sample_rate">48000</property>
  <property name="meta.media.0.codec.channels">2</property>
  <property name="meta.media.0.codec.name">pcm_s16le</property>
  <property name="meta.media.0.codec.long_name">PCM signed 16-bit little-endian</property>
  <property name="meta.media.0.codec.bit_rate">1536000</property>
  <property name="meta.attr.encoder.markup">Lavf60.16.100</property>
  <property name="seekable">1</property>
  <property name="audio_index">0</property>
  <property name="video_index">-1</property>
  <property name="mute_on_pause">1</property>
  <property name="mlt_service">avformat</property>
  <property name="kdenlive:clipname"/>
  <property name="kdenlive:clip_type">1</property>
  <property name="kdenlive:folderid">158</property>
  <property name="kdenlive:id">160</property>
  <property name="kdenlive:file_size">732750</property>
  <property name="kdenlive:file_hash">f5ef787f2d10d0ee7f62941fe8f5fcb6</property>
  <property name="kdenlive:audio_max0">174</property>
 </producer>
 <producer id="producer143" in="00:00:00.000" out="00:00:06.667">
  <property name="length">401</property>
  <property name="eof">pause</property>
  <property name="resource">/home/federico/Nextcloud/Kden/EditingUT/Sound/BassDrop/cinema sins dun -.wav</property>
  <property name="meta.media.nb_streams">1</property>
  <property name="meta.media.0.stream.type">audio</property>
  <property name="meta.media.0.codec.sample_fmt">s16</property>
  <property name="meta.media.0.codec.sample_rate">44100</property>
  <property name="meta.media.0.codec.channels">2</property>
  <property name="meta.media.0.codec.name">pcm_s16le</property>
  <property name="meta.media.0.codec.long_name">PCM signed 16-bit little-endian</property>
  <property name="meta.media.0.codec.bit_rate">1411200</property>
  <property name="meta.attr.encoder.markup">Lavf60.16.100</property>
  <property name="seekable">1</property>
  <property name="audio_index">0</property>
  <property name="video_index">-1</property>
  <property name="mute_on_pause">1</property>
  <property name="mlt_service">avformat</property>
  <property name="kdenlive:clipname"/>
  <property name="kdenlive:clip_type">1</property>
  <property name="kdenlive:folderid">158</property>
  <property name="kdenlive:id">161</property>
  <property name="kdenlive:file_size">1179726</property>
  <property name="kdenlive:file_hash">aa8638f20a4fc790d3dcf2232f252c60</property>
  <property name="kdenlive:audio_max0">251</property>
 </producer>
 <producer id="producer144" in="00:00:00.000" out="00:00:07.133">
  <property name="length">429</property>
  <property name="eof">pause</property>
  <property name="resource">/home/federico/Nextcloud/Kden/EditingUT/Sound/BassDrop/dramatic bass downfall -.wav</property>
  <property name="meta.media.nb_streams">1</property>
  <property name="meta.media.0.stream.type">audio</property>
  <property name="meta.media.0.codec.sample_fmt">s16</property>
  <property name="meta.media.0.codec.sample_rate">44100</property>
  <property name="meta.media.0.codec.channels">2</property>
  <property name="meta.media.0.codec.name">pcm_s16le</property>
  <property name="meta.media.0.codec.long_name">PCM signed 16-bit little-endian</property>
  <property name="meta.media.0.codec.bit_rate">1411200</property>
  <property name="meta.attr.encoder.markup">Lavf60.16.100</property>
  <property name="seekable">1</property>
  <property name="audio_index">0</property>
  <property name="video_index">-1</property>
  <property name="mute_on_pause">1</property>
  <property name="mlt_service">avformat</property>
  <property name="kdenlive:clipname"/>
  <property name="kdenlive:clip_type">1</property>
  <property name="kdenlive:folderid">158</property>
  <property name="kdenlive:id">162</property>
  <property name="kdenlive:file_size">1262670</property>
  <property name="kdenlive:file_hash">ef0617b5978c5769b1c11aa02d343d33</property>
  <property name="kdenlive:audio_max0">255</property>
 </producer>
 <producer id="producer145" in="00:00:00.000" out="00:00:04.083">
  <property name="length">246</property>
  <property name="eof">pause</property>
  <property name="resource">/home/federico/Nextcloud/Kden/EditingUT/Sound/BassDrop/earrape bass drop.wav</property>
  <property name="meta.media.nb_streams">1</property>
  <property name="meta.media.0.stream.type">audio</property>
  <property name="meta.media.0.codec.sample_fmt">s16</property>
  <property name="meta.media.0.codec.sample_rate">48000</property>
  <property name="meta.media.0.codec.channels">2</property>
  <property name="meta.media.0.codec.name">pcm_s16le</property>
  <property name="meta.media.0.codec.long_name">PCM signed 16-bit little-endian</property>
  <property name="meta.media.0.codec.bit_rate">1536000</property>
  <property name="meta.attr.encoder.markup">Lavf61.7.100</property>
  <property name="seekable">1</property>
  <property name="audio_index">0</property>
  <property name="video_index">-1</property>
  <property name="mute_on_pause">1</property>
  <property name="mlt_service">avformat</property>
  <property name="kdenlive:clipname"/>
  <property name="kdenlive:clip_type">1</property>
  <property name="kdenlive:folderid">158</property>
  <property name="kdenlive:id">163</property>
  <property name="kdenlive:file_size">787278</property>
  <property name="kdenlive:file_hash">2855f4f4c7404ea425396309266ecb5f</property>
  <property name="kdenlive:audio_max0">216</property>
 </producer>
 <producer id="producer146" in="00:00:00.000" out="00:00:09.733">
  <property name="length">585</property>
  <property name="eof">pause</property>
  <property name="resource">/home/federico/Nextcloud/Kden/EditingUT/Sound/BassDrop/hit boom impact thud .wav</property>
  <property name="meta.media.nb_streams">1</property>
  <property name="meta.media.0.stream.type">audio</property>
  <property name="meta.media.0.codec.sample_fmt">s16</property>
  <property name="meta.media.0.codec.sample_rate">44100</property>
  <property name="meta.media.0.codec.channels">2</property>
  <property name="meta.media.0.codec.name">pcm_s16le</property>
  <property name="meta.media.0.codec.long_name">PCM signed 16-bit little-endian</property>
  <property name="meta.media.0.codec.bit_rate">1411200</property>
  <property name="meta.attr.encoder.markup">Lavf60.16.100</property>
  <property name="seekable">1</property>
  <property name="audio_index">0</property>
  <property name="video_index">-1</property>
  <property name="mute_on_pause">1</property>
  <property name="mlt_service">avformat</property>
  <property name="kdenlive:clipname"/>
  <property name="kdenlive:clip_type">1</property>
  <property name="kdenlive:folderid">158</property>
  <property name="kdenlive:id">164</property>
  <property name="kdenlive:file_size">1718862</property>
  <property name="kdenlive:file_hash">da9f09276572d8a1da6e7a3dc7d9dea2</property>
  <property name="kdenlive:audio_max0">254</property>
 </producer>
 <producer id="producer147" in="00:00:00.000" out="00:00:04.783">
  <property name="length">288</property>
  <property name="eof">pause</property>
  <property name="resource">/home/federico/Nextcloud/Kden/EditingUT/Sound/BassDrop/trailer.wav</property>
  <property name="meta.media.nb_streams">1</property>
  <property name="meta.media.0.stream.type">audio</property>
  <property name="meta.media.0.codec.sample_fmt">s16</property>
  <property name="meta.media.0.codec.sample_rate">44100</property>
  <property name="meta.media.0.codec.channels">2</property>
  <property name="meta.media.0.codec.name">pcm_s16le</property>
  <property name="meta.media.0.codec.long_name">PCM signed 16-bit little-endian</property>
  <property name="meta.media.0.codec.bit_rate">1411200</property>
  <property name="meta.attr.encoder.markup">Lavf60.16.100</property>
  <property name="seekable">1</property>
  <property name="audio_index">0</property>
  <property name="video_index">-1</property>
  <property name="mute_on_pause">1</property>
  <property name="mlt_service">avformat</property>
  <property name="kdenlive:clipname"/>
  <property name="kdenlive:clip_type">1</property>
  <property name="kdenlive:folderid">158</property>
  <property name="kdenlive:id">165</property>
  <property name="kdenlive:file_size">847950</property>
  <property name="kdenlive:file_hash">0e9e21bd8f9b376a5fd252eead4540f7</property>
  <property name="kdenlive:audio_max0">154</property>
 </producer>
 <producer id="producer148" in="00:00:00.000" out="00:00:01.550">
  <property name="length">94</property>
  <property name="eof">pause</property>
  <property name="resource">/home/federico/Nextcloud/Kden/EditingUT/Sound/Car/car braking skid.wav</property>
  <property name="meta.media.nb_streams">1</property>
  <property name="meta.media.0.stream.type">audio</property>
  <property name="meta.media.0.codec.sample_fmt">s16</property>
  <property name="meta.media.0.codec.sample_rate">44100</property>
  <property name="meta.media.0.codec.channels">2</property>
  <property name="meta.media.0.codec.name">pcm_s16le</property>
  <property name="meta.media.0.codec.long_name">PCM signed 16-bit little-endian</property>
  <property name="meta.media.0.codec.bit_rate">1411200</property>
  <property name="meta.attr.encoder.markup">Lavf60.16.100</property>
  <property name="seekable">1</property>
  <property name="audio_index">0</property>
  <property name="video_index">-1</property>
  <property name="mute_on_pause">1</property>
  <property name="mlt_service">avformat</property>
  <property name="kdenlive:clipname"/>
  <property name="kdenlive:clip_type">1</property>
  <property name="kdenlive:folderid">166</property>
  <property name="kdenlive:id">167</property>
  <property name="kdenlive:file_size">276558</property>
  <property name="kdenlive:file_hash">c2cb3bff41eac4de1012663f138870b1</property>
  <property name="kdenlive:audio_max0">218</property>
 </producer>
 <producer id="producer149" in="00:00:00.000" out="00:00:10.483">
  <property name="length">630</property>
  <property name="eof">pause</property>
  <property name="resource">/home/federico/Nextcloud/Kden/EditingUT/Sound/Car/car hits the breaks.wav</property>
  <property name="meta.media.nb_streams">1</property>
  <property name="meta.media.0.stream.type">audio</property>
  <property name="meta.media.0.codec.sample_fmt">s16</property>
  <property name="meta.media.0.codec.sample_rate">44100</property>
  <property name="meta.media.0.codec.channels">2</property>
  <property name="meta.media.0.codec.name">pcm_s16le</property>
  <property name="meta.media.0.codec.long_name">PCM signed 16-bit little-endian</property>
  <property name="meta.media.0.codec.bit_rate">1411200</property>
  <property name="meta.attr.encoder.markup">Lavf60.16.100</property>
  <property name="seekable">1</property>
  <property name="audio_index">0</property>
  <property name="video_index">-1</property>
  <property name="mute_on_pause">1</property>
  <property name="mlt_service">avformat</property>
  <property name="kdenlive:clipname"/>
  <property name="kdenlive:clip_type">1</property>
  <property name="kdenlive:folderid">166</property>
  <property name="kdenlive:id">168</property>
  <property name="kdenlive:file_size">1852494</property>
  <property name="kdenlive:file_hash">5bb9695f4666ab938232a8f8ffd7daaa</property>
  <property name="kdenlive:audio_max0">198</property>
 </producer>
 <producer id="producer150" in="00:00:00.000" out="00:00:05.083">
  <property name="length">306</property>
  <property name="eof">pause</property>
  <property name="resource">/home/federico/Nextcloud/Kden/EditingUT/Sound/Car/car screech.wav</property>
  <property name="meta.media.nb_streams">1</property>
  <property name="meta.media.0.stream.type">audio</property>
  <property name="meta.media.0.codec.sample_fmt">s16</property>
  <property name="meta.media.0.codec.sample_rate">44100</property>
  <property name="meta.media.0.codec.channels">2</property>
  <property name="meta.media.0.codec.name">pcm_s16le</property>
  <property name="meta.media.0.codec.long_name">PCM signed 16-bit little-endian</property>
  <property name="meta.media.0.codec.bit_rate">1411200</property>
  <property name="meta.attr.encoder.markup">Lavf60.16.100</property>
  <property name="seekable">1</property>
  <property name="audio_index">0</property>
  <property name="video_index">-1</property>
  <property name="mute_on_pause">1</property>
  <property name="mlt_service">avformat</property>
  <property name="kdenlive:clipname"/>
  <property name="kdenlive:clip_type">1</property>
  <property name="kdenlive:folderid">166</property>
  <property name="kdenlive:id">169</property>
  <property name="kdenlive:file_size">898638</property>
  <property name="kdenlive:file_hash">8f788a5f135c1cc63cc025bb0907c656</property>
  <property name="kdenlive:audio_max0">186</property>
 </producer>
 <producer id="producer151" in="00:00:00.000" out="00:00:05.450">
  <property name="length">328</property>
  <property name="eof">pause</property>
  <property name="resource">/home/federico/Nextcloud/Kden/EditingUT/Sound/Car/truck reverse.wav</property>
  <property name="meta.media.nb_streams">1</property>
  <property name="meta.media.0.stream.type">audio</property>
  <property name="meta.media.0.codec.sample_fmt">s16</property>
  <property name="meta.media.0.codec.sample_rate">44100</property>
  <property name="meta.media.0.codec.channels">2</property>
  <property name="meta.media.0.codec.name">pcm_s16le</property>
  <property name="meta.media.0.codec.long_name">PCM signed 16-bit little-endian</property>
  <property name="meta.media.0.codec.bit_rate">1411200</property>
  <property name="meta.attr.encoder.markup">Lavf60.16.100</property>
  <property name="seekable">1</property>
  <property name="audio_index">0</property>
  <property name="video_index">-1</property>
  <property name="mute_on_pause">1</property>
  <property name="mlt_service">avformat</property>
  <property name="kdenlive:clipname"/>
  <property name="kdenlive:clip_type">1</property>
  <property name="kdenlive:folderid">166</property>
  <property name="kdenlive:id">170</property>
  <property name="kdenlive:file_size">963150</property>
  <property name="kdenlive:file_hash">de0583c69bb7ad1846a1010c341d8da7</property>
  <property name="kdenlive:audio_max0">135</property>
 </producer>
 <producer id="producer152" in="00:00:00.000" out="00:00:11.217">
  <property name="length">674</property>
  <property name="eof">pause</property>
  <property name="resource">/home/federico/Nextcloud/Kden/EditingUT/Sound/Car/tyler1s car impression.wav</property>
  <property name="meta.media.nb_streams">1</property>
  <property name="meta.media.0.stream.type">audio</property>
  <property name="meta.media.0.codec.sample_fmt">s16</property>
  <property name="meta.media.0.codec.sample_rate">44100</property>
  <property name="meta.media.0.codec.channels">2</property>
  <property name="meta.media.0.codec.name">pcm_s16le</property>
  <property name="meta.media.0.codec.long_name">PCM signed 16-bit little-endian</property>
  <property name="meta.media.0.codec.bit_rate">1411200</property>
  <property name="meta.attr.encoder.markup">Lavf60.16.100</property>
  <property name="seekable">1</property>
  <property name="audio_index">0</property>
  <property name="video_index">-1</property>
  <property name="mute_on_pause">1</property>
  <property name="mlt_service">avformat</property>
  <property name="kdenlive:clipname"/>
  <property name="kdenlive:clip_type">1</property>
  <property name="kdenlive:folderid">166</property>
  <property name="kdenlive:id">171</property>
  <property name="kdenlive:file_size">1981518</property>
  <property name="kdenlive:file_hash">fabd3595326392e6a3dfb2c263e9e521</property>
  <property name="kdenlive:audio_max0">195</property>
 </producer>
 <producer id="producer154" in="00:00:00.000" out="00:00:02.050">
  <property name="length">124</property>
  <property name="eof">pause</property>
  <property name="resource">/home/federico/Nextcloud/Kden/EditingUT/Sound/Cartoon/Batman Transition.wav</property>
  <property name="meta.media.nb_streams">1</property>
  <property name="meta.media.0.stream.type">audio</property>
  <property name="meta.media.0.codec.sample_fmt">s16</property>
  <property name="meta.media.0.codec.sample_rate">44100</property>
  <property name="meta.media.0.codec.channels">2</property>
  <property name="meta.media.0.codec.name">pcm_s16le</property>
  <property name="meta.media.0.codec.long_name">PCM signed 16-bit little-endian</property>
  <property name="meta.media.0.codec.bit_rate">1411200</property>
  <property name="meta.attr.artist.markup">Gaming Sound FX</property>
  <property name="meta.attr.comment.markup">https://www.youtube.com/watch?v=DKq4uoGdnFw</property>
  <property name="meta.attr.date.markup">20150103</property>
  <property name="meta.attr.title.markup">Batman Transition - Sound Effect (HD)</property>
  <property name="meta.attr.encoder.markup">Lavf60.16.100</property>
  <property name="seekable">1</property>
  <property name="audio_index">0</property>
  <property name="video_index">-1</property>
  <property name="mute_on_pause">1</property>
  <property name="mlt_service">avformat</property>
  <property name="kdenlive:clipname"/>
  <property name="kdenlive:clip_type">1</property>
  <property name="kdenlive:folderid">172</property>
  <property name="kdenlive:id">173</property>
  <property name="kdenlive:file_size">364762</property>
  <property name="kdenlive:file_hash">bda6a6066301372d9531b5dc0f7a5701</property>
  <property name="kdenlive:audio_max0">185</property>
 </producer>
 <producer id="producer153" in="00:00:00.000" out="00:00:01.100">
  <property name="length">67</property>
  <property name="eof">pause</property>
  <property name="resource">/home/federico/Nextcloud/Kden/EditingUT/Sound/Cartoon/boing.wav</property>
  <property name="meta.media.nb_streams">1</property>
  <property name="meta.media.0.stream.type">audio</property>
  <property name="meta.media.0.codec.sample_fmt">s16</property>
  <property name="meta.media.0.codec.sample_rate">44100</property>
  <property name="meta.media.0.codec.channels">2</property>
  <property name="meta.media.0.codec.name">pcm_s16le</property>
  <property name="meta.media.0.codec.long_name">PCM signed 16-bit little-endian</property>
  <property name="meta.media.0.codec.bit_rate">1411200</property>
  <property name="meta.attr.encoder.markup">Lavf60.16.100</property>
  <property name="seekable">1</property>
  <property name="audio_index">0</property>
  <property name="video_index">-1</property>
  <property name="mute_on_pause">1</property>
  <property name="mlt_service">avformat</property>
  <property name="kdenlive:clipname"/>
  <property name="kdenlive:clip_type">1</property>
  <property name="kdenlive:folderid">172</property>
  <property name="kdenlive:id">174</property>
  <property name="kdenlive:file_size">198222</property>
  <property name="kdenlive:file_hash">ca783b1e76f929a607b5fdcd8956519a</property>
  <property name="kdenlive:audio_max0">86</property>
 </producer>
 <producer id="producer155" in="00:00:00.000" out="00:00:13.883">
  <property name="length">834</property>
  <property name="eof">pause</property>
  <property name="resource">/home/federico/Nextcloud/Kden/EditingUT/Sound/Cartoon/cartoon crazy run slip &amp; crash.wav</property>
  <property name="meta.media.nb_streams">1</property>
  <property name="meta.media.0.stream.type">audio</property>
  <property name="meta.media.0.codec.sample_fmt">s16</property>
  <property name="meta.media.0.codec.sample_rate">44100</property>
  <property name="meta.media.0.codec.channels">2</property>
  <property name="meta.media.0.codec.name">pcm_s16le</property>
  <property name="meta.media.0.codec.long_name">PCM signed 16-bit little-endian</property>
  <property name="meta.media.0.codec.bit_rate">1411200</property>
  <property name="meta.attr.encoder.markup">Lavf60.16.100</property>
  <property name="seekable">1</property>
  <property name="audio_index">0</property>
  <property name="video_index">-1</property>
  <property name="mute_on_pause">1</property>
  <property name="mlt_service">avformat</property>
  <property name="kdenlive:clipname"/>
  <property name="kdenlive:clip_type">1</property>
  <property name="kdenlive:folderid">172</property>
  <property name="kdenlive:id">175</property>
  <property name="kdenlive:file_size">2451534</property>
  <property name="kdenlive:file_hash">e025070582b523af49e63e8931ac88d1</property>
  <property name="kdenlive:audio_max0">229</property>
  <property name="kdenlive:zone_in">30</property>
  <property name="kdenlive:zone_out">93</property>
 </producer>
 <producer id="producer156" in="00:00:00.000" out="00:00:01.600">
  <property name="length">97</property>
  <property name="eof">pause</property>
  <property name="resource">/home/federico/Nextcloud/Kden/EditingUT/Sound/Cartoon/cartoon head shake.wav</property>
  <property name="meta.media.nb_streams">1</property>
  <property name="meta.media.0.stream.type">audio</property>
  <property name="meta.media.0.codec.sample_fmt">s16</property>
  <property name="meta.media.0.codec.sample_rate">44100</property>
  <property name="meta.media.0.codec.channels">2</property>
  <property name="meta.media.0.codec.name">pcm_s16le</property>
  <property name="meta.media.0.codec.long_name">PCM signed 16-bit little-endian</property>
  <property name="meta.media.0.codec.bit_rate">1411200</property>
  <property name="meta.attr.encoder.markup">Lavf60.16.100</property>
  <property name="seekable">1</property>
  <property name="audio_index">0</property>
  <property name="video_index">-1</property>
  <property name="mute_on_pause">1</property>
  <property name="mlt_service">avformat</property>
  <property name="kdenlive:clipname"/>
  <property name="kdenlive:clip_type">1</property>
  <property name="kdenlive:folderid">172</property>
  <property name="kdenlive:id">176</property>
  <property name="kdenlive:file_size">285774</property>
  <property name="kdenlive:file_hash">13fc653ba7ace12991ba69a87d3f952a</property>
  <property name="kdenlive:audio_max0">172</property>
 </producer>
 <producer id="producer157" in="00:00:00.000" out="00:00:06.600">
  <property name="length">397</property>
  <property name="eof">pause</property>
  <property name="resource">/home/federico/Nextcloud/Kden/EditingUT/Sound/Cartoon/cartoon pulling_struggle.wav</property>
  <property name="meta.media.nb_streams">1</property>
  <property name="meta.media.0.stream.type">audio</property>
  <property name="meta.media.0.codec.sample_fmt">s16</property>
  <property name="meta.media.0.codec.sample_rate">44100</property>
  <property name="meta.media.0.codec.channels">2</property>
  <property name="meta.media.0.codec.name">pcm_s16le</property>
  <property name="meta.media.0.codec.long_name">PCM signed 16-bit little-endian</property>
  <property name="meta.media.0.codec.bit_rate">1411200</property>
  <property name="meta.attr.encoder.markup">Lavf60.16.100</property>
  <property name="seekable">1</property>
  <property name="audio_index">0</property>
  <property name="video_index">-1</property>
  <property name="mute_on_pause">1</property>
  <property name="mlt_service">avformat</property>
  <property name="kdenlive:clipname"/>
  <property name="kdenlive:clip_type">1</property>
  <property name="kdenlive:folderid">172</property>
  <property name="kdenlive:id">177</property>
  <property name="kdenlive:file_size">1165902</property>
  <property name="kdenlive:file_hash">f983af9b49559ec3d7ec7133f3a70bbd</property>
  <property name="kdenlive:audio_max0">129</property>
 </producer>
 <producer id="producer158" in="00:00:00.000" out="00:00:02.517">
  <property name="length">152</property>
  <property name="eof">pause</property>
  <property name="resource">/home/federico/Nextcloud/Kden/EditingUT/Sound/Cartoon/cartoon rope stretch with fiddle slide up.wav</property>
  <property name="meta.media.nb_streams">1</property>
  <property name="meta.media.0.stream.type">audio</property>
  <property name="meta.media.0.codec.sample_fmt">s16</property>
  <property name="meta.media.0.codec.sample_rate">44100</property>
  <property name="meta.media.0.codec.channels">2</property>
  <property name="meta.media.0.codec.name">pcm_s16le</property>
  <property name="meta.media.0.codec.long_name">PCM signed 16-bit little-endian</property>
  <property name="meta.media.0.codec.bit_rate">1411200</property>
  <property name="meta.attr.encoder.markup">Lavf60.16.100</property>
  <property name="seekable">1</property>
  <property name="audio_index">0</property>
  <property name="video_index">-1</property>
  <property name="mute_on_pause">1</property>
  <property name="mlt_service">avformat</property>
  <property name="kdenlive:clipname"/>
  <property name="kdenlive:clip_type">1</property>
  <property name="kdenlive:folderid">172</property>
  <property name="kdenlive:id">178</property>
  <property name="kdenlive:file_size">447054</property>
  <property name="kdenlive:file_hash">2f17bfe6a2ac99d52e126305e588ea03</property>
  <property name="kdenlive:audio_max0">205</property>
 </producer>
 <producer id="producer159" in="00:00:00.000" out="00:00:05.833">
  <property name="length">351</property>
  <property name="eof">pause</property>
  <property name="resource">/home/federico/Nextcloud/Kden/EditingUT/Sound/Cartoon/cartoon shiver.wav</property>
  <property name="meta.media.nb_streams">1</property>
  <property name="meta.media.0.stream.type">audio</property>
  <property name="meta.media.0.codec.sample_fmt">s16</property>
  <property name="meta.media.0.codec.sample_rate">44100</property>
  <property name="meta.media.0.codec.channels">2</property>
  <property name="meta.media.0.codec.name">pcm_s16le</property>
  <property name="meta.media.0.codec.long_name">PCM signed 16-bit little-endian</property>
  <property name="meta.media.0.codec.bit_rate">1411200</property>
  <property name="meta.attr.encoder.markup">Lavf60.16.100</property>
  <property name="seekable">1</property>
  <property name="audio_index">0</property>
  <property name="video_index">-1</property>
  <property name="mute_on_pause">1</property>
  <property name="mlt_service">avformat</property>
  <property name="kdenlive:clipname"/>
  <property name="kdenlive:clip_type">1</property>
  <property name="kdenlive:folderid">172</property>
  <property name="kdenlive:id">179</property>
  <property name="kdenlive:file_size">1032270</property>
  <property name="kdenlive:file_hash">89330561b2acff49235b3d25490caed3</property>
  <property name="kdenlive:audio_max0">232</property>
 </producer>
 <producer id="producer160" in="00:00:00.000" out="00:00:02.100">
  <property name="length">127</property>
  <property name="eof">pause</property>
  <property name="resource">/home/federico/Nextcloud/Kden/EditingUT/Sound/Cartoon/cartoon slide down.wav</property>
  <property name="meta.media.nb_streams">1</property>
  <property name="meta.media.0.stream.type">audio</property>
  <property name="meta.media.0.codec.sample_fmt">s16</property>
  <property name="meta.media.0.codec.sample_rate">44100</property>
  <property name="meta.media.0.codec.channels">2</property>
  <property name="meta.media.0.codec.name">pcm_s16le</property>
  <property name="meta.media.0.codec.long_name">PCM signed 16-bit little-endian</property>
  <property name="meta.media.0.codec.bit_rate">1411200</property>
  <property name="meta.attr.encoder.markup">Lavf60.16.100</property>
  <property name="seekable">1</property>
  <property name="audio_index">0</property>
  <property name="video_index">-1</property>
  <property name="mute_on_pause">1</property>
  <property name="mlt_service">avformat</property>
  <property name="kdenlive:clipname"/>
  <property name="kdenlive:clip_type">1</property>
  <property name="kdenlive:folderid">172</property>
  <property name="kdenlive:id">180</property>
  <property name="kdenlive:file_size">373326</property>
  <property name="kdenlive:file_hash">b32cd840939d93e0e477229b76d1ed4a</property>
  <property name="kdenlive:audio_max0">207</property>
 </producer>
 <producer id="producer161" in="00:00:00.000" out="00:00:02.050">
  <property name="length">124</property>
  <property name="eof">pause</property>
  <property name="resource">/home/federico/Nextcloud/Kden/EditingUT/Sound/Cartoon/cartoon slip.wav</property>
  <property name="meta.media.nb_streams">1</property>
  <property name="meta.media.0.stream.type">audio</property>
  <property name="meta.media.0.codec.sample_fmt">s16</property>
  <property name="meta.media.0.codec.sample_rate">44100</property>
  <property name="meta.media.0.codec.channels">2</property>
  <property name="meta.media.0.codec.name">pcm_s16le</property>
  <property name="meta.media.0.codec.long_name">PCM signed 16-bit little-endian</property>
  <property name="meta.media.0.codec.bit_rate">1411200</property>
  <property name="meta.attr.encoder.markup">Lavf60.16.100</property>
  <property name="seekable">1</property>
  <property name="audio_index">0</property>
  <property name="video_index">-1</property>
  <property name="mute_on_pause">1</property>
  <property name="mlt_service">avformat</property>
  <property name="kdenlive:clipname"/>
  <property name="kdenlive:clip_type">1</property>
  <property name="kdenlive:folderid">172</property>
  <property name="kdenlive:id">181</property>
  <property name="kdenlive:file_size">364110</property>
  <property name="kdenlive:file_hash">3e2d0f5081be3dec307bf8d2836e0904</property>
  <property name="kdenlive:audio_max0">208</property>
 </producer>
 <producer id="producer163" in="00:00:00.000" out="00:00:03.383">
  <property name="length">204</property>
  <property name="eof">pause</property>
  <property name="resource">/home/federico/Nextcloud/Kden/EditingUT/Sound/Cartoon/cartoon taunt.wav</property>
  <property name="meta.media.nb_streams">1</property>
  <property name="meta.media.0.stream.type">audio</property>
  <property name="meta.media.0.codec.sample_fmt">s16</property>
  <property name="meta.media.0.codec.sample_rate">44100</property>
  <property name="meta.media.0.codec.channels">2</property>
  <property name="meta.media.0.codec.name">pcm_s16le</property>
  <property name="meta.media.0.codec.long_name">PCM signed 16-bit little-endian</property>
  <property name="meta.media.0.codec.bit_rate">1411200</property>
  <property name="meta.attr.encoder.markup">Lavf60.16.100</property>
  <property name="seekable">1</property>
  <property name="audio_index">0</property>
  <property name="video_index">-1</property>
  <property name="mute_on_pause">1</property>
  <property name="mlt_service">avformat</property>
  <property name="kdenlive:clipname"/>
  <property name="kdenlive:clip_type">1</property>
  <property name="kdenlive:folderid">172</property>
  <property name="kdenlive:id">182</property>
  <property name="kdenlive:file_size">599118</property>
  <property name="kdenlive:file_hash">3f1efe0c012cd5b66c0ea7b812ae0630</property>
  <property name="kdenlive:audio_max0">214</property>
 </producer>
 <producer id="producer162" in="00:00:00.000" out="00:00:01.183">
  <property name="length">72</property>
  <property name="eof">pause</property>
  <property name="resource">/home/federico/Nextcloud/Kden/EditingUT/Sound/Cartoon/confused scooby-doo huh grunt.wav</property>
  <property name="meta.media.nb_streams">1</property>
  <property name="meta.media.0.stream.type">audio</property>
  <property name="meta.media.0.codec.sample_fmt">s16</property>
  <property name="meta.media.0.codec.sample_rate">44100</property>
  <property name="meta.media.0.codec.channels">2</property>
  <property name="meta.media.0.codec.name">pcm_s16le</property>
  <property name="meta.media.0.codec.long_name">PCM signed 16-bit little-endian</property>
  <property name="meta.media.0.codec.bit_rate">1411200</property>
  <property name="meta.attr.encoder.markup">Lavf60.16.100</property>
  <property name="seekable">1</property>
  <property name="audio_index">0</property>
  <property name="video_index">-1</property>
  <property name="mute_on_pause">1</property>
  <property name="mlt_service">avformat</property>
  <property name="kdenlive:clipname"/>
  <property name="kdenlive:clip_type">1</property>
  <property name="kdenlive:folderid">172</property>
  <property name="kdenlive:id">183</property>
  <property name="kdenlive:file_size">212046</property>
  <property name="kdenlive:file_hash">6a1a8c37279c6f617cd63eca3fb520d7</property>
  <property name="kdenlive:audio_max0">156</property>
 </producer>
 <producer id="producer164" in="00:00:00.000" out="00:00:01.367">
  <property name="length">83</property>
  <property name="eof">pause</property>
  <property name="resource">/home/federico/Nextcloud/Kden/EditingUT/Sound/Cartoon/fast tip toes.wav</property>
  <property name="meta.media.nb_streams">1</property>
  <property name="meta.media.0.stream.type">audio</property>
  <property name="meta.media.0.codec.sample_fmt">s16</property>
  <property name="meta.media.0.codec.sample_rate">44100</property>
  <property name="meta.media.0.codec.channels">2</property>
  <property name="meta.media.0.codec.name">pcm_s16le</property>
  <property name="meta.media.0.codec.long_name">PCM signed 16-bit little-endian</property>
  <property name="meta.media.0.codec.bit_rate">1411200</property>
  <property name="meta.attr.encoder.markup">Lavf60.16.100</property>
  <property name="seekable">1</property>
  <property name="audio_index">0</property>
  <property name="video_index">-1</property>
  <property name="mute_on_pause">1</property>
  <property name="mlt_service">avformat</property>
  <property name="kdenlive:clipname"/>
  <property name="kdenlive:clip_type">1</property>
  <property name="kdenlive:folderid">172</property>
  <property name="kdenlive:id">184</property>
  <property name="kdenlive:file_size">244302</property>
  <property name="kdenlive:file_hash">53fb5e0db9b1fdd4730596538251bd23</property>
  <property name="kdenlive:audio_max0">227</property>
  <property name="kdenlive:zone_in">18</property>
  <property name="kdenlive:zone_out">63</property>
 </producer>
 <producer id="producer165" in="00:00:00.000" out="00:00:12.050">
  <property name="length">724</property>
  <property name="eof">pause</property>
  <property name="resource">/home/federico/Nextcloud/Kden/EditingUT/Sound/Cartoon/floating.wav</property>
  <property name="meta.media.nb_streams">1</property>
  <property name="meta.media.0.stream.type">audio</property>
  <property name="meta.media.0.codec.sample_fmt">s16</property>
  <property name="meta.media.0.codec.sample_rate">44100</property>
  <property name="meta.media.0.codec.channels">2</property>
  <property name="meta.media.0.codec.name">pcm_s16le</property>
  <property name="meta.media.0.codec.long_name">PCM signed 16-bit little-endian</property>
  <property name="meta.media.0.codec.bit_rate">1411200</property>
  <property name="meta.attr.encoder.markup">Lavf60.16.100</property>
  <property name="seekable">1</property>
  <property name="audio_index">0</property>
  <property name="video_index">-1</property>
  <property name="mute_on_pause">1</property>
  <property name="mlt_service">avformat</property>
  <property name="kdenlive:clipname"/>
  <property name="kdenlive:clip_type">1</property>
  <property name="kdenlive:folderid">172</property>
  <property name="kdenlive:id">185</property>
  <property name="kdenlive:file_size">2128974</property>
  <property name="kdenlive:file_hash">c679436eb0dba76de23bf3107c6eeb15</property>
  <property name="kdenlive:audio_max0">93</property>
 </producer>
 <producer id="producer166" in="00:00:00.000" out="00:00:03.200">
  <property name="length">193</property>
  <property name="eof">pause</property>
  <property name="resource">/home/federico/Nextcloud/Kden/EditingUT/Sound/Cartoon/low peter griffin laugh.wav</property>
  <property name="meta.media.nb_streams">1</property>
  <property name="meta.media.0.stream.type">audio</property>
  <property name="meta.media.0.codec.sample_fmt">s16</property>
  <property name="meta.media.0.codec.sample_rate">44100</property>
  <property name="meta.media.0.codec.channels">2</property>
  <property name="meta.media.0.codec.name">pcm_s16le</property>
  <property name="meta.media.0.codec.long_name">PCM signed 16-bit little-endian</property>
  <property name="meta.media.0.codec.bit_rate">1411200</property>
  <property name="meta.attr.encoder.markup">Lavf60.16.100</property>
  <property name="seekable">1</property>
  <property name="audio_index">0</property>
  <property name="video_index">-1</property>
  <property name="mute_on_pause">1</property>
  <property name="mlt_service">avformat</property>
  <property name="kdenlive:clipname"/>
  <property name="kdenlive:clip_type">1</property>
  <property name="kdenlive:folderid">172</property>
  <property name="kdenlive:id">186</property>
  <property name="kdenlive:file_size">566862</property>
  <property name="kdenlive:file_hash">af5b752673ae29af74e892219355a5a2</property>
  <property name="kdenlive:audio_max0">59</property>
 </producer>
 <producer id="producer167" in="00:00:00.000" out="00:00:02.617">
  <property name="length">158</property>
  <property name="eof">pause</property>
  <property name="resource">/home/federico/Nextcloud/Kden/EditingUT/Sound/Cartoon/meep meep.wav</property>
  <property name="meta.media.nb_streams">1</property>
  <property name="meta.media.0.stream.type">audio</property>
  <property name="meta.media.0.codec.sample_fmt">s16</property>
  <property name="meta.media.0.codec.sample_rate">44100</property>
  <property name="meta.media.0.codec.channels">2</property>
  <property name="meta.media.0.codec.name">pcm_s16le</property>
  <property name="meta.media.0.codec.long_name">PCM signed 16-bit little-endian</property>
  <property name="meta.media.0.codec.bit_rate">1411200</property>
  <property name="meta.attr.encoder.markup">Lavf60.16.100</property>
  <property name="seekable">1</property>
  <property name="audio_index">0</property>
  <property name="video_index">-1</property>
  <property name="mute_on_pause">1</property>
  <property name="mlt_service">avformat</property>
  <property name="kdenlive:clipname"/>
  <property name="kdenlive:clip_type">1</property>
  <property name="kdenlive:folderid">172</property>
  <property name="kdenlive:id">187</property>
  <property name="kdenlive:file_size">465486</property>
  <property name="kdenlive:file_hash">04f75faea50b38412600f79d03bb2f71</property>
  <property name="kdenlive:audio_max0">200</property>
 </producer>
 <producer id="producer168" in="00:00:00.000" out="00:00:03.150">
  <property name="length">190</property>
  <property name="eof">pause</property>
  <property name="resource">/home/federico/Nextcloud/Kden/EditingUT/Sound/Cartoon/mud splat on face.wav</property>
  <property name="meta.media.nb_streams">1</property>
  <property name="meta.media.0.stream.type">audio</property>
  <property name="meta.media.0.codec.sample_fmt">s16</property>
  <property name="meta.media.0.codec.sample_rate">48000</property>
  <property name="meta.media.0.codec.channels">2</property>
  <property name="meta.media.0.codec.name">pcm_s16le</property>
  <property name="meta.media.0.codec.long_name">PCM signed 16-bit little-endian</property>
  <property name="meta.media.0.codec.bit_rate">1536000</property>
  <property name="meta.attr.encoder.markup">Lavf59.16.100</property>
  <property name="seekable">1</property>
  <property name="audio_index">0</property>
  <property name="video_index">-1</property>
  <property name="mute_on_pause">1</property>
  <property name="mlt_service">avformat</property>
  <property name="kdenlive:clipname"/>
  <property name="kdenlive:clip_type">1</property>
  <property name="kdenlive:folderid">172</property>
  <property name="kdenlive:id">188</property>
  <property name="kdenlive:file_size">608078</property>
  <property name="kdenlive:file_hash">54c7d6e35835454c760ad17f5c08933b</property>
  <property name="kdenlive:audio_max0">181</property>
 </producer>
 <producer id="producer169" in="00:00:00.000" out="00:00:02.567">
  <property name="length">155</property>
  <property name="eof">pause</property>
  <property name="resource">/home/federico/Nextcloud/Kden/EditingUT/Sound/Cartoon/oh hell no griffin.wav</property>
  <property name="meta.media.nb_streams">1</property>
  <property name="meta.media.0.stream.type">audio</property>
  <property name="meta.media.0.codec.sample_fmt">s16</property>
  <property name="meta.media.0.codec.sample_rate">44100</property>
  <property name="meta.media.0.codec.channels">2</property>
  <property name="meta.media.0.codec.name">pcm_s16le</property>
  <property name="meta.media.0.codec.long_name">PCM signed 16-bit little-endian</property>
  <property name="meta.media.0.codec.bit_rate">1411200</property>
  <property name="meta.attr.encoder.markup">Lavf60.16.100</property>
  <property name="seekable">1</property>
  <property name="audio_index">0</property>
  <property name="video_index">-1</property>
  <property name="mute_on_pause">1</property>
  <property name="mlt_service">avformat</property>
  <property name="kdenlive:clipname"/>
  <property name="kdenlive:clip_type">1</property>
  <property name="kdenlive:folderid">172</property>
  <property name="kdenlive:id">189</property>
  <property name="kdenlive:file_size">456270</property>
  <property name="kdenlive:file_hash">f6752d4b7863929309d8349cd0c65047</property>
  <property name="kdenlive:audio_max0">203</property>
 </producer>
 <producer id="producer171" in="00:00:00.000" out="00:00:03.017">
  <property name="length">182</property>
  <property name="eof">pause</property>
  <property name="resource">/home/federico/Nextcloud/Kden/EditingUT/Sound/Cartoon/oh shit not good griffin.wav</property>
  <property name="meta.media.nb_streams">1</property>
  <property name="meta.media.0.stream.type">audio</property>
  <property name="meta.media.0.codec.sample_fmt">s16</property>
  <property name="meta.media.0.codec.sample_rate">44100</property>
  <property name="meta.media.0.codec.channels">2</property>
  <property name="meta.media.0.codec.name">pcm_s16le</property>
  <property name="meta.media.0.codec.long_name">PCM signed 16-bit little-endian</property>
  <property name="meta.media.0.codec.bit_rate">1411200</property>
  <property name="meta.attr.encoder.markup">Lavf60.16.100</property>
  <property name="seekable">1</property>
  <property name="audio_index">0</property>
  <property name="video_index">-1</property>
  <property name="mute_on_pause">1</property>
  <property name="mlt_service">avformat</property>
  <property name="kdenlive:clipname"/>
  <property name="kdenlive:clip_type">1</property>
  <property name="kdenlive:folderid">172</property>
  <property name="kdenlive:id">190</property>
  <property name="kdenlive:file_size">534606</property>
  <property name="kdenlive:file_hash">f9a014f41e12bcaaa9afad0c5c93fcfa</property>
  <property name="kdenlive:audio_max0">148</property>
 </producer>
 <producer id="producer170" in="00:00:00.000" out="00:00:05.933">
  <property name="length">357</property>
  <property name="eof">pause</property>
  <property name="resource">/home/federico/Nextcloud/Kden/EditingUT/Sound/Cartoon/peter griffin laugh.wav</property>
  <property name="meta.media.nb_streams">1</property>
  <property name="meta.media.0.stream.type">audio</property>
  <property name="meta.media.0.codec.sample_fmt">s16</property>
  <property name="meta.media.0.codec.sample_rate">44100</property>
  <property name="meta.media.0.codec.channels">2</property>
  <property name="meta.media.0.codec.name">pcm_s16le</property>
  <property name="meta.media.0.codec.long_name">PCM signed 16-bit little-endian</property>
  <property name="meta.media.0.codec.bit_rate">1411200</property>
  <property name="meta.attr.encoder.markup">Lavf60.16.100</property>
  <property name="seekable">1</property>
  <property name="audio_index">0</property>
  <property name="video_index">-1</property>
  <property name="mute_on_pause">1</property>
  <property name="mlt_service">avformat</property>
  <property name="kdenlive:clipname"/>
  <property name="kdenlive:clip_type">1</property>
  <property name="kdenlive:folderid">172</property>
  <property name="kdenlive:id">191</property>
  <property name="kdenlive:file_size">1050702</property>
  <property name="kdenlive:file_hash">a3e79cab0514b3e32f541af88aaa22a1</property>
  <property name="kdenlive:audio_max0">218</property>
 </producer>
 <producer id="producer172" in="00:00:00.000" out="00:00:09.883">
  <property name="length">594</property>
  <property name="eof">pause</property>
  <property name="resource">/home/federico/Nextcloud/Kden/EditingUT/Sound/Cartoon/rick and morty portal.wav</property>
  <property name="meta.media.nb_streams">1</property>
  <property name="meta.media.0.stream.type">audio</property>
  <property name="meta.media.0.codec.sample_fmt">s16</property>
  <property name="meta.media.0.codec.sample_rate">44100</property>
  <property name="meta.media.0.codec.channels">2</property>
  <property name="meta.media.0.codec.name">pcm_s16le</property>
  <property name="meta.media.0.codec.long_name">PCM signed 16-bit little-endian</property>
  <property name="meta.media.0.codec.bit_rate">1411200</property>
  <property name="meta.attr.encoder.markup">Lavf60.16.100</property>
  <property name="seekable">1</property>
  <property name="audio_index">0</property>
  <property name="video_index">-1</property>
  <property name="mute_on_pause">1</property>
  <property name="mlt_service">avformat</property>
  <property name="kdenlive:clipname"/>
  <property name="kdenlive:clip_type">1</property>
  <property name="kdenlive:folderid">172</property>
  <property name="kdenlive:id">192</property>
  <property name="kdenlive:file_size">1746510</property>
  <property name="kdenlive:file_hash">936868f795ddda19a34fc2d82eca64c2</property>
  <property name="kdenlive:audio_max0">178</property>
 </producer>
 <producer id="producer173" in="00:00:00.000" out="00:00:01.817">
  <property name="length">110</property>
  <property name="eof">pause</property>
  <property name="resource">/home/federico/Nextcloud/Kden/EditingUT/Sound/Cartoon/slide up.wav</property>
  <property name="meta.media.nb_streams">1</property>
  <property name="meta.media.0.stream.type">audio</property>
  <property name="meta.media.0.codec.sample_fmt">s16</property>
  <property name="meta.media.0.codec.sample_rate">44100</property>
  <property name="meta.media.0.codec.channels">2</property>
  <property name="meta.media.0.codec.name">pcm_s16le</property>
  <property name="meta.media.0.codec.long_name">PCM signed 16-bit little-endian</property>
  <property name="meta.media.0.codec.bit_rate">1411200</property>
  <property name="meta.attr.encoder.markup">Lavf60.16.100</property>
  <property name="seekable">1</property>
  <property name="audio_index">0</property>
  <property name="video_index">-1</property>
  <property name="mute_on_pause">1</property>
  <property name="mlt_service">avformat</property>
  <property name="kdenlive:clipname"/>
  <property name="kdenlive:clip_type">1</property>
  <property name="kdenlive:folderid">172</property>
  <property name="kdenlive:id">193</property>
  <property name="kdenlive:file_size">322638</property>
  <property name="kdenlive:file_hash">0352b3cf2450d2bf2bad4fdfb001e83b</property>
  <property name="kdenlive:audio_max0">251</property>
 </producer>
 <producer id="producer175" in="00:00:00.000" out="00:00:01.817">
  <property name="length">110</property>
  <property name="eof">pause</property>
  <property name="resource">/home/federico/Nextcloud/Kden/EditingUT/Sound/Cartoon/slide whistle down.wav</property>
  <property name="meta.media.nb_streams">1</property>
  <property name="meta.media.0.stream.type">audio</property>
  <property name="meta.media.0.codec.sample_fmt">s16</property>
  <property name="meta.media.0.codec.sample_rate">44100</property>
  <property name="meta.media.0.codec.channels">2</property>
  <property name="meta.media.0.codec.name">pcm_s16le</property>
  <property name="meta.media.0.codec.long_name">PCM signed 16-bit little-endian</property>
  <property name="meta.media.0.codec.bit_rate">1411200</property>
  <property name="meta.attr.encoder.markup">Lavf60.16.100</property>
  <property name="seekable">1</property>
  <property name="audio_index">0</property>
  <property name="video_index">-1</property>
  <property name="mute_on_pause">1</property>
  <property name="mlt_service">avformat</property>
  <property name="kdenlive:clipname"/>
  <property name="kdenlive:clip_type">1</property>
  <property name="kdenlive:folderid">172</property>
  <property name="kdenlive:id">194</property>
  <property name="kdenlive:file_size">322638</property>
  <property name="kdenlive:file_hash">f5f4b358e03ba3407a1517ab51c4bfc7</property>
  <property name="kdenlive:audio_max0">199</property>
 </producer>
 <producer id="producer176" in="00:00:00.000" out="00:00:01.583">
  <property name="length">96</property>
  <property name="eof">pause</property>
  <property name="resource">/home/federico/Nextcloud/Kden/EditingUT/Sound/Cartoon/splat.wav</property>
  <property name="meta.media.nb_streams">1</property>
  <property name="meta.media.0.stream.type">audio</property>
  <property name="meta.media.0.codec.sample_fmt">s16</property>
  <property name="meta.media.0.codec.sample_rate">44100</property>
  <property name="meta.media.0.codec.channels">2</property>
  <property name="meta.media.0.codec.name">pcm_s16le</property>
  <property name="meta.media.0.codec.long_name">PCM signed 16-bit little-endian</property>
  <property name="meta.media.0.codec.bit_rate">1411200</property>
  <property name="meta.attr.encoder.markup">Lavf60.16.100</property>
  <property name="seekable">1</property>
  <property name="audio_index">0</property>
  <property name="video_index">-1</property>
  <property name="mute_on_pause">1</property>
  <property name="mlt_service">avformat</property>
  <property name="kdenlive:clipname"/>
  <property name="kdenlive:clip_type">1</property>
  <property name="kdenlive:folderid">172</property>
  <property name="kdenlive:id">195</property>
  <property name="kdenlive:file_size">281166</property>
  <property name="kdenlive:file_hash">616e52c841a80c09e39a5367cdc41a73</property>
  <property name="kdenlive:audio_max0">222</property>
 </producer>
 <producer id="producer174" in="00:00:00.000" out="00:00:04.767">
  <property name="length">287</property>
  <property name="eof">pause</property>
  <property name="resource">/home/federico/Nextcloud/Kden/EditingUT/Sound/Cartoon/the simpsons - stop hes already dead.wav</property>
  <property name="meta.media.nb_streams">1</property>
  <property name="meta.media.0.stream.type">audio</property>
  <property name="meta.media.0.codec.sample_fmt">s16</property>
  <property name="meta.media.0.codec.sample_rate">44100</property>
  <property name="meta.media.0.codec.channels">2</property>
  <property name="meta.media.0.codec.name">pcm_s16le</property>
  <property name="meta.media.0.codec.long_name">PCM signed 16-bit little-endian</property>
  <property name="meta.media.0.codec.bit_rate">1411200</property>
  <property name="meta.attr.encoder.markup">Lavf60.16.100</property>
  <property name="seekable">1</property>
  <property name="audio_index">0</property>
  <property name="video_index">-1</property>
  <property name="mute_on_pause">1</property>
  <property name="mlt_service">avformat</property>
  <property name="kdenlive:clipname"/>
  <property name="kdenlive:clip_type">1</property>
  <property name="kdenlive:folderid">172</property>
  <property name="kdenlive:id">196</property>
  <property name="kdenlive:file_size">843342</property>
  <property name="kdenlive:file_hash">19f9cb3f31025422f1fbebe487c5c601</property>
  <property name="kdenlive:audio_max0">179</property>
 </producer>
 <producer id="producer177" in="00:00:00.000" out="00:00:07.450">
  <property name="length">448</property>
  <property name="eof">pause</property>
  <property name="resource">/home/federico/Nextcloud/Kden/EditingUT/Sound/Crowd/ahhh crowd.wav</property>
  <property name="meta.media.nb_streams">1</property>
  <property name="meta.media.0.stream.type">audio</property>
  <property name="meta.media.0.codec.sample_fmt">s16</property>
  <property name="meta.media.0.codec.sample_rate">44100</property>
  <property name="meta.media.0.codec.channels">2</property>
  <property name="meta.media.0.codec.name">pcm_s16le</property>
  <property name="meta.media.0.codec.long_name">PCM signed 16-bit little-endian</property>
  <property name="meta.media.0.codec.bit_rate">1411200</property>
  <property name="meta.attr.encoder.markup">Lavf60.16.100</property>
  <property name="seekable">1</property>
  <property name="audio_index">0</property>
  <property name="video_index">-1</property>
  <property name="mute_on_pause">1</property>
  <property name="mlt_service">avformat</property>
  <property name="kdenlive:clipname"/>
  <property name="kdenlive:clip_type">1</property>
  <property name="kdenlive:folderid">197</property>
  <property name="kdenlive:id">198</property>
  <property name="kdenlive:file_size">1317966</property>
  <property name="kdenlive:file_hash">69608b8d1780efed1a72571b8215e07d</property>
  <property name="kdenlive:audio_max0">155</property>
 </producer>
 <producer id="producer178" in="00:00:00.000" out="00:00:25.733">
  <property name="length">1545</property>
  <property name="eof">pause</property>
  <property name="resource">/home/federico/Nextcloud/Kden/EditingUT/Sound/Crowd/applause crowd cheering.wav</property>
  <property name="meta.media.nb_streams">1</property>
  <property name="meta.media.0.stream.type">audio</property>
  <property name="meta.media.0.codec.sample_fmt">s16</property>
  <property name="meta.media.0.codec.sample_rate">44100</property>
  <property name="meta.media.0.codec.channels">2</property>
  <property name="meta.media.0.codec.name">pcm_s16le</property>
  <property name="meta.media.0.codec.long_name">PCM signed 16-bit little-endian</property>
  <property name="meta.media.0.codec.bit_rate">1411200</property>
  <property name="meta.attr.encoder.markup">Lavf60.16.100</property>
  <property name="seekable">1</property>
  <property name="audio_index">0</property>
  <property name="video_index">-1</property>
  <property name="mute_on_pause">1</property>
  <property name="mlt_service">avformat</property>
  <property name="kdenlive:clipname"/>
  <property name="kdenlive:clip_type">1</property>
  <property name="kdenlive:folderid">197</property>
  <property name="kdenlive:id">199</property>
  <property name="kdenlive:file_size">4543566</property>
  <property name="kdenlive:file_hash">29fcd18735b4eee27d4c44b2a176fafb</property>
  <property name="kdenlive:audio_max0">174</property>
 </producer>
 <producer id="producer179" in="00:00:00.000" out="00:00:06.483">
  <property name="length">390</property>
  <property name="eof">pause</property>
  <property name="resource">/home/federico/Nextcloud/Kden/EditingUT/Sound/Crowd/audience clapping -.wav</property>
  <property name="meta.media.nb_streams">1</property>
  <property name="meta.media.0.stream.type">audio</property>
  <property name="meta.media.0.codec.sample_fmt">s16</property>
  <property name="meta.media.0.codec.sample_rate">44100</property>
  <property name="meta.media.0.codec.channels">2</property>
  <property name="meta.media.0.codec.name">pcm_s16le</property>
  <property name="meta.media.0.codec.long_name">PCM signed 16-bit little-endian</property>
  <property name="meta.media.0.codec.bit_rate">1411200</property>
  <property name="meta.attr.encoder.markup">Lavf60.16.100</property>
  <property name="seekable">1</property>
  <property name="audio_index">0</property>
  <property name="video_index">-1</property>
  <property name="mute_on_pause">1</property>
  <property name="mlt_service">avformat</property>
  <property name="kdenlive:clipname"/>
  <property name="kdenlive:clip_type">1</property>
  <property name="kdenlive:folderid">197</property>
  <property name="kdenlive:id">200</property>
  <property name="kdenlive:file_size">1147470</property>
  <property name="kdenlive:file_hash">1c653181ac76f80de9f4f70b80c810df</property>
  <property name="kdenlive:audio_max0">193</property>
 </producer>
 <producer id="producer180" in="00:00:00.000" out="00:00:01.867">
  <property name="length">113</property>
  <property name="eof">pause</property>
  <property name="resource">/home/federico/Nextcloud/Kden/EditingUT/Sound/Crowd/aww.wav</property>
  <property name="meta.media.nb_streams">1</property>
  <property name="meta.media.0.stream.type">audio</property>
  <property name="meta.media.0.codec.sample_fmt">s16</property>
  <property name="meta.media.0.codec.sample_rate">44100</property>
  <property name="meta.media.0.codec.channels">2</property>
  <property name="meta.media.0.codec.name">pcm_s16le</property>
  <property name="meta.media.0.codec.long_name">PCM signed 16-bit little-endian</property>
  <property name="meta.media.0.codec.bit_rate">1411200</property>
  <property name="meta.attr.encoder.markup">Lavf60.16.100</property>
  <property name="seekable">1</property>
  <property name="audio_index">0</property>
  <property name="video_index">-1</property>
  <property name="mute_on_pause">1</property>
  <property name="mlt_service">avformat</property>
  <property name="kdenlive:clipname"/>
  <property name="kdenlive:clip_type">1</property>
  <property name="kdenlive:folderid">197</property>
  <property name="kdenlive:id">201</property>
  <property name="kdenlive:file_size">331854</property>
  <property name="kdenlive:file_hash">273181d31dc34f0ed1b2b4ce4d288326</property>
  <property name="kdenlive:audio_max0">210</property>
 </producer>
 <producer id="producer181" in="00:00:00.000" out="00:00:02.567">
  <property name="length">155</property>
  <property name="eof">pause</property>
  <property name="resource">/home/federico/Nextcloud/Kden/EditingUT/Sound/Crowd/surprised shocked crowd.wav</property>
  <property name="meta.media.nb_streams">1</property>
  <property name="meta.media.0.stream.type">audio</property>
  <property name="meta.media.0.codec.sample_fmt">s16</property>
  <property name="meta.media.0.codec.sample_rate">44100</property>
  <property name="meta.media.0.codec.channels">2</property>
  <property name="meta.media.0.codec.name">pcm_s16le</property>
  <property name="meta.media.0.codec.long_name">PCM signed 16-bit little-endian</property>
  <property name="meta.media.0.codec.bit_rate">1411200</property>
  <property name="meta.attr.encoder.markup">Lavf60.16.100</property>
  <property name="seekable">1</property>
  <property name="audio_index">0</property>
  <property name="video_index">-1</property>
  <property name="mute_on_pause">1</property>
  <property name="mlt_service">avformat</property>
  <property name="kdenlive:clipname"/>
  <property name="kdenlive:clip_type">1</property>
  <property name="kdenlive:folderid">197</property>
  <property name="kdenlive:id">202</property>
  <property name="kdenlive:file_size">456270</property>
  <property name="kdenlive:file_hash">7aacbd52499aeb428c852fd74eae6fff</property>
  <property name="kdenlive:audio_max0">87</property>
 </producer>
 <producer id="producer182" in="00:00:00.000" out="00:00:15.050">
  <property name="length">904</property>
  <property name="eof">pause</property>
  <property name="resource">/home/federico/Nextcloud/Kden/EditingUT/Sound/DarkSouls/dark souls - female damage voice fx.wav</property>
  <property name="meta.media.nb_streams">1</property>
  <property name="meta.media.0.stream.type">audio</property>
  <property name="meta.media.0.codec.sample_fmt">s16</property>
  <property name="meta.media.0.codec.sample_rate">44100</property>
  <property name="meta.media.0.codec.channels">2</property>
  <property name="meta.media.0.codec.name">pcm_s16le</property>
  <property name="meta.media.0.codec.long_name">PCM signed 16-bit little-endian</property>
  <property name="meta.media.0.codec.bit_rate">1411200</property>
  <property name="meta.attr.encoder.markup">Lavf60.16.100</property>
  <property name="seekable">1</property>
  <property name="audio_index">0</property>
  <property name="video_index">-1</property>
  <property name="mute_on_pause">1</property>
  <property name="mlt_service">avformat</property>
  <property name="kdenlive:clipname"/>
  <property name="kdenlive:clip_type">1</property>
  <property name="kdenlive:folderid">203</property>
  <property name="kdenlive:id">204</property>
  <property name="kdenlive:file_size">2658894</property>
  <property name="kdenlive:file_hash">70dd4942aec4ce307bbf30019a7d085f</property>
  <property name="kdenlive:audio_max0">225</property>
 </producer>
 <producer id="producer184" in="00:00:00.000" out="00:00:02.100">
  <property name="length">127</property>
  <property name="eof">pause</property>
  <property name="resource">/home/federico/Nextcloud/Kden/EditingUT/Sound/DarkSouls/dark souls - item get.wav</property>
  <property name="meta.media.nb_streams">1</property>
  <property name="meta.media.0.stream.type">audio</property>
  <property name="meta.media.0.codec.sample_fmt">s16</property>
  <property name="meta.media.0.codec.sample_rate">44100</property>
  <property name="meta.media.0.codec.channels">2</property>
  <property name="meta.media.0.codec.name">pcm_s16le</property>
  <property name="meta.media.0.codec.long_name">PCM signed 16-bit little-endian</property>
  <property name="meta.media.0.codec.bit_rate">1411200</property>
  <property name="meta.attr.encoder.markup">Lavf60.16.100</property>
  <property name="seekable">1</property>
  <property name="audio_index">0</property>
  <property name="video_index">-1</property>
  <property name="mute_on_pause">1</property>
  <property name="mlt_service">avformat</property>
  <property name="kdenlive:clipname"/>
  <property name="kdenlive:clip_type">1</property>
  <property name="kdenlive:folderid">203</property>
  <property name="kdenlive:id">205</property>
  <property name="kdenlive:file_size">373326</property>
  <property name="kdenlive:file_hash">516b4260d159d0a8cf2b9b800f71f44b</property>
  <property name="kdenlive:audio_max0">244</property>
 </producer>
 <producer id="producer183" in="00:00:00.000" out="00:00:07.033">
  <property name="length">423</property>
  <property name="eof">pause</property>
  <property name="resource">/home/federico/Nextcloud/Kden/EditingUT/Sound/DarkSouls/dark souls - male undead damage voice fx.wav</property>
  <property name="meta.media.nb_streams">1</property>
  <property name="meta.media.0.stream.type">audio</property>
  <property name="meta.media.0.codec.sample_fmt">s16</property>
  <property name="meta.media.0.codec.sample_rate">44100</property>
  <property name="meta.media.0.codec.channels">2</property>
  <property name="meta.media.0.codec.name">pcm_s16le</property>
  <property name="meta.media.0.codec.long_name">PCM signed 16-bit little-endian</property>
  <property name="meta.media.0.codec.bit_rate">1411200</property>
  <property name="meta.attr.encoder.markup">Lavf60.16.100</property>
  <property name="seekable">1</property>
  <property name="audio_index">0</property>
  <property name="video_index">-1</property>
  <property name="mute_on_pause">1</property>
  <property name="mlt_service">avformat</property>
  <property name="kdenlive:clipname"/>
  <property name="kdenlive:clip_type">1</property>
  <property name="kdenlive:folderid">203</property>
  <property name="kdenlive:id">206</property>
  <property name="kdenlive:file_size">1244238</property>
  <property name="kdenlive:file_hash">d95100de390e5ec921a9ad99e579de7f</property>
  <property name="kdenlive:audio_max0">217</property>
 </producer>
 <producer id="producer185" in="00:00:00.000" out="00:00:04.083">
  <property name="length">246</property>
  <property name="eof">pause</property>
  <property name="resource">/home/federico/Nextcloud/Kden/EditingUT/Sound/DarkSouls/dark souls - new area fog gate.wav</property>
  <property name="meta.media.nb_streams">1</property>
  <property name="meta.media.0.stream.type">audio</property>
  <property name="meta.media.0.codec.sample_fmt">s16</property>
  <property name="meta.media.0.codec.sample_rate">44100</property>
  <property name="meta.media.0.codec.channels">2</property>
  <property name="meta.media.0.codec.name">pcm_s16le</property>
  <property name="meta.media.0.codec.long_name">PCM signed 16-bit little-endian</property>
  <property name="meta.media.0.codec.bit_rate">1411200</property>
  <property name="meta.attr.encoder.markup">Lavf60.16.100</property>
  <property name="seekable">1</property>
  <property name="audio_index">0</property>
  <property name="video_index">-1</property>
  <property name="mute_on_pause">1</property>
  <property name="mlt_service">avformat</property>
  <property name="kdenlive:clipname"/>
  <property name="kdenlive:clip_type">1</property>
  <property name="kdenlive:folderid">203</property>
  <property name="kdenlive:id">207</property>
  <property name="kdenlive:file_size">723534</property>
  <property name="kdenlive:file_hash">4fb672a351cab6da5c7bf62af6c3546c</property>
  <property name="kdenlive:audio_max0">237</property>
 </producer>
 <producer id="producer186" in="00:00:00.000" out="00:00:02.933">
  <property name="length">177</property>
  <property name="eof">pause</property>
  <property name="resource">/home/federico/Nextcloud/Kden/EditingUT/Sound/DarkSouls/dark souls 2 start menu.wav</property>
  <property name="meta.media.nb_streams">1</property>
  <property name="meta.media.0.stream.type">audio</property>
  <property name="meta.media.0.codec.sample_fmt">s16</property>
  <property name="meta.media.0.codec.sample_rate">44100</property>
  <property name="meta.media.0.codec.channels">2</property>
  <property name="meta.media.0.codec.name">pcm_s16le</property>
  <property name="meta.media.0.codec.long_name">PCM signed 16-bit little-endian</property>
  <property name="meta.media.0.codec.bit_rate">1411200</property>
  <property name="meta.attr.encoder.markup">Lavf60.16.100</property>
  <property name="seekable">1</property>
  <property name="audio_index">0</property>
  <property name="video_index">-1</property>
  <property name="mute_on_pause">1</property>
  <property name="mlt_service">avformat</property>
  <property name="kdenlive:clipname"/>
  <property name="kdenlive:clip_type">1</property>
  <property name="kdenlive:folderid">203</property>
  <property name="kdenlive:id">208</property>
  <property name="kdenlive:file_size">520782</property>
  <property name="kdenlive:file_hash">9709169c6b0992781f2e52969bdf68b5</property>
  <property name="kdenlive:audio_max0">130</property>
  <property name="kdenlive:zone_in">75</property>
  <property name="kdenlive:zone_out">177</property>
 </producer>
 <producer id="producer187" in="00:00:00.000" out="00:00:09.783">
  <property name="length">588</property>
  <property name="eof">pause</property>
  <property name="resource">/home/federico/Nextcloud/Kden/EditingUT/Sound/DarkSouls/dark souls death.wav</property>
  <property name="meta.media.nb_streams">1</property>
  <property name="meta.media.0.stream.type">audio</property>
  <property name="meta.media.0.codec.sample_fmt">s16</property>
  <property name="meta.media.0.codec.sample_rate">48000</property>
  <property name="meta.media.0.codec.channels">2</property>
  <property name="meta.media.0.codec.name">pcm_s16le</property>
  <property name="meta.media.0.codec.long_name">PCM signed 16-bit little-endian</property>
  <property name="meta.media.0.codec.bit_rate">1536000</property>
  <property name="meta.attr.encoder.markup">Lavf60.16.100</property>
  <property name="seekable">1</property>
  <property name="audio_index">0</property>
  <property name="video_index">-1</property>
  <property name="mute_on_pause">1</property>
  <property name="mlt_service">avformat</property>
  <property name="kdenlive:clipname"/>
  <property name="kdenlive:clip_type">1</property>
  <property name="kdenlive:folderid">203</property>
  <property name="kdenlive:id">209</property>
  <property name="kdenlive:file_size">1880142</property>
  <property name="kdenlive:file_hash">0eeea72d1b606af557288f12543705b6</property>
  <property name="kdenlive:audio_max0">223</property>
 </producer>
 <producer id="producer188" in="00:00:00.000" out="00:00:02.800">
  <property name="length">169</property>
  <property name="eof">pause</property>
  <property name="resource">/home/federico/Nextcloud/Kden/EditingUT/Sound/DarkSouls/dark souls ii - parry.wav</property>
  <property name="meta.media.nb_streams">1</property>
  <property name="meta.media.0.stream.type">audio</property>
  <property name="meta.media.0.codec.sample_fmt">s16</property>
  <property name="meta.media.0.codec.sample_rate">44100</property>
  <property name="meta.media.0.codec.channels">2</property>
  <property name="meta.media.0.codec.name">pcm_s16le</property>
  <property name="meta.media.0.codec.long_name">PCM signed 16-bit little-endian</property>
  <property name="meta.media.0.codec.bit_rate">1411200</property>
  <property name="meta.attr.encoder.markup">Lavf60.16.100</property>
  <property name="seekable">1</property>
  <property name="audio_index">0</property>
  <property name="video_index">-1</property>
  <property name="mute_on_pause">1</property>
  <property name="mlt_service">avformat</property>
  <property name="kdenlive:clipname"/>
  <property name="kdenlive:clip_type">1</property>
  <property name="kdenlive:folderid">203</property>
  <property name="kdenlive:id">210</property>
  <property name="kdenlive:file_size">497742</property>
  <property name="kdenlive:file_hash">c3cb7f85e6743ec2b6db8f6ed1497499</property>
  <property name="kdenlive:audio_max0">174</property>
  <property name="kdenlive:zone_in">37</property>
  <property name="kdenlive:zone_out">169</property>
 </producer>
 <producer id="producer189" in="00:00:00.000" out="00:00:26.450">
  <property name="length">1588</property>
  <property name="eof">pause</property>
  <property name="resource">/home/federico/Nextcloud/Kden/EditingUT/Sound/DarkSouls/Dark Souls UI_menu.wav</property>
  <property name="meta.media.nb_streams">1</property>
  <property name="meta.media.0.stream.type">audio</property>
  <property name="meta.media.0.codec.sample_fmt">s16</property>
  <property name="meta.media.0.codec.sample_rate">44100</property>
  <property name="meta.media.0.codec.channels">2</property>
  <property name="meta.media.0.codec.name">pcm_s16le</property>
  <property name="meta.media.0.codec.long_name">PCM signed 16-bit little-endian</property>
  <property name="meta.media.0.codec.bit_rate">1411200</property>
  <property name="meta.attr.encoder.markup">Lavf60.16.100</property>
  <property name="seekable">1</property>
  <property name="audio_index">0</property>
  <property name="video_index">-1</property>
  <property name="mute_on_pause">1</property>
  <property name="mlt_service">avformat</property>
  <property name="kdenlive:clipname"/>
  <property name="kdenlive:clip_type">1</property>
  <property name="kdenlive:folderid">203</property>
  <property name="kdenlive:id">211</property>
  <property name="kdenlive:file_size">4667982</property>
  <property name="kdenlive:file_hash">4978d150f114987609961bb45d76a05d</property>
  <property name="kdenlive:audio_max0">191</property>
 </producer>
 <producer id="producer190" in="00:00:00.000" out="00:00:03.100">
  <property name="length">187</property>
  <property name="eof">pause</property>
  <property name="resource">/home/federico/Nextcloud/Kden/EditingUT/Sound/Door/door knocking.wav</property>
  <property name="meta.media.nb_streams">1</property>
  <property name="meta.media.0.stream.type">audio</property>
  <property name="meta.media.0.codec.sample_fmt">s16</property>
  <property name="meta.media.0.codec.sample_rate">44100</property>
  <property name="meta.media.0.codec.channels">2</property>
  <property name="meta.media.0.codec.name">pcm_s16le</property>
  <property name="meta.media.0.codec.long_name">PCM signed 16-bit little-endian</property>
  <property name="meta.media.0.codec.bit_rate">1411200</property>
  <property name="meta.attr.encoder.markup">Lavf60.16.100</property>
  <property name="seekable">1</property>
  <property name="audio_index">0</property>
  <property name="video_index">-1</property>
  <property name="mute_on_pause">1</property>
  <property name="mlt_service">avformat</property>
  <property name="kdenlive:clipname"/>
  <property name="kdenlive:clip_type">1</property>
  <property name="kdenlive:folderid">212</property>
  <property name="kdenlive:id">213</property>
  <property name="kdenlive:file_size">548430</property>
  <property name="kdenlive:file_hash">20be9c6cdd84ee826ac8751092a9ebbf</property>
  <property name="kdenlive:audio_max0">224</property>
 </producer>
 <producer id="producer191" in="00:00:00.000" out="00:00:05.050">
  <property name="length">304</property>
  <property name="eof">pause</property>
  <property name="resource">/home/federico/Nextcloud/Kden/EditingUT/Sound/Door/door opening.wav</property>
  <property name="meta.media.nb_streams">1</property>
  <property name="meta.media.0.stream.type">audio</property>
  <property name="meta.media.0.codec.sample_fmt">s16</property>
  <property name="meta.media.0.codec.sample_rate">44100</property>
  <property name="meta.media.0.codec.channels">2</property>
  <property name="meta.media.0.codec.name">pcm_s16le</property>
  <property name="meta.media.0.codec.long_name">PCM signed 16-bit little-endian</property>
  <property name="meta.media.0.codec.bit_rate">1411200</property>
  <property name="meta.attr.encoder.markup">Lavf60.16.100</property>
  <property name="seekable">1</property>
  <property name="audio_index">0</property>
  <property name="video_index">-1</property>
  <property name="mute_on_pause">1</property>
  <property name="mlt_service">avformat</property>
  <property name="kdenlive:clipname"/>
  <property name="kdenlive:clip_type">1</property>
  <property name="kdenlive:folderid">212</property>
  <property name="kdenlive:id">214</property>
  <property name="kdenlive:file_size">894030</property>
  <property name="kdenlive:file_hash">ac1c29dbe7a46d3a4dbe1553b9d5d3a2</property>
  <property name="kdenlive:audio_max0">141</property>
 </producer>
 <producer id="producer192" in="00:00:00.000" out="00:00:01.867">
  <property name="length">113</property>
  <property name="eof">pause</property>
  <property name="resource">/home/federico/Nextcloud/Kden/EditingUT/Sound/Door/door slamming.wav</property>
  <property name="meta.media.nb_streams">1</property>
  <property name="meta.media.0.stream.type">audio</property>
  <property name="meta.media.0.codec.sample_fmt">s16</property>
  <property name="meta.media.0.codec.sample_rate">44100</property>
  <property name="meta.media.0.codec.channels">2</property>
  <property name="meta.media.0.codec.name">pcm_s16le</property>
  <property name="meta.media.0.codec.long_name">PCM signed 16-bit little-endian</property>
  <property name="meta.media.0.codec.bit_rate">1411200</property>
  <property name="meta.attr.encoder.markup">Lavf60.16.100</property>
  <property name="seekable">1</property>
  <property name="audio_index">0</property>
  <property name="video_index">-1</property>
  <property name="mute_on_pause">1</property>
  <property name="mlt_service">avformat</property>
  <property name="kdenlive:clipname"/>
  <property name="kdenlive:clip_type">1</property>
  <property name="kdenlive:folderid">212</property>
  <property name="kdenlive:id">215</property>
  <property name="kdenlive:file_size">331854</property>
  <property name="kdenlive:file_hash">6cdbe18a3db7d73a5785767623d66fd0</property>
  <property name="kdenlive:audio_max0">221</property>
 </producer>
 <producer id="producer194" in="00:00:00.000" out="00:00:02.733">
  <property name="length">165</property>
  <property name="eof">pause</property>
  <property name="resource">/home/federico/Nextcloud/Kden/EditingUT/Sound/EnglishMemes/ayo wtf! meme.wav</property>
  <property name="meta.media.nb_streams">1</property>
  <property name="meta.media.0.stream.type">audio</property>
  <property name="meta.media.0.codec.sample_fmt">s16</property>
  <property name="meta.media.0.codec.sample_rate">44100</property>
  <property name="meta.media.0.codec.channels">2</property>
  <property name="meta.media.0.codec.name">pcm_s16le</property>
  <property name="meta.media.0.codec.long_name">PCM signed 16-bit little-endian</property>
  <property name="meta.media.0.codec.bit_rate">1411200</property>
  <property name="meta.attr.encoder.markup">Lavf60.16.100</property>
  <property name="seekable">1</property>
  <property name="audio_index">0</property>
  <property name="video_index">-1</property>
  <property name="mute_on_pause">1</property>
  <property name="mlt_service">avformat</property>
  <property name="kdenlive:clipname"/>
  <property name="kdenlive:clip_type">1</property>
  <property name="kdenlive:folderid">216</property>
  <property name="kdenlive:id">217</property>
  <property name="kdenlive:file_size">483918</property>
  <property name="kdenlive:file_hash">bb87ae123d2e995c475feb1f3c58f9bf</property>
  <property name="kdenlive:audio_max0">242</property>
 </producer>
 <producer id="producer193" in="00:00:00.000" out="00:00:02.000">
  <property name="length">121</property>
  <property name="eof">pause</property>
  <property name="resource">/home/federico/Nextcloud/Kden/EditingUT/Sound/EnglishMemes/bye have a great time.wav</property>
  <property name="meta.media.nb_streams">1</property>
  <property name="meta.media.0.stream.type">audio</property>
  <property name="meta.media.0.codec.sample_fmt">s16</property>
  <property name="meta.media.0.codec.sample_rate">44100</property>
  <property name="meta.media.0.codec.channels">2</property>
  <property name="meta.media.0.codec.name">pcm_s16le</property>
  <property name="meta.media.0.codec.long_name">PCM signed 16-bit little-endian</property>
  <property name="meta.media.0.codec.bit_rate">1411200</property>
  <property name="meta.attr.encoder.markup">Lavf60.16.100</property>
  <property name="seekable">1</property>
  <property name="audio_index">0</property>
  <property name="video_index">-1</property>
  <property name="mute_on_pause">1</property>
  <property name="mlt_service">avformat</property>
  <property name="kdenlive:clipname"/>
  <property name="kdenlive:clip_type">1</property>
  <property name="kdenlive:folderid">216</property>
  <property name="kdenlive:id">218</property>
  <property name="kdenlive:file_size">354894</property>
  <property name="kdenlive:file_hash">6e43bb2cb38ca9f1988212e7516f0047</property>
  <property name="kdenlive:audio_max0">107</property>
 </producer>
 <producer id="producer195" in="00:00:00.000" out="00:00:02.067">
  <property name="length">125</property>
  <property name="eof">pause</property>
  <property name="resource">/home/federico/Nextcloud/Kden/EditingUT/Sound/EnglishMemes/disgusting.wav</property>
  <property name="meta.media.nb_streams">1</property>
  <property name="meta.media.0.stream.type">audio</property>
  <property name="meta.media.0.codec.sample_fmt">s16</property>
  <property name="meta.media.0.codec.sample_rate">48000</property>
  <property name="meta.media.0.codec.channels">2</property>
  <property name="meta.media.0.codec.name">pcm_s16le</property>
  <property name="meta.media.0.codec.long_name">PCM signed 16-bit little-endian</property>
  <property name="meta.media.0.codec.bit_rate">1536000</property>
  <property name="meta.attr.encoder.markup">Lavf59.16.100</property>
  <property name="seekable">1</property>
  <property name="audio_index">0</property>
  <property name="video_index">-1</property>
  <property name="mute_on_pause">1</property>
  <property name="mlt_service">avformat</property>
  <property name="kdenlive:clipname"/>
  <property name="kdenlive:clip_type">1</property>
  <property name="kdenlive:folderid">216</property>
  <property name="kdenlive:id">219</property>
  <property name="kdenlive:file_size">400078</property>
  <property name="kdenlive:file_hash">8721ccf1e4686be7d25af31f54366a01</property>
  <property name="kdenlive:audio_max0">135</property>
 </producer>
 <producer id="producer197" in="00:00:00.000" out="00:00:03.100">
  <property name="length">187</property>
  <property name="eof">pause</property>
  <property name="resource">/home/federico/Nextcloud/Kden/EditingUT/Sound/EnglishMemes/do you honestly think youre fu_king funny.wav</property>
  <property name="meta.media.nb_streams">1</property>
  <property name="meta.media.0.stream.type">audio</property>
  <property name="meta.media.0.codec.sample_fmt">s16</property>
  <property name="meta.media.0.codec.sample_rate">44100</property>
  <property name="meta.media.0.codec.channels">2</property>
  <property name="meta.media.0.codec.name">pcm_s16le</property>
  <property name="meta.media.0.codec.long_name">PCM signed 16-bit little-endian</property>
  <property name="meta.media.0.codec.bit_rate">1411200</property>
  <property name="meta.attr.encoder.markup">Lavf60.16.100</property>
  <property name="seekable">1</property>
  <property name="audio_index">0</property>
  <property name="video_index">-1</property>
  <property name="mute_on_pause">1</property>
  <property name="mlt_service">avformat</property>
  <property name="kdenlive:clipname"/>
  <property name="kdenlive:clip_type">1</property>
  <property name="kdenlive:folderid">216</property>
  <property name="kdenlive:id">220</property>
  <property name="kdenlive:file_size">548430</property>
  <property name="kdenlive:file_hash">2a1e05b2d90191a682efa430e18e7ea0</property>
  <property name="kdenlive:audio_max0">231</property>
 </producer>
 <producer id="producer196" in="00:00:00.000" out="00:00:15.050">
  <property name="length">904</property>
  <property name="eof">pause</property>
  <property name="resource">/home/federico/Nextcloud/Kden/EditingUT/Sound/EnglishMemes/don’t care, don’t care, still don’t care meme.wav</property>
  <property name="meta.media.nb_streams">1</property>
  <property name="meta.media.0.stream.type">audio</property>
  <property name="meta.media.0.codec.sample_fmt">s16</property>
  <property name="meta.media.0.codec.sample_rate">44100</property>
  <property name="meta.media.0.codec.channels">2</property>
  <property name="meta.media.0.codec.name">pcm_s16le</property>
  <property name="meta.media.0.codec.long_name">PCM signed 16-bit little-endian</property>
  <property name="meta.media.0.codec.bit_rate">1411200</property>
  <property name="meta.attr.encoder.markup">Lavf60.16.100</property>
  <property name="seekable">1</property>
  <property name="audio_index">0</property>
  <property name="video_index">-1</property>
  <property name="mute_on_pause">1</property>
  <property name="mlt_service">avformat</property>
  <property name="kdenlive:clipname"/>
  <property name="kdenlive:clip_type">1</property>
  <property name="kdenlive:folderid">216</property>
  <property name="kdenlive:id">221</property>
  <property name="kdenlive:file_size">2658894</property>
  <property name="kdenlive:file_hash">873b4293762fa62db6eafb1dd0483f26</property>
  <property name="kdenlive:audio_max0">220</property>
 </producer>
 <producer id="producer199" in="00:00:00.000" out="00:00:01.183">
  <property name="length">72</property>
  <property name="eof">pause</property>
  <property name="resource">/home/federico/Nextcloud/Kden/EditingUT/Sound/EnglishMemes/funny meme hello.wav</property>
  <property name="meta.media.nb_streams">1</property>
  <property name="meta.media.0.stream.type">audio</property>
  <property name="meta.media.0.codec.sample_fmt">s16</property>
  <property name="meta.media.0.codec.sample_rate">48000</property>
  <property name="meta.media.0.codec.channels">2</property>
  <property name="meta.media.0.codec.name">pcm_s16le</property>
  <property name="meta.media.0.codec.long_name">PCM signed 16-bit little-endian</property>
  <property name="meta.media.0.codec.bit_rate">1536000</property>
  <property name="meta.attr.encoder.markup">Lavf59.16.100</property>
  <property name="seekable">1</property>
  <property name="audio_index">0</property>
  <property name="video_index">-1</property>
  <property name="mute_on_pause">1</property>
  <property name="mlt_service">avformat</property>
  <property name="kdenlive:clipname"/>
  <property name="kdenlive:clip_type">1</property>
  <property name="kdenlive:folderid">216</property>
  <property name="kdenlive:id">222</property>
  <property name="kdenlive:file_size">230478</property>
  <property name="kdenlive:file_hash">516f32e28e3c2696dadad9ba2813814f</property>
  <property name="kdenlive:audio_max0">171</property>
 </producer>
 <producer id="producer198" in="00:00:00.000" out="00:00:02.050">
  <property name="length">124</property>
  <property name="eof">pause</property>
  <property name="resource">/home/federico/Nextcloud/Kden/EditingUT/Sound/EnglishMemes/gotcha bitch - gaming.wav</property>
  <property name="meta.media.nb_streams">1</property>
  <property name="meta.media.0.stream.type">audio</property>
  <property name="meta.media.0.codec.sample_fmt">s16</property>
  <property name="meta.media.0.codec.sample_rate">44100</property>
  <property name="meta.media.0.codec.channels">2</property>
  <property name="meta.media.0.codec.name">pcm_s16le</property>
  <property name="meta.media.0.codec.long_name">PCM signed 16-bit little-endian</property>
  <property name="meta.media.0.codec.bit_rate">1411200</property>
  <property name="meta.attr.encoder.markup">Lavf60.16.100</property>
  <property name="seekable">1</property>
  <property name="audio_index">0</property>
  <property name="video_index">-1</property>
  <property name="mute_on_pause">1</property>
  <property name="mlt_service">avformat</property>
  <property name="kdenlive:clipname"/>
  <property name="kdenlive:clip_type">1</property>
  <property name="kdenlive:folderid">216</property>
  <property name="kdenlive:id">223</property>
  <property name="kdenlive:file_size">364110</property>
  <property name="kdenlive:file_hash">af5de7989facb9661e957ed5301de0c5</property>
  <property name="kdenlive:audio_max0">114</property>
 </producer>
 <producer id="producer200" in="00:00:00.000" out="00:00:02.733">
  <property name="length">165</property>
  <property name="eof">pause</property>
  <property name="resource">/home/federico/Nextcloud/Kden/EditingUT/Sound/EnglishMemes/ha gay.wav</property>
  <property name="meta.media.nb_streams">1</property>
  <property name="meta.media.0.stream.type">audio</property>
  <property name="meta.media.0.codec.sample_fmt">s16</property>
  <property name="meta.media.0.codec.sample_rate">44100</property>
  <property name="meta.media.0.codec.channels">2</property>
  <property name="meta.media.0.codec.name">pcm_s16le</property>
  <property name="meta.media.0.codec.long_name">PCM signed 16-bit little-endian</property>
  <property name="meta.media.0.codec.bit_rate">1411200</property>
  <property name="meta.attr.encoder.markup">Lavf60.16.100</property>
  <property name="seekable">1</property>
  <property name="audio_index">0</property>
  <property name="video_index">-1</property>
  <property name="mute_on_pause">1</property>
  <property name="mlt_service">avformat</property>
  <property name="kdenlive:clipname"/>
  <property name="kdenlive:clip_type">1</property>
  <property name="kdenlive:folderid">216</property>
  <property name="kdenlive:id">224</property>
  <property name="kdenlive:file_size">483918</property>
  <property name="kdenlive:file_hash">7804113aa91f1a4bd2acada1cd59f4c1</property>
  <property name="kdenlive:audio_max0">169</property>
 </producer>
 <producer id="producer201" in="00:00:00.000" out="00:00:02.700">
  <property name="length">163</property>
  <property name="eof">pause</property>
  <property name="resource">/home/federico/Nextcloud/Kden/EditingUT/Sound/EnglishMemes/ha got emm -.wav</property>
  <property name="meta.media.nb_streams">1</property>
  <property name="meta.media.0.stream.type">audio</property>
  <property name="meta.media.0.codec.sample_fmt">s16</property>
  <property name="meta.media.0.codec.sample_rate">44100</property>
  <property name="meta.media.0.codec.channels">2</property>
  <property name="meta.media.0.codec.name">pcm_s16le</property>
  <property name="meta.media.0.codec.long_name">PCM signed 16-bit little-endian</property>
  <property name="meta.media.0.codec.bit_rate">1411200</property>
  <property name="meta.attr.encoder.markup">Lavf60.16.100</property>
  <property name="seekable">1</property>
  <property name="audio_index">0</property>
  <property name="video_index">-1</property>
  <property name="mute_on_pause">1</property>
  <property name="mlt_service">avformat</property>
  <property name="kdenlive:clipname"/>
  <property name="kdenlive:clip_type">1</property>
  <property name="kdenlive:folderid">216</property>
  <property name="kdenlive:id">225</property>
  <property name="kdenlive:file_size">479310</property>
  <property name="kdenlive:file_hash">0a085007b2471608163c26a661f6173e</property>
  <property name="kdenlive:audio_max0">218</property>
 </producer>
 <producer id="producer202" in="00:00:00.000" out="00:00:01.867">
  <property name="length">113</property>
  <property name="eof">pause</property>
  <property name="resource">/home/federico/Nextcloud/Kden/EditingUT/Sound/EnglishMemes/he hehe boi.wav</property>
  <property name="meta.media.nb_streams">1</property>
  <property name="meta.media.0.stream.type">audio</property>
  <property name="meta.media.0.codec.sample_fmt">s16</property>
  <property name="meta.media.0.codec.sample_rate">44100</property>
  <property name="meta.media.0.codec.channels">2</property>
  <property name="meta.media.0.codec.name">pcm_s16le</property>
  <property name="meta.media.0.codec.long_name">PCM signed 16-bit little-endian</property>
  <property name="meta.media.0.codec.bit_rate">1411200</property>
  <property name="meta.attr.encoder.markup">Lavf60.16.100</property>
  <property name="seekable">1</property>
  <property name="audio_index">0</property>
  <property name="video_index">-1</property>
  <property name="mute_on_pause">1</property>
  <property name="mlt_service">avformat</property>
  <property name="kdenlive:clipname"/>
  <property name="kdenlive:clip_type">1</property>
  <property name="kdenlive:folderid">216</property>
  <property name="kdenlive:id">226</property>
  <property name="kdenlive:file_size">331854</property>
  <property name="kdenlive:file_hash">24b2ad8ae44a7daeace87e5a0e1fd7ee</property>
  <property name="kdenlive:audio_max0">135</property>
 </producer>
 <producer id="producer203" in="00:00:00.000" out="00:00:01.100">
  <property name="length">67</property>
  <property name="eof">pause</property>
  <property name="resource">/home/federico/Nextcloud/Kden/EditingUT/Sound/EnglishMemes/hello there meme.wav</property>
  <property name="meta.media.nb_streams">1</property>
  <property name="meta.media.0.stream.type">audio</property>
  <property name="meta.media.0.codec.sample_fmt">s16</property>
  <property name="meta.media.0.codec.sample_rate">44100</property>
  <property name="meta.media.0.codec.channels">2</property>
  <property name="meta.media.0.codec.name">pcm_s16le</property>
  <property name="meta.media.0.codec.long_name">PCM signed 16-bit little-endian</property>
  <property name="meta.media.0.codec.bit_rate">1411200</property>
  <property name="meta.attr.encoder.markup">Lavf60.16.100</property>
  <property name="seekable">1</property>
  <property name="audio_index">0</property>
  <property name="video_index">-1</property>
  <property name="mute_on_pause">1</property>
  <property name="mlt_service">avformat</property>
  <property name="kdenlive:clipname"/>
  <property name="kdenlive:clip_type">1</property>
  <property name="kdenlive:folderid">216</property>
  <property name="kdenlive:id">227</property>
  <property name="kdenlive:file_size">198222</property>
  <property name="kdenlive:file_hash">ce2f94859f2a52517f880b92223833ac</property>
  <property name="kdenlive:audio_max0">155</property>
 </producer>
 <producer id="producer206" in="00:00:00.000" out="00:00:02.300">
  <property name="length">139</property>
  <property name="eof">pause</property>
  <property name="resource">/home/federico/Nextcloud/Kden/EditingUT/Sound/EnglishMemes/hello your computer has virus.wav</property>
  <property name="meta.media.nb_streams">1</property>
  <property name="meta.media.0.stream.type">audio</property>
  <property name="meta.media.0.codec.sample_fmt">s16</property>
  <property name="meta.media.0.codec.sample_rate">48000</property>
  <property name="meta.media.0.codec.channels">2</property>
  <property name="meta.media.0.codec.name">pcm_s16le</property>
  <property name="meta.media.0.codec.long_name">PCM signed 16-bit little-endian</property>
  <property name="meta.media.0.codec.bit_rate">1536000</property>
  <property name="meta.attr.encoder.markup">Lavf59.16.100</property>
  <property name="seekable">1</property>
  <property name="audio_index">0</property>
  <property name="video_index">-1</property>
  <property name="mute_on_pause">1</property>
  <property name="mlt_service">avformat</property>
  <property name="kdenlive:clipname"/>
  <property name="kdenlive:clip_type">1</property>
  <property name="kdenlive:folderid">216</property>
  <property name="kdenlive:id">228</property>
  <property name="kdenlive:file_size">444878</property>
  <property name="kdenlive:file_hash">2f1d182ac1b6b5ce1d113d30210ebc51</property>
  <property name="kdenlive:audio_max0">167</property>
 </producer>
 <producer id="producer204" in="00:00:00.000" out="00:00:01.700">
  <property name="length">103</property>
  <property name="eof">pause</property>
  <property name="resource">/home/federico/Nextcloud/Kden/EditingUT/Sound/EnglishMemes/hey what happened -.wav</property>
  <property name="meta.media.nb_streams">1</property>
  <property name="meta.media.0.stream.type">audio</property>
  <property name="meta.media.0.codec.sample_fmt">s16</property>
  <property name="meta.media.0.codec.sample_rate">44100</property>
  <property name="meta.media.0.codec.channels">2</property>
  <property name="meta.media.0.codec.name">pcm_s16le</property>
  <property name="meta.media.0.codec.long_name">PCM signed 16-bit little-endian</property>
  <property name="meta.media.0.codec.bit_rate">1411200</property>
  <property name="meta.attr.encoder.markup">Lavf60.16.100</property>
  <property name="seekable">1</property>
  <property name="audio_index">0</property>
  <property name="video_index">-1</property>
  <property name="mute_on_pause">1</property>
  <property name="mlt_service">avformat</property>
  <property name="kdenlive:clipname"/>
  <property name="kdenlive:clip_type">1</property>
  <property name="kdenlive:folderid">216</property>
  <property name="kdenlive:id">229</property>
  <property name="kdenlive:file_size">304206</property>
  <property name="kdenlive:file_hash">48320525eb8ca337dc2adc1cbde8d651</property>
  <property name="kdenlive:audio_max0">136</property>
 </producer>
 <producer id="producer205" in="00:00:00.000" out="00:00:07.617">
  <property name="length">458</property>
  <property name="eof">pause</property>
  <property name="resource">/home/federico/Nextcloud/Kden/EditingUT/Sound/EnglishMemes/im fast as f_ck boi! meme.wav</property>
  <property name="meta.media.nb_streams">1</property>
  <property name="meta.media.0.stream.type">audio</property>
  <property name="meta.media.0.codec.sample_fmt">s16</property>
  <property name="meta.media.0.codec.sample_rate">44100</property>
  <property name="meta.media.0.codec.channels">2</property>
  <property name="meta.media.0.codec.name">pcm_s16le</property>
  <property name="meta.media.0.codec.long_name">PCM signed 16-bit little-endian</property>
  <property name="meta.media.0.codec.bit_rate">1411200</property>
  <property name="meta.attr.encoder.markup">Lavf60.16.100</property>
  <property name="seekable">1</property>
  <property name="audio_index">0</property>
  <property name="video_index">-1</property>
  <property name="mute_on_pause">1</property>
  <property name="mlt_service">avformat</property>
  <property name="kdenlive:clipname"/>
  <property name="kdenlive:clip_type">1</property>
  <property name="kdenlive:folderid">216</property>
  <property name="kdenlive:id">230</property>
  <property name="kdenlive:file_size">1345614</property>
  <property name="kdenlive:file_hash">8fbc02217ffa14012ac145ca243c417f</property>
  <property name="kdenlive:audio_max0">212</property>
 </producer>
 <producer id="producer207" in="00:00:00.000" out="00:00:05.750">
  <property name="length">346</property>
  <property name="eof">pause</property>
  <property name="resource">/home/federico/Nextcloud/Kden/EditingUT/Sound/EnglishMemes/it was at this moment that he knew, he fcked up.wav</property>
  <property name="meta.media.nb_streams">1</property>
  <property name="meta.media.0.stream.type">audio</property>
  <property name="meta.media.0.codec.sample_fmt">s16</property>
  <property name="meta.media.0.codec.sample_rate">44100</property>
  <property name="meta.media.0.codec.channels">2</property>
  <property name="meta.media.0.codec.name">pcm_s16le</property>
  <property name="meta.media.0.codec.long_name">PCM signed 16-bit little-endian</property>
  <property name="meta.media.0.codec.bit_rate">1411200</property>
  <property name="meta.attr.encoder.markup">Lavf60.16.100</property>
  <property name="seekable">1</property>
  <property name="audio_index">0</property>
  <property name="video_index">-1</property>
  <property name="mute_on_pause">1</property>
  <property name="mlt_service">avformat</property>
  <property name="kdenlive:clipname"/>
  <property name="kdenlive:clip_type">1</property>
  <property name="kdenlive:folderid">216</property>
  <property name="kdenlive:id">231</property>
  <property name="kdenlive:file_size">1018446</property>
  <property name="kdenlive:file_hash">d04bdb4400ca13c88330f5c87cf0089b</property>
  <property name="kdenlive:audio_max0">175</property>
 </producer>
 <producer id="producer209" in="00:00:00.000" out="00:00:02.800">
  <property name="length">169</property>
  <property name="eof">pause</property>
  <property name="resource">/home/federico/Nextcloud/Kden/EditingUT/Sound/EnglishMemes/i’m dying... help me...wav</property>
  <property name="meta.media.nb_streams">1</property>
  <property name="meta.media.0.stream.type">audio</property>
  <property name="meta.media.0.codec.sample_fmt">s16</property>
  <property name="meta.media.0.codec.sample_rate">44100</property>
  <property name="meta.media.0.codec.channels">2</property>
  <property name="meta.media.0.codec.name">pcm_s16le</property>
  <property name="meta.media.0.codec.long_name">PCM signed 16-bit little-endian</property>
  <property name="meta.media.0.codec.bit_rate">1411200</property>
  <property name="meta.attr.encoder.markup">Lavf60.16.100</property>
  <property name="seekable">1</property>
  <property name="audio_index">0</property>
  <property name="video_index">-1</property>
  <property name="mute_on_pause">1</property>
  <property name="mlt_service">avformat</property>
  <property name="kdenlive:clipname"/>
  <property name="kdenlive:clip_type">1</property>
  <property name="kdenlive:folderid">216</property>
  <property name="kdenlive:id">232</property>
  <property name="kdenlive:file_size">497742</property>
  <property name="kdenlive:file_hash">c0627f835b0b9535690673dd510ba4f2</property>
  <property name="kdenlive:audio_max0">183</property>
 </producer>
 <producer id="producer208" in="00:00:00.000" out="00:00:09.300">
  <property name="length">559</property>
  <property name="eof">pause</property>
  <property name="resource">/home/federico/Nextcloud/Kden/EditingUT/Sound/EnglishMemes/meme_door_stuck.wav</property>
  <property name="meta.media.nb_streams">1</property>
  <property name="meta.media.0.stream.type">audio</property>
  <property name="meta.media.0.codec.sample_fmt">s16</property>
  <property name="meta.media.0.codec.sample_rate">48000</property>
  <property name="meta.media.0.codec.channels">2</property>
  <property name="meta.media.0.codec.name">pcm_s16le</property>
  <property name="meta.media.0.codec.long_name">PCM signed 16-bit little-endian</property>
  <property name="meta.media.0.codec.bit_rate">1536000</property>
  <property name="meta.attr.encoder.markup">Lavf59.16.100</property>
  <property name="seekable">1</property>
  <property name="audio_index">0</property>
  <property name="video_index">-1</property>
  <property name="mute_on_pause">1</property>
  <property name="mlt_service">avformat</property>
  <property name="kdenlive:clipname"/>
  <property name="kdenlive:clip_type">1</property>
  <property name="kdenlive:folderid">216</property>
  <property name="kdenlive:id">233</property>
  <property name="kdenlive:file_size">1788878</property>
  <property name="kdenlive:file_hash">0d981471151fcc402074bcc8c1caf3d6</property>
  <property name="kdenlive:audio_max0">190</property>
 </producer>
 <producer id="producer210" in="00:00:00.000" out="00:00:01.883">
  <property name="length">114</property>
  <property name="eof">pause</property>
  <property name="resource">/home/federico/Nextcloud/Kden/EditingUT/Sound/EnglishMemes/now thats alot of damage.wav</property>
  <property name="meta.media.nb_streams">1</property>
  <property name="meta.media.0.stream.type">audio</property>
  <property name="meta.media.0.codec.sample_fmt">s16</property>
  <property name="meta.media.0.codec.sample_rate">48000</property>
  <property name="meta.media.0.codec.channels">2</property>
  <property name="meta.media.0.codec.name">pcm_s16le</property>
  <property name="meta.media.0.codec.long_name">PCM signed 16-bit little-endian</property>
  <property name="meta.media.0.codec.bit_rate">1536000</property>
  <property name="meta.attr.encoder.markup">Lavf59.16.100</property>
  <property name="seekable">1</property>
  <property name="audio_index">0</property>
  <property name="video_index">-1</property>
  <property name="mute_on_pause">1</property>
  <property name="mlt_service">avformat</property>
  <property name="kdenlive:clipname"/>
  <property name="kdenlive:clip_type">1</property>
  <property name="kdenlive:folderid">216</property>
  <property name="kdenlive:id">234</property>
  <property name="kdenlive:file_size">364878</property>
  <property name="kdenlive:file_hash">9765617ac0dca8e149db75f53e87fc18</property>
  <property name="kdenlive:audio_max0">142</property>
 </producer>
 <producer id="producer211" in="00:00:00.000" out="00:00:01.300">
  <property name="length">79</property>
  <property name="eof">pause</property>
  <property name="resource">/home/federico/Nextcloud/Kden/EditingUT/Sound/EnglishMemes/oh hello there.wav</property>
  <property name="meta.media.nb_streams">1</property>
  <property name="meta.media.0.stream.type">audio</property>
  <property name="meta.media.0.codec.sample_fmt">s16</property>
  <property name="meta.media.0.codec.sample_rate">48000</property>
  <property name="meta.media.0.codec.channels">2</property>
  <property name="meta.media.0.codec.name">pcm_s16le</property>
  <property name="meta.media.0.codec.long_name">PCM signed 16-bit little-endian</property>
  <property name="meta.media.0.codec.bit_rate">1536000</property>
  <property name="meta.attr.encoder.markup">Lavf59.16.100</property>
  <property name="seekable">1</property>
  <property name="audio_index">0</property>
  <property name="video_index">-1</property>
  <property name="mute_on_pause">1</property>
  <property name="mlt_service">avformat</property>
  <property name="kdenlive:clipname"/>
  <property name="kdenlive:clip_type">1</property>
  <property name="kdenlive:folderid">216</property>
  <property name="kdenlive:id">235</property>
  <property name="kdenlive:file_size">252878</property>
  <property name="kdenlive:file_hash">7e3fc56b4d68104467b42990dc042255</property>
  <property name="kdenlive:audio_max0">1</property>
 </producer>
 <producer id="producer212" in="00:00:00.000" out="00:00:02.100">
  <property name="length">127</property>
  <property name="eof">pause</property>
  <property name="resource">/home/federico/Nextcloud/Kden/EditingUT/Sound/EnglishMemes/shut up.wav</property>
  <property name="meta.media.nb_streams">1</property>
  <property name="meta.media.0.stream.type">audio</property>
  <property name="meta.media.0.codec.sample_fmt">s16</property>
  <property name="meta.media.0.codec.sample_rate">44100</property>
  <property name="meta.media.0.codec.channels">2</property>
  <property name="meta.media.0.codec.name">pcm_s16le</property>
  <property name="meta.media.0.codec.long_name">PCM signed 16-bit little-endian</property>
  <property name="meta.media.0.codec.bit_rate">1411200</property>
  <property name="meta.attr.encoder.markup">Lavf60.16.100</property>
  <property name="seekable">1</property>
  <property name="audio_index">0</property>
  <property name="video_index">-1</property>
  <property name="mute_on_pause">1</property>
  <property name="mlt_service">avformat</property>
  <property name="kdenlive:clipname"/>
  <property name="kdenlive:clip_type">1</property>
  <property name="kdenlive:folderid">216</property>
  <property name="kdenlive:id">236</property>
  <property name="kdenlive:file_size">373326</property>
  <property name="kdenlive:file_hash">1ca1f4e659bd2e1e63e173f8082813e0</property>
  <property name="kdenlive:audio_max0">224</property>
 </producer>
 <producer id="producer214" in="00:00:00.000" out="00:00:04.550">
  <property name="length">274</property>
  <property name="eof">pause</property>
  <property name="resource">/home/federico/Nextcloud/Kden/EditingUT/Sound/EnglishMemes/watch out watch out - randy orton.wav</property>
  <property name="meta.media.nb_streams">1</property>
  <property name="meta.media.0.stream.type">audio</property>
  <property name="meta.media.0.codec.sample_fmt">s16</property>
  <property name="meta.media.0.codec.sample_rate">44100</property>
  <property name="meta.media.0.codec.channels">2</property>
  <property name="meta.media.0.codec.name">pcm_s16le</property>
  <property name="meta.media.0.codec.long_name">PCM signed 16-bit little-endian</property>
  <property name="meta.media.0.codec.bit_rate">1411200</property>
  <property name="meta.attr.encoder.markup">Lavf60.16.100</property>
  <property name="seekable">1</property>
  <property name="audio_index">0</property>
  <property name="video_index">-1</property>
  <property name="mute_on_pause">1</property>
  <property name="mlt_service">avformat</property>
  <property name="kdenlive:clipname"/>
  <property name="kdenlive:clip_type">1</property>
  <property name="kdenlive:folderid">216</property>
  <property name="kdenlive:id">237</property>
  <property name="kdenlive:file_size">806478</property>
  <property name="kdenlive:file_hash">85e6b90afa3acc94933df8f9ee89112a</property>
  <property name="kdenlive:audio_max0">174</property>
 </producer>
 <producer id="producer215" in="00:00:00.000" out="00:00:02.733">
  <property name="length">165</property>
  <property name="eof">pause</property>
  <property name="resource">/home/federico/Nextcloud/Kden/EditingUT/Sound/EnglishMemes/what the fuck youre looking at.wav</property>
  <property name="meta.media.nb_streams">1</property>
  <property name="meta.media.0.stream.type">audio</property>
  <property name="meta.media.0.codec.sample_fmt">s16</property>
  <property name="meta.media.0.codec.sample_rate">44100</property>
  <property name="meta.media.0.codec.channels">2</property>
  <property name="meta.media.0.codec.name">pcm_s16le</property>
  <property name="meta.media.0.codec.long_name">PCM signed 16-bit little-endian</property>
  <property name="meta.media.0.codec.bit_rate">1411200</property>
  <property name="meta.attr.encoder.markup">Lavf60.16.100</property>
  <property name="seekable">1</property>
  <property name="audio_index">0</property>
  <property name="video_index">-1</property>
  <property name="mute_on_pause">1</property>
  <property name="mlt_service">avformat</property>
  <property name="kdenlive:clipname"/>
  <property name="kdenlive:clip_type">1</property>
  <property name="kdenlive:folderid">216</property>
  <property name="kdenlive:id">238</property>
  <property name="kdenlive:file_size">483918</property>
  <property name="kdenlive:file_hash">3b0b48f0de4404122d8b5e5fa6b46d31</property>
  <property name="kdenlive:audio_max0">208</property>
 </producer>
 <producer id="producer213" in="00:00:00.000" out="00:00:02.200">
  <property name="length">133</property>
  <property name="eof">pause</property>
  <property name="resource">/home/federico/Nextcloud/Kden/EditingUT/Sound/EnglishMemes/where you fucking go.wav</property>
  <property name="meta.media.nb_streams">1</property>
  <property name="meta.media.0.stream.type">audio</property>
  <property name="meta.media.0.codec.sample_fmt">s16</property>
  <property name="meta.media.0.codec.sample_rate">44100</property>
  <property name="meta.media.0.codec.channels">2</property>
  <property name="meta.media.0.codec.name">pcm_s16le</property>
  <property name="meta.media.0.codec.long_name">PCM signed 16-bit little-endian</property>
  <property name="meta.media.0.codec.bit_rate">1411200</property>
  <property name="meta.attr.encoder.markup">Lavf60.16.100</property>
  <property name="seekable">1</property>
  <property name="audio_index">0</property>
  <property name="video_index">-1</property>
  <property name="mute_on_pause">1</property>
  <property name="mlt_service">avformat</property>
  <property name="kdenlive:clipname"/>
  <property name="kdenlive:clip_type">1</property>
  <property name="kdenlive:folderid">216</property>
  <property name="kdenlive:id">239</property>
  <property name="kdenlive:file_size">391758</property>
  <property name="kdenlive:file_hash">04ad84a35d8f53a20ce472acf4a8ee2a</property>
  <property name="kdenlive:audio_max0">208</property>
 </producer>
 <producer id="producer216" in="00:00:00.000" out="00:00:08.050">
  <property name="length">484</property>
  <property name="eof">pause</property>
  <property name="resource">/home/federico/Nextcloud/Kden/EditingUT/Sound/EnglishMemes/why are you running.wav</property>
  <property name="meta.media.nb_streams">1</property>
  <property name="meta.media.0.stream.type">audio</property>
  <property name="meta.media.0.codec.sample_fmt">s16</property>
  <property name="meta.media.0.codec.sample_rate">44100</property>
  <property name="meta.media.0.codec.channels">2</property>
  <property name="meta.media.0.codec.name">pcm_s16le</property>
  <property name="meta.media.0.codec.long_name">PCM signed 16-bit little-endian</property>
  <property name="meta.media.0.codec.bit_rate">1411200</property>
  <property name="meta.attr.encoder.markup">Lavf60.16.100</property>
  <property name="seekable">1</property>
  <property name="audio_index">0</property>
  <property name="video_index">-1</property>
  <property name="mute_on_pause">1</property>
  <property name="mlt_service">avformat</property>
  <property name="kdenlive:clipname"/>
  <property name="kdenlive:clip_type">1</property>
  <property name="kdenlive:folderid">216</property>
  <property name="kdenlive:id">240</property>
  <property name="kdenlive:file_size">1423950</property>
  <property name="kdenlive:file_hash">ba4745ae4e17c77f510037e93cfd47f1</property>
  <property name="kdenlive:audio_max0">243</property>
 </producer>
 <producer id="producer217" in="00:00:00.000" out="00:00:02.983">
  <property name="length">180</property>
  <property name="eof">pause</property>
  <property name="resource">/home/federico/Nextcloud/Kden/EditingUT/Sound/EnglishMemes/yeet.wav</property>
  <property name="meta.media.nb_streams">1</property>
  <property name="meta.media.0.stream.type">audio</property>
  <property name="meta.media.0.codec.sample_fmt">s16</property>
  <property name="meta.media.0.codec.sample_rate">44100</property>
  <property name="meta.media.0.codec.channels">2</property>
  <property name="meta.media.0.codec.name">pcm_s16le</property>
  <property name="meta.media.0.codec.long_name">PCM signed 16-bit little-endian</property>
  <property name="meta.media.0.codec.bit_rate">1411200</property>
  <property name="meta.attr.encoder.markup">Lavf60.16.100</property>
  <property name="seekable">1</property>
  <property name="audio_index">0</property>
  <property name="video_index">-1</property>
  <property name="mute_on_pause">1</property>
  <property name="mlt_service">avformat</property>
  <property name="kdenlive:clipname"/>
  <property name="kdenlive:clip_type">1</property>
  <property name="kdenlive:folderid">216</property>
  <property name="kdenlive:id">241</property>
  <property name="kdenlive:file_size">529998</property>
  <property name="kdenlive:file_hash">f19ffa6fa84c97f07d8372a55314fa88</property>
  <property name="kdenlive:audio_max0">181</property>
 </producer>
 <producer id="producer219" in="00:00:00.000" out="00:00:01.883">
  <property name="length">114</property>
  <property name="eof">pause</property>
  <property name="resource">/home/federico/Nextcloud/Kden/EditingUT/Sound/EnglishMemes/you son of a bitch.wav</property>
  <property name="meta.media.nb_streams">1</property>
  <property name="meta.media.0.stream.type">audio</property>
  <property name="meta.media.0.codec.sample_fmt">s16</property>
  <property name="meta.media.0.codec.sample_rate">44100</property>
  <property name="meta.media.0.codec.channels">2</property>
  <property name="meta.media.0.codec.name">pcm_s16le</property>
  <property name="meta.media.0.codec.long_name">PCM signed 16-bit little-endian</property>
  <property name="meta.media.0.codec.bit_rate">1411200</property>
  <property name="meta.attr.encoder.markup">Lavf60.16.100</property>
  <property name="seekable">1</property>
  <property name="audio_index">0</property>
  <property name="video_index">-1</property>
  <property name="mute_on_pause">1</property>
  <property name="mlt_service">avformat</property>
  <property name="kdenlive:clipname"/>
  <property name="kdenlive:clip_type">1</property>
  <property name="kdenlive:folderid">216</property>
  <property name="kdenlive:id">242</property>
  <property name="kdenlive:file_size">336462</property>
  <property name="kdenlive:file_hash">07c016cb8059f288226afb92a461ee29</property>
  <property name="kdenlive:audio_max0">176</property>
 </producer>
 <producer id="producer218" in="00:00:00.000" out="00:00:06.250">
  <property name="length">376</property>
  <property name="eof">pause</property>
  <property name="resource">/home/federico/Nextcloud/Kden/EditingUT/Sound/Explosion/explode.wav</property>
  <property name="meta.media.nb_streams">1</property>
  <property name="meta.media.0.stream.type">audio</property>
  <property name="meta.media.0.codec.sample_fmt">s16</property>
  <property name="meta.media.0.codec.sample_rate">48000</property>
  <property name="meta.media.0.codec.channels">2</property>
  <property name="meta.media.0.codec.name">pcm_s16le</property>
  <property name="meta.media.0.codec.long_name">PCM signed 16-bit little-endian</property>
  <property name="meta.media.0.codec.bit_rate">1536000</property>
  <property name="meta.attr.encoder.markup">Lavf59.16.100</property>
  <property name="seekable">1</property>
  <property name="audio_index">0</property>
  <property name="video_index">-1</property>
  <property name="mute_on_pause">1</property>
  <property name="mlt_service">avformat</property>
  <property name="kdenlive:clipname"/>
  <property name="kdenlive:clip_type">1</property>
  <property name="kdenlive:folderid">243</property>
  <property name="kdenlive:id">244</property>
  <property name="kdenlive:file_size">1203278</property>
  <property name="kdenlive:file_hash">3cbb78c56c772789479ddbc978c793aa</property>
  <property name="kdenlive:audio_max0">214</property>
 </producer>
 <producer id="producer220" in="00:00:00.000" out="00:00:02.800">
  <property name="length">169</property>
  <property name="eof">pause</property>
  <property name="resource">/home/federico/Nextcloud/Kden/EditingUT/Sound/Explosion/explosion.wav</property>
  <property name="meta.media.nb_streams">1</property>
  <property name="meta.media.0.stream.type">audio</property>
  <property name="meta.media.0.codec.sample_fmt">s16</property>
  <property name="meta.media.0.codec.sample_rate">44100</property>
  <property name="meta.media.0.codec.channels">2</property>
  <property name="meta.media.0.codec.name">pcm_s16le</property>
  <property name="meta.media.0.codec.long_name">PCM signed 16-bit little-endian</property>
  <property name="meta.media.0.codec.bit_rate">1411200</property>
  <property name="meta.attr.encoder.markup">Lavf60.16.100</property>
  <property name="seekable">1</property>
  <property name="audio_index">0</property>
  <property name="video_index">-1</property>
  <property name="mute_on_pause">1</property>
  <property name="mlt_service">avformat</property>
  <property name="kdenlive:clipname"/>
  <property name="kdenlive:clip_type">1</property>
  <property name="kdenlive:folderid">243</property>
  <property name="kdenlive:id">245</property>
  <property name="kdenlive:file_size">497742</property>
  <property name="kdenlive:file_hash">3994b9ed48a4f91cc02f4add84daaa9a</property>
  <property name="kdenlive:audio_max0">233</property>
 </producer>
 <producer id="producer221" in="00:00:00.000" out="00:00:02.250">
  <property name="length">136</property>
  <property name="eof">pause</property>
  <property name="resource">/home/federico/Nextcloud/Kden/EditingUT/Sound/Explosion/explosion_russian sneeze.wav</property>
  <property name="meta.media.nb_streams">1</property>
  <property name="meta.media.0.stream.type">audio</property>
  <property name="meta.media.0.codec.sample_fmt">s16</property>
  <property name="meta.media.0.codec.sample_rate">48000</property>
  <property name="meta.media.0.codec.channels">2</property>
  <property name="meta.media.0.codec.name">pcm_s16le</property>
  <property name="meta.media.0.codec.long_name">PCM signed 16-bit little-endian</property>
  <property name="meta.media.0.codec.bit_rate">1536000</property>
  <property name="meta.attr.encoder.markup">Lavf59.16.100</property>
  <property name="seekable">1</property>
  <property name="audio_index">0</property>
  <property name="video_index">-1</property>
  <property name="mute_on_pause">1</property>
  <property name="mlt_service">avformat</property>
  <property name="kdenlive:clipname"/>
  <property name="kdenlive:clip_type">1</property>
  <property name="kdenlive:folderid">243</property>
  <property name="kdenlive:id">246</property>
  <property name="kdenlive:file_size">435278</property>
  <property name="kdenlive:file_hash">8e2b9429db182b45cb66eaca1b0bdc33</property>
  <property name="kdenlive:audio_max0">236</property>
  <property name="kdenlive:zone_in">19</property>
  <property name="kdenlive:zone_out">136</property>
 </producer>
 <producer id="producer222" in="00:00:00.000" out="00:00:09.133">
  <property name="length">549</property>
  <property name="eof">pause</property>
  <property name="resource">/home/federico/Nextcloud/Kden/EditingUT/Sound/Explosion/explosion_wtf boom.wav</property>
  <property name="meta.media.nb_streams">1</property>
  <property name="meta.media.0.stream.type">audio</property>
  <property name="meta.media.0.codec.sample_fmt">s16</property>
  <property name="meta.media.0.codec.sample_rate">44100</property>
  <property name="meta.media.0.codec.channels">2</property>
  <property name="meta.media.0.codec.name">pcm_s16le</property>
  <property name="meta.media.0.codec.long_name">PCM signed 16-bit little-endian</property>
  <property name="meta.media.0.codec.bit_rate">1411200</property>
  <property name="meta.attr.encoder.markup">Lavf60.16.100</property>
  <property name="seekable">1</property>
  <property name="audio_index">0</property>
  <property name="video_index">-1</property>
  <property name="mute_on_pause">1</property>
  <property name="mlt_service">avformat</property>
  <property name="kdenlive:clipname"/>
  <property name="kdenlive:clip_type">1</property>
  <property name="kdenlive:folderid">243</property>
  <property name="kdenlive:id">247</property>
  <property name="kdenlive:file_size">1612878</property>
  <property name="kdenlive:file_hash">17e9a561e5af73af5011ad4d8720daf3</property>
  <property name="kdenlive:audio_max0">235</property>
 </producer>
 <producer id="producer223" in="00:00:00.000" out="00:00:13.633">
  <property name="length">819</property>
  <property name="eof">pause</property>
  <property name="resource">/home/federico/Nextcloud/Kden/EditingUT/Sound/Fall/falling scream.wav</property>
  <property name="meta.media.nb_streams">1</property>
  <property name="meta.media.0.stream.type">audio</property>
  <property name="meta.media.0.codec.sample_fmt">s16</property>
  <property name="meta.media.0.codec.sample_rate">48000</property>
  <property name="meta.media.0.codec.channels">2</property>
  <property name="meta.media.0.codec.name">pcm_s16le</property>
  <property name="meta.media.0.codec.long_name">PCM signed 16-bit little-endian</property>
  <property name="meta.media.0.codec.bit_rate">1536000</property>
  <property name="meta.attr.encoder.markup">Lavf59.16.100</property>
  <property name="seekable">1</property>
  <property name="audio_index">0</property>
  <property name="video_index">-1</property>
  <property name="mute_on_pause">1</property>
  <property name="mlt_service">avformat</property>
  <property name="kdenlive:clipname"/>
  <property name="kdenlive:clip_type">1</property>
  <property name="kdenlive:folderid">248</property>
  <property name="kdenlive:id">249</property>
  <property name="kdenlive:file_size">2620878</property>
  <property name="kdenlive:file_hash">acf6b032f7059c42d6420fa0139e9b3e</property>
  <property name="kdenlive:audio_max0">152</property>
 </producer>
 <producer id="producer224" in="00:00:00.000" out="00:00:08.000">
  <property name="length">481</property>
  <property name="eof">pause</property>
  <property name="resource">/home/federico/Nextcloud/Kden/EditingUT/Sound/Fall/falling.wav</property>
  <property name="meta.media.nb_streams">1</property>
  <property name="meta.media.0.stream.type">audio</property>
  <property name="meta.media.0.codec.sample_fmt">s16</property>
  <property name="meta.media.0.codec.sample_rate">44100</property>
  <property name="meta.media.0.codec.channels">2</property>
  <property name="meta.media.0.codec.name">pcm_s16le</property>
  <property name="meta.media.0.codec.long_name">PCM signed 16-bit little-endian</property>
  <property name="meta.media.0.codec.bit_rate">1411200</property>
  <property name="meta.attr.encoder.markup">Lavf60.16.100</property>
  <property name="seekable">1</property>
  <property name="audio_index">0</property>
  <property name="video_index">-1</property>
  <property name="mute_on_pause">1</property>
  <property name="mlt_service">avformat</property>
  <property name="kdenlive:clipname"/>
  <property name="kdenlive:clip_type">1</property>
  <property name="kdenlive:folderid">248</property>
  <property name="kdenlive:id">250</property>
  <property name="kdenlive:file_size">1414734</property>
  <property name="kdenlive:file_hash">61327aef412069851a70c7ddeeb3ae00</property>
  <property name="kdenlive:audio_max0">187</property>
 </producer>
 <producer id="producer225" in="00:00:00.000" out="00:00:14.717">
  <property name="length">884</property>
  <property name="eof">pause</property>
  <property name="resource">/home/federico/Nextcloud/Kden/EditingUT/Sound/Fart/dramatic fart.wav</property>
  <property name="meta.media.nb_streams">1</property>
  <property name="meta.media.0.stream.type">audio</property>
  <property name="meta.media.0.codec.sample_fmt">s16</property>
  <property name="meta.media.0.codec.sample_rate">44100</property>
  <property name="meta.media.0.codec.channels">2</property>
  <property name="meta.media.0.codec.name">pcm_s16le</property>
  <property name="meta.media.0.codec.long_name">PCM signed 16-bit little-endian</property>
  <property name="meta.media.0.codec.bit_rate">1411200</property>
  <property name="meta.attr.encoder.markup">Lavf60.16.100</property>
  <property name="seekable">1</property>
  <property name="audio_index">0</property>
  <property name="video_index">-1</property>
  <property name="mute_on_pause">1</property>
  <property name="mlt_service">avformat</property>
  <property name="kdenlive:clipname"/>
  <property name="kdenlive:clip_type">1</property>
  <property name="kdenlive:folderid">251</property>
  <property name="kdenlive:id">252</property>
  <property name="kdenlive:file_size">2598990</property>
  <property name="kdenlive:file_hash">5998e66e979e1f6765906a42216de72a</property>
  <property name="kdenlive:audio_max0">252</property>
  <property name="kdenlive:zone_in">471</property>
  <property name="kdenlive:zone_out">884</property>
 </producer>
 <producer id="producer226" in="00:00:00.000" out="00:00:01.050">
  <property name="length">64</property>
  <property name="eof">pause</property>
  <property name="resource">/home/federico/Nextcloud/Kden/EditingUT/Sound/Fart/fart.wav</property>
  <property name="meta.media.nb_streams">1</property>
  <property name="meta.media.0.stream.type">audio</property>
  <property name="meta.media.0.codec.sample_fmt">s16</property>
  <property name="meta.media.0.codec.sample_rate">44100</property>
  <property name="meta.media.0.codec.channels">2</property>
  <property name="meta.media.0.codec.name">pcm_s16le</property>
  <property name="meta.media.0.codec.long_name">PCM signed 16-bit little-endian</property>
  <property name="meta.media.0.codec.bit_rate">1411200</property>
  <property name="meta.attr.encoder.markup">Lavf60.16.100</property>
  <property name="seekable">1</property>
  <property name="audio_index">0</property>
  <property name="video_index">-1</property>
  <property name="mute_on_pause">1</property>
  <property name="mlt_service">avformat</property>
  <property name="kdenlive:clipname"/>
  <property name="kdenlive:clip_type">1</property>
  <property name="kdenlive:folderid">251</property>
  <property name="kdenlive:id">253</property>
  <property name="kdenlive:file_size">189006</property>
  <property name="kdenlive:file_hash">63fa624a8408f7504becc3469545f088</property>
  <property name="kdenlive:audio_max0">165</property>
 </producer>
 <producer id="producer227" in="00:00:00.000" out="00:00:02.567">
  <property name="length">155</property>
  <property name="eof">pause</property>
  <property name="resource">/home/federico/Nextcloud/Kden/EditingUT/Sound/Fart/normal fart ..wav</property>
  <property name="meta.media.nb_streams">1</property>
  <property name="meta.media.0.stream.type">audio</property>
  <property name="meta.media.0.codec.sample_fmt">s16</property>
  <property name="meta.media.0.codec.sample_rate">44100</property>
  <property name="meta.media.0.codec.channels">2</property>
  <property name="meta.media.0.codec.name">pcm_s16le</property>
  <property name="meta.media.0.codec.long_name">PCM signed 16-bit little-endian</property>
  <property name="meta.media.0.codec.bit_rate">1411200</property>
  <property name="meta.attr.encoder.markup">Lavf60.16.100</property>
  <property name="seekable">1</property>
  <property name="audio_index">0</property>
  <property name="video_index">-1</property>
  <property name="mute_on_pause">1</property>
  <property name="mlt_service">avformat</property>
  <property name="kdenlive:clipname"/>
  <property name="kdenlive:clip_type">1</property>
  <property name="kdenlive:folderid">251</property>
  <property name="kdenlive:id">254</property>
  <property name="kdenlive:file_size">456270</property>
  <property name="kdenlive:file_hash">44a325f56c646520e2d0bef31d17b957</property>
  <property name="kdenlive:audio_max0">141</property>
  <property name="kdenlive:zone_in">62</property>
  <property name="kdenlive:zone_out">155</property>
 </producer>
 <producer id="producer228" in="00:00:00.000" out="00:00:00.683">
  <property name="length">42</property>
  <property name="eof">pause</property>
  <property name="resource">/home/federico/Nextcloud/Kden/EditingUT/Sound/Fart/quick fart.wav</property>
  <property name="meta.media.nb_streams">1</property>
  <property name="meta.media.0.stream.type">audio</property>
  <property name="meta.media.0.codec.sample_fmt">s16</property>
  <property name="meta.media.0.codec.sample_rate">44100</property>
  <property name="meta.media.0.codec.channels">2</property>
  <property name="meta.media.0.codec.name">pcm_s16le</property>
  <property name="meta.media.0.codec.long_name">PCM signed 16-bit little-endian</property>
  <property name="meta.media.0.codec.bit_rate">1411200</property>
  <property name="meta.attr.encoder.markup">Lavf60.16.100</property>
  <property name="seekable">1</property>
  <property name="audio_index">0</property>
  <property name="video_index">-1</property>
  <property name="mute_on_pause">1</property>
  <property name="mlt_service">avformat</property>
  <property name="kdenlive:clipname"/>
  <property name="kdenlive:clip_type">1</property>
  <property name="kdenlive:folderid">251</property>
  <property name="kdenlive:id">255</property>
  <property name="kdenlive:file_size">124494</property>
  <property name="kdenlive:file_hash">af0c92b94df6f4ea13aabe668d62db20</property>
  <property name="kdenlive:audio_max0">152</property>
 </producer>
 <producer id="producer229" in="00:00:00.000" out="00:00:03.100">
  <property name="length">187</property>
  <property name="eof">pause</property>
  <property name="resource">/home/federico/Nextcloud/Kden/EditingUT/Sound/Games/ah shit here we go again - gta.wav</property>
  <property name="meta.media.nb_streams">1</property>
  <property name="meta.media.0.stream.type">audio</property>
  <property name="meta.media.0.codec.sample_fmt">s16</property>
  <property name="meta.media.0.codec.sample_rate">44100</property>
  <property name="meta.media.0.codec.channels">2</property>
  <property name="meta.media.0.codec.name">pcm_s16le</property>
  <property name="meta.media.0.codec.long_name">PCM signed 16-bit little-endian</property>
  <property name="meta.media.0.codec.bit_rate">1411200</property>
  <property name="meta.attr.encoder.markup">Lavf60.16.100</property>
  <property name="seekable">1</property>
  <property name="audio_index">0</property>
  <property name="video_index">-1</property>
  <property name="mute_on_pause">1</property>
  <property name="mlt_service">avformat</property>
  <property name="kdenlive:clipname"/>
  <property name="kdenlive:clip_type">1</property>
  <property name="kdenlive:folderid">256</property>
  <property name="kdenlive:id">257</property>
  <property name="kdenlive:file_size">548430</property>
  <property name="kdenlive:file_hash">6d70669dd93e6dbf04279ca6587b067e</property>
  <property name="kdenlive:audio_max0">137</property>
 </producer>
 <producer id="producer230" in="00:00:00.000" out="00:00:00.783">
  <property name="length">48</property>
  <property name="eof">pause</property>
  <property name="resource">/home/federico/Nextcloud/Kden/EditingUT/Sound/Games/crash_meme_menu.wav</property>
  <property name="meta.media.nb_streams">1</property>
  <property name="meta.media.0.stream.type">audio</property>
  <property name="meta.media.0.codec.sample_fmt">s16</property>
  <property name="meta.media.0.codec.sample_rate">48000</property>
  <property name="meta.media.0.codec.channels">2</property>
  <property name="meta.media.0.codec.name">pcm_s16le</property>
  <property name="meta.media.0.codec.long_name">PCM signed 16-bit little-endian</property>
  <property name="meta.media.0.codec.bit_rate">1536000</property>
  <property name="meta.attr.encoder.markup">Lavf60.16.100</property>
  <property name="seekable">1</property>
  <property name="audio_index">0</property>
  <property name="video_index">-1</property>
  <property name="mute_on_pause">1</property>
  <property name="mlt_service">avformat</property>
  <property name="kdenlive:clipname"/>
  <property name="kdenlive:clip_type">1</property>
  <property name="kdenlive:folderid">256</property>
  <property name="kdenlive:id">258</property>
  <property name="kdenlive:file_size">152142</property>
  <property name="kdenlive:file_hash">a4565f51d21babf1b77477180f269ff6</property>
  <property name="kdenlive:audio_max0">199</property>
 </producer>
 <producer id="producer231" in="00:00:00.000" out="00:00:01.650">
  <property name="length">100</property>
  <property name="eof">pause</property>
  <property name="resource">/home/federico/Nextcloud/Kden/EditingUT/Sound/Games/cs - bomb has been planted.wav</property>
  <property name="meta.media.nb_streams">1</property>
  <property name="meta.media.0.stream.type">audio</property>
  <property name="meta.media.0.codec.sample_fmt">s16</property>
  <property name="meta.media.0.codec.sample_rate">48000</property>
  <property name="meta.media.0.codec.channels">2</property>
  <property name="meta.media.0.codec.name">pcm_s16le</property>
  <property name="meta.media.0.codec.long_name">PCM signed 16-bit little-endian</property>
  <property name="meta.media.0.codec.bit_rate">1536000</property>
  <property name="meta.attr.artist.markup">Vaxes</property>
  <property name="meta.attr.comment.markup">https://www.youtube.com/watch?v=DLStVOi-RNc</property>
  <property name="meta.attr.date.markup">2022</property>
  <property name="meta.attr.title.markup">Sound Effect - Bomb Has Been Planted</property>
  <property name="meta.attr.encoder.markup">Lavf60.16.100</property>
  <property name="seekable">1</property>
  <property name="audio_index">0</property>
  <property name="video_index">-1</property>
  <property name="mute_on_pause">1</property>
  <property name="mlt_service">avformat</property>
  <property name="kdenlive:clipname"/>
  <property name="kdenlive:clip_type">1</property>
  <property name="kdenlive:folderid">256</property>
  <property name="kdenlive:id">259</property>
  <property name="kdenlive:file_size">318968</property>
  <property name="kdenlive:file_hash">596bca2783abdda152a198b634552f5f</property>
  <property name="kdenlive:audio_max0">185</property>
 </producer>
 <producer id="producer233" in="00:00:00.000" out="00:00:09.367">
  <property name="length">563</property>
  <property name="eof">pause</property>
  <property name="resource">/home/federico/Nextcloud/Kden/EditingUT/Sound/Games/dbz surprised.wav</property>
  <property name="meta.media.nb_streams">1</property>
  <property name="meta.media.0.stream.type">audio</property>
  <property name="meta.media.0.codec.sample_fmt">s16</property>
  <property name="meta.media.0.codec.sample_rate">44100</property>
  <property name="meta.media.0.codec.channels">2</property>
  <property name="meta.media.0.codec.name">pcm_s16le</property>
  <property name="meta.media.0.codec.long_name">PCM signed 16-bit little-endian</property>
  <property name="meta.media.0.codec.bit_rate">1411200</property>
  <property name="meta.attr.encoder.markup">Lavf60.16.100</property>
  <property name="seekable">1</property>
  <property name="audio_index">0</property>
  <property name="video_index">-1</property>
  <property name="mute_on_pause">1</property>
  <property name="mlt_service">avformat</property>
  <property name="kdenlive:clipname"/>
  <property name="kdenlive:clip_type">1</property>
  <property name="kdenlive:folderid">256</property>
  <property name="kdenlive:id">260</property>
  <property name="kdenlive:file_size">1654350</property>
  <property name="kdenlive:file_hash">14609c26dd22bead3bd9c7dad6533621</property>
  <property name="kdenlive:audio_max0">185</property>
 </producer>
 <producer id="producer232" in="00:00:00.000" out="00:00:02.017">
  <property name="length">122</property>
  <property name="eof">pause</property>
  <property name="resource">/home/federico/Nextcloud/Kden/EditingUT/Sound/Games/double kill -.wav</property>
  <property name="meta.media.nb_streams">1</property>
  <property name="meta.media.0.stream.type">audio</property>
  <property name="meta.media.0.codec.sample_fmt">s16</property>
  <property name="meta.media.0.codec.sample_rate">44100</property>
  <property name="meta.media.0.codec.channels">2</property>
  <property name="meta.media.0.codec.name">pcm_s16le</property>
  <property name="meta.media.0.codec.long_name">PCM signed 16-bit little-endian</property>
  <property name="meta.media.0.codec.bit_rate">1411200</property>
  <property name="meta.attr.encoder.markup">Lavf60.16.100</property>
  <property name="seekable">1</property>
  <property name="audio_index">0</property>
  <property name="video_index">-1</property>
  <property name="mute_on_pause">1</property>
  <property name="mlt_service">avformat</property>
  <property name="kdenlive:clipname"/>
  <property name="kdenlive:clip_type">1</property>
  <property name="kdenlive:folderid">256</property>
  <property name="kdenlive:id">261</property>
  <property name="kdenlive:file_size">359502</property>
  <property name="kdenlive:file_hash">08508e05a4963e22e5ae773892afa363</property>
  <property name="kdenlive:audio_max0">256</property>
 </producer>
 <producer id="producer234" in="00:00:00.000" out="00:00:01.217">
  <property name="length">74</property>
  <property name="eof">pause</property>
  <property name="resource">/home/federico/Nextcloud/Kden/EditingUT/Sound/Games/enemy spotted.wav</property>
  <property name="meta.media.nb_streams">1</property>
  <property name="meta.media.0.stream.type">audio</property>
  <property name="meta.media.0.codec.sample_fmt">s16</property>
  <property name="meta.media.0.codec.sample_rate">44100</property>
  <property name="meta.media.0.codec.channels">2</property>
  <property name="meta.media.0.codec.name">pcm_s16le</property>
  <property name="meta.media.0.codec.long_name">PCM signed 16-bit little-endian</property>
  <property name="meta.media.0.codec.bit_rate">1411200</property>
  <property name="meta.attr.encoder.markup">Lavf60.16.100</property>
  <property name="seekable">1</property>
  <property name="audio_index">0</property>
  <property name="video_index">-1</property>
  <property name="mute_on_pause">1</property>
  <property name="mlt_service">avformat</property>
  <property name="kdenlive:clipname"/>
  <property name="kdenlive:clip_type">1</property>
  <property name="kdenlive:folderid">256</property>
  <property name="kdenlive:id">262</property>
  <property name="kdenlive:file_size">216654</property>
  <property name="kdenlive:file_hash">aa2a9e85d03230c940c7ba956e9fa716</property>
  <property name="kdenlive:audio_max0">143</property>
 </producer>
 <producer id="producer236" in="00:00:00.000" out="00:00:04.117">
  <property name="length">248</property>
  <property name="eof">pause</property>
  <property name="resource">/home/federico/Nextcloud/Kden/EditingUT/Sound/Games/fire in the hole s counter strike.wav</property>
  <property name="meta.media.nb_streams">1</property>
  <property name="meta.media.0.stream.type">audio</property>
  <property name="meta.media.0.codec.sample_fmt">s16</property>
  <property name="meta.media.0.codec.sample_rate">44100</property>
  <property name="meta.media.0.codec.channels">2</property>
  <property name="meta.media.0.codec.name">pcm_s16le</property>
  <property name="meta.media.0.codec.long_name">PCM signed 16-bit little-endian</property>
  <property name="meta.media.0.codec.bit_rate">1411200</property>
  <property name="meta.attr.encoder.markup">Lavf60.16.100</property>
  <property name="seekable">1</property>
  <property name="audio_index">0</property>
  <property name="video_index">-1</property>
  <property name="mute_on_pause">1</property>
  <property name="mlt_service">avformat</property>
  <property name="kdenlive:clipname"/>
  <property name="kdenlive:clip_type">1</property>
  <property name="kdenlive:folderid">256</property>
  <property name="kdenlive:id">263</property>
  <property name="kdenlive:file_size">728142</property>
  <property name="kdenlive:file_hash">09301814bc8054a8db871e24a4bd3f7c</property>
  <property name="kdenlive:audio_max0">206</property>
 </producer>
 <producer id="producer235" in="00:00:00.000" out="00:00:01.467">
  <property name="length">89</property>
  <property name="eof">pause</property>
  <property name="resource">/home/federico/Nextcloud/Kden/EditingUT/Sound/Games/first blood -.wav</property>
  <property name="meta.media.nb_streams">1</property>
  <property name="meta.media.0.stream.type">audio</property>
  <property name="meta.media.0.codec.sample_fmt">s16</property>
  <property name="meta.media.0.codec.sample_rate">44100</property>
  <property name="meta.media.0.codec.channels">2</property>
  <property name="meta.media.0.codec.name">pcm_s16le</property>
  <property name="meta.media.0.codec.long_name">PCM signed 16-bit little-endian</property>
  <property name="meta.media.0.codec.bit_rate">1411200</property>
  <property name="meta.attr.encoder.markup">Lavf60.16.100</property>
  <property name="seekable">1</property>
  <property name="audio_index">0</property>
  <property name="video_index">-1</property>
  <property name="mute_on_pause">1</property>
  <property name="mlt_service">avformat</property>
  <property name="kdenlive:clipname"/>
  <property name="kdenlive:clip_type">1</property>
  <property name="kdenlive:folderid">256</property>
  <property name="kdenlive:id">264</property>
  <property name="kdenlive:file_size">262734</property>
  <property name="kdenlive:file_hash">ad905d5f30df94e021d55ff077056a4f</property>
  <property name="kdenlive:audio_max0">244</property>
 </producer>
 <producer id="producer237" in="00:00:00.000" out="00:00:12.417">
  <property name="length">746</property>
  <property name="eof">pause</property>
  <property name="resource">/home/federico/Nextcloud/Kden/EditingUT/Sound/Games/flashbang.wav</property>
  <property name="meta.media.nb_streams">1</property>
  <property name="meta.media.0.stream.type">audio</property>
  <property name="meta.media.0.codec.sample_fmt">s16</property>
  <property name="meta.media.0.codec.sample_rate">44100</property>
  <property name="meta.media.0.codec.channels">2</property>
  <property name="meta.media.0.codec.name">pcm_s16le</property>
  <property name="meta.media.0.codec.long_name">PCM signed 16-bit little-endian</property>
  <property name="meta.media.0.codec.bit_rate">1411200</property>
  <property name="meta.attr.encoder.markup">Lavf60.16.100</property>
  <property name="seekable">1</property>
  <property name="audio_index">0</property>
  <property name="video_index">-1</property>
  <property name="mute_on_pause">1</property>
  <property name="mlt_service">avformat</property>
  <property name="kdenlive:clipname"/>
  <property name="kdenlive:clip_type">1</property>
  <property name="kdenlive:folderid">256</property>
  <property name="kdenlive:id">265</property>
  <property name="kdenlive:file_size">2193486</property>
  <property name="kdenlive:file_hash">29b0b287d90d1fdc61d7bf6f5854ba4c</property>
  <property name="kdenlive:audio_max0">233</property>
  <property name="kdenlive:zone_in">293</property>
  <property name="kdenlive:zone_out">463</property>
 </producer>
 <producer id="producer238" in="00:00:00.000" out="00:00:11.417">
  <property name="length">686</property>
  <property name="eof">pause</property>
  <property name="resource">/home/federico/Nextcloud/Kden/EditingUT/Sound/Games/fus ro dah.wav</property>
  <property name="meta.media.nb_streams">1</property>
  <property name="meta.media.0.stream.type">audio</property>
  <property name="meta.media.0.codec.sample_fmt">s16</property>
  <property name="meta.media.0.codec.sample_rate">44100</property>
  <property name="meta.media.0.codec.channels">2</property>
  <property name="meta.media.0.codec.name">pcm_s16le</property>
  <property name="meta.media.0.codec.long_name">PCM signed 16-bit little-endian</property>
  <property name="meta.media.0.codec.bit_rate">1411200</property>
  <property name="meta.attr.encoder.markup">Lavf60.16.100</property>
  <property name="seekable">1</property>
  <property name="audio_index">0</property>
  <property name="video_index">-1</property>
  <property name="mute_on_pause">1</property>
  <property name="mlt_service">avformat</property>
  <property name="kdenlive:clipname"/>
  <property name="kdenlive:clip_type">1</property>
  <property name="kdenlive:folderid">256</property>
  <property name="kdenlive:id">266</property>
  <property name="kdenlive:file_size">2018382</property>
  <property name="kdenlive:file_hash">2fe14bc9831d4925f9b58fe35aca8bbd</property>
  <property name="kdenlive:audio_max0">210</property>
 </producer>
 <producer id="producer239" in="00:00:00.000" out="00:00:02.567">
  <property name="length">155</property>
  <property name="eof">pause</property>
  <property name="resource">/home/federico/Nextcloud/Kden/EditingUT/Sound/Games/get over here!.wav</property>
  <property name="meta.media.nb_streams">1</property>
  <property name="meta.media.0.stream.type">audio</property>
  <property name="meta.media.0.codec.sample_fmt">s16</property>
  <property name="meta.media.0.codec.sample_rate">44100</property>
  <property name="meta.media.0.codec.channels">2</property>
  <property name="meta.media.0.codec.name">pcm_s16le</property>
  <property name="meta.media.0.codec.long_name">PCM signed 16-bit little-endian</property>
  <property name="meta.media.0.codec.bit_rate">1411200</property>
  <property name="meta.attr.encoder.markup">Lavf60.16.100</property>
  <property name="seekable">1</property>
  <property name="audio_index">0</property>
  <property name="video_index">-1</property>
  <property name="mute_on_pause">1</property>
  <property name="mlt_service">avformat</property>
  <property name="kdenlive:clipname"/>
  <property name="kdenlive:clip_type">1</property>
  <property name="kdenlive:folderid">256</property>
  <property name="kdenlive:id">267</property>
  <property name="kdenlive:file_size">456270</property>
  <property name="kdenlive:file_hash">1ff04b9e7859c71d38a364171175ed1d</property>
  <property name="kdenlive:audio_max0">220</property>
 </producer>
 <producer id="producer240" in="00:00:00.000" out="00:00:11.083">
  <property name="length">666</property>
  <property name="eof">pause</property>
  <property name="resource">/home/federico/Nextcloud/Kden/EditingUT/Sound/Games/goku power up scream.wav</property>
  <property name="meta.media.nb_streams">1</property>
  <property name="meta.media.0.stream.type">audio</property>
  <property name="meta.media.0.codec.sample_fmt">s16</property>
  <property name="meta.media.0.codec.sample_rate">44100</property>
  <property name="meta.media.0.codec.channels">2</property>
  <property name="meta.media.0.codec.name">pcm_s16le</property>
  <property name="meta.media.0.codec.long_name">PCM signed 16-bit little-endian</property>
  <property name="meta.media.0.codec.bit_rate">1411200</property>
  <property name="meta.attr.encoder.markup">Lavf60.16.100</property>
  <property name="seekable">1</property>
  <property name="audio_index">0</property>
  <property name="video_index">-1</property>
  <property name="mute_on_pause">1</property>
  <property name="mlt_service">avformat</property>
  <property name="kdenlive:clipname"/>
  <property name="kdenlive:clip_type">1</property>
  <property name="kdenlive:folderid">256</property>
  <property name="kdenlive:id">268</property>
  <property name="kdenlive:file_size">1958478</property>
  <property name="kdenlive:file_hash">203a4c0d8e244566d6d5c0731f334d67</property>
  <property name="kdenlive:audio_max0">212</property>
 </producer>
 <producer id="producer241" in="00:00:00.000" out="00:00:02.333">
  <property name="length">141</property>
  <property name="eof">pause</property>
  <property name="resource">/home/federico/Nextcloud/Kden/EditingUT/Sound/Games/gta san andreas ohhhhhhhhhhh meme.wav</property>
  <property name="meta.media.nb_streams">1</property>
  <property name="meta.media.0.stream.type">audio</property>
  <property name="meta.media.0.codec.sample_fmt">s16</property>
  <property name="meta.media.0.codec.sample_rate">44100</property>
  <property name="meta.media.0.codec.channels">2</property>
  <property name="meta.media.0.codec.name">pcm_s16le</property>
  <property name="meta.media.0.codec.long_name">PCM signed 16-bit little-endian</property>
  <property name="meta.media.0.codec.bit_rate">1411200</property>
  <property name="meta.attr.encoder.markup">Lavf60.16.100</property>
  <property name="seekable">1</property>
  <property name="audio_index">0</property>
  <property name="video_index">-1</property>
  <property name="mute_on_pause">1</property>
  <property name="mlt_service">avformat</property>
  <property name="kdenlive:clipname"/>
  <property name="kdenlive:clip_type">1</property>
  <property name="kdenlive:folderid">256</property>
  <property name="kdenlive:id">269</property>
  <property name="kdenlive:file_size">414798</property>
  <property name="kdenlive:file_hash">6754a22f0737b99c9701c0f572f0f87e</property>
  <property name="kdenlive:audio_max0">242</property>
 </producer>
 <producer id="producer242" in="00:00:00.000" out="00:00:08.367">
  <property name="length">503</property>
  <property name="eof">pause</property>
  <property name="resource">/home/federico/Nextcloud/Kden/EditingUT/Sound/Games/half life 2 death.wav</property>
  <property name="meta.media.nb_streams">1</property>
  <property name="meta.media.0.stream.type">audio</property>
  <property name="meta.media.0.codec.sample_fmt">s16</property>
  <property name="meta.media.0.codec.sample_rate">44100</property>
  <property name="meta.media.0.codec.channels">2</property>
  <property name="meta.media.0.codec.name">pcm_s16le</property>
  <property name="meta.media.0.codec.long_name">PCM signed 16-bit little-endian</property>
  <property name="meta.media.0.codec.bit_rate">1411200</property>
  <property name="meta.attr.encoder.markup">Lavf60.16.100</property>
  <property name="seekable">1</property>
  <property name="audio_index">0</property>
  <property name="video_index">-1</property>
  <property name="mute_on_pause">1</property>
  <property name="mlt_service">avformat</property>
  <property name="kdenlive:clipname"/>
  <property name="kdenlive:clip_type">1</property>
  <property name="kdenlive:folderid">256</property>
  <property name="kdenlive:id">270</property>
  <property name="kdenlive:file_size">1479246</property>
  <property name="kdenlive:file_hash">7a4e07e2c1fc510dc0f0b65cdd9dc9e6</property>
  <property name="kdenlive:audio_max0">199</property>
 </producer>
 <producer id="producer243" in="00:00:00.000" out="00:00:06.100">
  <property name="length">367</property>
  <property name="eof">pause</property>
  <property name="resource">/home/federico/Nextcloud/Kden/EditingUT/Sound/Games/kaioken dbz s.wav</property>
  <property name="meta.media.nb_streams">1</property>
  <property name="meta.media.0.stream.type">audio</property>
  <property name="meta.media.0.codec.sample_fmt">s16</property>
  <property name="meta.media.0.codec.sample_rate">44100</property>
  <property name="meta.media.0.codec.channels">2</property>
  <property name="meta.media.0.codec.name">pcm_s16le</property>
  <property name="meta.media.0.codec.long_name">PCM signed 16-bit little-endian</property>
  <property name="meta.media.0.codec.bit_rate">1411200</property>
  <property name="meta.attr.encoder.markup">Lavf60.16.100</property>
  <property name="seekable">1</property>
  <property name="audio_index">0</property>
  <property name="video_index">-1</property>
  <property name="mute_on_pause">1</property>
  <property name="mlt_service">avformat</property>
  <property name="kdenlive:clipname"/>
  <property name="kdenlive:clip_type">1</property>
  <property name="kdenlive:folderid">256</property>
  <property name="kdenlive:id">271</property>
  <property name="kdenlive:file_size">1078350</property>
  <property name="kdenlive:file_hash">cc38ab055f0a7a015ae6bda8afea6c84</property>
  <property name="kdenlive:audio_max0">191</property>
 </producer>
 <producer id="producer244" in="00:00:00.000" out="00:00:08.233">
  <property name="length">495</property>
  <property name="eof">pause</property>
  <property name="resource">/home/federico/Nextcloud/Kden/EditingUT/Sound/Games/kamehameha goku_voice.wav</property>
  <property name="meta.media.nb_streams">1</property>
  <property name="meta.media.0.stream.type">audio</property>
  <property name="meta.media.0.codec.sample_fmt">s16</property>
  <property name="meta.media.0.codec.sample_rate">44100</property>
  <property name="meta.media.0.codec.channels">2</property>
  <property name="meta.media.0.codec.name">pcm_s16le</property>
  <property name="meta.media.0.codec.long_name">PCM signed 16-bit little-endian</property>
  <property name="meta.media.0.codec.bit_rate">1411200</property>
  <property name="meta.attr.encoder.markup">Lavf60.16.100</property>
  <property name="seekable">1</property>
  <property name="audio_index">0</property>
  <property name="video_index">-1</property>
  <property name="mute_on_pause">1</property>
  <property name="mlt_service">avformat</property>
  <property name="kdenlive:clipname"/>
  <property name="kdenlive:clip_type">1</property>
  <property name="kdenlive:folderid">256</property>
  <property name="kdenlive:id">272</property>
  <property name="kdenlive:file_size">1456206</property>
  <property name="kdenlive:file_hash">42f4cf6d570812b11eea8e3501de1d01</property>
  <property name="kdenlive:audio_max0">158</property>
 </producer>
 <producer id="producer245" in="00:00:00.000" out="00:00:13.567">
  <property name="length">815</property>
  <property name="eof">pause</property>
  <property name="resource">/home/federico/Nextcloud/Kden/EditingUT/Sound/Games/legend of zelda - chest opening and getting item..wav</property>
  <property name="meta.media.nb_streams">1</property>
  <property name="meta.media.0.stream.type">audio</property>
  <property name="meta.media.0.codec.sample_fmt">s16</property>
  <property name="meta.media.0.codec.sample_rate">44100</property>
  <property name="meta.media.0.codec.channels">2</property>
  <property name="meta.media.0.codec.name">pcm_s16le</property>
  <property name="meta.media.0.codec.long_name">PCM signed 16-bit little-endian</property>
  <property name="meta.media.0.codec.bit_rate">1411200</property>
  <property name="meta.attr.encoder.markup">Lavf60.16.100</property>
  <property name="seekable">1</property>
  <property name="audio_index">0</property>
  <property name="video_index">-1</property>
  <property name="mute_on_pause">1</property>
  <property name="mlt_service">avformat</property>
  <property name="kdenlive:clipname"/>
  <property name="kdenlive:clip_type">1</property>
  <property name="kdenlive:folderid">256</property>
  <property name="kdenlive:id">273</property>
  <property name="kdenlive:file_size">2396238</property>
  <property name="kdenlive:file_hash">997a74df5559cf15720e3e84004b8395</property>
  <property name="kdenlive:audio_max0">135</property>
 </producer>
 <producer id="producer247" in="00:00:00.000" out="00:00:02.050">
  <property name="length">124</property>
  <property name="eof">pause</property>
  <property name="resource">/home/federico/Nextcloud/Kden/EditingUT/Sound/Games/lego build -.wav</property>
  <property name="meta.media.nb_streams">1</property>
  <property name="meta.media.0.stream.type">audio</property>
  <property name="meta.media.0.codec.sample_fmt">s16</property>
  <property name="meta.media.0.codec.sample_rate">44100</property>
  <property name="meta.media.0.codec.channels">2</property>
  <property name="meta.media.0.codec.name">pcm_s16le</property>
  <property name="meta.media.0.codec.long_name">PCM signed 16-bit little-endian</property>
  <property name="meta.media.0.codec.bit_rate">1411200</property>
  <property name="meta.attr.encoder.markup">Lavf60.16.100</property>
  <property name="seekable">1</property>
  <property name="audio_index">0</property>
  <property name="video_index">-1</property>
  <property name="mute_on_pause">1</property>
  <property name="mlt_service">avformat</property>
  <property name="kdenlive:clipname"/>
  <property name="kdenlive:clip_type">1</property>
  <property name="kdenlive:folderid">256</property>
  <property name="kdenlive:id">274</property>
  <property name="kdenlive:file_size">364110</property>
  <property name="kdenlive:file_hash">144abd137223036bb7186e5b3574e4e3</property>
  <property name="kdenlive:audio_max0">126</property>
 </producer>
 <producer id="producer246" in="00:00:00.000" out="00:00:23.800">
  <property name="length">1429</property>
  <property name="eof">pause</property>
  <property name="resource">/home/federico/Nextcloud/Kden/EditingUT/Sound/Games/lightsaber   - ..wav</property>
  <property name="meta.media.nb_streams">1</property>
  <property name="meta.media.0.stream.type">audio</property>
  <property name="meta.media.0.codec.sample_fmt">s16</property>
  <property name="meta.media.0.codec.sample_rate">44100</property>
  <property name="meta.media.0.codec.channels">2</property>
  <property name="meta.media.0.codec.name">pcm_s16le</property>
  <property name="meta.media.0.codec.long_name">PCM signed 16-bit little-endian</property>
  <property name="meta.media.0.codec.bit_rate">1411200</property>
  <property name="meta.attr.encoder.markup">Lavf60.16.100</property>
  <property name="seekable">1</property>
  <property name="audio_index">0</property>
  <property name="video_index">-1</property>
  <property name="mute_on_pause">1</property>
  <property name="mlt_service">avformat</property>
  <property name="kdenlive:clipname"/>
  <property name="kdenlive:clip_type">1</property>
  <property name="kdenlive:folderid">256</property>
  <property name="kdenlive:id">275</property>
  <property name="kdenlive:file_size">4202574</property>
  <property name="kdenlive:file_hash">aebe7da740a86cdce4e71ecd68521ac7</property>
  <property name="kdenlive:audio_max0">246</property>
 </producer>
 <producer id="producer248" in="00:00:00.000" out="00:00:02.100">
  <property name="length">127</property>
  <property name="eof">pause</property>
  <property name="resource">/home/federico/Nextcloud/Kden/EditingUT/Sound/Games/metal gear alert!.wav</property>
  <property name="meta.media.nb_streams">1</property>
  <property name="meta.media.0.stream.type">audio</property>
  <property name="meta.media.0.codec.sample_fmt">s16</property>
  <property name="meta.media.0.codec.sample_rate">44100</property>
  <property name="meta.media.0.codec.channels">2</property>
  <property name="meta.media.0.codec.name">pcm_s16le</property>
  <property name="meta.media.0.codec.long_name">PCM signed 16-bit little-endian</property>
  <property name="meta.media.0.codec.bit_rate">1411200</property>
  <property name="meta.attr.encoder.markup">Lavf60.16.100</property>
  <property name="seekable">1</property>
  <property name="audio_index">0</property>
  <property name="video_index">-1</property>
  <property name="mute_on_pause">1</property>
  <property name="mlt_service">avformat</property>
  <property name="kdenlive:clipname"/>
  <property name="kdenlive:clip_type">1</property>
  <property name="kdenlive:folderid">256</property>
  <property name="kdenlive:id">276</property>
  <property name="kdenlive:file_size">373326</property>
  <property name="kdenlive:file_hash">a358673aa3c25a98051e54b8080642da</property>
  <property name="kdenlive:audio_max0">198</property>
 </producer>
 <producer id="producer249" in="00:00:00.000" out="00:00:01.850">
  <property name="length">112</property>
  <property name="eof">pause</property>
  <property name="resource">/home/federico/Nextcloud/Kden/EditingUT/Sound/Games/mine "claymore"   from game mw 2019.wav</property>
  <property name="meta.media.nb_streams">1</property>
  <property name="meta.media.0.stream.type">audio</property>
  <property name="meta.media.0.codec.sample_fmt">s16</property>
  <property name="meta.media.0.codec.sample_rate">48000</property>
  <property name="meta.media.0.codec.channels">2</property>
  <property name="meta.media.0.codec.name">pcm_s16le</property>
  <property name="meta.media.0.codec.long_name">PCM signed 16-bit little-endian</property>
  <property name="meta.media.0.codec.bit_rate">1536000</property>
  <property name="meta.attr.artist.markup">BoostSound</property>
  <property name="meta.attr.comment.markup">https://www.youtube.com/watch?v=pLQk3Ln_tOY</property>
  <property name="meta.attr.date.markup">2023</property>
  <property name="meta.attr.title.markup">Mine "Claymore" sound (Sound effect) from game MW 2019</property>
  <property name="meta.attr.encoder.markup">Lavf60.16.100</property>
  <property name="seekable">1</property>
  <property name="audio_index">0</property>
  <property name="video_index">-1</property>
  <property name="mute_on_pause">1</property>
  <property name="mlt_service">avformat</property>
  <property name="kdenlive:clipname"/>
  <property name="kdenlive:clip_type">1</property>
  <property name="kdenlive:folderid">256</property>
  <property name="kdenlive:id">277</property>
  <property name="kdenlive:file_size">359116</property>
  <property name="kdenlive:file_hash">0676be42d88a2fe5c6fb95ee4bdf49fb</property>
  <property name="kdenlive:audio_max0">249</property>
 </producer>
 <producer id="producer250" in="00:00:00.000" out="00:00:03.333">
  <property name="length">201</property>
  <property name="eof">pause</property>
  <property name="resource">/home/federico/Nextcloud/Kden/EditingUT/Sound/Games/mission failed well get em next time.wav</property>
  <property name="meta.media.nb_streams">1</property>
  <property name="meta.media.0.stream.type">audio</property>
  <property name="meta.media.0.codec.sample_fmt">s16</property>
  <property name="meta.media.0.codec.sample_rate">44100</property>
  <property name="meta.media.0.codec.channels">2</property>
  <property name="meta.media.0.codec.name">pcm_s16le</property>
  <property name="meta.media.0.codec.long_name">PCM signed 16-bit little-endian</property>
  <property name="meta.media.0.codec.bit_rate">1411200</property>
  <property name="meta.attr.encoder.markup">Lavf60.16.100</property>
  <property name="seekable">1</property>
  <property name="audio_index">0</property>
  <property name="video_index">-1</property>
  <property name="mute_on_pause">1</property>
  <property name="mlt_service">avformat</property>
  <property name="kdenlive:clipname"/>
  <property name="kdenlive:clip_type">1</property>
  <property name="kdenlive:folderid">256</property>
  <property name="kdenlive:id">278</property>
  <property name="kdenlive:file_size">589902</property>
  <property name="kdenlive:file_hash">cefce80787929d5fc240e40db219e4b3</property>
  <property name="kdenlive:audio_max0">216</property>
 </producer>
 <producer id="producer251" in="00:00:00.000" out="00:00:01.100">
  <property name="length">67</property>
  <property name="eof">pause</property>
  <property name="resource">/home/federico/Nextcloud/Kden/EditingUT/Sound/Games/nope construction worker tf2 - gaming.wav</property>
  <property name="meta.media.nb_streams">1</property>
  <property name="meta.media.0.stream.type">audio</property>
  <property name="meta.media.0.codec.sample_fmt">s16</property>
  <property name="meta.media.0.codec.sample_rate">44100</property>
  <property name="meta.media.0.codec.channels">2</property>
  <property name="meta.media.0.codec.name">pcm_s16le</property>
  <property name="meta.media.0.codec.long_name">PCM signed 16-bit little-endian</property>
  <property name="meta.media.0.codec.bit_rate">1411200</property>
  <property name="meta.attr.encoder.markup">Lavf60.16.100</property>
  <property name="seekable">1</property>
  <property name="audio_index">0</property>
  <property name="video_index">-1</property>
  <property name="mute_on_pause">1</property>
  <property name="mlt_service">avformat</property>
  <property name="kdenlive:clipname"/>
  <property name="kdenlive:clip_type">1</property>
  <property name="kdenlive:folderid">256</property>
  <property name="kdenlive:id">279</property>
  <property name="kdenlive:file_size">198222</property>
  <property name="kdenlive:file_hash">a12598642399e8cd8b59955cb968000b</property>
  <property name="kdenlive:audio_max0">217</property>
 </producer>
 <producer id="producer252" in="00:00:00.000" out="00:00:02.733">
  <property name="length">165</property>
  <property name="eof">pause</property>
  <property name="resource">/home/federico/Nextcloud/Kden/EditingUT/Sound/Games/player heartbeat.wav</property>
  <property name="meta.media.nb_streams">1</property>
  <property name="meta.media.0.stream.type">audio</property>
  <property name="meta.media.0.codec.sample_fmt">s16</property>
  <property name="meta.media.0.codec.sample_rate">44100</property>
  <property name="meta.media.0.codec.channels">2</property>
  <property name="meta.media.0.codec.name">pcm_s16le</property>
  <property name="meta.media.0.codec.long_name">PCM signed 16-bit little-endian</property>
  <property name="meta.media.0.codec.bit_rate">1411200</property>
  <property name="meta.attr.encoder.markup">Lavf60.16.100</property>
  <property name="seekable">1</property>
  <property name="audio_index">0</property>
  <property name="video_index">-1</property>
  <property name="mute_on_pause">1</property>
  <property name="mlt_service">avformat</property>
  <property name="kdenlive:clipname"/>
  <property name="kdenlive:clip_type">1</property>
  <property name="kdenlive:folderid">256</property>
  <property name="kdenlive:id">280</property>
  <property name="kdenlive:file_size">483918</property>
  <property name="kdenlive:file_hash">ab1e29c6b9782fa152ede847cf8b7c71</property>
  <property name="kdenlive:audio_max0">238</property>
 </producer>
 <producer id="producer254" in="00:00:00.000" out="00:00:01.883">
  <property name="length">114</property>
  <property name="eof">pause</property>
  <property name="resource">/home/federico/Nextcloud/Kden/EditingUT/Sound/Games/pokémon redblueyellow - run away -.wav</property>
  <property name="meta.media.nb_streams">1</property>
  <property name="meta.media.0.stream.type">audio</property>
  <property name="meta.media.0.codec.sample_fmt">s16</property>
  <property name="meta.media.0.codec.sample_rate">44100</property>
  <property name="meta.media.0.codec.channels">2</property>
  <property name="meta.media.0.codec.name">pcm_s16le</property>
  <property name="meta.media.0.codec.long_name">PCM signed 16-bit little-endian</property>
  <property name="meta.media.0.codec.bit_rate">1411200</property>
  <property name="meta.attr.encoder.markup">Lavf60.16.100</property>
  <property name="seekable">1</property>
  <property name="audio_index">0</property>
  <property name="video_index">-1</property>
  <property name="mute_on_pause">1</property>
  <property name="mlt_service">avformat</property>
  <property name="kdenlive:clipname"/>
  <property name="kdenlive:clip_type">1</property>
  <property name="kdenlive:folderid">256</property>
  <property name="kdenlive:id">281</property>
  <property name="kdenlive:file_size">336462</property>
  <property name="kdenlive:file_hash">f5e35f5f01390110f3cfe10cbbb75329</property>
  <property name="kdenlive:audio_max0">157</property>
 </producer>
 <producer id="producer253" in="00:00:00.000" out="00:00:03.033">
  <property name="length">183</property>
  <property name="eof">pause</property>
  <property name="resource">/home/federico/Nextcloud/Kden/EditingUT/Sound/Games/roblox death  -.wav</property>
  <property name="meta.media.nb_streams">1</property>
  <property name="meta.media.0.stream.type">audio</property>
  <property name="meta.media.0.codec.sample_fmt">s16</property>
  <property name="meta.media.0.codec.sample_rate">44100</property>
  <property name="meta.media.0.codec.channels">2</property>
  <property name="meta.media.0.codec.name">pcm_s16le</property>
  <property name="meta.media.0.codec.long_name">PCM signed 16-bit little-endian</property>
  <property name="meta.media.0.codec.bit_rate">1411200</property>
  <property name="meta.attr.encoder.markup">Lavf60.16.100</property>
  <property name="seekable">1</property>
  <property name="audio_index">0</property>
  <property name="video_index">-1</property>
  <property name="mute_on_pause">1</property>
  <property name="mlt_service">avformat</property>
  <property name="kdenlive:clipname"/>
  <property name="kdenlive:clip_type">1</property>
  <property name="kdenlive:folderid">256</property>
  <property name="kdenlive:id">282</property>
  <property name="kdenlive:file_size">539214</property>
  <property name="kdenlive:file_hash">d55c4c62838c59d6b87bc4ea59fc5488</property>
  <property name="kdenlive:audio_max0">244</property>
 </producer>
 <producer id="producer256" in="00:00:00.000" out="00:00:04.033">
  <property name="length">243</property>
  <property name="eof">pause</property>
  <property name="resource">/home/federico/Nextcloud/Kden/EditingUT/Sound/Games/roblox wave bye ..wav</property>
  <property name="meta.media.nb_streams">1</property>
  <property name="meta.media.0.stream.type">audio</property>
  <property name="meta.media.0.codec.sample_fmt">s16</property>
  <property name="meta.media.0.codec.sample_rate">44100</property>
  <property name="meta.media.0.codec.channels">2</property>
  <property name="meta.media.0.codec.name">pcm_s16le</property>
  <property name="meta.media.0.codec.long_name">PCM signed 16-bit little-endian</property>
  <property name="meta.media.0.codec.bit_rate">1411200</property>
  <property name="meta.attr.encoder.markup">Lavf60.16.100</property>
  <property name="seekable">1</property>
  <property name="audio_index">0</property>
  <property name="video_index">-1</property>
  <property name="mute_on_pause">1</property>
  <property name="mlt_service">avformat</property>
  <property name="kdenlive:clipname"/>
  <property name="kdenlive:clip_type">1</property>
  <property name="kdenlive:folderid">256</property>
  <property name="kdenlive:id">283</property>
  <property name="kdenlive:file_size">714318</property>
  <property name="kdenlive:file_hash">132613a94db00206c61fb4d807a36c44</property>
  <property name="kdenlive:audio_max0">138</property>
 </producer>
 <producer id="producer255" in="00:00:00.000" out="00:00:02.733">
  <property name="length">165</property>
  <property name="eof">pause</property>
  <property name="resource">/home/federico/Nextcloud/Kden/EditingUT/Sound/Games/round 2 fight! mortal kombat meme -.wav</property>
  <property name="meta.media.nb_streams">1</property>
  <property name="meta.media.0.stream.type">audio</property>
  <property name="meta.media.0.codec.sample_fmt">s16</property>
  <property name="meta.media.0.codec.sample_rate">44100</property>
  <property name="meta.media.0.codec.channels">2</property>
  <property name="meta.media.0.codec.name">pcm_s16le</property>
  <property name="meta.media.0.codec.long_name">PCM signed 16-bit little-endian</property>
  <property name="meta.media.0.codec.bit_rate">1411200</property>
  <property name="meta.attr.encoder.markup">Lavf60.16.100</property>
  <property name="seekable">1</property>
  <property name="audio_index">0</property>
  <property name="video_index">-1</property>
  <property name="mute_on_pause">1</property>
  <property name="mlt_service">avformat</property>
  <property name="kdenlive:clipname"/>
  <property name="kdenlive:clip_type">1</property>
  <property name="kdenlive:folderid">256</property>
  <property name="kdenlive:id">284</property>
  <property name="kdenlive:file_size">483918</property>
  <property name="kdenlive:file_hash">12e890c2d7b72bf07d783122ae8ad502</property>
  <property name="kdenlive:audio_max0">164</property>
 </producer>
 <producer id="producer257" in="00:00:00.000" out="00:00:07.083">
  <property name="length">426</property>
  <property name="eof">pause</property>
  <property name="resource">/home/federico/Nextcloud/Kden/EditingUT/Sound/Games/siegmeyer - mmm mmm mmm.wav</property>
  <property name="meta.media.nb_streams">1</property>
  <property name="meta.media.0.stream.type">audio</property>
  <property name="meta.media.0.codec.sample_fmt">s16</property>
  <property name="meta.media.0.codec.sample_rate">44100</property>
  <property name="meta.media.0.codec.channels">2</property>
  <property name="meta.media.0.codec.name">pcm_s16le</property>
  <property name="meta.media.0.codec.long_name">PCM signed 16-bit little-endian</property>
  <property name="meta.media.0.codec.bit_rate">1411200</property>
  <property name="meta.attr.encoder.markup">Lavf60.16.100</property>
  <property name="seekable">1</property>
  <property name="audio_index">0</property>
  <property name="video_index">-1</property>
  <property name="mute_on_pause">1</property>
  <property name="mlt_service">avformat</property>
  <property name="kdenlive:clipname"/>
  <property name="kdenlive:clip_type">1</property>
  <property name="kdenlive:folderid">256</property>
  <property name="kdenlive:id">285</property>
  <property name="kdenlive:file_size">1253454</property>
  <property name="kdenlive:file_hash">c4c5844175fc52783d83b5fbcd94bad3</property>
  <property name="kdenlive:audio_max0">227</property>
 </producer>
 <producer id="producer258" in="00:00:00.000" out="00:00:10.067">
  <property name="length">605</property>
  <property name="eof">pause</property>
  <property name="resource">/home/federico/Nextcloud/Kden/EditingUT/Sound/Games/stun-granade-flash-ultra-.wav</property>
  <property name="meta.media.nb_streams">1</property>
  <property name="meta.media.0.stream.type">audio</property>
  <property name="meta.media.0.codec.sample_fmt">s16</property>
  <property name="meta.media.0.codec.sample_rate">48000</property>
  <property name="meta.media.0.codec.channels">2</property>
  <property name="meta.media.0.codec.name">pcm_s16le</property>
  <property name="meta.media.0.codec.long_name">PCM signed 16-bit little-endian</property>
  <property name="meta.media.0.codec.bit_rate">1536000</property>
  <property name="meta.attr.artist.markup">Saidaxyor</property>
  <property name="meta.attr.comment.markup">https://www.youtube.com/watch?v=O6A55XfRiBQ</property>
  <property name="meta.attr.date.markup">2020</property>
  <property name="meta.attr.title.markup">"The sound of a stun grenade that blinded and deafened" Sound effect (HD)</property>
  <property name="meta.attr.encoder.markup">Lavf60.16.100</property>
  <property name="seekable">1</property>
  <property name="audio_index">0</property>
  <property name="video_index">-1</property>
  <property name="mute_on_pause">1</property>
  <property name="mlt_service">avformat</property>
  <property name="kdenlive:clipname"/>
  <property name="kdenlive:clip_type">1</property>
  <property name="kdenlive:folderid">256</property>
  <property name="kdenlive:id">286</property>
  <property name="kdenlive:file_size">1935120</property>
  <property name="kdenlive:file_hash">a69743ad14443ff292f759750b6c1477</property>
  <property name="kdenlive:audio_max0">234</property>
 </producer>
 <producer id="producer259" in="00:00:00.000" out="00:00:45.883">
  <property name="length">2754</property>
  <property name="eof">pause</property>
  <property name="resource">/home/federico/Nextcloud/Kden/EditingUT/Sound/Games/tactical nuke incoming mw2 alarm.wav</property>
  <property name="meta.media.nb_streams">1</property>
  <property name="meta.media.0.stream.type">audio</property>
  <property name="meta.media.0.codec.sample_fmt">s16</property>
  <property name="meta.media.0.codec.sample_rate">44100</property>
  <property name="meta.media.0.codec.channels">2</property>
  <property name="meta.media.0.codec.name">pcm_s16le</property>
  <property name="meta.media.0.codec.long_name">PCM signed 16-bit little-endian</property>
  <property name="meta.media.0.codec.bit_rate">1411200</property>
  <property name="meta.attr.encoder.markup">Lavf60.16.100</property>
  <property name="seekable">1</property>
  <property name="audio_index">0</property>
  <property name="video_index">-1</property>
  <property name="mute_on_pause">1</property>
  <property name="mlt_service">avformat</property>
  <property name="kdenlive:clipname"/>
  <property name="kdenlive:clip_type">1</property>
  <property name="kdenlive:folderid">256</property>
  <property name="kdenlive:id">287</property>
  <property name="kdenlive:file_size">8096334</property>
  <property name="kdenlive:file_hash">91871c220d543f4b79da6c87caefdb17</property>
  <property name="kdenlive:audio_max0">230</property>
 </producer>
 <producer id="producer260" in="00:00:00.000" out="00:00:01.467">
  <property name="length">89</property>
  <property name="eof">pause</property>
  <property name="resource">/home/federico/Nextcloud/Kden/EditingUT/Sound/Games/tango down -.wav</property>
  <property name="meta.media.nb_streams">1</property>
  <property name="meta.media.0.stream.type">audio</property>
  <property name="meta.media.0.codec.sample_fmt">s16</property>
  <property name="meta.media.0.codec.sample_rate">44100</property>
  <property name="meta.media.0.codec.channels">2</property>
  <property name="meta.media.0.codec.name">pcm_s16le</property>
  <property name="meta.media.0.codec.long_name">PCM signed 16-bit little-endian</property>
  <property name="meta.media.0.codec.bit_rate">1411200</property>
  <property name="meta.attr.encoder.markup">Lavf60.16.100</property>
  <property name="seekable">1</property>
  <property name="audio_index">0</property>
  <property name="video_index">-1</property>
  <property name="mute_on_pause">1</property>
  <property name="mlt_service">avformat</property>
  <property name="kdenlive:clipname"/>
  <property name="kdenlive:clip_type">1</property>
  <property name="kdenlive:folderid">256</property>
  <property name="kdenlive:id">288</property>
  <property name="kdenlive:file_size">262734</property>
  <property name="kdenlive:file_hash">9eb29843b315054a03679a1cc4a23f34</property>
  <property name="kdenlive:audio_max0">228</property>
 </producer>
 <producer id="producer261" in="00:00:00.000" out="00:00:03.100">
  <property name="length">187</property>
  <property name="eof">pause</property>
  <property name="resource">/home/federico/Nextcloud/Kden/EditingUT/Sound/Games/teleport.wav</property>
  <property name="meta.media.nb_streams">1</property>
  <property name="meta.media.0.stream.type">audio</property>
  <property name="meta.media.0.codec.sample_fmt">s16</property>
  <property name="meta.media.0.codec.sample_rate">44100</property>
  <property name="meta.media.0.codec.channels">2</property>
  <property name="meta.media.0.codec.name">pcm_s16le</property>
  <property name="meta.media.0.codec.long_name">PCM signed 16-bit little-endian</property>
  <property name="meta.media.0.codec.bit_rate">1411200</property>
  <property name="meta.attr.encoder.markup">Lavf60.16.100</property>
  <property name="seekable">1</property>
  <property name="audio_index">0</property>
  <property name="video_index">-1</property>
  <property name="mute_on_pause">1</property>
  <property name="mlt_service">avformat</property>
  <property name="kdenlive:clipname"/>
  <property name="kdenlive:clip_type">1</property>
  <property name="kdenlive:folderid">256</property>
  <property name="kdenlive:id">289</property>
  <property name="kdenlive:file_size">548430</property>
  <property name="kdenlive:file_hash">287d35b716b820d389c3115e53ed9c26</property>
  <property name="kdenlive:audio_max0">171</property>
 </producer>
 <producer id="producer262" in="00:00:00.000" out="00:00:03.217">
  <property name="length">194</property>
  <property name="eof">pause</property>
  <property name="resource">/home/federico/Nextcloud/Kden/EditingUT/Sound/Games/tf2 domination an revenge  at the same time.wav</property>
  <property name="meta.media.nb_streams">1</property>
  <property name="meta.media.0.stream.type">audio</property>
  <property name="meta.media.0.codec.sample_fmt">s16</property>
  <property name="meta.media.0.codec.sample_rate">44100</property>
  <property name="meta.media.0.codec.channels">2</property>
  <property name="meta.media.0.codec.name">pcm_s16le</property>
  <property name="meta.media.0.codec.long_name">PCM signed 16-bit little-endian</property>
  <property name="meta.media.0.codec.bit_rate">1411200</property>
  <property name="meta.attr.encoder.markup">Lavf60.16.100</property>
  <property name="seekable">1</property>
  <property name="audio_index">0</property>
  <property name="video_index">-1</property>
  <property name="mute_on_pause">1</property>
  <property name="mlt_service">avformat</property>
  <property name="kdenlive:clipname"/>
  <property name="kdenlive:clip_type">1</property>
  <property name="kdenlive:folderid">256</property>
  <property name="kdenlive:id">290</property>
  <property name="kdenlive:file_size">571470</property>
  <property name="kdenlive:file_hash">35624889e371d640e2222597876d55ac</property>
  <property name="kdenlive:audio_max0">244</property>
 </producer>
 <producer id="producer263" in="00:00:00.000" out="00:00:03.850">
  <property name="length">232</property>
  <property name="eof">pause</property>
  <property name="resource">/home/federico/Nextcloud/Kden/EditingUT/Sound/Games/the  of him eating a sandwich heavy tf2.wav</property>
  <property name="meta.media.nb_streams">1</property>
  <property name="meta.media.0.stream.type">audio</property>
  <property name="meta.media.0.codec.sample_fmt">s16</property>
  <property name="meta.media.0.codec.sample_rate">44100</property>
  <property name="meta.media.0.codec.channels">2</property>
  <property name="meta.media.0.codec.name">pcm_s16le</property>
  <property name="meta.media.0.codec.long_name">PCM signed 16-bit little-endian</property>
  <property name="meta.media.0.codec.bit_rate">1411200</property>
  <property name="meta.attr.encoder.markup">Lavf60.16.100</property>
  <property name="seekable">1</property>
  <property name="audio_index">0</property>
  <property name="video_index">-1</property>
  <property name="mute_on_pause">1</property>
  <property name="mlt_service">avformat</property>
  <property name="kdenlive:clipname"/>
  <property name="kdenlive:clip_type">1</property>
  <property name="kdenlive:folderid">256</property>
  <property name="kdenlive:id">291</property>
  <property name="kdenlive:file_size">682062</property>
  <property name="kdenlive:file_hash">0df34e126e1e497bb34887b759a9e46a</property>
  <property name="kdenlive:audio_max0">98</property>
 </producer>
 <producer id="producer264" in="00:00:00.000" out="00:00:00.983">
  <property name="length">60</property>
  <property name="eof">pause</property>
  <property name="resource">/home/federico/Nextcloud/Kden/EditingUT/Sound/Games/throwing flashbang  cs go.wav</property>
  <property name="meta.media.nb_streams">1</property>
  <property name="meta.media.0.stream.type">audio</property>
  <property name="meta.media.0.codec.sample_fmt">s16</property>
  <property name="meta.media.0.codec.sample_rate">44100</property>
  <property name="meta.media.0.codec.channels">2</property>
  <property name="meta.media.0.codec.name">pcm_s16le</property>
  <property name="meta.media.0.codec.long_name">PCM signed 16-bit little-endian</property>
  <property name="meta.media.0.codec.bit_rate">1411200</property>
  <property name="meta.attr.encoder.markup">Lavf60.16.100</property>
  <property name="seekable">1</property>
  <property name="audio_index">0</property>
  <property name="video_index">-1</property>
  <property name="mute_on_pause">1</property>
  <property name="mlt_service">avformat</property>
  <property name="kdenlive:clipname"/>
  <property name="kdenlive:clip_type">1</property>
  <property name="kdenlive:folderid">256</property>
  <property name="kdenlive:id">292</property>
  <property name="kdenlive:file_size">175182</property>
  <property name="kdenlive:file_hash">1e52df74bf92a53d04f9634ac74030a9</property>
  <property name="kdenlive:audio_max0">225</property>
 </producer>
 <producer id="producer265" in="00:00:00.000" out="00:00:01.633">
  <property name="length">99</property>
  <property name="eof">pause</property>
  <property name="resource">/home/federico/Nextcloud/Kden/EditingUT/Sound/Games/you picked the wrong house fool.wav</property>
  <property name="meta.media.nb_streams">1</property>
  <property name="meta.media.0.stream.type">audio</property>
  <property name="meta.media.0.codec.sample_fmt">s16</property>
  <property name="meta.media.0.codec.sample_rate">44100</property>
  <property name="meta.media.0.codec.channels">2</property>
  <property name="meta.media.0.codec.name">pcm_s16le</property>
  <property name="meta.media.0.codec.long_name">PCM signed 16-bit little-endian</property>
  <property name="meta.media.0.codec.bit_rate">1411200</property>
  <property name="meta.attr.encoder.markup">Lavf60.16.100</property>
  <property name="seekable">1</property>
  <property name="audio_index">0</property>
  <property name="video_index">-1</property>
  <property name="mute_on_pause">1</property>
  <property name="mlt_service">avformat</property>
  <property name="kdenlive:clipname"/>
  <property name="kdenlive:clip_type">1</property>
  <property name="kdenlive:folderid">256</property>
  <property name="kdenlive:id">293</property>
  <property name="kdenlive:file_size">290382</property>
  <property name="kdenlive:file_hash">62b72916405ba2386f36a6f54f860503</property>
  <property name="kdenlive:audio_max0">144</property>
 </producer>
 <producer id="producer266" in="00:00:00.000" out="00:00:01.233">
  <property name="length">75</property>
  <property name="eof">pause</property>
  <property name="resource">/home/federico/Nextcloud/Kden/EditingUT/Sound/Gun_Shot/barret sniper shot.wav</property>
  <property name="meta.media.nb_streams">1</property>
  <property name="meta.media.0.stream.type">audio</property>
  <property name="meta.media.0.codec.sample_fmt">s16</property>
  <property name="meta.media.0.codec.sample_rate">48000</property>
  <property name="meta.media.0.codec.channels">2</property>
  <property name="meta.media.0.codec.name">pcm_s16le</property>
  <property name="meta.media.0.codec.long_name">PCM signed 16-bit little-endian</property>
  <property name="meta.media.0.codec.bit_rate">1536000</property>
  <property name="meta.attr.encoder.markup">Lavf60.16.100</property>
  <property name="seekable">1</property>
  <property name="audio_index">0</property>
  <property name="video_index">-1</property>
  <property name="mute_on_pause">1</property>
  <property name="mlt_service">avformat</property>
  <property name="kdenlive:clipname"/>
  <property name="kdenlive:clip_type">1</property>
  <property name="kdenlive:folderid">294</property>
  <property name="kdenlive:id">295</property>
  <property name="kdenlive:file_size">239694</property>
  <property name="kdenlive:file_hash">135db5505aba17f2dbe22b6213f9dcb1</property>
  <property name="kdenlive:audio_max0">240</property>
 </producer>
 <producer id="producer267" in="00:00:00.000" out="00:00:02.600">
  <property name="length">157</property>
  <property name="eof">pause</property>
  <property name="resource">/home/federico/Nextcloud/Kden/EditingUT/Sound/Gun_Shot/gun reload.wav</property>
  <property name="meta.media.nb_streams">1</property>
  <property name="meta.media.0.stream.type">audio</property>
  <property name="meta.media.0.codec.sample_fmt">s16</property>
  <property name="meta.media.0.codec.sample_rate">44100</property>
  <property name="meta.media.0.codec.channels">2</property>
  <property name="meta.media.0.codec.name">pcm_s16le</property>
  <property name="meta.media.0.codec.long_name">PCM signed 16-bit little-endian</property>
  <property name="meta.media.0.codec.bit_rate">1411200</property>
  <property name="meta.attr.encoder.markup">Lavf60.16.100</property>
  <property name="seekable">1</property>
  <property name="audio_index">0</property>
  <property name="video_index">-1</property>
  <property name="mute_on_pause">1</property>
  <property name="mlt_service">avformat</property>
  <property name="kdenlive:clipname"/>
  <property name="kdenlive:clip_type">1</property>
  <property name="kdenlive:folderid">294</property>
  <property name="kdenlive:id">296</property>
  <property name="kdenlive:file_size">460878</property>
  <property name="kdenlive:file_hash">bf0ccaa627da0085c59b0dc9354e02bd</property>
  <property name="kdenlive:audio_max0">128</property>
 </producer>
 <producer id="producer268" in="00:00:00.000" out="00:00:03.700">
  <property name="length">223</property>
  <property name="eof">pause</property>
  <property name="resource">/home/federico/Nextcloud/Kden/EditingUT/Sound/Gun_Shot/gun shot.wav</property>
  <property name="meta.media.nb_streams">1</property>
  <property name="meta.media.0.stream.type">audio</property>
  <property name="meta.media.0.codec.sample_fmt">s16</property>
  <property name="meta.media.0.codec.sample_rate">44100</property>
  <property name="meta.media.0.codec.channels">2</property>
  <property name="meta.media.0.codec.name">pcm_s16le</property>
  <property name="meta.media.0.codec.long_name">PCM signed 16-bit little-endian</property>
  <property name="meta.media.0.codec.bit_rate">1411200</property>
  <property name="meta.attr.encoder.markup">Lavf60.16.100</property>
  <property name="seekable">1</property>
  <property name="audio_index">0</property>
  <property name="video_index">-1</property>
  <property name="mute_on_pause">1</property>
  <property name="mlt_service">avformat</property>
  <property name="kdenlive:clipname"/>
  <property name="kdenlive:clip_type">1</property>
  <property name="kdenlive:folderid">294</property>
  <property name="kdenlive:id">297</property>
  <property name="kdenlive:file_size">654414</property>
  <property name="kdenlive:file_hash">8f284d917f65420ee6167894cb40d849</property>
  <property name="kdenlive:audio_max0">210</property>
 </producer>
 <producer id="producer270" in="00:00:00.000" out="00:00:01.700">
  <property name="length">103</property>
  <property name="eof">pause</property>
  <property name="resource">/home/federico/Nextcloud/Kden/EditingUT/Sound/Gun_Shot/headshot -  perfect cut.wav</property>
  <property name="meta.media.nb_streams">1</property>
  <property name="meta.media.0.stream.type">audio</property>
  <property name="meta.media.0.codec.sample_fmt">s16</property>
  <property name="meta.media.0.codec.sample_rate">48000</property>
  <property name="meta.media.0.codec.channels">2</property>
  <property name="meta.media.0.codec.name">pcm_s16le</property>
  <property name="meta.media.0.codec.long_name">PCM signed 16-bit little-endian</property>
  <property name="meta.media.0.codec.bit_rate">1536000</property>
  <property name="meta.attr.encoder.markup">Lavf59.16.100</property>
  <property name="seekable">1</property>
  <property name="audio_index">0</property>
  <property name="video_index">-1</property>
  <property name="mute_on_pause">1</property>
  <property name="mlt_service">avformat</property>
  <property name="kdenlive:clipname"/>
  <property name="kdenlive:clip_type">1</property>
  <property name="kdenlive:folderid">294</property>
  <property name="kdenlive:id">298</property>
  <property name="kdenlive:file_size">329678</property>
  <property name="kdenlive:file_hash">b4b6b9491d21e5ca7962af5f7df32e9a</property>
  <property name="kdenlive:audio_max0">168</property>
 </producer>
 <producer id="producer269" in="00:00:00.000" out="00:00:18.250">
  <property name="length">1096</property>
  <property name="eof">pause</property>
  <property name="resource">/home/federico/Nextcloud/Kden/EditingUT/Sound/Gun_Shot/machine gun s.wav</property>
  <property name="meta.media.nb_streams">1</property>
  <property name="meta.media.0.stream.type">audio</property>
  <property name="meta.media.0.codec.sample_fmt">s16</property>
  <property name="meta.media.0.codec.sample_rate">44100</property>
  <property name="meta.media.0.codec.channels">2</property>
  <property name="meta.media.0.codec.name">pcm_s16le</property>
  <property name="meta.media.0.codec.long_name">PCM signed 16-bit little-endian</property>
  <property name="meta.media.0.codec.bit_rate">1411200</property>
  <property name="meta.attr.encoder.markup">Lavf60.16.100</property>
  <property name="seekable">1</property>
  <property name="audio_index">0</property>
  <property name="video_index">-1</property>
  <property name="mute_on_pause">1</property>
  <property name="mlt_service">avformat</property>
  <property name="kdenlive:clipname"/>
  <property name="kdenlive:clip_type">1</property>
  <property name="kdenlive:folderid">294</property>
  <property name="kdenlive:id">299</property>
  <property name="kdenlive:file_size">3221070</property>
  <property name="kdenlive:file_hash">80ee3d6ba27c7b2deb585b5955deaaaa</property>
  <property name="kdenlive:audio_max0">249</property>
  <property name="kdenlive:zone_in">111</property>
  <property name="kdenlive:zone_out">337</property>
 </producer>
 <producer id="producer271" in="00:00:00.000" out="00:00:02.883">
  <property name="length">174</property>
  <property name="eof">pause</property>
  <property name="resource">/home/federico/Nextcloud/Kden/EditingUT/Sound/Gun_Shot/rick and morty portal gun.wav</property>
  <property name="meta.media.nb_streams">1</property>
  <property name="meta.media.0.stream.type">audio</property>
  <property name="meta.media.0.codec.sample_fmt">s16</property>
  <property name="meta.media.0.codec.sample_rate">44100</property>
  <property name="meta.media.0.codec.channels">2</property>
  <property name="meta.media.0.codec.name">pcm_s16le</property>
  <property name="meta.media.0.codec.long_name">PCM signed 16-bit little-endian</property>
  <property name="meta.media.0.codec.bit_rate">1411200</property>
  <property name="meta.attr.encoder.markup">Lavf60.16.100</property>
  <property name="seekable">1</property>
  <property name="audio_index">0</property>
  <property name="video_index">-1</property>
  <property name="mute_on_pause">1</property>
  <property name="mlt_service">avformat</property>
  <property name="kdenlive:clipname"/>
  <property name="kdenlive:clip_type">1</property>
  <property name="kdenlive:folderid">294</property>
  <property name="kdenlive:id">300</property>
  <property name="kdenlive:file_size">511566</property>
  <property name="kdenlive:file_hash">f1f118ca2dd3c05f5dc317bfb068cdef</property>
  <property name="kdenlive:audio_max0">211</property>
 </producer>
 <producer id="producer272" in="00:00:00.000" out="00:00:02.283">
  <property name="length">138</property>
  <property name="eof">pause</property>
  <property name="resource">/home/federico/Nextcloud/Kden/EditingUT/Sound/Gun_Shot/sniper shot.wav</property>
  <property name="meta.media.nb_streams">1</property>
  <property name="meta.media.0.stream.type">audio</property>
  <property name="meta.media.0.codec.sample_fmt">s16</property>
  <property name="meta.media.0.codec.sample_rate">44100</property>
  <property name="meta.media.0.codec.channels">2</property>
  <property name="meta.media.0.codec.name">pcm_s16le</property>
  <property name="meta.media.0.codec.long_name">PCM signed 16-bit little-endian</property>
  <property name="meta.media.0.codec.bit_rate">1411200</property>
  <property name="meta.attr.encoder.markup">Lavf60.16.100</property>
  <property name="seekable">1</property>
  <property name="audio_index">0</property>
  <property name="video_index">-1</property>
  <property name="mute_on_pause">1</property>
  <property name="mlt_service">avformat</property>
  <property name="kdenlive:clipname"/>
  <property name="kdenlive:clip_type">1</property>
  <property name="kdenlive:folderid">294</property>
  <property name="kdenlive:id">301</property>
  <property name="kdenlive:file_size">405582</property>
  <property name="kdenlive:file_hash">b0c67794eec77bd8ff1712ae6d8c7e8b</property>
  <property name="kdenlive:audio_max0">204</property>
 </producer>
 <producer id="producer274" in="00:00:00.000" out="00:00:17.017">
  <property name="length">1022</property>
  <property name="eof">pause</property>
  <property name="resource">/home/federico/Nextcloud/Kden/EditingUT/Sound/Gun_Shot/tyler1 machine gun.wav</property>
  <property name="meta.media.nb_streams">1</property>
  <property name="meta.media.0.stream.type">audio</property>
  <property name="meta.media.0.codec.sample_fmt">s16</property>
  <property name="meta.media.0.codec.sample_rate">44100</property>
  <property name="meta.media.0.codec.channels">2</property>
  <property name="meta.media.0.codec.name">pcm_s16le</property>
  <property name="meta.media.0.codec.long_name">PCM signed 16-bit little-endian</property>
  <property name="meta.media.0.codec.bit_rate">1411200</property>
  <property name="meta.attr.encoder.markup">Lavf60.16.100</property>
  <property name="seekable">1</property>
  <property name="audio_index">0</property>
  <property name="video_index">-1</property>
  <property name="mute_on_pause">1</property>
  <property name="mlt_service">avformat</property>
  <property name="kdenlive:clipname"/>
  <property name="kdenlive:clip_type">1</property>
  <property name="kdenlive:folderid">294</property>
  <property name="kdenlive:id">302</property>
  <property name="kdenlive:file_size">3004494</property>
  <property name="kdenlive:file_hash">e09bbddb830e641eab6cf8e6c723367a</property>
  <property name="kdenlive:audio_max0">223</property>
 </producer>
 <producer id="producer273" in="00:00:00.000" out="00:00:04.683">
  <property name="length">282</property>
  <property name="eof">pause</property>
  <property name="resource">/home/federico/Nextcloud/Kden/EditingUT/Sound/Horn/car horn   car horn traffic.wav</property>
  <property name="meta.media.nb_streams">1</property>
  <property name="meta.media.0.stream.type">audio</property>
  <property name="meta.media.0.codec.sample_fmt">s16</property>
  <property name="meta.media.0.codec.sample_rate">48000</property>
  <property name="meta.media.0.codec.channels">2</property>
  <property name="meta.media.0.codec.name">pcm_s16le</property>
  <property name="meta.media.0.codec.long_name">PCM signed 16-bit little-endian</property>
  <property name="meta.media.0.codec.bit_rate">1536000</property>
  <property name="meta.attr.artist.markup">Car Features</property>
  <property name="meta.attr.comment.markup">https://www.youtube.com/watch?v=iFPBhBRMyfw</property>
  <property name="meta.attr.date.markup">2021</property>
  <property name="meta.attr.title.markup">Car Horn Sound Effect | Car Horn Traffic Sound Effect</property>
  <property name="meta.attr.encoder.markup">Lavf60.16.100</property>
  <property name="seekable">1</property>
  <property name="audio_index">0</property>
  <property name="video_index">-1</property>
  <property name="mute_on_pause">1</property>
  <property name="mlt_service">avformat</property>
  <property name="kdenlive:clipname"/>
  <property name="kdenlive:clip_type">1</property>
  <property name="kdenlive:folderid">303</property>
  <property name="kdenlive:id">304</property>
  <property name="kdenlive:file_size">903020</property>
  <property name="kdenlive:file_hash">fa656103eb2b249d50154c76a5e56433</property>
  <property name="kdenlive:audio_max0">219</property>
 </producer>
 <producer id="producer275" in="00:00:00.000" out="00:00:03.533">
  <property name="length">213</property>
  <property name="eof">pause</property>
  <property name="resource">/home/federico/Nextcloud/Kden/EditingUT/Sound/Horn/clown horn -.wav</property>
  <property name="meta.media.nb_streams">1</property>
  <property name="meta.media.0.stream.type">audio</property>
  <property name="meta.media.0.codec.sample_fmt">s16</property>
  <property name="meta.media.0.codec.sample_rate">44100</property>
  <property name="meta.media.0.codec.channels">2</property>
  <property name="meta.media.0.codec.name">pcm_s16le</property>
  <property name="meta.media.0.codec.long_name">PCM signed 16-bit little-endian</property>
  <property name="meta.media.0.codec.bit_rate">1411200</property>
  <property name="meta.attr.encoder.markup">Lavf60.16.100</property>
  <property name="seekable">1</property>
  <property name="audio_index">0</property>
  <property name="video_index">-1</property>
  <property name="mute_on_pause">1</property>
  <property name="mlt_service">avformat</property>
  <property name="kdenlive:clipname"/>
  <property name="kdenlive:clip_type">1</property>
  <property name="kdenlive:folderid">303</property>
  <property name="kdenlive:id">305</property>
  <property name="kdenlive:file_size">626766</property>
  <property name="kdenlive:file_hash">00298121c14b26ab4dd2e34c4e67a801</property>
  <property name="kdenlive:audio_max0">213</property>
 </producer>
 <producer id="producer276" in="00:00:00.000" out="00:00:04.583">
  <property name="length">276</property>
  <property name="eof">pause</property>
  <property name="resource">/home/federico/Nextcloud/Kden/EditingUT/Sound/Horn/dj airhorn  001.wav</property>
  <property name="meta.media.nb_streams">1</property>
  <property name="meta.media.0.stream.type">audio</property>
  <property name="meta.media.0.codec.sample_fmt">s16</property>
  <property name="meta.media.0.codec.sample_rate">44100</property>
  <property name="meta.media.0.codec.channels">2</property>
  <property name="meta.media.0.codec.name">pcm_s16le</property>
  <property name="meta.media.0.codec.long_name">PCM signed 16-bit little-endian</property>
  <property name="meta.media.0.codec.bit_rate">1411200</property>
  <property name="meta.attr.encoder.markup">Lavf60.16.100</property>
  <property name="seekable">1</property>
  <property name="audio_index">0</property>
  <property name="video_index">-1</property>
  <property name="mute_on_pause">1</property>
  <property name="mlt_service">avformat</property>
  <property name="kdenlive:clipname"/>
  <property name="kdenlive:clip_type">1</property>
  <property name="kdenlive:folderid">303</property>
  <property name="kdenlive:id">306</property>
  <property name="kdenlive:file_size">811086</property>
  <property name="kdenlive:file_hash">81558061e4c701cc560a64bce4175538</property>
  <property name="kdenlive:audio_max0">195</property>
 </producer>
 <producer id="producer277" in="00:00:00.000" out="00:00:07.617">
  <property name="length">458</property>
  <property name="eof">pause</property>
  <property name="resource">/home/federico/Nextcloud/Kden/EditingUT/Sound/Horn/dramatic inception horn.wav</property>
  <property name="meta.media.nb_streams">1</property>
  <property name="meta.media.0.stream.type">audio</property>
  <property name="meta.media.0.codec.sample_fmt">s16</property>
  <property name="meta.media.0.codec.sample_rate">48000</property>
  <property name="meta.media.0.codec.channels">2</property>
  <property name="meta.media.0.codec.name">pcm_s16le</property>
  <property name="meta.media.0.codec.long_name">PCM signed 16-bit little-endian</property>
  <property name="meta.media.0.codec.bit_rate">1536000</property>
  <property name="meta.attr.encoder.markup">Lavf59.16.100</property>
  <property name="seekable">1</property>
  <property name="audio_index">0</property>
  <property name="video_index">-1</property>
  <property name="mute_on_pause">1</property>
  <property name="mlt_service">avformat</property>
  <property name="kdenlive:clipname"/>
  <property name="kdenlive:clip_type">1</property>
  <property name="kdenlive:folderid">303</property>
  <property name="kdenlive:id">307</property>
  <property name="kdenlive:file_size">1465678</property>
  <property name="kdenlive:file_hash">df3e63333e262c2a029f7285bd5555b3</property>
  <property name="kdenlive:audio_max0">138</property>
 </producer>
 <producer id="producer278" in="00:00:00.000" out="00:00:04.083">
  <property name="length">246</property>
  <property name="eof">pause</property>
  <property name="resource">/home/federico/Nextcloud/Kden/EditingUT/Sound/Horn/hells kitchen dramatic.wav</property>
  <property name="meta.media.nb_streams">1</property>
  <property name="meta.media.0.stream.type">audio</property>
  <property name="meta.media.0.codec.sample_fmt">s16</property>
  <property name="meta.media.0.codec.sample_rate">44100</property>
  <property name="meta.media.0.codec.channels">2</property>
  <property name="meta.media.0.codec.name">pcm_s16le</property>
  <property name="meta.media.0.codec.long_name">PCM signed 16-bit little-endian</property>
  <property name="meta.media.0.codec.bit_rate">1411200</property>
  <property name="meta.attr.encoder.markup">Lavf60.16.100</property>
  <property name="seekable">1</property>
  <property name="audio_index">0</property>
  <property name="video_index">-1</property>
  <property name="mute_on_pause">1</property>
  <property name="mlt_service">avformat</property>
  <property name="kdenlive:clipname"/>
  <property name="kdenlive:clip_type">1</property>
  <property name="kdenlive:folderid">303</property>
  <property name="kdenlive:id">308</property>
  <property name="kdenlive:file_size">723534</property>
  <property name="kdenlive:file_hash">87d230b2738051e101f58ede95305f8d</property>
  <property name="kdenlive:audio_max0">185</property>
 </producer>
 <producer id="producer279" in="00:00:00.000" out="00:00:01.100">
  <property name="length">67</property>
  <property name="eof">pause</property>
  <property name="resource">/home/federico/Nextcloud/Kden/EditingUT/Sound/Horn/party horn -.wav</property>
  <property name="meta.media.nb_streams">1</property>
  <property name="meta.media.0.stream.type">audio</property>
  <property name="meta.media.0.codec.sample_fmt">s16</property>
  <property name="meta.media.0.codec.sample_rate">44100</property>
  <property name="meta.media.0.codec.channels">2</property>
  <property name="meta.media.0.codec.name">pcm_s16le</property>
  <property name="meta.media.0.codec.long_name">PCM signed 16-bit little-endian</property>
  <property name="meta.media.0.codec.bit_rate">1411200</property>
  <property name="meta.attr.encoder.markup">Lavf60.16.100</property>
  <property name="seekable">1</property>
  <property name="audio_index">0</property>
  <property name="video_index">-1</property>
  <property name="mute_on_pause">1</property>
  <property name="mlt_service">avformat</property>
  <property name="kdenlive:clipname"/>
  <property name="kdenlive:clip_type">1</property>
  <property name="kdenlive:folderid">303</property>
  <property name="kdenlive:id">309</property>
  <property name="kdenlive:file_size">198222</property>
  <property name="kdenlive:file_hash">c6786873e7108613f91569d59c81bdba</property>
  <property name="kdenlive:audio_max0">208</property>
 </producer>
 <producer id="producer282" in="00:00:00.000" out="00:00:05.317">
  <property name="length">320</property>
  <property name="eof">pause</property>
  <property name="resource">/home/federico/Nextcloud/Kden/EditingUT/Sound/Horn/train horn -.wav</property>
  <property name="meta.media.nb_streams">1</property>
  <property name="meta.media.0.stream.type">audio</property>
  <property name="meta.media.0.codec.sample_fmt">s16</property>
  <property name="meta.media.0.codec.sample_rate">44100</property>
  <property name="meta.media.0.codec.channels">2</property>
  <property name="meta.media.0.codec.name">pcm_s16le</property>
  <property name="meta.media.0.codec.long_name">PCM signed 16-bit little-endian</property>
  <property name="meta.media.0.codec.bit_rate">1411200</property>
  <property name="meta.attr.encoder.markup">Lavf60.16.100</property>
  <property name="seekable">1</property>
  <property name="audio_index">0</property>
  <property name="video_index">-1</property>
  <property name="mute_on_pause">1</property>
  <property name="mlt_service">avformat</property>
  <property name="kdenlive:clipname"/>
  <property name="kdenlive:clip_type">1</property>
  <property name="kdenlive:folderid">303</property>
  <property name="kdenlive:id">310</property>
  <property name="kdenlive:file_size">940110</property>
  <property name="kdenlive:file_hash">938e9dfc7cc85accc843d2dfc2669385</property>
  <property name="kdenlive:audio_max0">174</property>
  <property name="kdenlive:zone_in">50</property>
  <property name="kdenlive:zone_out">151</property>
 </producer>
 <producer id="producer280" in="00:00:00.000" out="00:00:04.083">
  <property name="length">246</property>
  <property name="eof">pause</property>
  <property name="resource">/home/federico/Nextcloud/Kden/EditingUT/Sound/Horn/truck horn honk.wav</property>
  <property name="meta.media.nb_streams">1</property>
  <property name="meta.media.0.stream.type">audio</property>
  <property name="meta.media.0.codec.sample_fmt">s16</property>
  <property name="meta.media.0.codec.sample_rate">44100</property>
  <property name="meta.media.0.codec.channels">2</property>
  <property name="meta.media.0.codec.name">pcm_s16le</property>
  <property name="meta.media.0.codec.long_name">PCM signed 16-bit little-endian</property>
  <property name="meta.media.0.codec.bit_rate">1411200</property>
  <property name="meta.attr.encoder.markup">Lavf60.16.100</property>
  <property name="seekable">1</property>
  <property name="audio_index">0</property>
  <property name="video_index">-1</property>
  <property name="mute_on_pause">1</property>
  <property name="mlt_service">avformat</property>
  <property name="kdenlive:clipname"/>
  <property name="kdenlive:clip_type">1</property>
  <property name="kdenlive:folderid">303</property>
  <property name="kdenlive:id">311</property>
  <property name="kdenlive:file_size">723534</property>
  <property name="kdenlive:file_hash">8e026036c843bf850975220854589b5a</property>
  <property name="kdenlive:audio_max0">213</property>
 </producer>
 <producer id="producer281" in="00:00:00.000" out="00:00:04.167">
  <property name="length">251</property>
  <property name="eof">pause</property>
  <property name="resource">/home/federico/Nextcloud/Kden/EditingUT/Sound/Mario/here we go - mario kart ds ost.wav</property>
  <property name="meta.media.nb_streams">1</property>
  <property name="meta.media.0.stream.type">audio</property>
  <property name="meta.media.0.codec.sample_fmt">s16</property>
  <property name="meta.media.0.codec.sample_rate">44100</property>
  <property name="meta.media.0.codec.channels">2</property>
  <property name="meta.media.0.codec.name">pcm_s16le</property>
  <property name="meta.media.0.codec.long_name">PCM signed 16-bit little-endian</property>
  <property name="meta.media.0.codec.bit_rate">1411200</property>
  <property name="meta.attr.encoder.markup">Lavf60.16.100</property>
  <property name="seekable">1</property>
  <property name="audio_index">0</property>
  <property name="video_index">-1</property>
  <property name="mute_on_pause">1</property>
  <property name="mlt_service">avformat</property>
  <property name="kdenlive:clipname"/>
  <property name="kdenlive:clip_type">1</property>
  <property name="kdenlive:folderid">312</property>
  <property name="kdenlive:id">313</property>
  <property name="kdenlive:file_size">737358</property>
  <property name="kdenlive:file_hash">a5730bcf4e5ce38b21fdb8a5b68a1b05</property>
  <property name="kdenlive:audio_max0">181</property>
 </producer>
 <producer id="producer283" in="00:00:00.000" out="00:00:01.467">
  <property name="length">89</property>
  <property name="eof">pause</property>
  <property name="resource">/home/federico/Nextcloud/Kden/EditingUT/Sound/Mario/here we go! mario.wav</property>
  <property name="meta.media.nb_streams">1</property>
  <property name="meta.media.0.stream.type">audio</property>
  <property name="meta.media.0.codec.sample_fmt">s16</property>
  <property name="meta.media.0.codec.sample_rate">44100</property>
  <property name="meta.media.0.codec.channels">2</property>
  <property name="meta.media.0.codec.name">pcm_s16le</property>
  <property name="meta.media.0.codec.long_name">PCM signed 16-bit little-endian</property>
  <property name="meta.media.0.codec.bit_rate">1411200</property>
  <property name="meta.attr.encoder.markup">Lavf60.16.100</property>
  <property name="seekable">1</property>
  <property name="audio_index">0</property>
  <property name="video_index">-1</property>
  <property name="mute_on_pause">1</property>
  <property name="mlt_service">avformat</property>
  <property name="kdenlive:clipname"/>
  <property name="kdenlive:clip_type">1</property>
  <property name="kdenlive:folderid">312</property>
  <property name="kdenlive:id">314</property>
  <property name="kdenlive:file_size">262734</property>
  <property name="kdenlive:file_hash">1ebdc44d5cbfd197b1ec860b8022e341</property>
  <property name="kdenlive:audio_max0">224</property>
 </producer>
 <producer id="producer284" in="00:00:00.000" out="00:00:01.767">
  <property name="length">107</property>
  <property name="eof">pause</property>
  <property name="resource">/home/federico/Nextcloud/Kden/EditingUT/Sound/Mario/mario coin  -.wav</property>
  <property name="meta.media.nb_streams">1</property>
  <property name="meta.media.0.stream.type">audio</property>
  <property name="meta.media.0.codec.sample_fmt">s16</property>
  <property name="meta.media.0.codec.sample_rate">44100</property>
  <property name="meta.media.0.codec.channels">2</property>
  <property name="meta.media.0.codec.name">pcm_s16le</property>
  <property name="meta.media.0.codec.long_name">PCM signed 16-bit little-endian</property>
  <property name="meta.media.0.codec.bit_rate">1411200</property>
  <property name="meta.attr.encoder.markup">Lavf60.16.100</property>
  <property name="seekable">1</property>
  <property name="audio_index">0</property>
  <property name="video_index">-1</property>
  <property name="mute_on_pause">1</property>
  <property name="mlt_service">avformat</property>
  <property name="kdenlive:clipname"/>
  <property name="kdenlive:clip_type">1</property>
  <property name="kdenlive:folderid">312</property>
  <property name="kdenlive:id">315</property>
  <property name="kdenlive:file_size">313422</property>
  <property name="kdenlive:file_hash">7bb40fb6516f822c2c04758ea9dabb6b</property>
  <property name="kdenlive:audio_max0">238</property>
 </producer>
 <producer id="producer285" in="00:00:00.000" out="00:00:02.800">
  <property name="length">169</property>
  <property name="eof">pause</property>
  <property name="resource">/home/federico/Nextcloud/Kden/EditingUT/Sound/Mario/mario death -.wav</property>
  <property name="meta.media.nb_streams">1</property>
  <property name="meta.media.0.stream.type">audio</property>
  <property name="meta.media.0.codec.sample_fmt">s16</property>
  <property name="meta.media.0.codec.sample_rate">44100</property>
  <property name="meta.media.0.codec.channels">2</property>
  <property name="meta.media.0.codec.name">pcm_s16le</property>
  <property name="meta.media.0.codec.long_name">PCM signed 16-bit little-endian</property>
  <property name="meta.media.0.codec.bit_rate">1411200</property>
  <property name="meta.attr.encoder.markup">Lavf60.16.100</property>
  <property name="seekable">1</property>
  <property name="audio_index">0</property>
  <property name="video_index">-1</property>
  <property name="mute_on_pause">1</property>
  <property name="mlt_service">avformat</property>
  <property name="kdenlive:clipname"/>
  <property name="kdenlive:clip_type">1</property>
  <property name="kdenlive:folderid">312</property>
  <property name="kdenlive:id">316</property>
  <property name="kdenlive:file_size">497742</property>
  <property name="kdenlive:file_hash">0602cfaae5f08176043050107b28f9a4</property>
  <property name="kdenlive:audio_max0">191</property>
 </producer>
 <producer id="producer287" in="00:00:00.000" out="00:00:00.783">
  <property name="length">48</property>
  <property name="eof">pause</property>
  <property name="resource">/home/federico/Nextcloud/Kden/EditingUT/Sound/Mario/mario jump - gaming.wav</property>
  <property name="meta.media.nb_streams">1</property>
  <property name="meta.media.0.stream.type">audio</property>
  <property name="meta.media.0.codec.sample_fmt">s16</property>
  <property name="meta.media.0.codec.sample_rate">48000</property>
  <property name="meta.media.0.codec.channels">2</property>
  <property name="meta.media.0.codec.name">pcm_s16le</property>
  <property name="meta.media.0.codec.long_name">PCM signed 16-bit little-endian</property>
  <property name="meta.media.0.codec.bit_rate">1536000</property>
  <property name="meta.attr.encoder.markup">Lavf59.16.100</property>
  <property name="seekable">1</property>
  <property name="audio_index">0</property>
  <property name="video_index">-1</property>
  <property name="mute_on_pause">1</property>
  <property name="mlt_service">avformat</property>
  <property name="kdenlive:clipname"/>
  <property name="kdenlive:clip_type">1</property>
  <property name="kdenlive:folderid">312</property>
  <property name="kdenlive:id">317</property>
  <property name="kdenlive:file_size">153678</property>
  <property name="kdenlive:file_hash">4a1684776cea5106fb773cb94ac22f07</property>
  <property name="kdenlive:audio_max0">182</property>
 </producer>
 <producer id="producer286" in="00:00:00.000" out="00:00:07.117">
  <property name="length">428</property>
  <property name="eof">pause</property>
  <property name="resource">/home/federico/Nextcloud/Kden/EditingUT/Sound/Mario/mario kart countdown 3 2 1 go  + audio.wav</property>
  <property name="meta.media.nb_streams">1</property>
  <property name="meta.media.0.stream.type">audio</property>
  <property name="meta.media.0.codec.sample_fmt">s16</property>
  <property name="meta.media.0.codec.sample_rate">44100</property>
  <property name="meta.media.0.codec.channels">2</property>
  <property name="meta.media.0.codec.name">pcm_s16le</property>
  <property name="meta.media.0.codec.long_name">PCM signed 16-bit little-endian</property>
  <property name="meta.media.0.codec.bit_rate">1411200</property>
  <property name="meta.attr.encoder.markup">Lavf60.16.100</property>
  <property name="seekable">1</property>
  <property name="audio_index">0</property>
  <property name="video_index">-1</property>
  <property name="mute_on_pause">1</property>
  <property name="mlt_service">avformat</property>
  <property name="kdenlive:clipname"/>
  <property name="kdenlive:clip_type">1</property>
  <property name="kdenlive:folderid">312</property>
  <property name="kdenlive:id">318</property>
  <property name="kdenlive:file_size">1258062</property>
  <property name="kdenlive:file_hash">2040100941edba35a5c7990f7eab0ec9</property>
  <property name="kdenlive:audio_max0">159</property>
 </producer>
 <producer id="producer290" in="00:00:00.000" out="00:00:02.850">
  <property name="length">172</property>
  <property name="eof">pause</property>
  <property name="resource">/home/federico/Nextcloud/Kden/EditingUT/Sound/Mario/mario sayslet’s a go!!!.wav</property>
  <property name="meta.media.nb_streams">1</property>
  <property name="meta.media.0.stream.type">audio</property>
  <property name="meta.media.0.codec.sample_fmt">s16</property>
  <property name="meta.media.0.codec.sample_rate">44100</property>
  <property name="meta.media.0.codec.channels">2</property>
  <property name="meta.media.0.codec.name">pcm_s16le</property>
  <property name="meta.media.0.codec.long_name">PCM signed 16-bit little-endian</property>
  <property name="meta.media.0.codec.bit_rate">1411200</property>
  <property name="meta.attr.encoder.markup">Lavf60.16.100</property>
  <property name="seekable">1</property>
  <property name="audio_index">0</property>
  <property name="video_index">-1</property>
  <property name="mute_on_pause">1</property>
  <property name="mlt_service">avformat</property>
  <property name="kdenlive:clipname"/>
  <property name="kdenlive:clip_type">1</property>
  <property name="kdenlive:folderid">312</property>
  <property name="kdenlive:id">319</property>
  <property name="kdenlive:file_size">506958</property>
  <property name="kdenlive:file_hash">77e61de88635a5a5f62a7675b503ae2e</property>
  <property name="kdenlive:audio_max0">196</property>
 </producer>
 <producer id="producer288" in="00:00:00.000" out="00:00:05.117">
  <property name="length">308</property>
  <property name="eof">pause</property>
  <property name="resource">/home/federico/Nextcloud/Kden/EditingUT/Sound/Mario/Super Mario Bros pipe travel Down.wav</property>
  <property name="meta.media.nb_streams">1</property>
  <property name="meta.media.0.stream.type">audio</property>
  <property name="meta.media.0.codec.sample_fmt">s16</property>
  <property name="meta.media.0.codec.sample_rate">44100</property>
  <property name="meta.media.0.codec.channels">2</property>
  <property name="meta.media.0.codec.name">pcm_s16le</property>
  <property name="meta.media.0.codec.long_name">PCM signed 16-bit little-endian</property>
  <property name="meta.media.0.codec.bit_rate">1411200</property>
  <property name="meta.attr.artist.markup">IltubodiFlegias</property>
  <property name="meta.attr.comment.markup">https://www.youtube.com/watch?v=Q8ukcO_Oc8s</property>
  <property name="meta.attr.date.markup">20120606</property>
  <property name="meta.attr.title.markup">Super Mario Bros. -Pipe Travel/Power Down Sound Effect -</property>
  <property name="meta.attr.encoder.markup">Lavf60.16.100</property>
  <property name="seekable">1</property>
  <property name="audio_index">0</property>
  <property name="video_index">-1</property>
  <property name="mute_on_pause">1</property>
  <property name="mlt_service">avformat</property>
  <property name="kdenlive:clipname"/>
  <property name="kdenlive:clip_type">1</property>
  <property name="kdenlive:folderid">312</property>
  <property name="kdenlive:id">320</property>
  <property name="kdenlive:file_size">905454</property>
  <property name="kdenlive:file_hash">d17fcb69ef39d7a45178e108934378b5</property>
  <property name="kdenlive:audio_max0">223</property>
 </producer>
 <producer id="producer289" in="00:00:00.000" out="00:00:01.083">
  <property name="length">66</property>
  <property name="eof">pause</property>
  <property name="resource">/home/federico/Nextcloud/Kden/EditingUT/Sound/Mario/super mario power up.wav</property>
  <property name="meta.media.nb_streams">1</property>
  <property name="meta.media.0.stream.type">audio</property>
  <property name="meta.media.0.codec.sample_fmt">s16</property>
  <property name="meta.media.0.codec.sample_rate">44100</property>
  <property name="meta.media.0.codec.channels">2</property>
  <property name="meta.media.0.codec.name">pcm_s16le</property>
  <property name="meta.media.0.codec.long_name">PCM signed 16-bit little-endian</property>
  <property name="meta.media.0.codec.bit_rate">1411200</property>
  <property name="meta.attr.encoder.markup">Lavf60.16.100</property>
  <property name="seekable">1</property>
  <property name="audio_index">0</property>
  <property name="video_index">-1</property>
  <property name="mute_on_pause">1</property>
  <property name="mlt_service">avformat</property>
  <property name="kdenlive:clipname"/>
  <property name="kdenlive:clip_type">1</property>
  <property name="kdenlive:folderid">312</property>
  <property name="kdenlive:id">321</property>
  <property name="kdenlive:file_size">193614</property>
  <property name="kdenlive:file_hash">37e2a44ca80bfc0871387d7e339a7d31</property>
  <property name="kdenlive:audio_max0">150</property>
 </producer>
 <producer id="producer291" in="00:00:00.000" out="00:00:00.800">
  <property name="length">49</property>
  <property name="eof">pause</property>
  <property name="resource">/home/federico/Nextcloud/Kden/EditingUT/Sound/Mario/super mario world - spring boing.wav</property>
  <property name="meta.media.nb_streams">1</property>
  <property name="meta.media.0.stream.type">audio</property>
  <property name="meta.media.0.codec.sample_fmt">s16</property>
  <property name="meta.media.0.codec.sample_rate">44100</property>
  <property name="meta.media.0.codec.channels">2</property>
  <property name="meta.media.0.codec.name">pcm_s16le</property>
  <property name="meta.media.0.codec.long_name">PCM signed 16-bit little-endian</property>
  <property name="meta.media.0.codec.bit_rate">1411200</property>
  <property name="meta.attr.encoder.markup">Lavf60.16.100</property>
  <property name="seekable">1</property>
  <property name="audio_index">0</property>
  <property name="video_index">-1</property>
  <property name="mute_on_pause">1</property>
  <property name="mlt_service">avformat</property>
  <property name="kdenlive:clipname"/>
  <property name="kdenlive:clip_type">1</property>
  <property name="kdenlive:folderid">312</property>
  <property name="kdenlive:id">322</property>
  <property name="kdenlive:file_size">142926</property>
  <property name="kdenlive:file_hash">f5fd53ad9424b77a26e9359b95f9cfa9</property>
  <property name="kdenlive:audio_max0">218</property>
 </producer>
 <producer id="producer292" in="00:00:00.000" out="00:00:03.100">
  <property name="length">187</property>
  <property name="eof">pause</property>
  <property name="resource">/home/federico/Nextcloud/Kden/EditingUT/Sound/Microsoft/microsoft windows xp error -.wav</property>
  <property name="meta.media.nb_streams">1</property>
  <property name="meta.media.0.stream.type">audio</property>
  <property name="meta.media.0.codec.sample_fmt">s16</property>
  <property name="meta.media.0.codec.sample_rate">44100</property>
  <property name="meta.media.0.codec.channels">2</property>
  <property name="meta.media.0.codec.name">pcm_s16le</property>
  <property name="meta.media.0.codec.long_name">PCM signed 16-bit little-endian</property>
  <property name="meta.media.0.codec.bit_rate">1411200</property>
  <property name="meta.attr.encoder.markup">Lavf60.16.100</property>
  <property name="seekable">1</property>
  <property name="audio_index">0</property>
  <property name="video_index">-1</property>
  <property name="mute_on_pause">1</property>
  <property name="mlt_service">avformat</property>
  <property name="kdenlive:clipname"/>
  <property name="kdenlive:clip_type">1</property>
  <property name="kdenlive:folderid">323</property>
  <property name="kdenlive:id">324</property>
  <property name="kdenlive:file_size">548430</property>
  <property name="kdenlive:file_hash">a7c4a46202bb0a724fc50589bdc03e78</property>
  <property name="kdenlive:audio_max0">200</property>
  <property name="kdenlive:zone_in">0</property>
  <property name="kdenlive:zone_out">89</property>
 </producer>
 <producer id="producer294" in="00:00:00.000" out="00:00:04.117">
  <property name="length">248</property>
  <property name="eof">pause</property>
  <property name="resource">/home/federico/Nextcloud/Kden/EditingUT/Sound/Microsoft/microsoft windows xp shutdown -.wav</property>
  <property name="meta.media.nb_streams">1</property>
  <property name="meta.media.0.stream.type">audio</property>
  <property name="meta.media.0.codec.sample_fmt">s16</property>
  <property name="meta.media.0.codec.sample_rate">44100</property>
  <property name="meta.media.0.codec.channels">2</property>
  <property name="meta.media.0.codec.name">pcm_s16le</property>
  <property name="meta.media.0.codec.long_name">PCM signed 16-bit little-endian</property>
  <property name="meta.media.0.codec.bit_rate">1411200</property>
  <property name="meta.attr.encoder.markup">Lavf60.16.100</property>
  <property name="seekable">1</property>
  <property name="audio_index">0</property>
  <property name="video_index">-1</property>
  <property name="mute_on_pause">1</property>
  <property name="mlt_service">avformat</property>
  <property name="kdenlive:clipname"/>
  <property name="kdenlive:clip_type">1</property>
  <property name="kdenlive:folderid">323</property>
  <property name="kdenlive:id">325</property>
  <property name="kdenlive:file_size">728142</property>
  <property name="kdenlive:file_hash">6e06d9a848a96cfb2ada76fbdd95bf9e</property>
  <property name="kdenlive:audio_max0">192</property>
 </producer>
 <producer id="producer293" in="00:00:00.000" out="00:00:07.750">
  <property name="length">466</property>
  <property name="eof">pause</property>
  <property name="resource">/home/federico/Nextcloud/Kden/EditingUT/Sound/Microsoft/windows startup meme.wav</property>
  <property name="meta.media.nb_streams">1</property>
  <property name="meta.media.0.stream.type">audio</property>
  <property name="meta.media.0.codec.sample_fmt">s16</property>
  <property name="meta.media.0.codec.sample_rate">44100</property>
  <property name="meta.media.0.codec.channels">2</property>
  <property name="meta.media.0.codec.name">pcm_s16le</property>
  <property name="meta.media.0.codec.long_name">PCM signed 16-bit little-endian</property>
  <property name="meta.media.0.codec.bit_rate">1411200</property>
  <property name="meta.attr.encoder.markup">Lavf60.16.100</property>
  <property name="seekable">1</property>
  <property name="audio_index">0</property>
  <property name="video_index">-1</property>
  <property name="mute_on_pause">1</property>
  <property name="mlt_service">avformat</property>
  <property name="kdenlive:clipname"/>
  <property name="kdenlive:clip_type">1</property>
  <property name="kdenlive:folderid">323</property>
  <property name="kdenlive:id">326</property>
  <property name="kdenlive:file_size">1368654</property>
  <property name="kdenlive:file_hash">c15c182fef265f8170d3770a2bda9cae</property>
  <property name="kdenlive:audio_max0">248</property>
 </producer>
 <producer id="producer295" in="00:00:00.000" out="00:00:26.133">
  <property name="length">1569</property>
  <property name="eof">pause</property>
  <property name="resource">/home/federico/Nextcloud/Kden/EditingUT/Sound/Minecraft/all enderman s minecraft - s.wav</property>
  <property name="meta.media.nb_streams">1</property>
  <property name="meta.media.0.stream.type">audio</property>
  <property name="meta.media.0.codec.sample_fmt">s16</property>
  <property name="meta.media.0.codec.sample_rate">44100</property>
  <property name="meta.media.0.codec.channels">2</property>
  <property name="meta.media.0.codec.name">pcm_s16le</property>
  <property name="meta.media.0.codec.long_name">PCM signed 16-bit little-endian</property>
  <property name="meta.media.0.codec.bit_rate">1411200</property>
  <property name="meta.attr.encoder.markup">Lavf60.16.100</property>
  <property name="seekable">1</property>
  <property name="audio_index">0</property>
  <property name="video_index">-1</property>
  <property name="mute_on_pause">1</property>
  <property name="mlt_service">avformat</property>
  <property name="kdenlive:clipname"/>
  <property name="kdenlive:clip_type">1</property>
  <property name="kdenlive:folderid">327</property>
  <property name="kdenlive:id">328</property>
  <property name="kdenlive:file_size">4612686</property>
  <property name="kdenlive:file_hash">f8c91e7722dc460706ac999879ad9e27</property>
  <property name="kdenlive:audio_max0">240</property>
  <property name="kdenlive:zone_in">892</property>
  <property name="kdenlive:zone_out">938</property>
 </producer>
 <producer id="producer296" in="00:00:00.000" out="00:00:46.400">
  <property name="length">2785</property>
  <property name="eof">pause</property>
  <property name="resource">/home/federico/Nextcloud/Kden/EditingUT/Sound/Minecraft/all minecraft sheep.wav</property>
  <property name="meta.media.nb_streams">1</property>
  <property name="meta.media.0.stream.type">audio</property>
  <property name="meta.media.0.codec.sample_fmt">s16</property>
  <property name="meta.media.0.codec.sample_rate">44100</property>
  <property name="meta.media.0.codec.channels">2</property>
  <property name="meta.media.0.codec.name">pcm_s16le</property>
  <property name="meta.media.0.codec.long_name">PCM signed 16-bit little-endian</property>
  <property name="meta.media.0.codec.bit_rate">1411200</property>
  <property name="meta.attr.encoder.markup">Lavf60.16.100</property>
  <property name="seekable">1</property>
  <property name="audio_index">0</property>
  <property name="video_index">-1</property>
  <property name="mute_on_pause">1</property>
  <property name="mlt_service">avformat</property>
  <property name="kdenlive:clipname"/>
  <property name="kdenlive:clip_type">1</property>
  <property name="kdenlive:folderid">327</property>
  <property name="kdenlive:id">329</property>
  <property name="kdenlive:file_size">8188494</property>
  <property name="kdenlive:file_hash">43025c8f9cb99e744bdc6f9e09b62a73</property>
  <property name="kdenlive:audio_max0">163</property>
 </producer>
 <producer id="producer297" in="00:00:00.000" out="00:00:51.000">
  <property name="length">3061</property>
  <property name="eof">pause</property>
  <property name="resource">/home/federico/Nextcloud/Kden/EditingUT/Sound/Minecraft/cat_meow_minecraft.wav</property>
  <property name="meta.media.nb_streams">1</property>
  <property name="meta.media.0.stream.type">audio</property>
  <property name="meta.media.0.codec.sample_fmt">s16</property>
  <property name="meta.media.0.codec.sample_rate">44100</property>
  <property name="meta.media.0.codec.channels">2</property>
  <property name="meta.media.0.codec.name">pcm_s16le</property>
  <property name="meta.media.0.codec.long_name">PCM signed 16-bit little-endian</property>
  <property name="meta.media.0.codec.bit_rate">1411200</property>
  <property name="meta.attr.encoder.markup">Lavf60.16.100</property>
  <property name="seekable">1</property>
  <property name="audio_index">0</property>
  <property name="video_index">-1</property>
  <property name="mute_on_pause">1</property>
  <property name="mlt_service">avformat</property>
  <property name="kdenlive:clipname"/>
  <property name="kdenlive:clip_type">1</property>
  <property name="kdenlive:folderid">327</property>
  <property name="kdenlive:id">330</property>
  <property name="kdenlive:file_size">8999502</property>
  <property name="kdenlive:file_hash">d13cdab1349f6a369eb45a24e2dd5f3b</property>
  <property name="kdenlive:audio_max0">198</property>
 </producer>
 <producer id="producer298" in="00:00:00.000" out="00:00:01.467">
  <property name="length">89</property>
  <property name="eof">pause</property>
  <property name="resource">/home/federico/Nextcloud/Kden/EditingUT/Sound/Minecraft/door break by a zombie minecraft  -.wav</property>
  <property name="meta.media.nb_streams">1</property>
  <property name="meta.media.0.stream.type">audio</property>
  <property name="meta.media.0.codec.sample_fmt">s16</property>
  <property name="meta.media.0.codec.sample_rate">44100</property>
  <property name="meta.media.0.codec.channels">2</property>
  <property name="meta.media.0.codec.name">pcm_s16le</property>
  <property name="meta.media.0.codec.long_name">PCM signed 16-bit little-endian</property>
  <property name="meta.media.0.codec.bit_rate">1411200</property>
  <property name="meta.attr.encoder.markup">Lavf60.16.100</property>
  <property name="seekable">1</property>
  <property name="audio_index">0</property>
  <property name="video_index">-1</property>
  <property name="mute_on_pause">1</property>
  <property name="mlt_service">avformat</property>
  <property name="kdenlive:clipname"/>
  <property name="kdenlive:clip_type">1</property>
  <property name="kdenlive:folderid">327</property>
  <property name="kdenlive:id">331</property>
  <property name="kdenlive:file_size">262734</property>
  <property name="kdenlive:file_hash">bda3ab50510af9164999eccf466d641c</property>
  <property name="kdenlive:audio_max0">238</property>
 </producer>
 <producer id="producer299" in="00:00:00.000" out="00:00:00.867">
  <property name="length">53</property>
  <property name="eof">pause</property>
  <property name="resource">/home/federico/Nextcloud/Kden/EditingUT/Sound/Minecraft/minecraft  - successful bow hit ding!.wav</property>
  <property name="meta.media.nb_streams">1</property>
  <property name="meta.media.0.stream.type">audio</property>
  <property name="meta.media.0.codec.sample_fmt">s16</property>
  <property name="meta.media.0.codec.sample_rate">44100</property>
  <property name="meta.media.0.codec.channels">2</property>
  <property name="meta.media.0.codec.name">pcm_s16le</property>
  <property name="meta.media.0.codec.long_name">PCM signed 16-bit little-endian</property>
  <property name="meta.media.0.codec.bit_rate">1411200</property>
  <property name="meta.attr.encoder.markup">Lavf60.16.100</property>
  <property name="seekable">1</property>
  <property name="audio_index">0</property>
  <property name="video_index">-1</property>
  <property name="mute_on_pause">1</property>
  <property name="mlt_service">avformat</property>
  <property name="kdenlive:clipname"/>
  <property name="kdenlive:clip_type">1</property>
  <property name="kdenlive:folderid">327</property>
  <property name="kdenlive:id">332</property>
  <property name="kdenlive:file_size">156750</property>
  <property name="kdenlive:file_hash">96f9c71c1a6772d9e77489947702602c</property>
  <property name="kdenlive:audio_max0">164</property>
 </producer>
 <producer id="producer300" in="00:00:00.000" out="00:00:00.617">
  <property name="length">38</property>
  <property name="eof">pause</property>
  <property name="resource">/home/federico/Nextcloud/Kden/EditingUT/Sound/Minecraft/minecraft - door open.wav</property>
  <property name="meta.media.nb_streams">1</property>
  <property name="meta.media.0.stream.type">audio</property>
  <property name="meta.media.0.codec.sample_fmt">s16</property>
  <property name="meta.media.0.codec.sample_rate">44100</property>
  <property name="meta.media.0.codec.channels">2</property>
  <property name="meta.media.0.codec.name">pcm_s16le</property>
  <property name="meta.media.0.codec.long_name">PCM signed 16-bit little-endian</property>
  <property name="meta.media.0.codec.bit_rate">1411200</property>
  <property name="meta.attr.encoder.markup">Lavf60.16.100</property>
  <property name="seekable">1</property>
  <property name="audio_index">0</property>
  <property name="video_index">-1</property>
  <property name="mute_on_pause">1</property>
  <property name="mlt_service">avformat</property>
  <property name="kdenlive:clipname"/>
  <property name="kdenlive:clip_type">1</property>
  <property name="kdenlive:folderid">327</property>
  <property name="kdenlive:id">333</property>
  <property name="kdenlive:file_size">110670</property>
  <property name="kdenlive:file_hash">949b6bb148f141859a2968aabf8537f6</property>
  <property name="kdenlive:audio_max0">154</property>
 </producer>
 <producer id="producer301" in="00:00:00.000" out="00:01:04.017">
  <property name="length">3842</property>
  <property name="eof">pause</property>
  <property name="resource">/home/federico/Nextcloud/Kden/EditingUT/Sound/Minecraft/minecraft - horses.wav</property>
  <property name="meta.media.nb_streams">1</property>
  <property name="meta.media.0.stream.type">audio</property>
  <property name="meta.media.0.codec.sample_fmt">s16</property>
  <property name="meta.media.0.codec.sample_rate">44100</property>
  <property name="meta.media.0.codec.channels">2</property>
  <property name="meta.media.0.codec.name">pcm_s16le</property>
  <property name="meta.media.0.codec.long_name">PCM signed 16-bit little-endian</property>
  <property name="meta.media.0.codec.bit_rate">1411200</property>
  <property name="meta.attr.encoder.markup">Lavf60.16.100</property>
  <property name="seekable">1</property>
  <property name="audio_index">0</property>
  <property name="video_index">-1</property>
  <property name="mute_on_pause">1</property>
  <property name="mlt_service">avformat</property>
  <property name="kdenlive:clipname"/>
  <property name="kdenlive:clip_type">1</property>
  <property name="kdenlive:folderid">327</property>
  <property name="kdenlive:id">334</property>
  <property name="kdenlive:file_size">11294286</property>
  <property name="kdenlive:file_hash">0023748dbd143880562f6de6887baf8b</property>
  <property name="kdenlive:audio_max0">228</property>
 </producer>
 <producer id="producer302" in="00:00:00.000" out="00:00:28.383">
  <property name="length">1704</property>
  <property name="eof">pause</property>
  <property name="resource">/home/federico/Nextcloud/Kden/EditingUT/Sound/Minecraft/minecraft - wolf s.wav</property>
  <property name="meta.media.nb_streams">1</property>
  <property name="meta.media.0.stream.type">audio</property>
  <property name="meta.media.0.codec.sample_fmt">s16</property>
  <property name="meta.media.0.codec.sample_rate">44100</property>
  <property name="meta.media.0.codec.channels">2</property>
  <property name="meta.media.0.codec.name">pcm_s16le</property>
  <property name="meta.media.0.codec.long_name">PCM signed 16-bit little-endian</property>
  <property name="meta.media.0.codec.bit_rate">1411200</property>
  <property name="meta.attr.encoder.markup">Lavf60.16.100</property>
  <property name="seekable">1</property>
  <property name="audio_index">0</property>
  <property name="video_index">-1</property>
  <property name="mute_on_pause">1</property>
  <property name="mlt_service">avformat</property>
  <property name="kdenlive:clipname"/>
  <property name="kdenlive:clip_type">1</property>
  <property name="kdenlive:folderid">327</property>
  <property name="kdenlive:id">335</property>
  <property name="kdenlive:file_size">5008974</property>
  <property name="kdenlive:file_hash">9496e41fd582e419d91b5aaf356c450d</property>
  <property name="kdenlive:audio_max0">256</property>
 </producer>
 <producer id="producer303" in="00:00:00.000" out="00:00:01.217">
  <property name="length">74</property>
  <property name="eof">pause</property>
  <property name="resource">/home/federico/Nextcloud/Kden/EditingUT/Sound/Minecraft/minecraft death.wav</property>
  <property name="meta.media.nb_streams">1</property>
  <property name="meta.media.0.stream.type">audio</property>
  <property name="meta.media.0.codec.sample_fmt">s16</property>
  <property name="meta.media.0.codec.sample_rate">44100</property>
  <property name="meta.media.0.codec.channels">2</property>
  <property name="meta.media.0.codec.name">pcm_s16le</property>
  <property name="meta.media.0.codec.long_name">PCM signed 16-bit little-endian</property>
  <property name="meta.media.0.codec.bit_rate">1411200</property>
  <property name="meta.attr.encoder.markup">Lavf60.16.100</property>
  <property name="seekable">1</property>
  <property name="audio_index">0</property>
  <property name="video_index">-1</property>
  <property name="mute_on_pause">1</property>
  <property name="mlt_service">avformat</property>
  <property name="kdenlive:clipname"/>
  <property name="kdenlive:clip_type">1</property>
  <property name="kdenlive:folderid">327</property>
  <property name="kdenlive:id">336</property>
  <property name="kdenlive:file_size">216654</property>
  <property name="kdenlive:file_hash">f4c1e37e080b97754356d503d16f947d</property>
  <property name="kdenlive:audio_max0">181</property>
 </producer>
 <producer id="producer304" in="00:00:00.000" out="00:00:05.100">
  <property name="length">307</property>
  <property name="eof">pause</property>
  <property name="resource">/home/federico/Nextcloud/Kden/EditingUT/Sound/Minecraft/minecraft dirt.wav</property>
  <property name="meta.media.nb_streams">1</property>
  <property name="meta.media.0.stream.type">audio</property>
  <property name="meta.media.0.codec.sample_fmt">s16</property>
  <property name="meta.media.0.codec.sample_rate">44100</property>
  <property name="meta.media.0.codec.channels">2</property>
  <property name="meta.media.0.codec.name">pcm_s16le</property>
  <property name="meta.media.0.codec.long_name">PCM signed 16-bit little-endian</property>
  <property name="meta.media.0.codec.bit_rate">1411200</property>
  <property name="meta.attr.encoder.markup">Lavf60.16.100</property>
  <property name="seekable">1</property>
  <property name="audio_index">0</property>
  <property name="video_index">-1</property>
  <property name="mute_on_pause">1</property>
  <property name="mlt_service">avformat</property>
  <property name="kdenlive:clipname"/>
  <property name="kdenlive:clip_type">1</property>
  <property name="kdenlive:folderid">327</property>
  <property name="kdenlive:id">337</property>
  <property name="kdenlive:file_size">903246</property>
  <property name="kdenlive:file_hash">dd828fc1fd696af7c69ee0a3c520b5e3</property>
  <property name="kdenlive:audio_max0">159</property>
 </producer>
 <producer id="producer305" in="00:00:00.000" out="00:00:02.100">
  <property name="length">127</property>
  <property name="eof">pause</property>
  <property name="resource">/home/federico/Nextcloud/Kden/EditingUT/Sound/Minecraft/minecraft door open and close -.wav</property>
  <property name="meta.media.nb_streams">1</property>
  <property name="meta.media.0.stream.type">audio</property>
  <property name="meta.media.0.codec.sample_fmt">s16</property>
  <property name="meta.media.0.codec.sample_rate">44100</property>
  <property name="meta.media.0.codec.channels">2</property>
  <property name="meta.media.0.codec.name">pcm_s16le</property>
  <property name="meta.media.0.codec.long_name">PCM signed 16-bit little-endian</property>
  <property name="meta.media.0.codec.bit_rate">1411200</property>
  <property name="meta.attr.encoder.markup">Lavf60.16.100</property>
  <property name="seekable">1</property>
  <property name="audio_index">0</property>
  <property name="video_index">-1</property>
  <property name="mute_on_pause">1</property>
  <property name="mlt_service">avformat</property>
  <property name="kdenlive:clipname"/>
  <property name="kdenlive:clip_type">1</property>
  <property name="kdenlive:folderid">327</property>
  <property name="kdenlive:id">338</property>
  <property name="kdenlive:file_size">373326</property>
  <property name="kdenlive:file_hash">0642000d01d56eb6b2b11a3777245fc4</property>
  <property name="kdenlive:audio_max0">196</property>
 </producer>
 <producer id="producer306" in="00:00:00.000" out="00:00:01.883">
  <property name="length">114</property>
  <property name="eof">pause</property>
  <property name="resource">/home/federico/Nextcloud/Kden/EditingUT/Sound/Minecraft/minecraft drinking.wav</property>
  <property name="meta.media.nb_streams">1</property>
  <property name="meta.media.0.stream.type">audio</property>
  <property name="meta.media.0.codec.sample_fmt">s16</property>
  <property name="meta.media.0.codec.sample_rate">44100</property>
  <property name="meta.media.0.codec.channels">2</property>
  <property name="meta.media.0.codec.name">pcm_s16le</property>
  <property name="meta.media.0.codec.long_name">PCM signed 16-bit little-endian</property>
  <property name="meta.media.0.codec.bit_rate">1411200</property>
  <property name="meta.attr.encoder.markup">Lavf60.16.100</property>
  <property name="seekable">1</property>
  <property name="audio_index">0</property>
  <property name="video_index">-1</property>
  <property name="mute_on_pause">1</property>
  <property name="mlt_service">avformat</property>
  <property name="kdenlive:clipname"/>
  <property name="kdenlive:clip_type">1</property>
  <property name="kdenlive:folderid">327</property>
  <property name="kdenlive:id">339</property>
  <property name="kdenlive:file_size">336462</property>
  <property name="kdenlive:file_hash">6765bc5268935ed4c1289ddb66a727f5</property>
  <property name="kdenlive:audio_max0">109</property>
  <property name="kdenlive:zone_in">39</property>
  <property name="kdenlive:zone_out">114</property>
 </producer>
 <producer id="producer307" in="00:00:00.000" out="00:00:08.767">
  <property name="length">527</property>
  <property name="eof">pause</property>
  <property name="resource">/home/federico/Nextcloud/Kden/EditingUT/Sound/Minecraft/minecraft eating.wav</property>
  <property name="meta.media.nb_streams">1</property>
  <property name="meta.media.0.stream.type">audio</property>
  <property name="meta.media.0.codec.sample_fmt">s16</property>
  <property name="meta.media.0.codec.sample_rate">48000</property>
  <property name="meta.media.0.codec.channels">2</property>
  <property name="meta.media.0.codec.name">pcm_s16le</property>
  <property name="meta.media.0.codec.long_name">PCM signed 16-bit little-endian</property>
  <property name="meta.media.0.codec.bit_rate">1536000</property>
  <property name="meta.attr.encoder.markup">Lavf60.16.100</property>
  <property name="seekable">1</property>
  <property name="audio_index">0</property>
  <property name="video_index">-1</property>
  <property name="mute_on_pause">1</property>
  <property name="mlt_service">avformat</property>
  <property name="kdenlive:clipname"/>
  <property name="kdenlive:clip_type">1</property>
  <property name="kdenlive:folderid">327</property>
  <property name="kdenlive:id">340</property>
  <property name="kdenlive:file_size">1687522</property>
  <property name="kdenlive:file_hash">d12b60073d9c83b71456751ca4b5fdb7</property>
  <property name="kdenlive:audio_max0">125</property>
  <property name="kdenlive:zone_in">220</property>
  <property name="kdenlive:zone_out">313</property>
 </producer>
 <producer id="producer308" in="00:00:00.000" out="00:00:04.600">
  <property name="length">277</property>
  <property name="eof">pause</property>
  <property name="resource">/home/federico/Nextcloud/Kden/EditingUT/Sound/Minecraft/minecraft footsteps -.wav</property>
  <property name="meta.media.nb_streams">1</property>
  <property name="meta.media.0.stream.type">audio</property>
  <property name="meta.media.0.codec.sample_fmt">s16</property>
  <property name="meta.media.0.codec.sample_rate">44100</property>
  <property name="meta.media.0.codec.channels">2</property>
  <property name="meta.media.0.codec.name">pcm_s16le</property>
  <property name="meta.media.0.codec.long_name">PCM signed 16-bit little-endian</property>
  <property name="meta.media.0.codec.bit_rate">1411200</property>
  <property name="meta.attr.encoder.markup">Lavf60.16.100</property>
  <property name="seekable">1</property>
  <property name="audio_index">0</property>
  <property name="video_index">-1</property>
  <property name="mute_on_pause">1</property>
  <property name="mlt_service">avformat</property>
  <property name="kdenlive:clipname"/>
  <property name="kdenlive:clip_type">1</property>
  <property name="kdenlive:folderid">327</property>
  <property name="kdenlive:id">341</property>
  <property name="kdenlive:file_size">815694</property>
  <property name="kdenlive:file_hash">8faa2570831136719d22b42bed00e46c</property>
  <property name="kdenlive:audio_max0">128</property>
 </producer>
 <producer id="producer309" in="00:00:00.000" out="00:00:01.683">
  <property name="length">102</property>
  <property name="eof">pause</property>
  <property name="resource">/home/federico/Nextcloud/Kden/EditingUT/Sound/Minecraft/minecraft hit -.wav</property>
  <property name="meta.media.nb_streams">1</property>
  <property name="meta.media.0.stream.type">audio</property>
  <property name="meta.media.0.codec.sample_fmt">s16</property>
  <property name="meta.media.0.codec.sample_rate">44100</property>
  <property name="meta.media.0.codec.channels">2</property>
  <property name="meta.media.0.codec.name">pcm_s16le</property>
  <property name="meta.media.0.codec.long_name">PCM signed 16-bit little-endian</property>
  <property name="meta.media.0.codec.bit_rate">1411200</property>
  <property name="meta.attr.encoder.markup">Lavf60.16.100</property>
  <property name="seekable">1</property>
  <property name="audio_index">0</property>
  <property name="video_index">-1</property>
  <property name="mute_on_pause">1</property>
  <property name="mlt_service">avformat</property>
  <property name="kdenlive:clipname"/>
  <property name="kdenlive:clip_type">1</property>
  <property name="kdenlive:folderid">327</property>
  <property name="kdenlive:id">342</property>
  <property name="kdenlive:file_size">299598</property>
  <property name="kdenlive:file_hash">b60c47b677afe80a665fc0aa8b6a5c0f</property>
  <property name="kdenlive:audio_max0">164</property>
 </producer>
 <producer id="producer311" in="00:00:00.000" out="00:00:01.867">
  <property name="length">113</property>
  <property name="eof">pause</property>
  <property name="resource">/home/federico/Nextcloud/Kden/EditingUT/Sound/Minecraft/minecraft hit fire damage hurt.wav</property>
  <property name="meta.media.nb_streams">1</property>
  <property name="meta.media.0.stream.type">audio</property>
  <property name="meta.media.0.codec.sample_fmt">s16</property>
  <property name="meta.media.0.codec.sample_rate">44100</property>
  <property name="meta.media.0.codec.channels">2</property>
  <property name="meta.media.0.codec.name">pcm_s16le</property>
  <property name="meta.media.0.codec.long_name">PCM signed 16-bit little-endian</property>
  <property name="meta.media.0.codec.bit_rate">1411200</property>
  <property name="meta.attr.encoder.markup">Lavf60.16.100</property>
  <property name="seekable">1</property>
  <property name="audio_index">0</property>
  <property name="video_index">-1</property>
  <property name="mute_on_pause">1</property>
  <property name="mlt_service">avformat</property>
  <property name="kdenlive:clipname"/>
  <property name="kdenlive:clip_type">1</property>
  <property name="kdenlive:folderid">327</property>
  <property name="kdenlive:id">343</property>
  <property name="kdenlive:file_size">331854</property>
  <property name="kdenlive:file_hash">a8fcc8f4f44a749c67d9c5d138878189</property>
  <property name="kdenlive:audio_max0">201</property>
 </producer>
 <producer id="producer310" in="00:00:00.000" out="00:00:02.783">
  <property name="length">168</property>
  <property name="eof">pause</property>
  <property name="resource">/home/federico/Nextcloud/Kden/EditingUT/Sound/Minecraft/minecraft ladder -.wav</property>
  <property name="meta.media.nb_streams">1</property>
  <property name="meta.media.0.stream.type">audio</property>
  <property name="meta.media.0.codec.sample_fmt">s16</property>
  <property name="meta.media.0.codec.sample_rate">44100</property>
  <property name="meta.media.0.codec.channels">2</property>
  <property name="meta.media.0.codec.name">pcm_s16le</property>
  <property name="meta.media.0.codec.long_name">PCM signed 16-bit little-endian</property>
  <property name="meta.media.0.codec.bit_rate">1411200</property>
  <property name="meta.attr.encoder.markup">Lavf60.16.100</property>
  <property name="seekable">1</property>
  <property name="audio_index">0</property>
  <property name="video_index">-1</property>
  <property name="mute_on_pause">1</property>
  <property name="mlt_service">avformat</property>
  <property name="kdenlive:clipname"/>
  <property name="kdenlive:clip_type">1</property>
  <property name="kdenlive:folderid">327</property>
  <property name="kdenlive:id">344</property>
  <property name="kdenlive:file_size">493134</property>
  <property name="kdenlive:file_hash">02ff0b2cf0a3b37afffee51bccf1bf2f</property>
  <property name="kdenlive:audio_max0">236</property>
 </producer>
 <producer id="producer313" in="00:00:00.000" out="00:04:01.433">
  <property name="length">14487</property>
  <property name="eof">pause</property>
  <property name="resource">/home/federico/Nextcloud/Kden/EditingUT/Sound/Minecraft/minecraft old walking s.wav</property>
  <property name="meta.media.nb_streams">1</property>
  <property name="meta.media.0.stream.type">audio</property>
  <property name="meta.media.0.codec.sample_fmt">s16</property>
  <property name="meta.media.0.codec.sample_rate">44100</property>
  <property name="meta.media.0.codec.channels">2</property>
  <property name="meta.media.0.codec.name">pcm_s16le</property>
  <property name="meta.media.0.codec.long_name">PCM signed 16-bit little-endian</property>
  <property name="meta.media.0.codec.bit_rate">1411200</property>
  <property name="meta.attr.encoder.markup">Lavf60.16.100</property>
  <property name="seekable">1</property>
  <property name="audio_index">0</property>
  <property name="video_index">-1</property>
  <property name="mute_on_pause">1</property>
  <property name="mlt_service">avformat</property>
  <property name="kdenlive:clipname"/>
  <property name="kdenlive:clip_type">1</property>
  <property name="kdenlive:folderid">327</property>
  <property name="kdenlive:id">345</property>
  <property name="kdenlive:file_size">42591822</property>
  <property name="kdenlive:file_hash">686ad233c036e6c151dbfbe8015f72df</property>
  <property name="kdenlive:audio_max0">130</property>
 </producer>
 <producer id="producer312" in="00:00:00.000" out="00:00:07.117">
  <property name="length">428</property>
  <property name="eof">pause</property>
  <property name="resource">/home/federico/Nextcloud/Kden/EditingUT/Sound/Minecraft/minecraft pig s.wav</property>
  <property name="meta.media.nb_streams">1</property>
  <property name="meta.media.0.stream.type">audio</property>
  <property name="meta.media.0.codec.sample_fmt">s16</property>
  <property name="meta.media.0.codec.sample_rate">44100</property>
  <property name="meta.media.0.codec.channels">2</property>
  <property name="meta.media.0.codec.name">pcm_s16le</property>
  <property name="meta.media.0.codec.long_name">PCM signed 16-bit little-endian</property>
  <property name="meta.media.0.codec.bit_rate">1411200</property>
  <property name="meta.attr.encoder.markup">Lavf60.16.100</property>
  <property name="seekable">1</property>
  <property name="audio_index">0</property>
  <property name="video_index">-1</property>
  <property name="mute_on_pause">1</property>
  <property name="mlt_service">avformat</property>
  <property name="kdenlive:clipname"/>
  <property name="kdenlive:clip_type">1</property>
  <property name="kdenlive:folderid">327</property>
  <property name="kdenlive:id">346</property>
  <property name="kdenlive:file_size">1258062</property>
  <property name="kdenlive:file_hash">6f78e5ed12b82682894ad3f727b3cca1</property>
  <property name="kdenlive:audio_max0">202</property>
 </producer>
 <producer id="producer314" in="00:00:00.000" out="00:00:24.217">
  <property name="length">1454</property>
  <property name="eof">pause</property>
  <property name="resource">/home/federico/Nextcloud/Kden/EditingUT/Sound/Minecraft/minecraft s bow and arrows s.wav</property>
  <property name="meta.media.nb_streams">1</property>
  <property name="meta.media.0.stream.type">audio</property>
  <property name="meta.media.0.codec.sample_fmt">s16</property>
  <property name="meta.media.0.codec.sample_rate">44100</property>
  <property name="meta.media.0.codec.channels">2</property>
  <property name="meta.media.0.codec.name">pcm_s16le</property>
  <property name="meta.media.0.codec.long_name">PCM signed 16-bit little-endian</property>
  <property name="meta.media.0.codec.bit_rate">1411200</property>
  <property name="meta.attr.encoder.markup">Lavf60.16.100</property>
  <property name="seekable">1</property>
  <property name="audio_index">0</property>
  <property name="video_index">-1</property>
  <property name="mute_on_pause">1</property>
  <property name="mlt_service">avformat</property>
  <property name="kdenlive:clipname"/>
  <property name="kdenlive:clip_type">1</property>
  <property name="kdenlive:folderid">327</property>
  <property name="kdenlive:id">347</property>
  <property name="kdenlive:file_size">4276302</property>
  <property name="kdenlive:file_hash">ff393647c4f2392245f447111bf05ada</property>
  <property name="kdenlive:audio_max0">161</property>
 </producer>
 <producer id="producer315" in="00:00:00.000" out="00:00:26.050">
  <property name="length">1564</property>
  <property name="eof">pause</property>
  <property name="resource">/home/federico/Nextcloud/Kden/EditingUT/Sound/Minecraft/minecraft swimming.wav</property>
  <property name="meta.media.nb_streams">1</property>
  <property name="meta.media.0.stream.type">audio</property>
  <property name="meta.media.0.codec.sample_fmt">s16</property>
  <property name="meta.media.0.codec.sample_rate">44100</property>
  <property name="meta.media.0.codec.channels">2</property>
  <property name="meta.media.0.codec.name">pcm_s16le</property>
  <property name="meta.media.0.codec.long_name">PCM signed 16-bit little-endian</property>
  <property name="meta.media.0.codec.bit_rate">1411200</property>
  <property name="meta.attr.encoder.markup">Lavf60.16.100</property>
  <property name="seekable">1</property>
  <property name="audio_index">0</property>
  <property name="video_index">-1</property>
  <property name="mute_on_pause">1</property>
  <property name="mlt_service">avformat</property>
  <property name="kdenlive:clipname"/>
  <property name="kdenlive:clip_type">1</property>
  <property name="kdenlive:folderid">327</property>
  <property name="kdenlive:id">348</property>
  <property name="kdenlive:file_size">4598862</property>
  <property name="kdenlive:file_hash">4864f7e58359922c3e5ebe9faf1b372a</property>
  <property name="kdenlive:audio_max0">154</property>
 </producer>
 <producer id="producer317" in="00:00:00.000" out="00:00:29.367">
  <property name="length">1763</property>
  <property name="eof">pause</property>
  <property name="resource">/home/federico/Nextcloud/Kden/EditingUT/Sound/Minecraft/minecraft villager s.wav</property>
  <property name="meta.media.nb_streams">1</property>
  <property name="meta.media.0.stream.type">audio</property>
  <property name="meta.media.0.codec.sample_fmt">s16</property>
  <property name="meta.media.0.codec.sample_rate">44100</property>
  <property name="meta.media.0.codec.channels">2</property>
  <property name="meta.media.0.codec.name">pcm_s16le</property>
  <property name="meta.media.0.codec.long_name">PCM signed 16-bit little-endian</property>
  <property name="meta.media.0.codec.bit_rate">1411200</property>
  <property name="meta.attr.encoder.markup">Lavf60.16.100</property>
  <property name="seekable">1</property>
  <property name="audio_index">0</property>
  <property name="video_index">-1</property>
  <property name="mute_on_pause">1</property>
  <property name="mlt_service">avformat</property>
  <property name="kdenlive:clipname"/>
  <property name="kdenlive:clip_type">1</property>
  <property name="kdenlive:folderid">327</property>
  <property name="kdenlive:id">349</property>
  <property name="kdenlive:file_size">5184078</property>
  <property name="kdenlive:file_hash">4432e14ad3545b7d4204948985a6e9ef</property>
  <property name="kdenlive:audio_max0">256</property>
 </producer>
 <producer id="producer318" in="00:00:00.000" out="00:00:45.783">
  <property name="length">2748</property>
  <property name="eof">pause</property>
  <property name="resource">/home/federico/Nextcloud/Kden/EditingUT/Sound/Minecraft/minecraft villager.wav</property>
  <property name="meta.media.nb_streams">1</property>
  <property name="meta.media.0.stream.type">audio</property>
  <property name="meta.media.0.codec.sample_fmt">s16</property>
  <property name="meta.media.0.codec.sample_rate">44100</property>
  <property name="meta.media.0.codec.channels">2</property>
  <property name="meta.media.0.codec.name">pcm_s16le</property>
  <property name="meta.media.0.codec.long_name">PCM signed 16-bit little-endian</property>
  <property name="meta.media.0.codec.bit_rate">1411200</property>
  <property name="meta.attr.encoder.markup">Lavf60.16.100</property>
  <property name="seekable">1</property>
  <property name="audio_index">0</property>
  <property name="video_index">-1</property>
  <property name="mute_on_pause">1</property>
  <property name="mlt_service">avformat</property>
  <property name="kdenlive:clipname"/>
  <property name="kdenlive:clip_type">1</property>
  <property name="kdenlive:folderid">327</property>
  <property name="kdenlive:id">350</property>
  <property name="kdenlive:file_size">8077902</property>
  <property name="kdenlive:file_hash">67b9c7722dce6150efaa14069c3ec907</property>
  <property name="kdenlive:audio_max0">193</property>
 </producer>
 <producer id="producer316" in="00:00:00.000" out="00:00:20.300">
  <property name="length">1219</property>
  <property name="eof">pause</property>
  <property name="resource">/home/federico/Nextcloud/Kden/EditingUT/Sound/Minecraft/minecraft zombie knocking on the door -.wav</property>
  <property name="meta.media.nb_streams">1</property>
  <property name="meta.media.0.stream.type">audio</property>
  <property name="meta.media.0.codec.sample_fmt">s16</property>
  <property name="meta.media.0.codec.sample_rate">44100</property>
  <property name="meta.media.0.codec.channels">2</property>
  <property name="meta.media.0.codec.name">pcm_s16le</property>
  <property name="meta.media.0.codec.long_name">PCM signed 16-bit little-endian</property>
  <property name="meta.media.0.codec.bit_rate">1411200</property>
  <property name="meta.attr.encoder.markup">Lavf60.16.100</property>
  <property name="seekable">1</property>
  <property name="audio_index">0</property>
  <property name="video_index">-1</property>
  <property name="mute_on_pause">1</property>
  <property name="mlt_service">avformat</property>
  <property name="kdenlive:clipname"/>
  <property name="kdenlive:clip_type">1</property>
  <property name="kdenlive:folderid">327</property>
  <property name="kdenlive:id">351</property>
  <property name="kdenlive:file_size">3585102</property>
  <property name="kdenlive:file_hash">cb54715cdd2d9a483408d6445288b431</property>
  <property name="kdenlive:audio_max0">241</property>
 </producer>
 <producer id="producer319" in="00:00:00.000" out="00:00:25.550">
  <property name="length">1534</property>
  <property name="eof">pause</property>
  <property name="resource">/home/federico/Nextcloud/Kden/EditingUT/Sound/Minecraft/minecraft zombie s.wav</property>
  <property name="meta.media.nb_streams">1</property>
  <property name="meta.media.0.stream.type">audio</property>
  <property name="meta.media.0.codec.sample_fmt">s16</property>
  <property name="meta.media.0.codec.sample_rate">44100</property>
  <property name="meta.media.0.codec.channels">2</property>
  <property name="meta.media.0.codec.name">pcm_s16le</property>
  <property name="meta.media.0.codec.long_name">PCM signed 16-bit little-endian</property>
  <property name="meta.media.0.codec.bit_rate">1411200</property>
  <property name="meta.attr.artist.markup">MultiSuperguy101</property>
  <property name="meta.attr.comment.markup">https://www.youtube.com/watch?v=2S-wuQ5p_RM</property>
  <property name="meta.attr.date.markup">20131117</property>
  <property name="meta.attr.title.markup">Minecraft Zombie Sounds</property>
  <property name="meta.attr.encoder.markup">Lavf60.16.100</property>
  <property name="seekable">1</property>
  <property name="audio_index">0</property>
  <property name="video_index">-1</property>
  <property name="mute_on_pause">1</property>
  <property name="mlt_service">avformat</property>
  <property name="kdenlive:clipname"/>
  <property name="kdenlive:clip_type">1</property>
  <property name="kdenlive:folderid">327</property>
  <property name="kdenlive:id">352</property>
  <property name="kdenlive:file_size">4509902</property>
  <property name="kdenlive:file_hash">0b13a45d3fe4163ad10873733b58ed60</property>
  <property name="kdenlive:audio_max0">183</property>
 </producer>
 <producer id="producer320" in="00:00:00.000" out="00:00:01.817">
  <property name="length">110</property>
  <property name="eof">pause</property>
  <property name="resource">/home/federico/Nextcloud/Kden/EditingUT/Sound/Minecraft/minecraft_fire charge.wav</property>
  <property name="meta.media.nb_streams">1</property>
  <property name="meta.media.0.stream.type">audio</property>
  <property name="meta.media.0.codec.sample_fmt">s16</property>
  <property name="meta.media.0.codec.sample_rate">44100</property>
  <property name="meta.media.0.codec.channels">2</property>
  <property name="meta.media.0.codec.name">pcm_s16le</property>
  <property name="meta.media.0.codec.long_name">PCM signed 16-bit little-endian</property>
  <property name="meta.media.0.codec.bit_rate">1411200</property>
  <property name="meta.attr.encoder.markup">Lavf60.16.100</property>
  <property name="seekable">1</property>
  <property name="audio_index">0</property>
  <property name="video_index">-1</property>
  <property name="mute_on_pause">1</property>
  <property name="mlt_service">avformat</property>
  <property name="kdenlive:clipname"/>
  <property name="kdenlive:clip_type">1</property>
  <property name="kdenlive:folderid">327</property>
  <property name="kdenlive:id">353</property>
  <property name="kdenlive:file_size">322638</property>
  <property name="kdenlive:file_hash">719421cb4c672721ad1f6486f6401028</property>
  <property name="kdenlive:audio_max0">217</property>
 </producer>
 <producer id="producer321" in="00:00:00.000" out="00:00:32.383">
  <property name="length">1944</property>
  <property name="eof">pause</property>
  <property name="resource">/home/federico/Nextcloud/Kden/EditingUT/Sound/Minecraft/walking and running on wood  minecraft.wav</property>
  <property name="meta.media.nb_streams">1</property>
  <property name="meta.media.0.stream.type">audio</property>
  <property name="meta.media.0.codec.sample_fmt">s16</property>
  <property name="meta.media.0.codec.sample_rate">44100</property>
  <property name="meta.media.0.codec.channels">2</property>
  <property name="meta.media.0.codec.name">pcm_s16le</property>
  <property name="meta.media.0.codec.long_name">PCM signed 16-bit little-endian</property>
  <property name="meta.media.0.codec.bit_rate">1411200</property>
  <property name="meta.attr.encoder.markup">Lavf60.16.100</property>
  <property name="seekable">1</property>
  <property name="audio_index">0</property>
  <property name="video_index">-1</property>
  <property name="mute_on_pause">1</property>
  <property name="mlt_service">avformat</property>
  <property name="kdenlive:clipname"/>
  <property name="kdenlive:clip_type">1</property>
  <property name="kdenlive:folderid">327</property>
  <property name="kdenlive:id">354</property>
  <property name="kdenlive:file_size">5713998</property>
  <property name="kdenlive:file_hash">19b04b0cc1981d3cdfda5d181bee0588</property>
  <property name="kdenlive:audio_max0">73</property>
 </producer>
 <producer id="producer322" in="00:00:00.000" out="00:00:02.567">
  <property name="length">155</property>
  <property name="eof">pause</property>
  <property name="resource">/home/federico/Nextcloud/Kden/EditingUT/Sound/Minecraft/water splashfishing  minecraft  -.wav</property>
  <property name="meta.media.nb_streams">1</property>
  <property name="meta.media.0.stream.type">audio</property>
  <property name="meta.media.0.codec.sample_fmt">s16</property>
  <property name="meta.media.0.codec.sample_rate">44100</property>
  <property name="meta.media.0.codec.channels">2</property>
  <property name="meta.media.0.codec.name">pcm_s16le</property>
  <property name="meta.media.0.codec.long_name">PCM signed 16-bit little-endian</property>
  <property name="meta.media.0.codec.bit_rate">1411200</property>
  <property name="meta.attr.encoder.markup">Lavf60.16.100</property>
  <property name="seekable">1</property>
  <property name="audio_index">0</property>
  <property name="video_index">-1</property>
  <property name="mute_on_pause">1</property>
  <property name="mlt_service">avformat</property>
  <property name="kdenlive:clipname"/>
  <property name="kdenlive:clip_type">1</property>
  <property name="kdenlive:folderid">327</property>
  <property name="kdenlive:id">355</property>
  <property name="kdenlive:file_size">456270</property>
  <property name="kdenlive:file_hash">7dce688408c709fab6b6216745144b1c</property>
  <property name="kdenlive:audio_max0">252</property>
 </producer>
 <producer id="producer324" in="00:00:00.000" out="00:00:02.017">
  <property name="length">122</property>
  <property name="eof">pause</property>
  <property name="resource">/home/federico/Nextcloud/Kden/EditingUT/Sound/Punch_Hit_Stomp/anime smash punch.wav</property>
  <property name="meta.media.nb_streams">1</property>
  <property name="meta.media.0.stream.type">audio</property>
  <property name="meta.media.0.codec.sample_fmt">s16</property>
  <property name="meta.media.0.codec.sample_rate">44100</property>
  <property name="meta.media.0.codec.channels">2</property>
  <property name="meta.media.0.codec.name">pcm_s16le</property>
  <property name="meta.media.0.codec.long_name">PCM signed 16-bit little-endian</property>
  <property name="meta.media.0.codec.bit_rate">1411200</property>
  <property name="meta.attr.encoder.markup">Lavf60.16.100</property>
  <property name="seekable">1</property>
  <property name="audio_index">0</property>
  <property name="video_index">-1</property>
  <property name="mute_on_pause">1</property>
  <property name="mlt_service">avformat</property>
  <property name="kdenlive:clipname"/>
  <property name="kdenlive:clip_type">1</property>
  <property name="kdenlive:folderid">356</property>
  <property name="kdenlive:id">357</property>
  <property name="kdenlive:file_size">359502</property>
  <property name="kdenlive:file_hash">dff3d8190194d2dd252fe9a745d5105a</property>
  <property name="kdenlive:audio_max0">192</property>
 </producer>
 <producer id="producer323" in="00:00:00.000" out="00:00:04.850">
  <property name="length">292</property>
  <property name="eof">pause</property>
  <property name="resource">/home/federico/Nextcloud/Kden/EditingUT/Sound/Punch_Hit_Stomp/animepunch .wav</property>
  <property name="meta.media.nb_streams">1</property>
  <property name="meta.media.0.stream.type">audio</property>
  <property name="meta.media.0.codec.sample_fmt">s16</property>
  <property name="meta.media.0.codec.sample_rate">44100</property>
  <property name="meta.media.0.codec.channels">2</property>
  <property name="meta.media.0.codec.name">pcm_s16le</property>
  <property name="meta.media.0.codec.long_name">PCM signed 16-bit little-endian</property>
  <property name="meta.media.0.codec.bit_rate">1411200</property>
  <property name="meta.attr.encoder.markup">Lavf60.16.100</property>
  <property name="seekable">1</property>
  <property name="audio_index">0</property>
  <property name="video_index">-1</property>
  <property name="mute_on_pause">1</property>
  <property name="mlt_service">avformat</property>
  <property name="kdenlive:clipname"/>
  <property name="kdenlive:clip_type">1</property>
  <property name="kdenlive:folderid">356</property>
  <property name="kdenlive:id">358</property>
  <property name="kdenlive:file_size">857166</property>
  <property name="kdenlive:file_hash">7b9ff7c9989874d4836bcee937827044</property>
  <property name="kdenlive:audio_max0">256</property>
 </producer>
 <producer id="producer325" in="00:00:00.000" out="00:00:02.067">
  <property name="length">125</property>
  <property name="eof">pause</property>
  <property name="resource">/home/federico/Nextcloud/Kden/EditingUT/Sound/Punch_Hit_Stomp/bamboo hit confusion.wav</property>
  <property name="meta.media.nb_streams">1</property>
  <property name="meta.media.0.stream.type">audio</property>
  <property name="meta.media.0.codec.sample_fmt">s16</property>
  <property name="meta.media.0.codec.sample_rate">44100</property>
  <property name="meta.media.0.codec.channels">2</property>
  <property name="meta.media.0.codec.name">pcm_s16le</property>
  <property name="meta.media.0.codec.long_name">PCM signed 16-bit little-endian</property>
  <property name="meta.media.0.codec.bit_rate">1411200</property>
  <property name="meta.attr.encoder.markup">Lavf60.16.100</property>
  <property name="seekable">1</property>
  <property name="audio_index">0</property>
  <property name="video_index">-1</property>
  <property name="mute_on_pause">1</property>
  <property name="mlt_service">avformat</property>
  <property name="kdenlive:clipname"/>
  <property name="kdenlive:clip_type">1</property>
  <property name="kdenlive:folderid">356</property>
  <property name="kdenlive:id">359</property>
  <property name="kdenlive:file_size">368718</property>
  <property name="kdenlive:file_hash">545dcbfe13296c48ca686d2f3979679b</property>
  <property name="kdenlive:audio_max0">220</property>
 </producer>
 <producer id="producer327" in="00:00:00.000" out="00:00:01.683">
  <property name="length">102</property>
  <property name="eof">pause</property>
  <property name="resource">/home/federico/Nextcloud/Kden/EditingUT/Sound/Punch_Hit_Stomp/bamboo hit.wav</property>
  <property name="meta.media.nb_streams">1</property>
  <property name="meta.media.0.stream.type">audio</property>
  <property name="meta.media.0.codec.sample_fmt">s16</property>
  <property name="meta.media.0.codec.sample_rate">44100</property>
  <property name="meta.media.0.codec.channels">2</property>
  <property name="meta.media.0.codec.name">pcm_s16le</property>
  <property name="meta.media.0.codec.long_name">PCM signed 16-bit little-endian</property>
  <property name="meta.media.0.codec.bit_rate">1411200</property>
  <property name="meta.attr.encoder.markup">Lavf60.16.100</property>
  <property name="seekable">1</property>
  <property name="audio_index">0</property>
  <property name="video_index">-1</property>
  <property name="mute_on_pause">1</property>
  <property name="mlt_service">avformat</property>
  <property name="kdenlive:clipname"/>
  <property name="kdenlive:clip_type">1</property>
  <property name="kdenlive:folderid">356</property>
  <property name="kdenlive:id">360</property>
  <property name="kdenlive:file_size">299598</property>
  <property name="kdenlive:file_hash">48dd56455e6d12ec1ad4e999643f73eb</property>
  <property name="kdenlive:audio_max0">209</property>
  <property name="kdenlive:zone_in">63</property>
  <property name="kdenlive:zone_out">102</property>
 </producer>
 <producer id="producer326" in="00:00:00.000" out="00:00:01.733">
  <property name="length">105</property>
  <property name="eof">pause</property>
  <property name="resource">/home/federico/Nextcloud/Kden/EditingUT/Sound/Punch_Hit_Stomp/dbz strong punch.wav</property>
  <property name="meta.media.nb_streams">1</property>
  <property name="meta.media.0.stream.type">audio</property>
  <property name="meta.media.0.codec.sample_fmt">s16</property>
  <property name="meta.media.0.codec.sample_rate">44100</property>
  <property name="meta.media.0.codec.channels">2</property>
  <property name="meta.media.0.codec.name">pcm_s16le</property>
  <property name="meta.media.0.codec.long_name">PCM signed 16-bit little-endian</property>
  <property name="meta.media.0.codec.bit_rate">1411200</property>
  <property name="meta.attr.encoder.markup">Lavf60.16.100</property>
  <property name="seekable">1</property>
  <property name="audio_index">0</property>
  <property name="video_index">-1</property>
  <property name="mute_on_pause">1</property>
  <property name="mlt_service">avformat</property>
  <property name="kdenlive:clipname"/>
  <property name="kdenlive:clip_type">1</property>
  <property name="kdenlive:folderid">356</property>
  <property name="kdenlive:id">361</property>
  <property name="kdenlive:file_size">308814</property>
  <property name="kdenlive:file_hash">c5057584b3e73d77fb1269067563954a</property>
  <property name="kdenlive:audio_max0">236</property>
 </producer>
 <producer id="producer328" in="00:00:00.000" out="00:00:01.833">
  <property name="length">111</property>
  <property name="eof">pause</property>
  <property name="resource">/home/federico/Nextcloud/Kden/EditingUT/Sound/Punch_Hit_Stomp/dinosaur stomp  5.wav</property>
  <property name="meta.media.nb_streams">1</property>
  <property name="meta.media.0.stream.type">audio</property>
  <property name="meta.media.0.codec.sample_fmt">s16</property>
  <property name="meta.media.0.codec.sample_rate">44100</property>
  <property name="meta.media.0.codec.channels">2</property>
  <property name="meta.media.0.codec.name">pcm_s16le</property>
  <property name="meta.media.0.codec.long_name">PCM signed 16-bit little-endian</property>
  <property name="meta.media.0.codec.bit_rate">1411200</property>
  <property name="meta.attr.encoder.markup">Lavf60.16.100</property>
  <property name="seekable">1</property>
  <property name="audio_index">0</property>
  <property name="video_index">-1</property>
  <property name="mute_on_pause">1</property>
  <property name="mlt_service">avformat</property>
  <property name="kdenlive:clipname"/>
  <property name="kdenlive:clip_type">1</property>
  <property name="kdenlive:folderid">356</property>
  <property name="kdenlive:id">362</property>
  <property name="kdenlive:file_size">327246</property>
  <property name="kdenlive:file_hash">af92e6821aa97749e48e2f4d893c1a04</property>
  <property name="kdenlive:audio_max0">221</property>
 </producer>
 <producer id="producer329" in="00:00:00.000" out="00:00:13.783">
  <property name="length">828</property>
  <property name="eof">pause</property>
  <property name="resource">/home/federico/Nextcloud/Kden/EditingUT/Sound/Punch_Hit_Stomp/heavy footstep.wav</property>
  <property name="meta.media.nb_streams">1</property>
  <property name="meta.media.0.stream.type">audio</property>
  <property name="meta.media.0.codec.sample_fmt">s16</property>
  <property name="meta.media.0.codec.sample_rate">44100</property>
  <property name="meta.media.0.codec.channels">2</property>
  <property name="meta.media.0.codec.name">pcm_s16le</property>
  <property name="meta.media.0.codec.long_name">PCM signed 16-bit little-endian</property>
  <property name="meta.media.0.codec.bit_rate">1411200</property>
  <property name="meta.attr.encoder.markup">Lavf60.16.100</property>
  <property name="seekable">1</property>
  <property name="audio_index">0</property>
  <property name="video_index">-1</property>
  <property name="mute_on_pause">1</property>
  <property name="mlt_service">avformat</property>
  <property name="kdenlive:clipname"/>
  <property name="kdenlive:clip_type">1</property>
  <property name="kdenlive:folderid">356</property>
  <property name="kdenlive:id">363</property>
  <property name="kdenlive:file_size">2433102</property>
  <property name="kdenlive:file_hash">82c6014170ae4e4c47f9cf6def77274a</property>
  <property name="kdenlive:audio_max0">256</property>
 </producer>
 <producer id="producer330" in="00:00:00.000" out="00:00:02.883">
  <property name="length">174</property>
  <property name="eof">pause</property>
  <property name="resource">/home/federico/Nextcloud/Kden/EditingUT/Sound/Punch_Hit_Stomp/heavy object hit and body thud.wav</property>
  <property name="meta.media.nb_streams">1</property>
  <property name="meta.media.0.stream.type">audio</property>
  <property name="meta.media.0.codec.sample_fmt">s16</property>
  <property name="meta.media.0.codec.sample_rate">44100</property>
  <property name="meta.media.0.codec.channels">2</property>
  <property name="meta.media.0.codec.name">pcm_s16le</property>
  <property name="meta.media.0.codec.long_name">PCM signed 16-bit little-endian</property>
  <property name="meta.media.0.codec.bit_rate">1411200</property>
  <property name="meta.attr.encoder.markup">Lavf60.16.100</property>
  <property name="seekable">1</property>
  <property name="audio_index">0</property>
  <property name="video_index">-1</property>
  <property name="mute_on_pause">1</property>
  <property name="mlt_service">avformat</property>
  <property name="kdenlive:clipname"/>
  <property name="kdenlive:clip_type">1</property>
  <property name="kdenlive:folderid">356</property>
  <property name="kdenlive:id">364</property>
  <property name="kdenlive:file_size">511566</property>
  <property name="kdenlive:file_hash">29a353ebfd10d440b7412af05851d7b3</property>
  <property name="kdenlive:audio_max0">249</property>
  <property name="kdenlive:zone_in">71</property>
  <property name="kdenlive:zone_out">93</property>
 </producer>
 <producer id="producer332" in="00:00:00.000" out="00:00:05.750">
  <property name="length">346</property>
  <property name="eof">pause</property>
  <property name="resource">/home/federico/Nextcloud/Kden/EditingUT/Sound/Punch_Hit_Stomp/heavy stomp -.wav</property>
  <property name="meta.media.nb_streams">1</property>
  <property name="meta.media.0.stream.type">audio</property>
  <property name="meta.media.0.codec.sample_fmt">s16</property>
  <property name="meta.media.0.codec.sample_rate">44100</property>
  <property name="meta.media.0.codec.channels">2</property>
  <property name="meta.media.0.codec.name">pcm_s16le</property>
  <property name="meta.media.0.codec.long_name">PCM signed 16-bit little-endian</property>
  <property name="meta.media.0.codec.bit_rate">1411200</property>
  <property name="meta.attr.encoder.markup">Lavf60.16.100</property>
  <property name="seekable">1</property>
  <property name="audio_index">0</property>
  <property name="video_index">-1</property>
  <property name="mute_on_pause">1</property>
  <property name="mlt_service">avformat</property>
  <property name="kdenlive:clipname"/>
  <property name="kdenlive:clip_type">1</property>
  <property name="kdenlive:folderid">356</property>
  <property name="kdenlive:id">365</property>
  <property name="kdenlive:file_size">1018446</property>
  <property name="kdenlive:file_hash">90b9f8c0ede2db99211a6fff40dce7e3</property>
  <property name="kdenlive:audio_max0">252</property>
 </producer>
 <producer id="producer331" in="00:00:00.000" out="00:00:00.833">
  <property name="length">51</property>
  <property name="eof">pause</property>
  <property name="resource">/home/federico/Nextcloud/Kden/EditingUT/Sound/Punch_Hit_Stomp/impact on metal  first variation.wav</property>
  <property name="meta.media.nb_streams">1</property>
  <property name="meta.media.0.stream.type">audio</property>
  <property name="meta.media.0.codec.sample_fmt">s16</property>
  <property name="meta.media.0.codec.sample_rate">48000</property>
  <property name="meta.media.0.codec.channels">2</property>
  <property name="meta.media.0.codec.name">pcm_s16le</property>
  <property name="meta.media.0.codec.long_name">PCM signed 16-bit little-endian</property>
  <property name="meta.media.0.codec.bit_rate">1536000</property>
  <property name="meta.attr.encoder.markup">Lavf61.7.100</property>
  <property name="seekable">1</property>
  <property name="audio_index">0</property>
  <property name="video_index">-1</property>
  <property name="mute_on_pause">1</property>
  <property name="mlt_service">avformat</property>
  <property name="kdenlive:clipname"/>
  <property name="kdenlive:clip_type">1</property>
  <property name="kdenlive:folderid">356</property>
  <property name="kdenlive:id">366</property>
  <property name="kdenlive:file_size">163278</property>
  <property name="kdenlive:file_hash">0ad7826ff2205a843a5514af1c80ca55</property>
  <property name="kdenlive:audio_max0">201</property>
 </producer>
 <producer id="producer333" in="00:00:00.000" out="00:00:00.667">
  <property name="length">41</property>
  <property name="eof">pause</property>
  <property name="resource">/home/federico/Nextcloud/Kden/EditingUT/Sound/Punch_Hit_Stomp/metal hit.wav</property>
  <property name="meta.media.nb_streams">1</property>
  <property name="meta.media.0.stream.type">audio</property>
  <property name="meta.media.0.codec.sample_fmt">s16</property>
  <property name="meta.media.0.codec.sample_rate">44100</property>
  <property name="meta.media.0.codec.channels">2</property>
  <property name="meta.media.0.codec.name">pcm_s16le</property>
  <property name="meta.media.0.codec.long_name">PCM signed 16-bit little-endian</property>
  <property name="meta.media.0.codec.bit_rate">1411200</property>
  <property name="meta.attr.encoder.markup">Lavf60.16.100</property>
  <property name="seekable">1</property>
  <property name="audio_index">0</property>
  <property name="video_index">-1</property>
  <property name="mute_on_pause">1</property>
  <property name="mlt_service">avformat</property>
  <property name="kdenlive:clipname"/>
  <property name="kdenlive:clip_type">1</property>
  <property name="kdenlive:folderid">356</property>
  <property name="kdenlive:id">367</property>
  <property name="kdenlive:file_size">119886</property>
  <property name="kdenlive:file_hash">1a7befc09473b2c55b4092fca3086bfb</property>
  <property name="kdenlive:audio_max0">189</property>
 </producer>
 <producer id="producer335" in="00:00:00.000" out="00:00:03.100">
  <property name="length">187</property>
  <property name="eof">pause</property>
  <property name="resource">/home/federico/Nextcloud/Kden/EditingUT/Sound/Punch_Hit_Stomp/pan hit_1.wav</property>
  <property name="meta.media.nb_streams">1</property>
  <property name="meta.media.0.stream.type">audio</property>
  <property name="meta.media.0.codec.sample_fmt">s16</property>
  <property name="meta.media.0.codec.sample_rate">44100</property>
  <property name="meta.media.0.codec.channels">2</property>
  <property name="meta.media.0.codec.name">pcm_s16le</property>
  <property name="meta.media.0.codec.long_name">PCM signed 16-bit little-endian</property>
  <property name="meta.media.0.codec.bit_rate">1411200</property>
  <property name="meta.attr.encoder.markup">Lavf60.16.100</property>
  <property name="seekable">1</property>
  <property name="audio_index">0</property>
  <property name="video_index">-1</property>
  <property name="mute_on_pause">1</property>
  <property name="mlt_service">avformat</property>
  <property name="kdenlive:clipname"/>
  <property name="kdenlive:clip_type">1</property>
  <property name="kdenlive:folderid">356</property>
  <property name="kdenlive:id">368</property>
  <property name="kdenlive:file_size">548430</property>
  <property name="kdenlive:file_hash">79375cb469a973f61383d39fd84835b5</property>
  <property name="kdenlive:audio_max0">213</property>
 </producer>
 <producer id="producer334" in="00:00:00.000" out="00:00:02.567">
  <property name="length">155</property>
  <property name="eof">pause</property>
  <property name="resource">/home/federico/Nextcloud/Kden/EditingUT/Sound/Punch_Hit_Stomp/pan hit_2.wav</property>
  <property name="meta.media.nb_streams">1</property>
  <property name="meta.media.0.stream.type">audio</property>
  <property name="meta.media.0.codec.sample_fmt">s16</property>
  <property name="meta.media.0.codec.sample_rate">44100</property>
  <property name="meta.media.0.codec.channels">2</property>
  <property name="meta.media.0.codec.name">pcm_s16le</property>
  <property name="meta.media.0.codec.long_name">PCM signed 16-bit little-endian</property>
  <property name="meta.media.0.codec.bit_rate">1411200</property>
  <property name="meta.attr.encoder.markup">Lavf60.16.100</property>
  <property name="seekable">1</property>
  <property name="audio_index">0</property>
  <property name="video_index">-1</property>
  <property name="mute_on_pause">1</property>
  <property name="mlt_service">avformat</property>
  <property name="kdenlive:clipname"/>
  <property name="kdenlive:clip_type">1</property>
  <property name="kdenlive:folderid">356</property>
  <property name="kdenlive:id">369</property>
  <property name="kdenlive:file_size">456270</property>
  <property name="kdenlive:file_hash">41f8e006d8375e5fbc1a1ec287b65247</property>
  <property name="kdenlive:audio_max0">170</property>
 </producer>
 <producer id="producer337" in="00:00:00.000" out="00:00:03.533">
  <property name="length">213</property>
  <property name="eof">pause</property>
  <property name="resource">/home/federico/Nextcloud/Kden/EditingUT/Sound/Punch_Hit_Stomp/pinball bumper hit.wav</property>
  <property name="meta.media.nb_streams">1</property>
  <property name="meta.media.0.stream.type">audio</property>
  <property name="meta.media.0.codec.sample_fmt">s16</property>
  <property name="meta.media.0.codec.sample_rate">44100</property>
  <property name="meta.media.0.codec.channels">2</property>
  <property name="meta.media.0.codec.name">pcm_s16le</property>
  <property name="meta.media.0.codec.long_name">PCM signed 16-bit little-endian</property>
  <property name="meta.media.0.codec.bit_rate">1411200</property>
  <property name="meta.attr.encoder.markup">Lavf60.16.100</property>
  <property name="seekable">1</property>
  <property name="audio_index">0</property>
  <property name="video_index">-1</property>
  <property name="mute_on_pause">1</property>
  <property name="mlt_service">avformat</property>
  <property name="kdenlive:clipname"/>
  <property name="kdenlive:clip_type">1</property>
  <property name="kdenlive:folderid">356</property>
  <property name="kdenlive:id">370</property>
  <property name="kdenlive:file_size">626766</property>
  <property name="kdenlive:file_hash">2878fd1b27a8de6224d878f7143b433c</property>
  <property name="kdenlive:audio_max0">174</property>
  <property name="kdenlive:zone_in">0</property>
  <property name="kdenlive:zone_out">47</property>
 </producer>
 <producer id="producer336" in="00:00:00.000" out="00:00:02.567">
  <property name="length">155</property>
  <property name="eof">pause</property>
  <property name="resource">/home/federico/Nextcloud/Kden/EditingUT/Sound/Punch_Hit_Stomp/punch  2.wav</property>
  <property name="meta.media.nb_streams">1</property>
  <property name="meta.media.0.stream.type">audio</property>
  <property name="meta.media.0.codec.sample_fmt">s16</property>
  <property name="meta.media.0.codec.sample_rate">44100</property>
  <property name="meta.media.0.codec.channels">2</property>
  <property name="meta.media.0.codec.name">pcm_s16le</property>
  <property name="meta.media.0.codec.long_name">PCM signed 16-bit little-endian</property>
  <property name="meta.media.0.codec.bit_rate">1411200</property>
  <property name="meta.attr.encoder.markup">Lavf60.16.100</property>
  <property name="seekable">1</property>
  <property name="audio_index">0</property>
  <property name="video_index">-1</property>
  <property name="mute_on_pause">1</property>
  <property name="mlt_service">avformat</property>
  <property name="kdenlive:clipname"/>
  <property name="kdenlive:clip_type">1</property>
  <property name="kdenlive:folderid">356</property>
  <property name="kdenlive:id">371</property>
  <property name="kdenlive:file_size">456270</property>
  <property name="kdenlive:file_hash">19d187032d5673e9e61e7409d65b8297</property>
  <property name="kdenlive:audio_max0">213</property>
  <property name="kdenlive:zone_in">57</property>
  <property name="kdenlive:zone_out">93</property>
 </producer>
 <producer id="producer338" in="00:00:00.000" out="00:00:00.483">
  <property name="length">30</property>
  <property name="eof">pause</property>
  <property name="resource">/home/federico/Nextcloud/Kden/EditingUT/Sound/Punch_Hit_Stomp/realistic hit.wav</property>
  <property name="meta.media.nb_streams">1</property>
  <property name="meta.media.0.stream.type">audio</property>
  <property name="meta.media.0.codec.sample_fmt">s16</property>
  <property name="meta.media.0.codec.sample_rate">44100</property>
  <property name="meta.media.0.codec.channels">2</property>
  <property name="meta.media.0.codec.name">pcm_s16le</property>
  <property name="meta.media.0.codec.long_name">PCM signed 16-bit little-endian</property>
  <property name="meta.media.0.codec.bit_rate">1411200</property>
  <property name="meta.attr.encoder.markup">Lavf60.16.100</property>
  <property name="seekable">1</property>
  <property name="audio_index">0</property>
  <property name="video_index">-1</property>
  <property name="mute_on_pause">1</property>
  <property name="mlt_service">avformat</property>
  <property name="kdenlive:clipname"/>
  <property name="kdenlive:clip_type">1</property>
  <property name="kdenlive:folderid">356</property>
  <property name="kdenlive:id">372</property>
  <property name="kdenlive:file_size">87630</property>
  <property name="kdenlive:file_hash">3c61192e5bd9f79436a2fad8c0a8aeaa</property>
  <property name="kdenlive:audio_max0">210</property>
 </producer>
 <producer id="producer339" in="00:00:00.000" out="00:00:00.950">
  <property name="length">58</property>
  <property name="eof">pause</property>
  <property name="resource">/home/federico/Nextcloud/Kden/EditingUT/Sound/Punch_Hit_Stomp/something being hit -.wav</property>
  <property name="meta.media.nb_streams">1</property>
  <property name="meta.media.0.stream.type">audio</property>
  <property name="meta.media.0.codec.sample_fmt">s16</property>
  <property name="meta.media.0.codec.sample_rate">44100</property>
  <property name="meta.media.0.codec.channels">2</property>
  <property name="meta.media.0.codec.name">pcm_s16le</property>
  <property name="meta.media.0.codec.long_name">PCM signed 16-bit little-endian</property>
  <property name="meta.media.0.codec.bit_rate">1411200</property>
  <property name="meta.attr.encoder.markup">Lavf60.16.100</property>
  <property name="seekable">1</property>
  <property name="audio_index">0</property>
  <property name="video_index">-1</property>
  <property name="mute_on_pause">1</property>
  <property name="mlt_service">avformat</property>
  <property name="kdenlive:clipname"/>
  <property name="kdenlive:clip_type">1</property>
  <property name="kdenlive:folderid">356</property>
  <property name="kdenlive:id">373</property>
  <property name="kdenlive:file_size">170574</property>
  <property name="kdenlive:file_hash">9192519cc007902370cfb1638ccb4967</property>
  <property name="kdenlive:audio_max0">244</property>
 </producer>
 <producer id="producer340" in="00:00:00.000" out="00:00:01.550">
  <property name="length">94</property>
  <property name="eof">pause</property>
  <property name="resource">/home/federico/Nextcloud/Kden/EditingUT/Sound/Punch_Hit_Stomp/stomp.wav</property>
  <property name="meta.media.nb_streams">1</property>
  <property name="meta.media.0.stream.type">audio</property>
  <property name="meta.media.0.codec.sample_fmt">s16</property>
  <property name="meta.media.0.codec.sample_rate">44100</property>
  <property name="meta.media.0.codec.channels">2</property>
  <property name="meta.media.0.codec.name">pcm_s16le</property>
  <property name="meta.media.0.codec.long_name">PCM signed 16-bit little-endian</property>
  <property name="meta.media.0.codec.bit_rate">1411200</property>
  <property name="meta.attr.encoder.markup">Lavf60.16.100</property>
  <property name="seekable">1</property>
  <property name="audio_index">0</property>
  <property name="video_index">-1</property>
  <property name="mute_on_pause">1</property>
  <property name="mlt_service">avformat</property>
  <property name="kdenlive:clipname"/>
  <property name="kdenlive:clip_type">1</property>
  <property name="kdenlive:folderid">356</property>
  <property name="kdenlive:id">374</property>
  <property name="kdenlive:file_size">276558</property>
  <property name="kdenlive:file_hash">c76b71439fb617f25c76d80c448674af</property>
  <property name="kdenlive:audio_max0">256</property>
 </producer>
 <producer id="producer341" in="00:00:00.000" out="00:00:04.583">
  <property name="length">276</property>
  <property name="eof">pause</property>
  <property name="resource">/home/federico/Nextcloud/Kden/EditingUT/Sound/Punch_Hit_Stomp/super punch.wav</property>
  <property name="meta.media.nb_streams">1</property>
  <property name="meta.media.0.stream.type">audio</property>
  <property name="meta.media.0.codec.sample_fmt">s16</property>
  <property name="meta.media.0.codec.sample_rate">44100</property>
  <property name="meta.media.0.codec.channels">2</property>
  <property name="meta.media.0.codec.name">pcm_s16le</property>
  <property name="meta.media.0.codec.long_name">PCM signed 16-bit little-endian</property>
  <property name="meta.media.0.codec.bit_rate">1411200</property>
  <property name="meta.attr.encoder.markup">Lavf60.16.100</property>
  <property name="seekable">1</property>
  <property name="audio_index">0</property>
  <property name="video_index">-1</property>
  <property name="mute_on_pause">1</property>
  <property name="mlt_service">avformat</property>
  <property name="kdenlive:clipname"/>
  <property name="kdenlive:clip_type">1</property>
  <property name="kdenlive:folderid">356</property>
  <property name="kdenlive:id">375</property>
  <property name="kdenlive:file_size">811086</property>
  <property name="kdenlive:file_hash">b2917074e02fe7263e09abb1bd524a20</property>
  <property name="kdenlive:audio_max0">235</property>
  <property name="kdenlive:zone_in">110</property>
  <property name="kdenlive:zone_out">161</property>
 </producer>
 <producer id="producer342" in="00:00:00.000" out="00:00:07.667">
  <property name="length">461</property>
  <property name="eof">pause</property>
  <property name="resource">/home/federico/Nextcloud/Kden/EditingUT/Sound/S-whoosh/cinematic whoosh fireball -.wav</property>
  <property name="meta.media.nb_streams">1</property>
  <property name="meta.media.0.stream.type">audio</property>
  <property name="meta.media.0.codec.sample_fmt">s16</property>
  <property name="meta.media.0.codec.sample_rate">44100</property>
  <property name="meta.media.0.codec.channels">2</property>
  <property name="meta.media.0.codec.name">pcm_s16le</property>
  <property name="meta.media.0.codec.long_name">PCM signed 16-bit little-endian</property>
  <property name="meta.media.0.codec.bit_rate">1411200</property>
  <property name="meta.attr.encoder.markup">Lavf60.16.100</property>
  <property name="seekable">1</property>
  <property name="audio_index">0</property>
  <property name="video_index">-1</property>
  <property name="mute_on_pause">1</property>
  <property name="mlt_service">avformat</property>
  <property name="kdenlive:clipname"/>
  <property name="kdenlive:clip_type">1</property>
  <property name="kdenlive:folderid">376</property>
  <property name="kdenlive:id">377</property>
  <property name="kdenlive:file_size">1354830</property>
  <property name="kdenlive:file_hash">c31d119e76eb81495d4561cdd7837b77</property>
  <property name="kdenlive:audio_max0">256</property>
 </producer>
 <producer id="producer343" in="00:00:00.000" out="00:00:02.883">
  <property name="length">174</property>
  <property name="eof">pause</property>
  <property name="resource">/home/federico/Nextcloud/Kden/EditingUT/Sound/S-whoosh/dramatic swoosh -.wav</property>
  <property name="meta.media.nb_streams">1</property>
  <property name="meta.media.0.stream.type">audio</property>
  <property name="meta.media.0.codec.sample_fmt">s16</property>
  <property name="meta.media.0.codec.sample_rate">44100</property>
  <property name="meta.media.0.codec.channels">2</property>
  <property name="meta.media.0.codec.name">pcm_s16le</property>
  <property name="meta.media.0.codec.long_name">PCM signed 16-bit little-endian</property>
  <property name="meta.media.0.codec.bit_rate">1411200</property>
  <property name="meta.attr.encoder.markup">Lavf60.16.100</property>
  <property name="seekable">1</property>
  <property name="audio_index">0</property>
  <property name="video_index">-1</property>
  <property name="mute_on_pause">1</property>
  <property name="mlt_service">avformat</property>
  <property name="kdenlive:clipname"/>
  <property name="kdenlive:clip_type">1</property>
  <property name="kdenlive:folderid">376</property>
  <property name="kdenlive:id">378</property>
  <property name="kdenlive:file_size">511566</property>
  <property name="kdenlive:file_hash">521cd3b877e84535aa77ad737987669e</property>
  <property name="kdenlive:audio_max0">182</property>
 </producer>
 <producer id="producer344" in="00:00:00.000" out="00:00:49.483">
  <property name="length">2970</property>
  <property name="eof">pause</property>
  <property name="resource">/home/federico/Nextcloud/Kden/EditingUT/Sound/S-whoosh/whoosh s.wav</property>
  <property name="meta.media.nb_streams">1</property>
  <property name="meta.media.0.stream.type">audio</property>
  <property name="meta.media.0.codec.sample_fmt">s16</property>
  <property name="meta.media.0.codec.sample_rate">44100</property>
  <property name="meta.media.0.codec.channels">2</property>
  <property name="meta.media.0.codec.name">pcm_s16le</property>
  <property name="meta.media.0.codec.long_name">PCM signed 16-bit little-endian</property>
  <property name="meta.media.0.codec.bit_rate">1411200</property>
  <property name="meta.attr.encoder.markup">Lavf60.16.100</property>
  <property name="seekable">1</property>
  <property name="audio_index">0</property>
  <property name="video_index">-1</property>
  <property name="mute_on_pause">1</property>
  <property name="mlt_service">avformat</property>
  <property name="kdenlive:clipname"/>
  <property name="kdenlive:clip_type">1</property>
  <property name="kdenlive:folderid">376</property>
  <property name="kdenlive:id">379</property>
  <property name="kdenlive:file_size">8732238</property>
  <property name="kdenlive:file_hash">5265debcef7b16fb2fe1dd7a9067911a</property>
  <property name="kdenlive:audio_max0">246</property>
 </producer>
 <producer id="producer345" in="00:00:00.000" out="00:00:00.667">
  <property name="length">41</property>
  <property name="eof">pause</property>
  <property name="resource">/home/federico/Nextcloud/Kden/EditingUT/Sound/S-whoosh/whoosh.wav</property>
  <property name="meta.media.nb_streams">1</property>
  <property name="meta.media.0.stream.type">audio</property>
  <property name="meta.media.0.codec.sample_fmt">s16</property>
  <property name="meta.media.0.codec.sample_rate">44100</property>
  <property name="meta.media.0.codec.channels">2</property>
  <property name="meta.media.0.codec.name">pcm_s16le</property>
  <property name="meta.media.0.codec.long_name">PCM signed 16-bit little-endian</property>
  <property name="meta.media.0.codec.bit_rate">1411200</property>
  <property name="meta.attr.encoder.markup">Lavf60.16.100</property>
  <property name="seekable">1</property>
  <property name="audio_index">0</property>
  <property name="video_index">-1</property>
  <property name="mute_on_pause">1</property>
  <property name="mlt_service">avformat</property>
  <property name="kdenlive:clipname"/>
  <property name="kdenlive:clip_type">1</property>
  <property name="kdenlive:folderid">376</property>
  <property name="kdenlive:id">380</property>
  <property name="kdenlive:file_size">119886</property>
  <property name="kdenlive:file_hash">ad8eb5d24a882b858aa3bb75a6fdf8df</property>
  <property name="kdenlive:audio_max0">202</property>
 </producer>
 <producer id="producer346" in="00:00:00.000" out="00:00:00.683">
  <property name="length">42</property>
  <property name="eof">pause</property>
  <property name="resource">/home/federico/Nextcloud/Kden/EditingUT/Sound/Sabaku/sabaku-gasm.wav</property>
  <property name="meta.media.nb_streams">1</property>
  <property name="meta.media.0.stream.type">audio</property>
  <property name="meta.media.0.codec.sample_fmt">s16</property>
  <property name="meta.media.0.codec.sample_rate">48000</property>
  <property name="meta.media.0.codec.channels">2</property>
  <property name="meta.media.0.codec.name">pcm_s16le</property>
  <property name="meta.media.0.codec.long_name">PCM signed 16-bit little-endian</property>
  <property name="meta.media.0.codec.bit_rate">1536000</property>
  <property name="meta.attr.encoder.markup">Lavf60.16.100</property>
  <property name="seekable">1</property>
  <property name="audio_index">0</property>
  <property name="video_index">-1</property>
  <property name="mute_on_pause">1</property>
  <property name="mlt_service">avformat</property>
  <property name="kdenlive:clipname"/>
  <property name="kdenlive:clip_type">1</property>
  <property name="kdenlive:folderid">381</property>
  <property name="kdenlive:id">382</property>
  <property name="kdenlive:file_size">133710</property>
  <property name="kdenlive:file_hash">db5d915e844a886749a27e52cbc2666e</property>
  <property name="kdenlive:audio_max0">197</property>
 </producer>
 <producer id="producer348" in="00:00:00.000" out="00:00:05.500">
  <property name="length">331</property>
  <property name="eof">pause</property>
  <property name="resource">/home/federico/Nextcloud/Kden/EditingUT/Sound/Sabaku/sabaku_zeb_schifoso_reverb.wav</property>
  <property name="meta.media.nb_streams">1</property>
  <property name="meta.media.0.stream.type">audio</property>
  <property name="meta.media.0.codec.sample_fmt">s16</property>
  <property name="meta.media.0.codec.sample_rate">48000</property>
  <property name="meta.media.0.codec.channels">2</property>
  <property name="meta.media.0.codec.name">pcm_s16le</property>
  <property name="meta.media.0.codec.long_name">PCM signed 16-bit little-endian</property>
  <property name="meta.media.0.codec.bit_rate">1536000</property>
  <property name="meta.attr.title.markup">Sabaku imita Zeb89</property>
  <property name="meta.attr.artist.markup">SnoozerIIVMMXIV</property>
  <property name="meta.attr.comment.markup">https://www.youtube.com/watch?v=T1h1e1XOwys</property>
  <property name="meta.attr.date.markup">20160428</property>
  <property name="seekable">1</property>
  <property name="audio_index">0</property>
  <property name="video_index">-1</property>
  <property name="mute_on_pause">1</property>
  <property name="mlt_service">avformat</property>
  <property name="kdenlive:clipname"/>
  <property name="kdenlive:clip_type">1</property>
  <property name="kdenlive:folderid">381</property>
  <property name="kdenlive:id">383</property>
  <property name="kdenlive:file_size">1060580</property>
  <property name="kdenlive:file_hash">baf07115b9d5b477b3c53c9be16fc705</property>
  <property name="kdenlive:audio_max0">202</property>
 </producer>
 <producer id="producer347" in="00:00:00.000" out="00:00:07.317">
  <property name="length">440</property>
  <property name="eof">pause</property>
  <property name="resource">/home/federico/Nextcloud/Kden/EditingUT/Sound/Scream/aa aaa aaaa - scream.wav</property>
  <property name="meta.media.nb_streams">1</property>
  <property name="meta.media.0.stream.type">audio</property>
  <property name="meta.media.0.codec.sample_fmt">s16</property>
  <property name="meta.media.0.codec.sample_rate">44100</property>
  <property name="meta.media.0.codec.channels">2</property>
  <property name="meta.media.0.codec.name">pcm_s16le</property>
  <property name="meta.media.0.codec.long_name">PCM signed 16-bit little-endian</property>
  <property name="meta.media.0.codec.bit_rate">1411200</property>
  <property name="meta.attr.encoder.markup">Lavf60.16.100</property>
  <property name="seekable">1</property>
  <property name="audio_index">0</property>
  <property name="video_index">-1</property>
  <property name="mute_on_pause">1</property>
  <property name="mlt_service">avformat</property>
  <property name="kdenlive:clipname"/>
  <property name="kdenlive:clip_type">1</property>
  <property name="kdenlive:folderid">384</property>
  <property name="kdenlive:id">385</property>
  <property name="kdenlive:file_size">1294926</property>
  <property name="kdenlive:file_hash">5f035c22e0096b9c4f37aee12d5365f8</property>
  <property name="kdenlive:audio_max0">211</property>
 </producer>
 <producer id="producer349" in="00:00:00.000" out="00:00:05.450">
  <property name="length">328</property>
  <property name="eof">pause</property>
  <property name="resource">/home/federico/Nextcloud/Kden/EditingUT/Sound/Scream/homer simpson scream -.wav</property>
  <property name="meta.media.nb_streams">1</property>
  <property name="meta.media.0.stream.type">audio</property>
  <property name="meta.media.0.codec.sample_fmt">s16</property>
  <property name="meta.media.0.codec.sample_rate">44100</property>
  <property name="meta.media.0.codec.channels">2</property>
  <property name="meta.media.0.codec.name">pcm_s16le</property>
  <property name="meta.media.0.codec.long_name">PCM signed 16-bit little-endian</property>
  <property name="meta.media.0.codec.bit_rate">1411200</property>
  <property name="meta.attr.encoder.markup">Lavf60.16.100</property>
  <property name="seekable">1</property>
  <property name="audio_index">0</property>
  <property name="video_index">-1</property>
  <property name="mute_on_pause">1</property>
  <property name="mlt_service">avformat</property>
  <property name="kdenlive:clipname"/>
  <property name="kdenlive:clip_type">1</property>
  <property name="kdenlive:folderid">384</property>
  <property name="kdenlive:id">386</property>
  <property name="kdenlive:file_size">963150</property>
  <property name="kdenlive:file_hash">f7b7d87a15f28f0cf4a701b1041fc0d1</property>
  <property name="kdenlive:audio_max0">193</property>
 </producer>
 <producer id="producer350" in="00:00:00.000" out="00:00:10.100">
  <property name="length">607</property>
  <property name="eof">pause</property>
  <property name="resource">/home/federico/Nextcloud/Kden/EditingUT/Sound/Scream/ksi meme_echo.wav</property>
  <property name="meta.media.nb_streams">1</property>
  <property name="meta.media.0.stream.type">audio</property>
  <property name="meta.media.0.codec.sample_fmt">s16</property>
  <property name="meta.media.0.codec.sample_rate">44100</property>
  <property name="meta.media.0.codec.channels">2</property>
  <property name="meta.media.0.codec.name">pcm_s16le</property>
  <property name="meta.media.0.codec.long_name">PCM signed 16-bit little-endian</property>
  <property name="meta.media.0.codec.bit_rate">1411200</property>
  <property name="meta.attr.encoder.markup">Lavf60.16.100</property>
  <property name="seekable">1</property>
  <property name="audio_index">0</property>
  <property name="video_index">-1</property>
  <property name="mute_on_pause">1</property>
  <property name="mlt_service">avformat</property>
  <property name="kdenlive:clipname"/>
  <property name="kdenlive:clip_type">1</property>
  <property name="kdenlive:folderid">384</property>
  <property name="kdenlive:id">387</property>
  <property name="kdenlive:file_size">1783374</property>
  <property name="kdenlive:file_hash">c986eb0b46ad15acb40df731c378029b</property>
  <property name="kdenlive:audio_max0">188</property>
 </producer>
 <producer id="producer351" in="00:00:00.000" out="00:00:10.767">
  <property name="length">647</property>
  <property name="eof">pause</property>
  <property name="resource">/home/federico/Nextcloud/Kden/EditingUT/Sound/Scream/man screaming.wav</property>
  <property name="meta.media.nb_streams">1</property>
  <property name="meta.media.0.stream.type">audio</property>
  <property name="meta.media.0.codec.sample_fmt">s16</property>
  <property name="meta.media.0.codec.sample_rate">48000</property>
  <property name="meta.media.0.codec.channels">2</property>
  <property name="meta.media.0.codec.name">pcm_s16le</property>
  <property name="meta.media.0.codec.long_name">PCM signed 16-bit little-endian</property>
  <property name="meta.media.0.codec.bit_rate">1536000</property>
  <property name="meta.attr.encoder.markup">Lavf61.7.100</property>
  <property name="seekable">1</property>
  <property name="audio_index">0</property>
  <property name="video_index">-1</property>
  <property name="mute_on_pause">1</property>
  <property name="mlt_service">avformat</property>
  <property name="kdenlive:clipname"/>
  <property name="kdenlive:clip_type">1</property>
  <property name="kdenlive:folderid">384</property>
  <property name="kdenlive:id">388</property>
  <property name="kdenlive:file_size">2070478</property>
  <property name="kdenlive:file_hash">0e882e65acc4abeda9de8c984848d837</property>
  <property name="kdenlive:audio_max0">138</property>
 </producer>
 <producer id="producer352" in="00:00:00.000" out="00:00:06.700">
  <property name="length">403</property>
  <property name="eof">pause</property>
  <property name="resource">/home/federico/Nextcloud/Kden/EditingUT/Sound/Scream/muffled screams.wav</property>
  <property name="meta.media.nb_streams">1</property>
  <property name="meta.media.0.stream.type">audio</property>
  <property name="meta.media.0.codec.sample_fmt">s16</property>
  <property name="meta.media.0.codec.sample_rate">44100</property>
  <property name="meta.media.0.codec.channels">2</property>
  <property name="meta.media.0.codec.name">pcm_s16le</property>
  <property name="meta.media.0.codec.long_name">PCM signed 16-bit little-endian</property>
  <property name="meta.media.0.codec.bit_rate">1411200</property>
  <property name="meta.attr.encoder.markup">Lavf60.16.100</property>
  <property name="seekable">1</property>
  <property name="audio_index">0</property>
  <property name="video_index">-1</property>
  <property name="mute_on_pause">1</property>
  <property name="mlt_service">avformat</property>
  <property name="kdenlive:clipname"/>
  <property name="kdenlive:clip_type">1</property>
  <property name="kdenlive:folderid">384</property>
  <property name="kdenlive:id">389</property>
  <property name="kdenlive:file_size">1184334</property>
  <property name="kdenlive:file_hash">24cc222ce1805ed7b5574ea509969415</property>
  <property name="kdenlive:audio_max0">181</property>
 </producer>
 <producer id="producer353" in="00:00:00.000" out="00:00:01.583">
  <property name="length">96</property>
  <property name="eof">pause</property>
  <property name="resource">/home/federico/Nextcloud/Kden/EditingUT/Sound/Scream/scream of dying man.wav</property>
  <property name="meta.media.nb_streams">1</property>
  <property name="meta.media.0.stream.type">audio</property>
  <property name="meta.media.0.codec.sample_fmt">s16</property>
  <property name="meta.media.0.codec.sample_rate">44100</property>
  <property name="meta.media.0.codec.channels">2</property>
  <property name="meta.media.0.codec.name">pcm_s16le</property>
  <property name="meta.media.0.codec.long_name">PCM signed 16-bit little-endian</property>
  <property name="meta.media.0.codec.bit_rate">1411200</property>
  <property name="meta.attr.encoder.markup">Lavf60.16.100</property>
  <property name="seekable">1</property>
  <property name="audio_index">0</property>
  <property name="video_index">-1</property>
  <property name="mute_on_pause">1</property>
  <property name="mlt_service">avformat</property>
  <property name="kdenlive:clipname"/>
  <property name="kdenlive:clip_type">1</property>
  <property name="kdenlive:folderid">384</property>
  <property name="kdenlive:id">390</property>
  <property name="kdenlive:file_size">281166</property>
  <property name="kdenlive:file_hash">80385e2728168c05b23c83e82a180af9</property>
  <property name="kdenlive:audio_max0">222</property>
 </producer>
 <producer id="producer354" in="00:00:00.000" out="00:00:02.250">
  <property name="length">136</property>
  <property name="eof">pause</property>
  <property name="resource">/home/federico/Nextcloud/Kden/EditingUT/Sound/Scream/wilhelm scream.wav</property>
  <property name="meta.media.nb_streams">1</property>
  <property name="meta.media.0.stream.type">audio</property>
  <property name="meta.media.0.codec.sample_fmt">s16</property>
  <property name="meta.media.0.codec.sample_rate">44100</property>
  <property name="meta.media.0.codec.channels">2</property>
  <property name="meta.media.0.codec.name">pcm_s16le</property>
  <property name="meta.media.0.codec.long_name">PCM signed 16-bit little-endian</property>
  <property name="meta.media.0.codec.bit_rate">1411200</property>
  <property name="meta.attr.encoder.markup">Lavf60.16.100</property>
  <property name="seekable">1</property>
  <property name="audio_index">0</property>
  <property name="video_index">-1</property>
  <property name="mute_on_pause">1</property>
  <property name="mlt_service">avformat</property>
  <property name="kdenlive:clipname"/>
  <property name="kdenlive:clip_type">1</property>
  <property name="kdenlive:folderid">384</property>
  <property name="kdenlive:id">391</property>
  <property name="kdenlive:file_size">400974</property>
  <property name="kdenlive:file_hash">44c8279f6b4756232e539cd68c5f389e</property>
  <property name="kdenlive:audio_max0">139</property>
 </producer>
 <producer id="producer355" in="00:00:00.000" out="00:00:10.983">
  <property name="length">660</property>
  <property name="eof">pause</property>
  <property name="resource">/home/federico/Nextcloud/Kden/EditingUT/Sound/Scream/yoooo scream.wav</property>
  <property name="meta.media.nb_streams">1</property>
  <property name="meta.media.0.stream.type">audio</property>
  <property name="meta.media.0.codec.sample_fmt">s16</property>
  <property name="meta.media.0.codec.sample_rate">44100</property>
  <property name="meta.media.0.codec.channels">2</property>
  <property name="meta.media.0.codec.name">pcm_s16le</property>
  <property name="meta.media.0.codec.long_name">PCM signed 16-bit little-endian</property>
  <property name="meta.media.0.codec.bit_rate">1411200</property>
  <property name="meta.attr.encoder.markup">Lavf60.16.100</property>
  <property name="seekable">1</property>
  <property name="audio_index">0</property>
  <property name="video_index">-1</property>
  <property name="mute_on_pause">1</property>
  <property name="mlt_service">avformat</property>
  <property name="kdenlive:clipname"/>
  <property name="kdenlive:clip_type">1</property>
  <property name="kdenlive:folderid">384</property>
  <property name="kdenlive:id">392</property>
  <property name="kdenlive:file_size">1940046</property>
  <property name="kdenlive:file_hash">4e304d174443df1194ae571c9dd9fe0a</property>
  <property name="kdenlive:audio_max0">249</property>
 </producer>
 <producer id="producer356" in="00:00:00.000" out="00:00:02.733">
  <property name="length">165</property>
  <property name="eof">pause</property>
  <property name="resource">/home/federico/Nextcloud/Kden/EditingUT/Sound/Spongebob/spongebob disgusting.wav</property>
  <property name="meta.media.nb_streams">1</property>
  <property name="meta.media.0.stream.type">audio</property>
  <property name="meta.media.0.codec.sample_fmt">s16</property>
  <property name="meta.media.0.codec.sample_rate">48000</property>
  <property name="meta.media.0.codec.channels">2</property>
  <property name="meta.media.0.codec.name">pcm_s16le</property>
  <property name="meta.media.0.codec.long_name">PCM signed 16-bit little-endian</property>
  <property name="meta.media.0.codec.bit_rate">1536000</property>
  <property name="meta.attr.encoder.markup">Lavf61.7.100</property>
  <property name="seekable">1</property>
  <property name="audio_index">0</property>
  <property name="video_index">-1</property>
  <property name="mute_on_pause">1</property>
  <property name="mlt_service">avformat</property>
  <property name="kdenlive:clipname"/>
  <property name="kdenlive:clip_type">1</property>
  <property name="kdenlive:folderid">393</property>
  <property name="kdenlive:id">394</property>
  <property name="kdenlive:file_size">528078</property>
  <property name="kdenlive:file_hash">db8bb2c6126c066131cbf6b9b3e85214</property>
  <property name="kdenlive:audio_max0">135</property>
 </producer>
 <producer id="producer357" in="00:00:00.000" out="00:00:10.667">
  <property name="length">641</property>
  <property name="eof">pause</property>
  <property name="resource">/home/federico/Nextcloud/Kden/EditingUT/Sound/Spongebob/spongebob_squidward walking.wav</property>
  <property name="meta.media.nb_streams">1</property>
  <property name="meta.media.0.stream.type">audio</property>
  <property name="meta.media.0.codec.sample_fmt">s16</property>
  <property name="meta.media.0.codec.sample_rate">44100</property>
  <property name="meta.media.0.codec.channels">2</property>
  <property name="meta.media.0.codec.name">pcm_s16le</property>
  <property name="meta.media.0.codec.long_name">PCM signed 16-bit little-endian</property>
  <property name="meta.media.0.codec.bit_rate">1411200</property>
  <property name="meta.attr.encoder.markup">Lavf60.16.100</property>
  <property name="seekable">1</property>
  <property name="audio_index">0</property>
  <property name="video_index">-1</property>
  <property name="mute_on_pause">1</property>
  <property name="mlt_service">avformat</property>
  <property name="kdenlive:clipname"/>
  <property name="kdenlive:clip_type">1</property>
  <property name="kdenlive:folderid">393</property>
  <property name="kdenlive:id">395</property>
  <property name="kdenlive:file_size">1884750</property>
  <property name="kdenlive:file_hash">6eae183052d7255ac8f95cc15dc41797</property>
  <property name="kdenlive:audio_max0">114</property>
  <property name="kdenlive:zone_in">0</property>
  <property name="kdenlive:zone_out">28</property>
 </producer>
 <producer id="producer358" in="00:00:00.000" out="00:00:01.033">
  <property name="length">63</property>
  <property name="eof">pause</property>
  <property name="resource">/home/federico/Nextcloud/Kden/EditingUT/Sound/Spongebob/you what! spongebob.wav</property>
  <property name="meta.media.nb_streams">1</property>
  <property name="meta.media.0.stream.type">audio</property>
  <property name="meta.media.0.codec.sample_fmt">s16</property>
  <property name="meta.media.0.codec.sample_rate">44100</property>
  <property name="meta.media.0.codec.channels">2</property>
  <property name="meta.media.0.codec.name">pcm_s16le</property>
  <property name="meta.media.0.codec.long_name">PCM signed 16-bit little-endian</property>
  <property name="meta.media.0.codec.bit_rate">1411200</property>
  <property name="meta.attr.encoder.markup">Lavf60.16.100</property>
  <property name="seekable">1</property>
  <property name="audio_index">0</property>
  <property name="video_index">-1</property>
  <property name="mute_on_pause">1</property>
  <property name="mlt_service">avformat</property>
  <property name="kdenlive:clipname"/>
  <property name="kdenlive:clip_type">1</property>
  <property name="kdenlive:folderid">393</property>
  <property name="kdenlive:id">396</property>
  <property name="kdenlive:file_size">184398</property>
  <property name="kdenlive:file_hash">f767632f48fc82be922a3a1ba86a3d19</property>
  <property name="kdenlive:audio_max0">180</property>
 </producer>
 <producer id="producer359" in="00:00:00.000" out="00:00:02.983">
  <property name="length">180</property>
  <property name="eof">pause</property>
  <property name="resource">/home/federico/Nextcloud/Kden/EditingUT/Sound/Suspense/sudden suspense.wav</property>
  <property name="meta.media.nb_streams">1</property>
  <property name="meta.media.0.stream.type">audio</property>
  <property name="meta.media.0.codec.sample_fmt">s16</property>
  <property name="meta.media.0.codec.sample_rate">44100</property>
  <property name="meta.media.0.codec.channels">2</property>
  <property name="meta.media.0.codec.name">pcm_s16le</property>
  <property name="meta.media.0.codec.long_name">PCM signed 16-bit little-endian</property>
  <property name="meta.media.0.codec.bit_rate">1411200</property>
  <property name="meta.attr.encoder.markup">Lavf60.16.100</property>
  <property name="seekable">1</property>
  <property name="audio_index">0</property>
  <property name="video_index">-1</property>
  <property name="mute_on_pause">1</property>
  <property name="mlt_service">avformat</property>
  <property name="kdenlive:clipname"/>
  <property name="kdenlive:clip_type">1</property>
  <property name="kdenlive:folderid">397</property>
  <property name="kdenlive:id">398</property>
  <property name="kdenlive:file_size">529998</property>
  <property name="kdenlive:file_hash">4b0e42cc6ed7884e23eb445c2c2749e7</property>
  <property name="kdenlive:audio_max0">209</property>
 </producer>
 <producer id="producer360" in="00:00:00.000" out="00:00:02.983">
  <property name="length">180</property>
  <property name="eof">pause</property>
  <property name="resource">/home/federico/Nextcloud/Kden/EditingUT/Sound/Sword/knife cut.wav</property>
  <property name="meta.media.nb_streams">1</property>
  <property name="meta.media.0.stream.type">audio</property>
  <property name="meta.media.0.codec.sample_fmt">s16</property>
  <property name="meta.media.0.codec.sample_rate">44100</property>
  <property name="meta.media.0.codec.channels">2</property>
  <property name="meta.media.0.codec.name">pcm_s16le</property>
  <property name="meta.media.0.codec.long_name">PCM signed 16-bit little-endian</property>
  <property name="meta.media.0.codec.bit_rate">1411200</property>
  <property name="meta.attr.artist.markup">Sound Effects</property>
  <property name="meta.attr.comment.markup">https://www.youtube.com/watch?v=_7ucaU7kk8Q</property>
  <property name="meta.attr.date.markup">20201119</property>
  <property name="meta.attr.title.markup">Knife Cut Sound Effect</property>
  <property name="meta.attr.encoder.markup">Lavf60.16.100</property>
  <property name="seekable">1</property>
  <property name="audio_index">0</property>
  <property name="video_index">-1</property>
  <property name="mute_on_pause">1</property>
  <property name="mlt_service">avformat</property>
  <property name="kdenlive:clipname"/>
  <property name="kdenlive:clip_type">1</property>
  <property name="kdenlive:folderid">399</property>
  <property name="kdenlive:id">400</property>
  <property name="kdenlive:file_size">528586</property>
  <property name="kdenlive:file_hash">ca6236019d908056b1852ffaa9e22797</property>
  <property name="kdenlive:audio_max0">180</property>
 </producer>
 <producer id="producer362" in="00:00:00.000" out="00:00:05.367">
  <property name="length">323</property>
  <property name="eof">pause</property>
  <property name="resource">/home/federico/Nextcloud/Kden/EditingUT/Sound/Sword/sword attack  -.wav</property>
  <property name="meta.media.nb_streams">1</property>
  <property name="meta.media.0.stream.type">audio</property>
  <property name="meta.media.0.codec.sample_fmt">s16</property>
  <property name="meta.media.0.codec.sample_rate">44100</property>
  <property name="meta.media.0.codec.channels">2</property>
  <property name="meta.media.0.codec.name">pcm_s16le</property>
  <property name="meta.media.0.codec.long_name">PCM signed 16-bit little-endian</property>
  <property name="meta.media.0.codec.bit_rate">1411200</property>
  <property name="meta.attr.encoder.markup">Lavf60.16.100</property>
  <property name="seekable">1</property>
  <property name="audio_index">0</property>
  <property name="video_index">-1</property>
  <property name="mute_on_pause">1</property>
  <property name="mlt_service">avformat</property>
  <property name="kdenlive:clipname"/>
  <property name="kdenlive:clip_type">1</property>
  <property name="kdenlive:folderid">399</property>
  <property name="kdenlive:id">401</property>
  <property name="kdenlive:file_size">949326</property>
  <property name="kdenlive:file_hash">39ea049b43812bf0c5848eb6ef45b124</property>
  <property name="kdenlive:audio_max0">185</property>
 </producer>
 <producer id="producer361" in="00:00:00.000" out="00:00:00.850">
  <property name="length">52</property>
  <property name="eof">pause</property>
  <property name="resource">/home/federico/Nextcloud/Kden/EditingUT/Sound/Sword/sword draw.wav</property>
  <property name="meta.media.nb_streams">1</property>
  <property name="meta.media.0.stream.type">audio</property>
  <property name="meta.media.0.codec.sample_fmt">s16</property>
  <property name="meta.media.0.codec.sample_rate">44100</property>
  <property name="meta.media.0.codec.channels">2</property>
  <property name="meta.media.0.codec.name">pcm_s16le</property>
  <property name="meta.media.0.codec.long_name">PCM signed 16-bit little-endian</property>
  <property name="meta.media.0.codec.bit_rate">1411200</property>
  <property name="meta.attr.encoder.markup">Lavf60.16.100</property>
  <property name="seekable">1</property>
  <property name="audio_index">0</property>
  <property name="video_index">-1</property>
  <property name="mute_on_pause">1</property>
  <property name="mlt_service">avformat</property>
  <property name="kdenlive:clipname"/>
  <property name="kdenlive:clip_type">1</property>
  <property name="kdenlive:folderid">399</property>
  <property name="kdenlive:id">402</property>
  <property name="kdenlive:file_size">152142</property>
  <property name="kdenlive:file_hash">61ca3be9aec8a652c6e8e7413776d5c6</property>
  <property name="kdenlive:audio_max0">207</property>
 </producer>
 <producer id="producer363" in="00:00:00.000" out="00:00:05.650">
  <property name="length">340</property>
  <property name="eof">pause</property>
  <property name="resource">/home/federico/Nextcloud/Kden/EditingUT/Sound/Sword/sword s.wav</property>
  <property name="meta.media.nb_streams">1</property>
  <property name="meta.media.0.stream.type">audio</property>
  <property name="meta.media.0.codec.sample_fmt">s16</property>
  <property name="meta.media.0.codec.sample_rate">44100</property>
  <property name="meta.media.0.codec.channels">2</property>
  <property name="meta.media.0.codec.name">pcm_s16le</property>
  <property name="meta.media.0.codec.long_name">PCM signed 16-bit little-endian</property>
  <property name="meta.media.0.codec.bit_rate">1411200</property>
  <property name="meta.attr.encoder.markup">Lavf60.16.100</property>
  <property name="seekable">1</property>
  <property name="audio_index">0</property>
  <property name="video_index">-1</property>
  <property name="mute_on_pause">1</property>
  <property name="mlt_service">avformat</property>
  <property name="kdenlive:clipname"/>
  <property name="kdenlive:clip_type">1</property>
  <property name="kdenlive:folderid">399</property>
  <property name="kdenlive:id">403</property>
  <property name="kdenlive:file_size">1000014</property>
  <property name="kdenlive:file_hash">3e946ba80e2e58cff17292f79274e7f6</property>
  <property name="kdenlive:audio_max0">222</property>
 </producer>
 <producer id="producer365" in="00:00:00.000" out="00:00:12.317">
  <property name="length">740</property>
  <property name="eof">pause</property>
  <property name="resource">/home/federico/Nextcloud/Kden/EditingUT/Sound/Sword/sword slash s  mani creation.wav</property>
  <property name="meta.media.nb_streams">1</property>
  <property name="meta.media.0.stream.type">audio</property>
  <property name="meta.media.0.codec.sample_fmt">s16</property>
  <property name="meta.media.0.codec.sample_rate">44100</property>
  <property name="meta.media.0.codec.channels">2</property>
  <property name="meta.media.0.codec.name">pcm_s16le</property>
  <property name="meta.media.0.codec.long_name">PCM signed 16-bit little-endian</property>
  <property name="meta.media.0.codec.bit_rate">1411200</property>
  <property name="meta.attr.encoder.markup">Lavf60.16.100</property>
  <property name="seekable">1</property>
  <property name="audio_index">0</property>
  <property name="video_index">-1</property>
  <property name="mute_on_pause">1</property>
  <property name="mlt_service">avformat</property>
  <property name="kdenlive:clipname"/>
  <property name="kdenlive:clip_type">1</property>
  <property name="kdenlive:folderid">399</property>
  <property name="kdenlive:id">404</property>
  <property name="kdenlive:file_size">2175054</property>
  <property name="kdenlive:file_hash">abb05dd4b3e4db1f165f944cdd4e5ad7</property>
  <property name="kdenlive:audio_max0">217</property>
 </producer>
 <producer id="producer364" in="00:00:00.000" out="00:00:24.433">
  <property name="length">1467</property>
  <property name="eof">pause</property>
  <property name="resource">/home/federico/Nextcloud/Kden/EditingUT/Sound/Sword/sword whoosh s.wav</property>
  <property name="meta.media.nb_streams">1</property>
  <property name="meta.media.0.stream.type">audio</property>
  <property name="meta.media.0.codec.sample_fmt">s16</property>
  <property name="meta.media.0.codec.sample_rate">44100</property>
  <property name="meta.media.0.codec.channels">2</property>
  <property name="meta.media.0.codec.name">pcm_s16le</property>
  <property name="meta.media.0.codec.long_name">PCM signed 16-bit little-endian</property>
  <property name="meta.media.0.codec.bit_rate">1411200</property>
  <property name="meta.attr.encoder.markup">Lavf60.16.100</property>
  <property name="seekable">1</property>
  <property name="audio_index">0</property>
  <property name="video_index">-1</property>
  <property name="mute_on_pause">1</property>
  <property name="mlt_service">avformat</property>
  <property name="kdenlive:clipname"/>
  <property name="kdenlive:clip_type">1</property>
  <property name="kdenlive:folderid">399</property>
  <property name="kdenlive:id">405</property>
  <property name="kdenlive:file_size">4313166</property>
  <property name="kdenlive:file_hash">f889aabe45534d5ee8fa1aa8d6bc5d6d</property>
  <property name="kdenlive:audio_max0">176</property>
 </producer>
 <producer id="producer366" in="00:00:00.000" out="00:00:00.950">
  <property name="length">58</property>
  <property name="eof">pause</property>
  <property name="resource">/home/federico/Nextcloud/Kden/EditingUT/Sound/Sword/swordarmortool break minecraft  -.wav</property>
  <property name="meta.media.nb_streams">1</property>
  <property name="meta.media.0.stream.type">audio</property>
  <property name="meta.media.0.codec.sample_fmt">s16</property>
  <property name="meta.media.0.codec.sample_rate">44100</property>
  <property name="meta.media.0.codec.channels">2</property>
  <property name="meta.media.0.codec.name">pcm_s16le</property>
  <property name="meta.media.0.codec.long_name">PCM signed 16-bit little-endian</property>
  <property name="meta.media.0.codec.bit_rate">1411200</property>
  <property name="meta.attr.encoder.markup">Lavf60.16.100</property>
  <property name="seekable">1</property>
  <property name="audio_index">0</property>
  <property name="video_index">-1</property>
  <property name="mute_on_pause">1</property>
  <property name="mlt_service">avformat</property>
  <property name="kdenlive:clipname"/>
  <property name="kdenlive:clip_type">1</property>
  <property name="kdenlive:folderid">399</property>
  <property name="kdenlive:id">406</property>
  <property name="kdenlive:file_size">170574</property>
  <property name="kdenlive:file_hash">5e98db808e9897dd76167f428fc72f10</property>
  <property name="kdenlive:audio_max0">169</property>
 </producer>
 <producer id="producer367" in="00:00:00.000" out="00:00:14.817">
  <property name="length">890</property>
  <property name="eof">pause</property>
  <property name="resource">/home/federico/Nextcloud/Kden/EditingUT/Video/5 men clapping.mkv</property>
  <property name="audio_index">1</property>
  <property name="video_index">0</property>
  <property name="mute_on_pause">0</property>
  <property name="mlt_service">avformat-novalidate</property>
  <property name="meta.media.nb_streams">2</property>
  <property name="meta.media.0.stream.type">video</property>
  <property name="meta.media.0.stream.frame_rate">27</property>
  <property name="meta.media.0.stream.sample_aspect_ratio">1</property>
  <property name="meta.media.0.codec.width">640</property>
  <property name="meta.media.0.codec.height">360</property>
  <property name="meta.media.0.codec.rotate">0</property>
  <property name="meta.media.0.codec.pix_fmt">yuv420p</property>
  <property name="meta.media.0.codec.sample_aspect_ratio">1</property>
  <property name="meta.media.0.codec.colorspace">709</property>
  <property name="meta.media.0.codec.color_trc">1</property>
  <property name="meta.media.0.codec.name">h264</property>
  <property name="meta.media.0.codec.long_name">H.264 / AVC / MPEG-4 AVC / MPEG-4 part 10</property>
  <property name="meta.media.0.codec.bit_rate">0</property>
  <property name="meta.attr.0.stream.HANDLER_NAME.markup">ISO Media file produced by Google Inc.</property>
  <property name="meta.attr.0.stream.VENDOR_ID.markup">[0][0][0][0]</property>
  <property name="meta.attr.0.stream.ENCODER.markup">Lavc60.31.102 libx264</property>
  <property name="meta.attr.0.stream.DURATION.markup">00:00:14.781000000</property>
  <property name="meta.media.1.stream.type">audio</property>
  <property name="meta.media.1.codec.sample_fmt">fltp</property>
  <property name="meta.media.1.codec.sample_rate">44100</property>
  <property name="meta.media.1.codec.channels">2</property>
  <property name="meta.media.1.codec.name">vorbis</property>
  <property name="meta.media.1.codec.long_name">Vorbis</property>
  <property name="meta.media.1.codec.bit_rate">0</property>
  <property name="meta.attr.1.stream.HANDLER_NAME.markup">ISO Media file produced by Google Inc.</property>
  <property name="meta.attr.1.stream.VENDOR_ID.markup">[0][0][0][0]</property>
  <property name="meta.attr.1.stream.ENCODER.markup">Lavc60.31.102 libvorbis</property>
  <property name="meta.attr.1.stream.DURATION.markup">00:00:14.841000000</property>
  <property name="meta.attr.COMPATIBLE_BRANDS.markup">isomiso2avc1mp41</property>
  <property name="meta.attr.MAJOR_BRAND.markup">isom</property>
  <property name="meta.attr.MINOR_VERSION.markup">512</property>
  <property name="meta.attr.ENCODER.markup">Lavf60.16.100</property>
  <property name="seekable">1</property>
  <property name="meta.media.sample_aspect_num">1</property>
  <property name="meta.media.sample_aspect_den">1</property>
  <property name="aspect_ratio">1</property>
  <property name="format">3</property>
  <property name="kdenlive:clipname"/>
  <property name="meta.media.frame_rate_num">27</property>
  <property name="meta.media.frame_rate_den">1</property>
  <property name="meta.media.colorspace">709</property>
  <property name="meta.media.color_trc">1</property>
  <property name="meta.media.has_b_frames">2</property>
  <property name="meta.media.width">640</property>
  <property name="meta.media.height">360</property>
  <property name="meta.media.color_range">mpeg</property>
  <property name="meta.media.top_field_first">0</property>
  <property name="meta.media.progressive">1</property>
  <property name="kdenlive:clip_type">0</property>
  <property name="kdenlive:folderid">407</property>
  <property name="kdenlive:id">408</property>
  <property name="kdenlive:file_size">452001</property>
  <property name="kdenlive:file_hash">669814354233df89f51d93f0df4a610b</property>
  <property name="kdenlive:audio_max1">173</property>
 </producer>
 <producer id="producer368" in="00:00:00.000" out="00:00:04.033">
  <property name="length">243</property>
  <property name="eof">pause</property>
  <property name="resource">/home/federico/Nextcloud/Kden/EditingUT/Video/be gone thot  meme.mkv</property>
  <property name="audio_index">1</property>
  <property name="video_index">0</property>
  <property name="mute_on_pause">0</property>
  <property name="mlt_service">avformat-novalidate</property>
  <property name="meta.media.nb_streams">2</property>
  <property name="meta.media.0.stream.type">video</property>
  <property name="meta.media.0.stream.frame_rate">29.97</property>
  <property name="meta.media.0.stream.sample_aspect_ratio">1</property>
  <property name="meta.media.0.codec.width">362</property>
  <property name="meta.media.0.codec.height">360</property>
  <property name="meta.media.0.codec.rotate">0</property>
  <property name="meta.media.0.codec.pix_fmt">yuv420p</property>
  <property name="meta.media.0.codec.sample_aspect_ratio">1</property>
  <property name="meta.media.0.codec.colorspace">709</property>
  <property name="meta.media.0.codec.color_trc">1</property>
  <property name="meta.media.0.codec.name">h264</property>
  <property name="meta.media.0.codec.long_name">H.264 / AVC / MPEG-4 AVC / MPEG-4 part 10</property>
  <property name="meta.media.0.codec.bit_rate">0</property>
  <property name="meta.attr.0.stream.HANDLER_NAME.markup">ISO Media file produced by Google Inc. Created on: 02/17/2023.</property>
  <property name="meta.attr.0.stream.VENDOR_ID.markup">[0][0][0][0]</property>
  <property name="meta.attr.0.stream.ENCODER.markup">Lavc60.31.102 libx264</property>
  <property name="meta.attr.0.stream.DURATION.markup">00:00:04.040000000</property>
  <property name="meta.media.1.stream.type">audio</property>
  <property name="meta.media.1.codec.sample_fmt">fltp</property>
  <property name="meta.media.1.codec.sample_rate">44100</property>
  <property name="meta.media.1.codec.channels">2</property>
  <property name="meta.media.1.codec.name">vorbis</property>
  <property name="meta.media.1.codec.long_name">Vorbis</property>
  <property name="meta.media.1.codec.bit_rate">0</property>
  <property name="meta.attr.1.stream.HANDLER_NAME.markup">ISO Media file produced by Google Inc. Created on: 02/17/2023.</property>
  <property name="meta.attr.1.stream.VENDOR_ID.markup">[0][0][0][0]</property>
  <property name="meta.attr.1.stream.ENCODER.markup">Lavc60.31.102 libvorbis</property>
  <property name="meta.attr.1.stream.DURATION.markup">00:00:04.043000000</property>
  <property name="meta.attr.COMPATIBLE_BRANDS.markup">isommp42</property>
  <property name="meta.attr.MAJOR_BRAND.markup">mp42</property>
  <property name="meta.attr.MINOR_VERSION.markup">0</property>
  <property name="meta.attr.ENCODER.markup">Lavf60.16.100</property>
  <property name="seekable">1</property>
  <property name="meta.media.sample_aspect_num">1</property>
  <property name="meta.media.sample_aspect_den">1</property>
  <property name="aspect_ratio">1</property>
  <property name="format">3</property>
  <property name="kdenlive:clipname"/>
  <property name="meta.media.frame_rate_num">30000</property>
  <property name="meta.media.frame_rate_den">1001</property>
  <property name="meta.media.colorspace">709</property>
  <property name="meta.media.color_trc">1</property>
  <property name="meta.media.has_b_frames">2</property>
  <property name="meta.media.width">362</property>
  <property name="meta.media.height">360</property>
  <property name="meta.media.color_range">mpeg</property>
  <property name="meta.media.top_field_first">0</property>
  <property name="meta.media.progressive">1</property>
  <property name="kdenlive:clip_type">0</property>
  <property name="kdenlive:folderid">407</property>
  <property name="kdenlive:id">409</property>
  <property name="kdenlive:file_size">168538</property>
  <property name="kdenlive:file_hash">b69aa7f2c513da7e1418eb1d0a44d101</property>
  <property name="kdenlive:audio_max1">229</property>
 </producer>
 <producer id="producer369" in="00:00:00.000" out="00:00:01.700">
  <property name="length">103</property>
  <property name="eof">pause</property>
  <property name="resource">/home/federico/Nextcloud/Kden/EditingUT/Video/brain fart.mkv</property>
  <property name="audio_index">1</property>
  <property name="video_index">0</property>
  <property name="mute_on_pause">0</property>
  <property name="mlt_service">avformat-novalidate</property>
  <property name="meta.media.nb_streams">2</property>
  <property name="meta.media.0.stream.type">video</property>
  <property name="meta.media.0.stream.frame_rate">29.4</property>
  <property name="meta.media.0.stream.sample_aspect_ratio">1</property>
  <property name="meta.media.0.codec.width">338</property>
  <property name="meta.media.0.codec.height">240</property>
  <property name="meta.media.0.codec.rotate">0</property>
  <property name="meta.media.0.codec.pix_fmt">yuv420p</property>
  <property name="meta.media.0.codec.sample_aspect_ratio">1</property>
  <property name="meta.media.0.codec.colorspace">709</property>
  <property name="meta.media.0.codec.color_trc">1</property>
  <property name="meta.media.0.codec.name">h264</property>
  <property name="meta.media.0.codec.long_name">H.264 / AVC / MPEG-4 AVC / MPEG-4 part 10</property>
  <property name="meta.media.0.codec.bit_rate">0</property>
  <property name="meta.attr.0.stream.HANDLER_NAME.markup">ISO Media file produced by Google Inc.</property>
  <property name="meta.attr.0.stream.VENDOR_ID.markup">[0][0][0][0]</property>
  <property name="meta.attr.0.stream.ENCODER.markup">Lavc60.31.102 libx264</property>
  <property name="meta.attr.0.stream.DURATION.markup">00:00:01.670000000</property>
  <property name="meta.media.1.stream.type">audio</property>
  <property name="meta.media.1.codec.sample_fmt">fltp</property>
  <property name="meta.media.1.codec.sample_rate">44100</property>
  <property name="meta.media.1.codec.channels">2</property>
  <property name="meta.media.1.codec.name">vorbis</property>
  <property name="meta.media.1.codec.long_name">Vorbis</property>
  <property name="meta.media.1.codec.bit_rate">0</property>
  <property name="meta.attr.1.stream.HANDLER_NAME.markup">ISO Media file produced by Google Inc.</property>
  <property name="meta.attr.1.stream.VENDOR_ID.markup">[0][0][0][0]</property>
  <property name="meta.attr.1.stream.ENCODER.markup">Lavc60.31.102 libvorbis</property>
  <property name="meta.attr.1.stream.DURATION.markup">00:00:01.721000000</property>
  <property name="meta.attr.COMPATIBLE_BRANDS.markup">isomiso2avc1mp41</property>
  <property name="meta.attr.MAJOR_BRAND.markup">isom</property>
  <property name="meta.attr.MINOR_VERSION.markup">512</property>
  <property name="meta.attr.ENCODER.markup">Lavf60.16.100</property>
  <property name="seekable">1</property>
  <property name="meta.media.sample_aspect_num">1</property>
  <property name="meta.media.sample_aspect_den">1</property>
  <property name="aspect_ratio">1</property>
  <property name="format">3</property>
  <property name="kdenlive:clipname"/>
  <property name="meta.media.frame_rate_num">147</property>
  <property name="meta.media.frame_rate_den">5</property>
  <property name="meta.media.colorspace">709</property>
  <property name="meta.media.color_trc">1</property>
  <property name="meta.media.has_b_frames">2</property>
  <property name="meta.media.width">338</property>
  <property name="meta.media.height">240</property>
  <property name="meta.media.color_range">mpeg</property>
  <property name="meta.media.top_field_first">0</property>
  <property name="meta.media.progressive">1</property>
  <property name="kdenlive:clip_type">0</property>
  <property name="kdenlive:folderid">407</property>
  <property name="kdenlive:id">410</property>
  <property name="kdenlive:file_size">64596</property>
  <property name="kdenlive:file_hash">2b29bec38923ee48e0de14d7933f1b6f</property>
  <property name="kdenlive:audio_max1">213</property>
 </producer>
 <producer id="producer372" in="00:00:00.000" out="00:00:09.183">
  <property name="length">552</property>
  <property name="eof">pause</property>
  <property name="resource">/home/federico/Nextcloud/Kden/EditingUT/Video/british_flag_meme.mkv</property>
  <property name="audio_index">1</property>
  <property name="video_index">0</property>
  <property name="mute_on_pause">0</property>
  <property name="mlt_service">avformat-novalidate</property>
  <property name="meta.media.nb_streams">2</property>
  <property name="meta.media.0.stream.type">video</property>
  <property name="meta.media.0.stream.frame_rate">60</property>
  <property name="meta.media.0.stream.sample_aspect_ratio">1</property>
  <property name="meta.media.0.codec.width">1920</property>
  <property name="meta.media.0.codec.height">1080</property>
  <property name="meta.media.0.codec.rotate">0</property>
  <property name="meta.media.0.codec.pix_fmt">yuv420p</property>
  <property name="meta.media.0.codec.sample_aspect_ratio">1</property>
  <property name="meta.media.0.codec.colorspace">709</property>
  <property name="meta.media.0.codec.color_trc">1</property>
  <property name="meta.media.0.codec.name">h264</property>
  <property name="meta.media.0.codec.long_name">H.264 / AVC / MPEG-4 AVC / MPEG-4 part 10</property>
  <property name="meta.media.0.codec.bit_rate">0</property>
  <property name="meta.attr.0.stream.DURATION.markup">00:00:09.188000000</property>
  <property name="meta.media.1.stream.type">audio</property>
  <property name="meta.media.1.codec.sample_fmt">fltp</property>
  <property name="meta.media.1.codec.sample_rate">48000</property>
  <property name="meta.media.1.codec.channels">2</property>
  <property name="meta.media.1.codec.name">aac</property>
  <property name="meta.media.1.codec.long_name">AAC (Advanced Audio Coding)</property>
  <property name="meta.media.1.codec.bit_rate">0</property>
  <property name="meta.attr.1.stream.DURATION.markup">00:00:09.194000000</property>
  <property name="meta.attr.ENCODER.markup">Lavf59.16.100</property>
  <property name="seekable">1</property>
  <property name="meta.media.sample_aspect_num">1</property>
  <property name="meta.media.sample_aspect_den">1</property>
  <property name="aspect_ratio">1</property>
  <property name="format">3</property>
  <property name="kdenlive:clipname"/>
  <property name="meta.media.frame_rate_num">60</property>
  <property name="meta.media.frame_rate_den">1</property>
  <property name="meta.media.colorspace">709</property>
  <property name="meta.media.color_trc">1</property>
  <property name="meta.media.has_b_frames">0</property>
  <property name="meta.media.width">1920</property>
  <property name="meta.media.height">1080</property>
  <property name="meta.media.color_range">mpeg</property>
  <property name="meta.media.top_field_first">0</property>
  <property name="meta.media.progressive">1</property>
  <property name="kdenlive:clip_type">0</property>
  <property name="kdenlive:folderid">407</property>
  <property name="kdenlive:id">411</property>
  <property name="kdenlive:file_size">16234143</property>
  <property name="kdenlive:file_hash">c14a6f3ee9242088d2b940ed2bf86319</property>
  <property name="kdenlive:audio_max1">194</property>
 </producer>
 <producer id="producer370" in="00:00:00.000" out="00:00:05.350">
  <property name="length">322</property>
  <property name="eof">pause</property>
  <property name="resource">/home/federico/Nextcloud/Kden/EditingUT/Video/bsod blue screen of death meme_error_windows.mkv</property>
  <property name="audio_index">1</property>
  <property name="video_index">0</property>
  <property name="mute_on_pause">0</property>
  <property name="mlt_service">avformat-novalidate</property>
  <property name="meta.media.nb_streams">2</property>
  <property name="meta.media.0.stream.type">video</property>
  <property name="meta.media.0.stream.frame_rate">30</property>
  <property name="meta.media.0.stream.sample_aspect_ratio">1</property>
  <property name="meta.media.0.codec.width">852</property>
  <property name="meta.media.0.codec.height">480</property>
  <property name="meta.media.0.codec.rotate">0</property>
  <property name="meta.media.0.codec.pix_fmt">yuv420p</property>
  <property name="meta.media.0.codec.sample_aspect_ratio">1</property>
  <property name="meta.media.0.codec.colorspace">709</property>
  <property name="meta.media.0.codec.color_trc">1</property>
  <property name="meta.media.0.codec.name">h264</property>
  <property name="meta.media.0.codec.long_name">H.264 / AVC / MPEG-4 AVC / MPEG-4 part 10</property>
  <property name="meta.media.0.codec.bit_rate">0</property>
  <property name="meta.attr.0.stream.HANDLER_NAME.markup">ISO Media file produced by Google Inc.</property>
  <property name="meta.attr.0.stream.VENDOR_ID.markup">[0][0][0][0]</property>
  <property name="meta.attr.0.stream.ENCODER.markup">Lavc60.31.102 libx264</property>
  <property name="meta.attr.0.stream.DURATION.markup">00:00:05.236000000</property>
  <property name="meta.media.1.stream.type">audio</property>
  <property name="meta.media.1.codec.sample_fmt">fltp</property>
  <property name="meta.media.1.codec.sample_rate">44100</property>
  <property name="meta.media.1.codec.channels">2</property>
  <property name="meta.media.1.codec.name">vorbis</property>
  <property name="meta.media.1.codec.long_name">Vorbis</property>
  <property name="meta.media.1.codec.bit_rate">0</property>
  <property name="meta.attr.1.stream.HANDLER_NAME.markup">ISO Media file produced by Google Inc.</property>
  <property name="meta.attr.1.stream.VENDOR_ID.markup">[0][0][0][0]</property>
  <property name="meta.attr.1.stream.ENCODER.markup">Lavc60.31.102 libvorbis</property>
  <property name="meta.attr.1.stream.DURATION.markup">00:00:05.367000000</property>
  <property name="meta.attr.COMPATIBLE_BRANDS.markup">isomiso2avc1mp41</property>
  <property name="meta.attr.MAJOR_BRAND.markup">isom</property>
  <property name="meta.attr.MINOR_VERSION.markup">512</property>
  <property name="meta.attr.ENCODER.markup">Lavf60.16.100</property>
  <property name="seekable">1</property>
  <property name="meta.media.sample_aspect_num">1</property>
  <property name="meta.media.sample_aspect_den">1</property>
  <property name="aspect_ratio">1</property>
  <property name="format">3</property>
  <property name="kdenlive:clipname"/>
  <property name="meta.media.frame_rate_num">30</property>
  <property name="meta.media.frame_rate_den">1</property>
  <property name="meta.media.colorspace">709</property>
  <property name="meta.media.color_trc">1</property>
  <property name="meta.media.has_b_frames">2</property>
  <property name="meta.media.width">852</property>
  <property name="meta.media.height">480</property>
  <property name="meta.media.color_range">mpeg</property>
  <property name="meta.media.top_field_first">0</property>
  <property name="meta.media.progressive">1</property>
  <property name="kdenlive:clip_type">0</property>
  <property name="kdenlive:folderid">407</property>
  <property name="kdenlive:id">412</property>
  <property name="kdenlive:file_size">275773</property>
  <property name="kdenlive:file_hash">711951f668033a9e300e8531e78eb20a</property>
  <property name="kdenlive:audio_max1">252</property>
 </producer>
 <producer id="producer374" in="00:00:00.000" out="00:00:01.233">
  <property name="length">75</property>
  <property name="eof">pause</property>
  <property name="resource">/home/federico/Nextcloud/Kden/EditingUT/Video/caught in 4k meme.mkv</property>
  <property name="audio_index">1</property>
  <property name="video_index">0</property>
  <property name="mute_on_pause">0</property>
  <property name="mlt_service">avformat-novalidate</property>
  <property name="meta.media.nb_streams">2</property>
  <property name="meta.media.0.stream.type">video</property>
  <property name="meta.media.0.stream.frame_rate">60</property>
  <property name="meta.media.0.stream.sample_aspect_ratio">1</property>
  <property name="meta.media.0.codec.width">1920</property>
  <property name="meta.media.0.codec.height">1080</property>
  <property name="meta.media.0.codec.rotate">0</property>
  <property name="meta.media.0.codec.pix_fmt">yuv420p</property>
  <property name="meta.media.0.codec.sample_aspect_ratio">1</property>
  <property name="meta.media.0.codec.colorspace">709</property>
  <property name="meta.media.0.codec.color_trc">1</property>
  <property name="meta.media.0.codec.name">h264</property>
  <property name="meta.media.0.codec.long_name">H.264 / AVC / MPEG-4 AVC / MPEG-4 part 10</property>
  <property name="meta.media.0.codec.bit_rate">0</property>
  <property name="meta.attr.0.stream.DURATION.markup">00:00:01.238000000</property>
  <property name="meta.media.1.stream.type">audio</property>
  <property name="meta.media.1.codec.sample_fmt">fltp</property>
  <property name="meta.media.1.codec.sample_rate">48000</property>
  <property name="meta.media.1.codec.channels">2</property>
  <property name="meta.media.1.codec.name">aac</property>
  <property name="meta.media.1.codec.long_name">AAC (Advanced Audio Coding)</property>
  <property name="meta.media.1.codec.bit_rate">0</property>
  <property name="meta.attr.1.stream.DURATION.markup">00:00:01.258000000</property>
  <property name="meta.attr.ENCODER.markup">Lavf59.16.100</property>
  <property name="seekable">1</property>
  <property name="meta.media.sample_aspect_num">1</property>
  <property name="meta.media.sample_aspect_den">1</property>
  <property name="aspect_ratio">1</property>
  <property name="format">3</property>
  <property name="kdenlive:clipname"/>
  <property name="meta.media.frame_rate_num">60</property>
  <property name="meta.media.frame_rate_den">1</property>
  <property name="meta.media.colorspace">709</property>
  <property name="meta.media.color_trc">1</property>
  <property name="meta.media.has_b_frames">0</property>
  <property name="meta.media.width">1920</property>
  <property name="meta.media.height">1080</property>
  <property name="meta.media.color_range">mpeg</property>
  <property name="meta.media.top_field_first">0</property>
  <property name="meta.media.progressive">1</property>
  <property name="kdenlive:clip_type">0</property>
  <property name="kdenlive:folderid">407</property>
  <property name="kdenlive:id">413</property>
  <property name="kdenlive:file_size">1200823</property>
  <property name="kdenlive:file_hash">2d88c1a5d1309ea40c66a7d08278aea4</property>
  <property name="kdenlive:audio_max1">140</property>
 </producer>
 <producer id="producer371" in="00:00:00.000" out="00:00:12.417">
  <property name="length">746</property>
  <property name="eof">pause</property>
  <property name="resource">/home/federico/Nextcloud/Kden/EditingUT/Video/clapping meme   to use.mkv</property>
  <property name="audio_index">1</property>
  <property name="video_index">0</property>
  <property name="mute_on_pause">0</property>
  <property name="mlt_service">avformat-novalidate</property>
  <property name="meta.media.nb_streams">2</property>
  <property name="meta.media.0.stream.type">video</property>
  <property name="meta.media.0.stream.frame_rate">29.97</property>
  <property name="meta.media.0.stream.sample_aspect_ratio">1</property>
  <property name="meta.media.0.codec.width">1280</property>
  <property name="meta.media.0.codec.height">720</property>
  <property name="meta.media.0.codec.rotate">0</property>
  <property name="meta.media.0.codec.pix_fmt">yuv420p</property>
  <property name="meta.media.0.codec.sample_aspect_ratio">1</property>
  <property name="meta.media.0.codec.colorspace">709</property>
  <property name="meta.media.0.codec.color_trc">1</property>
  <property name="meta.media.0.codec.name">h264</property>
  <property name="meta.media.0.codec.long_name">H.264 / AVC / MPEG-4 AVC / MPEG-4 part 10</property>
  <property name="meta.media.0.codec.bit_rate">0</property>
  <property name="meta.attr.0.stream.HANDLER_NAME.markup">ISO Media file produced by Google Inc.</property>
  <property name="meta.attr.0.stream.VENDOR_ID.markup">[0][0][0][0]</property>
  <property name="meta.attr.0.stream.ENCODER.markup">Lavc60.31.102 libx264</property>
  <property name="meta.attr.0.stream.DURATION.markup">00:00:12.348000000</property>
  <property name="meta.media.1.stream.type">audio</property>
  <property name="meta.media.1.codec.sample_fmt">fltp</property>
  <property name="meta.media.1.codec.sample_rate">44100</property>
  <property name="meta.media.1.codec.channels">2</property>
  <property name="meta.media.1.codec.name">vorbis</property>
  <property name="meta.media.1.codec.long_name">Vorbis</property>
  <property name="meta.media.1.codec.bit_rate">0</property>
  <property name="meta.attr.1.stream.HANDLER_NAME.markup">ISO Media file produced by Google Inc.</property>
  <property name="meta.attr.1.stream.VENDOR_ID.markup">[0][0][0][0]</property>
  <property name="meta.attr.1.stream.ENCODER.markup">Lavc60.31.102 libvorbis</property>
  <property name="meta.attr.1.stream.DURATION.markup">00:00:12.425000000</property>
  <property name="meta.attr.COMPATIBLE_BRANDS.markup">isomiso2avc1mp41</property>
  <property name="meta.attr.MAJOR_BRAND.markup">isom</property>
  <property name="meta.attr.MINOR_VERSION.markup">512</property>
  <property name="meta.attr.ENCODER.markup">Lavf60.16.100</property>
  <property name="seekable">1</property>
  <property name="meta.media.sample_aspect_num">1</property>
  <property name="meta.media.sample_aspect_den">1</property>
  <property name="aspect_ratio">1</property>
  <property name="format">3</property>
  <property name="kdenlive:clipname"/>
  <property name="meta.media.frame_rate_num">30000</property>
  <property name="meta.media.frame_rate_den">1001</property>
  <property name="meta.media.colorspace">709</property>
  <property name="meta.media.color_trc">1</property>
  <property name="meta.media.has_b_frames">2</property>
  <property name="meta.media.width">1280</property>
  <property name="meta.media.height">720</property>
  <property name="meta.media.color_range">mpeg</property>
  <property name="meta.media.top_field_first">0</property>
  <property name="meta.media.progressive">1</property>
  <property name="kdenlive:clip_type">0</property>
  <property name="kdenlive:folderid">407</property>
  <property name="kdenlive:id">414</property>
  <property name="kdenlive:file_size">1536834</property>
  <property name="kdenlive:file_hash">f7a50189e581232807e31d4cf2b8a1b3</property>
  <property name="kdenlive:audio_max1">182</property>
 </producer>
 <producer id="producer376" in="00:00:00.000" out="00:00:01.733">
  <property name="length">105</property>
  <property name="eof">pause</property>
  <property name="resource">/home/federico/Nextcloud/Kden/EditingUT/Video/cry_cries_underwater_meme.mkv</property>
  <property name="audio_index">1</property>
  <property name="video_index">0</property>
  <property name="mute_on_pause">0</property>
  <property name="mlt_service">avformat-novalidate</property>
  <property name="meta.media.nb_streams">2</property>
  <property name="meta.media.0.stream.type">video</property>
  <property name="meta.media.0.stream.frame_rate">60</property>
  <property name="meta.media.0.stream.sample_aspect_ratio">1</property>
  <property name="meta.media.0.codec.width">1920</property>
  <property name="meta.media.0.codec.height">1080</property>
  <property name="meta.media.0.codec.rotate">0</property>
  <property name="meta.media.0.codec.pix_fmt">yuv420p</property>
  <property name="meta.media.0.codec.sample_aspect_ratio">1</property>
  <property name="meta.media.0.codec.colorspace">709</property>
  <property name="meta.media.0.codec.color_trc">1</property>
  <property name="meta.media.0.codec.name">h264</property>
  <property name="meta.media.0.codec.long_name">H.264 / AVC / MPEG-4 AVC / MPEG-4 part 10</property>
  <property name="meta.media.0.codec.bit_rate">0</property>
  <property name="meta.attr.0.stream.DURATION.markup">00:00:01.738000000</property>
  <property name="meta.media.1.stream.type">audio</property>
  <property name="meta.media.1.codec.sample_fmt">fltp</property>
  <property name="meta.media.1.codec.sample_rate">48000</property>
  <property name="meta.media.1.codec.channels">2</property>
  <property name="meta.media.1.codec.name">aac</property>
  <property name="meta.media.1.codec.long_name">AAC (Advanced Audio Coding)</property>
  <property name="meta.media.1.codec.bit_rate">0</property>
  <property name="meta.attr.1.stream.DURATION.markup">00:00:01.749000000</property>
  <property name="meta.attr.ENCODER.markup">Lavf59.16.100</property>
  <property name="seekable">1</property>
  <property name="meta.media.sample_aspect_num">1</property>
  <property name="meta.media.sample_aspect_den">1</property>
  <property name="aspect_ratio">1</property>
  <property name="format">3</property>
  <property name="kdenlive:clipname"/>
  <property name="meta.media.frame_rate_num">60</property>
  <property name="meta.media.frame_rate_den">1</property>
  <property name="meta.media.colorspace">709</property>
  <property name="meta.media.color_trc">1</property>
  <property name="meta.media.has_b_frames">2</property>
  <property name="meta.media.width">1920</property>
  <property name="meta.media.height">1080</property>
  <property name="meta.media.color_range">mpeg</property>
  <property name="meta.media.top_field_first">0</property>
  <property name="meta.media.progressive">1</property>
  <property name="kdenlive:clip_type">0</property>
  <property name="kdenlive:folderid">407</property>
  <property name="kdenlive:id">415</property>
  <property name="kdenlive:file_size">1336387</property>
  <property name="kdenlive:file_hash">4749e88d855b2ac8c3b99659ab569d4b</property>
  <property name="kdenlive:audio_max1">146</property>
 </producer>
 <producer id="producer373" in="00:00:00.000" out="00:00:05.633">
  <property name="length">339</property>
  <property name="eof">pause</property>
  <property name="resource">/home/federico/Nextcloud/Kden/EditingUT/Video/dramatic look.mkv</property>
  <property name="audio_index">1</property>
  <property name="video_index">0</property>
  <property name="mute_on_pause">0</property>
  <property name="mlt_service">avformat-novalidate</property>
  <property name="meta.media.nb_streams">2</property>
  <property name="meta.media.0.stream.type">video</property>
  <property name="meta.media.0.stream.frame_rate">25</property>
  <property name="meta.media.0.stream.sample_aspect_ratio">1</property>
  <property name="meta.media.0.codec.width">320</property>
  <property name="meta.media.0.codec.height">240</property>
  <property name="meta.media.0.codec.rotate">0</property>
  <property name="meta.media.0.codec.pix_fmt">yuv420p</property>
  <property name="meta.media.0.codec.sample_aspect_ratio">1</property>
  <property name="meta.media.0.codec.colorspace">601</property>
  <property name="meta.media.0.codec.name">h264</property>
  <property name="meta.media.0.codec.long_name">H.264 / AVC / MPEG-4 AVC / MPEG-4 part 10</property>
  <property name="meta.media.0.codec.bit_rate">0</property>
  <property name="meta.attr.0.stream.HANDLER_NAME.markup">ISO Media file produced by Google Inc.</property>
  <property name="meta.attr.0.stream.VENDOR_ID.markup">[0][0][0][0]</property>
  <property name="meta.attr.0.stream.ENCODER.markup">Lavc60.31.102 libx264</property>
  <property name="meta.attr.0.stream.DURATION.markup">00:00:05.363000000</property>
  <property name="meta.media.1.stream.type">audio</property>
  <property name="meta.media.1.codec.sample_fmt">fltp</property>
  <property name="meta.media.1.codec.sample_rate">44100</property>
  <property name="meta.media.1.codec.channels">2</property>
  <property name="meta.media.1.codec.name">vorbis</property>
  <property name="meta.media.1.codec.long_name">Vorbis</property>
  <property name="meta.media.1.codec.bit_rate">0</property>
  <property name="meta.attr.1.stream.language.markup">eng</property>
  <property name="meta.attr.1.stream.HANDLER_NAME.markup">ISO Media file produced by Google Inc.</property>
  <property name="meta.attr.1.stream.VENDOR_ID.markup">[0][0][0][0]</property>
  <property name="meta.attr.1.stream.ENCODER.markup">Lavc60.31.102 libvorbis</property>
  <property name="meta.attr.1.stream.DURATION.markup">00:00:05.646000000</property>
  <property name="meta.attr.COMPATIBLE_BRANDS.markup">isomiso2avc1mp41</property>
  <property name="meta.attr.MAJOR_BRAND.markup">isom</property>
  <property name="meta.attr.MINOR_VERSION.markup">512</property>
  <property name="meta.attr.ENCODER.markup">Lavf60.16.100</property>
  <property name="seekable">1</property>
  <property name="meta.media.sample_aspect_num">1</property>
  <property name="meta.media.sample_aspect_den">1</property>
  <property name="aspect_ratio">1</property>
  <property name="format">3</property>
  <property name="kdenlive:clipname"/>
  <property name="meta.media.frame_rate_num">25</property>
  <property name="meta.media.frame_rate_den">1</property>
  <property name="meta.media.colorspace">601</property>
  <property name="meta.media.color_trc">2</property>
  <property name="meta.media.has_b_frames">2</property>
  <property name="meta.media.width">320</property>
  <property name="meta.media.height">240</property>
  <property name="meta.media.color_range">mpeg</property>
  <property name="meta.media.top_field_first">0</property>
  <property name="meta.media.progressive">1</property>
  <property name="kdenlive:clip_type">0</property>
  <property name="kdenlive:folderid">407</property>
  <property name="kdenlive:id">416</property>
  <property name="kdenlive:file_size">110222</property>
  <property name="kdenlive:file_hash">18634ca1ccce8dcbf4739453aa866dcc</property>
  <property name="kdenlive:audio_max1">203</property>
 </producer>
 <producer id="producer379" in="00:00:00.000" out="00:00:08.050">
  <property name="length">484</property>
  <property name="eof">pause</property>
  <property name="resource">/home/federico/Nextcloud/Kden/EditingUT/Video/eh volevi! guarda che faccia!.mkv</property>
  <property name="audio_index">1</property>
  <property name="video_index">0</property>
  <property name="mute_on_pause">0</property>
  <property name="mlt_service">avformat-novalidate</property>
  <property name="meta.media.nb_streams">2</property>
  <property name="meta.media.0.stream.type">video</property>
  <property name="meta.media.0.stream.frame_rate">60</property>
  <property name="meta.media.0.stream.sample_aspect_ratio">1</property>
  <property name="meta.media.0.codec.width">1920</property>
  <property name="meta.media.0.codec.height">1080</property>
  <property name="meta.media.0.codec.rotate">0</property>
  <property name="meta.media.0.codec.pix_fmt">yuv420p</property>
  <property name="meta.media.0.codec.sample_aspect_ratio">1</property>
  <property name="meta.media.0.codec.colorspace">709</property>
  <property name="meta.media.0.codec.color_trc">1</property>
  <property name="meta.media.0.codec.name">h264</property>
  <property name="meta.media.0.codec.long_name">H.264 / AVC / MPEG-4 AVC / MPEG-4 part 10</property>
  <property name="meta.media.0.codec.bit_rate">0</property>
  <property name="meta.attr.0.stream.DURATION.markup">00:00:08.055000000</property>
  <property name="meta.media.1.stream.type">audio</property>
  <property name="meta.media.1.codec.sample_fmt">fltp</property>
  <property name="meta.media.1.codec.sample_rate">48000</property>
  <property name="meta.media.1.codec.channels">2</property>
  <property name="meta.media.1.codec.name">aac</property>
  <property name="meta.media.1.codec.long_name">AAC (Advanced Audio Coding)</property>
  <property name="meta.media.1.codec.bit_rate">0</property>
  <property name="meta.attr.1.stream.DURATION.markup">00:00:08.063000000</property>
  <property name="meta.attr.ENCODER.markup">Lavf59.16.100</property>
  <property name="seekable">1</property>
  <property name="meta.media.sample_aspect_num">1</property>
  <property name="meta.media.sample_aspect_den">1</property>
  <property name="aspect_ratio">1</property>
  <property name="format">3</property>
  <property name="kdenlive:clipname"/>
  <property name="meta.media.frame_rate_num">60</property>
  <property name="meta.media.frame_rate_den">1</property>
  <property name="meta.media.colorspace">709</property>
  <property name="meta.media.color_trc">1</property>
  <property name="meta.media.has_b_frames">0</property>
  <property name="meta.media.width">1920</property>
  <property name="meta.media.height">1080</property>
  <property name="meta.media.color_range">mpeg</property>
  <property name="meta.media.top_field_first">0</property>
  <property name="meta.media.progressive">1</property>
  <property name="kdenlive:clip_type">0</property>
  <property name="kdenlive:folderid">407</property>
  <property name="kdenlive:id">417</property>
  <property name="kdenlive:file_size">6359402</property>
  <property name="kdenlive:file_hash">93c78b4a0f2bdf65a2541eb68725b4d8</property>
  <property name="kdenlive:audio_max1">143</property>
 </producer>
 <producer id="producer375" in="00:00:00.000" out="00:00:48.000">
  <property name="length">2881</property>
  <property name="eof">pause</property>
  <property name="resource">/home/federico/Nextcloud/Kden/EditingUT/Video/everyone scream then disappear.mkv</property>
  <property name="audio_index">1</property>
  <property name="video_index">0</property>
  <property name="mute_on_pause">0</property>
  <property name="mlt_service">avformat-novalidate</property>
  <property name="meta.media.nb_streams">3</property>
  <property name="meta.media.0.stream.type">video</property>
  <property name="meta.media.0.stream.frame_rate">30</property>
  <property name="meta.media.0.stream.sample_aspect_ratio">1</property>
  <property name="meta.media.0.codec.width">426</property>
  <property name="meta.media.0.codec.height">240</property>
  <property name="meta.media.0.codec.rotate">0</property>
  <property name="meta.media.0.codec.pix_fmt">yuv420p</property>
  <property name="meta.media.0.codec.sample_aspect_ratio">1</property>
  <property name="meta.media.0.codec.colorspace">601</property>
  <property name="meta.media.0.codec.color_trc">1</property>
  <property name="meta.media.0.codec.name">h264</property>
  <property name="meta.media.0.codec.long_name">H.264 / AVC / MPEG-4 AVC / MPEG-4 part 10</property>
  <property name="meta.media.0.codec.bit_rate">0</property>
  <property name="meta.attr.0.stream.HANDLER_NAME.markup">ISO Media file produced by Google Inc.</property>
  <property name="meta.attr.0.stream.VENDOR_ID.markup">[0][0][0][0]</property>
  <property name="meta.attr.0.stream.ENCODER.markup">Lavc60.31.102 libx264</property>
  <property name="meta.attr.0.stream.DURATION.markup">00:00:47.969000000</property>
  <property name="meta.media.1.stream.type">audio</property>
  <property name="meta.media.1.codec.sample_fmt">fltp</property>
  <property name="meta.media.1.codec.sample_rate">44100</property>
  <property name="meta.media.1.codec.channels">2</property>
  <property name="meta.media.1.codec.name">vorbis</property>
  <property name="meta.media.1.codec.long_name">Vorbis</property>
  <property name="meta.media.1.codec.bit_rate">0</property>
  <property name="meta.attr.1.stream.HANDLER_NAME.markup">ISO Media file produced by Google Inc.</property>
  <property name="meta.attr.1.stream.VENDOR_ID.markup">[0][0][0][0]</property>
  <property name="meta.attr.1.stream.ENCODER.markup">Lavc60.31.102 libvorbis</property>
  <property name="meta.attr.1.stream.DURATION.markup">00:00:48.022000000</property>
  <property name="meta.media.2.codec.name">ssa</property>
  <property name="meta.media.2.codec.long_name">ASS (Advanced SubStation Alpha) subtitle</property>
  <property name="meta.media.2.codec.bit_rate">0</property>
  <property name="meta.attr.2.stream.language.markup">eng</property>
  <property name="meta.attr.2.stream.HANDLER_NAME.markup">English (United States)</property>
  <property name="meta.attr.2.stream.ENCODER.markup">Lavc60.31.102 ssa</property>
  <property name="meta.attr.2.stream.DURATION.markup">00:00:46.861000000</property>
  <property name="meta.attr.COMPATIBLE_BRANDS.markup">isomiso2avc1mp41</property>
  <property name="meta.attr.MAJOR_BRAND.markup">isom</property>
  <property name="meta.attr.MINOR_VERSION.markup">512</property>
  <property name="meta.attr.ENCODER.markup">Lavf60.16.100</property>
  <property name="seekable">1</property>
  <property name="meta.media.sample_aspect_num">1</property>
  <property name="meta.media.sample_aspect_den">1</property>
  <property name="aspect_ratio">1</property>
  <property name="format">3</property>
  <property name="kdenlive:clipname"/>
  <property name="meta.media.frame_rate_num">30</property>
  <property name="meta.media.frame_rate_den">1</property>
  <property name="meta.media.colorspace">601</property>
  <property name="meta.media.color_trc">1</property>
  <property name="meta.media.has_b_frames">2</property>
  <property name="meta.media.width">426</property>
  <property name="meta.media.height">240</property>
  <property name="meta.media.color_range">mpeg</property>
  <property name="meta.media.top_field_first">0</property>
  <property name="meta.media.progressive">1</property>
  <property name="kdenlive:clip_type">0</property>
  <property name="kdenlive:folderid">407</property>
  <property name="kdenlive:id">418</property>
  <property name="kdenlive:file_size">1112339</property>
  <property name="kdenlive:file_hash">331c9696672a816dc02d1a24bf2cccf0</property>
  <property name="kdenlive:audio_max1">250</property>
  <property name="kdenlive:zone_in">0</property>
  <property name="kdenlive:zone_out">85</property>
 </producer>
 <producer id="producer378" in="00:00:00.000" out="00:00:08.600">
  <property name="length">517</property>
  <property name="eof">pause</property>
  <property name="resource">/home/federico/Nextcloud/Kden/EditingUT/Video/ew dude, what the fuck meme.mkv</property>
  <property name="audio_index">1</property>
  <property name="video_index">0</property>
  <property name="mute_on_pause">0</property>
  <property name="mlt_service">avformat-novalidate</property>
  <property name="meta.media.nb_streams">2</property>
  <property name="meta.media.0.stream.type">video</property>
  <property name="meta.media.0.stream.frame_rate">30</property>
  <property name="meta.media.0.stream.sample_aspect_ratio">1</property>
  <property name="meta.media.0.codec.width">1280</property>
  <property name="meta.media.0.codec.height">720</property>
  <property name="meta.media.0.codec.rotate">0</property>
  <property name="meta.media.0.codec.pix_fmt">yuv420p</property>
  <property name="meta.media.0.codec.sample_aspect_ratio">1</property>
  <property name="meta.media.0.codec.colorspace">709</property>
  <property name="meta.media.0.codec.color_trc">1</property>
  <property name="meta.media.0.codec.name">h264</property>
  <property name="meta.media.0.codec.long_name">H.264 / AVC / MPEG-4 AVC / MPEG-4 part 10</property>
  <property name="meta.media.0.codec.bit_rate">0</property>
  <property name="meta.attr.0.stream.HANDLER_NAME.markup">ISO Media file produced by Google Inc.</property>
  <property name="meta.attr.0.stream.VENDOR_ID.markup">[0][0][0][0]</property>
  <property name="meta.attr.0.stream.ENCODER.markup">Lavc60.31.102 libx264</property>
  <property name="meta.attr.0.stream.DURATION.markup">00:00:08.403000000</property>
  <property name="meta.media.1.stream.type">audio</property>
  <property name="meta.media.1.codec.sample_fmt">fltp</property>
  <property name="meta.media.1.codec.sample_rate">44100</property>
  <property name="meta.media.1.codec.channels">2</property>
  <property name="meta.media.1.codec.name">vorbis</property>
  <property name="meta.media.1.codec.long_name">Vorbis</property>
  <property name="meta.media.1.codec.bit_rate">0</property>
  <property name="meta.attr.1.stream.HANDLER_NAME.markup">ISO Media file produced by Google Inc.</property>
  <property name="meta.attr.1.stream.VENDOR_ID.markup">[0][0][0][0]</property>
  <property name="meta.attr.1.stream.ENCODER.markup">Lavc60.31.102 libvorbis</property>
  <property name="meta.attr.1.stream.DURATION.markup">00:00:08.618000000</property>
  <property name="meta.attr.COMPATIBLE_BRANDS.markup">isomiso2avc1mp41</property>
  <property name="meta.attr.MAJOR_BRAND.markup">isom</property>
  <property name="meta.attr.MINOR_VERSION.markup">512</property>
  <property name="meta.attr.ENCODER.markup">Lavf60.16.100</property>
  <property name="seekable">1</property>
  <property name="meta.media.sample_aspect_num">1</property>
  <property name="meta.media.sample_aspect_den">1</property>
  <property name="aspect_ratio">1</property>
  <property name="format">3</property>
  <property name="kdenlive:clipname"/>
  <property name="meta.media.frame_rate_num">30</property>
  <property name="meta.media.frame_rate_den">1</property>
  <property name="meta.media.colorspace">709</property>
  <property name="meta.media.color_trc">1</property>
  <property name="meta.media.has_b_frames">2</property>
  <property name="meta.media.width">1280</property>
  <property name="meta.media.height">720</property>
  <property name="meta.media.color_range">mpeg</property>
  <property name="meta.media.top_field_first">0</property>
  <property name="meta.media.progressive">1</property>
  <property name="kdenlive:clip_type">0</property>
  <property name="kdenlive:folderid">407</property>
  <property name="kdenlive:id">419</property>
  <property name="kdenlive:file_size">1024564</property>
  <property name="kdenlive:file_hash">6b498023244d4eef68da66fa1431b80b</property>
  <property name="kdenlive:audio_max1">238</property>
 </producer>
 <producer id="producer377" in="00:00:00.000" out="00:00:02.117">
  <property name="length">128</property>
  <property name="eof">pause</property>
  <property name="resource">/home/federico/Nextcloud/Kden/EditingUT/Video/facepalm meme.mkv</property>
  <property name="audio_index">1</property>
  <property name="video_index">0</property>
  <property name="mute_on_pause">0</property>
  <property name="mlt_service">avformat-novalidate</property>
  <property name="meta.media.nb_streams">2</property>
  <property name="meta.media.0.stream.type">video</property>
  <property name="meta.media.0.stream.frame_rate">30</property>
  <property name="meta.media.0.stream.sample_aspect_ratio">1</property>
  <property name="meta.media.0.codec.width">1280</property>
  <property name="meta.media.0.codec.height">720</property>
  <property name="meta.media.0.codec.rotate">0</property>
  <property name="meta.media.0.codec.pix_fmt">yuv420p</property>
  <property name="meta.media.0.codec.sample_aspect_ratio">1</property>
  <property name="meta.media.0.codec.colorspace">709</property>
  <property name="meta.media.0.codec.color_trc">1</property>
  <property name="meta.media.0.codec.name">h264</property>
  <property name="meta.media.0.codec.long_name">H.264 / AVC / MPEG-4 AVC / MPEG-4 part 10</property>
  <property name="meta.media.0.codec.bit_rate">0</property>
  <property name="meta.attr.0.stream.HANDLER_NAME.markup">ISO Media file produced by Google Inc.</property>
  <property name="meta.attr.0.stream.VENDOR_ID.markup">[0][0][0][0]</property>
  <property name="meta.attr.0.stream.ENCODER.markup">Lavc60.31.102 libx264</property>
  <property name="meta.attr.0.stream.DURATION.markup">00:00:02.036000000</property>
  <property name="meta.media.1.stream.type">audio</property>
  <property name="meta.media.1.codec.sample_fmt">fltp</property>
  <property name="meta.media.1.codec.sample_rate">44100</property>
  <property name="meta.media.1.codec.channels">2</property>
  <property name="meta.media.1.codec.name">vorbis</property>
  <property name="meta.media.1.codec.long_name">Vorbis</property>
  <property name="meta.media.1.codec.bit_rate">0</property>
  <property name="meta.attr.1.stream.HANDLER_NAME.markup">ISO Media file produced by Google Inc.</property>
  <property name="meta.attr.1.stream.VENDOR_ID.markup">[0][0][0][0]</property>
  <property name="meta.attr.1.stream.ENCODER.markup">Lavc60.31.102 libvorbis</property>
  <property name="meta.attr.1.stream.DURATION.markup">00:00:02.139000000</property>
  <property name="meta.attr.COMPATIBLE_BRANDS.markup">isomiso2avc1mp41</property>
  <property name="meta.attr.MAJOR_BRAND.markup">isom</property>
  <property name="meta.attr.MINOR_VERSION.markup">512</property>
  <property name="meta.attr.ENCODER.markup">Lavf60.16.100</property>
  <property name="seekable">1</property>
  <property name="meta.media.sample_aspect_num">1</property>
  <property name="meta.media.sample_aspect_den">1</property>
  <property name="aspect_ratio">1</property>
  <property name="format">3</property>
  <property name="kdenlive:clipname"/>
  <property name="meta.media.frame_rate_num">30</property>
  <property name="meta.media.frame_rate_den">1</property>
  <property name="meta.media.colorspace">709</property>
  <property name="meta.media.color_trc">1</property>
  <property name="meta.media.has_b_frames">2</property>
  <property name="meta.media.width">1280</property>
  <property name="meta.media.height">720</property>
  <property name="meta.media.color_range">mpeg</property>
  <property name="meta.media.top_field_first">0</property>
  <property name="meta.media.progressive">1</property>
  <property name="kdenlive:clip_type">0</property>
  <property name="kdenlive:folderid">407</property>
  <property name="kdenlive:id">420</property>
  <property name="kdenlive:file_size">458548</property>
  <property name="kdenlive:file_hash">2b675a3064c0f6c6d90de28040862caf</property>
  <property name="kdenlive:audio_max1">87</property>
 </producer>
 <producer id="producer380" in="00:00:00.000" out="00:00:04.250">
  <property name="length">256</property>
  <property name="eof">pause</property>
  <property name="resource">/home/federico/Nextcloud/Kden/EditingUT/Video/fbi open up.mkv</property>
  <property name="audio_index">1</property>
  <property name="video_index">0</property>
  <property name="mute_on_pause">0</property>
  <property name="mlt_service">avformat-novalidate</property>
  <property name="meta.media.nb_streams">2</property>
  <property name="meta.media.0.stream.type">video</property>
  <property name="meta.media.0.stream.frame_rate">60</property>
  <property name="meta.media.0.stream.sample_aspect_ratio">1</property>
  <property name="meta.media.0.codec.width">1920</property>
  <property name="meta.media.0.codec.height">1080</property>
  <property name="meta.media.0.codec.rotate">0</property>
  <property name="meta.media.0.codec.pix_fmt">yuv420p</property>
  <property name="meta.media.0.codec.sample_aspect_ratio">1</property>
  <property name="meta.media.0.codec.colorspace">709</property>
  <property name="meta.media.0.codec.color_trc">1</property>
  <property name="meta.media.0.codec.name">h264</property>
  <property name="meta.media.0.codec.long_name">H.264 / AVC / MPEG-4 AVC / MPEG-4 part 10</property>
  <property name="meta.media.0.codec.bit_rate">0</property>
  <property name="meta.attr.0.stream.DURATION.markup">00:00:04.255000000</property>
  <property name="meta.media.1.stream.type">audio</property>
  <property name="meta.media.1.codec.sample_fmt">fltp</property>
  <property name="meta.media.1.codec.sample_rate">48000</property>
  <property name="meta.media.1.codec.channels">2</property>
  <property name="meta.media.1.codec.name">aac</property>
  <property name="meta.media.1.codec.long_name">AAC (Advanced Audio Coding)</property>
  <property name="meta.media.1.codec.bit_rate">0</property>
  <property name="meta.attr.1.stream.DURATION.markup">00:00:04.266000000</property>
  <property name="meta.attr.ENCODER.markup">Lavf59.16.100</property>
  <property name="seekable">1</property>
  <property name="meta.media.sample_aspect_num">1</property>
  <property name="meta.media.sample_aspect_den">1</property>
  <property name="aspect_ratio">1</property>
  <property name="format">3</property>
  <property name="kdenlive:clipname"/>
  <property name="meta.media.frame_rate_num">60</property>
  <property name="meta.media.frame_rate_den">1</property>
  <property name="meta.media.colorspace">709</property>
  <property name="meta.media.color_trc">1</property>
  <property name="meta.media.has_b_frames">0</property>
  <property name="meta.media.width">1920</property>
  <property name="meta.media.height">1080</property>
  <property name="meta.media.color_range">mpeg</property>
  <property name="meta.media.top_field_first">0</property>
  <property name="meta.media.progressive">1</property>
  <property name="kdenlive:clip_type">0</property>
  <property name="kdenlive:folderid">407</property>
  <property name="kdenlive:id">421</property>
  <property name="kdenlive:file_size">5441753</property>
  <property name="kdenlive:file_hash">d7cb2c24f6303931d6e646a3cd65613c</property>
  <property name="kdenlive:audio_max1">236</property>
 </producer>
 <producer id="producer381" in="00:00:00.000" out="00:00:10.117">
  <property name="length">608</property>
  <property name="eof">pause</property>
  <property name="resource">/home/federico/Nextcloud/Kden/EditingUT/Video/fire overlay.mkv</property>
  <property name="audio_index">1</property>
  <property name="video_index">0</property>
  <property name="mute_on_pause">0</property>
  <property name="mlt_service">avformat-novalidate</property>
  <property name="meta.media.nb_streams">2</property>
  <property name="meta.media.0.stream.type">video</property>
  <property name="meta.media.0.stream.frame_rate">24</property>
  <property name="meta.media.0.stream.sample_aspect_ratio">1</property>
  <property name="meta.media.0.codec.width">1280</property>
  <property name="meta.media.0.codec.height">720</property>
  <property name="meta.media.0.codec.rotate">0</property>
  <property name="meta.media.0.codec.pix_fmt">yuv420p</property>
  <property name="meta.media.0.codec.sample_aspect_ratio">1</property>
  <property name="meta.media.0.codec.colorspace">709</property>
  <property name="meta.media.0.codec.color_trc">1</property>
  <property name="meta.media.0.codec.name">h264</property>
  <property name="meta.media.0.codec.long_name">H.264 / AVC / MPEG-4 AVC / MPEG-4 part 10</property>
  <property name="meta.media.0.codec.bit_rate">0</property>
  <property name="meta.attr.0.stream.HANDLER_NAME.markup">ISO Media file produced by Google Inc.</property>
  <property name="meta.attr.0.stream.VENDOR_ID.markup">[0][0][0][0]</property>
  <property name="meta.attr.0.stream.ENCODER.markup">Lavc60.31.102 libx264</property>
  <property name="meta.attr.0.stream.DURATION.markup">00:00:10.045000000</property>
  <property name="meta.media.1.stream.type">audio</property>
  <property name="meta.media.1.codec.sample_fmt">fltp</property>
  <property name="meta.media.1.codec.sample_rate">44100</property>
  <property name="meta.media.1.codec.channels">2</property>
  <property name="meta.media.1.codec.name">vorbis</property>
  <property name="meta.media.1.codec.long_name">Vorbis</property>
  <property name="meta.media.1.codec.bit_rate">0</property>
  <property name="meta.attr.1.stream.HANDLER_NAME.markup">ISO Media file produced by Google Inc.</property>
  <property name="meta.attr.1.stream.VENDOR_ID.markup">[0][0][0][0]</property>
  <property name="meta.attr.1.stream.ENCODER.markup">Lavc60.31.102 libvorbis</property>
  <property name="meta.attr.1.stream.DURATION.markup">00:00:10.127000000</property>
  <property name="meta.attr.COMPATIBLE_BRANDS.markup">isomiso2avc1mp41</property>
  <property name="meta.attr.MAJOR_BRAND.markup">isom</property>
  <property name="meta.attr.MINOR_VERSION.markup">512</property>
  <property name="meta.attr.ENCODER.markup">Lavf60.16.100</property>
  <property name="seekable">1</property>
  <property name="meta.media.sample_aspect_num">1</property>
  <property name="meta.media.sample_aspect_den">1</property>
  <property name="aspect_ratio">1</property>
  <property name="format">3</property>
  <property name="kdenlive:clipname"/>
  <property name="meta.media.frame_rate_num">24</property>
  <property name="meta.media.frame_rate_den">1</property>
  <property name="meta.media.colorspace">709</property>
  <property name="meta.media.color_trc">1</property>
  <property name="meta.media.has_b_frames">2</property>
  <property name="meta.media.width">1280</property>
  <property name="meta.media.height">720</property>
  <property name="meta.media.color_range">mpeg</property>
  <property name="meta.media.top_field_first">0</property>
  <property name="meta.media.progressive">1</property>
  <property name="kdenlive:clip_type">0</property>
  <property name="kdenlive:folderid">407</property>
  <property name="kdenlive:id">422</property>
  <property name="kdenlive:file_size">2864188</property>
  <property name="kdenlive:file_hash">8c5610718508b63b87eecb6d481a4050</property>
  <property name="kdenlive:audio_max1">230</property>
 </producer>
 <producer id="producer382" in="00:00:00.000" out="00:00:01.683">
  <property name="length">102</property>
  <property name="eof">pause</property>
  <property name="resource">/home/federico/Nextcloud/Kden/EditingUT/Video/germano mosconi - eh!.mkv</property>
  <property name="audio_index">1</property>
  <property name="video_index">0</property>
  <property name="mute_on_pause">0</property>
  <property name="mlt_service">avformat-novalidate</property>
  <property name="meta.media.nb_streams">2</property>
  <property name="meta.media.0.stream.type">video</property>
  <property name="meta.media.0.stream.frame_rate">29.97</property>
  <property name="meta.media.0.stream.sample_aspect_ratio">1</property>
  <property name="meta.media.0.codec.width">1280</property>
  <property name="meta.media.0.codec.height">720</property>
  <property name="meta.media.0.codec.rotate">0</property>
  <property name="meta.media.0.codec.pix_fmt">yuv420p</property>
  <property name="meta.media.0.codec.sample_aspect_ratio">1</property>
  <property name="meta.media.0.codec.colorspace">709</property>
  <property name="meta.media.0.codec.name">h264</property>
  <property name="meta.media.0.codec.long_name">H.264 / AVC / MPEG-4 AVC / MPEG-4 part 10</property>
  <property name="meta.media.0.codec.bit_rate">0</property>
  <property name="meta.attr.0.stream.HANDLER_NAME.markup">VideoHandler</property>
  <property name="meta.attr.0.stream.VENDOR_ID.markup">[0][0][0][0]</property>
  <property name="meta.attr.0.stream.ENCODER.markup">Lavc60.31.102 libx264</property>
  <property name="meta.attr.0.stream.DURATION.markup">00:00:01.638000000</property>
  <property name="meta.media.1.stream.type">audio</property>
  <property name="meta.media.1.codec.sample_fmt">fltp</property>
  <property name="meta.media.1.codec.sample_rate">44100</property>
  <property name="meta.media.1.codec.channels">2</property>
  <property name="meta.media.1.codec.name">vorbis</property>
  <property name="meta.media.1.codec.long_name">Vorbis</property>
  <property name="meta.media.1.codec.bit_rate">0</property>
  <property name="meta.attr.1.stream.HANDLER_NAME.markup">SoundHandler</property>
  <property name="meta.attr.1.stream.VENDOR_ID.markup">[0][0][0][0]</property>
  <property name="meta.attr.1.stream.ENCODER.markup">Lavc60.31.102 libvorbis</property>
  <property name="meta.attr.1.stream.DURATION.markup">00:00:01.698000000</property>
  <property name="meta.attr.COMPATIBLE_BRANDS.markup">isomiso2avc1mp41</property>
  <property name="meta.attr.MAJOR_BRAND.markup">isom</property>
  <property name="meta.attr.MINOR_VERSION.markup">512</property>
  <property name="meta.attr.ENCODER.markup">Lavf60.16.100</property>
  <property name="seekable">1</property>
  <property name="meta.media.sample_aspect_num">1</property>
  <property name="meta.media.sample_aspect_den">1</property>
  <property name="aspect_ratio">1</property>
  <property name="format">3</property>
  <property name="kdenlive:clipname"/>
  <property name="meta.media.frame_rate_num">30000</property>
  <property name="meta.media.frame_rate_den">1001</property>
  <property name="meta.media.colorspace">709</property>
  <property name="meta.media.color_trc">2</property>
  <property name="meta.media.has_b_frames">2</property>
  <property name="meta.media.width">1280</property>
  <property name="meta.media.height">720</property>
  <property name="meta.media.color_range">mpeg</property>
  <property name="meta.media.top_field_first">0</property>
  <property name="meta.media.progressive">1</property>
  <property name="kdenlive:clip_type">0</property>
  <property name="kdenlive:folderid">407</property>
  <property name="kdenlive:id">423</property>
  <property name="kdenlive:file_size">162060</property>
  <property name="kdenlive:file_hash">ce194ddf7a05e780faaf4a84588b69fd</property>
  <property name="kdenlive:audio_max1">131</property>
 </producer>
 <producer id="producer386" in="00:00:00.000" out="00:00:19.533">
  <property name="length">1173</property>
  <property name="eof">pause</property>
  <property name="resource">/home/federico/Nextcloud/Kden/EditingUT/Video/gesti.mkv</property>
  <property name="audio_index">1</property>
  <property name="video_index">0</property>
  <property name="mute_on_pause">0</property>
  <property name="mlt_service">avformat-novalidate</property>
  <property name="meta.media.nb_streams">2</property>
  <property name="meta.media.0.stream.type">video</property>
  <property name="meta.media.0.stream.frame_rate">30</property>
  <property name="meta.media.0.stream.sample_aspect_ratio">1</property>
  <property name="meta.media.0.codec.width">1920</property>
  <property name="meta.media.0.codec.height">1080</property>
  <property name="meta.media.0.codec.rotate">0</property>
  <property name="meta.media.0.codec.pix_fmt">yuv420p</property>
  <property name="meta.media.0.codec.sample_aspect_ratio">1</property>
  <property name="meta.media.0.codec.colorspace">709</property>
  <property name="meta.media.0.codec.color_trc">1</property>
  <property name="meta.media.0.codec.name">h264</property>
  <property name="meta.media.0.codec.long_name">H.264 / AVC / MPEG-4 AVC / MPEG-4 part 10</property>
  <property name="meta.media.0.codec.bit_rate">0</property>
  <property name="meta.attr.0.stream.HANDLER_NAME.markup">ISO Media file produced by Google Inc.</property>
  <property name="meta.attr.0.stream.VENDOR_ID.markup">[0][0][0][0]</property>
  <property name="meta.attr.0.stream.ENCODER.markup">Lavc60.31.102 libx264</property>
  <property name="meta.attr.0.stream.DURATION.markup">00:00:19.503000000</property>
  <property name="meta.media.1.stream.type">audio</property>
  <property name="meta.media.1.codec.sample_fmt">fltp</property>
  <property name="meta.media.1.codec.sample_rate">44100</property>
  <property name="meta.media.1.codec.channels">2</property>
  <property name="meta.media.1.codec.name">vorbis</property>
  <property name="meta.media.1.codec.long_name">Vorbis</property>
  <property name="meta.media.1.codec.bit_rate">0</property>
  <property name="meta.attr.1.stream.HANDLER_NAME.markup">ISO Media file produced by Google Inc.</property>
  <property name="meta.attr.1.stream.VENDOR_ID.markup">[0][0][0][0]</property>
  <property name="meta.attr.1.stream.ENCODER.markup">Lavc60.31.102 libvorbis</property>
  <property name="meta.attr.1.stream.DURATION.markup">00:00:19.554000000</property>
  <property name="meta.attr.COMPATIBLE_BRANDS.markup">isomiso2avc1mp41</property>
  <property name="meta.attr.MAJOR_BRAND.markup">isom</property>
  <property name="meta.attr.MINOR_VERSION.markup">512</property>
  <property name="meta.attr.ENCODER.markup">Lavf60.16.100</property>
  <property name="seekable">1</property>
  <property name="meta.media.sample_aspect_num">1</property>
  <property name="meta.media.sample_aspect_den">1</property>
  <property name="aspect_ratio">1</property>
  <property name="format">3</property>
  <property name="kdenlive:clipname"/>
  <property name="meta.media.frame_rate_num">30</property>
  <property name="meta.media.frame_rate_den">1</property>
  <property name="meta.media.colorspace">709</property>
  <property name="meta.media.color_trc">1</property>
  <property name="meta.media.has_b_frames">2</property>
  <property name="meta.media.width">1920</property>
  <property name="meta.media.height">1080</property>
  <property name="meta.media.color_range">mpeg</property>
  <property name="meta.media.top_field_first">0</property>
  <property name="meta.media.progressive">1</property>
  <property name="kdenlive:clip_type">0</property>
  <property name="kdenlive:folderid">407</property>
  <property name="kdenlive:id">424</property>
  <property name="kdenlive:file_size">3603228</property>
  <property name="kdenlive:file_hash">553f656aa962a1f39349e4a0b01db187</property>
  <property name="kdenlive:audio_max1">191</property>
 </producer>
 <producer id="producer384" in="00:00:00.000" out="00:00:07.633">
  <property name="length">459</property>
  <property name="eof">pause</property>
  <property name="resource">/home/federico/Nextcloud/Kden/EditingUT/Video/guy crying meme slander template.mkv</property>
  <property name="audio_index">1</property>
  <property name="video_index">0</property>
  <property name="mute_on_pause">0</property>
  <property name="mlt_service">avformat-novalidate</property>
  <property name="meta.media.nb_streams">2</property>
  <property name="meta.media.0.stream.type">video</property>
  <property name="meta.media.0.stream.frame_rate">55</property>
  <property name="meta.media.0.stream.sample_aspect_ratio">1</property>
  <property name="meta.media.0.codec.width">1152</property>
  <property name="meta.media.0.codec.height">720</property>
  <property name="meta.media.0.codec.rotate">0</property>
  <property name="meta.media.0.codec.pix_fmt">yuv420p</property>
  <property name="meta.media.0.codec.sample_aspect_ratio">1</property>
  <property name="meta.media.0.codec.colorspace">709</property>
  <property name="meta.media.0.codec.color_trc">1</property>
  <property name="meta.media.0.codec.name">h264</property>
  <property name="meta.media.0.codec.long_name">H.264 / AVC / MPEG-4 AVC / MPEG-4 part 10</property>
  <property name="meta.media.0.codec.bit_rate">0</property>
  <property name="meta.attr.0.stream.HANDLER_NAME.markup">ISO Media file produced by Google Inc.</property>
  <property name="meta.attr.0.stream.VENDOR_ID.markup">[0][0][0][0]</property>
  <property name="meta.attr.0.stream.ENCODER.markup">Lavc60.31.102 libx264</property>
  <property name="meta.attr.0.stream.DURATION.markup">00:00:07.566000000</property>
  <property name="meta.media.1.stream.type">audio</property>
  <property name="meta.media.1.codec.sample_fmt">fltp</property>
  <property name="meta.media.1.codec.sample_rate">44100</property>
  <property name="meta.media.1.codec.channels">2</property>
  <property name="meta.media.1.codec.name">vorbis</property>
  <property name="meta.media.1.codec.long_name">Vorbis</property>
  <property name="meta.media.1.codec.bit_rate">0</property>
  <property name="meta.attr.1.stream.language.markup">eng</property>
  <property name="meta.attr.1.stream.HANDLER_NAME.markup">ISO Media file produced by Google Inc.</property>
  <property name="meta.attr.1.stream.VENDOR_ID.markup">[0][0][0][0]</property>
  <property name="meta.attr.1.stream.ENCODER.markup">Lavc60.31.102 libvorbis</property>
  <property name="meta.attr.1.stream.DURATION.markup">00:00:07.642000000</property>
  <property name="meta.attr.COMPATIBLE_BRANDS.markup">isomiso2avc1mp41</property>
  <property name="meta.attr.MAJOR_BRAND.markup">isom</property>
  <property name="meta.attr.MINOR_VERSION.markup">512</property>
  <property name="meta.attr.ENCODER.markup">Lavf60.16.100</property>
  <property name="seekable">1</property>
  <property name="meta.media.sample_aspect_num">1</property>
  <property name="meta.media.sample_aspect_den">1</property>
  <property name="aspect_ratio">1</property>
  <property name="format">3</property>
  <property name="kdenlive:clipname"/>
  <property name="meta.media.frame_rate_num">55</property>
  <property name="meta.media.frame_rate_den">1</property>
  <property name="meta.media.colorspace">709</property>
  <property name="meta.media.color_trc">1</property>
  <property name="meta.media.has_b_frames">2</property>
  <property name="meta.media.width">1152</property>
  <property name="meta.media.height">720</property>
  <property name="meta.media.color_range">mpeg</property>
  <property name="meta.media.top_field_first">0</property>
  <property name="meta.media.progressive">1</property>
  <property name="kdenlive:clip_type">0</property>
  <property name="kdenlive:folderid">407</property>
  <property name="kdenlive:id">425</property>
  <property name="kdenlive:file_size">802430</property>
  <property name="kdenlive:file_hash">aa87a053223c0c577a19966f5d36162f</property>
  <property name="kdenlive:audio_max1">123</property>
 </producer>
 <producer id="producer383" in="00:00:00.000" out="00:00:09.083">
  <property name="length">546</property>
  <property name="eof">pause</property>
  <property name="resource">/home/federico/Nextcloud/Kden/EditingUT/Video/guy gets hit in the face by milk meme.mkv</property>
  <property name="audio_index">1</property>
  <property name="video_index">0</property>
  <property name="mute_on_pause">0</property>
  <property name="mlt_service">avformat-novalidate</property>
  <property name="meta.media.nb_streams">2</property>
  <property name="meta.media.0.stream.type">video</property>
  <property name="meta.media.0.stream.frame_rate">24.894</property>
  <property name="meta.media.0.stream.sample_aspect_ratio">1</property>
  <property name="meta.media.0.codec.width">640</property>
  <property name="meta.media.0.codec.height">480</property>
  <property name="meta.media.0.codec.rotate">0</property>
  <property name="meta.media.0.codec.pix_fmt">yuv420p</property>
  <property name="meta.media.0.codec.sample_aspect_ratio">1</property>
  <property name="meta.media.0.codec.colorspace">601</property>
  <property name="meta.media.0.codec.name">h264</property>
  <property name="meta.media.0.codec.long_name">H.264 / AVC / MPEG-4 AVC / MPEG-4 part 10</property>
  <property name="meta.media.0.codec.bit_rate">0</property>
  <property name="meta.attr.0.stream.HANDLER_NAME.markup">ISO Media file produced by Google Inc.</property>
  <property name="meta.attr.0.stream.VENDOR_ID.markup">[0][0][0][0]</property>
  <property name="meta.attr.0.stream.ENCODER.markup">Lavc60.31.102 libx264</property>
  <property name="meta.attr.0.stream.DURATION.markup">00:00:09.041000000</property>
  <property name="meta.media.1.stream.type">audio</property>
  <property name="meta.media.1.codec.sample_fmt">fltp</property>
  <property name="meta.media.1.codec.sample_rate">44100</property>
  <property name="meta.media.1.codec.channels">2</property>
  <property name="meta.media.1.codec.name">vorbis</property>
  <property name="meta.media.1.codec.long_name">Vorbis</property>
  <property name="meta.media.1.codec.bit_rate">0</property>
  <property name="meta.attr.1.stream.HANDLER_NAME.markup">ISO Media file produced by Google Inc.</property>
  <property name="meta.attr.1.stream.VENDOR_ID.markup">[0][0][0][0]</property>
  <property name="meta.attr.1.stream.ENCODER.markup">Lavc60.31.102 libvorbis</property>
  <property name="meta.attr.1.stream.DURATION.markup">00:00:09.105000000</property>
  <property name="meta.attr.COMPATIBLE_BRANDS.markup">isomiso2avc1mp41</property>
  <property name="meta.attr.MAJOR_BRAND.markup">isom</property>
  <property name="meta.attr.MINOR_VERSION.markup">512</property>
  <property name="meta.attr.ENCODER.markup">Lavf60.16.100</property>
  <property name="seekable">1</property>
  <property name="meta.media.sample_aspect_num">1</property>
  <property name="meta.media.sample_aspect_den">1</property>
  <property name="aspect_ratio">1</property>
  <property name="format">3</property>
  <property name="kdenlive:clipname"/>
  <property name="meta.media.frame_rate_num">12447</property>
  <property name="meta.media.frame_rate_den">500</property>
  <property name="meta.media.colorspace">601</property>
  <property name="meta.media.color_trc">2</property>
  <property name="meta.media.has_b_frames">2</property>
  <property name="meta.media.width">640</property>
  <property name="meta.media.height">480</property>
  <property name="meta.media.color_range">mpeg</property>
  <property name="meta.media.top_field_first">0</property>
  <property name="meta.media.progressive">1</property>
  <property name="kdenlive:clip_type">0</property>
  <property name="kdenlive:folderid">407</property>
  <property name="kdenlive:id">426</property>
  <property name="kdenlive:file_size">403271</property>
  <property name="kdenlive:file_hash">b2a00ba9f49c646ec05ec3ab47582e96</property>
  <property name="kdenlive:audio_max1">178</property>
 </producer>
 <producer id="producer389" in="00:00:00.000" out="00:00:07.967">
  <property name="length">479</property>
  <property name="eof">pause</property>
  <property name="resource">/home/federico/Nextcloud/Kden/EditingUT/Video/indian guy laughing meme.mkv</property>
  <property name="audio_index">1</property>
  <property name="video_index">0</property>
  <property name="mute_on_pause">0</property>
  <property name="mlt_service">avformat-novalidate</property>
  <property name="meta.media.nb_streams">2</property>
  <property name="meta.media.0.stream.type">video</property>
  <property name="meta.media.0.stream.frame_rate">30</property>
  <property name="meta.media.0.stream.sample_aspect_ratio">1</property>
  <property name="meta.media.0.codec.width">1920</property>
  <property name="meta.media.0.codec.height">1080</property>
  <property name="meta.media.0.codec.rotate">0</property>
  <property name="meta.media.0.codec.pix_fmt">yuv420p</property>
  <property name="meta.media.0.codec.sample_aspect_ratio">1</property>
  <property name="meta.media.0.codec.colorspace">709</property>
  <property name="meta.media.0.codec.color_trc">1</property>
  <property name="meta.media.0.codec.name">h264</property>
  <property name="meta.media.0.codec.long_name">H.264 / AVC / MPEG-4 AVC / MPEG-4 part 10</property>
  <property name="meta.media.0.codec.bit_rate">0</property>
  <property name="meta.attr.0.stream.HANDLER_NAME.markup">ISO Media file produced by Google Inc.</property>
  <property name="meta.attr.0.stream.VENDOR_ID.markup">[0][0][0][0]</property>
  <property name="meta.attr.0.stream.ENCODER.markup">Lavc60.31.102 libx264</property>
  <property name="meta.attr.0.stream.DURATION.markup">00:00:07.936000000</property>
  <property name="meta.media.1.stream.type">audio</property>
  <property name="meta.media.1.codec.sample_fmt">fltp</property>
  <property name="meta.media.1.codec.sample_rate">44100</property>
  <property name="meta.media.1.codec.channels">2</property>
  <property name="meta.media.1.codec.name">vorbis</property>
  <property name="meta.media.1.codec.long_name">Vorbis</property>
  <property name="meta.media.1.codec.bit_rate">0</property>
  <property name="meta.attr.1.stream.HANDLER_NAME.markup">ISO Media file produced by Google Inc.</property>
  <property name="meta.attr.1.stream.VENDOR_ID.markup">[0][0][0][0]</property>
  <property name="meta.attr.1.stream.ENCODER.markup">Lavc60.31.102 libvorbis</property>
  <property name="meta.attr.1.stream.DURATION.markup">00:00:07.991000000</property>
  <property name="meta.attr.COMPATIBLE_BRANDS.markup">isomiso2avc1mp41</property>
  <property name="meta.attr.MAJOR_BRAND.markup">isom</property>
  <property name="meta.attr.MINOR_VERSION.markup">512</property>
  <property name="meta.attr.ENCODER.markup">Lavf60.16.100</property>
  <property name="seekable">1</property>
  <property name="meta.media.sample_aspect_num">1</property>
  <property name="meta.media.sample_aspect_den">1</property>
  <property name="aspect_ratio">1</property>
  <property name="format">3</property>
  <property name="kdenlive:clipname"/>
  <property name="meta.media.frame_rate_num">30</property>
  <property name="meta.media.frame_rate_den">1</property>
  <property name="meta.media.colorspace">709</property>
  <property name="meta.media.color_trc">1</property>
  <property name="meta.media.has_b_frames">2</property>
  <property name="meta.media.width">1920</property>
  <property name="meta.media.height">1080</property>
  <property name="meta.media.color_range">mpeg</property>
  <property name="meta.media.top_field_first">0</property>
  <property name="meta.media.progressive">1</property>
  <property name="kdenlive:clip_type">0</property>
  <property name="kdenlive:folderid">407</property>
  <property name="kdenlive:id">427</property>
  <property name="kdenlive:file_size">1638771</property>
  <property name="kdenlive:file_hash">4ea1df47495f8a772a1b30d43be20fc9</property>
  <property name="kdenlive:audio_max1">201</property>
 </producer>
 <producer id="producer385" in="00:00:00.000" out="00:00:02.817">
  <property name="length">170</property>
  <property name="eof">pause</property>
  <property name="resource">/home/federico/Nextcloud/Kden/EditingUT/Video/jesus christ.mkv</property>
  <property name="audio_index">1</property>
  <property name="video_index">0</property>
  <property name="mute_on_pause">0</property>
  <property name="mlt_service">avformat-novalidate</property>
  <property name="meta.media.nb_streams">2</property>
  <property name="meta.media.0.stream.type">video</property>
  <property name="meta.media.0.stream.frame_rate">30</property>
  <property name="meta.media.0.stream.sample_aspect_ratio">1</property>
  <property name="meta.media.0.codec.width">730</property>
  <property name="meta.media.0.codec.height">720</property>
  <property name="meta.media.0.codec.rotate">0</property>
  <property name="meta.media.0.codec.pix_fmt">yuv420p</property>
  <property name="meta.media.0.codec.sample_aspect_ratio">1</property>
  <property name="meta.media.0.codec.colorspace">709</property>
  <property name="meta.media.0.codec.color_trc">1</property>
  <property name="meta.media.0.codec.name">h264</property>
  <property name="meta.media.0.codec.long_name">H.264 / AVC / MPEG-4 AVC / MPEG-4 part 10</property>
  <property name="meta.media.0.codec.bit_rate">0</property>
  <property name="meta.attr.0.stream.HANDLER_NAME.markup">ISO Media file produced by Google Inc.</property>
  <property name="meta.attr.0.stream.VENDOR_ID.markup">[0][0][0][0]</property>
  <property name="meta.attr.0.stream.ENCODER.markup">Lavc60.31.102 libx264</property>
  <property name="meta.attr.0.stream.DURATION.markup">00:00:02.769000000</property>
  <property name="meta.media.1.stream.type">audio</property>
  <property name="meta.media.1.codec.sample_fmt">fltp</property>
  <property name="meta.media.1.codec.sample_rate">44100</property>
  <property name="meta.media.1.codec.channels">2</property>
  <property name="meta.media.1.codec.name">vorbis</property>
  <property name="meta.media.1.codec.long_name">Vorbis</property>
  <property name="meta.media.1.codec.bit_rate">0</property>
  <property name="meta.attr.1.stream.HANDLER_NAME.markup">ISO Media file produced by Google Inc.</property>
  <property name="meta.attr.1.stream.VENDOR_ID.markup">[0][0][0][0]</property>
  <property name="meta.attr.1.stream.ENCODER.markup">Lavc60.31.102 libvorbis</property>
  <property name="meta.attr.1.stream.DURATION.markup">00:00:02.836000000</property>
  <property name="meta.attr.COMPATIBLE_BRANDS.markup">isomiso2avc1mp41</property>
  <property name="meta.attr.MAJOR_BRAND.markup">isom</property>
  <property name="meta.attr.MINOR_VERSION.markup">512</property>
  <property name="meta.attr.ENCODER.markup">Lavf60.16.100</property>
  <property name="seekable">1</property>
  <property name="meta.media.sample_aspect_num">1</property>
  <property name="meta.media.sample_aspect_den">1</property>
  <property name="aspect_ratio">1</property>
  <property name="format">3</property>
  <property name="kdenlive:clipname"/>
  <property name="meta.media.frame_rate_num">30</property>
  <property name="meta.media.frame_rate_den">1</property>
  <property name="meta.media.colorspace">709</property>
  <property name="meta.media.color_trc">1</property>
  <property name="meta.media.has_b_frames">2</property>
  <property name="meta.media.width">730</property>
  <property name="meta.media.height">720</property>
  <property name="meta.media.color_range">mpeg</property>
  <property name="meta.media.top_field_first">0</property>
  <property name="meta.media.progressive">1</property>
  <property name="kdenlive:clip_type">0</property>
  <property name="kdenlive:folderid">407</property>
  <property name="kdenlive:id">428</property>
  <property name="kdenlive:file_size">450837</property>
  <property name="kdenlive:file_hash">445de4dd96bc8820303b726f12506655</property>
  <property name="kdenlive:audio_max1">156</property>
 </producer>
 <producer id="producer390" in="00:00:00.000" out="00:00:03.117">
  <property name="length">188</property>
  <property name="eof">pause</property>
  <property name="resource">/home/federico/Nextcloud/Kden/EditingUT/Video/jontron wtf -what.mkv</property>
  <property name="audio_index">1</property>
  <property name="video_index">0</property>
  <property name="mute_on_pause">0</property>
  <property name="mlt_service">avformat-novalidate</property>
  <property name="meta.media.nb_streams">2</property>
  <property name="meta.media.0.stream.type">video</property>
  <property name="meta.media.0.stream.frame_rate">29.97</property>
  <property name="meta.media.0.stream.sample_aspect_ratio">1</property>
  <property name="meta.media.0.codec.width">1920</property>
  <property name="meta.media.0.codec.height">1080</property>
  <property name="meta.media.0.codec.rotate">0</property>
  <property name="meta.media.0.codec.pix_fmt">yuv420p</property>
  <property name="meta.media.0.codec.sample_aspect_ratio">1</property>
  <property name="meta.media.0.codec.colorspace">709</property>
  <property name="meta.media.0.codec.color_trc">1</property>
  <property name="meta.media.0.codec.name">h264</property>
  <property name="meta.media.0.codec.long_name">H.264 / AVC / MPEG-4 AVC / MPEG-4 part 10</property>
  <property name="meta.media.0.codec.bit_rate">0</property>
  <property name="meta.attr.0.stream.HANDLER_NAME.markup">VideoHandler</property>
  <property name="meta.attr.0.stream.VENDOR_ID.markup">[0][0][0][0]</property>
  <property name="meta.attr.0.stream.ENCODER.markup">Lavc60.31.102 libx264</property>
  <property name="meta.attr.0.stream.DURATION.markup">00:00:03.072000000</property>
  <property name="meta.media.1.stream.type">audio</property>
  <property name="meta.media.1.codec.sample_fmt">fltp</property>
  <property name="meta.media.1.codec.sample_rate">44100</property>
  <property name="meta.media.1.codec.channels">2</property>
  <property name="meta.media.1.codec.name">vorbis</property>
  <property name="meta.media.1.codec.long_name">Vorbis</property>
  <property name="meta.media.1.codec.bit_rate">0</property>
  <property name="meta.attr.1.stream.HANDLER_NAME.markup">SoundHandler</property>
  <property name="meta.attr.1.stream.VENDOR_ID.markup">[0][0][0][0]</property>
  <property name="meta.attr.1.stream.ENCODER.markup">Lavc60.31.102 libvorbis</property>
  <property name="meta.attr.1.stream.DURATION.markup">00:00:03.137000000</property>
  <property name="meta.attr.COMPATIBLE_BRANDS.markup">isomiso2avc1mp41</property>
  <property name="meta.attr.MAJOR_BRAND.markup">isom</property>
  <property name="meta.attr.MINOR_VERSION.markup">512</property>
  <property name="meta.attr.ENCODER.markup">Lavf60.16.100</property>
  <property name="seekable">1</property>
  <property name="meta.media.sample_aspect_num">1</property>
  <property name="meta.media.sample_aspect_den">1</property>
  <property name="aspect_ratio">1</property>
  <property name="format">3</property>
  <property name="kdenlive:clipname"/>
  <property name="meta.media.frame_rate_num">30000</property>
  <property name="meta.media.frame_rate_den">1001</property>
  <property name="meta.media.colorspace">709</property>
  <property name="meta.media.color_trc">1</property>
  <property name="meta.media.has_b_frames">2</property>
  <property name="meta.media.width">1920</property>
  <property name="meta.media.height">1080</property>
  <property name="meta.media.color_range">mpeg</property>
  <property name="meta.media.top_field_first">0</property>
  <property name="meta.media.progressive">1</property>
  <property name="kdenlive:clip_type">0</property>
  <property name="kdenlive:folderid">407</property>
  <property name="kdenlive:id">429</property>
  <property name="kdenlive:file_size">688043</property>
  <property name="kdenlive:file_hash">6279ca0aea553e057245d69a0271660f</property>
  <property name="kdenlive:audio_max1">197</property>
 </producer>
 <producer id="producer387" in="00:00:00.000" out="00:00:06.783">
  <property name="length">408</property>
  <property name="eof">pause</property>
  <property name="resource">/home/federico/Nextcloud/Kden/EditingUT/Video/jontron- stop, stop, stop!.mkv</property>
  <property name="audio_index">1</property>
  <property name="video_index">0</property>
  <property name="mute_on_pause">0</property>
  <property name="mlt_service">avformat-novalidate</property>
  <property name="meta.media.nb_streams">2</property>
  <property name="meta.media.0.stream.type">video</property>
  <property name="meta.media.0.stream.frame_rate">29.97</property>
  <property name="meta.media.0.stream.sample_aspect_ratio">1</property>
  <property name="meta.media.0.codec.width">854</property>
  <property name="meta.media.0.codec.height">478</property>
  <property name="meta.media.0.codec.rotate">0</property>
  <property name="meta.media.0.codec.pix_fmt">yuv420p</property>
  <property name="meta.media.0.codec.sample_aspect_ratio">1</property>
  <property name="meta.media.0.codec.colorspace">709</property>
  <property name="meta.media.0.codec.color_trc">1</property>
  <property name="meta.media.0.codec.name">h264</property>
  <property name="meta.media.0.codec.long_name">H.264 / AVC / MPEG-4 AVC / MPEG-4 part 10</property>
  <property name="meta.media.0.codec.bit_rate">0</property>
  <property name="meta.attr.0.stream.HANDLER_NAME.markup">ISO Media file produced by Google Inc.</property>
  <property name="meta.attr.0.stream.VENDOR_ID.markup">[0][0][0][0]</property>
  <property name="meta.attr.0.stream.ENCODER.markup">Lavc60.31.102 libx264</property>
  <property name="meta.attr.0.stream.DURATION.markup">00:00:06.743000000</property>
  <property name="meta.media.1.stream.type">audio</property>
  <property name="meta.media.1.codec.sample_fmt">fltp</property>
  <property name="meta.media.1.codec.sample_rate">44100</property>
  <property name="meta.media.1.codec.channels">2</property>
  <property name="meta.media.1.codec.name">vorbis</property>
  <property name="meta.media.1.codec.long_name">Vorbis</property>
  <property name="meta.media.1.codec.bit_rate">0</property>
  <property name="meta.attr.1.stream.HANDLER_NAME.markup">ISO Media file produced by Google Inc.</property>
  <property name="meta.attr.1.stream.VENDOR_ID.markup">[0][0][0][0]</property>
  <property name="meta.attr.1.stream.ENCODER.markup">Lavc60.31.102 libvorbis</property>
  <property name="meta.attr.1.stream.DURATION.markup">00:00:06.806000000</property>
  <property name="meta.attr.COMPATIBLE_BRANDS.markup">isomiso2avc1mp41</property>
  <property name="meta.attr.MAJOR_BRAND.markup">isom</property>
  <property name="meta.attr.MINOR_VERSION.markup">512</property>
  <property name="meta.attr.ENCODER.markup">Lavf60.16.100</property>
  <property name="seekable">1</property>
  <property name="meta.media.sample_aspect_num">1</property>
  <property name="meta.media.sample_aspect_den">1</property>
  <property name="aspect_ratio">1</property>
  <property name="format">3</property>
  <property name="kdenlive:clipname"/>
  <property name="meta.media.frame_rate_num">30000</property>
  <property name="meta.media.frame_rate_den">1001</property>
  <property name="meta.media.colorspace">709</property>
  <property name="meta.media.color_trc">1</property>
  <property name="meta.media.has_b_frames">2</property>
  <property name="meta.media.width">854</property>
  <property name="meta.media.height">478</property>
  <property name="meta.media.color_range">mpeg</property>
  <property name="meta.media.top_field_first">0</property>
  <property name="meta.media.progressive">1</property>
  <property name="kdenlive:clip_type">0</property>
  <property name="kdenlive:folderid">407</property>
  <property name="kdenlive:id">430</property>
  <property name="kdenlive:file_size">445619</property>
  <property name="kdenlive:file_hash">695ba0d5a4fb7c28316bde815958221c</property>
  <property name="kdenlive:audio_max1">230</property>
 </producer>
 <producer id="producer388" in="00:00:00.000" out="00:00:10.717">
  <property name="length">644</property>
  <property name="eof">pause</property>
  <property name="resource">/home/federico/Nextcloud/Kden/EditingUT/Video/ladies and gentlemen we got em meme.mkv</property>
  <property name="audio_index">1</property>
  <property name="video_index">0</property>
  <property name="mute_on_pause">0</property>
  <property name="mlt_service">avformat-novalidate</property>
  <property name="meta.media.nb_streams">2</property>
  <property name="meta.media.0.stream.type">video</property>
  <property name="meta.media.0.stream.frame_rate">30</property>
  <property name="meta.media.0.stream.sample_aspect_ratio">1</property>
  <property name="meta.media.0.codec.width">960</property>
  <property name="meta.media.0.codec.height">720</property>
  <property name="meta.media.0.codec.rotate">0</property>
  <property name="meta.media.0.codec.pix_fmt">yuv420p</property>
  <property name="meta.media.0.codec.sample_aspect_ratio">1</property>
  <property name="meta.media.0.codec.colorspace">601</property>
  <property name="meta.media.0.codec.color_trc">6</property>
  <property name="meta.media.0.codec.name">h264</property>
  <property name="meta.media.0.codec.long_name">H.264 / AVC / MPEG-4 AVC / MPEG-4 part 10</property>
  <property name="meta.media.0.codec.bit_rate">0</property>
  <property name="meta.attr.0.stream.HANDLER_NAME.markup">VideoHandler</property>
  <property name="meta.attr.0.stream.VENDOR_ID.markup">[0][0][0][0]</property>
  <property name="meta.attr.0.stream.ENCODER.markup">Lavc60.31.102 libx264</property>
  <property name="meta.attr.0.stream.DURATION.markup">00:00:10.636000000</property>
  <property name="meta.media.1.stream.type">audio</property>
  <property name="meta.media.1.codec.sample_fmt">fltp</property>
  <property name="meta.media.1.codec.sample_rate">44100</property>
  <property name="meta.media.1.codec.channels">2</property>
  <property name="meta.media.1.codec.name">vorbis</property>
  <property name="meta.media.1.codec.long_name">Vorbis</property>
  <property name="meta.media.1.codec.bit_rate">0</property>
  <property name="meta.attr.1.stream.HANDLER_NAME.markup">SoundHandler</property>
  <property name="meta.attr.1.stream.VENDOR_ID.markup">[0][0][0][0]</property>
  <property name="meta.attr.1.stream.ENCODER.markup">Lavc60.31.102 libvorbis</property>
  <property name="meta.attr.1.stream.DURATION.markup">00:00:10.731000000</property>
  <property name="meta.attr.COMPATIBLE_BRANDS.markup">isomiso2avc1mp41</property>
  <property name="meta.attr.MAJOR_BRAND.markup">isom</property>
  <property name="meta.attr.MINOR_VERSION.markup">512</property>
  <property name="meta.attr.ENCODER.markup">Lavf60.16.100</property>
  <property name="seekable">1</property>
  <property name="meta.media.sample_aspect_num">1</property>
  <property name="meta.media.sample_aspect_den">1</property>
  <property name="aspect_ratio">1</property>
  <property name="format">3</property>
  <property name="kdenlive:clipname"/>
  <property name="meta.media.frame_rate_num">30</property>
  <property name="meta.media.frame_rate_den">1</property>
  <property name="meta.media.colorspace">601</property>
  <property name="meta.media.color_trc">6</property>
  <property name="meta.media.has_b_frames">2</property>
  <property name="meta.media.width">960</property>
  <property name="meta.media.height">720</property>
  <property name="meta.media.color_range">mpeg</property>
  <property name="meta.media.top_field_first">0</property>
  <property name="meta.media.progressive">1</property>
  <property name="kdenlive:clip_type">0</property>
  <property name="kdenlive:folderid">407</property>
  <property name="kdenlive:id">431</property>
  <property name="kdenlive:file_size">1161709</property>
  <property name="kdenlive:file_hash">a30b72b553e6b8fb107d23d3f6d2492e</property>
  <property name="kdenlive:audio_max1">227</property>
 </producer>
 <producer id="producer394" in="00:00:00.000" out="00:00:02.000">
  <property name="length">121</property>
  <property name="eof">pause</property>
  <property name="resource">/home/federico/Nextcloud/Kden/EditingUT/Video/law &amp; order.mkv</property>
  <property name="audio_index">1</property>
  <property name="video_index">0</property>
  <property name="mute_on_pause">0</property>
  <property name="mlt_service">avformat-novalidate</property>
  <property name="meta.media.nb_streams">2</property>
  <property name="meta.media.0.stream.type">video</property>
  <property name="meta.media.0.stream.frame_rate">29.97</property>
  <property name="meta.media.0.stream.sample_aspect_ratio">1</property>
  <property name="meta.media.0.codec.width">1920</property>
  <property name="meta.media.0.codec.height">1080</property>
  <property name="meta.media.0.codec.rotate">0</property>
  <property name="meta.media.0.codec.pix_fmt">yuv420p</property>
  <property name="meta.media.0.codec.sample_aspect_ratio">1</property>
  <property name="meta.media.0.codec.colorspace">709</property>
  <property name="meta.media.0.codec.color_trc">1</property>
  <property name="meta.media.0.codec.name">h264</property>
  <property name="meta.media.0.codec.long_name">H.264 / AVC / MPEG-4 AVC / MPEG-4 part 10</property>
  <property name="meta.media.0.codec.bit_rate">0</property>
  <property name="meta.attr.0.stream.HANDLER_NAME.markup">VideoHandler</property>
  <property name="meta.attr.0.stream.VENDOR_ID.markup">[0][0][0][0]</property>
  <property name="meta.attr.0.stream.ENCODER.markup">Lavc60.31.102 libx264</property>
  <property name="meta.attr.0.stream.DURATION.markup">00:00:01.938000000</property>
  <property name="meta.media.1.stream.type">audio</property>
  <property name="meta.media.1.codec.sample_fmt">fltp</property>
  <property name="meta.media.1.codec.sample_rate">44100</property>
  <property name="meta.media.1.codec.channels">2</property>
  <property name="meta.media.1.codec.name">vorbis</property>
  <property name="meta.media.1.codec.long_name">Vorbis</property>
  <property name="meta.media.1.codec.bit_rate">0</property>
  <property name="meta.attr.1.stream.HANDLER_NAME.markup">SoundHandler</property>
  <property name="meta.attr.1.stream.VENDOR_ID.markup">[0][0][0][0]</property>
  <property name="meta.attr.1.stream.ENCODER.markup">Lavc60.31.102 libvorbis</property>
  <property name="meta.attr.1.stream.DURATION.markup">00:00:02.023000000</property>
  <property name="meta.attr.COMPATIBLE_BRANDS.markup">isomiso2avc1mp41</property>
  <property name="meta.attr.MAJOR_BRAND.markup">isom</property>
  <property name="meta.attr.MINOR_VERSION.markup">512</property>
  <property name="meta.attr.ENCODER.markup">Lavf60.16.100</property>
  <property name="seekable">1</property>
  <property name="meta.media.sample_aspect_num">1</property>
  <property name="meta.media.sample_aspect_den">1</property>
  <property name="aspect_ratio">1</property>
  <property name="format">3</property>
  <property name="kdenlive:clipname"/>
  <property name="meta.media.frame_rate_num">30000</property>
  <property name="meta.media.frame_rate_den">1001</property>
  <property name="meta.media.colorspace">709</property>
  <property name="meta.media.color_trc">1</property>
  <property name="meta.media.has_b_frames">2</property>
  <property name="meta.media.width">1920</property>
  <property name="meta.media.height">1080</property>
  <property name="meta.media.color_range">mpeg</property>
  <property name="meta.media.top_field_first">0</property>
  <property name="meta.media.progressive">1</property>
  <property name="kdenlive:clip_type">0</property>
  <property name="kdenlive:folderid">407</property>
  <property name="kdenlive:id">432</property>
  <property name="kdenlive:file_size">75150</property>
  <property name="kdenlive:file_hash">6bc0aaae972363e7b944594a157c07e8</property>
  <property name="kdenlive:audio_max1">190</property>
 </producer>
 <producer id="producer391" in="00:00:00.000" out="00:00:02.617">
  <property name="length">158</property>
  <property name="eof">pause</property>
  <property name="resource">/home/federico/Nextcloud/Kden/EditingUT/Video/let me in - meme.mkv</property>
  <property name="audio_index">1</property>
  <property name="video_index">0</property>
  <property name="mute_on_pause">0</property>
  <property name="mlt_service">avformat-novalidate</property>
  <property name="meta.media.nb_streams">2</property>
  <property name="meta.media.0.stream.type">video</property>
  <property name="meta.media.0.stream.frame_rate">29.97</property>
  <property name="meta.media.0.stream.sample_aspect_ratio">1</property>
  <property name="meta.media.0.codec.width">640</property>
  <property name="meta.media.0.codec.height">360</property>
  <property name="meta.media.0.codec.rotate">0</property>
  <property name="meta.media.0.codec.pix_fmt">yuv420p</property>
  <property name="meta.media.0.codec.sample_aspect_ratio">1</property>
  <property name="meta.media.0.codec.colorspace">709</property>
  <property name="meta.media.0.codec.color_trc">1</property>
  <property name="meta.media.0.codec.name">h264</property>
  <property name="meta.media.0.codec.long_name">H.264 / AVC / MPEG-4 AVC / MPEG-4 part 10</property>
  <property name="meta.media.0.codec.bit_rate">0</property>
  <property name="meta.attr.0.stream.HANDLER_NAME.markup">ISO Media file produced by Google Inc.</property>
  <property name="meta.attr.0.stream.VENDOR_ID.markup">[0][0][0][0]</property>
  <property name="meta.attr.0.stream.ENCODER.markup">Lavc60.31.102 libx264</property>
  <property name="meta.attr.0.stream.DURATION.markup">00:00:02.438000000</property>
  <property name="meta.media.1.stream.type">audio</property>
  <property name="meta.media.1.codec.sample_fmt">fltp</property>
  <property name="meta.media.1.codec.sample_rate">44100</property>
  <property name="meta.media.1.codec.channels">2</property>
  <property name="meta.media.1.codec.name">vorbis</property>
  <property name="meta.media.1.codec.long_name">Vorbis</property>
  <property name="meta.media.1.codec.bit_rate">0</property>
  <property name="meta.attr.1.stream.HANDLER_NAME.markup">ISO Media file produced by Google Inc.</property>
  <property name="meta.attr.1.stream.VENDOR_ID.markup">[0][0][0][0]</property>
  <property name="meta.attr.1.stream.ENCODER.markup">Lavc60.31.102 libvorbis</property>
  <property name="meta.attr.1.stream.DURATION.markup">00:00:02.627000000</property>
  <property name="meta.attr.COMPATIBLE_BRANDS.markup">isomiso2avc1mp41</property>
  <property name="meta.attr.MAJOR_BRAND.markup">isom</property>
  <property name="meta.attr.MINOR_VERSION.markup">512</property>
  <property name="meta.attr.ENCODER.markup">Lavf60.16.100</property>
  <property name="seekable">1</property>
  <property name="meta.media.sample_aspect_num">1</property>
  <property name="meta.media.sample_aspect_den">1</property>
  <property name="aspect_ratio">1</property>
  <property name="format">3</property>
  <property name="kdenlive:clipname"/>
  <property name="meta.media.frame_rate_num">30000</property>
  <property name="meta.media.frame_rate_den">1001</property>
  <property name="meta.media.colorspace">709</property>
  <property name="meta.media.color_trc">1</property>
  <property name="meta.media.has_b_frames">2</property>
  <property name="meta.media.width">640</property>
  <property name="meta.media.height">360</property>
  <property name="meta.media.color_range">mpeg</property>
  <property name="meta.media.top_field_first">0</property>
  <property name="meta.media.progressive">1</property>
  <property name="kdenlive:clip_type">0</property>
  <property name="kdenlive:folderid">407</property>
  <property name="kdenlive:id">433</property>
  <property name="kdenlive:file_size">288753</property>
  <property name="kdenlive:file_hash">b8a6c6bcdc0524bc4e3046f7f1faa8e7</property>
  <property name="kdenlive:audio_max1">200</property>
 </producer>
 <producer id="producer395" in="00:00:00.000" out="00:00:16.867">
  <property name="length">1013</property>
  <property name="eof">pause</property>
  <property name="resource">/home/federico/Nextcloud/Kden/EditingUT/Video/life could be a dream....mkv</property>
  <property name="audio_index">1</property>
  <property name="video_index">0</property>
  <property name="mute_on_pause">0</property>
  <property name="mlt_service">avformat-novalidate</property>
  <property name="meta.media.nb_streams">2</property>
  <property name="meta.media.0.stream.type">video</property>
  <property name="meta.media.0.stream.frame_rate">30</property>
  <property name="meta.media.0.stream.sample_aspect_ratio">1</property>
  <property name="meta.media.0.codec.width">1920</property>
  <property name="meta.media.0.codec.height">1080</property>
  <property name="meta.media.0.codec.rotate">0</property>
  <property name="meta.media.0.codec.pix_fmt">yuv420p</property>
  <property name="meta.media.0.codec.sample_aspect_ratio">1</property>
  <property name="meta.media.0.codec.colorspace">601</property>
  <property name="meta.media.0.codec.color_trc">1</property>
  <property name="meta.media.0.codec.name">h264</property>
  <property name="meta.media.0.codec.long_name">H.264 / AVC / MPEG-4 AVC / MPEG-4 part 10</property>
  <property name="meta.media.0.codec.bit_rate">0</property>
  <property name="meta.attr.0.stream.HANDLER_NAME.markup">ISO Media file produced by Google Inc.</property>
  <property name="meta.attr.0.stream.VENDOR_ID.markup">[0][0][0][0]</property>
  <property name="meta.attr.0.stream.ENCODER.markup">Lavc60.31.102 libx264</property>
  <property name="meta.attr.0.stream.DURATION.markup">00:00:16.836000000</property>
  <property name="meta.media.1.stream.type">audio</property>
  <property name="meta.media.1.codec.sample_fmt">fltp</property>
  <property name="meta.media.1.codec.sample_rate">44100</property>
  <property name="meta.media.1.codec.channels">2</property>
  <property name="meta.media.1.codec.name">vorbis</property>
  <property name="meta.media.1.codec.long_name">Vorbis</property>
  <property name="meta.media.1.codec.bit_rate">0</property>
  <property name="meta.attr.1.stream.language.markup">eng</property>
  <property name="meta.attr.1.stream.HANDLER_NAME.markup">ISO Media file produced by Google Inc.</property>
  <property name="meta.attr.1.stream.VENDOR_ID.markup">[0][0][0][0]</property>
  <property name="meta.attr.1.stream.ENCODER.markup">Lavc60.31.102 libvorbis</property>
  <property name="meta.attr.1.stream.DURATION.markup">00:00:16.884000000</property>
  <property name="meta.attr.COMPATIBLE_BRANDS.markup">isomiso2avc1mp41</property>
  <property name="meta.attr.MAJOR_BRAND.markup">isom</property>
  <property name="meta.attr.MINOR_VERSION.markup">512</property>
  <property name="meta.attr.ENCODER.markup">Lavf60.16.100</property>
  <property name="seekable">1</property>
  <property name="meta.media.sample_aspect_num">1</property>
  <property name="meta.media.sample_aspect_den">1</property>
  <property name="aspect_ratio">1</property>
  <property name="format">3</property>
  <property name="kdenlive:clipname"/>
  <property name="meta.media.frame_rate_num">30</property>
  <property name="meta.media.frame_rate_den">1</property>
  <property name="meta.media.colorspace">601</property>
  <property name="meta.media.color_trc">1</property>
  <property name="meta.media.has_b_frames">2</property>
  <property name="meta.media.width">1920</property>
  <property name="meta.media.height">1080</property>
  <property name="meta.media.color_range">mpeg</property>
  <property name="meta.media.top_field_first">0</property>
  <property name="meta.media.progressive">1</property>
  <property name="kdenlive:clip_type">0</property>
  <property name="kdenlive:folderid">407</property>
  <property name="kdenlive:id">434</property>
  <property name="kdenlive:file_size">6471408</property>
  <property name="kdenlive:file_hash">6c293eb51356855ad256307388e83c4a</property>
  <property name="kdenlive:audio_max1">248</property>
 </producer>
 <producer id="producer393" in="00:00:00.000" out="00:00:07.083">
  <property name="length">426</property>
  <property name="eof">pause</property>
  <property name="resource">/home/federico/Nextcloud/Kden/EditingUT/Video/man crying meme.mkv</property>
  <property name="audio_index">1</property>
  <property name="video_index">0</property>
  <property name="mute_on_pause">0</property>
  <property name="mlt_service">avformat-novalidate</property>
  <property name="meta.media.nb_streams">2</property>
  <property name="meta.media.0.stream.type">video</property>
  <property name="meta.media.0.stream.frame_rate">30</property>
  <property name="meta.media.0.stream.sample_aspect_ratio">1</property>
  <property name="meta.media.0.codec.width">854</property>
  <property name="meta.media.0.codec.height">480</property>
  <property name="meta.media.0.codec.rotate">0</property>
  <property name="meta.media.0.codec.pix_fmt">yuv420p</property>
  <property name="meta.media.0.codec.sample_aspect_ratio">1</property>
  <property name="meta.media.0.codec.colorspace">709</property>
  <property name="meta.media.0.codec.color_trc">1</property>
  <property name="meta.media.0.codec.name">h264</property>
  <property name="meta.media.0.codec.long_name">H.264 / AVC / MPEG-4 AVC / MPEG-4 part 10</property>
  <property name="meta.media.0.codec.bit_rate">0</property>
  <property name="meta.attr.0.stream.HANDLER_NAME.markup">ISO Media file produced by Google Inc.</property>
  <property name="meta.attr.0.stream.VENDOR_ID.markup">[0][0][0][0]</property>
  <property name="meta.attr.0.stream.ENCODER.markup">Lavc60.31.102 libx264</property>
  <property name="meta.attr.0.stream.DURATION.markup">00:00:07.036000000</property>
  <property name="meta.media.1.stream.type">audio</property>
  <property name="meta.media.1.codec.sample_fmt">fltp</property>
  <property name="meta.media.1.codec.sample_rate">44100</property>
  <property name="meta.media.1.codec.channels">2</property>
  <property name="meta.media.1.codec.name">vorbis</property>
  <property name="meta.media.1.codec.long_name">Vorbis</property>
  <property name="meta.media.1.codec.bit_rate">0</property>
  <property name="meta.attr.1.stream.HANDLER_NAME.markup">ISO Media file produced by Google Inc.</property>
  <property name="meta.attr.1.stream.VENDOR_ID.markup">[0][0][0][0]</property>
  <property name="meta.attr.1.stream.ENCODER.markup">Lavc60.31.102 libvorbis</property>
  <property name="meta.attr.1.stream.DURATION.markup">00:00:07.108000000</property>
  <property name="meta.attr.COMPATIBLE_BRANDS.markup">isomiso2avc1mp41</property>
  <property name="meta.attr.MAJOR_BRAND.markup">isom</property>
  <property name="meta.attr.MINOR_VERSION.markup">512</property>
  <property name="meta.attr.ENCODER.markup">Lavf60.16.100</property>
  <property name="seekable">1</property>
  <property name="meta.media.sample_aspect_num">1</property>
  <property name="meta.media.sample_aspect_den">1</property>
  <property name="aspect_ratio">1</property>
  <property name="format">3</property>
  <property name="kdenlive:clipname"/>
  <property name="meta.media.frame_rate_num">30</property>
  <property name="meta.media.frame_rate_den">1</property>
  <property name="meta.media.colorspace">709</property>
  <property name="meta.media.color_trc">1</property>
  <property name="meta.media.has_b_frames">2</property>
  <property name="meta.media.width">854</property>
  <property name="meta.media.height">480</property>
  <property name="meta.media.color_range">mpeg</property>
  <property name="meta.media.top_field_first">0</property>
  <property name="meta.media.progressive">1</property>
  <property name="kdenlive:clip_type">0</property>
  <property name="kdenlive:folderid">407</property>
  <property name="kdenlive:id">435</property>
  <property name="kdenlive:file_size">338945</property>
  <property name="kdenlive:file_hash">8730ca1f21138051eced4e458926a1df</property>
  <property name="kdenlive:audio_max1">235</property>
 </producer>
 <producer id="producer392" in="00:00:00.000" out="00:00:09.900">
  <property name="length">595</property>
  <property name="eof">pause</property>
  <property name="resource">/home/federico/Nextcloud/Kden/EditingUT/Video/man laughing in the dark.mkv</property>
  <property name="audio_index">1</property>
  <property name="video_index">0</property>
  <property name="mute_on_pause">0</property>
  <property name="mlt_service">avformat-novalidate</property>
  <property name="meta.media.nb_streams">2</property>
  <property name="meta.media.0.stream.type">video</property>
  <property name="meta.media.0.stream.frame_rate">30</property>
  <property name="meta.media.0.stream.sample_aspect_ratio">1</property>
  <property name="meta.media.0.codec.width">472</property>
  <property name="meta.media.0.codec.height">360</property>
  <property name="meta.media.0.codec.rotate">0</property>
  <property name="meta.media.0.codec.pix_fmt">yuv420p</property>
  <property name="meta.media.0.codec.sample_aspect_ratio">1</property>
  <property name="meta.media.0.codec.colorspace">709</property>
  <property name="meta.media.0.codec.color_trc">1</property>
  <property name="meta.media.0.codec.name">h264</property>
  <property name="meta.media.0.codec.long_name">H.264 / AVC / MPEG-4 AVC / MPEG-4 part 10</property>
  <property name="meta.media.0.codec.bit_rate">0</property>
  <property name="meta.attr.0.stream.HANDLER_NAME.markup">ISO Media file produced by Google Inc.</property>
  <property name="meta.attr.0.stream.VENDOR_ID.markup">[0][0][0][0]</property>
  <property name="meta.attr.0.stream.ENCODER.markup">Lavc60.31.102 libx264</property>
  <property name="meta.attr.0.stream.DURATION.markup">00:00:09.869000000</property>
  <property name="meta.media.1.stream.type">audio</property>
  <property name="meta.media.1.codec.sample_fmt">fltp</property>
  <property name="meta.media.1.codec.sample_rate">44100</property>
  <property name="meta.media.1.codec.channels">2</property>
  <property name="meta.media.1.codec.name">vorbis</property>
  <property name="meta.media.1.codec.long_name">Vorbis</property>
  <property name="meta.media.1.codec.bit_rate">0</property>
  <property name="meta.attr.1.stream.HANDLER_NAME.markup">ISO Media file produced by Google Inc.</property>
  <property name="meta.attr.1.stream.VENDOR_ID.markup">[0][0][0][0]</property>
  <property name="meta.attr.1.stream.ENCODER.markup">Lavc60.31.102 libvorbis</property>
  <property name="meta.attr.1.stream.DURATION.markup">00:00:09.918000000</property>
  <property name="meta.attr.COMPATIBLE_BRANDS.markup">isomiso2avc1mp41</property>
  <property name="meta.attr.MAJOR_BRAND.markup">isom</property>
  <property name="meta.attr.MINOR_VERSION.markup">512</property>
  <property name="meta.attr.ENCODER.markup">Lavf60.16.100</property>
  <property name="seekable">1</property>
  <property name="meta.media.sample_aspect_num">1</property>
  <property name="meta.media.sample_aspect_den">1</property>
  <property name="aspect_ratio">1</property>
  <property name="format">3</property>
  <property name="kdenlive:clipname"/>
  <property name="meta.media.frame_rate_num">30</property>
  <property name="meta.media.frame_rate_den">1</property>
  <property name="meta.media.colorspace">709</property>
  <property name="meta.media.color_trc">1</property>
  <property name="meta.media.has_b_frames">2</property>
  <property name="meta.media.width">472</property>
  <property name="meta.media.height">360</property>
  <property name="meta.media.color_range">mpeg</property>
  <property name="meta.media.top_field_first">0</property>
  <property name="meta.media.progressive">1</property>
  <property name="kdenlive:clip_type">0</property>
  <property name="kdenlive:folderid">407</property>
  <property name="kdenlive:id">436</property>
  <property name="kdenlive:file_size">118620</property>
  <property name="kdenlive:file_hash">fe912feac6f2d03ffaa34b3b4831be4b</property>
  <property name="kdenlive:audio_max1">201</property>
 </producer>
 <producer id="producer396" in="00:00:00.000" out="00:00:23.817">
  <property name="length">1430</property>
  <property name="eof">pause</property>
  <property name="resource">/home/federico/Nextcloud/Kden/EditingUT/Video/mind blown  mind explosion.mkv</property>
  <property name="audio_index">1</property>
  <property name="video_index">0</property>
  <property name="mute_on_pause">0</property>
  <property name="mlt_service">avformat-novalidate</property>
  <property name="meta.media.nb_streams">2</property>
  <property name="meta.media.0.stream.type">video</property>
  <property name="meta.media.0.stream.frame_rate">24</property>
  <property name="meta.media.0.stream.sample_aspect_ratio">1</property>
  <property name="meta.media.0.codec.width">1280</property>
  <property name="meta.media.0.codec.height">720</property>
  <property name="meta.media.0.codec.rotate">0</property>
  <property name="meta.media.0.codec.pix_fmt">yuv420p</property>
  <property name="meta.media.0.codec.sample_aspect_ratio">1</property>
  <property name="meta.media.0.codec.colorspace">709</property>
  <property name="meta.media.0.codec.color_trc">1</property>
  <property name="meta.media.0.codec.name">h264</property>
  <property name="meta.media.0.codec.long_name">H.264 / AVC / MPEG-4 AVC / MPEG-4 part 10</property>
  <property name="meta.media.0.codec.bit_rate">0</property>
  <property name="meta.attr.0.stream.HANDLER_NAME.markup">VideoHandler</property>
  <property name="meta.attr.0.stream.VENDOR_ID.markup">[0][0][0][0]</property>
  <property name="meta.attr.0.stream.ENCODER.markup">Lavc60.31.102 libx264</property>
  <property name="meta.attr.0.stream.DURATION.markup">00:00:23.712000000</property>
  <property name="meta.media.1.stream.type">audio</property>
  <property name="meta.media.1.codec.sample_fmt">fltp</property>
  <property name="meta.media.1.codec.sample_rate">44100</property>
  <property name="meta.media.1.codec.channels">2</property>
  <property name="meta.media.1.codec.name">vorbis</property>
  <property name="meta.media.1.codec.long_name">Vorbis</property>
  <property name="meta.media.1.codec.bit_rate">0</property>
  <property name="meta.attr.1.stream.HANDLER_NAME.markup">SoundHandler</property>
  <property name="meta.attr.1.stream.VENDOR_ID.markup">[0][0][0][0]</property>
  <property name="meta.attr.1.stream.ENCODER.markup">Lavc60.31.102 libvorbis</property>
  <property name="meta.attr.1.stream.DURATION.markup">00:00:23.827000000</property>
  <property name="meta.attr.COMPATIBLE_BRANDS.markup">isomiso2avc1mp41</property>
  <property name="meta.attr.MAJOR_BRAND.markup">isom</property>
  <property name="meta.attr.MINOR_VERSION.markup">512</property>
  <property name="meta.attr.ENCODER.markup">Lavf60.16.100</property>
  <property name="seekable">1</property>
  <property name="meta.media.sample_aspect_num">1</property>
  <property name="meta.media.sample_aspect_den">1</property>
  <property name="aspect_ratio">1</property>
  <property name="format">3</property>
  <property name="kdenlive:clipname"/>
  <property name="meta.media.frame_rate_num">24</property>
  <property name="meta.media.frame_rate_den">1</property>
  <property name="meta.media.colorspace">709</property>
  <property name="meta.media.color_trc">1</property>
  <property name="meta.media.has_b_frames">2</property>
  <property name="meta.media.width">1280</property>
  <property name="meta.media.height">720</property>
  <property name="meta.media.color_range">mpeg</property>
  <property name="meta.media.top_field_first">0</property>
  <property name="meta.media.progressive">1</property>
  <property name="kdenlive:clip_type">0</property>
  <property name="kdenlive:folderid">407</property>
  <property name="kdenlive:id">437</property>
  <property name="kdenlive:file_size">5337131</property>
  <property name="kdenlive:file_hash">6d31d8a6c5b28364dae12bb7883e68ae</property>
  <property name="kdenlive:audio_max1">173</property>
 </producer>
 <producer id="producer400" in="00:00:00.000" out="00:00:05.300">
  <property name="length">319</property>
  <property name="eof">pause</property>
  <property name="resource">/home/federico/Nextcloud/Kden/EditingUT/Video/monsters inc mmm! meme.mkv</property>
  <property name="audio_index">1</property>
  <property name="video_index">0</property>
  <property name="mute_on_pause">0</property>
  <property name="mlt_service">avformat-novalidate</property>
  <property name="meta.media.nb_streams">2</property>
  <property name="meta.media.0.stream.type">video</property>
  <property name="meta.media.0.stream.frame_rate">29.8668</property>
  <property name="meta.media.0.stream.sample_aspect_ratio">1</property>
  <property name="meta.media.0.codec.width">1920</property>
  <property name="meta.media.0.codec.height">1080</property>
  <property name="meta.media.0.codec.rotate">0</property>
  <property name="meta.media.0.codec.pix_fmt">yuv420p</property>
  <property name="meta.media.0.codec.sample_aspect_ratio">1</property>
  <property name="meta.media.0.codec.colorspace">709</property>
  <property name="meta.media.0.codec.color_trc">1</property>
  <property name="meta.media.0.codec.name">h264</property>
  <property name="meta.media.0.codec.long_name">H.264 / AVC / MPEG-4 AVC / MPEG-4 part 10</property>
  <property name="meta.media.0.codec.bit_rate">0</property>
  <property name="meta.attr.0.stream.HANDLER_NAME.markup">ISO Media file produced by Google Inc.</property>
  <property name="meta.attr.0.stream.VENDOR_ID.markup">[0][0][0][0]</property>
  <property name="meta.attr.0.stream.ENCODER.markup">Lavc60.31.102 libx264</property>
  <property name="meta.attr.0.stream.DURATION.markup">00:00:05.259000000</property>
  <property name="meta.media.1.stream.type">audio</property>
  <property name="meta.media.1.codec.sample_fmt">fltp</property>
  <property name="meta.media.1.codec.sample_rate">44100</property>
  <property name="meta.media.1.codec.channels">2</property>
  <property name="meta.media.1.codec.name">vorbis</property>
  <property name="meta.media.1.codec.long_name">Vorbis</property>
  <property name="meta.media.1.codec.bit_rate">0</property>
  <property name="meta.attr.1.stream.HANDLER_NAME.markup">ISO Media file produced by Google Inc.</property>
  <property name="meta.attr.1.stream.VENDOR_ID.markup">[0][0][0][0]</property>
  <property name="meta.attr.1.stream.ENCODER.markup">Lavc60.31.102 libvorbis</property>
  <property name="meta.attr.1.stream.DURATION.markup">00:00:05.320000000</property>
  <property name="meta.attr.COMPATIBLE_BRANDS.markup">isomiso2avc1mp41</property>
  <property name="meta.attr.MAJOR_BRAND.markup">isom</property>
  <property name="meta.attr.MINOR_VERSION.markup">512</property>
  <property name="meta.attr.ENCODER.markup">Lavf60.16.100</property>
  <property name="seekable">1</property>
  <property name="meta.media.sample_aspect_num">1</property>
  <property name="meta.media.sample_aspect_den">1</property>
  <property name="aspect_ratio">1</property>
  <property name="format">3</property>
  <property name="kdenlive:clipname"/>
  <property name="meta.media.frame_rate_num">23326</property>
  <property name="meta.media.frame_rate_den">781</property>
  <property name="meta.media.colorspace">709</property>
  <property name="meta.media.color_trc">1</property>
  <property name="meta.media.has_b_frames">2</property>
  <property name="meta.media.width">1920</property>
  <property name="meta.media.height">1080</property>
  <property name="meta.media.color_range">mpeg</property>
  <property name="meta.media.top_field_first">0</property>
  <property name="meta.media.progressive">1</property>
  <property name="kdenlive:clip_type">0</property>
  <property name="kdenlive:folderid">407</property>
  <property name="kdenlive:id">438</property>
  <property name="kdenlive:file_size">1721805</property>
  <property name="kdenlive:file_hash">7bf37325c9f7ab5d86e8028a8bcfdd29</property>
  <property name="kdenlive:audio_max1">232</property>
 </producer>
 <producer id="producer397" in="00:00:00.000" out="00:00:04.067">
  <property name="length">245</property>
  <property name="eof">pause</property>
  <property name="resource">/home/federico/Nextcloud/Kden/EditingUT/Video/non scrivere mentre guidi.mkv</property>
  <property name="audio_index">1</property>
  <property name="video_index">0</property>
  <property name="mute_on_pause">0</property>
  <property name="mlt_service">avformat-novalidate</property>
  <property name="meta.media.nb_streams">2</property>
  <property name="meta.media.0.stream.type">video</property>
  <property name="meta.media.0.stream.frame_rate">30</property>
  <property name="meta.media.0.stream.sample_aspect_ratio">1</property>
  <property name="meta.media.0.codec.width">1280</property>
  <property name="meta.media.0.codec.height">720</property>
  <property name="meta.media.0.codec.rotate">0</property>
  <property name="meta.media.0.codec.pix_fmt">yuv420p</property>
  <property name="meta.media.0.codec.sample_aspect_ratio">1</property>
  <property name="meta.media.0.codec.colorspace">709</property>
  <property name="meta.media.0.codec.color_trc">1</property>
  <property name="meta.media.0.codec.name">h264</property>
  <property name="meta.media.0.codec.long_name">H.264 / AVC / MPEG-4 AVC / MPEG-4 part 10</property>
  <property name="meta.media.0.codec.bit_rate">0</property>
  <property name="meta.attr.0.stream.HANDLER_NAME.markup">ISO Media file produced by Google Inc.</property>
  <property name="meta.attr.0.stream.VENDOR_ID.markup">[0][0][0][0]</property>
  <property name="meta.attr.0.stream.ENCODER.markup">Lavc60.31.102 libx264</property>
  <property name="meta.attr.0.stream.DURATION.markup">00:00:04.036000000</property>
  <property name="meta.media.1.stream.type">audio</property>
  <property name="meta.media.1.codec.sample_fmt">fltp</property>
  <property name="meta.media.1.codec.sample_rate">44100</property>
  <property name="meta.media.1.codec.channels">2</property>
  <property name="meta.media.1.codec.name">vorbis</property>
  <property name="meta.media.1.codec.long_name">Vorbis</property>
  <property name="meta.media.1.codec.bit_rate">0</property>
  <property name="meta.attr.1.stream.HANDLER_NAME.markup">ISO Media file produced by Google Inc.</property>
  <property name="meta.attr.1.stream.VENDOR_ID.markup">[0][0][0][0]</property>
  <property name="meta.attr.1.stream.ENCODER.markup">Lavc60.31.102 libvorbis</property>
  <property name="meta.attr.1.stream.DURATION.markup">00:00:04.089000000</property>
  <property name="meta.attr.COMPATIBLE_BRANDS.markup">isomiso2avc1mp41</property>
  <property name="meta.attr.MAJOR_BRAND.markup">isom</property>
  <property name="meta.attr.MINOR_VERSION.markup">512</property>
  <property name="meta.attr.ENCODER.markup">Lavf60.16.100</property>
  <property name="seekable">1</property>
  <property name="meta.media.sample_aspect_num">1</property>
  <property name="meta.media.sample_aspect_den">1</property>
  <property name="aspect_ratio">1</property>
  <property name="format">3</property>
  <property name="kdenlive:clipname"/>
  <property name="meta.media.frame_rate_num">30</property>
  <property name="meta.media.frame_rate_den">1</property>
  <property name="meta.media.colorspace">709</property>
  <property name="meta.media.color_trc">1</property>
  <property name="meta.media.has_b_frames">2</property>
  <property name="meta.media.width">1280</property>
  <property name="meta.media.height">720</property>
  <property name="meta.media.color_range">mpeg</property>
  <property name="meta.media.top_field_first">0</property>
  <property name="meta.media.progressive">1</property>
  <property name="kdenlive:clip_type">0</property>
  <property name="kdenlive:folderid">407</property>
  <property name="kdenlive:id">439</property>
  <property name="kdenlive:file_size">805421</property>
  <property name="kdenlive:file_hash">d157c48b463c20c9b9eb6c8e0f75479d</property>
  <property name="kdenlive:audio_max1">200</property>
 </producer>
 <producer id="producer402" in="00:00:00.000" out="00:00:05.183">
  <property name="length">312</property>
  <property name="eof">pause</property>
  <property name="resource">/home/federico/Nextcloud/Kden/EditingUT/Video/scared small kid screaming meme template.mkv</property>
  <property name="audio_index">1</property>
  <property name="video_index">0</property>
  <property name="mute_on_pause">0</property>
  <property name="mlt_service">avformat-novalidate</property>
  <property name="meta.media.nb_streams">2</property>
  <property name="meta.media.0.stream.type">video</property>
  <property name="meta.media.0.stream.frame_rate">30</property>
  <property name="meta.media.0.stream.sample_aspect_ratio">1</property>
  <property name="meta.media.0.codec.width">1920</property>
  <property name="meta.media.0.codec.height">1080</property>
  <property name="meta.media.0.codec.rotate">0</property>
  <property name="meta.media.0.codec.pix_fmt">yuv420p</property>
  <property name="meta.media.0.codec.sample_aspect_ratio">1</property>
  <property name="meta.media.0.codec.colorspace">601</property>
  <property name="meta.media.0.codec.color_trc">1</property>
  <property name="meta.media.0.codec.name">h264</property>
  <property name="meta.media.0.codec.long_name">H.264 / AVC / MPEG-4 AVC / MPEG-4 part 10</property>
  <property name="meta.media.0.codec.bit_rate">0</property>
  <property name="meta.attr.0.stream.HANDLER_NAME.markup">ISO Media file produced by Google Inc.</property>
  <property name="meta.attr.0.stream.VENDOR_ID.markup">[0][0][0][0]</property>
  <property name="meta.attr.0.stream.ENCODER.markup">Lavc60.31.102 libx264</property>
  <property name="meta.attr.0.stream.DURATION.markup">00:00:05.136000000</property>
  <property name="meta.media.1.stream.type">audio</property>
  <property name="meta.media.1.codec.sample_fmt">fltp</property>
  <property name="meta.media.1.codec.sample_rate">44100</property>
  <property name="meta.media.1.codec.channels">2</property>
  <property name="meta.media.1.codec.name">vorbis</property>
  <property name="meta.media.1.codec.long_name">Vorbis</property>
  <property name="meta.media.1.codec.bit_rate">0</property>
  <property name="meta.attr.1.stream.language.markup">eng</property>
  <property name="meta.attr.1.stream.HANDLER_NAME.markup">ISO Media file produced by Google Inc.</property>
  <property name="meta.attr.1.stream.VENDOR_ID.markup">[0][0][0][0]</property>
  <property name="meta.attr.1.stream.ENCODER.markup">Lavc60.31.102 libvorbis</property>
  <property name="meta.attr.1.stream.DURATION.markup">00:00:05.204000000</property>
  <property name="meta.attr.COMPATIBLE_BRANDS.markup">isomiso2avc1mp41</property>
  <property name="meta.attr.MAJOR_BRAND.markup">isom</property>
  <property name="meta.attr.MINOR_VERSION.markup">512</property>
  <property name="meta.attr.ENCODER.markup">Lavf60.16.100</property>
  <property name="seekable">1</property>
  <property name="meta.media.sample_aspect_num">1</property>
  <property name="meta.media.sample_aspect_den">1</property>
  <property name="aspect_ratio">1</property>
  <property name="format">3</property>
  <property name="kdenlive:clipname"/>
  <property name="meta.media.frame_rate_num">30</property>
  <property name="meta.media.frame_rate_den">1</property>
  <property name="meta.media.colorspace">601</property>
  <property name="meta.media.color_trc">1</property>
  <property name="meta.media.has_b_frames">2</property>
  <property name="meta.media.width">1920</property>
  <property name="meta.media.height">1080</property>
  <property name="meta.media.color_range">mpeg</property>
  <property name="meta.media.top_field_first">0</property>
  <property name="meta.media.progressive">1</property>
  <property name="kdenlive:clip_type">0</property>
  <property name="kdenlive:folderid">407</property>
  <property name="kdenlive:id">440</property>
  <property name="kdenlive:file_size">1264858</property>
  <property name="kdenlive:file_hash">2e5d575762befd420b9d57279100768e</property>
  <property name="kdenlive:audio_max1">168</property>
 </producer>
 <producer id="producer398" in="00:00:00.000" out="00:00:12.683">
  <property name="length">762</property>
  <property name="eof">pause</property>
  <property name="resource">/home/federico/Nextcloud/Kden/EditingUT/Video/seal clapping.mkv</property>
  <property name="audio_index">1</property>
  <property name="video_index">0</property>
  <property name="mute_on_pause">0</property>
  <property name="mlt_service">avformat-novalidate</property>
  <property name="meta.media.nb_streams">2</property>
  <property name="meta.media.0.stream.type">video</property>
  <property name="meta.media.0.stream.frame_rate">30</property>
  <property name="meta.media.0.stream.sample_aspect_ratio">1</property>
  <property name="meta.media.0.codec.width">480</property>
  <property name="meta.media.0.codec.height">480</property>
  <property name="meta.media.0.codec.rotate">0</property>
  <property name="meta.media.0.codec.pix_fmt">yuv420p</property>
  <property name="meta.media.0.codec.sample_aspect_ratio">1</property>
  <property name="meta.media.0.codec.colorspace">709</property>
  <property name="meta.media.0.codec.color_trc">1</property>
  <property name="meta.media.0.codec.name">h264</property>
  <property name="meta.media.0.codec.long_name">H.264 / AVC / MPEG-4 AVC / MPEG-4 part 10</property>
  <property name="meta.media.0.codec.bit_rate">0</property>
  <property name="meta.attr.0.stream.HANDLER_NAME.markup">VideoHandler</property>
  <property name="meta.attr.0.stream.VENDOR_ID.markup">[0][0][0][0]</property>
  <property name="meta.attr.0.stream.ENCODER.markup">Lavc60.31.102 libx264</property>
  <property name="meta.attr.0.stream.DURATION.markup">00:00:12.636000000</property>
  <property name="meta.media.1.stream.type">audio</property>
  <property name="meta.media.1.codec.sample_fmt">fltp</property>
  <property name="meta.media.1.codec.sample_rate">44100</property>
  <property name="meta.media.1.codec.channels">2</property>
  <property name="meta.media.1.codec.name">vorbis</property>
  <property name="meta.media.1.codec.long_name">Vorbis</property>
  <property name="meta.media.1.codec.bit_rate">0</property>
  <property name="meta.attr.1.stream.HANDLER_NAME.markup">SoundHandler</property>
  <property name="meta.attr.1.stream.VENDOR_ID.markup">[0][0][0][0]</property>
  <property name="meta.attr.1.stream.ENCODER.markup">Lavc60.31.102 libvorbis</property>
  <property name="meta.attr.1.stream.DURATION.markup">00:00:12.704000000</property>
  <property name="meta.attr.COMPATIBLE_BRANDS.markup">isomiso2avc1mp41</property>
  <property name="meta.attr.MAJOR_BRAND.markup">isom</property>
  <property name="meta.attr.MINOR_VERSION.markup">512</property>
  <property name="meta.attr.ENCODER.markup">Lavf60.16.100</property>
  <property name="seekable">1</property>
  <property name="meta.media.sample_aspect_num">1</property>
  <property name="meta.media.sample_aspect_den">1</property>
  <property name="aspect_ratio">1</property>
  <property name="format">3</property>
  <property name="kdenlive:clipname"/>
  <property name="meta.media.frame_rate_num">30</property>
  <property name="meta.media.frame_rate_den">1</property>
  <property name="meta.media.colorspace">709</property>
  <property name="meta.media.color_trc">1</property>
  <property name="meta.media.has_b_frames">2</property>
  <property name="meta.media.width">480</property>
  <property name="meta.media.height">480</property>
  <property name="meta.media.color_range">mpeg</property>
  <property name="meta.media.top_field_first">0</property>
  <property name="meta.media.progressive">1</property>
  <property name="kdenlive:clip_type">0</property>
  <property name="kdenlive:folderid">407</property>
  <property name="kdenlive:id">441</property>
  <property name="kdenlive:file_size">1038679</property>
  <property name="kdenlive:file_hash">cab3fe1bd12f5a3ac7e6c30237386856</property>
  <property name="kdenlive:audio_max1">231</property>
 </producer>
 <producer id="producer399" in="00:00:00.000" out="00:00:10.117">
  <property name="length">608</property>
  <property name="eof">pause</property>
  <property name="resource">/home/federico/Nextcloud/Kden/EditingUT/Video/star wars magic.mkv</property>
  <property name="audio_index">1</property>
  <property name="video_index">0</property>
  <property name="mute_on_pause">0</property>
  <property name="mlt_service">avformat-novalidate</property>
  <property name="meta.media.nb_streams">2</property>
  <property name="meta.media.0.stream.type">video</property>
  <property name="meta.media.0.stream.frame_rate">30</property>
  <property name="meta.media.0.stream.sample_aspect_ratio">1</property>
  <property name="meta.media.0.codec.width">360</property>
  <property name="meta.media.0.codec.height">360</property>
  <property name="meta.media.0.codec.rotate">0</property>
  <property name="meta.media.0.codec.pix_fmt">yuv420p</property>
  <property name="meta.media.0.codec.sample_aspect_ratio">1</property>
  <property name="meta.media.0.codec.colorspace">709</property>
  <property name="meta.media.0.codec.color_trc">1</property>
  <property name="meta.media.0.codec.name">h264</property>
  <property name="meta.media.0.codec.long_name">H.264 / AVC / MPEG-4 AVC / MPEG-4 part 10</property>
  <property name="meta.media.0.codec.bit_rate">0</property>
  <property name="meta.attr.0.stream.HANDLER_NAME.markup">ISO Media file produced by Google Inc.</property>
  <property name="meta.attr.0.stream.VENDOR_ID.markup">[0][0][0][0]</property>
  <property name="meta.attr.0.stream.ENCODER.markup">Lavc60.31.102 libx264</property>
  <property name="meta.attr.0.stream.DURATION.markup">00:00:10.069000000</property>
  <property name="meta.media.1.stream.type">audio</property>
  <property name="meta.media.1.codec.sample_fmt">fltp</property>
  <property name="meta.media.1.codec.sample_rate">44100</property>
  <property name="meta.media.1.codec.channels">2</property>
  <property name="meta.media.1.codec.name">vorbis</property>
  <property name="meta.media.1.codec.long_name">Vorbis</property>
  <property name="meta.media.1.codec.bit_rate">0</property>
  <property name="meta.attr.1.stream.HANDLER_NAME.markup">ISO Media file produced by Google Inc.</property>
  <property name="meta.attr.1.stream.VENDOR_ID.markup">[0][0][0][0]</property>
  <property name="meta.attr.1.stream.ENCODER.markup">Lavc60.31.102 libvorbis</property>
  <property name="meta.attr.1.stream.DURATION.markup">00:00:10.127000000</property>
  <property name="meta.attr.COMPATIBLE_BRANDS.markup">isomiso2avc1mp41</property>
  <property name="meta.attr.MAJOR_BRAND.markup">isom</property>
  <property name="meta.attr.MINOR_VERSION.markup">512</property>
  <property name="meta.attr.ENCODER.markup">Lavf60.16.100</property>
  <property name="seekable">1</property>
  <property name="meta.media.sample_aspect_num">1</property>
  <property name="meta.media.sample_aspect_den">1</property>
  <property name="aspect_ratio">1</property>
  <property name="format">3</property>
  <property name="kdenlive:clipname"/>
  <property name="meta.media.frame_rate_num">30</property>
  <property name="meta.media.frame_rate_den">1</property>
  <property name="meta.media.colorspace">709</property>
  <property name="meta.media.color_trc">1</property>
  <property name="meta.media.has_b_frames">2</property>
  <property name="meta.media.width">360</property>
  <property name="meta.media.height">360</property>
  <property name="meta.media.color_range">mpeg</property>
  <property name="meta.media.top_field_first">0</property>
  <property name="meta.media.progressive">1</property>
  <property name="kdenlive:clip_type">0</property>
  <property name="kdenlive:folderid">407</property>
  <property name="kdenlive:id">442</property>
  <property name="kdenlive:file_size">381473</property>
  <property name="kdenlive:file_hash">1878e4b894da030f45d9d38af5cefac2</property>
  <property name="kdenlive:audio_max1">183</property>
 </producer>
 <producer id="producer404" in="00:00:00.000" out="00:00:29.950">
  <property name="length">1798</property>
  <property name="eof">pause</property>
  <property name="resource">/home/federico/Nextcloud/Kden/EditingUT/Video/sweaty gamer speedrun meme.mkv</property>
  <property name="audio_index">1</property>
  <property name="video_index">0</property>
  <property name="mute_on_pause">0</property>
  <property name="mlt_service">avformat-novalidate</property>
  <property name="meta.media.nb_streams">2</property>
  <property name="meta.media.0.stream.type">video</property>
  <property name="meta.media.0.stream.frame_rate">30</property>
  <property name="meta.media.0.stream.sample_aspect_ratio">1</property>
  <property name="meta.media.0.codec.width">1920</property>
  <property name="meta.media.0.codec.height">1080</property>
  <property name="meta.media.0.codec.rotate">0</property>
  <property name="meta.media.0.codec.pix_fmt">yuv420p</property>
  <property name="meta.media.0.codec.sample_aspect_ratio">1</property>
  <property name="meta.media.0.codec.colorspace">709</property>
  <property name="meta.media.0.codec.color_trc">1</property>
  <property name="meta.media.0.codec.name">h264</property>
  <property name="meta.media.0.codec.long_name">H.264 / AVC / MPEG-4 AVC / MPEG-4 part 10</property>
  <property name="meta.media.0.codec.bit_rate">0</property>
  <property name="meta.attr.0.stream.DURATION.markup">00:00:29.954000000</property>
  <property name="meta.media.1.stream.type">audio</property>
  <property name="meta.media.1.codec.sample_fmt">fltp</property>
  <property name="meta.media.1.codec.sample_rate">48000</property>
  <property name="meta.media.1.codec.channels">2</property>
  <property name="meta.media.1.codec.name">aac</property>
  <property name="meta.media.1.codec.long_name">AAC (Advanced Audio Coding)</property>
  <property name="meta.media.1.codec.bit_rate">0</property>
  <property name="meta.attr.1.stream.DURATION.markup">00:00:29.973000000</property>
  <property name="meta.attr.ENCODER.markup">Lavf59.16.100</property>
  <property name="seekable">1</property>
  <property name="meta.media.sample_aspect_num">1</property>
  <property name="meta.media.sample_aspect_den">1</property>
  <property name="aspect_ratio">1</property>
  <property name="format">3</property>
  <property name="kdenlive:clipname"/>
  <property name="meta.media.frame_rate_num">30</property>
  <property name="meta.media.frame_rate_den">1</property>
  <property name="meta.media.colorspace">709</property>
  <property name="meta.media.color_trc">1</property>
  <property name="meta.media.has_b_frames">0</property>
  <property name="meta.media.width">1920</property>
  <property name="meta.media.height">1080</property>
  <property name="meta.media.color_range">mpeg</property>
  <property name="meta.media.top_field_first">0</property>
  <property name="meta.media.progressive">1</property>
  <property name="kdenlive:clip_type">0</property>
  <property name="kdenlive:folderid">407</property>
  <property name="kdenlive:id">443</property>
  <property name="kdenlive:file_size">14719434</property>
  <property name="kdenlive:file_hash">82846dc8ebb40580e852c97c5b7feff4</property>
  <property name="kdenlive:audio_max1">150</property>
 </producer>
 <producer id="producer401" in="00:00:00.000" out="00:00:06.250">
  <property name="length">376</property>
  <property name="eof">pause</property>
  <property name="resource">/home/federico/Nextcloud/Kden/EditingUT/Video/The more you know.mkv</property>
  <property name="audio_index">1</property>
  <property name="video_index">0</property>
  <property name="mute_on_pause">0</property>
  <property name="mlt_service">avformat-novalidate</property>
  <property name="meta.media.nb_streams">2</property>
  <property name="meta.media.0.stream.type">video</property>
  <property name="meta.media.0.stream.frame_rate">29.97</property>
  <property name="meta.media.0.stream.sample_aspect_ratio">1</property>
  <property name="meta.media.0.codec.width">640</property>
  <property name="meta.media.0.codec.height">360</property>
  <property name="meta.media.0.codec.rotate">0</property>
  <property name="meta.media.0.codec.pix_fmt">yuv420p</property>
  <property name="meta.media.0.codec.sample_aspect_ratio">1</property>
  <property name="meta.media.0.codec.colorspace">709</property>
  <property name="meta.media.0.codec.color_trc">1</property>
  <property name="meta.media.0.codec.name">h264</property>
  <property name="meta.media.0.codec.long_name">H.264 / AVC / MPEG-4 AVC / MPEG-4 part 10</property>
  <property name="meta.media.0.codec.bit_rate">0</property>
  <property name="meta.attr.0.stream.HANDLER_NAME.markup">ISO Media file produced by Google Inc.</property>
  <property name="meta.attr.0.stream.VENDOR_ID.markup">[0][0][0][0]</property>
  <property name="meta.attr.0.stream.ENCODER.markup">Lavc60.31.102 libx264</property>
  <property name="meta.attr.0.stream.DURATION.markup">00:00:06.175000000</property>
  <property name="meta.media.1.stream.type">audio</property>
  <property name="meta.media.1.codec.sample_fmt">fltp</property>
  <property name="meta.media.1.codec.sample_rate">44100</property>
  <property name="meta.media.1.codec.channels">2</property>
  <property name="meta.media.1.codec.name">vorbis</property>
  <property name="meta.media.1.codec.long_name">Vorbis</property>
  <property name="meta.media.1.codec.bit_rate">0</property>
  <property name="meta.attr.1.stream.language.markup">eng</property>
  <property name="meta.attr.1.stream.HANDLER_NAME.markup">ISO Media file produced by Google Inc.</property>
  <property name="meta.attr.1.stream.VENDOR_ID.markup">[0][0][0][0]</property>
  <property name="meta.attr.1.stream.ENCODER.markup">Lavc60.31.102 libvorbis</property>
  <property name="meta.attr.1.stream.DURATION.markup">00:00:06.272000000</property>
  <property name="meta.attr.COMPATIBLE_BRANDS.markup">isommp42</property>
  <property name="meta.attr.MAJOR_BRAND.markup">mp42</property>
  <property name="meta.attr.MINOR_VERSION.markup">0</property>
  <property name="meta.attr.ENCODER.markup">Lavf60.16.100</property>
  <property name="seekable">1</property>
  <property name="meta.media.sample_aspect_num">1</property>
  <property name="meta.media.sample_aspect_den">1</property>
  <property name="aspect_ratio">1</property>
  <property name="format">3</property>
  <property name="kdenlive:clipname"/>
  <property name="meta.media.frame_rate_num">30000</property>
  <property name="meta.media.frame_rate_den">1001</property>
  <property name="meta.media.colorspace">709</property>
  <property name="meta.media.color_trc">1</property>
  <property name="meta.media.has_b_frames">2</property>
  <property name="meta.media.width">640</property>
  <property name="meta.media.height">360</property>
  <property name="meta.media.color_range">mpeg</property>
  <property name="meta.media.top_field_first">0</property>
  <property name="meta.media.progressive">1</property>
  <property name="kdenlive:clip_type">0</property>
  <property name="kdenlive:folderid">407</property>
  <property name="kdenlive:id">444</property>
  <property name="kdenlive:file_size">138001</property>
  <property name="kdenlive:file_hash">b8aa017e62ad53258c7449cf7cd9b31e</property>
  <property name="kdenlive:audio_max1">135</property>
 </producer>
 <producer id="producer406" in="00:00:00.000" out="00:00:05.333">
  <property name="length">321</property>
  <property name="eof">pause</property>
  <property name="resource">/home/federico/Nextcloud/Kden/EditingUT/Video/throw computer pc in trash meme.mkv</property>
  <property name="audio_index">1</property>
  <property name="video_index">0</property>
  <property name="mute_on_pause">0</property>
  <property name="mlt_service">avformat-novalidate</property>
  <property name="meta.media.nb_streams">2</property>
  <property name="meta.media.0.stream.type">video</property>
  <property name="meta.media.0.stream.frame_rate">60</property>
  <property name="meta.media.0.stream.sample_aspect_ratio">1</property>
  <property name="meta.media.0.codec.width">1920</property>
  <property name="meta.media.0.codec.height">1080</property>
  <property name="meta.media.0.codec.rotate">0</property>
  <property name="meta.media.0.codec.pix_fmt">yuv420p</property>
  <property name="meta.media.0.codec.sample_aspect_ratio">1</property>
  <property name="meta.media.0.codec.colorspace">709</property>
  <property name="meta.media.0.codec.color_trc">1</property>
  <property name="meta.media.0.codec.name">h264</property>
  <property name="meta.media.0.codec.long_name">H.264 / AVC / MPEG-4 AVC / MPEG-4 part 10</property>
  <property name="meta.media.0.codec.bit_rate">0</property>
  <property name="meta.attr.0.stream.DURATION.markup">00:00:05.355000000</property>
  <property name="meta.media.1.stream.type">audio</property>
  <property name="meta.media.1.codec.sample_fmt">fltp</property>
  <property name="meta.media.1.codec.sample_rate">48000</property>
  <property name="meta.media.1.codec.channels">2</property>
  <property name="meta.media.1.codec.name">aac</property>
  <property name="meta.media.1.codec.long_name">AAC (Advanced Audio Coding)</property>
  <property name="meta.media.1.codec.bit_rate">0</property>
  <property name="meta.attr.1.stream.DURATION.markup">00:00:05.354000000</property>
  <property name="meta.attr.ENCODER.markup">Lavf59.16.100</property>
  <property name="seekable">1</property>
  <property name="meta.media.sample_aspect_num">1</property>
  <property name="meta.media.sample_aspect_den">1</property>
  <property name="aspect_ratio">1</property>
  <property name="format">3</property>
  <property name="kdenlive:clipname"/>
  <property name="meta.media.frame_rate_num">60</property>
  <property name="meta.media.frame_rate_den">1</property>
  <property name="meta.media.colorspace">709</property>
  <property name="meta.media.color_trc">1</property>
  <property name="meta.media.has_b_frames">0</property>
  <property name="meta.media.width">1920</property>
  <property name="meta.media.height">1080</property>
  <property name="meta.media.color_range">mpeg</property>
  <property name="meta.media.top_field_first">0</property>
  <property name="meta.media.progressive">1</property>
  <property name="kdenlive:clip_type">0</property>
  <property name="kdenlive:folderid">407</property>
  <property name="kdenlive:id">445</property>
  <property name="kdenlive:file_size">14324183</property>
  <property name="kdenlive:file_hash">26f9332753632fea3c1d2cac5e18c31b</property>
  <property name="kdenlive:audio_max1">190</property>
 </producer>
 <producer id="producer405" in="00:00:00.000" out="00:00:09.850">
  <property name="length">592</property>
  <property name="eof">pause</property>
  <property name="resource">/home/federico/Nextcloud/Kden/EditingUT/Video/wait a minute, who are you meme.mkv</property>
  <property name="audio_index">1</property>
  <property name="video_index">0</property>
  <property name="mute_on_pause">0</property>
  <property name="mlt_service">avformat-novalidate</property>
  <property name="meta.media.nb_streams">2</property>
  <property name="meta.media.0.stream.type">video</property>
  <property name="meta.media.0.stream.frame_rate">30</property>
  <property name="meta.media.0.stream.sample_aspect_ratio">1</property>
  <property name="meta.media.0.codec.width">1920</property>
  <property name="meta.media.0.codec.height">1080</property>
  <property name="meta.media.0.codec.rotate">0</property>
  <property name="meta.media.0.codec.pix_fmt">yuv420p</property>
  <property name="meta.media.0.codec.sample_aspect_ratio">1</property>
  <property name="meta.media.0.codec.colorspace">709</property>
  <property name="meta.media.0.codec.color_trc">1</property>
  <property name="meta.media.0.codec.name">h264</property>
  <property name="meta.media.0.codec.long_name">H.264 / AVC / MPEG-4 AVC / MPEG-4 part 10</property>
  <property name="meta.media.0.codec.bit_rate">0</property>
  <property name="meta.attr.0.stream.HANDLER_NAME.markup">ISO Media file produced by Google Inc.</property>
  <property name="meta.attr.0.stream.VENDOR_ID.markup">[0][0][0][0]</property>
  <property name="meta.attr.0.stream.ENCODER.markup">Lavc60.31.102 libx264</property>
  <property name="meta.attr.0.stream.DURATION.markup">00:00:09.803000000</property>
  <property name="meta.media.1.stream.type">audio</property>
  <property name="meta.media.1.codec.sample_fmt">fltp</property>
  <property name="meta.media.1.codec.sample_rate">44100</property>
  <property name="meta.media.1.codec.channels">2</property>
  <property name="meta.media.1.codec.name">vorbis</property>
  <property name="meta.media.1.codec.long_name">Vorbis</property>
  <property name="meta.media.1.codec.bit_rate">0</property>
  <property name="meta.attr.1.stream.HANDLER_NAME.markup">ISO Media file produced by Google Inc.</property>
  <property name="meta.attr.1.stream.VENDOR_ID.markup">[0][0][0][0]</property>
  <property name="meta.attr.1.stream.ENCODER.markup">Lavc60.31.102 libvorbis</property>
  <property name="meta.attr.1.stream.DURATION.markup">00:00:09.872000000</property>
  <property name="meta.attr.COMPATIBLE_BRANDS.markup">isomiso2avc1mp41</property>
  <property name="meta.attr.MAJOR_BRAND.markup">isom</property>
  <property name="meta.attr.MINOR_VERSION.markup">512</property>
  <property name="meta.attr.ENCODER.markup">Lavf60.16.100</property>
  <property name="seekable">1</property>
  <property name="meta.media.sample_aspect_num">1</property>
  <property name="meta.media.sample_aspect_den">1</property>
  <property name="aspect_ratio">1</property>
  <property name="format">3</property>
  <property name="kdenlive:clipname"/>
  <property name="meta.media.frame_rate_num">30</property>
  <property name="meta.media.frame_rate_den">1</property>
  <property name="meta.media.colorspace">709</property>
  <property name="meta.media.color_trc">1</property>
  <property name="meta.media.has_b_frames">2</property>
  <property name="meta.media.width">1920</property>
  <property name="meta.media.height">1080</property>
  <property name="meta.media.color_range">mpeg</property>
  <property name="meta.media.top_field_first">0</property>
  <property name="meta.media.progressive">1</property>
  <property name="kdenlive:clip_type">0</property>
  <property name="kdenlive:folderid">407</property>
  <property name="kdenlive:id">446</property>
  <property name="kdenlive:file_size">1734588</property>
  <property name="kdenlive:file_hash">cbfc0b3b5371efe894a1aa62a2e3b2fc</property>
  <property name="kdenlive:audio_max1">186</property>
 </producer>
 <producer id="producer403" in="00:00:00.000" out="00:00:01.450">
  <property name="length">88</property>
  <property name="eof">pause</property>
  <property name="resource">/home/federico/Nextcloud/Kden/EditingUT/Video/Explosion/explosion meme.mkv</property>
  <property name="audio_index">1</property>
  <property name="video_index">0</property>
  <property name="mute_on_pause">0</property>
  <property name="mlt_service">avformat-novalidate</property>
  <property name="meta.media.nb_streams">2</property>
  <property name="meta.media.0.stream.type">video</property>
  <property name="meta.media.0.stream.frame_rate">29.97</property>
  <property name="meta.media.0.stream.sample_aspect_ratio">1</property>
  <property name="meta.media.0.codec.width">1920</property>
  <property name="meta.media.0.codec.height">1080</property>
  <property name="meta.media.0.codec.rotate">0</property>
  <property name="meta.media.0.codec.pix_fmt">yuv420p</property>
  <property name="meta.media.0.codec.sample_aspect_ratio">1</property>
  <property name="meta.media.0.codec.colorspace">709</property>
  <property name="meta.media.0.codec.color_trc">1</property>
  <property name="meta.media.0.codec.name">h264</property>
  <property name="meta.media.0.codec.long_name">H.264 / AVC / MPEG-4 AVC / MPEG-4 part 10</property>
  <property name="meta.media.0.codec.bit_rate">0</property>
  <property name="meta.attr.0.stream.HANDLER_NAME.markup">ISO Media file produced by Google Inc.</property>
  <property name="meta.attr.0.stream.VENDOR_ID.markup">[0][0][0][0]</property>
  <property name="meta.attr.0.stream.ENCODER.markup">Lavc60.31.102 libx264</property>
  <property name="meta.attr.0.stream.DURATION.markup">00:00:01.404000000</property>
  <property name="meta.media.1.stream.type">audio</property>
  <property name="meta.media.1.codec.sample_fmt">fltp</property>
  <property name="meta.media.1.codec.sample_rate">44100</property>
  <property name="meta.media.1.codec.channels">2</property>
  <property name="meta.media.1.codec.name">vorbis</property>
  <property name="meta.media.1.codec.long_name">Vorbis</property>
  <property name="meta.media.1.codec.bit_rate">0</property>
  <property name="meta.attr.1.stream.language.markup">eng</property>
  <property name="meta.attr.1.stream.HANDLER_NAME.markup">ISO Media file produced by Google Inc.</property>
  <property name="meta.attr.1.stream.VENDOR_ID.markup">[0][0][0][0]</property>
  <property name="meta.attr.1.stream.ENCODER.markup">Lavc60.31.102 libvorbis</property>
  <property name="meta.attr.1.stream.DURATION.markup">00:00:01.466000000</property>
  <property name="meta.attr.COMPATIBLE_BRANDS.markup">isomiso2avc1mp41</property>
  <property name="meta.attr.MAJOR_BRAND.markup">isom</property>
  <property name="meta.attr.MINOR_VERSION.markup">512</property>
  <property name="meta.attr.ENCODER.markup">Lavf60.16.100</property>
  <property name="seekable">1</property>
  <property name="meta.media.sample_aspect_num">1</property>
  <property name="meta.media.sample_aspect_den">1</property>
  <property name="aspect_ratio">1</property>
  <property name="format">3</property>
  <property name="kdenlive:clipname"/>
  <property name="meta.media.frame_rate_num">30000</property>
  <property name="meta.media.frame_rate_den">1001</property>
  <property name="meta.media.colorspace">709</property>
  <property name="meta.media.color_trc">1</property>
  <property name="meta.media.has_b_frames">2</property>
  <property name="meta.media.width">1920</property>
  <property name="meta.media.height">1080</property>
  <property name="meta.media.color_range">mpeg</property>
  <property name="meta.media.top_field_first">0</property>
  <property name="meta.media.progressive">1</property>
  <property name="kdenlive:clip_type">0</property>
  <property name="kdenlive:folderid">447</property>
  <property name="kdenlive:id">448</property>
  <property name="kdenlive:file_size">565413</property>
  <property name="kdenlive:file_hash">3e55e542f6455f7e0e4aefaa1d8736d4</property>
  <property name="kdenlive:audio_max1">174</property>
  <property name="kdenlive:zone_in">0</property>
  <property name="kdenlive:zone_out">17</property>
 </producer>
 <producer id="producer407" in="00:00:00.000" out="00:00:01.117">
  <property name="length">68</property>
  <property name="eof">pause</property>
  <property name="resource">/home/federico/Nextcloud/Kden/EditingUT/Video/Explosion/house exploding meme.mkv</property>
  <property name="audio_index">1</property>
  <property name="video_index">0</property>
  <property name="mute_on_pause">0</property>
  <property name="mlt_service">avformat-novalidate</property>
  <property name="meta.media.nb_streams">2</property>
  <property name="meta.media.0.stream.type">video</property>
  <property name="meta.media.0.stream.frame_rate">60</property>
  <property name="meta.media.0.stream.sample_aspect_ratio">1</property>
  <property name="meta.media.0.codec.width">1920</property>
  <property name="meta.media.0.codec.height">1080</property>
  <property name="meta.media.0.codec.rotate">0</property>
  <property name="meta.media.0.codec.pix_fmt">yuv420p</property>
  <property name="meta.media.0.codec.sample_aspect_ratio">1</property>
  <property name="meta.media.0.codec.colorspace">709</property>
  <property name="meta.media.0.codec.color_trc">1</property>
  <property name="meta.media.0.codec.name">h264</property>
  <property name="meta.media.0.codec.long_name">H.264 / AVC / MPEG-4 AVC / MPEG-4 part 10</property>
  <property name="meta.media.0.codec.bit_rate">0</property>
  <property name="meta.attr.0.stream.DURATION.markup">00:00:01.121000000</property>
  <property name="meta.media.1.stream.type">audio</property>
  <property name="meta.media.1.codec.sample_fmt">fltp</property>
  <property name="meta.media.1.codec.sample_rate">48000</property>
  <property name="meta.media.1.codec.channels">2</property>
  <property name="meta.media.1.codec.name">aac</property>
  <property name="meta.media.1.codec.long_name">AAC (Advanced Audio Coding)</property>
  <property name="meta.media.1.codec.bit_rate">0</property>
  <property name="meta.attr.1.stream.DURATION.markup">00:00:01.130000000</property>
  <property name="meta.attr.ENCODER.markup">Lavf59.16.100</property>
  <property name="seekable">1</property>
  <property name="meta.media.sample_aspect_num">1</property>
  <property name="meta.media.sample_aspect_den">1</property>
  <property name="aspect_ratio">1</property>
  <property name="format">3</property>
  <property name="kdenlive:clipname"/>
  <property name="meta.media.frame_rate_num">60</property>
  <property name="meta.media.frame_rate_den">1</property>
  <property name="meta.media.colorspace">709</property>
  <property name="meta.media.color_trc">1</property>
  <property name="meta.media.has_b_frames">0</property>
  <property name="meta.media.width">1920</property>
  <property name="meta.media.height">1080</property>
  <property name="meta.media.color_range">mpeg</property>
  <property name="meta.media.top_field_first">0</property>
  <property name="meta.media.progressive">1</property>
  <property name="kdenlive:clip_type">0</property>
  <property name="kdenlive:folderid">447</property>
  <property name="kdenlive:id">449</property>
  <property name="kdenlive:file_size">2409206</property>
  <property name="kdenlive:file_hash">849111d4251f35132f1fb8a86c2308a4</property>
  <property name="kdenlive:audio_max1">182</property>
 </producer>
 <producer id="producer409" in="00:00:00.000" out="00:00:02.967">
  <property name="length">179</property>
  <property name="eof">pause</property>
  <property name="resource">/home/federico/Nextcloud/Kden/EditingUT/Video/Fraws/fraws - dillo apposta.mkv</property>
  <property name="audio_index">1</property>
  <property name="video_index">0</property>
  <property name="mute_on_pause">0</property>
  <property name="mlt_service">avformat-novalidate</property>
  <property name="meta.media.nb_streams">2</property>
  <property name="meta.media.0.stream.type">video</property>
  <property name="meta.media.0.stream.frame_rate">60</property>
  <property name="meta.media.0.stream.sample_aspect_ratio">1</property>
  <property name="meta.media.0.codec.width">1920</property>
  <property name="meta.media.0.codec.height">1080</property>
  <property name="meta.media.0.codec.rotate">0</property>
  <property name="meta.media.0.codec.pix_fmt">yuv420p</property>
  <property name="meta.media.0.codec.sample_aspect_ratio">1</property>
  <property name="meta.media.0.codec.colorspace">709</property>
  <property name="meta.media.0.codec.color_trc">1</property>
  <property name="meta.media.0.codec.name">h264</property>
  <property name="meta.media.0.codec.long_name">H.264 / AVC / MPEG-4 AVC / MPEG-4 part 10</property>
  <property name="meta.media.0.codec.bit_rate">0</property>
  <property name="meta.attr.0.stream.HANDLER_NAME.markup">VideoHandler</property>
  <property name="meta.attr.0.stream.VENDOR_ID.markup">[0][0][0][0]</property>
  <property name="meta.attr.0.stream.ENCODER.markup">Lavc60.31.102 libx264</property>
  <property name="meta.attr.0.stream.DURATION.markup">00:00:02.987000000</property>
  <property name="meta.media.1.stream.type">audio</property>
  <property name="meta.media.1.codec.sample_fmt">fltp</property>
  <property name="meta.media.1.codec.sample_rate">48000</property>
  <property name="meta.media.1.codec.channels">2</property>
  <property name="meta.media.1.codec.name">vorbis</property>
  <property name="meta.media.1.codec.long_name">Vorbis</property>
  <property name="meta.media.1.codec.bit_rate">0</property>
  <property name="meta.attr.1.stream.HANDLER_NAME.markup">SoundHandler</property>
  <property name="meta.attr.1.stream.VENDOR_ID.markup">[0][0][0][0]</property>
  <property name="meta.attr.1.stream.ENCODER.markup">Lavc60.31.102 libvorbis</property>
  <property name="meta.attr.1.stream.DURATION.markup">00:00:02.990000000</property>
  <property name="meta.attr.COMPATIBLE_BRANDS.markup">isomiso2avc1mp41</property>
  <property name="meta.attr.MAJOR_BRAND.markup">isom</property>
  <property name="meta.attr.MINOR_VERSION.markup">512</property>
  <property name="meta.attr.ENCODER.markup">Lavf60.16.100</property>
  <property name="seekable">1</property>
  <property name="meta.media.sample_aspect_num">1</property>
  <property name="meta.media.sample_aspect_den">1</property>
  <property name="aspect_ratio">1</property>
  <property name="format">3</property>
  <property name="kdenlive:clipname"/>
  <property name="meta.media.frame_rate_num">60</property>
  <property name="meta.media.frame_rate_den">1</property>
  <property name="meta.media.colorspace">709</property>
  <property name="meta.media.color_trc">1</property>
  <property name="meta.media.has_b_frames">2</property>
  <property name="meta.media.width">1920</property>
  <property name="meta.media.height">1080</property>
  <property name="meta.media.color_range">mpeg</property>
  <property name="meta.media.top_field_first">0</property>
  <property name="meta.media.progressive">1</property>
  <property name="kdenlive:clip_type">0</property>
  <property name="kdenlive:folderid">450</property>
  <property name="kdenlive:id">451</property>
  <property name="kdenlive:file_size">1584544</property>
  <property name="kdenlive:file_hash">00c7a5aa76a85cd527145791d696b8c5</property>
  <property name="kdenlive:audio_max1">222</property>
 </producer>
 <producer id="producer408" in="00:00:00.000" out="00:00:10.650">
  <property name="length">640</property>
  <property name="eof">pause</property>
  <property name="resource">/home/federico/Nextcloud/Kden/EditingUT/Video/Fraws/fraws chierico.mkv</property>
  <property name="audio_index">1</property>
  <property name="video_index">0</property>
  <property name="mute_on_pause">0</property>
  <property name="mlt_service">avformat-novalidate</property>
  <property name="meta.media.nb_streams">2</property>
  <property name="meta.media.0.stream.type">video</property>
  <property name="meta.media.0.stream.frame_rate">30</property>
  <property name="meta.media.0.stream.sample_aspect_ratio">1</property>
  <property name="meta.media.0.codec.width">1920</property>
  <property name="meta.media.0.codec.height">1080</property>
  <property name="meta.media.0.codec.rotate">0</property>
  <property name="meta.media.0.codec.pix_fmt">yuv420p</property>
  <property name="meta.media.0.codec.sample_aspect_ratio">1</property>
  <property name="meta.media.0.codec.colorspace">709</property>
  <property name="meta.media.0.codec.color_trc">1</property>
  <property name="meta.media.0.codec.name">h264</property>
  <property name="meta.media.0.codec.long_name">H.264 / AVC / MPEG-4 AVC / MPEG-4 part 10</property>
  <property name="meta.media.0.codec.bit_rate">0</property>
  <property name="meta.attr.0.stream.HANDLER_NAME.markup">VideoHandler</property>
  <property name="meta.attr.0.stream.VENDOR_ID.markup">[0][0][0][0]</property>
  <property name="meta.attr.0.stream.ENCODER.markup">Lavc60.31.102 libx264</property>
  <property name="meta.attr.0.stream.DURATION.markup">00:00:10.669000000</property>
  <property name="meta.media.1.stream.type">audio</property>
  <property name="meta.media.1.codec.sample_fmt">fltp</property>
  <property name="meta.media.1.codec.sample_rate">48000</property>
  <property name="meta.media.1.codec.channels">2</property>
  <property name="meta.media.1.codec.name">vorbis</property>
  <property name="meta.media.1.codec.long_name">Vorbis</property>
  <property name="meta.media.1.codec.bit_rate">0</property>
  <property name="meta.attr.1.stream.HANDLER_NAME.markup">SoundHandler</property>
  <property name="meta.attr.1.stream.VENDOR_ID.markup">[0][0][0][0]</property>
  <property name="meta.attr.1.stream.ENCODER.markup">Lavc60.31.102 libvorbis</property>
  <property name="meta.attr.1.stream.DURATION.markup">00:00:10.670000000</property>
  <property name="meta.attr.COMPATIBLE_BRANDS.markup">isomiso2avc1mp41</property>
  <property name="meta.attr.MAJOR_BRAND.markup">isom</property>
  <property name="meta.attr.MINOR_VERSION.markup">512</property>
  <property name="meta.attr.ENCODER.markup">Lavf60.16.100</property>
  <property name="seekable">1</property>
  <property name="meta.media.sample_aspect_num">1</property>
  <property name="meta.media.sample_aspect_den">1</property>
  <property name="aspect_ratio">1</property>
  <property name="format">3</property>
  <property name="kdenlive:clipname"/>
  <property name="meta.media.frame_rate_num">30</property>
  <property name="meta.media.frame_rate_den">1</property>
  <property name="meta.media.colorspace">709</property>
  <property name="meta.media.color_trc">1</property>
  <property name="meta.media.has_b_frames">2</property>
  <property name="meta.media.width">1920</property>
  <property name="meta.media.height">1080</property>
  <property name="meta.media.color_range">mpeg</property>
  <property name="meta.media.top_field_first">0</property>
  <property name="meta.media.progressive">1</property>
  <property name="kdenlive:clip_type">0</property>
  <property name="kdenlive:folderid">450</property>
  <property name="kdenlive:id">452</property>
  <property name="kdenlive:file_size">1664972</property>
  <property name="kdenlive:file_hash">0c47fd507fa49ae7384dcf7e5f97095d</property>
  <property name="kdenlive:audio_max1">243</property>
 </producer>
 <producer id="producer412" in="00:00:00.000" out="00:00:05.167">
  <property name="length">311</property>
  <property name="eof">pause</property>
  <property name="resource">/home/federico/Nextcloud/Kden/EditingUT/Video/Fraws/fraws fa cose.mkv</property>
  <property name="audio_index">1</property>
  <property name="video_index">0</property>
  <property name="mute_on_pause">0</property>
  <property name="mlt_service">avformat-novalidate</property>
  <property name="meta.media.nb_streams">2</property>
  <property name="meta.media.0.stream.type">video</property>
  <property name="meta.media.0.stream.frame_rate">30</property>
  <property name="meta.media.0.stream.sample_aspect_ratio">1</property>
  <property name="meta.media.0.codec.width">1920</property>
  <property name="meta.media.0.codec.height">1080</property>
  <property name="meta.media.0.codec.rotate">0</property>
  <property name="meta.media.0.codec.pix_fmt">yuv420p</property>
  <property name="meta.media.0.codec.sample_aspect_ratio">1</property>
  <property name="meta.media.0.codec.colorspace">709</property>
  <property name="meta.media.0.codec.color_trc">1</property>
  <property name="meta.media.0.codec.name">h264</property>
  <property name="meta.media.0.codec.long_name">H.264 / AVC / MPEG-4 AVC / MPEG-4 part 10</property>
  <property name="meta.media.0.codec.bit_rate">0</property>
  <property name="meta.attr.0.stream.HANDLER_NAME.markup">VideoHandler</property>
  <property name="meta.attr.0.stream.VENDOR_ID.markup">[0][0][0][0]</property>
  <property name="meta.attr.0.stream.ENCODER.markup">Lavc60.31.102 libx264</property>
  <property name="meta.attr.0.stream.DURATION.markup">00:00:05.169000000</property>
  <property name="meta.media.1.stream.type">audio</property>
  <property name="meta.media.1.codec.sample_fmt">fltp</property>
  <property name="meta.media.1.codec.sample_rate">48000</property>
  <property name="meta.media.1.codec.channels">2</property>
  <property name="meta.media.1.codec.name">vorbis</property>
  <property name="meta.media.1.codec.long_name">Vorbis</property>
  <property name="meta.media.1.codec.bit_rate">0</property>
  <property name="meta.attr.1.stream.HANDLER_NAME.markup">SoundHandler</property>
  <property name="meta.attr.1.stream.VENDOR_ID.markup">[0][0][0][0]</property>
  <property name="meta.attr.1.stream.ENCODER.markup">Lavc60.31.102 libvorbis</property>
  <property name="meta.attr.1.stream.DURATION.markup">00:00:05.187000000</property>
  <property name="meta.attr.COMPATIBLE_BRANDS.markup">isomiso2avc1mp41</property>
  <property name="meta.attr.MAJOR_BRAND.markup">isom</property>
  <property name="meta.attr.MINOR_VERSION.markup">512</property>
  <property name="meta.attr.ENCODER.markup">Lavf60.16.100</property>
  <property name="seekable">1</property>
  <property name="meta.media.sample_aspect_num">1</property>
  <property name="meta.media.sample_aspect_den">1</property>
  <property name="aspect_ratio">1</property>
  <property name="format">3</property>
  <property name="kdenlive:clipname"/>
  <property name="meta.media.frame_rate_num">30</property>
  <property name="meta.media.frame_rate_den">1</property>
  <property name="meta.media.colorspace">709</property>
  <property name="meta.media.color_trc">1</property>
  <property name="meta.media.has_b_frames">2</property>
  <property name="meta.media.width">1920</property>
  <property name="meta.media.height">1080</property>
  <property name="meta.media.color_range">mpeg</property>
  <property name="meta.media.top_field_first">0</property>
  <property name="meta.media.progressive">1</property>
  <property name="kdenlive:clip_type">0</property>
  <property name="kdenlive:folderid">450</property>
  <property name="kdenlive:id">453</property>
  <property name="kdenlive:file_size">2865728</property>
  <property name="kdenlive:file_hash">849043dfe6735eb6adf477b8431a7b9d</property>
  <property name="kdenlive:audio_max1">195</property>
 </producer>
 <producer id="producer411" in="00:00:00.000" out="00:00:04.900">
  <property name="length">295</property>
  <property name="eof">pause</property>
  <property name="resource">/home/federico/Nextcloud/Kden/EditingUT/Video/Fraws/fraws-occhi-visto-abbastanza.mkv</property>
  <property name="audio_index">1</property>
  <property name="video_index">0</property>
  <property name="mute_on_pause">0</property>
  <property name="mlt_service">avformat-novalidate</property>
  <property name="meta.media.nb_streams">2</property>
  <property name="meta.media.0.stream.type">video</property>
  <property name="meta.media.0.stream.frame_rate">60</property>
  <property name="meta.media.0.stream.sample_aspect_ratio">1</property>
  <property name="meta.media.0.codec.width">1920</property>
  <property name="meta.media.0.codec.height">1080</property>
  <property name="meta.media.0.codec.rotate">0</property>
  <property name="meta.media.0.codec.pix_fmt">yuv420p</property>
  <property name="meta.media.0.codec.sample_aspect_ratio">1</property>
  <property name="meta.media.0.codec.colorspace">709</property>
  <property name="meta.media.0.codec.color_trc">1</property>
  <property name="meta.media.0.codec.name">h264</property>
  <property name="meta.media.0.codec.long_name">H.264 / AVC / MPEG-4 AVC / MPEG-4 part 10</property>
  <property name="meta.media.0.codec.bit_rate">0</property>
  <property name="meta.attr.0.stream.HANDLER_NAME.markup">VideoHandler</property>
  <property name="meta.attr.0.stream.VENDOR_ID.markup">[0][0][0][0]</property>
  <property name="meta.attr.0.stream.ENCODER.markup">Lavc60.31.102 libx264</property>
  <property name="meta.attr.0.stream.DURATION.markup">00:00:04.903000000</property>
  <property name="meta.media.1.stream.type">audio</property>
  <property name="meta.media.1.codec.sample_fmt">fltp</property>
  <property name="meta.media.1.codec.sample_rate">48000</property>
  <property name="meta.media.1.codec.channels">2</property>
  <property name="meta.media.1.codec.name">vorbis</property>
  <property name="meta.media.1.codec.long_name">Vorbis</property>
  <property name="meta.media.1.codec.bit_rate">0</property>
  <property name="meta.attr.1.stream.HANDLER_NAME.markup">SoundHandler</property>
  <property name="meta.attr.1.stream.VENDOR_ID.markup">[0][0][0][0]</property>
  <property name="meta.attr.1.stream.ENCODER.markup">Lavc60.31.102 libvorbis</property>
  <property name="meta.attr.1.stream.DURATION.markup">00:00:04.909000000</property>
  <property name="meta.attr.COMPATIBLE_BRANDS.markup">isomiso2avc1mp41</property>
  <property name="meta.attr.MAJOR_BRAND.markup">isom</property>
  <property name="meta.attr.MINOR_VERSION.markup">512</property>
  <property name="meta.attr.ENCODER.markup">Lavf60.16.100</property>
  <property name="seekable">1</property>
  <property name="meta.media.sample_aspect_num">1</property>
  <property name="meta.media.sample_aspect_den">1</property>
  <property name="aspect_ratio">1</property>
  <property name="format">3</property>
  <property name="kdenlive:clipname"/>
  <property name="meta.media.frame_rate_num">60</property>
  <property name="meta.media.frame_rate_den">1</property>
  <property name="meta.media.colorspace">709</property>
  <property name="meta.media.color_trc">1</property>
  <property name="meta.media.has_b_frames">2</property>
  <property name="meta.media.width">1920</property>
  <property name="meta.media.height">1080</property>
  <property name="meta.media.color_range">mpeg</property>
  <property name="meta.media.top_field_first">0</property>
  <property name="meta.media.progressive">1</property>
  <property name="kdenlive:clip_type">0</property>
  <property name="kdenlive:folderid">450</property>
  <property name="kdenlive:id">454</property>
  <property name="kdenlive:file_size">1788813</property>
  <property name="kdenlive:file_hash">cbdde334d10e61177d2be024fad55ac8</property>
  <property name="kdenlive:audio_max1">219</property>
 </producer>
 <producer id="producer413" in="00:00:00.000" out="00:00:11.017">
  <property name="length">662</property>
  <property name="eof">pause</property>
  <property name="resource">/home/federico/Nextcloud/Kden/EditingUT/Video/Fraws/fraws_104_sclero.mkv</property>
  <property name="audio_index">1</property>
  <property name="video_index">0</property>
  <property name="mute_on_pause">0</property>
  <property name="mlt_service">avformat-novalidate</property>
  <property name="meta.media.nb_streams">2</property>
  <property name="meta.media.0.stream.type">video</property>
  <property name="meta.media.0.stream.frame_rate">60</property>
  <property name="meta.media.0.stream.sample_aspect_ratio">1</property>
  <property name="meta.media.0.codec.width">1920</property>
  <property name="meta.media.0.codec.height">1080</property>
  <property name="meta.media.0.codec.rotate">0</property>
  <property name="meta.media.0.codec.pix_fmt">yuv420p</property>
  <property name="meta.media.0.codec.sample_aspect_ratio">1</property>
  <property name="meta.media.0.codec.colorspace">709</property>
  <property name="meta.media.0.codec.color_trc">1</property>
  <property name="meta.media.0.codec.name">h264</property>
  <property name="meta.media.0.codec.long_name">H.264 / AVC / MPEG-4 AVC / MPEG-4 part 10</property>
  <property name="meta.media.0.codec.bit_rate">0</property>
  <property name="meta.attr.0.stream.HANDLER_NAME.markup">VideoHandler</property>
  <property name="meta.attr.0.stream.VENDOR_ID.markup">[0][0][0][0]</property>
  <property name="meta.attr.0.stream.ENCODER.markup">Lavc60.31.102 libx264</property>
  <property name="meta.attr.0.stream.DURATION.markup">00:00:11.020000000</property>
  <property name="meta.media.1.stream.type">audio</property>
  <property name="meta.media.1.codec.sample_fmt">fltp</property>
  <property name="meta.media.1.codec.sample_rate">48000</property>
  <property name="meta.media.1.codec.channels">2</property>
  <property name="meta.media.1.codec.name">vorbis</property>
  <property name="meta.media.1.codec.long_name">Vorbis</property>
  <property name="meta.media.1.codec.bit_rate">0</property>
  <property name="meta.attr.1.stream.HANDLER_NAME.markup">SoundHandler</property>
  <property name="meta.attr.1.stream.VENDOR_ID.markup">[0][0][0][0]</property>
  <property name="meta.attr.1.stream.ENCODER.markup">Lavc60.31.102 libvorbis</property>
  <property name="meta.attr.1.stream.DURATION.markup">00:00:11.032000000</property>
  <property name="meta.attr.COMPATIBLE_BRANDS.markup">isomiso2mp41</property>
  <property name="meta.attr.MAJOR_BRAND.markup">isom</property>
  <property name="meta.attr.MINOR_VERSION.markup">512</property>
  <property name="meta.attr.ENCODER.markup">Lavf60.16.100</property>
  <property name="seekable">1</property>
  <property name="meta.media.sample_aspect_num">1</property>
  <property name="meta.media.sample_aspect_den">1</property>
  <property name="aspect_ratio">1</property>
  <property name="format">3</property>
  <property name="kdenlive:clipname"/>
  <property name="meta.media.frame_rate_num">60</property>
  <property name="meta.media.frame_rate_den">1</property>
  <property name="meta.media.colorspace">709</property>
  <property name="meta.media.color_trc">1</property>
  <property name="meta.media.has_b_frames">2</property>
  <property name="meta.media.width">1920</property>
  <property name="meta.media.height">1080</property>
  <property name="meta.media.color_range">mpeg</property>
  <property name="meta.media.top_field_first">0</property>
  <property name="meta.media.progressive">1</property>
  <property name="kdenlive:clip_type">0</property>
  <property name="kdenlive:folderid">450</property>
  <property name="kdenlive:id">455</property>
  <property name="kdenlive:file_size">6809593</property>
  <property name="kdenlive:file_hash">531b80aa64fd0acf3c65f7f67dd6da95</property>
  <property name="kdenlive:audio_max1">213</property>
 </producer>
 <producer id="producer410" in="00:00:00.000" out="00:00:02.117">
  <property name="length">128</property>
  <property name="eof">pause</property>
  <property name="resource">/home/federico/Nextcloud/Kden/EditingUT/Video/Fraws/fraws_agghianciante.mkv</property>
  <property name="audio_index">1</property>
  <property name="video_index">0</property>
  <property name="mute_on_pause">0</property>
  <property name="mlt_service">avformat-novalidate</property>
  <property name="meta.media.nb_streams">2</property>
  <property name="meta.media.0.stream.type">video</property>
  <property name="meta.media.0.stream.frame_rate">60</property>
  <property name="meta.media.0.stream.sample_aspect_ratio">1</property>
  <property name="meta.media.0.codec.width">1920</property>
  <property name="meta.media.0.codec.height">1080</property>
  <property name="meta.media.0.codec.rotate">0</property>
  <property name="meta.media.0.codec.pix_fmt">yuv420p</property>
  <property name="meta.media.0.codec.sample_aspect_ratio">1</property>
  <property name="meta.media.0.codec.colorspace">709</property>
  <property name="meta.media.0.codec.color_trc">1</property>
  <property name="meta.media.0.codec.name">h264</property>
  <property name="meta.media.0.codec.long_name">H.264 / AVC / MPEG-4 AVC / MPEG-4 part 10</property>
  <property name="meta.media.0.codec.bit_rate">0</property>
  <property name="meta.attr.0.stream.HANDLER_NAME.markup">VideoHandler</property>
  <property name="meta.attr.0.stream.VENDOR_ID.markup">[0][0][0][0]</property>
  <property name="meta.attr.0.stream.ENCODER.markup">Lavc60.31.102 libx264</property>
  <property name="meta.attr.0.stream.DURATION.markup">00:00:02.137000000</property>
  <property name="meta.media.1.stream.type">audio</property>
  <property name="meta.media.1.codec.sample_fmt">fltp</property>
  <property name="meta.media.1.codec.sample_rate">48000</property>
  <property name="meta.media.1.codec.channels">2</property>
  <property name="meta.media.1.codec.name">vorbis</property>
  <property name="meta.media.1.codec.long_name">Vorbis</property>
  <property name="meta.media.1.codec.bit_rate">0</property>
  <property name="meta.attr.1.stream.HANDLER_NAME.markup">SoundHandler</property>
  <property name="meta.attr.1.stream.VENDOR_ID.markup">[0][0][0][0]</property>
  <property name="meta.attr.1.stream.ENCODER.markup">Lavc60.31.102 libvorbis</property>
  <property name="meta.attr.1.stream.DURATION.markup">00:00:02.136000000</property>
  <property name="meta.attr.COMPATIBLE_BRANDS.markup">isomiso2mp41</property>
  <property name="meta.attr.MAJOR_BRAND.markup">isom</property>
  <property name="meta.attr.MINOR_VERSION.markup">512</property>
  <property name="meta.attr.ENCODER.markup">Lavf60.16.100</property>
  <property name="seekable">1</property>
  <property name="meta.media.sample_aspect_num">1</property>
  <property name="meta.media.sample_aspect_den">1</property>
  <property name="aspect_ratio">1</property>
  <property name="format">3</property>
  <property name="kdenlive:clipname"/>
  <property name="meta.media.frame_rate_num">60</property>
  <property name="meta.media.frame_rate_den">1</property>
  <property name="meta.media.colorspace">709</property>
  <property name="meta.media.color_trc">1</property>
  <property name="meta.media.has_b_frames">2</property>
  <property name="meta.media.width">1920</property>
  <property name="meta.media.height">1080</property>
  <property name="meta.media.color_range">mpeg</property>
  <property name="meta.media.top_field_first">0</property>
  <property name="meta.media.progressive">1</property>
  <property name="kdenlive:clip_type">0</property>
  <property name="kdenlive:folderid">450</property>
  <property name="kdenlive:id">456</property>
  <property name="kdenlive:file_size">664741</property>
  <property name="kdenlive:file_hash">121a8fa1ec8245b9b8e3748c86f6ecbc</property>
  <property name="kdenlive:audio_max1">184</property>
 </producer>
 <producer id="producer416" in="00:00:00.000" out="00:00:02.500">
  <property name="length">151</property>
  <property name="eof">pause</property>
  <property name="resource">/home/federico/Nextcloud/Kden/EditingUT/Video/Fraws/fraws_allahuakbar_boom_explosion_meme.mkv</property>
  <property name="audio_index">1</property>
  <property name="video_index">0</property>
  <property name="mute_on_pause">0</property>
  <property name="mlt_service">avformat-novalidate</property>
  <property name="meta.media.nb_streams">2</property>
  <property name="meta.media.0.stream.type">video</property>
  <property name="meta.media.0.stream.frame_rate">60</property>
  <property name="meta.media.0.stream.sample_aspect_ratio">1</property>
  <property name="meta.media.0.codec.width">1920</property>
  <property name="meta.media.0.codec.height">1080</property>
  <property name="meta.media.0.codec.rotate">0</property>
  <property name="meta.media.0.codec.pix_fmt">yuv420p</property>
  <property name="meta.media.0.codec.sample_aspect_ratio">1</property>
  <property name="meta.media.0.codec.colorspace">709</property>
  <property name="meta.media.0.codec.color_trc">1</property>
  <property name="meta.media.0.codec.name">h264</property>
  <property name="meta.media.0.codec.long_name">H.264 / AVC / MPEG-4 AVC / MPEG-4 part 10</property>
  <property name="meta.media.0.codec.bit_rate">0</property>
  <property name="meta.attr.0.stream.HANDLER_NAME.markup">VideoHandler</property>
  <property name="meta.attr.0.stream.VENDOR_ID.markup">[0][0][0][0]</property>
  <property name="meta.attr.0.stream.ENCODER.markup">Lavc60.31.102 libx264</property>
  <property name="meta.attr.0.stream.DURATION.markup">00:00:02.503000000</property>
  <property name="meta.media.1.stream.type">audio</property>
  <property name="meta.media.1.codec.sample_fmt">fltp</property>
  <property name="meta.media.1.codec.sample_rate">48000</property>
  <property name="meta.media.1.codec.channels">2</property>
  <property name="meta.media.1.codec.name">vorbis</property>
  <property name="meta.media.1.codec.long_name">Vorbis</property>
  <property name="meta.media.1.codec.bit_rate">0</property>
  <property name="meta.attr.1.stream.HANDLER_NAME.markup">SoundHandler</property>
  <property name="meta.attr.1.stream.VENDOR_ID.markup">[0][0][0][0]</property>
  <property name="meta.attr.1.stream.ENCODER.markup">Lavc60.31.102 libvorbis</property>
  <property name="meta.attr.1.stream.DURATION.markup">00:00:02.520000000</property>
  <property name="meta.attr.COMPATIBLE_BRANDS.markup">isomiso2mp41</property>
  <property name="meta.attr.MAJOR_BRAND.markup">isom</property>
  <property name="meta.attr.MINOR_VERSION.markup">512</property>
  <property name="meta.attr.ENCODER.markup">Lavf60.16.100</property>
  <property name="seekable">1</property>
  <property name="meta.media.sample_aspect_num">1</property>
  <property name="meta.media.sample_aspect_den">1</property>
  <property name="aspect_ratio">1</property>
  <property name="format">3</property>
  <property name="kdenlive:clipname"/>
  <property name="meta.media.frame_rate_num">60</property>
  <property name="meta.media.frame_rate_den">1</property>
  <property name="meta.media.colorspace">709</property>
  <property name="meta.media.color_trc">1</property>
  <property name="meta.media.has_b_frames">2</property>
  <property name="meta.media.width">1920</property>
  <property name="meta.media.height">1080</property>
  <property name="meta.media.color_range">mpeg</property>
  <property name="meta.media.top_field_first">0</property>
  <property name="meta.media.progressive">1</property>
  <property name="kdenlive:clip_type">0</property>
  <property name="kdenlive:folderid">450</property>
  <property name="kdenlive:id">457</property>
  <property name="kdenlive:file_size">701015</property>
  <property name="kdenlive:file_hash">e066b01dfa2248903cbee9ef9d63441a</property>
  <property name="kdenlive:audio_max1">192</property>
 </producer>
 <producer id="producer414" in="00:00:00.000" out="00:00:01.483">
  <property name="length">90</property>
  <property name="eof">pause</property>
  <property name="resource">/home/federico/Nextcloud/Kden/EditingUT/Video/Fraws/fraws_angolino.mkv</property>
  <property name="audio_index">1</property>
  <property name="video_index">0</property>
  <property name="mute_on_pause">0</property>
  <property name="mlt_service">avformat-novalidate</property>
  <property name="meta.media.nb_streams">2</property>
  <property name="meta.media.0.stream.type">video</property>
  <property name="meta.media.0.stream.frame_rate">60</property>
  <property name="meta.media.0.stream.sample_aspect_ratio">1</property>
  <property name="meta.media.0.codec.width">1920</property>
  <property name="meta.media.0.codec.height">1080</property>
  <property name="meta.media.0.codec.rotate">0</property>
  <property name="meta.media.0.codec.pix_fmt">yuv420p</property>
  <property name="meta.media.0.codec.sample_aspect_ratio">1</property>
  <property name="meta.media.0.codec.colorspace">709</property>
  <property name="meta.media.0.codec.color_trc">1</property>
  <property name="meta.media.0.codec.name">h264</property>
  <property name="meta.media.0.codec.long_name">H.264 / AVC / MPEG-4 AVC / MPEG-4 part 10</property>
  <property name="meta.media.0.codec.bit_rate">0</property>
  <property name="meta.attr.0.stream.HANDLER_NAME.markup">VideoHandler</property>
  <property name="meta.attr.0.stream.VENDOR_ID.markup">[0][0][0][0]</property>
  <property name="meta.attr.0.stream.ENCODER.markup">Lavc60.31.102 libx264</property>
  <property name="meta.attr.0.stream.DURATION.markup">00:00:01.487000000</property>
  <property name="meta.media.1.stream.type">audio</property>
  <property name="meta.media.1.codec.sample_fmt">fltp</property>
  <property name="meta.media.1.codec.sample_rate">48000</property>
  <property name="meta.media.1.codec.channels">2</property>
  <property name="meta.media.1.codec.name">vorbis</property>
  <property name="meta.media.1.codec.long_name">Vorbis</property>
  <property name="meta.media.1.codec.bit_rate">0</property>
  <property name="meta.attr.1.stream.HANDLER_NAME.markup">SoundHandler</property>
  <property name="meta.attr.1.stream.VENDOR_ID.markup">[0][0][0][0]</property>
  <property name="meta.attr.1.stream.ENCODER.markup">Lavc60.31.102 libvorbis</property>
  <property name="meta.attr.1.stream.DURATION.markup">00:00:01.496000000</property>
  <property name="meta.attr.COMPATIBLE_BRANDS.markup">isomiso2mp41</property>
  <property name="meta.attr.MAJOR_BRAND.markup">isom</property>
  <property name="meta.attr.MINOR_VERSION.markup">512</property>
  <property name="meta.attr.ENCODER.markup">Lavf60.16.100</property>
  <property name="seekable">1</property>
  <property name="meta.media.sample_aspect_num">1</property>
  <property name="meta.media.sample_aspect_den">1</property>
  <property name="aspect_ratio">1</property>
  <property name="format">3</property>
  <property name="kdenlive:clipname"/>
  <property name="meta.media.frame_rate_num">60</property>
  <property name="meta.media.frame_rate_den">1</property>
  <property name="meta.media.colorspace">709</property>
  <property name="meta.media.color_trc">1</property>
  <property name="meta.media.has_b_frames">2</property>
  <property name="meta.media.width">1920</property>
  <property name="meta.media.height">1080</property>
  <property name="meta.media.color_range">mpeg</property>
  <property name="meta.media.top_field_first">0</property>
  <property name="meta.media.progressive">1</property>
  <property name="kdenlive:clip_type">0</property>
  <property name="kdenlive:folderid">450</property>
  <property name="kdenlive:id">458</property>
  <property name="kdenlive:file_size">264341</property>
  <property name="kdenlive:file_hash">42b8192e033a860be020f47d9226dc8c</property>
  <property name="kdenlive:audio_max1">1</property>
 </producer>
 <producer id="producer415" in="00:00:00.000" out="00:00:04.783">
  <property name="length">288</property>
  <property name="eof">pause</property>
  <property name="resource">/home/federico/Nextcloud/Kden/EditingUT/Video/Fraws/fraws_annoiato_sul_pad.mkv</property>
  <property name="audio_index">1</property>
  <property name="video_index">0</property>
  <property name="mute_on_pause">0</property>
  <property name="mlt_service">avformat-novalidate</property>
  <property name="meta.media.nb_streams">2</property>
  <property name="meta.media.0.stream.type">video</property>
  <property name="meta.media.0.stream.frame_rate">60</property>
  <property name="meta.media.0.stream.sample_aspect_ratio">1</property>
  <property name="meta.media.0.codec.width">1920</property>
  <property name="meta.media.0.codec.height">1080</property>
  <property name="meta.media.0.codec.rotate">0</property>
  <property name="meta.media.0.codec.pix_fmt">yuv420p</property>
  <property name="meta.media.0.codec.sample_aspect_ratio">1</property>
  <property name="meta.media.0.codec.colorspace">709</property>
  <property name="meta.media.0.codec.color_trc">1</property>
  <property name="meta.media.0.codec.name">h264</property>
  <property name="meta.media.0.codec.long_name">H.264 / AVC / MPEG-4 AVC / MPEG-4 part 10</property>
  <property name="meta.media.0.codec.bit_rate">0</property>
  <property name="meta.attr.0.stream.HANDLER_NAME.markup">VideoHandler</property>
  <property name="meta.attr.0.stream.VENDOR_ID.markup">[0][0][0][0]</property>
  <property name="meta.attr.0.stream.ENCODER.markup">Lavc60.31.102 libx264</property>
  <property name="meta.attr.0.stream.DURATION.markup">00:00:04.787000000</property>
  <property name="meta.media.1.stream.type">audio</property>
  <property name="meta.media.1.codec.sample_fmt">fltp</property>
  <property name="meta.media.1.codec.sample_rate">48000</property>
  <property name="meta.media.1.codec.channels">2</property>
  <property name="meta.media.1.codec.name">vorbis</property>
  <property name="meta.media.1.codec.long_name">Vorbis</property>
  <property name="meta.media.1.codec.bit_rate">0</property>
  <property name="meta.attr.1.stream.HANDLER_NAME.markup">SoundHandler</property>
  <property name="meta.attr.1.stream.VENDOR_ID.markup">[0][0][0][0]</property>
  <property name="meta.attr.1.stream.ENCODER.markup">Lavc60.31.102 libvorbis</property>
  <property name="meta.attr.1.stream.DURATION.markup">00:00:04.803000000</property>
  <property name="meta.attr.COMPATIBLE_BRANDS.markup">isomiso2mp41</property>
  <property name="meta.attr.MAJOR_BRAND.markup">isom</property>
  <property name="meta.attr.MINOR_VERSION.markup">512</property>
  <property name="meta.attr.ENCODER.markup">Lavf60.16.100</property>
  <property name="seekable">1</property>
  <property name="meta.media.sample_aspect_num">1</property>
  <property name="meta.media.sample_aspect_den">1</property>
  <property name="aspect_ratio">1</property>
  <property name="format">3</property>
  <property name="kdenlive:clipname"/>
  <property name="meta.media.frame_rate_num">60</property>
  <property name="meta.media.frame_rate_den">1</property>
  <property name="meta.media.colorspace">709</property>
  <property name="meta.media.color_trc">1</property>
  <property name="meta.media.has_b_frames">2</property>
  <property name="meta.media.width">1920</property>
  <property name="meta.media.height">1080</property>
  <property name="meta.media.color_range">mpeg</property>
  <property name="meta.media.top_field_first">0</property>
  <property name="meta.media.progressive">1</property>
  <property name="kdenlive:clip_type">0</property>
  <property name="kdenlive:folderid">450</property>
  <property name="kdenlive:id">459</property>
  <property name="kdenlive:file_size">558431</property>
  <property name="kdenlive:file_hash">a7fef2d75ee9e717ddae649944fceace</property>
  <property name="kdenlive:audio_max1">1</property>
 </producer>
 <producer id="producer417" in="00:00:00.000" out="00:00:27.150">
  <property name="length">1630</property>
  <property name="eof">pause</property>
  <property name="resource">/home/federico/Nextcloud/Kden/EditingUT/Video/Fraws/fraws_apre_porta_sguardo_meme.mkv</property>
  <property name="audio_index">1</property>
  <property name="video_index">0</property>
  <property name="mute_on_pause">0</property>
  <property name="mlt_service">avformat-novalidate</property>
  <property name="meta.media.nb_streams">2</property>
  <property name="meta.media.0.stream.type">video</property>
  <property name="meta.media.0.stream.frame_rate">60</property>
  <property name="meta.media.0.stream.sample_aspect_ratio">1</property>
  <property name="meta.media.0.codec.width">1920</property>
  <property name="meta.media.0.codec.height">1080</property>
  <property name="meta.media.0.codec.rotate">0</property>
  <property name="meta.media.0.codec.pix_fmt">yuv420p</property>
  <property name="meta.media.0.codec.sample_aspect_ratio">1</property>
  <property name="meta.media.0.codec.colorspace">709</property>
  <property name="meta.media.0.codec.color_trc">1</property>
  <property name="meta.media.0.codec.name">h264</property>
  <property name="meta.media.0.codec.long_name">H.264 / AVC / MPEG-4 AVC / MPEG-4 part 10</property>
  <property name="meta.media.0.codec.bit_rate">0</property>
  <property name="meta.attr.0.stream.HANDLER_NAME.markup">VideoHandler</property>
  <property name="meta.attr.0.stream.VENDOR_ID.markup">[0][0][0][0]</property>
  <property name="meta.attr.0.stream.ENCODER.markup">Lavc60.31.102 libx264</property>
  <property name="meta.attr.0.stream.DURATION.markup">00:00:27.153000000</property>
  <property name="meta.media.1.stream.type">audio</property>
  <property name="meta.media.1.codec.sample_fmt">fltp</property>
  <property name="meta.media.1.codec.sample_rate">48000</property>
  <property name="meta.media.1.codec.channels">2</property>
  <property name="meta.media.1.codec.name">vorbis</property>
  <property name="meta.media.1.codec.long_name">Vorbis</property>
  <property name="meta.media.1.codec.bit_rate">0</property>
  <property name="meta.attr.1.stream.HANDLER_NAME.markup">SoundHandler</property>
  <property name="meta.attr.1.stream.VENDOR_ID.markup">[0][0][0][0]</property>
  <property name="meta.attr.1.stream.ENCODER.markup">Lavc60.31.102 libvorbis</property>
  <property name="meta.attr.1.stream.DURATION.markup">00:00:27.160000000</property>
  <property name="meta.attr.COMPATIBLE_BRANDS.markup">isomiso2mp41</property>
  <property name="meta.attr.MAJOR_BRAND.markup">isom</property>
  <property name="meta.attr.MINOR_VERSION.markup">512</property>
  <property name="meta.attr.ENCODER.markup">Lavf60.16.100</property>
  <property name="seekable">1</property>
  <property name="meta.media.sample_aspect_num">1</property>
  <property name="meta.media.sample_aspect_den">1</property>
  <property name="aspect_ratio">1</property>
  <property name="format">3</property>
  <property name="kdenlive:clipname"/>
  <property name="meta.media.frame_rate_num">60</property>
  <property name="meta.media.frame_rate_den">1</property>
  <property name="meta.media.colorspace">709</property>
  <property name="meta.media.color_trc">1</property>
  <property name="meta.media.has_b_frames">2</property>
  <property name="meta.media.width">1920</property>
  <property name="meta.media.height">1080</property>
  <property name="meta.media.color_range">mpeg</property>
  <property name="meta.media.top_field_first">0</property>
  <property name="meta.media.progressive">1</property>
  <property name="kdenlive:clip_type">0</property>
  <property name="kdenlive:folderid">450</property>
  <property name="kdenlive:id">460</property>
  <property name="kdenlive:file_size">7351571</property>
  <property name="kdenlive:file_hash">10bd11122693fb8765a9ac38a4adf990</property>
  <property name="kdenlive:audio_max1">109</property>
 </producer>
 <producer id="producer418" in="00:00:00.000" out="00:00:05.483">
  <property name="length">330</property>
  <property name="eof">pause</property>
  <property name="resource">/home/federico/Nextcloud/Kden/EditingUT/Video/Fraws/fraws_aspetta_aspetta_scrivi_bene.mkv</property>
  <property name="audio_index">1</property>
  <property name="video_index">0</property>
  <property name="mute_on_pause">0</property>
  <property name="mlt_service">avformat-novalidate</property>
  <property name="meta.media.nb_streams">2</property>
  <property name="meta.media.0.stream.type">video</property>
  <property name="meta.media.0.stream.frame_rate">60</property>
  <property name="meta.media.0.stream.sample_aspect_ratio">1</property>
  <property name="meta.media.0.codec.width">1920</property>
  <property name="meta.media.0.codec.height">1080</property>
  <property name="meta.media.0.codec.rotate">0</property>
  <property name="meta.media.0.codec.pix_fmt">yuv420p</property>
  <property name="meta.media.0.codec.sample_aspect_ratio">1</property>
  <property name="meta.media.0.codec.colorspace">709</property>
  <property name="meta.media.0.codec.color_trc">1</property>
  <property name="meta.media.0.codec.name">h264</property>
  <property name="meta.media.0.codec.long_name">H.264 / AVC / MPEG-4 AVC / MPEG-4 part 10</property>
  <property name="meta.media.0.codec.bit_rate">0</property>
  <property name="meta.attr.0.stream.HANDLER_NAME.markup">VideoHandler</property>
  <property name="meta.attr.0.stream.VENDOR_ID.markup">[0][0][0][0]</property>
  <property name="meta.attr.0.stream.ENCODER.markup">Lavc60.31.102 libx264</property>
  <property name="meta.attr.0.stream.DURATION.markup">00:00:05.503000000</property>
  <property name="meta.media.1.stream.type">audio</property>
  <property name="meta.media.1.codec.sample_fmt">fltp</property>
  <property name="meta.media.1.codec.sample_rate">48000</property>
  <property name="meta.media.1.codec.channels">2</property>
  <property name="meta.media.1.codec.name">vorbis</property>
  <property name="meta.media.1.codec.long_name">Vorbis</property>
  <property name="meta.media.1.codec.bit_rate">0</property>
  <property name="meta.attr.1.stream.HANDLER_NAME.markup">SoundHandler</property>
  <property name="meta.attr.1.stream.VENDOR_ID.markup">[0][0][0][0]</property>
  <property name="meta.attr.1.stream.ENCODER.markup">Lavc60.31.102 libvorbis</property>
  <property name="meta.attr.1.stream.DURATION.markup">00:00:05.507000000</property>
  <property name="meta.attr.COMPATIBLE_BRANDS.markup">isomiso2mp41</property>
  <property name="meta.attr.MAJOR_BRAND.markup">isom</property>
  <property name="meta.attr.MINOR_VERSION.markup">512</property>
  <property name="meta.attr.ENCODER.markup">Lavf60.16.100</property>
  <property name="seekable">1</property>
  <property name="meta.media.sample_aspect_num">1</property>
  <property name="meta.media.sample_aspect_den">1</property>
  <property name="aspect_ratio">1</property>
  <property name="format">3</property>
  <property name="kdenlive:clipname"/>
  <property name="meta.media.frame_rate_num">60</property>
  <property name="meta.media.frame_rate_den">1</property>
  <property name="meta.media.colorspace">709</property>
  <property name="meta.media.color_trc">1</property>
  <property name="meta.media.has_b_frames">2</property>
  <property name="meta.media.width">1920</property>
  <property name="meta.media.height">1080</property>
  <property name="meta.media.color_range">mpeg</property>
  <property name="meta.media.top_field_first">0</property>
  <property name="meta.media.progressive">1</property>
  <property name="kdenlive:clip_type">0</property>
  <property name="kdenlive:folderid">450</property>
  <property name="kdenlive:id">461</property>
  <property name="kdenlive:file_size">1890604</property>
  <property name="kdenlive:file_hash">56cdde3961ca4ecb76eb44ffbba1f517</property>
  <property name="kdenlive:audio_max1">224</property>
 </producer>
 <producer id="producer419" in="00:00:00.000" out="00:00:15.450">
  <property name="length">928</property>
  <property name="eof">pause</property>
  <property name="resource">/home/federico/Nextcloud/Kden/EditingUT/Video/Fraws/fraws_ballo_meme.mkv</property>
  <property name="audio_index">1</property>
  <property name="video_index">0</property>
  <property name="mute_on_pause">0</property>
  <property name="mlt_service">avformat-novalidate</property>
  <property name="meta.media.nb_streams">2</property>
  <property name="meta.media.0.stream.type">video</property>
  <property name="meta.media.0.stream.frame_rate">60</property>
  <property name="meta.media.0.stream.sample_aspect_ratio">1</property>
  <property name="meta.media.0.codec.width">1920</property>
  <property name="meta.media.0.codec.height">1080</property>
  <property name="meta.media.0.codec.rotate">0</property>
  <property name="meta.media.0.codec.pix_fmt">yuv420p</property>
  <property name="meta.media.0.codec.sample_aspect_ratio">1</property>
  <property name="meta.media.0.codec.colorspace">709</property>
  <property name="meta.media.0.codec.color_trc">1</property>
  <property name="meta.media.0.codec.name">h264</property>
  <property name="meta.media.0.codec.long_name">H.264 / AVC / MPEG-4 AVC / MPEG-4 part 10</property>
  <property name="meta.media.0.codec.bit_rate">0</property>
  <property name="meta.attr.0.stream.HANDLER_NAME.markup">VideoHandler</property>
  <property name="meta.attr.0.stream.VENDOR_ID.markup">[0][0][0][0]</property>
  <property name="meta.attr.0.stream.ENCODER.markup">Lavc60.31.102 libx264</property>
  <property name="meta.attr.0.stream.DURATION.markup">00:00:15.470000000</property>
  <property name="meta.media.1.stream.type">audio</property>
  <property name="meta.media.1.codec.sample_fmt">fltp</property>
  <property name="meta.media.1.codec.sample_rate">48000</property>
  <property name="meta.media.1.codec.channels">2</property>
  <property name="meta.media.1.codec.name">vorbis</property>
  <property name="meta.media.1.codec.long_name">Vorbis</property>
  <property name="meta.media.1.codec.bit_rate">0</property>
  <property name="meta.attr.1.stream.HANDLER_NAME.markup">SoundHandler</property>
  <property name="meta.attr.1.stream.VENDOR_ID.markup">[0][0][0][0]</property>
  <property name="meta.attr.1.stream.ENCODER.markup">Lavc60.31.102 libvorbis</property>
  <property name="meta.attr.1.stream.DURATION.markup">00:00:15.470000000</property>
  <property name="meta.attr.COMPATIBLE_BRANDS.markup">isomiso2mp41</property>
  <property name="meta.attr.MAJOR_BRAND.markup">isom</property>
  <property name="meta.attr.MINOR_VERSION.markup">512</property>
  <property name="meta.attr.ENCODER.markup">Lavf60.16.100</property>
  <property name="seekable">1</property>
  <property name="meta.media.sample_aspect_num">1</property>
  <property name="meta.media.sample_aspect_den">1</property>
  <property name="aspect_ratio">1</property>
  <property name="format">3</property>
  <property name="kdenlive:clipname"/>
  <property name="meta.media.frame_rate_num">60</property>
  <property name="meta.media.frame_rate_den">1</property>
  <property name="meta.media.colorspace">709</property>
  <property name="meta.media.color_trc">1</property>
  <property name="meta.media.has_b_frames">2</property>
  <property name="meta.media.width">1920</property>
  <property name="meta.media.height">1080</property>
  <property name="meta.media.color_range">mpeg</property>
  <property name="meta.media.top_field_first">0</property>
  <property name="meta.media.progressive">1</property>
  <property name="kdenlive:clip_type">0</property>
  <property name="kdenlive:folderid">450</property>
  <property name="kdenlive:id">462</property>
  <property name="kdenlive:file_size">14363955</property>
  <property name="kdenlive:file_hash">94fd1998b7bbf4a7aefd2bc93067cbec</property>
  <property name="kdenlive:audio_max1">217</property>
 </producer>
 <producer id="producer420" in="00:00:00.000" out="00:00:01.433">
  <property name="length">87</property>
  <property name="eof">pause</property>
  <property name="resource">/home/federico/Nextcloud/Kden/EditingUT/Video/Fraws/fraws_basta_cazzo.mkv</property>
  <property name="audio_index">1</property>
  <property name="video_index">0</property>
  <property name="mute_on_pause">0</property>
  <property name="mlt_service">avformat-novalidate</property>
  <property name="meta.media.nb_streams">2</property>
  <property name="meta.media.0.stream.type">video</property>
  <property name="meta.media.0.stream.frame_rate">60</property>
  <property name="meta.media.0.stream.sample_aspect_ratio">1</property>
  <property name="meta.media.0.codec.width">1920</property>
  <property name="meta.media.0.codec.height">1080</property>
  <property name="meta.media.0.codec.rotate">0</property>
  <property name="meta.media.0.codec.pix_fmt">yuv420p</property>
  <property name="meta.media.0.codec.sample_aspect_ratio">1</property>
  <property name="meta.media.0.codec.colorspace">709</property>
  <property name="meta.media.0.codec.color_trc">1</property>
  <property name="meta.media.0.codec.name">h264</property>
  <property name="meta.media.0.codec.long_name">H.264 / AVC / MPEG-4 AVC / MPEG-4 part 10</property>
  <property name="meta.media.0.codec.bit_rate">0</property>
  <property name="meta.attr.0.stream.HANDLER_NAME.markup">VideoHandler</property>
  <property name="meta.attr.0.stream.VENDOR_ID.markup">[0][0][0][0]</property>
  <property name="meta.attr.0.stream.ENCODER.markup">Lavc60.31.102 libx264</property>
  <property name="meta.attr.0.stream.DURATION.markup">00:00:01.437000000</property>
  <property name="meta.media.1.stream.type">audio</property>
  <property name="meta.media.1.codec.sample_fmt">fltp</property>
  <property name="meta.media.1.codec.sample_rate">48000</property>
  <property name="meta.media.1.codec.channels">2</property>
  <property name="meta.media.1.codec.name">vorbis</property>
  <property name="meta.media.1.codec.long_name">Vorbis</property>
  <property name="meta.media.1.codec.bit_rate">0</property>
  <property name="meta.attr.1.stream.HANDLER_NAME.markup">SoundHandler</property>
  <property name="meta.attr.1.stream.VENDOR_ID.markup">[0][0][0][0]</property>
  <property name="meta.attr.1.stream.ENCODER.markup">Lavc60.31.102 libvorbis</property>
  <property name="meta.attr.1.stream.DURATION.markup">00:00:01.454000000</property>
  <property name="meta.attr.COMPATIBLE_BRANDS.markup">isomiso2mp41</property>
  <property name="meta.attr.MAJOR_BRAND.markup">isom</property>
  <property name="meta.attr.MINOR_VERSION.markup">512</property>
  <property name="meta.attr.ENCODER.markup">Lavf60.16.100</property>
  <property name="seekable">1</property>
  <property name="meta.media.sample_aspect_num">1</property>
  <property name="meta.media.sample_aspect_den">1</property>
  <property name="aspect_ratio">1</property>
  <property name="format">3</property>
  <property name="kdenlive:clipname"/>
  <property name="meta.media.frame_rate_num">60</property>
  <property name="meta.media.frame_rate_den">1</property>
  <property name="meta.media.colorspace">709</property>
  <property name="meta.media.color_trc">1</property>
  <property name="meta.media.has_b_frames">2</property>
  <property name="meta.media.width">1920</property>
  <property name="meta.media.height">1080</property>
  <property name="meta.media.color_range">mpeg</property>
  <property name="meta.media.top_field_first">0</property>
  <property name="meta.media.progressive">1</property>
  <property name="kdenlive:clip_type">0</property>
  <property name="kdenlive:folderid">450</property>
  <property name="kdenlive:id">463</property>
  <property name="kdenlive:file_size">625356</property>
  <property name="kdenlive:file_hash">ec28bc7ff17e2c77f39cd199f94c12c2</property>
  <property name="kdenlive:audio_max1">223</property>
 </producer>
 <producer id="producer421" in="00:00:00.000" out="00:00:03.267">
  <property name="length">197</property>
  <property name="eof">pause</property>
  <property name="resource">/home/federico/Nextcloud/Kden/EditingUT/Video/Fraws/fraws_basta_holly_e_benji.mkv</property>
  <property name="audio_index">1</property>
  <property name="video_index">0</property>
  <property name="mute_on_pause">0</property>
  <property name="mlt_service">avformat-novalidate</property>
  <property name="meta.media.nb_streams">2</property>
  <property name="meta.media.0.stream.type">video</property>
  <property name="meta.media.0.stream.frame_rate">60</property>
  <property name="meta.media.0.stream.sample_aspect_ratio">1</property>
  <property name="meta.media.0.codec.width">1920</property>
  <property name="meta.media.0.codec.height">1080</property>
  <property name="meta.media.0.codec.rotate">0</property>
  <property name="meta.media.0.codec.pix_fmt">yuv420p</property>
  <property name="meta.media.0.codec.sample_aspect_ratio">1</property>
  <property name="meta.media.0.codec.colorspace">709</property>
  <property name="meta.media.0.codec.color_trc">1</property>
  <property name="meta.media.0.codec.name">h264</property>
  <property name="meta.media.0.codec.long_name">H.264 / AVC / MPEG-4 AVC / MPEG-4 part 10</property>
  <property name="meta.media.0.codec.bit_rate">0</property>
  <property name="meta.attr.0.stream.HANDLER_NAME.markup">VideoHandler</property>
  <property name="meta.attr.0.stream.VENDOR_ID.markup">[0][0][0][0]</property>
  <property name="meta.attr.0.stream.ENCODER.markup">Lavc60.31.102 libx264</property>
  <property name="meta.attr.0.stream.DURATION.markup">00:00:03.270000000</property>
  <property name="meta.media.1.stream.type">audio</property>
  <property name="meta.media.1.codec.sample_fmt">fltp</property>
  <property name="meta.media.1.codec.sample_rate">48000</property>
  <property name="meta.media.1.codec.channels">2</property>
  <property name="meta.media.1.codec.name">vorbis</property>
  <property name="meta.media.1.codec.long_name">Vorbis</property>
  <property name="meta.media.1.codec.bit_rate">0</property>
  <property name="meta.attr.1.stream.HANDLER_NAME.markup">SoundHandler</property>
  <property name="meta.attr.1.stream.VENDOR_ID.markup">[0][0][0][0]</property>
  <property name="meta.attr.1.stream.ENCODER.markup">Lavc60.31.102 libvorbis</property>
  <property name="meta.attr.1.stream.DURATION.markup">00:00:03.289000000</property>
  <property name="meta.attr.COMPATIBLE_BRANDS.markup">isomiso2mp41</property>
  <property name="meta.attr.MAJOR_BRAND.markup">isom</property>
  <property name="meta.attr.MINOR_VERSION.markup">512</property>
  <property name="meta.attr.ENCODER.markup">Lavf60.16.100</property>
  <property name="seekable">1</property>
  <property name="meta.media.sample_aspect_num">1</property>
  <property name="meta.media.sample_aspect_den">1</property>
  <property name="aspect_ratio">1</property>
  <property name="format">3</property>
  <property name="kdenlive:clipname"/>
  <property name="meta.media.frame_rate_num">60</property>
  <property name="meta.media.frame_rate_den">1</property>
  <property name="meta.media.colorspace">709</property>
  <property name="meta.media.color_trc">1</property>
  <property name="meta.media.has_b_frames">2</property>
  <property name="meta.media.width">1920</property>
  <property name="meta.media.height">1080</property>
  <property name="meta.media.color_range">mpeg</property>
  <property name="meta.media.top_field_first">0</property>
  <property name="meta.media.progressive">1</property>
  <property name="kdenlive:clip_type">0</property>
  <property name="kdenlive:folderid">450</property>
  <property name="kdenlive:id">464</property>
  <property name="kdenlive:file_size">2180577</property>
  <property name="kdenlive:file_hash">bdd6d28d002b73d6e093b54f8ea031cc</property>
  <property name="kdenlive:audio_max1">207</property>
 </producer>
 <producer id="producer422" in="00:00:00.000" out="00:00:02.883">
  <property name="length">174</property>
  <property name="eof">pause</property>
  <property name="resource">/home/federico/Nextcloud/Kden/EditingUT/Video/Fraws/fraws_bene_da_dove_cominciamo.mkv</property>
  <property name="audio_index">1</property>
  <property name="video_index">0</property>
  <property name="mute_on_pause">0</property>
  <property name="mlt_service">avformat-novalidate</property>
  <property name="meta.media.nb_streams">2</property>
  <property name="meta.media.0.stream.type">video</property>
  <property name="meta.media.0.stream.frame_rate">60</property>
  <property name="meta.media.0.stream.sample_aspect_ratio">1</property>
  <property name="meta.media.0.codec.width">1920</property>
  <property name="meta.media.0.codec.height">1080</property>
  <property name="meta.media.0.codec.rotate">0</property>
  <property name="meta.media.0.codec.pix_fmt">yuv420p</property>
  <property name="meta.media.0.codec.sample_aspect_ratio">1</property>
  <property name="meta.media.0.codec.colorspace">709</property>
  <property name="meta.media.0.codec.color_trc">1</property>
  <property name="meta.media.0.codec.name">h264</property>
  <property name="meta.media.0.codec.long_name">H.264 / AVC / MPEG-4 AVC / MPEG-4 part 10</property>
  <property name="meta.media.0.codec.bit_rate">0</property>
  <property name="meta.attr.0.stream.HANDLER_NAME.markup">VideoHandler</property>
  <property name="meta.attr.0.stream.VENDOR_ID.markup">[0][0][0][0]</property>
  <property name="meta.attr.0.stream.ENCODER.markup">Lavc60.31.102 libx264</property>
  <property name="meta.attr.0.stream.DURATION.markup">00:00:02.903000000</property>
  <property name="meta.media.1.stream.type">audio</property>
  <property name="meta.media.1.codec.sample_fmt">fltp</property>
  <property name="meta.media.1.codec.sample_rate">48000</property>
  <property name="meta.media.1.codec.channels">2</property>
  <property name="meta.media.1.codec.name">vorbis</property>
  <property name="meta.media.1.codec.long_name">Vorbis</property>
  <property name="meta.media.1.codec.bit_rate">0</property>
  <property name="meta.attr.1.stream.HANDLER_NAME.markup">SoundHandler</property>
  <property name="meta.attr.1.stream.VENDOR_ID.markup">[0][0][0][0]</property>
  <property name="meta.attr.1.stream.ENCODER.markup">Lavc60.31.102 libvorbis</property>
  <property name="meta.attr.1.stream.DURATION.markup">00:00:02.905000000</property>
  <property name="meta.attr.COMPATIBLE_BRANDS.markup">isomiso2mp41</property>
  <property name="meta.attr.MAJOR_BRAND.markup">isom</property>
  <property name="meta.attr.MINOR_VERSION.markup">512</property>
  <property name="meta.attr.ENCODER.markup">Lavf60.16.100</property>
  <property name="seekable">1</property>
  <property name="meta.media.sample_aspect_num">1</property>
  <property name="meta.media.sample_aspect_den">1</property>
  <property name="aspect_ratio">1</property>
  <property name="format">3</property>
  <property name="kdenlive:clipname"/>
  <property name="meta.media.frame_rate_num">60</property>
  <property name="meta.media.frame_rate_den">1</property>
  <property name="meta.media.colorspace">709</property>
  <property name="meta.media.color_trc">1</property>
  <property name="meta.media.has_b_frames">2</property>
  <property name="meta.media.width">1920</property>
  <property name="meta.media.height">1080</property>
  <property name="meta.media.color_range">mpeg</property>
  <property name="meta.media.top_field_first">0</property>
  <property name="meta.media.progressive">1</property>
  <property name="kdenlive:clip_type">0</property>
  <property name="kdenlive:folderid">450</property>
  <property name="kdenlive:id">465</property>
  <property name="kdenlive:file_size">850980</property>
  <property name="kdenlive:file_hash">ccdae290491d865bbd3e5664db97874e</property>
  <property name="kdenlive:audio_max1">172</property>
 </producer>
 <producer id="producer424" in="00:00:00.000" out="00:00:04.850">
  <property name="length">292</property>
  <property name="eof">pause</property>
  <property name="resource">/home/federico/Nextcloud/Kden/EditingUT/Video/Fraws/fraws_beve_caffe.mkv</property>
  <property name="audio_index">1</property>
  <property name="video_index">0</property>
  <property name="mute_on_pause">0</property>
  <property name="mlt_service">avformat-novalidate</property>
  <property name="meta.media.nb_streams">2</property>
  <property name="meta.media.0.stream.type">video</property>
  <property name="meta.media.0.stream.frame_rate">60</property>
  <property name="meta.media.0.stream.sample_aspect_ratio">1</property>
  <property name="meta.media.0.codec.width">1920</property>
  <property name="meta.media.0.codec.height">1080</property>
  <property name="meta.media.0.codec.rotate">0</property>
  <property name="meta.media.0.codec.pix_fmt">yuv420p</property>
  <property name="meta.media.0.codec.sample_aspect_ratio">1</property>
  <property name="meta.media.0.codec.colorspace">709</property>
  <property name="meta.media.0.codec.color_trc">1</property>
  <property name="meta.media.0.codec.name">h264</property>
  <property name="meta.media.0.codec.long_name">H.264 / AVC / MPEG-4 AVC / MPEG-4 part 10</property>
  <property name="meta.media.0.codec.bit_rate">0</property>
  <property name="meta.attr.0.stream.HANDLER_NAME.markup">VideoHandler</property>
  <property name="meta.attr.0.stream.VENDOR_ID.markup">[0][0][0][0]</property>
  <property name="meta.attr.0.stream.ENCODER.markup">Lavc60.31.102 libx264</property>
  <property name="meta.attr.0.stream.DURATION.markup">00:00:04.853000000</property>
  <property name="meta.media.1.stream.type">audio</property>
  <property name="meta.media.1.codec.sample_fmt">fltp</property>
  <property name="meta.media.1.codec.sample_rate">48000</property>
  <property name="meta.media.1.codec.channels">2</property>
  <property name="meta.media.1.codec.name">vorbis</property>
  <property name="meta.media.1.codec.long_name">Vorbis</property>
  <property name="meta.media.1.codec.bit_rate">0</property>
  <property name="meta.attr.1.stream.HANDLER_NAME.markup">SoundHandler</property>
  <property name="meta.attr.1.stream.VENDOR_ID.markup">[0][0][0][0]</property>
  <property name="meta.attr.1.stream.ENCODER.markup">Lavc60.31.102 libvorbis</property>
  <property name="meta.attr.1.stream.DURATION.markup">00:00:04.867000000</property>
  <property name="meta.attr.COMPATIBLE_BRANDS.markup">isomiso2mp41</property>
  <property name="meta.attr.MAJOR_BRAND.markup">isom</property>
  <property name="meta.attr.MINOR_VERSION.markup">512</property>
  <property name="meta.attr.ENCODER.markup">Lavf60.16.100</property>
  <property name="seekable">1</property>
  <property name="meta.media.sample_aspect_num">1</property>
  <property name="meta.media.sample_aspect_den">1</property>
  <property name="aspect_ratio">1</property>
  <property name="format">3</property>
  <property name="kdenlive:clipname"/>
  <property name="meta.media.frame_rate_num">60</property>
  <property name="meta.media.frame_rate_den">1</property>
  <property name="meta.media.colorspace">709</property>
  <property name="meta.media.color_trc">1</property>
  <property name="meta.media.has_b_frames">2</property>
  <property name="meta.media.width">1920</property>
  <property name="meta.media.height">1080</property>
  <property name="meta.media.color_range">mpeg</property>
  <property name="meta.media.top_field_first">0</property>
  <property name="meta.media.progressive">1</property>
  <property name="kdenlive:clip_type">0</property>
  <property name="kdenlive:folderid">450</property>
  <property name="kdenlive:id">466</property>
  <property name="kdenlive:file_size">1360557</property>
  <property name="kdenlive:file_hash">58236bed81ecb6324886f2c2df8e4f43</property>
  <property name="kdenlive:audio_max1">142</property>
 </producer>
 <producer id="producer423" in="00:00:00.000" out="00:00:42.167">
  <property name="length">2531</property>
  <property name="eof">pause</property>
  <property name="resource">/home/federico/Nextcloud/Kden/EditingUT/Video/Fraws/fraws_canzone.mkv</property>
  <property name="audio_index">1</property>
  <property name="video_index">0</property>
  <property name="mute_on_pause">0</property>
  <property name="mlt_service">avformat-novalidate</property>
  <property name="meta.media.nb_streams">2</property>
  <property name="meta.media.0.stream.type">video</property>
  <property name="meta.media.0.stream.frame_rate">60</property>
  <property name="meta.media.0.stream.sample_aspect_ratio">1</property>
  <property name="meta.media.0.codec.width">1920</property>
  <property name="meta.media.0.codec.height">1080</property>
  <property name="meta.media.0.codec.rotate">0</property>
  <property name="meta.media.0.codec.pix_fmt">yuv420p</property>
  <property name="meta.media.0.codec.sample_aspect_ratio">1</property>
  <property name="meta.media.0.codec.colorspace">709</property>
  <property name="meta.media.0.codec.color_trc">1</property>
  <property name="meta.media.0.codec.name">h264</property>
  <property name="meta.media.0.codec.long_name">H.264 / AVC / MPEG-4 AVC / MPEG-4 part 10</property>
  <property name="meta.media.0.codec.bit_rate">0</property>
  <property name="meta.attr.0.stream.HANDLER_NAME.markup">VideoHandler</property>
  <property name="meta.attr.0.stream.VENDOR_ID.markup">[0][0][0][0]</property>
  <property name="meta.attr.0.stream.ENCODER.markup">Lavc60.31.102 libx264</property>
  <property name="meta.attr.0.stream.DURATION.markup">00:00:42.170000000</property>
  <property name="meta.media.1.stream.type">audio</property>
  <property name="meta.media.1.codec.sample_fmt">fltp</property>
  <property name="meta.media.1.codec.sample_rate">48000</property>
  <property name="meta.media.1.codec.channels">2</property>
  <property name="meta.media.1.codec.name">vorbis</property>
  <property name="meta.media.1.codec.long_name">Vorbis</property>
  <property name="meta.media.1.codec.bit_rate">0</property>
  <property name="meta.attr.1.stream.HANDLER_NAME.markup">SoundHandler</property>
  <property name="meta.attr.1.stream.VENDOR_ID.markup">[0][0][0][0]</property>
  <property name="meta.attr.1.stream.ENCODER.markup">Lavc60.31.102 libvorbis</property>
  <property name="meta.attr.1.stream.DURATION.markup">00:00:42.179000000</property>
  <property name="meta.attr.COMPATIBLE_BRANDS.markup">isomiso2mp41</property>
  <property name="meta.attr.MAJOR_BRAND.markup">isom</property>
  <property name="meta.attr.MINOR_VERSION.markup">512</property>
  <property name="meta.attr.ENCODER.markup">Lavf60.16.100</property>
  <property name="seekable">1</property>
  <property name="meta.media.sample_aspect_num">1</property>
  <property name="meta.media.sample_aspect_den">1</property>
  <property name="aspect_ratio">1</property>
  <property name="format">3</property>
  <property name="kdenlive:clipname"/>
  <property name="meta.media.frame_rate_num">60</property>
  <property name="meta.media.frame_rate_den">1</property>
  <property name="meta.media.colorspace">709</property>
  <property name="meta.media.color_trc">1</property>
  <property name="meta.media.has_b_frames">2</property>
  <property name="meta.media.width">1920</property>
  <property name="meta.media.height">1080</property>
  <property name="meta.media.color_range">mpeg</property>
  <property name="meta.media.top_field_first">0</property>
  <property name="meta.media.progressive">1</property>
  <property name="kdenlive:clip_type">0</property>
  <property name="kdenlive:folderid">450</property>
  <property name="kdenlive:id">467</property>
  <property name="kdenlive:file_size">10515541</property>
  <property name="kdenlive:file_hash">1afb40a51ddeb5c91bd03e95c6be049e</property>
  <property name="kdenlive:audio_max1">187</property>
 </producer>
 <producer id="producer426" in="00:00:00.000" out="00:00:04.567">
  <property name="length">275</property>
  <property name="eof">pause</property>
  <property name="resource">/home/federico/Nextcloud/Kden/EditingUT/Video/Fraws/fraws_confuso_che_sta_succedendo.mkv</property>
  <property name="audio_index">1</property>
  <property name="video_index">0</property>
  <property name="mute_on_pause">0</property>
  <property name="mlt_service">avformat-novalidate</property>
  <property name="meta.media.nb_streams">2</property>
  <property name="meta.media.0.stream.type">video</property>
  <property name="meta.media.0.stream.frame_rate">60</property>
  <property name="meta.media.0.stream.sample_aspect_ratio">1</property>
  <property name="meta.media.0.codec.width">1920</property>
  <property name="meta.media.0.codec.height">1080</property>
  <property name="meta.media.0.codec.rotate">0</property>
  <property name="meta.media.0.codec.pix_fmt">yuv420p</property>
  <property name="meta.media.0.codec.sample_aspect_ratio">1</property>
  <property name="meta.media.0.codec.colorspace">709</property>
  <property name="meta.media.0.codec.color_trc">1</property>
  <property name="meta.media.0.codec.name">h264</property>
  <property name="meta.media.0.codec.long_name">H.264 / AVC / MPEG-4 AVC / MPEG-4 part 10</property>
  <property name="meta.media.0.codec.bit_rate">0</property>
  <property name="meta.attr.0.stream.HANDLER_NAME.markup">VideoHandler</property>
  <property name="meta.attr.0.stream.VENDOR_ID.markup">[0][0][0][0]</property>
  <property name="meta.attr.0.stream.ENCODER.markup">Lavc60.31.102 libx264</property>
  <property name="meta.attr.0.stream.DURATION.markup">00:00:04.587000000</property>
  <property name="meta.media.1.stream.type">audio</property>
  <property name="meta.media.1.codec.sample_fmt">fltp</property>
  <property name="meta.media.1.codec.sample_rate">48000</property>
  <property name="meta.media.1.codec.channels">2</property>
  <property name="meta.media.1.codec.name">vorbis</property>
  <property name="meta.media.1.codec.long_name">Vorbis</property>
  <property name="meta.media.1.codec.bit_rate">0</property>
  <property name="meta.attr.1.stream.HANDLER_NAME.markup">SoundHandler</property>
  <property name="meta.attr.1.stream.VENDOR_ID.markup">[0][0][0][0]</property>
  <property name="meta.attr.1.stream.ENCODER.markup">Lavc60.31.102 libvorbis</property>
  <property name="meta.attr.1.stream.DURATION.markup">00:00:04.589000000</property>
  <property name="meta.attr.COMPATIBLE_BRANDS.markup">isomiso2mp41</property>
  <property name="meta.attr.MAJOR_BRAND.markup">isom</property>
  <property name="meta.attr.MINOR_VERSION.markup">512</property>
  <property name="meta.attr.ENCODER.markup">Lavf60.16.100</property>
  <property name="seekable">1</property>
  <property name="meta.media.sample_aspect_num">1</property>
  <property name="meta.media.sample_aspect_den">1</property>
  <property name="aspect_ratio">1</property>
  <property name="format">3</property>
  <property name="kdenlive:clipname"/>
  <property name="meta.media.frame_rate_num">60</property>
  <property name="meta.media.frame_rate_den">1</property>
  <property name="meta.media.colorspace">709</property>
  <property name="meta.media.color_trc">1</property>
  <property name="meta.media.has_b_frames">2</property>
  <property name="meta.media.width">1920</property>
  <property name="meta.media.height">1080</property>
  <property name="meta.media.color_range">mpeg</property>
  <property name="meta.media.top_field_first">0</property>
  <property name="meta.media.progressive">1</property>
  <property name="kdenlive:clip_type">0</property>
  <property name="kdenlive:folderid">450</property>
  <property name="kdenlive:id">468</property>
  <property name="kdenlive:file_size">2539512</property>
  <property name="kdenlive:file_hash">a620dde11a4aed3acdb8ca630382a89b</property>
  <property name="kdenlive:audio_max1">86</property>
 </producer>
 <producer id="producer427" in="00:00:00.000" out="00:00:03.017">
  <property name="length">182</property>
  <property name="eof">pause</property>
  <property name="resource">/home/federico/Nextcloud/Kden/EditingUT/Video/Fraws/fraws_datevi_fuoco.mkv</property>
  <property name="audio_index">1</property>
  <property name="video_index">0</property>
  <property name="mute_on_pause">0</property>
  <property name="mlt_service">avformat-novalidate</property>
  <property name="meta.media.nb_streams">2</property>
  <property name="meta.media.0.stream.type">video</property>
  <property name="meta.media.0.stream.frame_rate">60</property>
  <property name="meta.media.0.stream.sample_aspect_ratio">1</property>
  <property name="meta.media.0.codec.width">1920</property>
  <property name="meta.media.0.codec.height">1080</property>
  <property name="meta.media.0.codec.rotate">0</property>
  <property name="meta.media.0.codec.pix_fmt">yuv420p</property>
  <property name="meta.media.0.codec.sample_aspect_ratio">1</property>
  <property name="meta.media.0.codec.colorspace">709</property>
  <property name="meta.media.0.codec.color_trc">1</property>
  <property name="meta.media.0.codec.name">h264</property>
  <property name="meta.media.0.codec.long_name">H.264 / AVC / MPEG-4 AVC / MPEG-4 part 10</property>
  <property name="meta.media.0.codec.bit_rate">0</property>
  <property name="meta.attr.0.stream.HANDLER_NAME.markup">VideoHandler</property>
  <property name="meta.attr.0.stream.VENDOR_ID.markup">[0][0][0][0]</property>
  <property name="meta.attr.0.stream.ENCODER.markup">Lavc60.31.102 libx264</property>
  <property name="meta.attr.0.stream.DURATION.markup">00:00:03.020000000</property>
  <property name="meta.media.1.stream.type">audio</property>
  <property name="meta.media.1.codec.sample_fmt">fltp</property>
  <property name="meta.media.1.codec.sample_rate">48000</property>
  <property name="meta.media.1.codec.channels">2</property>
  <property name="meta.media.1.codec.name">vorbis</property>
  <property name="meta.media.1.codec.long_name">Vorbis</property>
  <property name="meta.media.1.codec.bit_rate">0</property>
  <property name="meta.attr.1.stream.HANDLER_NAME.markup">SoundHandler</property>
  <property name="meta.attr.1.stream.VENDOR_ID.markup">[0][0][0][0]</property>
  <property name="meta.attr.1.stream.ENCODER.markup">Lavc60.31.102 libvorbis</property>
  <property name="meta.attr.1.stream.DURATION.markup">00:00:03.032000000</property>
  <property name="meta.attr.COMPATIBLE_BRANDS.markup">isomiso2mp41</property>
  <property name="meta.attr.MAJOR_BRAND.markup">isom</property>
  <property name="meta.attr.MINOR_VERSION.markup">512</property>
  <property name="meta.attr.ENCODER.markup">Lavf60.16.100</property>
  <property name="seekable">1</property>
  <property name="meta.media.sample_aspect_num">1</property>
  <property name="meta.media.sample_aspect_den">1</property>
  <property name="aspect_ratio">1</property>
  <property name="format">3</property>
  <property name="kdenlive:clipname"/>
  <property name="meta.media.frame_rate_num">60</property>
  <property name="meta.media.frame_rate_den">1</property>
  <property name="meta.media.colorspace">709</property>
  <property name="meta.media.color_trc">1</property>
  <property name="meta.media.has_b_frames">2</property>
  <property name="meta.media.width">1920</property>
  <property name="meta.media.height">1080</property>
  <property name="meta.media.color_range">mpeg</property>
  <property name="meta.media.top_field_first">0</property>
  <property name="meta.media.progressive">1</property>
  <property name="kdenlive:clip_type">0</property>
  <property name="kdenlive:folderid">450</property>
  <property name="kdenlive:id">469</property>
  <property name="kdenlive:file_size">622857</property>
  <property name="kdenlive:file_hash">a384bebc92749de334e58cb4643aacbf</property>
  <property name="kdenlive:audio_max1">193</property>
 </producer>
 <producer id="producer425" in="00:00:00.000" out="00:00:06.983">
  <property name="length">420</property>
  <property name="eof">pause</property>
  <property name="resource">/home/federico/Nextcloud/Kden/EditingUT/Video/Fraws/fraws_divine_light_meme.mkv</property>
  <property name="audio_index">1</property>
  <property name="video_index">0</property>
  <property name="mute_on_pause">0</property>
  <property name="mlt_service">avformat-novalidate</property>
  <property name="meta.media.nb_streams">2</property>
  <property name="meta.media.0.stream.type">video</property>
  <property name="meta.media.0.stream.frame_rate">60</property>
  <property name="meta.media.0.stream.sample_aspect_ratio">1</property>
  <property name="meta.media.0.codec.width">1920</property>
  <property name="meta.media.0.codec.height">1080</property>
  <property name="meta.media.0.codec.rotate">0</property>
  <property name="meta.media.0.codec.pix_fmt">yuv420p</property>
  <property name="meta.media.0.codec.sample_aspect_ratio">1</property>
  <property name="meta.media.0.codec.colorspace">709</property>
  <property name="meta.media.0.codec.color_trc">1</property>
  <property name="meta.media.0.codec.name">h264</property>
  <property name="meta.media.0.codec.long_name">H.264 / AVC / MPEG-4 AVC / MPEG-4 part 10</property>
  <property name="meta.media.0.codec.bit_rate">0</property>
  <property name="meta.attr.0.stream.HANDLER_NAME.markup">VideoHandler</property>
  <property name="meta.attr.0.stream.VENDOR_ID.markup">[0][0][0][0]</property>
  <property name="meta.attr.0.stream.ENCODER.markup">Lavc60.31.102 libx264</property>
  <property name="meta.attr.0.stream.DURATION.markup">00:00:06.987000000</property>
  <property name="meta.media.1.stream.type">audio</property>
  <property name="meta.media.1.codec.sample_fmt">fltp</property>
  <property name="meta.media.1.codec.sample_rate">48000</property>
  <property name="meta.media.1.codec.channels">2</property>
  <property name="meta.media.1.codec.name">vorbis</property>
  <property name="meta.media.1.codec.long_name">Vorbis</property>
  <property name="meta.media.1.codec.bit_rate">0</property>
  <property name="meta.attr.1.stream.HANDLER_NAME.markup">SoundHandler</property>
  <property name="meta.attr.1.stream.VENDOR_ID.markup">[0][0][0][0]</property>
  <property name="meta.attr.1.stream.ENCODER.markup">Lavc60.31.102 libvorbis</property>
  <property name="meta.attr.1.stream.DURATION.markup">00:00:07.000000000</property>
  <property name="meta.attr.COMPATIBLE_BRANDS.markup">isomiso2mp41</property>
  <property name="meta.attr.MAJOR_BRAND.markup">isom</property>
  <property name="meta.attr.MINOR_VERSION.markup">512</property>
  <property name="meta.attr.ENCODER.markup">Lavf60.16.100</property>
  <property name="seekable">1</property>
  <property name="meta.media.sample_aspect_num">1</property>
  <property name="meta.media.sample_aspect_den">1</property>
  <property name="aspect_ratio">1</property>
  <property name="format">3</property>
  <property name="kdenlive:clipname"/>
  <property name="meta.media.frame_rate_num">60</property>
  <property name="meta.media.frame_rate_den">1</property>
  <property name="meta.media.colorspace">709</property>
  <property name="meta.media.color_trc">1</property>
  <property name="meta.media.has_b_frames">2</property>
  <property name="meta.media.width">1920</property>
  <property name="meta.media.height">1080</property>
  <property name="meta.media.color_range">mpeg</property>
  <property name="meta.media.top_field_first">0</property>
  <property name="meta.media.progressive">1</property>
  <property name="kdenlive:clip_type">0</property>
  <property name="kdenlive:folderid">450</property>
  <property name="kdenlive:id">470</property>
  <property name="kdenlive:file_size">2297822</property>
  <property name="kdenlive:file_hash">4344ecc396daf9694f630342a38371fb</property>
  <property name="kdenlive:audio_max1">177</property>
 </producer>
 <producer id="producer428" in="00:00:00.000" out="00:00:13.167">
  <property name="length">791</property>
  <property name="eof">pause</property>
  <property name="resource">/home/federico/Nextcloud/Kden/EditingUT/Video/Fraws/fraws_esce_se_ne_va_perche_guarda_al_cielo.mkv</property>
  <property name="audio_index">1</property>
  <property name="video_index">0</property>
  <property name="mute_on_pause">0</property>
  <property name="mlt_service">avformat-novalidate</property>
  <property name="meta.media.nb_streams">2</property>
  <property name="meta.media.0.stream.type">video</property>
  <property name="meta.media.0.stream.frame_rate">60</property>
  <property name="meta.media.0.stream.sample_aspect_ratio">1</property>
  <property name="meta.media.0.codec.width">1920</property>
  <property name="meta.media.0.codec.height">1080</property>
  <property name="meta.media.0.codec.rotate">0</property>
  <property name="meta.media.0.codec.pix_fmt">yuv420p</property>
  <property name="meta.media.0.codec.sample_aspect_ratio">1</property>
  <property name="meta.media.0.codec.colorspace">709</property>
  <property name="meta.media.0.codec.color_trc">1</property>
  <property name="meta.media.0.codec.name">h264</property>
  <property name="meta.media.0.codec.long_name">H.264 / AVC / MPEG-4 AVC / MPEG-4 part 10</property>
  <property name="meta.media.0.codec.bit_rate">0</property>
  <property name="meta.attr.0.stream.HANDLER_NAME.markup">VideoHandler</property>
  <property name="meta.attr.0.stream.VENDOR_ID.markup">[0][0][0][0]</property>
  <property name="meta.attr.0.stream.ENCODER.markup">Lavc60.31.102 libx264</property>
  <property name="meta.attr.0.stream.DURATION.markup">00:00:13.187000000</property>
  <property name="meta.media.1.stream.type">audio</property>
  <property name="meta.media.1.codec.sample_fmt">fltp</property>
  <property name="meta.media.1.codec.sample_rate">48000</property>
  <property name="meta.media.1.codec.channels">2</property>
  <property name="meta.media.1.codec.name">vorbis</property>
  <property name="meta.media.1.codec.long_name">Vorbis</property>
  <property name="meta.media.1.codec.bit_rate">0</property>
  <property name="meta.attr.1.stream.HANDLER_NAME.markup">SoundHandler</property>
  <property name="meta.attr.1.stream.VENDOR_ID.markup">[0][0][0][0]</property>
  <property name="meta.attr.1.stream.ENCODER.markup">Lavc60.31.102 libvorbis</property>
  <property name="meta.attr.1.stream.DURATION.markup">00:00:13.187000000</property>
  <property name="meta.attr.COMPATIBLE_BRANDS.markup">isomiso2mp41</property>
  <property name="meta.attr.MAJOR_BRAND.markup">isom</property>
  <property name="meta.attr.MINOR_VERSION.markup">512</property>
  <property name="meta.attr.ENCODER.markup">Lavf60.16.100</property>
  <property name="seekable">1</property>
  <property name="meta.media.sample_aspect_num">1</property>
  <property name="meta.media.sample_aspect_den">1</property>
  <property name="aspect_ratio">1</property>
  <property name="format">3</property>
  <property name="kdenlive:clipname"/>
  <property name="meta.media.frame_rate_num">60</property>
  <property name="meta.media.frame_rate_den">1</property>
  <property name="meta.media.colorspace">709</property>
  <property name="meta.media.color_trc">1</property>
  <property name="meta.media.has_b_frames">2</property>
  <property name="meta.media.width">1920</property>
  <property name="meta.media.height">1080</property>
  <property name="meta.media.color_range">mpeg</property>
  <property name="meta.media.top_field_first">0</property>
  <property name="meta.media.progressive">1</property>
  <property name="kdenlive:clip_type">0</property>
  <property name="kdenlive:folderid">450</property>
  <property name="kdenlive:id">471</property>
  <property name="kdenlive:file_size">4894282</property>
  <property name="kdenlive:file_hash">91207c1ff170f396112ddfb4196732d9</property>
  <property name="kdenlive:audio_max1">177</property>
 </producer>
 <producer id="producer430" in="00:00:00.000" out="00:00:09.050">
  <property name="length">544</property>
  <property name="eof">pause</property>
  <property name="resource">/home/federico/Nextcloud/Kden/EditingUT/Video/Fraws/fraws_facepalm.mkv</property>
  <property name="audio_index">1</property>
  <property name="video_index">0</property>
  <property name="mute_on_pause">0</property>
  <property name="mlt_service">avformat-novalidate</property>
  <property name="meta.media.nb_streams">2</property>
  <property name="meta.media.0.stream.type">video</property>
  <property name="meta.media.0.stream.frame_rate">60</property>
  <property name="meta.media.0.stream.sample_aspect_ratio">1</property>
  <property name="meta.media.0.codec.width">1920</property>
  <property name="meta.media.0.codec.height">1080</property>
  <property name="meta.media.0.codec.rotate">0</property>
  <property name="meta.media.0.codec.pix_fmt">yuv420p</property>
  <property name="meta.media.0.codec.sample_aspect_ratio">1</property>
  <property name="meta.media.0.codec.colorspace">709</property>
  <property name="meta.media.0.codec.color_trc">1</property>
  <property name="meta.media.0.codec.name">h264</property>
  <property name="meta.media.0.codec.long_name">H.264 / AVC / MPEG-4 AVC / MPEG-4 part 10</property>
  <property name="meta.media.0.codec.bit_rate">0</property>
  <property name="meta.attr.0.stream.HANDLER_NAME.markup">VideoHandler</property>
  <property name="meta.attr.0.stream.VENDOR_ID.markup">[0][0][0][0]</property>
  <property name="meta.attr.0.stream.ENCODER.markup">Lavc60.31.102 libx264</property>
  <property name="meta.attr.0.stream.DURATION.markup">00:00:09.053000000</property>
  <property name="meta.media.1.stream.type">audio</property>
  <property name="meta.media.1.codec.sample_fmt">fltp</property>
  <property name="meta.media.1.codec.sample_rate">48000</property>
  <property name="meta.media.1.codec.channels">2</property>
  <property name="meta.media.1.codec.name">vorbis</property>
  <property name="meta.media.1.codec.long_name">Vorbis</property>
  <property name="meta.media.1.codec.bit_rate">0</property>
  <property name="meta.attr.1.stream.HANDLER_NAME.markup">SoundHandler</property>
  <property name="meta.attr.1.stream.VENDOR_ID.markup">[0][0][0][0]</property>
  <property name="meta.attr.1.stream.ENCODER.markup">Lavc60.31.102 libvorbis</property>
  <property name="meta.attr.1.stream.DURATION.markup">00:00:09.069000000</property>
  <property name="meta.attr.COMPATIBLE_BRANDS.markup">isomiso2mp41</property>
  <property name="meta.attr.MAJOR_BRAND.markup">isom</property>
  <property name="meta.attr.MINOR_VERSION.markup">512</property>
  <property name="meta.attr.ENCODER.markup">Lavf60.16.100</property>
  <property name="seekable">1</property>
  <property name="meta.media.sample_aspect_num">1</property>
  <property name="meta.media.sample_aspect_den">1</property>
  <property name="aspect_ratio">1</property>
  <property name="format">3</property>
  <property name="kdenlive:clipname"/>
  <property name="meta.media.frame_rate_num">60</property>
  <property name="meta.media.frame_rate_den">1</property>
  <property name="meta.media.colorspace">709</property>
  <property name="meta.media.color_trc">1</property>
  <property name="meta.media.has_b_frames">2</property>
  <property name="meta.media.width">1920</property>
  <property name="meta.media.height">1080</property>
  <property name="meta.media.color_range">mpeg</property>
  <property name="meta.media.top_field_first">0</property>
  <property name="meta.media.progressive">1</property>
  <property name="kdenlive:clip_type">0</property>
  <property name="kdenlive:folderid">450</property>
  <property name="kdenlive:id">472</property>
  <property name="kdenlive:file_size">2877160</property>
  <property name="kdenlive:file_hash">0064e46e1dfe5b8e0b3530a9f1964486</property>
  <property name="kdenlive:audio_max1">1</property>
 </producer>
 <producer id="producer429" in="00:00:00.000" out="00:00:02.883">
  <property name="length">174</property>
  <property name="eof">pause</property>
  <property name="resource">/home/federico/Nextcloud/Kden/EditingUT/Video/Fraws/fraws_facepalm_doppio.mkv</property>
  <property name="audio_index">1</property>
  <property name="video_index">0</property>
  <property name="mute_on_pause">0</property>
  <property name="mlt_service">avformat-novalidate</property>
  <property name="meta.media.nb_streams">2</property>
  <property name="meta.media.0.stream.type">video</property>
  <property name="meta.media.0.stream.frame_rate">60</property>
  <property name="meta.media.0.stream.sample_aspect_ratio">1</property>
  <property name="meta.media.0.codec.width">1920</property>
  <property name="meta.media.0.codec.height">1080</property>
  <property name="meta.media.0.codec.rotate">0</property>
  <property name="meta.media.0.codec.pix_fmt">yuv420p</property>
  <property name="meta.media.0.codec.sample_aspect_ratio">1</property>
  <property name="meta.media.0.codec.colorspace">709</property>
  <property name="meta.media.0.codec.color_trc">1</property>
  <property name="meta.media.0.codec.name">h264</property>
  <property name="meta.media.0.codec.long_name">H.264 / AVC / MPEG-4 AVC / MPEG-4 part 10</property>
  <property name="meta.media.0.codec.bit_rate">0</property>
  <property name="meta.attr.0.stream.HANDLER_NAME.markup">VideoHandler</property>
  <property name="meta.attr.0.stream.VENDOR_ID.markup">[0][0][0][0]</property>
  <property name="meta.attr.0.stream.ENCODER.markup">Lavc60.31.102 libx264</property>
  <property name="meta.attr.0.stream.DURATION.markup">00:00:02.903000000</property>
  <property name="meta.media.1.stream.type">audio</property>
  <property name="meta.media.1.codec.sample_fmt">fltp</property>
  <property name="meta.media.1.codec.sample_rate">48000</property>
  <property name="meta.media.1.codec.channels">2</property>
  <property name="meta.media.1.codec.name">vorbis</property>
  <property name="meta.media.1.codec.long_name">Vorbis</property>
  <property name="meta.media.1.codec.bit_rate">0</property>
  <property name="meta.attr.1.stream.HANDLER_NAME.markup">SoundHandler</property>
  <property name="meta.attr.1.stream.VENDOR_ID.markup">[0][0][0][0]</property>
  <property name="meta.attr.1.stream.ENCODER.markup">Lavc60.31.102 libvorbis</property>
  <property name="meta.attr.1.stream.DURATION.markup">00:00:02.904000000</property>
  <property name="meta.attr.COMPATIBLE_BRANDS.markup">isomiso2mp41</property>
  <property name="meta.attr.MAJOR_BRAND.markup">isom</property>
  <property name="meta.attr.MINOR_VERSION.markup">512</property>
  <property name="meta.attr.ENCODER.markup">Lavf60.16.100</property>
  <property name="seekable">1</property>
  <property name="meta.media.sample_aspect_num">1</property>
  <property name="meta.media.sample_aspect_den">1</property>
  <property name="aspect_ratio">1</property>
  <property name="format">3</property>
  <property name="kdenlive:clipname"/>
  <property name="meta.media.frame_rate_num">60</property>
  <property name="meta.media.frame_rate_den">1</property>
  <property name="meta.media.colorspace">709</property>
  <property name="meta.media.color_trc">1</property>
  <property name="meta.media.has_b_frames">2</property>
  <property name="meta.media.width">1920</property>
  <property name="meta.media.height">1080</property>
  <property name="meta.media.color_range">mpeg</property>
  <property name="meta.media.top_field_first">0</property>
  <property name="meta.media.progressive">1</property>
  <property name="kdenlive:clip_type">0</property>
  <property name="kdenlive:folderid">450</property>
  <property name="kdenlive:id">473</property>
  <property name="kdenlive:file_size">916172</property>
  <property name="kdenlive:file_hash">7b4809f60e110de84f4facebacbe63cd</property>
  <property name="kdenlive:audio_max1">256</property>
 </producer>
 <producer id="producer431" in="00:00:00.000" out="00:00:02.800">
  <property name="length">169</property>
  <property name="eof">pause</property>
  <property name="resource">/home/federico/Nextcloud/Kden/EditingUT/Video/Fraws/fraws_facepalm_sclero.mkv</property>
  <property name="audio_index">1</property>
  <property name="video_index">0</property>
  <property name="mute_on_pause">0</property>
  <property name="mlt_service">avformat-novalidate</property>
  <property name="meta.media.nb_streams">2</property>
  <property name="meta.media.0.stream.type">video</property>
  <property name="meta.media.0.stream.frame_rate">60</property>
  <property name="meta.media.0.stream.sample_aspect_ratio">1</property>
  <property name="meta.media.0.codec.width">1920</property>
  <property name="meta.media.0.codec.height">1080</property>
  <property name="meta.media.0.codec.rotate">0</property>
  <property name="meta.media.0.codec.pix_fmt">yuv420p</property>
  <property name="meta.media.0.codec.sample_aspect_ratio">1</property>
  <property name="meta.media.0.codec.colorspace">709</property>
  <property name="meta.media.0.codec.color_trc">1</property>
  <property name="meta.media.0.codec.name">h264</property>
  <property name="meta.media.0.codec.long_name">H.264 / AVC / MPEG-4 AVC / MPEG-4 part 10</property>
  <property name="meta.media.0.codec.bit_rate">0</property>
  <property name="meta.attr.0.stream.HANDLER_NAME.markup">VideoHandler</property>
  <property name="meta.attr.0.stream.VENDOR_ID.markup">[0][0][0][0]</property>
  <property name="meta.attr.0.stream.ENCODER.markup">Lavc60.31.102 libx264</property>
  <property name="meta.attr.0.stream.DURATION.markup">00:00:02.803000000</property>
  <property name="meta.media.1.stream.type">audio</property>
  <property name="meta.media.1.codec.sample_fmt">fltp</property>
  <property name="meta.media.1.codec.sample_rate">48000</property>
  <property name="meta.media.1.codec.channels">2</property>
  <property name="meta.media.1.codec.name">vorbis</property>
  <property name="meta.media.1.codec.long_name">Vorbis</property>
  <property name="meta.media.1.codec.bit_rate">0</property>
  <property name="meta.attr.1.stream.HANDLER_NAME.markup">SoundHandler</property>
  <property name="meta.attr.1.stream.VENDOR_ID.markup">[0][0][0][0]</property>
  <property name="meta.attr.1.stream.ENCODER.markup">Lavc60.31.102 libvorbis</property>
  <property name="meta.attr.1.stream.DURATION.markup">00:00:02.819000000</property>
  <property name="meta.attr.COMPATIBLE_BRANDS.markup">isomiso2mp41</property>
  <property name="meta.attr.MAJOR_BRAND.markup">isom</property>
  <property name="meta.attr.MINOR_VERSION.markup">512</property>
  <property name="meta.attr.ENCODER.markup">Lavf60.16.100</property>
  <property name="seekable">1</property>
  <property name="meta.media.sample_aspect_num">1</property>
  <property name="meta.media.sample_aspect_den">1</property>
  <property name="aspect_ratio">1</property>
  <property name="format">3</property>
  <property name="kdenlive:clipname"/>
  <property name="meta.media.frame_rate_num">60</property>
  <property name="meta.media.frame_rate_den">1</property>
  <property name="meta.media.colorspace">709</property>
  <property name="meta.media.color_trc">1</property>
  <property name="meta.media.has_b_frames">2</property>
  <property name="meta.media.width">1920</property>
  <property name="meta.media.height">1080</property>
  <property name="meta.media.color_range">mpeg</property>
  <property name="meta.media.top_field_first">0</property>
  <property name="meta.media.progressive">1</property>
  <property name="kdenlive:clip_type">0</property>
  <property name="kdenlive:folderid">450</property>
  <property name="kdenlive:id">474</property>
  <property name="kdenlive:file_size">297761</property>
  <property name="kdenlive:file_hash">7bdad837143b14339c4099761253bfbd</property>
  <property name="kdenlive:audio_max1">1</property>
 </producer>
 <producer id="producer432" in="00:00:00.000" out="00:00:01.217">
  <property name="length">74</property>
  <property name="eof">pause</property>
  <property name="resource">/home/federico/Nextcloud/Kden/EditingUT/Video/Fraws/fraws_facile.mkv</property>
  <property name="audio_index">1</property>
  <property name="video_index">0</property>
  <property name="mute_on_pause">0</property>
  <property name="mlt_service">avformat-novalidate</property>
  <property name="meta.media.nb_streams">2</property>
  <property name="meta.media.0.stream.type">video</property>
  <property name="meta.media.0.stream.frame_rate">60</property>
  <property name="meta.media.0.stream.sample_aspect_ratio">1</property>
  <property name="meta.media.0.codec.width">1920</property>
  <property name="meta.media.0.codec.height">1080</property>
  <property name="meta.media.0.codec.rotate">0</property>
  <property name="meta.media.0.codec.pix_fmt">yuv420p</property>
  <property name="meta.media.0.codec.sample_aspect_ratio">1</property>
  <property name="meta.media.0.codec.colorspace">709</property>
  <property name="meta.media.0.codec.color_trc">1</property>
  <property name="meta.media.0.codec.name">h264</property>
  <property name="meta.media.0.codec.long_name">H.264 / AVC / MPEG-4 AVC / MPEG-4 part 10</property>
  <property name="meta.media.0.codec.bit_rate">0</property>
  <property name="meta.attr.0.stream.HANDLER_NAME.markup">VideoHandler</property>
  <property name="meta.attr.0.stream.VENDOR_ID.markup">[0][0][0][0]</property>
  <property name="meta.attr.0.stream.ENCODER.markup">Lavc60.31.102 libx264</property>
  <property name="meta.attr.0.stream.DURATION.markup">00:00:01.220000000</property>
  <property name="meta.media.1.stream.type">audio</property>
  <property name="meta.media.1.codec.sample_fmt">fltp</property>
  <property name="meta.media.1.codec.sample_rate">48000</property>
  <property name="meta.media.1.codec.channels">2</property>
  <property name="meta.media.1.codec.name">vorbis</property>
  <property name="meta.media.1.codec.long_name">Vorbis</property>
  <property name="meta.media.1.codec.bit_rate">0</property>
  <property name="meta.attr.1.stream.HANDLER_NAME.markup">SoundHandler</property>
  <property name="meta.attr.1.stream.VENDOR_ID.markup">[0][0][0][0]</property>
  <property name="meta.attr.1.stream.ENCODER.markup">Lavc60.31.102 libvorbis</property>
  <property name="meta.attr.1.stream.DURATION.markup">00:00:01.240000000</property>
  <property name="meta.attr.COMPATIBLE_BRANDS.markup">isomiso2mp41</property>
  <property name="meta.attr.MAJOR_BRAND.markup">isom</property>
  <property name="meta.attr.MINOR_VERSION.markup">512</property>
  <property name="meta.attr.ENCODER.markup">Lavf60.16.100</property>
  <property name="seekable">1</property>
  <property name="meta.media.sample_aspect_num">1</property>
  <property name="meta.media.sample_aspect_den">1</property>
  <property name="aspect_ratio">1</property>
  <property name="format">3</property>
  <property name="kdenlive:clipname"/>
  <property name="meta.media.frame_rate_num">60</property>
  <property name="meta.media.frame_rate_den">1</property>
  <property name="meta.media.colorspace">709</property>
  <property name="meta.media.color_trc">1</property>
  <property name="meta.media.has_b_frames">2</property>
  <property name="meta.media.width">1920</property>
  <property name="meta.media.height">1080</property>
  <property name="meta.media.color_range">mpeg</property>
  <property name="meta.media.top_field_first">0</property>
  <property name="meta.media.progressive">1</property>
  <property name="kdenlive:clip_type">0</property>
  <property name="kdenlive:folderid">450</property>
  <property name="kdenlive:id">475</property>
  <property name="kdenlive:file_size">449582</property>
  <property name="kdenlive:file_hash">19817b2cf43ace30295b189aae350910</property>
  <property name="kdenlive:audio_max1">175</property>
 </producer>
 <producer id="producer433" in="00:00:00.000" out="00:00:01.933">
  <property name="length">117</property>
  <property name="eof">pause</property>
  <property name="resource">/home/federico/Nextcloud/Kden/EditingUT/Video/Fraws/fraws_gesto_meme.mkv</property>
  <property name="audio_index">1</property>
  <property name="video_index">0</property>
  <property name="mute_on_pause">0</property>
  <property name="mlt_service">avformat-novalidate</property>
  <property name="meta.media.nb_streams">2</property>
  <property name="meta.media.0.stream.type">video</property>
  <property name="meta.media.0.stream.frame_rate">60</property>
  <property name="meta.media.0.stream.sample_aspect_ratio">1</property>
  <property name="meta.media.0.codec.width">1920</property>
  <property name="meta.media.0.codec.height">1080</property>
  <property name="meta.media.0.codec.rotate">0</property>
  <property name="meta.media.0.codec.pix_fmt">yuv420p</property>
  <property name="meta.media.0.codec.sample_aspect_ratio">1</property>
  <property name="meta.media.0.codec.colorspace">709</property>
  <property name="meta.media.0.codec.color_trc">1</property>
  <property name="meta.media.0.codec.name">h264</property>
  <property name="meta.media.0.codec.long_name">H.264 / AVC / MPEG-4 AVC / MPEG-4 part 10</property>
  <property name="meta.media.0.codec.bit_rate">0</property>
  <property name="meta.attr.0.stream.HANDLER_NAME.markup">VideoHandler</property>
  <property name="meta.attr.0.stream.VENDOR_ID.markup">[0][0][0][0]</property>
  <property name="meta.attr.0.stream.ENCODER.markup">Lavc60.31.102 libx264</property>
  <property name="meta.attr.0.stream.DURATION.markup">00:00:01.937000000</property>
  <property name="meta.media.1.stream.type">audio</property>
  <property name="meta.media.1.codec.sample_fmt">fltp</property>
  <property name="meta.media.1.codec.sample_rate">48000</property>
  <property name="meta.media.1.codec.channels">2</property>
  <property name="meta.media.1.codec.name">vorbis</property>
  <property name="meta.media.1.codec.long_name">Vorbis</property>
  <property name="meta.media.1.codec.bit_rate">0</property>
  <property name="meta.attr.1.stream.HANDLER_NAME.markup">SoundHandler</property>
  <property name="meta.attr.1.stream.VENDOR_ID.markup">[0][0][0][0]</property>
  <property name="meta.attr.1.stream.ENCODER.markup">Lavc60.31.102 libvorbis</property>
  <property name="meta.attr.1.stream.DURATION.markup">00:00:01.944000000</property>
  <property name="meta.attr.COMPATIBLE_BRANDS.markup">isomiso2mp41</property>
  <property name="meta.attr.MAJOR_BRAND.markup">isom</property>
  <property name="meta.attr.MINOR_VERSION.markup">512</property>
  <property name="meta.attr.ENCODER.markup">Lavf60.16.100</property>
  <property name="seekable">1</property>
  <property name="meta.media.sample_aspect_num">1</property>
  <property name="meta.media.sample_aspect_den">1</property>
  <property name="aspect_ratio">1</property>
  <property name="format">3</property>
  <property name="kdenlive:clipname"/>
  <property name="meta.media.frame_rate_num">60</property>
  <property name="meta.media.frame_rate_den">1</property>
  <property name="meta.media.colorspace">709</property>
  <property name="meta.media.color_trc">1</property>
  <property name="meta.media.has_b_frames">2</property>
  <property name="meta.media.width">1920</property>
  <property name="meta.media.height">1080</property>
  <property name="meta.media.color_range">mpeg</property>
  <property name="meta.media.top_field_first">0</property>
  <property name="meta.media.progressive">1</property>
  <property name="kdenlive:clip_type">0</property>
  <property name="kdenlive:folderid">450</property>
  <property name="kdenlive:id">476</property>
  <property name="kdenlive:file_size">830136</property>
  <property name="kdenlive:file_hash">cbd90e8fa05b7397bedfc3aab55f2824</property>
  <property name="kdenlive:audio_max1">1</property>
 </producer>
 <producer id="producer434" in="00:00:00.000" out="00:00:03.350">
  <property name="length">202</property>
  <property name="eof">pause</property>
  <property name="resource">/home/federico/Nextcloud/Kden/EditingUT/Video/Fraws/fraws_gioco_interessante.mkv</property>
  <property name="audio_index">1</property>
  <property name="video_index">0</property>
  <property name="mute_on_pause">0</property>
  <property name="mlt_service">avformat-novalidate</property>
  <property name="meta.media.nb_streams">2</property>
  <property name="meta.media.0.stream.type">video</property>
  <property name="meta.media.0.stream.frame_rate">60</property>
  <property name="meta.media.0.stream.sample_aspect_ratio">1</property>
  <property name="meta.media.0.codec.width">1920</property>
  <property name="meta.media.0.codec.height">1080</property>
  <property name="meta.media.0.codec.rotate">0</property>
  <property name="meta.media.0.codec.pix_fmt">yuv420p</property>
  <property name="meta.media.0.codec.sample_aspect_ratio">1</property>
  <property name="meta.media.0.codec.colorspace">709</property>
  <property name="meta.media.0.codec.color_trc">1</property>
  <property name="meta.media.0.codec.name">h264</property>
  <property name="meta.media.0.codec.long_name">H.264 / AVC / MPEG-4 AVC / MPEG-4 part 10</property>
  <property name="meta.media.0.codec.bit_rate">0</property>
  <property name="meta.attr.0.stream.HANDLER_NAME.markup">VideoHandler</property>
  <property name="meta.attr.0.stream.VENDOR_ID.markup">[0][0][0][0]</property>
  <property name="meta.attr.0.stream.ENCODER.markup">Lavc60.31.102 libx264</property>
  <property name="meta.attr.0.stream.DURATION.markup">00:00:03.370000000</property>
  <property name="meta.media.1.stream.type">audio</property>
  <property name="meta.media.1.codec.sample_fmt">fltp</property>
  <property name="meta.media.1.codec.sample_rate">48000</property>
  <property name="meta.media.1.codec.channels">2</property>
  <property name="meta.media.1.codec.name">vorbis</property>
  <property name="meta.media.1.codec.long_name">Vorbis</property>
  <property name="meta.media.1.codec.bit_rate">0</property>
  <property name="meta.attr.1.stream.HANDLER_NAME.markup">SoundHandler</property>
  <property name="meta.attr.1.stream.VENDOR_ID.markup">[0][0][0][0]</property>
  <property name="meta.attr.1.stream.ENCODER.markup">Lavc60.31.102 libvorbis</property>
  <property name="meta.attr.1.stream.DURATION.markup">00:00:03.374000000</property>
  <property name="meta.attr.COMPATIBLE_BRANDS.markup">isomiso2mp41</property>
  <property name="meta.attr.MAJOR_BRAND.markup">isom</property>
  <property name="meta.attr.MINOR_VERSION.markup">512</property>
  <property name="meta.attr.ENCODER.markup">Lavf60.16.100</property>
  <property name="seekable">1</property>
  <property name="meta.media.sample_aspect_num">1</property>
  <property name="meta.media.sample_aspect_den">1</property>
  <property name="aspect_ratio">1</property>
  <property name="format">3</property>
  <property name="kdenlive:clipname"/>
  <property name="meta.media.frame_rate_num">60</property>
  <property name="meta.media.frame_rate_den">1</property>
  <property name="meta.media.colorspace">709</property>
  <property name="meta.media.color_trc">1</property>
  <property name="meta.media.has_b_frames">2</property>
  <property name="meta.media.width">1920</property>
  <property name="meta.media.height">1080</property>
  <property name="meta.media.color_range">mpeg</property>
  <property name="meta.media.top_field_first">0</property>
  <property name="meta.media.progressive">1</property>
  <property name="kdenlive:clip_type">0</property>
  <property name="kdenlive:folderid">450</property>
  <property name="kdenlive:id">477</property>
  <property name="kdenlive:file_size">1031339</property>
  <property name="kdenlive:file_hash">075b082fed8f7edf1d5a498478e84281</property>
  <property name="kdenlive:audio_max1">197</property>
 </producer>
 <producer id="producer435" in="00:00:00.000" out="00:00:02.583">
  <property name="length">156</property>
  <property name="eof">pause</property>
  <property name="resource">/home/federico/Nextcloud/Kden/EditingUT/Video/Fraws/fraws_inglese_impiccando.mkv</property>
  <property name="audio_index">1</property>
  <property name="video_index">0</property>
  <property name="mute_on_pause">0</property>
  <property name="mlt_service">avformat-novalidate</property>
  <property name="meta.media.nb_streams">2</property>
  <property name="meta.media.0.stream.type">video</property>
  <property name="meta.media.0.stream.frame_rate">60</property>
  <property name="meta.media.0.stream.sample_aspect_ratio">1</property>
  <property name="meta.media.0.codec.width">1920</property>
  <property name="meta.media.0.codec.height">1080</property>
  <property name="meta.media.0.codec.rotate">0</property>
  <property name="meta.media.0.codec.pix_fmt">yuv420p</property>
  <property name="meta.media.0.codec.sample_aspect_ratio">1</property>
  <property name="meta.media.0.codec.colorspace">709</property>
  <property name="meta.media.0.codec.color_trc">1</property>
  <property name="meta.media.0.codec.name">h264</property>
  <property name="meta.media.0.codec.long_name">H.264 / AVC / MPEG-4 AVC / MPEG-4 part 10</property>
  <property name="meta.media.0.codec.bit_rate">0</property>
  <property name="meta.attr.0.stream.HANDLER_NAME.markup">VideoHandler</property>
  <property name="meta.attr.0.stream.VENDOR_ID.markup">[0][0][0][0]</property>
  <property name="meta.attr.0.stream.ENCODER.markup">Lavc60.31.102 libx264</property>
  <property name="meta.attr.0.stream.DURATION.markup">00:00:02.603000000</property>
  <property name="meta.media.1.stream.type">audio</property>
  <property name="meta.media.1.codec.sample_fmt">fltp</property>
  <property name="meta.media.1.codec.sample_rate">48000</property>
  <property name="meta.media.1.codec.channels">2</property>
  <property name="meta.media.1.codec.name">vorbis</property>
  <property name="meta.media.1.codec.long_name">Vorbis</property>
  <property name="meta.media.1.codec.bit_rate">0</property>
  <property name="meta.attr.1.stream.HANDLER_NAME.markup">SoundHandler</property>
  <property name="meta.attr.1.stream.VENDOR_ID.markup">[0][0][0][0]</property>
  <property name="meta.attr.1.stream.ENCODER.markup">Lavc60.31.102 libvorbis</property>
  <property name="meta.attr.1.stream.DURATION.markup">00:00:02.606000000</property>
  <property name="meta.attr.COMPATIBLE_BRANDS.markup">isomiso2mp41</property>
  <property name="meta.attr.MAJOR_BRAND.markup">isom</property>
  <property name="meta.attr.MINOR_VERSION.markup">512</property>
  <property name="meta.attr.ENCODER.markup">Lavf60.16.100</property>
  <property name="seekable">1</property>
  <property name="meta.media.sample_aspect_num">1</property>
  <property name="meta.media.sample_aspect_den">1</property>
  <property name="aspect_ratio">1</property>
  <property name="format">3</property>
  <property name="kdenlive:clipname"/>
  <property name="meta.media.frame_rate_num">60</property>
  <property name="meta.media.frame_rate_den">1</property>
  <property name="meta.media.colorspace">709</property>
  <property name="meta.media.color_trc">1</property>
  <property name="meta.media.has_b_frames">2</property>
  <property name="meta.media.width">1920</property>
  <property name="meta.media.height">1080</property>
  <property name="meta.media.color_range">mpeg</property>
  <property name="meta.media.top_field_first">0</property>
  <property name="meta.media.progressive">1</property>
  <property name="kdenlive:clip_type">0</property>
  <property name="kdenlive:folderid">450</property>
  <property name="kdenlive:id">478</property>
  <property name="kdenlive:file_size">863304</property>
  <property name="kdenlive:file_hash">8ffeb75587e04918d50712ad2a48701a</property>
  <property name="kdenlive:audio_max1">182</property>
 </producer>
 <producer id="producer436" in="00:00:00.000" out="00:00:02.117">
  <property name="length">128</property>
  <property name="eof">pause</property>
  <property name="resource">/home/federico/Nextcloud/Kden/EditingUT/Video/Fraws/fraws_io_mi_ammazzo.mkv</property>
  <property name="audio_index">1</property>
  <property name="video_index">0</property>
  <property name="mute_on_pause">0</property>
  <property name="mlt_service">avformat-novalidate</property>
  <property name="meta.media.nb_streams">2</property>
  <property name="meta.media.0.stream.type">video</property>
  <property name="meta.media.0.stream.frame_rate">60</property>
  <property name="meta.media.0.stream.sample_aspect_ratio">1</property>
  <property name="meta.media.0.codec.width">1920</property>
  <property name="meta.media.0.codec.height">1080</property>
  <property name="meta.media.0.codec.rotate">0</property>
  <property name="meta.media.0.codec.pix_fmt">yuv420p</property>
  <property name="meta.media.0.codec.sample_aspect_ratio">1</property>
  <property name="meta.media.0.codec.colorspace">709</property>
  <property name="meta.media.0.codec.color_trc">1</property>
  <property name="meta.media.0.codec.name">h264</property>
  <property name="meta.media.0.codec.long_name">H.264 / AVC / MPEG-4 AVC / MPEG-4 part 10</property>
  <property name="meta.media.0.codec.bit_rate">0</property>
  <property name="meta.attr.0.stream.HANDLER_NAME.markup">VideoHandler</property>
  <property name="meta.attr.0.stream.VENDOR_ID.markup">[0][0][0][0]</property>
  <property name="meta.attr.0.stream.ENCODER.markup">Lavc60.31.102 libx264</property>
  <property name="meta.attr.0.stream.DURATION.markup">00:00:02.137000000</property>
  <property name="meta.media.1.stream.type">audio</property>
  <property name="meta.media.1.codec.sample_fmt">fltp</property>
  <property name="meta.media.1.codec.sample_rate">48000</property>
  <property name="meta.media.1.codec.channels">2</property>
  <property name="meta.media.1.codec.name">vorbis</property>
  <property name="meta.media.1.codec.long_name">Vorbis</property>
  <property name="meta.media.1.codec.bit_rate">0</property>
  <property name="meta.attr.1.stream.HANDLER_NAME.markup">SoundHandler</property>
  <property name="meta.attr.1.stream.VENDOR_ID.markup">[0][0][0][0]</property>
  <property name="meta.attr.1.stream.ENCODER.markup">Lavc60.31.102 libvorbis</property>
  <property name="meta.attr.1.stream.DURATION.markup">00:00:02.137000000</property>
  <property name="meta.attr.COMPATIBLE_BRANDS.markup">isomiso2mp41</property>
  <property name="meta.attr.MAJOR_BRAND.markup">isom</property>
  <property name="meta.attr.MINOR_VERSION.markup">512</property>
  <property name="meta.attr.ENCODER.markup">Lavf60.16.100</property>
  <property name="seekable">1</property>
  <property name="meta.media.sample_aspect_num">1</property>
  <property name="meta.media.sample_aspect_den">1</property>
  <property name="aspect_ratio">1</property>
  <property name="format">3</property>
  <property name="kdenlive:clipname"/>
  <property name="meta.media.frame_rate_num">60</property>
  <property name="meta.media.frame_rate_den">1</property>
  <property name="meta.media.colorspace">709</property>
  <property name="meta.media.color_trc">1</property>
  <property name="meta.media.has_b_frames">2</property>
  <property name="meta.media.width">1920</property>
  <property name="meta.media.height">1080</property>
  <property name="meta.media.color_range">mpeg</property>
  <property name="meta.media.top_field_first">0</property>
  <property name="meta.media.progressive">1</property>
  <property name="kdenlive:clip_type">0</property>
  <property name="kdenlive:folderid">450</property>
  <property name="kdenlive:id">479</property>
  <property name="kdenlive:file_size">898094</property>
  <property name="kdenlive:file_hash">4f2f4fe5db3632f308db3a22108340ee</property>
  <property name="kdenlive:audio_max1">113</property>
 </producer>
 <producer id="producer438" in="00:00:00.000" out="00:00:01.667">
  <property name="length">101</property>
  <property name="eof">pause</property>
  <property name="resource">/home/federico/Nextcloud/Kden/EditingUT/Video/Fraws/fraws_lingua.mkv</property>
  <property name="audio_index">1</property>
  <property name="video_index">0</property>
  <property name="mute_on_pause">0</property>
  <property name="mlt_service">avformat-novalidate</property>
  <property name="meta.media.nb_streams">2</property>
  <property name="meta.media.0.stream.type">video</property>
  <property name="meta.media.0.stream.frame_rate">60</property>
  <property name="meta.media.0.stream.sample_aspect_ratio">1</property>
  <property name="meta.media.0.codec.width">1920</property>
  <property name="meta.media.0.codec.height">1080</property>
  <property name="meta.media.0.codec.rotate">0</property>
  <property name="meta.media.0.codec.pix_fmt">yuv420p</property>
  <property name="meta.media.0.codec.sample_aspect_ratio">1</property>
  <property name="meta.media.0.codec.colorspace">709</property>
  <property name="meta.media.0.codec.color_trc">1</property>
  <property name="meta.media.0.codec.name">h264</property>
  <property name="meta.media.0.codec.long_name">H.264 / AVC / MPEG-4 AVC / MPEG-4 part 10</property>
  <property name="meta.media.0.codec.bit_rate">0</property>
  <property name="meta.attr.0.stream.HANDLER_NAME.markup">VideoHandler</property>
  <property name="meta.attr.0.stream.VENDOR_ID.markup">[0][0][0][0]</property>
  <property name="meta.attr.0.stream.ENCODER.markup">Lavc60.31.102 libx264</property>
  <property name="meta.attr.0.stream.DURATION.markup">00:00:01.687000000</property>
  <property name="meta.media.1.stream.type">audio</property>
  <property name="meta.media.1.codec.sample_fmt">fltp</property>
  <property name="meta.media.1.codec.sample_rate">48000</property>
  <property name="meta.media.1.codec.channels">2</property>
  <property name="meta.media.1.codec.name">vorbis</property>
  <property name="meta.media.1.codec.long_name">Vorbis</property>
  <property name="meta.media.1.codec.bit_rate">0</property>
  <property name="meta.attr.1.stream.HANDLER_NAME.markup">SoundHandler</property>
  <property name="meta.attr.1.stream.VENDOR_ID.markup">[0][0][0][0]</property>
  <property name="meta.attr.1.stream.ENCODER.markup">Lavc60.31.102 libvorbis</property>
  <property name="meta.attr.1.stream.DURATION.markup">00:00:01.688000000</property>
  <property name="meta.attr.COMPATIBLE_BRANDS.markup">isomiso2mp41</property>
  <property name="meta.attr.MAJOR_BRAND.markup">isom</property>
  <property name="meta.attr.MINOR_VERSION.markup">512</property>
  <property name="meta.attr.ENCODER.markup">Lavf60.16.100</property>
  <property name="seekable">1</property>
  <property name="meta.media.sample_aspect_num">1</property>
  <property name="meta.media.sample_aspect_den">1</property>
  <property name="aspect_ratio">1</property>
  <property name="format">3</property>
  <property name="kdenlive:clipname"/>
  <property name="meta.media.frame_rate_num">60</property>
  <property name="meta.media.frame_rate_den">1</property>
  <property name="meta.media.colorspace">709</property>
  <property name="meta.media.color_trc">1</property>
  <property name="meta.media.has_b_frames">2</property>
  <property name="meta.media.width">1920</property>
  <property name="meta.media.height">1080</property>
  <property name="meta.media.color_range">mpeg</property>
  <property name="meta.media.top_field_first">0</property>
  <property name="meta.media.progressive">1</property>
  <property name="kdenlive:clip_type">0</property>
  <property name="kdenlive:folderid">450</property>
  <property name="kdenlive:id">480</property>
  <property name="kdenlive:file_size">820792</property>
  <property name="kdenlive:file_hash">86d2b0a46b0c28761dec5328b61ae7c0</property>
  <property name="kdenlive:audio_max1">33</property>
 </producer>
 <producer id="producer437" in="00:00:00.000" out="00:00:27.950">
  <property name="length">1678</property>
  <property name="eof">pause</property>
  <property name="resource">/home/federico/Nextcloud/Kden/EditingUT/Video/Fraws/fraws_meme_arabo_esplosione_ballo.mkv</property>
  <property name="audio_index">1</property>
  <property name="video_index">0</property>
  <property name="mute_on_pause">0</property>
  <property name="mlt_service">avformat-novalidate</property>
  <property name="meta.media.nb_streams">2</property>
  <property name="meta.media.0.stream.type">video</property>
  <property name="meta.media.0.stream.frame_rate">60</property>
  <property name="meta.media.0.stream.sample_aspect_ratio">1</property>
  <property name="meta.media.0.codec.width">1920</property>
  <property name="meta.media.0.codec.height">1080</property>
  <property name="meta.media.0.codec.rotate">0</property>
  <property name="meta.media.0.codec.pix_fmt">yuv420p</property>
  <property name="meta.media.0.codec.sample_aspect_ratio">1</property>
  <property name="meta.media.0.codec.colorspace">709</property>
  <property name="meta.media.0.codec.color_trc">1</property>
  <property name="meta.media.0.codec.name">h264</property>
  <property name="meta.media.0.codec.long_name">H.264 / AVC / MPEG-4 AVC / MPEG-4 part 10</property>
  <property name="meta.media.0.codec.bit_rate">0</property>
  <property name="meta.attr.0.stream.HANDLER_NAME.markup">VideoHandler</property>
  <property name="meta.attr.0.stream.VENDOR_ID.markup">[0][0][0][0]</property>
  <property name="meta.attr.0.stream.ENCODER.markup">Lavc60.31.102 libx264</property>
  <property name="meta.attr.0.stream.DURATION.markup">00:00:27.953000000</property>
  <property name="meta.media.1.stream.type">audio</property>
  <property name="meta.media.1.codec.sample_fmt">fltp</property>
  <property name="meta.media.1.codec.sample_rate">48000</property>
  <property name="meta.media.1.codec.channels">2</property>
  <property name="meta.media.1.codec.name">vorbis</property>
  <property name="meta.media.1.codec.long_name">Vorbis</property>
  <property name="meta.media.1.codec.bit_rate">0</property>
  <property name="meta.attr.1.stream.HANDLER_NAME.markup">SoundHandler</property>
  <property name="meta.attr.1.stream.VENDOR_ID.markup">[0][0][0][0]</property>
  <property name="meta.attr.1.stream.ENCODER.markup">Lavc60.31.102 libvorbis</property>
  <property name="meta.attr.1.stream.DURATION.markup">00:00:27.971000000</property>
  <property name="meta.attr.COMPATIBLE_BRANDS.markup">isomiso2mp41</property>
  <property name="meta.attr.MAJOR_BRAND.markup">isom</property>
  <property name="meta.attr.MINOR_VERSION.markup">512</property>
  <property name="meta.attr.ENCODER.markup">Lavf60.16.100</property>
  <property name="seekable">1</property>
  <property name="meta.media.sample_aspect_num">1</property>
  <property name="meta.media.sample_aspect_den">1</property>
  <property name="aspect_ratio">1</property>
  <property name="format">3</property>
  <property name="kdenlive:clipname"/>
  <property name="meta.media.frame_rate_num">60</property>
  <property name="meta.media.frame_rate_den">1</property>
  <property name="meta.media.colorspace">709</property>
  <property name="meta.media.color_trc">1</property>
  <property name="meta.media.has_b_frames">2</property>
  <property name="meta.media.width">1920</property>
  <property name="meta.media.height">1080</property>
  <property name="meta.media.color_range">mpeg</property>
  <property name="meta.media.top_field_first">0</property>
  <property name="meta.media.progressive">1</property>
  <property name="kdenlive:clip_type">0</property>
  <property name="kdenlive:folderid">450</property>
  <property name="kdenlive:id">481</property>
  <property name="kdenlive:file_size">13315297</property>
  <property name="kdenlive:file_hash">6d69e6b01d671d6ff2d8d69bb244c2b6</property>
  <property name="kdenlive:audio_max1">216</property>
 </producer>
 <producer id="producer439" in="00:00:00.000" out="00:00:02.233">
  <property name="length">135</property>
  <property name="eof">pause</property>
  <property name="resource">/home/federico/Nextcloud/Kden/EditingUT/Video/Fraws/fraws_mi_prendi_per_il_culo.mkv</property>
  <property name="audio_index">1</property>
  <property name="video_index">0</property>
  <property name="mute_on_pause">0</property>
  <property name="mlt_service">avformat-novalidate</property>
  <property name="meta.media.nb_streams">2</property>
  <property name="meta.media.0.stream.type">video</property>
  <property name="meta.media.0.stream.frame_rate">60</property>
  <property name="meta.media.0.stream.sample_aspect_ratio">1</property>
  <property name="meta.media.0.codec.width">1920</property>
  <property name="meta.media.0.codec.height">1080</property>
  <property name="meta.media.0.codec.rotate">0</property>
  <property name="meta.media.0.codec.pix_fmt">yuv420p</property>
  <property name="meta.media.0.codec.sample_aspect_ratio">1</property>
  <property name="meta.media.0.codec.colorspace">709</property>
  <property name="meta.media.0.codec.color_trc">1</property>
  <property name="meta.media.0.codec.name">h264</property>
  <property name="meta.media.0.codec.long_name">H.264 / AVC / MPEG-4 AVC / MPEG-4 part 10</property>
  <property name="meta.media.0.codec.bit_rate">0</property>
  <property name="meta.attr.0.stream.HANDLER_NAME.markup">VideoHandler</property>
  <property name="meta.attr.0.stream.VENDOR_ID.markup">[0][0][0][0]</property>
  <property name="meta.attr.0.stream.ENCODER.markup">Lavc60.31.102 libx264</property>
  <property name="meta.attr.0.stream.DURATION.markup">00:00:02.237000000</property>
  <property name="meta.media.1.stream.type">audio</property>
  <property name="meta.media.1.codec.sample_fmt">fltp</property>
  <property name="meta.media.1.codec.sample_rate">48000</property>
  <property name="meta.media.1.codec.channels">2</property>
  <property name="meta.media.1.codec.name">vorbis</property>
  <property name="meta.media.1.codec.long_name">Vorbis</property>
  <property name="meta.media.1.codec.bit_rate">0</property>
  <property name="meta.attr.1.stream.HANDLER_NAME.markup">SoundHandler</property>
  <property name="meta.attr.1.stream.VENDOR_ID.markup">[0][0][0][0]</property>
  <property name="meta.attr.1.stream.ENCODER.markup">Lavc60.31.102 libvorbis</property>
  <property name="meta.attr.1.stream.DURATION.markup">00:00:02.243000000</property>
  <property name="meta.attr.COMPATIBLE_BRANDS.markup">isomiso2mp41</property>
  <property name="meta.attr.MAJOR_BRAND.markup">isom</property>
  <property name="meta.attr.MINOR_VERSION.markup">512</property>
  <property name="meta.attr.ENCODER.markup">Lavf60.16.100</property>
  <property name="seekable">1</property>
  <property name="meta.media.sample_aspect_num">1</property>
  <property name="meta.media.sample_aspect_den">1</property>
  <property name="aspect_ratio">1</property>
  <property name="format">3</property>
  <property name="kdenlive:clipname"/>
  <property name="meta.media.frame_rate_num">60</property>
  <property name="meta.media.frame_rate_den">1</property>
  <property name="meta.media.colorspace">709</property>
  <property name="meta.media.color_trc">1</property>
  <property name="meta.media.has_b_frames">2</property>
  <property name="meta.media.width">1920</property>
  <property name="meta.media.height">1080</property>
  <property name="meta.media.color_range">mpeg</property>
  <property name="meta.media.top_field_first">0</property>
  <property name="meta.media.progressive">1</property>
  <property name="kdenlive:clip_type">0</property>
  <property name="kdenlive:folderid">450</property>
  <property name="kdenlive:id">482</property>
  <property name="kdenlive:file_size">1019323</property>
  <property name="kdenlive:file_hash">414ea5a1f354f2499ef607214b1ea739</property>
  <property name="kdenlive:audio_max1">139</property>
 </producer>
 <producer id="producer440" in="00:00:00.000" out="00:00:01.267">
  <property name="length">77</property>
  <property name="eof">pause</property>
  <property name="resource">/home/federico/Nextcloud/Kden/EditingUT/Video/Fraws/fraws_nice_2.mkv</property>
  <property name="audio_index">1</property>
  <property name="video_index">0</property>
  <property name="mute_on_pause">0</property>
  <property name="mlt_service">avformat-novalidate</property>
  <property name="meta.media.nb_streams">2</property>
  <property name="meta.media.0.stream.type">video</property>
  <property name="meta.media.0.stream.frame_rate">60</property>
  <property name="meta.media.0.stream.sample_aspect_ratio">1</property>
  <property name="meta.media.0.codec.width">1920</property>
  <property name="meta.media.0.codec.height">1080</property>
  <property name="meta.media.0.codec.rotate">0</property>
  <property name="meta.media.0.codec.pix_fmt">yuv420p</property>
  <property name="meta.media.0.codec.sample_aspect_ratio">1</property>
  <property name="meta.media.0.codec.colorspace">709</property>
  <property name="meta.media.0.codec.color_trc">1</property>
  <property name="meta.media.0.codec.name">h264</property>
  <property name="meta.media.0.codec.long_name">H.264 / AVC / MPEG-4 AVC / MPEG-4 part 10</property>
  <property name="meta.media.0.codec.bit_rate">0</property>
  <property name="meta.attr.0.stream.HANDLER_NAME.markup">VideoHandler</property>
  <property name="meta.attr.0.stream.VENDOR_ID.markup">[0][0][0][0]</property>
  <property name="meta.attr.0.stream.ENCODER.markup">Lavc60.31.102 libx264</property>
  <property name="meta.attr.0.stream.DURATION.markup">00:00:01.270000000</property>
  <property name="meta.media.1.stream.type">audio</property>
  <property name="meta.media.1.codec.sample_fmt">fltp</property>
  <property name="meta.media.1.codec.sample_rate">48000</property>
  <property name="meta.media.1.codec.channels">2</property>
  <property name="meta.media.1.codec.name">vorbis</property>
  <property name="meta.media.1.codec.long_name">Vorbis</property>
  <property name="meta.media.1.codec.bit_rate">0</property>
  <property name="meta.attr.1.stream.HANDLER_NAME.markup">SoundHandler</property>
  <property name="meta.attr.1.stream.VENDOR_ID.markup">[0][0][0][0]</property>
  <property name="meta.attr.1.stream.ENCODER.markup">Lavc60.31.102 libvorbis</property>
  <property name="meta.attr.1.stream.DURATION.markup">00:00:01.283000000</property>
  <property name="meta.attr.COMPATIBLE_BRANDS.markup">isomiso2mp41</property>
  <property name="meta.attr.MAJOR_BRAND.markup">isom</property>
  <property name="meta.attr.MINOR_VERSION.markup">512</property>
  <property name="meta.attr.ENCODER.markup">Lavf60.16.100</property>
  <property name="seekable">1</property>
  <property name="meta.media.sample_aspect_num">1</property>
  <property name="meta.media.sample_aspect_den">1</property>
  <property name="aspect_ratio">1</property>
  <property name="format">3</property>
  <property name="kdenlive:clipname"/>
  <property name="meta.media.frame_rate_num">60</property>
  <property name="meta.media.frame_rate_den">1</property>
  <property name="meta.media.colorspace">709</property>
  <property name="meta.media.color_trc">1</property>
  <property name="meta.media.has_b_frames">2</property>
  <property name="meta.media.width">1920</property>
  <property name="meta.media.height">1080</property>
  <property name="meta.media.color_range">mpeg</property>
  <property name="meta.media.top_field_first">0</property>
  <property name="meta.media.progressive">1</property>
  <property name="kdenlive:clip_type">0</property>
  <property name="kdenlive:folderid">450</property>
  <property name="kdenlive:id">483</property>
  <property name="kdenlive:file_size">609105</property>
  <property name="kdenlive:file_hash">9f8d29da4006db46051e8d0f5572bfda</property>
  <property name="kdenlive:audio_max1">205</property>
 </producer>
 <producer id="producer441" in="00:00:00.000" out="00:00:01.050">
  <property name="length">64</property>
  <property name="eof">pause</property>
  <property name="resource">/home/federico/Nextcloud/Kden/EditingUT/Video/Fraws/fraws_nice_meme.mkv</property>
  <property name="audio_index">1</property>
  <property name="video_index">0</property>
  <property name="mute_on_pause">0</property>
  <property name="mlt_service">avformat-novalidate</property>
  <property name="meta.media.nb_streams">2</property>
  <property name="meta.media.0.stream.type">video</property>
  <property name="meta.media.0.stream.frame_rate">60</property>
  <property name="meta.media.0.stream.sample_aspect_ratio">1</property>
  <property name="meta.media.0.codec.width">1920</property>
  <property name="meta.media.0.codec.height">1080</property>
  <property name="meta.media.0.codec.rotate">0</property>
  <property name="meta.media.0.codec.pix_fmt">yuv420p</property>
  <property name="meta.media.0.codec.sample_aspect_ratio">1</property>
  <property name="meta.media.0.codec.colorspace">709</property>
  <property name="meta.media.0.codec.color_trc">1</property>
  <property name="meta.media.0.codec.name">h264</property>
  <property name="meta.media.0.codec.long_name">H.264 / AVC / MPEG-4 AVC / MPEG-4 part 10</property>
  <property name="meta.media.0.codec.bit_rate">0</property>
  <property name="meta.attr.0.stream.HANDLER_NAME.markup">VideoHandler</property>
  <property name="meta.attr.0.stream.VENDOR_ID.markup">[0][0][0][0]</property>
  <property name="meta.attr.0.stream.ENCODER.markup">Lavc60.31.102 libx264</property>
  <property name="meta.attr.0.stream.DURATION.markup">00:00:01.070000000</property>
  <property name="meta.media.1.stream.type">audio</property>
  <property name="meta.media.1.codec.sample_fmt">fltp</property>
  <property name="meta.media.1.codec.sample_rate">48000</property>
  <property name="meta.media.1.codec.channels">2</property>
  <property name="meta.media.1.codec.name">vorbis</property>
  <property name="meta.media.1.codec.long_name">Vorbis</property>
  <property name="meta.media.1.codec.bit_rate">0</property>
  <property name="meta.attr.1.stream.HANDLER_NAME.markup">SoundHandler</property>
  <property name="meta.attr.1.stream.VENDOR_ID.markup">[0][0][0][0]</property>
  <property name="meta.attr.1.stream.ENCODER.markup">Lavc60.31.102 libvorbis</property>
  <property name="meta.attr.1.stream.DURATION.markup">00:00:01.069000000</property>
  <property name="meta.attr.COMPATIBLE_BRANDS.markup">isomiso2mp41</property>
  <property name="meta.attr.MAJOR_BRAND.markup">isom</property>
  <property name="meta.attr.MINOR_VERSION.markup">512</property>
  <property name="meta.attr.ENCODER.markup">Lavf60.16.100</property>
  <property name="seekable">1</property>
  <property name="meta.media.sample_aspect_num">1</property>
  <property name="meta.media.sample_aspect_den">1</property>
  <property name="aspect_ratio">1</property>
  <property name="format">3</property>
  <property name="kdenlive:clipname"/>
  <property name="meta.media.frame_rate_num">60</property>
  <property name="meta.media.frame_rate_den">1</property>
  <property name="meta.media.colorspace">709</property>
  <property name="meta.media.color_trc">1</property>
  <property name="meta.media.has_b_frames">2</property>
  <property name="meta.media.width">1920</property>
  <property name="meta.media.height">1080</property>
  <property name="meta.media.color_range">mpeg</property>
  <property name="meta.media.top_field_first">0</property>
  <property name="meta.media.progressive">1</property>
  <property name="kdenlive:clip_type">0</property>
  <property name="kdenlive:folderid">450</property>
  <property name="kdenlive:id">484</property>
  <property name="kdenlive:file_size">396959</property>
  <property name="kdenlive:file_hash">b0e82ffb8bf6e98f11d2f18a9d58c643</property>
  <property name="kdenlive:audio_max1">219</property>
 </producer>
 <producer id="producer443" in="00:00:00.000" out="00:00:02.117">
  <property name="length">128</property>
  <property name="eof">pause</property>
  <property name="resource">/home/federico/Nextcloud/Kden/EditingUT/Video/Fraws/fraws_no_sexy.mkv</property>
  <property name="audio_index">1</property>
  <property name="video_index">0</property>
  <property name="mute_on_pause">0</property>
  <property name="mlt_service">avformat-novalidate</property>
  <property name="meta.media.nb_streams">2</property>
  <property name="meta.media.0.stream.type">video</property>
  <property name="meta.media.0.stream.frame_rate">60</property>
  <property name="meta.media.0.stream.sample_aspect_ratio">1</property>
  <property name="meta.media.0.codec.width">1920</property>
  <property name="meta.media.0.codec.height">1080</property>
  <property name="meta.media.0.codec.rotate">0</property>
  <property name="meta.media.0.codec.pix_fmt">yuv420p</property>
  <property name="meta.media.0.codec.sample_aspect_ratio">1</property>
  <property name="meta.media.0.codec.colorspace">709</property>
  <property name="meta.media.0.codec.color_trc">1</property>
  <property name="meta.media.0.codec.name">h264</property>
  <property name="meta.media.0.codec.long_name">H.264 / AVC / MPEG-4 AVC / MPEG-4 part 10</property>
  <property name="meta.media.0.codec.bit_rate">0</property>
  <property name="meta.attr.0.stream.HANDLER_NAME.markup">VideoHandler</property>
  <property name="meta.attr.0.stream.VENDOR_ID.markup">[0][0][0][0]</property>
  <property name="meta.attr.0.stream.ENCODER.markup">Lavc60.31.102 libx264</property>
  <property name="meta.attr.0.stream.DURATION.markup">00:00:02.137000000</property>
  <property name="meta.media.1.stream.type">audio</property>
  <property name="meta.media.1.codec.sample_fmt">fltp</property>
  <property name="meta.media.1.codec.sample_rate">48000</property>
  <property name="meta.media.1.codec.channels">2</property>
  <property name="meta.media.1.codec.name">vorbis</property>
  <property name="meta.media.1.codec.long_name">Vorbis</property>
  <property name="meta.media.1.codec.bit_rate">0</property>
  <property name="meta.attr.1.stream.HANDLER_NAME.markup">SoundHandler</property>
  <property name="meta.attr.1.stream.VENDOR_ID.markup">[0][0][0][0]</property>
  <property name="meta.attr.1.stream.ENCODER.markup">Lavc60.31.102 libvorbis</property>
  <property name="meta.attr.1.stream.DURATION.markup">00:00:02.136000000</property>
  <property name="meta.attr.COMPATIBLE_BRANDS.markup">isomiso2mp41</property>
  <property name="meta.attr.MAJOR_BRAND.markup">isom</property>
  <property name="meta.attr.MINOR_VERSION.markup">512</property>
  <property name="meta.attr.ENCODER.markup">Lavf60.16.100</property>
  <property name="seekable">1</property>
  <property name="meta.media.sample_aspect_num">1</property>
  <property name="meta.media.sample_aspect_den">1</property>
  <property name="aspect_ratio">1</property>
  <property name="format">3</property>
  <property name="kdenlive:clipname"/>
  <property name="meta.media.frame_rate_num">60</property>
  <property name="meta.media.frame_rate_den">1</property>
  <property name="meta.media.colorspace">709</property>
  <property name="meta.media.color_trc">1</property>
  <property name="meta.media.has_b_frames">2</property>
  <property name="meta.media.width">1920</property>
  <property name="meta.media.height">1080</property>
  <property name="meta.media.color_range">mpeg</property>
  <property name="meta.media.top_field_first">0</property>
  <property name="meta.media.progressive">1</property>
  <property name="kdenlive:clip_type">0</property>
  <property name="kdenlive:folderid">450</property>
  <property name="kdenlive:id">485</property>
  <property name="kdenlive:file_size">561348</property>
  <property name="kdenlive:file_hash">7c6ca41675e70d36873bc382b0f5126a</property>
  <property name="kdenlive:audio_max1">157</property>
 </producer>
 <producer id="producer442" in="00:00:00.000" out="00:00:04.333">
  <property name="length">261</property>
  <property name="eof">pause</property>
  <property name="resource">/home/federico/Nextcloud/Kden/EditingUT/Video/Fraws/fraws_non_ho_capito.mkv</property>
  <property name="audio_index">1</property>
  <property name="video_index">0</property>
  <property name="mute_on_pause">0</property>
  <property name="mlt_service">avformat-novalidate</property>
  <property name="meta.media.nb_streams">2</property>
  <property name="meta.media.0.stream.type">video</property>
  <property name="meta.media.0.stream.frame_rate">60</property>
  <property name="meta.media.0.stream.sample_aspect_ratio">1</property>
  <property name="meta.media.0.codec.width">1920</property>
  <property name="meta.media.0.codec.height">1080</property>
  <property name="meta.media.0.codec.rotate">0</property>
  <property name="meta.media.0.codec.pix_fmt">yuv420p</property>
  <property name="meta.media.0.codec.sample_aspect_ratio">1</property>
  <property name="meta.media.0.codec.colorspace">709</property>
  <property name="meta.media.0.codec.color_trc">1</property>
  <property name="meta.media.0.codec.name">h264</property>
  <property name="meta.media.0.codec.long_name">H.264 / AVC / MPEG-4 AVC / MPEG-4 part 10</property>
  <property name="meta.media.0.codec.bit_rate">0</property>
  <property name="meta.attr.0.stream.HANDLER_NAME.markup">VideoHandler</property>
  <property name="meta.attr.0.stream.VENDOR_ID.markup">[0][0][0][0]</property>
  <property name="meta.attr.0.stream.ENCODER.markup">Lavc60.31.102 libx264</property>
  <property name="meta.attr.0.stream.DURATION.markup">00:00:04.353000000</property>
  <property name="meta.media.1.stream.type">audio</property>
  <property name="meta.media.1.codec.sample_fmt">fltp</property>
  <property name="meta.media.1.codec.sample_rate">48000</property>
  <property name="meta.media.1.codec.channels">2</property>
  <property name="meta.media.1.codec.name">vorbis</property>
  <property name="meta.media.1.codec.long_name">Vorbis</property>
  <property name="meta.media.1.codec.bit_rate">0</property>
  <property name="meta.attr.1.stream.HANDLER_NAME.markup">SoundHandler</property>
  <property name="meta.attr.1.stream.VENDOR_ID.markup">[0][0][0][0]</property>
  <property name="meta.attr.1.stream.ENCODER.markup">Lavc60.31.102 libvorbis</property>
  <property name="meta.attr.1.stream.DURATION.markup">00:00:04.355000000</property>
  <property name="meta.attr.COMPATIBLE_BRANDS.markup">isomiso2mp41</property>
  <property name="meta.attr.MAJOR_BRAND.markup">isom</property>
  <property name="meta.attr.MINOR_VERSION.markup">512</property>
  <property name="meta.attr.ENCODER.markup">Lavf60.16.100</property>
  <property name="seekable">1</property>
  <property name="meta.media.sample_aspect_num">1</property>
  <property name="meta.media.sample_aspect_den">1</property>
  <property name="aspect_ratio">1</property>
  <property name="format">3</property>
  <property name="kdenlive:clipname"/>
  <property name="meta.media.frame_rate_num">60</property>
  <property name="meta.media.frame_rate_den">1</property>
  <property name="meta.media.colorspace">709</property>
  <property name="meta.media.color_trc">1</property>
  <property name="meta.media.has_b_frames">2</property>
  <property name="meta.media.width">1920</property>
  <property name="meta.media.height">1080</property>
  <property name="meta.media.color_range">mpeg</property>
  <property name="meta.media.top_field_first">0</property>
  <property name="meta.media.progressive">1</property>
  <property name="kdenlive:clip_type">0</property>
  <property name="kdenlive:folderid">450</property>
  <property name="kdenlive:id">486</property>
  <property name="kdenlive:file_size">1301518</property>
  <property name="kdenlive:file_hash">f856ee8df0d55604d2b5dcf265a6c887</property>
  <property name="kdenlive:audio_max1">178</property>
 </producer>
 <producer id="producer444" in="00:00:00.000" out="00:00:04.867">
  <property name="length">293</property>
  <property name="eof">pause</property>
  <property name="resource">/home/federico/Nextcloud/Kden/EditingUT/Video/Fraws/fraws_non_puo_finire_cosi.mkv</property>
  <property name="audio_index">1</property>
  <property name="video_index">0</property>
  <property name="mute_on_pause">0</property>
  <property name="mlt_service">avformat-novalidate</property>
  <property name="meta.media.nb_streams">2</property>
  <property name="meta.media.0.stream.type">video</property>
  <property name="meta.media.0.stream.frame_rate">60</property>
  <property name="meta.media.0.stream.sample_aspect_ratio">1</property>
  <property name="meta.media.0.codec.width">1920</property>
  <property name="meta.media.0.codec.height">1080</property>
  <property name="meta.media.0.codec.rotate">0</property>
  <property name="meta.media.0.codec.pix_fmt">yuv420p</property>
  <property name="meta.media.0.codec.sample_aspect_ratio">1</property>
  <property name="meta.media.0.codec.colorspace">709</property>
  <property name="meta.media.0.codec.color_trc">1</property>
  <property name="meta.media.0.codec.name">h264</property>
  <property name="meta.media.0.codec.long_name">H.264 / AVC / MPEG-4 AVC / MPEG-4 part 10</property>
  <property name="meta.media.0.codec.bit_rate">0</property>
  <property name="meta.attr.0.stream.HANDLER_NAME.markup">VideoHandler</property>
  <property name="meta.attr.0.stream.VENDOR_ID.markup">[0][0][0][0]</property>
  <property name="meta.attr.0.stream.ENCODER.markup">Lavc60.31.102 libx264</property>
  <property name="meta.attr.0.stream.DURATION.markup">00:00:04.870000000</property>
  <property name="meta.media.1.stream.type">audio</property>
  <property name="meta.media.1.codec.sample_fmt">fltp</property>
  <property name="meta.media.1.codec.sample_rate">48000</property>
  <property name="meta.media.1.codec.channels">2</property>
  <property name="meta.media.1.codec.name">vorbis</property>
  <property name="meta.media.1.codec.long_name">Vorbis</property>
  <property name="meta.media.1.codec.bit_rate">0</property>
  <property name="meta.attr.1.stream.HANDLER_NAME.markup">SoundHandler</property>
  <property name="meta.attr.1.stream.VENDOR_ID.markup">[0][0][0][0]</property>
  <property name="meta.attr.1.stream.ENCODER.markup">Lavc60.31.102 libvorbis</property>
  <property name="meta.attr.1.stream.DURATION.markup">00:00:04.888000000</property>
  <property name="meta.attr.COMPATIBLE_BRANDS.markup">isomiso2mp41</property>
  <property name="meta.attr.MAJOR_BRAND.markup">isom</property>
  <property name="meta.attr.MINOR_VERSION.markup">512</property>
  <property name="meta.attr.ENCODER.markup">Lavf60.16.100</property>
  <property name="seekable">1</property>
  <property name="meta.media.sample_aspect_num">1</property>
  <property name="meta.media.sample_aspect_den">1</property>
  <property name="aspect_ratio">1</property>
  <property name="format">3</property>
  <property name="kdenlive:clipname"/>
  <property name="meta.media.frame_rate_num">60</property>
  <property name="meta.media.frame_rate_den">1</property>
  <property name="meta.media.colorspace">709</property>
  <property name="meta.media.color_trc">1</property>
  <property name="meta.media.has_b_frames">2</property>
  <property name="meta.media.width">1920</property>
  <property name="meta.media.height">1080</property>
  <property name="meta.media.color_range">mpeg</property>
  <property name="meta.media.top_field_first">0</property>
  <property name="meta.media.progressive">1</property>
  <property name="kdenlive:clip_type">0</property>
  <property name="kdenlive:folderid">450</property>
  <property name="kdenlive:id">487</property>
  <property name="kdenlive:file_size">1860952</property>
  <property name="kdenlive:file_hash">725c33a5b0aad584a0219f7590cfc3ae</property>
  <property name="kdenlive:audio_max1">173</property>
 </producer>
 <producer id="producer445" in="00:00:00.000" out="00:00:10.950">
  <property name="length">658</property>
  <property name="eof">pause</property>
  <property name="resource">/home/federico/Nextcloud/Kden/EditingUT/Video/Fraws/fraws_occhiali_chad_guida_via.mkv</property>
  <property name="audio_index">1</property>
  <property name="video_index">0</property>
  <property name="mute_on_pause">0</property>
  <property name="mlt_service">avformat-novalidate</property>
  <property name="meta.media.nb_streams">2</property>
  <property name="meta.media.0.stream.type">video</property>
  <property name="meta.media.0.stream.frame_rate">60</property>
  <property name="meta.media.0.stream.sample_aspect_ratio">1</property>
  <property name="meta.media.0.codec.width">1920</property>
  <property name="meta.media.0.codec.height">1080</property>
  <property name="meta.media.0.codec.rotate">0</property>
  <property name="meta.media.0.codec.pix_fmt">yuv420p</property>
  <property name="meta.media.0.codec.sample_aspect_ratio">1</property>
  <property name="meta.media.0.codec.colorspace">709</property>
  <property name="meta.media.0.codec.color_trc">1</property>
  <property name="meta.media.0.codec.name">h264</property>
  <property name="meta.media.0.codec.long_name">H.264 / AVC / MPEG-4 AVC / MPEG-4 part 10</property>
  <property name="meta.media.0.codec.bit_rate">0</property>
  <property name="meta.attr.0.stream.HANDLER_NAME.markup">VideoHandler</property>
  <property name="meta.attr.0.stream.VENDOR_ID.markup">[0][0][0][0]</property>
  <property name="meta.attr.0.stream.ENCODER.markup">Lavc60.31.102 libx264</property>
  <property name="meta.attr.0.stream.DURATION.markup">00:00:10.953000000</property>
  <property name="meta.media.1.stream.type">audio</property>
  <property name="meta.media.1.codec.sample_fmt">fltp</property>
  <property name="meta.media.1.codec.sample_rate">48000</property>
  <property name="meta.media.1.codec.channels">2</property>
  <property name="meta.media.1.codec.name">vorbis</property>
  <property name="meta.media.1.codec.long_name">Vorbis</property>
  <property name="meta.media.1.codec.bit_rate">0</property>
  <property name="meta.attr.1.stream.HANDLER_NAME.markup">SoundHandler</property>
  <property name="meta.attr.1.stream.VENDOR_ID.markup">[0][0][0][0]</property>
  <property name="meta.attr.1.stream.ENCODER.markup">Lavc60.31.102 libvorbis</property>
  <property name="meta.attr.1.stream.DURATION.markup">00:00:10.968000000</property>
  <property name="meta.attr.COMPATIBLE_BRANDS.markup">isomiso2mp41</property>
  <property name="meta.attr.MAJOR_BRAND.markup">isom</property>
  <property name="meta.attr.MINOR_VERSION.markup">512</property>
  <property name="meta.attr.ENCODER.markup">Lavf60.16.100</property>
  <property name="seekable">1</property>
  <property name="meta.media.sample_aspect_num">1</property>
  <property name="meta.media.sample_aspect_den">1</property>
  <property name="aspect_ratio">1</property>
  <property name="format">3</property>
  <property name="kdenlive:clipname"/>
  <property name="meta.media.frame_rate_num">60</property>
  <property name="meta.media.frame_rate_den">1</property>
  <property name="meta.media.colorspace">709</property>
  <property name="meta.media.color_trc">1</property>
  <property name="meta.media.has_b_frames">2</property>
  <property name="meta.media.width">1920</property>
  <property name="meta.media.height">1080</property>
  <property name="meta.media.color_range">mpeg</property>
  <property name="meta.media.top_field_first">0</property>
  <property name="meta.media.progressive">1</property>
  <property name="kdenlive:clip_type">0</property>
  <property name="kdenlive:folderid">450</property>
  <property name="kdenlive:id">488</property>
  <property name="kdenlive:file_size">8580236</property>
  <property name="kdenlive:file_hash">23d38df7f3759cb88fb94fe84f54ead6</property>
  <property name="kdenlive:audio_max1">183</property>
 </producer>
 <producer id="producer446" in="00:00:00.000" out="00:00:02.433">
  <property name="length">147</property>
  <property name="eof">pause</property>
  <property name="resource">/home/federico/Nextcloud/Kden/EditingUT/Video/Fraws/fraws_occhiali_meme.mkv</property>
  <property name="audio_index">1</property>
  <property name="video_index">0</property>
  <property name="mute_on_pause">0</property>
  <property name="mlt_service">avformat-novalidate</property>
  <property name="meta.media.nb_streams">2</property>
  <property name="meta.media.0.stream.type">video</property>
  <property name="meta.media.0.stream.frame_rate">60</property>
  <property name="meta.media.0.stream.sample_aspect_ratio">1</property>
  <property name="meta.media.0.codec.width">1920</property>
  <property name="meta.media.0.codec.height">1080</property>
  <property name="meta.media.0.codec.rotate">0</property>
  <property name="meta.media.0.codec.pix_fmt">yuv420p</property>
  <property name="meta.media.0.codec.sample_aspect_ratio">1</property>
  <property name="meta.media.0.codec.colorspace">709</property>
  <property name="meta.media.0.codec.color_trc">1</property>
  <property name="meta.media.0.codec.name">h264</property>
  <property name="meta.media.0.codec.long_name">H.264 / AVC / MPEG-4 AVC / MPEG-4 part 10</property>
  <property name="meta.media.0.codec.bit_rate">0</property>
  <property name="meta.attr.0.stream.HANDLER_NAME.markup">VideoHandler</property>
  <property name="meta.attr.0.stream.VENDOR_ID.markup">[0][0][0][0]</property>
  <property name="meta.attr.0.stream.ENCODER.markup">Lavc60.31.102 libx264</property>
  <property name="meta.attr.0.stream.DURATION.markup">00:00:02.453000000</property>
  <property name="meta.media.1.stream.type">audio</property>
  <property name="meta.media.1.codec.sample_fmt">fltp</property>
  <property name="meta.media.1.codec.sample_rate">48000</property>
  <property name="meta.media.1.codec.channels">2</property>
  <property name="meta.media.1.codec.name">vorbis</property>
  <property name="meta.media.1.codec.long_name">Vorbis</property>
  <property name="meta.media.1.codec.bit_rate">0</property>
  <property name="meta.attr.1.stream.HANDLER_NAME.markup">SoundHandler</property>
  <property name="meta.attr.1.stream.VENDOR_ID.markup">[0][0][0][0]</property>
  <property name="meta.attr.1.stream.ENCODER.markup">Lavc60.31.102 libvorbis</property>
  <property name="meta.attr.1.stream.DURATION.markup">00:00:02.456000000</property>
  <property name="meta.attr.COMPATIBLE_BRANDS.markup">isomiso2mp41</property>
  <property name="meta.attr.MAJOR_BRAND.markup">isom</property>
  <property name="meta.attr.MINOR_VERSION.markup">512</property>
  <property name="meta.attr.ENCODER.markup">Lavf60.16.100</property>
  <property name="seekable">1</property>
  <property name="meta.media.sample_aspect_num">1</property>
  <property name="meta.media.sample_aspect_den">1</property>
  <property name="aspect_ratio">1</property>
  <property name="format">3</property>
  <property name="kdenlive:clipname"/>
  <property name="meta.media.frame_rate_num">60</property>
  <property name="meta.media.frame_rate_den">1</property>
  <property name="meta.media.colorspace">709</property>
  <property name="meta.media.color_trc">1</property>
  <property name="meta.media.has_b_frames">2</property>
  <property name="meta.media.width">1920</property>
  <property name="meta.media.height">1080</property>
  <property name="meta.media.color_range">mpeg</property>
  <property name="meta.media.top_field_first">0</property>
  <property name="meta.media.progressive">1</property>
  <property name="kdenlive:clip_type">0</property>
  <property name="kdenlive:folderid">450</property>
  <property name="kdenlive:id">489</property>
  <property name="kdenlive:file_size">793315</property>
  <property name="kdenlive:file_hash">376786822c9b071b0c79f5b9fabfdfb9</property>
  <property name="kdenlive:audio_max1">48</property>
 </producer>
 <producer id="producer447" in="00:00:00.000" out="00:00:06.650">
  <property name="length">400</property>
  <property name="eof">pause</property>
  <property name="resource">/home/federico/Nextcloud/Kden/EditingUT/Video/Fraws/fraws_occhiali_meme_2.mkv</property>
  <property name="audio_index">1</property>
  <property name="video_index">0</property>
  <property name="mute_on_pause">0</property>
  <property name="mlt_service">avformat-novalidate</property>
  <property name="meta.media.nb_streams">2</property>
  <property name="meta.media.0.stream.type">video</property>
  <property name="meta.media.0.stream.frame_rate">60</property>
  <property name="meta.media.0.stream.sample_aspect_ratio">1</property>
  <property name="meta.media.0.codec.width">1920</property>
  <property name="meta.media.0.codec.height">1080</property>
  <property name="meta.media.0.codec.rotate">0</property>
  <property name="meta.media.0.codec.pix_fmt">yuv420p</property>
  <property name="meta.media.0.codec.sample_aspect_ratio">1</property>
  <property name="meta.media.0.codec.colorspace">709</property>
  <property name="meta.media.0.codec.color_trc">1</property>
  <property name="meta.media.0.codec.name">h264</property>
  <property name="meta.media.0.codec.long_name">H.264 / AVC / MPEG-4 AVC / MPEG-4 part 10</property>
  <property name="meta.media.0.codec.bit_rate">0</property>
  <property name="meta.attr.0.stream.HANDLER_NAME.markup">VideoHandler</property>
  <property name="meta.attr.0.stream.VENDOR_ID.markup">[0][0][0][0]</property>
  <property name="meta.attr.0.stream.ENCODER.markup">Lavc60.31.102 libx264</property>
  <property name="meta.attr.0.stream.DURATION.markup">00:00:06.653000000</property>
  <property name="meta.media.1.stream.type">audio</property>
  <property name="meta.media.1.codec.sample_fmt">fltp</property>
  <property name="meta.media.1.codec.sample_rate">48000</property>
  <property name="meta.media.1.codec.channels">2</property>
  <property name="meta.media.1.codec.name">vorbis</property>
  <property name="meta.media.1.codec.long_name">Vorbis</property>
  <property name="meta.media.1.codec.bit_rate">0</property>
  <property name="meta.attr.1.stream.HANDLER_NAME.markup">SoundHandler</property>
  <property name="meta.attr.1.stream.VENDOR_ID.markup">[0][0][0][0]</property>
  <property name="meta.attr.1.stream.ENCODER.markup">Lavc60.31.102 libvorbis</property>
  <property name="meta.attr.1.stream.DURATION.markup">00:00:06.659000000</property>
  <property name="meta.attr.COMPATIBLE_BRANDS.markup">isomiso2mp41</property>
  <property name="meta.attr.MAJOR_BRAND.markup">isom</property>
  <property name="meta.attr.MINOR_VERSION.markup">512</property>
  <property name="meta.attr.ENCODER.markup">Lavf60.16.100</property>
  <property name="seekable">1</property>
  <property name="meta.media.sample_aspect_num">1</property>
  <property name="meta.media.sample_aspect_den">1</property>
  <property name="aspect_ratio">1</property>
  <property name="format">3</property>
  <property name="kdenlive:clipname"/>
  <property name="meta.media.frame_rate_num">60</property>
  <property name="meta.media.frame_rate_den">1</property>
  <property name="meta.media.colorspace">709</property>
  <property name="meta.media.color_trc">1</property>
  <property name="meta.media.has_b_frames">2</property>
  <property name="meta.media.width">1920</property>
  <property name="meta.media.height">1080</property>
  <property name="meta.media.color_range">mpeg</property>
  <property name="meta.media.top_field_first">0</property>
  <property name="meta.media.progressive">1</property>
  <property name="kdenlive:clip_type">0</property>
  <property name="kdenlive:folderid">450</property>
  <property name="kdenlive:id">490</property>
  <property name="kdenlive:file_size">432960</property>
  <property name="kdenlive:file_hash">40bcd3e3773e418d87b0fb4b171d96f3</property>
  <property name="kdenlive:audio_max1">51</property>
 </producer>
 <producer id="producer448" in="00:00:00.000" out="00:00:01.750">
  <property name="length">106</property>
  <property name="eof">pause</property>
  <property name="resource">/home/federico/Nextcloud/Kden/EditingUT/Video/Fraws/fraws_occhiali_meme_non_mi_sbagliavo.mkv</property>
  <property name="audio_index">1</property>
  <property name="video_index">0</property>
  <property name="mute_on_pause">0</property>
  <property name="mlt_service">avformat-novalidate</property>
  <property name="meta.media.nb_streams">2</property>
  <property name="meta.media.0.stream.type">video</property>
  <property name="meta.media.0.stream.frame_rate">60</property>
  <property name="meta.media.0.stream.sample_aspect_ratio">1</property>
  <property name="meta.media.0.codec.width">1920</property>
  <property name="meta.media.0.codec.height">1080</property>
  <property name="meta.media.0.codec.rotate">0</property>
  <property name="meta.media.0.codec.pix_fmt">yuv420p</property>
  <property name="meta.media.0.codec.sample_aspect_ratio">1</property>
  <property name="meta.media.0.codec.colorspace">709</property>
  <property name="meta.media.0.codec.color_trc">1</property>
  <property name="meta.media.0.codec.name">h264</property>
  <property name="meta.media.0.codec.long_name">H.264 / AVC / MPEG-4 AVC / MPEG-4 part 10</property>
  <property name="meta.media.0.codec.bit_rate">0</property>
  <property name="meta.attr.0.stream.HANDLER_NAME.markup">VideoHandler</property>
  <property name="meta.attr.0.stream.VENDOR_ID.markup">[0][0][0][0]</property>
  <property name="meta.attr.0.stream.ENCODER.markup">Lavc60.31.102 libx264</property>
  <property name="meta.attr.0.stream.DURATION.markup">00:00:01.770000000</property>
  <property name="meta.media.1.stream.type">audio</property>
  <property name="meta.media.1.codec.sample_fmt">fltp</property>
  <property name="meta.media.1.codec.sample_rate">48000</property>
  <property name="meta.media.1.codec.channels">2</property>
  <property name="meta.media.1.codec.name">vorbis</property>
  <property name="meta.media.1.codec.long_name">Vorbis</property>
  <property name="meta.media.1.codec.bit_rate">0</property>
  <property name="meta.attr.1.stream.HANDLER_NAME.markup">SoundHandler</property>
  <property name="meta.attr.1.stream.VENDOR_ID.markup">[0][0][0][0]</property>
  <property name="meta.attr.1.stream.ENCODER.markup">Lavc60.31.102 libvorbis</property>
  <property name="meta.attr.1.stream.DURATION.markup">00:00:01.774000000</property>
  <property name="meta.attr.COMPATIBLE_BRANDS.markup">isomiso2mp41</property>
  <property name="meta.attr.MAJOR_BRAND.markup">isom</property>
  <property name="meta.attr.MINOR_VERSION.markup">512</property>
  <property name="meta.attr.ENCODER.markup">Lavf60.16.100</property>
  <property name="seekable">1</property>
  <property name="meta.media.sample_aspect_num">1</property>
  <property name="meta.media.sample_aspect_den">1</property>
  <property name="aspect_ratio">1</property>
  <property name="format">3</property>
  <property name="kdenlive:clipname"/>
  <property name="meta.media.frame_rate_num">60</property>
  <property name="meta.media.frame_rate_den">1</property>
  <property name="meta.media.colorspace">709</property>
  <property name="meta.media.color_trc">1</property>
  <property name="meta.media.has_b_frames">2</property>
  <property name="meta.media.width">1920</property>
  <property name="meta.media.height">1080</property>
  <property name="meta.media.color_range">mpeg</property>
  <property name="meta.media.top_field_first">0</property>
  <property name="meta.media.progressive">1</property>
  <property name="kdenlive:clip_type">0</property>
  <property name="kdenlive:folderid">450</property>
  <property name="kdenlive:id">491</property>
  <property name="kdenlive:file_size">483432</property>
  <property name="kdenlive:file_hash">cd5d8a0aaefc40f46a45514e18bad3b9</property>
  <property name="kdenlive:audio_max1">149</property>
 </producer>
 <producer id="producer449" in="00:00:00.000" out="00:00:09.067">
  <property name="length">545</property>
  <property name="eof">pause</property>
  <property name="resource">/home/federico/Nextcloud/Kden/EditingUT/Video/Fraws/fraws_occhiali_sguardo_meme.mkv</property>
  <property name="audio_index">1</property>
  <property name="video_index">0</property>
  <property name="mute_on_pause">0</property>
  <property name="mlt_service">avformat-novalidate</property>
  <property name="meta.media.nb_streams">2</property>
  <property name="meta.media.0.stream.type">video</property>
  <property name="meta.media.0.stream.frame_rate">60</property>
  <property name="meta.media.0.stream.sample_aspect_ratio">1</property>
  <property name="meta.media.0.codec.width">1920</property>
  <property name="meta.media.0.codec.height">1080</property>
  <property name="meta.media.0.codec.rotate">0</property>
  <property name="meta.media.0.codec.pix_fmt">yuv420p</property>
  <property name="meta.media.0.codec.sample_aspect_ratio">1</property>
  <property name="meta.media.0.codec.colorspace">709</property>
  <property name="meta.media.0.codec.color_trc">1</property>
  <property name="meta.media.0.codec.name">h264</property>
  <property name="meta.media.0.codec.long_name">H.264 / AVC / MPEG-4 AVC / MPEG-4 part 10</property>
  <property name="meta.media.0.codec.bit_rate">0</property>
  <property name="meta.attr.0.stream.HANDLER_NAME.markup">VideoHandler</property>
  <property name="meta.attr.0.stream.VENDOR_ID.markup">[0][0][0][0]</property>
  <property name="meta.attr.0.stream.ENCODER.markup">Lavc60.31.102 libx264</property>
  <property name="meta.attr.0.stream.DURATION.markup">00:00:09.087000000</property>
  <property name="meta.media.1.stream.type">audio</property>
  <property name="meta.media.1.codec.sample_fmt">fltp</property>
  <property name="meta.media.1.codec.sample_rate">48000</property>
  <property name="meta.media.1.codec.channels">2</property>
  <property name="meta.media.1.codec.name">vorbis</property>
  <property name="meta.media.1.codec.long_name">Vorbis</property>
  <property name="meta.media.1.codec.bit_rate">0</property>
  <property name="meta.attr.1.stream.HANDLER_NAME.markup">SoundHandler</property>
  <property name="meta.attr.1.stream.VENDOR_ID.markup">[0][0][0][0]</property>
  <property name="meta.attr.1.stream.ENCODER.markup">Lavc60.31.102 libvorbis</property>
  <property name="meta.attr.1.stream.DURATION.markup">00:00:09.091000000</property>
  <property name="meta.attr.COMPATIBLE_BRANDS.markup">isomiso2mp41</property>
  <property name="meta.attr.MAJOR_BRAND.markup">isom</property>
  <property name="meta.attr.MINOR_VERSION.markup">512</property>
  <property name="meta.attr.ENCODER.markup">Lavf60.16.100</property>
  <property name="seekable">1</property>
  <property name="meta.media.sample_aspect_num">1</property>
  <property name="meta.media.sample_aspect_den">1</property>
  <property name="aspect_ratio">1</property>
  <property name="format">3</property>
  <property name="kdenlive:clipname"/>
  <property name="meta.media.frame_rate_num">60</property>
  <property name="meta.media.frame_rate_den">1</property>
  <property name="meta.media.colorspace">709</property>
  <property name="meta.media.color_trc">1</property>
  <property name="meta.media.has_b_frames">2</property>
  <property name="meta.media.width">1920</property>
  <property name="meta.media.height">1080</property>
  <property name="meta.media.color_range">mpeg</property>
  <property name="meta.media.top_field_first">0</property>
  <property name="meta.media.progressive">1</property>
  <property name="kdenlive:clip_type">0</property>
  <property name="kdenlive:folderid">450</property>
  <property name="kdenlive:id">492</property>
  <property name="kdenlive:file_size">2437470</property>
  <property name="kdenlive:file_hash">dd0fb98bc67ac5a7d6f30538ddfc4f51</property>
  <property name="kdenlive:audio_max1">1</property>
 </producer>
 <producer id="producer450" in="00:00:00.000" out="00:00:01.433">
  <property name="length">87</property>
  <property name="eof">pause</property>
  <property name="resource">/home/federico/Nextcloud/Kden/EditingUT/Video/Fraws/fraws_ooooh_cute.mkv</property>
  <property name="audio_index">1</property>
  <property name="video_index">0</property>
  <property name="mute_on_pause">0</property>
  <property name="mlt_service">avformat-novalidate</property>
  <property name="meta.media.nb_streams">2</property>
  <property name="meta.media.0.stream.type">video</property>
  <property name="meta.media.0.stream.frame_rate">60</property>
  <property name="meta.media.0.stream.sample_aspect_ratio">1</property>
  <property name="meta.media.0.codec.width">1920</property>
  <property name="meta.media.0.codec.height">1080</property>
  <property name="meta.media.0.codec.rotate">0</property>
  <property name="meta.media.0.codec.pix_fmt">yuv420p</property>
  <property name="meta.media.0.codec.sample_aspect_ratio">1</property>
  <property name="meta.media.0.codec.colorspace">709</property>
  <property name="meta.media.0.codec.color_trc">1</property>
  <property name="meta.media.0.codec.name">h264</property>
  <property name="meta.media.0.codec.long_name">H.264 / AVC / MPEG-4 AVC / MPEG-4 part 10</property>
  <property name="meta.media.0.codec.bit_rate">0</property>
  <property name="meta.attr.0.stream.HANDLER_NAME.markup">VideoHandler</property>
  <property name="meta.attr.0.stream.VENDOR_ID.markup">[0][0][0][0]</property>
  <property name="meta.attr.0.stream.ENCODER.markup">Lavc60.31.102 libx264</property>
  <property name="meta.attr.0.stream.DURATION.markup">00:00:01.437000000</property>
  <property name="meta.media.1.stream.type">audio</property>
  <property name="meta.media.1.codec.sample_fmt">fltp</property>
  <property name="meta.media.1.codec.sample_rate">48000</property>
  <property name="meta.media.1.codec.channels">2</property>
  <property name="meta.media.1.codec.name">vorbis</property>
  <property name="meta.media.1.codec.long_name">Vorbis</property>
  <property name="meta.media.1.codec.bit_rate">0</property>
  <property name="meta.attr.1.stream.HANDLER_NAME.markup">SoundHandler</property>
  <property name="meta.attr.1.stream.VENDOR_ID.markup">[0][0][0][0]</property>
  <property name="meta.attr.1.stream.ENCODER.markup">Lavc60.31.102 libvorbis</property>
  <property name="meta.attr.1.stream.DURATION.markup">00:00:01.454000000</property>
  <property name="meta.attr.COMPATIBLE_BRANDS.markup">isomiso2mp41</property>
  <property name="meta.attr.MAJOR_BRAND.markup">isom</property>
  <property name="meta.attr.MINOR_VERSION.markup">512</property>
  <property name="meta.attr.ENCODER.markup">Lavf60.16.100</property>
  <property name="seekable">1</property>
  <property name="meta.media.sample_aspect_num">1</property>
  <property name="meta.media.sample_aspect_den">1</property>
  <property name="aspect_ratio">1</property>
  <property name="format">3</property>
  <property name="kdenlive:clipname"/>
  <property name="meta.media.frame_rate_num">60</property>
  <property name="meta.media.frame_rate_den">1</property>
  <property name="meta.media.colorspace">709</property>
  <property name="meta.media.color_trc">1</property>
  <property name="meta.media.has_b_frames">2</property>
  <property name="meta.media.width">1920</property>
  <property name="meta.media.height">1080</property>
  <property name="meta.media.color_range">mpeg</property>
  <property name="meta.media.top_field_first">0</property>
  <property name="meta.media.progressive">1</property>
  <property name="kdenlive:clip_type">0</property>
  <property name="kdenlive:folderid">450</property>
  <property name="kdenlive:id">493</property>
  <property name="kdenlive:file_size">572654</property>
  <property name="kdenlive:file_hash">1d5be80e181673ba00b59a3c96f55a16</property>
  <property name="kdenlive:audio_max1">217</property>
 </producer>
 <producer id="producer451" in="00:00:00.000" out="00:00:02.033">
  <property name="length">123</property>
  <property name="eof">pause</property>
  <property name="resource">/home/federico/Nextcloud/Kden/EditingUT/Video/Fraws/fraws_patriota.mkv</property>
  <property name="audio_index">1</property>
  <property name="video_index">0</property>
  <property name="mute_on_pause">0</property>
  <property name="mlt_service">avformat-novalidate</property>
  <property name="meta.media.nb_streams">2</property>
  <property name="meta.media.0.stream.type">video</property>
  <property name="meta.media.0.stream.frame_rate">60</property>
  <property name="meta.media.0.stream.sample_aspect_ratio">1</property>
  <property name="meta.media.0.codec.width">1920</property>
  <property name="meta.media.0.codec.height">1080</property>
  <property name="meta.media.0.codec.rotate">0</property>
  <property name="meta.media.0.codec.pix_fmt">yuv420p</property>
  <property name="meta.media.0.codec.sample_aspect_ratio">1</property>
  <property name="meta.media.0.codec.colorspace">709</property>
  <property name="meta.media.0.codec.color_trc">1</property>
  <property name="meta.media.0.codec.name">h264</property>
  <property name="meta.media.0.codec.long_name">H.264 / AVC / MPEG-4 AVC / MPEG-4 part 10</property>
  <property name="meta.media.0.codec.bit_rate">0</property>
  <property name="meta.attr.0.stream.HANDLER_NAME.markup">VideoHandler</property>
  <property name="meta.attr.0.stream.VENDOR_ID.markup">[0][0][0][0]</property>
  <property name="meta.attr.0.stream.ENCODER.markup">Lavc60.31.102 libx264</property>
  <property name="meta.attr.0.stream.DURATION.markup">00:00:02.037000000</property>
  <property name="meta.media.1.stream.type">audio</property>
  <property name="meta.media.1.codec.sample_fmt">fltp</property>
  <property name="meta.media.1.codec.sample_rate">48000</property>
  <property name="meta.media.1.codec.channels">2</property>
  <property name="meta.media.1.codec.name">vorbis</property>
  <property name="meta.media.1.codec.long_name">Vorbis</property>
  <property name="meta.media.1.codec.bit_rate">0</property>
  <property name="meta.attr.1.stream.HANDLER_NAME.markup">SoundHandler</property>
  <property name="meta.attr.1.stream.VENDOR_ID.markup">[0][0][0][0]</property>
  <property name="meta.attr.1.stream.ENCODER.markup">Lavc60.31.102 libvorbis</property>
  <property name="meta.attr.1.stream.DURATION.markup">00:00:02.051000000</property>
  <property name="meta.attr.COMPATIBLE_BRANDS.markup">isomiso2mp41</property>
  <property name="meta.attr.MAJOR_BRAND.markup">isom</property>
  <property name="meta.attr.MINOR_VERSION.markup">512</property>
  <property name="meta.attr.ENCODER.markup">Lavf60.16.100</property>
  <property name="seekable">1</property>
  <property name="meta.media.sample_aspect_num">1</property>
  <property name="meta.media.sample_aspect_den">1</property>
  <property name="aspect_ratio">1</property>
  <property name="format">3</property>
  <property name="kdenlive:clipname"/>
  <property name="meta.media.frame_rate_num">60</property>
  <property name="meta.media.frame_rate_den">1</property>
  <property name="meta.media.colorspace">709</property>
  <property name="meta.media.color_trc">1</property>
  <property name="meta.media.has_b_frames">2</property>
  <property name="meta.media.width">1920</property>
  <property name="meta.media.height">1080</property>
  <property name="meta.media.color_range">mpeg</property>
  <property name="meta.media.top_field_first">0</property>
  <property name="meta.media.progressive">1</property>
  <property name="kdenlive:clip_type">0</property>
  <property name="kdenlive:folderid">450</property>
  <property name="kdenlive:id">494</property>
  <property name="kdenlive:file_size">519948</property>
  <property name="kdenlive:file_hash">c15c0bb2d69d3fb4f2e532a3cc7c1ae0</property>
  <property name="kdenlive:audio_max1">195</property>
 </producer>
 <producer id="producer453" in="00:00:00.000" out="00:00:04.867">
  <property name="length">293</property>
  <property name="eof">pause</property>
  <property name="resource">/home/federico/Nextcloud/Kden/EditingUT/Video/Fraws/fraws_pistola_doppia.mkv</property>
  <property name="audio_index">1</property>
  <property name="video_index">0</property>
  <property name="mute_on_pause">0</property>
  <property name="mlt_service">avformat-novalidate</property>
  <property name="meta.media.nb_streams">2</property>
  <property name="meta.media.0.stream.type">video</property>
  <property name="meta.media.0.stream.frame_rate">60</property>
  <property name="meta.media.0.stream.sample_aspect_ratio">1</property>
  <property name="meta.media.0.codec.width">1920</property>
  <property name="meta.media.0.codec.height">1080</property>
  <property name="meta.media.0.codec.rotate">0</property>
  <property name="meta.media.0.codec.pix_fmt">yuv420p</property>
  <property name="meta.media.0.codec.sample_aspect_ratio">1</property>
  <property name="meta.media.0.codec.colorspace">709</property>
  <property name="meta.media.0.codec.color_trc">1</property>
  <property name="meta.media.0.codec.name">h264</property>
  <property name="meta.media.0.codec.long_name">H.264 / AVC / MPEG-4 AVC / MPEG-4 part 10</property>
  <property name="meta.media.0.codec.bit_rate">0</property>
  <property name="meta.attr.0.stream.HANDLER_NAME.markup">VideoHandler</property>
  <property name="meta.attr.0.stream.VENDOR_ID.markup">[0][0][0][0]</property>
  <property name="meta.attr.0.stream.ENCODER.markup">Lavc60.31.102 libx264</property>
  <property name="meta.attr.0.stream.DURATION.markup">00:00:04.870000000</property>
  <property name="meta.media.1.stream.type">audio</property>
  <property name="meta.media.1.codec.sample_fmt">fltp</property>
  <property name="meta.media.1.codec.sample_rate">48000</property>
  <property name="meta.media.1.codec.channels">2</property>
  <property name="meta.media.1.codec.name">vorbis</property>
  <property name="meta.media.1.codec.long_name">Vorbis</property>
  <property name="meta.media.1.codec.bit_rate">0</property>
  <property name="meta.attr.1.stream.HANDLER_NAME.markup">SoundHandler</property>
  <property name="meta.attr.1.stream.VENDOR_ID.markup">[0][0][0][0]</property>
  <property name="meta.attr.1.stream.ENCODER.markup">Lavc60.31.102 libvorbis</property>
  <property name="meta.attr.1.stream.DURATION.markup">00:00:04.889000000</property>
  <property name="meta.attr.COMPATIBLE_BRANDS.markup">isomiso2mp41</property>
  <property name="meta.attr.MAJOR_BRAND.markup">isom</property>
  <property name="meta.attr.MINOR_VERSION.markup">512</property>
  <property name="meta.attr.ENCODER.markup">Lavf60.16.100</property>
  <property name="seekable">1</property>
  <property name="meta.media.sample_aspect_num">1</property>
  <property name="meta.media.sample_aspect_den">1</property>
  <property name="aspect_ratio">1</property>
  <property name="format">3</property>
  <property name="kdenlive:clipname"/>
  <property name="meta.media.frame_rate_num">60</property>
  <property name="meta.media.frame_rate_den">1</property>
  <property name="meta.media.colorspace">709</property>
  <property name="meta.media.color_trc">1</property>
  <property name="meta.media.has_b_frames">2</property>
  <property name="meta.media.width">1920</property>
  <property name="meta.media.height">1080</property>
  <property name="meta.media.color_range">mpeg</property>
  <property name="meta.media.top_field_first">0</property>
  <property name="meta.media.progressive">1</property>
  <property name="kdenlive:clip_type">0</property>
  <property name="kdenlive:folderid">450</property>
  <property name="kdenlive:id">495</property>
  <property name="kdenlive:file_size">3722948</property>
  <property name="kdenlive:file_hash">2c77773f15c77321aef1067cf8e79a2c</property>
  <property name="kdenlive:audio_max1">195</property>
 </producer>
 <producer id="producer452" in="00:00:00.000" out="00:00:02.467">
  <property name="length">149</property>
  <property name="eof">pause</property>
  <property name="resource">/home/federico/Nextcloud/Kden/EditingUT/Video/Fraws/fraws_pistola_suicidio.mkv</property>
  <property name="audio_index">1</property>
  <property name="video_index">0</property>
  <property name="mute_on_pause">0</property>
  <property name="mlt_service">avformat-novalidate</property>
  <property name="meta.media.nb_streams">2</property>
  <property name="meta.media.0.stream.type">video</property>
  <property name="meta.media.0.stream.frame_rate">60</property>
  <property name="meta.media.0.stream.sample_aspect_ratio">1</property>
  <property name="meta.media.0.codec.width">1920</property>
  <property name="meta.media.0.codec.height">1080</property>
  <property name="meta.media.0.codec.rotate">0</property>
  <property name="meta.media.0.codec.pix_fmt">yuv420p</property>
  <property name="meta.media.0.codec.sample_aspect_ratio">1</property>
  <property name="meta.media.0.codec.colorspace">709</property>
  <property name="meta.media.0.codec.color_trc">1</property>
  <property name="meta.media.0.codec.name">h264</property>
  <property name="meta.media.0.codec.long_name">H.264 / AVC / MPEG-4 AVC / MPEG-4 part 10</property>
  <property name="meta.media.0.codec.bit_rate">0</property>
  <property name="meta.attr.0.stream.HANDLER_NAME.markup">VideoHandler</property>
  <property name="meta.attr.0.stream.VENDOR_ID.markup">[0][0][0][0]</property>
  <property name="meta.attr.0.stream.ENCODER.markup">Lavc60.31.102 libx264</property>
  <property name="meta.attr.0.stream.DURATION.markup">00:00:02.470000000</property>
  <property name="meta.media.1.stream.type">audio</property>
  <property name="meta.media.1.codec.sample_fmt">fltp</property>
  <property name="meta.media.1.codec.sample_rate">48000</property>
  <property name="meta.media.1.codec.channels">2</property>
  <property name="meta.media.1.codec.name">vorbis</property>
  <property name="meta.media.1.codec.long_name">Vorbis</property>
  <property name="meta.media.1.codec.bit_rate">0</property>
  <property name="meta.attr.1.stream.HANDLER_NAME.markup">SoundHandler</property>
  <property name="meta.attr.1.stream.VENDOR_ID.markup">[0][0][0][0]</property>
  <property name="meta.attr.1.stream.ENCODER.markup">Lavc60.31.102 libvorbis</property>
  <property name="meta.attr.1.stream.DURATION.markup">00:00:02.477000000</property>
  <property name="meta.attr.COMPATIBLE_BRANDS.markup">isomiso2mp41</property>
  <property name="meta.attr.MAJOR_BRAND.markup">isom</property>
  <property name="meta.attr.MINOR_VERSION.markup">512</property>
  <property name="meta.attr.ENCODER.markup">Lavf60.16.100</property>
  <property name="seekable">1</property>
  <property name="meta.media.sample_aspect_num">1</property>
  <property name="meta.media.sample_aspect_den">1</property>
  <property name="aspect_ratio">1</property>
  <property name="format">3</property>
  <property name="kdenlive:clipname"/>
  <property name="meta.media.frame_rate_num">60</property>
  <property name="meta.media.frame_rate_den">1</property>
  <property name="meta.media.colorspace">709</property>
  <property name="meta.media.color_trc">1</property>
  <property name="meta.media.has_b_frames">2</property>
  <property name="meta.media.width">1920</property>
  <property name="meta.media.height">1080</property>
  <property name="meta.media.color_range">mpeg</property>
  <property name="meta.media.top_field_first">0</property>
  <property name="meta.media.progressive">1</property>
  <property name="kdenlive:clip_type">0</property>
  <property name="kdenlive:folderid">450</property>
  <property name="kdenlive:id">496</property>
  <property name="kdenlive:file_size">921815</property>
  <property name="kdenlive:file_hash">6276588d35eee86f4d711a20a58a58a1</property>
  <property name="kdenlive:audio_max1">170</property>
 </producer>
 <producer id="producer454" in="00:00:00.000" out="00:00:16.133">
  <property name="length">969</property>
  <property name="eof">pause</property>
  <property name="resource">/home/federico/Nextcloud/Kden/EditingUT/Video/Fraws/fraws_porta_meme.mkv</property>
  <property name="audio_index">1</property>
  <property name="video_index">0</property>
  <property name="mute_on_pause">0</property>
  <property name="mlt_service">avformat-novalidate</property>
  <property name="meta.media.nb_streams">2</property>
  <property name="meta.media.0.stream.type">video</property>
  <property name="meta.media.0.stream.frame_rate">60</property>
  <property name="meta.media.0.stream.sample_aspect_ratio">1</property>
  <property name="meta.media.0.codec.width">1920</property>
  <property name="meta.media.0.codec.height">1080</property>
  <property name="meta.media.0.codec.rotate">0</property>
  <property name="meta.media.0.codec.pix_fmt">yuv420p</property>
  <property name="meta.media.0.codec.sample_aspect_ratio">1</property>
  <property name="meta.media.0.codec.colorspace">709</property>
  <property name="meta.media.0.codec.color_trc">1</property>
  <property name="meta.media.0.codec.name">h264</property>
  <property name="meta.media.0.codec.long_name">H.264 / AVC / MPEG-4 AVC / MPEG-4 part 10</property>
  <property name="meta.media.0.codec.bit_rate">0</property>
  <property name="meta.attr.0.stream.HANDLER_NAME.markup">VideoHandler</property>
  <property name="meta.attr.0.stream.VENDOR_ID.markup">[0][0][0][0]</property>
  <property name="meta.attr.0.stream.ENCODER.markup">Lavc60.31.102 libx264</property>
  <property name="meta.attr.0.stream.DURATION.markup">00:00:16.137000000</property>
  <property name="meta.media.1.stream.type">audio</property>
  <property name="meta.media.1.codec.sample_fmt">fltp</property>
  <property name="meta.media.1.codec.sample_rate">48000</property>
  <property name="meta.media.1.codec.channels">2</property>
  <property name="meta.media.1.codec.name">vorbis</property>
  <property name="meta.media.1.codec.long_name">Vorbis</property>
  <property name="meta.media.1.codec.bit_rate">0</property>
  <property name="meta.attr.1.stream.HANDLER_NAME.markup">SoundHandler</property>
  <property name="meta.attr.1.stream.VENDOR_ID.markup">[0][0][0][0]</property>
  <property name="meta.attr.1.stream.ENCODER.markup">Lavc60.31.102 libvorbis</property>
  <property name="meta.attr.1.stream.DURATION.markup">00:00:16.152000000</property>
  <property name="meta.attr.COMPATIBLE_BRANDS.markup">isomiso2mp41</property>
  <property name="meta.attr.MAJOR_BRAND.markup">isom</property>
  <property name="meta.attr.MINOR_VERSION.markup">512</property>
  <property name="meta.attr.ENCODER.markup">Lavf60.16.100</property>
  <property name="seekable">1</property>
  <property name="meta.media.sample_aspect_num">1</property>
  <property name="meta.media.sample_aspect_den">1</property>
  <property name="aspect_ratio">1</property>
  <property name="format">3</property>
  <property name="kdenlive:clipname"/>
  <property name="meta.media.frame_rate_num">60</property>
  <property name="meta.media.frame_rate_den">1</property>
  <property name="meta.media.colorspace">709</property>
  <property name="meta.media.color_trc">1</property>
  <property name="meta.media.has_b_frames">2</property>
  <property name="meta.media.width">1920</property>
  <property name="meta.media.height">1080</property>
  <property name="meta.media.color_range">mpeg</property>
  <property name="meta.media.top_field_first">0</property>
  <property name="meta.media.progressive">1</property>
  <property name="kdenlive:clip_type">0</property>
  <property name="kdenlive:folderid">450</property>
  <property name="kdenlive:id">497</property>
  <property name="kdenlive:file_size">5897849</property>
  <property name="kdenlive:file_hash">d5182378c428b132e1a69d7d63c88557</property>
  <property name="kdenlive:audio_max1">220</property>
 </producer>
 <producer id="producer455" in="00:00:00.000" out="00:00:05.717">
  <property name="length">344</property>
  <property name="eof">pause</property>
  <property name="resource">/home/federico/Nextcloud/Kden/EditingUT/Video/Fraws/fraws_profilo_psicologico.mkv</property>
  <property name="audio_index">1</property>
  <property name="video_index">0</property>
  <property name="mute_on_pause">0</property>
  <property name="mlt_service">avformat-novalidate</property>
  <property name="meta.media.nb_streams">2</property>
  <property name="meta.media.0.stream.type">video</property>
  <property name="meta.media.0.stream.frame_rate">60</property>
  <property name="meta.media.0.stream.sample_aspect_ratio">1</property>
  <property name="meta.media.0.codec.width">1920</property>
  <property name="meta.media.0.codec.height">1080</property>
  <property name="meta.media.0.codec.rotate">0</property>
  <property name="meta.media.0.codec.pix_fmt">yuv420p</property>
  <property name="meta.media.0.codec.sample_aspect_ratio">1</property>
  <property name="meta.media.0.codec.colorspace">709</property>
  <property name="meta.media.0.codec.color_trc">1</property>
  <property name="meta.media.0.codec.name">h264</property>
  <property name="meta.media.0.codec.long_name">H.264 / AVC / MPEG-4 AVC / MPEG-4 part 10</property>
  <property name="meta.media.0.codec.bit_rate">0</property>
  <property name="meta.attr.0.stream.HANDLER_NAME.markup">VideoHandler</property>
  <property name="meta.attr.0.stream.VENDOR_ID.markup">[0][0][0][0]</property>
  <property name="meta.attr.0.stream.ENCODER.markup">Lavc60.31.102 libx264</property>
  <property name="meta.attr.0.stream.DURATION.markup">00:00:05.737000000</property>
  <property name="meta.media.1.stream.type">audio</property>
  <property name="meta.media.1.codec.sample_fmt">fltp</property>
  <property name="meta.media.1.codec.sample_rate">48000</property>
  <property name="meta.media.1.codec.channels">2</property>
  <property name="meta.media.1.codec.name">vorbis</property>
  <property name="meta.media.1.codec.long_name">Vorbis</property>
  <property name="meta.media.1.codec.bit_rate">0</property>
  <property name="meta.attr.1.stream.HANDLER_NAME.markup">SoundHandler</property>
  <property name="meta.attr.1.stream.VENDOR_ID.markup">[0][0][0][0]</property>
  <property name="meta.attr.1.stream.ENCODER.markup">Lavc60.31.102 libvorbis</property>
  <property name="meta.attr.1.stream.DURATION.markup">00:00:05.741000000</property>
  <property name="meta.attr.COMPATIBLE_BRANDS.markup">isomiso2mp41</property>
  <property name="meta.attr.MAJOR_BRAND.markup">isom</property>
  <property name="meta.attr.MINOR_VERSION.markup">512</property>
  <property name="meta.attr.ENCODER.markup">Lavf60.16.100</property>
  <property name="seekable">1</property>
  <property name="meta.media.sample_aspect_num">1</property>
  <property name="meta.media.sample_aspect_den">1</property>
  <property name="aspect_ratio">1</property>
  <property name="format">3</property>
  <property name="kdenlive:clipname"/>
  <property name="meta.media.frame_rate_num">60</property>
  <property name="meta.media.frame_rate_den">1</property>
  <property name="meta.media.colorspace">709</property>
  <property name="meta.media.color_trc">1</property>
  <property name="meta.media.has_b_frames">2</property>
  <property name="meta.media.width">1920</property>
  <property name="meta.media.height">1080</property>
  <property name="meta.media.color_range">mpeg</property>
  <property name="meta.media.top_field_first">0</property>
  <property name="meta.media.progressive">1</property>
  <property name="kdenlive:clip_type">0</property>
  <property name="kdenlive:folderid">450</property>
  <property name="kdenlive:id">498</property>
  <property name="kdenlive:file_size">2393439</property>
  <property name="kdenlive:file_hash">4a8bb7cf26f029fd7d10c301adf7230d</property>
  <property name="kdenlive:audio_max1">154</property>
 </producer>
 <producer id="producer456" in="00:00:00.000" out="00:00:02.550">
  <property name="length">154</property>
  <property name="eof">pause</property>
  <property name="resource">/home/federico/Nextcloud/Kden/EditingUT/Video/Fraws/fraws_questa_e_benzina.mkv</property>
  <property name="audio_index">1</property>
  <property name="video_index">0</property>
  <property name="mute_on_pause">0</property>
  <property name="mlt_service">avformat-novalidate</property>
  <property name="meta.media.nb_streams">2</property>
  <property name="meta.media.0.stream.type">video</property>
  <property name="meta.media.0.stream.frame_rate">60</property>
  <property name="meta.media.0.stream.sample_aspect_ratio">1</property>
  <property name="meta.media.0.codec.width">1920</property>
  <property name="meta.media.0.codec.height">1080</property>
  <property name="meta.media.0.codec.rotate">0</property>
  <property name="meta.media.0.codec.pix_fmt">yuv420p</property>
  <property name="meta.media.0.codec.sample_aspect_ratio">1</property>
  <property name="meta.media.0.codec.colorspace">709</property>
  <property name="meta.media.0.codec.color_trc">1</property>
  <property name="meta.media.0.codec.name">h264</property>
  <property name="meta.media.0.codec.long_name">H.264 / AVC / MPEG-4 AVC / MPEG-4 part 10</property>
  <property name="meta.media.0.codec.bit_rate">0</property>
  <property name="meta.attr.0.stream.HANDLER_NAME.markup">VideoHandler</property>
  <property name="meta.attr.0.stream.VENDOR_ID.markup">[0][0][0][0]</property>
  <property name="meta.attr.0.stream.ENCODER.markup">Lavc60.31.102 libx264</property>
  <property name="meta.attr.0.stream.DURATION.markup">00:00:02.553000000</property>
  <property name="meta.media.1.stream.type">audio</property>
  <property name="meta.media.1.codec.sample_fmt">fltp</property>
  <property name="meta.media.1.codec.sample_rate">48000</property>
  <property name="meta.media.1.codec.channels">2</property>
  <property name="meta.media.1.codec.name">vorbis</property>
  <property name="meta.media.1.codec.long_name">Vorbis</property>
  <property name="meta.media.1.codec.bit_rate">0</property>
  <property name="meta.attr.1.stream.HANDLER_NAME.markup">SoundHandler</property>
  <property name="meta.attr.1.stream.VENDOR_ID.markup">[0][0][0][0]</property>
  <property name="meta.attr.1.stream.ENCODER.markup">Lavc60.31.102 libvorbis</property>
  <property name="meta.attr.1.stream.DURATION.markup">00:00:02.563000000</property>
  <property name="meta.attr.COMPATIBLE_BRANDS.markup">isomiso2mp41</property>
  <property name="meta.attr.MAJOR_BRAND.markup">isom</property>
  <property name="meta.attr.MINOR_VERSION.markup">512</property>
  <property name="meta.attr.ENCODER.markup">Lavf60.16.100</property>
  <property name="seekable">1</property>
  <property name="meta.media.sample_aspect_num">1</property>
  <property name="meta.media.sample_aspect_den">1</property>
  <property name="aspect_ratio">1</property>
  <property name="format">3</property>
  <property name="kdenlive:clipname"/>
  <property name="meta.media.frame_rate_num">60</property>
  <property name="meta.media.frame_rate_den">1</property>
  <property name="meta.media.colorspace">709</property>
  <property name="meta.media.color_trc">1</property>
  <property name="meta.media.has_b_frames">2</property>
  <property name="meta.media.width">1920</property>
  <property name="meta.media.height">1080</property>
  <property name="meta.media.color_range">mpeg</property>
  <property name="meta.media.top_field_first">0</property>
  <property name="meta.media.progressive">1</property>
  <property name="kdenlive:clip_type">0</property>
  <property name="kdenlive:folderid">450</property>
  <property name="kdenlive:id">499</property>
  <property name="kdenlive:file_size">1149645</property>
  <property name="kdenlive:file_hash">0b77d55a8da6df68cd8ce591ba5aad0d</property>
  <property name="kdenlive:audio_max1">154</property>
 </producer>
 <producer id="producer458" in="00:00:00.000" out="00:00:03.783">
  <property name="length">228</property>
  <property name="eof">pause</property>
  <property name="resource">/home/federico/Nextcloud/Kden/EditingUT/Video/Fraws/fraws_risata_satanica.mkv</property>
  <property name="audio_index">1</property>
  <property name="video_index">0</property>
  <property name="mute_on_pause">0</property>
  <property name="mlt_service">avformat-novalidate</property>
  <property name="meta.media.nb_streams">2</property>
  <property name="meta.media.0.stream.type">video</property>
  <property name="meta.media.0.stream.frame_rate">60</property>
  <property name="meta.media.0.stream.sample_aspect_ratio">1</property>
  <property name="meta.media.0.codec.width">1920</property>
  <property name="meta.media.0.codec.height">1080</property>
  <property name="meta.media.0.codec.rotate">0</property>
  <property name="meta.media.0.codec.pix_fmt">yuv420p</property>
  <property name="meta.media.0.codec.sample_aspect_ratio">1</property>
  <property name="meta.media.0.codec.colorspace">709</property>
  <property name="meta.media.0.codec.color_trc">1</property>
  <property name="meta.media.0.codec.name">h264</property>
  <property name="meta.media.0.codec.long_name">H.264 / AVC / MPEG-4 AVC / MPEG-4 part 10</property>
  <property name="meta.media.0.codec.bit_rate">0</property>
  <property name="meta.attr.0.stream.HANDLER_NAME.markup">VideoHandler</property>
  <property name="meta.attr.0.stream.VENDOR_ID.markup">[0][0][0][0]</property>
  <property name="meta.attr.0.stream.ENCODER.markup">Lavc60.31.102 libx264</property>
  <property name="meta.attr.0.stream.DURATION.markup">00:00:03.787000000</property>
  <property name="meta.media.1.stream.type">audio</property>
  <property name="meta.media.1.codec.sample_fmt">fltp</property>
  <property name="meta.media.1.codec.sample_rate">48000</property>
  <property name="meta.media.1.codec.channels">2</property>
  <property name="meta.media.1.codec.name">vorbis</property>
  <property name="meta.media.1.codec.long_name">Vorbis</property>
  <property name="meta.media.1.codec.bit_rate">0</property>
  <property name="meta.attr.1.stream.HANDLER_NAME.markup">SoundHandler</property>
  <property name="meta.attr.1.stream.VENDOR_ID.markup">[0][0][0][0]</property>
  <property name="meta.attr.1.stream.ENCODER.markup">Lavc60.31.102 libvorbis</property>
  <property name="meta.attr.1.stream.DURATION.markup">00:00:03.800000000</property>
  <property name="meta.attr.COMPATIBLE_BRANDS.markup">isomiso2mp41</property>
  <property name="meta.attr.MAJOR_BRAND.markup">isom</property>
  <property name="meta.attr.MINOR_VERSION.markup">512</property>
  <property name="meta.attr.ENCODER.markup">Lavf60.16.100</property>
  <property name="seekable">1</property>
  <property name="meta.media.sample_aspect_num">1</property>
  <property name="meta.media.sample_aspect_den">1</property>
  <property name="aspect_ratio">1</property>
  <property name="format">3</property>
  <property name="kdenlive:clipname"/>
  <property name="meta.media.frame_rate_num">60</property>
  <property name="meta.media.frame_rate_den">1</property>
  <property name="meta.media.colorspace">709</property>
  <property name="meta.media.color_trc">1</property>
  <property name="meta.media.has_b_frames">2</property>
  <property name="meta.media.width">1920</property>
  <property name="meta.media.height">1080</property>
  <property name="meta.media.color_range">mpeg</property>
  <property name="meta.media.top_field_first">0</property>
  <property name="meta.media.progressive">1</property>
  <property name="kdenlive:clip_type">0</property>
  <property name="kdenlive:folderid">450</property>
  <property name="kdenlive:id">500</property>
  <property name="kdenlive:file_size">2709955</property>
  <property name="kdenlive:file_hash">3dc1595566c581ed0789f5bc44763d6b</property>
  <property name="kdenlive:audio_max1">231</property>
 </producer>
 <producer id="producer459" in="00:00:00.000" out="00:00:02.167">
  <property name="length">131</property>
  <property name="eof">pause</property>
  <property name="resource">/home/federico/Nextcloud/Kden/EditingUT/Video/Fraws/fraws_risata_stanotte_mi_ammazzo.mkv</property>
  <property name="audio_index">1</property>
  <property name="video_index">0</property>
  <property name="mute_on_pause">0</property>
  <property name="mlt_service">avformat-novalidate</property>
  <property name="meta.media.nb_streams">2</property>
  <property name="meta.media.0.stream.type">video</property>
  <property name="meta.media.0.stream.frame_rate">60</property>
  <property name="meta.media.0.stream.sample_aspect_ratio">1</property>
  <property name="meta.media.0.codec.width">1920</property>
  <property name="meta.media.0.codec.height">1080</property>
  <property name="meta.media.0.codec.rotate">0</property>
  <property name="meta.media.0.codec.pix_fmt">yuv420p</property>
  <property name="meta.media.0.codec.sample_aspect_ratio">1</property>
  <property name="meta.media.0.codec.colorspace">709</property>
  <property name="meta.media.0.codec.color_trc">1</property>
  <property name="meta.media.0.codec.name">h264</property>
  <property name="meta.media.0.codec.long_name">H.264 / AVC / MPEG-4 AVC / MPEG-4 part 10</property>
  <property name="meta.media.0.codec.bit_rate">0</property>
  <property name="meta.attr.0.stream.HANDLER_NAME.markup">VideoHandler</property>
  <property name="meta.attr.0.stream.VENDOR_ID.markup">[0][0][0][0]</property>
  <property name="meta.attr.0.stream.ENCODER.markup">Lavc60.31.102 libx264</property>
  <property name="meta.attr.0.stream.DURATION.markup">00:00:02.170000000</property>
  <property name="meta.media.1.stream.type">audio</property>
  <property name="meta.media.1.codec.sample_fmt">fltp</property>
  <property name="meta.media.1.codec.sample_rate">48000</property>
  <property name="meta.media.1.codec.channels">2</property>
  <property name="meta.media.1.codec.name">vorbis</property>
  <property name="meta.media.1.codec.long_name">Vorbis</property>
  <property name="meta.media.1.codec.bit_rate">0</property>
  <property name="meta.attr.1.stream.HANDLER_NAME.markup">SoundHandler</property>
  <property name="meta.attr.1.stream.VENDOR_ID.markup">[0][0][0][0]</property>
  <property name="meta.attr.1.stream.ENCODER.markup">Lavc60.31.102 libvorbis</property>
  <property name="meta.attr.1.stream.DURATION.markup">00:00:02.179000000</property>
  <property name="meta.attr.COMPATIBLE_BRANDS.markup">isomiso2mp41</property>
  <property name="meta.attr.MAJOR_BRAND.markup">isom</property>
  <property name="meta.attr.MINOR_VERSION.markup">512</property>
  <property name="meta.attr.ENCODER.markup">Lavf60.16.100</property>
  <property name="seekable">1</property>
  <property name="meta.media.sample_aspect_num">1</property>
  <property name="meta.media.sample_aspect_den">1</property>
  <property name="aspect_ratio">1</property>
  <property name="format">3</property>
  <property name="kdenlive:clipname"/>
  <property name="meta.media.frame_rate_num">60</property>
  <property name="meta.media.frame_rate_den">1</property>
  <property name="meta.media.colorspace">709</property>
  <property name="meta.media.color_trc">1</property>
  <property name="meta.media.has_b_frames">2</property>
  <property name="meta.media.width">1920</property>
  <property name="meta.media.height">1080</property>
  <property name="meta.media.color_range">mpeg</property>
  <property name="meta.media.top_field_first">0</property>
  <property name="meta.media.progressive">1</property>
  <property name="kdenlive:clip_type">0</property>
  <property name="kdenlive:folderid">450</property>
  <property name="kdenlive:id">501</property>
  <property name="kdenlive:file_size">968906</property>
  <property name="kdenlive:file_hash">01a2096b1cd1e72bac78dd10974eb676</property>
  <property name="kdenlive:audio_max1">160</property>
 </producer>
 <producer id="producer457" in="00:00:00.000" out="00:00:15.283">
  <property name="length">918</property>
  <property name="eof">pause</property>
  <property name="resource">/home/federico/Nextcloud/Kden/EditingUT/Video/Fraws/fraws_rompe_pc_rage.mkv</property>
  <property name="audio_index">1</property>
  <property name="video_index">0</property>
  <property name="mute_on_pause">0</property>
  <property name="mlt_service">avformat-novalidate</property>
  <property name="meta.media.nb_streams">2</property>
  <property name="meta.media.0.stream.type">video</property>
  <property name="meta.media.0.stream.frame_rate">60</property>
  <property name="meta.media.0.stream.sample_aspect_ratio">1</property>
  <property name="meta.media.0.codec.width">1920</property>
  <property name="meta.media.0.codec.height">1080</property>
  <property name="meta.media.0.codec.rotate">0</property>
  <property name="meta.media.0.codec.pix_fmt">yuv420p</property>
  <property name="meta.media.0.codec.sample_aspect_ratio">1</property>
  <property name="meta.media.0.codec.colorspace">709</property>
  <property name="meta.media.0.codec.color_trc">1</property>
  <property name="meta.media.0.codec.name">h264</property>
  <property name="meta.media.0.codec.long_name">H.264 / AVC / MPEG-4 AVC / MPEG-4 part 10</property>
  <property name="meta.media.0.codec.bit_rate">0</property>
  <property name="meta.attr.0.stream.HANDLER_NAME.markup">VideoHandler</property>
  <property name="meta.attr.0.stream.VENDOR_ID.markup">[0][0][0][0]</property>
  <property name="meta.attr.0.stream.ENCODER.markup">Lavc60.31.102 libx264</property>
  <property name="meta.attr.0.stream.DURATION.markup">00:00:15.287000000</property>
  <property name="meta.media.1.stream.type">audio</property>
  <property name="meta.media.1.codec.sample_fmt">fltp</property>
  <property name="meta.media.1.codec.sample_rate">48000</property>
  <property name="meta.media.1.codec.channels">2</property>
  <property name="meta.media.1.codec.name">vorbis</property>
  <property name="meta.media.1.codec.long_name">Vorbis</property>
  <property name="meta.media.1.codec.bit_rate">0</property>
  <property name="meta.attr.1.stream.HANDLER_NAME.markup">SoundHandler</property>
  <property name="meta.attr.1.stream.VENDOR_ID.markup">[0][0][0][0]</property>
  <property name="meta.attr.1.stream.ENCODER.markup">Lavc60.31.102 libvorbis</property>
  <property name="meta.attr.1.stream.DURATION.markup">00:00:15.299000000</property>
  <property name="meta.attr.COMPATIBLE_BRANDS.markup">isomiso2mp41</property>
  <property name="meta.attr.MAJOR_BRAND.markup">isom</property>
  <property name="meta.attr.MINOR_VERSION.markup">512</property>
  <property name="meta.attr.ENCODER.markup">Lavf60.16.100</property>
  <property name="seekable">1</property>
  <property name="meta.media.sample_aspect_num">1</property>
  <property name="meta.media.sample_aspect_den">1</property>
  <property name="aspect_ratio">1</property>
  <property name="format">3</property>
  <property name="kdenlive:clipname"/>
  <property name="meta.media.frame_rate_num">60</property>
  <property name="meta.media.frame_rate_den">1</property>
  <property name="meta.media.colorspace">709</property>
  <property name="meta.media.color_trc">1</property>
  <property name="meta.media.has_b_frames">2</property>
  <property name="meta.media.width">1920</property>
  <property name="meta.media.height">1080</property>
  <property name="meta.media.color_range">mpeg</property>
  <property name="meta.media.top_field_first">0</property>
  <property name="meta.media.progressive">1</property>
  <property name="kdenlive:clip_type">0</property>
  <property name="kdenlive:folderid">450</property>
  <property name="kdenlive:id">502</property>
  <property name="kdenlive:file_size">5581755</property>
  <property name="kdenlive:file_hash">f21098b999115cd5414edecf152f6927</property>
  <property name="kdenlive:audio_max1">199</property>
 </producer>
 <producer id="producer461" in="00:00:00.000" out="00:00:06.233">
  <property name="length">375</property>
  <property name="eof">pause</property>
  <property name="resource">/home/federico/Nextcloud/Kden/EditingUT/Video/Fraws/fraws_senza_audio_meme.mkv</property>
  <property name="audio_index">1</property>
  <property name="video_index">0</property>
  <property name="mute_on_pause">0</property>
  <property name="mlt_service">avformat-novalidate</property>
  <property name="meta.media.nb_streams">2</property>
  <property name="meta.media.0.stream.type">video</property>
  <property name="meta.media.0.stream.frame_rate">60</property>
  <property name="meta.media.0.stream.sample_aspect_ratio">1</property>
  <property name="meta.media.0.codec.width">1920</property>
  <property name="meta.media.0.codec.height">1080</property>
  <property name="meta.media.0.codec.rotate">0</property>
  <property name="meta.media.0.codec.pix_fmt">yuv420p</property>
  <property name="meta.media.0.codec.sample_aspect_ratio">1</property>
  <property name="meta.media.0.codec.colorspace">709</property>
  <property name="meta.media.0.codec.color_trc">1</property>
  <property name="meta.media.0.codec.name">h264</property>
  <property name="meta.media.0.codec.long_name">H.264 / AVC / MPEG-4 AVC / MPEG-4 part 10</property>
  <property name="meta.media.0.codec.bit_rate">0</property>
  <property name="meta.attr.0.stream.HANDLER_NAME.markup">VideoHandler</property>
  <property name="meta.attr.0.stream.VENDOR_ID.markup">[0][0][0][0]</property>
  <property name="meta.attr.0.stream.ENCODER.markup">Lavc60.31.102 libx264</property>
  <property name="meta.attr.0.stream.DURATION.markup">00:00:06.253000000</property>
  <property name="meta.media.1.stream.type">audio</property>
  <property name="meta.media.1.codec.sample_fmt">fltp</property>
  <property name="meta.media.1.codec.sample_rate">48000</property>
  <property name="meta.media.1.codec.channels">2</property>
  <property name="meta.media.1.codec.name">vorbis</property>
  <property name="meta.media.1.codec.long_name">Vorbis</property>
  <property name="meta.media.1.codec.bit_rate">0</property>
  <property name="meta.attr.1.stream.HANDLER_NAME.markup">SoundHandler</property>
  <property name="meta.attr.1.stream.VENDOR_ID.markup">[0][0][0][0]</property>
  <property name="meta.attr.1.stream.ENCODER.markup">Lavc60.31.102 libvorbis</property>
  <property name="meta.attr.1.stream.DURATION.markup">00:00:06.254000000</property>
  <property name="meta.attr.COMPATIBLE_BRANDS.markup">isomiso2mp41</property>
  <property name="meta.attr.MAJOR_BRAND.markup">isom</property>
  <property name="meta.attr.MINOR_VERSION.markup">512</property>
  <property name="meta.attr.ENCODER.markup">Lavf60.16.100</property>
  <property name="seekable">1</property>
  <property name="meta.media.sample_aspect_num">1</property>
  <property name="meta.media.sample_aspect_den">1</property>
  <property name="aspect_ratio">1</property>
  <property name="format">3</property>
  <property name="kdenlive:clipname"/>
  <property name="meta.media.frame_rate_num">60</property>
  <property name="meta.media.frame_rate_den">1</property>
  <property name="meta.media.colorspace">709</property>
  <property name="meta.media.color_trc">1</property>
  <property name="meta.media.has_b_frames">2</property>
  <property name="meta.media.width">1920</property>
  <property name="meta.media.height">1080</property>
  <property name="meta.media.color_range">mpeg</property>
  <property name="meta.media.top_field_first">0</property>
  <property name="meta.media.progressive">1</property>
  <property name="kdenlive:clip_type">0</property>
  <property name="kdenlive:folderid">450</property>
  <property name="kdenlive:id">503</property>
  <property name="kdenlive:file_size">1572157</property>
  <property name="kdenlive:file_hash">2fc06707fff7b54652e0326c1237bd82</property>
  <property name="kdenlive:audio_max1">216</property>
 </producer>
 <producer id="producer460" in="00:00:00.000" out="00:00:04.417">
  <property name="length">266</property>
  <property name="eof">pause</property>
  <property name="resource">/home/federico/Nextcloud/Kden/EditingUT/Video/Fraws/fraws_sguardo_focussato_meme.mkv</property>
  <property name="audio_index">1</property>
  <property name="video_index">0</property>
  <property name="mute_on_pause">0</property>
  <property name="mlt_service">avformat-novalidate</property>
  <property name="meta.media.nb_streams">2</property>
  <property name="meta.media.0.stream.type">video</property>
  <property name="meta.media.0.stream.frame_rate">60</property>
  <property name="meta.media.0.stream.sample_aspect_ratio">1</property>
  <property name="meta.media.0.codec.width">1920</property>
  <property name="meta.media.0.codec.height">1080</property>
  <property name="meta.media.0.codec.rotate">0</property>
  <property name="meta.media.0.codec.pix_fmt">yuv420p</property>
  <property name="meta.media.0.codec.sample_aspect_ratio">1</property>
  <property name="meta.media.0.codec.colorspace">709</property>
  <property name="meta.media.0.codec.color_trc">1</property>
  <property name="meta.media.0.codec.name">h264</property>
  <property name="meta.media.0.codec.long_name">H.264 / AVC / MPEG-4 AVC / MPEG-4 part 10</property>
  <property name="meta.media.0.codec.bit_rate">0</property>
  <property name="meta.attr.0.stream.HANDLER_NAME.markup">VideoHandler</property>
  <property name="meta.attr.0.stream.VENDOR_ID.markup">[0][0][0][0]</property>
  <property name="meta.attr.0.stream.ENCODER.markup">Lavc60.31.102 libx264</property>
  <property name="meta.attr.0.stream.DURATION.markup">00:00:04.437000000</property>
  <property name="meta.media.1.stream.type">audio</property>
  <property name="meta.media.1.codec.sample_fmt">fltp</property>
  <property name="meta.media.1.codec.sample_rate">48000</property>
  <property name="meta.media.1.codec.channels">2</property>
  <property name="meta.media.1.codec.name">vorbis</property>
  <property name="meta.media.1.codec.long_name">Vorbis</property>
  <property name="meta.media.1.codec.bit_rate">0</property>
  <property name="meta.attr.1.stream.HANDLER_NAME.markup">SoundHandler</property>
  <property name="meta.attr.1.stream.VENDOR_ID.markup">[0][0][0][0]</property>
  <property name="meta.attr.1.stream.ENCODER.markup">Lavc60.31.102 libvorbis</property>
  <property name="meta.attr.1.stream.DURATION.markup">00:00:04.440000000</property>
  <property name="meta.attr.COMPATIBLE_BRANDS.markup">isomiso2mp41</property>
  <property name="meta.attr.MAJOR_BRAND.markup">isom</property>
  <property name="meta.attr.MINOR_VERSION.markup">512</property>
  <property name="meta.attr.ENCODER.markup">Lavf60.16.100</property>
  <property name="seekable">1</property>
  <property name="meta.media.sample_aspect_num">1</property>
  <property name="meta.media.sample_aspect_den">1</property>
  <property name="aspect_ratio">1</property>
  <property name="format">3</property>
  <property name="kdenlive:clipname"/>
  <property name="meta.media.frame_rate_num">60</property>
  <property name="meta.media.frame_rate_den">1</property>
  <property name="meta.media.colorspace">709</property>
  <property name="meta.media.color_trc">1</property>
  <property name="meta.media.has_b_frames">2</property>
  <property name="meta.media.width">1920</property>
  <property name="meta.media.height">1080</property>
  <property name="meta.media.color_range">mpeg</property>
  <property name="meta.media.top_field_first">0</property>
  <property name="meta.media.progressive">1</property>
  <property name="kdenlive:clip_type">0</property>
  <property name="kdenlive:folderid">450</property>
  <property name="kdenlive:id">504</property>
  <property name="kdenlive:file_size">957461</property>
  <property name="kdenlive:file_hash">cba4e99bfe40a48e4e8fdc27241ee485</property>
  <property name="kdenlive:audio_max1">1</property>
 </producer>
 <producer id="producer463" in="00:00:00.000" out="00:00:03.917">
  <property name="length">236</property>
  <property name="eof">pause</property>
  <property name="resource">/home/federico/Nextcloud/Kden/EditingUT/Video/Fraws/fraws_sguardo_nervoso.mkv</property>
  <property name="audio_index">1</property>
  <property name="video_index">0</property>
  <property name="mute_on_pause">0</property>
  <property name="mlt_service">avformat-novalidate</property>
  <property name="meta.media.nb_streams">2</property>
  <property name="meta.media.0.stream.type">video</property>
  <property name="meta.media.0.stream.frame_rate">60</property>
  <property name="meta.media.0.stream.sample_aspect_ratio">1</property>
  <property name="meta.media.0.codec.width">1920</property>
  <property name="meta.media.0.codec.height">1080</property>
  <property name="meta.media.0.codec.rotate">0</property>
  <property name="meta.media.0.codec.pix_fmt">yuv420p</property>
  <property name="meta.media.0.codec.sample_aspect_ratio">1</property>
  <property name="meta.media.0.codec.colorspace">709</property>
  <property name="meta.media.0.codec.color_trc">1</property>
  <property name="meta.media.0.codec.name">h264</property>
  <property name="meta.media.0.codec.long_name">H.264 / AVC / MPEG-4 AVC / MPEG-4 part 10</property>
  <property name="meta.media.0.codec.bit_rate">0</property>
  <property name="meta.attr.0.stream.HANDLER_NAME.markup">VideoHandler</property>
  <property name="meta.attr.0.stream.VENDOR_ID.markup">[0][0][0][0]</property>
  <property name="meta.attr.0.stream.ENCODER.markup">Lavc60.31.102 libx264</property>
  <property name="meta.attr.0.stream.DURATION.markup">00:00:03.920000000</property>
  <property name="meta.media.1.stream.type">audio</property>
  <property name="meta.media.1.codec.sample_fmt">fltp</property>
  <property name="meta.media.1.codec.sample_rate">48000</property>
  <property name="meta.media.1.codec.channels">2</property>
  <property name="meta.media.1.codec.name">vorbis</property>
  <property name="meta.media.1.codec.long_name">Vorbis</property>
  <property name="meta.media.1.codec.bit_rate">0</property>
  <property name="meta.attr.1.stream.HANDLER_NAME.markup">SoundHandler</property>
  <property name="meta.attr.1.stream.VENDOR_ID.markup">[0][0][0][0]</property>
  <property name="meta.attr.1.stream.ENCODER.markup">Lavc60.31.102 libvorbis</property>
  <property name="meta.attr.1.stream.DURATION.markup">00:00:03.928000000</property>
  <property name="meta.attr.COMPATIBLE_BRANDS.markup">isomiso2mp41</property>
  <property name="meta.attr.MAJOR_BRAND.markup">isom</property>
  <property name="meta.attr.MINOR_VERSION.markup">512</property>
  <property name="meta.attr.ENCODER.markup">Lavf60.16.100</property>
  <property name="seekable">1</property>
  <property name="meta.media.sample_aspect_num">1</property>
  <property name="meta.media.sample_aspect_den">1</property>
  <property name="aspect_ratio">1</property>
  <property name="format">3</property>
  <property name="kdenlive:clipname"/>
  <property name="meta.media.frame_rate_num">60</property>
  <property name="meta.media.frame_rate_den">1</property>
  <property name="meta.media.colorspace">709</property>
  <property name="meta.media.color_trc">1</property>
  <property name="meta.media.has_b_frames">2</property>
  <property name="meta.media.width">1920</property>
  <property name="meta.media.height">1080</property>
  <property name="meta.media.color_range">mpeg</property>
  <property name="meta.media.top_field_first">0</property>
  <property name="meta.media.progressive">1</property>
  <property name="kdenlive:clip_type">0</property>
  <property name="kdenlive:folderid">450</property>
  <property name="kdenlive:id">505</property>
  <property name="kdenlive:file_size">533074</property>
  <property name="kdenlive:file_hash">4e065a7f89ca1170eefb9cda8ed80c76</property>
  <property name="kdenlive:audio_max1">1</property>
 </producer>
 <producer id="producer462" in="00:00:00.000" out="00:00:03.867">
  <property name="length">233</property>
  <property name="eof">pause</property>
  <property name="resource">/home/federico/Nextcloud/Kden/EditingUT/Video/Fraws/fraws_sguardo_wtf.mkv</property>
  <property name="audio_index">1</property>
  <property name="video_index">0</property>
  <property name="mute_on_pause">0</property>
  <property name="mlt_service">avformat-novalidate</property>
  <property name="meta.media.nb_streams">2</property>
  <property name="meta.media.0.stream.type">video</property>
  <property name="meta.media.0.stream.frame_rate">60</property>
  <property name="meta.media.0.stream.sample_aspect_ratio">1</property>
  <property name="meta.media.0.codec.width">1920</property>
  <property name="meta.media.0.codec.height">1080</property>
  <property name="meta.media.0.codec.rotate">0</property>
  <property name="meta.media.0.codec.pix_fmt">yuv420p</property>
  <property name="meta.media.0.codec.sample_aspect_ratio">1</property>
  <property name="meta.media.0.codec.colorspace">709</property>
  <property name="meta.media.0.codec.color_trc">1</property>
  <property name="meta.media.0.codec.name">h264</property>
  <property name="meta.media.0.codec.long_name">H.264 / AVC / MPEG-4 AVC / MPEG-4 part 10</property>
  <property name="meta.media.0.codec.bit_rate">0</property>
  <property name="meta.attr.0.stream.HANDLER_NAME.markup">VideoHandler</property>
  <property name="meta.attr.0.stream.VENDOR_ID.markup">[0][0][0][0]</property>
  <property name="meta.attr.0.stream.ENCODER.markup">Lavc60.31.102 libx264</property>
  <property name="meta.attr.0.stream.DURATION.markup">00:00:03.870000000</property>
  <property name="meta.media.1.stream.type">audio</property>
  <property name="meta.media.1.codec.sample_fmt">fltp</property>
  <property name="meta.media.1.codec.sample_rate">48000</property>
  <property name="meta.media.1.codec.channels">2</property>
  <property name="meta.media.1.codec.name">vorbis</property>
  <property name="meta.media.1.codec.long_name">Vorbis</property>
  <property name="meta.media.1.codec.bit_rate">0</property>
  <property name="meta.attr.1.stream.HANDLER_NAME.markup">SoundHandler</property>
  <property name="meta.attr.1.stream.VENDOR_ID.markup">[0][0][0][0]</property>
  <property name="meta.attr.1.stream.ENCODER.markup">Lavc60.31.102 libvorbis</property>
  <property name="meta.attr.1.stream.DURATION.markup">00:00:03.885000000</property>
  <property name="meta.attr.COMPATIBLE_BRANDS.markup">isomiso2mp41</property>
  <property name="meta.attr.MAJOR_BRAND.markup">isom</property>
  <property name="meta.attr.MINOR_VERSION.markup">512</property>
  <property name="meta.attr.ENCODER.markup">Lavf60.16.100</property>
  <property name="seekable">1</property>
  <property name="meta.media.sample_aspect_num">1</property>
  <property name="meta.media.sample_aspect_den">1</property>
  <property name="aspect_ratio">1</property>
  <property name="format">3</property>
  <property name="kdenlive:clipname"/>
  <property name="meta.media.frame_rate_num">60</property>
  <property name="meta.media.frame_rate_den">1</property>
  <property name="meta.media.colorspace">709</property>
  <property name="meta.media.color_trc">1</property>
  <property name="meta.media.has_b_frames">2</property>
  <property name="meta.media.width">1920</property>
  <property name="meta.media.height">1080</property>
  <property name="meta.media.color_range">mpeg</property>
  <property name="meta.media.top_field_first">0</property>
  <property name="meta.media.progressive">1</property>
  <property name="kdenlive:clip_type">0</property>
  <property name="kdenlive:folderid">450</property>
  <property name="kdenlive:id">506</property>
  <property name="kdenlive:file_size">1036255</property>
  <property name="kdenlive:file_hash">d0e92c61854a09aef08d42002755a990</property>
  <property name="kdenlive:audio_max1">1</property>
 </producer>
 <producer id="producer465" in="00:00:00.000" out="00:00:04.083">
  <property name="length">246</property>
  <property name="eof">pause</property>
  <property name="resource">/home/federico/Nextcloud/Kden/EditingUT/Video/Fraws/fraws_sguardo_wtf_meme.mkv</property>
  <property name="audio_index">1</property>
  <property name="video_index">0</property>
  <property name="mute_on_pause">0</property>
  <property name="mlt_service">avformat-novalidate</property>
  <property name="meta.media.nb_streams">2</property>
  <property name="meta.media.0.stream.type">video</property>
  <property name="meta.media.0.stream.frame_rate">60</property>
  <property name="meta.media.0.stream.sample_aspect_ratio">1</property>
  <property name="meta.media.0.codec.width">1920</property>
  <property name="meta.media.0.codec.height">1080</property>
  <property name="meta.media.0.codec.rotate">0</property>
  <property name="meta.media.0.codec.pix_fmt">yuv420p</property>
  <property name="meta.media.0.codec.sample_aspect_ratio">1</property>
  <property name="meta.media.0.codec.colorspace">709</property>
  <property name="meta.media.0.codec.color_trc">1</property>
  <property name="meta.media.0.codec.name">h264</property>
  <property name="meta.media.0.codec.long_name">H.264 / AVC / MPEG-4 AVC / MPEG-4 part 10</property>
  <property name="meta.media.0.codec.bit_rate">0</property>
  <property name="meta.attr.0.stream.HANDLER_NAME.markup">VideoHandler</property>
  <property name="meta.attr.0.stream.VENDOR_ID.markup">[0][0][0][0]</property>
  <property name="meta.attr.0.stream.ENCODER.markup">Lavc60.31.102 libx264</property>
  <property name="meta.attr.0.stream.DURATION.markup">00:00:04.087000000</property>
  <property name="meta.media.1.stream.type">audio</property>
  <property name="meta.media.1.codec.sample_fmt">fltp</property>
  <property name="meta.media.1.codec.sample_rate">48000</property>
  <property name="meta.media.1.codec.channels">2</property>
  <property name="meta.media.1.codec.name">vorbis</property>
  <property name="meta.media.1.codec.long_name">Vorbis</property>
  <property name="meta.media.1.codec.bit_rate">0</property>
  <property name="meta.attr.1.stream.HANDLER_NAME.markup">SoundHandler</property>
  <property name="meta.attr.1.stream.VENDOR_ID.markup">[0][0][0][0]</property>
  <property name="meta.attr.1.stream.ENCODER.markup">Lavc60.31.102 libvorbis</property>
  <property name="meta.attr.1.stream.DURATION.markup">00:00:04.099000000</property>
  <property name="meta.attr.COMPATIBLE_BRANDS.markup">isomiso2mp41</property>
  <property name="meta.attr.MAJOR_BRAND.markup">isom</property>
  <property name="meta.attr.MINOR_VERSION.markup">512</property>
  <property name="meta.attr.ENCODER.markup">Lavf60.16.100</property>
  <property name="seekable">1</property>
  <property name="meta.media.sample_aspect_num">1</property>
  <property name="meta.media.sample_aspect_den">1</property>
  <property name="aspect_ratio">1</property>
  <property name="format">3</property>
  <property name="kdenlive:clipname"/>
  <property name="meta.media.frame_rate_num">60</property>
  <property name="meta.media.frame_rate_den">1</property>
  <property name="meta.media.colorspace">709</property>
  <property name="meta.media.color_trc">1</property>
  <property name="meta.media.has_b_frames">2</property>
  <property name="meta.media.width">1920</property>
  <property name="meta.media.height">1080</property>
  <property name="meta.media.color_range">mpeg</property>
  <property name="meta.media.top_field_first">0</property>
  <property name="meta.media.progressive">1</property>
  <property name="kdenlive:clip_type">0</property>
  <property name="kdenlive:folderid">450</property>
  <property name="kdenlive:id">507</property>
  <property name="kdenlive:file_size">846950</property>
  <property name="kdenlive:file_hash">9727e99b08585013abd8d3d680a7224a</property>
  <property name="kdenlive:audio_max1">1</property>
 </producer>
 <producer id="producer464" in="00:00:00.000" out="00:00:00.917">
  <property name="length">56</property>
  <property name="eof">pause</property>
  <property name="resource">/home/federico/Nextcloud/Kden/EditingUT/Video/Fraws/fraws_sorriso_wtf.mkv</property>
  <property name="audio_index">1</property>
  <property name="video_index">0</property>
  <property name="mute_on_pause">0</property>
  <property name="mlt_service">avformat-novalidate</property>
  <property name="meta.media.nb_streams">2</property>
  <property name="meta.media.0.stream.type">video</property>
  <property name="meta.media.0.stream.frame_rate">60</property>
  <property name="meta.media.0.stream.sample_aspect_ratio">1</property>
  <property name="meta.media.0.codec.width">1920</property>
  <property name="meta.media.0.codec.height">1080</property>
  <property name="meta.media.0.codec.rotate">0</property>
  <property name="meta.media.0.codec.pix_fmt">yuv420p</property>
  <property name="meta.media.0.codec.sample_aspect_ratio">1</property>
  <property name="meta.media.0.codec.colorspace">709</property>
  <property name="meta.media.0.codec.color_trc">1</property>
  <property name="meta.media.0.codec.name">h264</property>
  <property name="meta.media.0.codec.long_name">H.264 / AVC / MPEG-4 AVC / MPEG-4 part 10</property>
  <property name="meta.media.0.codec.bit_rate">0</property>
  <property name="meta.attr.0.stream.HANDLER_NAME.markup">VideoHandler</property>
  <property name="meta.attr.0.stream.VENDOR_ID.markup">[0][0][0][0]</property>
  <property name="meta.attr.0.stream.ENCODER.markup">Lavc60.31.102 libx264</property>
  <property name="meta.attr.0.stream.DURATION.markup">00:00:00.937000000</property>
  <property name="meta.media.1.stream.type">audio</property>
  <property name="meta.media.1.codec.sample_fmt">fltp</property>
  <property name="meta.media.1.codec.sample_rate">48000</property>
  <property name="meta.media.1.codec.channels">2</property>
  <property name="meta.media.1.codec.name">vorbis</property>
  <property name="meta.media.1.codec.long_name">Vorbis</property>
  <property name="meta.media.1.codec.bit_rate">0</property>
  <property name="meta.attr.1.stream.HANDLER_NAME.markup">SoundHandler</property>
  <property name="meta.attr.1.stream.VENDOR_ID.markup">[0][0][0][0]</property>
  <property name="meta.attr.1.stream.ENCODER.markup">Lavc60.31.102 libvorbis</property>
  <property name="meta.attr.1.stream.DURATION.markup">00:00:00.941000000</property>
  <property name="meta.attr.COMPATIBLE_BRANDS.markup">isomiso2mp41</property>
  <property name="meta.attr.MAJOR_BRAND.markup">isom</property>
  <property name="meta.attr.MINOR_VERSION.markup">512</property>
  <property name="meta.attr.ENCODER.markup">Lavf60.16.100</property>
  <property name="seekable">1</property>
  <property name="meta.media.sample_aspect_num">1</property>
  <property name="meta.media.sample_aspect_den">1</property>
  <property name="aspect_ratio">1</property>
  <property name="format">3</property>
  <property name="kdenlive:clipname"/>
  <property name="meta.media.frame_rate_num">60</property>
  <property name="meta.media.frame_rate_den">1</property>
  <property name="meta.media.colorspace">709</property>
  <property name="meta.media.color_trc">1</property>
  <property name="meta.media.has_b_frames">2</property>
  <property name="meta.media.width">1920</property>
  <property name="meta.media.height">1080</property>
  <property name="meta.media.color_range">mpeg</property>
  <property name="meta.media.top_field_first">0</property>
  <property name="meta.media.progressive">1</property>
  <property name="kdenlive:clip_type">0</property>
  <property name="kdenlive:folderid">450</property>
  <property name="kdenlive:id">508</property>
  <property name="kdenlive:file_size">148621</property>
  <property name="kdenlive:file_hash">ef624bc7f4f032adbe3cecee82f939cd</property>
  <property name="kdenlive:audio_max1">1</property>
 </producer>
 <producer id="producer468" in="00:00:00.000" out="00:00:16.533">
  <property name="length">993</property>
  <property name="eof">pause</property>
  <property name="resource">/home/federico/Nextcloud/Kden/EditingUT/Video/Fraws/fraws_spacca_pc.mkv</property>
  <property name="audio_index">1</property>
  <property name="video_index">0</property>
  <property name="mute_on_pause">0</property>
  <property name="mlt_service">avformat-novalidate</property>
  <property name="meta.media.nb_streams">2</property>
  <property name="meta.media.0.stream.type">video</property>
  <property name="meta.media.0.stream.frame_rate">60</property>
  <property name="meta.media.0.stream.sample_aspect_ratio">1</property>
  <property name="meta.media.0.codec.width">1920</property>
  <property name="meta.media.0.codec.height">1080</property>
  <property name="meta.media.0.codec.rotate">0</property>
  <property name="meta.media.0.codec.pix_fmt">yuv420p</property>
  <property name="meta.media.0.codec.sample_aspect_ratio">1</property>
  <property name="meta.media.0.codec.colorspace">709</property>
  <property name="meta.media.0.codec.color_trc">1</property>
  <property name="meta.media.0.codec.name">h264</property>
  <property name="meta.media.0.codec.long_name">H.264 / AVC / MPEG-4 AVC / MPEG-4 part 10</property>
  <property name="meta.media.0.codec.bit_rate">0</property>
  <property name="meta.attr.0.stream.HANDLER_NAME.markup">VideoHandler</property>
  <property name="meta.attr.0.stream.VENDOR_ID.markup">[0][0][0][0]</property>
  <property name="meta.attr.0.stream.ENCODER.markup">Lavc60.31.102 libx264</property>
  <property name="meta.attr.0.stream.DURATION.markup">00:00:16.553000000</property>
  <property name="meta.media.1.stream.type">audio</property>
  <property name="meta.media.1.codec.sample_fmt">fltp</property>
  <property name="meta.media.1.codec.sample_rate">48000</property>
  <property name="meta.media.1.codec.channels">2</property>
  <property name="meta.media.1.codec.name">vorbis</property>
  <property name="meta.media.1.codec.long_name">Vorbis</property>
  <property name="meta.media.1.codec.bit_rate">0</property>
  <property name="meta.attr.1.stream.HANDLER_NAME.markup">SoundHandler</property>
  <property name="meta.attr.1.stream.VENDOR_ID.markup">[0][0][0][0]</property>
  <property name="meta.attr.1.stream.ENCODER.markup">Lavc60.31.102 libvorbis</property>
  <property name="meta.attr.1.stream.DURATION.markup">00:00:16.558000000</property>
  <property name="meta.attr.COMPATIBLE_BRANDS.markup">isomiso2mp41</property>
  <property name="meta.attr.MAJOR_BRAND.markup">isom</property>
  <property name="meta.attr.MINOR_VERSION.markup">512</property>
  <property name="meta.attr.ENCODER.markup">Lavf60.16.100</property>
  <property name="seekable">1</property>
  <property name="meta.media.sample_aspect_num">1</property>
  <property name="meta.media.sample_aspect_den">1</property>
  <property name="aspect_ratio">1</property>
  <property name="format">3</property>
  <property name="kdenlive:clipname"/>
  <property name="meta.media.frame_rate_num">60</property>
  <property name="meta.media.frame_rate_den">1</property>
  <property name="meta.media.colorspace">709</property>
  <property name="meta.media.color_trc">1</property>
  <property name="meta.media.has_b_frames">2</property>
  <property name="meta.media.width">1920</property>
  <property name="meta.media.height">1080</property>
  <property name="meta.media.color_range">mpeg</property>
  <property name="meta.media.top_field_first">0</property>
  <property name="meta.media.progressive">1</property>
  <property name="kdenlive:clip_type">0</property>
  <property name="kdenlive:folderid">450</property>
  <property name="kdenlive:id">509</property>
  <property name="kdenlive:file_size">6486345</property>
  <property name="kdenlive:file_hash">919feac5d475033365f28701a74e4464</property>
  <property name="kdenlive:audio_max1">223</property>
 </producer>
 <producer id="producer466" in="00:00:00.000" out="00:00:24.883">
  <property name="length">1494</property>
  <property name="eof">pause</property>
  <property name="resource">/home/federico/Nextcloud/Kden/EditingUT/Video/Fraws/fraws_wasted_sad.mkv</property>
  <property name="audio_index">1</property>
  <property name="video_index">0</property>
  <property name="mute_on_pause">0</property>
  <property name="mlt_service">avformat-novalidate</property>
  <property name="meta.media.nb_streams">2</property>
  <property name="meta.media.0.stream.type">video</property>
  <property name="meta.media.0.stream.frame_rate">60</property>
  <property name="meta.media.0.stream.sample_aspect_ratio">1</property>
  <property name="meta.media.0.codec.width">1920</property>
  <property name="meta.media.0.codec.height">1080</property>
  <property name="meta.media.0.codec.rotate">0</property>
  <property name="meta.media.0.codec.pix_fmt">yuv420p</property>
  <property name="meta.media.0.codec.sample_aspect_ratio">1</property>
  <property name="meta.media.0.codec.colorspace">709</property>
  <property name="meta.media.0.codec.color_trc">1</property>
  <property name="meta.media.0.codec.name">h264</property>
  <property name="meta.media.0.codec.long_name">H.264 / AVC / MPEG-4 AVC / MPEG-4 part 10</property>
  <property name="meta.media.0.codec.bit_rate">0</property>
  <property name="meta.attr.0.stream.HANDLER_NAME.markup">VideoHandler</property>
  <property name="meta.attr.0.stream.VENDOR_ID.markup">[0][0][0][0]</property>
  <property name="meta.attr.0.stream.ENCODER.markup">Lavc60.31.102 libx264</property>
  <property name="meta.attr.0.stream.DURATION.markup">00:00:24.887000000</property>
  <property name="meta.media.1.stream.type">audio</property>
  <property name="meta.media.1.codec.sample_fmt">fltp</property>
  <property name="meta.media.1.codec.sample_rate">48000</property>
  <property name="meta.media.1.codec.channels">2</property>
  <property name="meta.media.1.codec.name">vorbis</property>
  <property name="meta.media.1.codec.long_name">Vorbis</property>
  <property name="meta.media.1.codec.bit_rate">0</property>
  <property name="meta.attr.1.stream.HANDLER_NAME.markup">SoundHandler</property>
  <property name="meta.attr.1.stream.VENDOR_ID.markup">[0][0][0][0]</property>
  <property name="meta.attr.1.stream.ENCODER.markup">Lavc60.31.102 libvorbis</property>
  <property name="meta.attr.1.stream.DURATION.markup">00:00:24.899000000</property>
  <property name="meta.attr.COMPATIBLE_BRANDS.markup">isomiso2mp41</property>
  <property name="meta.attr.MAJOR_BRAND.markup">isom</property>
  <property name="meta.attr.MINOR_VERSION.markup">512</property>
  <property name="meta.attr.ENCODER.markup">Lavf60.16.100</property>
  <property name="seekable">1</property>
  <property name="meta.media.sample_aspect_num">1</property>
  <property name="meta.media.sample_aspect_den">1</property>
  <property name="aspect_ratio">1</property>
  <property name="format">3</property>
  <property name="kdenlive:clipname"/>
  <property name="meta.media.frame_rate_num">60</property>
  <property name="meta.media.frame_rate_den">1</property>
  <property name="meta.media.colorspace">709</property>
  <property name="meta.media.color_trc">1</property>
  <property name="meta.media.has_b_frames">2</property>
  <property name="meta.media.width">1920</property>
  <property name="meta.media.height">1080</property>
  <property name="meta.media.color_range">mpeg</property>
  <property name="meta.media.top_field_first">0</property>
  <property name="meta.media.progressive">1</property>
  <property name="kdenlive:clip_type">0</property>
  <property name="kdenlive:folderid">450</property>
  <property name="kdenlive:id">510</property>
  <property name="kdenlive:file_size">6207802</property>
  <property name="kdenlive:file_hash">9d4578e15a9972d0ab53e835ebe22c9c</property>
  <property name="kdenlive:audio_max1">1</property>
 </producer>
 <producer id="producer469" in="00:00:00.000" out="00:00:06.617">
  <property name="length">398</property>
  <property name="eof">pause</property>
  <property name="resource">/home/federico/Nextcloud/Kden/EditingUT/Video/GreenScreen/anime zoom.mkv</property>
  <property name="audio_index">1</property>
  <property name="video_index">0</property>
  <property name="mute_on_pause">0</property>
  <property name="mlt_service">avformat-novalidate</property>
  <property name="meta.media.nb_streams">2</property>
  <property name="meta.media.0.stream.type">video</property>
  <property name="meta.media.0.stream.frame_rate">60</property>
  <property name="meta.media.0.stream.sample_aspect_ratio">1</property>
  <property name="meta.media.0.codec.width">1920</property>
  <property name="meta.media.0.codec.height">1080</property>
  <property name="meta.media.0.codec.rotate">0</property>
  <property name="meta.media.0.codec.pix_fmt">yuv420p</property>
  <property name="meta.media.0.codec.sample_aspect_ratio">1</property>
  <property name="meta.media.0.codec.colorspace">709</property>
  <property name="meta.media.0.codec.color_trc">1</property>
  <property name="meta.media.0.codec.name">h264</property>
  <property name="meta.media.0.codec.long_name">H.264 / AVC / MPEG-4 AVC / MPEG-4 part 10</property>
  <property name="meta.media.0.codec.bit_rate">0</property>
  <property name="meta.attr.0.stream.DURATION.markup">00:00:06.600000000</property>
  <property name="meta.media.1.stream.type">audio</property>
  <property name="meta.media.1.codec.sample_fmt">fltp</property>
  <property name="meta.media.1.codec.sample_rate">48000</property>
  <property name="meta.media.1.codec.channels">2</property>
  <property name="meta.media.1.codec.name">aac</property>
  <property name="meta.media.1.codec.long_name">AAC (Advanced Audio Coding)</property>
  <property name="meta.media.1.codec.bit_rate">0</property>
  <property name="meta.attr.1.stream.DURATION.markup">00:00:06.634000000</property>
  <property name="meta.attr.ENCODER.markup">Lavf61.7.100</property>
  <property name="seekable">1</property>
  <property name="meta.media.sample_aspect_num">1</property>
  <property name="meta.media.sample_aspect_den">1</property>
  <property name="aspect_ratio">1</property>
  <property name="format">3</property>
  <property name="kdenlive:clipname"/>
  <property name="meta.media.frame_rate_num">60</property>
  <property name="meta.media.frame_rate_den">1</property>
  <property name="meta.media.colorspace">709</property>
  <property name="meta.media.color_trc">1</property>
  <property name="meta.media.has_b_frames">0</property>
  <property name="meta.media.width">1920</property>
  <property name="meta.media.height">1080</property>
  <property name="meta.media.color_range">mpeg</property>
  <property name="meta.media.top_field_first">0</property>
  <property name="meta.media.progressive">1</property>
  <property name="kdenlive:clip_type">0</property>
  <property name="kdenlive:folderid">511</property>
  <property name="kdenlive:id">512</property>
  <property name="kdenlive:file_size">9828072</property>
  <property name="kdenlive:file_hash">00029be9fc3805040b5cfc0bb971655b</property>
  <property name="kdenlive:audio_max1">1</property>
 </producer>
 <producer id="producer467" in="00:00:00.000" out="00:00:24.017">
  <property name="length">1442</property>
  <property name="eof">pause</property>
  <property name="resource">/home/federico/Nextcloud/Kden/EditingUT/Video/GreenScreen/are you winning son_green screen.mkv</property>
  <property name="audio_index">1</property>
  <property name="video_index">0</property>
  <property name="mute_on_pause">0</property>
  <property name="mlt_service">avformat-novalidate</property>
  <property name="meta.media.nb_streams">2</property>
  <property name="meta.media.0.stream.type">video</property>
  <property name="meta.media.0.stream.frame_rate">30</property>
  <property name="meta.media.0.stream.sample_aspect_ratio">1</property>
  <property name="meta.media.0.codec.width">1920</property>
  <property name="meta.media.0.codec.height">1080</property>
  <property name="meta.media.0.codec.rotate">0</property>
  <property name="meta.media.0.codec.pix_fmt">yuv420p</property>
  <property name="meta.media.0.codec.sample_aspect_ratio">1</property>
  <property name="meta.media.0.codec.colorspace">709</property>
  <property name="meta.media.0.codec.color_trc">1</property>
  <property name="meta.media.0.codec.name">h264</property>
  <property name="meta.media.0.codec.long_name">H.264 / AVC / MPEG-4 AVC / MPEG-4 part 10</property>
  <property name="meta.media.0.codec.bit_rate">0</property>
  <property name="meta.attr.0.stream.HANDLER_NAME.markup">ISO Media file produced by Google Inc.</property>
  <property name="meta.attr.0.stream.VENDOR_ID.markup">[0][0][0][0]</property>
  <property name="meta.attr.0.stream.ENCODER.markup">Lavc60.31.102 libx264</property>
  <property name="meta.attr.0.stream.DURATION.markup">00:00:23.969000000</property>
  <property name="meta.media.1.stream.type">audio</property>
  <property name="meta.media.1.codec.sample_fmt">fltp</property>
  <property name="meta.media.1.codec.sample_rate">44100</property>
  <property name="meta.media.1.codec.channels">2</property>
  <property name="meta.media.1.codec.name">vorbis</property>
  <property name="meta.media.1.codec.long_name">Vorbis</property>
  <property name="meta.media.1.codec.bit_rate">0</property>
  <property name="meta.attr.1.stream.language.markup">eng</property>
  <property name="meta.attr.1.stream.HANDLER_NAME.markup">ISO Media file produced by Google Inc.</property>
  <property name="meta.attr.1.stream.VENDOR_ID.markup">[0][0][0][0]</property>
  <property name="meta.attr.1.stream.ENCODER.markup">Lavc60.31.102 libvorbis</property>
  <property name="meta.attr.1.stream.DURATION.markup">00:00:24.036000000</property>
  <property name="meta.attr.title.markup">Are You Winning son? Green screen</property>
  <property name="meta.attr.SYNOPSIS.markup">Subscrybie my chanel</property>
  <property name="meta.attr.MAJOR_BRAND.markup">isom</property>
  <property name="meta.attr.MINOR_VERSION.markup">512</property>
  <property name="meta.attr.COMPATIBLE_BRANDS.markup">isomiso2avc1mp41</property>
  <property name="meta.attr.ARTIST.markup">DhoppyGracz</property>
  <property name="meta.attr.DATE.markup">20200904</property>
  <property name="meta.attr.COMMENT.markup">https://www.youtube.com/watch?v=kKRcfXZfcgc</property>
  <property name="meta.attr.DESCRIPTION.markup">Subscrybie my chanel</property>
  <property name="meta.attr.ENCODER.markup">Lavf60.16.100</property>
  <property name="seekable">1</property>
  <property name="meta.media.sample_aspect_num">1</property>
  <property name="meta.media.sample_aspect_den">1</property>
  <property name="aspect_ratio">1</property>
  <property name="format">3</property>
  <property name="kdenlive:clipname"/>
  <property name="meta.media.frame_rate_num">30</property>
  <property name="meta.media.frame_rate_den">1</property>
  <property name="meta.media.colorspace">709</property>
  <property name="meta.media.color_trc">1</property>
  <property name="meta.media.has_b_frames">2</property>
  <property name="meta.media.width">1920</property>
  <property name="meta.media.height">1080</property>
  <property name="meta.media.color_range">mpeg</property>
  <property name="meta.media.top_field_first">0</property>
  <property name="meta.media.progressive">1</property>
  <property name="kdenlive:clip_type">0</property>
  <property name="kdenlive:folderid">511</property>
  <property name="kdenlive:id">513</property>
  <property name="kdenlive:file_size">971930</property>
  <property name="kdenlive:file_hash">8528498518afb60ceeea94bed0dbcc75</property>
  <property name="kdenlive:audio_max1">232</property>
 </producer>
 <producer id="producer470" in="00:00:00.000" out="00:00:08.617">
  <property name="length">518</property>
  <property name="eof">pause</property>
  <property name="resource">/home/federico/Nextcloud/Kden/EditingUT/Video/GreenScreen/black guy crying meme.mkv</property>
  <property name="audio_index">1</property>
  <property name="video_index">0</property>
  <property name="mute_on_pause">0</property>
  <property name="mlt_service">avformat-novalidate</property>
  <property name="meta.media.nb_streams">2</property>
  <property name="meta.media.0.stream.type">video</property>
  <property name="meta.media.0.stream.frame_rate">29.97</property>
  <property name="meta.media.0.stream.sample_aspect_ratio">1</property>
  <property name="meta.media.0.codec.width">1920</property>
  <property name="meta.media.0.codec.height">1080</property>
  <property name="meta.media.0.codec.rotate">0</property>
  <property name="meta.media.0.codec.pix_fmt">yuv420p</property>
  <property name="meta.media.0.codec.sample_aspect_ratio">1</property>
  <property name="meta.media.0.codec.colorspace">709</property>
  <property name="meta.media.0.codec.color_trc">1</property>
  <property name="meta.media.0.codec.name">h264</property>
  <property name="meta.media.0.codec.long_name">H.264 / AVC / MPEG-4 AVC / MPEG-4 part 10</property>
  <property name="meta.media.0.codec.bit_rate">0</property>
  <property name="meta.attr.0.stream.HANDLER_NAME.markup">ISO Media file produced by Google Inc.</property>
  <property name="meta.attr.0.stream.VENDOR_ID.markup">[0][0][0][0]</property>
  <property name="meta.attr.0.stream.ENCODER.markup">Lavc60.31.102 libx264</property>
  <property name="meta.attr.0.stream.DURATION.markup">00:00:08.578000000</property>
  <property name="meta.media.1.stream.type">audio</property>
  <property name="meta.media.1.codec.sample_fmt">fltp</property>
  <property name="meta.media.1.codec.sample_rate">44100</property>
  <property name="meta.media.1.codec.channels">2</property>
  <property name="meta.media.1.codec.name">vorbis</property>
  <property name="meta.media.1.codec.long_name">Vorbis</property>
  <property name="meta.media.1.codec.bit_rate">0</property>
  <property name="meta.attr.1.stream.HANDLER_NAME.markup">ISO Media file produced by Google Inc.</property>
  <property name="meta.attr.1.stream.VENDOR_ID.markup">[0][0][0][0]</property>
  <property name="meta.attr.1.stream.ENCODER.markup">Lavc60.31.102 libvorbis</property>
  <property name="meta.attr.1.stream.DURATION.markup">00:00:08.641000000</property>
  <property name="meta.attr.title.markup">Black Guy Crying Meme Greenscreen (FREE DOWNLOAD IN DESC)</property>
  <property name="meta.attr.DESCRIPTION.markup">Black Guy Crying Meme Greenscreen 
plz sub and like and share that would be pretty nice, thank you 
DOWNLOAD FROM HERE:
 https://www.toneden.io/unenglish/post/download
have fun making videos</property>
  <property name="meta.attr.MAJOR_BRAND.markup">isom</property>
  <property name="meta.attr.MINOR_VERSION.markup">512</property>
  <property name="meta.attr.COMPATIBLE_BRANDS.markup">isomiso2avc1mp41</property>
  <property name="meta.attr.ARTIST.markup">meme archive</property>
  <property name="meta.attr.DATE.markup">20191117</property>
  <property name="meta.attr.SYNOPSIS.markup">Black Guy Crying Meme Greenscreen 
plz sub and like and share that would be pretty nice, thank you 
DOWNLOAD FROM HERE:
 https://www.toneden.io/unenglish/post/download
have fun making videos</property>
  <property name="meta.attr.COMMENT.markup">https://www.youtube.com/watch?v=Bw2-qn0XnJc</property>
  <property name="meta.attr.ENCODER.markup">Lavf60.16.100</property>
  <property name="seekable">1</property>
  <property name="meta.media.sample_aspect_num">1</property>
  <property name="meta.media.sample_aspect_den">1</property>
  <property name="aspect_ratio">1</property>
  <property name="format">3</property>
  <property name="kdenlive:clipname"/>
  <property name="meta.media.frame_rate_num">30000</property>
  <property name="meta.media.frame_rate_den">1001</property>
  <property name="meta.media.colorspace">709</property>
  <property name="meta.media.color_trc">1</property>
  <property name="meta.media.has_b_frames">2</property>
  <property name="meta.media.width">1920</property>
  <property name="meta.media.height">1080</property>
  <property name="meta.media.color_range">mpeg</property>
  <property name="meta.media.top_field_first">0</property>
  <property name="meta.media.progressive">1</property>
  <property name="kdenlive:clip_type">0</property>
  <property name="kdenlive:folderid">511</property>
  <property name="kdenlive:id">514</property>
  <property name="kdenlive:file_size">1686923</property>
  <property name="kdenlive:file_hash">64f7084ff4b98d1296b6f822acc01191</property>
  <property name="kdenlive:audio_max1">205</property>
 </producer>
 <producer id="producer474" in="00:00:00.000" out="00:00:05.650">
  <property name="length">340</property>
  <property name="eof">pause</property>
  <property name="resource">/home/federico/Nextcloud/Kden/EditingUT/Video/GreenScreen/call of duty_cod_ connection interrupted.mkv</property>
  <property name="audio_index">1</property>
  <property name="video_index">0</property>
  <property name="mute_on_pause">0</property>
  <property name="mlt_service">avformat-novalidate</property>
  <property name="meta.media.nb_streams">2</property>
  <property name="meta.media.0.stream.type">video</property>
  <property name="meta.media.0.stream.frame_rate">60</property>
  <property name="meta.media.0.stream.sample_aspect_ratio">1</property>
  <property name="meta.media.0.codec.width">1920</property>
  <property name="meta.media.0.codec.height">1080</property>
  <property name="meta.media.0.codec.rotate">0</property>
  <property name="meta.media.0.codec.pix_fmt">yuv420p</property>
  <property name="meta.media.0.codec.sample_aspect_ratio">1</property>
  <property name="meta.media.0.codec.colorspace">709</property>
  <property name="meta.media.0.codec.color_trc">1</property>
  <property name="meta.media.0.codec.name">h264</property>
  <property name="meta.media.0.codec.long_name">H.264 / AVC / MPEG-4 AVC / MPEG-4 part 10</property>
  <property name="meta.media.0.codec.bit_rate">0</property>
  <property name="meta.attr.0.stream.DURATION.markup">00:00:05.650000000</property>
  <property name="meta.media.1.stream.type">audio</property>
  <property name="meta.media.1.codec.sample_fmt">fltp</property>
  <property name="meta.media.1.codec.sample_rate">48000</property>
  <property name="meta.media.1.codec.channels">2</property>
  <property name="meta.media.1.codec.name">aac</property>
  <property name="meta.media.1.codec.long_name">AAC (Advanced Audio Coding)</property>
  <property name="meta.media.1.codec.bit_rate">0</property>
  <property name="meta.attr.1.stream.DURATION.markup">00:00:05.674000000</property>
  <property name="meta.attr.ENCODER.markup">Lavf61.7.100</property>
  <property name="seekable">1</property>
  <property name="meta.media.sample_aspect_num">1</property>
  <property name="meta.media.sample_aspect_den">1</property>
  <property name="aspect_ratio">1</property>
  <property name="format">3</property>
  <property name="kdenlive:clipname"/>
  <property name="meta.media.frame_rate_num">60</property>
  <property name="meta.media.frame_rate_den">1</property>
  <property name="meta.media.colorspace">709</property>
  <property name="meta.media.color_trc">1</property>
  <property name="meta.media.has_b_frames">0</property>
  <property name="meta.media.width">1920</property>
  <property name="meta.media.height">1080</property>
  <property name="meta.media.color_range">mpeg</property>
  <property name="meta.media.top_field_first">0</property>
  <property name="meta.media.progressive">1</property>
  <property name="kdenlive:clip_type">0</property>
  <property name="kdenlive:folderid">511</property>
  <property name="kdenlive:id">515</property>
  <property name="kdenlive:file_size">1060856</property>
  <property name="kdenlive:file_hash">5b159a1f94330b3446af82351fa68f1c</property>
  <property name="kdenlive:audio_max1">182</property>
 </producer>
 <producer id="producer472" in="00:00:00.000" out="00:00:10.067">
  <property name="length">605</property>
  <property name="eof">pause</property>
  <property name="resource">/home/federico/Nextcloud/Kden/EditingUT/Video/GreenScreen/cartoon clock ticking - green screen.mkv</property>
  <property name="audio_index">1</property>
  <property name="video_index">0</property>
  <property name="mute_on_pause">0</property>
  <property name="mlt_service">avformat-novalidate</property>
  <property name="meta.media.nb_streams">2</property>
  <property name="meta.media.0.stream.type">video</property>
  <property name="meta.media.0.stream.frame_rate">29.97</property>
  <property name="meta.media.0.stream.sample_aspect_ratio">1</property>
  <property name="meta.media.0.codec.width">1920</property>
  <property name="meta.media.0.codec.height">1080</property>
  <property name="meta.media.0.codec.rotate">0</property>
  <property name="meta.media.0.codec.pix_fmt">yuv420p</property>
  <property name="meta.media.0.codec.sample_aspect_ratio">1</property>
  <property name="meta.media.0.codec.colorspace">709</property>
  <property name="meta.media.0.codec.color_trc">1</property>
  <property name="meta.media.0.codec.name">h264</property>
  <property name="meta.media.0.codec.long_name">H.264 / AVC / MPEG-4 AVC / MPEG-4 part 10</property>
  <property name="meta.media.0.codec.bit_rate">0</property>
  <property name="meta.attr.0.stream.HANDLER_NAME.markup">VideoHandler</property>
  <property name="meta.attr.0.stream.VENDOR_ID.markup">[0][0][0][0]</property>
  <property name="meta.attr.0.stream.ENCODER.markup">Lavc60.31.102 libx264</property>
  <property name="meta.attr.0.stream.DURATION.markup">00:00:10.013000000</property>
  <property name="meta.media.1.stream.type">audio</property>
  <property name="meta.media.1.codec.sample_fmt">fltp</property>
  <property name="meta.media.1.codec.sample_rate">44100</property>
  <property name="meta.media.1.codec.channels">2</property>
  <property name="meta.media.1.codec.name">vorbis</property>
  <property name="meta.media.1.codec.long_name">Vorbis</property>
  <property name="meta.media.1.codec.bit_rate">0</property>
  <property name="meta.attr.1.stream.HANDLER_NAME.markup">SoundHandler</property>
  <property name="meta.attr.1.stream.VENDOR_ID.markup">[0][0][0][0]</property>
  <property name="meta.attr.1.stream.ENCODER.markup">Lavc60.31.102 libvorbis</property>
  <property name="meta.attr.1.stream.DURATION.markup">00:00:10.080000000</property>
  <property name="meta.attr.COMPATIBLE_BRANDS.markup">isomiso2avc1mp41</property>
  <property name="meta.attr.MAJOR_BRAND.markup">isom</property>
  <property name="meta.attr.MINOR_VERSION.markup">512</property>
  <property name="meta.attr.ENCODER.markup">Lavf60.16.100</property>
  <property name="seekable">1</property>
  <property name="meta.media.sample_aspect_num">1</property>
  <property name="meta.media.sample_aspect_den">1</property>
  <property name="aspect_ratio">1</property>
  <property name="format">3</property>
  <property name="kdenlive:clipname"/>
  <property name="meta.media.frame_rate_num">30000</property>
  <property name="meta.media.frame_rate_den">1001</property>
  <property name="meta.media.colorspace">709</property>
  <property name="meta.media.color_trc">1</property>
  <property name="meta.media.has_b_frames">2</property>
  <property name="meta.media.width">1920</property>
  <property name="meta.media.height">1080</property>
  <property name="meta.media.color_range">mpeg</property>
  <property name="meta.media.top_field_first">0</property>
  <property name="meta.media.progressive">1</property>
  <property name="kdenlive:clip_type">0</property>
  <property name="kdenlive:folderid">511</property>
  <property name="kdenlive:id">516</property>
  <property name="kdenlive:file_size">255255</property>
  <property name="kdenlive:file_hash">f6cf49ad44ba1fe19da1ffa8fad0abff</property>
  <property name="kdenlive:audio_max1">149</property>
 </producer>
 <producer id="producer471" in="00:00:00.000" out="00:00:04.400">
  <property name="length">265</property>
  <property name="eof">pause</property>
  <property name="resource">/home/federico/Nextcloud/Kden/EditingUT/Video/GreenScreen/confused travolta - new green screen 1280x720.mkv</property>
  <property name="audio_index">1</property>
  <property name="video_index">0</property>
  <property name="mute_on_pause">0</property>
  <property name="mlt_service">avformat-novalidate</property>
  <property name="meta.media.nb_streams">2</property>
  <property name="meta.media.0.stream.type">video</property>
  <property name="meta.media.0.stream.frame_rate">23</property>
  <property name="meta.media.0.stream.sample_aspect_ratio">1</property>
  <property name="meta.media.0.codec.width">1280</property>
  <property name="meta.media.0.codec.height">720</property>
  <property name="meta.media.0.codec.rotate">0</property>
  <property name="meta.media.0.codec.pix_fmt">yuv420p</property>
  <property name="meta.media.0.codec.sample_aspect_ratio">1</property>
  <property name="meta.media.0.codec.colorspace">709</property>
  <property name="meta.media.0.codec.color_trc">1</property>
  <property name="meta.media.0.codec.name">h264</property>
  <property name="meta.media.0.codec.long_name">H.264 / AVC / MPEG-4 AVC / MPEG-4 part 10</property>
  <property name="meta.media.0.codec.bit_rate">0</property>
  <property name="meta.attr.0.stream.HANDLER_NAME.markup">VideoHandler</property>
  <property name="meta.attr.0.stream.VENDOR_ID.markup">[0][0][0][0]</property>
  <property name="meta.attr.0.stream.ENCODER.markup">Lavc60.31.102 libx264</property>
  <property name="meta.attr.0.stream.DURATION.markup">00:00:04.350000000</property>
  <property name="meta.media.1.stream.type">audio</property>
  <property name="meta.media.1.codec.sample_fmt">fltp</property>
  <property name="meta.media.1.codec.sample_rate">44100</property>
  <property name="meta.media.1.codec.channels">2</property>
  <property name="meta.media.1.codec.name">vorbis</property>
  <property name="meta.media.1.codec.long_name">Vorbis</property>
  <property name="meta.media.1.codec.bit_rate">0</property>
  <property name="meta.attr.1.stream.HANDLER_NAME.markup">SoundHandler</property>
  <property name="meta.attr.1.stream.VENDOR_ID.markup">[0][0][0][0]</property>
  <property name="meta.attr.1.stream.ENCODER.markup">Lavc60.31.102 libvorbis</property>
  <property name="meta.attr.1.stream.DURATION.markup">00:00:04.415000000</property>
  <property name="meta.attr.COMPATIBLE_BRANDS.markup">isomiso2avc1mp41</property>
  <property name="meta.attr.MAJOR_BRAND.markup">isom</property>
  <property name="meta.attr.MINOR_VERSION.markup">512</property>
  <property name="meta.attr.ENCODER.markup">Lavf60.16.100</property>
  <property name="seekable">1</property>
  <property name="meta.media.sample_aspect_num">1</property>
  <property name="meta.media.sample_aspect_den">1</property>
  <property name="aspect_ratio">1</property>
  <property name="format">3</property>
  <property name="kdenlive:clipname"/>
  <property name="meta.media.frame_rate_num">23</property>
  <property name="meta.media.frame_rate_den">1</property>
  <property name="meta.media.colorspace">709</property>
  <property name="meta.media.color_trc">1</property>
  <property name="meta.media.has_b_frames">2</property>
  <property name="meta.media.width">1280</property>
  <property name="meta.media.height">720</property>
  <property name="meta.media.color_range">mpeg</property>
  <property name="meta.media.top_field_first">0</property>
  <property name="meta.media.progressive">1</property>
  <property name="kdenlive:clip_type">0</property>
  <property name="kdenlive:folderid">511</property>
  <property name="kdenlive:id">517</property>
  <property name="kdenlive:file_size">262276</property>
  <property name="kdenlive:file_hash">65f92bf8c0d2b21be6b72a4fd6a53541</property>
  <property name="kdenlive:audio_max1">1</property>
 </producer>
 <producer id="producer473" in="00:00:00.000" out="00:00:16.100">
  <property name="length">967</property>
  <property name="eof">pause</property>
  <property name="resource">/home/federico/Nextcloud/Kden/EditingUT/Video/GreenScreen/dancing polish cow meme green screen.mkv</property>
  <property name="audio_index">1</property>
  <property name="video_index">0</property>
  <property name="mute_on_pause">0</property>
  <property name="mlt_service">avformat-novalidate</property>
  <property name="meta.media.nb_streams">2</property>
  <property name="meta.media.0.stream.type">video</property>
  <property name="meta.media.0.stream.frame_rate">60</property>
  <property name="meta.media.0.stream.sample_aspect_ratio">1</property>
  <property name="meta.media.0.codec.width">1920</property>
  <property name="meta.media.0.codec.height">1080</property>
  <property name="meta.media.0.codec.rotate">0</property>
  <property name="meta.media.0.codec.pix_fmt">yuv420p</property>
  <property name="meta.media.0.codec.sample_aspect_ratio">1</property>
  <property name="meta.media.0.codec.colorspace">709</property>
  <property name="meta.media.0.codec.color_trc">1</property>
  <property name="meta.media.0.codec.name">h264</property>
  <property name="meta.media.0.codec.long_name">H.264 / AVC / MPEG-4 AVC / MPEG-4 part 10</property>
  <property name="meta.media.0.codec.bit_rate">0</property>
  <property name="meta.attr.0.stream.HANDLER_NAME.markup">ISO Media file produced by Google Inc.</property>
  <property name="meta.attr.0.stream.VENDOR_ID.markup">[0][0][0][0]</property>
  <property name="meta.attr.0.stream.ENCODER.markup">Lavc60.31.102 libx264</property>
  <property name="meta.attr.0.stream.DURATION.markup">00:00:16.053000000</property>
  <property name="meta.media.1.stream.type">audio</property>
  <property name="meta.media.1.codec.sample_fmt">fltp</property>
  <property name="meta.media.1.codec.sample_rate">44100</property>
  <property name="meta.media.1.codec.channels">2</property>
  <property name="meta.media.1.codec.name">vorbis</property>
  <property name="meta.media.1.codec.long_name">Vorbis</property>
  <property name="meta.media.1.codec.bit_rate">0</property>
  <property name="meta.attr.1.stream.HANDLER_NAME.markup">ISO Media file produced by Google Inc.</property>
  <property name="meta.attr.1.stream.VENDOR_ID.markup">[0][0][0][0]</property>
  <property name="meta.attr.1.stream.ENCODER.markup">Lavc60.31.102 libvorbis</property>
  <property name="meta.attr.1.stream.DURATION.markup">00:00:16.118000000</property>
  <property name="meta.attr.COMPATIBLE_BRANDS.markup">isomiso2avc1mp41</property>
  <property name="meta.attr.MAJOR_BRAND.markup">isom</property>
  <property name="meta.attr.MINOR_VERSION.markup">512</property>
  <property name="meta.attr.ENCODER.markup">Lavf60.16.100</property>
  <property name="seekable">1</property>
  <property name="meta.media.sample_aspect_num">1</property>
  <property name="meta.media.sample_aspect_den">1</property>
  <property name="aspect_ratio">1</property>
  <property name="format">3</property>
  <property name="kdenlive:clipname"/>
  <property name="meta.media.frame_rate_num">60</property>
  <property name="meta.media.frame_rate_den">1</property>
  <property name="meta.media.colorspace">709</property>
  <property name="meta.media.color_trc">1</property>
  <property name="meta.media.has_b_frames">2</property>
  <property name="meta.media.width">1920</property>
  <property name="meta.media.height">1080</property>
  <property name="meta.media.color_range">mpeg</property>
  <property name="meta.media.top_field_first">0</property>
  <property name="meta.media.progressive">1</property>
  <property name="kdenlive:clip_type">0</property>
  <property name="kdenlive:folderid">511</property>
  <property name="kdenlive:id">518</property>
  <property name="kdenlive:file_size">1966526</property>
  <property name="kdenlive:file_hash">8061a3010041a5c198af46ec5909595e</property>
  <property name="kdenlive:audio_max1">207</property>
 </producer>
 <producer id="producer476" in="00:00:00.000" out="00:00:11.333">
  <property name="length">681</property>
  <property name="eof">pause</property>
  <property name="resource">/home/federico/Nextcloud/Kden/EditingUT/Video/GreenScreen/dj khaled   another one meme.mkv</property>
  <property name="audio_index">1</property>
  <property name="video_index">0</property>
  <property name="mute_on_pause">0</property>
  <property name="mlt_service">avformat-novalidate</property>
  <property name="meta.media.nb_streams">2</property>
  <property name="meta.media.0.stream.type">video</property>
  <property name="meta.media.0.stream.frame_rate">29.97</property>
  <property name="meta.media.0.stream.sample_aspect_ratio">1</property>
  <property name="meta.media.0.codec.width">1920</property>
  <property name="meta.media.0.codec.height">1080</property>
  <property name="meta.media.0.codec.rotate">0</property>
  <property name="meta.media.0.codec.pix_fmt">yuv420p</property>
  <property name="meta.media.0.codec.sample_aspect_ratio">1</property>
  <property name="meta.media.0.codec.colorspace">709</property>
  <property name="meta.media.0.codec.color_trc">1</property>
  <property name="meta.media.0.codec.name">h264</property>
  <property name="meta.media.0.codec.long_name">H.264 / AVC / MPEG-4 AVC / MPEG-4 part 10</property>
  <property name="meta.media.0.codec.bit_rate">0</property>
  <property name="meta.attr.0.stream.HANDLER_NAME.markup">ISO Media file produced by Google Inc.</property>
  <property name="meta.attr.0.stream.VENDOR_ID.markup">[0][0][0][0]</property>
  <property name="meta.attr.0.stream.ENCODER.markup">Lavc60.31.102 libx264</property>
  <property name="meta.attr.0.stream.DURATION.markup">00:00:11.180000000</property>
  <property name="meta.media.1.stream.type">audio</property>
  <property name="meta.media.1.codec.sample_fmt">fltp</property>
  <property name="meta.media.1.codec.sample_rate">44100</property>
  <property name="meta.media.1.codec.channels">2</property>
  <property name="meta.media.1.codec.name">vorbis</property>
  <property name="meta.media.1.codec.long_name">Vorbis</property>
  <property name="meta.media.1.codec.bit_rate">0</property>
  <property name="meta.attr.1.stream.HANDLER_NAME.markup">ISO Media file produced by Google Inc.</property>
  <property name="meta.attr.1.stream.VENDOR_ID.markup">[0][0][0][0]</property>
  <property name="meta.attr.1.stream.ENCODER.markup">Lavc60.31.102 libvorbis</property>
  <property name="meta.attr.1.stream.DURATION.markup">00:00:11.357000000</property>
  <property name="meta.attr.COMPATIBLE_BRANDS.markup">isomiso2avc1mp41</property>
  <property name="meta.attr.MAJOR_BRAND.markup">isom</property>
  <property name="meta.attr.MINOR_VERSION.markup">512</property>
  <property name="meta.attr.ENCODER.markup">Lavf60.16.100</property>
  <property name="seekable">1</property>
  <property name="meta.media.sample_aspect_num">1</property>
  <property name="meta.media.sample_aspect_den">1</property>
  <property name="aspect_ratio">1</property>
  <property name="format">3</property>
  <property name="kdenlive:clipname"/>
  <property name="meta.media.frame_rate_num">30000</property>
  <property name="meta.media.frame_rate_den">1001</property>
  <property name="meta.media.colorspace">709</property>
  <property name="meta.media.color_trc">1</property>
  <property name="meta.media.has_b_frames">2</property>
  <property name="meta.media.width">1920</property>
  <property name="meta.media.height">1080</property>
  <property name="meta.media.color_range">mpeg</property>
  <property name="meta.media.top_field_first">0</property>
  <property name="meta.media.progressive">1</property>
  <property name="kdenlive:clip_type">0</property>
  <property name="kdenlive:folderid">511</property>
  <property name="kdenlive:id">519</property>
  <property name="kdenlive:file_size">1849156</property>
  <property name="kdenlive:file_hash">57e3e4892a557551d0f8ab7208d5d8d1</property>
  <property name="kdenlive:audio_max1">166</property>
 </producer>
 <producer id="producer477" in="00:00:00.000" out="00:00:03.950">
  <property name="length">238</property>
  <property name="eof">pause</property>
  <property name="resource">/home/federico/Nextcloud/Kden/EditingUT/Video/GreenScreen/fatality mortal kombat 9.mkv</property>
  <property name="audio_index">1</property>
  <property name="video_index">0</property>
  <property name="mute_on_pause">0</property>
  <property name="mlt_service">avformat-novalidate</property>
  <property name="meta.media.nb_streams">2</property>
  <property name="meta.media.0.stream.type">video</property>
  <property name="meta.media.0.stream.frame_rate">29.97</property>
  <property name="meta.media.0.stream.sample_aspect_ratio">1</property>
  <property name="meta.media.0.codec.width">1920</property>
  <property name="meta.media.0.codec.height">1080</property>
  <property name="meta.media.0.codec.rotate">0</property>
  <property name="meta.media.0.codec.pix_fmt">yuv420p</property>
  <property name="meta.media.0.codec.sample_aspect_ratio">1</property>
  <property name="meta.media.0.codec.colorspace">709</property>
  <property name="meta.media.0.codec.color_trc">1</property>
  <property name="meta.media.0.codec.name">h264</property>
  <property name="meta.media.0.codec.long_name">H.264 / AVC / MPEG-4 AVC / MPEG-4 part 10</property>
  <property name="meta.media.0.codec.bit_rate">0</property>
  <property name="meta.attr.0.stream.HANDLER_NAME.markup">ISO Media file produced by Google Inc.</property>
  <property name="meta.attr.0.stream.VENDOR_ID.markup">[0][0][0][0]</property>
  <property name="meta.attr.0.stream.ENCODER.markup">Lavc60.31.102 libx264</property>
  <property name="meta.attr.0.stream.DURATION.markup">00:00:03.907000000</property>
  <property name="meta.media.1.stream.type">audio</property>
  <property name="meta.media.1.codec.sample_fmt">fltp</property>
  <property name="meta.media.1.codec.sample_rate">44100</property>
  <property name="meta.media.1.codec.channels">2</property>
  <property name="meta.media.1.codec.name">vorbis</property>
  <property name="meta.media.1.codec.long_name">Vorbis</property>
  <property name="meta.media.1.codec.bit_rate">0</property>
  <property name="meta.attr.1.stream.language.markup">eng</property>
  <property name="meta.attr.1.stream.HANDLER_NAME.markup">ISO Media file produced by Google Inc.</property>
  <property name="meta.attr.1.stream.VENDOR_ID.markup">[0][0][0][0]</property>
  <property name="meta.attr.1.stream.ENCODER.markup">Lavc60.31.102 libvorbis</property>
  <property name="meta.attr.1.stream.DURATION.markup">00:00:03.973000000</property>
  <property name="meta.attr.COMPATIBLE_BRANDS.markup">isomiso2avc1mp41</property>
  <property name="meta.attr.MAJOR_BRAND.markup">isom</property>
  <property name="meta.attr.MINOR_VERSION.markup">512</property>
  <property name="meta.attr.ENCODER.markup">Lavf60.16.100</property>
  <property name="seekable">1</property>
  <property name="meta.media.sample_aspect_num">1</property>
  <property name="meta.media.sample_aspect_den">1</property>
  <property name="aspect_ratio">1</property>
  <property name="format">3</property>
  <property name="kdenlive:clipname"/>
  <property name="meta.media.frame_rate_num">30000</property>
  <property name="meta.media.frame_rate_den">1001</property>
  <property name="meta.media.colorspace">709</property>
  <property name="meta.media.color_trc">1</property>
  <property name="meta.media.has_b_frames">2</property>
  <property name="meta.media.width">1920</property>
  <property name="meta.media.height">1080</property>
  <property name="meta.media.color_range">mpeg</property>
  <property name="meta.media.top_field_first">0</property>
  <property name="meta.media.progressive">1</property>
  <property name="kdenlive:clip_type">0</property>
  <property name="kdenlive:folderid">511</property>
  <property name="kdenlive:id">520</property>
  <property name="kdenlive:file_size">138627</property>
  <property name="kdenlive:file_hash">34bcd446682a51a3017f858ac6cdaff1</property>
  <property name="kdenlive:audio_max1">227</property>
 </producer>
 <producer id="producer479" in="00:00:00.000" out="00:00:10.617">
  <property name="length">638</property>
  <property name="eof">pause</property>
  <property name="resource">/home/federico/Nextcloud/Kden/EditingUT/Video/GreenScreen/fire green screen.mkv</property>
  <property name="audio_index">1</property>
  <property name="video_index">0</property>
  <property name="mute_on_pause">0</property>
  <property name="mlt_service">avformat-novalidate</property>
  <property name="meta.media.nb_streams">2</property>
  <property name="meta.media.0.stream.type">video</property>
  <property name="meta.media.0.stream.frame_rate">30</property>
  <property name="meta.media.0.stream.sample_aspect_ratio">1</property>
  <property name="meta.media.0.codec.width">1920</property>
  <property name="meta.media.0.codec.height">1080</property>
  <property name="meta.media.0.codec.rotate">0</property>
  <property name="meta.media.0.codec.pix_fmt">yuv420p</property>
  <property name="meta.media.0.codec.sample_aspect_ratio">1</property>
  <property name="meta.media.0.codec.colorspace">709</property>
  <property name="meta.media.0.codec.color_trc">1</property>
  <property name="meta.media.0.codec.name">h264</property>
  <property name="meta.media.0.codec.long_name">H.264 / AVC / MPEG-4 AVC / MPEG-4 part 10</property>
  <property name="meta.media.0.codec.bit_rate">0</property>
  <property name="meta.attr.0.stream.HANDLER_NAME.markup">VideoHandler</property>
  <property name="meta.attr.0.stream.VENDOR_ID.markup">[0][0][0][0]</property>
  <property name="meta.attr.0.stream.ENCODER.markup">Lavc60.31.102 libx264</property>
  <property name="meta.attr.0.stream.DURATION.markup">00:00:10.569000000</property>
  <property name="meta.media.1.stream.type">audio</property>
  <property name="meta.media.1.codec.sample_fmt">fltp</property>
  <property name="meta.media.1.codec.sample_rate">44100</property>
  <property name="meta.media.1.codec.channels">2</property>
  <property name="meta.media.1.codec.name">vorbis</property>
  <property name="meta.media.1.codec.long_name">Vorbis</property>
  <property name="meta.media.1.codec.bit_rate">0</property>
  <property name="meta.attr.1.stream.HANDLER_NAME.markup">SoundHandler</property>
  <property name="meta.attr.1.stream.VENDOR_ID.markup">[0][0][0][0]</property>
  <property name="meta.attr.1.stream.ENCODER.markup">Lavc60.31.102 libvorbis</property>
  <property name="meta.attr.1.stream.DURATION.markup">00:00:10.638000000</property>
  <property name="meta.attr.COMPATIBLE_BRANDS.markup">isomiso2avc1mp41</property>
  <property name="meta.attr.MAJOR_BRAND.markup">isom</property>
  <property name="meta.attr.MINOR_VERSION.markup">512</property>
  <property name="meta.attr.ENCODER.markup">Lavf60.16.100</property>
  <property name="seekable">1</property>
  <property name="meta.media.sample_aspect_num">1</property>
  <property name="meta.media.sample_aspect_den">1</property>
  <property name="aspect_ratio">1</property>
  <property name="format">3</property>
  <property name="kdenlive:clipname"/>
  <property name="meta.media.frame_rate_num">30</property>
  <property name="meta.media.frame_rate_den">1</property>
  <property name="meta.media.colorspace">709</property>
  <property name="meta.media.color_trc">1</property>
  <property name="meta.media.has_b_frames">2</property>
  <property name="meta.media.width">1920</property>
  <property name="meta.media.height">1080</property>
  <property name="meta.media.color_range">mpeg</property>
  <property name="meta.media.top_field_first">0</property>
  <property name="meta.media.progressive">1</property>
  <property name="kdenlive:clip_type">0</property>
  <property name="kdenlive:folderid">511</property>
  <property name="kdenlive:id">521</property>
  <property name="kdenlive:file_size">8011477</property>
  <property name="kdenlive:file_hash">361a4e83a4a5805489d9934a07b768f9</property>
  <property name="kdenlive:audio_max1">1</property>
 </producer>
 <producer id="producer475" in="00:00:00.000" out="00:00:01.467">
  <property name="length">89</property>
  <property name="eof">pause</property>
  <property name="resource">/home/federico/Nextcloud/Kden/EditingUT/Video/GreenScreen/fire transition green screen.mkv</property>
  <property name="audio_index">1</property>
  <property name="video_index">0</property>
  <property name="mute_on_pause">0</property>
  <property name="mlt_service">avformat-novalidate</property>
  <property name="meta.media.nb_streams">2</property>
  <property name="meta.media.0.stream.type">video</property>
  <property name="meta.media.0.stream.frame_rate">30</property>
  <property name="meta.media.0.stream.sample_aspect_ratio">1</property>
  <property name="meta.media.0.codec.width">1280</property>
  <property name="meta.media.0.codec.height">720</property>
  <property name="meta.media.0.codec.rotate">0</property>
  <property name="meta.media.0.codec.pix_fmt">yuv420p</property>
  <property name="meta.media.0.codec.sample_aspect_ratio">1</property>
  <property name="meta.media.0.codec.colorspace">709</property>
  <property name="meta.media.0.codec.color_trc">1</property>
  <property name="meta.media.0.codec.name">h264</property>
  <property name="meta.media.0.codec.long_name">H.264 / AVC / MPEG-4 AVC / MPEG-4 part 10</property>
  <property name="meta.media.0.codec.bit_rate">0</property>
  <property name="meta.attr.0.stream.HANDLER_NAME.markup">ISO Media file produced by Google Inc.</property>
  <property name="meta.attr.0.stream.VENDOR_ID.markup">[0][0][0][0]</property>
  <property name="meta.attr.0.stream.ENCODER.markup">Lavc60.31.102 libx264</property>
  <property name="meta.attr.0.stream.DURATION.markup">00:00:01.403000000</property>
  <property name="meta.media.1.stream.type">audio</property>
  <property name="meta.media.1.codec.sample_fmt">fltp</property>
  <property name="meta.media.1.codec.sample_rate">44100</property>
  <property name="meta.media.1.codec.channels">2</property>
  <property name="meta.media.1.codec.name">vorbis</property>
  <property name="meta.media.1.codec.long_name">Vorbis</property>
  <property name="meta.media.1.codec.bit_rate">0</property>
  <property name="meta.attr.1.stream.language.markup">eng</property>
  <property name="meta.attr.1.stream.HANDLER_NAME.markup">ISO Media file produced by Google Inc.</property>
  <property name="meta.attr.1.stream.VENDOR_ID.markup">[0][0][0][0]</property>
  <property name="meta.attr.1.stream.ENCODER.markup">Lavc60.31.102 libvorbis</property>
  <property name="meta.attr.1.stream.DURATION.markup">00:00:01.489000000</property>
  <property name="meta.attr.COMPATIBLE_BRANDS.markup">isomiso2avc1mp41</property>
  <property name="meta.attr.MAJOR_BRAND.markup">isom</property>
  <property name="meta.attr.MINOR_VERSION.markup">512</property>
  <property name="meta.attr.ENCODER.markup">Lavf60.16.100</property>
  <property name="seekable">1</property>
  <property name="meta.media.sample_aspect_num">1</property>
  <property name="meta.media.sample_aspect_den">1</property>
  <property name="aspect_ratio">1</property>
  <property name="format">3</property>
  <property name="kdenlive:clipname"/>
  <property name="meta.media.frame_rate_num">30</property>
  <property name="meta.media.frame_rate_den">1</property>
  <property name="meta.media.colorspace">709</property>
  <property name="meta.media.color_trc">1</property>
  <property name="meta.media.has_b_frames">2</property>
  <property name="meta.media.width">1280</property>
  <property name="meta.media.height">720</property>
  <property name="meta.media.color_range">mpeg</property>
  <property name="meta.media.top_field_first">0</property>
  <property name="meta.media.progressive">1</property>
  <property name="kdenlive:clip_type">0</property>
  <property name="kdenlive:folderid">511</property>
  <property name="kdenlive:id">522</property>
  <property name="kdenlive:file_size">450742</property>
  <property name="kdenlive:file_hash">4c7ec428702670d8e0dabe72bdf9c230</property>
  <property name="kdenlive:audio_max1">188</property>
 </producer>
 <producer id="producer480" in="00:00:00.000" out="00:00:15.700">
  <property name="length">943</property>
  <property name="eof">pause</property>
  <property name="resource">/home/federico/Nextcloud/Kden/EditingUT/Video/GreenScreen/green screen crowd celebrating.mkv</property>
  <property name="audio_index">1</property>
  <property name="video_index">0</property>
  <property name="mute_on_pause">0</property>
  <property name="mlt_service">avformat-novalidate</property>
  <property name="meta.media.nb_streams">2</property>
  <property name="meta.media.0.stream.type">video</property>
  <property name="meta.media.0.stream.frame_rate">29.97</property>
  <property name="meta.media.0.stream.sample_aspect_ratio">1</property>
  <property name="meta.media.0.codec.width">640</property>
  <property name="meta.media.0.codec.height">360</property>
  <property name="meta.media.0.codec.rotate">0</property>
  <property name="meta.media.0.codec.pix_fmt">yuv420p</property>
  <property name="meta.media.0.codec.sample_aspect_ratio">1</property>
  <property name="meta.media.0.codec.colorspace">709</property>
  <property name="meta.media.0.codec.color_trc">1</property>
  <property name="meta.media.0.codec.name">h264</property>
  <property name="meta.media.0.codec.long_name">H.264 / AVC / MPEG-4 AVC / MPEG-4 part 10</property>
  <property name="meta.media.0.codec.bit_rate">0</property>
  <property name="meta.attr.0.stream.HANDLER_NAME.markup">ISO Media file produced by Google Inc. Created on: 02/14/2023.</property>
  <property name="meta.attr.0.stream.VENDOR_ID.markup">[0][0][0][0]</property>
  <property name="meta.attr.0.stream.ENCODER.markup">Lavc60.31.102 libx264</property>
  <property name="meta.attr.0.stream.DURATION.markup">00:00:15.718000000</property>
  <property name="meta.media.1.stream.type">audio</property>
  <property name="meta.media.1.codec.sample_fmt">fltp</property>
  <property name="meta.media.1.codec.sample_rate">44100</property>
  <property name="meta.media.1.codec.channels">2</property>
  <property name="meta.media.1.codec.name">vorbis</property>
  <property name="meta.media.1.codec.long_name">Vorbis</property>
  <property name="meta.media.1.codec.bit_rate">0</property>
  <property name="meta.attr.1.stream.language.markup">eng</property>
  <property name="meta.attr.1.stream.HANDLER_NAME.markup">ISO Media file produced by Google Inc. Created on: 02/14/2023.</property>
  <property name="meta.attr.1.stream.VENDOR_ID.markup">[0][0][0][0]</property>
  <property name="meta.attr.1.stream.ENCODER.markup">Lavc60.31.102 libvorbis</property>
  <property name="meta.attr.1.stream.DURATION.markup">00:00:15.723000000</property>
  <property name="meta.attr.COMPATIBLE_BRANDS.markup">isommp42</property>
  <property name="meta.attr.MAJOR_BRAND.markup">mp42</property>
  <property name="meta.attr.MINOR_VERSION.markup">0</property>
  <property name="meta.attr.ENCODER.markup">Lavf60.16.100</property>
  <property name="seekable">1</property>
  <property name="meta.media.sample_aspect_num">1</property>
  <property name="meta.media.sample_aspect_den">1</property>
  <property name="aspect_ratio">1</property>
  <property name="format">3</property>
  <property name="kdenlive:clipname"/>
  <property name="meta.media.frame_rate_num">30000</property>
  <property name="meta.media.frame_rate_den">1001</property>
  <property name="meta.media.colorspace">709</property>
  <property name="meta.media.color_trc">1</property>
  <property name="meta.media.has_b_frames">2</property>
  <property name="meta.media.width">640</property>
  <property name="meta.media.height">360</property>
  <property name="meta.media.color_range">mpeg</property>
  <property name="meta.media.top_field_first">0</property>
  <property name="meta.media.progressive">1</property>
  <property name="kdenlive:clip_type">0</property>
  <property name="kdenlive:folderid">511</property>
  <property name="kdenlive:id">523</property>
  <property name="kdenlive:file_size">1555675</property>
  <property name="kdenlive:file_hash">09e6b4d70a7b85558e9325cb3663e92a</property>
  <property name="kdenlive:audio_max1">214</property>
 </producer>
 <producer id="producer481" in="00:00:00.000" out="00:00:05.933">
  <property name="length">357</property>
  <property name="eof">pause</property>
  <property name="resource">/home/federico/Nextcloud/Kden/EditingUT/Video/GreenScreen/green screen explosion.mkv</property>
  <property name="audio_index">1</property>
  <property name="video_index">0</property>
  <property name="mute_on_pause">0</property>
  <property name="mlt_service">avformat-novalidate</property>
  <property name="meta.media.nb_streams">2</property>
  <property name="meta.media.0.stream.type">video</property>
  <property name="meta.media.0.stream.frame_rate">23.976</property>
  <property name="meta.media.0.stream.sample_aspect_ratio">1</property>
  <property name="meta.media.0.codec.width">1920</property>
  <property name="meta.media.0.codec.height">1080</property>
  <property name="meta.media.0.codec.rotate">0</property>
  <property name="meta.media.0.codec.pix_fmt">yuv420p</property>
  <property name="meta.media.0.codec.sample_aspect_ratio">1</property>
  <property name="meta.media.0.codec.colorspace">709</property>
  <property name="meta.media.0.codec.color_trc">1</property>
  <property name="meta.media.0.codec.name">h264</property>
  <property name="meta.media.0.codec.long_name">H.264 / AVC / MPEG-4 AVC / MPEG-4 part 10</property>
  <property name="meta.media.0.codec.bit_rate">0</property>
  <property name="meta.attr.0.stream.HANDLER_NAME.markup">ISO Media file produced by Google Inc.</property>
  <property name="meta.attr.0.stream.VENDOR_ID.markup">[0][0][0][0]</property>
  <property name="meta.attr.0.stream.ENCODER.markup">Lavc60.31.102 libx264</property>
  <property name="meta.attr.0.stream.DURATION.markup">00:00:05.884000000</property>
  <property name="meta.media.1.stream.type">audio</property>
  <property name="meta.media.1.codec.sample_fmt">fltp</property>
  <property name="meta.media.1.codec.sample_rate">44100</property>
  <property name="meta.media.1.codec.channels">2</property>
  <property name="meta.media.1.codec.name">vorbis</property>
  <property name="meta.media.1.codec.long_name">Vorbis</property>
  <property name="meta.media.1.codec.bit_rate">0</property>
  <property name="meta.attr.1.stream.language.markup">eng</property>
  <property name="meta.attr.1.stream.HANDLER_NAME.markup">ISO Media file produced by Google Inc.</property>
  <property name="meta.attr.1.stream.VENDOR_ID.markup">[0][0][0][0]</property>
  <property name="meta.attr.1.stream.ENCODER.markup">Lavc60.31.102 libvorbis</property>
  <property name="meta.attr.1.stream.DURATION.markup">00:00:05.947000000</property>
  <property name="meta.attr.COMPATIBLE_BRANDS.markup">isomiso2avc1mp41</property>
  <property name="meta.attr.MAJOR_BRAND.markup">isom</property>
  <property name="meta.attr.MINOR_VERSION.markup">512</property>
  <property name="meta.attr.ENCODER.markup">Lavf60.16.100</property>
  <property name="seekable">1</property>
  <property name="meta.media.sample_aspect_num">1</property>
  <property name="meta.media.sample_aspect_den">1</property>
  <property name="aspect_ratio">1</property>
  <property name="format">3</property>
  <property name="kdenlive:clipname"/>
  <property name="meta.media.frame_rate_num">24000</property>
  <property name="meta.media.frame_rate_den">1001</property>
  <property name="meta.media.colorspace">709</property>
  <property name="meta.media.color_trc">1</property>
  <property name="meta.media.has_b_frames">2</property>
  <property name="meta.media.width">1920</property>
  <property name="meta.media.height">1080</property>
  <property name="meta.media.color_range">mpeg</property>
  <property name="meta.media.top_field_first">0</property>
  <property name="meta.media.progressive">1</property>
  <property name="kdenlive:clip_type">0</property>
  <property name="kdenlive:folderid">511</property>
  <property name="kdenlive:id">524</property>
  <property name="kdenlive:file_size">2134726</property>
  <property name="kdenlive:file_hash">67c1bd6946d9c182109db74c2db931a4</property>
  <property name="kdenlive:audio_max1">238</property>
 </producer>
 <producer id="producer478" in="00:00:00.000" out="00:00:04.100">
  <property name="length">247</property>
  <property name="eof">pause</property>
  <property name="resource">/home/federico/Nextcloud/Kden/EditingUT/Video/GreenScreen/green screen like button with s.mkv</property>
  <property name="audio_index">1</property>
  <property name="video_index">0</property>
  <property name="mute_on_pause">0</property>
  <property name="mlt_service">avformat-novalidate</property>
  <property name="meta.media.nb_streams">2</property>
  <property name="meta.media.0.stream.type">video</property>
  <property name="meta.media.0.stream.frame_rate">30</property>
  <property name="meta.media.0.stream.sample_aspect_ratio">1</property>
  <property name="meta.media.0.codec.width">1280</property>
  <property name="meta.media.0.codec.height">720</property>
  <property name="meta.media.0.codec.rotate">0</property>
  <property name="meta.media.0.codec.pix_fmt">yuv420p</property>
  <property name="meta.media.0.codec.sample_aspect_ratio">1</property>
  <property name="meta.media.0.codec.colorspace">709</property>
  <property name="meta.media.0.codec.color_trc">1</property>
  <property name="meta.media.0.codec.name">h264</property>
  <property name="meta.media.0.codec.long_name">H.264 / AVC / MPEG-4 AVC / MPEG-4 part 10</property>
  <property name="meta.media.0.codec.bit_rate">0</property>
  <property name="meta.attr.0.stream.HANDLER_NAME.markup">ISO Media file produced by Google Inc.</property>
  <property name="meta.attr.0.stream.VENDOR_ID.markup">[0][0][0][0]</property>
  <property name="meta.attr.0.stream.ENCODER.markup">Lavc60.31.102 libx264</property>
  <property name="meta.attr.0.stream.DURATION.markup">00:00:04.036000000</property>
  <property name="meta.media.1.stream.type">audio</property>
  <property name="meta.media.1.codec.sample_fmt">fltp</property>
  <property name="meta.media.1.codec.sample_rate">44100</property>
  <property name="meta.media.1.codec.channels">2</property>
  <property name="meta.media.1.codec.name">vorbis</property>
  <property name="meta.media.1.codec.long_name">Vorbis</property>
  <property name="meta.media.1.codec.bit_rate">0</property>
  <property name="meta.attr.1.stream.language.markup">nld</property>
  <property name="meta.attr.1.stream.HANDLER_NAME.markup">ISO Media file produced by Google Inc.</property>
  <property name="meta.attr.1.stream.VENDOR_ID.markup">[0][0][0][0]</property>
  <property name="meta.attr.1.stream.ENCODER.markup">Lavc60.31.102 libvorbis</property>
  <property name="meta.attr.1.stream.DURATION.markup">00:00:04.113000000</property>
  <property name="meta.attr.COMPATIBLE_BRANDS.markup">isomiso2avc1mp41</property>
  <property name="meta.attr.MAJOR_BRAND.markup">isom</property>
  <property name="meta.attr.MINOR_VERSION.markup">512</property>
  <property name="meta.attr.ENCODER.markup">Lavf60.16.100</property>
  <property name="seekable">1</property>
  <property name="meta.media.sample_aspect_num">1</property>
  <property name="meta.media.sample_aspect_den">1</property>
  <property name="aspect_ratio">1</property>
  <property name="format">3</property>
  <property name="kdenlive:clipname"/>
  <property name="meta.media.frame_rate_num">30</property>
  <property name="meta.media.frame_rate_den">1</property>
  <property name="meta.media.colorspace">709</property>
  <property name="meta.media.color_trc">1</property>
  <property name="meta.media.has_b_frames">2</property>
  <property name="meta.media.width">1280</property>
  <property name="meta.media.height">720</property>
  <property name="meta.media.color_range">mpeg</property>
  <property name="meta.media.top_field_first">0</property>
  <property name="meta.media.progressive">1</property>
  <property name="kdenlive:clip_type">0</property>
  <property name="kdenlive:folderid">511</property>
  <property name="kdenlive:id">525</property>
  <property name="kdenlive:file_size">62673</property>
  <property name="kdenlive:file_hash">f380c1858a7bfea0599cb08af99067ec</property>
  <property name="kdenlive:audio_max1">209</property>
 </producer>
 <producer id="producer482" in="00:00:00.000" out="00:00:04.067">
  <property name="length">245</property>
  <property name="eof">pause</property>
  <property name="resource">/home/federico/Nextcloud/Kden/EditingUT/Video/GreenScreen/green screen nice meme.mkv</property>
  <property name="audio_index">1</property>
  <property name="video_index">0</property>
  <property name="mute_on_pause">0</property>
  <property name="mlt_service">avformat-novalidate</property>
  <property name="meta.media.nb_streams">2</property>
  <property name="meta.media.0.stream.type">video</property>
  <property name="meta.media.0.stream.frame_rate">30</property>
  <property name="meta.media.0.stream.sample_aspect_ratio">0</property>
  <property name="meta.media.0.codec.width">640</property>
  <property name="meta.media.0.codec.height">360</property>
  <property name="meta.media.0.codec.rotate">0</property>
  <property name="meta.media.0.codec.pix_fmt">yuv420p</property>
  <property name="meta.media.0.codec.sample_aspect_ratio">0</property>
  <property name="meta.media.0.codec.colorspace">601</property>
  <property name="meta.media.0.codec.color_trc">1</property>
  <property name="meta.media.0.codec.name">h264</property>
  <property name="meta.media.0.codec.long_name">H.264 / AVC / MPEG-4 AVC / MPEG-4 part 10</property>
  <property name="meta.media.0.codec.bit_rate">0</property>
  <property name="meta.attr.0.stream.HANDLER_NAME.markup">ISO Media file produced by Google Inc. Created on: 08/21/2023.</property>
  <property name="meta.attr.0.stream.VENDOR_ID.markup">[0][0][0][0]</property>
  <property name="meta.attr.0.stream.ENCODER.markup">Lavc60.31.102 libx264</property>
  <property name="meta.attr.0.stream.DURATION.markup">00:00:03.936000000</property>
  <property name="meta.media.1.stream.type">audio</property>
  <property name="meta.media.1.codec.sample_fmt">fltp</property>
  <property name="meta.media.1.codec.sample_rate">44100</property>
  <property name="meta.media.1.codec.channels">2</property>
  <property name="meta.media.1.codec.name">vorbis</property>
  <property name="meta.media.1.codec.long_name">Vorbis</property>
  <property name="meta.media.1.codec.bit_rate">0</property>
  <property name="meta.attr.1.stream.language.markup">eng</property>
  <property name="meta.attr.1.stream.HANDLER_NAME.markup">ISO Media file produced by Google Inc.</property>
  <property name="meta.attr.1.stream.VENDOR_ID.markup">[0][0][0][0]</property>
  <property name="meta.attr.1.stream.ENCODER.markup">Lavc60.31.102 libvorbis</property>
  <property name="meta.attr.1.stream.DURATION.markup">00:00:04.090000000</property>
  <property name="meta.attr.COMPATIBLE_BRANDS.markup">isomiso2mp41</property>
  <property name="meta.attr.MAJOR_BRAND.markup">isom</property>
  <property name="meta.attr.MINOR_VERSION.markup">512</property>
  <property name="meta.attr.ENCODER.markup">Lavf60.16.100</property>
  <property name="seekable">1</property>
  <property name="meta.media.sample_aspect_num">1</property>
  <property name="meta.media.sample_aspect_den">1</property>
  <property name="aspect_ratio">1</property>
  <property name="format">3</property>
  <property name="kdenlive:clipname"/>
  <property name="meta.media.frame_rate_num">30</property>
  <property name="meta.media.frame_rate_den">1</property>
  <property name="meta.media.colorspace">601</property>
  <property name="meta.media.color_trc">1</property>
  <property name="meta.media.has_b_frames">2</property>
  <property name="meta.media.width">640</property>
  <property name="meta.media.height">360</property>
  <property name="meta.media.color_range">mpeg</property>
  <property name="meta.media.top_field_first">0</property>
  <property name="meta.media.progressive">1</property>
  <property name="kdenlive:clip_type">0</property>
  <property name="kdenlive:folderid">511</property>
  <property name="kdenlive:id">526</property>
  <property name="kdenlive:file_size">127226</property>
  <property name="kdenlive:file_hash">11fa4c31aea077f6e2420398f8b061d3</property>
  <property name="kdenlive:audio_max1">184</property>
 </producer>
 <producer id="producer484" in="00:00:00.000" out="00:00:06.950">
  <property name="length">418</property>
  <property name="eof">pause</property>
  <property name="resource">/home/federico/Nextcloud/Kden/EditingUT/Video/GreenScreen/green screen subscribe button mouse click with.mkv</property>
  <property name="audio_index">1</property>
  <property name="video_index">0</property>
  <property name="mute_on_pause">0</property>
  <property name="mlt_service">avformat-novalidate</property>
  <property name="meta.media.nb_streams">2</property>
  <property name="meta.media.0.stream.type">video</property>
  <property name="meta.media.0.stream.frame_rate">30</property>
  <property name="meta.media.0.stream.sample_aspect_ratio">1</property>
  <property name="meta.media.0.codec.width">1920</property>
  <property name="meta.media.0.codec.height">1080</property>
  <property name="meta.media.0.codec.rotate">0</property>
  <property name="meta.media.0.codec.pix_fmt">yuv420p</property>
  <property name="meta.media.0.codec.sample_aspect_ratio">1</property>
  <property name="meta.media.0.codec.colorspace">709</property>
  <property name="meta.media.0.codec.color_trc">1</property>
  <property name="meta.media.0.codec.name">h264</property>
  <property name="meta.media.0.codec.long_name">H.264 / AVC / MPEG-4 AVC / MPEG-4 part 10</property>
  <property name="meta.media.0.codec.bit_rate">0</property>
  <property name="meta.attr.0.stream.HANDLER_NAME.markup">ISO Media file produced by Google Inc.</property>
  <property name="meta.attr.0.stream.VENDOR_ID.markup">[0][0][0][0]</property>
  <property name="meta.attr.0.stream.ENCODER.markup">Lavc60.31.102 libx264</property>
  <property name="meta.attr.0.stream.DURATION.markup">00:00:06.869000000</property>
  <property name="meta.media.1.stream.type">audio</property>
  <property name="meta.media.1.codec.sample_fmt">fltp</property>
  <property name="meta.media.1.codec.sample_rate">44100</property>
  <property name="meta.media.1.codec.channels">2</property>
  <property name="meta.media.1.codec.name">vorbis</property>
  <property name="meta.media.1.codec.long_name">Vorbis</property>
  <property name="meta.media.1.codec.bit_rate">0</property>
  <property name="meta.attr.1.stream.language.markup">eng</property>
  <property name="meta.attr.1.stream.HANDLER_NAME.markup">ISO Media file produced by Google Inc.</property>
  <property name="meta.attr.1.stream.VENDOR_ID.markup">[0][0][0][0]</property>
  <property name="meta.attr.1.stream.ENCODER.markup">Lavc60.31.102 libvorbis</property>
  <property name="meta.attr.1.stream.DURATION.markup">00:00:06.969000000</property>
  <property name="meta.attr.COMPATIBLE_BRANDS.markup">isomiso2avc1mp41</property>
  <property name="meta.attr.MAJOR_BRAND.markup">isom</property>
  <property name="meta.attr.MINOR_VERSION.markup">512</property>
  <property name="meta.attr.ENCODER.markup">Lavf60.16.100</property>
  <property name="seekable">1</property>
  <property name="meta.media.sample_aspect_num">1</property>
  <property name="meta.media.sample_aspect_den">1</property>
  <property name="aspect_ratio">1</property>
  <property name="format">3</property>
  <property name="kdenlive:clipname"/>
  <property name="meta.media.frame_rate_num">30</property>
  <property name="meta.media.frame_rate_den">1</property>
  <property name="meta.media.colorspace">709</property>
  <property name="meta.media.color_trc">1</property>
  <property name="meta.media.has_b_frames">2</property>
  <property name="meta.media.width">1920</property>
  <property name="meta.media.height">1080</property>
  <property name="meta.media.color_range">mpeg</property>
  <property name="meta.media.top_field_first">0</property>
  <property name="meta.media.progressive">1</property>
  <property name="kdenlive:clip_type">0</property>
  <property name="kdenlive:folderid">511</property>
  <property name="kdenlive:id">527</property>
  <property name="kdenlive:file_size">156042</property>
  <property name="kdenlive:file_hash">4b0a1477844039dc64b21bfb64785e83</property>
  <property name="kdenlive:audio_max1">200</property>
 </producer>
 <producer id="producer483" in="00:00:00.000" out="00:00:04.100">
  <property name="length">247</property>
  <property name="eof">pause</property>
  <property name="resource">/home/federico/Nextcloud/Kden/EditingUT/Video/GreenScreen/green screen super smash bros..mkv</property>
  <property name="audio_index">1</property>
  <property name="video_index">0</property>
  <property name="mute_on_pause">0</property>
  <property name="mlt_service">avformat-novalidate</property>
  <property name="meta.media.nb_streams">2</property>
  <property name="meta.media.0.stream.type">video</property>
  <property name="meta.media.0.stream.frame_rate">29.874</property>
  <property name="meta.media.0.stream.sample_aspect_ratio">1</property>
  <property name="meta.media.0.codec.width">640</property>
  <property name="meta.media.0.codec.height">360</property>
  <property name="meta.media.0.codec.rotate">0</property>
  <property name="meta.media.0.codec.pix_fmt">yuv420p</property>
  <property name="meta.media.0.codec.sample_aspect_ratio">1</property>
  <property name="meta.media.0.codec.colorspace">709</property>
  <property name="meta.media.0.codec.color_trc">1</property>
  <property name="meta.media.0.codec.name">h264</property>
  <property name="meta.media.0.codec.long_name">H.264 / AVC / MPEG-4 AVC / MPEG-4 part 10</property>
  <property name="meta.media.0.codec.bit_rate">0</property>
  <property name="meta.attr.0.stream.HANDLER_NAME.markup">ISO Media file produced by Google Inc.</property>
  <property name="meta.attr.0.stream.VENDOR_ID.markup">[0][0][0][0]</property>
  <property name="meta.attr.0.stream.ENCODER.markup">Lavc60.31.102 libx264</property>
  <property name="meta.attr.0.stream.DURATION.markup">00:00:03.986000000</property>
  <property name="meta.media.1.stream.type">audio</property>
  <property name="meta.media.1.codec.sample_fmt">fltp</property>
  <property name="meta.media.1.codec.sample_rate">44100</property>
  <property name="meta.media.1.codec.channels">2</property>
  <property name="meta.media.1.codec.name">vorbis</property>
  <property name="meta.media.1.codec.long_name">Vorbis</property>
  <property name="meta.media.1.codec.bit_rate">0</property>
  <property name="meta.attr.1.stream.HANDLER_NAME.markup">ISO Media file produced by Google Inc.</property>
  <property name="meta.attr.1.stream.VENDOR_ID.markup">[0][0][0][0]</property>
  <property name="meta.attr.1.stream.ENCODER.markup">Lavc60.31.102 libvorbis</property>
  <property name="meta.attr.1.stream.DURATION.markup">00:00:04.113000000</property>
  <property name="meta.attr.COMPATIBLE_BRANDS.markup">isomiso2avc1mp41</property>
  <property name="meta.attr.MAJOR_BRAND.markup">isom</property>
  <property name="meta.attr.MINOR_VERSION.markup">512</property>
  <property name="meta.attr.ENCODER.markup">Lavf60.16.100</property>
  <property name="seekable">1</property>
  <property name="meta.media.sample_aspect_num">1</property>
  <property name="meta.media.sample_aspect_den">1</property>
  <property name="aspect_ratio">1</property>
  <property name="format">3</property>
  <property name="kdenlive:clipname"/>
  <property name="meta.media.frame_rate_num">14937</property>
  <property name="meta.media.frame_rate_den">500</property>
  <property name="meta.media.colorspace">709</property>
  <property name="meta.media.color_trc">1</property>
  <property name="meta.media.has_b_frames">2</property>
  <property name="meta.media.width">640</property>
  <property name="meta.media.height">360</property>
  <property name="meta.media.color_range">mpeg</property>
  <property name="meta.media.top_field_first">0</property>
  <property name="meta.media.progressive">1</property>
  <property name="kdenlive:clip_type">0</property>
  <property name="kdenlive:folderid">511</property>
  <property name="kdenlive:id">528</property>
  <property name="kdenlive:file_size">179644</property>
  <property name="kdenlive:file_hash">aa818c27a98a90297f936f8e0b704dcc</property>
  <property name="kdenlive:audio_max1">183</property>
 </producer>
 <producer id="producer485" in="00:00:00.000" out="00:00:06.000">
  <property name="length">361</property>
  <property name="eof">pause</property>
  <property name="resource">/home/federico/Nextcloud/Kden/EditingUT/Video/GreenScreen/green_screen_walks in_ _looks at it_ _looks at you_ _looks at it_ _looks at you_.mkv</property>
  <property name="audio_index">1</property>
  <property name="video_index">0</property>
  <property name="mute_on_pause">0</property>
  <property name="mlt_service">avformat-novalidate</property>
  <property name="meta.media.nb_streams">2</property>
  <property name="meta.media.0.stream.type">video</property>
  <property name="meta.media.0.stream.frame_rate">59.9401</property>
  <property name="meta.media.0.stream.sample_aspect_ratio">1</property>
  <property name="meta.media.0.codec.width">1920</property>
  <property name="meta.media.0.codec.height">1080</property>
  <property name="meta.media.0.codec.rotate">0</property>
  <property name="meta.media.0.codec.pix_fmt">yuv420p</property>
  <property name="meta.media.0.codec.sample_aspect_ratio">1</property>
  <property name="meta.media.0.codec.colorspace">709</property>
  <property name="meta.media.0.codec.color_trc">1</property>
  <property name="meta.media.0.codec.name">h264</property>
  <property name="meta.media.0.codec.long_name">H.264 / AVC / MPEG-4 AVC / MPEG-4 part 10</property>
  <property name="meta.media.0.codec.bit_rate">0</property>
  <property name="meta.attr.0.stream.HANDLER_NAME.markup">ISO Media file produced by Google Inc.</property>
  <property name="meta.attr.0.stream.VENDOR_ID.markup">[0][0][0][0]</property>
  <property name="meta.attr.0.stream.ENCODER.markup">Lavc60.31.102 libx264</property>
  <property name="meta.attr.0.stream.DURATION.markup">00:00:05.943000000</property>
  <property name="meta.media.1.stream.type">audio</property>
  <property name="meta.media.1.codec.sample_fmt">fltp</property>
  <property name="meta.media.1.codec.sample_rate">44100</property>
  <property name="meta.media.1.codec.channels">2</property>
  <property name="meta.media.1.codec.name">vorbis</property>
  <property name="meta.media.1.codec.long_name">Vorbis</property>
  <property name="meta.media.1.codec.bit_rate">0</property>
  <property name="meta.attr.1.stream.HANDLER_NAME.markup">ISO Media file produced by Google Inc.</property>
  <property name="meta.attr.1.stream.VENDOR_ID.markup">[0][0][0][0]</property>
  <property name="meta.attr.1.stream.ENCODER.markup">Lavc60.31.102 libvorbis</property>
  <property name="meta.attr.1.stream.DURATION.markup">00:00:06.017000000</property>
  <property name="meta.attr.COMPATIBLE_BRANDS.markup">isomiso2avc1mp41</property>
  <property name="meta.attr.MAJOR_BRAND.markup">isom</property>
  <property name="meta.attr.MINOR_VERSION.markup">512</property>
  <property name="meta.attr.ENCODER.markup">Lavf60.16.100</property>
  <property name="seekable">1</property>
  <property name="meta.media.sample_aspect_num">1</property>
  <property name="meta.media.sample_aspect_den">1</property>
  <property name="aspect_ratio">1</property>
  <property name="format">3</property>
  <property name="kdenlive:clipname"/>
  <property name="meta.media.frame_rate_num">60000</property>
  <property name="meta.media.frame_rate_den">1001</property>
  <property name="meta.media.colorspace">709</property>
  <property name="meta.media.color_trc">1</property>
  <property name="meta.media.has_b_frames">2</property>
  <property name="meta.media.width">1920</property>
  <property name="meta.media.height">1080</property>
  <property name="meta.media.color_range">mpeg</property>
  <property name="meta.media.top_field_first">0</property>
  <property name="meta.media.progressive">1</property>
  <property name="kdenlive:clip_type">0</property>
  <property name="kdenlive:folderid">511</property>
  <property name="kdenlive:id">529</property>
  <property name="kdenlive:file_size">978660</property>
  <property name="kdenlive:file_hash">a75bf4dc097dd81a59fb42c547b9a6e7</property>
  <property name="kdenlive:audio_max1">64</property>
 </producer>
 <producer id="producer486" in="00:00:00.000" out="00:00:11.200">
  <property name="length">673</property>
  <property name="eof">pause</property>
  <property name="resource">/home/federico/Nextcloud/Kden/EditingUT/Video/GreenScreen/gta 5 wasted green screen chroma key.mkv</property>
  <property name="audio_index">1</property>
  <property name="video_index">0</property>
  <property name="mute_on_pause">0</property>
  <property name="mlt_service">avformat-novalidate</property>
  <property name="meta.media.nb_streams">2</property>
  <property name="meta.media.0.stream.type">video</property>
  <property name="meta.media.0.stream.frame_rate">25</property>
  <property name="meta.media.0.stream.sample_aspect_ratio">1</property>
  <property name="meta.media.0.codec.width">1920</property>
  <property name="meta.media.0.codec.height">1080</property>
  <property name="meta.media.0.codec.rotate">0</property>
  <property name="meta.media.0.codec.pix_fmt">yuv420p</property>
  <property name="meta.media.0.codec.sample_aspect_ratio">1</property>
  <property name="meta.media.0.codec.colorspace">709</property>
  <property name="meta.media.0.codec.color_trc">1</property>
  <property name="meta.media.0.codec.name">h264</property>
  <property name="meta.media.0.codec.long_name">H.264 / AVC / MPEG-4 AVC / MPEG-4 part 10</property>
  <property name="meta.media.0.codec.bit_rate">0</property>
  <property name="meta.attr.0.stream.HANDLER_NAME.markup">ISO Media file produced by Google Inc.</property>
  <property name="meta.attr.0.stream.VENDOR_ID.markup">[0][0][0][0]</property>
  <property name="meta.attr.0.stream.ENCODER.markup">Lavc60.31.102 libx264</property>
  <property name="meta.attr.0.stream.DURATION.markup">00:00:11.163000000</property>
  <property name="meta.media.1.stream.type">audio</property>
  <property name="meta.media.1.codec.sample_fmt">fltp</property>
  <property name="meta.media.1.codec.sample_rate">44100</property>
  <property name="meta.media.1.codec.channels">2</property>
  <property name="meta.media.1.codec.name">vorbis</property>
  <property name="meta.media.1.codec.long_name">Vorbis</property>
  <property name="meta.media.1.codec.bit_rate">0</property>
  <property name="meta.attr.1.stream.HANDLER_NAME.markup">ISO Media file produced by Google Inc.</property>
  <property name="meta.attr.1.stream.VENDOR_ID.markup">[0][0][0][0]</property>
  <property name="meta.attr.1.stream.ENCODER.markup">Lavc60.31.102 libvorbis</property>
  <property name="meta.attr.1.stream.DURATION.markup">00:00:11.218000000</property>
  <property name="meta.attr.COMPATIBLE_BRANDS.markup">isomiso2avc1mp41</property>
  <property name="meta.attr.MAJOR_BRAND.markup">isom</property>
  <property name="meta.attr.MINOR_VERSION.markup">512</property>
  <property name="meta.attr.ENCODER.markup">Lavf60.16.100</property>
  <property name="seekable">1</property>
  <property name="meta.media.sample_aspect_num">1</property>
  <property name="meta.media.sample_aspect_den">1</property>
  <property name="aspect_ratio">1</property>
  <property name="format">3</property>
  <property name="kdenlive:clipname"/>
  <property name="meta.media.frame_rate_num">25</property>
  <property name="meta.media.frame_rate_den">1</property>
  <property name="meta.media.colorspace">709</property>
  <property name="meta.media.color_trc">1</property>
  <property name="meta.media.has_b_frames">2</property>
  <property name="meta.media.width">1920</property>
  <property name="meta.media.height">1080</property>
  <property name="meta.media.color_range">mpeg</property>
  <property name="meta.media.top_field_first">0</property>
  <property name="meta.media.progressive">1</property>
  <property name="kdenlive:clip_type">0</property>
  <property name="kdenlive:folderid">511</property>
  <property name="kdenlive:id">530</property>
  <property name="kdenlive:file_size">320815</property>
  <property name="kdenlive:file_hash">bd9ab973d817a39a0e9784a340179120</property>
  <property name="kdenlive:audio_max1">209</property>
 </producer>
 <producer id="producer487" in="00:00:00.000" out="00:00:05.600">
  <property name="length">337</property>
  <property name="eof">pause</property>
  <property name="resource">/home/federico/Nextcloud/Kden/EditingUT/Video/GreenScreen/guy screaming green screen.mkv</property>
  <property name="audio_index">1</property>
  <property name="video_index">0</property>
  <property name="mute_on_pause">0</property>
  <property name="mlt_service">avformat-novalidate</property>
  <property name="meta.media.nb_streams">2</property>
  <property name="meta.media.0.stream.type">video</property>
  <property name="meta.media.0.stream.frame_rate">30</property>
  <property name="meta.media.0.stream.sample_aspect_ratio">1</property>
  <property name="meta.media.0.codec.width">640</property>
  <property name="meta.media.0.codec.height">344</property>
  <property name="meta.media.0.codec.rotate">0</property>
  <property name="meta.media.0.codec.pix_fmt">yuv420p</property>
  <property name="meta.media.0.codec.sample_aspect_ratio">1</property>
  <property name="meta.media.0.codec.colorspace">709</property>
  <property name="meta.media.0.codec.color_trc">1</property>
  <property name="meta.media.0.codec.name">h264</property>
  <property name="meta.media.0.codec.long_name">H.264 / AVC / MPEG-4 AVC / MPEG-4 part 10</property>
  <property name="meta.media.0.codec.bit_rate">0</property>
  <property name="meta.attr.0.stream.HANDLER_NAME.markup">ISO Media file produced by Google Inc.</property>
  <property name="meta.attr.0.stream.VENDOR_ID.markup">[0][0][0][0]</property>
  <property name="meta.attr.0.stream.ENCODER.markup">Lavc60.31.102 libx264</property>
  <property name="meta.attr.0.stream.DURATION.markup">00:00:05.503000000</property>
  <property name="meta.media.1.stream.type">audio</property>
  <property name="meta.media.1.codec.sample_fmt">fltp</property>
  <property name="meta.media.1.codec.sample_rate">44100</property>
  <property name="meta.media.1.codec.channels">2</property>
  <property name="meta.media.1.codec.name">vorbis</property>
  <property name="meta.media.1.codec.long_name">Vorbis</property>
  <property name="meta.media.1.codec.bit_rate">0</property>
  <property name="meta.attr.1.stream.HANDLER_NAME.markup">ISO Media file produced by Google Inc.</property>
  <property name="meta.attr.1.stream.VENDOR_ID.markup">[0][0][0][0]</property>
  <property name="meta.attr.1.stream.ENCODER.markup">Lavc60.31.102 libvorbis</property>
  <property name="meta.attr.1.stream.DURATION.markup">00:00:05.622000000</property>
  <property name="meta.attr.COMPATIBLE_BRANDS.markup">isomiso2avc1mp41</property>
  <property name="meta.attr.MAJOR_BRAND.markup">isom</property>
  <property name="meta.attr.MINOR_VERSION.markup">512</property>
  <property name="meta.attr.ENCODER.markup">Lavf60.16.100</property>
  <property name="seekable">1</property>
  <property name="meta.media.sample_aspect_num">1</property>
  <property name="meta.media.sample_aspect_den">1</property>
  <property name="aspect_ratio">1</property>
  <property name="format">3</property>
  <property name="kdenlive:clipname"/>
  <property name="meta.media.frame_rate_num">30</property>
  <property name="meta.media.frame_rate_den">1</property>
  <property name="meta.media.colorspace">709</property>
  <property name="meta.media.color_trc">1</property>
  <property name="meta.media.has_b_frames">2</property>
  <property name="meta.media.width">640</property>
  <property name="meta.media.height">344</property>
  <property name="meta.media.color_range">mpeg</property>
  <property name="meta.media.top_field_first">0</property>
  <property name="meta.media.progressive">1</property>
  <property name="kdenlive:clip_type">0</property>
  <property name="kdenlive:folderid">511</property>
  <property name="kdenlive:id">531</property>
  <property name="kdenlive:file_size">147846</property>
  <property name="kdenlive:file_hash">55f89d208a9a5bd6d19b9670ad7e7089</property>
  <property name="kdenlive:audio_max1">168</property>
 </producer>
 <producer id="producer488" in="00:00:00.000" out="00:00:04.983">
  <property name="length">300</property>
  <property name="eof">pause</property>
  <property name="resource">/home/federico/Nextcloud/Kden/EditingUT/Video/GreenScreen/hackerman meme green screen.mkv</property>
  <property name="audio_index">1</property>
  <property name="video_index">0</property>
  <property name="mute_on_pause">0</property>
  <property name="mlt_service">avformat-novalidate</property>
  <property name="meta.media.nb_streams">2</property>
  <property name="meta.media.0.stream.type">video</property>
  <property name="meta.media.0.stream.frame_rate">60</property>
  <property name="meta.media.0.stream.sample_aspect_ratio">1</property>
  <property name="meta.media.0.codec.width">1920</property>
  <property name="meta.media.0.codec.height">1080</property>
  <property name="meta.media.0.codec.rotate">0</property>
  <property name="meta.media.0.codec.pix_fmt">yuv420p</property>
  <property name="meta.media.0.codec.sample_aspect_ratio">1</property>
  <property name="meta.media.0.codec.colorspace">709</property>
  <property name="meta.media.0.codec.color_trc">1</property>
  <property name="meta.media.0.codec.name">h264</property>
  <property name="meta.media.0.codec.long_name">H.264 / AVC / MPEG-4 AVC / MPEG-4 part 10</property>
  <property name="meta.media.0.codec.bit_rate">0</property>
  <property name="meta.attr.0.stream.HANDLER_NAME.markup">ISO Media file produced by Google Inc.</property>
  <property name="meta.attr.0.stream.VENDOR_ID.markup">[0][0][0][0]</property>
  <property name="meta.attr.0.stream.ENCODER.markup">Lavc60.31.102 libx264</property>
  <property name="meta.attr.0.stream.DURATION.markup">00:00:04.884000000</property>
  <property name="meta.media.1.stream.type">audio</property>
  <property name="meta.media.1.codec.sample_fmt">fltp</property>
  <property name="meta.media.1.codec.sample_rate">48000</property>
  <property name="meta.media.1.codec.channels">2</property>
  <property name="meta.media.1.codec.name">vorbis</property>
  <property name="meta.media.1.codec.long_name">Vorbis</property>
  <property name="meta.media.1.codec.bit_rate">0</property>
  <property name="meta.attr.1.stream.language.markup">eng</property>
  <property name="meta.attr.1.stream.HANDLER_NAME.markup">SoundHandler</property>
  <property name="meta.attr.1.stream.VENDOR_ID.markup">[0][0][0][0]</property>
  <property name="meta.attr.1.stream.ENCODER.markup">Lavc60.31.102 libvorbis</property>
  <property name="meta.attr.1.stream.DURATION.markup">00:00:05.001000000</property>
  <property name="meta.attr.title.markup">Hackerman Meme Green Screen ( Download Link )</property>
  <property name="meta.attr.DESCRIPTION.markup">✌ Leave a Like and  Download it  ✌
Link: https://cutt.ly/u2PhGqZ
✌ Leave a Like and  Download it  ✌

Easy to use Hackerman meme green screen no copyright for to use in editing for your Memes, Videos, Reels, Stories gifs, or whatever else you might want to use the green screen background for it, Our green screens are easy to use and can be edited with any video editing software.

LIKE 👍 and SUBSCRIBE ❤️
don't forget to ring the 🔔 Bell 🔔 so you never miss a video!
#greenscreenvideo #greenscreenvideo  #greenscreennocopyright 

- Green Screen Hub   | "Supporting Your Creativity"</property>
  <property name="meta.attr.MAJOR_BRAND.markup">isom</property>
  <property name="meta.attr.MINOR_VERSION.markup">512</property>
  <property name="meta.attr.COMPATIBLE_BRANDS.markup">isomiso2avc1mp41</property>
  <property name="meta.attr.ARTIST.markup">GREEN SCREEN HUB </property>
  <property name="meta.attr.DATE.markup">20230110</property>
  <property name="meta.attr.SYNOPSIS.markup">✌ Leave a Like and  Download it  ✌
Link: https://cutt.ly/u2PhGqZ
✌ Leave a Like and  Download it  ✌

Easy to use Hackerman meme green screen no copyright for to use in editing for your Memes, Videos, Reels, Stories gifs, or whatever else you might want to use the green screen background for it, Our green screens are easy to use and can be edited with any video editing software.

LIKE 👍 and SUBSCRIBE ❤️
don't forget to ring the 🔔 Bell 🔔 so you never miss a video!
#greenscreenvideo #greenscreenvideo  #greenscreennocopyright 

- Green Screen Hub   | "Supporting Your Creativity"</property>
  <property name="meta.attr.COMMENT.markup">https://www.youtube.com/watch?v=L7KNGApG4Jw</property>
  <property name="meta.attr.ENCODER.markup">Lavf60.16.100</property>
  <property name="seekable">1</property>
  <property name="meta.media.sample_aspect_num">1</property>
  <property name="meta.media.sample_aspect_den">1</property>
  <property name="aspect_ratio">1</property>
  <property name="format">3</property>
  <property name="kdenlive:clipname"/>
  <property name="meta.media.frame_rate_num">60</property>
  <property name="meta.media.frame_rate_den">1</property>
  <property name="meta.media.colorspace">709</property>
  <property name="meta.media.color_trc">1</property>
  <property name="meta.media.has_b_frames">2</property>
  <property name="meta.media.width">1920</property>
  <property name="meta.media.height">1080</property>
  <property name="meta.media.color_range">mpeg</property>
  <property name="meta.media.top_field_first">0</property>
  <property name="meta.media.progressive">1</property>
  <property name="kdenlive:clip_type">0</property>
  <property name="kdenlive:folderid">511</property>
  <property name="kdenlive:id">532</property>
  <property name="kdenlive:file_size">374607</property>
  <property name="kdenlive:file_hash">d0d499527277fa0579ffc8db1dd52733</property>
  <property name="kdenlive:audio_max1">208</property>
 </producer>
 <producer id="producer489" in="00:00:00.000" out="00:00:05.600">
  <property name="length">337</property>
  <property name="eof">pause</property>
  <property name="resource">/home/federico/Nextcloud/Kden/EditingUT/Video/GreenScreen/happy wheels victory green screen.mkv</property>
  <property name="audio_index">1</property>
  <property name="video_index">0</property>
  <property name="mute_on_pause">0</property>
  <property name="mlt_service">avformat-novalidate</property>
  <property name="meta.media.nb_streams">2</property>
  <property name="meta.media.0.stream.type">video</property>
  <property name="meta.media.0.stream.frame_rate">60</property>
  <property name="meta.media.0.stream.sample_aspect_ratio">1</property>
  <property name="meta.media.0.codec.width">1920</property>
  <property name="meta.media.0.codec.height">1080</property>
  <property name="meta.media.0.codec.rotate">0</property>
  <property name="meta.media.0.codec.pix_fmt">yuv420p</property>
  <property name="meta.media.0.codec.sample_aspect_ratio">1</property>
  <property name="meta.media.0.codec.colorspace">709</property>
  <property name="meta.media.0.codec.color_trc">1</property>
  <property name="meta.media.0.codec.name">h264</property>
  <property name="meta.media.0.codec.long_name">H.264 / AVC / MPEG-4 AVC / MPEG-4 part 10</property>
  <property name="meta.media.0.codec.bit_rate">0</property>
  <property name="meta.attr.0.stream.HANDLER_NAME.markup">ISO Media file produced by Google Inc.</property>
  <property name="meta.attr.0.stream.VENDOR_ID.markup">[0][0][0][0]</property>
  <property name="meta.attr.0.stream.ENCODER.markup">Lavc60.31.102 libx264</property>
  <property name="meta.attr.0.stream.DURATION.markup">00:00:05.570000000</property>
  <property name="meta.media.1.stream.type">audio</property>
  <property name="meta.media.1.codec.sample_fmt">fltp</property>
  <property name="meta.media.1.codec.sample_rate">44100</property>
  <property name="meta.media.1.codec.channels">2</property>
  <property name="meta.media.1.codec.name">vorbis</property>
  <property name="meta.media.1.codec.long_name">Vorbis</property>
  <property name="meta.media.1.codec.bit_rate">0</property>
  <property name="meta.attr.1.stream.language.markup">eng</property>
  <property name="meta.attr.1.stream.HANDLER_NAME.markup">ISO Media file produced by Google Inc.</property>
  <property name="meta.attr.1.stream.VENDOR_ID.markup">[0][0][0][0]</property>
  <property name="meta.attr.1.stream.ENCODER.markup">Lavc60.31.102 libvorbis</property>
  <property name="meta.attr.1.stream.DURATION.markup">00:00:05.622000000</property>
  <property name="meta.attr.COMPATIBLE_BRANDS.markup">isomiso2avc1mp41</property>
  <property name="meta.attr.MAJOR_BRAND.markup">isom</property>
  <property name="meta.attr.MINOR_VERSION.markup">512</property>
  <property name="meta.attr.ENCODER.markup">Lavf60.16.100</property>
  <property name="seekable">1</property>
  <property name="meta.media.sample_aspect_num">1</property>
  <property name="meta.media.sample_aspect_den">1</property>
  <property name="aspect_ratio">1</property>
  <property name="format">3</property>
  <property name="kdenlive:clipname"/>
  <property name="meta.media.frame_rate_num">60</property>
  <property name="meta.media.frame_rate_den">1</property>
  <property name="meta.media.colorspace">709</property>
  <property name="meta.media.color_trc">1</property>
  <property name="meta.media.has_b_frames">2</property>
  <property name="meta.media.width">1920</property>
  <property name="meta.media.height">1080</property>
  <property name="meta.media.color_range">mpeg</property>
  <property name="meta.media.top_field_first">0</property>
  <property name="meta.media.progressive">1</property>
  <property name="kdenlive:clip_type">0</property>
  <property name="kdenlive:folderid">511</property>
  <property name="kdenlive:id">533</property>
  <property name="kdenlive:file_size">167037</property>
  <property name="kdenlive:file_hash">eb03b65e7508a17b923ed7b435da10b0</property>
  <property name="kdenlive:audio_max1">196</property>
 </producer>
 <producer id="producer490" in="00:00:00.000" out="00:01:00.100">
  <property name="length">3607</property>
  <property name="eof">pause</property>
  <property name="resource">/home/federico/Nextcloud/Kden/EditingUT/Video/GreenScreen/heavenly light green screen.mkv</property>
  <property name="audio_index">1</property>
  <property name="video_index">0</property>
  <property name="mute_on_pause">0</property>
  <property name="mlt_service">avformat-novalidate</property>
  <property name="meta.media.nb_streams">2</property>
  <property name="meta.media.0.stream.type">video</property>
  <property name="meta.media.0.stream.frame_rate">29.97</property>
  <property name="meta.media.0.stream.sample_aspect_ratio">1</property>
  <property name="meta.media.0.codec.width">1280</property>
  <property name="meta.media.0.codec.height">720</property>
  <property name="meta.media.0.codec.rotate">0</property>
  <property name="meta.media.0.codec.pix_fmt">yuv420p</property>
  <property name="meta.media.0.codec.sample_aspect_ratio">1</property>
  <property name="meta.media.0.codec.colorspace">709</property>
  <property name="meta.media.0.codec.color_trc">1</property>
  <property name="meta.media.0.codec.name">h264</property>
  <property name="meta.media.0.codec.long_name">H.264 / AVC / MPEG-4 AVC / MPEG-4 part 10</property>
  <property name="meta.media.0.codec.bit_rate">0</property>
  <property name="meta.attr.0.stream.HANDLER_NAME.markup">ISO Media file produced by Google Inc.</property>
  <property name="meta.attr.0.stream.VENDOR_ID.markup">[0][0][0][0]</property>
  <property name="meta.attr.0.stream.ENCODER.markup">Lavc60.31.102 libx264</property>
  <property name="meta.attr.0.stream.DURATION.markup">00:01:00.029000000</property>
  <property name="meta.media.1.stream.type">audio</property>
  <property name="meta.media.1.codec.sample_fmt">fltp</property>
  <property name="meta.media.1.codec.sample_rate">44100</property>
  <property name="meta.media.1.codec.channels">2</property>
  <property name="meta.media.1.codec.name">vorbis</property>
  <property name="meta.media.1.codec.long_name">Vorbis</property>
  <property name="meta.media.1.codec.bit_rate">0</property>
  <property name="meta.attr.1.stream.HANDLER_NAME.markup">ISO Media file produced by Google Inc.</property>
  <property name="meta.attr.1.stream.VENDOR_ID.markup">[0][0][0][0]</property>
  <property name="meta.attr.1.stream.ENCODER.markup">Lavc60.31.102 libvorbis</property>
  <property name="meta.attr.1.stream.DURATION.markup">00:01:00.119000000</property>
  <property name="meta.attr.COMPATIBLE_BRANDS.markup">isomiso2avc1mp41</property>
  <property name="meta.attr.MAJOR_BRAND.markup">isom</property>
  <property name="meta.attr.MINOR_VERSION.markup">512</property>
  <property name="meta.attr.ENCODER.markup">Lavf60.16.100</property>
  <property name="seekable">1</property>
  <property name="meta.media.sample_aspect_num">1</property>
  <property name="meta.media.sample_aspect_den">1</property>
  <property name="aspect_ratio">1</property>
  <property name="format">3</property>
  <property name="kdenlive:clipname"/>
  <property name="meta.media.frame_rate_num">30000</property>
  <property name="meta.media.frame_rate_den">1001</property>
  <property name="meta.media.colorspace">709</property>
  <property name="meta.media.color_trc">1</property>
  <property name="meta.media.has_b_frames">2</property>
  <property name="meta.media.width">1280</property>
  <property name="meta.media.height">720</property>
  <property name="meta.media.color_range">mpeg</property>
  <property name="meta.media.top_field_first">0</property>
  <property name="meta.media.progressive">1</property>
  <property name="kdenlive:clip_type">0</property>
  <property name="kdenlive:folderid">511</property>
  <property name="kdenlive:id">534</property>
  <property name="kdenlive:file_size">11529981</property>
  <property name="kdenlive:file_hash">fc3684e458c43fb19d8b30dcc445b94c</property>
  <property name="kdenlive:audio_max1">1</property>
 </producer>
 <producer id="producer491" in="00:00:00.000" out="00:00:01.283">
  <property name="length">78</property>
  <property name="eof">pause</property>
  <property name="resource">/home/federico/Nextcloud/Kden/EditingUT/Video/GreenScreen/hitmarker  - green screen 4k60.mkv</property>
  <property name="audio_index">1</property>
  <property name="video_index">0</property>
  <property name="mute_on_pause">0</property>
  <property name="mlt_service">avformat-novalidate</property>
  <property name="meta.media.nb_streams">2</property>
  <property name="meta.media.0.stream.type">video</property>
  <property name="meta.media.0.stream.frame_rate">60</property>
  <property name="meta.media.0.stream.sample_aspect_ratio">1</property>
  <property name="meta.media.0.codec.width">1920</property>
  <property name="meta.media.0.codec.height">1012</property>
  <property name="meta.media.0.codec.rotate">0</property>
  <property name="meta.media.0.codec.pix_fmt">yuv420p</property>
  <property name="meta.media.0.codec.sample_aspect_ratio">1</property>
  <property name="meta.media.0.codec.colorspace">709</property>
  <property name="meta.media.0.codec.color_trc">1</property>
  <property name="meta.media.0.codec.name">h264</property>
  <property name="meta.media.0.codec.long_name">H.264 / AVC / MPEG-4 AVC / MPEG-4 part 10</property>
  <property name="meta.media.0.codec.bit_rate">0</property>
  <property name="meta.attr.0.stream.HANDLER_NAME.markup">ISO Media file produced by Google Inc.</property>
  <property name="meta.attr.0.stream.VENDOR_ID.markup">[0][0][0][0]</property>
  <property name="meta.attr.0.stream.ENCODER.markup">Lavc60.31.102 libx264</property>
  <property name="meta.attr.0.stream.DURATION.markup">00:00:01.203000000</property>
  <property name="meta.media.1.stream.type">audio</property>
  <property name="meta.media.1.codec.sample_fmt">fltp</property>
  <property name="meta.media.1.codec.sample_rate">44100</property>
  <property name="meta.media.1.codec.channels">2</property>
  <property name="meta.media.1.codec.name">vorbis</property>
  <property name="meta.media.1.codec.long_name">Vorbis</property>
  <property name="meta.media.1.codec.bit_rate">0</property>
  <property name="meta.attr.1.stream.language.markup">eng</property>
  <property name="meta.attr.1.stream.HANDLER_NAME.markup">ISO Media file produced by Google Inc.</property>
  <property name="meta.attr.1.stream.VENDOR_ID.markup">[0][0][0][0]</property>
  <property name="meta.attr.1.stream.ENCODER.markup">Lavc60.31.102 libvorbis</property>
  <property name="meta.attr.1.stream.DURATION.markup">00:00:01.303000000</property>
  <property name="meta.attr.COMPATIBLE_BRANDS.markup">isomiso2avc1mp41</property>
  <property name="meta.attr.MAJOR_BRAND.markup">isom</property>
  <property name="meta.attr.MINOR_VERSION.markup">512</property>
  <property name="meta.attr.ENCODER.markup">Lavf60.16.100</property>
  <property name="seekable">1</property>
  <property name="meta.media.sample_aspect_num">1</property>
  <property name="meta.media.sample_aspect_den">1</property>
  <property name="aspect_ratio">1</property>
  <property name="format">3</property>
  <property name="kdenlive:clipname"/>
  <property name="meta.media.frame_rate_num">60</property>
  <property name="meta.media.frame_rate_den">1</property>
  <property name="meta.media.colorspace">709</property>
  <property name="meta.media.color_trc">1</property>
  <property name="meta.media.has_b_frames">2</property>
  <property name="meta.media.width">1920</property>
  <property name="meta.media.height">1012</property>
  <property name="meta.media.color_range">mpeg</property>
  <property name="meta.media.top_field_first">0</property>
  <property name="meta.media.progressive">1</property>
  <property name="kdenlive:clip_type">0</property>
  <property name="kdenlive:folderid">511</property>
  <property name="kdenlive:id">535</property>
  <property name="kdenlive:file_size">23344</property>
  <property name="kdenlive:file_hash">fc1722f5788b6cb09d53fbe0ffd5034c</property>
  <property name="kdenlive:audio_max1">155</property>
 </producer>
 <producer id="producer493" in="00:00:00.000" out="00:00:03.833">
  <property name="length">231</property>
  <property name="eof">pause</property>
  <property name="resource">/home/federico/Nextcloud/Kden/EditingUT/Video/GreenScreen/hole in one wii sports golf  green screen.mkv</property>
  <property name="audio_index">1</property>
  <property name="video_index">0</property>
  <property name="mute_on_pause">0</property>
  <property name="mlt_service">avformat-novalidate</property>
  <property name="meta.media.nb_streams">2</property>
  <property name="meta.media.0.stream.type">video</property>
  <property name="meta.media.0.stream.frame_rate">60</property>
  <property name="meta.media.0.stream.sample_aspect_ratio">1</property>
  <property name="meta.media.0.codec.width">1920</property>
  <property name="meta.media.0.codec.height">1080</property>
  <property name="meta.media.0.codec.rotate">0</property>
  <property name="meta.media.0.codec.pix_fmt">yuv420p</property>
  <property name="meta.media.0.codec.sample_aspect_ratio">1</property>
  <property name="meta.media.0.codec.colorspace">709</property>
  <property name="meta.media.0.codec.color_trc">1</property>
  <property name="meta.media.0.codec.name">h264</property>
  <property name="meta.media.0.codec.long_name">H.264 / AVC / MPEG-4 AVC / MPEG-4 part 10</property>
  <property name="meta.media.0.codec.bit_rate">0</property>
  <property name="meta.attr.0.stream.HANDLER_NAME.markup">ISO Media file produced by Google Inc.</property>
  <property name="meta.attr.0.stream.VENDOR_ID.markup">[0][0][0][0]</property>
  <property name="meta.attr.0.stream.ENCODER.markup">Lavc60.31.102 libx264</property>
  <property name="meta.attr.0.stream.DURATION.markup">00:00:03.803000000</property>
  <property name="meta.media.1.stream.type">audio</property>
  <property name="meta.media.1.codec.sample_fmt">fltp</property>
  <property name="meta.media.1.codec.sample_rate">44100</property>
  <property name="meta.media.1.codec.channels">2</property>
  <property name="meta.media.1.codec.name">vorbis</property>
  <property name="meta.media.1.codec.long_name">Vorbis</property>
  <property name="meta.media.1.codec.bit_rate">0</property>
  <property name="meta.attr.1.stream.language.markup">eng</property>
  <property name="meta.attr.1.stream.HANDLER_NAME.markup">ISO Media file produced by Google Inc.</property>
  <property name="meta.attr.1.stream.VENDOR_ID.markup">[0][0][0][0]</property>
  <property name="meta.attr.1.stream.ENCODER.markup">Lavc60.31.102 libvorbis</property>
  <property name="meta.attr.1.stream.DURATION.markup">00:00:03.857000000</property>
  <property name="meta.attr.COMPATIBLE_BRANDS.markup">isomiso2avc1mp41</property>
  <property name="meta.attr.MAJOR_BRAND.markup">isom</property>
  <property name="meta.attr.MINOR_VERSION.markup">512</property>
  <property name="meta.attr.ENCODER.markup">Lavf60.16.100</property>
  <property name="seekable">1</property>
  <property name="meta.media.sample_aspect_num">1</property>
  <property name="meta.media.sample_aspect_den">1</property>
  <property name="aspect_ratio">1</property>
  <property name="format">3</property>
  <property name="kdenlive:clipname"/>
  <property name="meta.media.frame_rate_num">60</property>
  <property name="meta.media.frame_rate_den">1</property>
  <property name="meta.media.colorspace">709</property>
  <property name="meta.media.color_trc">1</property>
  <property name="meta.media.has_b_frames">2</property>
  <property name="meta.media.width">1920</property>
  <property name="meta.media.height">1080</property>
  <property name="meta.media.color_range">mpeg</property>
  <property name="meta.media.top_field_first">0</property>
  <property name="meta.media.progressive">1</property>
  <property name="kdenlive:clip_type">0</property>
  <property name="kdenlive:folderid">511</property>
  <property name="kdenlive:id">536</property>
  <property name="kdenlive:file_size">513332</property>
  <property name="kdenlive:file_hash">c80bf9cf90c5a0e52f68171b0191597e</property>
  <property name="kdenlive:audio_max1">214</property>
 </producer>
 <producer id="producer494" in="00:00:00.000" out="00:00:05.783">
  <property name="length">348</property>
  <property name="eof">pause</property>
  <property name="resource">/home/federico/Nextcloud/Kden/EditingUT/Video/GreenScreen/j jonah jameson laughing green screen.mkv</property>
  <property name="audio_index">1</property>
  <property name="video_index">0</property>
  <property name="mute_on_pause">0</property>
  <property name="mlt_service">avformat-novalidate</property>
  <property name="meta.media.nb_streams">2</property>
  <property name="meta.media.0.stream.type">video</property>
  <property name="meta.media.0.stream.frame_rate">29.97</property>
  <property name="meta.media.0.stream.sample_aspect_ratio">1</property>
  <property name="meta.media.0.codec.width">1920</property>
  <property name="meta.media.0.codec.height">1080</property>
  <property name="meta.media.0.codec.rotate">0</property>
  <property name="meta.media.0.codec.pix_fmt">yuv420p</property>
  <property name="meta.media.0.codec.sample_aspect_ratio">1</property>
  <property name="meta.media.0.codec.colorspace">709</property>
  <property name="meta.media.0.codec.color_trc">1</property>
  <property name="meta.media.0.codec.name">h264</property>
  <property name="meta.media.0.codec.long_name">H.264 / AVC / MPEG-4 AVC / MPEG-4 part 10</property>
  <property name="meta.media.0.codec.bit_rate">0</property>
  <property name="meta.attr.0.stream.HANDLER_NAME.markup">ISO Media file produced by Google Inc.</property>
  <property name="meta.attr.0.stream.VENDOR_ID.markup">[0][0][0][0]</property>
  <property name="meta.attr.0.stream.ENCODER.markup">Lavc60.31.102 libx264</property>
  <property name="meta.attr.0.stream.DURATION.markup">00:00:05.675000000</property>
  <property name="meta.media.1.stream.type">audio</property>
  <property name="meta.media.1.codec.sample_fmt">fltp</property>
  <property name="meta.media.1.codec.sample_rate">44100</property>
  <property name="meta.media.1.codec.channels">2</property>
  <property name="meta.media.1.codec.name">vorbis</property>
  <property name="meta.media.1.codec.long_name">Vorbis</property>
  <property name="meta.media.1.codec.bit_rate">0</property>
  <property name="meta.attr.1.stream.language.markup">eng</property>
  <property name="meta.attr.1.stream.HANDLER_NAME.markup">ISO Media file produced by Google Inc.</property>
  <property name="meta.attr.1.stream.VENDOR_ID.markup">[0][0][0][0]</property>
  <property name="meta.attr.1.stream.ENCODER.markup">Lavc60.31.102 libvorbis</property>
  <property name="meta.attr.1.stream.DURATION.markup">00:00:05.808000000</property>
  <property name="meta.attr.COMPATIBLE_BRANDS.markup">isomiso2avc1mp41</property>
  <property name="meta.attr.MAJOR_BRAND.markup">isom</property>
  <property name="meta.attr.MINOR_VERSION.markup">512</property>
  <property name="meta.attr.ENCODER.markup">Lavf60.16.100</property>
  <property name="seekable">1</property>
  <property name="meta.media.sample_aspect_num">1</property>
  <property name="meta.media.sample_aspect_den">1</property>
  <property name="aspect_ratio">1</property>
  <property name="format">3</property>
  <property name="kdenlive:clipname"/>
  <property name="meta.media.frame_rate_num">30000</property>
  <property name="meta.media.frame_rate_den">1001</property>
  <property name="meta.media.colorspace">709</property>
  <property name="meta.media.color_trc">1</property>
  <property name="meta.media.has_b_frames">2</property>
  <property name="meta.media.width">1920</property>
  <property name="meta.media.height">1080</property>
  <property name="meta.media.color_range">mpeg</property>
  <property name="meta.media.top_field_first">0</property>
  <property name="meta.media.progressive">1</property>
  <property name="kdenlive:clip_type">0</property>
  <property name="kdenlive:folderid">511</property>
  <property name="kdenlive:id">537</property>
  <property name="kdenlive:file_size">884403</property>
  <property name="kdenlive:file_hash">e879f95bf56fee9b09bb8308b0b9e268</property>
  <property name="kdenlive:audio_max1">188</property>
 </producer>
 <producer id="producer492" in="00:00:00.000" out="00:00:06.283">
  <property name="length">378</property>
  <property name="eof">pause</property>
  <property name="resource">/home/federico/Nextcloud/Kden/EditingUT/Video/GreenScreen/john cena - are you sure about that.mkv</property>
  <property name="audio_index">1</property>
  <property name="video_index">0</property>
  <property name="mute_on_pause">0</property>
  <property name="mlt_service">avformat-novalidate</property>
  <property name="meta.media.nb_streams">2</property>
  <property name="meta.media.0.stream.type">video</property>
  <property name="meta.media.0.stream.frame_rate">23.976</property>
  <property name="meta.media.0.stream.sample_aspect_ratio">1</property>
  <property name="meta.media.0.codec.width">1280</property>
  <property name="meta.media.0.codec.height">720</property>
  <property name="meta.media.0.codec.rotate">0</property>
  <property name="meta.media.0.codec.pix_fmt">yuv420p</property>
  <property name="meta.media.0.codec.sample_aspect_ratio">1</property>
  <property name="meta.media.0.codec.colorspace">709</property>
  <property name="meta.media.0.codec.color_trc">1</property>
  <property name="meta.media.0.codec.name">h264</property>
  <property name="meta.media.0.codec.long_name">H.264 / AVC / MPEG-4 AVC / MPEG-4 part 10</property>
  <property name="meta.media.0.codec.bit_rate">0</property>
  <property name="meta.attr.0.stream.HANDLER_NAME.markup">ISO Media file produced by Google Inc.</property>
  <property name="meta.attr.0.stream.VENDOR_ID.markup">[0][0][0][0]</property>
  <property name="meta.attr.0.stream.ENCODER.markup">Lavc60.31.102 libx264</property>
  <property name="meta.attr.0.stream.DURATION.markup">00:00:06.218000000</property>
  <property name="meta.media.1.stream.type">audio</property>
  <property name="meta.media.1.codec.sample_fmt">fltp</property>
  <property name="meta.media.1.codec.sample_rate">44100</property>
  <property name="meta.media.1.codec.channels">2</property>
  <property name="meta.media.1.codec.name">vorbis</property>
  <property name="meta.media.1.codec.long_name">Vorbis</property>
  <property name="meta.media.1.codec.bit_rate">0</property>
  <property name="meta.attr.1.stream.HANDLER_NAME.markup">ISO Media file produced by Google Inc.</property>
  <property name="meta.attr.1.stream.VENDOR_ID.markup">[0][0][0][0]</property>
  <property name="meta.attr.1.stream.ENCODER.markup">Lavc60.31.102 libvorbis</property>
  <property name="meta.attr.1.stream.DURATION.markup">00:00:06.296000000</property>
  <property name="meta.attr.COMPATIBLE_BRANDS.markup">isomiso2avc1mp41</property>
  <property name="meta.attr.MAJOR_BRAND.markup">isom</property>
  <property name="meta.attr.MINOR_VERSION.markup">512</property>
  <property name="meta.attr.ENCODER.markup">Lavf60.16.100</property>
  <property name="seekable">1</property>
  <property name="meta.media.sample_aspect_num">1</property>
  <property name="meta.media.sample_aspect_den">1</property>
  <property name="aspect_ratio">1</property>
  <property name="format">3</property>
  <property name="kdenlive:clipname"/>
  <property name="meta.media.frame_rate_num">24000</property>
  <property name="meta.media.frame_rate_den">1001</property>
  <property name="meta.media.colorspace">709</property>
  <property name="meta.media.color_trc">1</property>
  <property name="meta.media.has_b_frames">2</property>
  <property name="meta.media.width">1280</property>
  <property name="meta.media.height">720</property>
  <property name="meta.media.color_range">mpeg</property>
  <property name="meta.media.top_field_first">0</property>
  <property name="meta.media.progressive">1</property>
  <property name="kdenlive:clip_type">0</property>
  <property name="kdenlive:folderid">511</property>
  <property name="kdenlive:id">538</property>
  <property name="kdenlive:file_size">292727</property>
  <property name="kdenlive:file_hash">96046b018e5c8b65b0ef7b88e9077acb</property>
  <property name="kdenlive:audio_max1">205</property>
 </producer>
 <producer id="producer495" in="00:00:00.000" out="00:00:04.300">
  <property name="length">259</property>
  <property name="eof">pause</property>
  <property name="resource">/home/federico/Nextcloud/Kden/EditingUT/Video/GreenScreen/just do it green screen.mkv</property>
  <property name="audio_index">1</property>
  <property name="video_index">0</property>
  <property name="mute_on_pause">0</property>
  <property name="mlt_service">avformat-novalidate</property>
  <property name="meta.media.nb_streams">2</property>
  <property name="meta.media.0.stream.type">video</property>
  <property name="meta.media.0.stream.frame_rate">30</property>
  <property name="meta.media.0.stream.sample_aspect_ratio">1</property>
  <property name="meta.media.0.codec.width">1280</property>
  <property name="meta.media.0.codec.height">720</property>
  <property name="meta.media.0.codec.rotate">0</property>
  <property name="meta.media.0.codec.pix_fmt">yuv420p</property>
  <property name="meta.media.0.codec.sample_aspect_ratio">1</property>
  <property name="meta.media.0.codec.colorspace">709</property>
  <property name="meta.media.0.codec.color_trc">1</property>
  <property name="meta.media.0.codec.name">h264</property>
  <property name="meta.media.0.codec.long_name">H.264 / AVC / MPEG-4 AVC / MPEG-4 part 10</property>
  <property name="meta.media.0.codec.bit_rate">0</property>
  <property name="meta.attr.0.stream.HANDLER_NAME.markup">ISO Media file produced by Google Inc.</property>
  <property name="meta.attr.0.stream.VENDOR_ID.markup">[0][0][0][0]</property>
  <property name="meta.attr.0.stream.ENCODER.markup">Lavc60.31.102 libx264</property>
  <property name="meta.attr.0.stream.DURATION.markup">00:00:04.236000000</property>
  <property name="meta.media.1.stream.type">audio</property>
  <property name="meta.media.1.codec.sample_fmt">fltp</property>
  <property name="meta.media.1.codec.sample_rate">44100</property>
  <property name="meta.media.1.codec.channels">2</property>
  <property name="meta.media.1.codec.name">vorbis</property>
  <property name="meta.media.1.codec.long_name">Vorbis</property>
  <property name="meta.media.1.codec.bit_rate">0</property>
  <property name="meta.attr.1.stream.HANDLER_NAME.markup">ISO Media file produced by Google Inc.</property>
  <property name="meta.attr.1.stream.VENDOR_ID.markup">[0][0][0][0]</property>
  <property name="meta.attr.1.stream.ENCODER.markup">Lavc60.31.102 libvorbis</property>
  <property name="meta.attr.1.stream.DURATION.markup">00:00:04.322000000</property>
  <property name="meta.attr.title.markup">Just do it green screen(free download)</property>
  <property name="meta.attr.COMMENT.markup">https://www.youtube.com/watch?v=IX8kWeZNW-A</property>
  <property name="meta.attr.MAJOR_BRAND.markup">isom</property>
  <property name="meta.attr.MINOR_VERSION.markup">512</property>
  <property name="meta.attr.COMPATIBLE_BRANDS.markup">isomiso2avc1mp41</property>
  <property name="meta.attr.ARTIST.markup">green screen videos</property>
  <property name="meta.attr.DATE.markup">20190107</property>
  <property name="meta.attr.ENCODER.markup">Lavf60.16.100</property>
  <property name="seekable">1</property>
  <property name="meta.media.sample_aspect_num">1</property>
  <property name="meta.media.sample_aspect_den">1</property>
  <property name="aspect_ratio">1</property>
  <property name="format">3</property>
  <property name="kdenlive:clipname"/>
  <property name="meta.media.frame_rate_num">30</property>
  <property name="meta.media.frame_rate_den">1</property>
  <property name="meta.media.colorspace">709</property>
  <property name="meta.media.color_trc">1</property>
  <property name="meta.media.has_b_frames">2</property>
  <property name="meta.media.width">1280</property>
  <property name="meta.media.height">720</property>
  <property name="meta.media.color_range">mpeg</property>
  <property name="meta.media.top_field_first">0</property>
  <property name="meta.media.progressive">1</property>
  <property name="kdenlive:clip_type">0</property>
  <property name="kdenlive:folderid">511</property>
  <property name="kdenlive:id">539</property>
  <property name="kdenlive:file_size">310092</property>
  <property name="kdenlive:file_hash">ea029fb1b7b04b7217bde84c5de1e608</property>
  <property name="kdenlive:audio_max1">230</property>
 </producer>
 <producer id="producer497" in="00:00:00.000" out="00:00:04.600">
  <property name="length">277</property>
  <property name="eof">pause</property>
  <property name="resource">/home/federico/Nextcloud/Kden/EditingUT/Video/GreenScreen/k.o.  - green screen meme source mega.mkv</property>
  <property name="audio_index">1</property>
  <property name="video_index">0</property>
  <property name="mute_on_pause">0</property>
  <property name="mlt_service">avformat-novalidate</property>
  <property name="meta.media.nb_streams">2</property>
  <property name="meta.media.0.stream.type">video</property>
  <property name="meta.media.0.stream.frame_rate">29.97</property>
  <property name="meta.media.0.stream.sample_aspect_ratio">1</property>
  <property name="meta.media.0.codec.width">1920</property>
  <property name="meta.media.0.codec.height">1080</property>
  <property name="meta.media.0.codec.rotate">0</property>
  <property name="meta.media.0.codec.pix_fmt">yuv420p</property>
  <property name="meta.media.0.codec.sample_aspect_ratio">1</property>
  <property name="meta.media.0.codec.colorspace">709</property>
  <property name="meta.media.0.codec.color_trc">1</property>
  <property name="meta.media.0.codec.name">h264</property>
  <property name="meta.media.0.codec.long_name">H.264 / AVC / MPEG-4 AVC / MPEG-4 part 10</property>
  <property name="meta.media.0.codec.bit_rate">0</property>
  <property name="meta.attr.0.stream.HANDLER_NAME.markup">VideoHandler</property>
  <property name="meta.attr.0.stream.VENDOR_ID.markup">[0][0][0][0]</property>
  <property name="meta.attr.0.stream.ENCODER.markup">Lavc60.31.102 libx264</property>
  <property name="meta.attr.0.stream.DURATION.markup">00:00:04.574000000</property>
  <property name="meta.media.1.stream.type">audio</property>
  <property name="meta.media.1.codec.sample_fmt">fltp</property>
  <property name="meta.media.1.codec.sample_rate">44100</property>
  <property name="meta.media.1.codec.channels">2</property>
  <property name="meta.media.1.codec.name">vorbis</property>
  <property name="meta.media.1.codec.long_name">Vorbis</property>
  <property name="meta.media.1.codec.bit_rate">0</property>
  <property name="meta.attr.1.stream.language.markup">eng</property>
  <property name="meta.attr.1.stream.HANDLER_NAME.markup">SoundHandler</property>
  <property name="meta.attr.1.stream.VENDOR_ID.markup">[0][0][0][0]</property>
  <property name="meta.attr.1.stream.ENCODER.markup">Lavc60.31.102 libvorbis</property>
  <property name="meta.attr.1.stream.DURATION.markup">00:00:04.624000000</property>
  <property name="meta.attr.COMPATIBLE_BRANDS.markup">isomiso2avc1mp41</property>
  <property name="meta.attr.MAJOR_BRAND.markup">isom</property>
  <property name="meta.attr.MINOR_VERSION.markup">512</property>
  <property name="meta.attr.ENCODER.markup">Lavf60.16.100</property>
  <property name="seekable">1</property>
  <property name="meta.media.sample_aspect_num">1</property>
  <property name="meta.media.sample_aspect_den">1</property>
  <property name="aspect_ratio">1</property>
  <property name="format">3</property>
  <property name="kdenlive:clipname"/>
  <property name="meta.media.frame_rate_num">30000</property>
  <property name="meta.media.frame_rate_den">1001</property>
  <property name="meta.media.colorspace">709</property>
  <property name="meta.media.color_trc">1</property>
  <property name="meta.media.has_b_frames">2</property>
  <property name="meta.media.width">1920</property>
  <property name="meta.media.height">1080</property>
  <property name="meta.media.color_range">mpeg</property>
  <property name="meta.media.top_field_first">0</property>
  <property name="meta.media.progressive">1</property>
  <property name="kdenlive:clip_type">0</property>
  <property name="kdenlive:folderid">511</property>
  <property name="kdenlive:id">540</property>
  <property name="kdenlive:file_size">642982</property>
  <property name="kdenlive:file_hash">88cf5a4ac965f89c52103c77d5158943</property>
  <property name="kdenlive:audio_max1">238</property>
 </producer>
 <producer id="producer496" in="00:00:00.000" out="00:00:03.233">
  <property name="length">195</property>
  <property name="eof">pause</property>
  <property name="resource">/home/federico/Nextcloud/Kden/EditingUT/Video/GreenScreen/kill heart undertale green screen decent quality  ription.mkv</property>
  <property name="audio_index">1</property>
  <property name="video_index">0</property>
  <property name="mute_on_pause">0</property>
  <property name="mlt_service">avformat-novalidate</property>
  <property name="meta.media.nb_streams">2</property>
  <property name="meta.media.0.stream.type">video</property>
  <property name="meta.media.0.stream.frame_rate">29.97</property>
  <property name="meta.media.0.stream.sample_aspect_ratio">1</property>
  <property name="meta.media.0.codec.width">1280</property>
  <property name="meta.media.0.codec.height">720</property>
  <property name="meta.media.0.codec.rotate">0</property>
  <property name="meta.media.0.codec.pix_fmt">yuv420p</property>
  <property name="meta.media.0.codec.sample_aspect_ratio">1</property>
  <property name="meta.media.0.codec.colorspace">709</property>
  <property name="meta.media.0.codec.color_trc">1</property>
  <property name="meta.media.0.codec.name">h264</property>
  <property name="meta.media.0.codec.long_name">H.264 / AVC / MPEG-4 AVC / MPEG-4 part 10</property>
  <property name="meta.media.0.codec.bit_rate">0</property>
  <property name="meta.attr.0.stream.HANDLER_NAME.markup">ISO Media file produced by Google Inc.</property>
  <property name="meta.attr.0.stream.VENDOR_ID.markup">[0][0][0][0]</property>
  <property name="meta.attr.0.stream.ENCODER.markup">Lavc60.31.102 libx264</property>
  <property name="meta.attr.0.stream.DURATION.markup">00:00:03.172000000</property>
  <property name="meta.media.1.stream.type">audio</property>
  <property name="meta.media.1.codec.sample_fmt">fltp</property>
  <property name="meta.media.1.codec.sample_rate">44100</property>
  <property name="meta.media.1.codec.channels">2</property>
  <property name="meta.media.1.codec.name">vorbis</property>
  <property name="meta.media.1.codec.long_name">Vorbis</property>
  <property name="meta.media.1.codec.bit_rate">0</property>
  <property name="meta.attr.1.stream.language.markup">eng</property>
  <property name="meta.attr.1.stream.HANDLER_NAME.markup">ISO Media file produced by Google Inc.</property>
  <property name="meta.attr.1.stream.VENDOR_ID.markup">[0][0][0][0]</property>
  <property name="meta.attr.1.stream.ENCODER.markup">Lavc60.31.102 libvorbis</property>
  <property name="meta.attr.1.stream.DURATION.markup">00:00:03.254000000</property>
  <property name="meta.attr.COMPATIBLE_BRANDS.markup">isomiso2avc1mp41</property>
  <property name="meta.attr.MAJOR_BRAND.markup">isom</property>
  <property name="meta.attr.MINOR_VERSION.markup">512</property>
  <property name="meta.attr.ENCODER.markup">Lavf60.16.100</property>
  <property name="seekable">1</property>
  <property name="meta.media.sample_aspect_num">1</property>
  <property name="meta.media.sample_aspect_den">1</property>
  <property name="aspect_ratio">1</property>
  <property name="format">3</property>
  <property name="kdenlive:clipname"/>
  <property name="meta.media.frame_rate_num">30000</property>
  <property name="meta.media.frame_rate_den">1001</property>
  <property name="meta.media.colorspace">709</property>
  <property name="meta.media.color_trc">1</property>
  <property name="meta.media.has_b_frames">2</property>
  <property name="meta.media.width">1280</property>
  <property name="meta.media.height">720</property>
  <property name="meta.media.color_range">mpeg</property>
  <property name="meta.media.top_field_first">0</property>
  <property name="meta.media.progressive">1</property>
  <property name="kdenlive:clip_type">0</property>
  <property name="kdenlive:folderid">511</property>
  <property name="kdenlive:id">541</property>
  <property name="kdenlive:file_size">55321</property>
  <property name="kdenlive:file_hash">c13928f60f21bc3b6b6a0a4529157d0d</property>
  <property name="kdenlive:audio_max1">111</property>
 </producer>
 <producer id="producer498" in="00:00:00.000" out="00:00:02.517">
  <property name="length">152</property>
  <property name="eof">pause</property>
  <property name="resource">/home/federico/Nextcloud/Kden/EditingUT/Video/GreenScreen/laser_explosion_explode_meme_world of light beam green screen.mkv</property>
  <property name="audio_index">1</property>
  <property name="video_index">0</property>
  <property name="mute_on_pause">0</property>
  <property name="mlt_service">avformat-novalidate</property>
  <property name="meta.media.nb_streams">2</property>
  <property name="meta.media.0.stream.type">video</property>
  <property name="meta.media.0.stream.frame_rate">29.97</property>
  <property name="meta.media.0.stream.sample_aspect_ratio">1</property>
  <property name="meta.media.0.codec.width">640</property>
  <property name="meta.media.0.codec.height">360</property>
  <property name="meta.media.0.codec.rotate">0</property>
  <property name="meta.media.0.codec.pix_fmt">yuv420p</property>
  <property name="meta.media.0.codec.sample_aspect_ratio">1</property>
  <property name="meta.media.0.codec.colorspace">709</property>
  <property name="meta.media.0.codec.color_trc">1</property>
  <property name="meta.media.0.codec.name">h264</property>
  <property name="meta.media.0.codec.long_name">H.264 / AVC / MPEG-4 AVC / MPEG-4 part 10</property>
  <property name="meta.media.0.codec.bit_rate">0</property>
  <property name="meta.attr.0.stream.HANDLER_NAME.markup">ISO Media file produced by Google Inc.</property>
  <property name="meta.attr.0.stream.VENDOR_ID.markup">[0][0][0][0]</property>
  <property name="meta.attr.0.stream.ENCODER.markup">Lavc60.31.102 libx264</property>
  <property name="meta.attr.0.stream.DURATION.markup">00:00:02.405000000</property>
  <property name="meta.media.1.stream.type">audio</property>
  <property name="meta.media.1.codec.sample_fmt">fltp</property>
  <property name="meta.media.1.codec.sample_rate">44100</property>
  <property name="meta.media.1.codec.channels">2</property>
  <property name="meta.media.1.codec.name">vorbis</property>
  <property name="meta.media.1.codec.long_name">Vorbis</property>
  <property name="meta.media.1.codec.bit_rate">0</property>
  <property name="meta.attr.1.stream.language.markup">eng</property>
  <property name="meta.attr.1.stream.HANDLER_NAME.markup">ISO Media file produced by Google Inc.</property>
  <property name="meta.attr.1.stream.VENDOR_ID.markup">[0][0][0][0]</property>
  <property name="meta.attr.1.stream.ENCODER.markup">Lavc60.31.102 libvorbis</property>
  <property name="meta.attr.1.stream.DURATION.markup">00:00:02.534000000</property>
  <property name="meta.attr.COMPATIBLE_BRANDS.markup">isomiso2avc1mp41</property>
  <property name="meta.attr.MAJOR_BRAND.markup">isom</property>
  <property name="meta.attr.MINOR_VERSION.markup">512</property>
  <property name="meta.attr.ENCODER.markup">Lavf60.16.100</property>
  <property name="seekable">1</property>
  <property name="meta.media.sample_aspect_num">1</property>
  <property name="meta.media.sample_aspect_den">1</property>
  <property name="aspect_ratio">1</property>
  <property name="format">3</property>
  <property name="kdenlive:clipname"/>
  <property name="meta.media.frame_rate_num">30000</property>
  <property name="meta.media.frame_rate_den">1001</property>
  <property name="meta.media.colorspace">709</property>
  <property name="meta.media.color_trc">1</property>
  <property name="meta.media.has_b_frames">2</property>
  <property name="meta.media.width">640</property>
  <property name="meta.media.height">360</property>
  <property name="meta.media.color_range">mpeg</property>
  <property name="meta.media.top_field_first">0</property>
  <property name="meta.media.progressive">1</property>
  <property name="kdenlive:clip_type">0</property>
  <property name="kdenlive:folderid">511</property>
  <property name="kdenlive:id">542</property>
  <property name="kdenlive:file_size">152493</property>
  <property name="kdenlive:file_hash">96876fad9b27b42c07b1f79b681b42c6</property>
  <property name="kdenlive:audio_max1">246</property>
 </producer>
 <producer id="producer499" in="00:00:00.000" out="00:00:01.883">
  <property name="length">114</property>
  <property name="eof">pause</property>
  <property name="resource">/home/federico/Nextcloud/Kden/EditingUT/Video/GreenScreen/laugh emoji meme green screen.mkv</property>
  <property name="audio_index">1</property>
  <property name="video_index">0</property>
  <property name="mute_on_pause">0</property>
  <property name="mlt_service">avformat-novalidate</property>
  <property name="meta.media.nb_streams">2</property>
  <property name="meta.media.0.stream.type">video</property>
  <property name="meta.media.0.stream.frame_rate">30</property>
  <property name="meta.media.0.stream.sample_aspect_ratio">1</property>
  <property name="meta.media.0.codec.width">854</property>
  <property name="meta.media.0.codec.height">480</property>
  <property name="meta.media.0.codec.rotate">0</property>
  <property name="meta.media.0.codec.pix_fmt">yuv420p</property>
  <property name="meta.media.0.codec.sample_aspect_ratio">1</property>
  <property name="meta.media.0.codec.colorspace">709</property>
  <property name="meta.media.0.codec.color_trc">1</property>
  <property name="meta.media.0.codec.name">h264</property>
  <property name="meta.media.0.codec.long_name">H.264 / AVC / MPEG-4 AVC / MPEG-4 part 10</property>
  <property name="meta.media.0.codec.bit_rate">0</property>
  <property name="meta.attr.0.stream.HANDLER_NAME.markup">VideoHandler</property>
  <property name="meta.attr.0.stream.VENDOR_ID.markup">[0][0][0][0]</property>
  <property name="meta.attr.0.stream.ENCODER.markup">Lavc60.31.102 libx264</property>
  <property name="meta.attr.0.stream.DURATION.markup">00:00:01.736000000</property>
  <property name="meta.media.1.stream.type">audio</property>
  <property name="meta.media.1.codec.sample_fmt">fltp</property>
  <property name="meta.media.1.codec.sample_rate">44100</property>
  <property name="meta.media.1.codec.channels">2</property>
  <property name="meta.media.1.codec.name">vorbis</property>
  <property name="meta.media.1.codec.long_name">Vorbis</property>
  <property name="meta.media.1.codec.bit_rate">0</property>
  <property name="meta.attr.1.stream.language.markup">eng</property>
  <property name="meta.attr.1.stream.HANDLER_NAME.markup">ISO Media file produced by Google Inc.</property>
  <property name="meta.attr.1.stream.VENDOR_ID.markup">[0][0][0][0]</property>
  <property name="meta.attr.1.stream.ENCODER.markup">Lavc60.31.102 libvorbis</property>
  <property name="meta.attr.1.stream.DURATION.markup">00:00:01.907000000</property>
  <property name="meta.attr.COMPATIBLE_BRANDS.markup">isomiso2avc1mp41</property>
  <property name="meta.attr.MAJOR_BRAND.markup">isom</property>
  <property name="meta.attr.MINOR_VERSION.markup">512</property>
  <property name="meta.attr.ENCODER.markup">Lavf60.16.100</property>
  <property name="seekable">1</property>
  <property name="meta.media.sample_aspect_num">1</property>
  <property name="meta.media.sample_aspect_den">1</property>
  <property name="aspect_ratio">1</property>
  <property name="format">3</property>
  <property name="kdenlive:clipname"/>
  <property name="meta.media.frame_rate_num">30</property>
  <property name="meta.media.frame_rate_den">1</property>
  <property name="meta.media.colorspace">709</property>
  <property name="meta.media.color_trc">1</property>
  <property name="meta.media.has_b_frames">2</property>
  <property name="meta.media.width">854</property>
  <property name="meta.media.height">480</property>
  <property name="meta.media.color_range">mpeg</property>
  <property name="meta.media.top_field_first">0</property>
  <property name="meta.media.progressive">1</property>
  <property name="kdenlive:clip_type">0</property>
  <property name="kdenlive:folderid">511</property>
  <property name="kdenlive:id">543</property>
  <property name="kdenlive:file_size">86307</property>
  <property name="kdenlive:file_hash">2d2ebbf10b0047463d7ba35ece6e509b</property>
  <property name="kdenlive:audio_max1">234</property>
 </producer>
 <producer id="producer500" in="00:00:00.000" out="00:00:06.517">
  <property name="length">392</property>
  <property name="eof">pause</property>
  <property name="resource">/home/federico/Nextcloud/Kden/EditingUT/Video/GreenScreen/lazy town_don't let your kids watch it_meme_green screen.mkv</property>
  <property name="audio_index">1</property>
  <property name="video_index">0</property>
  <property name="mute_on_pause">0</property>
  <property name="mlt_service">avformat-novalidate</property>
  <property name="meta.media.nb_streams">2</property>
  <property name="meta.media.0.stream.type">video</property>
  <property name="meta.media.0.stream.frame_rate">23.976</property>
  <property name="meta.media.0.stream.sample_aspect_ratio">1</property>
  <property name="meta.media.0.codec.width">1280</property>
  <property name="meta.media.0.codec.height">720</property>
  <property name="meta.media.0.codec.rotate">0</property>
  <property name="meta.media.0.codec.pix_fmt">yuv420p</property>
  <property name="meta.media.0.codec.sample_aspect_ratio">1</property>
  <property name="meta.media.0.codec.colorspace">709</property>
  <property name="meta.media.0.codec.color_trc">1</property>
  <property name="meta.media.0.codec.name">h264</property>
  <property name="meta.media.0.codec.long_name">H.264 / AVC / MPEG-4 AVC / MPEG-4 part 10</property>
  <property name="meta.media.0.codec.bit_rate">0</property>
  <property name="meta.attr.0.stream.HANDLER_NAME.markup">ISO Media file produced by Google Inc. Created on: 04/16/2019.</property>
  <property name="meta.attr.0.stream.VENDOR_ID.markup">[0][0][0][0]</property>
  <property name="meta.attr.0.stream.ENCODER.markup">Lavc60.31.102 libx264</property>
  <property name="meta.attr.0.stream.DURATION.markup">00:00:06.468000000</property>
  <property name="meta.media.1.stream.type">audio</property>
  <property name="meta.media.1.codec.sample_fmt">fltp</property>
  <property name="meta.media.1.codec.sample_rate">44100</property>
  <property name="meta.media.1.codec.channels">2</property>
  <property name="meta.media.1.codec.name">vorbis</property>
  <property name="meta.media.1.codec.long_name">Vorbis</property>
  <property name="meta.media.1.codec.bit_rate">0</property>
  <property name="meta.attr.1.stream.language.markup">eng</property>
  <property name="meta.attr.1.stream.HANDLER_NAME.markup">ISO Media file produced by Google Inc. Created on: 04/16/2019.</property>
  <property name="meta.attr.1.stream.VENDOR_ID.markup">[0][0][0][0]</property>
  <property name="meta.attr.1.stream.ENCODER.markup">Lavc60.31.102 libvorbis</property>
  <property name="meta.attr.1.stream.DURATION.markup">00:00:06.528000000</property>
  <property name="meta.attr.title.markup">Lazy town "Don't let your kids watch it" Green screen</property>
  <property name="meta.attr.DESCRIPTION.markup">Hi guys!

Link: https://www.mediafire.com/file/jk80t21c0rgka60/

Subscribe &amp; hit that bell for more videos!</property>
  <property name="meta.attr.MAJOR_BRAND.markup">isom</property>
  <property name="meta.attr.MINOR_VERSION.markup">512</property>
  <property name="meta.attr.COMPATIBLE_BRANDS.markup">isomiso2avc1mp41</property>
  <property name="meta.attr.ARTIST.markup">Green Screen</property>
  <property name="meta.attr.DATE.markup">20190417</property>
  <property name="meta.attr.SYNOPSIS.markup">Hi guys!

Link: https://www.mediafire.com/file/jk80t21c0rgka60/

Subscribe &amp; hit that bell for more videos!</property>
  <property name="meta.attr.COMMENT.markup">https://www.youtube.com/watch?v=84vyko7v7FI</property>
  <property name="meta.attr.ENCODER.markup">Lavf60.16.100</property>
  <property name="seekable">1</property>
  <property name="meta.media.sample_aspect_num">1</property>
  <property name="meta.media.sample_aspect_den">1</property>
  <property name="aspect_ratio">1</property>
  <property name="format">3</property>
  <property name="kdenlive:clipname"/>
  <property name="meta.media.frame_rate_num">24000</property>
  <property name="meta.media.frame_rate_den">1001</property>
  <property name="meta.media.colorspace">709</property>
  <property name="meta.media.color_trc">1</property>
  <property name="meta.media.has_b_frames">2</property>
  <property name="meta.media.width">1280</property>
  <property name="meta.media.height">720</property>
  <property name="meta.media.color_range">mpeg</property>
  <property name="meta.media.top_field_first">0</property>
  <property name="meta.media.progressive">1</property>
  <property name="kdenlive:clip_type">0</property>
  <property name="kdenlive:folderid">511</property>
  <property name="kdenlive:id">544</property>
  <property name="kdenlive:file_size">1168653</property>
  <property name="kdenlive:file_hash">0e098b370c6292bf53e8c3a521019334</property>
  <property name="kdenlive:audio_max1">197</property>
 </producer>
 <producer id="producer501" in="00:00:00.000" out="00:00:02.683">
  <property name="length">162</property>
  <property name="eof">pause</property>
  <property name="resource">/home/federico/Nextcloud/Kden/EditingUT/Video/GreenScreen/loading lost connection green screen with.mkv</property>
  <property name="audio_index">1</property>
  <property name="video_index">0</property>
  <property name="mute_on_pause">0</property>
  <property name="mlt_service">avformat-novalidate</property>
  <property name="meta.media.nb_streams">2</property>
  <property name="meta.media.0.stream.type">video</property>
  <property name="meta.media.0.stream.frame_rate">30</property>
  <property name="meta.media.0.stream.sample_aspect_ratio">1</property>
  <property name="meta.media.0.codec.width">1280</property>
  <property name="meta.media.0.codec.height">720</property>
  <property name="meta.media.0.codec.rotate">0</property>
  <property name="meta.media.0.codec.pix_fmt">yuv420p</property>
  <property name="meta.media.0.codec.sample_aspect_ratio">1</property>
  <property name="meta.media.0.codec.colorspace">601</property>
  <property name="meta.media.0.codec.color_trc">1</property>
  <property name="meta.media.0.codec.name">h264</property>
  <property name="meta.media.0.codec.long_name">H.264 / AVC / MPEG-4 AVC / MPEG-4 part 10</property>
  <property name="meta.media.0.codec.bit_rate">0</property>
  <property name="meta.attr.0.stream.HANDLER_NAME.markup">ISO Media file produced by Google Inc.</property>
  <property name="meta.attr.0.stream.VENDOR_ID.markup">[0][0][0][0]</property>
  <property name="meta.attr.0.stream.ENCODER.markup">Lavc60.31.102 libx264</property>
  <property name="meta.attr.0.stream.DURATION.markup">00:00:02.636000000</property>
  <property name="meta.media.1.stream.type">audio</property>
  <property name="meta.media.1.codec.sample_fmt">fltp</property>
  <property name="meta.media.1.codec.sample_rate">44100</property>
  <property name="meta.media.1.codec.channels">2</property>
  <property name="meta.media.1.codec.name">vorbis</property>
  <property name="meta.media.1.codec.long_name">Vorbis</property>
  <property name="meta.media.1.codec.bit_rate">0</property>
  <property name="meta.attr.1.stream.language.markup">eng</property>
  <property name="meta.attr.1.stream.HANDLER_NAME.markup">ISO Media file produced by Google Inc.</property>
  <property name="meta.attr.1.stream.VENDOR_ID.markup">[0][0][0][0]</property>
  <property name="meta.attr.1.stream.ENCODER.markup">Lavc60.31.102 libvorbis</property>
  <property name="meta.attr.1.stream.DURATION.markup">00:00:02.697000000</property>
  <property name="meta.attr.COMPATIBLE_BRANDS.markup">isomiso2avc1mp41</property>
  <property name="meta.attr.MAJOR_BRAND.markup">isom</property>
  <property name="meta.attr.MINOR_VERSION.markup">512</property>
  <property name="meta.attr.ENCODER.markup">Lavf60.16.100</property>
  <property name="seekable">1</property>
  <property name="meta.media.sample_aspect_num">1</property>
  <property name="meta.media.sample_aspect_den">1</property>
  <property name="aspect_ratio">1</property>
  <property name="format">3</property>
  <property name="kdenlive:clipname"/>
  <property name="meta.media.frame_rate_num">30</property>
  <property name="meta.media.frame_rate_den">1</property>
  <property name="meta.media.colorspace">601</property>
  <property name="meta.media.color_trc">1</property>
  <property name="meta.media.has_b_frames">2</property>
  <property name="meta.media.width">1280</property>
  <property name="meta.media.height">720</property>
  <property name="meta.media.color_range">mpeg</property>
  <property name="meta.media.top_field_first">0</property>
  <property name="meta.media.progressive">1</property>
  <property name="kdenlive:clip_type">0</property>
  <property name="kdenlive:folderid">511</property>
  <property name="kdenlive:id">545</property>
  <property name="kdenlive:file_size">113189</property>
  <property name="kdenlive:file_hash">7ab0d8a0b3d5a2e51d5b0187c9562ab7</property>
  <property name="kdenlive:audio_max1">99</property>
  <property name="kdenlive:zone_in">8</property>
  <property name="kdenlive:zone_out">38</property>
 </producer>
 <producer id="producer502" in="00:00:00.000" out="00:00:07.650">
  <property name="length">460</property>
  <property name="eof">pause</property>
  <property name="resource">/home/federico/Nextcloud/Kden/EditingUT/Video/GreenScreen/looney tunes- thats all folks! green screen.mkv</property>
  <property name="audio_index">1</property>
  <property name="video_index">0</property>
  <property name="mute_on_pause">0</property>
  <property name="mlt_service">avformat-novalidate</property>
  <property name="meta.media.nb_streams">2</property>
  <property name="meta.media.0.stream.type">video</property>
  <property name="meta.media.0.stream.frame_rate">29.97</property>
  <property name="meta.media.0.stream.sample_aspect_ratio">1</property>
  <property name="meta.media.0.codec.width">1920</property>
  <property name="meta.media.0.codec.height">1080</property>
  <property name="meta.media.0.codec.rotate">0</property>
  <property name="meta.media.0.codec.pix_fmt">yuv420p</property>
  <property name="meta.media.0.codec.sample_aspect_ratio">1</property>
  <property name="meta.media.0.codec.colorspace">709</property>
  <property name="meta.media.0.codec.color_trc">1</property>
  <property name="meta.media.0.codec.name">h264</property>
  <property name="meta.media.0.codec.long_name">H.264 / AVC / MPEG-4 AVC / MPEG-4 part 10</property>
  <property name="meta.media.0.codec.bit_rate">0</property>
  <property name="meta.attr.0.stream.HANDLER_NAME.markup">VideoHandler</property>
  <property name="meta.attr.0.stream.VENDOR_ID.markup">[0][0][0][0]</property>
  <property name="meta.attr.0.stream.ENCODER.markup">Lavc60.31.102 libx264</property>
  <property name="meta.attr.0.stream.DURATION.markup">00:00:07.610000000</property>
  <property name="meta.media.1.stream.type">audio</property>
  <property name="meta.media.1.codec.sample_fmt">fltp</property>
  <property name="meta.media.1.codec.sample_rate">44100</property>
  <property name="meta.media.1.codec.channels">2</property>
  <property name="meta.media.1.codec.name">vorbis</property>
  <property name="meta.media.1.codec.long_name">Vorbis</property>
  <property name="meta.media.1.codec.bit_rate">0</property>
  <property name="meta.attr.1.stream.HANDLER_NAME.markup">SoundHandler</property>
  <property name="meta.attr.1.stream.VENDOR_ID.markup">[0][0][0][0]</property>
  <property name="meta.attr.1.stream.ENCODER.markup">Lavc60.31.102 libvorbis</property>
  <property name="meta.attr.1.stream.DURATION.markup">00:00:07.665000000</property>
  <property name="meta.attr.COMPATIBLE_BRANDS.markup">isomiso2avc1mp41</property>
  <property name="meta.attr.MAJOR_BRAND.markup">isom</property>
  <property name="meta.attr.MINOR_VERSION.markup">512</property>
  <property name="meta.attr.ENCODER.markup">Lavf60.16.100</property>
  <property name="seekable">1</property>
  <property name="meta.media.sample_aspect_num">1</property>
  <property name="meta.media.sample_aspect_den">1</property>
  <property name="aspect_ratio">1</property>
  <property name="format">3</property>
  <property name="kdenlive:clipname"/>
  <property name="meta.media.frame_rate_num">30000</property>
  <property name="meta.media.frame_rate_den">1001</property>
  <property name="meta.media.colorspace">709</property>
  <property name="meta.media.color_trc">1</property>
  <property name="meta.media.has_b_frames">2</property>
  <property name="meta.media.width">1920</property>
  <property name="meta.media.height">1080</property>
  <property name="meta.media.color_range">mpeg</property>
  <property name="meta.media.top_field_first">0</property>
  <property name="meta.media.progressive">1</property>
  <property name="kdenlive:clip_type">0</property>
  <property name="kdenlive:folderid">511</property>
  <property name="kdenlive:id">546</property>
  <property name="kdenlive:file_size">408568</property>
  <property name="kdenlive:file_hash">beba50307c39c7688f2dffd1a7c51b21</property>
  <property name="kdenlive:audio_max1">137</property>
 </producer>
 <producer id="producer507" in="00:00:00.000" out="00:00:21.833">
  <property name="length">1311</property>
  <property name="eof">pause</property>
  <property name="resource">/home/federico/Nextcloud/Kden/EditingUT/Video/GreenScreen/math meme.mkv</property>
  <property name="audio_index">1</property>
  <property name="video_index">0</property>
  <property name="mute_on_pause">0</property>
  <property name="mlt_service">avformat-novalidate</property>
  <property name="meta.media.nb_streams">2</property>
  <property name="meta.media.0.stream.type">video</property>
  <property name="meta.media.0.stream.frame_rate">25</property>
  <property name="meta.media.0.stream.sample_aspect_ratio">1</property>
  <property name="meta.media.0.codec.width">1920</property>
  <property name="meta.media.0.codec.height">1080</property>
  <property name="meta.media.0.codec.rotate">0</property>
  <property name="meta.media.0.codec.pix_fmt">yuv420p</property>
  <property name="meta.media.0.codec.sample_aspect_ratio">1</property>
  <property name="meta.media.0.codec.colorspace">709</property>
  <property name="meta.media.0.codec.color_trc">1</property>
  <property name="meta.media.0.codec.name">h264</property>
  <property name="meta.media.0.codec.long_name">H.264 / AVC / MPEG-4 AVC / MPEG-4 part 10</property>
  <property name="meta.media.0.codec.bit_rate">0</property>
  <property name="meta.attr.0.stream.HANDLER_NAME.markup">ISO Media file produced by Google Inc.</property>
  <property name="meta.attr.0.stream.VENDOR_ID.markup">[0][0][0][0]</property>
  <property name="meta.attr.0.stream.ENCODER.markup">Lavc60.31.102 libx264</property>
  <property name="meta.attr.0.stream.DURATION.markup">00:00:21.803000000</property>
  <property name="meta.media.1.stream.type">audio</property>
  <property name="meta.media.1.codec.sample_fmt">fltp</property>
  <property name="meta.media.1.codec.sample_rate">44100</property>
  <property name="meta.media.1.codec.channels">2</property>
  <property name="meta.media.1.codec.name">vorbis</property>
  <property name="meta.media.1.codec.long_name">Vorbis</property>
  <property name="meta.media.1.codec.bit_rate">0</property>
  <property name="meta.attr.1.stream.HANDLER_NAME.markup">ISO Media file produced by Google Inc.</property>
  <property name="meta.attr.1.stream.VENDOR_ID.markup">[0][0][0][0]</property>
  <property name="meta.attr.1.stream.ENCODER.markup">Lavc60.31.102 libvorbis</property>
  <property name="meta.attr.1.stream.DURATION.markup">00:00:21.853000000</property>
  <property name="meta.attr.COMPATIBLE_BRANDS.markup">isomiso2avc1mp41</property>
  <property name="meta.attr.MAJOR_BRAND.markup">isom</property>
  <property name="meta.attr.MINOR_VERSION.markup">512</property>
  <property name="meta.attr.ENCODER.markup">Lavf60.16.100</property>
  <property name="seekable">1</property>
  <property name="meta.media.sample_aspect_num">1</property>
  <property name="meta.media.sample_aspect_den">1</property>
  <property name="aspect_ratio">1</property>
  <property name="format">3</property>
  <property name="kdenlive:clipname"/>
  <property name="meta.media.frame_rate_num">25</property>
  <property name="meta.media.frame_rate_den">1</property>
  <property name="meta.media.colorspace">709</property>
  <property name="meta.media.color_trc">1</property>
  <property name="meta.media.has_b_frames">2</property>
  <property name="meta.media.width">1920</property>
  <property name="meta.media.height">1080</property>
  <property name="meta.media.color_range">mpeg</property>
  <property name="meta.media.top_field_first">0</property>
  <property name="meta.media.progressive">1</property>
  <property name="kdenlive:clip_type">0</property>
  <property name="kdenlive:folderid">511</property>
  <property name="kdenlive:id">547</property>
  <property name="kdenlive:file_size">11301131</property>
  <property name="kdenlive:file_hash">660168a6c9f2fd8ca7dab530cf9dcae0</property>
  <property name="kdenlive:audio_max1">1</property>
 </producer>
 <producer id="producer505" in="00:00:00.000" out="00:00:25.383">
  <property name="length">1524</property>
  <property name="eof">pause</property>
  <property name="resource">/home/federico/Nextcloud/Kden/EditingUT/Video/GreenScreen/meme sweating man  green screen +.mkv</property>
  <property name="audio_index">1</property>
  <property name="video_index">0</property>
  <property name="mute_on_pause">0</property>
  <property name="mlt_service">avformat-novalidate</property>
  <property name="meta.media.nb_streams">2</property>
  <property name="meta.media.0.stream.type">video</property>
  <property name="meta.media.0.stream.frame_rate">30</property>
  <property name="meta.media.0.stream.sample_aspect_ratio">1</property>
  <property name="meta.media.0.codec.width">1920</property>
  <property name="meta.media.0.codec.height">1080</property>
  <property name="meta.media.0.codec.rotate">0</property>
  <property name="meta.media.0.codec.pix_fmt">yuv420p</property>
  <property name="meta.media.0.codec.sample_aspect_ratio">1</property>
  <property name="meta.media.0.codec.colorspace">709</property>
  <property name="meta.media.0.codec.color_trc">1</property>
  <property name="meta.media.0.codec.name">h264</property>
  <property name="meta.media.0.codec.long_name">H.264 / AVC / MPEG-4 AVC / MPEG-4 part 10</property>
  <property name="meta.media.0.codec.bit_rate">0</property>
  <property name="meta.attr.0.stream.HANDLER_NAME.markup">ISO Media file produced by Google Inc.</property>
  <property name="meta.attr.0.stream.VENDOR_ID.markup">[0][0][0][0]</property>
  <property name="meta.attr.0.stream.ENCODER.markup">Lavc60.31.102 libx264</property>
  <property name="meta.attr.0.stream.DURATION.markup">00:00:25.336000000</property>
  <property name="meta.media.1.stream.type">audio</property>
  <property name="meta.media.1.codec.sample_fmt">fltp</property>
  <property name="meta.media.1.codec.sample_rate">44100</property>
  <property name="meta.media.1.codec.channels">2</property>
  <property name="meta.media.1.codec.name">vorbis</property>
  <property name="meta.media.1.codec.long_name">Vorbis</property>
  <property name="meta.media.1.codec.bit_rate">0</property>
  <property name="meta.attr.1.stream.language.markup">eng</property>
  <property name="meta.attr.1.stream.HANDLER_NAME.markup">ISO Media file produced by Google Inc.</property>
  <property name="meta.attr.1.stream.VENDOR_ID.markup">[0][0][0][0]</property>
  <property name="meta.attr.1.stream.ENCODER.markup">Lavc60.31.102 libvorbis</property>
  <property name="meta.attr.1.stream.DURATION.markup">00:00:25.405000000</property>
  <property name="meta.attr.COMPATIBLE_BRANDS.markup">isomiso2avc1mp41</property>
  <property name="meta.attr.MAJOR_BRAND.markup">isom</property>
  <property name="meta.attr.MINOR_VERSION.markup">512</property>
  <property name="meta.attr.ENCODER.markup">Lavf60.16.100</property>
  <property name="seekable">1</property>
  <property name="meta.media.sample_aspect_num">1</property>
  <property name="meta.media.sample_aspect_den">1</property>
  <property name="aspect_ratio">1</property>
  <property name="format">3</property>
  <property name="kdenlive:clipname"/>
  <property name="meta.media.frame_rate_num">30</property>
  <property name="meta.media.frame_rate_den">1</property>
  <property name="meta.media.colorspace">709</property>
  <property name="meta.media.color_trc">1</property>
  <property name="meta.media.has_b_frames">2</property>
  <property name="meta.media.width">1920</property>
  <property name="meta.media.height">1080</property>
  <property name="meta.media.color_range">mpeg</property>
  <property name="meta.media.top_field_first">0</property>
  <property name="meta.media.progressive">1</property>
  <property name="kdenlive:clip_type">0</property>
  <property name="kdenlive:folderid">511</property>
  <property name="kdenlive:id">548</property>
  <property name="kdenlive:file_size">1395197</property>
  <property name="kdenlive:file_hash">da60d58bdd3c27b6520013e183ba7cba</property>
  <property name="kdenlive:audio_max1">244</property>
 </producer>
 <producer id="producer503" in="00:00:00.000" out="00:00:11.567">
  <property name="length">695</property>
  <property name="eof">pause</property>
  <property name="resource">/home/federico/Nextcloud/Kden/EditingUT/Video/GreenScreen/minecraft health bar green screen.mkv</property>
  <property name="audio_index">1</property>
  <property name="video_index">0</property>
  <property name="mute_on_pause">0</property>
  <property name="mlt_service">avformat-novalidate</property>
  <property name="meta.media.nb_streams">2</property>
  <property name="meta.media.0.stream.type">video</property>
  <property name="meta.media.0.stream.frame_rate">30</property>
  <property name="meta.media.0.stream.sample_aspect_ratio">1</property>
  <property name="meta.media.0.codec.width">640</property>
  <property name="meta.media.0.codec.height">360</property>
  <property name="meta.media.0.codec.rotate">0</property>
  <property name="meta.media.0.codec.pix_fmt">yuv420p</property>
  <property name="meta.media.0.codec.sample_aspect_ratio">1</property>
  <property name="meta.media.0.codec.colorspace">709</property>
  <property name="meta.media.0.codec.color_trc">1</property>
  <property name="meta.media.0.codec.name">h264</property>
  <property name="meta.media.0.codec.long_name">H.264 / AVC / MPEG-4 AVC / MPEG-4 part 10</property>
  <property name="meta.media.0.codec.bit_rate">0</property>
  <property name="meta.attr.0.stream.HANDLER_NAME.markup">ISO Media file produced by Google Inc.</property>
  <property name="meta.attr.0.stream.VENDOR_ID.markup">[0][0][0][0]</property>
  <property name="meta.attr.0.stream.ENCODER.markup">Lavc60.31.102 libx264</property>
  <property name="meta.attr.0.stream.DURATION.markup">00:00:11.336000000</property>
  <property name="meta.media.1.stream.type">audio</property>
  <property name="meta.media.1.codec.sample_fmt">fltp</property>
  <property name="meta.media.1.codec.sample_rate">44100</property>
  <property name="meta.media.1.codec.channels">2</property>
  <property name="meta.media.1.codec.name">vorbis</property>
  <property name="meta.media.1.codec.long_name">Vorbis</property>
  <property name="meta.media.1.codec.bit_rate">0</property>
  <property name="meta.attr.1.stream.HANDLER_NAME.markup">ISO Media file produced by Google Inc.</property>
  <property name="meta.attr.1.stream.VENDOR_ID.markup">[0][0][0][0]</property>
  <property name="meta.attr.1.stream.ENCODER.markup">Lavc60.31.102 libvorbis</property>
  <property name="meta.attr.1.stream.DURATION.markup">00:00:11.589000000</property>
  <property name="meta.attr.COMPATIBLE_BRANDS.markup">isomiso2avc1mp41</property>
  <property name="meta.attr.MAJOR_BRAND.markup">isom</property>
  <property name="meta.attr.MINOR_VERSION.markup">512</property>
  <property name="meta.attr.ENCODER.markup">Lavf60.16.100</property>
  <property name="seekable">1</property>
  <property name="meta.media.sample_aspect_num">1</property>
  <property name="meta.media.sample_aspect_den">1</property>
  <property name="aspect_ratio">1</property>
  <property name="format">3</property>
  <property name="kdenlive:clipname"/>
  <property name="meta.media.frame_rate_num">30</property>
  <property name="meta.media.frame_rate_den">1</property>
  <property name="meta.media.colorspace">709</property>
  <property name="meta.media.color_trc">1</property>
  <property name="meta.media.has_b_frames">2</property>
  <property name="meta.media.width">640</property>
  <property name="meta.media.height">360</property>
  <property name="meta.media.color_range">mpeg</property>
  <property name="meta.media.top_field_first">0</property>
  <property name="meta.media.progressive">1</property>
  <property name="kdenlive:clip_type">0</property>
  <property name="kdenlive:folderid">511</property>
  <property name="kdenlive:id">549</property>
  <property name="kdenlive:file_size">112351</property>
  <property name="kdenlive:file_hash">bcb9772e2dcc2f9ac3435c94d07b1e84</property>
  <property name="kdenlive:audio_max1">173</property>
 </producer>
 <producer id="producer506" in="00:00:00.000" out="00:00:18.283">
  <property name="length">1098</property>
  <property name="eof">pause</property>
  <property name="resource">/home/federico/Nextcloud/Kden/EditingUT/Video/GreenScreen/monkey clapping cymbals from the simpsons green screen.mkv</property>
  <property name="audio_index">1</property>
  <property name="video_index">0</property>
  <property name="mute_on_pause">0</property>
  <property name="mlt_service">avformat-novalidate</property>
  <property name="meta.media.nb_streams">2</property>
  <property name="meta.media.0.stream.type">video</property>
  <property name="meta.media.0.stream.frame_rate">25</property>
  <property name="meta.media.0.stream.sample_aspect_ratio">1</property>
  <property name="meta.media.0.codec.width">1920</property>
  <property name="meta.media.0.codec.height">1080</property>
  <property name="meta.media.0.codec.rotate">0</property>
  <property name="meta.media.0.codec.pix_fmt">yuv420p</property>
  <property name="meta.media.0.codec.sample_aspect_ratio">1</property>
  <property name="meta.media.0.codec.colorspace">709</property>
  <property name="meta.media.0.codec.color_trc">1</property>
  <property name="meta.media.0.codec.name">h264</property>
  <property name="meta.media.0.codec.long_name">H.264 / AVC / MPEG-4 AVC / MPEG-4 part 10</property>
  <property name="meta.media.0.codec.bit_rate">0</property>
  <property name="meta.attr.0.stream.HANDLER_NAME.markup">VideoHandler</property>
  <property name="meta.attr.0.stream.VENDOR_ID.markup">[0][0][0][0]</property>
  <property name="meta.attr.0.stream.ENCODER.markup">Lavc60.31.102 libx264</property>
  <property name="meta.attr.0.stream.DURATION.markup">00:00:18.243000000</property>
  <property name="meta.media.1.stream.type">audio</property>
  <property name="meta.media.1.codec.sample_fmt">fltp</property>
  <property name="meta.media.1.codec.sample_rate">44100</property>
  <property name="meta.media.1.codec.channels">2</property>
  <property name="meta.media.1.codec.name">vorbis</property>
  <property name="meta.media.1.codec.long_name">Vorbis</property>
  <property name="meta.media.1.codec.bit_rate">0</property>
  <property name="meta.attr.1.stream.HANDLER_NAME.markup">SoundHandler</property>
  <property name="meta.attr.1.stream.VENDOR_ID.markup">[0][0][0][0]</property>
  <property name="meta.attr.1.stream.ENCODER.markup">Lavc60.31.102 libvorbis</property>
  <property name="meta.attr.1.stream.DURATION.markup">00:00:18.300000000</property>
  <property name="meta.attr.COMPATIBLE_BRANDS.markup">isomiso2avc1mp41</property>
  <property name="meta.attr.MAJOR_BRAND.markup">isom</property>
  <property name="meta.attr.MINOR_VERSION.markup">512</property>
  <property name="meta.attr.ENCODER.markup">Lavf60.16.100</property>
  <property name="seekable">1</property>
  <property name="meta.media.sample_aspect_num">1</property>
  <property name="meta.media.sample_aspect_den">1</property>
  <property name="aspect_ratio">1</property>
  <property name="format">3</property>
  <property name="kdenlive:clipname"/>
  <property name="meta.media.frame_rate_num">25</property>
  <property name="meta.media.frame_rate_den">1</property>
  <property name="meta.media.colorspace">709</property>
  <property name="meta.media.color_trc">1</property>
  <property name="meta.media.has_b_frames">2</property>
  <property name="meta.media.width">1920</property>
  <property name="meta.media.height">1080</property>
  <property name="meta.media.color_range">mpeg</property>
  <property name="meta.media.top_field_first">0</property>
  <property name="meta.media.progressive">1</property>
  <property name="kdenlive:clip_type">0</property>
  <property name="kdenlive:folderid">511</property>
  <property name="kdenlive:id">550</property>
  <property name="kdenlive:file_size">2440221</property>
  <property name="kdenlive:file_hash">cde4100c6eaed6bbf5544f625db5f664</property>
  <property name="kdenlive:audio_max1">146</property>
 </producer>
 <producer id="producer504" in="00:00:00.000" out="00:00:30.750">
  <property name="length">1846</property>
  <property name="eof">pause</property>
  <property name="resource">/home/federico/Nextcloud/Kden/EditingUT/Video/GreenScreen/pokemon rse trainer encounter green screen.mkv</property>
  <property name="audio_index">1</property>
  <property name="video_index">0</property>
  <property name="mute_on_pause">0</property>
  <property name="mlt_service">avformat-novalidate</property>
  <property name="meta.media.nb_streams">2</property>
  <property name="meta.media.0.stream.type">video</property>
  <property name="meta.media.0.stream.frame_rate">60</property>
  <property name="meta.media.0.stream.sample_aspect_ratio">1</property>
  <property name="meta.media.0.codec.width">1280</property>
  <property name="meta.media.0.codec.height">720</property>
  <property name="meta.media.0.codec.rotate">0</property>
  <property name="meta.media.0.codec.pix_fmt">yuv420p</property>
  <property name="meta.media.0.codec.sample_aspect_ratio">1</property>
  <property name="meta.media.0.codec.colorspace">709</property>
  <property name="meta.media.0.codec.color_trc">1</property>
  <property name="meta.media.0.codec.name">h264</property>
  <property name="meta.media.0.codec.long_name">H.264 / AVC / MPEG-4 AVC / MPEG-4 part 10</property>
  <property name="meta.media.0.codec.bit_rate">0</property>
  <property name="meta.attr.0.stream.HANDLER_NAME.markup">ISO Media file produced by Google Inc.</property>
  <property name="meta.attr.0.stream.VENDOR_ID.markup">[0][0][0][0]</property>
  <property name="meta.attr.0.stream.ENCODER.markup">Lavc60.31.102 libx264</property>
  <property name="meta.attr.0.stream.DURATION.markup">00:00:30.703000000</property>
  <property name="meta.media.1.stream.type">audio</property>
  <property name="meta.media.1.codec.sample_fmt">fltp</property>
  <property name="meta.media.1.codec.sample_rate">44100</property>
  <property name="meta.media.1.codec.channels">2</property>
  <property name="meta.media.1.codec.name">vorbis</property>
  <property name="meta.media.1.codec.long_name">Vorbis</property>
  <property name="meta.media.1.codec.bit_rate">0</property>
  <property name="meta.attr.1.stream.language.markup">eng</property>
  <property name="meta.attr.1.stream.HANDLER_NAME.markup">ISO Media file produced by Google Inc.</property>
  <property name="meta.attr.1.stream.VENDOR_ID.markup">[0][0][0][0]</property>
  <property name="meta.attr.1.stream.ENCODER.markup">Lavc60.31.102 libvorbis</property>
  <property name="meta.attr.1.stream.DURATION.markup">00:00:30.770000000</property>
  <property name="meta.attr.COMPATIBLE_BRANDS.markup">isomiso2avc1mp41</property>
  <property name="meta.attr.MAJOR_BRAND.markup">isom</property>
  <property name="meta.attr.MINOR_VERSION.markup">512</property>
  <property name="meta.attr.ENCODER.markup">Lavf60.16.100</property>
  <property name="seekable">1</property>
  <property name="meta.media.sample_aspect_num">1</property>
  <property name="meta.media.sample_aspect_den">1</property>
  <property name="aspect_ratio">1</property>
  <property name="format">3</property>
  <property name="kdenlive:clipname"/>
  <property name="meta.media.frame_rate_num">60</property>
  <property name="meta.media.frame_rate_den">1</property>
  <property name="meta.media.colorspace">709</property>
  <property name="meta.media.color_trc">1</property>
  <property name="meta.media.has_b_frames">2</property>
  <property name="meta.media.width">1280</property>
  <property name="meta.media.height">720</property>
  <property name="meta.media.color_range">mpeg</property>
  <property name="meta.media.top_field_first">0</property>
  <property name="meta.media.progressive">1</property>
  <property name="kdenlive:clip_type">0</property>
  <property name="kdenlive:folderid">511</property>
  <property name="kdenlive:id">551</property>
  <property name="kdenlive:file_size">534736</property>
  <property name="kdenlive:file_hash">c230babda270802aac92db375d924e72</property>
  <property name="kdenlive:audio_max1">228</property>
 </producer>
 <producer id="producer508" in="00:00:00.000" out="00:00:06.583">
  <property name="length">396</property>
  <property name="eof">pause</property>
  <property name="resource">/home/federico/Nextcloud/Kden/EditingUT/Video/GreenScreen/pokémon encounter transition green screen.mkv</property>
  <property name="audio_index">1</property>
  <property name="video_index">0</property>
  <property name="mute_on_pause">0</property>
  <property name="mlt_service">avformat-novalidate</property>
  <property name="meta.media.nb_streams">2</property>
  <property name="meta.media.0.stream.type">video</property>
  <property name="meta.media.0.stream.frame_rate">29.97</property>
  <property name="meta.media.0.stream.sample_aspect_ratio">1</property>
  <property name="meta.media.0.codec.width">1280</property>
  <property name="meta.media.0.codec.height">720</property>
  <property name="meta.media.0.codec.rotate">0</property>
  <property name="meta.media.0.codec.pix_fmt">yuv420p</property>
  <property name="meta.media.0.codec.sample_aspect_ratio">1</property>
  <property name="meta.media.0.codec.colorspace">709</property>
  <property name="meta.media.0.codec.color_trc">1</property>
  <property name="meta.media.0.codec.name">h264</property>
  <property name="meta.media.0.codec.long_name">H.264 / AVC / MPEG-4 AVC / MPEG-4 part 10</property>
  <property name="meta.media.0.codec.bit_rate">0</property>
  <property name="meta.attr.0.stream.HANDLER_NAME.markup">ISO Media file produced by Google Inc.</property>
  <property name="meta.attr.0.stream.VENDOR_ID.markup">[0][0][0][0]</property>
  <property name="meta.attr.0.stream.ENCODER.markup">Lavc60.31.102 libx264</property>
  <property name="meta.attr.0.stream.DURATION.markup">00:00:06.476000000</property>
  <property name="meta.media.1.stream.type">audio</property>
  <property name="meta.media.1.codec.sample_fmt">fltp</property>
  <property name="meta.media.1.codec.sample_rate">44100</property>
  <property name="meta.media.1.codec.channels">2</property>
  <property name="meta.media.1.codec.name">vorbis</property>
  <property name="meta.media.1.codec.long_name">Vorbis</property>
  <property name="meta.media.1.codec.bit_rate">0</property>
  <property name="meta.attr.1.stream.HANDLER_NAME.markup">ISO Media file produced by Google Inc.</property>
  <property name="meta.attr.1.stream.VENDOR_ID.markup">[0][0][0][0]</property>
  <property name="meta.attr.1.stream.ENCODER.markup">Lavc60.31.102 libvorbis</property>
  <property name="meta.attr.1.stream.DURATION.markup">00:00:06.597000000</property>
  <property name="meta.attr.COMPATIBLE_BRANDS.markup">isomiso2avc1mp41</property>
  <property name="meta.attr.MAJOR_BRAND.markup">isom</property>
  <property name="meta.attr.MINOR_VERSION.markup">512</property>
  <property name="meta.attr.ENCODER.markup">Lavf60.16.100</property>
  <property name="seekable">1</property>
  <property name="meta.media.sample_aspect_num">1</property>
  <property name="meta.media.sample_aspect_den">1</property>
  <property name="aspect_ratio">1</property>
  <property name="format">3</property>
  <property name="kdenlive:clipname"/>
  <property name="meta.media.frame_rate_num">30000</property>
  <property name="meta.media.frame_rate_den">1001</property>
  <property name="meta.media.colorspace">709</property>
  <property name="meta.media.color_trc">1</property>
  <property name="meta.media.has_b_frames">2</property>
  <property name="meta.media.width">1280</property>
  <property name="meta.media.height">720</property>
  <property name="meta.media.color_range">mpeg</property>
  <property name="meta.media.top_field_first">0</property>
  <property name="meta.media.progressive">1</property>
  <property name="kdenlive:clip_type">0</property>
  <property name="kdenlive:folderid">511</property>
  <property name="kdenlive:id">552</property>
  <property name="kdenlive:file_size">109347</property>
  <property name="kdenlive:file_hash">6e931e0d58c2e534e06a93d6cd9c5749</property>
  <property name="kdenlive:audio_max1">209</property>
 </producer>
 <producer id="producer509" in="00:00:00.000" out="00:00:05.583">
  <property name="length">336</property>
  <property name="eof">pause</property>
  <property name="resource">/home/federico/Nextcloud/Kden/EditingUT/Video/GreenScreen/police_meme_officer earl running green screen.mkv</property>
  <property name="audio_index">1</property>
  <property name="video_index">0</property>
  <property name="mute_on_pause">0</property>
  <property name="mlt_service">avformat-novalidate</property>
  <property name="meta.media.nb_streams">2</property>
  <property name="meta.media.0.stream.type">video</property>
  <property name="meta.media.0.stream.frame_rate">30</property>
  <property name="meta.media.0.stream.sample_aspect_ratio">1</property>
  <property name="meta.media.0.codec.width">1280</property>
  <property name="meta.media.0.codec.height">720</property>
  <property name="meta.media.0.codec.rotate">0</property>
  <property name="meta.media.0.codec.pix_fmt">yuv420p</property>
  <property name="meta.media.0.codec.sample_aspect_ratio">1</property>
  <property name="meta.media.0.codec.colorspace">709</property>
  <property name="meta.media.0.codec.color_trc">1</property>
  <property name="meta.media.0.codec.name">h264</property>
  <property name="meta.media.0.codec.long_name">H.264 / AVC / MPEG-4 AVC / MPEG-4 part 10</property>
  <property name="meta.media.0.codec.bit_rate">0</property>
  <property name="meta.attr.0.stream.HANDLER_NAME.markup">ISO Media file produced by Google Inc. Created on: 04/17/2019.</property>
  <property name="meta.attr.0.stream.VENDOR_ID.markup">[0][0][0][0]</property>
  <property name="meta.attr.0.stream.ENCODER.markup">Lavc60.31.102 libx264</property>
  <property name="meta.attr.0.stream.DURATION.markup">00:00:05.536000000</property>
  <property name="meta.media.1.stream.type">audio</property>
  <property name="meta.media.1.codec.sample_fmt">fltp</property>
  <property name="meta.media.1.codec.sample_rate">44100</property>
  <property name="meta.media.1.codec.channels">2</property>
  <property name="meta.media.1.codec.name">vorbis</property>
  <property name="meta.media.1.codec.long_name">Vorbis</property>
  <property name="meta.media.1.codec.bit_rate">0</property>
  <property name="meta.attr.1.stream.language.markup">eng</property>
  <property name="meta.attr.1.stream.HANDLER_NAME.markup">ISO Media file produced by Google Inc. Created on: 04/17/2019.</property>
  <property name="meta.attr.1.stream.VENDOR_ID.markup">[0][0][0][0]</property>
  <property name="meta.attr.1.stream.ENCODER.markup">Lavc60.31.102 libvorbis</property>
  <property name="meta.attr.1.stream.DURATION.markup">00:00:05.599000000</property>
  <property name="meta.attr.COMPATIBLE_BRANDS.markup">isomiso2avc1mp41</property>
  <property name="meta.attr.MAJOR_BRAND.markup">isom</property>
  <property name="meta.attr.MINOR_VERSION.markup">512</property>
  <property name="meta.attr.ENCODER.markup">Lavf60.16.100</property>
  <property name="seekable">1</property>
  <property name="meta.media.sample_aspect_num">1</property>
  <property name="meta.media.sample_aspect_den">1</property>
  <property name="aspect_ratio">1</property>
  <property name="format">3</property>
  <property name="kdenlive:clipname"/>
  <property name="meta.media.frame_rate_num">30</property>
  <property name="meta.media.frame_rate_den">1</property>
  <property name="meta.media.colorspace">709</property>
  <property name="meta.media.color_trc">1</property>
  <property name="meta.media.has_b_frames">2</property>
  <property name="meta.media.width">1280</property>
  <property name="meta.media.height">720</property>
  <property name="meta.media.color_range">mpeg</property>
  <property name="meta.media.top_field_first">0</property>
  <property name="meta.media.progressive">1</property>
  <property name="kdenlive:clip_type">0</property>
  <property name="kdenlive:folderid">511</property>
  <property name="kdenlive:id">553</property>
  <property name="kdenlive:file_size">357943</property>
  <property name="kdenlive:file_hash">06bd2dd6982d411423b9b479874521f3</property>
  <property name="kdenlive:audio_max1">1</property>
 </producer>
 <producer id="producer511" in="00:00:00.000" out="00:00:15.133">
  <property name="length">909</property>
  <property name="eof">pause</property>
  <property name="resource">/home/federico/Nextcloud/Kden/EditingUT/Video/GreenScreen/return to the wii menu green screen.mkv</property>
  <property name="audio_index">1</property>
  <property name="video_index">0</property>
  <property name="mute_on_pause">0</property>
  <property name="mlt_service">avformat-novalidate</property>
  <property name="meta.media.nb_streams">2</property>
  <property name="meta.media.0.stream.type">video</property>
  <property name="meta.media.0.stream.frame_rate">60</property>
  <property name="meta.media.0.stream.sample_aspect_ratio">1</property>
  <property name="meta.media.0.codec.width">1920</property>
  <property name="meta.media.0.codec.height">1080</property>
  <property name="meta.media.0.codec.rotate">0</property>
  <property name="meta.media.0.codec.pix_fmt">yuv420p</property>
  <property name="meta.media.0.codec.sample_aspect_ratio">1</property>
  <property name="meta.media.0.codec.colorspace">709</property>
  <property name="meta.media.0.codec.color_trc">1</property>
  <property name="meta.media.0.codec.name">h264</property>
  <property name="meta.media.0.codec.long_name">H.264 / AVC / MPEG-4 AVC / MPEG-4 part 10</property>
  <property name="meta.media.0.codec.bit_rate">0</property>
  <property name="meta.attr.0.stream.HANDLER_NAME.markup">ISO Media file produced by Google Inc.</property>
  <property name="meta.attr.0.stream.VENDOR_ID.markup">[0][0][0][0]</property>
  <property name="meta.attr.0.stream.ENCODER.markup">Lavc60.31.102 libx264</property>
  <property name="meta.attr.0.stream.DURATION.markup">00:00:15.087000000</property>
  <property name="meta.media.1.stream.type">audio</property>
  <property name="meta.media.1.codec.sample_fmt">fltp</property>
  <property name="meta.media.1.codec.sample_rate">44100</property>
  <property name="meta.media.1.codec.channels">2</property>
  <property name="meta.media.1.codec.name">vorbis</property>
  <property name="meta.media.1.codec.long_name">Vorbis</property>
  <property name="meta.media.1.codec.bit_rate">0</property>
  <property name="meta.attr.1.stream.language.markup">eng</property>
  <property name="meta.attr.1.stream.HANDLER_NAME.markup">ISO Media file produced by Google Inc.</property>
  <property name="meta.attr.1.stream.VENDOR_ID.markup">[0][0][0][0]</property>
  <property name="meta.attr.1.stream.ENCODER.markup">Lavc60.31.102 libvorbis</property>
  <property name="meta.attr.1.stream.DURATION.markup">00:00:15.143000000</property>
  <property name="meta.attr.COMPATIBLE_BRANDS.markup">isomiso2avc1mp41</property>
  <property name="meta.attr.MAJOR_BRAND.markup">isom</property>
  <property name="meta.attr.MINOR_VERSION.markup">512</property>
  <property name="meta.attr.ENCODER.markup">Lavf60.16.100</property>
  <property name="seekable">1</property>
  <property name="meta.media.sample_aspect_num">1</property>
  <property name="meta.media.sample_aspect_den">1</property>
  <property name="aspect_ratio">1</property>
  <property name="format">3</property>
  <property name="kdenlive:clipname"/>
  <property name="meta.media.frame_rate_num">60</property>
  <property name="meta.media.frame_rate_den">1</property>
  <property name="meta.media.colorspace">709</property>
  <property name="meta.media.color_trc">1</property>
  <property name="meta.media.has_b_frames">2</property>
  <property name="meta.media.width">1920</property>
  <property name="meta.media.height">1080</property>
  <property name="meta.media.color_range">mpeg</property>
  <property name="meta.media.top_field_first">0</property>
  <property name="meta.media.progressive">1</property>
  <property name="kdenlive:clip_type">0</property>
  <property name="kdenlive:folderid">511</property>
  <property name="kdenlive:id">554</property>
  <property name="kdenlive:file_size">973572</property>
  <property name="kdenlive:file_hash">9338e00d50dd1fc6838b788643927b22</property>
  <property name="kdenlive:audio_max1">132</property>
 </producer>
 <producer id="producer510" in="00:00:00.000" out="00:00:06.517">
  <property name="length">392</property>
  <property name="eof">pause</property>
  <property name="resource">/home/federico/Nextcloud/Kden/EditingUT/Video/GreenScreen/robbie rotten dont let your kids watch it green screen.mkv</property>
  <property name="audio_index">1</property>
  <property name="video_index">0</property>
  <property name="mute_on_pause">0</property>
  <property name="mlt_service">avformat-novalidate</property>
  <property name="meta.media.nb_streams">2</property>
  <property name="meta.media.0.stream.type">video</property>
  <property name="meta.media.0.stream.frame_rate">23.976</property>
  <property name="meta.media.0.stream.sample_aspect_ratio">1</property>
  <property name="meta.media.0.codec.width">1280</property>
  <property name="meta.media.0.codec.height">720</property>
  <property name="meta.media.0.codec.rotate">0</property>
  <property name="meta.media.0.codec.pix_fmt">yuv420p</property>
  <property name="meta.media.0.codec.sample_aspect_ratio">1</property>
  <property name="meta.media.0.codec.colorspace">709</property>
  <property name="meta.media.0.codec.color_trc">1</property>
  <property name="meta.media.0.codec.name">h264</property>
  <property name="meta.media.0.codec.long_name">H.264 / AVC / MPEG-4 AVC / MPEG-4 part 10</property>
  <property name="meta.media.0.codec.bit_rate">0</property>
  <property name="meta.attr.0.stream.HANDLER_NAME.markup">ISO Media file produced by Google Inc.</property>
  <property name="meta.attr.0.stream.VENDOR_ID.markup">[0][0][0][0]</property>
  <property name="meta.attr.0.stream.ENCODER.markup">Lavc60.31.102 libx264</property>
  <property name="meta.attr.0.stream.DURATION.markup">00:00:06.468000000</property>
  <property name="meta.media.1.stream.type">audio</property>
  <property name="meta.media.1.codec.sample_fmt">fltp</property>
  <property name="meta.media.1.codec.sample_rate">44100</property>
  <property name="meta.media.1.codec.channels">2</property>
  <property name="meta.media.1.codec.name">vorbis</property>
  <property name="meta.media.1.codec.long_name">Vorbis</property>
  <property name="meta.media.1.codec.bit_rate">0</property>
  <property name="meta.attr.1.stream.language.markup">eng</property>
  <property name="meta.attr.1.stream.HANDLER_NAME.markup">ISO Media file produced by Google Inc.</property>
  <property name="meta.attr.1.stream.VENDOR_ID.markup">[0][0][0][0]</property>
  <property name="meta.attr.1.stream.ENCODER.markup">Lavc60.31.102 libvorbis</property>
  <property name="meta.attr.1.stream.DURATION.markup">00:00:06.528000000</property>
  <property name="meta.attr.COMPATIBLE_BRANDS.markup">isomiso2avc1mp41</property>
  <property name="meta.attr.MAJOR_BRAND.markup">isom</property>
  <property name="meta.attr.MINOR_VERSION.markup">512</property>
  <property name="meta.attr.ENCODER.markup">Lavf60.16.100</property>
  <property name="seekable">1</property>
  <property name="meta.media.sample_aspect_num">1</property>
  <property name="meta.media.sample_aspect_den">1</property>
  <property name="aspect_ratio">1</property>
  <property name="format">3</property>
  <property name="kdenlive:clipname"/>
  <property name="meta.media.frame_rate_num">24000</property>
  <property name="meta.media.frame_rate_den">1001</property>
  <property name="meta.media.colorspace">709</property>
  <property name="meta.media.color_trc">1</property>
  <property name="meta.media.has_b_frames">2</property>
  <property name="meta.media.width">1280</property>
  <property name="meta.media.height">720</property>
  <property name="meta.media.color_range">mpeg</property>
  <property name="meta.media.top_field_first">0</property>
  <property name="meta.media.progressive">1</property>
  <property name="kdenlive:clip_type">0</property>
  <property name="kdenlive:folderid">511</property>
  <property name="kdenlive:id">555</property>
  <property name="kdenlive:file_size">995412</property>
  <property name="kdenlive:file_hash">c69a3b2882afab1866141b7f361d0268</property>
  <property name="kdenlive:audio_max1">197</property>
 </producer>
 <producer id="producer512" in="00:00:00.000" out="00:00:05.367">
  <property name="length">323</property>
  <property name="eof">pause</property>
  <property name="resource">/home/federico/Nextcloud/Kden/EditingUT/Video/GreenScreen/skyrim sneak increased green screen.mkv</property>
  <property name="audio_index">1</property>
  <property name="video_index">0</property>
  <property name="mute_on_pause">0</property>
  <property name="mlt_service">avformat-novalidate</property>
  <property name="meta.media.nb_streams">2</property>
  <property name="meta.media.0.stream.type">video</property>
  <property name="meta.media.0.stream.frame_rate">60</property>
  <property name="meta.media.0.stream.sample_aspect_ratio">1</property>
  <property name="meta.media.0.codec.width">1920</property>
  <property name="meta.media.0.codec.height">1080</property>
  <property name="meta.media.0.codec.rotate">0</property>
  <property name="meta.media.0.codec.pix_fmt">yuv420p</property>
  <property name="meta.media.0.codec.sample_aspect_ratio">1</property>
  <property name="meta.media.0.codec.colorspace">709</property>
  <property name="meta.media.0.codec.color_trc">1</property>
  <property name="meta.media.0.codec.name">h264</property>
  <property name="meta.media.0.codec.long_name">H.264 / AVC / MPEG-4 AVC / MPEG-4 part 10</property>
  <property name="meta.media.0.codec.bit_rate">0</property>
  <property name="meta.attr.0.stream.HANDLER_NAME.markup">ISO Media file produced by Google Inc. Created on: 02/26/2019.</property>
  <property name="meta.attr.0.stream.VENDOR_ID.markup">[0][0][0][0]</property>
  <property name="meta.attr.0.stream.ENCODER.markup">Lavc60.31.102 libx264</property>
  <property name="meta.attr.0.stream.DURATION.markup">00:00:05.337000000</property>
  <property name="meta.media.1.stream.type">audio</property>
  <property name="meta.media.1.codec.sample_fmt">fltp</property>
  <property name="meta.media.1.codec.sample_rate">44100</property>
  <property name="meta.media.1.codec.channels">2</property>
  <property name="meta.media.1.codec.name">vorbis</property>
  <property name="meta.media.1.codec.long_name">Vorbis</property>
  <property name="meta.media.1.codec.bit_rate">0</property>
  <property name="meta.attr.1.stream.language.markup">eng</property>
  <property name="meta.attr.1.stream.HANDLER_NAME.markup">ISO Media file produced by Google Inc. Created on: 02/26/2019.</property>
  <property name="meta.attr.1.stream.VENDOR_ID.markup">[0][0][0][0]</property>
  <property name="meta.attr.1.stream.ENCODER.markup">Lavc60.31.102 libvorbis</property>
  <property name="meta.attr.1.stream.DURATION.markup">00:00:05.390000000</property>
  <property name="meta.attr.COMPATIBLE_BRANDS.markup">isomiso2avc1mp41</property>
  <property name="meta.attr.MAJOR_BRAND.markup">isom</property>
  <property name="meta.attr.MINOR_VERSION.markup">512</property>
  <property name="meta.attr.ENCODER.markup">Lavf60.16.100</property>
  <property name="seekable">1</property>
  <property name="meta.media.sample_aspect_num">1</property>
  <property name="meta.media.sample_aspect_den">1</property>
  <property name="aspect_ratio">1</property>
  <property name="format">3</property>
  <property name="kdenlive:clipname"/>
  <property name="meta.media.frame_rate_num">60</property>
  <property name="meta.media.frame_rate_den">1</property>
  <property name="meta.media.colorspace">709</property>
  <property name="meta.media.color_trc">1</property>
  <property name="meta.media.has_b_frames">2</property>
  <property name="meta.media.width">1920</property>
  <property name="meta.media.height">1080</property>
  <property name="meta.media.color_range">mpeg</property>
  <property name="meta.media.top_field_first">0</property>
  <property name="meta.media.progressive">1</property>
  <property name="kdenlive:clip_type">0</property>
  <property name="kdenlive:folderid">511</property>
  <property name="kdenlive:id">556</property>
  <property name="kdenlive:file_size">139262</property>
  <property name="kdenlive:file_hash">6e0e303c0391672ca727d927a5bf4bdc</property>
  <property name="kdenlive:audio_max1">233</property>
 </producer>
 <producer id="producer513" in="00:00:00.000" out="00:00:02.150">
  <property name="length">130</property>
  <property name="eof">pause</property>
  <property name="resource">/home/federico/Nextcloud/Kden/EditingUT/Video/GreenScreen/smash ultimate sudden death green screen @realstiffy.mkv</property>
  <property name="audio_index">1</property>
  <property name="video_index">0</property>
  <property name="mute_on_pause">0</property>
  <property name="mlt_service">avformat-novalidate</property>
  <property name="meta.media.nb_streams">2</property>
  <property name="meta.media.0.stream.type">video</property>
  <property name="meta.media.0.stream.frame_rate">29.97</property>
  <property name="meta.media.0.stream.sample_aspect_ratio">1</property>
  <property name="meta.media.0.codec.width">1920</property>
  <property name="meta.media.0.codec.height">1080</property>
  <property name="meta.media.0.codec.rotate">0</property>
  <property name="meta.media.0.codec.pix_fmt">yuv420p</property>
  <property name="meta.media.0.codec.sample_aspect_ratio">1</property>
  <property name="meta.media.0.codec.colorspace">709</property>
  <property name="meta.media.0.codec.color_trc">1</property>
  <property name="meta.media.0.codec.name">h264</property>
  <property name="meta.media.0.codec.long_name">H.264 / AVC / MPEG-4 AVC / MPEG-4 part 10</property>
  <property name="meta.media.0.codec.bit_rate">0</property>
  <property name="meta.attr.0.stream.HANDLER_NAME.markup">ISO Media file produced by Google Inc.</property>
  <property name="meta.attr.0.stream.VENDOR_ID.markup">[0][0][0][0]</property>
  <property name="meta.attr.0.stream.ENCODER.markup">Lavc60.31.102 libx264</property>
  <property name="meta.attr.0.stream.DURATION.markup">00:00:02.105000000</property>
  <property name="meta.media.1.stream.type">audio</property>
  <property name="meta.media.1.codec.sample_fmt">fltp</property>
  <property name="meta.media.1.codec.sample_rate">44100</property>
  <property name="meta.media.1.codec.channels">2</property>
  <property name="meta.media.1.codec.name">vorbis</property>
  <property name="meta.media.1.codec.long_name">Vorbis</property>
  <property name="meta.media.1.codec.bit_rate">0</property>
  <property name="meta.attr.1.stream.language.markup">eng</property>
  <property name="meta.attr.1.stream.HANDLER_NAME.markup">ISO Media file produced by Google Inc.</property>
  <property name="meta.attr.1.stream.VENDOR_ID.markup">[0][0][0][0]</property>
  <property name="meta.attr.1.stream.ENCODER.markup">Lavc60.31.102 libvorbis</property>
  <property name="meta.attr.1.stream.DURATION.markup">00:00:02.162000000</property>
  <property name="meta.attr.COMPATIBLE_BRANDS.markup">isomiso2avc1mp41</property>
  <property name="meta.attr.MAJOR_BRAND.markup">isom</property>
  <property name="meta.attr.MINOR_VERSION.markup">512</property>
  <property name="meta.attr.ENCODER.markup">Lavf60.16.100</property>
  <property name="seekable">1</property>
  <property name="meta.media.sample_aspect_num">1</property>
  <property name="meta.media.sample_aspect_den">1</property>
  <property name="aspect_ratio">1</property>
  <property name="format">3</property>
  <property name="kdenlive:clipname"/>
  <property name="meta.media.frame_rate_num">30000</property>
  <property name="meta.media.frame_rate_den">1001</property>
  <property name="meta.media.colorspace">709</property>
  <property name="meta.media.color_trc">1</property>
  <property name="meta.media.has_b_frames">2</property>
  <property name="meta.media.width">1920</property>
  <property name="meta.media.height">1080</property>
  <property name="meta.media.color_range">mpeg</property>
  <property name="meta.media.top_field_first">0</property>
  <property name="meta.media.progressive">1</property>
  <property name="kdenlive:clip_type">0</property>
  <property name="kdenlive:folderid">511</property>
  <property name="kdenlive:id">557</property>
  <property name="kdenlive:file_size">716122</property>
  <property name="kdenlive:file_hash">bdac1d8a0ed531051d4a579f1e6e64a8</property>
  <property name="kdenlive:audio_max1">157</property>
 </producer>
 <producer id="producer514" in="00:00:00.000" out="00:00:03.267">
  <property name="length">197</property>
  <property name="eof">pause</property>
  <property name="resource">/home/federico/Nextcloud/Kden/EditingUT/Video/GreenScreen/spongebob bubble transition  green.mkv</property>
  <property name="audio_index">1</property>
  <property name="video_index">0</property>
  <property name="mute_on_pause">0</property>
  <property name="mlt_service">avformat-novalidate</property>
  <property name="meta.media.nb_streams">2</property>
  <property name="meta.media.0.stream.type">video</property>
  <property name="meta.media.0.stream.frame_rate">30</property>
  <property name="meta.media.0.stream.sample_aspect_ratio">1</property>
  <property name="meta.media.0.codec.width">1920</property>
  <property name="meta.media.0.codec.height">1080</property>
  <property name="meta.media.0.codec.rotate">0</property>
  <property name="meta.media.0.codec.pix_fmt">yuv420p</property>
  <property name="meta.media.0.codec.sample_aspect_ratio">1</property>
  <property name="meta.media.0.codec.colorspace">601</property>
  <property name="meta.media.0.codec.color_trc">1</property>
  <property name="meta.media.0.codec.name">h264</property>
  <property name="meta.media.0.codec.long_name">H.264 / AVC / MPEG-4 AVC / MPEG-4 part 10</property>
  <property name="meta.media.0.codec.bit_rate">0</property>
  <property name="meta.attr.0.stream.HANDLER_NAME.markup">ISO Media file produced by Google Inc.</property>
  <property name="meta.attr.0.stream.VENDOR_ID.markup">[0][0][0][0]</property>
  <property name="meta.attr.0.stream.ENCODER.markup">Lavc60.31.102 libx264</property>
  <property name="meta.attr.0.stream.DURATION.markup">00:00:03.203000000</property>
  <property name="meta.media.1.stream.type">audio</property>
  <property name="meta.media.1.codec.sample_fmt">fltp</property>
  <property name="meta.media.1.codec.sample_rate">44100</property>
  <property name="meta.media.1.codec.channels">2</property>
  <property name="meta.media.1.codec.name">vorbis</property>
  <property name="meta.media.1.codec.long_name">Vorbis</property>
  <property name="meta.media.1.codec.bit_rate">0</property>
  <property name="meta.attr.1.stream.language.markup">eng</property>
  <property name="meta.attr.1.stream.HANDLER_NAME.markup">ISO Media file produced by Google Inc.</property>
  <property name="meta.attr.1.stream.VENDOR_ID.markup">[0][0][0][0]</property>
  <property name="meta.attr.1.stream.ENCODER.markup">Lavc60.31.102 libvorbis</property>
  <property name="meta.attr.1.stream.DURATION.markup">00:00:03.277000000</property>
  <property name="meta.attr.COMPATIBLE_BRANDS.markup">isomiso2avc1mp41</property>
  <property name="meta.attr.MAJOR_BRAND.markup">isom</property>
  <property name="meta.attr.MINOR_VERSION.markup">512</property>
  <property name="meta.attr.ENCODER.markup">Lavf60.16.100</property>
  <property name="seekable">1</property>
  <property name="meta.media.sample_aspect_num">1</property>
  <property name="meta.media.sample_aspect_den">1</property>
  <property name="aspect_ratio">1</property>
  <property name="format">3</property>
  <property name="kdenlive:clipname"/>
  <property name="meta.media.frame_rate_num">30</property>
  <property name="meta.media.frame_rate_den">1</property>
  <property name="meta.media.colorspace">601</property>
  <property name="meta.media.color_trc">1</property>
  <property name="meta.media.has_b_frames">2</property>
  <property name="meta.media.width">1920</property>
  <property name="meta.media.height">1080</property>
  <property name="meta.media.color_range">mpeg</property>
  <property name="meta.media.top_field_first">0</property>
  <property name="meta.media.progressive">1</property>
  <property name="kdenlive:clip_type">0</property>
  <property name="kdenlive:folderid">511</property>
  <property name="kdenlive:id">558</property>
  <property name="kdenlive:file_size">1069541</property>
  <property name="kdenlive:file_hash">9530abe602d928234d2641402b0bd258</property>
  <property name="kdenlive:audio_max1">124</property>
 </producer>
 <producer id="producer515" in="00:00:00.000" out="00:00:14.450">
  <property name="length">868</property>
  <property name="eof">pause</property>
  <property name="resource">/home/federico/Nextcloud/Kden/EditingUT/Video/GreenScreen/spongebob watching a blank green screen tv.mkv</property>
  <property name="audio_index">1</property>
  <property name="video_index">0</property>
  <property name="mute_on_pause">0</property>
  <property name="mlt_service">avformat-novalidate</property>
  <property name="meta.media.nb_streams">2</property>
  <property name="meta.media.0.stream.type">video</property>
  <property name="meta.media.0.stream.frame_rate">29.97</property>
  <property name="meta.media.0.stream.sample_aspect_ratio">1</property>
  <property name="meta.media.0.codec.width">1280</property>
  <property name="meta.media.0.codec.height">720</property>
  <property name="meta.media.0.codec.rotate">0</property>
  <property name="meta.media.0.codec.pix_fmt">yuv420p</property>
  <property name="meta.media.0.codec.sample_aspect_ratio">1</property>
  <property name="meta.media.0.codec.colorspace">709</property>
  <property name="meta.media.0.codec.color_trc">1</property>
  <property name="meta.media.0.codec.name">h264</property>
  <property name="meta.media.0.codec.long_name">H.264 / AVC / MPEG-4 AVC / MPEG-4 part 10</property>
  <property name="meta.media.0.codec.bit_rate">0</property>
  <property name="meta.attr.0.stream.HANDLER_NAME.markup">VideoHandler</property>
  <property name="meta.attr.0.stream.VENDOR_ID.markup">[0][0][0][0]</property>
  <property name="meta.attr.0.stream.ENCODER.markup">Lavc60.31.102 libx264</property>
  <property name="meta.attr.0.stream.DURATION.markup">00:00:14.417000000</property>
  <property name="meta.media.1.stream.type">audio</property>
  <property name="meta.media.1.codec.sample_fmt">fltp</property>
  <property name="meta.media.1.codec.sample_rate">44100</property>
  <property name="meta.media.1.codec.channels">2</property>
  <property name="meta.media.1.codec.name">vorbis</property>
  <property name="meta.media.1.codec.long_name">Vorbis</property>
  <property name="meta.media.1.codec.bit_rate">0</property>
  <property name="meta.attr.1.stream.HANDLER_NAME.markup">SoundHandler</property>
  <property name="meta.attr.1.stream.VENDOR_ID.markup">[0][0][0][0]</property>
  <property name="meta.attr.1.stream.ENCODER.markup">Lavc60.31.102 libvorbis</property>
  <property name="meta.attr.1.stream.DURATION.markup">00:00:14.469000000</property>
  <property name="meta.attr.title.markup">spongebob watching a blank green screen tv</property>
  <property name="meta.attr.DESCRIPTION.markup">you can now make your own videos of sponge bob watching something! you don't have to give credit from the original. have fun =)</property>
  <property name="meta.attr.MAJOR_BRAND.markup">isom</property>
  <property name="meta.attr.MINOR_VERSION.markup">512</property>
  <property name="meta.attr.COMPATIBLE_BRANDS.markup">isomiso2avc1mp41</property>
  <property name="meta.attr.ARTIST.markup">SkylarVLOGS</property>
  <property name="meta.attr.DATE.markup">20180210</property>
  <property name="meta.attr.SYNOPSIS.markup">you can now make your own videos of sponge bob watching something! you don't have to give credit from the original. have fun =)</property>
  <property name="meta.attr.COMMENT.markup">https://www.youtube.com/watch?v=yb5Nku2r1aA</property>
  <property name="meta.attr.ENCODER.markup">Lavf60.16.100</property>
  <property name="seekable">1</property>
  <property name="meta.media.sample_aspect_num">1</property>
  <property name="meta.media.sample_aspect_den">1</property>
  <property name="aspect_ratio">1</property>
  <property name="format">3</property>
  <property name="kdenlive:clipname"/>
  <property name="meta.media.frame_rate_num">30000</property>
  <property name="meta.media.frame_rate_den">1001</property>
  <property name="meta.media.colorspace">709</property>
  <property name="meta.media.color_trc">1</property>
  <property name="meta.media.has_b_frames">2</property>
  <property name="meta.media.width">1280</property>
  <property name="meta.media.height">720</property>
  <property name="meta.media.color_range">mpeg</property>
  <property name="meta.media.top_field_first">0</property>
  <property name="meta.media.progressive">1</property>
  <property name="kdenlive:clip_type">0</property>
  <property name="kdenlive:folderid">511</property>
  <property name="kdenlive:id">559</property>
  <property name="kdenlive:file_size">1530416</property>
  <property name="kdenlive:file_hash">4ef4429cf067a19e43beac92e82c5808</property>
  <property name="kdenlive:audio_max1">176</property>
 </producer>
 <producer id="producer517" in="00:00:00.000" out="00:00:03.950">
  <property name="length">238</property>
  <property name="eof">pause</property>
  <property name="resource">/home/federico/Nextcloud/Kden/EditingUT/Video/GreenScreen/starting channel wii menu green screen.mkv</property>
  <property name="audio_index">1</property>
  <property name="video_index">0</property>
  <property name="mute_on_pause">0</property>
  <property name="mlt_service">avformat-novalidate</property>
  <property name="meta.media.nb_streams">2</property>
  <property name="meta.media.0.stream.type">video</property>
  <property name="meta.media.0.stream.frame_rate">59.9401</property>
  <property name="meta.media.0.stream.sample_aspect_ratio">1</property>
  <property name="meta.media.0.codec.width">1920</property>
  <property name="meta.media.0.codec.height">1080</property>
  <property name="meta.media.0.codec.rotate">0</property>
  <property name="meta.media.0.codec.pix_fmt">yuv420p</property>
  <property name="meta.media.0.codec.sample_aspect_ratio">1</property>
  <property name="meta.media.0.codec.colorspace">709</property>
  <property name="meta.media.0.codec.color_trc">1</property>
  <property name="meta.media.0.codec.name">h264</property>
  <property name="meta.media.0.codec.long_name">H.264 / AVC / MPEG-4 AVC / MPEG-4 part 10</property>
  <property name="meta.media.0.codec.bit_rate">0</property>
  <property name="meta.attr.0.stream.HANDLER_NAME.markup">ISO Media file produced by Google Inc.</property>
  <property name="meta.attr.0.stream.VENDOR_ID.markup">[0][0][0][0]</property>
  <property name="meta.attr.0.stream.ENCODER.markup">Lavc60.31.102 libx264</property>
  <property name="meta.attr.0.stream.DURATION.markup">00:00:03.924000000</property>
  <property name="meta.media.1.stream.type">audio</property>
  <property name="meta.media.1.codec.sample_fmt">fltp</property>
  <property name="meta.media.1.codec.sample_rate">44100</property>
  <property name="meta.media.1.codec.channels">2</property>
  <property name="meta.media.1.codec.name">vorbis</property>
  <property name="meta.media.1.codec.long_name">Vorbis</property>
  <property name="meta.media.1.codec.bit_rate">0</property>
  <property name="meta.attr.1.stream.language.markup">eng</property>
  <property name="meta.attr.1.stream.HANDLER_NAME.markup">ISO Media file produced by Google Inc.</property>
  <property name="meta.attr.1.stream.VENDOR_ID.markup">[0][0][0][0]</property>
  <property name="meta.attr.1.stream.ENCODER.markup">Lavc60.31.102 libvorbis</property>
  <property name="meta.attr.1.stream.DURATION.markup">00:00:03.974000000</property>
  <property name="meta.attr.COMPATIBLE_BRANDS.markup">isomiso2avc1mp41</property>
  <property name="meta.attr.MAJOR_BRAND.markup">isom</property>
  <property name="meta.attr.MINOR_VERSION.markup">512</property>
  <property name="meta.attr.ENCODER.markup">Lavf60.16.100</property>
  <property name="seekable">1</property>
  <property name="meta.media.sample_aspect_num">1</property>
  <property name="meta.media.sample_aspect_den">1</property>
  <property name="aspect_ratio">1</property>
  <property name="format">3</property>
  <property name="kdenlive:clipname"/>
  <property name="meta.media.frame_rate_num">60000</property>
  <property name="meta.media.frame_rate_den">1001</property>
  <property name="meta.media.colorspace">709</property>
  <property name="meta.media.color_trc">1</property>
  <property name="meta.media.has_b_frames">2</property>
  <property name="meta.media.width">1920</property>
  <property name="meta.media.height">1080</property>
  <property name="meta.media.color_range">mpeg</property>
  <property name="meta.media.top_field_first">0</property>
  <property name="meta.media.progressive">1</property>
  <property name="kdenlive:clip_type">0</property>
  <property name="kdenlive:folderid">511</property>
  <property name="kdenlive:id">560</property>
  <property name="kdenlive:file_size">611084</property>
  <property name="kdenlive:file_hash">5ce00ace882c86f7a382dc83b8455d44</property>
  <property name="kdenlive:audio_max1">149</property>
 </producer>
 <producer id="producer516" in="00:00:00.000" out="00:00:03.050">
  <property name="length">184</property>
  <property name="eof">pause</property>
  <property name="resource">/home/federico/Nextcloud/Kden/EditingUT/Video/GreenScreen/super smash bros  ultimate blast zone green screen.mkv</property>
  <property name="audio_index">1</property>
  <property name="video_index">0</property>
  <property name="mute_on_pause">0</property>
  <property name="mlt_service">avformat-novalidate</property>
  <property name="meta.media.nb_streams">2</property>
  <property name="meta.media.0.stream.type">video</property>
  <property name="meta.media.0.stream.frame_rate">50</property>
  <property name="meta.media.0.stream.sample_aspect_ratio">1</property>
  <property name="meta.media.0.codec.width">1920</property>
  <property name="meta.media.0.codec.height">1080</property>
  <property name="meta.media.0.codec.rotate">0</property>
  <property name="meta.media.0.codec.pix_fmt">yuv420p</property>
  <property name="meta.media.0.codec.sample_aspect_ratio">1</property>
  <property name="meta.media.0.codec.colorspace">709</property>
  <property name="meta.media.0.codec.color_trc">1</property>
  <property name="meta.media.0.codec.name">h264</property>
  <property name="meta.media.0.codec.long_name">H.264 / AVC / MPEG-4 AVC / MPEG-4 part 10</property>
  <property name="meta.media.0.codec.bit_rate">0</property>
  <property name="meta.attr.0.stream.HANDLER_NAME.markup">ISO Media file produced by Google Inc.</property>
  <property name="meta.attr.0.stream.VENDOR_ID.markup">[0][0][0][0]</property>
  <property name="meta.attr.0.stream.ENCODER.markup">Lavc60.31.102 libx264</property>
  <property name="meta.attr.0.stream.DURATION.markup">00:00:03.003000000</property>
  <property name="meta.media.1.stream.type">audio</property>
  <property name="meta.media.1.codec.sample_fmt">fltp</property>
  <property name="meta.media.1.codec.sample_rate">44100</property>
  <property name="meta.media.1.codec.channels">2</property>
  <property name="meta.media.1.codec.name">vorbis</property>
  <property name="meta.media.1.codec.long_name">Vorbis</property>
  <property name="meta.media.1.codec.bit_rate">0</property>
  <property name="meta.attr.1.stream.language.markup">eng</property>
  <property name="meta.attr.1.stream.HANDLER_NAME.markup">ISO Media file produced by Google Inc.</property>
  <property name="meta.attr.1.stream.VENDOR_ID.markup">[0][0][0][0]</property>
  <property name="meta.attr.1.stream.ENCODER.markup">Lavc60.31.102 libvorbis</property>
  <property name="meta.attr.1.stream.DURATION.markup">00:00:03.068000000</property>
  <property name="meta.attr.COMPATIBLE_BRANDS.markup">isomiso2avc1mp41</property>
  <property name="meta.attr.MAJOR_BRAND.markup">isom</property>
  <property name="meta.attr.MINOR_VERSION.markup">512</property>
  <property name="meta.attr.ENCODER.markup">Lavf60.16.100</property>
  <property name="seekable">1</property>
  <property name="meta.media.sample_aspect_num">1</property>
  <property name="meta.media.sample_aspect_den">1</property>
  <property name="aspect_ratio">1</property>
  <property name="format">3</property>
  <property name="kdenlive:clipname"/>
  <property name="meta.media.frame_rate_num">50</property>
  <property name="meta.media.frame_rate_den">1</property>
  <property name="meta.media.colorspace">709</property>
  <property name="meta.media.color_trc">1</property>
  <property name="meta.media.has_b_frames">2</property>
  <property name="meta.media.width">1920</property>
  <property name="meta.media.height">1080</property>
  <property name="meta.media.color_range">mpeg</property>
  <property name="meta.media.top_field_first">0</property>
  <property name="meta.media.progressive">1</property>
  <property name="kdenlive:clip_type">0</property>
  <property name="kdenlive:folderid">511</property>
  <property name="kdenlive:id">561</property>
  <property name="kdenlive:file_size">120969</property>
  <property name="kdenlive:file_hash">fbdcead440d7343267029c56736aa309</property>
  <property name="kdenlive:audio_max1">235</property>
 </producer>
 <producer id="producer518" in="00:00:00.000" out="00:00:03.050">
  <property name="length">184</property>
  <property name="eof">pause</property>
  <property name="resource">/home/federico/Nextcloud/Kden/EditingUT/Video/GreenScreen/super smash bros “game!” green screen.mkv</property>
  <property name="audio_index">1</property>
  <property name="video_index">0</property>
  <property name="mute_on_pause">0</property>
  <property name="mlt_service">avformat-novalidate</property>
  <property name="meta.media.nb_streams">2</property>
  <property name="meta.media.0.stream.type">video</property>
  <property name="meta.media.0.stream.frame_rate">60</property>
  <property name="meta.media.0.stream.sample_aspect_ratio">1</property>
  <property name="meta.media.0.codec.width">1920</property>
  <property name="meta.media.0.codec.height">1080</property>
  <property name="meta.media.0.codec.rotate">0</property>
  <property name="meta.media.0.codec.pix_fmt">yuv420p</property>
  <property name="meta.media.0.codec.sample_aspect_ratio">1</property>
  <property name="meta.media.0.codec.colorspace">709</property>
  <property name="meta.media.0.codec.color_trc">1</property>
  <property name="meta.media.0.codec.name">h264</property>
  <property name="meta.media.0.codec.long_name">H.264 / AVC / MPEG-4 AVC / MPEG-4 part 10</property>
  <property name="meta.media.0.codec.bit_rate">0</property>
  <property name="meta.attr.0.stream.HANDLER_NAME.markup">ISO Media file produced by Google Inc.</property>
  <property name="meta.attr.0.stream.VENDOR_ID.markup">[0][0][0][0]</property>
  <property name="meta.attr.0.stream.ENCODER.markup">Lavc60.31.102 libx264</property>
  <property name="meta.attr.0.stream.DURATION.markup">00:00:03.003000000</property>
  <property name="meta.media.1.stream.type">audio</property>
  <property name="meta.media.1.codec.sample_fmt">fltp</property>
  <property name="meta.media.1.codec.sample_rate">44100</property>
  <property name="meta.media.1.codec.channels">2</property>
  <property name="meta.media.1.codec.name">vorbis</property>
  <property name="meta.media.1.codec.long_name">Vorbis</property>
  <property name="meta.media.1.codec.bit_rate">0</property>
  <property name="meta.attr.1.stream.language.markup">eng</property>
  <property name="meta.attr.1.stream.HANDLER_NAME.markup">ISO Media file produced by Google Inc.</property>
  <property name="meta.attr.1.stream.VENDOR_ID.markup">[0][0][0][0]</property>
  <property name="meta.attr.1.stream.ENCODER.markup">Lavc60.31.102 libvorbis</property>
  <property name="meta.attr.1.stream.DURATION.markup">00:00:03.068000000</property>
  <property name="meta.attr.COMPATIBLE_BRANDS.markup">isomiso2avc1mp41</property>
  <property name="meta.attr.MAJOR_BRAND.markup">isom</property>
  <property name="meta.attr.MINOR_VERSION.markup">512</property>
  <property name="meta.attr.ENCODER.markup">Lavf60.16.100</property>
  <property name="seekable">1</property>
  <property name="meta.media.sample_aspect_num">1</property>
  <property name="meta.media.sample_aspect_den">1</property>
  <property name="aspect_ratio">1</property>
  <property name="format">3</property>
  <property name="kdenlive:clipname"/>
  <property name="meta.media.frame_rate_num">60</property>
  <property name="meta.media.frame_rate_den">1</property>
  <property name="meta.media.colorspace">709</property>
  <property name="meta.media.color_trc">1</property>
  <property name="meta.media.has_b_frames">2</property>
  <property name="meta.media.width">1920</property>
  <property name="meta.media.height">1080</property>
  <property name="meta.media.color_range">mpeg</property>
  <property name="meta.media.top_field_first">0</property>
  <property name="meta.media.progressive">1</property>
  <property name="kdenlive:clip_type">0</property>
  <property name="kdenlive:folderid">511</property>
  <property name="kdenlive:id">562</property>
  <property name="kdenlive:file_size">356146</property>
  <property name="kdenlive:file_hash">1e95bd2a6ed257015f0c3ef4ce48ebfc</property>
  <property name="kdenlive:audio_max1">170</property>
 </producer>
 <producer id="producer519" in="00:00:00.000" out="00:00:10.383">
  <property name="length">624</property>
  <property name="eof">pause</property>
  <property name="resource">/home/federico/Nextcloud/Kden/EditingUT/Video/GreenScreen/to be continued  green screen.mkv</property>
  <property name="audio_index">1</property>
  <property name="video_index">0</property>
  <property name="mute_on_pause">0</property>
  <property name="mlt_service">avformat-novalidate</property>
  <property name="meta.media.nb_streams">2</property>
  <property name="meta.media.0.stream.type">video</property>
  <property name="meta.media.0.stream.frame_rate">59.9401</property>
  <property name="meta.media.0.stream.sample_aspect_ratio">1</property>
  <property name="meta.media.0.codec.width">1920</property>
  <property name="meta.media.0.codec.height">1080</property>
  <property name="meta.media.0.codec.rotate">0</property>
  <property name="meta.media.0.codec.pix_fmt">yuv420p</property>
  <property name="meta.media.0.codec.sample_aspect_ratio">1</property>
  <property name="meta.media.0.codec.colorspace">709</property>
  <property name="meta.media.0.codec.color_trc">1</property>
  <property name="meta.media.0.codec.name">h264</property>
  <property name="meta.media.0.codec.long_name">H.264 / AVC / MPEG-4 AVC / MPEG-4 part 10</property>
  <property name="meta.media.0.codec.bit_rate">0</property>
  <property name="meta.attr.0.stream.HANDLER_NAME.markup">ISO Media file produced by Google Inc.</property>
  <property name="meta.attr.0.stream.VENDOR_ID.markup">[0][0][0][0]</property>
  <property name="meta.attr.0.stream.ENCODER.markup">Lavc60.31.102 libx264</property>
  <property name="meta.attr.0.stream.DURATION.markup">00:00:10.347000000</property>
  <property name="meta.media.1.stream.type">audio</property>
  <property name="meta.media.1.codec.sample_fmt">fltp</property>
  <property name="meta.media.1.codec.sample_rate">44100</property>
  <property name="meta.media.1.codec.channels">2</property>
  <property name="meta.media.1.codec.name">vorbis</property>
  <property name="meta.media.1.codec.long_name">Vorbis</property>
  <property name="meta.media.1.codec.bit_rate">0</property>
  <property name="meta.attr.1.stream.HANDLER_NAME.markup">ISO Media file produced by Google Inc.</property>
  <property name="meta.attr.1.stream.VENDOR_ID.markup">[0][0][0][0]</property>
  <property name="meta.attr.1.stream.ENCODER.markup">Lavc60.31.102 libvorbis</property>
  <property name="meta.attr.1.stream.DURATION.markup">00:00:10.405000000</property>
  <property name="meta.attr.COMPATIBLE_BRANDS.markup">isomiso2avc1mp41</property>
  <property name="meta.attr.MAJOR_BRAND.markup">isom</property>
  <property name="meta.attr.MINOR_VERSION.markup">512</property>
  <property name="meta.attr.ENCODER.markup">Lavf60.16.100</property>
  <property name="seekable">1</property>
  <property name="meta.media.sample_aspect_num">1</property>
  <property name="meta.media.sample_aspect_den">1</property>
  <property name="aspect_ratio">1</property>
  <property name="format">3</property>
  <property name="kdenlive:clipname"/>
  <property name="meta.media.frame_rate_num">60000</property>
  <property name="meta.media.frame_rate_den">1001</property>
  <property name="meta.media.colorspace">709</property>
  <property name="meta.media.color_trc">1</property>
  <property name="meta.media.has_b_frames">2</property>
  <property name="meta.media.width">1920</property>
  <property name="meta.media.height">1080</property>
  <property name="meta.media.color_range">mpeg</property>
  <property name="meta.media.top_field_first">0</property>
  <property name="meta.media.progressive">1</property>
  <property name="kdenlive:clip_type">0</property>
  <property name="kdenlive:folderid">511</property>
  <property name="kdenlive:id">563</property>
  <property name="kdenlive:file_size">250515</property>
  <property name="kdenlive:file_hash">64d9d8a1b3579be879565348bd3db58e</property>
  <property name="kdenlive:audio_max1">207</property>
  <property name="kdenlive:zone_in">198</property>
  <property name="kdenlive:zone_out">624</property>
 </producer>
 <producer id="producer520" in="00:00:00.000" out="00:00:10.067">
  <property name="length">605</property>
  <property name="eof">pause</property>
  <property name="resource">/home/federico/Nextcloud/Kden/EditingUT/Video/GreenScreen/triggered   green screen with.mkv</property>
  <property name="audio_index">1</property>
  <property name="video_index">0</property>
  <property name="mute_on_pause">0</property>
  <property name="mlt_service">avformat-novalidate</property>
  <property name="meta.media.nb_streams">2</property>
  <property name="meta.media.0.stream.type">video</property>
  <property name="meta.media.0.stream.frame_rate">59.9401</property>
  <property name="meta.media.0.stream.sample_aspect_ratio">1</property>
  <property name="meta.media.0.codec.width">1920</property>
  <property name="meta.media.0.codec.height">1080</property>
  <property name="meta.media.0.codec.rotate">0</property>
  <property name="meta.media.0.codec.pix_fmt">yuv420p</property>
  <property name="meta.media.0.codec.sample_aspect_ratio">1</property>
  <property name="meta.media.0.codec.colorspace">709</property>
  <property name="meta.media.0.codec.color_trc">1</property>
  <property name="meta.media.0.codec.name">h264</property>
  <property name="meta.media.0.codec.long_name">H.264 / AVC / MPEG-4 AVC / MPEG-4 part 10</property>
  <property name="meta.media.0.codec.bit_rate">0</property>
  <property name="meta.attr.0.stream.HANDLER_NAME.markup">ISO Media file produced by Google Inc.</property>
  <property name="meta.attr.0.stream.VENDOR_ID.markup">[0][0][0][0]</property>
  <property name="meta.attr.0.stream.ENCODER.markup">Lavc60.31.102 libx264</property>
  <property name="meta.attr.0.stream.DURATION.markup">00:00:10.030000000</property>
  <property name="meta.media.1.stream.type">audio</property>
  <property name="meta.media.1.codec.sample_fmt">fltp</property>
  <property name="meta.media.1.codec.sample_rate">44100</property>
  <property name="meta.media.1.codec.channels">2</property>
  <property name="meta.media.1.codec.name">vorbis</property>
  <property name="meta.media.1.codec.long_name">Vorbis</property>
  <property name="meta.media.1.codec.bit_rate">0</property>
  <property name="meta.attr.1.stream.language.markup">eng</property>
  <property name="meta.attr.1.stream.HANDLER_NAME.markup">ISO Media file produced by Google Inc.</property>
  <property name="meta.attr.1.stream.VENDOR_ID.markup">[0][0][0][0]</property>
  <property name="meta.attr.1.stream.ENCODER.markup">Lavc60.31.102 libvorbis</property>
  <property name="meta.attr.1.stream.DURATION.markup">00:00:10.081000000</property>
  <property name="meta.attr.COMPATIBLE_BRANDS.markup">isomiso2avc1mp41</property>
  <property name="meta.attr.MAJOR_BRAND.markup">isom</property>
  <property name="meta.attr.MINOR_VERSION.markup">512</property>
  <property name="meta.attr.ENCODER.markup">Lavf60.16.100</property>
  <property name="seekable">1</property>
  <property name="meta.media.sample_aspect_num">1</property>
  <property name="meta.media.sample_aspect_den">1</property>
  <property name="aspect_ratio">1</property>
  <property name="format">3</property>
  <property name="kdenlive:clipname"/>
  <property name="meta.media.frame_rate_num">60000</property>
  <property name="meta.media.frame_rate_den">1001</property>
  <property name="meta.media.colorspace">709</property>
  <property name="meta.media.color_trc">1</property>
  <property name="meta.media.has_b_frames">2</property>
  <property name="meta.media.width">1920</property>
  <property name="meta.media.height">1080</property>
  <property name="meta.media.color_range">mpeg</property>
  <property name="meta.media.top_field_first">0</property>
  <property name="meta.media.progressive">1</property>
  <property name="kdenlive:clip_type">0</property>
  <property name="kdenlive:folderid">511</property>
  <property name="kdenlive:id">564</property>
  <property name="kdenlive:file_size">1874696</property>
  <property name="kdenlive:file_hash">c1c8b418e23aab5dfba866ff32190889</property>
  <property name="kdenlive:audio_max1">256</property>
 </producer>
 <producer id="producer521" in="00:00:00.000" out="00:00:05.683">
  <property name="length">342</property>
  <property name="eof">pause</property>
  <property name="resource">/home/federico/Nextcloud/Kden/EditingUT/Video/GreenScreen/well be right back green screen.mkv</property>
  <property name="audio_index">1</property>
  <property name="video_index">0</property>
  <property name="mute_on_pause">0</property>
  <property name="mlt_service">avformat-novalidate</property>
  <property name="meta.media.nb_streams">2</property>
  <property name="meta.media.0.stream.type">video</property>
  <property name="meta.media.0.stream.frame_rate">59.9401</property>
  <property name="meta.media.0.stream.sample_aspect_ratio">1</property>
  <property name="meta.media.0.codec.width">1920</property>
  <property name="meta.media.0.codec.height">1080</property>
  <property name="meta.media.0.codec.rotate">0</property>
  <property name="meta.media.0.codec.pix_fmt">yuv420p</property>
  <property name="meta.media.0.codec.sample_aspect_ratio">1</property>
  <property name="meta.media.0.codec.colorspace">709</property>
  <property name="meta.media.0.codec.color_trc">1</property>
  <property name="meta.media.0.codec.name">h264</property>
  <property name="meta.media.0.codec.long_name">H.264 / AVC / MPEG-4 AVC / MPEG-4 part 10</property>
  <property name="meta.media.0.codec.bit_rate">0</property>
  <property name="meta.attr.0.stream.HANDLER_NAME.markup">ISO Media file produced by Google Inc.</property>
  <property name="meta.attr.0.stream.VENDOR_ID.markup">[0][0][0][0]</property>
  <property name="meta.attr.0.stream.ENCODER.markup">Lavc60.31.102 libx264</property>
  <property name="meta.attr.0.stream.DURATION.markup">00:00:05.559000000</property>
  <property name="meta.media.1.stream.type">audio</property>
  <property name="meta.media.1.codec.sample_fmt">fltp</property>
  <property name="meta.media.1.codec.sample_rate">44100</property>
  <property name="meta.media.1.codec.channels">2</property>
  <property name="meta.media.1.codec.name">vorbis</property>
  <property name="meta.media.1.codec.long_name">Vorbis</property>
  <property name="meta.media.1.codec.bit_rate">0</property>
  <property name="meta.attr.1.stream.language.markup">eng</property>
  <property name="meta.attr.1.stream.HANDLER_NAME.markup">ISO Media file produced by Google Inc.</property>
  <property name="meta.attr.1.stream.VENDOR_ID.markup">[0][0][0][0]</property>
  <property name="meta.attr.1.stream.ENCODER.markup">Lavc60.31.102 libvorbis</property>
  <property name="meta.attr.1.stream.DURATION.markup">00:00:05.692000000</property>
  <property name="meta.attr.COMPATIBLE_BRANDS.markup">isomiso2avc1mp41</property>
  <property name="meta.attr.MAJOR_BRAND.markup">isom</property>
  <property name="meta.attr.MINOR_VERSION.markup">512</property>
  <property name="meta.attr.ENCODER.markup">Lavf60.16.100</property>
  <property name="seekable">1</property>
  <property name="meta.media.sample_aspect_num">1</property>
  <property name="meta.media.sample_aspect_den">1</property>
  <property name="aspect_ratio">1</property>
  <property name="format">3</property>
  <property name="kdenlive:clipname"/>
  <property name="meta.media.frame_rate_num">60000</property>
  <property name="meta.media.frame_rate_den">1001</property>
  <property name="meta.media.colorspace">709</property>
  <property name="meta.media.color_trc">1</property>
  <property name="meta.media.has_b_frames">2</property>
  <property name="meta.media.width">1920</property>
  <property name="meta.media.height">1080</property>
  <property name="meta.media.color_range">mpeg</property>
  <property name="meta.media.top_field_first">0</property>
  <property name="meta.media.progressive">1</property>
  <property name="kdenlive:clip_type">0</property>
  <property name="kdenlive:folderid">511</property>
  <property name="kdenlive:id">565</property>
  <property name="kdenlive:file_size">540026</property>
  <property name="kdenlive:file_hash">ac3a641c2dabe6fb585f88538bb6cc68</property>
  <property name="kdenlive:audio_max1">182</property>
 </producer>
 <producer id="producer523" in="00:00:00.000" out="00:00:09.017">
  <property name="length">542</property>
  <property name="eof">pause</property>
  <property name="resource">/home/federico/Nextcloud/Kden/EditingUT/Video/GreenScreen/what meme green screen.mkv</property>
  <property name="audio_index">1</property>
  <property name="video_index">0</property>
  <property name="mute_on_pause">0</property>
  <property name="mlt_service">avformat-novalidate</property>
  <property name="meta.media.nb_streams">2</property>
  <property name="meta.media.0.stream.type">video</property>
  <property name="meta.media.0.stream.frame_rate">30</property>
  <property name="meta.media.0.stream.sample_aspect_ratio">1</property>
  <property name="meta.media.0.codec.width">1920</property>
  <property name="meta.media.0.codec.height">1080</property>
  <property name="meta.media.0.codec.rotate">0</property>
  <property name="meta.media.0.codec.pix_fmt">yuv420p</property>
  <property name="meta.media.0.codec.sample_aspect_ratio">1</property>
  <property name="meta.media.0.codec.colorspace">709</property>
  <property name="meta.media.0.codec.color_trc">1</property>
  <property name="meta.media.0.codec.name">h264</property>
  <property name="meta.media.0.codec.long_name">H.264 / AVC / MPEG-4 AVC / MPEG-4 part 10</property>
  <property name="meta.media.0.codec.bit_rate">0</property>
  <property name="meta.attr.0.stream.HANDLER_NAME.markup">ISO Media file produced by Google Inc.</property>
  <property name="meta.attr.0.stream.VENDOR_ID.markup">[0][0][0][0]</property>
  <property name="meta.attr.0.stream.ENCODER.markup">Lavc60.31.102 libx264</property>
  <property name="meta.attr.0.stream.DURATION.markup">00:00:08.969000000</property>
  <property name="meta.media.1.stream.type">audio</property>
  <property name="meta.media.1.codec.sample_fmt">fltp</property>
  <property name="meta.media.1.codec.sample_rate">44100</property>
  <property name="meta.media.1.codec.channels">2</property>
  <property name="meta.media.1.codec.name">vorbis</property>
  <property name="meta.media.1.codec.long_name">Vorbis</property>
  <property name="meta.media.1.codec.bit_rate">0</property>
  <property name="meta.attr.1.stream.language.markup">eng</property>
  <property name="meta.attr.1.stream.HANDLER_NAME.markup">ISO Media file produced by Google Inc.</property>
  <property name="meta.attr.1.stream.VENDOR_ID.markup">[0][0][0][0]</property>
  <property name="meta.attr.1.stream.ENCODER.markup">Lavc60.31.102 libvorbis</property>
  <property name="meta.attr.1.stream.DURATION.markup">00:00:09.036000000</property>
  <property name="meta.attr.COMPATIBLE_BRANDS.markup">isomiso2avc1mp41</property>
  <property name="meta.attr.MAJOR_BRAND.markup">isom</property>
  <property name="meta.attr.MINOR_VERSION.markup">512</property>
  <property name="meta.attr.ENCODER.markup">Lavf60.16.100</property>
  <property name="seekable">1</property>
  <property name="meta.media.sample_aspect_num">1</property>
  <property name="meta.media.sample_aspect_den">1</property>
  <property name="aspect_ratio">1</property>
  <property name="format">3</property>
  <property name="kdenlive:clipname"/>
  <property name="meta.media.frame_rate_num">30</property>
  <property name="meta.media.frame_rate_den">1</property>
  <property name="meta.media.colorspace">709</property>
  <property name="meta.media.color_trc">1</property>
  <property name="meta.media.has_b_frames">2</property>
  <property name="meta.media.width">1920</property>
  <property name="meta.media.height">1080</property>
  <property name="meta.media.color_range">mpeg</property>
  <property name="meta.media.top_field_first">0</property>
  <property name="meta.media.progressive">1</property>
  <property name="kdenlive:clip_type">0</property>
  <property name="kdenlive:folderid">511</property>
  <property name="kdenlive:id">566</property>
  <property name="kdenlive:file_size">166089</property>
  <property name="kdenlive:file_hash">e5eb6121a886b7801777849bd734eb06</property>
  <property name="kdenlive:audio_max1">234</property>
 </producer>
 <producer id="producer522" in="00:00:00.000" out="00:00:03.883">
  <property name="length">234</property>
  <property name="eof">pause</property>
  <property name="resource">/home/federico/Nextcloud/Kden/EditingUT/Video/GreenScreen/wii sports — home run.mkv</property>
  <property name="audio_index">1</property>
  <property name="video_index">0</property>
  <property name="mute_on_pause">0</property>
  <property name="mlt_service">avformat-novalidate</property>
  <property name="meta.media.nb_streams">2</property>
  <property name="meta.media.0.stream.type">video</property>
  <property name="meta.media.0.stream.frame_rate">60</property>
  <property name="meta.media.0.stream.sample_aspect_ratio">1</property>
  <property name="meta.media.0.codec.width">1280</property>
  <property name="meta.media.0.codec.height">720</property>
  <property name="meta.media.0.codec.rotate">0</property>
  <property name="meta.media.0.codec.pix_fmt">yuv420p</property>
  <property name="meta.media.0.codec.sample_aspect_ratio">1</property>
  <property name="meta.media.0.codec.colorspace">709</property>
  <property name="meta.media.0.codec.color_trc">1</property>
  <property name="meta.media.0.codec.name">h264</property>
  <property name="meta.media.0.codec.long_name">H.264 / AVC / MPEG-4 AVC / MPEG-4 part 10</property>
  <property name="meta.media.0.codec.bit_rate">0</property>
  <property name="meta.attr.0.stream.HANDLER_NAME.markup">ISO Media file produced by Google Inc.</property>
  <property name="meta.attr.0.stream.VENDOR_ID.markup">[0][0][0][0]</property>
  <property name="meta.attr.0.stream.ENCODER.markup">Lavc60.31.102 libx264</property>
  <property name="meta.attr.0.stream.DURATION.markup">00:00:03.803000000</property>
  <property name="meta.media.1.stream.type">audio</property>
  <property name="meta.media.1.codec.sample_fmt">fltp</property>
  <property name="meta.media.1.codec.sample_rate">44100</property>
  <property name="meta.media.1.codec.channels">2</property>
  <property name="meta.media.1.codec.name">vorbis</property>
  <property name="meta.media.1.codec.long_name">Vorbis</property>
  <property name="meta.media.1.codec.bit_rate">0</property>
  <property name="meta.attr.1.stream.HANDLER_NAME.markup">ISO Media file produced by Google Inc.</property>
  <property name="meta.attr.1.stream.VENDOR_ID.markup">[0][0][0][0]</property>
  <property name="meta.attr.1.stream.ENCODER.markup">Lavc60.31.102 libvorbis</property>
  <property name="meta.attr.1.stream.DURATION.markup">00:00:03.904000000</property>
  <property name="meta.attr.COMPATIBLE_BRANDS.markup">isomiso2avc1mp41</property>
  <property name="meta.attr.MAJOR_BRAND.markup">isom</property>
  <property name="meta.attr.MINOR_VERSION.markup">512</property>
  <property name="meta.attr.ENCODER.markup">Lavf60.16.100</property>
  <property name="seekable">1</property>
  <property name="meta.media.sample_aspect_num">1</property>
  <property name="meta.media.sample_aspect_den">1</property>
  <property name="aspect_ratio">1</property>
  <property name="format">3</property>
  <property name="kdenlive:clipname"/>
  <property name="meta.media.frame_rate_num">60</property>
  <property name="meta.media.frame_rate_den">1</property>
  <property name="meta.media.colorspace">709</property>
  <property name="meta.media.color_trc">1</property>
  <property name="meta.media.has_b_frames">2</property>
  <property name="meta.media.width">1280</property>
  <property name="meta.media.height">720</property>
  <property name="meta.media.color_range">mpeg</property>
  <property name="meta.media.top_field_first">0</property>
  <property name="meta.media.progressive">1</property>
  <property name="kdenlive:clip_type">0</property>
  <property name="kdenlive:folderid">511</property>
  <property name="kdenlive:id">567</property>
  <property name="kdenlive:file_size">192645</property>
  <property name="kdenlive:file_hash">9f0e6ed140613b00d15dbf951835c796</property>
  <property name="kdenlive:audio_max1">217</property>
 </producer>
 <producer id="producer526" in="00:00:00.000" out="00:00:05.300">
  <property name="length">319</property>
  <property name="eof">pause</property>
  <property name="resource">/home/federico/Nextcloud/Kden/EditingUT/Video/GreenScreen/windows 88.11011 loading dots green screen high quality.mkv</property>
  <property name="audio_index">1</property>
  <property name="video_index">0</property>
  <property name="mute_on_pause">0</property>
  <property name="mlt_service">avformat-novalidate</property>
  <property name="meta.media.nb_streams">2</property>
  <property name="meta.media.0.stream.type">video</property>
  <property name="meta.media.0.stream.frame_rate">30</property>
  <property name="meta.media.0.stream.sample_aspect_ratio">1</property>
  <property name="meta.media.0.codec.width">1920</property>
  <property name="meta.media.0.codec.height">1080</property>
  <property name="meta.media.0.codec.rotate">0</property>
  <property name="meta.media.0.codec.pix_fmt">yuv420p</property>
  <property name="meta.media.0.codec.sample_aspect_ratio">1</property>
  <property name="meta.media.0.codec.colorspace">601</property>
  <property name="meta.media.0.codec.color_trc">1</property>
  <property name="meta.media.0.codec.name">h264</property>
  <property name="meta.media.0.codec.long_name">H.264 / AVC / MPEG-4 AVC / MPEG-4 part 10</property>
  <property name="meta.media.0.codec.bit_rate">0</property>
  <property name="meta.attr.0.stream.HANDLER_NAME.markup">ISO Media file produced by Google Inc.</property>
  <property name="meta.attr.0.stream.VENDOR_ID.markup">[0][0][0][0]</property>
  <property name="meta.attr.0.stream.ENCODER.markup">Lavc60.31.102 libx264</property>
  <property name="meta.attr.0.stream.DURATION.markup">00:00:05.269000000</property>
  <property name="meta.media.1.stream.type">audio</property>
  <property name="meta.media.1.codec.sample_fmt">fltp</property>
  <property name="meta.media.1.codec.sample_rate">44100</property>
  <property name="meta.media.1.codec.channels">2</property>
  <property name="meta.media.1.codec.name">vorbis</property>
  <property name="meta.media.1.codec.long_name">Vorbis</property>
  <property name="meta.media.1.codec.bit_rate">0</property>
  <property name="meta.attr.1.stream.HANDLER_NAME.markup">ISO Media file produced by Google Inc.</property>
  <property name="meta.attr.1.stream.VENDOR_ID.markup">[0][0][0][0]</property>
  <property name="meta.attr.1.stream.ENCODER.markup">Lavc60.31.102 libvorbis</property>
  <property name="meta.attr.1.stream.DURATION.markup">00:00:05.320000000</property>
  <property name="meta.attr.COMPATIBLE_BRANDS.markup">isomiso2avc1mp41</property>
  <property name="meta.attr.MAJOR_BRAND.markup">isom</property>
  <property name="meta.attr.MINOR_VERSION.markup">512</property>
  <property name="meta.attr.ENCODER.markup">Lavf60.16.100</property>
  <property name="seekable">1</property>
  <property name="meta.media.sample_aspect_num">1</property>
  <property name="meta.media.sample_aspect_den">1</property>
  <property name="aspect_ratio">1</property>
  <property name="format">3</property>
  <property name="kdenlive:clipname"/>
  <property name="meta.media.frame_rate_num">30</property>
  <property name="meta.media.frame_rate_den">1</property>
  <property name="meta.media.colorspace">601</property>
  <property name="meta.media.color_trc">1</property>
  <property name="meta.media.has_b_frames">2</property>
  <property name="meta.media.width">1920</property>
  <property name="meta.media.height">1080</property>
  <property name="meta.media.color_range">mpeg</property>
  <property name="meta.media.top_field_first">0</property>
  <property name="meta.media.progressive">1</property>
  <property name="kdenlive:clip_type">0</property>
  <property name="kdenlive:folderid">511</property>
  <property name="kdenlive:id">568</property>
  <property name="kdenlive:file_size">72133</property>
  <property name="kdenlive:file_hash">fcbadf38e7da7250a0d932fae8c21f95</property>
  <property name="kdenlive:audio_max1">1</property>
 </producer>
 <producer id="producer524" in="00:00:00.000" out="00:00:05.867">
  <property name="length">353</property>
  <property name="eof">pause</property>
  <property name="resource">/home/federico/Nextcloud/Kden/EditingUT/Video/GreenScreen/xbox 360 controller disconnected meme bluescreen.mkv</property>
  <property name="audio_index">1</property>
  <property name="video_index">0</property>
  <property name="mute_on_pause">0</property>
  <property name="mlt_service">avformat-novalidate</property>
  <property name="meta.media.nb_streams">2</property>
  <property name="meta.media.0.stream.type">video</property>
  <property name="meta.media.0.stream.frame_rate">29.97</property>
  <property name="meta.media.0.stream.sample_aspect_ratio">0</property>
  <property name="meta.media.0.codec.width">1280</property>
  <property name="meta.media.0.codec.height">720</property>
  <property name="meta.media.0.codec.rotate">0</property>
  <property name="meta.media.0.codec.pix_fmt">yuv420p</property>
  <property name="meta.media.0.codec.sample_aspect_ratio">0</property>
  <property name="meta.media.0.codec.colorspace">709</property>
  <property name="meta.media.0.codec.color_trc">1</property>
  <property name="meta.media.0.codec.name">h264</property>
  <property name="meta.media.0.codec.long_name">H.264 / AVC / MPEG-4 AVC / MPEG-4 part 10</property>
  <property name="meta.media.0.codec.bit_rate">0</property>
  <property name="meta.attr.0.stream.HANDLER_NAME.markup">ISO Media file produced by Google Inc. Created on: 07/25/2023.</property>
  <property name="meta.attr.0.stream.VENDOR_ID.markup">[0][0][0][0]</property>
  <property name="meta.attr.0.stream.ENCODER.markup">Lavc60.31.102 libx264</property>
  <property name="meta.attr.0.stream.DURATION.markup">00:00:05.808000000</property>
  <property name="meta.media.1.stream.type">audio</property>
  <property name="meta.media.1.codec.sample_fmt">fltp</property>
  <property name="meta.media.1.codec.sample_rate">44100</property>
  <property name="meta.media.1.codec.channels">2</property>
  <property name="meta.media.1.codec.name">vorbis</property>
  <property name="meta.media.1.codec.long_name">Vorbis</property>
  <property name="meta.media.1.codec.bit_rate">0</property>
  <property name="meta.attr.1.stream.language.markup">eng</property>
  <property name="meta.attr.1.stream.HANDLER_NAME.markup">ISO Media file produced by Google Inc.</property>
  <property name="meta.attr.1.stream.VENDOR_ID.markup">[0][0][0][0]</property>
  <property name="meta.attr.1.stream.ENCODER.markup">Lavc60.31.102 libvorbis</property>
  <property name="meta.attr.1.stream.DURATION.markup">00:00:05.878000000</property>
  <property name="meta.attr.COMPATIBLE_BRANDS.markup">isomiso2mp41</property>
  <property name="meta.attr.MAJOR_BRAND.markup">isom</property>
  <property name="meta.attr.MINOR_VERSION.markup">512</property>
  <property name="meta.attr.ENCODER.markup">Lavf60.16.100</property>
  <property name="seekable">1</property>
  <property name="meta.media.sample_aspect_num">1</property>
  <property name="meta.media.sample_aspect_den">1</property>
  <property name="aspect_ratio">1</property>
  <property name="format">3</property>
  <property name="kdenlive:clipname"/>
  <property name="meta.media.frame_rate_num">30000</property>
  <property name="meta.media.frame_rate_den">1001</property>
  <property name="meta.media.colorspace">709</property>
  <property name="meta.media.color_trc">1</property>
  <property name="meta.media.has_b_frames">2</property>
  <property name="meta.media.width">1280</property>
  <property name="meta.media.height">720</property>
  <property name="meta.media.color_range">mpeg</property>
  <property name="meta.media.top_field_first">0</property>
  <property name="meta.media.progressive">1</property>
  <property name="kdenlive:clip_type">0</property>
  <property name="kdenlive:folderid">511</property>
  <property name="kdenlive:id">569</property>
  <property name="kdenlive:file_size">48891</property>
  <property name="kdenlive:file_hash">d75ef178e395e55de6cbf427d8373700</property>
  <property name="kdenlive:audio_max1">161</property>
 </producer>
 <producer id="producer525" in="00:00:00.000" out="00:00:15.133">
  <property name="length">909</property>
  <property name="eof">pause</property>
  <property name="resource">/home/federico/Nextcloud/Kden/EditingUT/Video/GreenScreen/xbox one achievement unlocked green screen..mkv</property>
  <property name="audio_index">1</property>
  <property name="video_index">0</property>
  <property name="mute_on_pause">0</property>
  <property name="mlt_service">avformat-novalidate</property>
  <property name="meta.media.nb_streams">2</property>
  <property name="meta.media.0.stream.type">video</property>
  <property name="meta.media.0.stream.frame_rate">25</property>
  <property name="meta.media.0.stream.sample_aspect_ratio">1</property>
  <property name="meta.media.0.codec.width">1920</property>
  <property name="meta.media.0.codec.height">1080</property>
  <property name="meta.media.0.codec.rotate">0</property>
  <property name="meta.media.0.codec.pix_fmt">yuv420p</property>
  <property name="meta.media.0.codec.sample_aspect_ratio">1</property>
  <property name="meta.media.0.codec.colorspace">709</property>
  <property name="meta.media.0.codec.color_trc">1</property>
  <property name="meta.media.0.codec.name">h264</property>
  <property name="meta.media.0.codec.long_name">H.264 / AVC / MPEG-4 AVC / MPEG-4 part 10</property>
  <property name="meta.media.0.codec.bit_rate">0</property>
  <property name="meta.attr.0.stream.HANDLER_NAME.markup">ISO Media file produced by Google Inc.</property>
  <property name="meta.attr.0.stream.VENDOR_ID.markup">[0][0][0][0]</property>
  <property name="meta.attr.0.stream.ENCODER.markup">Lavc60.31.102 libx264</property>
  <property name="meta.attr.0.stream.DURATION.markup">00:00:15.003000000</property>
  <property name="meta.media.1.stream.type">audio</property>
  <property name="meta.media.1.codec.sample_fmt">fltp</property>
  <property name="meta.media.1.codec.sample_rate">44100</property>
  <property name="meta.media.1.codec.channels">2</property>
  <property name="meta.media.1.codec.name">vorbis</property>
  <property name="meta.media.1.codec.long_name">Vorbis</property>
  <property name="meta.media.1.codec.bit_rate">0</property>
  <property name="meta.attr.1.stream.HANDLER_NAME.markup">ISO Media file produced by Google Inc.</property>
  <property name="meta.attr.1.stream.VENDOR_ID.markup">[0][0][0][0]</property>
  <property name="meta.attr.1.stream.ENCODER.markup">Lavc60.31.102 libvorbis</property>
  <property name="meta.attr.1.stream.DURATION.markup">00:00:15.142000000</property>
  <property name="meta.attr.COMPATIBLE_BRANDS.markup">isomiso2avc1mp41</property>
  <property name="meta.attr.MAJOR_BRAND.markup">isom</property>
  <property name="meta.attr.MINOR_VERSION.markup">512</property>
  <property name="meta.attr.ENCODER.markup">Lavf60.16.100</property>
  <property name="seekable">1</property>
  <property name="meta.media.sample_aspect_num">1</property>
  <property name="meta.media.sample_aspect_den">1</property>
  <property name="aspect_ratio">1</property>
  <property name="format">3</property>
  <property name="kdenlive:clipname"/>
  <property name="meta.media.frame_rate_num">25</property>
  <property name="meta.media.frame_rate_den">1</property>
  <property name="meta.media.colorspace">709</property>
  <property name="meta.media.color_trc">1</property>
  <property name="meta.media.has_b_frames">2</property>
  <property name="meta.media.width">1920</property>
  <property name="meta.media.height">1080</property>
  <property name="meta.media.color_range">mpeg</property>
  <property name="meta.media.top_field_first">0</property>
  <property name="meta.media.progressive">1</property>
  <property name="kdenlive:clip_type">0</property>
  <property name="kdenlive:folderid">511</property>
  <property name="kdenlive:id">570</property>
  <property name="kdenlive:file_size">209042</property>
  <property name="kdenlive:file_hash">16ce15ddc538ba942bcd7986de9d0f8a</property>
  <property name="kdenlive:audio_max1">191</property>
 </producer>
 <producer id="producer530" in="00:00:00.000" out="00:00:09.117">
  <property name="length">548</property>
  <property name="eof">pause</property>
  <property name="resource">/home/federico/Nextcloud/Kden/EditingUT/Video/GreenScreen/zeb89_memes.mkv</property>
  <property name="audio_index">1</property>
  <property name="video_index">0</property>
  <property name="mute_on_pause">0</property>
  <property name="mlt_service">avformat-novalidate</property>
  <property name="meta.media.nb_streams">2</property>
  <property name="meta.media.0.stream.type">video</property>
  <property name="meta.media.0.stream.frame_rate">60</property>
  <property name="meta.media.0.stream.sample_aspect_ratio">1</property>
  <property name="meta.media.0.codec.width">1920</property>
  <property name="meta.media.0.codec.height">1080</property>
  <property name="meta.media.0.codec.rotate">0</property>
  <property name="meta.media.0.codec.pix_fmt">yuv420p</property>
  <property name="meta.media.0.codec.sample_aspect_ratio">1</property>
  <property name="meta.media.0.codec.colorspace">709</property>
  <property name="meta.media.0.codec.color_trc">1</property>
  <property name="meta.media.0.codec.name">h264</property>
  <property name="meta.media.0.codec.long_name">H.264 / AVC / MPEG-4 AVC / MPEG-4 part 10</property>
  <property name="meta.media.0.codec.bit_rate">0</property>
  <property name="meta.attr.0.stream.DURATION.markup">00:00:09.121000000</property>
  <property name="meta.media.1.stream.type">audio</property>
  <property name="meta.media.1.codec.sample_fmt">fltp</property>
  <property name="meta.media.1.codec.sample_rate">48000</property>
  <property name="meta.media.1.codec.channels">2</property>
  <property name="meta.media.1.codec.name">aac</property>
  <property name="meta.media.1.codec.long_name">AAC (Advanced Audio Coding)</property>
  <property name="meta.media.1.codec.bit_rate">0</property>
  <property name="meta.attr.1.stream.DURATION.markup">00:00:09.130000000</property>
  <property name="meta.attr.ENCODER.markup">Lavf59.16.100</property>
  <property name="seekable">1</property>
  <property name="meta.media.sample_aspect_num">1</property>
  <property name="meta.media.sample_aspect_den">1</property>
  <property name="aspect_ratio">1</property>
  <property name="format">3</property>
  <property name="kdenlive:clipname"/>
  <property name="meta.media.frame_rate_num">60</property>
  <property name="meta.media.frame_rate_den">1</property>
  <property name="meta.media.colorspace">709</property>
  <property name="meta.media.color_trc">1</property>
  <property name="meta.media.has_b_frames">2</property>
  <property name="meta.media.width">1920</property>
  <property name="meta.media.height">1080</property>
  <property name="meta.media.color_range">mpeg</property>
  <property name="meta.media.top_field_first">0</property>
  <property name="meta.media.progressive">1</property>
  <property name="kdenlive:clip_type">0</property>
  <property name="kdenlive:folderid">511</property>
  <property name="kdenlive:id">571</property>
  <property name="kdenlive:file_size">5652768</property>
  <property name="kdenlive:file_hash">80b84c33369dab67119188bda185900e</property>
  <property name="kdenlive:audio_max1">235</property>
 </producer>
 <producer id="producer527" in="00:00:00.000" out="00:00:04.050">
  <property name="length">244</property>
  <property name="eof">pause</property>
  <property name="resource">/home/federico/Nextcloud/Kden/EditingUT/Video/Intro/netflix intro.mkv</property>
  <property name="audio_index">1</property>
  <property name="video_index">0</property>
  <property name="mute_on_pause">0</property>
  <property name="mlt_service">avformat-novalidate</property>
  <property name="meta.media.nb_streams">2</property>
  <property name="meta.media.0.stream.type">video</property>
  <property name="meta.media.0.stream.frame_rate">24</property>
  <property name="meta.media.0.stream.sample_aspect_ratio">1</property>
  <property name="meta.media.0.codec.width">1920</property>
  <property name="meta.media.0.codec.height">1080</property>
  <property name="meta.media.0.codec.rotate">0</property>
  <property name="meta.media.0.codec.pix_fmt">yuv420p</property>
  <property name="meta.media.0.codec.sample_aspect_ratio">1</property>
  <property name="meta.media.0.codec.colorspace">709</property>
  <property name="meta.media.0.codec.color_trc">1</property>
  <property name="meta.media.0.codec.name">h264</property>
  <property name="meta.media.0.codec.long_name">H.264 / AVC / MPEG-4 AVC / MPEG-4 part 10</property>
  <property name="meta.media.0.codec.bit_rate">0</property>
  <property name="meta.attr.0.stream.HANDLER_NAME.markup">ISO Media file produced by Google Inc.</property>
  <property name="meta.attr.0.stream.VENDOR_ID.markup">[0][0][0][0]</property>
  <property name="meta.attr.0.stream.ENCODER.markup">Lavc60.31.102 libx264</property>
  <property name="meta.attr.0.stream.DURATION.markup">00:00:04.003000000</property>
  <property name="meta.media.1.stream.type">audio</property>
  <property name="meta.media.1.codec.sample_fmt">fltp</property>
  <property name="meta.media.1.codec.sample_rate">44100</property>
  <property name="meta.media.1.codec.channels">2</property>
  <property name="meta.media.1.codec.name">vorbis</property>
  <property name="meta.media.1.codec.long_name">Vorbis</property>
  <property name="meta.media.1.codec.bit_rate">0</property>
  <property name="meta.attr.1.stream.language.markup">eng</property>
  <property name="meta.attr.1.stream.HANDLER_NAME.markup">ISO Media file produced by Google Inc.</property>
  <property name="meta.attr.1.stream.VENDOR_ID.markup">[0][0][0][0]</property>
  <property name="meta.attr.1.stream.ENCODER.markup">Lavc60.31.102 libvorbis</property>
  <property name="meta.attr.1.stream.DURATION.markup">00:00:04.066000000</property>
  <property name="meta.attr.COMPATIBLE_BRANDS.markup">isomiso2avc1mp41</property>
  <property name="meta.attr.MAJOR_BRAND.markup">isom</property>
  <property name="meta.attr.MINOR_VERSION.markup">512</property>
  <property name="meta.attr.ENCODER.markup">Lavf60.16.100</property>
  <property name="seekable">1</property>
  <property name="meta.media.sample_aspect_num">1</property>
  <property name="meta.media.sample_aspect_den">1</property>
  <property name="aspect_ratio">1</property>
  <property name="format">3</property>
  <property name="kdenlive:clipname"/>
  <property name="meta.media.frame_rate_num">24</property>
  <property name="meta.media.frame_rate_den">1</property>
  <property name="meta.media.colorspace">709</property>
  <property name="meta.media.color_trc">1</property>
  <property name="meta.media.has_b_frames">2</property>
  <property name="meta.media.width">1920</property>
  <property name="meta.media.height">1080</property>
  <property name="meta.media.color_range">mpeg</property>
  <property name="meta.media.top_field_first">0</property>
  <property name="meta.media.progressive">1</property>
  <property name="kdenlive:clip_type">0</property>
  <property name="kdenlive:folderid">572</property>
  <property name="kdenlive:id">573</property>
  <property name="kdenlive:file_size">411980</property>
  <property name="kdenlive:file_hash">2af5fc17171ac0ade7920c75b8d74bfe</property>
  <property name="kdenlive:audio_max1">209</property>
 </producer>
 <producer id="producer529" in="00:00:00.000" out="00:00:01.700">
  <property name="length">103</property>
  <property name="eof">pause</property>
  <property name="resource">/home/federico/Nextcloud/Kden/EditingUT/Video/Intro/nintendo switch intro.mkv</property>
  <property name="audio_index">1</property>
  <property name="video_index">0</property>
  <property name="mute_on_pause">0</property>
  <property name="mlt_service">avformat-novalidate</property>
  <property name="meta.media.nb_streams">2</property>
  <property name="meta.media.0.stream.type">video</property>
  <property name="meta.media.0.stream.frame_rate">29.97</property>
  <property name="meta.media.0.stream.sample_aspect_ratio">1</property>
  <property name="meta.media.0.codec.width">1280</property>
  <property name="meta.media.0.codec.height">720</property>
  <property name="meta.media.0.codec.rotate">0</property>
  <property name="meta.media.0.codec.pix_fmt">yuv420p</property>
  <property name="meta.media.0.codec.sample_aspect_ratio">1</property>
  <property name="meta.media.0.codec.colorspace">709</property>
  <property name="meta.media.0.codec.color_trc">1</property>
  <property name="meta.media.0.codec.name">h264</property>
  <property name="meta.media.0.codec.long_name">H.264 / AVC / MPEG-4 AVC / MPEG-4 part 10</property>
  <property name="meta.media.0.codec.bit_rate">0</property>
  <property name="meta.attr.0.stream.HANDLER_NAME.markup">ISO Media file produced by Google Inc. Created on: 01/10/2019.</property>
  <property name="meta.attr.0.stream.VENDOR_ID.markup">[0][0][0][0]</property>
  <property name="meta.attr.0.stream.ENCODER.markup">Lavc60.31.102 libx264</property>
  <property name="meta.attr.0.stream.DURATION.markup">00:00:01.638000000</property>
  <property name="meta.media.1.stream.type">audio</property>
  <property name="meta.media.1.codec.sample_fmt">fltp</property>
  <property name="meta.media.1.codec.sample_rate">44100</property>
  <property name="meta.media.1.codec.channels">2</property>
  <property name="meta.media.1.codec.name">vorbis</property>
  <property name="meta.media.1.codec.long_name">Vorbis</property>
  <property name="meta.media.1.codec.bit_rate">0</property>
  <property name="meta.attr.1.stream.language.markup">eng</property>
  <property name="meta.attr.1.stream.HANDLER_NAME.markup">ISO Media file produced by Google Inc. Created on: 01/10/2019.</property>
  <property name="meta.attr.1.stream.VENDOR_ID.markup">[0][0][0][0]</property>
  <property name="meta.attr.1.stream.ENCODER.markup">Lavc60.31.102 libvorbis</property>
  <property name="meta.attr.1.stream.DURATION.markup">00:00:01.721000000</property>
  <property name="meta.attr.COMPATIBLE_BRANDS.markup">isomiso2avc1mp41</property>
  <property name="meta.attr.MAJOR_BRAND.markup">isom</property>
  <property name="meta.attr.MINOR_VERSION.markup">512</property>
  <property name="meta.attr.ENCODER.markup">Lavf60.16.100</property>
  <property name="seekable">1</property>
  <property name="meta.media.sample_aspect_num">1</property>
  <property name="meta.media.sample_aspect_den">1</property>
  <property name="aspect_ratio">1</property>
  <property name="format">3</property>
  <property name="kdenlive:clipname"/>
  <property name="meta.media.frame_rate_num">30000</property>
  <property name="meta.media.frame_rate_den">1001</property>
  <property name="meta.media.colorspace">709</property>
  <property name="meta.media.color_trc">1</property>
  <property name="meta.media.has_b_frames">2</property>
  <property name="meta.media.width">1280</property>
  <property name="meta.media.height">720</property>
  <property name="meta.media.color_range">mpeg</property>
  <property name="meta.media.top_field_first">0</property>
  <property name="meta.media.progressive">1</property>
  <property name="kdenlive:clip_type">0</property>
  <property name="kdenlive:folderid">572</property>
  <property name="kdenlive:id">574</property>
  <property name="kdenlive:file_size">36131</property>
  <property name="kdenlive:file_hash">246b502732b71c700ac1c84c7cc2c39a</property>
  <property name="kdenlive:audio_max1">121</property>
 </producer>
 <producer id="producer528" in="00:00:00.000" out="00:00:16.850">
  <property name="length">1012</property>
  <property name="eof">pause</property>
  <property name="resource">/home/federico/Nextcloud/Kden/EditingUT/Video/Intro/playstation 2 startup intro ps2.mkv</property>
  <property name="audio_index">1</property>
  <property name="video_index">0</property>
  <property name="mute_on_pause">0</property>
  <property name="mlt_service">avformat-novalidate</property>
  <property name="meta.media.nb_streams">2</property>
  <property name="meta.media.0.stream.type">video</property>
  <property name="meta.media.0.stream.frame_rate">30</property>
  <property name="meta.media.0.stream.sample_aspect_ratio">1</property>
  <property name="meta.media.0.codec.width">540</property>
  <property name="meta.media.0.codec.height">360</property>
  <property name="meta.media.0.codec.rotate">0</property>
  <property name="meta.media.0.codec.pix_fmt">yuv420p</property>
  <property name="meta.media.0.codec.sample_aspect_ratio">1</property>
  <property name="meta.media.0.codec.colorspace">601</property>
  <property name="meta.media.0.codec.name">h264</property>
  <property name="meta.media.0.codec.long_name">H.264 / AVC / MPEG-4 AVC / MPEG-4 part 10</property>
  <property name="meta.media.0.codec.bit_rate">0</property>
  <property name="meta.attr.0.stream.HANDLER_NAME.markup">VideoHandler</property>
  <property name="meta.attr.0.stream.VENDOR_ID.markup">[0][0][0][0]</property>
  <property name="meta.attr.0.stream.ENCODER.markup">Lavc60.31.102 libx264</property>
  <property name="meta.attr.0.stream.DURATION.markup">00:00:16.803000000</property>
  <property name="meta.media.1.stream.type">audio</property>
  <property name="meta.media.1.codec.sample_fmt">fltp</property>
  <property name="meta.media.1.codec.sample_rate">44100</property>
  <property name="meta.media.1.codec.channels">2</property>
  <property name="meta.media.1.codec.name">vorbis</property>
  <property name="meta.media.1.codec.long_name">Vorbis</property>
  <property name="meta.media.1.codec.bit_rate">0</property>
  <property name="meta.attr.1.stream.HANDLER_NAME.markup">SoundHandler</property>
  <property name="meta.attr.1.stream.VENDOR_ID.markup">[0][0][0][0]</property>
  <property name="meta.attr.1.stream.ENCODER.markup">Lavc60.31.102 libvorbis</property>
  <property name="meta.attr.1.stream.DURATION.markup">00:00:16.861000000</property>
  <property name="meta.attr.COMPATIBLE_BRANDS.markup">isomiso2avc1mp41</property>
  <property name="meta.attr.MAJOR_BRAND.markup">isom</property>
  <property name="meta.attr.MINOR_VERSION.markup">512</property>
  <property name="meta.attr.ENCODER.markup">Lavf60.16.100</property>
  <property name="seekable">1</property>
  <property name="meta.media.sample_aspect_num">1</property>
  <property name="meta.media.sample_aspect_den">1</property>
  <property name="aspect_ratio">1</property>
  <property name="format">3</property>
  <property name="kdenlive:clipname"/>
  <property name="meta.media.frame_rate_num">30</property>
  <property name="meta.media.frame_rate_den">1</property>
  <property name="meta.media.colorspace">601</property>
  <property name="meta.media.color_trc">2</property>
  <property name="meta.media.has_b_frames">2</property>
  <property name="meta.media.width">540</property>
  <property name="meta.media.height">360</property>
  <property name="meta.media.color_range">mpeg</property>
  <property name="meta.media.top_field_first">0</property>
  <property name="meta.media.progressive">1</property>
  <property name="kdenlive:clip_type">0</property>
  <property name="kdenlive:folderid">572</property>
  <property name="kdenlive:id">575</property>
  <property name="kdenlive:file_size">491100</property>
  <property name="kdenlive:file_hash">997c7d450e14e8a6e824ddc116b4d012</property>
  <property name="kdenlive:audio_max1">199</property>
 </producer>
 <producer id="producer534" in="00:00:00.000" out="00:00:03.033">
  <property name="length">183</property>
  <property name="eof">pause</property>
  <property name="resource">/home/federico/Nextcloud/Kden/EditingUT/Video/Intro/pornhub intro.mkv</property>
  <property name="audio_index">1</property>
  <property name="video_index">0</property>
  <property name="mute_on_pause">0</property>
  <property name="mlt_service">avformat-novalidate</property>
  <property name="meta.media.nb_streams">2</property>
  <property name="meta.media.0.stream.type">video</property>
  <property name="meta.media.0.stream.frame_rate">30</property>
  <property name="meta.media.0.stream.sample_aspect_ratio">1</property>
  <property name="meta.media.0.codec.width">1920</property>
  <property name="meta.media.0.codec.height">1080</property>
  <property name="meta.media.0.codec.rotate">0</property>
  <property name="meta.media.0.codec.pix_fmt">yuv420p</property>
  <property name="meta.media.0.codec.sample_aspect_ratio">1</property>
  <property name="meta.media.0.codec.colorspace">709</property>
  <property name="meta.media.0.codec.color_trc">1</property>
  <property name="meta.media.0.codec.name">h264</property>
  <property name="meta.media.0.codec.long_name">H.264 / AVC / MPEG-4 AVC / MPEG-4 part 10</property>
  <property name="meta.media.0.codec.bit_rate">0</property>
  <property name="meta.attr.0.stream.HANDLER_NAME.markup">ISO Media file produced by Google Inc.</property>
  <property name="meta.attr.0.stream.VENDOR_ID.markup">[0][0][0][0]</property>
  <property name="meta.attr.0.stream.ENCODER.markup">Lavc60.31.102 libx264</property>
  <property name="meta.attr.0.stream.DURATION.markup">00:00:02.969000000</property>
  <property name="meta.media.1.stream.type">audio</property>
  <property name="meta.media.1.codec.sample_fmt">fltp</property>
  <property name="meta.media.1.codec.sample_rate">44100</property>
  <property name="meta.media.1.codec.channels">2</property>
  <property name="meta.media.1.codec.name">vorbis</property>
  <property name="meta.media.1.codec.long_name">Vorbis</property>
  <property name="meta.media.1.codec.bit_rate">0</property>
  <property name="meta.attr.1.stream.HANDLER_NAME.markup">ISO Media file produced by Google Inc.</property>
  <property name="meta.attr.1.stream.VENDOR_ID.markup">[0][0][0][0]</property>
  <property name="meta.attr.1.stream.ENCODER.markup">Lavc60.31.102 libvorbis</property>
  <property name="meta.attr.1.stream.DURATION.markup">00:00:03.045000000</property>
  <property name="meta.attr.COMPATIBLE_BRANDS.markup">isomiso2avc1mp41</property>
  <property name="meta.attr.MAJOR_BRAND.markup">isom</property>
  <property name="meta.attr.MINOR_VERSION.markup">512</property>
  <property name="meta.attr.ENCODER.markup">Lavf60.16.100</property>
  <property name="seekable">1</property>
  <property name="meta.media.sample_aspect_num">1</property>
  <property name="meta.media.sample_aspect_den">1</property>
  <property name="aspect_ratio">1</property>
  <property name="format">3</property>
  <property name="kdenlive:clipname"/>
  <property name="meta.media.frame_rate_num">30</property>
  <property name="meta.media.frame_rate_den">1</property>
  <property name="meta.media.colorspace">709</property>
  <property name="meta.media.color_trc">1</property>
  <property name="meta.media.has_b_frames">2</property>
  <property name="meta.media.width">1920</property>
  <property name="meta.media.height">1080</property>
  <property name="meta.media.color_range">mpeg</property>
  <property name="meta.media.top_field_first">0</property>
  <property name="meta.media.progressive">1</property>
  <property name="kdenlive:clip_type">0</property>
  <property name="kdenlive:folderid">572</property>
  <property name="kdenlive:id">576</property>
  <property name="kdenlive:file_size">134594</property>
  <property name="kdenlive:file_hash">9625de101b399f4e4103017cc2b854f5</property>
  <property name="kdenlive:audio_max1">230</property>
 </producer>
 <producer id="producer531" in="00:00:00.000" out="00:00:02.200">
  <property name="length">133</property>
  <property name="eof">pause</property>
  <property name="resource">/home/federico/Nextcloud/Kden/EditingUT/Video/Intro/Yt/intro  1.mkv</property>
  <property name="audio_index">1</property>
  <property name="video_index">0</property>
  <property name="mute_on_pause">0</property>
  <property name="mlt_service">avformat-novalidate</property>
  <property name="meta.media.nb_streams">2</property>
  <property name="meta.media.0.stream.type">video</property>
  <property name="meta.media.0.stream.frame_rate">60</property>
  <property name="meta.media.0.stream.sample_aspect_ratio">1</property>
  <property name="meta.media.0.codec.width">1920</property>
  <property name="meta.media.0.codec.height">1080</property>
  <property name="meta.media.0.codec.rotate">0</property>
  <property name="meta.media.0.codec.pix_fmt">yuv420p</property>
  <property name="meta.media.0.codec.sample_aspect_ratio">1</property>
  <property name="meta.media.0.codec.colorspace">709</property>
  <property name="meta.media.0.codec.color_trc">1</property>
  <property name="meta.media.0.codec.name">h264</property>
  <property name="meta.media.0.codec.long_name">H.264 / AVC / MPEG-4 AVC / MPEG-4 part 10</property>
  <property name="meta.media.0.codec.bit_rate">0</property>
  <property name="meta.attr.0.stream.HANDLER_NAME.markup">VideoHandler</property>
  <property name="meta.attr.0.stream.VENDOR_ID.markup">[0][0][0][0]</property>
  <property name="meta.attr.0.stream.ENCODER.markup">Lavc60.31.102 libx264</property>
  <property name="meta.attr.0.stream.DURATION.markup">00:00:02.203000000</property>
  <property name="meta.media.1.stream.type">audio</property>
  <property name="meta.media.1.codec.sample_fmt">fltp</property>
  <property name="meta.media.1.codec.sample_rate">48000</property>
  <property name="meta.media.1.codec.channels">2</property>
  <property name="meta.media.1.codec.name">vorbis</property>
  <property name="meta.media.1.codec.long_name">Vorbis</property>
  <property name="meta.media.1.codec.bit_rate">0</property>
  <property name="meta.attr.1.stream.HANDLER_NAME.markup">SoundHandler</property>
  <property name="meta.attr.1.stream.VENDOR_ID.markup">[0][0][0][0]</property>
  <property name="meta.attr.1.stream.ENCODER.markup">Lavc60.31.102 libvorbis</property>
  <property name="meta.attr.1.stream.DURATION.markup">00:00:02.222000000</property>
  <property name="meta.attr.COMPATIBLE_BRANDS.markup">isomiso2avc1mp41</property>
  <property name="meta.attr.MAJOR_BRAND.markup">isom</property>
  <property name="meta.attr.MINOR_VERSION.markup">512</property>
  <property name="meta.attr.ENCODER.markup">Lavf60.16.100</property>
  <property name="seekable">1</property>
  <property name="meta.media.sample_aspect_num">1</property>
  <property name="meta.media.sample_aspect_den">1</property>
  <property name="aspect_ratio">1</property>
  <property name="format">3</property>
  <property name="kdenlive:clipname"/>
  <property name="meta.media.frame_rate_num">60</property>
  <property name="meta.media.frame_rate_den">1</property>
  <property name="meta.media.colorspace">709</property>
  <property name="meta.media.color_trc">1</property>
  <property name="meta.media.has_b_frames">2</property>
  <property name="meta.media.width">1920</property>
  <property name="meta.media.height">1080</property>
  <property name="meta.media.color_range">mpeg</property>
  <property name="meta.media.top_field_first">0</property>
  <property name="meta.media.progressive">1</property>
  <property name="kdenlive:clip_type">0</property>
  <property name="kdenlive:folderid">577</property>
  <property name="kdenlive:id">578</property>
  <property name="kdenlive:file_size">212897</property>
  <property name="kdenlive:file_hash">90c00812e6cbea0d017a76a5e227dfb6</property>
  <property name="kdenlive:audio_max1">210</property>
 </producer>
 <producer id="producer533" in="00:00:00.000" out="00:00:03.833">
  <property name="length">231</property>
  <property name="eof">pause</property>
  <property name="resource">/home/federico/Nextcloud/Kden/EditingUT/Video/Intro/Yt/intro_nuova_2025.mkv</property>
  <property name="audio_index">1</property>
  <property name="video_index">0</property>
  <property name="mute_on_pause">0</property>
  <property name="mlt_service">avformat-novalidate</property>
  <property name="meta.media.nb_streams">2</property>
  <property name="meta.media.0.stream.type">video</property>
  <property name="meta.media.0.stream.frame_rate">60</property>
  <property name="meta.media.0.stream.sample_aspect_ratio">1</property>
  <property name="meta.media.0.codec.width">1920</property>
  <property name="meta.media.0.codec.height">1080</property>
  <property name="meta.media.0.codec.rotate">0</property>
  <property name="meta.media.0.codec.pix_fmt">yuv420p</property>
  <property name="meta.media.0.codec.sample_aspect_ratio">1</property>
  <property name="meta.media.0.codec.colorspace">709</property>
  <property name="meta.media.0.codec.color_trc">1</property>
  <property name="meta.media.0.codec.name">h264</property>
  <property name="meta.media.0.codec.long_name">H.264 / AVC / MPEG-4 AVC / MPEG-4 part 10</property>
  <property name="meta.media.0.codec.bit_rate">0</property>
  <property name="meta.attr.0.stream.HANDLER_NAME.markup">VideoHandler</property>
  <property name="meta.attr.0.stream.VENDOR_ID.markup">[0][0][0][0]</property>
  <property name="meta.attr.0.stream.ENCODER.markup">Lavc60.31.102 libx264</property>
  <property name="meta.attr.0.stream.DURATION.markup">00:00:03.837000000</property>
  <property name="meta.media.1.stream.type">audio</property>
  <property name="meta.media.1.codec.sample_fmt">fltp</property>
  <property name="meta.media.1.codec.sample_rate">48000</property>
  <property name="meta.media.1.codec.channels">2</property>
  <property name="meta.media.1.codec.name">vorbis</property>
  <property name="meta.media.1.codec.long_name">Vorbis</property>
  <property name="meta.media.1.codec.bit_rate">0</property>
  <property name="meta.attr.1.stream.HANDLER_NAME.markup">SoundHandler</property>
  <property name="meta.attr.1.stream.VENDOR_ID.markup">[0][0][0][0]</property>
  <property name="meta.attr.1.stream.ENCODER.markup">Lavc60.31.102 libvorbis</property>
  <property name="meta.attr.1.stream.DURATION.markup">00:00:03.843000000</property>
  <property name="meta.attr.COMPATIBLE_BRANDS.markup">isomiso2avc1mp41</property>
  <property name="meta.attr.MAJOR_BRAND.markup">isom</property>
  <property name="meta.attr.MINOR_VERSION.markup">512</property>
  <property name="meta.attr.ENCODER.markup">Lavf60.16.100</property>
  <property name="seekable">1</property>
  <property name="meta.media.sample_aspect_num">1</property>
  <property name="meta.media.sample_aspect_den">1</property>
  <property name="aspect_ratio">1</property>
  <property name="format">3</property>
  <property name="kdenlive:clipname"/>
  <property name="meta.media.frame_rate_num">60</property>
  <property name="meta.media.frame_rate_den">1</property>
  <property name="meta.media.colorspace">709</property>
  <property name="meta.media.color_trc">1</property>
  <property name="meta.media.has_b_frames">2</property>
  <property name="meta.media.width">1920</property>
  <property name="meta.media.height">1080</property>
  <property name="meta.media.color_range">mpeg</property>
  <property name="meta.media.top_field_first">0</property>
  <property name="meta.media.progressive">1</property>
  <property name="kdenlive:clip_type">0</property>
  <property name="kdenlive:folderid">577</property>
  <property name="kdenlive:id">579</property>
  <property name="kdenlive:file_size">738643</property>
  <property name="kdenlive:file_hash">d7c653594efa74c6ea3a2ff66ea3e890</property>
  <property name="kdenlive:audio_max1">171</property>
 </producer>
 <producer id="producer532" in="00:00:00.000" out="00:00:03.833">
  <property name="length">231</property>
  <property name="eof">pause</property>
  <property name="resource">/home/federico/Nextcloud/Kden/EditingUT/Video/Intro/Yt/old_intro.mkv</property>
  <property name="audio_index">1</property>
  <property name="video_index">0</property>
  <property name="mute_on_pause">0</property>
  <property name="mlt_service">avformat-novalidate</property>
  <property name="meta.media.nb_streams">2</property>
  <property name="meta.media.0.stream.type">video</property>
  <property name="meta.media.0.stream.frame_rate">30</property>
  <property name="meta.media.0.stream.sample_aspect_ratio">1</property>
  <property name="meta.media.0.codec.width">1920</property>
  <property name="meta.media.0.codec.height">1080</property>
  <property name="meta.media.0.codec.rotate">0</property>
  <property name="meta.media.0.codec.pix_fmt">yuv420p</property>
  <property name="meta.media.0.codec.sample_aspect_ratio">1</property>
  <property name="meta.media.0.codec.colorspace">709</property>
  <property name="meta.media.0.codec.color_trc">1</property>
  <property name="meta.media.0.codec.name">h264</property>
  <property name="meta.media.0.codec.long_name">H.264 / AVC / MPEG-4 AVC / MPEG-4 part 10</property>
  <property name="meta.media.0.codec.bit_rate">0</property>
  <property name="meta.attr.0.stream.HANDLER_NAME.markup">VideoHandler</property>
  <property name="meta.attr.0.stream.VENDOR_ID.markup">[0][0][0][0]</property>
  <property name="meta.attr.0.stream.ENCODER.markup">Lavc60.31.102 libx264</property>
  <property name="meta.attr.0.stream.DURATION.markup">00:00:03.836000000</property>
  <property name="meta.media.1.stream.type">audio</property>
  <property name="meta.media.1.codec.sample_fmt">fltp</property>
  <property name="meta.media.1.codec.sample_rate">48000</property>
  <property name="meta.media.1.codec.channels">2</property>
  <property name="meta.media.1.codec.name">vorbis</property>
  <property name="meta.media.1.codec.long_name">Vorbis</property>
  <property name="meta.media.1.codec.bit_rate">0</property>
  <property name="meta.attr.1.stream.HANDLER_NAME.markup">SoundHandler</property>
  <property name="meta.attr.1.stream.VENDOR_ID.markup">[0][0][0][0]</property>
  <property name="meta.attr.1.stream.ENCODER.markup">Lavc60.31.102 libvorbis</property>
  <property name="meta.attr.1.stream.DURATION.markup">00:00:03.843000000</property>
  <property name="meta.attr.COMPATIBLE_BRANDS.markup">isomiso2avc1mp41</property>
  <property name="meta.attr.MAJOR_BRAND.markup">isom</property>
  <property name="meta.attr.MINOR_VERSION.markup">512</property>
  <property name="meta.attr.ENCODER.markup">Lavf60.16.100</property>
  <property name="seekable">1</property>
  <property name="meta.media.sample_aspect_num">1</property>
  <property name="meta.media.sample_aspect_den">1</property>
  <property name="aspect_ratio">1</property>
  <property name="format">3</property>
  <property name="kdenlive:clipname"/>
  <property name="meta.media.frame_rate_num">30</property>
  <property name="meta.media.frame_rate_den">1</property>
  <property name="meta.media.colorspace">709</property>
  <property name="meta.media.color_trc">1</property>
  <property name="meta.media.has_b_frames">2</property>
  <property name="meta.media.width">1920</property>
  <property name="meta.media.height">1080</property>
  <property name="meta.media.color_range">mpeg</property>
  <property name="meta.media.top_field_first">0</property>
  <property name="meta.media.progressive">1</property>
  <property name="kdenlive:clip_type">0</property>
  <property name="kdenlive:folderid">577</property>
  <property name="kdenlive:id">580</property>
  <property name="kdenlive:file_size">369946</property>
  <property name="kdenlive:file_hash">1db81e075adb907e346038711fe6903a</property>
  <property name="kdenlive:audio_max1">163</property>
 </producer>
 <producer id="producer535" in="00:00:00.000" out="00:00:25.900">
  <property name="length">1555</property>
  <property name="eof">pause</property>
  <property name="resource">/home/federico/Nextcloud/Kden/EditingUT/Video/MarkTheHammer/mark the hammer - complotto - venduti - soldi- confused - confuso.mkv</property>
  <property name="audio_index">1</property>
  <property name="video_index">0</property>
  <property name="mute_on_pause">0</property>
  <property name="mlt_service">avformat-novalidate</property>
  <property name="meta.media.nb_streams">2</property>
  <property name="meta.media.0.stream.type">video</property>
  <property name="meta.media.0.stream.frame_rate">60</property>
  <property name="meta.media.0.stream.sample_aspect_ratio">1</property>
  <property name="meta.media.0.codec.width">1920</property>
  <property name="meta.media.0.codec.height">1080</property>
  <property name="meta.media.0.codec.rotate">0</property>
  <property name="meta.media.0.codec.pix_fmt">yuv420p</property>
  <property name="meta.media.0.codec.sample_aspect_ratio">1</property>
  <property name="meta.media.0.codec.colorspace">709</property>
  <property name="meta.media.0.codec.color_trc">1</property>
  <property name="meta.media.0.codec.name">h264</property>
  <property name="meta.media.0.codec.long_name">H.264 / AVC / MPEG-4 AVC / MPEG-4 part 10</property>
  <property name="meta.media.0.codec.bit_rate">0</property>
  <property name="meta.attr.0.stream.HANDLER_NAME.markup">VideoHandler</property>
  <property name="meta.attr.0.stream.VENDOR_ID.markup">[0][0][0][0]</property>
  <property name="meta.attr.0.stream.ENCODER.markup">Lavc60.31.102 libx264</property>
  <property name="meta.attr.0.stream.DURATION.markup">00:00:25.920000000</property>
  <property name="meta.media.1.stream.type">audio</property>
  <property name="meta.media.1.codec.sample_fmt">fltp</property>
  <property name="meta.media.1.codec.sample_rate">48000</property>
  <property name="meta.media.1.codec.channels">2</property>
  <property name="meta.media.1.codec.name">vorbis</property>
  <property name="meta.media.1.codec.long_name">Vorbis</property>
  <property name="meta.media.1.codec.bit_rate">0</property>
  <property name="meta.attr.1.stream.HANDLER_NAME.markup">SoundHandler</property>
  <property name="meta.attr.1.stream.VENDOR_ID.markup">[0][0][0][0]</property>
  <property name="meta.attr.1.stream.ENCODER.markup">Lavc60.31.102 libvorbis</property>
  <property name="meta.attr.1.stream.DURATION.markup">00:00:25.923000000</property>
  <property name="meta.attr.COMPATIBLE_BRANDS.markup">isomiso2avc1mp41</property>
  <property name="meta.attr.MAJOR_BRAND.markup">isom</property>
  <property name="meta.attr.MINOR_VERSION.markup">512</property>
  <property name="meta.attr.ENCODER.markup">Lavf60.16.100</property>
  <property name="seekable">1</property>
  <property name="meta.media.sample_aspect_num">1</property>
  <property name="meta.media.sample_aspect_den">1</property>
  <property name="aspect_ratio">1</property>
  <property name="format">3</property>
  <property name="kdenlive:clipname"/>
  <property name="meta.media.frame_rate_num">60</property>
  <property name="meta.media.frame_rate_den">1</property>
  <property name="meta.media.colorspace">709</property>
  <property name="meta.media.color_trc">1</property>
  <property name="meta.media.has_b_frames">2</property>
  <property name="meta.media.width">1920</property>
  <property name="meta.media.height">1080</property>
  <property name="meta.media.color_range">mpeg</property>
  <property name="meta.media.top_field_first">0</property>
  <property name="meta.media.progressive">1</property>
  <property name="kdenlive:clip_type">0</property>
  <property name="kdenlive:folderid">581</property>
  <property name="kdenlive:id">582</property>
  <property name="kdenlive:file_size">9682284</property>
  <property name="kdenlive:file_hash">fe36ea54304c87bc8212e269babe8934</property>
  <property name="kdenlive:audio_max1">208</property>
 </producer>
 <producer id="producer538" in="00:00:00.000" out="00:00:03.567">
  <property name="length">215</property>
  <property name="eof">pause</property>
  <property name="resource">/home/federico/Nextcloud/Kden/EditingUT/Video/MarkTheHammer/mark the hammer bravo coglione applausi applaus.mkv</property>
  <property name="audio_index">1</property>
  <property name="video_index">0</property>
  <property name="mute_on_pause">0</property>
  <property name="mlt_service">avformat-novalidate</property>
  <property name="meta.media.nb_streams">2</property>
  <property name="meta.media.0.stream.type">video</property>
  <property name="meta.media.0.stream.frame_rate">30</property>
  <property name="meta.media.0.stream.sample_aspect_ratio">1</property>
  <property name="meta.media.0.codec.width">1920</property>
  <property name="meta.media.0.codec.height">1080</property>
  <property name="meta.media.0.codec.rotate">0</property>
  <property name="meta.media.0.codec.pix_fmt">yuv420p</property>
  <property name="meta.media.0.codec.sample_aspect_ratio">1</property>
  <property name="meta.media.0.codec.colorspace">709</property>
  <property name="meta.media.0.codec.color_trc">1</property>
  <property name="meta.media.0.codec.name">h264</property>
  <property name="meta.media.0.codec.long_name">H.264 / AVC / MPEG-4 AVC / MPEG-4 part 10</property>
  <property name="meta.media.0.codec.bit_rate">0</property>
  <property name="meta.attr.0.stream.HANDLER_NAME.markup">VideoHandler</property>
  <property name="meta.attr.0.stream.VENDOR_ID.markup">[0][0][0][0]</property>
  <property name="meta.attr.0.stream.ENCODER.markup">Lavc60.31.102 libx264</property>
  <property name="meta.attr.0.stream.DURATION.markup">00:00:03.569000000</property>
  <property name="meta.media.1.stream.type">audio</property>
  <property name="meta.media.1.codec.sample_fmt">fltp</property>
  <property name="meta.media.1.codec.sample_rate">48000</property>
  <property name="meta.media.1.codec.channels">2</property>
  <property name="meta.media.1.codec.name">vorbis</property>
  <property name="meta.media.1.codec.long_name">Vorbis</property>
  <property name="meta.media.1.codec.bit_rate">0</property>
  <property name="meta.attr.1.stream.HANDLER_NAME.markup">SoundHandler</property>
  <property name="meta.attr.1.stream.VENDOR_ID.markup">[0][0][0][0]</property>
  <property name="meta.attr.1.stream.ENCODER.markup">Lavc60.31.102 libvorbis</property>
  <property name="meta.attr.1.stream.DURATION.markup">00:00:03.587000000</property>
  <property name="meta.attr.COMPATIBLE_BRANDS.markup">isomiso2avc1mp41</property>
  <property name="meta.attr.MAJOR_BRAND.markup">isom</property>
  <property name="meta.attr.MINOR_VERSION.markup">512</property>
  <property name="meta.attr.ENCODER.markup">Lavf60.16.100</property>
  <property name="seekable">1</property>
  <property name="meta.media.sample_aspect_num">1</property>
  <property name="meta.media.sample_aspect_den">1</property>
  <property name="aspect_ratio">1</property>
  <property name="format">3</property>
  <property name="kdenlive:clipname"/>
  <property name="meta.media.frame_rate_num">30</property>
  <property name="meta.media.frame_rate_den">1</property>
  <property name="meta.media.colorspace">709</property>
  <property name="meta.media.color_trc">1</property>
  <property name="meta.media.has_b_frames">2</property>
  <property name="meta.media.width">1920</property>
  <property name="meta.media.height">1080</property>
  <property name="meta.media.color_range">mpeg</property>
  <property name="meta.media.top_field_first">0</property>
  <property name="meta.media.progressive">1</property>
  <property name="kdenlive:clip_type">0</property>
  <property name="kdenlive:folderid">581</property>
  <property name="kdenlive:id">583</property>
  <property name="kdenlive:file_size">2371263</property>
  <property name="kdenlive:file_hash">98448968c7b52c40ea79589db07e8e3c</property>
  <property name="kdenlive:audio_max1">242</property>
 </producer>
 <producer id="producer537" in="00:00:00.000" out="00:00:03.867">
  <property name="length">233</property>
  <property name="eof">pause</property>
  <property name="resource">/home/federico/Nextcloud/Kden/EditingUT/Video/MarkTheHammer/mark the hammer cringe.mkv</property>
  <property name="audio_index">1</property>
  <property name="video_index">0</property>
  <property name="mute_on_pause">0</property>
  <property name="mlt_service">avformat-novalidate</property>
  <property name="meta.media.nb_streams">2</property>
  <property name="meta.media.0.stream.type">video</property>
  <property name="meta.media.0.stream.frame_rate">60</property>
  <property name="meta.media.0.stream.sample_aspect_ratio">1</property>
  <property name="meta.media.0.codec.width">1920</property>
  <property name="meta.media.0.codec.height">1080</property>
  <property name="meta.media.0.codec.rotate">0</property>
  <property name="meta.media.0.codec.pix_fmt">yuv420p</property>
  <property name="meta.media.0.codec.sample_aspect_ratio">1</property>
  <property name="meta.media.0.codec.colorspace">709</property>
  <property name="meta.media.0.codec.color_trc">1</property>
  <property name="meta.media.0.codec.name">h264</property>
  <property name="meta.media.0.codec.long_name">H.264 / AVC / MPEG-4 AVC / MPEG-4 part 10</property>
  <property name="meta.media.0.codec.bit_rate">0</property>
  <property name="meta.attr.0.stream.HANDLER_NAME.markup">VideoHandler</property>
  <property name="meta.attr.0.stream.VENDOR_ID.markup">[0][0][0][0]</property>
  <property name="meta.attr.0.stream.ENCODER.markup">Lavc60.31.102 libx264</property>
  <property name="meta.attr.0.stream.DURATION.markup">00:00:03.870000000</property>
  <property name="meta.media.1.stream.type">audio</property>
  <property name="meta.media.1.codec.sample_fmt">fltp</property>
  <property name="meta.media.1.codec.sample_rate">48000</property>
  <property name="meta.media.1.codec.channels">2</property>
  <property name="meta.media.1.codec.name">vorbis</property>
  <property name="meta.media.1.codec.long_name">Vorbis</property>
  <property name="meta.media.1.codec.bit_rate">0</property>
  <property name="meta.attr.1.stream.HANDLER_NAME.markup">SoundHandler</property>
  <property name="meta.attr.1.stream.VENDOR_ID.markup">[0][0][0][0]</property>
  <property name="meta.attr.1.stream.ENCODER.markup">Lavc60.31.102 libvorbis</property>
  <property name="meta.attr.1.stream.DURATION.markup">00:00:03.886000000</property>
  <property name="meta.attr.COMPATIBLE_BRANDS.markup">isomiso2avc1mp41</property>
  <property name="meta.attr.MAJOR_BRAND.markup">isom</property>
  <property name="meta.attr.MINOR_VERSION.markup">512</property>
  <property name="meta.attr.ENCODER.markup">Lavf60.16.100</property>
  <property name="seekable">1</property>
  <property name="meta.media.sample_aspect_num">1</property>
  <property name="meta.media.sample_aspect_den">1</property>
  <property name="aspect_ratio">1</property>
  <property name="format">3</property>
  <property name="kdenlive:clipname"/>
  <property name="meta.media.frame_rate_num">60</property>
  <property name="meta.media.frame_rate_den">1</property>
  <property name="meta.media.colorspace">709</property>
  <property name="meta.media.color_trc">1</property>
  <property name="meta.media.has_b_frames">2</property>
  <property name="meta.media.width">1920</property>
  <property name="meta.media.height">1080</property>
  <property name="meta.media.color_range">mpeg</property>
  <property name="meta.media.top_field_first">0</property>
  <property name="meta.media.progressive">1</property>
  <property name="kdenlive:clip_type">0</property>
  <property name="kdenlive:folderid">581</property>
  <property name="kdenlive:id">584</property>
  <property name="kdenlive:file_size">2113893</property>
  <property name="kdenlive:file_hash">8b83535d4375729a216e9948d9374fae</property>
  <property name="kdenlive:audio_max1">207</property>
 </producer>
 <producer id="producer536" in="00:00:00.000" out="00:00:03.183">
  <property name="length">192</property>
  <property name="eof">pause</property>
  <property name="resource">/home/federico/Nextcloud/Kden/EditingUT/Video/MarkTheHammer/mark the hammer faccia face meme segnala report.mkv</property>
  <property name="audio_index">1</property>
  <property name="video_index">0</property>
  <property name="mute_on_pause">0</property>
  <property name="mlt_service">avformat-novalidate</property>
  <property name="meta.media.nb_streams">2</property>
  <property name="meta.media.0.stream.type">video</property>
  <property name="meta.media.0.stream.frame_rate">30</property>
  <property name="meta.media.0.stream.sample_aspect_ratio">1</property>
  <property name="meta.media.0.codec.width">1920</property>
  <property name="meta.media.0.codec.height">1080</property>
  <property name="meta.media.0.codec.rotate">0</property>
  <property name="meta.media.0.codec.pix_fmt">yuv420p</property>
  <property name="meta.media.0.codec.sample_aspect_ratio">1</property>
  <property name="meta.media.0.codec.colorspace">709</property>
  <property name="meta.media.0.codec.color_trc">1</property>
  <property name="meta.media.0.codec.name">h264</property>
  <property name="meta.media.0.codec.long_name">H.264 / AVC / MPEG-4 AVC / MPEG-4 part 10</property>
  <property name="meta.media.0.codec.bit_rate">0</property>
  <property name="meta.attr.0.stream.HANDLER_NAME.markup">VideoHandler</property>
  <property name="meta.attr.0.stream.VENDOR_ID.markup">[0][0][0][0]</property>
  <property name="meta.attr.0.stream.ENCODER.markup">Lavc60.31.102 libx264</property>
  <property name="meta.attr.0.stream.DURATION.markup">00:00:03.203000000</property>
  <property name="meta.media.1.stream.type">audio</property>
  <property name="meta.media.1.codec.sample_fmt">fltp</property>
  <property name="meta.media.1.codec.sample_rate">48000</property>
  <property name="meta.media.1.codec.channels">2</property>
  <property name="meta.media.1.codec.name">vorbis</property>
  <property name="meta.media.1.codec.long_name">Vorbis</property>
  <property name="meta.media.1.codec.bit_rate">0</property>
  <property name="meta.attr.1.stream.HANDLER_NAME.markup">SoundHandler</property>
  <property name="meta.attr.1.stream.VENDOR_ID.markup">[0][0][0][0]</property>
  <property name="meta.attr.1.stream.ENCODER.markup">Lavc60.31.102 libvorbis</property>
  <property name="meta.attr.1.stream.DURATION.markup">00:00:03.203000000</property>
  <property name="meta.attr.COMPATIBLE_BRANDS.markup">isomiso2avc1mp41</property>
  <property name="meta.attr.MAJOR_BRAND.markup">isom</property>
  <property name="meta.attr.MINOR_VERSION.markup">512</property>
  <property name="meta.attr.ENCODER.markup">Lavf60.16.100</property>
  <property name="seekable">1</property>
  <property name="meta.media.sample_aspect_num">1</property>
  <property name="meta.media.sample_aspect_den">1</property>
  <property name="aspect_ratio">1</property>
  <property name="format">3</property>
  <property name="kdenlive:clipname"/>
  <property name="meta.media.frame_rate_num">30</property>
  <property name="meta.media.frame_rate_den">1</property>
  <property name="meta.media.colorspace">709</property>
  <property name="meta.media.color_trc">1</property>
  <property name="meta.media.has_b_frames">2</property>
  <property name="meta.media.width">1920</property>
  <property name="meta.media.height">1080</property>
  <property name="meta.media.color_range">mpeg</property>
  <property name="meta.media.top_field_first">0</property>
  <property name="meta.media.progressive">1</property>
  <property name="kdenlive:clip_type">0</property>
  <property name="kdenlive:folderid">581</property>
  <property name="kdenlive:id">585</property>
  <property name="kdenlive:file_size">567261</property>
  <property name="kdenlive:file_hash">cce3d28f603a1c4520afba128777df03</property>
  <property name="kdenlive:audio_max1">90</property>
 </producer>
 <producer id="producer540" in="00:00:00.000" out="00:00:01.700">
  <property name="length">103</property>
  <property name="eof">pause</property>
  <property name="resource">/home/federico/Nextcloud/Kden/EditingUT/Video/Sabaku/sabaku allarme.mkv</property>
  <property name="audio_index">1</property>
  <property name="video_index">0</property>
  <property name="mute_on_pause">0</property>
  <property name="mlt_service">avformat-novalidate</property>
  <property name="meta.media.nb_streams">2</property>
  <property name="meta.media.0.stream.type">video</property>
  <property name="meta.media.0.stream.frame_rate">60</property>
  <property name="meta.media.0.stream.sample_aspect_ratio">1</property>
  <property name="meta.media.0.codec.width">1920</property>
  <property name="meta.media.0.codec.height">1080</property>
  <property name="meta.media.0.codec.rotate">0</property>
  <property name="meta.media.0.codec.pix_fmt">yuv420p</property>
  <property name="meta.media.0.codec.sample_aspect_ratio">1</property>
  <property name="meta.media.0.codec.colorspace">709</property>
  <property name="meta.media.0.codec.color_trc">1</property>
  <property name="meta.media.0.codec.name">h264</property>
  <property name="meta.media.0.codec.long_name">H.264 / AVC / MPEG-4 AVC / MPEG-4 part 10</property>
  <property name="meta.media.0.codec.bit_rate">0</property>
  <property name="meta.attr.0.stream.HANDLER_NAME.markup">VideoHandler</property>
  <property name="meta.attr.0.stream.VENDOR_ID.markup">[0][0][0][0]</property>
  <property name="meta.attr.0.stream.ENCODER.markup">Lavc60.31.102 libx264</property>
  <property name="meta.attr.0.stream.DURATION.markup">00:00:01.703000000</property>
  <property name="meta.media.1.stream.type">audio</property>
  <property name="meta.media.1.codec.sample_fmt">fltp</property>
  <property name="meta.media.1.codec.sample_rate">48000</property>
  <property name="meta.media.1.codec.channels">2</property>
  <property name="meta.media.1.codec.name">vorbis</property>
  <property name="meta.media.1.codec.long_name">Vorbis</property>
  <property name="meta.media.1.codec.bit_rate">0</property>
  <property name="meta.attr.1.stream.HANDLER_NAME.markup">SoundHandler</property>
  <property name="meta.attr.1.stream.VENDOR_ID.markup">[0][0][0][0]</property>
  <property name="meta.attr.1.stream.ENCODER.markup">Lavc60.31.102 libvorbis</property>
  <property name="meta.attr.1.stream.DURATION.markup">00:00:01.710000000</property>
  <property name="meta.attr.COMPATIBLE_BRANDS.markup">isomiso2avc1mp41</property>
  <property name="meta.attr.MAJOR_BRAND.markup">isom</property>
  <property name="meta.attr.MINOR_VERSION.markup">512</property>
  <property name="meta.attr.ENCODER.markup">Lavf60.16.100</property>
  <property name="seekable">1</property>
  <property name="meta.media.sample_aspect_num">1</property>
  <property name="meta.media.sample_aspect_den">1</property>
  <property name="aspect_ratio">1</property>
  <property name="format">3</property>
  <property name="kdenlive:clipname"/>
  <property name="meta.media.frame_rate_num">60</property>
  <property name="meta.media.frame_rate_den">1</property>
  <property name="meta.media.colorspace">709</property>
  <property name="meta.media.color_trc">1</property>
  <property name="meta.media.has_b_frames">2</property>
  <property name="meta.media.width">1920</property>
  <property name="meta.media.height">1080</property>
  <property name="meta.media.color_range">mpeg</property>
  <property name="meta.media.top_field_first">0</property>
  <property name="meta.media.progressive">1</property>
  <property name="kdenlive:clip_type">0</property>
  <property name="kdenlive:folderid">586</property>
  <property name="kdenlive:id">587</property>
  <property name="kdenlive:file_size">445122</property>
  <property name="kdenlive:file_hash">a380954c6f05dd7d4bd03549eb01ef48</property>
  <property name="kdenlive:audio_max1">188</property>
 </producer>
 <producer id="producer541" in="00:00:00.000" out="00:00:02.283">
  <property name="length">138</property>
  <property name="eof">pause</property>
  <property name="resource">/home/federico/Nextcloud/Kden/EditingUT/Video/Sabaku/sabaku altrimenti faremo l'amore.mkv</property>
  <property name="audio_index">1</property>
  <property name="video_index">0</property>
  <property name="mute_on_pause">0</property>
  <property name="mlt_service">avformat-novalidate</property>
  <property name="meta.media.nb_streams">2</property>
  <property name="meta.media.0.stream.type">video</property>
  <property name="meta.media.0.stream.frame_rate">60</property>
  <property name="meta.media.0.stream.sample_aspect_ratio">1</property>
  <property name="meta.media.0.codec.width">1920</property>
  <property name="meta.media.0.codec.height">1080</property>
  <property name="meta.media.0.codec.rotate">0</property>
  <property name="meta.media.0.codec.pix_fmt">yuv420p</property>
  <property name="meta.media.0.codec.sample_aspect_ratio">1</property>
  <property name="meta.media.0.codec.colorspace">709</property>
  <property name="meta.media.0.codec.color_trc">1</property>
  <property name="meta.media.0.codec.name">h264</property>
  <property name="meta.media.0.codec.long_name">H.264 / AVC / MPEG-4 AVC / MPEG-4 part 10</property>
  <property name="meta.media.0.codec.bit_rate">0</property>
  <property name="meta.attr.0.stream.HANDLER_NAME.markup">VideoHandler</property>
  <property name="meta.attr.0.stream.VENDOR_ID.markup">[0][0][0][0]</property>
  <property name="meta.attr.0.stream.ENCODER.markup">Lavc60.31.102 libx264</property>
  <property name="meta.attr.0.stream.DURATION.markup">00:00:02.303000000</property>
  <property name="meta.media.1.stream.type">audio</property>
  <property name="meta.media.1.codec.sample_fmt">fltp</property>
  <property name="meta.media.1.codec.sample_rate">48000</property>
  <property name="meta.media.1.codec.channels">2</property>
  <property name="meta.media.1.codec.name">vorbis</property>
  <property name="meta.media.1.codec.long_name">Vorbis</property>
  <property name="meta.media.1.codec.bit_rate">0</property>
  <property name="meta.attr.1.stream.HANDLER_NAME.markup">SoundHandler</property>
  <property name="meta.attr.1.stream.VENDOR_ID.markup">[0][0][0][0]</property>
  <property name="meta.attr.1.stream.ENCODER.markup">Lavc60.31.102 libvorbis</property>
  <property name="meta.attr.1.stream.DURATION.markup">00:00:02.307000000</property>
  <property name="meta.attr.COMPATIBLE_BRANDS.markup">isomiso2avc1mp41</property>
  <property name="meta.attr.MAJOR_BRAND.markup">isom</property>
  <property name="meta.attr.MINOR_VERSION.markup">512</property>
  <property name="meta.attr.ENCODER.markup">Lavf60.16.100</property>
  <property name="seekable">1</property>
  <property name="meta.media.sample_aspect_num">1</property>
  <property name="meta.media.sample_aspect_den">1</property>
  <property name="aspect_ratio">1</property>
  <property name="format">3</property>
  <property name="kdenlive:clipname"/>
  <property name="meta.media.frame_rate_num">60</property>
  <property name="meta.media.frame_rate_den">1</property>
  <property name="meta.media.colorspace">709</property>
  <property name="meta.media.color_trc">1</property>
  <property name="meta.media.has_b_frames">2</property>
  <property name="meta.media.width">1920</property>
  <property name="meta.media.height">1080</property>
  <property name="meta.media.color_range">mpeg</property>
  <property name="meta.media.top_field_first">0</property>
  <property name="meta.media.progressive">1</property>
  <property name="kdenlive:clip_type">0</property>
  <property name="kdenlive:folderid">586</property>
  <property name="kdenlive:id">588</property>
  <property name="kdenlive:file_size">483150</property>
  <property name="kdenlive:file_hash">35b58a884f5ec8b860a4f030417654de</property>
  <property name="kdenlive:audio_max1">183</property>
 </producer>
 <producer id="producer539" in="00:00:00.000" out="00:00:02.400">
  <property name="length">145</property>
  <property name="eof">pause</property>
  <property name="resource">/home/federico/Nextcloud/Kden/EditingUT/Video/Sabaku/sabaku andate a cagare.mkv</property>
  <property name="audio_index">1</property>
  <property name="video_index">0</property>
  <property name="mute_on_pause">0</property>
  <property name="mlt_service">avformat-novalidate</property>
  <property name="meta.media.nb_streams">2</property>
  <property name="meta.media.0.stream.type">video</property>
  <property name="meta.media.0.stream.frame_rate">30</property>
  <property name="meta.media.0.stream.sample_aspect_ratio">1</property>
  <property name="meta.media.0.codec.width">1920</property>
  <property name="meta.media.0.codec.height">1080</property>
  <property name="meta.media.0.codec.rotate">0</property>
  <property name="meta.media.0.codec.pix_fmt">yuv420p</property>
  <property name="meta.media.0.codec.sample_aspect_ratio">1</property>
  <property name="meta.media.0.codec.colorspace">709</property>
  <property name="meta.media.0.codec.color_trc">1</property>
  <property name="meta.media.0.codec.name">h264</property>
  <property name="meta.media.0.codec.long_name">H.264 / AVC / MPEG-4 AVC / MPEG-4 part 10</property>
  <property name="meta.media.0.codec.bit_rate">0</property>
  <property name="meta.attr.0.stream.HANDLER_NAME.markup">VideoHandler</property>
  <property name="meta.attr.0.stream.VENDOR_ID.markup">[0][0][0][0]</property>
  <property name="meta.attr.0.stream.ENCODER.markup">Lavc60.31.102 libx264</property>
  <property name="meta.attr.0.stream.DURATION.markup">00:00:02.403000000</property>
  <property name="meta.media.1.stream.type">audio</property>
  <property name="meta.media.1.codec.sample_fmt">fltp</property>
  <property name="meta.media.1.codec.sample_rate">48000</property>
  <property name="meta.media.1.codec.channels">2</property>
  <property name="meta.media.1.codec.name">vorbis</property>
  <property name="meta.media.1.codec.long_name">Vorbis</property>
  <property name="meta.media.1.codec.bit_rate">0</property>
  <property name="meta.attr.1.stream.HANDLER_NAME.markup">SoundHandler</property>
  <property name="meta.attr.1.stream.VENDOR_ID.markup">[0][0][0][0]</property>
  <property name="meta.attr.1.stream.ENCODER.markup">Lavc60.31.102 libvorbis</property>
  <property name="meta.attr.1.stream.DURATION.markup">00:00:02.414000000</property>
  <property name="meta.attr.COMPATIBLE_BRANDS.markup">isomiso2avc1mp41</property>
  <property name="meta.attr.MAJOR_BRAND.markup">isom</property>
  <property name="meta.attr.MINOR_VERSION.markup">512</property>
  <property name="meta.attr.ENCODER.markup">Lavf60.16.100</property>
  <property name="seekable">1</property>
  <property name="meta.media.sample_aspect_num">1</property>
  <property name="meta.media.sample_aspect_den">1</property>
  <property name="aspect_ratio">1</property>
  <property name="format">3</property>
  <property name="kdenlive:clipname"/>
  <property name="meta.media.frame_rate_num">30</property>
  <property name="meta.media.frame_rate_den">1</property>
  <property name="meta.media.colorspace">709</property>
  <property name="meta.media.color_trc">1</property>
  <property name="meta.media.has_b_frames">2</property>
  <property name="meta.media.width">1920</property>
  <property name="meta.media.height">1080</property>
  <property name="meta.media.color_range">mpeg</property>
  <property name="meta.media.top_field_first">0</property>
  <property name="meta.media.progressive">1</property>
  <property name="kdenlive:clip_type">0</property>
  <property name="kdenlive:folderid">586</property>
  <property name="kdenlive:id">589</property>
  <property name="kdenlive:file_size">138844</property>
  <property name="kdenlive:file_hash">1b49c84b4c3bc567c2e2b3fb7a4c7429</property>
  <property name="kdenlive:audio_max1">125</property>
 </producer>
 <producer id="producer542" in="00:00:00.000" out="00:00:02.500">
  <property name="length">151</property>
  <property name="eof">pause</property>
  <property name="resource">/home/federico/Nextcloud/Kden/EditingUT/Video/Sabaku/sabaku averlo piccolo.mkv</property>
  <property name="audio_index">1</property>
  <property name="video_index">0</property>
  <property name="mute_on_pause">0</property>
  <property name="mlt_service">avformat-novalidate</property>
  <property name="meta.media.nb_streams">2</property>
  <property name="meta.media.0.stream.type">video</property>
  <property name="meta.media.0.stream.frame_rate">30</property>
  <property name="meta.media.0.stream.sample_aspect_ratio">1</property>
  <property name="meta.media.0.codec.width">1920</property>
  <property name="meta.media.0.codec.height">1080</property>
  <property name="meta.media.0.codec.rotate">0</property>
  <property name="meta.media.0.codec.pix_fmt">yuv420p</property>
  <property name="meta.media.0.codec.sample_aspect_ratio">1</property>
  <property name="meta.media.0.codec.colorspace">709</property>
  <property name="meta.media.0.codec.color_trc">1</property>
  <property name="meta.media.0.codec.name">h264</property>
  <property name="meta.media.0.codec.long_name">H.264 / AVC / MPEG-4 AVC / MPEG-4 part 10</property>
  <property name="meta.media.0.codec.bit_rate">0</property>
  <property name="meta.attr.0.stream.HANDLER_NAME.markup">VideoHandler</property>
  <property name="meta.attr.0.stream.VENDOR_ID.markup">[0][0][0][0]</property>
  <property name="meta.attr.0.stream.ENCODER.markup">Lavc60.31.102 libx264</property>
  <property name="meta.attr.0.stream.DURATION.markup">00:00:02.503000000</property>
  <property name="meta.media.1.stream.type">audio</property>
  <property name="meta.media.1.codec.sample_fmt">fltp</property>
  <property name="meta.media.1.codec.sample_rate">48000</property>
  <property name="meta.media.1.codec.channels">2</property>
  <property name="meta.media.1.codec.name">vorbis</property>
  <property name="meta.media.1.codec.long_name">Vorbis</property>
  <property name="meta.media.1.codec.bit_rate">0</property>
  <property name="meta.attr.1.stream.HANDLER_NAME.markup">SoundHandler</property>
  <property name="meta.attr.1.stream.VENDOR_ID.markup">[0][0][0][0]</property>
  <property name="meta.attr.1.stream.ENCODER.markup">Lavc60.31.102 libvorbis</property>
  <property name="meta.attr.1.stream.DURATION.markup">00:00:02.520000000</property>
  <property name="meta.attr.COMPATIBLE_BRANDS.markup">isomiso2avc1mp41</property>
  <property name="meta.attr.MAJOR_BRAND.markup">isom</property>
  <property name="meta.attr.MINOR_VERSION.markup">512</property>
  <property name="meta.attr.ENCODER.markup">Lavf60.16.100</property>
  <property name="seekable">1</property>
  <property name="meta.media.sample_aspect_num">1</property>
  <property name="meta.media.sample_aspect_den">1</property>
  <property name="aspect_ratio">1</property>
  <property name="format">3</property>
  <property name="kdenlive:clipname"/>
  <property name="meta.media.frame_rate_num">30</property>
  <property name="meta.media.frame_rate_den">1</property>
  <property name="meta.media.colorspace">709</property>
  <property name="meta.media.color_trc">1</property>
  <property name="meta.media.has_b_frames">2</property>
  <property name="meta.media.width">1920</property>
  <property name="meta.media.height">1080</property>
  <property name="meta.media.color_range">mpeg</property>
  <property name="meta.media.top_field_first">0</property>
  <property name="meta.media.progressive">1</property>
  <property name="kdenlive:clip_type">0</property>
  <property name="kdenlive:folderid">586</property>
  <property name="kdenlive:id">590</property>
  <property name="kdenlive:file_size">660164</property>
  <property name="kdenlive:file_hash">4962de2eb2f41be359056a1af20d62d8</property>
  <property name="kdenlive:audio_max1">212</property>
 </producer>
 <producer id="producer544" in="00:00:00.000" out="00:00:13.150">
  <property name="length">790</property>
  <property name="eof">pause</property>
  <property name="resource">/home/federico/Nextcloud/Kden/EditingUT/Video/Sabaku/sabaku bestemmia  cantata.mkv</property>
  <property name="audio_index">1</property>
  <property name="video_index">0</property>
  <property name="mute_on_pause">0</property>
  <property name="mlt_service">avformat-novalidate</property>
  <property name="meta.media.nb_streams">2</property>
  <property name="meta.media.0.stream.type">video</property>
  <property name="meta.media.0.stream.frame_rate">60</property>
  <property name="meta.media.0.stream.sample_aspect_ratio">1</property>
  <property name="meta.media.0.codec.width">1920</property>
  <property name="meta.media.0.codec.height">1080</property>
  <property name="meta.media.0.codec.rotate">0</property>
  <property name="meta.media.0.codec.pix_fmt">yuv420p</property>
  <property name="meta.media.0.codec.sample_aspect_ratio">1</property>
  <property name="meta.media.0.codec.colorspace">709</property>
  <property name="meta.media.0.codec.color_trc">1</property>
  <property name="meta.media.0.codec.name">h264</property>
  <property name="meta.media.0.codec.long_name">H.264 / AVC / MPEG-4 AVC / MPEG-4 part 10</property>
  <property name="meta.media.0.codec.bit_rate">0</property>
  <property name="meta.attr.0.stream.DURATION.markup">00:00:13.134000000</property>
  <property name="meta.media.1.stream.type">audio</property>
  <property name="meta.media.1.codec.sample_fmt">fltp</property>
  <property name="meta.media.1.codec.sample_rate">48000</property>
  <property name="meta.media.1.codec.channels">2</property>
  <property name="meta.media.1.codec.name">aac</property>
  <property name="meta.media.1.codec.long_name">AAC (Advanced Audio Coding)</property>
  <property name="meta.media.1.codec.bit_rate">0</property>
  <property name="meta.attr.1.stream.DURATION.markup">00:00:13.162000000</property>
  <property name="meta.attr.ENCODER.markup">Lavf61.7.100</property>
  <property name="seekable">1</property>
  <property name="meta.media.sample_aspect_num">1</property>
  <property name="meta.media.sample_aspect_den">1</property>
  <property name="aspect_ratio">1</property>
  <property name="format">3</property>
  <property name="kdenlive:clipname"/>
  <property name="meta.media.frame_rate_num">60</property>
  <property name="meta.media.frame_rate_den">1</property>
  <property name="meta.media.colorspace">709</property>
  <property name="meta.media.color_trc">1</property>
  <property name="meta.media.has_b_frames">2</property>
  <property name="meta.media.width">1920</property>
  <property name="meta.media.height">1080</property>
  <property name="meta.media.color_range">mpeg</property>
  <property name="meta.media.top_field_first">0</property>
  <property name="meta.media.progressive">1</property>
  <property name="kdenlive:clip_type">0</property>
  <property name="kdenlive:folderid">586</property>
  <property name="kdenlive:id">591</property>
  <property name="kdenlive:file_size">2153266</property>
  <property name="kdenlive:file_hash">9a6cae6deaae99f8f7b3a5a17c23502d</property>
  <property name="kdenlive:audio_max1">175</property>
 </producer>
 <producer id="producer543" in="00:00:00.000" out="00:00:05.833">
  <property name="length">351</property>
  <property name="eof">pause</property>
  <property name="resource">/home/federico/Nextcloud/Kden/EditingUT/Video/Sabaku/sabaku bestemmiare comportamento.mkv</property>
  <property name="audio_index">1</property>
  <property name="video_index">0</property>
  <property name="mute_on_pause">0</property>
  <property name="mlt_service">avformat-novalidate</property>
  <property name="meta.media.nb_streams">2</property>
  <property name="meta.media.0.stream.type">video</property>
  <property name="meta.media.0.stream.frame_rate">30</property>
  <property name="meta.media.0.stream.sample_aspect_ratio">1</property>
  <property name="meta.media.0.codec.width">1920</property>
  <property name="meta.media.0.codec.height">1080</property>
  <property name="meta.media.0.codec.rotate">0</property>
  <property name="meta.media.0.codec.pix_fmt">yuv420p</property>
  <property name="meta.media.0.codec.sample_aspect_ratio">1</property>
  <property name="meta.media.0.codec.colorspace">709</property>
  <property name="meta.media.0.codec.color_trc">1</property>
  <property name="meta.media.0.codec.name">h264</property>
  <property name="meta.media.0.codec.long_name">H.264 / AVC / MPEG-4 AVC / MPEG-4 part 10</property>
  <property name="meta.media.0.codec.bit_rate">0</property>
  <property name="meta.attr.0.stream.HANDLER_NAME.markup">VideoHandler</property>
  <property name="meta.attr.0.stream.VENDOR_ID.markup">[0][0][0][0]</property>
  <property name="meta.attr.0.stream.ENCODER.markup">Lavc60.31.102 libx264</property>
  <property name="meta.attr.0.stream.DURATION.markup">00:00:05.836000000</property>
  <property name="meta.media.1.stream.type">audio</property>
  <property name="meta.media.1.codec.sample_fmt">fltp</property>
  <property name="meta.media.1.codec.sample_rate">48000</property>
  <property name="meta.media.1.codec.channels">2</property>
  <property name="meta.media.1.codec.name">vorbis</property>
  <property name="meta.media.1.codec.long_name">Vorbis</property>
  <property name="meta.media.1.codec.bit_rate">0</property>
  <property name="meta.attr.1.stream.HANDLER_NAME.markup">SoundHandler</property>
  <property name="meta.attr.1.stream.VENDOR_ID.markup">[0][0][0][0]</property>
  <property name="meta.attr.1.stream.ENCODER.markup">Lavc60.31.102 libvorbis</property>
  <property name="meta.attr.1.stream.DURATION.markup">00:00:05.848000000</property>
  <property name="meta.attr.COMPATIBLE_BRANDS.markup">isomiso2avc1mp41</property>
  <property name="meta.attr.MAJOR_BRAND.markup">isom</property>
  <property name="meta.attr.MINOR_VERSION.markup">512</property>
  <property name="meta.attr.ENCODER.markup">Lavf60.16.100</property>
  <property name="seekable">1</property>
  <property name="meta.media.sample_aspect_num">1</property>
  <property name="meta.media.sample_aspect_den">1</property>
  <property name="aspect_ratio">1</property>
  <property name="format">3</property>
  <property name="kdenlive:clipname"/>
  <property name="meta.media.frame_rate_num">30</property>
  <property name="meta.media.frame_rate_den">1</property>
  <property name="meta.media.colorspace">709</property>
  <property name="meta.media.color_trc">1</property>
  <property name="meta.media.has_b_frames">2</property>
  <property name="meta.media.width">1920</property>
  <property name="meta.media.height">1080</property>
  <property name="meta.media.color_range">mpeg</property>
  <property name="meta.media.top_field_first">0</property>
  <property name="meta.media.progressive">1</property>
  <property name="kdenlive:clip_type">0</property>
  <property name="kdenlive:folderid">586</property>
  <property name="kdenlive:id">592</property>
  <property name="kdenlive:file_size">1094194</property>
  <property name="kdenlive:file_hash">878a9275e0ec376d4d28ef7b508a8357</property>
  <property name="kdenlive:audio_max1">149</property>
 </producer>
 <producer id="producer545" in="00:00:00.000" out="00:00:02.933">
  <property name="length">177</property>
  <property name="eof">pause</property>
  <property name="resource">/home/federico/Nextcloud/Kden/EditingUT/Video/Sabaku/sabaku cazzo duro.mkv</property>
  <property name="audio_index">1</property>
  <property name="video_index">0</property>
  <property name="mute_on_pause">0</property>
  <property name="mlt_service">avformat-novalidate</property>
  <property name="meta.media.nb_streams">2</property>
  <property name="meta.media.0.stream.type">video</property>
  <property name="meta.media.0.stream.frame_rate">30</property>
  <property name="meta.media.0.stream.sample_aspect_ratio">1</property>
  <property name="meta.media.0.codec.width">1920</property>
  <property name="meta.media.0.codec.height">1080</property>
  <property name="meta.media.0.codec.rotate">0</property>
  <property name="meta.media.0.codec.pix_fmt">yuv420p</property>
  <property name="meta.media.0.codec.sample_aspect_ratio">1</property>
  <property name="meta.media.0.codec.colorspace">709</property>
  <property name="meta.media.0.codec.color_trc">1</property>
  <property name="meta.media.0.codec.name">h264</property>
  <property name="meta.media.0.codec.long_name">H.264 / AVC / MPEG-4 AVC / MPEG-4 part 10</property>
  <property name="meta.media.0.codec.bit_rate">0</property>
  <property name="meta.attr.0.stream.HANDLER_NAME.markup">VideoHandler</property>
  <property name="meta.attr.0.stream.VENDOR_ID.markup">[0][0][0][0]</property>
  <property name="meta.attr.0.stream.ENCODER.markup">Lavc60.31.102 libx264</property>
  <property name="meta.attr.0.stream.DURATION.markup">00:00:02.936000000</property>
  <property name="meta.media.1.stream.type">audio</property>
  <property name="meta.media.1.codec.sample_fmt">fltp</property>
  <property name="meta.media.1.codec.sample_rate">48000</property>
  <property name="meta.media.1.codec.channels">2</property>
  <property name="meta.media.1.codec.name">vorbis</property>
  <property name="meta.media.1.codec.long_name">Vorbis</property>
  <property name="meta.media.1.codec.bit_rate">0</property>
  <property name="meta.attr.1.stream.HANDLER_NAME.markup">SoundHandler</property>
  <property name="meta.attr.1.stream.VENDOR_ID.markup">[0][0][0][0]</property>
  <property name="meta.attr.1.stream.ENCODER.markup">Lavc60.31.102 libvorbis</property>
  <property name="meta.attr.1.stream.DURATION.markup">00:00:02.947000000</property>
  <property name="meta.attr.COMPATIBLE_BRANDS.markup">isomiso2avc1mp41</property>
  <property name="meta.attr.MAJOR_BRAND.markup">isom</property>
  <property name="meta.attr.MINOR_VERSION.markup">512</property>
  <property name="meta.attr.ENCODER.markup">Lavf60.16.100</property>
  <property name="seekable">1</property>
  <property name="meta.media.sample_aspect_num">1</property>
  <property name="meta.media.sample_aspect_den">1</property>
  <property name="aspect_ratio">1</property>
  <property name="format">3</property>
  <property name="kdenlive:clipname"/>
  <property name="meta.media.frame_rate_num">30</property>
  <property name="meta.media.frame_rate_den">1</property>
  <property name="meta.media.colorspace">709</property>
  <property name="meta.media.color_trc">1</property>
  <property name="meta.media.has_b_frames">2</property>
  <property name="meta.media.width">1920</property>
  <property name="meta.media.height">1080</property>
  <property name="meta.media.color_range">mpeg</property>
  <property name="meta.media.top_field_first">0</property>
  <property name="meta.media.progressive">1</property>
  <property name="kdenlive:clip_type">0</property>
  <property name="kdenlive:folderid">586</property>
  <property name="kdenlive:id">593</property>
  <property name="kdenlive:file_size">282335</property>
  <property name="kdenlive:file_hash">f0d9a4fb5aec32852fdf95c09d2f12fb</property>
  <property name="kdenlive:audio_max1">227</property>
 </producer>
 <producer id="producer546" in="00:00:00.000" out="00:00:00.833">
  <property name="length">51</property>
  <property name="eof">pause</property>
  <property name="resource">/home/federico/Nextcloud/Kden/EditingUT/Video/Sabaku/sabaku cazzo ridi.mkv</property>
  <property name="audio_index">1</property>
  <property name="video_index">0</property>
  <property name="mute_on_pause">0</property>
  <property name="mlt_service">avformat-novalidate</property>
  <property name="meta.media.nb_streams">2</property>
  <property name="meta.media.0.stream.type">video</property>
  <property name="meta.media.0.stream.frame_rate">30</property>
  <property name="meta.media.0.stream.sample_aspect_ratio">1</property>
  <property name="meta.media.0.codec.width">1920</property>
  <property name="meta.media.0.codec.height">1080</property>
  <property name="meta.media.0.codec.rotate">0</property>
  <property name="meta.media.0.codec.pix_fmt">yuv420p</property>
  <property name="meta.media.0.codec.sample_aspect_ratio">1</property>
  <property name="meta.media.0.codec.colorspace">709</property>
  <property name="meta.media.0.codec.color_trc">1</property>
  <property name="meta.media.0.codec.name">h264</property>
  <property name="meta.media.0.codec.long_name">H.264 / AVC / MPEG-4 AVC / MPEG-4 part 10</property>
  <property name="meta.media.0.codec.bit_rate">0</property>
  <property name="meta.attr.0.stream.HANDLER_NAME.markup">VideoHandler</property>
  <property name="meta.attr.0.stream.VENDOR_ID.markup">[0][0][0][0]</property>
  <property name="meta.attr.0.stream.ENCODER.markup">Lavc60.31.102 libx264</property>
  <property name="meta.attr.0.stream.DURATION.markup">00:00:00.836000000</property>
  <property name="meta.media.1.stream.type">audio</property>
  <property name="meta.media.1.codec.sample_fmt">fltp</property>
  <property name="meta.media.1.codec.sample_rate">48000</property>
  <property name="meta.media.1.codec.channels">2</property>
  <property name="meta.media.1.codec.name">vorbis</property>
  <property name="meta.media.1.codec.long_name">Vorbis</property>
  <property name="meta.media.1.codec.bit_rate">0</property>
  <property name="meta.attr.1.stream.HANDLER_NAME.markup">SoundHandler</property>
  <property name="meta.attr.1.stream.VENDOR_ID.markup">[0][0][0][0]</property>
  <property name="meta.attr.1.stream.ENCODER.markup">Lavc60.31.102 libvorbis</property>
  <property name="meta.attr.1.stream.DURATION.markup">00:00:00.856000000</property>
  <property name="meta.attr.COMPATIBLE_BRANDS.markup">isomiso2avc1mp41</property>
  <property name="meta.attr.MAJOR_BRAND.markup">isom</property>
  <property name="meta.attr.MINOR_VERSION.markup">512</property>
  <property name="meta.attr.ENCODER.markup">Lavf60.16.100</property>
  <property name="seekable">1</property>
  <property name="meta.media.sample_aspect_num">1</property>
  <property name="meta.media.sample_aspect_den">1</property>
  <property name="aspect_ratio">1</property>
  <property name="format">3</property>
  <property name="kdenlive:clipname"/>
  <property name="meta.media.frame_rate_num">30</property>
  <property name="meta.media.frame_rate_den">1</property>
  <property name="meta.media.colorspace">709</property>
  <property name="meta.media.color_trc">1</property>
  <property name="meta.media.has_b_frames">2</property>
  <property name="meta.media.width">1920</property>
  <property name="meta.media.height">1080</property>
  <property name="meta.media.color_range">mpeg</property>
  <property name="meta.media.top_field_first">0</property>
  <property name="meta.media.progressive">1</property>
  <property name="kdenlive:clip_type">0</property>
  <property name="kdenlive:folderid">586</property>
  <property name="kdenlive:id">594</property>
  <property name="kdenlive:file_size">317387</property>
  <property name="kdenlive:file_hash">7b0f2668e7372899328b345175ec7ffe</property>
  <property name="kdenlive:audio_max1">116</property>
 </producer>
 <producer id="producer547" in="00:00:00.000" out="00:00:04.950">
  <property name="length">298</property>
  <property name="eof">pause</property>
  <property name="resource">/home/federico/Nextcloud/Kden/EditingUT/Video/Sabaku/sabaku culo esploso niente di male.mkv</property>
  <property name="audio_index">1</property>
  <property name="video_index">0</property>
  <property name="mute_on_pause">0</property>
  <property name="mlt_service">avformat-novalidate</property>
  <property name="meta.media.nb_streams">2</property>
  <property name="meta.media.0.stream.type">video</property>
  <property name="meta.media.0.stream.frame_rate">60</property>
  <property name="meta.media.0.stream.sample_aspect_ratio">1</property>
  <property name="meta.media.0.codec.width">1920</property>
  <property name="meta.media.0.codec.height">1080</property>
  <property name="meta.media.0.codec.rotate">0</property>
  <property name="meta.media.0.codec.pix_fmt">yuv420p</property>
  <property name="meta.media.0.codec.sample_aspect_ratio">1</property>
  <property name="meta.media.0.codec.colorspace">709</property>
  <property name="meta.media.0.codec.color_trc">1</property>
  <property name="meta.media.0.codec.name">h264</property>
  <property name="meta.media.0.codec.long_name">H.264 / AVC / MPEG-4 AVC / MPEG-4 part 10</property>
  <property name="meta.media.0.codec.bit_rate">0</property>
  <property name="meta.attr.0.stream.HANDLER_NAME.markup">VideoHandler</property>
  <property name="meta.attr.0.stream.VENDOR_ID.markup">[0][0][0][0]</property>
  <property name="meta.attr.0.stream.ENCODER.markup">Lavc60.31.102 libx264</property>
  <property name="meta.attr.0.stream.DURATION.markup">00:00:04.953000000</property>
  <property name="meta.media.1.stream.type">audio</property>
  <property name="meta.media.1.codec.sample_fmt">fltp</property>
  <property name="meta.media.1.codec.sample_rate">48000</property>
  <property name="meta.media.1.codec.channels">2</property>
  <property name="meta.media.1.codec.name">vorbis</property>
  <property name="meta.media.1.codec.long_name">Vorbis</property>
  <property name="meta.media.1.codec.bit_rate">0</property>
  <property name="meta.attr.1.stream.HANDLER_NAME.markup">SoundHandler</property>
  <property name="meta.attr.1.stream.VENDOR_ID.markup">[0][0][0][0]</property>
  <property name="meta.attr.1.stream.ENCODER.markup">Lavc60.31.102 libvorbis</property>
  <property name="meta.attr.1.stream.DURATION.markup">00:00:04.974000000</property>
  <property name="meta.attr.COMPATIBLE_BRANDS.markup">isomiso2avc1mp41</property>
  <property name="meta.attr.MAJOR_BRAND.markup">isom</property>
  <property name="meta.attr.MINOR_VERSION.markup">512</property>
  <property name="meta.attr.ENCODER.markup">Lavf60.16.100</property>
  <property name="seekable">1</property>
  <property name="meta.media.sample_aspect_num">1</property>
  <property name="meta.media.sample_aspect_den">1</property>
  <property name="aspect_ratio">1</property>
  <property name="format">3</property>
  <property name="kdenlive:clipname"/>
  <property name="meta.media.frame_rate_num">60</property>
  <property name="meta.media.frame_rate_den">1</property>
  <property name="meta.media.colorspace">709</property>
  <property name="meta.media.color_trc">1</property>
  <property name="meta.media.has_b_frames">2</property>
  <property name="meta.media.width">1920</property>
  <property name="meta.media.height">1080</property>
  <property name="meta.media.color_range">mpeg</property>
  <property name="meta.media.top_field_first">0</property>
  <property name="meta.media.progressive">1</property>
  <property name="kdenlive:clip_type">0</property>
  <property name="kdenlive:folderid">586</property>
  <property name="kdenlive:id">595</property>
  <property name="kdenlive:file_size">2045257</property>
  <property name="kdenlive:file_hash">646f3e14f4d50b7e66ffd347f2e1affa</property>
  <property name="kdenlive:audio_max1">177</property>
 </producer>
 <producer id="producer548" in="00:00:00.000" out="00:00:03.183">
  <property name="length">192</property>
  <property name="eof">pause</property>
  <property name="resource">/home/federico/Nextcloud/Kden/EditingUT/Video/Sabaku/sabaku dimensione goditelo.mkv</property>
  <property name="audio_index">1</property>
  <property name="video_index">0</property>
  <property name="mute_on_pause">0</property>
  <property name="mlt_service">avformat-novalidate</property>
  <property name="meta.media.nb_streams">2</property>
  <property name="meta.media.0.stream.type">video</property>
  <property name="meta.media.0.stream.frame_rate">30</property>
  <property name="meta.media.0.stream.sample_aspect_ratio">1</property>
  <property name="meta.media.0.codec.width">1920</property>
  <property name="meta.media.0.codec.height">1080</property>
  <property name="meta.media.0.codec.rotate">0</property>
  <property name="meta.media.0.codec.pix_fmt">yuv420p</property>
  <property name="meta.media.0.codec.sample_aspect_ratio">1</property>
  <property name="meta.media.0.codec.colorspace">709</property>
  <property name="meta.media.0.codec.color_trc">1</property>
  <property name="meta.media.0.codec.name">h264</property>
  <property name="meta.media.0.codec.long_name">H.264 / AVC / MPEG-4 AVC / MPEG-4 part 10</property>
  <property name="meta.media.0.codec.bit_rate">0</property>
  <property name="meta.attr.0.stream.HANDLER_NAME.markup">VideoHandler</property>
  <property name="meta.attr.0.stream.VENDOR_ID.markup">[0][0][0][0]</property>
  <property name="meta.attr.0.stream.ENCODER.markup">Lavc60.31.102 libx264</property>
  <property name="meta.attr.0.stream.DURATION.markup">00:00:03.203000000</property>
  <property name="meta.media.1.stream.type">audio</property>
  <property name="meta.media.1.codec.sample_fmt">fltp</property>
  <property name="meta.media.1.codec.sample_rate">48000</property>
  <property name="meta.media.1.codec.channels">2</property>
  <property name="meta.media.1.codec.name">vorbis</property>
  <property name="meta.media.1.codec.long_name">Vorbis</property>
  <property name="meta.media.1.codec.bit_rate">0</property>
  <property name="meta.attr.1.stream.HANDLER_NAME.markup">SoundHandler</property>
  <property name="meta.attr.1.stream.VENDOR_ID.markup">[0][0][0][0]</property>
  <property name="meta.attr.1.stream.ENCODER.markup">Lavc60.31.102 libvorbis</property>
  <property name="meta.attr.1.stream.DURATION.markup">00:00:03.203000000</property>
  <property name="meta.attr.COMPATIBLE_BRANDS.markup">isomiso2avc1mp41</property>
  <property name="meta.attr.MAJOR_BRAND.markup">isom</property>
  <property name="meta.attr.MINOR_VERSION.markup">512</property>
  <property name="meta.attr.ENCODER.markup">Lavf60.16.100</property>
  <property name="seekable">1</property>
  <property name="meta.media.sample_aspect_num">1</property>
  <property name="meta.media.sample_aspect_den">1</property>
  <property name="aspect_ratio">1</property>
  <property name="format">3</property>
  <property name="kdenlive:clipname"/>
  <property name="meta.media.frame_rate_num">30</property>
  <property name="meta.media.frame_rate_den">1</property>
  <property name="meta.media.colorspace">709</property>
  <property name="meta.media.color_trc">1</property>
  <property name="meta.media.has_b_frames">2</property>
  <property name="meta.media.width">1920</property>
  <property name="meta.media.height">1080</property>
  <property name="meta.media.color_range">mpeg</property>
  <property name="meta.media.top_field_first">0</property>
  <property name="meta.media.progressive">1</property>
  <property name="kdenlive:clip_type">0</property>
  <property name="kdenlive:folderid">586</property>
  <property name="kdenlive:id">596</property>
  <property name="kdenlive:file_size">2209053</property>
  <property name="kdenlive:file_hash">2e3c7fb6155dc583d139979d4e84c0df</property>
  <property name="kdenlive:audio_max1">228</property>
 </producer>
 <producer id="producer551" in="00:00:00.000" out="00:00:01.817">
  <property name="length">110</property>
  <property name="eof">pause</property>
  <property name="resource">/home/federico/Nextcloud/Kden/EditingUT/Video/Sabaku/sabaku fanculo.mkv</property>
  <property name="audio_index">1</property>
  <property name="video_index">0</property>
  <property name="mute_on_pause">0</property>
  <property name="mlt_service">avformat-novalidate</property>
  <property name="meta.media.nb_streams">2</property>
  <property name="meta.media.0.stream.type">video</property>
  <property name="meta.media.0.stream.frame_rate">60</property>
  <property name="meta.media.0.stream.sample_aspect_ratio">1</property>
  <property name="meta.media.0.codec.width">1920</property>
  <property name="meta.media.0.codec.height">1080</property>
  <property name="meta.media.0.codec.rotate">0</property>
  <property name="meta.media.0.codec.pix_fmt">yuv420p</property>
  <property name="meta.media.0.codec.sample_aspect_ratio">1</property>
  <property name="meta.media.0.codec.colorspace">709</property>
  <property name="meta.media.0.codec.color_trc">1</property>
  <property name="meta.media.0.codec.name">h264</property>
  <property name="meta.media.0.codec.long_name">H.264 / AVC / MPEG-4 AVC / MPEG-4 part 10</property>
  <property name="meta.media.0.codec.bit_rate">0</property>
  <property name="meta.attr.0.stream.HANDLER_NAME.markup">VideoHandler</property>
  <property name="meta.attr.0.stream.VENDOR_ID.markup">[0][0][0][0]</property>
  <property name="meta.attr.0.stream.ENCODER.markup">Lavc60.31.102 libx264</property>
  <property name="meta.attr.0.stream.DURATION.markup">00:00:01.837000000</property>
  <property name="meta.media.1.stream.type">audio</property>
  <property name="meta.media.1.codec.sample_fmt">fltp</property>
  <property name="meta.media.1.codec.sample_rate">48000</property>
  <property name="meta.media.1.codec.channels">2</property>
  <property name="meta.media.1.codec.name">vorbis</property>
  <property name="meta.media.1.codec.long_name">Vorbis</property>
  <property name="meta.media.1.codec.bit_rate">0</property>
  <property name="meta.attr.1.stream.HANDLER_NAME.markup">SoundHandler</property>
  <property name="meta.attr.1.stream.VENDOR_ID.markup">[0][0][0][0]</property>
  <property name="meta.attr.1.stream.ENCODER.markup">Lavc60.31.102 libvorbis</property>
  <property name="meta.attr.1.stream.DURATION.markup">00:00:01.838000000</property>
  <property name="meta.attr.COMPATIBLE_BRANDS.markup">isomiso2avc1mp41</property>
  <property name="meta.attr.MAJOR_BRAND.markup">isom</property>
  <property name="meta.attr.MINOR_VERSION.markup">512</property>
  <property name="meta.attr.ENCODER.markup">Lavf60.16.100</property>
  <property name="seekable">1</property>
  <property name="meta.media.sample_aspect_num">1</property>
  <property name="meta.media.sample_aspect_den">1</property>
  <property name="aspect_ratio">1</property>
  <property name="format">3</property>
  <property name="kdenlive:clipname"/>
  <property name="meta.media.frame_rate_num">60</property>
  <property name="meta.media.frame_rate_den">1</property>
  <property name="meta.media.colorspace">709</property>
  <property name="meta.media.color_trc">1</property>
  <property name="meta.media.has_b_frames">2</property>
  <property name="meta.media.width">1920</property>
  <property name="meta.media.height">1080</property>
  <property name="meta.media.color_range">mpeg</property>
  <property name="meta.media.top_field_first">0</property>
  <property name="meta.media.progressive">1</property>
  <property name="kdenlive:clip_type">0</property>
  <property name="kdenlive:folderid">586</property>
  <property name="kdenlive:id">597</property>
  <property name="kdenlive:file_size">1052738</property>
  <property name="kdenlive:file_hash">0e2c7764a3254ca74b5b257922d46092</property>
  <property name="kdenlive:audio_max1">193</property>
 </producer>
 <producer id="producer549" in="00:00:00.000" out="00:00:03.650">
  <property name="length">220</property>
  <property name="eof">pause</property>
  <property name="resource">/home/federico/Nextcloud/Kden/EditingUT/Video/Sabaku/sabaku gameplay.mkv</property>
  <property name="audio_index">1</property>
  <property name="video_index">0</property>
  <property name="mute_on_pause">0</property>
  <property name="mlt_service">avformat-novalidate</property>
  <property name="meta.media.nb_streams">2</property>
  <property name="meta.media.0.stream.type">video</property>
  <property name="meta.media.0.stream.frame_rate">30</property>
  <property name="meta.media.0.stream.sample_aspect_ratio">1</property>
  <property name="meta.media.0.codec.width">1920</property>
  <property name="meta.media.0.codec.height">1080</property>
  <property name="meta.media.0.codec.rotate">0</property>
  <property name="meta.media.0.codec.pix_fmt">yuv420p</property>
  <property name="meta.media.0.codec.sample_aspect_ratio">1</property>
  <property name="meta.media.0.codec.colorspace">709</property>
  <property name="meta.media.0.codec.color_trc">1</property>
  <property name="meta.media.0.codec.name">h264</property>
  <property name="meta.media.0.codec.long_name">H.264 / AVC / MPEG-4 AVC / MPEG-4 part 10</property>
  <property name="meta.media.0.codec.bit_rate">0</property>
  <property name="meta.attr.0.stream.HANDLER_NAME.markup">VideoHandler</property>
  <property name="meta.attr.0.stream.VENDOR_ID.markup">[0][0][0][0]</property>
  <property name="meta.attr.0.stream.ENCODER.markup">Lavc60.31.102 libx264</property>
  <property name="meta.attr.0.stream.DURATION.markup">00:00:03.669000000</property>
  <property name="meta.media.1.stream.type">audio</property>
  <property name="meta.media.1.codec.sample_fmt">fltp</property>
  <property name="meta.media.1.codec.sample_rate">48000</property>
  <property name="meta.media.1.codec.channels">2</property>
  <property name="meta.media.1.codec.name">vorbis</property>
  <property name="meta.media.1.codec.long_name">Vorbis</property>
  <property name="meta.media.1.codec.bit_rate">0</property>
  <property name="meta.attr.1.stream.HANDLER_NAME.markup">SoundHandler</property>
  <property name="meta.attr.1.stream.VENDOR_ID.markup">[0][0][0][0]</property>
  <property name="meta.attr.1.stream.ENCODER.markup">Lavc60.31.102 libvorbis</property>
  <property name="meta.attr.1.stream.DURATION.markup">00:00:03.672000000</property>
  <property name="meta.attr.COMPATIBLE_BRANDS.markup">isomiso2avc1mp41</property>
  <property name="meta.attr.MAJOR_BRAND.markup">isom</property>
  <property name="meta.attr.MINOR_VERSION.markup">512</property>
  <property name="meta.attr.ENCODER.markup">Lavf60.16.100</property>
  <property name="seekable">1</property>
  <property name="meta.media.sample_aspect_num">1</property>
  <property name="meta.media.sample_aspect_den">1</property>
  <property name="aspect_ratio">1</property>
  <property name="format">3</property>
  <property name="kdenlive:clipname"/>
  <property name="meta.media.frame_rate_num">30</property>
  <property name="meta.media.frame_rate_den">1</property>
  <property name="meta.media.colorspace">709</property>
  <property name="meta.media.color_trc">1</property>
  <property name="meta.media.has_b_frames">2</property>
  <property name="meta.media.width">1920</property>
  <property name="meta.media.height">1080</property>
  <property name="meta.media.color_range">mpeg</property>
  <property name="meta.media.top_field_first">0</property>
  <property name="meta.media.progressive">1</property>
  <property name="kdenlive:clip_type">0</property>
  <property name="kdenlive:folderid">586</property>
  <property name="kdenlive:id">598</property>
  <property name="kdenlive:file_size">481511</property>
  <property name="kdenlive:file_hash">e6cfad166cdbbd74bae84ddf5eedf6f4</property>
  <property name="kdenlive:audio_max1">245</property>
 </producer>
 <producer id="producer550" in="00:00:00.000" out="00:00:05.783">
  <property name="length">348</property>
  <property name="eof">pause</property>
  <property name="resource">/home/federico/Nextcloud/Kden/EditingUT/Video/Sabaku/sabaku gorilla versi scimmia monkas alieni.mkv</property>
  <property name="audio_index">1</property>
  <property name="video_index">0</property>
  <property name="mute_on_pause">0</property>
  <property name="mlt_service">avformat-novalidate</property>
  <property name="meta.media.nb_streams">2</property>
  <property name="meta.media.0.stream.type">video</property>
  <property name="meta.media.0.stream.frame_rate">60</property>
  <property name="meta.media.0.stream.sample_aspect_ratio">1</property>
  <property name="meta.media.0.codec.width">1920</property>
  <property name="meta.media.0.codec.height">1080</property>
  <property name="meta.media.0.codec.rotate">0</property>
  <property name="meta.media.0.codec.pix_fmt">yuv420p</property>
  <property name="meta.media.0.codec.sample_aspect_ratio">1</property>
  <property name="meta.media.0.codec.colorspace">709</property>
  <property name="meta.media.0.codec.color_trc">1</property>
  <property name="meta.media.0.codec.name">h264</property>
  <property name="meta.media.0.codec.long_name">H.264 / AVC / MPEG-4 AVC / MPEG-4 part 10</property>
  <property name="meta.media.0.codec.bit_rate">0</property>
  <property name="meta.attr.0.stream.HANDLER_NAME.markup">VideoHandler</property>
  <property name="meta.attr.0.stream.VENDOR_ID.markup">[0][0][0][0]</property>
  <property name="meta.attr.0.stream.ENCODER.markup">Lavc60.31.102 libx264</property>
  <property name="meta.attr.0.stream.DURATION.markup">00:00:05.803000000</property>
  <property name="meta.media.1.stream.type">audio</property>
  <property name="meta.media.1.codec.sample_fmt">fltp</property>
  <property name="meta.media.1.codec.sample_rate">48000</property>
  <property name="meta.media.1.codec.channels">2</property>
  <property name="meta.media.1.codec.name">vorbis</property>
  <property name="meta.media.1.codec.long_name">Vorbis</property>
  <property name="meta.media.1.codec.bit_rate">0</property>
  <property name="meta.attr.1.stream.HANDLER_NAME.markup">SoundHandler</property>
  <property name="meta.attr.1.stream.VENDOR_ID.markup">[0][0][0][0]</property>
  <property name="meta.attr.1.stream.ENCODER.markup">Lavc60.31.102 libvorbis</property>
  <property name="meta.attr.1.stream.DURATION.markup">00:00:05.806000000</property>
  <property name="meta.attr.COMPATIBLE_BRANDS.markup">isomiso2avc1mp41</property>
  <property name="meta.attr.MAJOR_BRAND.markup">isom</property>
  <property name="meta.attr.MINOR_VERSION.markup">512</property>
  <property name="meta.attr.ENCODER.markup">Lavf60.16.100</property>
  <property name="seekable">1</property>
  <property name="meta.media.sample_aspect_num">1</property>
  <property name="meta.media.sample_aspect_den">1</property>
  <property name="aspect_ratio">1</property>
  <property name="format">3</property>
  <property name="kdenlive:clipname"/>
  <property name="meta.media.frame_rate_num">60</property>
  <property name="meta.media.frame_rate_den">1</property>
  <property name="meta.media.colorspace">709</property>
  <property name="meta.media.color_trc">1</property>
  <property name="meta.media.has_b_frames">2</property>
  <property name="meta.media.width">1920</property>
  <property name="meta.media.height">1080</property>
  <property name="meta.media.color_range">mpeg</property>
  <property name="meta.media.top_field_first">0</property>
  <property name="meta.media.progressive">1</property>
  <property name="kdenlive:clip_type">0</property>
  <property name="kdenlive:folderid">586</property>
  <property name="kdenlive:id">599</property>
  <property name="kdenlive:file_size">955679</property>
  <property name="kdenlive:file_hash">b26ab6f6105ca7f545b408d226cae954</property>
  <property name="kdenlive:audio_max1">195</property>
 </producer>
 <producer id="producer552" in="00:00:00.000" out="00:00:06.333">
  <property name="length">381</property>
  <property name="eof">pause</property>
  <property name="resource">/home/federico/Nextcloud/Kden/EditingUT/Video/Sabaku/sabaku imita zeb89.mkv</property>
  <property name="audio_index">1</property>
  <property name="video_index">0</property>
  <property name="mute_on_pause">0</property>
  <property name="mlt_service">avformat-novalidate</property>
  <property name="meta.media.nb_streams">2</property>
  <property name="meta.media.0.stream.type">video</property>
  <property name="meta.media.0.stream.frame_rate">60</property>
  <property name="meta.media.0.stream.sample_aspect_ratio">1</property>
  <property name="meta.media.0.codec.width">1920</property>
  <property name="meta.media.0.codec.height">1080</property>
  <property name="meta.media.0.codec.rotate">0</property>
  <property name="meta.media.0.codec.pix_fmt">yuv420p</property>
  <property name="meta.media.0.codec.sample_aspect_ratio">1</property>
  <property name="meta.media.0.codec.colorspace">709</property>
  <property name="meta.media.0.codec.color_trc">1</property>
  <property name="meta.media.0.codec.name">h264</property>
  <property name="meta.media.0.codec.long_name">H.264 / AVC / MPEG-4 AVC / MPEG-4 part 10</property>
  <property name="meta.media.0.codec.bit_rate">0</property>
  <property name="meta.attr.0.stream.DURATION.markup">00:00:06.334000000</property>
  <property name="meta.media.1.stream.type">audio</property>
  <property name="meta.media.1.codec.sample_fmt">fltp</property>
  <property name="meta.media.1.codec.sample_rate">48000</property>
  <property name="meta.media.1.codec.channels">2</property>
  <property name="meta.media.1.codec.name">aac</property>
  <property name="meta.media.1.codec.long_name">AAC (Advanced Audio Coding)</property>
  <property name="meta.media.1.codec.bit_rate">0</property>
  <property name="meta.attr.1.stream.DURATION.markup">00:00:06.357000000</property>
  <property name="meta.attr.ENCODER.markup">Lavf61.7.100</property>
  <property name="seekable">1</property>
  <property name="meta.media.sample_aspect_num">1</property>
  <property name="meta.media.sample_aspect_den">1</property>
  <property name="aspect_ratio">1</property>
  <property name="format">3</property>
  <property name="kdenlive:clipname"/>
  <property name="meta.media.frame_rate_num">60</property>
  <property name="meta.media.frame_rate_den">1</property>
  <property name="meta.media.colorspace">709</property>
  <property name="meta.media.color_trc">1</property>
  <property name="meta.media.has_b_frames">2</property>
  <property name="meta.media.width">1920</property>
  <property name="meta.media.height">1080</property>
  <property name="meta.media.color_range">mpeg</property>
  <property name="meta.media.top_field_first">0</property>
  <property name="meta.media.progressive">1</property>
  <property name="kdenlive:clip_type">0</property>
  <property name="kdenlive:folderid">586</property>
  <property name="kdenlive:id">600</property>
  <property name="kdenlive:file_size">1121125</property>
  <property name="kdenlive:file_hash">1bd7958ae1a8d5ebe424edca9c9dc5ff</property>
  <property name="kdenlive:audio_max1">199</property>
 </producer>
 <producer id="producer553" in="00:00:00.000" out="00:00:01.933">
  <property name="length">117</property>
  <property name="eof">pause</property>
  <property name="resource">/home/federico/Nextcloud/Kden/EditingUT/Video/Sabaku/sabaku io sono una puttana.mkv</property>
  <property name="audio_index">1</property>
  <property name="video_index">0</property>
  <property name="mute_on_pause">0</property>
  <property name="mlt_service">avformat-novalidate</property>
  <property name="meta.media.nb_streams">2</property>
  <property name="meta.media.0.stream.type">video</property>
  <property name="meta.media.0.stream.frame_rate">30</property>
  <property name="meta.media.0.stream.sample_aspect_ratio">1</property>
  <property name="meta.media.0.codec.width">1920</property>
  <property name="meta.media.0.codec.height">1080</property>
  <property name="meta.media.0.codec.rotate">0</property>
  <property name="meta.media.0.codec.pix_fmt">yuv420p</property>
  <property name="meta.media.0.codec.sample_aspect_ratio">1</property>
  <property name="meta.media.0.codec.colorspace">709</property>
  <property name="meta.media.0.codec.color_trc">1</property>
  <property name="meta.media.0.codec.name">h264</property>
  <property name="meta.media.0.codec.long_name">H.264 / AVC / MPEG-4 AVC / MPEG-4 part 10</property>
  <property name="meta.media.0.codec.bit_rate">0</property>
  <property name="meta.attr.0.stream.HANDLER_NAME.markup">VideoHandler</property>
  <property name="meta.attr.0.stream.VENDOR_ID.markup">[0][0][0][0]</property>
  <property name="meta.attr.0.stream.ENCODER.markup">Lavc60.31.102 libx264</property>
  <property name="meta.attr.0.stream.DURATION.markup">00:00:01.936000000</property>
  <property name="meta.media.1.stream.type">audio</property>
  <property name="meta.media.1.codec.sample_fmt">fltp</property>
  <property name="meta.media.1.codec.sample_rate">48000</property>
  <property name="meta.media.1.codec.channels">2</property>
  <property name="meta.media.1.codec.name">vorbis</property>
  <property name="meta.media.1.codec.long_name">Vorbis</property>
  <property name="meta.media.1.codec.bit_rate">0</property>
  <property name="meta.attr.1.stream.HANDLER_NAME.markup">SoundHandler</property>
  <property name="meta.attr.1.stream.VENDOR_ID.markup">[0][0][0][0]</property>
  <property name="meta.attr.1.stream.ENCODER.markup">Lavc60.31.102 libvorbis</property>
  <property name="meta.attr.1.stream.DURATION.markup">00:00:01.944000000</property>
  <property name="meta.attr.COMPATIBLE_BRANDS.markup">isomiso2avc1mp41</property>
  <property name="meta.attr.MAJOR_BRAND.markup">isom</property>
  <property name="meta.attr.MINOR_VERSION.markup">512</property>
  <property name="meta.attr.ENCODER.markup">Lavf60.16.100</property>
  <property name="seekable">1</property>
  <property name="meta.media.sample_aspect_num">1</property>
  <property name="meta.media.sample_aspect_den">1</property>
  <property name="aspect_ratio">1</property>
  <property name="format">3</property>
  <property name="kdenlive:clipname"/>
  <property name="meta.media.frame_rate_num">30</property>
  <property name="meta.media.frame_rate_den">1</property>
  <property name="meta.media.colorspace">709</property>
  <property name="meta.media.color_trc">1</property>
  <property name="meta.media.has_b_frames">2</property>
  <property name="meta.media.width">1920</property>
  <property name="meta.media.height">1080</property>
  <property name="meta.media.color_range">mpeg</property>
  <property name="meta.media.top_field_first">0</property>
  <property name="meta.media.progressive">1</property>
  <property name="kdenlive:clip_type">0</property>
  <property name="kdenlive:folderid">586</property>
  <property name="kdenlive:id">601</property>
  <property name="kdenlive:file_size">309195</property>
  <property name="kdenlive:file_hash">ac5302e4c53f556745603e272c56edb9</property>
  <property name="kdenlive:audio_max1">148</property>
 </producer>
 <producer id="producer554" in="00:00:00.000" out="00:00:12.833">
  <property name="length">771</property>
  <property name="eof">pause</property>
  <property name="resource">/home/federico/Nextcloud/Kden/EditingUT/Video/Sabaku/sabaku jumpscare paura porca puttana.mkv</property>
  <property name="audio_index">1</property>
  <property name="video_index">0</property>
  <property name="mute_on_pause">0</property>
  <property name="mlt_service">avformat-novalidate</property>
  <property name="meta.media.nb_streams">2</property>
  <property name="meta.media.0.stream.type">video</property>
  <property name="meta.media.0.stream.frame_rate">60</property>
  <property name="meta.media.0.stream.sample_aspect_ratio">1</property>
  <property name="meta.media.0.codec.width">1920</property>
  <property name="meta.media.0.codec.height">1080</property>
  <property name="meta.media.0.codec.rotate">0</property>
  <property name="meta.media.0.codec.pix_fmt">yuv420p</property>
  <property name="meta.media.0.codec.sample_aspect_ratio">1</property>
  <property name="meta.media.0.codec.colorspace">709</property>
  <property name="meta.media.0.codec.color_trc">1</property>
  <property name="meta.media.0.codec.name">h264</property>
  <property name="meta.media.0.codec.long_name">H.264 / AVC / MPEG-4 AVC / MPEG-4 part 10</property>
  <property name="meta.media.0.codec.bit_rate">0</property>
  <property name="meta.attr.0.stream.HANDLER_NAME.markup">VideoHandler</property>
  <property name="meta.attr.0.stream.VENDOR_ID.markup">[0][0][0][0]</property>
  <property name="meta.attr.0.stream.ENCODER.markup">Lavc60.31.102 libx264</property>
  <property name="meta.attr.0.stream.DURATION.markup">00:00:12.837000000</property>
  <property name="meta.media.1.stream.type">audio</property>
  <property name="meta.media.1.codec.sample_fmt">fltp</property>
  <property name="meta.media.1.codec.sample_rate">48000</property>
  <property name="meta.media.1.codec.channels">2</property>
  <property name="meta.media.1.codec.name">vorbis</property>
  <property name="meta.media.1.codec.long_name">Vorbis</property>
  <property name="meta.media.1.codec.bit_rate">0</property>
  <property name="meta.attr.1.stream.HANDLER_NAME.markup">SoundHandler</property>
  <property name="meta.attr.1.stream.VENDOR_ID.markup">[0][0][0][0]</property>
  <property name="meta.attr.1.stream.ENCODER.markup">Lavc60.31.102 libvorbis</property>
  <property name="meta.attr.1.stream.DURATION.markup">00:00:12.845000000</property>
  <property name="meta.attr.COMPATIBLE_BRANDS.markup">isomiso2avc1mp41</property>
  <property name="meta.attr.MAJOR_BRAND.markup">isom</property>
  <property name="meta.attr.MINOR_VERSION.markup">512</property>
  <property name="meta.attr.ENCODER.markup">Lavf60.16.100</property>
  <property name="seekable">1</property>
  <property name="meta.media.sample_aspect_num">1</property>
  <property name="meta.media.sample_aspect_den">1</property>
  <property name="aspect_ratio">1</property>
  <property name="format">3</property>
  <property name="kdenlive:clipname"/>
  <property name="meta.media.frame_rate_num">60</property>
  <property name="meta.media.frame_rate_den">1</property>
  <property name="meta.media.colorspace">709</property>
  <property name="meta.media.color_trc">1</property>
  <property name="meta.media.has_b_frames">2</property>
  <property name="meta.media.width">1920</property>
  <property name="meta.media.height">1080</property>
  <property name="meta.media.color_range">mpeg</property>
  <property name="meta.media.top_field_first">0</property>
  <property name="meta.media.progressive">1</property>
  <property name="kdenlive:clip_type">0</property>
  <property name="kdenlive:folderid">586</property>
  <property name="kdenlive:id">602</property>
  <property name="kdenlive:file_size">6947550</property>
  <property name="kdenlive:file_hash">aeb308e8d24b2293d2bd71ffcc474ebc</property>
  <property name="kdenlive:audio_max1">206</property>
 </producer>
 <producer id="producer556" in="00:00:00.000" out="00:00:02.850">
  <property name="length">172</property>
  <property name="eof">pause</property>
  <property name="resource">/home/federico/Nextcloud/Kden/EditingUT/Video/Sabaku/sabaku le gag roundabout continued.mkv</property>
  <property name="audio_index">1</property>
  <property name="video_index">0</property>
  <property name="mute_on_pause">0</property>
  <property name="mlt_service">avformat-novalidate</property>
  <property name="meta.media.nb_streams">2</property>
  <property name="meta.media.0.stream.type">video</property>
  <property name="meta.media.0.stream.frame_rate">60</property>
  <property name="meta.media.0.stream.sample_aspect_ratio">1</property>
  <property name="meta.media.0.codec.width">1920</property>
  <property name="meta.media.0.codec.height">1080</property>
  <property name="meta.media.0.codec.rotate">0</property>
  <property name="meta.media.0.codec.pix_fmt">yuv420p</property>
  <property name="meta.media.0.codec.sample_aspect_ratio">1</property>
  <property name="meta.media.0.codec.colorspace">709</property>
  <property name="meta.media.0.codec.color_trc">1</property>
  <property name="meta.media.0.codec.name">h264</property>
  <property name="meta.media.0.codec.long_name">H.264 / AVC / MPEG-4 AVC / MPEG-4 part 10</property>
  <property name="meta.media.0.codec.bit_rate">0</property>
  <property name="meta.attr.0.stream.HANDLER_NAME.markup">VideoHandler</property>
  <property name="meta.attr.0.stream.VENDOR_ID.markup">[0][0][0][0]</property>
  <property name="meta.attr.0.stream.ENCODER.markup">Lavc60.31.102 libx264</property>
  <property name="meta.attr.0.stream.DURATION.markup">00:00:02.853000000</property>
  <property name="meta.media.1.stream.type">audio</property>
  <property name="meta.media.1.codec.sample_fmt">fltp</property>
  <property name="meta.media.1.codec.sample_rate">48000</property>
  <property name="meta.media.1.codec.channels">2</property>
  <property name="meta.media.1.codec.name">vorbis</property>
  <property name="meta.media.1.codec.long_name">Vorbis</property>
  <property name="meta.media.1.codec.bit_rate">0</property>
  <property name="meta.attr.1.stream.HANDLER_NAME.markup">SoundHandler</property>
  <property name="meta.attr.1.stream.VENDOR_ID.markup">[0][0][0][0]</property>
  <property name="meta.attr.1.stream.ENCODER.markup">Lavc60.31.102 libvorbis</property>
  <property name="meta.attr.1.stream.DURATION.markup">00:00:02.862000000</property>
  <property name="meta.attr.COMPATIBLE_BRANDS.markup">isomiso2avc1mp41</property>
  <property name="meta.attr.MAJOR_BRAND.markup">isom</property>
  <property name="meta.attr.MINOR_VERSION.markup">512</property>
  <property name="meta.attr.ENCODER.markup">Lavf60.16.100</property>
  <property name="seekable">1</property>
  <property name="meta.media.sample_aspect_num">1</property>
  <property name="meta.media.sample_aspect_den">1</property>
  <property name="aspect_ratio">1</property>
  <property name="format">3</property>
  <property name="kdenlive:clipname"/>
  <property name="meta.media.frame_rate_num">60</property>
  <property name="meta.media.frame_rate_den">1</property>
  <property name="meta.media.colorspace">709</property>
  <property name="meta.media.color_trc">1</property>
  <property name="meta.media.has_b_frames">2</property>
  <property name="meta.media.width">1920</property>
  <property name="meta.media.height">1080</property>
  <property name="meta.media.color_range">mpeg</property>
  <property name="meta.media.top_field_first">0</property>
  <property name="meta.media.progressive">1</property>
  <property name="kdenlive:clip_type">0</property>
  <property name="kdenlive:folderid">586</property>
  <property name="kdenlive:id">603</property>
  <property name="kdenlive:file_size">2969181</property>
  <property name="kdenlive:file_hash">58838e81a1b08c02e7f8ed26e593616e</property>
  <property name="kdenlive:audio_max1">195</property>
 </producer>
 <producer id="producer555" in="00:00:00.000" out="00:00:03.717">
  <property name="length">224</property>
  <property name="eof">pause</property>
  <property name="resource">/home/federico/Nextcloud/Kden/EditingUT/Video/Sabaku/sabaku leeroy jenkins.mkv</property>
  <property name="audio_index">1</property>
  <property name="video_index">0</property>
  <property name="mute_on_pause">0</property>
  <property name="mlt_service">avformat-novalidate</property>
  <property name="meta.media.nb_streams">2</property>
  <property name="meta.media.0.stream.type">video</property>
  <property name="meta.media.0.stream.frame_rate">30</property>
  <property name="meta.media.0.stream.sample_aspect_ratio">1</property>
  <property name="meta.media.0.codec.width">1920</property>
  <property name="meta.media.0.codec.height">1080</property>
  <property name="meta.media.0.codec.rotate">0</property>
  <property name="meta.media.0.codec.pix_fmt">yuv420p</property>
  <property name="meta.media.0.codec.sample_aspect_ratio">1</property>
  <property name="meta.media.0.codec.colorspace">709</property>
  <property name="meta.media.0.codec.color_trc">1</property>
  <property name="meta.media.0.codec.name">h264</property>
  <property name="meta.media.0.codec.long_name">H.264 / AVC / MPEG-4 AVC / MPEG-4 part 10</property>
  <property name="meta.media.0.codec.bit_rate">0</property>
  <property name="meta.attr.0.stream.HANDLER_NAME.markup">VideoHandler</property>
  <property name="meta.attr.0.stream.VENDOR_ID.markup">[0][0][0][0]</property>
  <property name="meta.attr.0.stream.ENCODER.markup">Lavc60.31.102 libx264</property>
  <property name="meta.attr.0.stream.DURATION.markup">00:00:03.736000000</property>
  <property name="meta.media.1.stream.type">audio</property>
  <property name="meta.media.1.codec.sample_fmt">fltp</property>
  <property name="meta.media.1.codec.sample_rate">48000</property>
  <property name="meta.media.1.codec.channels">2</property>
  <property name="meta.media.1.codec.name">vorbis</property>
  <property name="meta.media.1.codec.long_name">Vorbis</property>
  <property name="meta.media.1.codec.bit_rate">0</property>
  <property name="meta.attr.1.stream.HANDLER_NAME.markup">SoundHandler</property>
  <property name="meta.attr.1.stream.VENDOR_ID.markup">[0][0][0][0]</property>
  <property name="meta.attr.1.stream.ENCODER.markup">Lavc60.31.102 libvorbis</property>
  <property name="meta.attr.1.stream.DURATION.markup">00:00:03.736000000</property>
  <property name="meta.attr.COMPATIBLE_BRANDS.markup">isomiso2avc1mp41</property>
  <property name="meta.attr.MAJOR_BRAND.markup">isom</property>
  <property name="meta.attr.MINOR_VERSION.markup">512</property>
  <property name="meta.attr.ENCODER.markup">Lavf60.16.100</property>
  <property name="seekable">1</property>
  <property name="meta.media.sample_aspect_num">1</property>
  <property name="meta.media.sample_aspect_den">1</property>
  <property name="aspect_ratio">1</property>
  <property name="format">3</property>
  <property name="kdenlive:clipname"/>
  <property name="meta.media.frame_rate_num">30</property>
  <property name="meta.media.frame_rate_den">1</property>
  <property name="meta.media.colorspace">709</property>
  <property name="meta.media.color_trc">1</property>
  <property name="meta.media.has_b_frames">2</property>
  <property name="meta.media.width">1920</property>
  <property name="meta.media.height">1080</property>
  <property name="meta.media.color_range">mpeg</property>
  <property name="meta.media.top_field_first">0</property>
  <property name="meta.media.progressive">1</property>
  <property name="kdenlive:clip_type">0</property>
  <property name="kdenlive:folderid">586</property>
  <property name="kdenlive:id">604</property>
  <property name="kdenlive:file_size">3629113</property>
  <property name="kdenlive:file_hash">e3a51c1178d939d4d0062d4dc403ceba</property>
  <property name="kdenlive:audio_max1">208</property>
 </producer>
 <producer id="producer557" in="00:00:00.000" out="00:00:01.900">
  <property name="length">115</property>
  <property name="eof">pause</property>
  <property name="resource">/home/federico/Nextcloud/Kden/EditingUT/Video/Sabaku/sabaku ma che cazzo di problemi hai.mkv</property>
  <property name="audio_index">1</property>
  <property name="video_index">0</property>
  <property name="mute_on_pause">0</property>
  <property name="mlt_service">avformat-novalidate</property>
  <property name="meta.media.nb_streams">2</property>
  <property name="meta.media.0.stream.type">video</property>
  <property name="meta.media.0.stream.frame_rate">30</property>
  <property name="meta.media.0.stream.sample_aspect_ratio">1</property>
  <property name="meta.media.0.codec.width">1920</property>
  <property name="meta.media.0.codec.height">1080</property>
  <property name="meta.media.0.codec.rotate">0</property>
  <property name="meta.media.0.codec.pix_fmt">yuv420p</property>
  <property name="meta.media.0.codec.sample_aspect_ratio">1</property>
  <property name="meta.media.0.codec.colorspace">709</property>
  <property name="meta.media.0.codec.color_trc">1</property>
  <property name="meta.media.0.codec.name">h264</property>
  <property name="meta.media.0.codec.long_name">H.264 / AVC / MPEG-4 AVC / MPEG-4 part 10</property>
  <property name="meta.media.0.codec.bit_rate">0</property>
  <property name="meta.attr.0.stream.HANDLER_NAME.markup">VideoHandler</property>
  <property name="meta.attr.0.stream.VENDOR_ID.markup">[0][0][0][0]</property>
  <property name="meta.attr.0.stream.ENCODER.markup">Lavc60.31.102 libx264</property>
  <property name="meta.attr.0.stream.DURATION.markup">00:00:01.903000000</property>
  <property name="meta.media.1.stream.type">audio</property>
  <property name="meta.media.1.codec.sample_fmt">fltp</property>
  <property name="meta.media.1.codec.sample_rate">48000</property>
  <property name="meta.media.1.codec.channels">2</property>
  <property name="meta.media.1.codec.name">vorbis</property>
  <property name="meta.media.1.codec.long_name">Vorbis</property>
  <property name="meta.media.1.codec.bit_rate">0</property>
  <property name="meta.attr.1.stream.HANDLER_NAME.markup">SoundHandler</property>
  <property name="meta.attr.1.stream.VENDOR_ID.markup">[0][0][0][0]</property>
  <property name="meta.attr.1.stream.ENCODER.markup">Lavc60.31.102 libvorbis</property>
  <property name="meta.attr.1.stream.DURATION.markup">00:00:01.923000000</property>
  <property name="meta.attr.COMPATIBLE_BRANDS.markup">isomiso2avc1mp41</property>
  <property name="meta.attr.MAJOR_BRAND.markup">isom</property>
  <property name="meta.attr.MINOR_VERSION.markup">512</property>
  <property name="meta.attr.ENCODER.markup">Lavf60.16.100</property>
  <property name="seekable">1</property>
  <property name="meta.media.sample_aspect_num">1</property>
  <property name="meta.media.sample_aspect_den">1</property>
  <property name="aspect_ratio">1</property>
  <property name="format">3</property>
  <property name="kdenlive:clipname"/>
  <property name="meta.media.frame_rate_num">30</property>
  <property name="meta.media.frame_rate_den">1</property>
  <property name="meta.media.colorspace">709</property>
  <property name="meta.media.color_trc">1</property>
  <property name="meta.media.has_b_frames">2</property>
  <property name="meta.media.width">1920</property>
  <property name="meta.media.height">1080</property>
  <property name="meta.media.color_range">mpeg</property>
  <property name="meta.media.top_field_first">0</property>
  <property name="meta.media.progressive">1</property>
  <property name="kdenlive:clip_type">0</property>
  <property name="kdenlive:folderid">586</property>
  <property name="kdenlive:id">605</property>
  <property name="kdenlive:file_size">668976</property>
  <property name="kdenlive:file_hash">33a21f9050269a4f291810fa85715a07</property>
  <property name="kdenlive:audio_max1">203</property>
 </producer>
 <producer id="producer558" in="00:00:00.000" out="00:00:03.033">
  <property name="length">183</property>
  <property name="eof">pause</property>
  <property name="resource">/home/federico/Nextcloud/Kden/EditingUT/Video/Sabaku/sabaku momento souls.mkv</property>
  <property name="audio_index">1</property>
  <property name="video_index">0</property>
  <property name="mute_on_pause">0</property>
  <property name="mlt_service">avformat-novalidate</property>
  <property name="meta.media.nb_streams">2</property>
  <property name="meta.media.0.stream.type">video</property>
  <property name="meta.media.0.stream.frame_rate">30</property>
  <property name="meta.media.0.stream.sample_aspect_ratio">1</property>
  <property name="meta.media.0.codec.width">1920</property>
  <property name="meta.media.0.codec.height">1080</property>
  <property name="meta.media.0.codec.rotate">0</property>
  <property name="meta.media.0.codec.pix_fmt">yuv420p</property>
  <property name="meta.media.0.codec.sample_aspect_ratio">1</property>
  <property name="meta.media.0.codec.colorspace">709</property>
  <property name="meta.media.0.codec.color_trc">1</property>
  <property name="meta.media.0.codec.name">h264</property>
  <property name="meta.media.0.codec.long_name">H.264 / AVC / MPEG-4 AVC / MPEG-4 part 10</property>
  <property name="meta.media.0.codec.bit_rate">0</property>
  <property name="meta.attr.0.stream.HANDLER_NAME.markup">VideoHandler</property>
  <property name="meta.attr.0.stream.VENDOR_ID.markup">[0][0][0][0]</property>
  <property name="meta.attr.0.stream.ENCODER.markup">Lavc60.31.102 libx264</property>
  <property name="meta.attr.0.stream.DURATION.markup">00:00:03.036000000</property>
  <property name="meta.media.1.stream.type">audio</property>
  <property name="meta.media.1.codec.sample_fmt">fltp</property>
  <property name="meta.media.1.codec.sample_rate">48000</property>
  <property name="meta.media.1.codec.channels">2</property>
  <property name="meta.media.1.codec.name">vorbis</property>
  <property name="meta.media.1.codec.long_name">Vorbis</property>
  <property name="meta.media.1.codec.bit_rate">0</property>
  <property name="meta.attr.1.stream.HANDLER_NAME.markup">SoundHandler</property>
  <property name="meta.attr.1.stream.VENDOR_ID.markup">[0][0][0][0]</property>
  <property name="meta.attr.1.stream.ENCODER.markup">Lavc60.31.102 libvorbis</property>
  <property name="meta.attr.1.stream.DURATION.markup">00:00:03.054000000</property>
  <property name="meta.attr.COMPATIBLE_BRANDS.markup">isomiso2avc1mp41</property>
  <property name="meta.attr.MAJOR_BRAND.markup">isom</property>
  <property name="meta.attr.MINOR_VERSION.markup">512</property>
  <property name="meta.attr.ENCODER.markup">Lavf60.16.100</property>
  <property name="seekable">1</property>
  <property name="meta.media.sample_aspect_num">1</property>
  <property name="meta.media.sample_aspect_den">1</property>
  <property name="aspect_ratio">1</property>
  <property name="format">3</property>
  <property name="kdenlive:clipname"/>
  <property name="meta.media.frame_rate_num">30</property>
  <property name="meta.media.frame_rate_den">1</property>
  <property name="meta.media.colorspace">709</property>
  <property name="meta.media.color_trc">1</property>
  <property name="meta.media.has_b_frames">2</property>
  <property name="meta.media.width">1920</property>
  <property name="meta.media.height">1080</property>
  <property name="meta.media.color_range">mpeg</property>
  <property name="meta.media.top_field_first">0</property>
  <property name="meta.media.progressive">1</property>
  <property name="kdenlive:clip_type">0</property>
  <property name="kdenlive:folderid">586</property>
  <property name="kdenlive:id">606</property>
  <property name="kdenlive:file_size">175590</property>
  <property name="kdenlive:file_hash">0292bc37ff162d9a39ac775395af437b</property>
  <property name="kdenlive:audio_max1">189</property>
 </producer>
 <producer id="producer562" in="00:00:00.000" out="00:00:04.633">
  <property name="length">279</property>
  <property name="eof">pause</property>
  <property name="resource">/home/federico/Nextcloud/Kden/EditingUT/Video/Sabaku/sabaku musica.mkv</property>
  <property name="audio_index">1</property>
  <property name="video_index">0</property>
  <property name="mute_on_pause">0</property>
  <property name="mlt_service">avformat-novalidate</property>
  <property name="meta.media.nb_streams">2</property>
  <property name="meta.media.0.stream.type">video</property>
  <property name="meta.media.0.stream.frame_rate">30</property>
  <property name="meta.media.0.stream.sample_aspect_ratio">1</property>
  <property name="meta.media.0.codec.width">1920</property>
  <property name="meta.media.0.codec.height">1080</property>
  <property name="meta.media.0.codec.rotate">0</property>
  <property name="meta.media.0.codec.pix_fmt">yuv420p</property>
  <property name="meta.media.0.codec.sample_aspect_ratio">1</property>
  <property name="meta.media.0.codec.colorspace">709</property>
  <property name="meta.media.0.codec.color_trc">1</property>
  <property name="meta.media.0.codec.name">h264</property>
  <property name="meta.media.0.codec.long_name">H.264 / AVC / MPEG-4 AVC / MPEG-4 part 10</property>
  <property name="meta.media.0.codec.bit_rate">0</property>
  <property name="meta.attr.0.stream.HANDLER_NAME.markup">VideoHandler</property>
  <property name="meta.attr.0.stream.VENDOR_ID.markup">[0][0][0][0]</property>
  <property name="meta.attr.0.stream.ENCODER.markup">Lavc60.31.102 libx264</property>
  <property name="meta.attr.0.stream.DURATION.markup">00:00:04.636000000</property>
  <property name="meta.media.1.stream.type">audio</property>
  <property name="meta.media.1.codec.sample_fmt">fltp</property>
  <property name="meta.media.1.codec.sample_rate">48000</property>
  <property name="meta.media.1.codec.channels">2</property>
  <property name="meta.media.1.codec.name">vorbis</property>
  <property name="meta.media.1.codec.long_name">Vorbis</property>
  <property name="meta.media.1.codec.bit_rate">0</property>
  <property name="meta.attr.1.stream.HANDLER_NAME.markup">SoundHandler</property>
  <property name="meta.attr.1.stream.VENDOR_ID.markup">[0][0][0][0]</property>
  <property name="meta.attr.1.stream.ENCODER.markup">Lavc60.31.102 libvorbis</property>
  <property name="meta.attr.1.stream.DURATION.markup">00:00:04.653000000</property>
  <property name="meta.attr.COMPATIBLE_BRANDS.markup">isomiso2avc1mp41</property>
  <property name="meta.attr.MAJOR_BRAND.markup">isom</property>
  <property name="meta.attr.MINOR_VERSION.markup">512</property>
  <property name="meta.attr.ENCODER.markup">Lavf60.16.100</property>
  <property name="seekable">1</property>
  <property name="meta.media.sample_aspect_num">1</property>
  <property name="meta.media.sample_aspect_den">1</property>
  <property name="aspect_ratio">1</property>
  <property name="format">3</property>
  <property name="kdenlive:clipname"/>
  <property name="meta.media.frame_rate_num">30</property>
  <property name="meta.media.frame_rate_den">1</property>
  <property name="meta.media.colorspace">709</property>
  <property name="meta.media.color_trc">1</property>
  <property name="meta.media.has_b_frames">2</property>
  <property name="meta.media.width">1920</property>
  <property name="meta.media.height">1080</property>
  <property name="meta.media.color_range">mpeg</property>
  <property name="meta.media.top_field_first">0</property>
  <property name="meta.media.progressive">1</property>
  <property name="kdenlive:clip_type">0</property>
  <property name="kdenlive:folderid">586</property>
  <property name="kdenlive:id">607</property>
  <property name="kdenlive:file_size">636897</property>
  <property name="kdenlive:file_hash">8e501a6a07378e1d4371580c6ad6344d</property>
  <property name="kdenlive:audio_max1">190</property>
 </producer>
 <producer id="producer559" in="00:00:00.000" out="00:00:15.183">
  <property name="length">912</property>
  <property name="eof">pause</property>
  <property name="resource">/home/federico/Nextcloud/Kden/EditingUT/Video/Sabaku/sabaku nooo no vigliacco torna da me.mkv</property>
  <property name="audio_index">1</property>
  <property name="video_index">0</property>
  <property name="mute_on_pause">0</property>
  <property name="mlt_service">avformat-novalidate</property>
  <property name="meta.media.nb_streams">2</property>
  <property name="meta.media.0.stream.type">video</property>
  <property name="meta.media.0.stream.frame_rate">60</property>
  <property name="meta.media.0.stream.sample_aspect_ratio">1</property>
  <property name="meta.media.0.codec.width">1920</property>
  <property name="meta.media.0.codec.height">1080</property>
  <property name="meta.media.0.codec.rotate">0</property>
  <property name="meta.media.0.codec.pix_fmt">yuv420p</property>
  <property name="meta.media.0.codec.sample_aspect_ratio">1</property>
  <property name="meta.media.0.codec.colorspace">709</property>
  <property name="meta.media.0.codec.color_trc">1</property>
  <property name="meta.media.0.codec.name">h264</property>
  <property name="meta.media.0.codec.long_name">H.264 / AVC / MPEG-4 AVC / MPEG-4 part 10</property>
  <property name="meta.media.0.codec.bit_rate">0</property>
  <property name="meta.attr.0.stream.HANDLER_NAME.markup">VideoHandler</property>
  <property name="meta.attr.0.stream.VENDOR_ID.markup">[0][0][0][0]</property>
  <property name="meta.attr.0.stream.ENCODER.markup">Lavc60.31.102 libx264</property>
  <property name="meta.attr.0.stream.DURATION.markup">00:00:15.187000000</property>
  <property name="meta.media.1.stream.type">audio</property>
  <property name="meta.media.1.codec.sample_fmt">fltp</property>
  <property name="meta.media.1.codec.sample_rate">48000</property>
  <property name="meta.media.1.codec.channels">2</property>
  <property name="meta.media.1.codec.name">vorbis</property>
  <property name="meta.media.1.codec.long_name">Vorbis</property>
  <property name="meta.media.1.codec.bit_rate">0</property>
  <property name="meta.attr.1.stream.HANDLER_NAME.markup">SoundHandler</property>
  <property name="meta.attr.1.stream.VENDOR_ID.markup">[0][0][0][0]</property>
  <property name="meta.attr.1.stream.ENCODER.markup">Lavc60.31.102 libvorbis</property>
  <property name="meta.attr.1.stream.DURATION.markup">00:00:15.192000000</property>
  <property name="meta.attr.COMPATIBLE_BRANDS.markup">isomiso2avc1mp41</property>
  <property name="meta.attr.MAJOR_BRAND.markup">isom</property>
  <property name="meta.attr.MINOR_VERSION.markup">512</property>
  <property name="meta.attr.ENCODER.markup">Lavf60.16.100</property>
  <property name="seekable">1</property>
  <property name="meta.media.sample_aspect_num">1</property>
  <property name="meta.media.sample_aspect_den">1</property>
  <property name="aspect_ratio">1</property>
  <property name="format">3</property>
  <property name="kdenlive:clipname"/>
  <property name="meta.media.frame_rate_num">60</property>
  <property name="meta.media.frame_rate_den">1</property>
  <property name="meta.media.colorspace">709</property>
  <property name="meta.media.color_trc">1</property>
  <property name="meta.media.has_b_frames">2</property>
  <property name="meta.media.width">1920</property>
  <property name="meta.media.height">1080</property>
  <property name="meta.media.color_range">mpeg</property>
  <property name="meta.media.top_field_first">0</property>
  <property name="meta.media.progressive">1</property>
  <property name="kdenlive:clip_type">0</property>
  <property name="kdenlive:folderid">586</property>
  <property name="kdenlive:id">608</property>
  <property name="kdenlive:file_size">6486709</property>
  <property name="kdenlive:file_hash">93557a419eb46b2329755379d8a634e0</property>
  <property name="kdenlive:audio_max1">199</property>
 </producer>
 <producer id="producer560" in="00:00:00.000" out="00:00:05.967">
  <property name="length">359</property>
  <property name="eof">pause</property>
  <property name="resource">/home/federico/Nextcloud/Kden/EditingUT/Video/Sabaku/sabaku nooo no.mkv</property>
  <property name="audio_index">1</property>
  <property name="video_index">0</property>
  <property name="mute_on_pause">0</property>
  <property name="mlt_service">avformat-novalidate</property>
  <property name="meta.media.nb_streams">2</property>
  <property name="meta.media.0.stream.type">video</property>
  <property name="meta.media.0.stream.frame_rate">30</property>
  <property name="meta.media.0.stream.sample_aspect_ratio">1</property>
  <property name="meta.media.0.codec.width">1920</property>
  <property name="meta.media.0.codec.height">1080</property>
  <property name="meta.media.0.codec.rotate">0</property>
  <property name="meta.media.0.codec.pix_fmt">yuv420p</property>
  <property name="meta.media.0.codec.sample_aspect_ratio">1</property>
  <property name="meta.media.0.codec.colorspace">709</property>
  <property name="meta.media.0.codec.color_trc">1</property>
  <property name="meta.media.0.codec.name">h264</property>
  <property name="meta.media.0.codec.long_name">H.264 / AVC / MPEG-4 AVC / MPEG-4 part 10</property>
  <property name="meta.media.0.codec.bit_rate">0</property>
  <property name="meta.attr.0.stream.HANDLER_NAME.markup">VideoHandler</property>
  <property name="meta.attr.0.stream.VENDOR_ID.markup">[0][0][0][0]</property>
  <property name="meta.attr.0.stream.ENCODER.markup">Lavc60.31.102 libx264</property>
  <property name="meta.attr.0.stream.DURATION.markup">00:00:05.969000000</property>
  <property name="meta.media.1.stream.type">audio</property>
  <property name="meta.media.1.codec.sample_fmt">fltp</property>
  <property name="meta.media.1.codec.sample_rate">48000</property>
  <property name="meta.media.1.codec.channels">2</property>
  <property name="meta.media.1.codec.name">vorbis</property>
  <property name="meta.media.1.codec.long_name">Vorbis</property>
  <property name="meta.media.1.codec.bit_rate">0</property>
  <property name="meta.attr.1.stream.HANDLER_NAME.markup">SoundHandler</property>
  <property name="meta.attr.1.stream.VENDOR_ID.markup">[0][0][0][0]</property>
  <property name="meta.attr.1.stream.ENCODER.markup">Lavc60.31.102 libvorbis</property>
  <property name="meta.attr.1.stream.DURATION.markup">00:00:05.976000000</property>
  <property name="meta.attr.COMPATIBLE_BRANDS.markup">isomiso2avc1mp41</property>
  <property name="meta.attr.MAJOR_BRAND.markup">isom</property>
  <property name="meta.attr.MINOR_VERSION.markup">512</property>
  <property name="meta.attr.ENCODER.markup">Lavf60.16.100</property>
  <property name="seekable">1</property>
  <property name="meta.media.sample_aspect_num">1</property>
  <property name="meta.media.sample_aspect_den">1</property>
  <property name="aspect_ratio">1</property>
  <property name="format">3</property>
  <property name="kdenlive:clipname"/>
  <property name="meta.media.frame_rate_num">30</property>
  <property name="meta.media.frame_rate_den">1</property>
  <property name="meta.media.colorspace">709</property>
  <property name="meta.media.color_trc">1</property>
  <property name="meta.media.has_b_frames">2</property>
  <property name="meta.media.width">1920</property>
  <property name="meta.media.height">1080</property>
  <property name="meta.media.color_range">mpeg</property>
  <property name="meta.media.top_field_first">0</property>
  <property name="meta.media.progressive">1</property>
  <property name="kdenlive:clip_type">0</property>
  <property name="kdenlive:folderid">586</property>
  <property name="kdenlive:id">609</property>
  <property name="kdenlive:file_size">4136113</property>
  <property name="kdenlive:file_hash">6e665d4bbdd5a54348099e1bb26ee0f4</property>
  <property name="kdenlive:audio_max1">199</property>
 </producer>
 <producer id="producer561" in="00:00:00.000" out="00:00:06.017">
  <property name="length">362</property>
  <property name="eof">pause</property>
  <property name="resource">/home/federico/Nextcloud/Kden/EditingUT/Video/Sabaku/sabaku orgasmo - me gusta.mkv</property>
  <property name="audio_index">1</property>
  <property name="video_index">0</property>
  <property name="mute_on_pause">0</property>
  <property name="mlt_service">avformat-novalidate</property>
  <property name="meta.media.nb_streams">2</property>
  <property name="meta.media.0.stream.type">video</property>
  <property name="meta.media.0.stream.frame_rate">30</property>
  <property name="meta.media.0.stream.sample_aspect_ratio">1</property>
  <property name="meta.media.0.codec.width">1920</property>
  <property name="meta.media.0.codec.height">1080</property>
  <property name="meta.media.0.codec.rotate">0</property>
  <property name="meta.media.0.codec.pix_fmt">yuv420p</property>
  <property name="meta.media.0.codec.sample_aspect_ratio">1</property>
  <property name="meta.media.0.codec.colorspace">709</property>
  <property name="meta.media.0.codec.color_trc">1</property>
  <property name="meta.media.0.codec.name">h264</property>
  <property name="meta.media.0.codec.long_name">H.264 / AVC / MPEG-4 AVC / MPEG-4 part 10</property>
  <property name="meta.media.0.codec.bit_rate">0</property>
  <property name="meta.attr.0.stream.HANDLER_NAME.markup">VideoHandler</property>
  <property name="meta.attr.0.stream.VENDOR_ID.markup">[0][0][0][0]</property>
  <property name="meta.attr.0.stream.ENCODER.markup">Lavc60.31.102 libx264</property>
  <property name="meta.attr.0.stream.DURATION.markup">00:00:06.036000000</property>
  <property name="meta.media.1.stream.type">audio</property>
  <property name="meta.media.1.codec.sample_fmt">fltp</property>
  <property name="meta.media.1.codec.sample_rate">48000</property>
  <property name="meta.media.1.codec.channels">2</property>
  <property name="meta.media.1.codec.name">vorbis</property>
  <property name="meta.media.1.codec.long_name">Vorbis</property>
  <property name="meta.media.1.codec.bit_rate">0</property>
  <property name="meta.attr.1.stream.HANDLER_NAME.markup">SoundHandler</property>
  <property name="meta.attr.1.stream.VENDOR_ID.markup">[0][0][0][0]</property>
  <property name="meta.attr.1.stream.ENCODER.markup">Lavc60.31.102 libvorbis</property>
  <property name="meta.attr.1.stream.DURATION.markup">00:00:06.040000000</property>
  <property name="meta.attr.COMPATIBLE_BRANDS.markup">isomiso2avc1mp41</property>
  <property name="meta.attr.MAJOR_BRAND.markup">isom</property>
  <property name="meta.attr.MINOR_VERSION.markup">512</property>
  <property name="meta.attr.ENCODER.markup">Lavf60.16.100</property>
  <property name="seekable">1</property>
  <property name="meta.media.sample_aspect_num">1</property>
  <property name="meta.media.sample_aspect_den">1</property>
  <property name="aspect_ratio">1</property>
  <property name="format">3</property>
  <property name="kdenlive:clipname"/>
  <property name="meta.media.frame_rate_num">30</property>
  <property name="meta.media.frame_rate_den">1</property>
  <property name="meta.media.colorspace">709</property>
  <property name="meta.media.color_trc">1</property>
  <property name="meta.media.has_b_frames">2</property>
  <property name="meta.media.width">1920</property>
  <property name="meta.media.height">1080</property>
  <property name="meta.media.color_range">mpeg</property>
  <property name="meta.media.top_field_first">0</property>
  <property name="meta.media.progressive">1</property>
  <property name="kdenlive:clip_type">0</property>
  <property name="kdenlive:folderid">586</property>
  <property name="kdenlive:id">610</property>
  <property name="kdenlive:file_size">863756</property>
  <property name="kdenlive:file_hash">4bb2fadbb0f48dda91fb7ab89ea8e2e8</property>
  <property name="kdenlive:audio_max1">201</property>
 </producer>
 <producer id="producer563" in="00:00:00.000" out="00:00:09.017">
  <property name="length">542</property>
  <property name="eof">pause</property>
  <property name="resource">/home/federico/Nextcloud/Kden/EditingUT/Video/Sabaku/sabaku pene cazzo gigante.mkv</property>
  <property name="audio_index">1</property>
  <property name="video_index">0</property>
  <property name="mute_on_pause">0</property>
  <property name="mlt_service">avformat-novalidate</property>
  <property name="meta.media.nb_streams">2</property>
  <property name="meta.media.0.stream.type">video</property>
  <property name="meta.media.0.stream.frame_rate">60</property>
  <property name="meta.media.0.stream.sample_aspect_ratio">1</property>
  <property name="meta.media.0.codec.width">1920</property>
  <property name="meta.media.0.codec.height">1080</property>
  <property name="meta.media.0.codec.rotate">0</property>
  <property name="meta.media.0.codec.pix_fmt">yuv420p</property>
  <property name="meta.media.0.codec.sample_aspect_ratio">1</property>
  <property name="meta.media.0.codec.colorspace">709</property>
  <property name="meta.media.0.codec.color_trc">1</property>
  <property name="meta.media.0.codec.name">h264</property>
  <property name="meta.media.0.codec.long_name">H.264 / AVC / MPEG-4 AVC / MPEG-4 part 10</property>
  <property name="meta.media.0.codec.bit_rate">0</property>
  <property name="meta.attr.0.stream.HANDLER_NAME.markup">VideoHandler</property>
  <property name="meta.attr.0.stream.VENDOR_ID.markup">[0][0][0][0]</property>
  <property name="meta.attr.0.stream.ENCODER.markup">Lavc60.31.102 libx264</property>
  <property name="meta.attr.0.stream.DURATION.markup">00:00:09.020000000</property>
  <property name="meta.media.1.stream.type">audio</property>
  <property name="meta.media.1.codec.sample_fmt">fltp</property>
  <property name="meta.media.1.codec.sample_rate">48000</property>
  <property name="meta.media.1.codec.channels">2</property>
  <property name="meta.media.1.codec.name">vorbis</property>
  <property name="meta.media.1.codec.long_name">Vorbis</property>
  <property name="meta.media.1.codec.bit_rate">0</property>
  <property name="meta.attr.1.stream.HANDLER_NAME.markup">SoundHandler</property>
  <property name="meta.attr.1.stream.VENDOR_ID.markup">[0][0][0][0]</property>
  <property name="meta.attr.1.stream.ENCODER.markup">Lavc60.31.102 libvorbis</property>
  <property name="meta.attr.1.stream.DURATION.markup">00:00:09.027000000</property>
  <property name="meta.attr.COMPATIBLE_BRANDS.markup">isomiso2avc1mp41</property>
  <property name="meta.attr.MAJOR_BRAND.markup">isom</property>
  <property name="meta.attr.MINOR_VERSION.markup">512</property>
  <property name="meta.attr.ENCODER.markup">Lavf60.16.100</property>
  <property name="seekable">1</property>
  <property name="meta.media.sample_aspect_num">1</property>
  <property name="meta.media.sample_aspect_den">1</property>
  <property name="aspect_ratio">1</property>
  <property name="format">3</property>
  <property name="kdenlive:clipname"/>
  <property name="meta.media.frame_rate_num">60</property>
  <property name="meta.media.frame_rate_den">1</property>
  <property name="meta.media.colorspace">709</property>
  <property name="meta.media.color_trc">1</property>
  <property name="meta.media.has_b_frames">2</property>
  <property name="meta.media.width">1920</property>
  <property name="meta.media.height">1080</property>
  <property name="meta.media.color_range">mpeg</property>
  <property name="meta.media.top_field_first">0</property>
  <property name="meta.media.progressive">1</property>
  <property name="kdenlive:clip_type">0</property>
  <property name="kdenlive:folderid">586</property>
  <property name="kdenlive:id">611</property>
  <property name="kdenlive:file_size">5392397</property>
  <property name="kdenlive:file_hash">50bba4035cc6d99b7b59e1db98a8ffc4</property>
  <property name="kdenlive:audio_max1">180</property>
 </producer>
 <producer id="producer567" in="00:00:00.000" out="00:00:03.867">
  <property name="length">233</property>
  <property name="eof">pause</property>
  <property name="resource">/home/federico/Nextcloud/Kden/EditingUT/Video/Sabaku/sabaku pernacchia - fart.mkv</property>
  <property name="audio_index">1</property>
  <property name="video_index">0</property>
  <property name="mute_on_pause">0</property>
  <property name="mlt_service">avformat-novalidate</property>
  <property name="meta.media.nb_streams">2</property>
  <property name="meta.media.0.stream.type">video</property>
  <property name="meta.media.0.stream.frame_rate">30</property>
  <property name="meta.media.0.stream.sample_aspect_ratio">1</property>
  <property name="meta.media.0.codec.width">1920</property>
  <property name="meta.media.0.codec.height">1080</property>
  <property name="meta.media.0.codec.rotate">0</property>
  <property name="meta.media.0.codec.pix_fmt">yuv420p</property>
  <property name="meta.media.0.codec.sample_aspect_ratio">1</property>
  <property name="meta.media.0.codec.colorspace">709</property>
  <property name="meta.media.0.codec.color_trc">1</property>
  <property name="meta.media.0.codec.name">h264</property>
  <property name="meta.media.0.codec.long_name">H.264 / AVC / MPEG-4 AVC / MPEG-4 part 10</property>
  <property name="meta.media.0.codec.bit_rate">0</property>
  <property name="meta.attr.0.stream.HANDLER_NAME.markup">VideoHandler</property>
  <property name="meta.attr.0.stream.VENDOR_ID.markup">[0][0][0][0]</property>
  <property name="meta.attr.0.stream.ENCODER.markup">Lavc60.31.102 libx264</property>
  <property name="meta.attr.0.stream.DURATION.markup">00:00:03.869000000</property>
  <property name="meta.media.1.stream.type">audio</property>
  <property name="meta.media.1.codec.sample_fmt">fltp</property>
  <property name="meta.media.1.codec.sample_rate">48000</property>
  <property name="meta.media.1.codec.channels">2</property>
  <property name="meta.media.1.codec.name">vorbis</property>
  <property name="meta.media.1.codec.long_name">Vorbis</property>
  <property name="meta.media.1.codec.bit_rate">0</property>
  <property name="meta.attr.1.stream.HANDLER_NAME.markup">SoundHandler</property>
  <property name="meta.attr.1.stream.VENDOR_ID.markup">[0][0][0][0]</property>
  <property name="meta.attr.1.stream.ENCODER.markup">Lavc60.31.102 libvorbis</property>
  <property name="meta.attr.1.stream.DURATION.markup">00:00:03.886000000</property>
  <property name="meta.attr.COMPATIBLE_BRANDS.markup">isomiso2avc1mp41</property>
  <property name="meta.attr.MAJOR_BRAND.markup">isom</property>
  <property name="meta.attr.MINOR_VERSION.markup">512</property>
  <property name="meta.attr.ENCODER.markup">Lavf60.16.100</property>
  <property name="seekable">1</property>
  <property name="meta.media.sample_aspect_num">1</property>
  <property name="meta.media.sample_aspect_den">1</property>
  <property name="aspect_ratio">1</property>
  <property name="format">3</property>
  <property name="kdenlive:clipname"/>
  <property name="meta.media.frame_rate_num">30</property>
  <property name="meta.media.frame_rate_den">1</property>
  <property name="meta.media.colorspace">709</property>
  <property name="meta.media.color_trc">1</property>
  <property name="meta.media.has_b_frames">2</property>
  <property name="meta.media.width">1920</property>
  <property name="meta.media.height">1080</property>
  <property name="meta.media.color_range">mpeg</property>
  <property name="meta.media.top_field_first">0</property>
  <property name="meta.media.progressive">1</property>
  <property name="kdenlive:clip_type">0</property>
  <property name="kdenlive:folderid">586</property>
  <property name="kdenlive:id">612</property>
  <property name="kdenlive:file_size">878475</property>
  <property name="kdenlive:file_hash">4ef2de29cc7380544d1f7fe8d11b9491</property>
  <property name="kdenlive:audio_max1">163</property>
 </producer>
 <producer id="producer566" in="00:00:00.000" out="00:00:02.817">
  <property name="length">170</property>
  <property name="eof">pause</property>
  <property name="resource">/home/federico/Nextcloud/Kden/EditingUT/Video/Sabaku/sabaku risata malvagia.mkv</property>
  <property name="audio_index">1</property>
  <property name="video_index">0</property>
  <property name="mute_on_pause">0</property>
  <property name="mlt_service">avformat-novalidate</property>
  <property name="meta.media.nb_streams">2</property>
  <property name="meta.media.0.stream.type">video</property>
  <property name="meta.media.0.stream.frame_rate">30</property>
  <property name="meta.media.0.stream.sample_aspect_ratio">1</property>
  <property name="meta.media.0.codec.width">1920</property>
  <property name="meta.media.0.codec.height">1080</property>
  <property name="meta.media.0.codec.rotate">0</property>
  <property name="meta.media.0.codec.pix_fmt">yuv420p</property>
  <property name="meta.media.0.codec.sample_aspect_ratio">1</property>
  <property name="meta.media.0.codec.colorspace">709</property>
  <property name="meta.media.0.codec.color_trc">1</property>
  <property name="meta.media.0.codec.name">h264</property>
  <property name="meta.media.0.codec.long_name">H.264 / AVC / MPEG-4 AVC / MPEG-4 part 10</property>
  <property name="meta.media.0.codec.bit_rate">0</property>
  <property name="meta.attr.0.stream.HANDLER_NAME.markup">VideoHandler</property>
  <property name="meta.attr.0.stream.VENDOR_ID.markup">[0][0][0][0]</property>
  <property name="meta.attr.0.stream.ENCODER.markup">Lavc60.31.102 libx264</property>
  <property name="meta.attr.0.stream.DURATION.markup">00:00:02.836000000</property>
  <property name="meta.media.1.stream.type">audio</property>
  <property name="meta.media.1.codec.sample_fmt">fltp</property>
  <property name="meta.media.1.codec.sample_rate">48000</property>
  <property name="meta.media.1.codec.channels">2</property>
  <property name="meta.media.1.codec.name">vorbis</property>
  <property name="meta.media.1.codec.long_name">Vorbis</property>
  <property name="meta.media.1.codec.bit_rate">0</property>
  <property name="meta.attr.1.stream.HANDLER_NAME.markup">SoundHandler</property>
  <property name="meta.attr.1.stream.VENDOR_ID.markup">[0][0][0][0]</property>
  <property name="meta.attr.1.stream.ENCODER.markup">Lavc60.31.102 libvorbis</property>
  <property name="meta.attr.1.stream.DURATION.markup">00:00:02.841000000</property>
  <property name="meta.attr.COMPATIBLE_BRANDS.markup">isomiso2avc1mp41</property>
  <property name="meta.attr.MAJOR_BRAND.markup">isom</property>
  <property name="meta.attr.MINOR_VERSION.markup">512</property>
  <property name="meta.attr.ENCODER.markup">Lavf60.16.100</property>
  <property name="seekable">1</property>
  <property name="meta.media.sample_aspect_num">1</property>
  <property name="meta.media.sample_aspect_den">1</property>
  <property name="aspect_ratio">1</property>
  <property name="format">3</property>
  <property name="kdenlive:clipname"/>
  <property name="meta.media.frame_rate_num">30</property>
  <property name="meta.media.frame_rate_den">1</property>
  <property name="meta.media.colorspace">709</property>
  <property name="meta.media.color_trc">1</property>
  <property name="meta.media.has_b_frames">2</property>
  <property name="meta.media.width">1920</property>
  <property name="meta.media.height">1080</property>
  <property name="meta.media.color_range">mpeg</property>
  <property name="meta.media.top_field_first">0</property>
  <property name="meta.media.progressive">1</property>
  <property name="kdenlive:clip_type">0</property>
  <property name="kdenlive:folderid">586</property>
  <property name="kdenlive:id">613</property>
  <property name="kdenlive:file_size">874595</property>
  <property name="kdenlive:file_hash">ccb27519b1d487e8c8f964c395fcf704</property>
  <property name="kdenlive:audio_max1">178</property>
 </producer>
 <producer id="producer564" in="00:00:00.000" out="00:00:05.217">
  <property name="length">314</property>
  <property name="eof">pause</property>
  <property name="resource">/home/federico/Nextcloud/Kden/EditingUT/Video/Sabaku/sabaku scimmia versi monkas.mkv</property>
  <property name="audio_index">1</property>
  <property name="video_index">0</property>
  <property name="mute_on_pause">0</property>
  <property name="mlt_service">avformat-novalidate</property>
  <property name="meta.media.nb_streams">2</property>
  <property name="meta.media.0.stream.type">video</property>
  <property name="meta.media.0.stream.frame_rate">60</property>
  <property name="meta.media.0.stream.sample_aspect_ratio">1</property>
  <property name="meta.media.0.codec.width">1920</property>
  <property name="meta.media.0.codec.height">1080</property>
  <property name="meta.media.0.codec.rotate">0</property>
  <property name="meta.media.0.codec.pix_fmt">yuv420p</property>
  <property name="meta.media.0.codec.sample_aspect_ratio">1</property>
  <property name="meta.media.0.codec.colorspace">709</property>
  <property name="meta.media.0.codec.color_trc">1</property>
  <property name="meta.media.0.codec.name">h264</property>
  <property name="meta.media.0.codec.long_name">H.264 / AVC / MPEG-4 AVC / MPEG-4 part 10</property>
  <property name="meta.media.0.codec.bit_rate">0</property>
  <property name="meta.attr.0.stream.HANDLER_NAME.markup">VideoHandler</property>
  <property name="meta.attr.0.stream.VENDOR_ID.markup">[0][0][0][0]</property>
  <property name="meta.attr.0.stream.ENCODER.markup">Lavc60.31.102 libx264</property>
  <property name="meta.attr.0.stream.DURATION.markup">00:00:05.220000000</property>
  <property name="meta.media.1.stream.type">audio</property>
  <property name="meta.media.1.codec.sample_fmt">fltp</property>
  <property name="meta.media.1.codec.sample_rate">48000</property>
  <property name="meta.media.1.codec.channels">2</property>
  <property name="meta.media.1.codec.name">vorbis</property>
  <property name="meta.media.1.codec.long_name">Vorbis</property>
  <property name="meta.media.1.codec.bit_rate">0</property>
  <property name="meta.attr.1.stream.HANDLER_NAME.markup">SoundHandler</property>
  <property name="meta.attr.1.stream.VENDOR_ID.markup">[0][0][0][0]</property>
  <property name="meta.attr.1.stream.ENCODER.markup">Lavc60.31.102 libvorbis</property>
  <property name="meta.attr.1.stream.DURATION.markup">00:00:05.230000000</property>
  <property name="meta.attr.COMPATIBLE_BRANDS.markup">isomiso2avc1mp41</property>
  <property name="meta.attr.MAJOR_BRAND.markup">isom</property>
  <property name="meta.attr.MINOR_VERSION.markup">512</property>
  <property name="meta.attr.ENCODER.markup">Lavf60.16.100</property>
  <property name="seekable">1</property>
  <property name="meta.media.sample_aspect_num">1</property>
  <property name="meta.media.sample_aspect_den">1</property>
  <property name="aspect_ratio">1</property>
  <property name="format">3</property>
  <property name="kdenlive:clipname"/>
  <property name="meta.media.frame_rate_num">60</property>
  <property name="meta.media.frame_rate_den">1</property>
  <property name="meta.media.colorspace">709</property>
  <property name="meta.media.color_trc">1</property>
  <property name="meta.media.has_b_frames">2</property>
  <property name="meta.media.width">1920</property>
  <property name="meta.media.height">1080</property>
  <property name="meta.media.color_range">mpeg</property>
  <property name="meta.media.top_field_first">0</property>
  <property name="meta.media.progressive">1</property>
  <property name="kdenlive:clip_type">0</property>
  <property name="kdenlive:folderid">586</property>
  <property name="kdenlive:id">614</property>
  <property name="kdenlive:file_size">766373</property>
  <property name="kdenlive:file_hash">930db2f2dc6773066143f2ea9643bb5d</property>
  <property name="kdenlive:audio_max1">181</property>
 </producer>
 <producer id="producer568" in="00:00:00.000" out="00:00:06.300">
  <property name="length">379</property>
  <property name="eof">pause</property>
  <property name="resource">/home/federico/Nextcloud/Kden/EditingUT/Video/Sabaku/sabaku scopami.mkv</property>
  <property name="audio_index">1</property>
  <property name="video_index">0</property>
  <property name="mute_on_pause">0</property>
  <property name="mlt_service">avformat-novalidate</property>
  <property name="meta.media.nb_streams">2</property>
  <property name="meta.media.0.stream.type">video</property>
  <property name="meta.media.0.stream.frame_rate">30</property>
  <property name="meta.media.0.stream.sample_aspect_ratio">1</property>
  <property name="meta.media.0.codec.width">1920</property>
  <property name="meta.media.0.codec.height">1080</property>
  <property name="meta.media.0.codec.rotate">0</property>
  <property name="meta.media.0.codec.pix_fmt">yuv420p</property>
  <property name="meta.media.0.codec.sample_aspect_ratio">1</property>
  <property name="meta.media.0.codec.colorspace">709</property>
  <property name="meta.media.0.codec.color_trc">1</property>
  <property name="meta.media.0.codec.name">h264</property>
  <property name="meta.media.0.codec.long_name">H.264 / AVC / MPEG-4 AVC / MPEG-4 part 10</property>
  <property name="meta.media.0.codec.bit_rate">0</property>
  <property name="meta.attr.0.stream.HANDLER_NAME.markup">VideoHandler</property>
  <property name="meta.attr.0.stream.VENDOR_ID.markup">[0][0][0][0]</property>
  <property name="meta.attr.0.stream.ENCODER.markup">Lavc60.31.102 libx264</property>
  <property name="meta.attr.0.stream.DURATION.markup">00:00:06.303000000</property>
  <property name="meta.media.1.stream.type">audio</property>
  <property name="meta.media.1.codec.sample_fmt">fltp</property>
  <property name="meta.media.1.codec.sample_rate">48000</property>
  <property name="meta.media.1.codec.channels">2</property>
  <property name="meta.media.1.codec.name">vorbis</property>
  <property name="meta.media.1.codec.long_name">Vorbis</property>
  <property name="meta.media.1.codec.bit_rate">0</property>
  <property name="meta.attr.1.stream.HANDLER_NAME.markup">SoundHandler</property>
  <property name="meta.attr.1.stream.VENDOR_ID.markup">[0][0][0][0]</property>
  <property name="meta.attr.1.stream.ENCODER.markup">Lavc60.31.102 libvorbis</property>
  <property name="meta.attr.1.stream.DURATION.markup">00:00:06.317000000</property>
  <property name="meta.attr.COMPATIBLE_BRANDS.markup">isomiso2avc1mp41</property>
  <property name="meta.attr.MAJOR_BRAND.markup">isom</property>
  <property name="meta.attr.MINOR_VERSION.markup">512</property>
  <property name="meta.attr.ENCODER.markup">Lavf60.16.100</property>
  <property name="seekable">1</property>
  <property name="meta.media.sample_aspect_num">1</property>
  <property name="meta.media.sample_aspect_den">1</property>
  <property name="aspect_ratio">1</property>
  <property name="format">3</property>
  <property name="kdenlive:clipname"/>
  <property name="meta.media.frame_rate_num">30</property>
  <property name="meta.media.frame_rate_den">1</property>
  <property name="meta.media.colorspace">709</property>
  <property name="meta.media.color_trc">1</property>
  <property name="meta.media.has_b_frames">2</property>
  <property name="meta.media.width">1920</property>
  <property name="meta.media.height">1080</property>
  <property name="meta.media.color_range">mpeg</property>
  <property name="meta.media.top_field_first">0</property>
  <property name="meta.media.progressive">1</property>
  <property name="kdenlive:clip_type">0</property>
  <property name="kdenlive:folderid">586</property>
  <property name="kdenlive:id">615</property>
  <property name="kdenlive:file_size">4130738</property>
  <property name="kdenlive:file_hash">f9e8443d3ff0725af456c3ecd1772074</property>
  <property name="kdenlive:audio_max1">232</property>
 </producer>
 <producer id="producer565" in="00:00:00.000" out="00:00:12.167">
  <property name="length">731</property>
  <property name="eof">pause</property>
  <property name="resource">/home/federico/Nextcloud/Kden/EditingUT/Video/Sabaku/sabaku senza scuse.mkv</property>
  <property name="audio_index">1</property>
  <property name="video_index">0</property>
  <property name="mute_on_pause">0</property>
  <property name="mlt_service">avformat-novalidate</property>
  <property name="meta.media.nb_streams">2</property>
  <property name="meta.media.0.stream.type">video</property>
  <property name="meta.media.0.stream.frame_rate">30</property>
  <property name="meta.media.0.stream.sample_aspect_ratio">1</property>
  <property name="meta.media.0.codec.width">1920</property>
  <property name="meta.media.0.codec.height">1080</property>
  <property name="meta.media.0.codec.rotate">0</property>
  <property name="meta.media.0.codec.pix_fmt">yuv420p</property>
  <property name="meta.media.0.codec.sample_aspect_ratio">1</property>
  <property name="meta.media.0.codec.colorspace">709</property>
  <property name="meta.media.0.codec.color_trc">1</property>
  <property name="meta.media.0.codec.name">h264</property>
  <property name="meta.media.0.codec.long_name">H.264 / AVC / MPEG-4 AVC / MPEG-4 part 10</property>
  <property name="meta.media.0.codec.bit_rate">0</property>
  <property name="meta.attr.0.stream.HANDLER_NAME.markup">VideoHandler</property>
  <property name="meta.attr.0.stream.VENDOR_ID.markup">[0][0][0][0]</property>
  <property name="meta.attr.0.stream.ENCODER.markup">Lavc60.31.102 libx264</property>
  <property name="meta.attr.0.stream.DURATION.markup">00:00:12.169000000</property>
  <property name="meta.media.1.stream.type">audio</property>
  <property name="meta.media.1.codec.sample_fmt">fltp</property>
  <property name="meta.media.1.codec.sample_rate">48000</property>
  <property name="meta.media.1.codec.channels">2</property>
  <property name="meta.media.1.codec.name">vorbis</property>
  <property name="meta.media.1.codec.long_name">Vorbis</property>
  <property name="meta.media.1.codec.bit_rate">0</property>
  <property name="meta.attr.1.stream.HANDLER_NAME.markup">SoundHandler</property>
  <property name="meta.attr.1.stream.VENDOR_ID.markup">[0][0][0][0]</property>
  <property name="meta.attr.1.stream.ENCODER.markup">Lavc60.31.102 libvorbis</property>
  <property name="meta.attr.1.stream.DURATION.markup">00:00:12.185000000</property>
  <property name="meta.attr.COMPATIBLE_BRANDS.markup">isomiso2avc1mp41</property>
  <property name="meta.attr.MAJOR_BRAND.markup">isom</property>
  <property name="meta.attr.MINOR_VERSION.markup">512</property>
  <property name="meta.attr.ENCODER.markup">Lavf60.16.100</property>
  <property name="seekable">1</property>
  <property name="meta.media.sample_aspect_num">1</property>
  <property name="meta.media.sample_aspect_den">1</property>
  <property name="aspect_ratio">1</property>
  <property name="format">3</property>
  <property name="kdenlive:clipname"/>
  <property name="meta.media.frame_rate_num">30</property>
  <property name="meta.media.frame_rate_den">1</property>
  <property name="meta.media.colorspace">709</property>
  <property name="meta.media.color_trc">1</property>
  <property name="meta.media.has_b_frames">2</property>
  <property name="meta.media.width">1920</property>
  <property name="meta.media.height">1080</property>
  <property name="meta.media.color_range">mpeg</property>
  <property name="meta.media.top_field_first">0</property>
  <property name="meta.media.progressive">1</property>
  <property name="kdenlive:clip_type">0</property>
  <property name="kdenlive:folderid">586</property>
  <property name="kdenlive:id">616</property>
  <property name="kdenlive:file_size">7270945</property>
  <property name="kdenlive:file_hash">c1d5592d2cd0f442353d323cf8f27759</property>
  <property name="kdenlive:audio_max1">172</property>
 </producer>
 <producer id="producer569" in="00:00:00.000" out="00:00:02.733">
  <property name="length">165</property>
  <property name="eof">pause</property>
  <property name="resource">/home/federico/Nextcloud/Kden/EditingUT/Video/Sabaku/sabaku sesso arrabbiato.mkv</property>
  <property name="audio_index">1</property>
  <property name="video_index">0</property>
  <property name="mute_on_pause">0</property>
  <property name="mlt_service">avformat-novalidate</property>
  <property name="meta.media.nb_streams">2</property>
  <property name="meta.media.0.stream.type">video</property>
  <property name="meta.media.0.stream.frame_rate">60</property>
  <property name="meta.media.0.stream.sample_aspect_ratio">1</property>
  <property name="meta.media.0.codec.width">1920</property>
  <property name="meta.media.0.codec.height">1080</property>
  <property name="meta.media.0.codec.rotate">0</property>
  <property name="meta.media.0.codec.pix_fmt">yuv420p</property>
  <property name="meta.media.0.codec.sample_aspect_ratio">1</property>
  <property name="meta.media.0.codec.colorspace">709</property>
  <property name="meta.media.0.codec.color_trc">1</property>
  <property name="meta.media.0.codec.name">h264</property>
  <property name="meta.media.0.codec.long_name">H.264 / AVC / MPEG-4 AVC / MPEG-4 part 10</property>
  <property name="meta.media.0.codec.bit_rate">0</property>
  <property name="meta.attr.0.stream.HANDLER_NAME.markup">VideoHandler</property>
  <property name="meta.attr.0.stream.VENDOR_ID.markup">[0][0][0][0]</property>
  <property name="meta.attr.0.stream.ENCODER.markup">Lavc60.31.102 libx264</property>
  <property name="meta.attr.0.stream.DURATION.markup">00:00:02.753000000</property>
  <property name="meta.media.1.stream.type">audio</property>
  <property name="meta.media.1.codec.sample_fmt">fltp</property>
  <property name="meta.media.1.codec.sample_rate">48000</property>
  <property name="meta.media.1.codec.channels">2</property>
  <property name="meta.media.1.codec.name">vorbis</property>
  <property name="meta.media.1.codec.long_name">Vorbis</property>
  <property name="meta.media.1.codec.bit_rate">0</property>
  <property name="meta.attr.1.stream.HANDLER_NAME.markup">SoundHandler</property>
  <property name="meta.attr.1.stream.VENDOR_ID.markup">[0][0][0][0]</property>
  <property name="meta.attr.1.stream.ENCODER.markup">Lavc60.31.102 libvorbis</property>
  <property name="meta.attr.1.stream.DURATION.markup">00:00:02.755000000</property>
  <property name="meta.attr.COMPATIBLE_BRANDS.markup">isomiso2avc1mp41</property>
  <property name="meta.attr.MAJOR_BRAND.markup">isom</property>
  <property name="meta.attr.MINOR_VERSION.markup">512</property>
  <property name="meta.attr.ENCODER.markup">Lavf60.16.100</property>
  <property name="seekable">1</property>
  <property name="meta.media.sample_aspect_num">1</property>
  <property name="meta.media.sample_aspect_den">1</property>
  <property name="aspect_ratio">1</property>
  <property name="format">3</property>
  <property name="kdenlive:clipname"/>
  <property name="meta.media.frame_rate_num">60</property>
  <property name="meta.media.frame_rate_den">1</property>
  <property name="meta.media.colorspace">709</property>
  <property name="meta.media.color_trc">1</property>
  <property name="meta.media.has_b_frames">2</property>
  <property name="meta.media.width">1920</property>
  <property name="meta.media.height">1080</property>
  <property name="meta.media.color_range">mpeg</property>
  <property name="meta.media.top_field_first">0</property>
  <property name="meta.media.progressive">1</property>
  <property name="kdenlive:clip_type">0</property>
  <property name="kdenlive:folderid">586</property>
  <property name="kdenlive:id">617</property>
  <property name="kdenlive:file_size">123673</property>
  <property name="kdenlive:file_hash">5f494bb84d5078887f29f0a5f7850af2</property>
  <property name="kdenlive:audio_max1">192</property>
 </producer>
 <producer id="producer572" in="00:00:00.000" out="00:00:02.850">
  <property name="length">172</property>
  <property name="eof">pause</property>
  <property name="resource">/home/federico/Nextcloud/Kden/EditingUT/Video/Sabaku/sabaku sium si.mkv</property>
  <property name="audio_index">1</property>
  <property name="video_index">0</property>
  <property name="mute_on_pause">0</property>
  <property name="mlt_service">avformat-novalidate</property>
  <property name="meta.media.nb_streams">2</property>
  <property name="meta.media.0.stream.type">video</property>
  <property name="meta.media.0.stream.frame_rate">60</property>
  <property name="meta.media.0.stream.sample_aspect_ratio">1</property>
  <property name="meta.media.0.codec.width">1920</property>
  <property name="meta.media.0.codec.height">1080</property>
  <property name="meta.media.0.codec.rotate">0</property>
  <property name="meta.media.0.codec.pix_fmt">yuv420p</property>
  <property name="meta.media.0.codec.sample_aspect_ratio">1</property>
  <property name="meta.media.0.codec.colorspace">709</property>
  <property name="meta.media.0.codec.color_trc">1</property>
  <property name="meta.media.0.codec.name">h264</property>
  <property name="meta.media.0.codec.long_name">H.264 / AVC / MPEG-4 AVC / MPEG-4 part 10</property>
  <property name="meta.media.0.codec.bit_rate">0</property>
  <property name="meta.attr.0.stream.HANDLER_NAME.markup">VideoHandler</property>
  <property name="meta.attr.0.stream.VENDOR_ID.markup">[0][0][0][0]</property>
  <property name="meta.attr.0.stream.ENCODER.markup">Lavc60.31.102 libx264</property>
  <property name="meta.attr.0.stream.DURATION.markup">00:00:02.853000000</property>
  <property name="meta.media.1.stream.type">audio</property>
  <property name="meta.media.1.codec.sample_fmt">fltp</property>
  <property name="meta.media.1.codec.sample_rate">48000</property>
  <property name="meta.media.1.codec.channels">2</property>
  <property name="meta.media.1.codec.name">vorbis</property>
  <property name="meta.media.1.codec.long_name">Vorbis</property>
  <property name="meta.media.1.codec.bit_rate">0</property>
  <property name="meta.attr.1.stream.HANDLER_NAME.markup">SoundHandler</property>
  <property name="meta.attr.1.stream.VENDOR_ID.markup">[0][0][0][0]</property>
  <property name="meta.attr.1.stream.ENCODER.markup">Lavc60.31.102 libvorbis</property>
  <property name="meta.attr.1.stream.DURATION.markup">00:00:02.861000000</property>
  <property name="meta.attr.COMPATIBLE_BRANDS.markup">isomiso2avc1mp41</property>
  <property name="meta.attr.MAJOR_BRAND.markup">isom</property>
  <property name="meta.attr.MINOR_VERSION.markup">512</property>
  <property name="meta.attr.ENCODER.markup">Lavf60.16.100</property>
  <property name="seekable">1</property>
  <property name="meta.media.sample_aspect_num">1</property>
  <property name="meta.media.sample_aspect_den">1</property>
  <property name="aspect_ratio">1</property>
  <property name="format">3</property>
  <property name="kdenlive:clipname"/>
  <property name="meta.media.frame_rate_num">60</property>
  <property name="meta.media.frame_rate_den">1</property>
  <property name="meta.media.colorspace">709</property>
  <property name="meta.media.color_trc">1</property>
  <property name="meta.media.has_b_frames">2</property>
  <property name="meta.media.width">1920</property>
  <property name="meta.media.height">1080</property>
  <property name="meta.media.color_range">mpeg</property>
  <property name="meta.media.top_field_first">0</property>
  <property name="meta.media.progressive">1</property>
  <property name="kdenlive:clip_type">0</property>
  <property name="kdenlive:folderid">586</property>
  <property name="kdenlive:id">618</property>
  <property name="kdenlive:file_size">1874447</property>
  <property name="kdenlive:file_hash">94ee2d1631ac884ca915f2b5e5480e44</property>
  <property name="kdenlive:audio_max1">212</property>
 </producer>
 <producer id="producer570" in="00:00:00.000" out="00:00:01.433">
  <property name="length">87</property>
  <property name="eof">pause</property>
  <property name="resource">/home/federico/Nextcloud/Kden/EditingUT/Video/Sabaku/sabaku smettiamola di fare gli imbecilli.mkv</property>
  <property name="audio_index">1</property>
  <property name="video_index">0</property>
  <property name="mute_on_pause">0</property>
  <property name="mlt_service">avformat-novalidate</property>
  <property name="meta.media.nb_streams">2</property>
  <property name="meta.media.0.stream.type">video</property>
  <property name="meta.media.0.stream.frame_rate">30</property>
  <property name="meta.media.0.stream.sample_aspect_ratio">1</property>
  <property name="meta.media.0.codec.width">1920</property>
  <property name="meta.media.0.codec.height">1080</property>
  <property name="meta.media.0.codec.rotate">0</property>
  <property name="meta.media.0.codec.pix_fmt">yuv420p</property>
  <property name="meta.media.0.codec.sample_aspect_ratio">1</property>
  <property name="meta.media.0.codec.colorspace">709</property>
  <property name="meta.media.0.codec.color_trc">1</property>
  <property name="meta.media.0.codec.name">h264</property>
  <property name="meta.media.0.codec.long_name">H.264 / AVC / MPEG-4 AVC / MPEG-4 part 10</property>
  <property name="meta.media.0.codec.bit_rate">0</property>
  <property name="meta.attr.0.stream.HANDLER_NAME.markup">VideoHandler</property>
  <property name="meta.attr.0.stream.VENDOR_ID.markup">[0][0][0][0]</property>
  <property name="meta.attr.0.stream.ENCODER.markup">Lavc60.31.102 libx264</property>
  <property name="meta.attr.0.stream.DURATION.markup">00:00:01.436000000</property>
  <property name="meta.media.1.stream.type">audio</property>
  <property name="meta.media.1.codec.sample_fmt">fltp</property>
  <property name="meta.media.1.codec.sample_rate">48000</property>
  <property name="meta.media.1.codec.channels">2</property>
  <property name="meta.media.1.codec.name">vorbis</property>
  <property name="meta.media.1.codec.long_name">Vorbis</property>
  <property name="meta.media.1.codec.bit_rate">0</property>
  <property name="meta.attr.1.stream.HANDLER_NAME.markup">SoundHandler</property>
  <property name="meta.attr.1.stream.VENDOR_ID.markup">[0][0][0][0]</property>
  <property name="meta.attr.1.stream.ENCODER.markup">Lavc60.31.102 libvorbis</property>
  <property name="meta.attr.1.stream.DURATION.markup">00:00:01.454000000</property>
  <property name="meta.attr.COMPATIBLE_BRANDS.markup">isomiso2avc1mp41</property>
  <property name="meta.attr.MAJOR_BRAND.markup">isom</property>
  <property name="meta.attr.MINOR_VERSION.markup">512</property>
  <property name="meta.attr.ENCODER.markup">Lavf60.16.100</property>
  <property name="seekable">1</property>
  <property name="meta.media.sample_aspect_num">1</property>
  <property name="meta.media.sample_aspect_den">1</property>
  <property name="aspect_ratio">1</property>
  <property name="format">3</property>
  <property name="kdenlive:clipname"/>
  <property name="meta.media.frame_rate_num">30</property>
  <property name="meta.media.frame_rate_den">1</property>
  <property name="meta.media.colorspace">709</property>
  <property name="meta.media.color_trc">1</property>
  <property name="meta.media.has_b_frames">2</property>
  <property name="meta.media.width">1920</property>
  <property name="meta.media.height">1080</property>
  <property name="meta.media.color_range">mpeg</property>
  <property name="meta.media.top_field_first">0</property>
  <property name="meta.media.progressive">1</property>
  <property name="kdenlive:clip_type">0</property>
  <property name="kdenlive:folderid">586</property>
  <property name="kdenlive:id">619</property>
  <property name="kdenlive:file_size">549588</property>
  <property name="kdenlive:file_hash">60b3c198884ef7fc6dd8bfa23693b8cf</property>
  <property name="kdenlive:audio_max1">202</property>
 </producer>
 <producer id="producer571" in="00:00:00.000" out="00:00:03.500">
  <property name="length">211</property>
  <property name="eof">pause</property>
  <property name="resource">/home/federico/Nextcloud/Kden/EditingUT/Video/Sabaku/sabaku spiegazioni tecniche.mkv</property>
  <property name="audio_index">1</property>
  <property name="video_index">0</property>
  <property name="mute_on_pause">0</property>
  <property name="mlt_service">avformat-novalidate</property>
  <property name="meta.media.nb_streams">2</property>
  <property name="meta.media.0.stream.type">video</property>
  <property name="meta.media.0.stream.frame_rate">60</property>
  <property name="meta.media.0.stream.sample_aspect_ratio">1</property>
  <property name="meta.media.0.codec.width">1920</property>
  <property name="meta.media.0.codec.height">1080</property>
  <property name="meta.media.0.codec.rotate">0</property>
  <property name="meta.media.0.codec.pix_fmt">yuv420p</property>
  <property name="meta.media.0.codec.sample_aspect_ratio">1</property>
  <property name="meta.media.0.codec.colorspace">709</property>
  <property name="meta.media.0.codec.color_trc">1</property>
  <property name="meta.media.0.codec.name">h264</property>
  <property name="meta.media.0.codec.long_name">H.264 / AVC / MPEG-4 AVC / MPEG-4 part 10</property>
  <property name="meta.media.0.codec.bit_rate">0</property>
  <property name="meta.attr.0.stream.HANDLER_NAME.markup">VideoHandler</property>
  <property name="meta.attr.0.stream.VENDOR_ID.markup">[0][0][0][0]</property>
  <property name="meta.attr.0.stream.ENCODER.markup">Lavc60.31.102 libx264</property>
  <property name="meta.attr.0.stream.DURATION.markup">00:00:03.520000000</property>
  <property name="meta.media.1.stream.type">audio</property>
  <property name="meta.media.1.codec.sample_fmt">fltp</property>
  <property name="meta.media.1.codec.sample_rate">48000</property>
  <property name="meta.media.1.codec.channels">2</property>
  <property name="meta.media.1.codec.name">vorbis</property>
  <property name="meta.media.1.codec.long_name">Vorbis</property>
  <property name="meta.media.1.codec.bit_rate">0</property>
  <property name="meta.attr.1.stream.HANDLER_NAME.markup">SoundHandler</property>
  <property name="meta.attr.1.stream.VENDOR_ID.markup">[0][0][0][0]</property>
  <property name="meta.attr.1.stream.ENCODER.markup">Lavc60.31.102 libvorbis</property>
  <property name="meta.attr.1.stream.DURATION.markup">00:00:03.523000000</property>
  <property name="meta.attr.COMPATIBLE_BRANDS.markup">isomiso2avc1mp41</property>
  <property name="meta.attr.MAJOR_BRAND.markup">isom</property>
  <property name="meta.attr.MINOR_VERSION.markup">512</property>
  <property name="meta.attr.ENCODER.markup">Lavf60.16.100</property>
  <property name="seekable">1</property>
  <property name="meta.media.sample_aspect_num">1</property>
  <property name="meta.media.sample_aspect_den">1</property>
  <property name="aspect_ratio">1</property>
  <property name="format">3</property>
  <property name="kdenlive:clipname"/>
  <property name="meta.media.frame_rate_num">60</property>
  <property name="meta.media.frame_rate_den">1</property>
  <property name="meta.media.colorspace">709</property>
  <property name="meta.media.color_trc">1</property>
  <property name="meta.media.has_b_frames">2</property>
  <property name="meta.media.width">1920</property>
  <property name="meta.media.height">1080</property>
  <property name="meta.media.color_range">mpeg</property>
  <property name="meta.media.top_field_first">0</property>
  <property name="meta.media.progressive">1</property>
  <property name="kdenlive:clip_type">0</property>
  <property name="kdenlive:folderid">586</property>
  <property name="kdenlive:id">620</property>
  <property name="kdenlive:file_size">1298241</property>
  <property name="kdenlive:file_hash">a43b8a049165c29999d8315f3d57c13c</property>
  <property name="kdenlive:audio_max1">163</property>
 </producer>
 <producer id="producer573" in="00:00:00.000" out="00:00:02.583">
  <property name="length">156</property>
  <property name="eof">pause</property>
  <property name="resource">/home/federico/Nextcloud/Kden/EditingUT/Video/Sabaku/sabaku ti stavo venendo addosso.mkv</property>
  <property name="audio_index">1</property>
  <property name="video_index">0</property>
  <property name="mute_on_pause">0</property>
  <property name="mlt_service">avformat-novalidate</property>
  <property name="meta.media.nb_streams">2</property>
  <property name="meta.media.0.stream.type">video</property>
  <property name="meta.media.0.stream.frame_rate">60</property>
  <property name="meta.media.0.stream.sample_aspect_ratio">1</property>
  <property name="meta.media.0.codec.width">1920</property>
  <property name="meta.media.0.codec.height">1080</property>
  <property name="meta.media.0.codec.rotate">0</property>
  <property name="meta.media.0.codec.pix_fmt">yuv420p</property>
  <property name="meta.media.0.codec.sample_aspect_ratio">1</property>
  <property name="meta.media.0.codec.colorspace">709</property>
  <property name="meta.media.0.codec.color_trc">1</property>
  <property name="meta.media.0.codec.name">h264</property>
  <property name="meta.media.0.codec.long_name">H.264 / AVC / MPEG-4 AVC / MPEG-4 part 10</property>
  <property name="meta.media.0.codec.bit_rate">0</property>
  <property name="meta.attr.0.stream.HANDLER_NAME.markup">VideoHandler</property>
  <property name="meta.attr.0.stream.VENDOR_ID.markup">[0][0][0][0]</property>
  <property name="meta.attr.0.stream.ENCODER.markup">Lavc60.31.102 libx264</property>
  <property name="meta.attr.0.stream.DURATION.markup">00:00:02.603000000</property>
  <property name="meta.media.1.stream.type">audio</property>
  <property name="meta.media.1.codec.sample_fmt">fltp</property>
  <property name="meta.media.1.codec.sample_rate">48000</property>
  <property name="meta.media.1.codec.channels">2</property>
  <property name="meta.media.1.codec.name">vorbis</property>
  <property name="meta.media.1.codec.long_name">Vorbis</property>
  <property name="meta.media.1.codec.bit_rate">0</property>
  <property name="meta.attr.1.stream.HANDLER_NAME.markup">SoundHandler</property>
  <property name="meta.attr.1.stream.VENDOR_ID.markup">[0][0][0][0]</property>
  <property name="meta.attr.1.stream.ENCODER.markup">Lavc60.31.102 libvorbis</property>
  <property name="meta.attr.1.stream.DURATION.markup">00:00:02.606000000</property>
  <property name="meta.attr.COMPATIBLE_BRANDS.markup">isomiso2avc1mp41</property>
  <property name="meta.attr.MAJOR_BRAND.markup">isom</property>
  <property name="meta.attr.MINOR_VERSION.markup">512</property>
  <property name="meta.attr.ENCODER.markup">Lavf60.16.100</property>
  <property name="seekable">1</property>
  <property name="meta.media.sample_aspect_num">1</property>
  <property name="meta.media.sample_aspect_den">1</property>
  <property name="aspect_ratio">1</property>
  <property name="format">3</property>
  <property name="kdenlive:clipname"/>
  <property name="meta.media.frame_rate_num">60</property>
  <property name="meta.media.frame_rate_den">1</property>
  <property name="meta.media.colorspace">709</property>
  <property name="meta.media.color_trc">1</property>
  <property name="meta.media.has_b_frames">2</property>
  <property name="meta.media.width">1920</property>
  <property name="meta.media.height">1080</property>
  <property name="meta.media.color_range">mpeg</property>
  <property name="meta.media.top_field_first">0</property>
  <property name="meta.media.progressive">1</property>
  <property name="kdenlive:clip_type">0</property>
  <property name="kdenlive:folderid">586</property>
  <property name="kdenlive:id">621</property>
  <property name="kdenlive:file_size">1208800</property>
  <property name="kdenlive:file_hash">7fdc3289ac3419bd5611e239ad3754ab</property>
  <property name="kdenlive:audio_max1">166</property>
 </producer>
 <producer id="producer575" in="00:00:00.000" out="00:00:01.350">
  <property name="length">82</property>
  <property name="eof">pause</property>
  <property name="resource">/home/federico/Nextcloud/Kden/EditingUT/Video/Sabaku/sabaku togli la mano hand da lì.mkv</property>
  <property name="audio_index">1</property>
  <property name="video_index">0</property>
  <property name="mute_on_pause">0</property>
  <property name="mlt_service">avformat-novalidate</property>
  <property name="meta.media.nb_streams">2</property>
  <property name="meta.media.0.stream.type">video</property>
  <property name="meta.media.0.stream.frame_rate">60</property>
  <property name="meta.media.0.stream.sample_aspect_ratio">1</property>
  <property name="meta.media.0.codec.width">1920</property>
  <property name="meta.media.0.codec.height">1080</property>
  <property name="meta.media.0.codec.rotate">0</property>
  <property name="meta.media.0.codec.pix_fmt">yuv420p</property>
  <property name="meta.media.0.codec.sample_aspect_ratio">1</property>
  <property name="meta.media.0.codec.colorspace">709</property>
  <property name="meta.media.0.codec.color_trc">1</property>
  <property name="meta.media.0.codec.name">h264</property>
  <property name="meta.media.0.codec.long_name">H.264 / AVC / MPEG-4 AVC / MPEG-4 part 10</property>
  <property name="meta.media.0.codec.bit_rate">0</property>
  <property name="meta.attr.0.stream.HANDLER_NAME.markup">VideoHandler</property>
  <property name="meta.attr.0.stream.VENDOR_ID.markup">[0][0][0][0]</property>
  <property name="meta.attr.0.stream.ENCODER.markup">Lavc60.31.102 libx264</property>
  <property name="meta.attr.0.stream.DURATION.markup">00:00:01.353000000</property>
  <property name="meta.media.1.stream.type">audio</property>
  <property name="meta.media.1.codec.sample_fmt">fltp</property>
  <property name="meta.media.1.codec.sample_rate">48000</property>
  <property name="meta.media.1.codec.channels">2</property>
  <property name="meta.media.1.codec.name">vorbis</property>
  <property name="meta.media.1.codec.long_name">Vorbis</property>
  <property name="meta.media.1.codec.bit_rate">0</property>
  <property name="meta.attr.1.stream.HANDLER_NAME.markup">SoundHandler</property>
  <property name="meta.attr.1.stream.VENDOR_ID.markup">[0][0][0][0]</property>
  <property name="meta.attr.1.stream.ENCODER.markup">Lavc60.31.102 libvorbis</property>
  <property name="meta.attr.1.stream.DURATION.markup">00:00:01.369000000</property>
  <property name="meta.attr.COMPATIBLE_BRANDS.markup">isomiso2avc1mp41</property>
  <property name="meta.attr.MAJOR_BRAND.markup">isom</property>
  <property name="meta.attr.MINOR_VERSION.markup">512</property>
  <property name="meta.attr.ENCODER.markup">Lavf60.16.100</property>
  <property name="seekable">1</property>
  <property name="meta.media.sample_aspect_num">1</property>
  <property name="meta.media.sample_aspect_den">1</property>
  <property name="aspect_ratio">1</property>
  <property name="format">3</property>
  <property name="kdenlive:clipname"/>
  <property name="meta.media.frame_rate_num">60</property>
  <property name="meta.media.frame_rate_den">1</property>
  <property name="meta.media.colorspace">709</property>
  <property name="meta.media.color_trc">1</property>
  <property name="meta.media.has_b_frames">2</property>
  <property name="meta.media.width">1920</property>
  <property name="meta.media.height">1080</property>
  <property name="meta.media.color_range">mpeg</property>
  <property name="meta.media.top_field_first">0</property>
  <property name="meta.media.progressive">1</property>
  <property name="kdenlive:clip_type">0</property>
  <property name="kdenlive:folderid">586</property>
  <property name="kdenlive:id">622</property>
  <property name="kdenlive:file_size">343893</property>
  <property name="kdenlive:file_hash">a64379352ba1fb59518411a3d0f2a934</property>
  <property name="kdenlive:audio_max1">185</property>
 </producer>
 <producer id="producer574" in="00:00:00.000" out="00:00:07.983">
  <property name="length">480</property>
  <property name="eof">pause</property>
  <property name="resource">/home/federico/Nextcloud/Kden/EditingUT/Video/Sabaku/sabaku triste merde è questo che volete.mkv</property>
  <property name="audio_index">1</property>
  <property name="video_index">0</property>
  <property name="mute_on_pause">0</property>
  <property name="mlt_service">avformat-novalidate</property>
  <property name="meta.media.nb_streams">2</property>
  <property name="meta.media.0.stream.type">video</property>
  <property name="meta.media.0.stream.frame_rate">60</property>
  <property name="meta.media.0.stream.sample_aspect_ratio">1</property>
  <property name="meta.media.0.codec.width">1920</property>
  <property name="meta.media.0.codec.height">1080</property>
  <property name="meta.media.0.codec.rotate">0</property>
  <property name="meta.media.0.codec.pix_fmt">yuv420p</property>
  <property name="meta.media.0.codec.sample_aspect_ratio">1</property>
  <property name="meta.media.0.codec.colorspace">709</property>
  <property name="meta.media.0.codec.color_trc">1</property>
  <property name="meta.media.0.codec.name">h264</property>
  <property name="meta.media.0.codec.long_name">H.264 / AVC / MPEG-4 AVC / MPEG-4 part 10</property>
  <property name="meta.media.0.codec.bit_rate">0</property>
  <property name="meta.attr.0.stream.HANDLER_NAME.markup">VideoHandler</property>
  <property name="meta.attr.0.stream.VENDOR_ID.markup">[0][0][0][0]</property>
  <property name="meta.attr.0.stream.ENCODER.markup">Lavc60.31.102 libx264</property>
  <property name="meta.attr.0.stream.DURATION.markup">00:00:08.003000000</property>
  <property name="meta.media.1.stream.type">audio</property>
  <property name="meta.media.1.codec.sample_fmt">fltp</property>
  <property name="meta.media.1.codec.sample_rate">48000</property>
  <property name="meta.media.1.codec.channels">2</property>
  <property name="meta.media.1.codec.name">vorbis</property>
  <property name="meta.media.1.codec.long_name">Vorbis</property>
  <property name="meta.media.1.codec.bit_rate">0</property>
  <property name="meta.attr.1.stream.HANDLER_NAME.markup">SoundHandler</property>
  <property name="meta.attr.1.stream.VENDOR_ID.markup">[0][0][0][0]</property>
  <property name="meta.attr.1.stream.ENCODER.markup">Lavc60.31.102 libvorbis</property>
  <property name="meta.attr.1.stream.DURATION.markup">00:00:08.003000000</property>
  <property name="meta.attr.COMPATIBLE_BRANDS.markup">isomiso2avc1mp41</property>
  <property name="meta.attr.MAJOR_BRAND.markup">isom</property>
  <property name="meta.attr.MINOR_VERSION.markup">512</property>
  <property name="meta.attr.ENCODER.markup">Lavf60.16.100</property>
  <property name="seekable">1</property>
  <property name="meta.media.sample_aspect_num">1</property>
  <property name="meta.media.sample_aspect_den">1</property>
  <property name="aspect_ratio">1</property>
  <property name="format">3</property>
  <property name="kdenlive:clipname"/>
  <property name="meta.media.frame_rate_num">60</property>
  <property name="meta.media.frame_rate_den">1</property>
  <property name="meta.media.colorspace">709</property>
  <property name="meta.media.color_trc">1</property>
  <property name="meta.media.has_b_frames">2</property>
  <property name="meta.media.width">1920</property>
  <property name="meta.media.height">1080</property>
  <property name="meta.media.color_range">mpeg</property>
  <property name="meta.media.top_field_first">0</property>
  <property name="meta.media.progressive">1</property>
  <property name="kdenlive:clip_type">0</property>
  <property name="kdenlive:folderid">586</property>
  <property name="kdenlive:id">623</property>
  <property name="kdenlive:file_size">1149706</property>
  <property name="kdenlive:file_hash">cf8d8c6d5c0c36c10bf20ac1a63060dd</property>
  <property name="kdenlive:audio_max1">204</property>
 </producer>
 <producer id="producer576" in="00:00:00.000" out="00:00:04.033">
  <property name="length">243</property>
  <property name="eof">pause</property>
  <property name="resource">/home/federico/Nextcloud/Kden/EditingUT/Video/Sabaku/sabaku troppi cazzi stasera romantici.mkv</property>
  <property name="audio_index">1</property>
  <property name="video_index">0</property>
  <property name="mute_on_pause">0</property>
  <property name="mlt_service">avformat-novalidate</property>
  <property name="meta.media.nb_streams">2</property>
  <property name="meta.media.0.stream.type">video</property>
  <property name="meta.media.0.stream.frame_rate">60</property>
  <property name="meta.media.0.stream.sample_aspect_ratio">1</property>
  <property name="meta.media.0.codec.width">1920</property>
  <property name="meta.media.0.codec.height">1080</property>
  <property name="meta.media.0.codec.rotate">0</property>
  <property name="meta.media.0.codec.pix_fmt">yuv420p</property>
  <property name="meta.media.0.codec.sample_aspect_ratio">1</property>
  <property name="meta.media.0.codec.colorspace">709</property>
  <property name="meta.media.0.codec.color_trc">1</property>
  <property name="meta.media.0.codec.name">h264</property>
  <property name="meta.media.0.codec.long_name">H.264 / AVC / MPEG-4 AVC / MPEG-4 part 10</property>
  <property name="meta.media.0.codec.bit_rate">0</property>
  <property name="meta.attr.0.stream.HANDLER_NAME.markup">VideoHandler</property>
  <property name="meta.attr.0.stream.VENDOR_ID.markup">[0][0][0][0]</property>
  <property name="meta.attr.0.stream.ENCODER.markup">Lavc60.31.102 libx264</property>
  <property name="meta.attr.0.stream.DURATION.markup">00:00:04.037000000</property>
  <property name="meta.media.1.stream.type">audio</property>
  <property name="meta.media.1.codec.sample_fmt">fltp</property>
  <property name="meta.media.1.codec.sample_rate">48000</property>
  <property name="meta.media.1.codec.channels">2</property>
  <property name="meta.media.1.codec.name">vorbis</property>
  <property name="meta.media.1.codec.long_name">Vorbis</property>
  <property name="meta.media.1.codec.bit_rate">0</property>
  <property name="meta.attr.1.stream.HANDLER_NAME.markup">SoundHandler</property>
  <property name="meta.attr.1.stream.VENDOR_ID.markup">[0][0][0][0]</property>
  <property name="meta.attr.1.stream.ENCODER.markup">Lavc60.31.102 libvorbis</property>
  <property name="meta.attr.1.stream.DURATION.markup">00:00:04.056000000</property>
  <property name="meta.attr.COMPATIBLE_BRANDS.markup">isomiso2avc1mp41</property>
  <property name="meta.attr.MAJOR_BRAND.markup">isom</property>
  <property name="meta.attr.MINOR_VERSION.markup">512</property>
  <property name="meta.attr.ENCODER.markup">Lavf60.16.100</property>
  <property name="seekable">1</property>
  <property name="meta.media.sample_aspect_num">1</property>
  <property name="meta.media.sample_aspect_den">1</property>
  <property name="aspect_ratio">1</property>
  <property name="format">3</property>
  <property name="kdenlive:clipname"/>
  <property name="meta.media.frame_rate_num">60</property>
  <property name="meta.media.frame_rate_den">1</property>
  <property name="meta.media.colorspace">709</property>
  <property name="meta.media.color_trc">1</property>
  <property name="meta.media.has_b_frames">2</property>
  <property name="meta.media.width">1920</property>
  <property name="meta.media.height">1080</property>
  <property name="meta.media.color_range">mpeg</property>
  <property name="meta.media.top_field_first">0</property>
  <property name="meta.media.progressive">1</property>
  <property name="kdenlive:clip_type">0</property>
  <property name="kdenlive:folderid">586</property>
  <property name="kdenlive:id">624</property>
  <property name="kdenlive:file_size">2893951</property>
  <property name="kdenlive:file_hash">7cc2a0a5ad3406a9a6b273b1754b65f8</property>
  <property name="kdenlive:audio_max1">169</property>
 </producer>
 <producer id="producer577" in="00:00:00.000" out="00:00:11.767">
  <property name="length">707</property>
  <property name="eof">pause</property>
  <property name="resource">/home/federico/Nextcloud/Kden/EditingUT/Video/Sabaku/sabaku tu non sai un cazzo.mkv</property>
  <property name="audio_index">1</property>
  <property name="video_index">0</property>
  <property name="mute_on_pause">0</property>
  <property name="mlt_service">avformat-novalidate</property>
  <property name="meta.media.nb_streams">2</property>
  <property name="meta.media.0.stream.type">video</property>
  <property name="meta.media.0.stream.frame_rate">30</property>
  <property name="meta.media.0.stream.sample_aspect_ratio">1</property>
  <property name="meta.media.0.codec.width">1920</property>
  <property name="meta.media.0.codec.height">1080</property>
  <property name="meta.media.0.codec.rotate">0</property>
  <property name="meta.media.0.codec.pix_fmt">yuv420p</property>
  <property name="meta.media.0.codec.sample_aspect_ratio">1</property>
  <property name="meta.media.0.codec.colorspace">709</property>
  <property name="meta.media.0.codec.color_trc">1</property>
  <property name="meta.media.0.codec.name">h264</property>
  <property name="meta.media.0.codec.long_name">H.264 / AVC / MPEG-4 AVC / MPEG-4 part 10</property>
  <property name="meta.media.0.codec.bit_rate">0</property>
  <property name="meta.attr.0.stream.HANDLER_NAME.markup">VideoHandler</property>
  <property name="meta.attr.0.stream.VENDOR_ID.markup">[0][0][0][0]</property>
  <property name="meta.attr.0.stream.ENCODER.markup">Lavc60.31.102 libx264</property>
  <property name="meta.attr.0.stream.DURATION.markup">00:00:11.769000000</property>
  <property name="meta.media.1.stream.type">audio</property>
  <property name="meta.media.1.codec.sample_fmt">fltp</property>
  <property name="meta.media.1.codec.sample_rate">48000</property>
  <property name="meta.media.1.codec.channels">2</property>
  <property name="meta.media.1.codec.name">vorbis</property>
  <property name="meta.media.1.codec.long_name">Vorbis</property>
  <property name="meta.media.1.codec.bit_rate">0</property>
  <property name="meta.attr.1.stream.HANDLER_NAME.markup">SoundHandler</property>
  <property name="meta.attr.1.stream.VENDOR_ID.markup">[0][0][0][0]</property>
  <property name="meta.attr.1.stream.ENCODER.markup">Lavc60.31.102 libvorbis</property>
  <property name="meta.attr.1.stream.DURATION.markup">00:00:11.779000000</property>
  <property name="meta.attr.COMPATIBLE_BRANDS.markup">isomiso2avc1mp41</property>
  <property name="meta.attr.MAJOR_BRAND.markup">isom</property>
  <property name="meta.attr.MINOR_VERSION.markup">512</property>
  <property name="meta.attr.ENCODER.markup">Lavf60.16.100</property>
  <property name="seekable">1</property>
  <property name="meta.media.sample_aspect_num">1</property>
  <property name="meta.media.sample_aspect_den">1</property>
  <property name="aspect_ratio">1</property>
  <property name="format">3</property>
  <property name="kdenlive:clipname"/>
  <property name="meta.media.frame_rate_num">30</property>
  <property name="meta.media.frame_rate_den">1</property>
  <property name="meta.media.colorspace">709</property>
  <property name="meta.media.color_trc">1</property>
  <property name="meta.media.has_b_frames">2</property>
  <property name="meta.media.width">1920</property>
  <property name="meta.media.height">1080</property>
  <property name="meta.media.color_range">mpeg</property>
  <property name="meta.media.top_field_first">0</property>
  <property name="meta.media.progressive">1</property>
  <property name="kdenlive:clip_type">0</property>
  <property name="kdenlive:folderid">586</property>
  <property name="kdenlive:id">625</property>
  <property name="kdenlive:file_size">1146382</property>
  <property name="kdenlive:file_hash">03fa87111e45eacff6cf331e9021480f</property>
  <property name="kdenlive:audio_max1">214</property>
 </producer>
 <producer id="producer578" in="00:00:00.000" out="00:00:01.100">
  <property name="length">67</property>
  <property name="eof">pause</property>
  <property name="resource">/home/federico/Nextcloud/Kden/EditingUT/Video/Sabaku/sabaku vaffanculo.mkv</property>
  <property name="audio_index">1</property>
  <property name="video_index">0</property>
  <property name="mute_on_pause">0</property>
  <property name="mlt_service">avformat-novalidate</property>
  <property name="meta.media.nb_streams">2</property>
  <property name="meta.media.0.stream.type">video</property>
  <property name="meta.media.0.stream.frame_rate">30</property>
  <property name="meta.media.0.stream.sample_aspect_ratio">1</property>
  <property name="meta.media.0.codec.width">1920</property>
  <property name="meta.media.0.codec.height">1080</property>
  <property name="meta.media.0.codec.rotate">0</property>
  <property name="meta.media.0.codec.pix_fmt">yuv420p</property>
  <property name="meta.media.0.codec.sample_aspect_ratio">1</property>
  <property name="meta.media.0.codec.colorspace">709</property>
  <property name="meta.media.0.codec.color_trc">1</property>
  <property name="meta.media.0.codec.name">h264</property>
  <property name="meta.media.0.codec.long_name">H.264 / AVC / MPEG-4 AVC / MPEG-4 part 10</property>
  <property name="meta.media.0.codec.bit_rate">0</property>
  <property name="meta.attr.0.stream.HANDLER_NAME.markup">VideoHandler</property>
  <property name="meta.attr.0.stream.VENDOR_ID.markup">[0][0][0][0]</property>
  <property name="meta.attr.0.stream.ENCODER.markup">Lavc60.31.102 libx264</property>
  <property name="meta.attr.0.stream.DURATION.markup">00:00:01.103000000</property>
  <property name="meta.media.1.stream.type">audio</property>
  <property name="meta.media.1.codec.sample_fmt">fltp</property>
  <property name="meta.media.1.codec.sample_rate">48000</property>
  <property name="meta.media.1.codec.channels">2</property>
  <property name="meta.media.1.codec.name">vorbis</property>
  <property name="meta.media.1.codec.long_name">Vorbis</property>
  <property name="meta.media.1.codec.bit_rate">0</property>
  <property name="meta.attr.1.stream.HANDLER_NAME.markup">SoundHandler</property>
  <property name="meta.attr.1.stream.VENDOR_ID.markup">[0][0][0][0]</property>
  <property name="meta.attr.1.stream.ENCODER.markup">Lavc60.31.102 libvorbis</property>
  <property name="meta.attr.1.stream.DURATION.markup">00:00:01.112000000</property>
  <property name="meta.attr.COMPATIBLE_BRANDS.markup">isomiso2avc1mp41</property>
  <property name="meta.attr.MAJOR_BRAND.markup">isom</property>
  <property name="meta.attr.MINOR_VERSION.markup">512</property>
  <property name="meta.attr.ENCODER.markup">Lavf60.16.100</property>
  <property name="seekable">1</property>
  <property name="meta.media.sample_aspect_num">1</property>
  <property name="meta.media.sample_aspect_den">1</property>
  <property name="aspect_ratio">1</property>
  <property name="format">3</property>
  <property name="kdenlive:clipname"/>
  <property name="meta.media.frame_rate_num">30</property>
  <property name="meta.media.frame_rate_den">1</property>
  <property name="meta.media.colorspace">709</property>
  <property name="meta.media.color_trc">1</property>
  <property name="meta.media.has_b_frames">2</property>
  <property name="meta.media.width">1920</property>
  <property name="meta.media.height">1080</property>
  <property name="meta.media.color_range">mpeg</property>
  <property name="meta.media.top_field_first">0</property>
  <property name="meta.media.progressive">1</property>
  <property name="kdenlive:clip_type">0</property>
  <property name="kdenlive:folderid">586</property>
  <property name="kdenlive:id">626</property>
  <property name="kdenlive:file_size">688336</property>
  <property name="kdenlive:file_hash">441fc5f2e0733a2dd96276ed57cd213e</property>
  <property name="kdenlive:audio_max1">224</property>
 </producer>
 <producer id="producer579" in="00:00:00.000" out="00:00:04.250">
  <property name="length">256</property>
  <property name="eof">pause</property>
  <property name="resource">/home/federico/Nextcloud/Kden/EditingUT/Video/Sabaku/sabaku verginità anale.mkv</property>
  <property name="audio_index">1</property>
  <property name="video_index">0</property>
  <property name="mute_on_pause">0</property>
  <property name="mlt_service">avformat-novalidate</property>
  <property name="meta.media.nb_streams">2</property>
  <property name="meta.media.0.stream.type">video</property>
  <property name="meta.media.0.stream.frame_rate">30</property>
  <property name="meta.media.0.stream.sample_aspect_ratio">1</property>
  <property name="meta.media.0.codec.width">1920</property>
  <property name="meta.media.0.codec.height">1080</property>
  <property name="meta.media.0.codec.rotate">0</property>
  <property name="meta.media.0.codec.pix_fmt">yuv420p</property>
  <property name="meta.media.0.codec.sample_aspect_ratio">1</property>
  <property name="meta.media.0.codec.colorspace">709</property>
  <property name="meta.media.0.codec.color_trc">1</property>
  <property name="meta.media.0.codec.name">h264</property>
  <property name="meta.media.0.codec.long_name">H.264 / AVC / MPEG-4 AVC / MPEG-4 part 10</property>
  <property name="meta.media.0.codec.bit_rate">0</property>
  <property name="meta.attr.0.stream.HANDLER_NAME.markup">VideoHandler</property>
  <property name="meta.attr.0.stream.VENDOR_ID.markup">[0][0][0][0]</property>
  <property name="meta.attr.0.stream.ENCODER.markup">Lavc60.31.102 libx264</property>
  <property name="meta.attr.0.stream.DURATION.markup">00:00:04.269000000</property>
  <property name="meta.media.1.stream.type">audio</property>
  <property name="meta.media.1.codec.sample_fmt">fltp</property>
  <property name="meta.media.1.codec.sample_rate">48000</property>
  <property name="meta.media.1.codec.channels">2</property>
  <property name="meta.media.1.codec.name">vorbis</property>
  <property name="meta.media.1.codec.long_name">Vorbis</property>
  <property name="meta.media.1.codec.bit_rate">0</property>
  <property name="meta.attr.1.stream.HANDLER_NAME.markup">SoundHandler</property>
  <property name="meta.attr.1.stream.VENDOR_ID.markup">[0][0][0][0]</property>
  <property name="meta.attr.1.stream.ENCODER.markup">Lavc60.31.102 libvorbis</property>
  <property name="meta.attr.1.stream.DURATION.markup">00:00:04.269000000</property>
  <property name="meta.attr.COMPATIBLE_BRANDS.markup">isomiso2avc1mp41</property>
  <property name="meta.attr.MAJOR_BRAND.markup">isom</property>
  <property name="meta.attr.MINOR_VERSION.markup">512</property>
  <property name="meta.attr.ENCODER.markup">Lavf60.16.100</property>
  <property name="seekable">1</property>
  <property name="meta.media.sample_aspect_num">1</property>
  <property name="meta.media.sample_aspect_den">1</property>
  <property name="aspect_ratio">1</property>
  <property name="format">3</property>
  <property name="kdenlive:clipname"/>
  <property name="meta.media.frame_rate_num">30</property>
  <property name="meta.media.frame_rate_den">1</property>
  <property name="meta.media.colorspace">709</property>
  <property name="meta.media.color_trc">1</property>
  <property name="meta.media.has_b_frames">2</property>
  <property name="meta.media.width">1920</property>
  <property name="meta.media.height">1080</property>
  <property name="meta.media.color_range">mpeg</property>
  <property name="meta.media.top_field_first">0</property>
  <property name="meta.media.progressive">1</property>
  <property name="kdenlive:clip_type">0</property>
  <property name="kdenlive:folderid">586</property>
  <property name="kdenlive:id">627</property>
  <property name="kdenlive:file_size">1120884</property>
  <property name="kdenlive:file_hash">1602bff69b75701fa25878f0b06fee22</property>
  <property name="kdenlive:audio_max1">211</property>
 </producer>
 <producer id="producer580" in="00:00:00.000" out="00:00:03.883">
  <property name="length">234</property>
  <property name="eof">pause</property>
  <property name="resource">/home/federico/Nextcloud/Kden/EditingUT/Video/Sabaku/sabaku versi monkas scimmione donkey kong.mkv</property>
  <property name="audio_index">1</property>
  <property name="video_index">0</property>
  <property name="mute_on_pause">0</property>
  <property name="mlt_service">avformat-novalidate</property>
  <property name="meta.media.nb_streams">2</property>
  <property name="meta.media.0.stream.type">video</property>
  <property name="meta.media.0.stream.frame_rate">60</property>
  <property name="meta.media.0.stream.sample_aspect_ratio">1</property>
  <property name="meta.media.0.codec.width">1920</property>
  <property name="meta.media.0.codec.height">1080</property>
  <property name="meta.media.0.codec.rotate">0</property>
  <property name="meta.media.0.codec.pix_fmt">yuv420p</property>
  <property name="meta.media.0.codec.sample_aspect_ratio">1</property>
  <property name="meta.media.0.codec.colorspace">709</property>
  <property name="meta.media.0.codec.color_trc">1</property>
  <property name="meta.media.0.codec.name">h264</property>
  <property name="meta.media.0.codec.long_name">H.264 / AVC / MPEG-4 AVC / MPEG-4 part 10</property>
  <property name="meta.media.0.codec.bit_rate">0</property>
  <property name="meta.attr.0.stream.HANDLER_NAME.markup">VideoHandler</property>
  <property name="meta.attr.0.stream.VENDOR_ID.markup">[0][0][0][0]</property>
  <property name="meta.attr.0.stream.ENCODER.markup">Lavc60.31.102 libx264</property>
  <property name="meta.attr.0.stream.DURATION.markup">00:00:03.887000000</property>
  <property name="meta.media.1.stream.type">audio</property>
  <property name="meta.media.1.codec.sample_fmt">fltp</property>
  <property name="meta.media.1.codec.sample_rate">48000</property>
  <property name="meta.media.1.codec.channels">2</property>
  <property name="meta.media.1.codec.name">vorbis</property>
  <property name="meta.media.1.codec.long_name">Vorbis</property>
  <property name="meta.media.1.codec.bit_rate">0</property>
  <property name="meta.attr.1.stream.HANDLER_NAME.markup">SoundHandler</property>
  <property name="meta.attr.1.stream.VENDOR_ID.markup">[0][0][0][0]</property>
  <property name="meta.attr.1.stream.ENCODER.markup">Lavc60.31.102 libvorbis</property>
  <property name="meta.attr.1.stream.DURATION.markup">00:00:03.907000000</property>
  <property name="meta.attr.COMPATIBLE_BRANDS.markup">isomiso2avc1mp41</property>
  <property name="meta.attr.MAJOR_BRAND.markup">isom</property>
  <property name="meta.attr.MINOR_VERSION.markup">512</property>
  <property name="meta.attr.ENCODER.markup">Lavf60.16.100</property>
  <property name="seekable">1</property>
  <property name="meta.media.sample_aspect_num">1</property>
  <property name="meta.media.sample_aspect_den">1</property>
  <property name="aspect_ratio">1</property>
  <property name="format">3</property>
  <property name="kdenlive:clipname"/>
  <property name="meta.media.frame_rate_num">60</property>
  <property name="meta.media.frame_rate_den">1</property>
  <property name="meta.media.colorspace">709</property>
  <property name="meta.media.color_trc">1</property>
  <property name="meta.media.has_b_frames">2</property>
  <property name="meta.media.width">1920</property>
  <property name="meta.media.height">1080</property>
  <property name="meta.media.color_range">mpeg</property>
  <property name="meta.media.top_field_first">0</property>
  <property name="meta.media.progressive">1</property>
  <property name="kdenlive:clip_type">0</property>
  <property name="kdenlive:folderid">586</property>
  <property name="kdenlive:id">628</property>
  <property name="kdenlive:file_size">3283728</property>
  <property name="kdenlive:file_hash">047ffed32ceea7a11a19b32b1601cd2d</property>
  <property name="kdenlive:audio_max1">203</property>
 </producer>
 <producer id="producer583" in="00:00:00.000" out="00:00:03.383">
  <property name="length">204</property>
  <property name="eof">pause</property>
  <property name="resource">/home/federico/Nextcloud/Kden/EditingUT/Video/Sabaku/sabaku versi ninja è fatta.mkv</property>
  <property name="audio_index">1</property>
  <property name="video_index">0</property>
  <property name="mute_on_pause">0</property>
  <property name="mlt_service">avformat-novalidate</property>
  <property name="meta.media.nb_streams">2</property>
  <property name="meta.media.0.stream.type">video</property>
  <property name="meta.media.0.stream.frame_rate">60</property>
  <property name="meta.media.0.stream.sample_aspect_ratio">1</property>
  <property name="meta.media.0.codec.width">1920</property>
  <property name="meta.media.0.codec.height">1080</property>
  <property name="meta.media.0.codec.rotate">0</property>
  <property name="meta.media.0.codec.pix_fmt">yuv420p</property>
  <property name="meta.media.0.codec.sample_aspect_ratio">1</property>
  <property name="meta.media.0.codec.colorspace">709</property>
  <property name="meta.media.0.codec.color_trc">1</property>
  <property name="meta.media.0.codec.name">h264</property>
  <property name="meta.media.0.codec.long_name">H.264 / AVC / MPEG-4 AVC / MPEG-4 part 10</property>
  <property name="meta.media.0.codec.bit_rate">0</property>
  <property name="meta.attr.0.stream.HANDLER_NAME.markup">VideoHandler</property>
  <property name="meta.attr.0.stream.VENDOR_ID.markup">[0][0][0][0]</property>
  <property name="meta.attr.0.stream.ENCODER.markup">Lavc60.31.102 libx264</property>
  <property name="meta.attr.0.stream.DURATION.markup">00:00:03.387000000</property>
  <property name="meta.media.1.stream.type">audio</property>
  <property name="meta.media.1.codec.sample_fmt">fltp</property>
  <property name="meta.media.1.codec.sample_rate">48000</property>
  <property name="meta.media.1.codec.channels">2</property>
  <property name="meta.media.1.codec.name">vorbis</property>
  <property name="meta.media.1.codec.long_name">Vorbis</property>
  <property name="meta.media.1.codec.bit_rate">0</property>
  <property name="meta.attr.1.stream.HANDLER_NAME.markup">SoundHandler</property>
  <property name="meta.attr.1.stream.VENDOR_ID.markup">[0][0][0][0]</property>
  <property name="meta.attr.1.stream.ENCODER.markup">Lavc60.31.102 libvorbis</property>
  <property name="meta.attr.1.stream.DURATION.markup">00:00:03.395000000</property>
  <property name="meta.attr.COMPATIBLE_BRANDS.markup">isomiso2avc1mp41</property>
  <property name="meta.attr.MAJOR_BRAND.markup">isom</property>
  <property name="meta.attr.MINOR_VERSION.markup">512</property>
  <property name="meta.attr.ENCODER.markup">Lavf60.16.100</property>
  <property name="seekable">1</property>
  <property name="meta.media.sample_aspect_num">1</property>
  <property name="meta.media.sample_aspect_den">1</property>
  <property name="aspect_ratio">1</property>
  <property name="format">3</property>
  <property name="kdenlive:clipname"/>
  <property name="meta.media.frame_rate_num">60</property>
  <property name="meta.media.frame_rate_den">1</property>
  <property name="meta.media.colorspace">709</property>
  <property name="meta.media.color_trc">1</property>
  <property name="meta.media.has_b_frames">2</property>
  <property name="meta.media.width">1920</property>
  <property name="meta.media.height">1080</property>
  <property name="meta.media.color_range">mpeg</property>
  <property name="meta.media.top_field_first">0</property>
  <property name="meta.media.progressive">1</property>
  <property name="kdenlive:clip_type">0</property>
  <property name="kdenlive:folderid">586</property>
  <property name="kdenlive:id">629</property>
  <property name="kdenlive:file_size">637165</property>
  <property name="kdenlive:file_hash">617ae4683a1c02d0f7e565c55f59ee06</property>
  <property name="kdenlive:audio_max1">190</property>
 </producer>
 <producer id="producer584" in="00:00:00.000" out="00:00:04.350">
  <property name="length">262</property>
  <property name="eof">pause</property>
  <property name="resource">/home/federico/Nextcloud/Kden/EditingUT/Video/Sabaku/sabaku-sabaku-no-maiku-30fps.mp4</property>
  <property name="audio_index">-1</property>
  <property name="video_index">0</property>
  <property name="mute_on_pause">0</property>
  <property name="mlt_service">avformat-novalidate</property>
  <property name="meta.media.nb_streams">1</property>
  <property name="meta.media.0.stream.type">video</property>
  <property name="meta.media.0.stream.frame_rate">30</property>
  <property name="meta.media.0.stream.sample_aspect_ratio">0</property>
  <property name="meta.media.0.codec.width">638</property>
  <property name="meta.media.0.codec.height">538</property>
  <property name="meta.media.0.codec.rotate">0</property>
  <property name="meta.media.0.codec.pix_fmt">yuv444p</property>
  <property name="meta.media.0.codec.sample_aspect_ratio">0</property>
  <property name="meta.media.0.codec.colorspace">601</property>
  <property name="meta.media.0.codec.name">h264</property>
  <property name="meta.media.0.codec.long_name">H.264 / AVC / MPEG-4 AVC / MPEG-4 part 10</property>
  <property name="meta.media.0.codec.bit_rate">7146914</property>
  <property name="meta.attr.0.stream.handler_name.markup">VideoHandler</property>
  <property name="meta.attr.0.stream.vendor_id.markup">[0][0][0][0]</property>
  <property name="meta.attr.major_brand.markup">isom</property>
  <property name="meta.attr.minor_version.markup">512</property>
  <property name="meta.attr.compatible_brands.markup">isomiso2avc1mp41</property>
  <property name="meta.attr.encoder.markup">Lavf59.16.100</property>
  <property name="seekable">1</property>
  <property name="meta.media.sample_aspect_num">1</property>
  <property name="meta.media.sample_aspect_den">1</property>
  <property name="aspect_ratio">1</property>
  <property name="format">3</property>
  <property name="kdenlive:clipname"/>
  <property name="meta.media.frame_rate_num">30</property>
  <property name="meta.media.frame_rate_den">1</property>
  <property name="meta.media.colorspace">601</property>
  <property name="meta.media.color_trc">2</property>
  <property name="meta.media.has_b_frames">0</property>
  <property name="meta.media.width">638</property>
  <property name="meta.media.height">538</property>
  <property name="meta.media.color_range">mpeg</property>
  <property name="meta.media.top_field_first">0</property>
  <property name="meta.media.progressive">1</property>
  <property name="kdenlive:clip_type">2</property>
  <property name="kdenlive:folderid">586</property>
  <property name="kdenlive:id">630</property>
  <property name="kdenlive:file_size">3902403</property>
  <property name="kdenlive:file_hash">462f4fc82f5d72ee9d1977ad44090d9c</property>
 </producer>
 <producer id="producer582" in="00:00:00.000" out="00:00:01.017">
  <property name="length">62</property>
  <property name="eof">pause</property>
  <property name="resource">/home/federico/Nextcloud/Kden/EditingUT/Video/Simpson/homer - mitico!.mkv</property>
  <property name="audio_index">1</property>
  <property name="video_index">0</property>
  <property name="mute_on_pause">0</property>
  <property name="mlt_service">avformat-novalidate</property>
  <property name="meta.media.nb_streams">2</property>
  <property name="meta.media.0.stream.type">video</property>
  <property name="meta.media.0.stream.frame_rate">29.97</property>
  <property name="meta.media.0.stream.sample_aspect_ratio">1</property>
  <property name="meta.media.0.codec.width">640</property>
  <property name="meta.media.0.codec.height">360</property>
  <property name="meta.media.0.codec.rotate">0</property>
  <property name="meta.media.0.codec.pix_fmt">yuv420p</property>
  <property name="meta.media.0.codec.sample_aspect_ratio">1</property>
  <property name="meta.media.0.codec.colorspace">601</property>
  <property name="meta.media.0.codec.name">h264</property>
  <property name="meta.media.0.codec.long_name">H.264 / AVC / MPEG-4 AVC / MPEG-4 part 10</property>
  <property name="meta.media.0.codec.bit_rate">0</property>
  <property name="meta.attr.0.stream.HANDLER_NAME.markup">ISO Media file produced by Google Inc. Created on: 01/27/2020.</property>
  <property name="meta.attr.0.stream.VENDOR_ID.markup">[0][0][0][0]</property>
  <property name="meta.attr.0.stream.ENCODER.markup">Lavc60.31.102 libx264</property>
  <property name="meta.attr.0.stream.DURATION.markup">00:00:00.970000000</property>
  <property name="meta.media.1.stream.type">audio</property>
  <property name="meta.media.1.codec.sample_fmt">fltp</property>
  <property name="meta.media.1.codec.sample_rate">44100</property>
  <property name="meta.media.1.codec.channels">2</property>
  <property name="meta.media.1.codec.name">vorbis</property>
  <property name="meta.media.1.codec.long_name">Vorbis</property>
  <property name="meta.media.1.codec.bit_rate">0</property>
  <property name="meta.attr.1.stream.HANDLER_NAME.markup">ISO Media file produced by Google Inc. Created on: 01/27/2020.</property>
  <property name="meta.attr.1.stream.VENDOR_ID.markup">[0][0][0][0]</property>
  <property name="meta.attr.1.stream.ENCODER.markup">Lavc60.31.102 libvorbis</property>
  <property name="meta.attr.1.stream.DURATION.markup">00:00:01.025000000</property>
  <property name="meta.attr.COMPATIBLE_BRANDS.markup">isommp42</property>
  <property name="meta.attr.MAJOR_BRAND.markup">mp42</property>
  <property name="meta.attr.MINOR_VERSION.markup">0</property>
  <property name="meta.attr.ENCODER.markup">Lavf60.16.100</property>
  <property name="seekable">1</property>
  <property name="meta.media.sample_aspect_num">1</property>
  <property name="meta.media.sample_aspect_den">1</property>
  <property name="aspect_ratio">1</property>
  <property name="format">3</property>
  <property name="kdenlive:clipname"/>
  <property name="meta.media.frame_rate_num">30000</property>
  <property name="meta.media.frame_rate_den">1001</property>
  <property name="meta.media.colorspace">601</property>
  <property name="meta.media.color_trc">2</property>
  <property name="meta.media.has_b_frames">2</property>
  <property name="meta.media.width">640</property>
  <property name="meta.media.height">360</property>
  <property name="meta.media.color_range">mpeg</property>
  <property name="meta.media.top_field_first">0</property>
  <property name="meta.media.progressive">1</property>
  <property name="kdenlive:clip_type">0</property>
  <property name="kdenlive:folderid">631</property>
  <property name="kdenlive:id">632</property>
  <property name="kdenlive:file_size">58932</property>
  <property name="kdenlive:file_hash">d0394cf59a36014f19c8f805585b5797</property>
  <property name="kdenlive:audio_max1">158</property>
 </producer>
 <producer id="producer581" in="00:00:00.000" out="00:00:03.817">
  <property name="length">230</property>
  <property name="eof">pause</property>
  <property name="resource">/home/federico/Nextcloud/Kden/EditingUT/Video/Simpson/i simpson - perché nessuno pensa ai bambini.mkv</property>
  <property name="audio_index">1</property>
  <property name="video_index">0</property>
  <property name="mute_on_pause">0</property>
  <property name="mlt_service">avformat-novalidate</property>
  <property name="meta.media.nb_streams">2</property>
  <property name="meta.media.0.stream.type">video</property>
  <property name="meta.media.0.stream.frame_rate">12</property>
  <property name="meta.media.0.stream.sample_aspect_ratio">1</property>
  <property name="meta.media.0.codec.width">306</property>
  <property name="meta.media.0.codec.height">240</property>
  <property name="meta.media.0.codec.rotate">0</property>
  <property name="meta.media.0.codec.pix_fmt">yuv420p</property>
  <property name="meta.media.0.codec.sample_aspect_ratio">1</property>
  <property name="meta.media.0.codec.colorspace">601</property>
  <property name="meta.media.0.codec.name">h264</property>
  <property name="meta.media.0.codec.long_name">H.264 / AVC / MPEG-4 AVC / MPEG-4 part 10</property>
  <property name="meta.media.0.codec.bit_rate">0</property>
  <property name="meta.attr.0.stream.HANDLER_NAME.markup">VideoHandler</property>
  <property name="meta.attr.0.stream.VENDOR_ID.markup">[0][0][0][0]</property>
  <property name="meta.attr.0.stream.ENCODER.markup">Lavc60.31.102 libx264</property>
  <property name="meta.attr.0.stream.DURATION.markup">00:00:03.669000000</property>
  <property name="meta.media.1.stream.type">audio</property>
  <property name="meta.media.1.codec.sample_fmt">fltp</property>
  <property name="meta.media.1.codec.sample_rate">44100</property>
  <property name="meta.media.1.codec.channels">2</property>
  <property name="meta.media.1.codec.name">vorbis</property>
  <property name="meta.media.1.codec.long_name">Vorbis</property>
  <property name="meta.media.1.codec.bit_rate">0</property>
  <property name="meta.attr.1.stream.HANDLER_NAME.markup">SoundHandler</property>
  <property name="meta.attr.1.stream.VENDOR_ID.markup">[0][0][0][0]</property>
  <property name="meta.attr.1.stream.ENCODER.markup">Lavc60.31.102 libvorbis</property>
  <property name="meta.attr.1.stream.DURATION.markup">00:00:03.834000000</property>
  <property name="meta.attr.COMPATIBLE_BRANDS.markup">isomiso2avc1mp41</property>
  <property name="meta.attr.MAJOR_BRAND.markup">isom</property>
  <property name="meta.attr.MINOR_VERSION.markup">512</property>
  <property name="meta.attr.ENCODER.markup">Lavf60.16.100</property>
  <property name="seekable">1</property>
  <property name="meta.media.sample_aspect_num">1</property>
  <property name="meta.media.sample_aspect_den">1</property>
  <property name="aspect_ratio">1</property>
  <property name="format">3</property>
  <property name="kdenlive:clipname"/>
  <property name="meta.media.frame_rate_num">12</property>
  <property name="meta.media.frame_rate_den">1</property>
  <property name="meta.media.colorspace">601</property>
  <property name="meta.media.color_trc">2</property>
  <property name="meta.media.has_b_frames">2</property>
  <property name="meta.media.width">306</property>
  <property name="meta.media.height">240</property>
  <property name="meta.media.color_range">mpeg</property>
  <property name="meta.media.top_field_first">0</property>
  <property name="meta.media.progressive">1</property>
  <property name="kdenlive:clip_type">0</property>
  <property name="kdenlive:folderid">631</property>
  <property name="kdenlive:id">633</property>
  <property name="kdenlive:file_size">118220</property>
  <property name="kdenlive:file_hash">2ced9ac3a08a84751afb7ed1e7fcd917</property>
  <property name="kdenlive:audio_max1">222</property>
 </producer>
 <producer id="producer585" in="00:00:00.000" out="00:00:10.917">
  <property name="length">656</property>
  <property name="eof">pause</property>
  <property name="resource">/home/federico/Nextcloud/Kden/EditingUT/Video/Simpson/simpson_spezza_cuore.mkv</property>
  <property name="audio_index">1</property>
  <property name="video_index">0</property>
  <property name="mute_on_pause">0</property>
  <property name="mlt_service">avformat-novalidate</property>
  <property name="meta.media.nb_streams">2</property>
  <property name="meta.media.0.stream.type">video</property>
  <property name="meta.media.0.stream.frame_rate">24</property>
  <property name="meta.media.0.stream.sample_aspect_ratio">1</property>
  <property name="meta.media.0.codec.width">1920</property>
  <property name="meta.media.0.codec.height">1080</property>
  <property name="meta.media.0.codec.rotate">0</property>
  <property name="meta.media.0.codec.pix_fmt">yuv420p</property>
  <property name="meta.media.0.codec.sample_aspect_ratio">1</property>
  <property name="meta.media.0.codec.colorspace">709</property>
  <property name="meta.media.0.codec.color_trc">1</property>
  <property name="meta.media.0.codec.name">h264</property>
  <property name="meta.media.0.codec.long_name">H.264 / AVC / MPEG-4 AVC / MPEG-4 part 10</property>
  <property name="meta.media.0.codec.bit_rate">0</property>
  <property name="meta.attr.0.stream.HANDLER_NAME.markup">ISO Media file produced by Google Inc.</property>
  <property name="meta.attr.0.stream.VENDOR_ID.markup">[0][0][0][0]</property>
  <property name="meta.attr.0.stream.ENCODER.markup">Lavc60.31.102 libx264</property>
  <property name="meta.attr.0.stream.DURATION.markup">00:00:10.878000000</property>
  <property name="meta.media.1.stream.type">audio</property>
  <property name="meta.media.1.codec.sample_fmt">fltp</property>
  <property name="meta.media.1.codec.sample_rate">44100</property>
  <property name="meta.media.1.codec.channels">2</property>
  <property name="meta.media.1.codec.name">vorbis</property>
  <property name="meta.media.1.codec.long_name">Vorbis</property>
  <property name="meta.media.1.codec.bit_rate">0</property>
  <property name="meta.attr.1.stream.language.markup">eng</property>
  <property name="meta.attr.1.stream.HANDLER_NAME.markup">ISO Media file produced by Google Inc.</property>
  <property name="meta.attr.1.stream.VENDOR_ID.markup">[0][0][0][0]</property>
  <property name="meta.attr.1.stream.ENCODER.markup">Lavc60.31.102 libvorbis</property>
  <property name="meta.attr.1.stream.DURATION.markup">00:00:10.940000000</property>
  <property name="meta.attr.COMPATIBLE_BRANDS.markup">isomiso2avc1mp41</property>
  <property name="meta.attr.MAJOR_BRAND.markup">isom</property>
  <property name="meta.attr.MINOR_VERSION.markup">512</property>
  <property name="meta.attr.ENCODER.markup">Lavf60.16.100</property>
  <property name="seekable">1</property>
  <property name="meta.media.sample_aspect_num">1</property>
  <property name="meta.media.sample_aspect_den">1</property>
  <property name="aspect_ratio">1</property>
  <property name="format">3</property>
  <property name="kdenlive:clipname"/>
  <property name="meta.media.frame_rate_num">24</property>
  <property name="meta.media.frame_rate_den">1</property>
  <property name="meta.media.colorspace">709</property>
  <property name="meta.media.color_trc">1</property>
  <property name="meta.media.has_b_frames">2</property>
  <property name="meta.media.width">1920</property>
  <property name="meta.media.height">1080</property>
  <property name="meta.media.color_range">mpeg</property>
  <property name="meta.media.top_field_first">0</property>
  <property name="meta.media.progressive">1</property>
  <property name="kdenlive:clip_type">0</property>
  <property name="kdenlive:folderid">631</property>
  <property name="kdenlive:id">634</property>
  <property name="kdenlive:file_size">950208</property>
  <property name="kdenlive:file_hash">6ca850e15c67e04d0bd006ba28f78b8d</property>
  <property name="kdenlive:audio_max1">200</property>
 </producer>
 <producer id="producer586" in="00:00:00.000" out="00:00:13.633">
  <property name="length">819</property>
  <property name="eof">pause</property>
  <property name="resource">/home/federico/Nextcloud/Kden/EditingUT/Video/Simpson/technical problems issue simpson.mkv</property>
  <property name="audio_index">1</property>
  <property name="video_index">0</property>
  <property name="mute_on_pause">0</property>
  <property name="mlt_service">avformat-novalidate</property>
  <property name="meta.media.nb_streams">2</property>
  <property name="meta.media.0.stream.type">video</property>
  <property name="meta.media.0.stream.frame_rate">30</property>
  <property name="meta.media.0.stream.sample_aspect_ratio">1</property>
  <property name="meta.media.0.codec.width">1920</property>
  <property name="meta.media.0.codec.height">1080</property>
  <property name="meta.media.0.codec.rotate">0</property>
  <property name="meta.media.0.codec.pix_fmt">yuv420p</property>
  <property name="meta.media.0.codec.sample_aspect_ratio">1</property>
  <property name="meta.media.0.codec.colorspace">709</property>
  <property name="meta.media.0.codec.color_trc">1</property>
  <property name="meta.media.0.codec.name">h264</property>
  <property name="meta.media.0.codec.long_name">H.264 / AVC / MPEG-4 AVC / MPEG-4 part 10</property>
  <property name="meta.media.0.codec.bit_rate">0</property>
  <property name="meta.attr.0.stream.HANDLER_NAME.markup">ISO Media file produced by Google Inc.</property>
  <property name="meta.attr.0.stream.VENDOR_ID.markup">[0][0][0][0]</property>
  <property name="meta.attr.0.stream.ENCODER.markup">Lavc60.31.102 libx264</property>
  <property name="meta.attr.0.stream.DURATION.markup">00:00:13.536000000</property>
  <property name="meta.media.1.stream.type">audio</property>
  <property name="meta.media.1.codec.sample_fmt">fltp</property>
  <property name="meta.media.1.codec.sample_rate">44100</property>
  <property name="meta.media.1.codec.channels">2</property>
  <property name="meta.media.1.codec.name">vorbis</property>
  <property name="meta.media.1.codec.long_name">Vorbis</property>
  <property name="meta.media.1.codec.bit_rate">0</property>
  <property name="meta.attr.1.stream.HANDLER_NAME.markup">ISO Media file produced by Google Inc.</property>
  <property name="meta.attr.1.stream.VENDOR_ID.markup">[0][0][0][0]</property>
  <property name="meta.attr.1.stream.ENCODER.markup">Lavc60.31.102 libvorbis</property>
  <property name="meta.attr.1.stream.DURATION.markup">00:00:13.656000000</property>
  <property name="meta.attr.COMPATIBLE_BRANDS.markup">isomiso2avc1mp41</property>
  <property name="meta.attr.MAJOR_BRAND.markup">isom</property>
  <property name="meta.attr.MINOR_VERSION.markup">512</property>
  <property name="meta.attr.ENCODER.markup">Lavf60.16.100</property>
  <property name="seekable">1</property>
  <property name="meta.media.sample_aspect_num">1</property>
  <property name="meta.media.sample_aspect_den">1</property>
  <property name="aspect_ratio">1</property>
  <property name="format">3</property>
  <property name="kdenlive:clipname"/>
  <property name="meta.media.frame_rate_num">30</property>
  <property name="meta.media.frame_rate_den">1</property>
  <property name="meta.media.colorspace">709</property>
  <property name="meta.media.color_trc">1</property>
  <property name="meta.media.has_b_frames">2</property>
  <property name="meta.media.width">1920</property>
  <property name="meta.media.height">1080</property>
  <property name="meta.media.color_range">mpeg</property>
  <property name="meta.media.top_field_first">0</property>
  <property name="meta.media.progressive">1</property>
  <property name="kdenlive:clip_type">0</property>
  <property name="kdenlive:folderid">631</property>
  <property name="kdenlive:id">635</property>
  <property name="kdenlive:file_size">584113</property>
  <property name="kdenlive:file_hash">37a510572d92db0369de195e8e934daf</property>
  <property name="kdenlive:audio_max1">205</property>
 </producer>
 <producer id="producer589" in="00:00:00.000" out="00:00:04.533">
  <property name="length">273</property>
  <property name="eof">pause</property>
  <property name="resource">/home/federico/Nextcloud/Kden/EditingUT/Video/Simpson/the simpsons - stop, hes already dead.mkv</property>
  <property name="audio_index">1</property>
  <property name="video_index">0</property>
  <property name="mute_on_pause">0</property>
  <property name="mlt_service">avformat-novalidate</property>
  <property name="meta.media.nb_streams">2</property>
  <property name="meta.media.0.stream.type">video</property>
  <property name="meta.media.0.stream.frame_rate">60</property>
  <property name="meta.media.0.stream.sample_aspect_ratio">1</property>
  <property name="meta.media.0.codec.width">1920</property>
  <property name="meta.media.0.codec.height">1080</property>
  <property name="meta.media.0.codec.rotate">0</property>
  <property name="meta.media.0.codec.pix_fmt">yuv420p</property>
  <property name="meta.media.0.codec.sample_aspect_ratio">1</property>
  <property name="meta.media.0.codec.colorspace">709</property>
  <property name="meta.media.0.codec.color_trc">1</property>
  <property name="meta.media.0.codec.name">h264</property>
  <property name="meta.media.0.codec.long_name">H.264 / AVC / MPEG-4 AVC / MPEG-4 part 10</property>
  <property name="meta.media.0.codec.bit_rate">0</property>
  <property name="meta.attr.0.stream.DURATION.markup">00:00:04.517000000</property>
  <property name="meta.media.1.stream.type">audio</property>
  <property name="meta.media.1.codec.sample_fmt">fltp</property>
  <property name="meta.media.1.codec.sample_rate">48000</property>
  <property name="meta.media.1.codec.channels">2</property>
  <property name="meta.media.1.codec.name">aac</property>
  <property name="meta.media.1.codec.long_name">AAC (Advanced Audio Coding)</property>
  <property name="meta.media.1.codec.bit_rate">0</property>
  <property name="meta.attr.1.stream.DURATION.markup">00:00:04.543000000</property>
  <property name="meta.attr.ENCODER.markup">Lavf61.7.100</property>
  <property name="seekable">1</property>
  <property name="meta.media.sample_aspect_num">1</property>
  <property name="meta.media.sample_aspect_den">1</property>
  <property name="aspect_ratio">1</property>
  <property name="format">3</property>
  <property name="kdenlive:clipname"/>
  <property name="meta.media.frame_rate_num">60</property>
  <property name="meta.media.frame_rate_den">1</property>
  <property name="meta.media.colorspace">709</property>
  <property name="meta.media.color_trc">1</property>
  <property name="meta.media.has_b_frames">0</property>
  <property name="meta.media.width">1920</property>
  <property name="meta.media.height">1080</property>
  <property name="meta.media.color_range">mpeg</property>
  <property name="meta.media.top_field_first">0</property>
  <property name="meta.media.progressive">1</property>
  <property name="kdenlive:clip_type">0</property>
  <property name="kdenlive:folderid">631</property>
  <property name="kdenlive:id">636</property>
  <property name="kdenlive:file_size">6715309</property>
  <property name="kdenlive:file_hash">c62b8ffd2adb76357febc4ce3324440d</property>
  <property name="kdenlive:audio_max1">165</property>
 </producer>
 <producer id="producer587" in="00:00:00.000" out="00:00:01.200">
  <property name="length">73</property>
  <property name="eof">pause</property>
  <property name="resource">/home/federico/Nextcloud/Kden/EditingUT/Video/SlimDogs/slim_dogs_basito_f4.mkv</property>
  <property name="audio_index">1</property>
  <property name="video_index">0</property>
  <property name="mute_on_pause">0</property>
  <property name="mlt_service">avformat-novalidate</property>
  <property name="meta.media.nb_streams">2</property>
  <property name="meta.media.0.stream.type">video</property>
  <property name="meta.media.0.stream.frame_rate">60</property>
  <property name="meta.media.0.stream.sample_aspect_ratio">1</property>
  <property name="meta.media.0.codec.width">1920</property>
  <property name="meta.media.0.codec.height">1080</property>
  <property name="meta.media.0.codec.rotate">0</property>
  <property name="meta.media.0.codec.pix_fmt">yuv420p</property>
  <property name="meta.media.0.codec.sample_aspect_ratio">1</property>
  <property name="meta.media.0.codec.colorspace">709</property>
  <property name="meta.media.0.codec.color_trc">1</property>
  <property name="meta.media.0.codec.name">h264</property>
  <property name="meta.media.0.codec.long_name">H.264 / AVC / MPEG-4 AVC / MPEG-4 part 10</property>
  <property name="meta.media.0.codec.bit_rate">0</property>
  <property name="meta.attr.0.stream.HANDLER_NAME.markup">VideoHandler</property>
  <property name="meta.attr.0.stream.VENDOR_ID.markup">[0][0][0][0]</property>
  <property name="meta.attr.0.stream.ENCODER.markup">Lavc60.31.102 libx264</property>
  <property name="meta.attr.0.stream.DURATION.markup">00:00:01.203000000</property>
  <property name="meta.media.1.stream.type">audio</property>
  <property name="meta.media.1.codec.sample_fmt">fltp</property>
  <property name="meta.media.1.codec.sample_rate">48000</property>
  <property name="meta.media.1.codec.channels">2</property>
  <property name="meta.media.1.codec.name">vorbis</property>
  <property name="meta.media.1.codec.long_name">Vorbis</property>
  <property name="meta.media.1.codec.bit_rate">0</property>
  <property name="meta.attr.1.stream.HANDLER_NAME.markup">SoundHandler</property>
  <property name="meta.attr.1.stream.VENDOR_ID.markup">[0][0][0][0]</property>
  <property name="meta.attr.1.stream.ENCODER.markup">Lavc60.31.102 libvorbis</property>
  <property name="meta.attr.1.stream.DURATION.markup">00:00:01.219000000</property>
  <property name="meta.attr.COMPATIBLE_BRANDS.markup">isomiso2mp41</property>
  <property name="meta.attr.MAJOR_BRAND.markup">isom</property>
  <property name="meta.attr.MINOR_VERSION.markup">512</property>
  <property name="meta.attr.ENCODER.markup">Lavf60.16.100</property>
  <property name="seekable">1</property>
  <property name="meta.media.sample_aspect_num">1</property>
  <property name="meta.media.sample_aspect_den">1</property>
  <property name="aspect_ratio">1</property>
  <property name="format">3</property>
  <property name="kdenlive:clipname"/>
  <property name="meta.media.frame_rate_num">60</property>
  <property name="meta.media.frame_rate_den">1</property>
  <property name="meta.media.colorspace">709</property>
  <property name="meta.media.color_trc">1</property>
  <property name="meta.media.has_b_frames">2</property>
  <property name="meta.media.width">1920</property>
  <property name="meta.media.height">1080</property>
  <property name="meta.media.color_range">mpeg</property>
  <property name="meta.media.top_field_first">0</property>
  <property name="meta.media.progressive">1</property>
  <property name="kdenlive:clip_type">0</property>
  <property name="kdenlive:folderid">637</property>
  <property name="kdenlive:id">638</property>
  <property name="kdenlive:file_size">247341</property>
  <property name="kdenlive:file_hash">49a0c7e78bfd5a65948941a3aac85633</property>
  <property name="kdenlive:audio_max1">1</property>
 </producer>
 <producer id="producer590" in="00:00:00.000" out="00:00:01.133">
  <property name="length">69</property>
  <property name="eof">pause</property>
  <property name="resource">/home/federico/Nextcloud/Kden/EditingUT/Video/SlimDogs/slim_dogs_marco_cioni_no_questa_è_na_cazzata.mkv</property>
  <property name="audio_index">1</property>
  <property name="video_index">0</property>
  <property name="mute_on_pause">0</property>
  <property name="mlt_service">avformat-novalidate</property>
  <property name="meta.media.nb_streams">2</property>
  <property name="meta.media.0.stream.type">video</property>
  <property name="meta.media.0.stream.frame_rate">60</property>
  <property name="meta.media.0.stream.sample_aspect_ratio">1</property>
  <property name="meta.media.0.codec.width">1920</property>
  <property name="meta.media.0.codec.height">1080</property>
  <property name="meta.media.0.codec.rotate">0</property>
  <property name="meta.media.0.codec.pix_fmt">yuv420p</property>
  <property name="meta.media.0.codec.sample_aspect_ratio">1</property>
  <property name="meta.media.0.codec.colorspace">709</property>
  <property name="meta.media.0.codec.color_trc">1</property>
  <property name="meta.media.0.codec.name">h264</property>
  <property name="meta.media.0.codec.long_name">H.264 / AVC / MPEG-4 AVC / MPEG-4 part 10</property>
  <property name="meta.media.0.codec.bit_rate">0</property>
  <property name="meta.attr.0.stream.HANDLER_NAME.markup">VideoHandler</property>
  <property name="meta.attr.0.stream.VENDOR_ID.markup">[0][0][0][0]</property>
  <property name="meta.attr.0.stream.ENCODER.markup">Lavc60.31.102 libx264</property>
  <property name="meta.attr.0.stream.DURATION.markup">00:00:01.137000000</property>
  <property name="meta.media.1.stream.type">audio</property>
  <property name="meta.media.1.codec.sample_fmt">fltp</property>
  <property name="meta.media.1.codec.sample_rate">48000</property>
  <property name="meta.media.1.codec.channels">2</property>
  <property name="meta.media.1.codec.name">vorbis</property>
  <property name="meta.media.1.codec.long_name">Vorbis</property>
  <property name="meta.media.1.codec.bit_rate">0</property>
  <property name="meta.attr.1.stream.HANDLER_NAME.markup">SoundHandler</property>
  <property name="meta.attr.1.stream.VENDOR_ID.markup">[0][0][0][0]</property>
  <property name="meta.attr.1.stream.ENCODER.markup">Lavc60.31.102 libvorbis</property>
  <property name="meta.attr.1.stream.DURATION.markup">00:00:01.155000000</property>
  <property name="meta.attr.COMPATIBLE_BRANDS.markup">isomiso2mp41</property>
  <property name="meta.attr.MAJOR_BRAND.markup">isom</property>
  <property name="meta.attr.MINOR_VERSION.markup">512</property>
  <property name="meta.attr.ENCODER.markup">Lavf60.16.100</property>
  <property name="seekable">1</property>
  <property name="meta.media.sample_aspect_num">1</property>
  <property name="meta.media.sample_aspect_den">1</property>
  <property name="aspect_ratio">1</property>
  <property name="format">3</property>
  <property name="kdenlive:clipname"/>
  <property name="meta.media.frame_rate_num">60</property>
  <property name="meta.media.frame_rate_den">1</property>
  <property name="meta.media.colorspace">709</property>
  <property name="meta.media.color_trc">1</property>
  <property name="meta.media.has_b_frames">2</property>
  <property name="meta.media.width">1920</property>
  <property name="meta.media.height">1080</property>
  <property name="meta.media.color_range">mpeg</property>
  <property name="meta.media.top_field_first">0</property>
  <property name="meta.media.progressive">1</property>
  <property name="kdenlive:clip_type">0</property>
  <property name="kdenlive:folderid">637</property>
  <property name="kdenlive:id">639</property>
  <property name="kdenlive:file_size">365541</property>
  <property name="kdenlive:file_hash">3ab6ba380c7030286e103f9766040942</property>
  <property name="kdenlive:audio_max1">171</property>
 </producer>
 <producer id="producer588" in="00:00:00.000" out="00:00:01.767">
  <property name="length">107</property>
  <property name="eof">pause</property>
  <property name="resource">/home/federico/Nextcloud/Kden/EditingUT/Video/Spongebob/2 seconds later spongebob.mkv</property>
  <property name="audio_index">1</property>
  <property name="video_index">0</property>
  <property name="mute_on_pause">0</property>
  <property name="mlt_service">avformat-novalidate</property>
  <property name="meta.media.nb_streams">2</property>
  <property name="meta.media.0.stream.type">video</property>
  <property name="meta.media.0.stream.frame_rate">24</property>
  <property name="meta.media.0.stream.sample_aspect_ratio">1</property>
  <property name="meta.media.0.codec.width">640</property>
  <property name="meta.media.0.codec.height">360</property>
  <property name="meta.media.0.codec.rotate">0</property>
  <property name="meta.media.0.codec.pix_fmt">yuv420p</property>
  <property name="meta.media.0.codec.sample_aspect_ratio">1</property>
  <property name="meta.media.0.codec.colorspace">709</property>
  <property name="meta.media.0.codec.color_trc">1</property>
  <property name="meta.media.0.codec.name">h264</property>
  <property name="meta.media.0.codec.long_name">H.264 / AVC / MPEG-4 AVC / MPEG-4 part 10</property>
  <property name="meta.media.0.codec.bit_rate">0</property>
  <property name="meta.attr.0.stream.HANDLER_NAME.markup">ISO Media file produced by Google Inc.</property>
  <property name="meta.attr.0.stream.VENDOR_ID.markup">[0][0][0][0]</property>
  <property name="meta.attr.0.stream.ENCODER.markup">Lavc60.31.102 libx264</property>
  <property name="meta.attr.0.stream.DURATION.markup">00:00:01.628000000</property>
  <property name="meta.media.1.stream.type">audio</property>
  <property name="meta.media.1.codec.sample_fmt">fltp</property>
  <property name="meta.media.1.codec.sample_rate">44100</property>
  <property name="meta.media.1.codec.channels">2</property>
  <property name="meta.media.1.codec.name">vorbis</property>
  <property name="meta.media.1.codec.long_name">Vorbis</property>
  <property name="meta.media.1.codec.bit_rate">0</property>
  <property name="meta.attr.1.stream.language.markup">eng</property>
  <property name="meta.attr.1.stream.HANDLER_NAME.markup">ISO Media file produced by Google Inc.</property>
  <property name="meta.attr.1.stream.VENDOR_ID.markup">[0][0][0][0]</property>
  <property name="meta.attr.1.stream.ENCODER.markup">Lavc60.31.102 libvorbis</property>
  <property name="meta.attr.1.stream.DURATION.markup">00:00:01.791000000</property>
  <property name="meta.attr.COMPATIBLE_BRANDS.markup">isomiso2avc1mp41</property>
  <property name="meta.attr.MAJOR_BRAND.markup">isom</property>
  <property name="meta.attr.MINOR_VERSION.markup">512</property>
  <property name="meta.attr.ENCODER.markup">Lavf60.16.100</property>
  <property name="seekable">1</property>
  <property name="meta.media.sample_aspect_num">1</property>
  <property name="meta.media.sample_aspect_den">1</property>
  <property name="aspect_ratio">1</property>
  <property name="format">3</property>
  <property name="kdenlive:clipname"/>
  <property name="meta.media.frame_rate_num">24</property>
  <property name="meta.media.frame_rate_den">1</property>
  <property name="meta.media.colorspace">709</property>
  <property name="meta.media.color_trc">1</property>
  <property name="meta.media.has_b_frames">2</property>
  <property name="meta.media.width">640</property>
  <property name="meta.media.height">360</property>
  <property name="meta.media.color_range">mpeg</property>
  <property name="meta.media.top_field_first">0</property>
  <property name="meta.media.progressive">1</property>
  <property name="kdenlive:clip_type">0</property>
  <property name="kdenlive:folderid">640</property>
  <property name="kdenlive:id">641</property>
  <property name="kdenlive:file_size">65263</property>
  <property name="kdenlive:file_hash">cc693107d338435b4d1e0ccebe05212b</property>
  <property name="kdenlive:audio_max1">150</property>
 </producer>
 <producer id="producer593" in="00:00:00.000" out="00:00:01.617">
  <property name="length">98</property>
  <property name="eof">pause</property>
  <property name="resource">/home/federico/Nextcloud/Kden/EditingUT/Video/Spongebob/3 hours later...  spongebob time card #143.mkv</property>
  <property name="audio_index">1</property>
  <property name="video_index">0</property>
  <property name="mute_on_pause">0</property>
  <property name="mlt_service">avformat-novalidate</property>
  <property name="meta.media.nb_streams">2</property>
  <property name="meta.media.0.stream.type">video</property>
  <property name="meta.media.0.stream.frame_rate">29.97</property>
  <property name="meta.media.0.stream.sample_aspect_ratio">1</property>
  <property name="meta.media.0.codec.width">1920</property>
  <property name="meta.media.0.codec.height">1080</property>
  <property name="meta.media.0.codec.rotate">0</property>
  <property name="meta.media.0.codec.pix_fmt">yuv420p</property>
  <property name="meta.media.0.codec.sample_aspect_ratio">1</property>
  <property name="meta.media.0.codec.colorspace">709</property>
  <property name="meta.media.0.codec.color_trc">1</property>
  <property name="meta.media.0.codec.name">h264</property>
  <property name="meta.media.0.codec.long_name">H.264 / AVC / MPEG-4 AVC / MPEG-4 part 10</property>
  <property name="meta.media.0.codec.bit_rate">0</property>
  <property name="meta.attr.0.stream.HANDLER_NAME.markup">ISO Media file produced by Google Inc.</property>
  <property name="meta.attr.0.stream.VENDOR_ID.markup">[0][0][0][0]</property>
  <property name="meta.attr.0.stream.ENCODER.markup">Lavc60.31.102 libx264</property>
  <property name="meta.attr.0.stream.DURATION.markup">00:00:01.571000000</property>
  <property name="meta.media.1.stream.type">audio</property>
  <property name="meta.media.1.codec.sample_fmt">fltp</property>
  <property name="meta.media.1.codec.sample_rate">44100</property>
  <property name="meta.media.1.codec.channels">2</property>
  <property name="meta.media.1.codec.name">vorbis</property>
  <property name="meta.media.1.codec.long_name">Vorbis</property>
  <property name="meta.media.1.codec.bit_rate">0</property>
  <property name="meta.attr.1.stream.HANDLER_NAME.markup">ISO Media file produced by Google Inc.</property>
  <property name="meta.attr.1.stream.VENDOR_ID.markup">[0][0][0][0]</property>
  <property name="meta.attr.1.stream.ENCODER.markup">Lavc60.31.102 libvorbis</property>
  <property name="meta.attr.1.stream.DURATION.markup">00:00:01.629000000</property>
  <property name="meta.attr.COMPATIBLE_BRANDS.markup">isomiso2avc1mp41</property>
  <property name="meta.attr.MAJOR_BRAND.markup">isom</property>
  <property name="meta.attr.MINOR_VERSION.markup">512</property>
  <property name="meta.attr.ENCODER.markup">Lavf60.16.100</property>
  <property name="seekable">1</property>
  <property name="meta.media.sample_aspect_num">1</property>
  <property name="meta.media.sample_aspect_den">1</property>
  <property name="aspect_ratio">1</property>
  <property name="format">3</property>
  <property name="kdenlive:clipname"/>
  <property name="meta.media.frame_rate_num">30000</property>
  <property name="meta.media.frame_rate_den">1001</property>
  <property name="meta.media.colorspace">709</property>
  <property name="meta.media.color_trc">1</property>
  <property name="meta.media.has_b_frames">2</property>
  <property name="meta.media.width">1920</property>
  <property name="meta.media.height">1080</property>
  <property name="meta.media.color_range">mpeg</property>
  <property name="meta.media.top_field_first">0</property>
  <property name="meta.media.progressive">1</property>
  <property name="kdenlive:clip_type">0</property>
  <property name="kdenlive:folderid">640</property>
  <property name="kdenlive:id">642</property>
  <property name="kdenlive:file_size">336294</property>
  <property name="kdenlive:file_hash">012da7fcf8254667cd443fbffa6775f2</property>
  <property name="kdenlive:audio_max1">189</property>
 </producer>
 <producer id="producer591" in="00:00:00.000" out="00:00:02.117">
  <property name="length">128</property>
  <property name="eof">pause</property>
  <property name="resource">/home/federico/Nextcloud/Kden/EditingUT/Video/Spongebob/a few inches later spongebob.mkv</property>
  <property name="audio_index">1</property>
  <property name="video_index">0</property>
  <property name="mute_on_pause">0</property>
  <property name="mlt_service">avformat-novalidate</property>
  <property name="meta.media.nb_streams">2</property>
  <property name="meta.media.0.stream.type">video</property>
  <property name="meta.media.0.stream.frame_rate">30</property>
  <property name="meta.media.0.stream.sample_aspect_ratio">1</property>
  <property name="meta.media.0.codec.width">482</property>
  <property name="meta.media.0.codec.height">360</property>
  <property name="meta.media.0.codec.rotate">0</property>
  <property name="meta.media.0.codec.pix_fmt">yuv420p</property>
  <property name="meta.media.0.codec.sample_aspect_ratio">1</property>
  <property name="meta.media.0.codec.colorspace">709</property>
  <property name="meta.media.0.codec.color_trc">1</property>
  <property name="meta.media.0.codec.name">h264</property>
  <property name="meta.media.0.codec.long_name">H.264 / AVC / MPEG-4 AVC / MPEG-4 part 10</property>
  <property name="meta.media.0.codec.bit_rate">0</property>
  <property name="meta.attr.0.stream.HANDLER_NAME.markup">VideoHandler</property>
  <property name="meta.attr.0.stream.VENDOR_ID.markup">[0][0][0][0]</property>
  <property name="meta.attr.0.stream.ENCODER.markup">Lavc60.31.102 libx264</property>
  <property name="meta.attr.0.stream.DURATION.markup">00:00:02.069000000</property>
  <property name="meta.media.1.stream.type">audio</property>
  <property name="meta.media.1.codec.sample_fmt">fltp</property>
  <property name="meta.media.1.codec.sample_rate">44100</property>
  <property name="meta.media.1.codec.channels">2</property>
  <property name="meta.media.1.codec.name">vorbis</property>
  <property name="meta.media.1.codec.long_name">Vorbis</property>
  <property name="meta.media.1.codec.bit_rate">0</property>
  <property name="meta.attr.1.stream.HANDLER_NAME.markup">SoundHandler</property>
  <property name="meta.attr.1.stream.VENDOR_ID.markup">[0][0][0][0]</property>
  <property name="meta.attr.1.stream.ENCODER.markup">Lavc60.31.102 libvorbis</property>
  <property name="meta.attr.1.stream.DURATION.markup">00:00:02.139000000</property>
  <property name="meta.attr.COMPATIBLE_BRANDS.markup">isomiso2avc1mp41</property>
  <property name="meta.attr.MAJOR_BRAND.markup">isom</property>
  <property name="meta.attr.MINOR_VERSION.markup">512</property>
  <property name="meta.attr.ENCODER.markup">Lavf60.16.100</property>
  <property name="seekable">1</property>
  <property name="meta.media.sample_aspect_num">1</property>
  <property name="meta.media.sample_aspect_den">1</property>
  <property name="aspect_ratio">1</property>
  <property name="format">3</property>
  <property name="kdenlive:clipname"/>
  <property name="meta.media.frame_rate_num">30</property>
  <property name="meta.media.frame_rate_den">1</property>
  <property name="meta.media.colorspace">709</property>
  <property name="meta.media.color_trc">1</property>
  <property name="meta.media.has_b_frames">2</property>
  <property name="meta.media.width">482</property>
  <property name="meta.media.height">360</property>
  <property name="meta.media.color_range">mpeg</property>
  <property name="meta.media.top_field_first">0</property>
  <property name="meta.media.progressive">1</property>
  <property name="kdenlive:clip_type">0</property>
  <property name="kdenlive:folderid">640</property>
  <property name="kdenlive:id">643</property>
  <property name="kdenlive:file_size">67739</property>
  <property name="kdenlive:file_hash">9de6d0f74884a57b98b9c8ef0bef247c</property>
  <property name="kdenlive:audio_max1">117</property>
 </producer>
 <producer id="producer594" in="00:00:00.000" out="00:00:01.683">
  <property name="length">102</property>
  <property name="eof">pause</property>
  <property name="resource">/home/federico/Nextcloud/Kden/EditingUT/Video/Spongebob/end of flashback  spongebob time card #120.mkv</property>
  <property name="audio_index">1</property>
  <property name="video_index">0</property>
  <property name="mute_on_pause">0</property>
  <property name="mlt_service">avformat-novalidate</property>
  <property name="meta.media.nb_streams">2</property>
  <property name="meta.media.0.stream.type">video</property>
  <property name="meta.media.0.stream.frame_rate">29.97</property>
  <property name="meta.media.0.stream.sample_aspect_ratio">1</property>
  <property name="meta.media.0.codec.width">1920</property>
  <property name="meta.media.0.codec.height">1080</property>
  <property name="meta.media.0.codec.rotate">0</property>
  <property name="meta.media.0.codec.pix_fmt">yuv420p</property>
  <property name="meta.media.0.codec.sample_aspect_ratio">1</property>
  <property name="meta.media.0.codec.colorspace">709</property>
  <property name="meta.media.0.codec.color_trc">1</property>
  <property name="meta.media.0.codec.name">h264</property>
  <property name="meta.media.0.codec.long_name">H.264 / AVC / MPEG-4 AVC / MPEG-4 part 10</property>
  <property name="meta.media.0.codec.bit_rate">0</property>
  <property name="meta.attr.0.stream.HANDLER_NAME.markup">ISO Media file produced by Google Inc.</property>
  <property name="meta.attr.0.stream.VENDOR_ID.markup">[0][0][0][0]</property>
  <property name="meta.attr.0.stream.ENCODER.markup">Lavc60.31.102 libx264</property>
  <property name="meta.attr.0.stream.DURATION.markup">00:00:01.638000000</property>
  <property name="meta.media.1.stream.type">audio</property>
  <property name="meta.media.1.codec.sample_fmt">fltp</property>
  <property name="meta.media.1.codec.sample_rate">44100</property>
  <property name="meta.media.1.codec.channels">2</property>
  <property name="meta.media.1.codec.name">vorbis</property>
  <property name="meta.media.1.codec.long_name">Vorbis</property>
  <property name="meta.media.1.codec.bit_rate">0</property>
  <property name="meta.attr.1.stream.HANDLER_NAME.markup">SoundHandler</property>
  <property name="meta.attr.1.stream.VENDOR_ID.markup">[0][0][0][0]</property>
  <property name="meta.attr.1.stream.ENCODER.markup">Lavc60.31.102 libvorbis</property>
  <property name="meta.attr.1.stream.DURATION.markup">00:00:01.698000000</property>
  <property name="meta.attr.COMPATIBLE_BRANDS.markup">isomiso2avc1mp41</property>
  <property name="meta.attr.MAJOR_BRAND.markup">isom</property>
  <property name="meta.attr.MINOR_VERSION.markup">512</property>
  <property name="meta.attr.ENCODER.markup">Lavf60.16.100</property>
  <property name="seekable">1</property>
  <property name="meta.media.sample_aspect_num">1</property>
  <property name="meta.media.sample_aspect_den">1</property>
  <property name="aspect_ratio">1</property>
  <property name="format">3</property>
  <property name="kdenlive:clipname"/>
  <property name="meta.media.frame_rate_num">30000</property>
  <property name="meta.media.frame_rate_den">1001</property>
  <property name="meta.media.colorspace">709</property>
  <property name="meta.media.color_trc">1</property>
  <property name="meta.media.has_b_frames">2</property>
  <property name="meta.media.width">1920</property>
  <property name="meta.media.height">1080</property>
  <property name="meta.media.color_range">mpeg</property>
  <property name="meta.media.top_field_first">0</property>
  <property name="meta.media.progressive">1</property>
  <property name="kdenlive:clip_type">0</property>
  <property name="kdenlive:folderid">640</property>
  <property name="kdenlive:id">644</property>
  <property name="kdenlive:file_size">303653</property>
  <property name="kdenlive:file_hash">5947724c0a512995aaabb514c5232b0b</property>
  <property name="kdenlive:audio_max1">206</property>
 </producer>
 <producer id="producer595" in="00:00:00.000" out="00:00:01.200">
  <property name="length">73</property>
  <property name="eof">pause</property>
  <property name="resource">/home/federico/Nextcloud/Kden/EditingUT/Video/Spongebob/flashback  spongebob time card #119.mkv</property>
  <property name="audio_index">1</property>
  <property name="video_index">0</property>
  <property name="mute_on_pause">0</property>
  <property name="mlt_service">avformat-novalidate</property>
  <property name="meta.media.nb_streams">2</property>
  <property name="meta.media.0.stream.type">video</property>
  <property name="meta.media.0.stream.frame_rate">29.97</property>
  <property name="meta.media.0.stream.sample_aspect_ratio">1</property>
  <property name="meta.media.0.codec.width">1920</property>
  <property name="meta.media.0.codec.height">1080</property>
  <property name="meta.media.0.codec.rotate">0</property>
  <property name="meta.media.0.codec.pix_fmt">yuv420p</property>
  <property name="meta.media.0.codec.sample_aspect_ratio">1</property>
  <property name="meta.media.0.codec.colorspace">709</property>
  <property name="meta.media.0.codec.color_trc">1</property>
  <property name="meta.media.0.codec.name">h264</property>
  <property name="meta.media.0.codec.long_name">H.264 / AVC / MPEG-4 AVC / MPEG-4 part 10</property>
  <property name="meta.media.0.codec.bit_rate">0</property>
  <property name="meta.attr.0.stream.HANDLER_NAME.markup">ISO Media file produced by Google Inc.</property>
  <property name="meta.attr.0.stream.VENDOR_ID.markup">[0][0][0][0]</property>
  <property name="meta.attr.0.stream.ENCODER.markup">Lavc60.31.102 libx264</property>
  <property name="meta.attr.0.stream.DURATION.markup">00:00:01.137000000</property>
  <property name="meta.media.1.stream.type">audio</property>
  <property name="meta.media.1.codec.sample_fmt">fltp</property>
  <property name="meta.media.1.codec.sample_rate">44100</property>
  <property name="meta.media.1.codec.channels">2</property>
  <property name="meta.media.1.codec.name">vorbis</property>
  <property name="meta.media.1.codec.long_name">Vorbis</property>
  <property name="meta.media.1.codec.bit_rate">0</property>
  <property name="meta.attr.1.stream.HANDLER_NAME.markup">ISO Media file produced by Google Inc.</property>
  <property name="meta.attr.1.stream.VENDOR_ID.markup">[0][0][0][0]</property>
  <property name="meta.attr.1.stream.ENCODER.markup">Lavc60.31.102 libvorbis</property>
  <property name="meta.attr.1.stream.DURATION.markup">00:00:01.210000000</property>
  <property name="meta.attr.COMPATIBLE_BRANDS.markup">isomiso2avc1mp41</property>
  <property name="meta.attr.MAJOR_BRAND.markup">isom</property>
  <property name="meta.attr.MINOR_VERSION.markup">512</property>
  <property name="meta.attr.ENCODER.markup">Lavf60.16.100</property>
  <property name="seekable">1</property>
  <property name="meta.media.sample_aspect_num">1</property>
  <property name="meta.media.sample_aspect_den">1</property>
  <property name="aspect_ratio">1</property>
  <property name="format">3</property>
  <property name="kdenlive:clipname"/>
  <property name="meta.media.frame_rate_num">30000</property>
  <property name="meta.media.frame_rate_den">1001</property>
  <property name="meta.media.colorspace">709</property>
  <property name="meta.media.color_trc">1</property>
  <property name="meta.media.has_b_frames">2</property>
  <property name="meta.media.width">1920</property>
  <property name="meta.media.height">1080</property>
  <property name="meta.media.color_range">mpeg</property>
  <property name="meta.media.top_field_first">0</property>
  <property name="meta.media.progressive">1</property>
  <property name="kdenlive:clip_type">0</property>
  <property name="kdenlive:folderid">640</property>
  <property name="kdenlive:id">645</property>
  <property name="kdenlive:file_size">301446</property>
  <property name="kdenlive:file_hash">c51f1be160b0ab0fa7287765a40efe4f</property>
  <property name="kdenlive:audio_max1">197</property>
 </producer>
 <producer id="producer592" in="00:00:00.000" out="00:00:00.933">
  <property name="length">57</property>
  <property name="eof">pause</property>
  <property name="resource">/home/federico/Nextcloud/Kden/EditingUT/Video/Spongebob/meanwhile  sponge bob clip.mkv</property>
  <property name="audio_index">1</property>
  <property name="video_index">0</property>
  <property name="mute_on_pause">0</property>
  <property name="mlt_service">avformat-novalidate</property>
  <property name="meta.media.nb_streams">2</property>
  <property name="meta.media.0.stream.type">video</property>
  <property name="meta.media.0.stream.frame_rate">29.97</property>
  <property name="meta.media.0.stream.sample_aspect_ratio">1</property>
  <property name="meta.media.0.codec.width">1280</property>
  <property name="meta.media.0.codec.height">720</property>
  <property name="meta.media.0.codec.rotate">0</property>
  <property name="meta.media.0.codec.pix_fmt">yuv420p</property>
  <property name="meta.media.0.codec.sample_aspect_ratio">1</property>
  <property name="meta.media.0.codec.colorspace">709</property>
  <property name="meta.media.0.codec.color_trc">1</property>
  <property name="meta.media.0.codec.name">h264</property>
  <property name="meta.media.0.codec.long_name">H.264 / AVC / MPEG-4 AVC / MPEG-4 part 10</property>
  <property name="meta.media.0.codec.bit_rate">0</property>
  <property name="meta.attr.0.stream.HANDLER_NAME.markup">ISO Media file produced by Google Inc.</property>
  <property name="meta.attr.0.stream.VENDOR_ID.markup">[0][0][0][0]</property>
  <property name="meta.attr.0.stream.ENCODER.markup">Lavc60.31.102 libx264</property>
  <property name="meta.attr.0.stream.DURATION.markup">00:00:00.870000000</property>
  <property name="meta.media.1.stream.type">audio</property>
  <property name="meta.media.1.codec.sample_fmt">fltp</property>
  <property name="meta.media.1.codec.sample_rate">44100</property>
  <property name="meta.media.1.codec.channels">2</property>
  <property name="meta.media.1.codec.name">vorbis</property>
  <property name="meta.media.1.codec.long_name">Vorbis</property>
  <property name="meta.media.1.codec.bit_rate">0</property>
  <property name="meta.attr.1.stream.HANDLER_NAME.markup">ISO Media file produced by Google Inc.</property>
  <property name="meta.attr.1.stream.VENDOR_ID.markup">[0][0][0][0]</property>
  <property name="meta.attr.1.stream.ENCODER.markup">Lavc60.31.102 libvorbis</property>
  <property name="meta.attr.1.stream.DURATION.markup">00:00:00.955000000</property>
  <property name="meta.attr.COMPATIBLE_BRANDS.markup">isomiso2avc1mp41</property>
  <property name="meta.attr.MAJOR_BRAND.markup">isom</property>
  <property name="meta.attr.MINOR_VERSION.markup">512</property>
  <property name="meta.attr.ENCODER.markup">Lavf60.16.100</property>
  <property name="seekable">1</property>
  <property name="meta.media.sample_aspect_num">1</property>
  <property name="meta.media.sample_aspect_den">1</property>
  <property name="aspect_ratio">1</property>
  <property name="format">3</property>
  <property name="kdenlive:clipname"/>
  <property name="meta.media.frame_rate_num">30000</property>
  <property name="meta.media.frame_rate_den">1001</property>
  <property name="meta.media.colorspace">709</property>
  <property name="meta.media.color_trc">1</property>
  <property name="meta.media.has_b_frames">2</property>
  <property name="meta.media.width">1280</property>
  <property name="meta.media.height">720</property>
  <property name="meta.media.color_range">mpeg</property>
  <property name="meta.media.top_field_first">0</property>
  <property name="meta.media.progressive">1</property>
  <property name="kdenlive:clip_type">0</property>
  <property name="kdenlive:folderid">640</property>
  <property name="kdenlive:id">646</property>
  <property name="kdenlive:file_size">91249</property>
  <property name="kdenlive:file_hash">053d1c7ba6d68ff7406a39ea374ce46b</property>
  <property name="kdenlive:audio_max1">178</property>
 </producer>
 <producer id="producer598" in="00:00:00.000" out="00:00:02.317">
  <property name="length">140</property>
  <property name="eof">pause</property>
  <property name="resource">/home/federico/Nextcloud/Kden/EditingUT/Video/Spongebob/one eternity later  spongebob time card #9.mkv</property>
  <property name="audio_index">1</property>
  <property name="video_index">0</property>
  <property name="mute_on_pause">0</property>
  <property name="mlt_service">avformat-novalidate</property>
  <property name="meta.media.nb_streams">2</property>
  <property name="meta.media.0.stream.type">video</property>
  <property name="meta.media.0.stream.frame_rate">29.97</property>
  <property name="meta.media.0.stream.sample_aspect_ratio">1</property>
  <property name="meta.media.0.codec.width">1920</property>
  <property name="meta.media.0.codec.height">1080</property>
  <property name="meta.media.0.codec.rotate">0</property>
  <property name="meta.media.0.codec.pix_fmt">yuv420p</property>
  <property name="meta.media.0.codec.sample_aspect_ratio">1</property>
  <property name="meta.media.0.codec.colorspace">709</property>
  <property name="meta.media.0.codec.color_trc">1</property>
  <property name="meta.media.0.codec.name">h264</property>
  <property name="meta.media.0.codec.long_name">H.264 / AVC / MPEG-4 AVC / MPEG-4 part 10</property>
  <property name="meta.media.0.codec.bit_rate">0</property>
  <property name="meta.attr.0.stream.HANDLER_NAME.markup">ISO Media file produced by Google Inc.</property>
  <property name="meta.attr.0.stream.VENDOR_ID.markup">[0][0][0][0]</property>
  <property name="meta.attr.0.stream.ENCODER.markup">Lavc60.31.102 libx264</property>
  <property name="meta.attr.0.stream.DURATION.markup">00:00:02.272000000</property>
  <property name="meta.media.1.stream.type">audio</property>
  <property name="meta.media.1.codec.sample_fmt">fltp</property>
  <property name="meta.media.1.codec.sample_rate">44100</property>
  <property name="meta.media.1.codec.channels">2</property>
  <property name="meta.media.1.codec.name">vorbis</property>
  <property name="meta.media.1.codec.long_name">Vorbis</property>
  <property name="meta.media.1.codec.bit_rate">0</property>
  <property name="meta.attr.1.stream.HANDLER_NAME.markup">ISO Media file produced by Google Inc.</property>
  <property name="meta.attr.1.stream.VENDOR_ID.markup">[0][0][0][0]</property>
  <property name="meta.attr.1.stream.ENCODER.markup">Lavc60.31.102 libvorbis</property>
  <property name="meta.attr.1.stream.DURATION.markup">00:00:02.325000000</property>
  <property name="meta.attr.COMPATIBLE_BRANDS.markup">isomiso2avc1mp41</property>
  <property name="meta.attr.MAJOR_BRAND.markup">isom</property>
  <property name="meta.attr.MINOR_VERSION.markup">512</property>
  <property name="meta.attr.ENCODER.markup">Lavf60.16.100</property>
  <property name="seekable">1</property>
  <property name="meta.media.sample_aspect_num">1</property>
  <property name="meta.media.sample_aspect_den">1</property>
  <property name="aspect_ratio">1</property>
  <property name="format">3</property>
  <property name="kdenlive:clipname"/>
  <property name="meta.media.frame_rate_num">30000</property>
  <property name="meta.media.frame_rate_den">1001</property>
  <property name="meta.media.colorspace">709</property>
  <property name="meta.media.color_trc">1</property>
  <property name="meta.media.has_b_frames">2</property>
  <property name="meta.media.width">1920</property>
  <property name="meta.media.height">1080</property>
  <property name="meta.media.color_range">mpeg</property>
  <property name="meta.media.top_field_first">0</property>
  <property name="meta.media.progressive">1</property>
  <property name="kdenlive:clip_type">0</property>
  <property name="kdenlive:folderid">640</property>
  <property name="kdenlive:id">647</property>
  <property name="kdenlive:file_size">332428</property>
  <property name="kdenlive:file_hash">a0a04b8dcf44c5214369b396b58fd5d8</property>
  <property name="kdenlive:audio_max1">168</property>
 </producer>
 <producer id="producer605" in="00:00:00.000" out="00:00:01.850">
  <property name="length">112</property>
  <property name="eof">pause</property>
  <property name="resource">/home/federico/Nextcloud/Kden/EditingUT/Video/Spongebob/one hours later  spongebob time s.mkv</property>
  <property name="audio_index">1</property>
  <property name="video_index">0</property>
  <property name="mute_on_pause">0</property>
  <property name="mlt_service">avformat-novalidate</property>
  <property name="meta.media.nb_streams">2</property>
  <property name="meta.media.0.stream.type">video</property>
  <property name="meta.media.0.stream.frame_rate">29.97</property>
  <property name="meta.media.0.stream.sample_aspect_ratio">1</property>
  <property name="meta.media.0.codec.width">1920</property>
  <property name="meta.media.0.codec.height">1080</property>
  <property name="meta.media.0.codec.rotate">0</property>
  <property name="meta.media.0.codec.pix_fmt">yuv420p</property>
  <property name="meta.media.0.codec.sample_aspect_ratio">1</property>
  <property name="meta.media.0.codec.colorspace">709</property>
  <property name="meta.media.0.codec.color_trc">1</property>
  <property name="meta.media.0.codec.name">h264</property>
  <property name="meta.media.0.codec.long_name">H.264 / AVC / MPEG-4 AVC / MPEG-4 part 10</property>
  <property name="meta.media.0.codec.bit_rate">0</property>
  <property name="meta.attr.0.stream.HANDLER_NAME.markup">ISO Media file produced by Google Inc.</property>
  <property name="meta.attr.0.stream.VENDOR_ID.markup">[0][0][0][0]</property>
  <property name="meta.attr.0.stream.ENCODER.markup">Lavc60.31.102 libx264</property>
  <property name="meta.attr.0.stream.DURATION.markup">00:00:01.738000000</property>
  <property name="meta.media.1.stream.type">audio</property>
  <property name="meta.media.1.codec.sample_fmt">fltp</property>
  <property name="meta.media.1.codec.sample_rate">44100</property>
  <property name="meta.media.1.codec.channels">2</property>
  <property name="meta.media.1.codec.name">vorbis</property>
  <property name="meta.media.1.codec.long_name">Vorbis</property>
  <property name="meta.media.1.codec.bit_rate">0</property>
  <property name="meta.attr.1.stream.HANDLER_NAME.markup">ISO Media file produced by Google Inc.</property>
  <property name="meta.attr.1.stream.VENDOR_ID.markup">[0][0][0][0]</property>
  <property name="meta.attr.1.stream.ENCODER.markup">Lavc60.31.102 libvorbis</property>
  <property name="meta.attr.1.stream.DURATION.markup">00:00:01.860000000</property>
  <property name="meta.attr.COMPATIBLE_BRANDS.markup">isomiso2avc1mp41</property>
  <property name="meta.attr.MAJOR_BRAND.markup">isom</property>
  <property name="meta.attr.MINOR_VERSION.markup">512</property>
  <property name="meta.attr.ENCODER.markup">Lavf60.16.100</property>
  <property name="seekable">1</property>
  <property name="meta.media.sample_aspect_num">1</property>
  <property name="meta.media.sample_aspect_den">1</property>
  <property name="aspect_ratio">1</property>
  <property name="format">3</property>
  <property name="kdenlive:clipname"/>
  <property name="meta.media.frame_rate_num">30000</property>
  <property name="meta.media.frame_rate_den">1001</property>
  <property name="meta.media.colorspace">709</property>
  <property name="meta.media.color_trc">1</property>
  <property name="meta.media.has_b_frames">2</property>
  <property name="meta.media.width">1920</property>
  <property name="meta.media.height">1080</property>
  <property name="meta.media.color_range">mpeg</property>
  <property name="meta.media.top_field_first">0</property>
  <property name="meta.media.progressive">1</property>
  <property name="kdenlive:clip_type">0</property>
  <property name="kdenlive:folderid">640</property>
  <property name="kdenlive:id">648</property>
  <property name="kdenlive:file_size">272995</property>
  <property name="kdenlive:file_hash">38491573d607632bcb6b503c92d84448</property>
  <property name="kdenlive:audio_max1">190</property>
 </producer>
 <producer id="producer596" in="00:00:00.000" out="00:00:01.383">
  <property name="length">84</property>
  <property name="eof">pause</property>
  <property name="resource">/home/federico/Nextcloud/Kden/EditingUT/Video/Spongebob/spongebob  my eyes!!!.mkv</property>
  <property name="audio_index">1</property>
  <property name="video_index">0</property>
  <property name="mute_on_pause">0</property>
  <property name="mlt_service">avformat-novalidate</property>
  <property name="meta.media.nb_streams">2</property>
  <property name="meta.media.0.stream.type">video</property>
  <property name="meta.media.0.stream.frame_rate">29.97</property>
  <property name="meta.media.0.stream.sample_aspect_ratio">0</property>
  <property name="meta.media.0.codec.width">530</property>
  <property name="meta.media.0.codec.height">360</property>
  <property name="meta.media.0.codec.rotate">0</property>
  <property name="meta.media.0.codec.pix_fmt">yuv420p</property>
  <property name="meta.media.0.codec.sample_aspect_ratio">0</property>
  <property name="meta.media.0.codec.colorspace">709</property>
  <property name="meta.media.0.codec.color_trc">1</property>
  <property name="meta.media.0.codec.name">h264</property>
  <property name="meta.media.0.codec.long_name">H.264 / AVC / MPEG-4 AVC / MPEG-4 part 10</property>
  <property name="meta.media.0.codec.bit_rate">0</property>
  <property name="meta.attr.0.stream.HANDLER_NAME.markup">ISO Media file produced by Google Inc. Created on: 06/24/2023.</property>
  <property name="meta.attr.0.stream.VENDOR_ID.markup">[0][0][0][0]</property>
  <property name="meta.attr.0.stream.ENCODER.markup">Lavc60.31.102 libx264</property>
  <property name="meta.attr.0.stream.DURATION.markup">00:00:01.337000000</property>
  <property name="meta.media.1.stream.type">audio</property>
  <property name="meta.media.1.codec.sample_fmt">fltp</property>
  <property name="meta.media.1.codec.sample_rate">44100</property>
  <property name="meta.media.1.codec.channels">2</property>
  <property name="meta.media.1.codec.name">vorbis</property>
  <property name="meta.media.1.codec.long_name">Vorbis</property>
  <property name="meta.media.1.codec.bit_rate">0</property>
  <property name="meta.attr.1.stream.HANDLER_NAME.markup">ISO Media file produced by Google Inc.</property>
  <property name="meta.attr.1.stream.VENDOR_ID.markup">[0][0][0][0]</property>
  <property name="meta.attr.1.stream.ENCODER.markup">Lavc60.31.102 libvorbis</property>
  <property name="meta.attr.1.stream.DURATION.markup">00:00:01.396000000</property>
  <property name="meta.attr.COMPATIBLE_BRANDS.markup">isomiso2mp41</property>
  <property name="meta.attr.MAJOR_BRAND.markup">isom</property>
  <property name="meta.attr.MINOR_VERSION.markup">512</property>
  <property name="meta.attr.ENCODER.markup">Lavf60.16.100</property>
  <property name="seekable">1</property>
  <property name="meta.media.sample_aspect_num">1</property>
  <property name="meta.media.sample_aspect_den">1</property>
  <property name="aspect_ratio">1</property>
  <property name="format">3</property>
  <property name="kdenlive:clipname"/>
  <property name="meta.media.frame_rate_num">30000</property>
  <property name="meta.media.frame_rate_den">1001</property>
  <property name="meta.media.colorspace">709</property>
  <property name="meta.media.color_trc">1</property>
  <property name="meta.media.has_b_frames">2</property>
  <property name="meta.media.width">530</property>
  <property name="meta.media.height">360</property>
  <property name="meta.media.color_range">mpeg</property>
  <property name="meta.media.top_field_first">0</property>
  <property name="meta.media.progressive">1</property>
  <property name="kdenlive:clip_type">0</property>
  <property name="kdenlive:folderid">640</property>
  <property name="kdenlive:id">649</property>
  <property name="kdenlive:file_size">62411</property>
  <property name="kdenlive:file_hash">7fb3253645fab096b19412d757f51d72</property>
  <property name="kdenlive:audio_max1">113</property>
 </producer>
 <producer id="producer599" in="00:00:00.000" out="00:00:02.800">
  <property name="length">169</property>
  <property name="eof">pause</property>
  <property name="resource">/home/federico/Nextcloud/Kden/EditingUT/Video/Spongebob/spongebob 2 hours later the whole sentence.mkv</property>
  <property name="audio_index">1</property>
  <property name="video_index">0</property>
  <property name="mute_on_pause">0</property>
  <property name="mlt_service">avformat-novalidate</property>
  <property name="meta.media.nb_streams">2</property>
  <property name="meta.media.0.stream.type">video</property>
  <property name="meta.media.0.stream.frame_rate">26.5</property>
  <property name="meta.media.0.stream.sample_aspect_ratio">1</property>
  <property name="meta.media.0.codec.width">1268</property>
  <property name="meta.media.0.codec.height">720</property>
  <property name="meta.media.0.codec.rotate">0</property>
  <property name="meta.media.0.codec.pix_fmt">yuv420p</property>
  <property name="meta.media.0.codec.sample_aspect_ratio">1</property>
  <property name="meta.media.0.codec.colorspace">709</property>
  <property name="meta.media.0.codec.name">h264</property>
  <property name="meta.media.0.codec.long_name">H.264 / AVC / MPEG-4 AVC / MPEG-4 part 10</property>
  <property name="meta.media.0.codec.bit_rate">0</property>
  <property name="meta.attr.0.stream.HANDLER_NAME.markup">VideoHandler</property>
  <property name="meta.attr.0.stream.VENDOR_ID.markup">[0][0][0][0]</property>
  <property name="meta.attr.0.stream.ENCODER.markup">Lavc60.31.102 libx264</property>
  <property name="meta.attr.0.stream.DURATION.markup">00:00:02.758000000</property>
  <property name="meta.media.1.stream.type">audio</property>
  <property name="meta.media.1.codec.sample_fmt">fltp</property>
  <property name="meta.media.1.codec.sample_rate">44100</property>
  <property name="meta.media.1.codec.channels">2</property>
  <property name="meta.media.1.codec.name">vorbis</property>
  <property name="meta.media.1.codec.long_name">Vorbis</property>
  <property name="meta.media.1.codec.bit_rate">0</property>
  <property name="meta.attr.1.stream.HANDLER_NAME.markup">SoundHandler</property>
  <property name="meta.attr.1.stream.VENDOR_ID.markup">[0][0][0][0]</property>
  <property name="meta.attr.1.stream.ENCODER.markup">Lavc60.31.102 libvorbis</property>
  <property name="meta.attr.1.stream.DURATION.markup">00:00:02.813000000</property>
  <property name="meta.attr.COMPATIBLE_BRANDS.markup">isomiso2avc1mp41</property>
  <property name="meta.attr.MAJOR_BRAND.markup">isom</property>
  <property name="meta.attr.MINOR_VERSION.markup">512</property>
  <property name="meta.attr.ENCODER.markup">Lavf60.16.100</property>
  <property name="seekable">1</property>
  <property name="meta.media.sample_aspect_num">1</property>
  <property name="meta.media.sample_aspect_den">1</property>
  <property name="aspect_ratio">1</property>
  <property name="format">3</property>
  <property name="kdenlive:clipname"/>
  <property name="meta.media.frame_rate_num">53</property>
  <property name="meta.media.frame_rate_den">2</property>
  <property name="meta.media.colorspace">709</property>
  <property name="meta.media.color_trc">2</property>
  <property name="meta.media.has_b_frames">2</property>
  <property name="meta.media.width">1268</property>
  <property name="meta.media.height">720</property>
  <property name="meta.media.color_range">mpeg</property>
  <property name="meta.media.top_field_first">0</property>
  <property name="meta.media.progressive">1</property>
  <property name="kdenlive:clip_type">0</property>
  <property name="kdenlive:folderid">640</property>
  <property name="kdenlive:id">650</property>
  <property name="kdenlive:file_size">212030</property>
  <property name="kdenlive:file_hash">feb3156dcd7f4f596f2b6f34eb30332d</property>
  <property name="kdenlive:audio_max1">144</property>
 </producer>
 <producer id="producer597" in="00:00:00.000" out="00:00:41.800">
  <property name="length">2509</property>
  <property name="eof">pause</property>
  <property name="resource">/home/federico/Nextcloud/Kden/EditingUT/Video/Spongebob/spongebob sigla.mkv</property>
  <property name="audio_index">1</property>
  <property name="video_index">0</property>
  <property name="mute_on_pause">0</property>
  <property name="mlt_service">avformat-novalidate</property>
  <property name="meta.media.nb_streams">2</property>
  <property name="meta.media.0.stream.type">video</property>
  <property name="meta.media.0.stream.frame_rate">25</property>
  <property name="meta.media.0.stream.sample_aspect_ratio">1</property>
  <property name="meta.media.0.codec.width">640</property>
  <property name="meta.media.0.codec.height">480</property>
  <property name="meta.media.0.codec.rotate">0</property>
  <property name="meta.media.0.codec.pix_fmt">yuv420p</property>
  <property name="meta.media.0.codec.sample_aspect_ratio">1</property>
  <property name="meta.media.0.codec.colorspace">601</property>
  <property name="meta.media.0.codec.name">h264</property>
  <property name="meta.media.0.codec.long_name">H.264 / AVC / MPEG-4 AVC / MPEG-4 part 10</property>
  <property name="meta.media.0.codec.bit_rate">0</property>
  <property name="meta.attr.0.stream.HANDLER_NAME.markup">VideoHandler</property>
  <property name="meta.attr.0.stream.VENDOR_ID.markup">[0][0][0][0]</property>
  <property name="meta.attr.0.stream.ENCODER.markup">Lavc60.31.102 libx264</property>
  <property name="meta.attr.0.stream.DURATION.markup">00:00:41.683000000</property>
  <property name="meta.media.1.stream.type">audio</property>
  <property name="meta.media.1.codec.sample_fmt">fltp</property>
  <property name="meta.media.1.codec.sample_rate">44100</property>
  <property name="meta.media.1.codec.channels">2</property>
  <property name="meta.media.1.codec.name">vorbis</property>
  <property name="meta.media.1.codec.long_name">Vorbis</property>
  <property name="meta.media.1.codec.bit_rate">0</property>
  <property name="meta.attr.1.stream.HANDLER_NAME.markup">SoundHandler</property>
  <property name="meta.attr.1.stream.VENDOR_ID.markup">[0][0][0][0]</property>
  <property name="meta.attr.1.stream.ENCODER.markup">Lavc60.31.102 libvorbis</property>
  <property name="meta.attr.1.stream.DURATION.markup">00:00:41.822000000</property>
  <property name="meta.attr.COMPATIBLE_BRANDS.markup">isomiso2avc1mp41</property>
  <property name="meta.attr.MAJOR_BRAND.markup">isom</property>
  <property name="meta.attr.MINOR_VERSION.markup">512</property>
  <property name="meta.attr.ENCODER.markup">Lavf60.16.100</property>
  <property name="seekable">1</property>
  <property name="meta.media.sample_aspect_num">1</property>
  <property name="meta.media.sample_aspect_den">1</property>
  <property name="aspect_ratio">1</property>
  <property name="format">3</property>
  <property name="kdenlive:clipname"/>
  <property name="meta.media.frame_rate_num">25</property>
  <property name="meta.media.frame_rate_den">1</property>
  <property name="meta.media.colorspace">601</property>
  <property name="meta.media.color_trc">2</property>
  <property name="meta.media.has_b_frames">2</property>
  <property name="meta.media.width">640</property>
  <property name="meta.media.height">480</property>
  <property name="meta.media.color_range">mpeg</property>
  <property name="meta.media.top_field_first">0</property>
  <property name="meta.media.progressive">1</property>
  <property name="kdenlive:clip_type">0</property>
  <property name="kdenlive:folderid">640</property>
  <property name="kdenlive:id">651</property>
  <property name="kdenlive:file_size">4263043</property>
  <property name="kdenlive:file_hash">e3177c54824c80fe8b8c752186f6fb0b</property>
  <property name="kdenlive:audio_max1">208</property>
 </producer>
 <producer id="producer600" in="00:00:00.000" out="00:00:00.933">
  <property name="length">57</property>
  <property name="eof">pause</property>
  <property name="resource">/home/federico/Nextcloud/Kden/EditingUT/Video/Spongebob/spongebob timecard-uhh....mkv</property>
  <property name="audio_index">1</property>
  <property name="video_index">0</property>
  <property name="mute_on_pause">0</property>
  <property name="mlt_service">avformat-novalidate</property>
  <property name="meta.media.nb_streams">2</property>
  <property name="meta.media.0.stream.type">video</property>
  <property name="meta.media.0.stream.frame_rate">30</property>
  <property name="meta.media.0.stream.sample_aspect_ratio">1</property>
  <property name="meta.media.0.codec.width">640</property>
  <property name="meta.media.0.codec.height">360</property>
  <property name="meta.media.0.codec.rotate">0</property>
  <property name="meta.media.0.codec.pix_fmt">yuv420p</property>
  <property name="meta.media.0.codec.sample_aspect_ratio">1</property>
  <property name="meta.media.0.codec.colorspace">709</property>
  <property name="meta.media.0.codec.color_trc">1</property>
  <property name="meta.media.0.codec.name">h264</property>
  <property name="meta.media.0.codec.long_name">H.264 / AVC / MPEG-4 AVC / MPEG-4 part 10</property>
  <property name="meta.media.0.codec.bit_rate">0</property>
  <property name="meta.attr.0.stream.HANDLER_NAME.markup">VideoHandler</property>
  <property name="meta.attr.0.stream.VENDOR_ID.markup">[0][0][0][0]</property>
  <property name="meta.attr.0.stream.ENCODER.markup">Lavc60.31.102 libx264</property>
  <property name="meta.attr.0.stream.DURATION.markup">00:00:00.836000000</property>
  <property name="meta.media.1.stream.type">audio</property>
  <property name="meta.media.1.codec.sample_fmt">fltp</property>
  <property name="meta.media.1.codec.sample_rate">44100</property>
  <property name="meta.media.1.codec.channels">2</property>
  <property name="meta.media.1.codec.name">vorbis</property>
  <property name="meta.media.1.codec.long_name">Vorbis</property>
  <property name="meta.media.1.codec.bit_rate">0</property>
  <property name="meta.attr.1.stream.HANDLER_NAME.markup">SoundHandler</property>
  <property name="meta.attr.1.stream.VENDOR_ID.markup">[0][0][0][0]</property>
  <property name="meta.attr.1.stream.ENCODER.markup">Lavc60.31.102 libvorbis</property>
  <property name="meta.attr.1.stream.DURATION.markup">00:00:00.955000000</property>
  <property name="meta.attr.COMPATIBLE_BRANDS.markup">isomiso2avc1mp41</property>
  <property name="meta.attr.MAJOR_BRAND.markup">isom</property>
  <property name="meta.attr.MINOR_VERSION.markup">512</property>
  <property name="meta.attr.ENCODER.markup">Lavf60.16.100</property>
  <property name="seekable">1</property>
  <property name="meta.media.sample_aspect_num">1</property>
  <property name="meta.media.sample_aspect_den">1</property>
  <property name="aspect_ratio">1</property>
  <property name="format">3</property>
  <property name="kdenlive:clipname"/>
  <property name="meta.media.frame_rate_num">30</property>
  <property name="meta.media.frame_rate_den">1</property>
  <property name="meta.media.colorspace">709</property>
  <property name="meta.media.color_trc">1</property>
  <property name="meta.media.has_b_frames">2</property>
  <property name="meta.media.width">640</property>
  <property name="meta.media.height">360</property>
  <property name="meta.media.color_range">mpeg</property>
  <property name="meta.media.top_field_first">0</property>
  <property name="meta.media.progressive">1</property>
  <property name="kdenlive:clip_type">0</property>
  <property name="kdenlive:folderid">640</property>
  <property name="kdenlive:id">652</property>
  <property name="kdenlive:file_size">34120</property>
  <property name="kdenlive:file_hash">d587e8b740be03d7c64ced28bad0b7a8</property>
  <property name="kdenlive:audio_max1">126</property>
 </producer>
 <producer id="producer601" in="00:00:00.000" out="00:00:16.650">
  <property name="length">1000</property>
  <property name="eof">pause</property>
  <property name="resource">/home/federico/Nextcloud/Kden/EditingUT/Video/TheOffice/the office - aaahhhhh i’m going to kill myself i'm going to kill myself and it’s your fault.mkv</property>
  <property name="audio_index">1</property>
  <property name="video_index">0</property>
  <property name="mute_on_pause">0</property>
  <property name="mlt_service">avformat-novalidate</property>
  <property name="meta.media.nb_streams">2</property>
  <property name="meta.media.0.stream.type">video</property>
  <property name="meta.media.0.stream.frame_rate">28.818</property>
  <property name="meta.media.0.stream.sample_aspect_ratio">1</property>
  <property name="meta.media.0.codec.width">852</property>
  <property name="meta.media.0.codec.height">480</property>
  <property name="meta.media.0.codec.rotate">0</property>
  <property name="meta.media.0.codec.pix_fmt">yuv420p</property>
  <property name="meta.media.0.codec.sample_aspect_ratio">1</property>
  <property name="meta.media.0.codec.colorspace">709</property>
  <property name="meta.media.0.codec.color_trc">1</property>
  <property name="meta.media.0.codec.name">h264</property>
  <property name="meta.media.0.codec.long_name">H.264 / AVC / MPEG-4 AVC / MPEG-4 part 10</property>
  <property name="meta.media.0.codec.bit_rate">0</property>
  <property name="meta.attr.0.stream.HANDLER_NAME.markup">ISO Media file produced by Google Inc.</property>
  <property name="meta.attr.0.stream.VENDOR_ID.markup">[0][0][0][0]</property>
  <property name="meta.attr.0.stream.ENCODER.markup">Lavc60.31.102 libx264</property>
  <property name="meta.attr.0.stream.DURATION.markup">00:00:16.625000000</property>
  <property name="meta.media.1.stream.type">audio</property>
  <property name="meta.media.1.codec.sample_fmt">fltp</property>
  <property name="meta.media.1.codec.sample_rate">44100</property>
  <property name="meta.media.1.codec.channels">2</property>
  <property name="meta.media.1.codec.name">vorbis</property>
  <property name="meta.media.1.codec.long_name">Vorbis</property>
  <property name="meta.media.1.codec.bit_rate">0</property>
  <property name="meta.attr.1.stream.HANDLER_NAME.markup">ISO Media file produced by Google Inc.</property>
  <property name="meta.attr.1.stream.VENDOR_ID.markup">[0][0][0][0]</property>
  <property name="meta.attr.1.stream.ENCODER.markup">Lavc60.31.102 libvorbis</property>
  <property name="meta.attr.1.stream.DURATION.markup">00:00:16.675000000</property>
  <property name="meta.attr.title.markup">The Office - AAAHHHHH I’M GOING TO KILL MYSELF I'M GOING TO KILL MYSELF AND IT’S YOUR FAULT</property>
  <property name="meta.attr.DESCRIPTION.markup">This scene is my fave though

From season 2 episode 5 of The Office, when corporate is urging for Michael to let someone from go from the Scranton branch, and he’s preparing how to let them know without hurting them and “still being their friend”</property>
  <property name="meta.attr.MAJOR_BRAND.markup">isom</property>
  <property name="meta.attr.MINOR_VERSION.markup">512</property>
  <property name="meta.attr.COMPATIBLE_BRANDS.markup">isomiso2avc1mp41</property>
  <property name="meta.attr.ARTIST.markup">narumi</property>
  <property name="meta.attr.DATE.markup">20171009</property>
  <property name="meta.attr.SYNOPSIS.markup">This scene is my fave though

From season 2 episode 5 of The Office, when corporate is urging for Michael to let someone from go from the Scranton branch, and he’s preparing how to let them know without hurting them and “still being their friend”</property>
  <property name="meta.attr.COMMENT.markup">https://www.youtube.com/watch?v=Xr8BHdC6X0c</property>
  <property name="meta.attr.ENCODER.markup">Lavf60.16.100</property>
  <property name="seekable">1</property>
  <property name="meta.media.sample_aspect_num">1</property>
  <property name="meta.media.sample_aspect_den">1</property>
  <property name="aspect_ratio">1</property>
  <property name="format">3</property>
  <property name="kdenlive:clipname"/>
  <property name="meta.media.frame_rate_num">14409</property>
  <property name="meta.media.frame_rate_den">500</property>
  <property name="meta.media.colorspace">709</property>
  <property name="meta.media.color_trc">1</property>
  <property name="meta.media.has_b_frames">2</property>
  <property name="meta.media.width">852</property>
  <property name="meta.media.height">480</property>
  <property name="meta.media.color_range">mpeg</property>
  <property name="meta.media.top_field_first">0</property>
  <property name="meta.media.progressive">1</property>
  <property name="kdenlive:clip_type">0</property>
  <property name="kdenlive:folderid">653</property>
  <property name="kdenlive:id">654</property>
  <property name="kdenlive:file_size">1626885</property>
  <property name="kdenlive:file_hash">245e03323be1f2286d8b61ccbedb09d1</property>
  <property name="kdenlive:audio_max1">177</property>
 </producer>
 <producer id="producer603" in="00:00:00.000" out="00:00:13.100">
  <property name="length">787</property>
  <property name="eof">pause</property>
  <property name="resource">/home/federico/Nextcloud/Kden/EditingUT/Video/TheOffice/the office - michael scotts epic parkour trick.mkv</property>
  <property name="audio_index">1</property>
  <property name="video_index">0</property>
  <property name="mute_on_pause">0</property>
  <property name="mlt_service">avformat-novalidate</property>
  <property name="meta.media.nb_streams">2</property>
  <property name="meta.media.0.stream.type">video</property>
  <property name="meta.media.0.stream.frame_rate">23.976</property>
  <property name="meta.media.0.stream.sample_aspect_ratio">1</property>
  <property name="meta.media.0.codec.width">1280</property>
  <property name="meta.media.0.codec.height">720</property>
  <property name="meta.media.0.codec.rotate">0</property>
  <property name="meta.media.0.codec.pix_fmt">yuv420p</property>
  <property name="meta.media.0.codec.sample_aspect_ratio">1</property>
  <property name="meta.media.0.codec.colorspace">709</property>
  <property name="meta.media.0.codec.color_trc">1</property>
  <property name="meta.media.0.codec.name">h264</property>
  <property name="meta.media.0.codec.long_name">H.264 / AVC / MPEG-4 AVC / MPEG-4 part 10</property>
  <property name="meta.media.0.codec.bit_rate">0</property>
  <property name="meta.attr.0.stream.HANDLER_NAME.markup">ISO Media file produced by Google Inc. Created on: 05/31/2019.</property>
  <property name="meta.attr.0.stream.VENDOR_ID.markup">[0][0][0][0]</property>
  <property name="meta.attr.0.stream.ENCODER.markup">Lavc60.31.102 libx264</property>
  <property name="meta.attr.0.stream.DURATION.markup">00:00:13.058000000</property>
  <property name="meta.media.1.stream.type">audio</property>
  <property name="meta.media.1.codec.sample_fmt">fltp</property>
  <property name="meta.media.1.codec.sample_rate">44100</property>
  <property name="meta.media.1.codec.channels">2</property>
  <property name="meta.media.1.codec.name">vorbis</property>
  <property name="meta.media.1.codec.long_name">Vorbis</property>
  <property name="meta.media.1.codec.bit_rate">0</property>
  <property name="meta.attr.1.stream.HANDLER_NAME.markup">ISO Media file produced by Google Inc. Created on: 05/31/2019.</property>
  <property name="meta.attr.1.stream.VENDOR_ID.markup">[0][0][0][0]</property>
  <property name="meta.attr.1.stream.ENCODER.markup">Lavc60.31.102 libvorbis</property>
  <property name="meta.attr.1.stream.DURATION.markup">00:00:13.122000000</property>
  <property name="meta.attr.COMPATIBLE_BRANDS.markup">isomiso2avc1mp41</property>
  <property name="meta.attr.MAJOR_BRAND.markup">isom</property>
  <property name="meta.attr.MINOR_VERSION.markup">512</property>
  <property name="meta.attr.ENCODER.markup">Lavf60.16.100</property>
  <property name="seekable">1</property>
  <property name="meta.media.sample_aspect_num">1</property>
  <property name="meta.media.sample_aspect_den">1</property>
  <property name="aspect_ratio">1</property>
  <property name="format">3</property>
  <property name="kdenlive:clipname"/>
  <property name="meta.media.frame_rate_num">24000</property>
  <property name="meta.media.frame_rate_den">1001</property>
  <property name="meta.media.colorspace">709</property>
  <property name="meta.media.color_trc">1</property>
  <property name="meta.media.has_b_frames">2</property>
  <property name="meta.media.width">1280</property>
  <property name="meta.media.height">720</property>
  <property name="meta.media.color_range">mpeg</property>
  <property name="meta.media.top_field_first">0</property>
  <property name="meta.media.progressive">1</property>
  <property name="kdenlive:clip_type">0</property>
  <property name="kdenlive:folderid">653</property>
  <property name="kdenlive:id">655</property>
  <property name="kdenlive:file_size">3251552</property>
  <property name="kdenlive:file_hash">3f271172e7edae41ef9ec5918a0aa283</property>
  <property name="kdenlive:audio_max1">151</property>
 </producer>
 <producer id="producer602" in="00:00:00.000" out="00:00:20.900">
  <property name="length">1255</property>
  <property name="eof">pause</property>
  <property name="resource">/home/federico/Nextcloud/Kden/EditingUT/Video/TheOffice/the office michael scott - why are you the way that you are.mkv</property>
  <property name="audio_index">1</property>
  <property name="video_index">0</property>
  <property name="mute_on_pause">0</property>
  <property name="mlt_service">avformat-novalidate</property>
  <property name="meta.media.nb_streams">2</property>
  <property name="meta.media.0.stream.type">video</property>
  <property name="meta.media.0.stream.frame_rate">29.97</property>
  <property name="meta.media.0.stream.sample_aspect_ratio">1</property>
  <property name="meta.media.0.codec.width">620</property>
  <property name="meta.media.0.codec.height">360</property>
  <property name="meta.media.0.codec.rotate">0</property>
  <property name="meta.media.0.codec.pix_fmt">yuv420p</property>
  <property name="meta.media.0.codec.sample_aspect_ratio">1</property>
  <property name="meta.media.0.codec.colorspace">601</property>
  <property name="meta.media.0.codec.name">h264</property>
  <property name="meta.media.0.codec.long_name">H.264 / AVC / MPEG-4 AVC / MPEG-4 part 10</property>
  <property name="meta.media.0.codec.bit_rate">0</property>
  <property name="meta.attr.0.stream.HANDLER_NAME.markup">VideoHandler</property>
  <property name="meta.attr.0.stream.VENDOR_ID.markup">[0][0][0][0]</property>
  <property name="meta.attr.0.stream.ENCODER.markup">Lavc60.31.102 libx264</property>
  <property name="meta.attr.0.stream.DURATION.markup">00:00:20.823000000</property>
  <property name="meta.media.1.stream.type">audio</property>
  <property name="meta.media.1.codec.sample_fmt">fltp</property>
  <property name="meta.media.1.codec.sample_rate">44100</property>
  <property name="meta.media.1.codec.channels">2</property>
  <property name="meta.media.1.codec.name">vorbis</property>
  <property name="meta.media.1.codec.long_name">Vorbis</property>
  <property name="meta.media.1.codec.bit_rate">0</property>
  <property name="meta.attr.1.stream.HANDLER_NAME.markup">SoundHandler</property>
  <property name="meta.attr.1.stream.VENDOR_ID.markup">[0][0][0][0]</property>
  <property name="meta.attr.1.stream.ENCODER.markup">Lavc60.31.102 libvorbis</property>
  <property name="meta.attr.1.stream.DURATION.markup">00:00:20.924000000</property>
  <property name="meta.attr.COMPATIBLE_BRANDS.markup">isomiso2avc1mp41</property>
  <property name="meta.attr.MAJOR_BRAND.markup">isom</property>
  <property name="meta.attr.MINOR_VERSION.markup">512</property>
  <property name="meta.attr.ENCODER.markup">Lavf60.16.100</property>
  <property name="seekable">1</property>
  <property name="meta.media.sample_aspect_num">1</property>
  <property name="meta.media.sample_aspect_den">1</property>
  <property name="aspect_ratio">1</property>
  <property name="format">3</property>
  <property name="kdenlive:clipname"/>
  <property name="meta.media.frame_rate_num">30000</property>
  <property name="meta.media.frame_rate_den">1001</property>
  <property name="meta.media.colorspace">601</property>
  <property name="meta.media.color_trc">2</property>
  <property name="meta.media.has_b_frames">2</property>
  <property name="meta.media.width">620</property>
  <property name="meta.media.height">360</property>
  <property name="meta.media.color_range">mpeg</property>
  <property name="meta.media.top_field_first">0</property>
  <property name="meta.media.progressive">1</property>
  <property name="kdenlive:clip_type">0</property>
  <property name="kdenlive:folderid">653</property>
  <property name="kdenlive:id">656</property>
  <property name="kdenlive:file_size">720176</property>
  <property name="kdenlive:file_hash">9d523a558868178ca17e77ff8fd7e61e</property>
  <property name="kdenlive:audio_max1">166</property>
 </producer>
 <producer id="producer604" in="00:00:00.000" out="00:01:02.650">
  <property name="length">3760</property>
  <property name="eof">pause</property>
  <property name="resource">/home/federico/Nextcloud/Kden/EditingUT/Video/TheOffice/the office the best thats what she said moment.mkv</property>
  <property name="audio_index">1</property>
  <property name="video_index">0</property>
  <property name="mute_on_pause">0</property>
  <property name="mlt_service">avformat-novalidate</property>
  <property name="meta.media.nb_streams">2</property>
  <property name="meta.media.0.stream.type">video</property>
  <property name="meta.media.0.stream.frame_rate">23.976</property>
  <property name="meta.media.0.stream.sample_aspect_ratio">1</property>
  <property name="meta.media.0.codec.width">854</property>
  <property name="meta.media.0.codec.height">480</property>
  <property name="meta.media.0.codec.rotate">0</property>
  <property name="meta.media.0.codec.pix_fmt">yuv420p</property>
  <property name="meta.media.0.codec.sample_aspect_ratio">1</property>
  <property name="meta.media.0.codec.colorspace">709</property>
  <property name="meta.media.0.codec.color_trc">1</property>
  <property name="meta.media.0.codec.name">h264</property>
  <property name="meta.media.0.codec.long_name">H.264 / AVC / MPEG-4 AVC / MPEG-4 part 10</property>
  <property name="meta.media.0.codec.bit_rate">0</property>
  <property name="meta.attr.0.stream.HANDLER_NAME.markup">ISO Media file produced by Google Inc.</property>
  <property name="meta.attr.0.stream.VENDOR_ID.markup">[0][0][0][0]</property>
  <property name="meta.attr.0.stream.ENCODER.markup">Lavc60.31.102 libx264</property>
  <property name="meta.attr.0.stream.DURATION.markup">00:01:02.608000000</property>
  <property name="meta.media.1.stream.type">audio</property>
  <property name="meta.media.1.codec.sample_fmt">fltp</property>
  <property name="meta.media.1.codec.sample_rate">44100</property>
  <property name="meta.media.1.codec.channels">2</property>
  <property name="meta.media.1.codec.name">vorbis</property>
  <property name="meta.media.1.codec.long_name">Vorbis</property>
  <property name="meta.media.1.codec.bit_rate">0</property>
  <property name="meta.attr.1.stream.HANDLER_NAME.markup">ISO Media file produced by Google Inc.</property>
  <property name="meta.attr.1.stream.VENDOR_ID.markup">[0][0][0][0]</property>
  <property name="meta.attr.1.stream.ENCODER.markup">Lavc60.31.102 libvorbis</property>
  <property name="meta.attr.1.stream.DURATION.markup">00:01:02.674000000</property>
  <property name="meta.attr.COMPATIBLE_BRANDS.markup">isomiso2avc1mp41</property>
  <property name="meta.attr.MAJOR_BRAND.markup">isom</property>
  <property name="meta.attr.MINOR_VERSION.markup">512</property>
  <property name="meta.attr.ENCODER.markup">Lavf60.16.100</property>
  <property name="seekable">1</property>
  <property name="meta.media.sample_aspect_num">1</property>
  <property name="meta.media.sample_aspect_den">1</property>
  <property name="aspect_ratio">1</property>
  <property name="format">3</property>
  <property name="kdenlive:clipname"/>
  <property name="meta.media.frame_rate_num">24000</property>
  <property name="meta.media.frame_rate_den">1001</property>
  <property name="meta.media.colorspace">709</property>
  <property name="meta.media.color_trc">1</property>
  <property name="meta.media.has_b_frames">2</property>
  <property name="meta.media.width">854</property>
  <property name="meta.media.height">480</property>
  <property name="meta.media.color_range">mpeg</property>
  <property name="meta.media.top_field_first">0</property>
  <property name="meta.media.progressive">1</property>
  <property name="kdenlive:clip_type">0</property>
  <property name="kdenlive:folderid">653</property>
  <property name="kdenlive:id">657</property>
  <property name="kdenlive:file_size">4571453</property>
  <property name="kdenlive:file_hash">ad1664d823decc53da25aeb62f774e37</property>
  <property name="kdenlive:audio_max1">185</property>
 </producer>
 <producer id="producer606" in="00:00:00.000" out="00:00:00.650">
  <property name="length">40</property>
  <property name="eof">pause</property>
  <property name="resource">/home/federico/Nextcloud/Kden/EditingUT/Video/TVStatic_Glitch/double_tv_glitch.mkv</property>
  <property name="audio_index">1</property>
  <property name="video_index">0</property>
  <property name="mute_on_pause">0</property>
  <property name="mlt_service">avformat-novalidate</property>
  <property name="meta.media.nb_streams">2</property>
  <property name="meta.media.0.stream.type">video</property>
  <property name="meta.media.0.stream.frame_rate">60</property>
  <property name="meta.media.0.stream.sample_aspect_ratio">1</property>
  <property name="meta.media.0.codec.width">1920</property>
  <property name="meta.media.0.codec.height">1080</property>
  <property name="meta.media.0.codec.rotate">0</property>
  <property name="meta.media.0.codec.pix_fmt">yuv420p</property>
  <property name="meta.media.0.codec.sample_aspect_ratio">1</property>
  <property name="meta.media.0.codec.colorspace">709</property>
  <property name="meta.media.0.codec.color_trc">1</property>
  <property name="meta.media.0.codec.name">h264</property>
  <property name="meta.media.0.codec.long_name">H.264 / AVC / MPEG-4 AVC / MPEG-4 part 10</property>
  <property name="meta.media.0.codec.bit_rate">0</property>
  <property name="meta.attr.0.stream.HANDLER_NAME.markup">VideoHandler</property>
  <property name="meta.attr.0.stream.VENDOR_ID.markup">[0][0][0][0]</property>
  <property name="meta.attr.0.stream.ENCODER.markup">Lavc60.31.102 libx264</property>
  <property name="meta.attr.0.stream.DURATION.markup">00:00:00.653000000</property>
  <property name="meta.media.1.stream.type">audio</property>
  <property name="meta.media.1.codec.sample_fmt">fltp</property>
  <property name="meta.media.1.codec.sample_rate">48000</property>
  <property name="meta.media.1.codec.channels">2</property>
  <property name="meta.media.1.codec.name">vorbis</property>
  <property name="meta.media.1.codec.long_name">Vorbis</property>
  <property name="meta.media.1.codec.bit_rate">0</property>
  <property name="meta.attr.1.stream.HANDLER_NAME.markup">SoundHandler</property>
  <property name="meta.attr.1.stream.VENDOR_ID.markup">[0][0][0][0]</property>
  <property name="meta.attr.1.stream.ENCODER.markup">Lavc60.31.102 libvorbis</property>
  <property name="meta.attr.1.stream.DURATION.markup">00:00:00.665000000</property>
  <property name="meta.attr.COMPATIBLE_BRANDS.markup">isomiso2avc1mp41</property>
  <property name="meta.attr.MAJOR_BRAND.markup">isom</property>
  <property name="meta.attr.MINOR_VERSION.markup">512</property>
  <property name="meta.attr.ENCODER.markup">Lavf60.16.100</property>
  <property name="seekable">1</property>
  <property name="meta.media.sample_aspect_num">1</property>
  <property name="meta.media.sample_aspect_den">1</property>
  <property name="aspect_ratio">1</property>
  <property name="format">3</property>
  <property name="kdenlive:clipname"/>
  <property name="meta.media.frame_rate_num">60</property>
  <property name="meta.media.frame_rate_den">1</property>
  <property name="meta.media.colorspace">709</property>
  <property name="meta.media.color_trc">1</property>
  <property name="meta.media.has_b_frames">2</property>
  <property name="meta.media.width">1920</property>
  <property name="meta.media.height">1080</property>
  <property name="meta.media.color_range">mpeg</property>
  <property name="meta.media.top_field_first">0</property>
  <property name="meta.media.progressive">1</property>
  <property name="kdenlive:clip_type">0</property>
  <property name="kdenlive:folderid">658</property>
  <property name="kdenlive:id">659</property>
  <property name="kdenlive:file_size">646645</property>
  <property name="kdenlive:file_hash">c3203f4c2f6366252fd4908973508319</property>
  <property name="kdenlive:audio_max1">110</property>
 </producer>
 <producer id="producer607" in="00:00:00.000" out="00:00:00.350">
  <property name="length">22</property>
  <property name="eof">pause</property>
  <property name="resource">/home/federico/Nextcloud/Kden/EditingUT/Video/TVStatic_Glitch/tv glitch.mkv</property>
  <property name="audio_index">1</property>
  <property name="video_index">0</property>
  <property name="mute_on_pause">0</property>
  <property name="mlt_service">avformat-novalidate</property>
  <property name="meta.media.nb_streams">2</property>
  <property name="meta.media.0.stream.type">video</property>
  <property name="meta.media.0.stream.frame_rate">60</property>
  <property name="meta.media.0.stream.sample_aspect_ratio">1</property>
  <property name="meta.media.0.codec.width">1920</property>
  <property name="meta.media.0.codec.height">1080</property>
  <property name="meta.media.0.codec.rotate">0</property>
  <property name="meta.media.0.codec.pix_fmt">yuv420p</property>
  <property name="meta.media.0.codec.sample_aspect_ratio">1</property>
  <property name="meta.media.0.codec.colorspace">709</property>
  <property name="meta.media.0.codec.color_trc">1</property>
  <property name="meta.media.0.codec.name">h264</property>
  <property name="meta.media.0.codec.long_name">H.264 / AVC / MPEG-4 AVC / MPEG-4 part 10</property>
  <property name="meta.media.0.codec.bit_rate">0</property>
  <property name="meta.attr.0.stream.DURATION.markup">00:00:00.334000000</property>
  <property name="meta.media.1.stream.type">audio</property>
  <property name="meta.media.1.codec.sample_fmt">fltp</property>
  <property name="meta.media.1.codec.sample_rate">48000</property>
  <property name="meta.media.1.codec.channels">2</property>
  <property name="meta.media.1.codec.name">aac</property>
  <property name="meta.media.1.codec.long_name">AAC (Advanced Audio Coding)</property>
  <property name="meta.media.1.codec.bit_rate">0</property>
  <property name="meta.attr.1.stream.DURATION.markup">00:00:00.362000000</property>
  <property name="meta.attr.ENCODER.markup">Lavf61.7.100</property>
  <property name="seekable">1</property>
  <property name="meta.media.sample_aspect_num">1</property>
  <property name="meta.media.sample_aspect_den">1</property>
  <property name="aspect_ratio">1</property>
  <property name="format">3</property>
  <property name="kdenlive:clipname"/>
  <property name="meta.media.frame_rate_num">60</property>
  <property name="meta.media.frame_rate_den">1</property>
  <property name="meta.media.colorspace">709</property>
  <property name="meta.media.color_trc">1</property>
  <property name="meta.media.has_b_frames">0</property>
  <property name="meta.media.width">1920</property>
  <property name="meta.media.height">1080</property>
  <property name="meta.media.color_range">mpeg</property>
  <property name="meta.media.top_field_first">0</property>
  <property name="meta.media.progressive">1</property>
  <property name="kdenlive:clip_type">0</property>
  <property name="kdenlive:folderid">658</property>
  <property name="kdenlive:id">660</property>
  <property name="kdenlive:file_size">29962</property>
  <property name="kdenlive:file_hash">cc209f8aed207777dea31d7203e37d5e</property>
  <property name="kdenlive:audio_max1">174</property>
 </producer>
 <producer id="producer609" in="00:00:00.000" out="00:00:01.400">
  <property name="length">85</property>
  <property name="eof">pause</property>
  <property name="resource">/home/federico/Nextcloud/Kden/EditingUT/Video/TVStatic_Glitch/tv static  - bzz.mkv</property>
  <property name="audio_index">1</property>
  <property name="video_index">0</property>
  <property name="mute_on_pause">0</property>
  <property name="mlt_service">avformat-novalidate</property>
  <property name="meta.media.nb_streams">2</property>
  <property name="meta.media.0.stream.type">video</property>
  <property name="meta.media.0.stream.frame_rate">29.97</property>
  <property name="meta.media.0.stream.sample_aspect_ratio">1</property>
  <property name="meta.media.0.codec.width">1920</property>
  <property name="meta.media.0.codec.height">1080</property>
  <property name="meta.media.0.codec.rotate">0</property>
  <property name="meta.media.0.codec.pix_fmt">yuv420p</property>
  <property name="meta.media.0.codec.sample_aspect_ratio">1</property>
  <property name="meta.media.0.codec.colorspace">709</property>
  <property name="meta.media.0.codec.color_trc">1</property>
  <property name="meta.media.0.codec.name">h264</property>
  <property name="meta.media.0.codec.long_name">H.264 / AVC / MPEG-4 AVC / MPEG-4 part 10</property>
  <property name="meta.media.0.codec.bit_rate">0</property>
  <property name="meta.attr.0.stream.HANDLER_NAME.markup">ISO Media file produced by Google Inc.</property>
  <property name="meta.attr.0.stream.VENDOR_ID.markup">[0][0][0][0]</property>
  <property name="meta.attr.0.stream.ENCODER.markup">Lavc60.31.102 libx264</property>
  <property name="meta.attr.0.stream.DURATION.markup">00:00:01.371000000</property>
  <property name="meta.media.1.stream.type">audio</property>
  <property name="meta.media.1.codec.sample_fmt">fltp</property>
  <property name="meta.media.1.codec.sample_rate">44100</property>
  <property name="meta.media.1.codec.channels">2</property>
  <property name="meta.media.1.codec.name">vorbis</property>
  <property name="meta.media.1.codec.long_name">Vorbis</property>
  <property name="meta.media.1.codec.bit_rate">0</property>
  <property name="meta.attr.1.stream.language.markup">eng</property>
  <property name="meta.attr.1.stream.HANDLER_NAME.markup">ISO Media file produced by Google Inc.</property>
  <property name="meta.attr.1.stream.VENDOR_ID.markup">[0][0][0][0]</property>
  <property name="meta.attr.1.stream.ENCODER.markup">Lavc60.31.102 libvorbis</property>
  <property name="meta.attr.1.stream.DURATION.markup">00:00:01.420000000</property>
  <property name="meta.attr.COMPATIBLE_BRANDS.markup">isomiso2avc1mp41</property>
  <property name="meta.attr.MAJOR_BRAND.markup">isom</property>
  <property name="meta.attr.MINOR_VERSION.markup">512</property>
  <property name="meta.attr.ENCODER.markup">Lavf60.16.100</property>
  <property name="seekable">1</property>
  <property name="meta.media.sample_aspect_num">1</property>
  <property name="meta.media.sample_aspect_den">1</property>
  <property name="aspect_ratio">1</property>
  <property name="format">3</property>
  <property name="kdenlive:clipname"/>
  <property name="meta.media.frame_rate_num">30000</property>
  <property name="meta.media.frame_rate_den">1001</property>
  <property name="meta.media.colorspace">709</property>
  <property name="meta.media.color_trc">1</property>
  <property name="meta.media.has_b_frames">2</property>
  <property name="meta.media.width">1920</property>
  <property name="meta.media.height">1080</property>
  <property name="meta.media.color_range">mpeg</property>
  <property name="meta.media.top_field_first">0</property>
  <property name="meta.media.progressive">1</property>
  <property name="kdenlive:clip_type">0</property>
  <property name="kdenlive:folderid">658</property>
  <property name="kdenlive:id">661</property>
  <property name="kdenlive:file_size">1464752</property>
  <property name="kdenlive:file_hash">f781446c92f6fa263f3bc8047180fe28</property>
  <property name="kdenlive:audio_max1">147</property>
 </producer>
 <producer id="producer614" in="00:00:00.000" out="00:00:00.617">
  <property name="length">38</property>
  <property name="eof">pause</property>
  <property name="resource">/home/federico/Nextcloud/Kden/EditingUT/Video/TVStatic_Glitch/tv static.mkv</property>
  <property name="audio_index">1</property>
  <property name="video_index">0</property>
  <property name="mute_on_pause">0</property>
  <property name="mlt_service">avformat-novalidate</property>
  <property name="meta.media.nb_streams">2</property>
  <property name="meta.media.0.stream.type">video</property>
  <property name="meta.media.0.stream.frame_rate">60</property>
  <property name="meta.media.0.stream.sample_aspect_ratio">1</property>
  <property name="meta.media.0.codec.width">1920</property>
  <property name="meta.media.0.codec.height">1080</property>
  <property name="meta.media.0.codec.rotate">0</property>
  <property name="meta.media.0.codec.pix_fmt">yuv420p</property>
  <property name="meta.media.0.codec.sample_aspect_ratio">1</property>
  <property name="meta.media.0.codec.colorspace">709</property>
  <property name="meta.media.0.codec.color_trc">1</property>
  <property name="meta.media.0.codec.name">h264</property>
  <property name="meta.media.0.codec.long_name">H.264 / AVC / MPEG-4 AVC / MPEG-4 part 10</property>
  <property name="meta.media.0.codec.bit_rate">0</property>
  <property name="meta.attr.0.stream.DURATION.markup">00:00:00.638000000</property>
  <property name="meta.media.1.stream.type">audio</property>
  <property name="meta.media.1.codec.sample_fmt">fltp</property>
  <property name="meta.media.1.codec.sample_rate">48000</property>
  <property name="meta.media.1.codec.channels">2</property>
  <property name="meta.media.1.codec.name">aac</property>
  <property name="meta.media.1.codec.long_name">AAC (Advanced Audio Coding)</property>
  <property name="meta.media.1.codec.bit_rate">0</property>
  <property name="meta.attr.1.stream.DURATION.markup">00:00:00.639000000</property>
  <property name="meta.attr.ENCODER.markup">Lavf59.16.100</property>
  <property name="seekable">1</property>
  <property name="meta.media.sample_aspect_num">1</property>
  <property name="meta.media.sample_aspect_den">1</property>
  <property name="aspect_ratio">1</property>
  <property name="format">3</property>
  <property name="kdenlive:clipname"/>
  <property name="meta.media.frame_rate_num">60</property>
  <property name="meta.media.frame_rate_den">1</property>
  <property name="meta.media.colorspace">709</property>
  <property name="meta.media.color_trc">1</property>
  <property name="meta.media.has_b_frames">0</property>
  <property name="meta.media.width">1920</property>
  <property name="meta.media.height">1080</property>
  <property name="meta.media.color_range">mpeg</property>
  <property name="meta.media.top_field_first">0</property>
  <property name="meta.media.progressive">1</property>
  <property name="kdenlive:clip_type">0</property>
  <property name="kdenlive:folderid">658</property>
  <property name="kdenlive:id">662</property>
  <property name="kdenlive:file_size">2536536</property>
  <property name="kdenlive:file_hash">9086fa1f529b204106a5c3dfc482ea00</property>
  <property name="kdenlive:audio_max1">151</property>
 </producer>
 <producer id="producer608" in="00:00:00.000" out="00:00:04.183">
  <property name="length">252</property>
  <property name="eof">pause</property>
  <property name="resource">/home/federico/Nextcloud/Kden/EditingUT/Video/Yotobi/yotobi - non ho capito.mkv</property>
  <property name="audio_index">1</property>
  <property name="video_index">0</property>
  <property name="mute_on_pause">0</property>
  <property name="mlt_service">avformat-novalidate</property>
  <property name="meta.media.nb_streams">2</property>
  <property name="meta.media.0.stream.type">video</property>
  <property name="meta.media.0.stream.frame_rate">23.976</property>
  <property name="meta.media.0.stream.sample_aspect_ratio">1</property>
  <property name="meta.media.0.codec.width">640</property>
  <property name="meta.media.0.codec.height">360</property>
  <property name="meta.media.0.codec.rotate">0</property>
  <property name="meta.media.0.codec.pix_fmt">yuv420p</property>
  <property name="meta.media.0.codec.sample_aspect_ratio">1</property>
  <property name="meta.media.0.codec.colorspace">601</property>
  <property name="meta.media.0.codec.name">h264</property>
  <property name="meta.media.0.codec.long_name">H.264 / AVC / MPEG-4 AVC / MPEG-4 part 10</property>
  <property name="meta.media.0.codec.bit_rate">0</property>
  <property name="meta.attr.0.stream.HANDLER_NAME.markup">VideoHandler</property>
  <property name="meta.attr.0.stream.VENDOR_ID.markup">[0][0][0][0]</property>
  <property name="meta.attr.0.stream.ENCODER.markup">Lavc60.31.102 libx264</property>
  <property name="meta.attr.0.stream.DURATION.markup">00:00:04.132000000</property>
  <property name="meta.media.1.stream.type">audio</property>
  <property name="meta.media.1.codec.sample_fmt">fltp</property>
  <property name="meta.media.1.codec.sample_rate">44100</property>
  <property name="meta.media.1.codec.channels">2</property>
  <property name="meta.media.1.codec.name">vorbis</property>
  <property name="meta.media.1.codec.long_name">Vorbis</property>
  <property name="meta.media.1.codec.bit_rate">0</property>
  <property name="meta.attr.1.stream.HANDLER_NAME.markup">SoundHandler</property>
  <property name="meta.attr.1.stream.VENDOR_ID.markup">[0][0][0][0]</property>
  <property name="meta.attr.1.stream.ENCODER.markup">Lavc60.31.102 libvorbis</property>
  <property name="meta.attr.1.stream.DURATION.markup">00:00:04.206000000</property>
  <property name="meta.attr.COMPATIBLE_BRANDS.markup">isomiso2avc1mp41</property>
  <property name="meta.attr.MAJOR_BRAND.markup">isom</property>
  <property name="meta.attr.MINOR_VERSION.markup">512</property>
  <property name="meta.attr.ENCODER.markup">Lavf60.16.100</property>
  <property name="seekable">1</property>
  <property name="meta.media.sample_aspect_num">1</property>
  <property name="meta.media.sample_aspect_den">1</property>
  <property name="aspect_ratio">1</property>
  <property name="format">3</property>
  <property name="kdenlive:clipname"/>
  <property name="meta.media.frame_rate_num">24000</property>
  <property name="meta.media.frame_rate_den">1001</property>
  <property name="meta.media.colorspace">601</property>
  <property name="meta.media.color_trc">2</property>
  <property name="meta.media.has_b_frames">2</property>
  <property name="meta.media.width">640</property>
  <property name="meta.media.height">360</property>
  <property name="meta.media.color_range">mpeg</property>
  <property name="meta.media.top_field_first">0</property>
  <property name="meta.media.progressive">1</property>
  <property name="kdenlive:clip_type">0</property>
  <property name="kdenlive:folderid">663</property>
  <property name="kdenlive:id">664</property>
  <property name="kdenlive:file_size">272932</property>
  <property name="kdenlive:file_hash">4f905498baa12e32d947779cfd2e3526</property>
  <property name="kdenlive:audio_max1">212</property>
 </producer>
 <producer id="producer611" in="00:00:00.000" out="00:00:03.067">
  <property name="length">185</property>
  <property name="eof">pause</property>
  <property name="resource">/home/federico/Nextcloud/Kden/EditingUT/Video/Yotobi/yotobi faccia face meme suspense scary preoccupat.mkv</property>
  <property name="audio_index">1</property>
  <property name="video_index">0</property>
  <property name="mute_on_pause">0</property>
  <property name="mlt_service">avformat-novalidate</property>
  <property name="meta.media.nb_streams">2</property>
  <property name="meta.media.0.stream.type">video</property>
  <property name="meta.media.0.stream.frame_rate">60</property>
  <property name="meta.media.0.stream.sample_aspect_ratio">1</property>
  <property name="meta.media.0.codec.width">1920</property>
  <property name="meta.media.0.codec.height">1080</property>
  <property name="meta.media.0.codec.rotate">0</property>
  <property name="meta.media.0.codec.pix_fmt">yuv420p</property>
  <property name="meta.media.0.codec.sample_aspect_ratio">1</property>
  <property name="meta.media.0.codec.colorspace">709</property>
  <property name="meta.media.0.codec.color_trc">1</property>
  <property name="meta.media.0.codec.name">h264</property>
  <property name="meta.media.0.codec.long_name">H.264 / AVC / MPEG-4 AVC / MPEG-4 part 10</property>
  <property name="meta.media.0.codec.bit_rate">0</property>
  <property name="meta.attr.0.stream.HANDLER_NAME.markup">VideoHandler</property>
  <property name="meta.attr.0.stream.VENDOR_ID.markup">[0][0][0][0]</property>
  <property name="meta.attr.0.stream.ENCODER.markup">Lavc60.31.102 libx264</property>
  <property name="meta.attr.0.stream.DURATION.markup">00:00:03.087000000</property>
  <property name="meta.media.1.stream.type">audio</property>
  <property name="meta.media.1.codec.sample_fmt">fltp</property>
  <property name="meta.media.1.codec.sample_rate">48000</property>
  <property name="meta.media.1.codec.channels">2</property>
  <property name="meta.media.1.codec.name">vorbis</property>
  <property name="meta.media.1.codec.long_name">Vorbis</property>
  <property name="meta.media.1.codec.bit_rate">0</property>
  <property name="meta.attr.1.stream.HANDLER_NAME.markup">SoundHandler</property>
  <property name="meta.attr.1.stream.VENDOR_ID.markup">[0][0][0][0]</property>
  <property name="meta.attr.1.stream.ENCODER.markup">Lavc60.31.102 libvorbis</property>
  <property name="meta.attr.1.stream.DURATION.markup">00:00:03.054000000</property>
  <property name="meta.attr.COMPATIBLE_BRANDS.markup">isomiso2avc1mp41</property>
  <property name="meta.attr.MAJOR_BRAND.markup">isom</property>
  <property name="meta.attr.MINOR_VERSION.markup">512</property>
  <property name="meta.attr.ENCODER.markup">Lavf60.16.100</property>
  <property name="seekable">1</property>
  <property name="meta.media.sample_aspect_num">1</property>
  <property name="meta.media.sample_aspect_den">1</property>
  <property name="aspect_ratio">1</property>
  <property name="format">3</property>
  <property name="kdenlive:clipname"/>
  <property name="meta.media.frame_rate_num">60</property>
  <property name="meta.media.frame_rate_den">1</property>
  <property name="meta.media.colorspace">709</property>
  <property name="meta.media.color_trc">1</property>
  <property name="meta.media.has_b_frames">2</property>
  <property name="meta.media.width">1920</property>
  <property name="meta.media.height">1080</property>
  <property name="meta.media.color_range">mpeg</property>
  <property name="meta.media.top_field_first">0</property>
  <property name="meta.media.progressive">1</property>
  <property name="kdenlive:clip_type">0</property>
  <property name="kdenlive:folderid">663</property>
  <property name="kdenlive:id">665</property>
  <property name="kdenlive:file_size">445380</property>
  <property name="kdenlive:file_hash">b41239a30901bb35b136c8be8520bd1f</property>
  <property name="kdenlive:audio_max1">175</property>
 </producer>
 <producer id="producer612" in="00:00:00.000" out="00:00:07.583">
  <property name="length">456</property>
  <property name="eof">pause</property>
  <property name="resource">/home/federico/Nextcloud/Kden/EditingUT/Video/Yotobi/yotobi santo cielo.mkv</property>
  <property name="audio_index">1</property>
  <property name="video_index">0</property>
  <property name="mute_on_pause">0</property>
  <property name="mlt_service">avformat-novalidate</property>
  <property name="meta.media.nb_streams">2</property>
  <property name="meta.media.0.stream.type">video</property>
  <property name="meta.media.0.stream.frame_rate">60</property>
  <property name="meta.media.0.stream.sample_aspect_ratio">1</property>
  <property name="meta.media.0.codec.width">1920</property>
  <property name="meta.media.0.codec.height">1080</property>
  <property name="meta.media.0.codec.rotate">0</property>
  <property name="meta.media.0.codec.pix_fmt">yuv420p</property>
  <property name="meta.media.0.codec.sample_aspect_ratio">1</property>
  <property name="meta.media.0.codec.colorspace">709</property>
  <property name="meta.media.0.codec.color_trc">1</property>
  <property name="meta.media.0.codec.name">h264</property>
  <property name="meta.media.0.codec.long_name">H.264 / AVC / MPEG-4 AVC / MPEG-4 part 10</property>
  <property name="meta.media.0.codec.bit_rate">0</property>
  <property name="meta.attr.0.stream.HANDLER_NAME.markup">VideoHandler</property>
  <property name="meta.attr.0.stream.VENDOR_ID.markup">[0][0][0][0]</property>
  <property name="meta.attr.0.stream.ENCODER.markup">Lavc60.31.102 libx264</property>
  <property name="meta.attr.0.stream.DURATION.markup">00:00:07.603000000</property>
  <property name="meta.media.1.stream.type">audio</property>
  <property name="meta.media.1.codec.sample_fmt">fltp</property>
  <property name="meta.media.1.codec.sample_rate">48000</property>
  <property name="meta.media.1.codec.channels">2</property>
  <property name="meta.media.1.codec.name">vorbis</property>
  <property name="meta.media.1.codec.long_name">Vorbis</property>
  <property name="meta.media.1.codec.bit_rate">0</property>
  <property name="meta.attr.1.stream.HANDLER_NAME.markup">SoundHandler</property>
  <property name="meta.attr.1.stream.VENDOR_ID.markup">[0][0][0][0]</property>
  <property name="meta.attr.1.stream.ENCODER.markup">Lavc60.31.102 libvorbis</property>
  <property name="meta.attr.1.stream.DURATION.markup">00:00:07.577000000</property>
  <property name="meta.attr.COMPATIBLE_BRANDS.markup">isomiso2avc1mp41</property>
  <property name="meta.attr.MAJOR_BRAND.markup">isom</property>
  <property name="meta.attr.MINOR_VERSION.markup">512</property>
  <property name="meta.attr.ENCODER.markup">Lavf60.16.100</property>
  <property name="seekable">1</property>
  <property name="meta.media.sample_aspect_num">1</property>
  <property name="meta.media.sample_aspect_den">1</property>
  <property name="aspect_ratio">1</property>
  <property name="format">3</property>
  <property name="kdenlive:clipname"/>
  <property name="meta.media.frame_rate_num">60</property>
  <property name="meta.media.frame_rate_den">1</property>
  <property name="meta.media.colorspace">709</property>
  <property name="meta.media.color_trc">1</property>
  <property name="meta.media.has_b_frames">2</property>
  <property name="meta.media.width">1920</property>
  <property name="meta.media.height">1080</property>
  <property name="meta.media.color_range">mpeg</property>
  <property name="meta.media.top_field_first">0</property>
  <property name="meta.media.progressive">1</property>
  <property name="kdenlive:clip_type">0</property>
  <property name="kdenlive:folderid">663</property>
  <property name="kdenlive:id">666</property>
  <property name="kdenlive:file_size">1870883</property>
  <property name="kdenlive:file_hash">ccad470c88285dbd028ff39c3e029fc8</property>
  <property name="kdenlive:audio_max1">194</property>
 </producer>
 <producer id="producer610" in="00:00:00.000" out="00:00:10.417">
  <property name="length">626</property>
  <property name="eof">pause</property>
  <property name="resource">/home/federico/Nextcloud/Kden/EditingUT/Video/Yotobi/yotobi-peni,peni,peni...mkv</property>
  <property name="audio_index">1</property>
  <property name="video_index">0</property>
  <property name="mute_on_pause">0</property>
  <property name="mlt_service">avformat-novalidate</property>
  <property name="meta.media.nb_streams">2</property>
  <property name="meta.media.0.stream.type">video</property>
  <property name="meta.media.0.stream.frame_rate">25</property>
  <property name="meta.media.0.stream.sample_aspect_ratio">1</property>
  <property name="meta.media.0.codec.width">176</property>
  <property name="meta.media.0.codec.height">144</property>
  <property name="meta.media.0.codec.rotate">0</property>
  <property name="meta.media.0.codec.pix_fmt">yuv420p</property>
  <property name="meta.media.0.codec.sample_aspect_ratio">1</property>
  <property name="meta.media.0.codec.colorspace">601</property>
  <property name="meta.media.0.codec.name">h264</property>
  <property name="meta.media.0.codec.long_name">H.264 / AVC / MPEG-4 AVC / MPEG-4 part 10</property>
  <property name="meta.media.0.codec.bit_rate">0</property>
  <property name="meta.attr.0.stream.HANDLER_NAME.markup">VideoHandler</property>
  <property name="meta.attr.0.stream.VENDOR_ID.markup">[0][0][0][0]</property>
  <property name="meta.attr.0.stream.ENCODER.markup">Lavc60.31.102 libx264</property>
  <property name="meta.attr.0.stream.DURATION.markup">00:00:10.363000000</property>
  <property name="meta.media.1.stream.type">audio</property>
  <property name="meta.media.1.codec.sample_fmt">fltp</property>
  <property name="meta.media.1.codec.sample_rate">44100</property>
  <property name="meta.media.1.codec.channels">1</property>
  <property name="meta.media.1.codec.name">vorbis</property>
  <property name="meta.media.1.codec.long_name">Vorbis</property>
  <property name="meta.media.1.codec.bit_rate">0</property>
  <property name="meta.attr.1.stream.HANDLER_NAME.markup">SoundHandler</property>
  <property name="meta.attr.1.stream.VENDOR_ID.markup">[0][0][0][0]</property>
  <property name="meta.attr.1.stream.ENCODER.markup">Lavc60.31.102 libvorbis</property>
  <property name="meta.attr.1.stream.DURATION.markup">00:00:10.429000000</property>
  <property name="meta.attr.COMPATIBLE_BRANDS.markup">isomiso2avc1mp41</property>
  <property name="meta.attr.MAJOR_BRAND.markup">isom</property>
  <property name="meta.attr.MINOR_VERSION.markup">512</property>
  <property name="meta.attr.ENCODER.markup">Lavf60.16.100</property>
  <property name="seekable">1</property>
  <property name="meta.media.sample_aspect_num">1</property>
  <property name="meta.media.sample_aspect_den">1</property>
  <property name="aspect_ratio">1</property>
  <property name="format">3</property>
  <property name="kdenlive:clipname"/>
  <property name="meta.media.frame_rate_num">25</property>
  <property name="meta.media.frame_rate_den">1</property>
  <property name="meta.media.colorspace">601</property>
  <property name="meta.media.color_trc">2</property>
  <property name="meta.media.has_b_frames">2</property>
  <property name="meta.media.width">176</property>
  <property name="meta.media.height">144</property>
  <property name="meta.media.color_range">mpeg</property>
  <property name="meta.media.top_field_first">0</property>
  <property name="meta.media.progressive">1</property>
  <property name="kdenlive:clip_type">0</property>
  <property name="kdenlive:folderid">663</property>
  <property name="kdenlive:id">667</property>
  <property name="kdenlive:file_size">121208</property>
  <property name="kdenlive:file_hash">2fec3f9cc910253698824d9c6fde0a44</property>
  <property name="kdenlive:audio_max1">206</property>
 </producer>
 <producer id="producer613" in="00:00:00.000" out="00:00:02.350">
  <property name="length">142</property>
  <property name="eof">pause</property>
  <property name="resource">/home/federico/Nextcloud/Kden/EditingUT/Video/Yotobi/yotobi_come_fa_a_essere_legale.mkv</property>
  <property name="audio_index">1</property>
  <property name="video_index">0</property>
  <property name="mute_on_pause">0</property>
  <property name="mlt_service">avformat-novalidate</property>
  <property name="meta.media.nb_streams">2</property>
  <property name="meta.media.0.stream.type">video</property>
  <property name="meta.media.0.stream.frame_rate">60</property>
  <property name="meta.media.0.stream.sample_aspect_ratio">1</property>
  <property name="meta.media.0.codec.width">1920</property>
  <property name="meta.media.0.codec.height">1080</property>
  <property name="meta.media.0.codec.rotate">0</property>
  <property name="meta.media.0.codec.pix_fmt">yuv420p</property>
  <property name="meta.media.0.codec.sample_aspect_ratio">1</property>
  <property name="meta.media.0.codec.colorspace">709</property>
  <property name="meta.media.0.codec.color_trc">1</property>
  <property name="meta.media.0.codec.name">h264</property>
  <property name="meta.media.0.codec.long_name">H.264 / AVC / MPEG-4 AVC / MPEG-4 part 10</property>
  <property name="meta.media.0.codec.bit_rate">0</property>
  <property name="meta.attr.0.stream.HANDLER_NAME.markup">VideoHandler</property>
  <property name="meta.attr.0.stream.VENDOR_ID.markup">[0][0][0][0]</property>
  <property name="meta.attr.0.stream.ENCODER.markup">Lavc60.31.102 libx264</property>
  <property name="meta.attr.0.stream.DURATION.markup">00:00:02.353000000</property>
  <property name="meta.media.1.stream.type">audio</property>
  <property name="meta.media.1.codec.sample_fmt">fltp</property>
  <property name="meta.media.1.codec.sample_rate">48000</property>
  <property name="meta.media.1.codec.channels">2</property>
  <property name="meta.media.1.codec.name">vorbis</property>
  <property name="meta.media.1.codec.long_name">Vorbis</property>
  <property name="meta.media.1.codec.bit_rate">0</property>
  <property name="meta.attr.1.stream.HANDLER_NAME.markup">SoundHandler</property>
  <property name="meta.attr.1.stream.VENDOR_ID.markup">[0][0][0][0]</property>
  <property name="meta.attr.1.stream.ENCODER.markup">Lavc60.31.102 libvorbis</property>
  <property name="meta.attr.1.stream.DURATION.markup">00:00:02.371000000</property>
  <property name="meta.attr.COMPATIBLE_BRANDS.markup">isomiso2mp41</property>
  <property name="meta.attr.MAJOR_BRAND.markup">isom</property>
  <property name="meta.attr.MINOR_VERSION.markup">512</property>
  <property name="meta.attr.ENCODER.markup">Lavf60.16.100</property>
  <property name="seekable">1</property>
  <property name="meta.media.sample_aspect_num">1</property>
  <property name="meta.media.sample_aspect_den">1</property>
  <property name="aspect_ratio">1</property>
  <property name="format">3</property>
  <property name="kdenlive:clipname"/>
  <property name="meta.media.frame_rate_num">60</property>
  <property name="meta.media.frame_rate_den">1</property>
  <property name="meta.media.colorspace">709</property>
  <property name="meta.media.color_trc">1</property>
  <property name="meta.media.has_b_frames">2</property>
  <property name="meta.media.width">1920</property>
  <property name="meta.media.height">1080</property>
  <property name="meta.media.color_range">mpeg</property>
  <property name="meta.media.top_field_first">0</property>
  <property name="meta.media.progressive">1</property>
  <property name="kdenlive:clip_type">0</property>
  <property name="kdenlive:folderid">663</property>
  <property name="kdenlive:id">668</property>
  <property name="kdenlive:file_size">586146</property>
  <property name="kdenlive:file_hash">854aaa8ef7f706378145ff1580ab4bee</property>
  <property name="kdenlive:audio_max1">148</property>
 </producer>
 <producer id="producer615" in="00:00:00.000" out="00:00:05.700">
  <property name="length">343</property>
  <property name="eof">pause</property>
  <property name="resource">/home/federico/Nextcloud/Kden/EditingUT/MemeFresh/ds2_meme.mkv</property>
  <property name="audio_index">1</property>
  <property name="video_index">0</property>
  <property name="mute_on_pause">0</property>
  <property name="mlt_service">avformat-novalidate</property>
  <property name="meta.media.nb_streams">2</property>
  <property name="meta.media.0.stream.type">video</property>
  <property name="meta.media.0.stream.frame_rate">60</property>
  <property name="meta.media.0.stream.sample_aspect_ratio">1</property>
  <property name="meta.media.0.codec.width">1920</property>
  <property name="meta.media.0.codec.height">1080</property>
  <property name="meta.media.0.codec.rotate">0</property>
  <property name="meta.media.0.codec.pix_fmt">yuv420p</property>
  <property name="meta.media.0.codec.sample_aspect_ratio">1</property>
  <property name="meta.media.0.codec.colorspace">709</property>
  <property name="meta.media.0.codec.color_trc">1</property>
  <property name="meta.media.0.codec.name">h264</property>
  <property name="meta.media.0.codec.long_name">H.264 / AVC / MPEG-4 AVC / MPEG-4 part 10</property>
  <property name="meta.media.0.codec.bit_rate">0</property>
  <property name="meta.attr.0.stream.DURATION.markup">00:00:05.705000000</property>
  <property name="meta.media.1.stream.type">audio</property>
  <property name="meta.media.1.codec.sample_fmt">fltp</property>
  <property name="meta.media.1.codec.sample_rate">48000</property>
  <property name="meta.media.1.codec.channels">2</property>
  <property name="meta.media.1.codec.name">aac</property>
  <property name="meta.media.1.codec.long_name">AAC (Advanced Audio Coding)</property>
  <property name="meta.media.1.codec.bit_rate">0</property>
  <property name="meta.attr.1.stream.DURATION.markup">00:00:05.717000000</property>
  <property name="meta.attr.ENCODER.markup">Lavf59.16.100</property>
  <property name="seekable">1</property>
  <property name="meta.media.sample_aspect_num">1</property>
  <property name="meta.media.sample_aspect_den">1</property>
  <property name="aspect_ratio">1</property>
  <property name="format">3</property>
  <property name="kdenlive:clipname"/>
  <property name="meta.media.frame_rate_num">60</property>
  <property name="meta.media.frame_rate_den">1</property>
  <property name="meta.media.colorspace">709</property>
  <property name="meta.media.color_trc">1</property>
  <property name="meta.media.has_b_frames">0</property>
  <property name="meta.media.width">1920</property>
  <property name="meta.media.height">1080</property>
  <property name="meta.media.color_range">mpeg</property>
  <property name="meta.media.top_field_first">0</property>
  <property name="meta.media.progressive">1</property>
  <property name="kdenlive:clip_type">0</property>
  <property name="kdenlive:folderid">31</property>
  <property name="kdenlive:id">671</property>
  <property name="kdenlive:file_size">6041318</property>
  <property name="kdenlive:file_hash">ece530c65b9f0b7077db86be936353a3</property>
  <property name="kdenlive:audio_max1">196</property>
 </producer>
 <producer id="producer616" in="00:00:00.000" out="00:00:01.650">
  <property name="length">100</property>
  <property name="eof">pause</property>
  <property name="resource">/home/federico/Nextcloud/Kden/EditingUT/Sound/Games/Dry Bones Collapsing.wav</property>
  <property name="meta.media.nb_streams">1</property>
  <property name="meta.media.0.stream.type">audio</property>
  <property name="meta.media.0.codec.sample_fmt">s16</property>
  <property name="meta.media.0.codec.sample_rate">44100</property>
  <property name="meta.media.0.codec.channels">2</property>
  <property name="meta.media.0.codec.name">pcm_s16le</property>
  <property name="meta.media.0.codec.long_name">PCM signed 16-bit little-endian</property>
  <property name="meta.media.0.codec.bit_rate">1411200</property>
  <property name="meta.attr.encoder.markup">Lavf60.16.100</property>
  <property name="seekable">1</property>
  <property name="audio_index">0</property>
  <property name="video_index">-1</property>
  <property name="mute_on_pause">1</property>
  <property name="mlt_service">avformat</property>
  <property name="kdenlive:clipname"/>
  <property name="kdenlive:clip_type">1</property>
  <property name="kdenlive:folderid">256</property>
  <property name="kdenlive:id">672</property>
  <property name="kdenlive:file_size">294990</property>
  <property name="kdenlive:file_hash">5634019f6fc0e0ffe161dc5391019b60</property>
  <property name="kdenlive:audio_max0">199</property>
 </producer>
 <producer id="producer617" in="00:00:00.000" out="00:00:01.883">
  <property name="length">114</property>
  <property name="eof">pause</property>
  <property name="resource">/home/federico/Nextcloud/Kden/EditingUT/Sound/Games/Lego Break  Fall Apart.wav</property>
  <property name="meta.media.nb_streams">1</property>
  <property name="meta.media.0.stream.type">audio</property>
  <property name="meta.media.0.codec.sample_fmt">s16</property>
  <property name="meta.media.0.codec.sample_rate">44100</property>
  <property name="meta.media.0.codec.channels">2</property>
  <property name="meta.media.0.codec.name">pcm_s16le</property>
  <property name="meta.media.0.codec.long_name">PCM signed 16-bit little-endian</property>
  <property name="meta.media.0.codec.bit_rate">1411200</property>
  <property name="meta.attr.artist.markup">Gaming Sound FX</property>
  <property name="meta.attr.comment.markup">https://www.youtube.com/watch?v=8Z0JhcWURDY</property>
  <property name="meta.attr.date.markup">20220425</property>
  <property name="meta.attr.title.markup">Lego Break / Fall Apart - Sound Effect (HD)</property>
  <property name="meta.attr.encoder.markup">Lavf60.16.100</property>
  <property name="seekable">1</property>
  <property name="audio_index">0</property>
  <property name="video_index">-1</property>
  <property name="mute_on_pause">1</property>
  <property name="mlt_service">avformat</property>
  <property name="kdenlive:clipname"/>
  <property name="kdenlive:clip_type">1</property>
  <property name="kdenlive:folderid">256</property>
  <property name="kdenlive:id">673</property>
  <property name="kdenlive:file_size">336096</property>
  <property name="kdenlive:file_hash">ea3714e1ba6c7b2a41c18b99b25d3f88</property>
  <property name="kdenlive:audio_max0">163</property>
 </producer>
 <producer id="producer618" in="00:00:00.000" out="00:00:05.417">
  <property name="length">326</property>
  <property name="eof">pause</property>
  <property name="resource">/home/federico/Nextcloud/Kden/EditingUT/Sound/fast Clock Ticking .wav</property>
  <property name="meta.media.nb_streams">1</property>
  <property name="meta.media.0.stream.type">audio</property>
  <property name="meta.media.0.codec.sample_fmt">s16</property>
  <property name="meta.media.0.codec.sample_rate">44100</property>
  <property name="meta.media.0.codec.channels">2</property>
  <property name="meta.media.0.codec.name">pcm_s16le</property>
  <property name="meta.media.0.codec.long_name">PCM signed 16-bit little-endian</property>
  <property name="meta.media.0.codec.bit_rate">1411200</property>
  <property name="meta.attr.artist.markup">YTSFX</property>
  <property name="meta.attr.comment.markup">https://www.youtube.com/watch?v=o5jaeEUbpFc</property>
  <property name="meta.attr.date.markup">20230119</property>
  <property name="meta.attr.title.markup">Clock Ticking Sound Effect</property>
  <property name="meta.attr.encoder.markup">Lavf60.16.100</property>
  <property name="seekable">1</property>
  <property name="audio_index">0</property>
  <property name="video_index">-1</property>
  <property name="mute_on_pause">1</property>
  <property name="mlt_service">avformat</property>
  <property name="kdenlive:clipname"/>
  <property name="kdenlive:clip_type">1</property>
  <property name="kdenlive:folderid">256</property>
  <property name="kdenlive:id">674</property>
  <property name="kdenlive:file_size">958662</property>
  <property name="kdenlive:file_hash">c4b4a57dde90627020989b62438b9112</property>
  <property name="kdenlive:audio_max0">163</property>
 </producer>
 <producer id="producer619" in="00:00:00.000" out="00:00:08.650">
  <property name="length">520</property>
  <property name="eof">pause</property>
  <property name="resource">/home/federico/Nextcloud/Kden/EditingUT/Sound/Vacuum Cleaner.wav</property>
  <property name="meta.media.nb_streams">1</property>
  <property name="meta.media.0.stream.type">audio</property>
  <property name="meta.media.0.codec.sample_fmt">s16</property>
  <property name="meta.media.0.codec.sample_rate">44100</property>
  <property name="meta.media.0.codec.channels">2</property>
  <property name="meta.media.0.codec.name">pcm_s16le</property>
  <property name="meta.media.0.codec.long_name">PCM signed 16-bit little-endian</property>
  <property name="meta.media.0.codec.bit_rate">1411200</property>
  <property name="meta.attr.artist.markup">Sound Effect Database</property>
  <property name="meta.attr.comment.markup">https://www.youtube.com/watch?v=xysIN10DgL8</property>
  <property name="meta.attr.date.markup">20201011</property>
  <property name="meta.attr.title.markup">Vacuum Cleaner Sound Effect</property>
  <property name="meta.attr.encoder.markup">Lavf60.16.100</property>
  <property name="seekable">1</property>
  <property name="audio_index">0</property>
  <property name="video_index">-1</property>
  <property name="mute_on_pause">1</property>
  <property name="mlt_service">avformat</property>
  <property name="kdenlive:clipname"/>
  <property name="kdenlive:clip_type">1</property>
  <property name="kdenlive:folderid">256</property>
  <property name="kdenlive:id">675</property>
  <property name="kdenlive:file_size">1528022</property>
  <property name="kdenlive:file_hash">8f8b14e647afa398e74ce8a53620cd58</property>
  <property name="kdenlive:audio_max0">180</property>
 </producer>
 <producer id="producer620" in="00:00:00.000" out="00:00:07.450">
  <property name="length">448</property>
  <property name="eof">pause</property>
  <property name="resource">/home/federico/Nextcloud/Kden/EditingUT/Sound/EnglishMemes/gay reverb.wav</property>
  <property name="meta.media.nb_streams">1</property>
  <property name="meta.media.0.stream.type">audio</property>
  <property name="meta.media.0.codec.sample_fmt">s16</property>
  <property name="meta.media.0.codec.sample_rate">44100</property>
  <property name="meta.media.0.codec.channels">2</property>
  <property name="meta.media.0.codec.name">pcm_s16le</property>
  <property name="meta.media.0.codec.long_name">PCM signed 16-bit little-endian</property>
  <property name="meta.media.0.codec.bit_rate">1411200</property>
  <property name="meta.attr.encoder.markup">Lavf60.16.100</property>
  <property name="seekable">1</property>
  <property name="audio_index">0</property>
  <property name="video_index">-1</property>
  <property name="mute_on_pause">1</property>
  <property name="mlt_service">avformat</property>
  <property name="kdenlive:clipname"/>
  <property name="kdenlive:clip_type">1</property>
  <property name="kdenlive:folderid">216</property>
  <property name="kdenlive:id">676</property>
  <property name="kdenlive:file_size">1317966</property>
  <property name="kdenlive:file_hash">def017cd55100e574663e229c7fb26fa</property>
  <property name="kdenlive:audio_max0">196</property>
 </producer>
 <producer id="producer621" in="00:00:00.000" out="00:00:07.033">
  <property name="length">423</property>
  <property name="eof">pause</property>
  <property name="resource">/home/federico/Nextcloud/Kden/EditingUT/Sound/EnglishMemes/Will Smith Thats Hot Meme.wav</property>
  <property name="meta.media.nb_streams">1</property>
  <property name="meta.media.0.stream.type">audio</property>
  <property name="meta.media.0.codec.sample_fmt">s16</property>
  <property name="meta.media.0.codec.sample_rate">44100</property>
  <property name="meta.media.0.codec.channels">2</property>
  <property name="meta.media.0.codec.name">pcm_s16le</property>
  <property name="meta.media.0.codec.long_name">PCM signed 16-bit little-endian</property>
  <property name="meta.media.0.codec.bit_rate">1411200</property>
  <property name="meta.attr.encoder.markup">Lavf60.16.100</property>
  <property name="seekable">1</property>
  <property name="audio_index">0</property>
  <property name="video_index">-1</property>
  <property name="mute_on_pause">1</property>
  <property name="mlt_service">avformat</property>
  <property name="kdenlive:clipname"/>
  <property name="kdenlive:clip_type">1</property>
  <property name="kdenlive:folderid">216</property>
  <property name="kdenlive:id">677</property>
  <property name="kdenlive:file_size">1244238</property>
  <property name="kdenlive:file_hash">1496d11fb97dfd3178e1132277f70292</property>
  <property name="kdenlive:audio_max0">201</property>
 </producer>
 <producer id="producer622" in="00:00:00.000" out="00:00:25.067">
  <property name="length">1505</property>
  <property name="eof">pause</property>
  <property name="resource">/home/federico/Nextcloud/Kden/EditingUT/Video/Fraws/fraws -Parliamo di OH.mkv</property>
  <property name="audio_index">1</property>
  <property name="video_index">0</property>
  <property name="mute_on_pause">0</property>
  <property name="mlt_service">avformat-novalidate</property>
  <property name="meta.media.nb_streams">2</property>
  <property name="meta.media.0.stream.type">video</property>
  <property name="meta.media.0.stream.frame_rate">29.97</property>
  <property name="meta.media.0.stream.sample_aspect_ratio">1</property>
  <property name="meta.media.0.codec.width">1920</property>
  <property name="meta.media.0.codec.height">1080</property>
  <property name="meta.media.0.codec.rotate">0</property>
  <property name="meta.media.0.codec.pix_fmt">yuv420p</property>
  <property name="meta.media.0.codec.sample_aspect_ratio">1</property>
  <property name="meta.media.0.codec.colorspace">709</property>
  <property name="meta.media.0.codec.color_trc">1</property>
  <property name="meta.media.0.codec.name">h264</property>
  <property name="meta.media.0.codec.long_name">H.264 / AVC / MPEG-4 AVC / MPEG-4 part 10</property>
  <property name="meta.media.0.codec.bit_rate">0</property>
  <property name="meta.attr.0.stream.HANDLER_NAME.markup">ISO Media file produced by Google Inc.</property>
  <property name="meta.attr.0.stream.VENDOR_ID.markup">[0][0][0][0]</property>
  <property name="meta.attr.0.stream.ENCODER.markup">Lavc60.31.102 libx264</property>
  <property name="meta.attr.0.stream.DURATION.markup">00:00:25.028000000</property>
  <property name="meta.media.1.stream.type">audio</property>
  <property name="meta.media.1.codec.sample_fmt">fltp</property>
  <property name="meta.media.1.codec.sample_rate">44100</property>
  <property name="meta.media.1.codec.channels">2</property>
  <property name="meta.media.1.codec.name">vorbis</property>
  <property name="meta.media.1.codec.long_name">Vorbis</property>
  <property name="meta.media.1.codec.bit_rate">0</property>
  <property name="meta.attr.1.stream.language.markup">eng</property>
  <property name="meta.attr.1.stream.HANDLER_NAME.markup">ISO Media file produced by Google Inc.</property>
  <property name="meta.attr.1.stream.VENDOR_ID.markup">[0][0][0][0]</property>
  <property name="meta.attr.1.stream.ENCODER.markup">Lavc60.31.102 libvorbis</property>
  <property name="meta.attr.1.stream.DURATION.markup">00:00:25.080000000</property>
  <property name="meta.attr.COMPATIBLE_BRANDS.markup">isomiso2avc1mp41</property>
  <property name="meta.attr.MAJOR_BRAND.markup">isom</property>
  <property name="meta.attr.MINOR_VERSION.markup">512</property>
  <property name="meta.attr.ENCODER.markup">Lavf60.16.100</property>
  <property name="seekable">1</property>
  <property name="meta.media.sample_aspect_num">1</property>
  <property name="meta.media.sample_aspect_den">1</property>
  <property name="aspect_ratio">1</property>
  <property name="format">3</property>
  <property name="kdenlive:clipname"/>
  <property name="meta.media.frame_rate_num">30000</property>
  <property name="meta.media.frame_rate_den">1001</property>
  <property name="meta.media.colorspace">709</property>
  <property name="meta.media.color_trc">1</property>
  <property name="meta.media.has_b_frames">2</property>
  <property name="meta.media.width">1920</property>
  <property name="meta.media.height">1080</property>
  <property name="meta.media.color_range">mpeg</property>
  <property name="meta.media.top_field_first">0</property>
  <property name="meta.media.progressive">1</property>
  <property name="kdenlive:clip_type">0</property>
  <property name="kdenlive:folderid">450</property>
  <property name="kdenlive:id">678</property>
  <property name="kdenlive:file_size">11928511</property>
  <property name="kdenlive:file_hash">52225b8348ee5904eab3d310f856cb95</property>
  <property name="kdenlive:audio_max1">204</property>
 </producer>
 <producer id="producer646" in="00:00:00.000" out="02:55:15.583">
  <property name="length">630938</property>
  <property name="eof">pause</property>
  <property name="resource">/home/federico/Videos/Edit/Kden/ProxyRender/proxy/fe0d51893463e6190634030c49539660.mov</property>
  <property name="meta.media.nb_streams">2</property>
  <property name="meta.media.0.stream.type">video</property>
  <property name="meta.media.0.stream.frame_rate">59.9401</property>
  <property name="meta.media.0.stream.sample_aspect_ratio">1</property>
  <property name="meta.media.0.codec.width">640</property>
  <property name="meta.media.0.codec.height">360</property>
  <property name="meta.media.0.codec.rotate">0</property>
  <property name="meta.media.0.codec.pix_fmt">yuv420p</property>
  <property name="meta.media.0.codec.sample_aspect_ratio">1</property>
  <property name="meta.media.0.codec.colorspace">709</property>
  <property name="meta.media.0.codec.color_trc">1</property>
  <property name="meta.media.0.codec.name">h264</property>
  <property name="meta.media.0.codec.long_name">H.264 / AVC / MPEG-4 AVC / MPEG-4 part 10</property>
  <property name="meta.media.0.codec.bit_rate">5355740</property>
  <property name="meta.attr.0.stream.handler_name.markup">ISO Media file produced by Google Inc.</property>
  <property name="meta.attr.0.stream.vendor_id.markup">FFMP</property>
  <property name="meta.attr.0.stream.encoder.markup">Lavc59.18.100 libx264</property>
  <property name="meta.media.1.stream.type">audio</property>
  <property name="meta.media.1.codec.sample_fmt">fltp</property>
  <property name="meta.media.1.codec.sample_rate">48000</property>
  <property name="meta.media.1.codec.channels">2</property>
  <property name="meta.media.1.codec.name">aac</property>
  <property name="meta.media.1.codec.long_name">AAC (Advanced Audio Coding)</property>
  <property name="meta.media.1.codec.bit_rate">128722</property>
  <property name="meta.attr.1.stream.language.markup">eng</property>
  <property name="meta.attr.1.stream.handler_name.markup">SoundHandler</property>
  <property name="meta.attr.1.stream.vendor_id.markup">[0][0][0][0]</property>
  <property name="meta.attr.major_brand.markup">qt  </property>
  <property name="meta.attr.minor_version.markup">512</property>
  <property name="meta.attr.compatible_brands.markup">qt  </property>
  <property name="meta.attr.encoder.markup">Lavf59.16.100</property>
  <property name="seekable">1</property>
  <property name="meta.media.sample_aspect_num">1</property>
  <property name="meta.media.sample_aspect_den">1</property>
  <property name="aspect_ratio">1</property>
  <property name="format">3</property>
  <property name="audio_index">1</property>
  <property name="video_index">0</property>
  <property name="mute_on_pause">0</property>
  <property name="mlt_service">avformat-novalidate</property>
  <property name="kdenlive:clipname">1 - iudex hit - dark souls iii cinders  anima della sfida ii 1.mkv</property>
  <property name="kdenlive:clip_type">0</property>
  <property name="kdenlive:folderid">4</property>
  <property name="kdenlive:id">679</property>
  <property name="kdenlive:file_size">2828126290</property>
  <property name="kdenlive:file_hash">fe0d51893463e6190634030c49539660</property>
  <property name="kdenlive:audio_max1">212</property>
  <property name="kdenlive:proxy">/home/federico/Videos/Edit/Kden/ProxyRender/proxy/fe0d51893463e6190634030c49539660.mov</property>
  <property name="kdenlive:originalurl">/home/federico/Videos/Edit/Projects/DS3_cinders/5-Stream/1 - iudex hit - dark souls iii cinders  anima della sfida ii 1.mkv</property>
  <property name="kdenlive:original.mlt_type">producer</property>
  <property name="kdenlive:original.in">00:00:00.000</property>
  <property name="kdenlive:original.out">02:55:15.617</property>
  <property name="kdenlive:original.length">630938</property>
  <property name="kdenlive:original.eof">pause</property>
  <property name="kdenlive:original.resource">/home/federico/Videos/Edit/Projects/DS3_cinders/5-Stream/1 - iudex hit - dark souls iii cinders  anima della sfida ii 1.mkv</property>
  <property name="kdenlive:original.meta.media.nb_streams">2</property>
  <property name="kdenlive:original.meta.media.0.stream.type">video</property>
  <property name="kdenlive:original.meta.media.0.stream.frame_rate">59.9401</property>
  <property name="kdenlive:original.meta.media.0.stream.sample_aspect_ratio">0</property>
  <property name="kdenlive:original.meta.media.0.codec.width">1920</property>
  <property name="kdenlive:original.meta.media.0.codec.height">1080</property>
  <property name="kdenlive:original.meta.media.0.codec.rotate">0</property>
  <property name="kdenlive:original.meta.media.0.codec.pix_fmt">yuv420p</property>
  <property name="kdenlive:original.meta.media.0.codec.sample_aspect_ratio">0</property>
  <property name="kdenlive:original.meta.media.0.codec.colorspace">709</property>
  <property name="kdenlive:original.meta.media.0.codec.color_trc">1</property>
  <property name="kdenlive:original.meta.media.0.codec.name">libdav1d</property>
  <property name="kdenlive:original.meta.media.0.codec.long_name">dav1d AV1 decoder by VideoLAN</property>
  <property name="kdenlive:original.meta.media.0.codec.bit_rate">0</property>
  <property name="kdenlive:original.meta.attr.0.stream.HANDLER_NAME.markup">ISO Media file produced by Google Inc.</property>
  <property name="kdenlive:original.meta.attr.0.stream.VENDOR_ID.markup">[0][0][0][0]</property>
  <property name="kdenlive:original.meta.attr.0.stream.DURATION.markup">02:55:15.589000000</property>
  <property name="kdenlive:original.meta.media.1.stream.type">audio</property>
  <property name="kdenlive:original.meta.media.1.codec.sample_fmt">fltp</property>
  <property name="kdenlive:original.meta.media.1.codec.sample_rate">48000</property>
  <property name="kdenlive:original.meta.media.1.codec.channels">2</property>
  <property name="kdenlive:original.meta.media.1.codec.name">opus</property>
  <property name="kdenlive:original.meta.media.1.codec.long_name">Opus</property>
  <property name="kdenlive:original.meta.media.1.codec.bit_rate">0</property>
  <property name="kdenlive:original.meta.attr.1.stream.language.markup">eng</property>
  <property name="kdenlive:original.meta.attr.1.stream.DURATION.markup">02:55:15.628000000</property>
  <property name="kdenlive:original.meta.attr.COMPATIBLE_BRANDS.markup">iso6av01mp41</property>
  <property name="kdenlive:original.meta.attr.MAJOR_BRAND.markup">dash</property>
  <property name="kdenlive:original.meta.attr.MINOR_VERSION.markup">0</property>
  <property name="kdenlive:original.meta.attr.ENCODER.markup">Lavf60.16.100</property>
  <property name="kdenlive:original.seekable">1</property>
  <property name="kdenlive:original.width">1920</property>
  <property name="kdenlive:original.height">1080</property>
  <property name="kdenlive:original.meta.media.sample_aspect_num">1</property>
  <property name="kdenlive:original.meta.media.sample_aspect_den">1</property>
  <property name="kdenlive:original.aspect_ratio">1</property>
  <property name="kdenlive:original.format">3</property>
  <property name="kdenlive:original.audio_index">1</property>
  <property name="kdenlive:original.video_index">0</property>
  <property name="kdenlive:original.mute_on_pause">0</property>
  <property name="kdenlive:original.mlt_service">avformat-novalidate</property>
  <property name="kdenlive:original.meta.media.frame_rate_num">60000</property>
  <property name="kdenlive:original.meta.media.frame_rate_den">1001</property>
  <property name="kdenlive:original.meta.media.colorspace">709</property>
  <property name="kdenlive:original.meta.media.color_trc">1</property>
  <property name="kdenlive:original.meta.media.has_b_frames">0</property>
  <property name="kdenlive:original.meta.media.width">1920</property>
  <property name="kdenlive:original.meta.media.height">1080</property>
  <property name="kdenlive:original.meta.media.color_range">mpeg</property>
  <property name="kdenlive:original.meta.media.top_field_first">0</property>
  <property name="kdenlive:original.meta.media.progressive">1</property>
  <property name="kdenlive:original.kdenlive:clip_type">0</property>
  <property name="kdenlive:original.kdenlive:folderid">4</property>
  <property name="kdenlive:original.kdenlive:id">679</property>
  <property name="kdenlive:original.kdenlive:file_size">2828126290</property>
  <property name="kdenlive:original.kdenlive:file_hash">fe0d51893463e6190634030c49539660</property>
  <property name="kdenlive:original.kdenlive:audio_max1">212</property>
  <property name="kdenlive:original.backup">1</property>
  <property name="meta.media.frame_rate_num">19001</property>
  <property name="meta.media.frame_rate_den">317</property>
  <property name="meta.media.colorspace">709</property>
  <property name="meta.media.color_trc">1</property>
  <property name="meta.media.has_b_frames">0</property>
  <property name="meta.media.width">640</property>
  <property name="meta.media.height">360</property>
  <property name="meta.media.color_range">mpeg</property>
  <property name="meta.media.top_field_first">0</property>
  <property name="meta.media.progressive">1</property>
 </producer>
 <producer id="producer641" in="00:00:00.000" out="02:50:28.900">
  <property name="length">613736</property>
  <property name="eof">pause</property>
  <property name="resource">/home/federico/Videos/Edit/Kden/ProxyRender/proxy/f6918f2d79882f9391f2f765ac219be5.mov</property>
  <property name="meta.media.nb_streams">2</property>
  <property name="meta.media.0.stream.type">video</property>
  <property name="meta.media.0.stream.frame_rate">60</property>
  <property name="meta.media.0.stream.sample_aspect_ratio">1</property>
  <property name="meta.media.0.codec.width">640</property>
  <property name="meta.media.0.codec.height">360</property>
  <property name="meta.media.0.codec.rotate">0</property>
  <property name="meta.media.0.codec.pix_fmt">yuv420p</property>
  <property name="meta.media.0.codec.sample_aspect_ratio">1</property>
  <property name="meta.media.0.codec.colorspace">709</property>
  <property name="meta.media.0.codec.color_trc">1</property>
  <property name="meta.media.0.codec.name">h264</property>
  <property name="meta.media.0.codec.long_name">H.264 / AVC / MPEG-4 AVC / MPEG-4 part 10</property>
  <property name="meta.media.0.codec.bit_rate">5791824</property>
  <property name="meta.attr.0.stream.handler_name.markup">ISO Media file produced by Google Inc.</property>
  <property name="meta.attr.0.stream.vendor_id.markup">FFMP</property>
  <property name="meta.attr.0.stream.encoder.markup">Lavc59.18.100 libx264</property>
  <property name="meta.media.1.stream.type">audio</property>
  <property name="meta.media.1.codec.sample_fmt">fltp</property>
  <property name="meta.media.1.codec.sample_rate">48000</property>
  <property name="meta.media.1.codec.channels">2</property>
  <property name="meta.media.1.codec.name">aac</property>
  <property name="meta.media.1.codec.long_name">AAC (Advanced Audio Coding)</property>
  <property name="meta.media.1.codec.bit_rate">128878</property>
  <property name="meta.attr.1.stream.language.markup">eng</property>
  <property name="meta.attr.1.stream.handler_name.markup">SoundHandler</property>
  <property name="meta.attr.1.stream.vendor_id.markup">[0][0][0][0]</property>
  <property name="meta.attr.major_brand.markup">qt  </property>
  <property name="meta.attr.minor_version.markup">512</property>
  <property name="meta.attr.compatible_brands.markup">qt  </property>
  <property name="meta.attr.encoder.markup">Lavf59.16.100</property>
  <property name="seekable">1</property>
  <property name="meta.media.sample_aspect_num">1</property>
  <property name="meta.media.sample_aspect_den">1</property>
  <property name="aspect_ratio">1</property>
  <property name="format">3</property>
  <property name="audio_index">1</property>
  <property name="video_index">0</property>
  <property name="mute_on_pause">0</property>
  <property name="mlt_service">avformat-novalidate</property>
  <property name="kdenlive:clipname">2 - mod of chaos - dark souls iii cinders  anima della sfida ii 2.mkv</property>
  <property name="kdenlive:clip_type">0</property>
  <property name="kdenlive:folderid">4</property>
  <property name="kdenlive:id">680</property>
  <property name="kdenlive:file_size">3761357757</property>
  <property name="kdenlive:file_hash">f6918f2d79882f9391f2f765ac219be5</property>
  <property name="kdenlive:proxy">/home/federico/Videos/Edit/Kden/ProxyRender/proxy/f6918f2d79882f9391f2f765ac219be5.mov</property>
  <property name="kdenlive:originalurl">/home/federico/Videos/Edit/Projects/DS3_cinders/5-Stream/2 - mod of chaos - dark souls iii cinders  anima della sfida ii 2.mkv</property>
  <property name="kdenlive:original.mlt_type">producer</property>
  <property name="kdenlive:original.in">00:00:00.000</property>
  <property name="kdenlive:original.out">02:50:28.917</property>
  <property name="kdenlive:original.length">613736</property>
  <property name="kdenlive:original.eof">pause</property>
  <property name="kdenlive:original.resource">/home/federico/Videos/Edit/Projects/DS3_cinders/5-Stream/2 - mod of chaos - dark souls iii cinders  anima della sfida ii 2.mkv</property>
  <property name="kdenlive:original.meta.media.nb_streams">2</property>
  <property name="kdenlive:original.meta.media.0.stream.type">video</property>
  <property name="kdenlive:original.meta.media.0.stream.frame_rate">60</property>
  <property name="kdenlive:original.meta.media.0.stream.sample_aspect_ratio">0</property>
  <property name="kdenlive:original.meta.media.0.codec.width">1920</property>
  <property name="kdenlive:original.meta.media.0.codec.height">1080</property>
  <property name="kdenlive:original.meta.media.0.codec.rotate">0</property>
  <property name="kdenlive:original.meta.media.0.codec.pix_fmt">yuv420p</property>
  <property name="kdenlive:original.meta.media.0.codec.sample_aspect_ratio">0</property>
  <property name="kdenlive:original.meta.media.0.codec.colorspace">709</property>
  <property name="kdenlive:original.meta.media.0.codec.color_trc">1</property>
  <property name="kdenlive:original.meta.media.0.codec.name">libdav1d</property>
  <property name="kdenlive:original.meta.media.0.codec.long_name">dav1d AV1 decoder by VideoLAN</property>
  <property name="kdenlive:original.meta.media.0.codec.bit_rate">0</property>
  <property name="kdenlive:original.meta.attr.0.stream.HANDLER_NAME.markup">ISO Media file produced by Google Inc.</property>
  <property name="kdenlive:original.meta.attr.0.stream.VENDOR_ID.markup">[0][0][0][0]</property>
  <property name="kdenlive:original.meta.attr.0.stream.DURATION.markup">02:50:28.900000000</property>
  <property name="kdenlive:original.meta.media.1.stream.type">audio</property>
  <property name="kdenlive:original.meta.media.1.codec.sample_fmt">fltp</property>
  <property name="kdenlive:original.meta.media.1.codec.sample_rate">48000</property>
  <property name="kdenlive:original.meta.media.1.codec.channels">2</property>
  <property name="kdenlive:original.meta.media.1.codec.name">opus</property>
  <property name="kdenlive:original.meta.media.1.codec.long_name">Opus</property>
  <property name="kdenlive:original.meta.media.1.codec.bit_rate">0</property>
  <property name="kdenlive:original.meta.attr.1.stream.language.markup">eng</property>
  <property name="kdenlive:original.meta.attr.1.stream.DURATION.markup">02:50:28.928000000</property>
  <property name="kdenlive:original.meta.attr.COMPATIBLE_BRANDS.markup">iso6av01mp41</property>
  <property name="kdenlive:original.meta.attr.MAJOR_BRAND.markup">dash</property>
  <property name="kdenlive:original.meta.attr.MINOR_VERSION.markup">0</property>
  <property name="kdenlive:original.meta.attr.ENCODER.markup">Lavf60.16.100</property>
  <property name="kdenlive:original.seekable">1</property>
  <property name="kdenlive:original.width">1920</property>
  <property name="kdenlive:original.height">1080</property>
  <property name="kdenlive:original.meta.media.sample_aspect_num">1</property>
  <property name="kdenlive:original.meta.media.sample_aspect_den">1</property>
  <property name="kdenlive:original.aspect_ratio">1</property>
  <property name="kdenlive:original.format">3</property>
  <property name="kdenlive:original.audio_index">1</property>
  <property name="kdenlive:original.video_index">0</property>
  <property name="kdenlive:original.mute_on_pause">0</property>
  <property name="kdenlive:original.mlt_service">avformat-novalidate</property>
  <property name="kdenlive:original.meta.media.frame_rate_num">60</property>
  <property name="kdenlive:original.meta.media.frame_rate_den">1</property>
  <property name="kdenlive:original.meta.media.colorspace">709</property>
  <property name="kdenlive:original.meta.media.color_trc">1</property>
  <property name="kdenlive:original.meta.media.has_b_frames">0</property>
  <property name="kdenlive:original.meta.media.width">1920</property>
  <property name="kdenlive:original.meta.media.height">1080</property>
  <property name="kdenlive:original.meta.media.color_range">mpeg</property>
  <property name="kdenlive:original.meta.media.top_field_first">0</property>
  <property name="kdenlive:original.meta.media.progressive">1</property>
  <property name="kdenlive:original.kdenlive:clip_type">0</property>
  <property name="kdenlive:original.kdenlive:folderid">4</property>
  <property name="kdenlive:original.kdenlive:id">680</property>
  <property name="kdenlive:original.kdenlive:file_size">3761357757</property>
  <property name="kdenlive:original.kdenlive:file_hash">f6918f2d79882f9391f2f765ac219be5</property>
  <property name="kdenlive:original.backup">1</property>
  <property name="kdenlive:audio_max1">206</property>
  <property name="meta.media.frame_rate_num">60</property>
  <property name="meta.media.frame_rate_den">1</property>
  <property name="meta.media.colorspace">709</property>
  <property name="meta.media.color_trc">1</property>
  <property name="meta.media.has_b_frames">0</property>
  <property name="meta.media.width">640</property>
  <property name="meta.media.height">360</property>
  <property name="meta.media.color_range">mpeg</property>
  <property name="meta.media.top_field_first">0</property>
  <property name="meta.media.progressive">1</property>
 </producer>
 <producer id="producer632" in="00:00:00.000" out="02:11:32.800">
  <property name="length">473570</property>
  <property name="eof">pause</property>
  <property name="resource">/home/federico/Videos/Edit/Kden/ProxyRender/proxy/e297f2e0f7ae15f1f6c3e6c7a3b137c7.mov</property>
  <property name="audio_index">1</property>
  <property name="video_index">0</property>
  <property name="mute_on_pause">0</property>
  <property name="mlt_service">avformat-novalidate</property>
  <property name="meta.media.nb_streams">2</property>
  <property name="meta.media.0.stream.type">video</property>
  <property name="meta.media.0.stream.frame_rate">59.9401</property>
  <property name="meta.media.0.stream.sample_aspect_ratio">1</property>
  <property name="meta.media.0.codec.width">640</property>
  <property name="meta.media.0.codec.height">360</property>
  <property name="meta.media.0.codec.rotate">0</property>
  <property name="meta.media.0.codec.pix_fmt">yuv420p</property>
  <property name="meta.media.0.codec.sample_aspect_ratio">1</property>
  <property name="meta.media.0.codec.colorspace">709</property>
  <property name="meta.media.0.codec.color_trc">1</property>
  <property name="meta.media.0.codec.name">h264</property>
  <property name="meta.media.0.codec.long_name">H.264 / AVC / MPEG-4 AVC / MPEG-4 part 10</property>
  <property name="meta.media.0.codec.bit_rate">5565045</property>
  <property name="meta.attr.0.stream.handler_name.markup">ISO Media file produced by Google Inc.</property>
  <property name="meta.attr.0.stream.vendor_id.markup">FFMP</property>
  <property name="meta.attr.0.stream.encoder.markup">Lavc59.18.100 libx264</property>
  <property name="meta.media.1.stream.type">audio</property>
  <property name="meta.media.1.codec.sample_fmt">fltp</property>
  <property name="meta.media.1.codec.sample_rate">48000</property>
  <property name="meta.media.1.codec.channels">2</property>
  <property name="meta.media.1.codec.name">aac</property>
  <property name="meta.media.1.codec.long_name">AAC (Advanced Audio Coding)</property>
  <property name="meta.media.1.codec.bit_rate">128838</property>
  <property name="meta.attr.1.stream.language.markup">eng</property>
  <property name="meta.attr.1.stream.handler_name.markup">SoundHandler</property>
  <property name="meta.attr.1.stream.vendor_id.markup">[0][0][0][0]</property>
  <property name="meta.attr.major_brand.markup">qt  </property>
  <property name="meta.attr.minor_version.markup">512</property>
  <property name="meta.attr.compatible_brands.markup">qt  </property>
  <property name="meta.attr.encoder.markup">Lavf59.16.100</property>
  <property name="seekable">1</property>
  <property name="meta.media.sample_aspect_num">1</property>
  <property name="meta.media.sample_aspect_den">1</property>
  <property name="aspect_ratio">1</property>
  <property name="format">3</property>
  <property name="kdenlive:clipname">3 - dark souls iii cinders  anima della sfida ii 3.mkv</property>
  <property name="kdenlive:clip_type">0</property>
  <property name="kdenlive:folderid">4</property>
  <property name="kdenlive:id">681</property>
  <property name="kdenlive:file_size">3370680153</property>
  <property name="kdenlive:file_hash">e297f2e0f7ae15f1f6c3e6c7a3b137c7</property>
  <property name="kdenlive:proxy">/home/federico/Videos/Edit/Kden/ProxyRender/proxy/e297f2e0f7ae15f1f6c3e6c7a3b137c7.mov</property>
  <property name="kdenlive:originalurl">/home/federico/Videos/Edit/Projects/DS3_cinders/5-Stream/3 - dark souls iii cinders  anima della sfida ii 3.mkv</property>
  <property name="kdenlive:original.mlt_type">producer</property>
  <property name="kdenlive:original.in">00:00:00.000</property>
  <property name="kdenlive:original.out">02:11:32.817</property>
  <property name="kdenlive:original.length">473570</property>
  <property name="kdenlive:original.eof">pause</property>
  <property name="kdenlive:original.resource">/home/federico/Videos/Edit/Projects/DS3_cinders/5-Stream/3 - dark souls iii cinders  anima della sfida ii 3.mkv</property>
  <property name="kdenlive:original.meta.media.nb_streams">2</property>
  <property name="kdenlive:original.meta.media.0.stream.type">video</property>
  <property name="kdenlive:original.meta.media.0.stream.frame_rate">59.9401</property>
  <property name="kdenlive:original.meta.media.0.stream.sample_aspect_ratio">0</property>
  <property name="kdenlive:original.meta.media.0.codec.width">1920</property>
  <property name="kdenlive:original.meta.media.0.codec.height">1080</property>
  <property name="kdenlive:original.meta.media.0.codec.rotate">0</property>
  <property name="kdenlive:original.meta.media.0.codec.pix_fmt">yuv420p</property>
  <property name="kdenlive:original.meta.media.0.codec.sample_aspect_ratio">0</property>
  <property name="kdenlive:original.meta.media.0.codec.colorspace">709</property>
  <property name="kdenlive:original.meta.media.0.codec.color_trc">1</property>
  <property name="kdenlive:original.meta.media.0.codec.name">libdav1d</property>
  <property name="kdenlive:original.meta.media.0.codec.long_name">dav1d AV1 decoder by VideoLAN</property>
  <property name="kdenlive:original.meta.media.0.codec.bit_rate">0</property>
  <property name="kdenlive:original.meta.attr.0.stream.HANDLER_NAME.markup">ISO Media file produced by Google Inc.</property>
  <property name="kdenlive:original.meta.attr.0.stream.VENDOR_ID.markup">[0][0][0][0]</property>
  <property name="kdenlive:original.meta.attr.0.stream.DURATION.markup">02:11:32.802000000</property>
  <property name="kdenlive:original.meta.media.1.stream.type">audio</property>
  <property name="kdenlive:original.meta.media.1.codec.sample_fmt">fltp</property>
  <property name="kdenlive:original.meta.media.1.codec.sample_rate">48000</property>
  <property name="kdenlive:original.meta.media.1.codec.channels">2</property>
  <property name="kdenlive:original.meta.media.1.codec.name">opus</property>
  <property name="kdenlive:original.meta.media.1.codec.long_name">Opus</property>
  <property name="kdenlive:original.meta.media.1.codec.bit_rate">0</property>
  <property name="kdenlive:original.meta.attr.1.stream.language.markup">eng</property>
  <property name="kdenlive:original.meta.attr.1.stream.DURATION.markup">02:11:32.828000000</property>
  <property name="kdenlive:original.meta.attr.COMPATIBLE_BRANDS.markup">iso6av01mp41</property>
  <property name="kdenlive:original.meta.attr.MAJOR_BRAND.markup">dash</property>
  <property name="kdenlive:original.meta.attr.MINOR_VERSION.markup">0</property>
  <property name="kdenlive:original.meta.attr.ENCODER.markup">Lavf60.16.100</property>
  <property name="kdenlive:original.seekable">1</property>
  <property name="kdenlive:original.width">1920</property>
  <property name="kdenlive:original.height">1080</property>
  <property name="kdenlive:original.meta.media.sample_aspect_num">1</property>
  <property name="kdenlive:original.meta.media.sample_aspect_den">1</property>
  <property name="kdenlive:original.aspect_ratio">1</property>
  <property name="kdenlive:original.format">3</property>
  <property name="kdenlive:original.audio_index">1</property>
  <property name="kdenlive:original.video_index">0</property>
  <property name="kdenlive:original.mute_on_pause">0</property>
  <property name="kdenlive:original.mlt_service">avformat-novalidate</property>
  <property name="kdenlive:original.meta.media.frame_rate_num">60000</property>
  <property name="kdenlive:original.meta.media.frame_rate_den">1001</property>
  <property name="kdenlive:original.meta.media.colorspace">709</property>
  <property name="kdenlive:original.meta.media.color_trc">1</property>
  <property name="kdenlive:original.meta.media.has_b_frames">0</property>
  <property name="kdenlive:original.meta.media.width">1920</property>
  <property name="kdenlive:original.meta.media.height">1080</property>
  <property name="kdenlive:original.meta.media.color_range">mpeg</property>
  <property name="kdenlive:original.meta.media.top_field_first">0</property>
  <property name="kdenlive:original.meta.media.progressive">1</property>
  <property name="kdenlive:original.kdenlive:clip_type">0</property>
  <property name="kdenlive:original.kdenlive:folderid">4</property>
  <property name="kdenlive:original.kdenlive:id">681</property>
  <property name="kdenlive:original.kdenlive:file_size">3370680153</property>
  <property name="kdenlive:original.kdenlive:file_hash">e297f2e0f7ae15f1f6c3e6c7a3b137c7</property>
  <property name="kdenlive:original.backup">1</property>
  <property name="kdenlive:audio_max1">203</property>
  <property name="meta.media.frame_rate_num">19001</property>
  <property name="meta.media.frame_rate_den">317</property>
  <property name="meta.media.colorspace">709</property>
  <property name="meta.media.color_trc">1</property>
  <property name="meta.media.has_b_frames">0</property>
  <property name="meta.media.width">640</property>
  <property name="meta.media.height">360</property>
  <property name="meta.media.color_range">mpeg</property>
  <property name="meta.media.top_field_first">0</property>
  <property name="meta.media.progressive">1</property>
 </producer>
 <producer id="producer642" in="00:00:00.000" out="02:31:23.133">
  <property name="length">544990</property>
  <property name="eof">pause</property>
  <property name="resource">/home/federico/Videos/Edit/Kden/ProxyRender/proxy/ca27a9d972c9214920a1b80c39287441.mov</property>
  <property name="meta.media.nb_streams">2</property>
  <property name="meta.media.0.stream.type">video</property>
  <property name="meta.media.0.stream.frame_rate">60</property>
  <property name="meta.media.0.stream.sample_aspect_ratio">1</property>
  <property name="meta.media.0.codec.width">640</property>
  <property name="meta.media.0.codec.height">360</property>
  <property name="meta.media.0.codec.rotate">0</property>
  <property name="meta.media.0.codec.pix_fmt">yuv420p</property>
  <property name="meta.media.0.codec.sample_aspect_ratio">1</property>
  <property name="meta.media.0.codec.colorspace">709</property>
  <property name="meta.media.0.codec.color_trc">1</property>
  <property name="meta.media.0.codec.name">h264</property>
  <property name="meta.media.0.codec.long_name">H.264 / AVC / MPEG-4 AVC / MPEG-4 part 10</property>
  <property name="meta.media.0.codec.bit_rate">5391916</property>
  <property name="meta.attr.0.stream.language.markup">eng</property>
  <property name="meta.attr.0.stream.handler_name.markup">VideoHandler</property>
  <property name="meta.attr.0.stream.vendor_id.markup">FFMP</property>
  <property name="meta.attr.0.stream.encoder.markup">Lavc59.18.100 libx264</property>
  <property name="meta.media.1.stream.type">audio</property>
  <property name="meta.media.1.codec.sample_fmt">fltp</property>
  <property name="meta.media.1.codec.sample_rate">48000</property>
  <property name="meta.media.1.codec.channels">2</property>
  <property name="meta.media.1.codec.name">aac</property>
  <property name="meta.media.1.codec.long_name">AAC (Advanced Audio Coding)</property>
  <property name="meta.media.1.codec.bit_rate">129930</property>
  <property name="meta.attr.1.stream.language.markup">eng</property>
  <property name="meta.attr.1.stream.handler_name.markup">SoundHandler</property>
  <property name="meta.attr.1.stream.vendor_id.markup">[0][0][0][0]</property>
  <property name="meta.attr.major_brand.markup">qt  </property>
  <property name="meta.attr.minor_version.markup">512</property>
  <property name="meta.attr.compatible_brands.markup">qt  </property>
  <property name="meta.attr.encoder.markup">Lavf59.16.100</property>
  <property name="seekable">1</property>
  <property name="meta.media.sample_aspect_num">1</property>
  <property name="meta.media.sample_aspect_den">1</property>
  <property name="aspect_ratio">1</property>
  <property name="format">3</property>
  <property name="audio_index">1</property>
  <property name="video_index">0</property>
  <property name="mute_on_pause">0</property>
  <property name="mlt_service">avformat-novalidate</property>
  <property name="kdenlive:clipname">4 - sleep issue - dark souls iii cinders  anima della sfida ii 4.mkv</property>
  <property name="kdenlive:clip_type">0</property>
  <property name="kdenlive:folderid">4</property>
  <property name="kdenlive:id">682</property>
  <property name="kdenlive:file_size">3681493931</property>
  <property name="kdenlive:file_hash">ca27a9d972c9214920a1b80c39287441</property>
  <property name="kdenlive:proxy">/home/federico/Videos/Edit/Kden/ProxyRender/proxy/ca27a9d972c9214920a1b80c39287441.mov</property>
  <property name="kdenlive:originalurl">/home/federico/Videos/Edit/Projects/DS3_cinders/5-Stream/4 - sleep issue - dark souls iii cinders  anima della sfida ii 4.mkv</property>
  <property name="kdenlive:original.mlt_type">producer</property>
  <property name="kdenlive:original.in">00:00:00.000</property>
  <property name="kdenlive:original.out">02:31:23.150</property>
  <property name="kdenlive:original.length">544990</property>
  <property name="kdenlive:original.eof">pause</property>
  <property name="kdenlive:original.resource">/home/federico/Videos/Edit/Projects/DS3_cinders/5-Stream/4 - sleep issue - dark souls iii cinders  anima della sfida ii 4.mkv</property>
  <property name="kdenlive:original.meta.media.nb_streams">2</property>
  <property name="kdenlive:original.meta.media.0.stream.type">video</property>
  <property name="kdenlive:original.meta.media.0.stream.frame_rate">60</property>
  <property name="kdenlive:original.meta.media.0.stream.sample_aspect_ratio">1</property>
  <property name="kdenlive:original.meta.media.0.codec.width">1920</property>
  <property name="kdenlive:original.meta.media.0.codec.height">1080</property>
  <property name="kdenlive:original.meta.media.0.codec.rotate">0</property>
  <property name="kdenlive:original.meta.media.0.codec.pix_fmt">yuv420p</property>
  <property name="kdenlive:original.meta.media.0.codec.sample_aspect_ratio">0</property>
  <property name="kdenlive:original.meta.media.0.codec.colorspace">709</property>
  <property name="kdenlive:original.meta.media.0.codec.color_trc">1</property>
  <property name="kdenlive:original.meta.media.0.codec.name">vp9</property>
  <property name="kdenlive:original.meta.media.0.codec.long_name">Google VP9</property>
  <property name="kdenlive:original.meta.media.0.codec.bit_rate">0</property>
  <property name="kdenlive:original.meta.attr.0.stream.language.markup">eng</property>
  <property name="kdenlive:original.meta.attr.0.stream.DURATION.markup">02:31:23.116000000</property>
  <property name="kdenlive:original.meta.media.1.stream.type">audio</property>
  <property name="kdenlive:original.meta.media.1.codec.sample_fmt">fltp</property>
  <property name="kdenlive:original.meta.media.1.codec.sample_rate">48000</property>
  <property name="kdenlive:original.meta.media.1.codec.channels">2</property>
  <property name="kdenlive:original.meta.media.1.codec.name">opus</property>
  <property name="kdenlive:original.meta.media.1.codec.long_name">Opus</property>
  <property name="kdenlive:original.meta.media.1.codec.bit_rate">0</property>
  <property name="kdenlive:original.meta.attr.1.stream.language.markup">eng</property>
  <property name="kdenlive:original.meta.attr.1.stream.DURATION.markup">02:31:23.168000000</property>
  <property name="kdenlive:original.meta.attr.ENCODER.markup">Lavf60.16.100</property>
  <property name="kdenlive:original.seekable">1</property>
  <property name="kdenlive:original.width">1920</property>
  <property name="kdenlive:original.height">1080</property>
  <property name="kdenlive:original.meta.media.sample_aspect_num">1</property>
  <property name="kdenlive:original.meta.media.sample_aspect_den">1</property>
  <property name="kdenlive:original.aspect_ratio">1</property>
  <property name="kdenlive:original.format">3</property>
  <property name="kdenlive:original.audio_index">1</property>
  <property name="kdenlive:original.video_index">0</property>
  <property name="kdenlive:original.mute_on_pause">0</property>
  <property name="kdenlive:original.mlt_service">avformat-novalidate</property>
  <property name="kdenlive:original.meta.media.frame_rate_num">60</property>
  <property name="kdenlive:original.meta.media.frame_rate_den">1</property>
  <property name="kdenlive:original.meta.media.colorspace">709</property>
  <property name="kdenlive:original.meta.media.color_trc">1</property>
  <property name="kdenlive:original.meta.media.has_b_frames">0</property>
  <property name="kdenlive:original.meta.media.width">1920</property>
  <property name="kdenlive:original.meta.media.height">1080</property>
  <property name="kdenlive:original.meta.media.color_range">mpeg</property>
  <property name="kdenlive:original.meta.media.top_field_first">0</property>
  <property name="kdenlive:original.meta.media.progressive">1</property>
  <property name="kdenlive:original.kdenlive:clip_type">0</property>
  <property name="kdenlive:original.kdenlive:folderid">4</property>
  <property name="kdenlive:original.kdenlive:id">682</property>
  <property name="kdenlive:original.kdenlive:file_size">3681493931</property>
  <property name="kdenlive:original.kdenlive:file_hash">ca27a9d972c9214920a1b80c39287441</property>
  <property name="kdenlive:original.backup">1</property>
  <property name="kdenlive:audio_max1">205</property>
  <property name="meta.media.frame_rate_num">60</property>
  <property name="meta.media.frame_rate_den">1</property>
  <property name="meta.media.colorspace">709</property>
  <property name="meta.media.color_trc">1</property>
  <property name="meta.media.has_b_frames">0</property>
  <property name="meta.media.width">640</property>
  <property name="meta.media.height">360</property>
  <property name="meta.media.color_range">mpeg</property>
  <property name="meta.media.top_field_first">0</property>
  <property name="meta.media.progressive">1</property>
 </producer>
 <producer id="producer627" in="00:00:00.000" out="02:27:56.617">
  <property name="length">532598</property>
  <property name="eof">pause</property>
  <property name="resource">/home/federico/Videos/Edit/Kden/ProxyRender/proxy/fa2e21925daa2aa504e340903ed9d0c2.mov</property>
  <property name="audio_index">1</property>
  <property name="video_index">0</property>
  <property name="mute_on_pause">0</property>
  <property name="mlt_service">avformat-novalidate</property>
  <property name="meta.media.nb_streams">2</property>
  <property name="meta.media.0.stream.type">video</property>
  <property name="meta.media.0.stream.frame_rate">60</property>
  <property name="meta.media.0.stream.sample_aspect_ratio">1</property>
  <property name="meta.media.0.codec.width">640</property>
  <property name="meta.media.0.codec.height">360</property>
  <property name="meta.media.0.codec.rotate">0</property>
  <property name="meta.media.0.codec.pix_fmt">yuv420p</property>
  <property name="meta.media.0.codec.sample_aspect_ratio">1</property>
  <property name="meta.media.0.codec.colorspace">709</property>
  <property name="meta.media.0.codec.color_trc">1</property>
  <property name="meta.media.0.codec.name">h264</property>
  <property name="meta.media.0.codec.long_name">H.264 / AVC / MPEG-4 AVC / MPEG-4 part 10</property>
  <property name="meta.media.0.codec.bit_rate">5200999</property>
  <property name="meta.attr.0.stream.language.markup">eng</property>
  <property name="meta.attr.0.stream.DURATION.markup">02:27:56.599000000</property>
  <property name="meta.media.1.stream.type">audio</property>
  <property name="meta.media.1.codec.sample_fmt">fltp</property>
  <property name="meta.media.1.codec.sample_rate">48000</property>
  <property name="meta.media.1.codec.channels">2</property>
  <property name="meta.media.1.codec.name">aac</property>
  <property name="meta.media.1.codec.long_name">AAC (Advanced Audio Coding)</property>
  <property name="meta.media.1.codec.bit_rate">128316</property>
  <property name="meta.attr.1.stream.language.markup">eng</property>
  <property name="meta.attr.1.stream.DURATION.markup">02:27:56.628000000</property>
  <property name="meta.attr.ENCODER.markup">Lavf60.16.100</property>
  <property name="seekable">1</property>
  <property name="meta.media.sample_aspect_num">1</property>
  <property name="meta.media.sample_aspect_den">1</property>
  <property name="aspect_ratio">1</property>
  <property name="format">3</property>
  <property name="kdenlive:clipname"/>
  <property name="meta.media.frame_rate_num">60</property>
  <property name="meta.media.frame_rate_den">1</property>
  <property name="meta.media.colorspace">709</property>
  <property name="meta.media.color_trc">1</property>
  <property name="meta.media.has_b_frames">0</property>
  <property name="meta.media.width">640</property>
  <property name="meta.media.height">360</property>
  <property name="meta.media.color_range">mpeg</property>
  <property name="meta.media.top_field_first">0</property>
  <property name="meta.media.progressive">1</property>
  <property name="kdenlive:clip_type">0</property>
  <property name="kdenlive:folderid">4</property>
  <property name="kdenlive:id">683</property>
  <property name="kdenlive:file_size">3890870258</property>
  <property name="kdenlive:file_hash">fa2e21925daa2aa504e340903ed9d0c2</property>
  <property name="kdenlive:proxy">/home/federico/Videos/Edit/Kden/ProxyRender/proxy/fa2e21925daa2aa504e340903ed9d0c2.mov</property>
  <property name="kdenlive:originalurl">/home/federico/Videos/Edit/Projects/DS3_cinders/5-Stream/5 - difesa - dark souls iii cinders  anima della sfida ii 5.mkv</property>
  <property name="kdenlive:original.mlt_type">producer</property>
  <property name="kdenlive:original.in">00:00:00.000</property>
  <property name="kdenlive:original.out">02:27:56.617</property>
  <property name="kdenlive:original.length">532598</property>
  <property name="kdenlive:original.eof">pause</property>
  <property name="kdenlive:original.resource">/home/federico/Videos/Edit/Projects/DS3_cinders/5-Stream/5 - difesa - dark souls iii cinders  anima della sfida ii 5.mkv</property>
  <property name="kdenlive:original.meta.media.nb_streams">2</property>
  <property name="kdenlive:original.meta.media.0.stream.type">video</property>
  <property name="kdenlive:original.meta.media.0.stream.frame_rate">60</property>
  <property name="kdenlive:original.meta.media.0.stream.sample_aspect_ratio">1</property>
  <property name="kdenlive:original.meta.media.0.codec.width">1920</property>
  <property name="kdenlive:original.meta.media.0.codec.height">1080</property>
  <property name="kdenlive:original.meta.media.0.codec.rotate">0</property>
  <property name="kdenlive:original.meta.media.0.codec.pix_fmt">yuv420p</property>
  <property name="kdenlive:original.meta.media.0.codec.sample_aspect_ratio">0</property>
  <property name="kdenlive:original.meta.media.0.codec.colorspace">709</property>
  <property name="kdenlive:original.meta.media.0.codec.color_trc">1</property>
  <property name="kdenlive:original.meta.media.0.codec.name">vp9</property>
  <property name="kdenlive:original.meta.media.0.codec.long_name">Google VP9</property>
  <property name="kdenlive:original.meta.media.0.codec.bit_rate">0</property>
  <property name="kdenlive:original.meta.attr.0.stream.language.markup">eng</property>
  <property name="kdenlive:original.meta.attr.0.stream.DURATION.markup">02:27:56.599000000</property>
  <property name="kdenlive:original.meta.media.1.stream.type">audio</property>
  <property name="kdenlive:original.meta.media.1.codec.sample_fmt">fltp</property>
  <property name="kdenlive:original.meta.media.1.codec.sample_rate">48000</property>
  <property name="kdenlive:original.meta.media.1.codec.channels">2</property>
  <property name="kdenlive:original.meta.media.1.codec.name">opus</property>
  <property name="kdenlive:original.meta.media.1.codec.long_name">Opus</property>
  <property name="kdenlive:original.meta.media.1.codec.bit_rate">0</property>
  <property name="kdenlive:original.meta.attr.1.stream.language.markup">eng</property>
  <property name="kdenlive:original.meta.attr.1.stream.DURATION.markup">02:27:56.628000000</property>
  <property name="kdenlive:original.meta.attr.ENCODER.markup">Lavf60.16.100</property>
  <property name="kdenlive:original.seekable">1</property>
  <property name="kdenlive:original.width">1920</property>
  <property name="kdenlive:original.height">1080</property>
  <property name="kdenlive:original.meta.media.sample_aspect_num">1</property>
  <property name="kdenlive:original.meta.media.sample_aspect_den">1</property>
  <property name="kdenlive:original.aspect_ratio">1</property>
  <property name="kdenlive:original.format">3</property>
  <property name="kdenlive:original.audio_index">1</property>
  <property name="kdenlive:original.video_index">0</property>
  <property name="kdenlive:original.mute_on_pause">0</property>
  <property name="kdenlive:original.mlt_service">avformat-novalidate</property>
  <property name="kdenlive:original.meta.media.frame_rate_num">60</property>
  <property name="kdenlive:original.meta.media.frame_rate_den">1</property>
  <property name="kdenlive:original.meta.media.colorspace">709</property>
  <property name="kdenlive:original.meta.media.color_trc">1</property>
  <property name="kdenlive:original.meta.media.has_b_frames">0</property>
  <property name="kdenlive:original.meta.media.width">1920</property>
  <property name="kdenlive:original.meta.media.height">1080</property>
  <property name="kdenlive:original.meta.media.color_range">mpeg</property>
  <property name="kdenlive:original.meta.media.top_field_first">0</property>
  <property name="kdenlive:original.meta.media.progressive">1</property>
  <property name="kdenlive:original.kdenlive:clip_type">0</property>
  <property name="kdenlive:original.kdenlive:folderid">4</property>
  <property name="kdenlive:original.kdenlive:id">683</property>
  <property name="kdenlive:original.kdenlive:file_size">3890870258</property>
  <property name="kdenlive:original.kdenlive:file_hash">fa2e21925daa2aa504e340903ed9d0c2</property>
  <property name="kdenlive:original.backup">1</property>
  <property name="kdenlive:audio_max1">195</property>
  <property name="meta.attr.0.stream.handler_name.markup">VideoHandler</property>
  <property name="meta.attr.0.stream.vendor_id.markup">FFMP</property>
  <property name="meta.attr.0.stream.encoder.markup">Lavc59.18.100 libx264</property>
  <property name="meta.attr.1.stream.handler_name.markup">SoundHandler</property>
  <property name="meta.attr.1.stream.vendor_id.markup">[0][0][0][0]</property>
  <property name="meta.attr.major_brand.markup">qt  </property>
  <property name="meta.attr.minor_version.markup">512</property>
  <property name="meta.attr.compatible_brands.markup">qt  </property>
  <property name="meta.attr.encoder.markup">Lavf59.16.100</property>
 </producer>
 <producer id="producer643" in="00:00:00.000" out="02:38:45.867">
  <property name="length">571553</property>
  <property name="eof">pause</property>
  <property name="resource">/home/federico/Videos/Edit/Kden/ProxyRender/proxy/cf314eebe17b047f9605a52d59418270.mov</property>
  <property name="meta.media.nb_streams">2</property>
  <property name="meta.media.0.stream.type">video</property>
  <property name="meta.media.0.stream.frame_rate">60</property>
  <property name="meta.media.0.stream.sample_aspect_ratio">1</property>
  <property name="meta.media.0.codec.width">640</property>
  <property name="meta.media.0.codec.height">360</property>
  <property name="meta.media.0.codec.rotate">0</property>
  <property name="meta.media.0.codec.pix_fmt">yuv420p</property>
  <property name="meta.media.0.codec.sample_aspect_ratio">1</property>
  <property name="meta.media.0.codec.colorspace">709</property>
  <property name="meta.media.0.codec.color_trc">1</property>
  <property name="meta.media.0.codec.name">h264</property>
  <property name="meta.media.0.codec.long_name">H.264 / AVC / MPEG-4 AVC / MPEG-4 part 10</property>
  <property name="meta.media.0.codec.bit_rate">5667419</property>
  <property name="meta.attr.0.stream.language.markup">eng</property>
  <property name="meta.attr.0.stream.handler_name.markup">VideoHandler</property>
  <property name="meta.attr.0.stream.vendor_id.markup">FFMP</property>
  <property name="meta.attr.0.stream.encoder.markup">Lavc59.18.100 libx264</property>
  <property name="meta.media.1.stream.type">audio</property>
  <property name="meta.media.1.codec.sample_fmt">fltp</property>
  <property name="meta.media.1.codec.sample_rate">48000</property>
  <property name="meta.media.1.codec.channels">2</property>
  <property name="meta.media.1.codec.name">aac</property>
  <property name="meta.media.1.codec.long_name">AAC (Advanced Audio Coding)</property>
  <property name="meta.media.1.codec.bit_rate">129290</property>
  <property name="meta.attr.1.stream.language.markup">eng</property>
  <property name="meta.attr.1.stream.handler_name.markup">SoundHandler</property>
  <property name="meta.attr.1.stream.vendor_id.markup">[0][0][0][0]</property>
  <property name="meta.attr.major_brand.markup">qt  </property>
  <property name="meta.attr.minor_version.markup">512</property>
  <property name="meta.attr.compatible_brands.markup">qt  </property>
  <property name="meta.attr.encoder.markup">Lavf59.16.100</property>
  <property name="seekable">1</property>
  <property name="meta.media.sample_aspect_num">1</property>
  <property name="meta.media.sample_aspect_den">1</property>
  <property name="aspect_ratio">1</property>
  <property name="format">3</property>
  <property name="audio_index">1</property>
  <property name="video_index">0</property>
  <property name="mute_on_pause">0</property>
  <property name="mlt_service">avformat-novalidate</property>
  <property name="kdenlive:clipname">6 - sfida accettata - dark souls iii cinders  anima della sfida ii 6.mkv</property>
  <property name="kdenlive:clip_type">0</property>
  <property name="kdenlive:folderid">4</property>
  <property name="kdenlive:id">684</property>
  <property name="kdenlive:file_size">4537358114</property>
  <property name="kdenlive:file_hash">cf314eebe17b047f9605a52d59418270</property>
  <property name="kdenlive:proxy">/home/federico/Videos/Edit/Kden/ProxyRender/proxy/cf314eebe17b047f9605a52d59418270.mov</property>
  <property name="kdenlive:originalurl">/home/federico/Videos/Edit/Projects/DS3_cinders/5-Stream/6 - sfida accettata - dark souls iii cinders  anima della sfida ii 6.mkv</property>
  <property name="kdenlive:original.mlt_type">producer</property>
  <property name="kdenlive:original.in">00:00:00.000</property>
  <property name="kdenlive:original.out">02:38:45.867</property>
  <property name="kdenlive:original.length">571553</property>
  <property name="kdenlive:original.eof">pause</property>
  <property name="kdenlive:original.resource">/home/federico/Videos/Edit/Projects/DS3_cinders/5-Stream/6 - sfida accettata - dark souls iii cinders  anima della sfida ii 6.mkv</property>
  <property name="kdenlive:original.meta.media.nb_streams">2</property>
  <property name="kdenlive:original.meta.media.0.stream.type">video</property>
  <property name="kdenlive:original.meta.media.0.stream.frame_rate">60</property>
  <property name="kdenlive:original.meta.media.0.stream.sample_aspect_ratio">1</property>
  <property name="kdenlive:original.meta.media.0.codec.width">1920</property>
  <property name="kdenlive:original.meta.media.0.codec.height">1080</property>
  <property name="kdenlive:original.meta.media.0.codec.rotate">0</property>
  <property name="kdenlive:original.meta.media.0.codec.pix_fmt">yuv420p</property>
  <property name="kdenlive:original.meta.media.0.codec.sample_aspect_ratio">0</property>
  <property name="kdenlive:original.meta.media.0.codec.colorspace">709</property>
  <property name="kdenlive:original.meta.media.0.codec.color_trc">1</property>
  <property name="kdenlive:original.meta.media.0.codec.name">vp9</property>
  <property name="kdenlive:original.meta.media.0.codec.long_name">Google VP9</property>
  <property name="kdenlive:original.meta.media.0.codec.bit_rate">0</property>
  <property name="kdenlive:original.meta.attr.0.stream.language.markup">eng</property>
  <property name="kdenlive:original.meta.attr.0.stream.DURATION.markup">02:38:45.866000000</property>
  <property name="kdenlive:original.meta.media.1.stream.type">audio</property>
  <property name="kdenlive:original.meta.media.1.codec.sample_fmt">fltp</property>
  <property name="kdenlive:original.meta.media.1.codec.sample_rate">48000</property>
  <property name="kdenlive:original.meta.media.1.codec.channels">2</property>
  <property name="kdenlive:original.meta.media.1.codec.name">opus</property>
  <property name="kdenlive:original.meta.media.1.codec.long_name">Opus</property>
  <property name="kdenlive:original.meta.media.1.codec.bit_rate">0</property>
  <property name="kdenlive:original.meta.attr.1.stream.language.markup">eng</property>
  <property name="kdenlive:original.meta.attr.1.stream.DURATION.markup">02:38:45.888000000</property>
  <property name="kdenlive:original.meta.attr.ENCODER.markup">Lavf60.16.100</property>
  <property name="kdenlive:original.seekable">1</property>
  <property name="kdenlive:original.width">1920</property>
  <property name="kdenlive:original.height">1080</property>
  <property name="kdenlive:original.meta.media.sample_aspect_num">1</property>
  <property name="kdenlive:original.meta.media.sample_aspect_den">1</property>
  <property name="kdenlive:original.aspect_ratio">1</property>
  <property name="kdenlive:original.format">3</property>
  <property name="kdenlive:original.audio_index">1</property>
  <property name="kdenlive:original.video_index">0</property>
  <property name="kdenlive:original.mute_on_pause">0</property>
  <property name="kdenlive:original.mlt_service">avformat-novalidate</property>
  <property name="kdenlive:original.meta.media.frame_rate_num">60</property>
  <property name="kdenlive:original.meta.media.frame_rate_den">1</property>
  <property name="kdenlive:original.meta.media.colorspace">709</property>
  <property name="kdenlive:original.meta.media.color_trc">1</property>
  <property name="kdenlive:original.meta.media.has_b_frames">0</property>
  <property name="kdenlive:original.meta.media.width">1920</property>
  <property name="kdenlive:original.meta.media.height">1080</property>
  <property name="kdenlive:original.meta.media.color_range">mpeg</property>
  <property name="kdenlive:original.meta.media.top_field_first">0</property>
  <property name="kdenlive:original.meta.media.progressive">1</property>
  <property name="kdenlive:original.kdenlive:clip_type">0</property>
  <property name="kdenlive:original.kdenlive:folderid">4</property>
  <property name="kdenlive:original.kdenlive:id">684</property>
  <property name="kdenlive:original.kdenlive:file_size">4537358114</property>
  <property name="kdenlive:original.kdenlive:file_hash">cf314eebe17b047f9605a52d59418270</property>
  <property name="kdenlive:original.backup">1</property>
  <property name="kdenlive:audio_max1">196</property>
  <property name="meta.media.frame_rate_num">60</property>
  <property name="meta.media.frame_rate_den">1</property>
  <property name="meta.media.colorspace">709</property>
  <property name="meta.media.color_trc">1</property>
  <property name="meta.media.has_b_frames">0</property>
  <property name="meta.media.width">640</property>
  <property name="meta.media.height">360</property>
  <property name="meta.media.color_range">mpeg</property>
  <property name="meta.media.top_field_first">0</property>
  <property name="meta.media.progressive">1</property>
 </producer>
 <producer id="producer644" in="00:00:00.000" out="02:52:36.450">
  <property name="length">621389</property>
  <property name="eof">pause</property>
  <property name="resource">/home/federico/Videos/Edit/Kden/ProxyRender/proxy/e00b59329972f7cbbe05cbe5eabe0684.mov</property>
  <property name="meta.media.nb_streams">2</property>
  <property name="meta.media.0.stream.type">video</property>
  <property name="meta.media.0.stream.frame_rate">60</property>
  <property name="meta.media.0.stream.sample_aspect_ratio">1</property>
  <property name="meta.media.0.codec.width">640</property>
  <property name="meta.media.0.codec.height">360</property>
  <property name="meta.media.0.codec.rotate">0</property>
  <property name="meta.media.0.codec.pix_fmt">yuv420p</property>
  <property name="meta.media.0.codec.sample_aspect_ratio">1</property>
  <property name="meta.media.0.codec.colorspace">709</property>
  <property name="meta.media.0.codec.color_trc">1</property>
  <property name="meta.media.0.codec.name">h264</property>
  <property name="meta.media.0.codec.long_name">H.264 / AVC / MPEG-4 AVC / MPEG-4 part 10</property>
  <property name="meta.media.0.codec.bit_rate">5487106</property>
  <property name="meta.attr.0.stream.language.markup">eng</property>
  <property name="meta.attr.0.stream.handler_name.markup">VideoHandler</property>
  <property name="meta.attr.0.stream.vendor_id.markup">FFMP</property>
  <property name="meta.attr.0.stream.encoder.markup">Lavc59.18.100 libx264</property>
  <property name="meta.media.1.stream.type">audio</property>
  <property name="meta.media.1.codec.sample_fmt">fltp</property>
  <property name="meta.media.1.codec.sample_rate">48000</property>
  <property name="meta.media.1.codec.channels">2</property>
  <property name="meta.media.1.codec.name">aac</property>
  <property name="meta.media.1.codec.long_name">AAC (Advanced Audio Coding)</property>
  <property name="meta.media.1.codec.bit_rate">125682</property>
  <property name="meta.attr.1.stream.language.markup">eng</property>
  <property name="meta.attr.1.stream.handler_name.markup">SoundHandler</property>
  <property name="meta.attr.1.stream.vendor_id.markup">[0][0][0][0]</property>
  <property name="meta.attr.major_brand.markup">qt  </property>
  <property name="meta.attr.minor_version.markup">512</property>
  <property name="meta.attr.compatible_brands.markup">qt  </property>
  <property name="meta.attr.encoder.markup">Lavf59.16.100</property>
  <property name="seekable">1</property>
  <property name="meta.media.sample_aspect_num">1</property>
  <property name="meta.media.sample_aspect_den">1</property>
  <property name="aspect_ratio">1</property>
  <property name="format">3</property>
  <property name="audio_index">1</property>
  <property name="video_index">0</property>
  <property name="mute_on_pause">0</property>
  <property name="mlt_service">avformat-novalidate</property>
  <property name="kdenlive:clipname">7 - builded - dark souls iii cinders  anima della sfida ii 7.mkv</property>
  <property name="kdenlive:clip_type">0</property>
  <property name="kdenlive:folderid">4</property>
  <property name="kdenlive:id">685</property>
  <property name="kdenlive:file_size">4980831000</property>
  <property name="kdenlive:file_hash">e00b59329972f7cbbe05cbe5eabe0684</property>
  <property name="kdenlive:proxy">/home/federico/Videos/Edit/Kden/ProxyRender/proxy/e00b59329972f7cbbe05cbe5eabe0684.mov</property>
  <property name="kdenlive:originalurl">/home/federico/Videos/Edit/Projects/DS3_cinders/5-Stream/7 - builded - dark souls iii cinders  anima della sfida ii 7.mkv</property>
  <property name="kdenlive:original.mlt_type">producer</property>
  <property name="kdenlive:original.in">00:00:00.000</property>
  <property name="kdenlive:original.out">02:52:36.467</property>
  <property name="kdenlive:original.length">621389</property>
  <property name="kdenlive:original.eof">pause</property>
  <property name="kdenlive:original.resource">/home/federico/Videos/Edit/Projects/DS3_cinders/5-Stream/7 - builded - dark souls iii cinders  anima della sfida ii 7.mkv</property>
  <property name="kdenlive:original.meta.media.nb_streams">2</property>
  <property name="kdenlive:original.meta.media.0.stream.type">video</property>
  <property name="kdenlive:original.meta.media.0.stream.frame_rate">60</property>
  <property name="kdenlive:original.meta.media.0.stream.sample_aspect_ratio">1</property>
  <property name="kdenlive:original.meta.media.0.codec.width">1920</property>
  <property name="kdenlive:original.meta.media.0.codec.height">1080</property>
  <property name="kdenlive:original.meta.media.0.codec.rotate">0</property>
  <property name="kdenlive:original.meta.media.0.codec.pix_fmt">yuv420p</property>
  <property name="kdenlive:original.meta.media.0.codec.sample_aspect_ratio">0</property>
  <property name="kdenlive:original.meta.media.0.codec.colorspace">709</property>
  <property name="kdenlive:original.meta.media.0.codec.color_trc">1</property>
  <property name="kdenlive:original.meta.media.0.codec.name">vp9</property>
  <property name="kdenlive:original.meta.media.0.codec.long_name">Google VP9</property>
  <property name="kdenlive:original.meta.media.0.codec.bit_rate">0</property>
  <property name="kdenlive:original.meta.attr.0.stream.language.markup">eng</property>
  <property name="kdenlive:original.meta.attr.0.stream.DURATION.markup">02:52:36.449000000</property>
  <property name="kdenlive:original.meta.media.1.stream.type">audio</property>
  <property name="kdenlive:original.meta.media.1.codec.sample_fmt">fltp</property>
  <property name="kdenlive:original.meta.media.1.codec.sample_rate">48000</property>
  <property name="kdenlive:original.meta.media.1.codec.channels">2</property>
  <property name="kdenlive:original.meta.media.1.codec.name">opus</property>
  <property name="kdenlive:original.meta.media.1.codec.long_name">Opus</property>
  <property name="kdenlive:original.meta.media.1.codec.bit_rate">0</property>
  <property name="kdenlive:original.meta.attr.1.stream.language.markup">eng</property>
  <property name="kdenlive:original.meta.attr.1.stream.DURATION.markup">02:52:36.488000000</property>
  <property name="kdenlive:original.meta.attr.ENCODER.markup">Lavf60.16.100</property>
  <property name="kdenlive:original.seekable">1</property>
  <property name="kdenlive:original.width">1920</property>
  <property name="kdenlive:original.height">1080</property>
  <property name="kdenlive:original.meta.media.sample_aspect_num">1</property>
  <property name="kdenlive:original.meta.media.sample_aspect_den">1</property>
  <property name="kdenlive:original.aspect_ratio">1</property>
  <property name="kdenlive:original.format">3</property>
  <property name="kdenlive:original.audio_index">1</property>
  <property name="kdenlive:original.video_index">0</property>
  <property name="kdenlive:original.mute_on_pause">0</property>
  <property name="kdenlive:original.mlt_service">avformat-novalidate</property>
  <property name="kdenlive:original.meta.media.frame_rate_num">60</property>
  <property name="kdenlive:original.meta.media.frame_rate_den">1</property>
  <property name="kdenlive:original.meta.media.colorspace">709</property>
  <property name="kdenlive:original.meta.media.color_trc">1</property>
  <property name="kdenlive:original.meta.media.has_b_frames">0</property>
  <property name="kdenlive:original.meta.media.width">1920</property>
  <property name="kdenlive:original.meta.media.height">1080</property>
  <property name="kdenlive:original.meta.media.color_range">mpeg</property>
  <property name="kdenlive:original.meta.media.top_field_first">0</property>
  <property name="kdenlive:original.meta.media.progressive">1</property>
  <property name="kdenlive:original.kdenlive:clip_type">0</property>
  <property name="kdenlive:original.kdenlive:folderid">4</property>
  <property name="kdenlive:original.kdenlive:id">685</property>
  <property name="kdenlive:original.kdenlive:file_size">4980831000</property>
  <property name="kdenlive:original.kdenlive:file_hash">e00b59329972f7cbbe05cbe5eabe0684</property>
  <property name="kdenlive:original.backup">1</property>
  <property name="kdenlive:audio_max1">204</property>
  <property name="meta.media.frame_rate_num">60</property>
  <property name="meta.media.frame_rate_den">1</property>
  <property name="meta.media.colorspace">709</property>
  <property name="meta.media.color_trc">1</property>
  <property name="meta.media.has_b_frames">0</property>
  <property name="meta.media.width">640</property>
  <property name="meta.media.height">360</property>
  <property name="meta.media.color_range">mpeg</property>
  <property name="meta.media.top_field_first">0</property>
  <property name="meta.media.progressive">1</property>
 </producer>
 <producer id="producer645" in="00:00:00.000" out="01:50:41.183">
  <property name="length">398472</property>
  <property name="eof">pause</property>
  <property name="resource">/home/federico/Videos/Edit/Kden/ProxyRender/proxy/31ec4e3b8500d553e125625112366d7f.mov</property>
  <property name="meta.media.nb_streams">2</property>
  <property name="meta.media.0.stream.type">video</property>
  <property name="meta.media.0.stream.frame_rate">60</property>
  <property name="meta.media.0.stream.sample_aspect_ratio">1</property>
  <property name="meta.media.0.codec.width">640</property>
  <property name="meta.media.0.codec.height">360</property>
  <property name="meta.media.0.codec.rotate">0</property>
  <property name="meta.media.0.codec.pix_fmt">yuv420p</property>
  <property name="meta.media.0.codec.sample_aspect_ratio">1</property>
  <property name="meta.media.0.codec.colorspace">709</property>
  <property name="meta.media.0.codec.color_trc">1</property>
  <property name="meta.media.0.codec.name">h264</property>
  <property name="meta.media.0.codec.long_name">H.264 / AVC / MPEG-4 AVC / MPEG-4 part 10</property>
  <property name="meta.media.0.codec.bit_rate">5578912</property>
  <property name="meta.attr.0.stream.language.markup">eng</property>
  <property name="meta.attr.0.stream.handler_name.markup">VideoHandler</property>
  <property name="meta.attr.0.stream.vendor_id.markup">FFMP</property>
  <property name="meta.attr.0.stream.encoder.markup">Lavc59.18.100 libx264</property>
  <property name="meta.media.1.stream.type">audio</property>
  <property name="meta.media.1.codec.sample_fmt">fltp</property>
  <property name="meta.media.1.codec.sample_rate">48000</property>
  <property name="meta.media.1.codec.channels">2</property>
  <property name="meta.media.1.codec.name">aac</property>
  <property name="meta.media.1.codec.long_name">AAC (Advanced Audio Coding)</property>
  <property name="meta.media.1.codec.bit_rate">127625</property>
  <property name="meta.attr.1.stream.language.markup">eng</property>
  <property name="meta.attr.1.stream.handler_name.markup">SoundHandler</property>
  <property name="meta.attr.1.stream.vendor_id.markup">[0][0][0][0]</property>
  <property name="meta.attr.major_brand.markup">qt  </property>
  <property name="meta.attr.minor_version.markup">512</property>
  <property name="meta.attr.compatible_brands.markup">qt  </property>
  <property name="meta.attr.encoder.markup">Lavf59.16.100</property>
  <property name="seekable">1</property>
  <property name="meta.media.sample_aspect_num">1</property>
  <property name="meta.media.sample_aspect_den">1</property>
  <property name="aspect_ratio">1</property>
  <property name="format">3</property>
  <property name="audio_index">1</property>
  <property name="video_index">0</property>
  <property name="mute_on_pause">0</property>
  <property name="mlt_service">avformat-novalidate</property>
  <property name="kdenlive:clipname">8 - playground - dark souls iii cinders  anima della sfida ii 8.mkv</property>
  <property name="kdenlive:clip_type">0</property>
  <property name="kdenlive:folderid">4</property>
  <property name="kdenlive:id">686</property>
  <property name="kdenlive:file_size">3569794435</property>
  <property name="kdenlive:file_hash">31ec4e3b8500d553e125625112366d7f</property>
  <property name="kdenlive:proxy">/home/federico/Videos/Edit/Kden/ProxyRender/proxy/31ec4e3b8500d553e125625112366d7f.mov</property>
  <property name="kdenlive:originalurl">/home/federico/Videos/Edit/Projects/DS3_cinders/5-Stream/8 - playground - dark souls iii cinders  anima della sfida ii 8.mkv</property>
  <property name="kdenlive:original.mlt_type">producer</property>
  <property name="kdenlive:original.in">00:00:00.000</property>
  <property name="kdenlive:original.out">01:50:41.183</property>
  <property name="kdenlive:original.length">398472</property>
  <property name="kdenlive:original.eof">pause</property>
  <property name="kdenlive:original.resource">/home/federico/Videos/Edit/Projects/DS3_cinders/5-Stream/8 - playground - dark souls iii cinders  anima della sfida ii 8.mkv</property>
  <property name="kdenlive:original.meta.media.nb_streams">2</property>
  <property name="kdenlive:original.meta.media.0.stream.type">video</property>
  <property name="kdenlive:original.meta.media.0.stream.frame_rate">60</property>
  <property name="kdenlive:original.meta.media.0.stream.sample_aspect_ratio">1</property>
  <property name="kdenlive:original.meta.media.0.codec.width">1920</property>
  <property name="kdenlive:original.meta.media.0.codec.height">1080</property>
  <property name="kdenlive:original.meta.media.0.codec.rotate">0</property>
  <property name="kdenlive:original.meta.media.0.codec.pix_fmt">yuv420p</property>
  <property name="kdenlive:original.meta.media.0.codec.sample_aspect_ratio">0</property>
  <property name="kdenlive:original.meta.media.0.codec.colorspace">709</property>
  <property name="kdenlive:original.meta.media.0.codec.color_trc">1</property>
  <property name="kdenlive:original.meta.media.0.codec.name">vp9</property>
  <property name="kdenlive:original.meta.media.0.codec.long_name">Google VP9</property>
  <property name="kdenlive:original.meta.media.0.codec.bit_rate">0</property>
  <property name="kdenlive:original.meta.attr.0.stream.language.markup">eng</property>
  <property name="kdenlive:original.meta.attr.0.stream.DURATION.markup">01:50:41.183000000</property>
  <property name="kdenlive:original.meta.media.1.stream.type">audio</property>
  <property name="kdenlive:original.meta.media.1.codec.sample_fmt">fltp</property>
  <property name="kdenlive:original.meta.media.1.codec.sample_rate">48000</property>
  <property name="kdenlive:original.meta.media.1.codec.channels">2</property>
  <property name="kdenlive:original.meta.media.1.codec.name">opus</property>
  <property name="kdenlive:original.meta.media.1.codec.long_name">Opus</property>
  <property name="kdenlive:original.meta.media.1.codec.bit_rate">0</property>
  <property name="kdenlive:original.meta.attr.1.stream.language.markup">eng</property>
  <property name="kdenlive:original.meta.attr.1.stream.DURATION.markup">01:50:41.208000000</property>
  <property name="kdenlive:original.meta.attr.ENCODER.markup">Lavf60.16.100</property>
  <property name="kdenlive:original.seekable">1</property>
  <property name="kdenlive:original.width">1920</property>
  <property name="kdenlive:original.height">1080</property>
  <property name="kdenlive:original.meta.media.sample_aspect_num">1</property>
  <property name="kdenlive:original.meta.media.sample_aspect_den">1</property>
  <property name="kdenlive:original.aspect_ratio">1</property>
  <property name="kdenlive:original.format">3</property>
  <property name="kdenlive:original.audio_index">1</property>
  <property name="kdenlive:original.video_index">0</property>
  <property name="kdenlive:original.mute_on_pause">0</property>
  <property name="kdenlive:original.mlt_service">avformat-novalidate</property>
  <property name="kdenlive:original.meta.media.frame_rate_num">60</property>
  <property name="kdenlive:original.meta.media.frame_rate_den">1</property>
  <property name="kdenlive:original.meta.media.colorspace">709</property>
  <property name="kdenlive:original.meta.media.color_trc">1</property>
  <property name="kdenlive:original.meta.media.has_b_frames">0</property>
  <property name="kdenlive:original.meta.media.width">1920</property>
  <property name="kdenlive:original.meta.media.height">1080</property>
  <property name="kdenlive:original.meta.media.color_range">mpeg</property>
  <property name="kdenlive:original.meta.media.top_field_first">0</property>
  <property name="kdenlive:original.meta.media.progressive">1</property>
  <property name="kdenlive:original.kdenlive:clip_type">0</property>
  <property name="kdenlive:original.kdenlive:folderid">4</property>
  <property name="kdenlive:original.kdenlive:id">686</property>
  <property name="kdenlive:original.kdenlive:file_size">3569794435</property>
  <property name="kdenlive:original.kdenlive:file_hash">31ec4e3b8500d553e125625112366d7f</property>
  <property name="kdenlive:original.backup">1</property>
  <property name="kdenlive:audio_max1">237</property>
  <property name="meta.media.frame_rate_num">60</property>
  <property name="meta.media.frame_rate_den">1</property>
  <property name="meta.media.colorspace">709</property>
  <property name="meta.media.color_trc">1</property>
  <property name="meta.media.has_b_frames">0</property>
  <property name="meta.media.width">640</property>
  <property name="meta.media.height">360</property>
  <property name="meta.media.color_range">mpeg</property>
  <property name="meta.media.top_field_first">0</property>
  <property name="meta.media.progressive">1</property>
 </producer>
 <producer id="producer631" in="00:00:00.000" out="00:00:00.933">
  <property name="length">57</property>
  <property name="eof">pause</property>
  <property name="resource">/home/federico/Videos/Edit/Projects/DS3_cinders/1-DS3_cinders_ROBBBA/images-removebg-preview.png</property>
  <property name="ttl">25</property>
  <property name="aspect_ratio">1</property>
  <property name="progressive">1</property>
  <property name="seekable">1</property>
  <property name="format">2</property>
  <property name="meta.media.width">225</property>
  <property name="meta.media.height">225</property>
  <property name="mlt_service">qimage</property>
  <property name="kdenlive:clipname"/>
  <property name="kdenlive:duration">00:00:00.833</property>
  <property name="kdenlive:folderid">2</property>
  <property name="kdenlive:clip_type">2</property>
  <property name="kdenlive:id">687</property>
  <property name="kdenlive:file_size">52175</property>
  <property name="kdenlive:file_hash">3ec99258559b0e80d0d061f3dd9df22f</property>
 </producer>
 <producer id="producer626" in="00:00:00.000" out="00:00:01.383">
  <property name="length">84</property>
  <property name="eof">pause</property>
  <property name="resource">/home/federico/Videos/Edit/Projects/DS3_cinders/1-DS3_cinders_ROBBBA/torre_aperta_reve.wav</property>
  <property name="meta.media.nb_streams">1</property>
  <property name="meta.media.0.stream.type">audio</property>
  <property name="meta.media.0.codec.sample_fmt">s16</property>
  <property name="meta.media.0.codec.sample_rate">48000</property>
  <property name="meta.media.0.codec.channels">2</property>
  <property name="meta.media.0.codec.name">pcm_s16le</property>
  <property name="meta.media.0.codec.long_name">PCM signed 16-bit little-endian</property>
  <property name="meta.media.0.codec.bit_rate">1536000</property>
  <property name="meta.attr.encoder.markup">Lavf59.16.100 (libsndfile-1.2.2)</property>
  <property name="seekable">1</property>
  <property name="audio_index">0</property>
  <property name="video_index">-1</property>
  <property name="mute_on_pause">1</property>
  <property name="mlt_service">avformat</property>
  <property name="kdenlive:clipname"/>
  <property name="kdenlive:clip_type">1</property>
  <property name="kdenlive:folderid">2</property>
  <property name="kdenlive:id">688</property>
  <property name="kdenlive:file_size">269758</property>
  <property name="kdenlive:file_hash">f8ed8f909bae90edc7395df232473c93</property>
  <property name="kdenlive:audio_max0">154</property>
 </producer>
 <producer id="producer633" in="00:00:00.000" out="00:00:02.417">
  <property name="length">146</property>
  <property name="eof">pause</property>
  <property name="resource">/home/federico/Videos/Edit/Projects/DS3_cinders/1-DS3_cinders_ROBBBA/explosion_demons.png</property>
  <property name="ttl">25</property>
  <property name="aspect_ratio">1</property>
  <property name="progressive">1</property>
  <property name="seekable">1</property>
  <property name="format">2</property>
  <property name="meta.media.width">1920</property>
  <property name="meta.media.height">1080</property>
  <property name="mlt_service">qimage</property>
  <property name="kdenlive:clipname"/>
  <property name="kdenlive:duration">00:00:00.833</property>
  <property name="kdenlive:folderid">2</property>
  <property name="kdenlive:clip_type">2</property>
  <property name="kdenlive:id">689</property>
  <property name="kdenlive:file_size">1025858</property>
  <property name="kdenlive:file_hash">f48ce8484fb177bffe7666284175cb38</property>
 </producer>
 <producer id="producer623" in="00:00:00.000" out="00:00:01.767">
  <property name="length">107</property>
  <property name="eof">pause</property>
  <property name="resource">/home/federico/Videos/Edit/Projects/DS3_cinders/1-DS3_cinders_ROBBBA/attacco_salto_reve.wav</property>
  <property name="meta.media.nb_streams">1</property>
  <property name="meta.media.0.stream.type">audio</property>
  <property name="meta.media.0.codec.sample_fmt">s16</property>
  <property name="meta.media.0.codec.sample_rate">48000</property>
  <property name="meta.media.0.codec.channels">2</property>
  <property name="meta.media.0.codec.name">pcm_s16le</property>
  <property name="meta.media.0.codec.long_name">PCM signed 16-bit little-endian</property>
  <property name="meta.media.0.codec.bit_rate">1536000</property>
  <property name="meta.attr.encoder.markup">Lavf59.16.100 (libsndfile-1.2.2)</property>
  <property name="seekable">1</property>
  <property name="audio_index">0</property>
  <property name="video_index">-1</property>
  <property name="mute_on_pause">1</property>
  <property name="mlt_service">avformat</property>
  <property name="kdenlive:clipname"/>
  <property name="kdenlive:clip_type">1</property>
  <property name="kdenlive:folderid">2</property>
  <property name="kdenlive:id">690</property>
  <property name="kdenlive:file_size">342874</property>
  <property name="kdenlive:file_hash">45176ec73813610c8aba4d2d18307403</property>
  <property name="kdenlive:audio_max0">176</property>
 </producer>
 <producer id="producer624" in="00:00:00.000" out="00:00:13.433">
  <property name="length">807</property>
  <property name="eof">pause</property>
  <property name="resource">/home/federico/Videos/Edit/Projects/DS3_cinders/1-DS3_cinders_ROBBBA/curses_attraction.png</property>
  <property name="ttl">25</property>
  <property name="aspect_ratio">1</property>
  <property name="progressive">1</property>
  <property name="seekable">1</property>
  <property name="format">2</property>
  <property name="meta.media.width">737</property>
  <property name="meta.media.height">93</property>
  <property name="mlt_service">qimage</property>
  <property name="kdenlive:clipname"/>
  <property name="kdenlive:duration">00:00:00.833</property>
  <property name="kdenlive:folderid">2</property>
  <property name="kdenlive:clip_type">2</property>
  <property name="kdenlive:id">691</property>
  <property name="kdenlive:file_size">15587</property>
  <property name="kdenlive:file_hash">d8de4256800ecb0f4ef599024c441e77</property>
 </producer>
 <producer id="producer630" in="00:00:00.000" out="00:00:10.350">
  <property name="length">622</property>
  <property name="eof">pause</property>
  <property name="resource">/home/federico/Videos/Edit/Projects/DS3_cinders/1-DS3_cinders_ROBBBA/curses_frailty.png</property>
  <property name="ttl">25</property>
  <property name="aspect_ratio">1</property>
  <property name="progressive">1</property>
  <property name="seekable">1</property>
  <property name="format">2</property>
  <property name="meta.media.width">821</property>
  <property name="meta.media.height">95</property>
  <property name="mlt_service">qimage</property>
  <property name="kdenlive:clipname"/>
  <property name="kdenlive:duration">00:00:00.833</property>
  <property name="kdenlive:folderid">2</property>
  <property name="kdenlive:clip_type">2</property>
  <property name="kdenlive:id">692</property>
  <property name="kdenlive:file_size">10226</property>
  <property name="kdenlive:file_hash">90258ac1b42f9c4c6a3f9fb888d1bb63</property>
 </producer>
 <producer id="producer625" in="00:00:00.000" out="00:00:07.583">
  <property name="length">456</property>
  <property name="eof">pause</property>
  <property name="resource">/home/federico/Videos/Edit/Projects/DS3_cinders/1-DS3_cinders_ROBBBA/curses_simplicity.png</property>
  <property name="ttl">25</property>
  <property name="aspect_ratio">1</property>
  <property name="progressive">1</property>
  <property name="seekable">1</property>
  <property name="format">2</property>
  <property name="meta.media.width">677</property>
  <property name="meta.media.height">95</property>
  <property name="mlt_service">qimage</property>
  <property name="kdenlive:clipname"/>
  <property name="kdenlive:duration">00:00:00.833</property>
  <property name="kdenlive:folderid">2</property>
  <property name="kdenlive:clip_type">2</property>
  <property name="kdenlive:id">693</property>
  <property name="kdenlive:file_size">10409</property>
  <property name="kdenlive:file_hash">a0c90c9fbf7ab78f297f4366f5e5acee</property>
 </producer>
 <producer id="producer629" in="00:00:00.000" out="00:00:04.583">
  <property name="length">276</property>
  <property name="eof">pause</property>
  <property name="resource">/home/federico/Videos/Edit/Projects/DS3_cinders/1-DS3_cinders_ROBBBA/curses_strenghts_layers_clean.png</property>
  <property name="ttl">25</property>
  <property name="aspect_ratio">1</property>
  <property name="progressive">1</property>
  <property name="seekable">1</property>
  <property name="format">2</property>
  <property name="meta.media.width">1359</property>
  <property name="meta.media.height">371</property>
  <property name="mlt_service">qimage</property>
  <property name="kdenlive:clipname"/>
  <property name="kdenlive:duration">00:00:00.833</property>
  <property name="kdenlive:folderid">2</property>
  <property name="kdenlive:clip_type">2</property>
  <property name="kdenlive:id">694</property>
  <property name="kdenlive:file_size">122936</property>
  <property name="kdenlive:file_hash">5fab2de727e7aea64e66321620b2c969</property>
 </producer>
 <producer id="producer628" in="00:00:00.000" out="00:00:04.583">
  <property name="length">276</property>
  <property name="eof">pause</property>
  <property name="resource">/home/federico/Videos/Edit/Projects/DS3_cinders/1-DS3_cinders_ROBBBA/curses_strenghts_layers_mod.png</property>
  <property name="ttl">25</property>
  <property name="aspect_ratio">1</property>
  <property name="progressive">1</property>
  <property name="seekable">1</property>
  <property name="format">2</property>
  <property name="meta.media.width">1359</property>
  <property name="meta.media.height">371</property>
  <property name="mlt_service">qimage</property>
  <property name="kdenlive:clipname"/>
  <property name="kdenlive:duration">00:00:00.833</property>
  <property name="kdenlive:folderid">2</property>
  <property name="kdenlive:clip_type">2</property>
  <property name="kdenlive:id">695</property>
  <property name="kdenlive:file_size">108134</property>
  <property name="kdenlive:file_hash">537955a418ce817bdc01fe2269c1a3a2</property>
 </producer>
 <producer id="producer634" in="00:00:00.000" out="00:00:01.017">
  <property name="length">62</property>
  <property name="eof">pause</property>
  <property name="resource">/home/federico/Videos/Edit/Projects/DS3_cinders/1-DS3_cinders_ROBBBA/spero_non_cambi_fase_part1.png</property>
  <property name="ttl">25</property>
  <property name="aspect_ratio">1</property>
  <property name="progressive">1</property>
  <property name="seekable">1</property>
  <property name="format">2</property>
  <property name="meta.media.width">1920</property>
  <property name="meta.media.height">1080</property>
  <property name="mlt_service">qimage</property>
  <property name="kdenlive:clipname"/>
  <property name="kdenlive:duration">00:00:00.833</property>
  <property name="kdenlive:folderid">2</property>
  <property name="kdenlive:clip_type">2</property>
  <property name="kdenlive:id">696</property>
  <property name="kdenlive:file_size">37064</property>
  <property name="kdenlive:file_hash">bde4ba7f55bd36126374124c68916dbc</property>
 </producer>
 <producer id="producer635" in="00:00:00.000" out="00:00:01.017">
  <property name="length">62</property>
  <property name="eof">pause</property>
  <property name="resource">/home/federico/Videos/Edit/Projects/DS3_cinders/1-DS3_cinders_ROBBBA/spero_non_cambi_fase_part2.png</property>
  <property name="ttl">25</property>
  <property name="aspect_ratio">1</property>
  <property name="progressive">1</property>
  <property name="seekable">1</property>
  <property name="format">2</property>
  <property name="meta.media.width">1920</property>
  <property name="meta.media.height">1080</property>
  <property name="mlt_service">qimage</property>
  <property name="kdenlive:clipname"/>
  <property name="kdenlive:duration">00:00:00.833</property>
  <property name="kdenlive:folderid">2</property>
  <property name="kdenlive:clip_type">2</property>
  <property name="kdenlive:id">697</property>
  <property name="kdenlive:file_size">44889</property>
  <property name="kdenlive:file_hash">be627fda7499e1b617d3a9dd18582e1e</property>
 </producer>
 <producer id="producer636" in="00:00:00.000" out="00:00:04.083">
  <property name="length">246</property>
  <property name="eof">pause</property>
  <property name="resource">/home/federico/Videos/Edit/Projects/DS3_cinders/1-DS3_cinders_ROBBBA/Bonfire_Ascetic.png</property>
  <property name="ttl">25</property>
  <property name="aspect_ratio">1</property>
  <property name="progressive">1</property>
  <property name="seekable">1</property>
  <property name="format">2</property>
  <property name="meta.media.width">225</property>
  <property name="meta.media.height">450</property>
  <property name="mlt_service">qimage</property>
  <property name="kdenlive:clipname"/>
  <property name="kdenlive:duration">00:00:00.833</property>
  <property name="kdenlive:folderid">2</property>
  <property name="kdenlive:clip_type">2</property>
  <property name="kdenlive:id">698</property>
  <property name="kdenlive:file_size">147315</property>
  <property name="kdenlive:file_hash">794b338a2eb2cf147c3e41dae60826a6</property>
 </producer>
 <producer id="producer637" in="00:00:00.000" out="00:00:02.283">
  <property name="length">138</property>
  <property name="eof">pause</property>
  <property name="resource">/home/federico/Videos/Edit/Projects/DS3_cinders/1-DS3_cinders_ROBBBA/cam_frame.png</property>
  <property name="ttl">25</property>
  <property name="aspect_ratio">1</property>
  <property name="progressive">1</property>
  <property name="seekable">1</property>
  <property name="format">2</property>
  <property name="meta.media.width">1920</property>
  <property name="meta.media.height">1080</property>
  <property name="mlt_service">qimage</property>
  <property name="kdenlive:clipname"/>
  <property name="kdenlive:duration">00:00:00.833</property>
  <property name="kdenlive:folderid">2</property>
  <property name="kdenlive:clip_type">2</property>
  <property name="kdenlive:id">699</property>
  <property name="kdenlive:file_size">731666</property>
  <property name="kdenlive:file_hash">2ca836251f09f0f56542e823771dbd93</property>
 </producer>
 <producer id="producer638" in="00:00:00.000" out="00:00:02.283">
  <property name="length">138</property>
  <property name="eof">pause</property>
  <property name="resource">/home/federico/Videos/Edit/Projects/DS3_cinders/1-DS3_cinders_ROBBBA/cum.png</property>
  <property name="ttl">25</property>
  <property name="aspect_ratio">1</property>
  <property name="progressive">1</property>
  <property name="seekable">1</property>
  <property name="format">2</property>
  <property name="meta.media.width">1920</property>
  <property name="meta.media.height">1080</property>
  <property name="mlt_service">qimage</property>
  <property name="kdenlive:clipname"/>
  <property name="kdenlive:duration">00:00:00.833</property>
  <property name="kdenlive:folderid">2</property>
  <property name="kdenlive:clip_type">2</property>
  <property name="kdenlive:id">700</property>
  <property name="kdenlive:file_size">22662</property>
  <property name="kdenlive:file_hash">5e903597f8c82afaac6432b371222d8f</property>
 </producer>
 <producer id="producer639" in="00:00:00.000" out="00:00:00.850">
  <property name="length">52</property>
  <property name="eof">pause</property>
  <property name="resource">/home/federico/Videos/Edit/Projects/DS3_cinders/1-DS3_cinders_ROBBBA/bella_merda_reve.wav</property>
  <property name="meta.media.nb_streams">1</property>
  <property name="meta.media.0.stream.type">audio</property>
  <property name="meta.media.0.codec.sample_fmt">s16</property>
  <property name="meta.media.0.codec.sample_rate">48000</property>
  <property name="meta.media.0.codec.channels">2</property>
  <property name="meta.media.0.codec.name">pcm_s16le</property>
  <property name="meta.media.0.codec.long_name">PCM signed 16-bit little-endian</property>
  <property name="meta.media.0.codec.bit_rate">1536000</property>
  <property name="meta.attr.encoder.markup">Lavf59.16.100 (libsndfile-1.2.2)</property>
  <property name="seekable">1</property>
  <property name="audio_index">0</property>
  <property name="video_index">-1</property>
  <property name="mute_on_pause">1</property>
  <property name="mlt_service">avformat</property>
  <property name="kdenlive:clipname"/>
  <property name="kdenlive:clip_type">1</property>
  <property name="kdenlive:folderid">2</property>
  <property name="kdenlive:id">701</property>
  <property name="kdenlive:file_size">166022</property>
  <property name="kdenlive:file_hash">507bcd1b30c32f42f7a880e627648f0c</property>
  <property name="kdenlive:audio_max0">158</property>
 </producer>
 <producer id="producer640" in="00:00:00.000" out="00:00:10.650">
  <property name="length">640</property>
  <property name="eof">pause</property>
  <property name="resource">/home/federico/Videos/Edit/Projects/DS3_cinders/1-DS3_cinders_ROBBBA/gardaland.mkv</property>
  <property name="audio_index">1</property>
  <property name="video_index">0</property>
  <property name="mute_on_pause">0</property>
  <property name="mlt_service">avformat-novalidate</property>
  <property name="meta.media.nb_streams">2</property>
  <property name="meta.media.0.stream.type">video</property>
  <property name="meta.media.0.stream.frame_rate">30</property>
  <property name="meta.media.0.stream.sample_aspect_ratio">0</property>
  <property name="meta.media.0.codec.width">1920</property>
  <property name="meta.media.0.codec.height">1080</property>
  <property name="meta.media.0.codec.rotate">0</property>
  <property name="meta.media.0.codec.pix_fmt">yuv420p</property>
  <property name="meta.media.0.codec.sample_aspect_ratio">1</property>
  <property name="meta.media.0.codec.colorspace">709</property>
  <property name="meta.media.0.codec.color_trc">1</property>
  <property name="meta.media.0.codec.name">h264</property>
  <property name="meta.media.0.codec.long_name">H.264 / AVC / MPEG-4 AVC / MPEG-4 part 10</property>
  <property name="meta.media.0.codec.bit_rate">0</property>
  <property name="meta.attr.0.stream.DURATION.markup">00:00:10.666000000</property>
  <property name="meta.media.1.stream.type">audio</property>
  <property name="meta.media.1.codec.sample_fmt">fltp</property>
  <property name="meta.media.1.codec.sample_rate">48000</property>
  <property name="meta.media.1.codec.channels">2</property>
  <property name="meta.media.1.codec.name">aac</property>
  <property name="meta.media.1.codec.long_name">AAC (Advanced Audio Coding)</property>
  <property name="meta.media.1.codec.bit_rate">0</property>
  <property name="meta.attr.1.stream.title.markup">simple_aac_recording0</property>
  <property name="meta.attr.1.stream.DURATION.markup">00:00:10.666000000</property>
  <property name="meta.attr.ENCODER.markup">Lavf61.1.100</property>
  <property name="seekable">1</property>
  <property name="meta.media.sample_aspect_num">1</property>
  <property name="meta.media.sample_aspect_den">1</property>
  <property name="aspect_ratio">1</property>
  <property name="format">3</property>
  <property name="kdenlive:clipname"/>
  <property name="meta.media.frame_rate_num">30</property>
  <property name="meta.media.frame_rate_den">1</property>
  <property name="meta.media.colorspace">709</property>
  <property name="meta.media.color_trc">1</property>
  <property name="meta.media.has_b_frames">0</property>
  <property name="meta.media.width">1920</property>
  <property name="meta.media.height">1080</property>
  <property name="meta.media.color_range">mpeg</property>
  <property name="meta.media.top_field_first">0</property>
  <property name="meta.media.progressive">1</property>
  <property name="kdenlive:clip_type">0</property>
  <property name="kdenlive:folderid">2</property>
  <property name="kdenlive:id">702</property>
  <property name="kdenlive:file_size">279825</property>
  <property name="kdenlive:file_hash">676fe093cc7caefeff24e87d48c7d3ae</property>
  <property name="kdenlive:audio_max1">184</property>
  <property name="kdenlive:zone_in">0</property>
  <property name="kdenlive:zone_out">116</property>
 </producer>
 <playlist id="main_bin">
  <property name="kdenlive:folder.-1.2">5-ProjectRobba</property>
  <property name="kdenlive:folder.-1.3">4-Extra</property>
  <property name="kdenlive:folder.-1.4">2-Stream</property>
  <property name="kdenlive:folder.-1.5">1-EditingUT</property>
  <property name="kdenlive:folder.-1.669">3-BgMusic</property>
  <property name="kdenlive:folder.5.7">Image</property>
  <property name="kdenlive:folder.5.31">MemeFresh</property>
  <property name="kdenlive:folder.5.58">Music</property>
  <property name="kdenlive:folder.5.103">Sound</property>
  <property name="kdenlive:folder.5.407">Video</property>
  <property name="kdenlive:folder.669.670">Used</property>
  <property name="kdenlive:folder.7.25">DarkSouls</property>
  <property name="kdenlive:folder.58.64">Doom</property>
  <property name="kdenlive:folder.58.68">Meme</property>
  <property name="kdenlive:folder.58.89">Sad</property>
  <property name="kdenlive:folder.58.93">Themes</property>
  <property name="kdenlive:folder.103.137">Animals</property>
  <property name="kdenlive:folder.103.150">Anime</property>
  <property name="kdenlive:folder.103.158">BassDrop</property>
  <property name="kdenlive:folder.103.166">Car</property>
  <property name="kdenlive:folder.103.172">Cartoon</property>
  <property name="kdenlive:folder.103.197">Crowd</property>
  <property name="kdenlive:folder.103.203">DarkSouls</property>
  <property name="kdenlive:folder.103.212">Door</property>
  <property name="kdenlive:folder.103.216">EnglishMemes</property>
  <property name="kdenlive:folder.103.243">Explosion</property>
  <property name="kdenlive:folder.103.248">Fall</property>
  <property name="kdenlive:folder.103.251">Fart</property>
  <property name="kdenlive:folder.103.256">Games</property>
  <property name="kdenlive:folder.103.294">Gun_Shot</property>
  <property name="kdenlive:folder.103.303">Horn</property>
  <property name="kdenlive:folder.103.312">Mario</property>
  <property name="kdenlive:folder.103.323">Microsoft</property>
  <property name="kdenlive:folder.103.327">Minecraft</property>
  <property name="kdenlive:folder.103.356">Punch_Hit_Stomp</property>
  <property name="kdenlive:folder.103.376">S-whoosh</property>
  <property name="kdenlive:folder.103.381">Sabaku</property>
  <property name="kdenlive:folder.103.384">Scream</property>
  <property name="kdenlive:folder.103.393">Spongebob</property>
  <property name="kdenlive:folder.103.397">Suspense</property>
  <property name="kdenlive:folder.103.399">Sword</property>
  <property name="kdenlive:folder.407.447">Explosion</property>
  <property name="kdenlive:folder.407.450">Fraws</property>
  <property name="kdenlive:folder.407.511">GreenScreen</property>
  <property name="kdenlive:folder.407.572">Intro</property>
  <property name="kdenlive:folder.407.581">MarkTheHammer</property>
  <property name="kdenlive:folder.407.586">Sabaku</property>
  <property name="kdenlive:folder.407.631">Simpson</property>
  <property name="kdenlive:folder.407.637">SlimDogs</property>
  <property name="kdenlive:folder.407.640">Spongebob</property>
  <property name="kdenlive:folder.407.653">TheOffice</property>
  <property name="kdenlive:folder.407.658">TVStatic_Glitch</property>
  <property name="kdenlive:folder.407.663">Yotobi</property>
  <property name="kdenlive:folder.572.577">Yt</property>
  <property name="kdenlive:docproperties.activeTrack">3</property>
  <property name="kdenlive:docproperties.audioChannels">2</property>
  <property name="kdenlive:docproperties.audioTarget">4</property>
  <property name="kdenlive:docproperties.compositing">1</property>
  <property name="kdenlive:docproperties.dirtypreviewchunks"/>
  <property name="kdenlive:docproperties.disablepreview">0</property>
  <property name="kdenlive:docproperties.documentid">1748098229019</property>
  <property name="kdenlive:docproperties.enableTimelineZone">0</property>
  <property name="kdenlive:docproperties.enableexternalproxy">0</property>
  <property name="kdenlive:docproperties.enableproxy">1</property>
  <property name="kdenlive:docproperties.externalproxyparams">./;;.LRV;./;;.MP4</property>
  <property name="kdenlive:docproperties.generateimageproxy">0</property>
  <property name="kdenlive:docproperties.generateproxy">0</property>
  <property name="kdenlive:docproperties.groups">[
    {
        "children": [
            {
                "data": "5:96690",
                "leaf": "clip",
                "type": "Leaf"
            },
            {
                "data": "4:96690",
                "leaf": "clip",
                "type": "Leaf"
            }
        ],
        "type": "AVSplit"
    },
    {
        "children": [
            {
                "data": "5:6394",
                "leaf": "clip",
                "type": "Leaf"
            },
            {
                "data": "4:6394",
                "leaf": "clip",
                "type": "Leaf"
            }
        ],
        "type": "AVSplit"
    },
    {
        "children": [
            {
                "data": "5:24795",
                "leaf": "clip",
                "type": "Leaf"
            },
            {
                "data": "4:24795",
                "leaf": "clip",
                "type": "Leaf"
            }
        ],
        "type": "AVSplit"
    },
    {
        "children": [
            {
                "data": "4:96105",
                "leaf": "clip",
                "type": "Leaf"
            },
            {
                "data": "5:96105",
                "leaf": "clip",
                "type": "Leaf"
            }
        ],
        "type": "AVSplit"
    },
    {
        "children": [
            {
                "data": "5:92325",
                "leaf": "clip",
                "type": "Leaf"
            },
            {
                "data": "4:92325",
                "leaf": "clip",
                "type": "Leaf"
            }
        ],
        "type": "AVSplit"
    },
    {
        "children": [
            {
                "data": "5:50599",
                "leaf": "clip",
                "type": "Leaf"
            },
            {
                "data": "4:50599",
                "leaf": "clip",
                "type": "Leaf"
            }
        ],
        "type": "AVSplit"
    },
    {
        "children": [
            {
                "data": "5:71852",
                "leaf": "clip",
                "type": "Leaf"
            },
            {
                "data": "4:71852",
                "leaf": "clip",
                "type": "Leaf"
            }
        ],
        "type": "AVSplit"
    },
    {
        "children": [
            {
                "data": "4:44757",
                "leaf": "clip",
                "type": "Leaf"
            },
            {
                "data": "5:44757",
                "leaf": "clip",
                "type": "Leaf"
            }
        ],
        "type": "AVSplit"
    },
    {
        "children": [
            {
                "data": "4:38227",
                "leaf": "clip",
                "type": "Leaf"
            },
            {
                "data": "5:38227",
                "leaf": "clip",
                "type": "Leaf"
            }
        ],
        "type": "AVSplit"
    },
    {
        "children": [
            {
                "data": "5:70465",
                "leaf": "clip",
                "type": "Leaf"
            },
            {
                "data": "4:70465",
                "leaf": "clip",
                "type": "Leaf"
            }
        ],
        "type": "AVSplit"
    },
    {
        "children": [
            {
                "data": "5:90799",
                "leaf": "clip",
                "type": "Leaf"
            },
            {
                "data": "4:90799",
                "leaf": "clip",
                "type": "Leaf"
            }
        ],
        "type": "AVSplit"
    },
    {
        "children": [
            {
                "data": "5:29558",
                "leaf": "clip",
                "type": "Leaf"
            },
            {
                "data": "4:29558",
                "leaf": "clip",
                "type": "Leaf"
            }
        ],
        "type": "AVSplit"
    },
    {
        "children": [
            {
                "data": "5:37005",
                "leaf": "clip",
                "type": "Leaf"
            },
            {
                "data": "4:37005",
                "leaf": "clip",
                "type": "Leaf"
            }
        ],
        "type": "AVSplit"
    },
    {
        "children": [
            {
                "data": "4:40643",
                "leaf": "clip",
                "type": "Leaf"
            },
            {
                "data": "5:40643",
                "leaf": "clip",
                "type": "Leaf"
            }
        ],
        "type": "AVSplit"
    },
    {
        "children": [
            {
                "data": "5:92213",
                "leaf": "clip",
                "type": "Leaf"
            },
            {
                "data": "4:92213",
                "leaf": "clip",
                "type": "Leaf"
            }
        ],
        "type": "AVSplit"
    },
    {
        "children": [
            {
                "data": "4:3817",
                "leaf": "clip",
                "type": "Leaf"
            },
            {
                "data": "5:3817",
                "leaf": "clip",
                "type": "Leaf"
            }
        ],
        "type": "AVSplit"
    },
    {
        "children": [
            {
                "data": "4:74486",
                "leaf": "clip",
                "type": "Leaf"
            },
            {
                "data": "5:74486",
                "leaf": "clip",
                "type": "Leaf"
            }
        ],
        "type": "AVSplit"
    },
    {
        "children": [
            {
                "data": "5:42144",
                "leaf": "clip",
                "type": "Leaf"
            },
            {
                "data": "4:42144",
                "leaf": "clip",
                "type": "Leaf"
            }
        ],
        "type": "AVSplit"
    },
    {
        "children": [
            {
                "data": "4:73308",
                "leaf": "clip",
                "type": "Leaf"
            },
            {
                "data": "5:73308",
                "leaf": "clip",
                "type": "Leaf"
            }
        ],
        "type": "AVSplit"
    },
    {
        "children": [
            {
                "data": "5:88926",
                "leaf": "clip",
                "type": "Leaf"
            },
            {
                "data": "4:88926",
                "leaf": "clip",
                "type": "Leaf"
            }
        ],
        "type": "AVSplit"
    },
    {
        "children": [
            {
                "data": "4:91468",
                "leaf": "clip",
                "type": "Leaf"
            },
            {
                "data": "5:91468",
                "leaf": "clip",
                "type": "Leaf"
            }
        ],
        "type": "AVSplit"
    },
    {
        "children": [
            {
                "data": "4:20508",
                "leaf": "clip",
                "type": "Leaf"
            },
            {
                "data": "5:20508",
                "leaf": "clip",
                "type": "Leaf"
            }
        ],
        "type": "AVSplit"
    },
    {
        "children": [
            {
                "data": "5:69416",
                "leaf": "clip",
                "type": "Leaf"
            },
            {
                "data": "4:69416",
                "leaf": "clip",
                "type": "Leaf"
            }
        ],
        "type": "AVSplit"
    },
    {
        "children": [
            {
                "data": "4:91415",
                "leaf": "clip",
                "type": "Leaf"
            },
            {
                "data": "5:91415",
                "leaf": "clip",
                "type": "Leaf"
            }
        ],
        "type": "AVSplit"
    },
    {
        "children": [
            {
                "data": "5:91136",
                "leaf": "clip",
                "type": "Leaf"
            },
            {
                "data": "4:91136",
                "leaf": "clip",
                "type": "Leaf"
            }
        ],
        "type": "AVSplit"
    },
    {
        "children": [
            {
                "data": "5:69216",
                "leaf": "clip",
                "type": "Leaf"
            },
            {
                "data": "4:69216",
                "leaf": "clip",
                "type": "Leaf"
            }
        ],
        "type": "AVSplit"
    },
    {
        "children": [
            {
                "data": "4:90930",
                "leaf": "clip",
                "type": "Leaf"
            },
            {
                "data": "5:90930",
                "leaf": "clip",
                "type": "Leaf"
            }
        ],
        "type": "AVSplit"
    },
    {
        "children": [
            {
                "data": "5:38038",
                "leaf": "clip",
                "type": "Leaf"
            },
            {
                "data": "4:38038",
                "leaf": "clip",
                "type": "Leaf"
            }
        ],
        "type": "AVSplit"
    },
    {
        "children": [
            {
                "data": "4:76410",
                "leaf": "clip",
                "type": "Leaf"
            },
            {
                "data": "5:76410",
                "leaf": "clip",
                "type": "Leaf"
            }
        ],
        "type": "AVSplit"
    },
    {
        "children": [
            {
                "data": "6:38576",
                "leaf": "clip",
                "type": "Leaf"
            },
            {
                "data": "3:38576",
                "leaf": "clip",
                "type": "Leaf"
            }
        ],
        "type": "AVSplit"
    },
    {
        "children": [
            {
                "data": "5:96235",
                "leaf": "clip",
                "type": "Leaf"
            },
            {
                "data": "4:96235",
                "leaf": "clip",
                "type": "Leaf"
            }
        ],
        "type": "AVSplit"
    },
    {
        "children": [
            {
                "data": "4:47320",
                "leaf": "clip",
                "type": "Leaf"
            },
            {
                "data": "5:47320",
                "leaf": "clip",
                "type": "Leaf"
            }
        ],
        "type": "AVSplit"
    },
    {
        "children": [
            {
                "data": "5:89070",
                "leaf": "clip",
                "type": "Leaf"
            },
            {
                "data": "4:89070",
                "leaf": "clip",
                "type": "Leaf"
            }
        ],
        "type": "AVSplit"
    },
    {
        "children": [
            {
                "data": "5:5848",
                "leaf": "clip",
                "type": "Leaf"
            },
            {
                "data": "4:5848",
                "leaf": "clip",
                "type": "Leaf"
            }
        ],
        "type": "AVSplit"
    },
    {
        "children": [
            {
                "data": "4:23606",
                "leaf": "clip",
                "type": "Leaf"
            },
            {
                "data": "5:23606",
                "leaf": "clip",
                "type": "Leaf"
            }
        ],
        "type": "AVSplit"
    },
    {
        "children": [
            {
                "data": "5:85990",
                "leaf": "clip",
                "type": "Leaf"
            },
            {
                "data": "4:85990",
                "leaf": "clip",
                "type": "Leaf"
            }
        ],
        "type": "AVSplit"
    },
    {
        "children": [
            {
                "data": "5:5463",
                "leaf": "clip",
                "type": "Leaf"
            },
            {
                "data": "4:5463",
                "leaf": "clip",
                "type": "Leaf"
            }
        ],
        "type": "AVSplit"
    },
    {
        "children": [
            {
                "data": "4:86580",
                "leaf": "clip",
                "type": "Leaf"
            },
            {
                "data": "5:86580",
                "leaf": "clip",
                "type": "Leaf"
            }
        ],
        "type": "AVSplit"
    },
    {
        "children": [
            {
                "data": "4:13579",
                "leaf": "clip",
                "type": "Leaf"
            },
            {
                "data": "5:13579",
                "leaf": "clip",
                "type": "Leaf"
            }
        ],
        "type": "AVSplit"
    },
    {
        "children": [
            {
                "data": "4:90110",
                "leaf": "clip",
                "type": "Leaf"
            },
            {
                "data": "5:90110",
                "leaf": "clip",
                "type": "Leaf"
            }
        ],
        "type": "AVSplit"
    },
    {
        "children": [
            {
                "data": "5:12918",
                "leaf": "clip",
                "type": "Leaf"
            },
            {
                "data": "4:12918",
                "leaf": "clip",
                "type": "Leaf"
            }
        ],
        "type": "AVSplit"
    },
    {
        "children": [
            {
                "data": "5:31017",
                "leaf": "clip",
                "type": "Leaf"
            },
            {
                "data": "4:31017",
                "leaf": "clip",
                "type": "Leaf"
            }
        ],
        "type": "AVSplit"
    },
    {
        "children": [
            {
                "data": "4:5504",
                "leaf": "clip",
                "type": "Leaf"
            },
            {
                "data": "5:5504",
                "leaf": "clip",
                "type": "Leaf"
            }
        ],
        "type": "AVSplit"
    },
    {
        "children": [
            {
                "data": "4:2361",
                "leaf": "clip",
                "type": "Leaf"
            },
            {
                "data": "5:2361",
                "leaf": "clip",
                "type": "Leaf"
            }
        ],
        "type": "AVSplit"
    },
    {
        "children": [
            {
                "data": "4:86511",
                "leaf": "clip",
                "type": "Leaf"
            },
            {
                "data": "5:86511",
                "leaf": "clip",
                "type": "Leaf"
            }
        ],
        "type": "AVSplit"
    },
    {
        "children": [
            {
                "data": "5:75257",
                "leaf": "clip",
                "type": "Leaf"
            },
            {
                "data": "4:75257",
                "leaf": "clip",
                "type": "Leaf"
            }
        ],
        "type": "AVSplit"
    },
    {
        "children": [
            {
                "data": "6:2888",
                "leaf": "clip",
                "type": "Leaf"
            },
            {
                "data": "3:2888",
                "leaf": "clip",
                "type": "Leaf"
            }
        ],
        "type": "AVSplit"
    },
    {
        "children": [
            {
                "data": "5:10738",
                "leaf": "clip",
                "type": "Leaf"
            },
            {
                "data": "4:10738",
                "leaf": "clip",
                "type": "Leaf"
            }
        ],
        "type": "AVSplit"
    },
    {
        "children": [
            {
                "data": "5:86428",
                "leaf": "clip",
                "type": "Leaf"
            },
            {
                "data": "4:86428",
                "leaf": "clip",
                "type": "Leaf"
            }
        ],
        "type": "AVSplit"
    },
    {
        "children": [
            {
                "data": "5:94770",
                "leaf": "clip",
                "type": "Leaf"
            },
            {
                "data": "4:94770",
                "leaf": "clip",
                "type": "Leaf"
            }
        ],
        "type": "AVSplit"
    },
    {
        "children": [
            {
                "data": "4:73733",
                "leaf": "clip",
                "type": "Leaf"
            },
            {
                "data": "5:73733",
                "leaf": "clip",
                "type": "Leaf"
            }
        ],
        "type": "AVSplit"
    },
    {
        "children": [
            {
                "data": "5:96559",
                "leaf": "clip",
                "type": "Leaf"
            },
            {
                "data": "4:96559",
                "leaf": "clip",
                "type": "Leaf"
            }
        ],
        "type": "AVSplit"
    },
    {
        "children": [
            {
                "data": "5:89682",
                "leaf": "clip",
                "type": "Leaf"
            },
            {
                "data": "4:89682",
                "leaf": "clip",
                "type": "Leaf"
            }
        ],
        "type": "AVSplit"
    },
    {
        "children": [
            {
                "data": "4:6780",
                "leaf": "clip",
                "type": "Leaf"
            },
            {
                "data": "5:6780",
                "leaf": "clip",
                "type": "Leaf"
            }
        ],
        "type": "AVSplit"
    },
    {
        "children": [
            {
                "data": "4:22148",
                "leaf": "clip",
                "type": "Leaf"
            },
            {
                "data": "5:22148",
                "leaf": "clip",
                "type": "Leaf"
            }
        ],
        "type": "AVSplit"
    },
    {
        "children": [
            {
                "data": "5:28762",
                "leaf": "clip",
                "type": "Leaf"
            },
            {
                "data": "4:28762",
                "leaf": "clip",
                "type": "Leaf"
            }
        ],
        "type": "AVSplit"
    },
    {
        "children": [
            {
                "data": "4:89810",
                "leaf": "clip",
                "type": "Leaf"
            },
            {
                "data": "5:89810",
                "leaf": "clip",
                "type": "Leaf"
            }
        ],
        "type": "AVSplit"
    },
    {
        "children": [
            {
                "data": "5:20873",
                "leaf": "clip",
                "type": "Leaf"
            },
            {
                "data": "4:20873",
                "leaf": "clip",
                "type": "Leaf"
            }
        ],
        "type": "AVSplit"
    },
    {
        "children": [
            {
                "data": "5:45273",
                "leaf": "clip",
                "type": "Leaf"
            },
            {
                "data": "4:45273",
                "leaf": "clip",
                "type": "Leaf"
            }
        ],
        "type": "AVSplit"
    },
    {
        "children": [
            {
                "data": "4:96481",
                "leaf": "clip",
                "type": "Leaf"
            },
            {
                "data": "5:96481",
                "leaf": "clip",
                "type": "Leaf"
            }
        ],
        "type": "AVSplit"
    },
    {
        "children": [
            {
                "data": "4:70599",
                "leaf": "clip",
                "type": "Leaf"
            },
            {
                "data": "5:70599",
                "leaf": "clip",
                "type": "Leaf"
            }
        ],
        "type": "AVSplit"
    },
    {
        "children": [
            {
                "data": "4:491",
                "leaf": "clip",
                "type": "Leaf"
            },
            {
                "data": "5:491",
                "leaf": "clip",
                "type": "Leaf"
            }
        ],
        "type": "AVSplit"
    },
    {
        "children": [
            {
                "data": "4:75290",
                "leaf": "clip",
                "type": "Leaf"
            },
            {
                "data": "5:75290",
                "leaf": "clip",
                "type": "Leaf"
            }
        ],
        "type": "AVSplit"
    },
    {
        "children": [
            {
                "data": "5:24506",
                "leaf": "clip",
                "type": "Leaf"
            },
            {
                "data": "4:24506",
                "leaf": "clip",
                "type": "Leaf"
            }
        ],
        "type": "AVSplit"
    },
    {
        "children": [
            {
                "data": "5:95432",
                "leaf": "clip",
                "type": "Leaf"
            },
            {
                "data": "4:95432",
                "leaf": "clip",
                "type": "Leaf"
            }
        ],
        "type": "AVSplit"
    },
    {
        "children": [
            {
                "data": "5:73980",
                "leaf": "clip",
                "type": "Leaf"
            },
            {
                "data": "4:73980",
                "leaf": "clip",
                "type": "Leaf"
            }
        ],
        "type": "AVSplit"
    },
    {
        "children": [
            {
                "data": "5:0",
                "leaf": "clip",
                "type": "Leaf"
            },
            {
                "data": "4:0",
                "leaf": "clip",
                "type": "Leaf"
            }
        ],
        "type": "AVSplit"
    },
    {
        "children": [
            {
                "data": "5:15500",
                "leaf": "clip",
                "type": "Leaf"
            },
            {
                "data": "4:15500",
                "leaf": "clip",
                "type": "Leaf"
            }
        ],
        "type": "AVSplit"
    },
    {
        "children": [
            {
                "data": "4:7819",
                "leaf": "clip",
                "type": "Leaf"
            },
            {
                "data": "5:7819",
                "leaf": "clip",
                "type": "Leaf"
            }
        ],
        "type": "AVSplit"
    },
    {
        "children": [
            {
                "data": "5:11234",
                "leaf": "clip",
                "type": "Leaf"
            },
            {
                "data": "4:11234",
                "leaf": "clip",
                "type": "Leaf"
            }
        ],
        "type": "AVSplit"
    },
    {
        "children": [
            {
                "data": "4:25340",
                "leaf": "clip",
                "type": "Leaf"
            },
            {
                "data": "5:25340",
                "leaf": "clip",
                "type": "Leaf"
            }
        ],
        "type": "AVSplit"
    },
    {
        "children": [
            {
                "data": "4:50288",
                "leaf": "clip",
                "type": "Leaf"
            },
            {
                "data": "5:50288",
                "leaf": "clip",
                "type": "Leaf"
            }
        ],
        "type": "AVSplit"
    },
    {
        "children": [
            {
                "data": "6:11101",
                "leaf": "clip",
                "type": "Leaf"
            },
            {
                "data": "3:11101",
                "leaf": "clip",
                "type": "Leaf"
            }
        ],
        "type": "AVSplit"
    },
    {
        "children": [
            {
                "data": "4:17359",
                "leaf": "clip",
                "type": "Leaf"
            },
            {
                "data": "5:17359",
                "leaf": "clip",
                "type": "Leaf"
            }
        ],
        "type": "AVSplit"
    },
    {
        "children": [
            {
                "data": "5:13784",
                "leaf": "clip",
                "type": "Leaf"
            },
            {
                "data": "4:13784",
                "leaf": "clip",
                "type": "Leaf"
            }
        ],
        "type": "AVSplit"
    },
    {
        "children": [
            {
                "data": "6:50091",
                "leaf": "clip",
                "type": "Leaf"
            },
            {
                "data": "3:50091",
                "leaf": "clip",
                "type": "Leaf"
            }
        ],
        "type": "AVSplit"
    },
    {
        "children": [
            {
                "data": "5:19082",
                "leaf": "clip",
                "type": "Leaf"
            },
            {
                "data": "4:19082",
                "leaf": "clip",
                "type": "Leaf"
            }
        ],
        "type": "AVSplit"
    },
    {
        "children": [
            {
                "data": "5:37421",
                "leaf": "clip",
                "type": "Leaf"
            },
            {
                "data": "4:37421",
                "leaf": "clip",
                "type": "Leaf"
            }
        ],
        "type": "AVSplit"
    },
    {
        "children": [
            {
                "data": "4:17572",
                "leaf": "clip",
                "type": "Leaf"
            },
            {
                "data": "5:17572",
                "leaf": "clip",
                "type": "Leaf"
            }
        ],
        "type": "AVSplit"
    },
    {
        "children": [
            {
                "data": "5:19456",
                "leaf": "clip",
                "type": "Leaf"
            },
            {
                "data": "4:19456",
                "leaf": "clip",
                "type": "Leaf"
            }
        ],
        "type": "AVSplit"
    },
    {
        "children": [
            {
                "data": "5:16600",
                "leaf": "clip",
                "type": "Leaf"
            },
            {
                "data": "4:16600",
                "leaf": "clip",
                "type": "Leaf"
            }
        ],
        "type": "AVSplit"
    },
    {
        "children": [
            {
                "data": "5:77064",
                "leaf": "clip",
                "type": "Leaf"
            },
            {
                "data": "4:77064",
                "leaf": "clip",
                "type": "Leaf"
            }
        ],
        "type": "AVSplit"
    },
    {
        "children": [
            {
                "data": "4:14257",
                "leaf": "clip",
                "type": "Leaf"
            },
            {
                "data": "5:14257",
                "leaf": "clip",
                "type": "Leaf"
            }
        ],
        "type": "AVSplit"
    },
    {
        "children": [
            {
                "data": "5:18048",
                "leaf": "clip",
                "type": "Leaf"
            },
            {
                "data": "4:18048",
                "leaf": "clip",
                "type": "Leaf"
            }
        ],
        "type": "AVSplit"
    },
    {
        "children": [
            {
                "data": "5:19338",
                "leaf": "clip",
                "type": "Leaf"
            },
            {
                "data": "4:19338",
                "leaf": "clip",
                "type": "Leaf"
            }
        ],
        "type": "AVSplit"
    },
    {
        "children": [
            {
                "data": "4:20610",
                "leaf": "clip",
                "type": "Leaf"
            },
            {
                "data": "5:20610",
                "leaf": "clip",
                "type": "Leaf"
            }
        ],
        "type": "AVSplit"
    },
    {
        "children": [
            {
                "data": "4:68117",
                "leaf": "clip",
                "type": "Leaf"
            },
            {
                "data": "5:68117",
                "leaf": "clip",
                "type": "Leaf"
            }
        ],
        "type": "AVSplit"
    },
    {
        "children": [
            {
                "data": "5:87857",
                "leaf": "clip",
                "type": "Leaf"
            },
            {
                "data": "4:87857",
                "leaf": "clip",
                "type": "Leaf"
            }
        ],
        "type": "AVSplit"
    },
    {
        "children": [
            {
                "data": "5:23966",
                "leaf": "clip",
                "type": "Leaf"
            },
            {
                "data": "4:23966",
                "leaf": "clip",
                "type": "Leaf"
            }
        ],
        "type": "AVSplit"
    },
    {
        "children": [
            {
                "data": "4:5103",
                "leaf": "clip",
                "type": "Leaf"
            },
            {
                "data": "5:5103",
                "leaf": "clip",
                "type": "Leaf"
            }
        ],
        "type": "AVSplit"
    },
    {
        "children": [
            {
                "data": "5:52655",
                "leaf": "clip",
                "type": "Leaf"
            },
            {
                "data": "4:52655",
                "leaf": "clip",
                "type": "Leaf"
            }
        ],
        "type": "AVSplit"
    },
    {
        "children": [
            {
                "data": "4:76885",
                "leaf": "clip",
                "type": "Leaf"
            },
            {
                "data": "5:76885",
                "leaf": "clip",
                "type": "Leaf"
            }
        ],
        "type": "AVSplit"
    },
    {
        "children": [
            {
                "data": "5:37913",
                "leaf": "clip",
                "type": "Leaf"
            },
            {
                "data": "4:37913",
                "leaf": "clip",
                "type": "Leaf"
            }
        ],
        "type": "AVSplit"
    },
    {
        "children": [
            {
                "data": "5:5963",
                "leaf": "clip",
                "type": "Leaf"
            },
            {
                "data": "4:5963",
                "leaf": "clip",
                "type": "Leaf"
            }
        ],
        "type": "AVSplit"
    },
    {
        "children": [
            {
                "data": "5:76719",
                "leaf": "clip",
                "type": "Leaf"
            },
            {
                "data": "4:76719",
                "leaf": "clip",
                "type": "Leaf"
            }
        ],
        "type": "AVSplit"
    },
    {
        "children": [
            {
                "data": "5:29670",
                "leaf": "clip",
                "type": "Leaf"
            },
            {
                "data": "4:29670",
                "leaf": "clip",
                "type": "Leaf"
            }
        ],
        "type": "AVSplit"
    },
    {
        "children": [
            {
                "data": "4:25909",
                "leaf": "clip",
                "type": "Leaf"
            },
            {
                "data": "5:25909",
                "leaf": "clip",
                "type": "Leaf"
            }
        ],
        "type": "AVSplit"
    },
    {
        "children": [
            {
                "data": "4:21458",
                "leaf": "clip",
                "type": "Leaf"
            },
            {
                "data": "5:21458",
                "leaf": "clip",
                "type": "Leaf"
            }
        ],
        "type": "AVSplit"
    },
    {
        "children": [
            {
                "data": "5:5173",
                "leaf": "clip",
                "type": "Leaf"
            },
            {
                "data": "4:5173",
                "leaf": "clip",
                "type": "Leaf"
            }
        ],
        "type": "AVSplit"
    },
    {
        "children": [
            {
                "data": "4:23187",
                "leaf": "clip",
                "type": "Leaf"
            },
            {
                "data": "5:23187",
                "leaf": "clip",
                "type": "Leaf"
            }
        ],
        "type": "AVSplit"
    },
    {
        "children": [
            {
                "data": "5:44390",
                "leaf": "clip",
                "type": "Leaf"
            },
            {
                "data": "4:44390",
                "leaf": "clip",
                "type": "Leaf"
            }
        ],
        "type": "AVSplit"
    },
    {
        "children": [
            {
                "data": "5:29509",
                "leaf": "clip",
                "type": "Leaf"
            },
            {
                "data": "4:29509",
                "leaf": "clip",
                "type": "Leaf"
            }
        ],
        "type": "AVSplit"
    },
    {
        "children": [
            {
                "data": "4:13938",
                "leaf": "clip",
                "type": "Leaf"
            },
            {
                "data": "5:13938",
                "leaf": "clip",
                "type": "Leaf"
            }
        ],
        "type": "AVSplit"
    },
    {
        "children": [
            {
                "data": "4:8128",
                "leaf": "clip",
                "type": "Leaf"
            },
            {
                "data": "5:8128",
                "leaf": "clip",
                "type": "Leaf"
            }
        ],
        "type": "AVSplit"
    },
    {
        "children": [
            {
                "data": "5:5426",
                "leaf": "clip",
                "type": "Leaf"
            },
            {
                "data": "4:5426",
                "leaf": "clip",
                "type": "Leaf"
            }
        ],
        "type": "AVSplit"
    },
    {
        "children": [
            {
                "data": "5:44533",
                "leaf": "clip",
                "type": "Leaf"
            },
            {
                "data": "4:44533",
                "leaf": "clip",
                "type": "Leaf"
            }
        ],
        "type": "AVSplit"
    },
    {
        "children": [
            {
                "data": "4:16574",
                "leaf": "clip",
                "type": "Leaf"
            },
            {
                "data": "5:16574",
                "leaf": "clip",
                "type": "Leaf"
            }
        ],
        "type": "AVSplit"
    },
    {
        "children": [
            {
                "data": "4:53184",
                "leaf": "clip",
                "type": "Leaf"
            },
            {
                "data": "5:53184",
                "leaf": "clip",
                "type": "Leaf"
            }
        ],
        "type": "AVSplit"
    },
    {
        "children": [
            {
                "data": "5:54446",
                "leaf": "clip",
                "type": "Leaf"
            },
            {
                "data": "4:54446",
                "leaf": "clip",
                "type": "Leaf"
            }
        ],
        "type": "AVSplit"
    },
    {
        "children": [
            {
                "data": "5:14436",
                "leaf": "clip",
                "type": "Leaf"
            },
            {
                "data": "4:14436",
                "leaf": "clip",
                "type": "Leaf"
            }
        ],
        "type": "AVSplit"
    },
    {
        "children": [
            {
                "data": "4:11536",
                "leaf": "clip",
                "type": "Leaf"
            },
            {
                "data": "5:11536",
                "leaf": "clip",
                "type": "Leaf"
            }
        ],
        "type": "AVSplit"
    },
    {
        "children": [
            {
                "data": "4:44624",
                "leaf": "clip",
                "type": "Leaf"
            },
            {
                "data": "5:44624",
                "leaf": "clip",
                "type": "Leaf"
            }
        ],
        "type": "AVSplit"
    },
    {
        "children": [
            {
                "data": "4:22698",
                "leaf": "clip",
                "type": "Leaf"
            },
            {
                "data": "5:22698",
                "leaf": "clip",
                "type": "Leaf"
            }
        ],
        "type": "AVSplit"
    },
    {
        "children": [
            {
                "data": "7:15438",
                "leaf": "clip",
                "type": "Leaf"
            },
            {
                "data": "6:15438",
                "leaf": "clip",
                "type": "Leaf"
            }
        ],
        "type": "Normal"
    },
    {
        "children": [
            {
                "data": "4:36166",
                "leaf": "clip",
                "type": "Leaf"
            },
            {
                "data": "5:36166",
                "leaf": "clip",
                "type": "Leaf"
            }
        ],
        "type": "AVSplit"
    },
    {
        "children": [
            {
                "data": "4:87520",
                "leaf": "clip",
                "type": "Leaf"
            },
            {
                "data": "5:87520",
                "leaf": "clip",
                "type": "Leaf"
            }
        ],
        "type": "AVSplit"
    },
    {
        "children": [
            {
                "data": "5:6310",
                "leaf": "clip",
                "type": "Leaf"
            },
            {
                "data": "4:6310",
                "leaf": "clip",
                "type": "Leaf"
            }
        ],
        "type": "AVSplit"
    },
    {
        "children": [
            {
                "data": "4:10118",
                "leaf": "clip",
                "type": "Leaf"
            },
            {
                "data": "5:10118",
                "leaf": "clip",
                "type": "Leaf"
            }
        ],
        "type": "AVSplit"
    },
    {
        "children": [
            {
                "data": "4:52257",
                "leaf": "clip",
                "type": "Leaf"
            },
            {
                "data": "5:52257",
                "leaf": "clip",
                "type": "Leaf"
            }
        ],
        "type": "AVSplit"
    },
    {
        "children": [
            {
                "data": "5:37822",
                "leaf": "clip",
                "type": "Leaf"
            },
            {
                "data": "4:37822",
                "leaf": "clip",
                "type": "Leaf"
            }
        ],
        "type": "AVSplit"
    },
    {
        "children": [
            {
                "data": "5:69007",
                "leaf": "clip",
                "type": "Leaf"
            },
            {
                "data": "4:69007",
                "leaf": "clip",
                "type": "Leaf"
            }
        ],
        "type": "AVSplit"
    },
    {
        "children": [
            {
                "data": "5:7873",
                "leaf": "clip",
                "type": "Leaf"
            },
            {
                "data": "4:7873",
                "leaf": "clip",
                "type": "Leaf"
            }
        ],
        "type": "AVSplit"
    },
    {
        "children": [
            {
                "data": "4:44673",
                "leaf": "clip",
                "type": "Leaf"
            },
            {
                "data": "5:44673",
                "leaf": "clip",
                "type": "Leaf"
            }
        ],
        "type": "AVSplit"
    },
    {
        "children": [
            {
                "data": "5:54756",
                "leaf": "clip",
                "type": "Leaf"
            },
            {
                "data": "4:54756",
                "leaf": "clip",
                "type": "Leaf"
            }
        ],
        "type": "AVSplit"
    },
    {
        "children": [
            {
                "data": "5:68915",
                "leaf": "clip",
                "type": "Leaf"
            },
            {
                "data": "4:68915",
                "leaf": "clip",
                "type": "Leaf"
            }
        ],
        "type": "AVSplit"
    },
    {
        "children": [
            {
                "data": "5:54145",
                "leaf": "clip",
                "type": "Leaf"
            },
            {
                "data": "4:54145",
                "leaf": "clip",
                "type": "Leaf"
            }
        ],
        "type": "AVSplit"
    },
    {
        "children": [
            {
                "data": "4:39426",
                "leaf": "clip",
                "type": "Leaf"
            },
            {
                "data": "5:39426",
                "leaf": "clip",
                "type": "Leaf"
            }
        ],
        "type": "AVSplit"
    },
    {
        "children": [
            {
                "data": "5:795",
                "leaf": "clip",
                "type": "Leaf"
            },
            {
                "data": "4:795",
                "leaf": "clip",
                "type": "Leaf"
            }
        ],
        "type": "AVSplit"
    },
    {
        "children": [
            {
                "data": "5:87204",
                "leaf": "clip",
                "type": "Leaf"
            },
            {
                "data": "4:87204",
                "leaf": "clip",
                "type": "Leaf"
            }
        ],
        "type": "AVSplit"
    },
    {
        "children": [
            {
                "data": "5:51993",
                "leaf": "clip",
                "type": "Leaf"
            },
            {
                "data": "4:51993",
                "leaf": "clip",
                "type": "Leaf"
            }
        ],
        "type": "AVSplit"
    },
    {
        "children": [
            {
                "data": "5:10395",
                "leaf": "clip",
                "type": "Leaf"
            },
            {
                "data": "4:10395",
                "leaf": "clip",
                "type": "Leaf"
            }
        ],
        "type": "AVSplit"
    },
    {
        "children": [
            {
                "data": "5:9089",
                "leaf": "clip",
                "type": "Leaf"
            },
            {
                "data": "4:9089",
                "leaf": "clip",
                "type": "Leaf"
            }
        ],
        "type": "AVSplit"
    },
    {
        "children": [
            {
                "data": "5:6830",
                "leaf": "clip",
                "type": "Leaf"
            },
            {
                "data": "4:6830",
                "leaf": "clip",
                "type": "Leaf"
            }
        ],
        "type": "AVSplit"
    },
    {
        "children": [
            {
                "data": "4:8488",
                "leaf": "clip",
                "type": "Leaf"
            },
            {
                "data": "5:8488",
                "leaf": "clip",
                "type": "Leaf"
            }
        ],
        "type": "AVSplit"
    },
    {
        "children": [
            {
                "data": "4:29789",
                "leaf": "clip",
                "type": "Leaf"
            },
            {
                "data": "5:29789",
                "leaf": "clip",
                "type": "Leaf"
            }
        ],
        "type": "AVSplit"
    },
    {
        "children": [
            {
                "data": "5:21255",
                "leaf": "clip",
                "type": "Leaf"
            },
            {
                "data": "4:21255",
                "leaf": "clip",
                "type": "Leaf"
            }
        ],
        "type": "AVSplit"
    },
    {
        "children": [
            {
                "data": "5:86478",
                "leaf": "clip",
                "type": "Leaf"
            },
            {
                "data": "4:86478",
                "leaf": "clip",
                "type": "Leaf"
            }
        ],
        "type": "AVSplit"
    },
    {
        "children": [
            {
                "data": "5:38715",
                "leaf": "clip",
                "type": "Leaf"
            },
            {
                "data": "4:38715",
                "leaf": "clip",
                "type": "Leaf"
            }
        ],
        "type": "AVSplit"
    },
    {
        "children": [
            {
                "data": "5:68781",
                "leaf": "clip",
                "type": "Leaf"
            },
            {
                "data": "4:68781",
                "leaf": "clip",
                "type": "Leaf"
            }
        ],
        "type": "AVSplit"
    },
    {
        "children": [
            {
                "data": "5:10506",
                "leaf": "clip",
                "type": "Leaf"
            },
            {
                "data": "4:10506",
                "leaf": "clip",
                "type": "Leaf"
            }
        ],
        "type": "AVSplit"
    },
    {
        "children": [
            {
                "data": "5:24262",
                "leaf": "clip",
                "type": "Leaf"
            },
            {
                "data": "4:24262",
                "leaf": "clip",
                "type": "Leaf"
            }
        ],
        "type": "AVSplit"
    },
    {
        "children": [
            {
                "data": "5:37970",
                "leaf": "clip",
                "type": "Leaf"
            },
            {
                "data": "4:37970",
                "leaf": "clip",
                "type": "Leaf"
            }
        ],
        "type": "AVSplit"
    },
    {
        "children": [
            {
                "data": "4:52477",
                "leaf": "clip",
                "type": "Leaf"
            },
            {
                "data": "5:52477",
                "leaf": "clip",
                "type": "Leaf"
            }
        ],
        "type": "AVSplit"
    },
    {
        "children": [
            {
                "data": "5:38374",
                "leaf": "clip",
                "type": "Leaf"
            },
            {
                "data": "4:38374",
                "leaf": "clip",
                "type": "Leaf"
            }
        ],
        "type": "AVSplit"
    },
    {
        "children": [
            {
                "data": "4:14457",
                "leaf": "clip",
                "type": "Leaf"
            },
            {
                "data": "5:14457",
                "leaf": "clip",
                "type": "Leaf"
            }
        ],
        "type": "AVSplit"
    },
    {
        "children": [
            {
                "data": "4:46746",
                "leaf": "clip",
                "type": "Leaf"
            },
            {
                "data": "5:46746",
                "leaf": "clip",
                "type": "Leaf"
            }
        ],
        "type": "AVSplit"
    },
    {
        "children": [
            {
                "data": "5:6944",
                "leaf": "clip",
                "type": "Leaf"
            },
            {
                "data": "4:6944",
                "leaf": "clip",
                "type": "Leaf"
            }
        ],
        "type": "AVSplit"
    },
    {
        "children": [
            {
                "data": "5:55022",
                "leaf": "clip",
                "type": "Leaf"
            },
            {
                "data": "4:55022",
                "leaf": "clip",
                "type": "Leaf"
            }
        ],
        "type": "AVSplit"
    },
    {
        "children": [
            {
                "data": "5:2911",
                "leaf": "clip",
                "type": "Leaf"
            },
            {
                "data": "4:2911",
                "leaf": "clip",
                "type": "Leaf"
            }
        ],
        "type": "AVSplit"
    },
    {
        "children": [
            {
                "data": "5:9662",
                "leaf": "clip",
                "type": "Leaf"
            },
            {
                "data": "4:9662",
                "leaf": "clip",
                "type": "Leaf"
            }
        ],
        "type": "AVSplit"
    },
    {
        "children": [
            {
                "data": "4:86717",
                "leaf": "clip",
                "type": "Leaf"
            },
            {
                "data": "5:86717",
                "leaf": "clip",
                "type": "Leaf"
            }
        ],
        "type": "AVSplit"
    },
    {
        "children": [
            {
                "data": "4:46087",
                "leaf": "clip",
                "type": "Leaf"
            },
            {
                "data": "5:46087",
                "leaf": "clip",
                "type": "Leaf"
            }
        ],
        "type": "AVSplit"
    },
    {
        "children": [
            {
                "data": "5:86355",
                "leaf": "clip",
                "type": "Leaf"
            },
            {
                "data": "4:86355",
                "leaf": "clip",
                "type": "Leaf"
            }
        ],
        "type": "AVSplit"
    },
    {
        "children": [
            {
                "data": "5:53836",
                "leaf": "clip",
                "type": "Leaf"
            },
            {
                "data": "4:53836",
                "leaf": "clip",
                "type": "Leaf"
            }
        ],
        "type": "AVSplit"
    },
    {
        "children": [
            {
                "data": "4:8072",
                "leaf": "clip",
                "type": "Leaf"
            },
            {
                "data": "5:8072",
                "leaf": "clip",
                "type": "Leaf"
            }
        ],
        "type": "AVSplit"
    },
    {
        "children": [
            {
                "data": "4:38456",
                "leaf": "clip",
                "type": "Leaf"
            },
            {
                "data": "5:38456",
                "leaf": "clip",
                "type": "Leaf"
            }
        ],
        "type": "AVSplit"
    },
    {
        "children": [
            {
                "data": "4:26500",
                "leaf": "clip",
                "type": "Leaf"
            },
            {
                "data": "5:26500",
                "leaf": "clip",
                "type": "Leaf"
            }
        ],
        "type": "AVSplit"
    },
    {
        "children": [
            {
                "data": "5:76022",
                "leaf": "clip",
                "type": "Leaf"
            },
            {
                "data": "4:76022",
                "leaf": "clip",
                "type": "Leaf"
            }
        ],
        "type": "AVSplit"
    },
    {
        "children": [
            {
                "data": "5:8927",
                "leaf": "clip",
                "type": "Leaf"
            },
            {
                "data": "4:8927",
                "leaf": "clip",
                "type": "Leaf"
            }
        ],
        "type": "AVSplit"
    },
    {
        "children": [
            {
                "data": "5:86308",
                "leaf": "clip",
                "type": "Leaf"
            },
            {
                "data": "4:86308",
                "leaf": "clip",
                "type": "Leaf"
            }
        ],
        "type": "AVSplit"
    },
    {
        "children": [
            {
                "data": "4:34005",
                "leaf": "clip",
                "type": "Leaf"
            },
            {
                "data": "5:34005",
                "leaf": "clip",
                "type": "Leaf"
            }
        ],
        "type": "AVSplit"
    },
    {
        "children": [
            {
                "data": "4:20919",
                "leaf": "clip",
                "type": "Leaf"
            },
            {
                "data": "5:20919",
                "leaf": "clip",
                "type": "Leaf"
            }
        ],
        "type": "AVSplit"
    },
    {
        "children": [
            {
                "data": "5:19689",
                "leaf": "clip",
                "type": "Leaf"
            },
            {
                "data": "4:19689",
                "leaf": "clip",
                "type": "Leaf"
            }
        ],
        "type": "AVSplit"
    },
    {
        "children": [
            {
                "data": "5:75980",
                "leaf": "clip",
                "type": "Leaf"
            },
            {
                "data": "4:75980",
                "leaf": "clip",
                "type": "Leaf"
            }
        ],
        "type": "AVSplit"
    },
    {
        "children": [
            {
                "data": "4:1497",
                "leaf": "clip",
                "type": "Leaf"
            },
            {
                "data": "5:1497",
                "leaf": "clip",
                "type": "Leaf"
            }
        ],
        "type": "AVSplit"
    },
    {
        "children": [
            {
                "data": "5:9186",
                "leaf": "clip",
                "type": "Leaf"
            },
            {
                "data": "4:9186",
                "leaf": "clip",
                "type": "Leaf"
            }
        ],
        "type": "AVSplit"
    },
    {
        "children": [
            {
                "data": "5:86259",
                "leaf": "clip",
                "type": "Leaf"
            },
            {
                "data": "4:86259",
                "leaf": "clip",
                "type": "Leaf"
            }
        ],
        "type": "AVSplit"
    },
    {
        "children": [
            {
                "data": "4:12860",
                "leaf": "clip",
                "type": "Leaf"
            },
            {
                "data": "5:12860",
                "leaf": "clip",
                "type": "Leaf"
            }
        ],
        "type": "AVSplit"
    },
    {
        "children": [
            {
                "data": "5:29945",
                "leaf": "clip",
                "type": "Leaf"
            },
            {
                "data": "4:29945",
                "leaf": "clip",
                "type": "Leaf"
            }
        ],
        "type": "AVSplit"
    },
    {
        "children": [
            {
                "data": "5:10778",
                "leaf": "clip",
                "type": "Leaf"
            },
            {
                "data": "4:10778",
                "leaf": "clip",
                "type": "Leaf"
            }
        ],
        "type": "AVSplit"
    },
    {
        "children": [
            {
                "data": "4:45083",
                "leaf": "clip",
                "type": "Leaf"
            },
            {
                "data": "5:45083",
                "leaf": "clip",
                "type": "Leaf"
            }
        ],
        "type": "AVSplit"
    },
    {
        "children": [
            {
                "data": "5:27335",
                "leaf": "clip",
                "type": "Leaf"
            },
            {
                "data": "4:27335",
                "leaf": "clip",
                "type": "Leaf"
            }
        ],
        "type": "AVSplit"
    },
    {
        "children": [
            {
                "data": "5:48991",
                "leaf": "clip",
                "type": "Leaf"
            },
            {
                "data": "4:48991",
                "leaf": "clip",
                "type": "Leaf"
            }
        ],
        "type": "AVSplit"
    },
    {
        "children": [
            {
                "data": "4:14662",
                "leaf": "clip",
                "type": "Leaf"
            },
            {
                "data": "5:14662",
                "leaf": "clip",
                "type": "Leaf"
            }
        ],
        "type": "AVSplit"
    },
    {
        "children": [
            {
                "data": "5:42660",
                "leaf": "clip",
                "type": "Leaf"
            },
            {
                "data": "4:42660",
                "leaf": "clip",
                "type": "Leaf"
            }
        ],
        "type": "AVSplit"
    },
    {
        "children": [
            {
                "data": "5:39204",
                "leaf": "clip",
                "type": "Leaf"
            },
            {
                "data": "4:39204",
                "leaf": "clip",
                "type": "Leaf"
            }
        ],
        "type": "AVSplit"
    },
    {
        "children": [
            {
                "data": "4:21353",
                "leaf": "clip",
                "type": "Leaf"
            },
            {
                "data": "5:21353",
                "leaf": "clip",
                "type": "Leaf"
            }
        ],
        "type": "AVSplit"
    },
    {
        "children": [
            {
                "data": "5:55060",
                "leaf": "clip",
                "type": "Leaf"
            },
            {
                "data": "4:55060",
                "leaf": "clip",
                "type": "Leaf"
            }
        ],
        "type": "AVSplit"
    },
    {
        "children": [
            {
                "data": "5:45553",
                "leaf": "clip",
                "type": "Leaf"
            },
            {
                "data": "4:45553",
                "leaf": "clip",
                "type": "Leaf"
            }
        ],
        "type": "AVSplit"
    },
    {
        "children": [
            {
                "data": "4:8229",
                "leaf": "clip",
                "type": "Leaf"
            },
            {
                "data": "5:8229",
                "leaf": "clip",
                "type": "Leaf"
            }
        ],
        "type": "AVSplit"
    },
    {
        "children": [
            {
                "data": "4:30585",
                "leaf": "clip",
                "type": "Leaf"
            },
            {
                "data": "5:30585",
                "leaf": "clip",
                "type": "Leaf"
            }
        ],
        "type": "AVSplit"
    },
    {
        "children": [
            {
                "data": "6:12568",
                "leaf": "clip",
                "type": "Leaf"
            },
            {
                "data": "3:12568",
                "leaf": "clip",
                "type": "Leaf"
            }
        ],
        "type": "AVSplit"
    },
    {
        "children": [
            {
                "data": "4:46522",
                "leaf": "clip",
                "type": "Leaf"
            },
            {
                "data": "5:46522",
                "leaf": "clip",
                "type": "Leaf"
            }
        ],
        "type": "AVSplit"
    },
    {
        "children": [
            {
                "data": "5:66032",
                "leaf": "clip",
                "type": "Leaf"
            },
            {
                "data": "4:66032",
                "leaf": "clip",
                "type": "Leaf"
            }
        ],
        "type": "AVSplit"
    },
    {
        "children": [
            {
                "data": "4:23854",
                "leaf": "clip",
                "type": "Leaf"
            },
            {
                "data": "5:23854",
                "leaf": "clip",
                "type": "Leaf"
            }
        ],
        "type": "AVSplit"
    },
    {
        "children": [
            {
                "data": "4:23069",
                "leaf": "clip",
                "type": "Leaf"
            },
            {
                "data": "5:23069",
                "leaf": "clip",
                "type": "Leaf"
            }
        ],
        "type": "AVSplit"
    },
    {
        "children": [
            {
                "data": "4:46680",
                "leaf": "clip",
                "type": "Leaf"
            },
            {
                "data": "5:46680",
                "leaf": "clip",
                "type": "Leaf"
            }
        ],
        "type": "AVSplit"
    },
    {
        "children": [
            {
                "data": "5:75819",
                "leaf": "clip",
                "type": "Leaf"
            },
            {
                "data": "4:75819",
                "leaf": "clip",
                "type": "Leaf"
            }
        ],
        "type": "AVSplit"
    },
    {
        "children": [
            {
                "data": "5:25864",
                "leaf": "clip",
                "type": "Leaf"
            },
            {
                "data": "4:25864",
                "leaf": "clip",
                "type": "Leaf"
            }
        ],
        "type": "AVSplit"
    },
    {
        "children": [
            {
                "data": "4:20542",
                "leaf": "clip",
                "type": "Leaf"
            },
            {
                "data": "5:20542",
                "leaf": "clip",
                "type": "Leaf"
            }
        ],
        "type": "AVSplit"
    },
    {
        "children": [
            {
                "data": "4:5707",
                "leaf": "clip",
                "type": "Leaf"
            },
            {
                "data": "5:5707",
                "leaf": "clip",
                "type": "Leaf"
            }
        ],
        "type": "AVSplit"
    },
    {
        "children": [
            {
                "data": "5:33941",
                "leaf": "clip",
                "type": "Leaf"
            },
            {
                "data": "4:33941",
                "leaf": "clip",
                "type": "Leaf"
            }
        ],
        "type": "AVSplit"
    },
    {
        "children": [
            {
                "data": "5:46703",
                "leaf": "clip",
                "type": "Leaf"
            },
            {
                "data": "4:46703",
                "leaf": "clip",
                "type": "Leaf"
            }
        ],
        "type": "AVSplit"
    },
    {
        "children": [
            {
                "data": "4:75332",
                "leaf": "clip",
                "type": "Leaf"
            },
            {
                "data": "5:75332",
                "leaf": "clip",
                "type": "Leaf"
            }
        ],
        "type": "AVSplit"
    },
    {
        "children": [
            {
                "data": "4:66415",
                "leaf": "clip",
                "type": "Leaf"
            },
            {
                "data": "5:66415",
                "leaf": "clip",
                "type": "Leaf"
            }
        ],
        "type": "AVSplit"
    },
    {
        "children": [
            {
                "data": "4:3477",
                "leaf": "clip",
                "type": "Leaf"
            },
            {
                "data": "5:3477",
                "leaf": "clip",
                "type": "Leaf"
            }
        ],
        "type": "AVSplit"
    },
    {
        "children": [
            {
                "data": "4:3177",
                "leaf": "clip",
                "type": "Leaf"
            },
            {
                "data": "5:3177",
                "leaf": "clip",
                "type": "Leaf"
            }
        ],
        "type": "AVSplit"
    },
    {
        "children": [
            {
                "data": "4:26724",
                "leaf": "clip",
                "type": "Leaf"
            },
            {
                "data": "5:26724",
                "leaf": "clip",
                "type": "Leaf"
            }
        ],
        "type": "AVSplit"
    },
    {
        "children": [
            {
                "data": "4:14573",
                "leaf": "clip",
                "type": "Leaf"
            },
            {
                "data": "5:14573",
                "leaf": "clip",
                "type": "Leaf"
            }
        ],
        "type": "AVSplit"
    },
    {
        "children": [
            {
                "data": "4:66278",
                "leaf": "clip",
                "type": "Leaf"
            },
            {
                "data": "5:66278",
                "leaf": "clip",
                "type": "Leaf"
            }
        ],
        "type": "AVSplit"
    },
    {
        "children": [
            {
                "data": "4:39689",
                "leaf": "clip",
                "type": "Leaf"
            },
            {
                "data": "5:39689",
                "leaf": "clip",
                "type": "Leaf"
            }
        ],
        "type": "AVSplit"
    },
    {
        "children": [
            {
                "data": "5:30259",
                "leaf": "clip",
                "type": "Leaf"
            },
            {
                "data": "4:30259",
                "leaf": "clip",
                "type": "Leaf"
            }
        ],
        "type": "AVSplit"
    },
    {
        "children": [
            {
                "data": "5:65572",
                "leaf": "clip",
                "type": "Leaf"
            },
            {
                "data": "4:65572",
                "leaf": "clip",
                "type": "Leaf"
            }
        ],
        "type": "AVSplit"
    },
    {
        "children": [
            {
                "data": "4:39847",
                "leaf": "clip",
                "type": "Leaf"
            },
            {
                "data": "5:39847",
                "leaf": "clip",
                "type": "Leaf"
            }
        ],
        "type": "AVSplit"
    },
    {
        "children": [
            {
                "data": "4:16160",
                "leaf": "clip",
                "type": "Leaf"
            },
            {
                "data": "5:16160",
                "leaf": "clip",
                "type": "Leaf"
            }
        ],
        "type": "AVSplit"
    },
    {
        "children": [
            {
                "data": "5:9476",
                "leaf": "clip",
                "type": "Leaf"
            },
            {
                "data": "4:9476",
                "leaf": "clip",
                "type": "Leaf"
            }
        ],
        "type": "AVSplit"
    },
    {
        "children": [
            {
                "data": "5:65831",
                "leaf": "clip",
                "type": "Leaf"
            },
            {
                "data": "4:65831",
                "leaf": "clip",
                "type": "Leaf"
            }
        ],
        "type": "AVSplit"
    },
    {
        "children": [
            {
                "data": "4:8027",
                "leaf": "clip",
                "type": "Leaf"
            },
            {
                "data": "5:8027",
                "leaf": "clip",
                "type": "Leaf"
            }
        ],
        "type": "AVSplit"
    },
    {
        "children": [
            {
                "data": "5:15762",
                "leaf": "clip",
                "type": "Leaf"
            },
            {
                "data": "4:15762",
                "leaf": "clip",
                "type": "Leaf"
            }
        ],
        "type": "AVSplit"
    },
    {
        "children": [
            {
                "data": "5:18296",
                "leaf": "clip",
                "type": "Leaf"
            },
            {
                "data": "4:18296",
                "leaf": "clip",
                "type": "Leaf"
            }
        ],
        "type": "AVSplit"
    },
    {
        "children": [
            {
                "data": "5:33264",
                "leaf": "clip",
                "type": "Leaf"
            },
            {
                "data": "4:33264",
                "leaf": "clip",
                "type": "Leaf"
            }
        ],
        "type": "AVSplit"
    },
    {
        "children": [
            {
                "data": "5:14532",
                "leaf": "clip",
                "type": "Leaf"
            },
            {
                "data": "4:14532",
                "leaf": "clip",
                "type": "Leaf"
            }
        ],
        "type": "AVSplit"
    },
    {
        "children": [
            {
                "data": "4:29340",
                "leaf": "clip",
                "type": "Leaf"
            },
            {
                "data": "5:29340",
                "leaf": "clip",
                "type": "Leaf"
            }
        ],
        "type": "AVSplit"
    },
    {
        "children": [
            {
                "data": "5:12415",
                "leaf": "clip",
                "type": "Leaf"
            },
            {
                "data": "4:12415",
                "leaf": "clip",
                "type": "Leaf"
            }
        ],
        "type": "AVSplit"
    },
    {
        "children": [
            {
                "data": "5:57757",
                "leaf": "clip",
                "type": "Leaf"
            },
            {
                "data": "4:57757",
                "leaf": "clip",
                "type": "Leaf"
            }
        ],
        "type": "AVSplit"
    },
    {
        "children": [
            {
                "data": "4:21186",
                "leaf": "clip",
                "type": "Leaf"
            },
            {
                "data": "5:21186",
                "leaf": "clip",
                "type": "Leaf"
            }
        ],
        "type": "AVSplit"
    },
    {
        "children": [
            {
                "data": "5:21061",
                "leaf": "clip",
                "type": "Leaf"
            },
            {
                "data": "4:21061",
                "leaf": "clip",
                "type": "Leaf"
            }
        ],
        "type": "AVSplit"
    },
    {
        "children": [
            {
                "data": "5:11414",
                "leaf": "clip",
                "type": "Leaf"
            },
            {
                "data": "4:11414",
                "leaf": "clip",
                "type": "Leaf"
            }
        ],
        "type": "AVSplit"
    },
    {
        "children": [
            {
                "data": "4:79766",
                "leaf": "clip",
                "type": "Leaf"
            },
            {
                "data": "5:79766",
                "leaf": "clip",
                "type": "Leaf"
            }
        ],
        "type": "AVSplit"
    },
    {
        "children": [
            {
                "data": "4:60299",
                "leaf": "clip",
                "type": "Leaf"
            },
            {
                "data": "5:60299",
                "leaf": "clip",
                "type": "Leaf"
            }
        ],
        "type": "AVSplit"
    },
    {
        "children": [
            {
                "data": "5:10858",
                "leaf": "clip",
                "type": "Leaf"
            },
            {
                "data": "4:10858",
                "leaf": "clip",
                "type": "Leaf"
            }
        ],
        "type": "AVSplit"
    },
    {
        "children": [
            {
                "data": "4:8775",
                "leaf": "clip",
                "type": "Leaf"
            },
            {
                "data": "5:8775",
                "leaf": "clip",
                "type": "Leaf"
            }
        ],
        "type": "AVSplit"
    },
    {
        "children": [
            {
                "data": "5:72351",
                "leaf": "clip",
                "type": "Leaf"
            },
            {
                "data": "4:72351",
                "leaf": "clip",
                "type": "Leaf"
            }
        ],
        "type": "AVSplit"
    },
    {
        "children": [
            {
                "data": "5:79874",
                "leaf": "clip",
                "type": "Leaf"
            },
            {
                "data": "4:79874",
                "leaf": "clip",
                "type": "Leaf"
            }
        ],
        "type": "AVSplit"
    },
    {
        "children": [
            {
                "data": "5:26963",
                "leaf": "clip",
                "type": "Leaf"
            },
            {
                "data": "4:26963",
                "leaf": "clip",
                "type": "Leaf"
            }
        ],
        "type": "AVSplit"
    },
    {
        "children": [
            {
                "data": "4:57372",
                "leaf": "clip",
                "type": "Leaf"
            },
            {
                "data": "5:57372",
                "leaf": "clip",
                "type": "Leaf"
            }
        ],
        "type": "AVSplit"
    },
    {
        "children": [
            {
                "data": "4:48369",
                "leaf": "clip",
                "type": "Leaf"
            },
            {
                "data": "5:48369",
                "leaf": "clip",
                "type": "Leaf"
            }
        ],
        "type": "AVSplit"
    },
    {
        "children": [
            {
                "data": "5:72818",
                "leaf": "clip",
                "type": "Leaf"
            },
            {
                "data": "4:72818",
                "leaf": "clip",
                "type": "Leaf"
            }
        ],
        "type": "AVSplit"
    },
    {
        "children": [
            {
                "data": "4:65088",
                "leaf": "clip",
                "type": "Leaf"
            },
            {
                "data": "5:65088",
                "leaf": "clip",
                "type": "Leaf"
            }
        ],
        "type": "AVSplit"
    },
    {
        "children": [
            {
                "data": "5:21738",
                "leaf": "clip",
                "type": "Leaf"
            },
            {
                "data": "4:21738",
                "leaf": "clip",
                "type": "Leaf"
            }
        ],
        "type": "AVSplit"
    },
    {
        "children": [
            {
                "data": "5:57480",
                "leaf": "clip",
                "type": "Leaf"
            },
            {
                "data": "4:57480",
                "leaf": "clip",
                "type": "Leaf"
            }
        ],
        "type": "AVSplit"
    },
    {
        "children": [
            {
                "data": "5:72982",
                "leaf": "clip",
                "type": "Leaf"
            },
            {
                "data": "4:72982",
                "leaf": "clip",
                "type": "Leaf"
            }
        ],
        "type": "AVSplit"
    },
    {
        "children": [
            {
                "data": "5:53810",
                "leaf": "clip",
                "type": "Leaf"
            },
            {
                "data": "4:53810",
                "leaf": "clip",
                "type": "Leaf"
            }
        ],
        "type": "AVSplit"
    },
    {
        "children": [
            {
                "data": "5:59240",
                "leaf": "clip",
                "type": "Leaf"
            },
            {
                "data": "4:59240",
                "leaf": "clip",
                "type": "Leaf"
            }
        ],
        "type": "AVSplit"
    },
    {
        "children": [
            {
                "data": "5:61022",
                "leaf": "clip",
                "type": "Leaf"
            },
            {
                "data": "4:61022",
                "leaf": "clip",
                "type": "Leaf"
            }
        ],
        "type": "AVSplit"
    },
    {
        "children": [
            {
                "data": "4:36201",
                "leaf": "clip",
                "type": "Leaf"
            },
            {
                "data": "5:36201",
                "leaf": "clip",
                "type": "Leaf"
            }
        ],
        "type": "AVSplit"
    },
    {
        "children": [
            {
                "data": "4:60739",
                "leaf": "clip",
                "type": "Leaf"
            },
            {
                "data": "5:60739",
                "leaf": "clip",
                "type": "Leaf"
            }
        ],
        "type": "AVSplit"
    },
    {
        "children": [
            {
                "data": "5:4800",
                "leaf": "clip",
                "type": "Leaf"
            },
            {
                "data": "4:4800",
                "leaf": "clip",
                "type": "Leaf"
            }
        ],
        "type": "AVSplit"
    },
    {
        "children": [
            {
                "data": "4:36367",
                "leaf": "clip",
                "type": "Leaf"
            },
            {
                "data": "5:36367",
                "leaf": "clip",
                "type": "Leaf"
            }
        ],
        "type": "AVSplit"
    },
    {
        "children": [
            {
                "data": "4:67042",
                "leaf": "clip",
                "type": "Leaf"
            },
            {
                "data": "5:67042",
                "leaf": "clip",
                "type": "Leaf"
            }
        ],
        "type": "AVSplit"
    },
    {
        "children": [
            {
                "data": "5:80250",
                "leaf": "clip",
                "type": "Leaf"
            },
            {
                "data": "4:80250",
                "leaf": "clip",
                "type": "Leaf"
            }
        ],
        "type": "AVSplit"
    },
    {
        "children": [
            {
                "data": "5:37378",
                "leaf": "clip",
                "type": "Leaf"
            },
            {
                "data": "4:37378",
                "leaf": "clip",
                "type": "Leaf"
            }
        ],
        "type": "AVSplit"
    },
    {
        "children": [
            {
                "data": "5:61108",
                "leaf": "clip",
                "type": "Leaf"
            },
            {
                "data": "4:61108",
                "leaf": "clip",
                "type": "Leaf"
            }
        ],
        "type": "AVSplit"
    },
    {
        "children": [
            {
                "data": "5:13096",
                "leaf": "clip",
                "type": "Leaf"
            },
            {
                "data": "4:13096",
                "leaf": "clip",
                "type": "Leaf"
            }
        ],
        "type": "AVSplit"
    },
    {
        "children": [
            {
                "data": "4:34442",
                "leaf": "clip",
                "type": "Leaf"
            },
            {
                "data": "5:34442",
                "leaf": "clip",
                "type": "Leaf"
            }
        ],
        "type": "AVSplit"
    },
    {
        "children": [
            {
                "data": "4:61267",
                "leaf": "clip",
                "type": "Leaf"
            },
            {
                "data": "5:61267",
                "leaf": "clip",
                "type": "Leaf"
            }
        ],
        "type": "AVSplit"
    },
    {
        "children": [
            {
                "data": "5:52956",
                "leaf": "clip",
                "type": "Leaf"
            },
            {
                "data": "4:52956",
                "leaf": "clip",
                "type": "Leaf"
            }
        ],
        "type": "AVSplit"
    },
    {
        "children": [
            {
                "data": "4:4684",
                "leaf": "clip",
                "type": "Leaf"
            },
            {
                "data": "5:4684",
                "leaf": "clip",
                "type": "Leaf"
            }
        ],
        "type": "AVSplit"
    },
    {
        "children": [
            {
                "data": "5:58852",
                "leaf": "clip",
                "type": "Leaf"
            },
            {
                "data": "4:58852",
                "leaf": "clip",
                "type": "Leaf"
            }
        ],
        "type": "AVSplit"
    },
    {
        "children": [
            {
                "data": "5:1388",
                "leaf": "clip",
                "type": "Leaf"
            },
            {
                "data": "4:1388",
                "leaf": "clip",
                "type": "Leaf"
            }
        ],
        "type": "AVSplit"
    },
    {
        "children": [
            {
                "data": "4:61416",
                "leaf": "clip",
                "type": "Leaf"
            },
            {
                "data": "5:61416",
                "leaf": "clip",
                "type": "Leaf"
            }
        ],
        "type": "AVSplit"
    },
    {
        "children": [
            {
                "data": "5:9385",
                "leaf": "clip",
                "type": "Leaf"
            },
            {
                "data": "4:9385",
                "leaf": "clip",
                "type": "Leaf"
            }
        ],
        "type": "AVSplit"
    },
    {
        "children": [
            {
                "data": "5:59731",
                "leaf": "clip",
                "type": "Leaf"
            },
            {
                "data": "4:59731",
                "leaf": "clip",
                "type": "Leaf"
            }
        ],
        "type": "AVSplit"
    },
    {
        "children": [
            {
                "data": "5:80594",
                "leaf": "clip",
                "type": "Leaf"
            },
            {
                "data": "4:80594",
                "leaf": "clip",
                "type": "Leaf"
            }
        ],
        "type": "AVSplit"
    },
    {
        "children": [
            {
                "data": "5:13694",
                "leaf": "clip",
                "type": "Leaf"
            },
            {
                "data": "4:13694",
                "leaf": "clip",
                "type": "Leaf"
            }
        ],
        "type": "AVSplit"
    },
    {
        "children": [
            {
                "data": "5:22310",
                "leaf": "clip",
                "type": "Leaf"
            },
            {
                "data": "4:22310",
                "leaf": "clip",
                "type": "Leaf"
            }
        ],
        "type": "AVSplit"
    },
    {
        "children": [
            {
                "data": "4:13443",
                "leaf": "clip",
                "type": "Leaf"
            },
            {
                "data": "5:13443",
                "leaf": "clip",
                "type": "Leaf"
            }
        ],
        "type": "AVSplit"
    },
    {
        "children": [
            {
                "data": "5:61652",
                "leaf": "clip",
                "type": "Leaf"
            },
            {
                "data": "4:61652",
                "leaf": "clip",
                "type": "Leaf"
            }
        ],
        "type": "AVSplit"
    },
    {
        "children": [
            {
                "data": "4:62024",
                "leaf": "clip",
                "type": "Leaf"
            },
            {
                "data": "5:62024",
                "leaf": "clip",
                "type": "Leaf"
            }
        ],
        "type": "AVSplit"
    },
    {
        "children": [
            {
                "data": "5:64313",
                "leaf": "clip",
                "type": "Leaf"
            },
            {
                "data": "4:64313",
                "leaf": "clip",
                "type": "Leaf"
            }
        ],
        "type": "AVSplit"
    },
    {
        "children": [
            {
                "data": "4:81053",
                "leaf": "clip",
                "type": "Leaf"
            },
            {
                "data": "5:81053",
                "leaf": "clip",
                "type": "Leaf"
            }
        ],
        "type": "AVSplit"
    },
    {
        "children": [
            {
                "data": "5:33716",
                "leaf": "clip",
                "type": "Leaf"
            },
            {
                "data": "4:33716",
                "leaf": "clip",
                "type": "Leaf"
            }
        ],
        "type": "AVSplit"
    },
    {
        "children": [
            {
                "data": "4:22223",
                "leaf": "clip",
                "type": "Leaf"
            },
            {
                "data": "5:22223",
                "leaf": "clip",
                "type": "Leaf"
            }
        ],
        "type": "AVSplit"
    },
    {
        "children": [
            {
                "data": "5:63811",
                "leaf": "clip",
                "type": "Leaf"
            },
            {
                "data": "4:63811",
                "leaf": "clip",
                "type": "Leaf"
            }
        ],
        "type": "AVSplit"
    },
    {
        "children": [
            {
                "data": "4:14986",
                "leaf": "clip",
                "type": "Leaf"
            },
            {
                "data": "5:14986",
                "leaf": "clip",
                "type": "Leaf"
            }
        ],
        "type": "AVSplit"
    },
    {
        "children": [
            {
                "data": "4:40309",
                "leaf": "clip",
                "type": "Leaf"
            },
            {
                "data": "5:40309",
                "leaf": "clip",
                "type": "Leaf"
            }
        ],
        "type": "AVSplit"
    },
    {
        "children": [
            {
                "data": "4:62218",
                "leaf": "clip",
                "type": "Leaf"
            },
            {
                "data": "5:62218",
                "leaf": "clip",
                "type": "Leaf"
            }
        ],
        "type": "AVSplit"
    },
    {
        "children": [
            {
                "data": "4:63957",
                "leaf": "clip",
                "type": "Leaf"
            },
            {
                "data": "5:63957",
                "leaf": "clip",
                "type": "Leaf"
            }
        ],
        "type": "AVSplit"
    },
    {
        "children": [
            {
                "data": "0:1355",
                "leaf": "clip",
                "type": "Leaf"
            },
            {
                "data": "9:1355",
                "leaf": "clip",
                "type": "Leaf"
            }
        ],
        "type": "AVSplit"
    },
    {
        "children": [
            {
                "data": "5:75409",
                "leaf": "clip",
                "type": "Leaf"
            },
            {
                "data": "4:75409",
                "leaf": "clip",
                "type": "Leaf"
            }
        ],
        "type": "AVSplit"
    },
    {
        "children": [
            {
                "data": "5:68216",
                "leaf": "clip",
                "type": "Leaf"
            },
            {
                "data": "4:68216",
                "leaf": "clip",
                "type": "Leaf"
            }
        ],
        "type": "AVSplit"
    },
    {
        "children": [
            {
                "data": "5:9033",
                "leaf": "clip",
                "type": "Leaf"
            },
            {
                "data": "4:9033",
                "leaf": "clip",
                "type": "Leaf"
            }
        ],
        "type": "AVSplit"
    },
    {
        "children": [
            {
                "data": "5:67929",
                "leaf": "clip",
                "type": "Leaf"
            },
            {
                "data": "4:67929",
                "leaf": "clip",
                "type": "Leaf"
            }
        ],
        "type": "AVSplit"
    },
    {
        "children": [
            {
                "data": "5:47904",
                "leaf": "clip",
                "type": "Leaf"
            },
            {
                "data": "4:47904",
                "leaf": "clip",
                "type": "Leaf"
            }
        ],
        "type": "AVSplit"
    },
    {
        "children": [
            {
                "data": "6:81471",
                "leaf": "clip",
                "type": "Leaf"
            },
            {
                "data": "3:81471",
                "leaf": "clip",
                "type": "Leaf"
            }
        ],
        "type": "AVSplit"
    },
    {
        "children": [
            {
                "data": "4:18141",
                "leaf": "clip",
                "type": "Leaf"
            },
            {
                "data": "5:18141",
                "leaf": "clip",
                "type": "Leaf"
            }
        ],
        "type": "AVSplit"
    },
    {
        "children": [
            {
                "data": "4:65048",
                "leaf": "clip",
                "type": "Leaf"
            },
            {
                "data": "5:65048",
                "leaf": "clip",
                "type": "Leaf"
            }
        ],
        "type": "AVSplit"
    },
    {
        "children": [
            {
                "data": "4:81653",
                "leaf": "clip",
                "type": "Leaf"
            },
            {
                "data": "5:81653",
                "leaf": "clip",
                "type": "Leaf"
            }
        ],
        "type": "AVSplit"
    },
    {
        "children": [
            {
                "data": "4:57333",
                "leaf": "clip",
                "type": "Leaf"
            },
            {
                "data": "5:57333",
                "leaf": "clip",
                "type": "Leaf"
            }
        ],
        "type": "AVSplit"
    },
    {
        "children": [
            {
                "data": "5:61790",
                "leaf": "clip",
                "type": "Leaf"
            },
            {
                "data": "4:61790",
                "leaf": "clip",
                "type": "Leaf"
            }
        ],
        "type": "AVSplit"
    },
    {
        "children": [
            {
                "data": "5:31889",
                "leaf": "clip",
                "type": "Leaf"
            },
            {
                "data": "4:31889",
                "leaf": "clip",
                "type": "Leaf"
            }
        ],
        "type": "AVSplit"
    },
    {
        "children": [
            {
                "data": "5:28021",
                "leaf": "clip",
                "type": "Leaf"
            },
            {
                "data": "4:28021",
                "leaf": "clip",
                "type": "Leaf"
            }
        ],
        "type": "AVSplit"
    },
    {
        "children": [
            {
                "data": "4:33688",
                "leaf": "clip",
                "type": "Leaf"
            },
            {
                "data": "5:33688",
                "leaf": "clip",
                "type": "Leaf"
            }
        ],
        "type": "AVSplit"
    },
    {
        "children": [
            {
                "data": "5:24975",
                "leaf": "clip",
                "type": "Leaf"
            },
            {
                "data": "4:24975",
                "leaf": "clip",
                "type": "Leaf"
            }
        ],
        "type": "AVSplit"
    },
    {
        "children": [
            {
                "data": "5:24638",
                "leaf": "clip",
                "type": "Leaf"
            },
            {
                "data": "4:24638",
                "leaf": "clip",
                "type": "Leaf"
            }
        ],
        "type": "AVSplit"
    },
    {
        "children": [
            {
                "data": "5:24675",
                "leaf": "clip",
                "type": "Leaf"
            },
            {
                "data": "4:24675",
                "leaf": "clip",
                "type": "Leaf"
            }
        ],
        "type": "AVSplit"
    },
    {
        "children": [
            {
                "data": "4:56477",
                "leaf": "clip",
                "type": "Leaf"
            },
            {
                "data": "5:56477",
                "leaf": "clip",
                "type": "Leaf"
            }
        ],
        "type": "AVSplit"
    },
    {
        "children": [
            {
                "data": "5:84159",
                "leaf": "clip",
                "type": "Leaf"
            },
            {
                "data": "4:84159",
                "leaf": "clip",
                "type": "Leaf"
            }
        ],
        "type": "AVSplit"
    },
    {
        "children": [
            {
                "data": "6:27592",
                "leaf": "clip",
                "type": "Leaf"
            },
            {
                "data": "3:27592",
                "leaf": "clip",
                "type": "Leaf"
            }
        ],
        "type": "AVSplit"
    },
    {
        "children": [
            {
                "data": "5:64651",
                "leaf": "clip",
                "type": "Leaf"
            },
            {
                "data": "4:64651",
                "leaf": "clip",
                "type": "Leaf"
            }
        ],
        "type": "AVSplit"
    },
    {
        "children": [
            {
                "data": "4:50121",
                "leaf": "clip",
                "type": "Leaf"
            },
            {
                "data": "5:50121",
                "leaf": "clip",
                "type": "Leaf"
            }
        ],
        "type": "AVSplit"
    },
    {
        "children": [
            {
                "data": "5:16925",
                "leaf": "clip",
                "type": "Leaf"
            },
            {
                "data": "4:16925",
                "leaf": "clip",
                "type": "Leaf"
            }
        ],
        "type": "AVSplit"
    },
    {
        "children": [
            {
                "data": "4:20290",
                "leaf": "clip",
                "type": "Leaf"
            },
            {
                "data": "5:20290",
                "leaf": "clip",
                "type": "Leaf"
            }
        ],
        "type": "AVSplit"
    },
    {
        "children": [
            {
                "data": "5:31863",
                "leaf": "clip",
                "type": "Leaf"
            },
            {
                "data": "4:31863",
                "leaf": "clip",
                "type": "Leaf"
            }
        ],
        "type": "AVSplit"
    },
    {
        "children": [
            {
                "data": "5:23305",
                "leaf": "clip",
                "type": "Leaf"
            },
            {
                "data": "4:23305",
                "leaf": "clip",
                "type": "Leaf"
            }
        ],
        "type": "AVSplit"
    },
    {
        "children": [
            {
                "data": "5:84211",
                "leaf": "clip",
                "type": "Leaf"
            },
            {
                "data": "4:84211",
                "leaf": "clip",
                "type": "Leaf"
            }
        ],
        "type": "AVSplit"
    },
    {
        "children": [
            {
                "data": "5:20671",
                "leaf": "clip",
                "type": "Leaf"
            },
            {
                "data": "4:20671",
                "leaf": "clip",
                "type": "Leaf"
            }
        ],
        "type": "AVSplit"
    },
    {
        "children": [
            {
                "data": "5:36530",
                "leaf": "clip",
                "type": "Leaf"
            },
            {
                "data": "4:36530",
                "leaf": "clip",
                "type": "Leaf"
            }
        ],
        "type": "AVSplit"
    },
    {
        "children": [
            {
                "data": "4:60217",
                "leaf": "clip",
                "type": "Leaf"
            },
            {
                "data": "5:60217",
                "leaf": "clip",
                "type": "Leaf"
            }
        ],
        "type": "AVSplit"
    },
    {
        "children": [
            {
                "data": "5:7608",
                "leaf": "clip",
                "type": "Leaf"
            },
            {
                "data": "4:7608",
                "leaf": "clip",
                "type": "Leaf"
            }
        ],
        "type": "AVSplit"
    },
    {
        "children": [
            {
                "data": "4:20023",
                "leaf": "clip",
                "type": "Leaf"
            },
            {
                "data": "5:20023",
                "leaf": "clip",
                "type": "Leaf"
            }
        ],
        "type": "AVSplit"
    },
    {
        "children": [
            {
                "data": "4:18556",
                "leaf": "clip",
                "type": "Leaf"
            },
            {
                "data": "5:18556",
                "leaf": "clip",
                "type": "Leaf"
            }
        ],
        "type": "AVSplit"
    },
    {
        "children": [
            {
                "data": "5:84360",
                "leaf": "clip",
                "type": "Leaf"
            },
            {
                "data": "4:84360",
                "leaf": "clip",
                "type": "Leaf"
            }
        ],
        "type": "AVSplit"
    },
    {
        "children": [
            {
                "data": "4:68418",
                "leaf": "clip",
                "type": "Leaf"
            },
            {
                "data": "5:68418",
                "leaf": "clip",
                "type": "Leaf"
            }
        ],
        "type": "AVSplit"
    },
    {
        "children": [
            {
                "data": "4:22490",
                "leaf": "clip",
                "type": "Leaf"
            },
            {
                "data": "5:22490",
                "leaf": "clip",
                "type": "Leaf"
            }
        ],
        "type": "AVSplit"
    },
    {
        "children": [
            {
                "data": "5:8385",
                "leaf": "clip",
                "type": "Leaf"
            },
            {
                "data": "4:8385",
                "leaf": "clip",
                "type": "Leaf"
            }
        ],
        "type": "AVSplit"
    },
    {
        "children": [
            {
                "data": "4:84444",
                "leaf": "clip",
                "type": "Leaf"
            },
            {
                "data": "5:84444",
                "leaf": "clip",
                "type": "Leaf"
            }
        ],
        "type": "AVSplit"
    },
    {
        "children": [
            {
                "data": "5:58481",
                "leaf": "clip",
                "type": "Leaf"
            },
            {
                "data": "4:58481",
                "leaf": "clip",
                "type": "Leaf"
            }
        ],
        "type": "AVSplit"
    },
    {
        "children": [
            {
                "data": "5:66525",
                "leaf": "clip",
                "type": "Leaf"
            },
            {
                "data": "4:66525",
                "leaf": "clip",
                "type": "Leaf"
            }
        ],
        "type": "AVSplit"
    },
    {
        "children": [
            {
                "data": "4:9287",
                "leaf": "clip",
                "type": "Leaf"
            },
            {
                "data": "5:9287",
                "leaf": "clip",
                "type": "Leaf"
            }
        ],
        "type": "AVSplit"
    },
    {
        "children": [
            {
                "data": "4:20272",
                "leaf": "clip",
                "type": "Leaf"
            },
            {
                "data": "5:20272",
                "leaf": "clip",
                "type": "Leaf"
            }
        ],
        "type": "AVSplit"
    },
    {
        "children": [
            {
                "data": "1:60519",
                "leaf": "clip",
                "type": "Leaf"
            },
            {
                "data": "7:60519",
                "leaf": "clip",
                "type": "Leaf"
            },
            {
                "children": [
                    {
                        "data": "4:60350",
                        "leaf": "clip",
                        "type": "Leaf"
                    },
                    {
                        "data": "5:60350",
                        "leaf": "clip",
                        "type": "Leaf"
                    }
                ],
                "type": "AVSplit"
            },
            {
                "data": "5:60519",
                "leaf": "clip",
                "type": "Leaf"
            },
            {
                "data": "4:60519",
                "leaf": "clip",
                "type": "Leaf"
            },
            {
                "children": [
                    {
                        "data": "3:60439",
                        "leaf": "clip",
                        "type": "Leaf"
                    },
                    {
                        "data": "6:60439",
                        "leaf": "clip",
                        "type": "Leaf"
                    }
                ],
                "type": "AVSplit"
            },
            {
                "data": "2:60411",
                "leaf": "clip",
                "type": "Leaf"
            },
            {
                "children": [
                    {
                        "data": "4:60654",
                        "leaf": "clip",
                        "type": "Leaf"
                    },
                    {
                        "data": "5:60654",
                        "leaf": "clip",
                        "type": "Leaf"
                    }
                ],
                "type": "AVSplit"
            },
            {
                "data": "6:60519",
                "leaf": "clip",
                "type": "Leaf"
            },
            {
                "children": [
                    {
                        "data": "5:60411",
                        "leaf": "clip",
                        "type": "Leaf"
                    },
                    {
                        "data": "4:60411",
                        "leaf": "clip",
                        "type": "Leaf"
                    }
                ],
                "type": "AVSplit"
            }
        ],
        "type": "Normal"
    },
    {
        "children": [
            {
                "data": "4:84853",
                "leaf": "clip",
                "type": "Leaf"
            },
            {
                "data": "5:84853",
                "leaf": "clip",
                "type": "Leaf"
            }
        ],
        "type": "AVSplit"
    },
    {
        "children": [
            {
                "data": "5:7752",
                "leaf": "clip",
                "type": "Leaf"
            },
            {
                "data": "4:7752",
                "leaf": "clip",
                "type": "Leaf"
            }
        ],
        "type": "AVSplit"
    },
    {
        "children": [
            {
                "data": "4:3644",
                "leaf": "clip",
                "type": "Leaf"
            },
            {
                "data": "5:3644",
                "leaf": "clip",
                "type": "Leaf"
            }
        ],
        "type": "AVSplit"
    },
    {
        "children": [
            {
                "data": "5:68314",
                "leaf": "clip",
                "type": "Leaf"
            },
            {
                "data": "4:68314",
                "leaf": "clip",
                "type": "Leaf"
            }
        ],
        "type": "AVSplit"
    },
    {
        "children": [
            {
                "data": "4:51088",
                "leaf": "clip",
                "type": "Leaf"
            },
            {
                "data": "5:51088",
                "leaf": "clip",
                "type": "Leaf"
            }
        ],
        "type": "AVSplit"
    },
    {
        "children": [
            {
                "data": "4:85272",
                "leaf": "clip",
                "type": "Leaf"
            },
            {
                "data": "5:85272",
                "leaf": "clip",
                "type": "Leaf"
            }
        ],
        "type": "AVSplit"
    },
    {
        "children": [
            {
                "data": "5:54795",
                "leaf": "clip",
                "type": "Leaf"
            },
            {
                "data": "4:54795",
                "leaf": "clip",
                "type": "Leaf"
            }
        ],
        "type": "AVSplit"
    },
    {
        "children": [
            {
                "data": "4:26254",
                "leaf": "clip",
                "type": "Leaf"
            },
            {
                "data": "5:26254",
                "leaf": "clip",
                "type": "Leaf"
            }
        ],
        "type": "AVSplit"
    },
    {
        "children": [
            {
                "data": "4:87261",
                "leaf": "clip",
                "type": "Leaf"
            },
            {
                "data": "5:87261",
                "leaf": "clip",
                "type": "Leaf"
            }
        ],
        "type": "AVSplit"
    },
    {
        "children": [
            {
                "data": "5:11363",
                "leaf": "clip",
                "type": "Leaf"
            },
            {
                "data": "4:11363",
                "leaf": "clip",
                "type": "Leaf"
            }
        ],
        "type": "AVSplit"
    },
    {
        "children": [
            {
                "data": "4:44025",
                "leaf": "clip",
                "type": "Leaf"
            },
            {
                "data": "5:44025",
                "leaf": "clip",
                "type": "Leaf"
            }
        ],
        "type": "AVSplit"
    },
    {
        "children": [
            {
                "data": "5:11447",
                "leaf": "clip",
                "type": "Leaf"
            },
            {
                "data": "4:11447",
                "leaf": "clip",
                "type": "Leaf"
            }
        ],
        "type": "AVSplit"
    },
    {
        "children": [
            {
                "data": "4:75126",
                "leaf": "clip",
                "type": "Leaf"
            },
            {
                "data": "5:75126",
                "leaf": "clip",
                "type": "Leaf"
            }
        ],
        "type": "AVSplit"
    },
    {
        "children": [
            {
                "data": "4:15824",
                "leaf": "clip",
                "type": "Leaf"
            },
            {
                "data": "5:15824",
                "leaf": "clip",
                "type": "Leaf"
            }
        ],
        "type": "AVSplit"
    },
    {
        "children": [
            {
                "data": "4:6613",
                "leaf": "clip",
                "type": "Leaf"
            },
            {
                "data": "5:6613",
                "leaf": "clip",
                "type": "Leaf"
            }
        ],
        "type": "AVSplit"
    },
    {
        "children": [
            {
                "data": "5:40555",
                "leaf": "clip",
                "type": "Leaf"
            },
            {
                "data": "4:40555",
                "leaf": "clip",
                "type": "Leaf"
            }
        ],
        "type": "AVSplit"
    },
    {
        "children": [
            {
                "data": "5:53608",
                "leaf": "clip",
                "type": "Leaf"
            },
            {
                "data": "4:53608",
                "leaf": "clip",
                "type": "Leaf"
            }
        ],
        "type": "AVSplit"
    },
    {
        "children": [
            {
                "data": "5:11959",
                "leaf": "clip",
                "type": "Leaf"
            },
            {
                "data": "4:11959",
                "leaf": "clip",
                "type": "Leaf"
            }
        ],
        "type": "AVSplit"
    },
    {
        "children": [
            {
                "data": "4:5022",
                "leaf": "clip",
                "type": "Leaf"
            },
            {
                "data": "5:5022",
                "leaf": "clip",
                "type": "Leaf"
            }
        ],
        "type": "AVSplit"
    },
    {
        "children": [
            {
                "data": "4:84928",
                "leaf": "clip",
                "type": "Leaf"
            },
            {
                "data": "5:84928",
                "leaf": "clip",
                "type": "Leaf"
            }
        ],
        "type": "AVSplit"
    },
    {
        "children": [
            {
                "data": "4:86203",
                "leaf": "clip",
                "type": "Leaf"
            },
            {
                "data": "5:86203",
                "leaf": "clip",
                "type": "Leaf"
            }
        ],
        "type": "AVSplit"
    },
    {
        "children": [
            {
                "data": "5:15912",
                "leaf": "clip",
                "type": "Leaf"
            },
            {
                "data": "4:15912",
                "leaf": "clip",
                "type": "Leaf"
            }
        ],
        "type": "AVSplit"
    },
    {
        "children": [
            {
                "data": "5:25269",
                "leaf": "clip",
                "type": "Leaf"
            },
            {
                "data": "4:25269",
                "leaf": "clip",
                "type": "Leaf"
            }
        ],
        "type": "AVSplit"
    },
    {
        "children": [
            {
                "data": "4:62915",
                "leaf": "clip",
                "type": "Leaf"
            },
            {
                "data": "5:62915",
                "leaf": "clip",
                "type": "Leaf"
            }
        ],
        "type": "AVSplit"
    },
    {
        "children": [
            {
                "data": "5:1705",
                "leaf": "clip",
                "type": "Leaf"
            },
            {
                "data": "4:1705",
                "leaf": "clip",
                "type": "Leaf"
            }
        ],
        "type": "AVSplit"
    },
    {
        "children": [
            {
                "data": "4:41273",
                "leaf": "clip",
                "type": "Leaf"
            },
            {
                "data": "5:41273",
                "leaf": "clip",
                "type": "Leaf"
            }
        ],
        "type": "AVSplit"
    },
    {
        "children": [
            {
                "data": "4:75067",
                "leaf": "clip",
                "type": "Leaf"
            },
            {
                "data": "5:75067",
                "leaf": "clip",
                "type": "Leaf"
            }
        ],
        "type": "AVSplit"
    },
    {
        "children": [
            {
                "data": "4:74904",
                "leaf": "clip",
                "type": "Leaf"
            },
            {
                "data": "5:74904",
                "leaf": "clip",
                "type": "Leaf"
            }
        ],
        "type": "AVSplit"
    },
    {
        "children": [
            {
                "data": "4:43625",
                "leaf": "clip",
                "type": "Leaf"
            },
            {
                "data": "5:43625",
                "leaf": "clip",
                "type": "Leaf"
            }
        ],
        "type": "AVSplit"
    },
    {
        "children": [
            {
                "data": "5:14177",
                "leaf": "clip",
                "type": "Leaf"
            },
            {
                "data": "4:14177",
                "leaf": "clip",
                "type": "Leaf"
            }
        ],
        "type": "AVSplit"
    },
    {
        "children": [
            {
                "data": "5:15969",
                "leaf": "clip",
                "type": "Leaf"
            },
            {
                "data": "4:15969",
                "leaf": "clip",
                "type": "Leaf"
            }
        ],
        "type": "AVSplit"
    },
    {
        "children": [
            {
                "data": "4:12139",
                "leaf": "clip",
                "type": "Leaf"
            },
            {
                "data": "5:12139",
                "leaf": "clip",
                "type": "Leaf"
            }
        ],
        "type": "AVSplit"
    },
    {
        "children": [
            {
                "data": "4:74624",
                "leaf": "clip",
                "type": "Leaf"
            },
            {
                "data": "5:74624",
                "leaf": "clip",
                "type": "Leaf"
            }
        ],
        "type": "AVSplit"
    },
    {
        "children": [
            {
                "data": "4:74545",
                "leaf": "clip",
                "type": "Leaf"
            },
            {
                "data": "5:74545",
                "leaf": "clip",
                "type": "Leaf"
            }
        ],
        "type": "AVSplit"
    },
    {
        "children": [
            {
                "data": "5:92528",
                "leaf": "clip",
                "type": "Leaf"
            },
            {
                "data": "4:92528",
                "leaf": "clip",
                "type": "Leaf"
            }
        ],
        "type": "AVSplit"
    },
    {
        "children": [
            {
                "data": "4:18811",
                "leaf": "clip",
                "type": "Leaf"
            },
            {
                "data": "5:18811",
                "leaf": "clip",
                "type": "Leaf"
            }
        ],
        "type": "AVSplit"
    },
    {
        "children": [
            {
                "data": "4:51169",
                "leaf": "clip",
                "type": "Leaf"
            },
            {
                "data": "5:51169",
                "leaf": "clip",
                "type": "Leaf"
            }
        ],
        "type": "AVSplit"
    },
    {
        "children": [
            {
                "data": "4:73122",
                "leaf": "clip",
                "type": "Leaf"
            },
            {
                "data": "5:73122",
                "leaf": "clip",
                "type": "Leaf"
            }
        ],
        "type": "AVSplit"
    },
    {
        "children": [
            {
                "data": "4:88611",
                "leaf": "clip",
                "type": "Leaf"
            },
            {
                "data": "5:88611",
                "leaf": "clip",
                "type": "Leaf"
            }
        ],
        "type": "AVSplit"
    },
    {
        "children": [
            {
                "data": "4:74592",
                "leaf": "clip",
                "type": "Leaf"
            },
            {
                "data": "5:74592",
                "leaf": "clip",
                "type": "Leaf"
            }
        ],
        "type": "AVSplit"
    },
    {
        "children": [
            {
                "data": "4:74396",
                "leaf": "clip",
                "type": "Leaf"
            },
            {
                "data": "5:74396",
                "leaf": "clip",
                "type": "Leaf"
            }
        ],
        "type": "AVSplit"
    },
    {
        "children": [
            {
                "data": "3:74378",
                "leaf": "clip",
                "type": "Leaf"
            },
            {
                "data": "6:74378",
                "leaf": "clip",
                "type": "Leaf"
            }
        ],
        "type": "AVSplit"
    },
    {
        "children": [
            {
                "data": "5:94691",
                "leaf": "clip",
                "type": "Leaf"
            },
            {
                "data": "4:94691",
                "leaf": "clip",
                "type": "Leaf"
            }
        ],
        "type": "AVSplit"
    },
    {
        "children": [
            {
                "data": "5:74270",
                "leaf": "clip",
                "type": "Leaf"
            },
            {
                "data": "4:74270",
                "leaf": "clip",
                "type": "Leaf"
            }
        ],
        "type": "AVSplit"
    },
    {
        "children": [
            {
                "data": "5:93877",
                "leaf": "clip",
                "type": "Leaf"
            },
            {
                "data": "4:93877",
                "leaf": "clip",
                "type": "Leaf"
            }
        ],
        "type": "AVSplit"
    },
    {
        "children": [
            {
                "data": "5:74121",
                "leaf": "clip",
                "type": "Leaf"
            },
            {
                "data": "4:74121",
                "leaf": "clip",
                "type": "Leaf"
            }
        ],
        "type": "AVSplit"
    },
    {
        "children": [
            {
                "data": "5:95723",
                "leaf": "clip",
                "type": "Leaf"
            },
            {
                "data": "4:95723",
                "leaf": "clip",
                "type": "Leaf"
            }
        ],
        "type": "AVSplit"
    },
    {
        "children": [
            {
                "data": "5:52086",
                "leaf": "clip",
                "type": "Leaf"
            },
            {
                "data": "4:52086",
                "leaf": "clip",
                "type": "Leaf"
            }
        ],
        "type": "AVSplit"
    },
    {
        "children": [
            {
                "data": "4:87901",
                "leaf": "clip",
                "type": "Leaf"
            },
            {
                "data": "5:87901",
                "leaf": "clip",
                "type": "Leaf"
            }
        ],
        "type": "AVSplit"
    },
    {
        "children": [
            {
                "data": "4:16420",
                "leaf": "clip",
                "type": "Leaf"
            },
            {
                "data": "5:16420",
                "leaf": "clip",
                "type": "Leaf"
            }
        ],
        "type": "AVSplit"
    },
    {
        "children": [
            {
                "data": "5:53340",
                "leaf": "clip",
                "type": "Leaf"
            },
            {
                "data": "4:53340",
                "leaf": "clip",
                "type": "Leaf"
            }
        ],
        "type": "AVSplit"
    },
    {
        "children": [
            {
                "data": "4:15527",
                "leaf": "clip",
                "type": "Leaf"
            },
            {
                "data": "5:15527",
                "leaf": "clip",
                "type": "Leaf"
            }
        ],
        "type": "AVSplit"
    },
    {
        "children": [
            {
                "data": "5:20405",
                "leaf": "clip",
                "type": "Leaf"
            },
            {
                "data": "4:20405",
                "leaf": "clip",
                "type": "Leaf"
            }
        ],
        "type": "AVSplit"
    },
    {
        "children": [
            {
                "data": "5:77088",
                "leaf": "clip",
                "type": "Leaf"
            },
            {
                "data": "4:77088",
                "leaf": "clip",
                "type": "Leaf"
            }
        ],
        "type": "AVSplit"
    },
    {
        "children": [
            {
                "data": "4:74033",
                "leaf": "clip",
                "type": "Leaf"
            },
            {
                "data": "5:74033",
                "leaf": "clip",
                "type": "Leaf"
            }
        ],
        "type": "AVSplit"
    },
    {
        "children": [
            {
                "data": "4:22790",
                "leaf": "clip",
                "type": "Leaf"
            },
            {
                "data": "5:22790",
                "leaf": "clip",
                "type": "Leaf"
            }
        ],
        "type": "AVSplit"
    },
    {
        "children": [
            {
                "data": "4:67634",
                "leaf": "clip",
                "type": "Leaf"
            },
            {
                "data": "5:67634",
                "leaf": "clip",
                "type": "Leaf"
            }
        ],
        "type": "AVSplit"
    },
    {
        "children": [
            {
                "data": "4:95555",
                "leaf": "clip",
                "type": "Leaf"
            },
            {
                "data": "5:95555",
                "leaf": "clip",
                "type": "Leaf"
            }
        ],
        "type": "AVSplit"
    },
    {
        "children": [
            {
                "data": "4:73642",
                "leaf": "clip",
                "type": "Leaf"
            },
            {
                "data": "5:73642",
                "leaf": "clip",
                "type": "Leaf"
            }
        ],
        "type": "AVSplit"
    },
    {
        "children": [
            {
                "data": "5:72750",
                "leaf": "clip",
                "type": "Leaf"
            },
            {
                "data": "4:72750",
                "leaf": "clip",
                "type": "Leaf"
            }
        ],
        "type": "AVSplit"
    },
    {
        "children": [
            {
                "data": "6:70125",
                "leaf": "clip",
                "type": "Leaf"
            },
            {
                "data": "3:70125",
                "leaf": "clip",
                "type": "Leaf"
            }
        ],
        "type": "AVSplit"
    },
    {
        "children": [
            {
                "data": "4:35609",
                "leaf": "clip",
                "type": "Leaf"
            },
            {
                "data": "5:35609",
                "leaf": "clip",
                "type": "Leaf"
            }
        ],
        "type": "AVSplit"
    },
    {
        "children": [
            {
                "data": "5:26795",
                "leaf": "clip",
                "type": "Leaf"
            },
            {
                "data": "4:26795",
                "leaf": "clip",
                "type": "Leaf"
            }
        ],
        "type": "AVSplit"
    },
    {
        "children": [
            {
                "data": "4:43868",
                "leaf": "clip",
                "type": "Leaf"
            },
            {
                "data": "5:43868",
                "leaf": "clip",
                "type": "Leaf"
            }
        ],
        "type": "AVSplit"
    },
    {
        "children": [
            {
                "data": "5:67840",
                "leaf": "clip",
                "type": "Leaf"
            },
            {
                "data": "4:67840",
                "leaf": "clip",
                "type": "Leaf"
            }
        ],
        "type": "AVSplit"
    },
    {
        "children": [
            {
                "data": "5:53042",
                "leaf": "clip",
                "type": "Leaf"
            },
            {
                "data": "4:53042",
                "leaf": "clip",
                "type": "Leaf"
            }
        ],
        "type": "AVSplit"
    },
    {
        "children": [
            {
                "data": "5:84060",
                "leaf": "clip",
                "type": "Leaf"
            },
            {
                "data": "4:84060",
                "leaf": "clip",
                "type": "Leaf"
            }
        ],
        "type": "AVSplit"
    },
    {
        "children": [
            {
                "data": "4:72060",
                "leaf": "clip",
                "type": "Leaf"
            },
            {
                "data": "5:72060",
                "leaf": "clip",
                "type": "Leaf"
            }
        ],
        "type": "AVSplit"
    },
    {
        "children": [
            {
                "data": "4:25812",
                "leaf": "clip",
                "type": "Leaf"
            },
            {
                "data": "5:25812",
                "leaf": "clip",
                "type": "Leaf"
            }
        ],
        "type": "AVSplit"
    },
    {
        "children": [
            {
                "data": "4:91363",
                "leaf": "clip",
                "type": "Leaf"
            },
            {
                "data": "5:91363",
                "leaf": "clip",
                "type": "Leaf"
            }
        ],
        "type": "AVSplit"
    },
    {
        "children": [
            {
                "data": "4:16770",
                "leaf": "clip",
                "type": "Leaf"
            },
            {
                "data": "5:16770",
                "leaf": "clip",
                "type": "Leaf"
            }
        ],
        "type": "AVSplit"
    },
    {
        "children": [
            {
                "data": "4:71953",
                "leaf": "clip",
                "type": "Leaf"
            },
            {
                "data": "5:71953",
                "leaf": "clip",
                "type": "Leaf"
            }
        ],
        "type": "AVSplit"
    },
    {
        "children": [
            {
                "data": "4:25739",
                "leaf": "clip",
                "type": "Leaf"
            },
            {
                "data": "5:25739",
                "leaf": "clip",
                "type": "Leaf"
            }
        ],
        "type": "AVSplit"
    },
    {
        "children": [
            {
                "data": "4:16963",
                "leaf": "clip",
                "type": "Leaf"
            },
            {
                "data": "5:16963",
                "leaf": "clip",
                "type": "Leaf"
            }
        ],
        "type": "AVSplit"
    },
    {
        "children": [
            {
                "data": "5:52812",
                "leaf": "clip",
                "type": "Leaf"
            },
            {
                "data": "4:52812",
                "leaf": "clip",
                "type": "Leaf"
            }
        ],
        "type": "AVSplit"
    },
    {
        "children": [
            {
                "data": "4:88071",
                "leaf": "clip",
                "type": "Leaf"
            },
            {
                "data": "5:88071",
                "leaf": "clip",
                "type": "Leaf"
            }
        ],
        "type": "AVSplit"
    },
    {
        "children": [
            {
                "data": "4:24895",
                "leaf": "clip",
                "type": "Leaf"
            },
            {
                "data": "5:24895",
                "leaf": "clip",
                "type": "Leaf"
            }
        ],
        "type": "AVSplit"
    },
    {
        "children": [
            {
                "data": "5:13876",
                "leaf": "clip",
                "type": "Leaf"
            },
            {
                "data": "4:13876",
                "leaf": "clip",
                "type": "Leaf"
            }
        ],
        "type": "AVSplit"
    },
    {
        "children": [
            {
                "data": "5:3081",
                "leaf": "clip",
                "type": "Leaf"
            },
            {
                "data": "4:3081",
                "leaf": "clip",
                "type": "Leaf"
            }
        ],
        "type": "AVSplit"
    },
    {
        "children": [
            {
                "data": "5:51875",
                "leaf": "clip",
                "type": "Leaf"
            },
            {
                "data": "4:51875",
                "leaf": "clip",
                "type": "Leaf"
            }
        ],
        "type": "AVSplit"
    },
    {
        "children": [
            {
                "data": "5:66691",
                "leaf": "clip",
                "type": "Leaf"
            },
            {
                "data": "4:66691",
                "leaf": "clip",
                "type": "Leaf"
            }
        ],
        "type": "AVSplit"
    },
    {
        "children": [
            {
                "data": "5:11701",
                "leaf": "clip",
                "type": "Leaf"
            },
            {
                "data": "4:11701",
                "leaf": "clip",
                "type": "Leaf"
            }
        ],
        "type": "AVSplit"
    },
    {
        "children": [
            {
                "data": "4:58252",
                "leaf": "clip",
                "type": "Leaf"
            },
            {
                "data": "5:58252",
                "leaf": "clip",
                "type": "Leaf"
            }
        ],
        "type": "AVSplit"
    },
    {
        "children": [
            {
                "data": "4:71176",
                "leaf": "clip",
                "type": "Leaf"
            },
            {
                "data": "5:71176",
                "leaf": "clip",
                "type": "Leaf"
            }
        ],
        "type": "AVSplit"
    },
    {
        "children": [
            {
                "data": "5:25958",
                "leaf": "clip",
                "type": "Leaf"
            },
            {
                "data": "4:25958",
                "leaf": "clip",
                "type": "Leaf"
            }
        ],
        "type": "AVSplit"
    },
    {
        "children": [
            {
                "data": "4:69128",
                "leaf": "clip",
                "type": "Leaf"
            },
            {
                "data": "5:69128",
                "leaf": "clip",
                "type": "Leaf"
            }
        ],
        "type": "AVSplit"
    },
    {
        "children": [
            {
                "data": "4:27790",
                "leaf": "clip",
                "type": "Leaf"
            },
            {
                "data": "5:27790",
                "leaf": "clip",
                "type": "Leaf"
            }
        ],
        "type": "AVSplit"
    },
    {
        "children": [
            {
                "data": "5:24434",
                "leaf": "clip",
                "type": "Leaf"
            },
            {
                "data": "4:24434",
                "leaf": "clip",
                "type": "Leaf"
            }
        ],
        "type": "AVSplit"
    },
    {
        "children": [
            {
                "data": "4:40035",
                "leaf": "clip",
                "type": "Leaf"
            },
            {
                "data": "5:40035",
                "leaf": "clip",
                "type": "Leaf"
            }
        ],
        "type": "AVSplit"
    },
    {
        "children": [
            {
                "data": "5:90401",
                "leaf": "clip",
                "type": "Leaf"
            },
            {
                "data": "4:90401",
                "leaf": "clip",
                "type": "Leaf"
            }
        ],
        "type": "AVSplit"
    },
    {
        "children": [
            {
                "data": "5:83594",
                "leaf": "clip",
                "type": "Leaf"
            },
            {
                "data": "4:83594",
                "leaf": "clip",
                "type": "Leaf"
            }
        ],
        "type": "AVSplit"
    },
    {
        "children": [
            {
                "data": "5:34696",
                "leaf": "clip",
                "type": "Leaf"
            },
            {
                "data": "4:34696",
                "leaf": "clip",
                "type": "Leaf"
            }
        ],
        "type": "AVSplit"
    },
    {
        "children": [
            {
                "data": "5:43537",
                "leaf": "clip",
                "type": "Leaf"
            },
            {
                "data": "4:43537",
                "leaf": "clip",
                "type": "Leaf"
            }
        ],
        "type": "AVSplit"
    },
    {
        "children": [
            {
                "data": "5:71564",
                "leaf": "clip",
                "type": "Leaf"
            },
            {
                "data": "4:71564",
                "leaf": "clip",
                "type": "Leaf"
            }
        ],
        "type": "AVSplit"
    },
    {
        "children": [
            {
                "data": "5:64585",
                "leaf": "clip",
                "type": "Leaf"
            },
            {
                "data": "4:64585",
                "leaf": "clip",
                "type": "Leaf"
            }
        ],
        "type": "AVSplit"
    },
    {
        "children": [
            {
                "data": "5:25316",
                "leaf": "clip",
                "type": "Leaf"
            },
            {
                "data": "4:25316",
                "leaf": "clip",
                "type": "Leaf"
            }
        ],
        "type": "AVSplit"
    },
    {
        "children": [
            {
                "data": "4:30810",
                "leaf": "clip",
                "type": "Leaf"
            },
            {
                "data": "5:30810",
                "leaf": "clip",
                "type": "Leaf"
            }
        ],
        "type": "AVSplit"
    },
    {
        "children": [
            {
                "data": "5:38293",
                "leaf": "clip",
                "type": "Leaf"
            },
            {
                "data": "4:38293",
                "leaf": "clip",
                "type": "Leaf"
            }
        ],
        "type": "AVSplit"
    },
    {
        "children": [
            {
                "data": "5:32063",
                "leaf": "clip",
                "type": "Leaf"
            },
            {
                "data": "4:32063",
                "leaf": "clip",
                "type": "Leaf"
            }
        ],
        "type": "AVSplit"
    },
    {
        "children": [
            {
                "data": "5:75887",
                "leaf": "clip",
                "type": "Leaf"
            },
            {
                "data": "4:75887",
                "leaf": "clip",
                "type": "Leaf"
            }
        ],
        "type": "AVSplit"
    },
    {
        "children": [
            {
                "data": "4:37142",
                "leaf": "clip",
                "type": "Leaf"
            },
            {
                "data": "5:37142",
                "leaf": "clip",
                "type": "Leaf"
            }
        ],
        "type": "AVSplit"
    },
    {
        "children": [
            {
                "data": "5:71125",
                "leaf": "clip",
                "type": "Leaf"
            },
            {
                "data": "4:71125",
                "leaf": "clip",
                "type": "Leaf"
            }
        ],
        "type": "AVSplit"
    },
    {
        "children": [
            {
                "data": "5:31204",
                "leaf": "clip",
                "type": "Leaf"
            },
            {
                "data": "4:31204",
                "leaf": "clip",
                "type": "Leaf"
            }
        ],
        "type": "AVSplit"
    },
    {
        "children": [
            {
                "data": "5:68640",
                "leaf": "clip",
                "type": "Leaf"
            },
            {
                "data": "4:68640",
                "leaf": "clip",
                "type": "Leaf"
            }
        ],
        "type": "AVSplit"
    },
    {
        "children": [
            {
                "data": "5:46041",
                "leaf": "clip",
                "type": "Leaf"
            },
            {
                "data": "4:46041",
                "leaf": "clip",
                "type": "Leaf"
            }
        ],
        "type": "AVSplit"
    },
    {
        "children": [
            {
                "data": "5:1447",
                "leaf": "clip",
                "type": "Leaf"
            },
            {
                "data": "4:1447",
                "leaf": "clip",
                "type": "Leaf"
            }
        ],
        "type": "AVSplit"
    },
    {
        "children": [
            {
                "data": "4:67245",
                "leaf": "clip",
                "type": "Leaf"
            },
            {
                "data": "5:67245",
                "leaf": "clip",
                "type": "Leaf"
            }
        ],
        "type": "AVSplit"
    },
    {
        "children": [
            {
                "data": "4:70979",
                "leaf": "clip",
                "type": "Leaf"
            },
            {
                "data": "5:70979",
                "leaf": "clip",
                "type": "Leaf"
            }
        ],
        "type": "AVSplit"
    },
    {
        "children": [
            {
                "data": "5:65969",
                "leaf": "clip",
                "type": "Leaf"
            },
            {
                "data": "4:65969",
                "leaf": "clip",
                "type": "Leaf"
            }
        ],
        "type": "AVSplit"
    },
    {
        "children": [
            {
                "data": "5:23431",
                "leaf": "clip",
                "type": "Leaf"
            },
            {
                "data": "4:23431",
                "leaf": "clip",
                "type": "Leaf"
            }
        ],
        "type": "AVSplit"
    },
    {
        "children": [
            {
                "data": "4:83406",
                "leaf": "clip",
                "type": "Leaf"
            },
            {
                "data": "5:83406",
                "leaf": "clip",
                "type": "Leaf"
            }
        ],
        "type": "AVSplit"
    },
    {
        "children": [
            {
                "data": "4:20573",
                "leaf": "clip",
                "type": "Leaf"
            },
            {
                "data": "5:20573",
                "leaf": "clip",
                "type": "Leaf"
            }
        ],
        "type": "AVSplit"
    },
    {
        "children": [
            {
                "data": "5:17643",
                "leaf": "clip",
                "type": "Leaf"
            },
            {
                "data": "4:17643",
                "leaf": "clip",
                "type": "Leaf"
            }
        ],
        "type": "AVSplit"
    },
    {
        "children": [
            {
                "data": "4:70782",
                "leaf": "clip",
                "type": "Leaf"
            },
            {
                "data": "5:70782",
                "leaf": "clip",
                "type": "Leaf"
            }
        ],
        "type": "AVSplit"
    },
    {
        "children": [
            {
                "data": "5:48102",
                "leaf": "clip",
                "type": "Leaf"
            },
            {
                "data": "4:48102",
                "leaf": "clip",
                "type": "Leaf"
            }
        ],
        "type": "AVSplit"
    },
    {
        "children": [
            {
                "data": "4:89224",
                "leaf": "clip",
                "type": "Leaf"
            },
            {
                "data": "5:89224",
                "leaf": "clip",
                "type": "Leaf"
            }
        ],
        "type": "AVSplit"
    },
    {
        "children": [
            {
                "data": "5:52740",
                "leaf": "clip",
                "type": "Leaf"
            },
            {
                "data": "4:52740",
                "leaf": "clip",
                "type": "Leaf"
            }
        ],
        "type": "AVSplit"
    },
    {
        "children": [
            {
                "data": "4:34783",
                "leaf": "clip",
                "type": "Leaf"
            },
            {
                "data": "5:34783",
                "leaf": "clip",
                "type": "Leaf"
            }
        ],
        "type": "AVSplit"
    },
    {
        "children": [
            {
                "data": "5:31955",
                "leaf": "clip",
                "type": "Leaf"
            },
            {
                "data": "4:31955",
                "leaf": "clip",
                "type": "Leaf"
            }
        ],
        "type": "AVSplit"
    },
    {
        "children": [
            {
                "data": "5:2011",
                "leaf": "clip",
                "type": "Leaf"
            },
            {
                "data": "4:2011",
                "leaf": "clip",
                "type": "Leaf"
            }
        ],
        "type": "AVSplit"
    },
    {
        "children": [
            {
                "data": "5:35063",
                "leaf": "clip",
                "type": "Leaf"
            },
            {
                "data": "4:35063",
                "leaf": "clip",
                "type": "Leaf"
            }
        ],
        "type": "AVSplit"
    },
    {
        "children": [
            {
                "data": "4:54576",
                "leaf": "clip",
                "type": "Leaf"
            },
            {
                "data": "5:54576",
                "leaf": "clip",
                "type": "Leaf"
            }
        ],
        "type": "AVSplit"
    },
    {
        "children": [
            {
                "data": "4:55693",
                "leaf": "clip",
                "type": "Leaf"
            },
            {
                "data": "5:55693",
                "leaf": "clip",
                "type": "Leaf"
            }
        ],
        "type": "AVSplit"
    },
    {
        "children": [
            {
                "data": "4:90968",
                "leaf": "clip",
                "type": "Leaf"
            },
            {
                "data": "5:90968",
                "leaf": "clip",
                "type": "Leaf"
            }
        ],
        "type": "AVSplit"
    },
    {
        "children": [
            {
                "data": "4:42907",
                "leaf": "clip",
                "type": "Leaf"
            },
            {
                "data": "5:42907",
                "leaf": "clip",
                "type": "Leaf"
            }
        ],
        "type": "AVSplit"
    },
    {
        "children": [
            {
                "data": "3:70222",
                "leaf": "clip",
                "type": "Leaf"
            },
            {
                "data": "6:70222",
                "leaf": "clip",
                "type": "Leaf"
            }
        ],
        "type": "AVSplit"
    },
    {
        "children": [
            {
                "data": "4:83243",
                "leaf": "clip",
                "type": "Leaf"
            },
            {
                "data": "5:83243",
                "leaf": "clip",
                "type": "Leaf"
            }
        ],
        "type": "AVSplit"
    },
    {
        "children": [
            {
                "data": "3:70420",
                "leaf": "clip",
                "type": "Leaf"
            },
            {
                "data": "6:70420",
                "leaf": "clip",
                "type": "Leaf"
            }
        ],
        "type": "AVSplit"
    },
    {
        "children": [
            {
                "data": "4:63435",
                "leaf": "clip",
                "type": "Leaf"
            },
            {
                "data": "5:63435",
                "leaf": "clip",
                "type": "Leaf"
            }
        ],
        "type": "AVSplit"
    },
    {
        "children": [
            {
                "data": "4:51840",
                "leaf": "clip",
                "type": "Leaf"
            },
            {
                "data": "5:51840",
                "leaf": "clip",
                "type": "Leaf"
            }
        ],
        "type": "AVSplit"
    },
    {
        "children": [
            {
                "data": "5:29115",
                "leaf": "clip",
                "type": "Leaf"
            },
            {
                "data": "4:29115",
                "leaf": "clip",
                "type": "Leaf"
            }
        ],
        "type": "AVSplit"
    },
    {
        "children": [
            {
                "data": "5:94863",
                "leaf": "clip",
                "type": "Leaf"
            },
            {
                "data": "4:94863",
                "leaf": "clip",
                "type": "Leaf"
            }
        ],
        "type": "AVSplit"
    },
    {
        "children": [
            {
                "data": "5:21223",
                "leaf": "clip",
                "type": "Leaf"
            },
            {
                "data": "4:21223",
                "leaf": "clip",
                "type": "Leaf"
            }
        ],
        "type": "AVSplit"
    },
    {
        "children": [
            {
                "data": "6:70080",
                "leaf": "clip",
                "type": "Leaf"
            },
            {
                "data": "3:70080",
                "leaf": "clip",
                "type": "Leaf"
            }
        ],
        "type": "AVSplit"
    },
    {
        "children": [
            {
                "data": "5:21968",
                "leaf": "clip",
                "type": "Leaf"
            },
            {
                "data": "4:21968",
                "leaf": "clip",
                "type": "Leaf"
            }
        ],
        "type": "AVSplit"
    },
    {
        "children": [
            {
                "data": "6:48870",
                "leaf": "clip",
                "type": "Leaf"
            },
            {
                "data": "3:48870",
                "leaf": "clip",
                "type": "Leaf"
            }
        ],
        "type": "AVSplit"
    },
    {
        "children": [
            {
                "data": "4:19483",
                "leaf": "clip",
                "type": "Leaf"
            },
            {
                "data": "5:19483",
                "leaf": "clip",
                "type": "Leaf"
            }
        ],
        "type": "AVSplit"
    },
    {
        "children": [
            {
                "data": "4:89974",
                "leaf": "clip",
                "type": "Leaf"
            },
            {
                "data": "5:89974",
                "leaf": "clip",
                "type": "Leaf"
            }
        ],
        "type": "AVSplit"
    },
    {
        "children": [
            {
                "data": "4:59681",
                "leaf": "clip",
                "type": "Leaf"
            },
            {
                "data": "5:59681",
                "leaf": "clip",
                "type": "Leaf"
            }
        ],
        "type": "AVSplit"
    },
    {
        "children": [
            {
                "data": "4:69508",
                "leaf": "clip",
                "type": "Leaf"
            },
            {
                "data": "5:69508",
                "leaf": "clip",
                "type": "Leaf"
            }
        ],
        "type": "AVSplit"
    },
    {
        "children": [
            {
                "data": "4:15025",
                "leaf": "clip",
                "type": "Leaf"
            },
            {
                "data": "5:15025",
                "leaf": "clip",
                "type": "Leaf"
            }
        ],
        "type": "AVSplit"
    },
    {
        "children": [
            {
                "data": "4:19790",
                "leaf": "clip",
                "type": "Leaf"
            },
            {
                "data": "5:19790",
                "leaf": "clip",
                "type": "Leaf"
            }
        ],
        "type": "AVSplit"
    },
    {
        "children": [
            {
                "data": "5:61723",
                "leaf": "clip",
                "type": "Leaf"
            },
            {
                "data": "4:61723",
                "leaf": "clip",
                "type": "Leaf"
            }
        ],
        "type": "AVSplit"
    },
    {
        "children": [
            {
                "data": "4:73412",
                "leaf": "clip",
                "type": "Leaf"
            },
            {
                "data": "5:73412",
                "leaf": "clip",
                "type": "Leaf"
            }
        ],
        "type": "AVSplit"
    },
    {
        "children": [
            {
                "data": "5:10688",
                "leaf": "clip",
                "type": "Leaf"
            },
            {
                "data": "4:10688",
                "leaf": "clip",
                "type": "Leaf"
            }
        ],
        "type": "AVSplit"
    },
    {
        "children": [
            {
                "data": "4:93753",
                "leaf": "clip",
                "type": "Leaf"
            },
            {
                "data": "5:93753",
                "leaf": "clip",
                "type": "Leaf"
            }
        ],
        "type": "AVSplit"
    },
    {
        "children": [
            {
                "data": "5:59806",
                "leaf": "clip",
                "type": "Leaf"
            },
            {
                "data": "4:59806",
                "leaf": "clip",
                "type": "Leaf"
            }
        ],
        "type": "AVSplit"
    },
    {
        "children": [
            {
                "data": "5:93207",
                "leaf": "clip",
                "type": "Leaf"
            },
            {
                "data": "4:93207",
                "leaf": "clip",
                "type": "Leaf"
            }
        ],
        "type": "AVSplit"
    },
    {
        "children": [
            {
                "data": "4:82772",
                "leaf": "clip",
                "type": "Leaf"
            },
            {
                "data": "5:82772",
                "leaf": "clip",
                "type": "Leaf"
            }
        ],
        "type": "AVSplit"
    },
    {
        "children": [
            {
                "data": "4:88970",
                "leaf": "clip",
                "type": "Leaf"
            },
            {
                "data": "5:88970",
                "leaf": "clip",
                "type": "Leaf"
            }
        ],
        "type": "AVSplit"
    },
    {
        "children": [
            {
                "data": "4:51529",
                "leaf": "clip",
                "type": "Leaf"
            },
            {
                "data": "5:51529",
                "leaf": "clip",
                "type": "Leaf"
            }
        ],
        "type": "AVSplit"
    },
    {
        "children": [
            {
                "data": "4:73197",
                "leaf": "clip",
                "type": "Leaf"
            },
            {
                "data": "5:73197",
                "leaf": "clip",
                "type": "Leaf"
            }
        ],
        "type": "AVSplit"
    },
    {
        "children": [
            {
                "data": "4:59536",
                "leaf": "clip",
                "type": "Leaf"
            },
            {
                "data": "5:59536",
                "leaf": "clip",
                "type": "Leaf"
            }
        ],
        "type": "AVSplit"
    },
    {
        "children": [
            {
                "data": "4:73046",
                "leaf": "clip",
                "type": "Leaf"
            },
            {
                "data": "5:73046",
                "leaf": "clip",
                "type": "Leaf"
            }
        ],
        "type": "AVSplit"
    },
    {
        "children": [
            {
                "data": "4:33643",
                "leaf": "clip",
                "type": "Leaf"
            },
            {
                "data": "5:33643",
                "leaf": "clip",
                "type": "Leaf"
            }
        ],
        "type": "AVSplit"
    },
    {
        "children": [
            {
                "data": "5:37601",
                "leaf": "clip",
                "type": "Leaf"
            },
            {
                "data": "4:37601",
                "leaf": "clip",
                "type": "Leaf"
            }
        ],
        "type": "AVSplit"
    },
    {
        "children": [
            {
                "data": "4:28168",
                "leaf": "clip",
                "type": "Leaf"
            },
            {
                "data": "5:28168",
                "leaf": "clip",
                "type": "Leaf"
            }
        ],
        "type": "AVSplit"
    },
    {
        "children": [
            {
                "data": "4:21332",
                "leaf": "clip",
                "type": "Leaf"
            },
            {
                "data": "5:21332",
                "leaf": "clip",
                "type": "Leaf"
            }
        ],
        "type": "AVSplit"
    },
    {
        "children": [
            {
                "data": "4:9989",
                "leaf": "clip",
                "type": "Leaf"
            },
            {
                "data": "5:9989",
                "leaf": "clip",
                "type": "Leaf"
            }
        ],
        "type": "AVSplit"
    },
    {
        "children": [
            {
                "data": "4:88279",
                "leaf": "clip",
                "type": "Leaf"
            },
            {
                "data": "5:88279",
                "leaf": "clip",
                "type": "Leaf"
            }
        ],
        "type": "AVSplit"
    },
    {
        "children": [
            {
                "data": "5:48689",
                "leaf": "clip",
                "type": "Leaf"
            },
            {
                "data": "4:48689",
                "leaf": "clip",
                "type": "Leaf"
            }
        ],
        "type": "AVSplit"
    },
    {
        "children": [
            {
                "data": "5:8983",
                "leaf": "clip",
                "type": "Leaf"
            },
            {
                "data": "4:8983",
                "leaf": "clip",
                "type": "Leaf"
            }
        ],
        "type": "AVSplit"
    },
    {
        "children": [
            {
                "data": "4:66949",
                "leaf": "clip",
                "type": "Leaf"
            },
            {
                "data": "5:66949",
                "leaf": "clip",
                "type": "Leaf"
            }
        ],
        "type": "AVSplit"
    },
    {
        "children": [
            {
                "data": "4:15215",
                "leaf": "clip",
                "type": "Leaf"
            },
            {
                "data": "5:15215",
                "leaf": "clip",
                "type": "Leaf"
            }
        ],
        "type": "AVSplit"
    },
    {
        "children": [
            {
                "data": "4:45198",
                "leaf": "clip",
                "type": "Leaf"
            },
            {
                "data": "5:45198",
                "leaf": "clip",
                "type": "Leaf"
            }
        ],
        "type": "AVSplit"
    },
    {
        "children": [
            {
                "data": "5:1921",
                "leaf": "clip",
                "type": "Leaf"
            },
            {
                "data": "4:1921",
                "leaf": "clip",
                "type": "Leaf"
            }
        ],
        "type": "AVSplit"
    },
    {
        "children": [
            {
                "data": "5:64876",
                "leaf": "clip",
                "type": "Leaf"
            },
            {
                "data": "4:64876",
                "leaf": "clip",
                "type": "Leaf"
            }
        ],
        "type": "AVSplit"
    },
    {
        "children": [
            {
                "data": "5:67784",
                "leaf": "clip",
                "type": "Leaf"
            },
            {
                "data": "4:67784",
                "leaf": "clip",
                "type": "Leaf"
            }
        ],
        "type": "AVSplit"
    },
    {
        "children": [
            {
                "data": "5:49043",
                "leaf": "clip",
                "type": "Leaf"
            },
            {
                "data": "4:49043",
                "leaf": "clip",
                "type": "Leaf"
            }
        ],
        "type": "AVSplit"
    },
    {
        "children": [
            {
                "data": "5:18233",
                "leaf": "clip",
                "type": "Leaf"
            },
            {
                "data": "4:18233",
                "leaf": "clip",
                "type": "Leaf"
            }
        ],
        "type": "AVSplit"
    },
    {
        "children": [
            {
                "data": "5:82613",
                "leaf": "clip",
                "type": "Leaf"
            },
            {
                "data": "4:82613",
                "leaf": "clip",
                "type": "Leaf"
            }
        ],
        "type": "AVSplit"
    },
    {
        "children": [
            {
                "data": "4:1256",
                "leaf": "clip",
                "type": "Leaf"
            },
            {
                "data": "5:1256",
                "leaf": "clip",
                "type": "Leaf"
            }
        ],
        "type": "AVSplit"
    },
    {
        "children": [
            {
                "data": "5:87072",
                "leaf": "clip",
                "type": "Leaf"
            },
            {
                "data": "4:87072",
                "leaf": "clip",
                "type": "Leaf"
            }
        ],
        "type": "AVSplit"
    },
    {
        "children": [
            {
                "data": "4:48749",
                "leaf": "clip",
                "type": "Leaf"
            },
            {
                "data": "5:48749",
                "leaf": "clip",
                "type": "Leaf"
            }
        ],
        "type": "AVSplit"
    },
    {
        "children": [
            {
                "data": "4:60275",
                "leaf": "clip",
                "type": "Leaf"
            },
            {
                "data": "5:60275",
                "leaf": "clip",
                "type": "Leaf"
            }
        ],
        "type": "AVSplit"
    },
    {
        "children": [
            {
                "data": "5:71366",
                "leaf": "clip",
                "type": "Leaf"
            },
            {
                "data": "4:71366",
                "leaf": "clip",
                "type": "Leaf"
            }
        ],
        "type": "AVSplit"
    },
    {
        "children": [
            {
                "data": "5:78980",
                "leaf": "clip",
                "type": "Leaf"
            },
            {
                "data": "4:78980",
                "leaf": "clip",
                "type": "Leaf"
            }
        ],
        "type": "AVSplit"
    },
    {
        "children": [
            {
                "data": "6:61156",
                "leaf": "clip",
                "type": "Leaf"
            },
            {
                "data": "3:61156",
                "leaf": "clip",
                "type": "Leaf"
            }
        ],
        "type": "AVSplit"
    },
    {
        "children": [
            {
                "data": "6:52580",
                "leaf": "clip",
                "type": "Leaf"
            },
            {
                "data": "3:52580",
                "leaf": "clip",
                "type": "Leaf"
            }
        ],
        "type": "AVSplit"
    },
    {
        "children": [
            {
                "children": [
                    {
                        "data": "6:4327",
                        "leaf": "clip",
                        "type": "Leaf"
                    },
                    {
                        "data": "3:4327",
                        "leaf": "clip",
                        "type": "Leaf"
                    }
                ],
                "type": "AVSplit"
            },
            {
                "children": [
                    {
                        "data": "4:4121",
                        "leaf": "clip",
                        "type": "Leaf"
                    },
                    {
                        "data": "5:4121",
                        "leaf": "clip",
                        "type": "Leaf"
                    }
                ],
                "type": "AVSplit"
            },
            {
                "children": [
                    {
                        "data": "5:4302",
                        "leaf": "clip",
                        "type": "Leaf"
                    },
                    {
                        "data": "4:4302",
                        "leaf": "clip",
                        "type": "Leaf"
                    }
                ],
                "type": "AVSplit"
            },
            {
                "children": [
                    {
                        "data": "4:4548",
                        "leaf": "clip",
                        "type": "Leaf"
                    },
                    {
                        "data": "5:4548",
                        "leaf": "clip",
                        "type": "Leaf"
                    }
                ],
                "type": "AVSplit"
            },
            {
                "children": [
                    {
                        "data": "6:4527",
                        "leaf": "clip",
                        "type": "Leaf"
                    },
                    {
                        "data": "3:4527",
                        "leaf": "clip",
                        "type": "Leaf"
                    }
                ],
                "type": "AVSplit"
            }
        ],
        "type": "Normal"
    },
    {
        "children": [
            {
                "data": "4:59493",
                "leaf": "clip",
                "type": "Leaf"
            },
            {
                "data": "5:59493",
                "leaf": "clip",
                "type": "Leaf"
            }
        ],
        "type": "AVSplit"
    },
    {
        "children": [
            {
                "data": "5:82472",
                "leaf": "clip",
                "type": "Leaf"
            },
            {
                "data": "4:82472",
                "leaf": "clip",
                "type": "Leaf"
            }
        ],
        "type": "AVSplit"
    },
    {
        "children": [
            {
                "data": "5:32864",
                "leaf": "clip",
                "type": "Leaf"
            },
            {
                "data": "4:32864",
                "leaf": "clip",
                "type": "Leaf"
            }
        ],
        "type": "AVSplit"
    },
    {
        "children": [
            {
                "data": "4:57668",
                "leaf": "clip",
                "type": "Leaf"
            },
            {
                "data": "5:57668",
                "leaf": "clip",
                "type": "Leaf"
            }
        ],
        "type": "AVSplit"
    },
    {
        "children": [
            {
                "data": "4:35422",
                "leaf": "clip",
                "type": "Leaf"
            },
            {
                "data": "5:35422",
                "leaf": "clip",
                "type": "Leaf"
            }
        ],
        "type": "AVSplit"
    },
    {
        "children": [
            {
                "data": "4:62641",
                "leaf": "clip",
                "type": "Leaf"
            },
            {
                "data": "5:62641",
                "leaf": "clip",
                "type": "Leaf"
            }
        ],
        "type": "AVSplit"
    },
    {
        "children": [
            {
                "data": "5:59122",
                "leaf": "clip",
                "type": "Leaf"
            },
            {
                "data": "4:59122",
                "leaf": "clip",
                "type": "Leaf"
            }
        ],
        "type": "AVSplit"
    },
    {
        "children": [
            {
                "data": "4:1753",
                "leaf": "clip",
                "type": "Leaf"
            },
            {
                "data": "5:1753",
                "leaf": "clip",
                "type": "Leaf"
            }
        ],
        "type": "AVSplit"
    },
    {
        "children": [
            {
                "data": "6:63839",
                "leaf": "clip",
                "type": "Leaf"
            },
            {
                "data": "3:63839",
                "leaf": "clip",
                "type": "Leaf"
            }
        ],
        "type": "AVSplit"
    },
    {
        "children": [
            {
                "data": "4:12262",
                "leaf": "clip",
                "type": "Leaf"
            },
            {
                "data": "5:12262",
                "leaf": "clip",
                "type": "Leaf"
            }
        ],
        "type": "AVSplit"
    },
    {
        "children": [
            {
                "data": "4:27715",
                "leaf": "clip",
                "type": "Leaf"
            },
            {
                "data": "5:27715",
                "leaf": "clip",
                "type": "Leaf"
            }
        ],
        "type": "AVSplit"
    },
    {
        "children": [
            {
                "data": "4:56186",
                "leaf": "clip",
                "type": "Leaf"
            },
            {
                "data": "5:56186",
                "leaf": "clip",
                "type": "Leaf"
            }
        ],
        "type": "AVSplit"
    },
    {
        "children": [
            {
                "data": "5:2200",
                "leaf": "clip",
                "type": "Leaf"
            },
            {
                "data": "4:2200",
                "leaf": "clip",
                "type": "Leaf"
            }
        ],
        "type": "AVSplit"
    },
    {
        "children": [
            {
                "data": "5:53549",
                "leaf": "clip",
                "type": "Leaf"
            },
            {
                "data": "4:53549",
                "leaf": "clip",
                "type": "Leaf"
            }
        ],
        "type": "AVSplit"
    },
    {
        "children": [
            {
                "data": "4:47717",
                "leaf": "clip",
                "type": "Leaf"
            },
            {
                "data": "5:47717",
                "leaf": "clip",
                "type": "Leaf"
            }
        ],
        "type": "AVSplit"
    },
    {
        "children": [
            {
                "data": "5:81949",
                "leaf": "clip",
                "type": "Leaf"
            },
            {
                "data": "4:81949",
                "leaf": "clip",
                "type": "Leaf"
            }
        ],
        "type": "AVSplit"
    },
    {
        "children": [
            {
                "data": "6:70433",
                "leaf": "clip",
                "type": "Leaf"
            },
            {
                "data": "3:70433",
                "leaf": "clip",
                "type": "Leaf"
            }
        ],
        "type": "AVSplit"
    },
    {
        "children": [
            {
                "data": "5:57293",
                "leaf": "clip",
                "type": "Leaf"
            },
            {
                "data": "4:57293",
                "leaf": "clip",
                "type": "Leaf"
            }
        ],
        "type": "AVSplit"
    },
    {
        "children": [
            {
                "data": "4:79246",
                "leaf": "clip",
                "type": "Leaf"
            },
            {
                "data": "5:79246",
                "leaf": "clip",
                "type": "Leaf"
            }
        ],
        "type": "AVSplit"
    },
    {
        "children": [
            {
                "data": "4:26202",
                "leaf": "clip",
                "type": "Leaf"
            },
            {
                "data": "5:26202",
                "leaf": "clip",
                "type": "Leaf"
            }
        ],
        "type": "AVSplit"
    },
    {
        "children": [
            {
                "data": "5:36904",
                "leaf": "clip",
                "type": "Leaf"
            },
            {
                "data": "4:36904",
                "leaf": "clip",
                "type": "Leaf"
            }
        ],
        "type": "AVSplit"
    },
    {
        "children": [
            {
                "data": "5:38122",
                "leaf": "clip",
                "type": "Leaf"
            },
            {
                "data": "4:38122",
                "leaf": "clip",
                "type": "Leaf"
            }
        ],
        "type": "AVSplit"
    },
    {
        "children": [
            {
                "data": "4:68066",
                "leaf": "clip",
                "type": "Leaf"
            },
            {
                "data": "5:68066",
                "leaf": "clip",
                "type": "Leaf"
            }
        ],
        "type": "AVSplit"
    },
    {
        "children": [
            {
                "data": "5:82225",
                "leaf": "clip",
                "type": "Leaf"
            },
            {
                "data": "4:82225",
                "leaf": "clip",
                "type": "Leaf"
            }
        ],
        "type": "AVSplit"
    },
    {
        "children": [
            {
                "data": "4:58446",
                "leaf": "clip",
                "type": "Leaf"
            },
            {
                "data": "5:58446",
                "leaf": "clip",
                "type": "Leaf"
            }
        ],
        "type": "AVSplit"
    },
    {
        "children": [
            {
                "data": "4:36147",
                "leaf": "clip",
                "type": "Leaf"
            },
            {
                "data": "5:36147",
                "leaf": "clip",
                "type": "Leaf"
            }
        ],
        "type": "AVSplit"
    },
    {
        "children": [
            {
                "data": "4:79353",
                "leaf": "clip",
                "type": "Leaf"
            },
            {
                "data": "5:79353",
                "leaf": "clip",
                "type": "Leaf"
            }
        ],
        "type": "AVSplit"
    },
    {
        "children": [
            {
                "data": "5:40179",
                "leaf": "clip",
                "type": "Leaf"
            },
            {
                "data": "4:40179",
                "leaf": "clip",
                "type": "Leaf"
            }
        ],
        "type": "AVSplit"
    },
    {
        "children": [
            {
                "data": "5:11019",
                "leaf": "clip",
                "type": "Leaf"
            },
            {
                "data": "4:11019",
                "leaf": "clip",
                "type": "Leaf"
            }
        ],
        "type": "AVSplit"
    },
    {
        "children": [
            {
                "data": "5:63331",
                "leaf": "clip",
                "type": "Leaf"
            },
            {
                "data": "4:63331",
                "leaf": "clip",
                "type": "Leaf"
            }
        ],
        "type": "AVSplit"
    },
    {
        "children": [
            {
                "data": "5:11793",
                "leaf": "clip",
                "type": "Leaf"
            },
            {
                "data": "4:11793",
                "leaf": "clip",
                "type": "Leaf"
            }
        ],
        "type": "AVSplit"
    },
    {
        "children": [
            {
                "data": "4:77972",
                "leaf": "clip",
                "type": "Leaf"
            },
            {
                "data": "5:77972",
                "leaf": "clip",
                "type": "Leaf"
            }
        ],
        "type": "AVSplit"
    },
    {
        "children": [
            {
                "data": "5:28958",
                "leaf": "clip",
                "type": "Leaf"
            },
            {
                "data": "4:28958",
                "leaf": "clip",
                "type": "Leaf"
            }
        ],
        "type": "AVSplit"
    },
    {
        "children": [
            {
                "data": "5:63625",
                "leaf": "clip",
                "type": "Leaf"
            },
            {
                "data": "4:63625",
                "leaf": "clip",
                "type": "Leaf"
            }
        ],
        "type": "AVSplit"
    },
    {
        "children": [
            {
                "data": "5:17495",
                "leaf": "clip",
                "type": "Leaf"
            },
            {
                "data": "4:17495",
                "leaf": "clip",
                "type": "Leaf"
            }
        ],
        "type": "AVSplit"
    },
    {
        "children": [
            {
                "data": "4:25404",
                "leaf": "clip",
                "type": "Leaf"
            },
            {
                "data": "5:25404",
                "leaf": "clip",
                "type": "Leaf"
            }
        ],
        "type": "AVSplit"
    },
    {
        "children": [
            {
                "data": "5:4942",
                "leaf": "clip",
                "type": "Leaf"
            },
            {
                "data": "4:4942",
                "leaf": "clip",
                "type": "Leaf"
            }
        ],
        "type": "AVSplit"
    },
    {
        "children": [
            {
                "data": "4:17771",
                "leaf": "clip",
                "type": "Leaf"
            },
            {
                "data": "5:17771",
                "leaf": "clip",
                "type": "Leaf"
            }
        ],
        "type": "AVSplit"
    },
    {
        "children": [
            {
                "data": "4:29429",
                "leaf": "clip",
                "type": "Leaf"
            },
            {
                "data": "5:29429",
                "leaf": "clip",
                "type": "Leaf"
            }
        ],
        "type": "AVSplit"
    },
    {
        "children": [
            {
                "data": "4:24348",
                "leaf": "clip",
                "type": "Leaf"
            },
            {
                "data": "5:24348",
                "leaf": "clip",
                "type": "Leaf"
            }
        ],
        "type": "AVSplit"
    },
    {
        "children": [
            {
                "data": "4:32131",
                "leaf": "clip",
                "type": "Leaf"
            },
            {
                "data": "5:32131",
                "leaf": "clip",
                "type": "Leaf"
            }
        ],
        "type": "AVSplit"
    },
    {
        "children": [
            {
                "data": "4:77879",
                "leaf": "clip",
                "type": "Leaf"
            },
            {
                "data": "5:77879",
                "leaf": "clip",
                "type": "Leaf"
            }
        ],
        "type": "AVSplit"
    },
    {
        "children": [
            {
                "data": "6:45616",
                "leaf": "clip",
                "type": "Leaf"
            },
            {
                "data": "3:45616",
                "leaf": "clip",
                "type": "Leaf"
            }
        ],
        "type": "AVSplit"
    },
    {
        "children": [
            {
                "data": "5:47682",
                "leaf": "clip",
                "type": "Leaf"
            },
            {
                "data": "4:47682",
                "leaf": "clip",
                "type": "Leaf"
            }
        ],
        "type": "AVSplit"
    },
    {
        "children": [
            {
                "data": "5:4878",
                "leaf": "clip",
                "type": "Leaf"
            },
            {
                "data": "4:4878",
                "leaf": "clip",
                "type": "Leaf"
            }
        ],
        "type": "AVSplit"
    },
    {
        "children": [
            {
                "data": "4:39772",
                "leaf": "clip",
                "type": "Leaf"
            },
            {
                "data": "5:39772",
                "leaf": "clip",
                "type": "Leaf"
            }
        ],
        "type": "AVSplit"
    },
    {
        "children": [
            {
                "data": "5:50836",
                "leaf": "clip",
                "type": "Leaf"
            },
            {
                "data": "4:50836",
                "leaf": "clip",
                "type": "Leaf"
            }
        ],
        "type": "AVSplit"
    },
    {
        "children": [
            {
                "data": "4:77415",
                "leaf": "clip",
                "type": "Leaf"
            },
            {
                "data": "5:77415",
                "leaf": "clip",
                "type": "Leaf"
            }
        ],
        "type": "AVSplit"
    },
    {
        "children": [
            {
                "data": "5:39108",
                "leaf": "clip",
                "type": "Leaf"
            },
            {
                "data": "4:39108",
                "leaf": "clip",
                "type": "Leaf"
            }
        ],
        "type": "AVSplit"
    },
    {
        "children": [
            {
                "data": "4:68497",
                "leaf": "clip",
                "type": "Leaf"
            },
            {
                "data": "5:68497",
                "leaf": "clip",
                "type": "Leaf"
            }
        ],
        "type": "AVSplit"
    },
    {
        "children": [
            {
                "data": "5:10316",
                "leaf": "clip",
                "type": "Leaf"
            },
            {
                "data": "4:10316",
                "leaf": "clip",
                "type": "Leaf"
            }
        ],
        "type": "AVSplit"
    },
    {
        "children": [
            {
                "data": "4:15590",
                "leaf": "clip",
                "type": "Leaf"
            },
            {
                "data": "5:15590",
                "leaf": "clip",
                "type": "Leaf"
            }
        ],
        "type": "AVSplit"
    },
    {
        "children": [
            {
                "data": "5:51250",
                "leaf": "clip",
                "type": "Leaf"
            },
            {
                "data": "4:51250",
                "leaf": "clip",
                "type": "Leaf"
            }
        ],
        "type": "AVSplit"
    },
    {
        "children": [
            {
                "data": "4:49734",
                "leaf": "clip",
                "type": "Leaf"
            },
            {
                "data": "5:49734",
                "leaf": "clip",
                "type": "Leaf"
            }
        ],
        "type": "AVSplit"
    },
    {
        "children": [
            {
                "data": "4:11122",
                "leaf": "clip",
                "type": "Leaf"
            },
            {
                "data": "5:11122",
                "leaf": "clip",
                "type": "Leaf"
            }
        ],
        "type": "AVSplit"
    },
    {
        "children": [
            {
                "data": "4:77331",
                "leaf": "clip",
                "type": "Leaf"
            },
            {
                "data": "5:77331",
                "leaf": "clip",
                "type": "Leaf"
            }
        ],
        "type": "AVSplit"
    },
    {
        "children": [
            {
                "data": "5:49871",
                "leaf": "clip",
                "type": "Leaf"
            },
            {
                "data": "4:49871",
                "leaf": "clip",
                "type": "Leaf"
            }
        ],
        "type": "AVSplit"
    },
    {
        "children": [
            {
                "data": "5:2155",
                "leaf": "clip",
                "type": "Leaf"
            },
            {
                "data": "4:2155",
                "leaf": "clip",
                "type": "Leaf"
            }
        ],
        "type": "AVSplit"
    },
    {
        "children": [
            {
                "data": "4:77635",
                "leaf": "clip",
                "type": "Leaf"
            },
            {
                "data": "5:77635",
                "leaf": "clip",
                "type": "Leaf"
            }
        ],
        "type": "AVSplit"
    },
    {
        "children": [
            {
                "data": "4:12623",
                "leaf": "clip",
                "type": "Leaf"
            },
            {
                "data": "5:12623",
                "leaf": "clip",
                "type": "Leaf"
            }
        ],
        "type": "AVSplit"
    },
    {
        "children": [
            {
                "data": "4:26047",
                "leaf": "clip",
                "type": "Leaf"
            },
            {
                "data": "5:26047",
                "leaf": "clip",
                "type": "Leaf"
            }
        ],
        "type": "AVSplit"
    },
    {
        "children": [
            {
                "data": "4:7338",
                "leaf": "clip",
                "type": "Leaf"
            },
            {
                "data": "5:7338",
                "leaf": "clip",
                "type": "Leaf"
            }
        ],
        "type": "AVSplit"
    },
    {
        "children": [
            {
                "data": "4:76154",
                "leaf": "clip",
                "type": "Leaf"
            },
            {
                "data": "5:76154",
                "leaf": "clip",
                "type": "Leaf"
            }
        ],
        "type": "AVSplit"
    },
    {
        "children": [
            {
                "data": "4:13200",
                "leaf": "clip",
                "type": "Leaf"
            },
            {
                "data": "5:13200",
                "leaf": "clip",
                "type": "Leaf"
            }
        ],
        "type": "AVSplit"
    },
    {
        "children": [
            {
                "data": "4:93040",
                "leaf": "clip",
                "type": "Leaf"
            },
            {
                "data": "5:93040",
                "leaf": "clip",
                "type": "Leaf"
            }
        ],
        "type": "AVSplit"
    },
    {
        "children": [
            {
                "data": "5:43586",
                "leaf": "clip",
                "type": "Leaf"
            },
            {
                "data": "4:43586",
                "leaf": "clip",
                "type": "Leaf"
            }
        ],
        "type": "AVSplit"
    },
    {
        "children": [
            {
                "data": "5:22633",
                "leaf": "clip",
                "type": "Leaf"
            },
            {
                "data": "4:22633",
                "leaf": "clip",
                "type": "Leaf"
            }
        ],
        "type": "AVSplit"
    },
    {
        "children": [
            {
                "data": "3:70373",
                "leaf": "clip",
                "type": "Leaf"
            },
            {
                "data": "6:70373",
                "leaf": "clip",
                "type": "Leaf"
            }
        ],
        "type": "AVSplit"
    },
    {
        "children": [
            {
                "data": "4:82384",
                "leaf": "clip",
                "type": "Leaf"
            },
            {
                "data": "5:82384",
                "leaf": "clip",
                "type": "Leaf"
            }
        ],
        "type": "AVSplit"
    },
    {
        "children": [
            {
                "data": "5:25022",
                "leaf": "clip",
                "type": "Leaf"
            },
            {
                "data": "4:25022",
                "leaf": "clip",
                "type": "Leaf"
            }
        ],
        "type": "AVSplit"
    },
    {
        "children": [
            {
                "data": "4:25625",
                "leaf": "clip",
                "type": "Leaf"
            },
            {
                "data": "5:25625",
                "leaf": "clip",
                "type": "Leaf"
            }
        ],
        "type": "AVSplit"
    },
    {
        "children": [
            {
                "data": "5:14004",
                "leaf": "clip",
                "type": "Leaf"
            },
            {
                "data": "4:14004",
                "leaf": "clip",
                "type": "Leaf"
            }
        ],
        "type": "AVSplit"
    },
    {
        "children": [
            {
                "data": "5:58334",
                "leaf": "clip",
                "type": "Leaf"
            },
            {
                "data": "4:58334",
                "leaf": "clip",
                "type": "Leaf"
            }
        ],
        "type": "AVSplit"
    },
    {
        "children": [
            {
                "data": "4:36288",
                "leaf": "clip",
                "type": "Leaf"
            },
            {
                "data": "5:36288",
                "leaf": "clip",
                "type": "Leaf"
            }
        ],
        "type": "AVSplit"
    },
    {
        "children": [
            {
                "data": "4:2751",
                "leaf": "clip",
                "type": "Leaf"
            },
            {
                "data": "5:2751",
                "leaf": "clip",
                "type": "Leaf"
            }
        ],
        "type": "AVSplit"
    },
    {
        "children": [
            {
                "data": "4:8697",
                "leaf": "clip",
                "type": "Leaf"
            },
            {
                "data": "5:8697",
                "leaf": "clip",
                "type": "Leaf"
            }
        ],
        "type": "AVSplit"
    },
    {
        "children": [
            {
                "data": "4:1882",
                "leaf": "clip",
                "type": "Leaf"
            },
            {
                "data": "5:1882",
                "leaf": "clip",
                "type": "Leaf"
            }
        ],
        "type": "AVSplit"
    },
    {
        "children": [
            {
                "data": "5:58830",
                "leaf": "clip",
                "type": "Leaf"
            },
            {
                "data": "4:58830",
                "leaf": "clip",
                "type": "Leaf"
            }
        ],
        "type": "AVSplit"
    },
    {
        "children": [
            {
                "data": "4:35761",
                "leaf": "clip",
                "type": "Leaf"
            },
            {
                "data": "5:35761",
                "leaf": "clip",
                "type": "Leaf"
            }
        ],
        "type": "AVSplit"
    },
    {
        "children": [
            {
                "data": "4:70866",
                "leaf": "clip",
                "type": "Leaf"
            },
            {
                "data": "5:70866",
                "leaf": "clip",
                "type": "Leaf"
            }
        ],
        "type": "AVSplit"
    },
    {
        "children": [
            {
                "data": "4:56853",
                "leaf": "clip",
                "type": "Leaf"
            },
            {
                "data": "5:56853",
                "leaf": "clip",
                "type": "Leaf"
            }
        ],
        "type": "AVSplit"
    },
    {
        "children": [
            {
                "data": "4:15253",
                "leaf": "clip",
                "type": "Leaf"
            },
            {
                "data": "5:15253",
                "leaf": "clip",
                "type": "Leaf"
            }
        ],
        "type": "AVSplit"
    },
    {
        "children": [
            {
                "data": "4:13134",
                "leaf": "clip",
                "type": "Leaf"
            },
            {
                "data": "5:13134",
                "leaf": "clip",
                "type": "Leaf"
            }
        ],
        "type": "AVSplit"
    },
    {
        "children": [
            {
                "data": "4:49469",
                "leaf": "clip",
                "type": "Leaf"
            },
            {
                "data": "5:49469",
                "leaf": "clip",
                "type": "Leaf"
            }
        ],
        "type": "AVSplit"
    },
    {
        "children": [
            {
                "data": "4:92834",
                "leaf": "clip",
                "type": "Leaf"
            },
            {
                "data": "5:92834",
                "leaf": "clip",
                "type": "Leaf"
            }
        ],
        "type": "AVSplit"
    },
    {
        "children": [
            {
                "data": "4:19585",
                "leaf": "clip",
                "type": "Leaf"
            },
            {
                "data": "5:19585",
                "leaf": "clip",
                "type": "Leaf"
            }
        ],
        "type": "AVSplit"
    },
    {
        "children": [
            {
                "data": "4:7403",
                "leaf": "clip",
                "type": "Leaf"
            },
            {
                "data": "5:7403",
                "leaf": "clip",
                "type": "Leaf"
            }
        ],
        "type": "AVSplit"
    },
    {
        "children": [
            {
                "data": "4:43061",
                "leaf": "clip",
                "type": "Leaf"
            },
            {
                "data": "5:43061",
                "leaf": "clip",
                "type": "Leaf"
            }
        ],
        "type": "AVSplit"
    },
    {
        "children": [
            {
                "data": "4:81088",
                "leaf": "clip",
                "type": "Leaf"
            },
            {
                "data": "5:81088",
                "leaf": "clip",
                "type": "Leaf"
            }
        ],
        "type": "AVSplit"
    },
    {
        "children": [
            {
                "data": "5:39053",
                "leaf": "clip",
                "type": "Leaf"
            },
            {
                "data": "4:39053",
                "leaf": "clip",
                "type": "Leaf"
            }
        ],
        "type": "AVSplit"
    },
    {
        "children": [
            {
                "data": "5:11847",
                "leaf": "clip",
                "type": "Leaf"
            },
            {
                "data": "4:11847",
                "leaf": "clip",
                "type": "Leaf"
            }
        ],
        "type": "AVSplit"
    },
    {
        "children": [
            {
                "data": "4:74792",
                "leaf": "clip",
                "type": "Leaf"
            },
            {
                "data": "5:74792",
                "leaf": "clip",
                "type": "Leaf"
            }
        ],
        "type": "AVSplit"
    },
    {
        "children": [
            {
                "data": "4:71896",
                "leaf": "clip",
                "type": "Leaf"
            },
            {
                "data": "5:71896",
                "leaf": "clip",
                "type": "Leaf"
            }
        ],
        "type": "AVSplit"
    },
    {
        "children": [
            {
                "data": "5:64356",
                "leaf": "clip",
                "type": "Leaf"
            },
            {
                "data": "4:64356",
                "leaf": "clip",
                "type": "Leaf"
            }
        ],
        "type": "AVSplit"
    },
    {
        "children": [
            {
                "data": "4:81690",
                "leaf": "clip",
                "type": "Leaf"
            },
            {
                "data": "5:81690",
                "leaf": "clip",
                "type": "Leaf"
            }
        ],
        "type": "AVSplit"
    },
    {
        "children": [
            {
                "data": "4:77477",
                "leaf": "clip",
                "type": "Leaf"
            },
            {
                "data": "5:77477",
                "leaf": "clip",
                "type": "Leaf"
            }
        ],
        "type": "AVSplit"
    },
    {
        "children": [
            {
                "data": "4:31359",
                "leaf": "clip",
                "type": "Leaf"
            },
            {
                "data": "5:31359",
                "leaf": "clip",
                "type": "Leaf"
            }
        ],
        "type": "AVSplit"
    },
    {
        "children": [
            {
                "data": "5:53920",
                "leaf": "clip",
                "type": "Leaf"
            },
            {
                "data": "4:53920",
                "leaf": "clip",
                "type": "Leaf"
            }
        ],
        "type": "AVSplit"
    },
    {
        "children": [
            {
                "data": "4:45973",
                "leaf": "clip",
                "type": "Leaf"
            },
            {
                "data": "5:45973",
                "leaf": "clip",
                "type": "Leaf"
            }
        ],
        "type": "AVSplit"
    },
    {
        "children": [
            {
                "data": "4:31245",
                "leaf": "clip",
                "type": "Leaf"
            },
            {
                "data": "5:31245",
                "leaf": "clip",
                "type": "Leaf"
            }
        ],
        "type": "AVSplit"
    },
    {
        "children": [
            {
                "data": "5:16878",
                "leaf": "clip",
                "type": "Leaf"
            },
            {
                "data": "4:16878",
                "leaf": "clip",
                "type": "Leaf"
            }
        ],
        "type": "AVSplit"
    },
    {
        "children": [
            {
                "data": "4:73779",
                "leaf": "clip",
                "type": "Leaf"
            },
            {
                "data": "5:73779",
                "leaf": "clip",
                "type": "Leaf"
            }
        ],
        "type": "AVSplit"
    },
    {
        "children": [
            {
                "data": "6:89467",
                "leaf": "clip",
                "type": "Leaf"
            },
            {
                "data": "3:89467",
                "leaf": "clip",
                "type": "Leaf"
            }
        ],
        "type": "AVSplit"
    },
    {
        "children": [
            {
                "data": "5:77172",
                "leaf": "clip",
                "type": "Leaf"
            },
            {
                "data": "4:77172",
                "leaf": "clip",
                "type": "Leaf"
            }
        ],
        "type": "AVSplit"
    },
    {
        "children": [
            {
                "data": "5:15619",
                "leaf": "clip",
                "type": "Leaf"
            },
            {
                "data": "4:15619",
                "leaf": "clip",
                "type": "Leaf"
            }
        ],
        "type": "AVSplit"
    },
    {
        "children": [
            {
                "data": "5:26086",
                "leaf": "clip",
                "type": "Leaf"
            },
            {
                "data": "4:26086",
                "leaf": "clip",
                "type": "Leaf"
            }
        ],
        "type": "AVSplit"
    },
    {
        "children": [
            {
                "data": "6:59109",
                "leaf": "clip",
                "type": "Leaf"
            },
            {
                "data": "3:59109",
                "leaf": "clip",
                "type": "Leaf"
            }
        ],
        "type": "AVSplit"
    },
    {
        "children": [
            {
                "data": "4:77565",
                "leaf": "clip",
                "type": "Leaf"
            },
            {
                "data": "5:77565",
                "leaf": "clip",
                "type": "Leaf"
            }
        ],
        "type": "AVSplit"
    },
    {
        "children": [
            {
                "data": "4:77246",
                "leaf": "clip",
                "type": "Leaf"
            },
            {
                "data": "5:77246",
                "leaf": "clip",
                "type": "Leaf"
            }
        ],
        "type": "AVSplit"
    },
    {
        "children": [
            {
                "data": "4:13295",
                "leaf": "clip",
                "type": "Leaf"
            },
            {
                "data": "5:13295",
                "leaf": "clip",
                "type": "Leaf"
            }
        ],
        "type": "AVSplit"
    },
    {
        "children": [
            {
                "data": "4:51017",
                "leaf": "clip",
                "type": "Leaf"
            },
            {
                "data": "5:51017",
                "leaf": "clip",
                "type": "Leaf"
            }
        ],
        "type": "AVSplit"
    },
    {
        "children": [
            {
                "data": "4:68333",
                "leaf": "clip",
                "type": "Leaf"
            },
            {
                "data": "5:68333",
                "leaf": "clip",
                "type": "Leaf"
            }
        ],
        "type": "AVSplit"
    },
    {
        "children": [
            {
                "data": "5:59865",
                "leaf": "clip",
                "type": "Leaf"
            },
            {
                "data": "4:59865",
                "leaf": "clip",
                "type": "Leaf"
            }
        ],
        "type": "AVSplit"
    },
    {
        "children": [
            {
                "data": "4:42396",
                "leaf": "clip",
                "type": "Leaf"
            },
            {
                "data": "5:42396",
                "leaf": "clip",
                "type": "Leaf"
            }
        ],
        "type": "AVSplit"
    },
    {
        "children": [
            {
                "data": "4:19285",
                "leaf": "clip",
                "type": "Leaf"
            },
            {
                "data": "5:19285",
                "leaf": "clip",
                "type": "Leaf"
            }
        ],
        "type": "AVSplit"
    },
    {
        "children": [
            {
                "data": "4:55984",
                "leaf": "clip",
                "type": "Leaf"
            },
            {
                "data": "5:55984",
                "leaf": "clip",
                "type": "Leaf"
            }
        ],
        "type": "AVSplit"
    },
    {
        "children": [
            {
                "data": "4:41350",
                "leaf": "clip",
                "type": "Leaf"
            },
            {
                "data": "5:41350",
                "leaf": "clip",
                "type": "Leaf"
            }
        ],
        "type": "AVSplit"
    },
    {
        "children": [
            {
                "data": "5:3397",
                "leaf": "clip",
                "type": "Leaf"
            },
            {
                "data": "4:3397",
                "leaf": "clip",
                "type": "Leaf"
            }
        ],
        "type": "AVSplit"
    },
    {
        "children": [
            {
                "data": "5:41160",
                "leaf": "clip",
                "type": "Leaf"
            },
            {
                "data": "4:41160",
                "leaf": "clip",
                "type": "Leaf"
            }
        ],
        "type": "AVSplit"
    },
    {
        "children": [
            {
                "data": "4:23720",
                "leaf": "clip",
                "type": "Leaf"
            },
            {
                "data": "5:23720",
                "leaf": "clip",
                "type": "Leaf"
            }
        ],
        "type": "AVSplit"
    },
    {
        "children": [
            {
                "data": "5:47450",
                "leaf": "clip",
                "type": "Leaf"
            },
            {
                "data": "4:47450",
                "leaf": "clip",
                "type": "Leaf"
            }
        ],
        "type": "AVSplit"
    },
    {
        "children": [
            {
                "data": "5:63739",
                "leaf": "clip",
                "type": "Leaf"
            },
            {
                "data": "4:63739",
                "leaf": "clip",
                "type": "Leaf"
            }
        ],
        "type": "AVSplit"
    },
    {
        "children": [
            {
                "data": "5:78559",
                "leaf": "clip",
                "type": "Leaf"
            },
            {
                "data": "4:78559",
                "leaf": "clip",
                "type": "Leaf"
            }
        ],
        "type": "AVSplit"
    },
    {
        "children": [
            {
                "data": "5:21919",
                "leaf": "clip",
                "type": "Leaf"
            },
            {
                "data": "4:21919",
                "leaf": "clip",
                "type": "Leaf"
            }
        ],
        "type": "AVSplit"
    },
    {
        "children": [
            {
                "data": "5:41076",
                "leaf": "clip",
                "type": "Leaf"
            },
            {
                "data": "4:41076",
                "leaf": "clip",
                "type": "Leaf"
            }
        ],
        "type": "AVSplit"
    },
    {
        "children": [
            {
                "data": "5:17227",
                "leaf": "clip",
                "type": "Leaf"
            },
            {
                "data": "4:17227",
                "leaf": "clip",
                "type": "Leaf"
            }
        ],
        "type": "AVSplit"
    },
    {
        "children": [
            {
                "data": "5:40754",
                "leaf": "clip",
                "type": "Leaf"
            },
            {
                "data": "4:40754",
                "leaf": "clip",
                "type": "Leaf"
            }
        ],
        "type": "AVSplit"
    },
    {
        "children": [
            {
                "data": "5:28894",
                "leaf": "clip",
                "type": "Leaf"
            },
            {
                "data": "4:28894",
                "leaf": "clip",
                "type": "Leaf"
            }
        ],
        "type": "AVSplit"
    },
    {
        "children": [
            {
                "data": "5:910",
                "leaf": "clip",
                "type": "Leaf"
            },
            {
                "data": "4:910",
                "leaf": "clip",
                "type": "Leaf"
            }
        ],
        "type": "AVSplit"
    },
    {
        "children": [
            {
                "data": "5:40456",
                "leaf": "clip",
                "type": "Leaf"
            },
            {
                "data": "4:40456",
                "leaf": "clip",
                "type": "Leaf"
            }
        ],
        "type": "AVSplit"
    },
    {
        "children": [
            {
                "data": "4:5768",
                "leaf": "clip",
                "type": "Leaf"
            },
            {
                "data": "5:5768",
                "leaf": "clip",
                "type": "Leaf"
            }
        ],
        "type": "AVSplit"
    },
    {
        "children": [
            {
                "data": "5:40389",
                "leaf": "clip",
                "type": "Leaf"
            },
            {
                "data": "4:40389",
                "leaf": "clip",
                "type": "Leaf"
            }
        ],
        "type": "AVSplit"
    },
    {
        "children": [
            {
                "data": "5:33745",
                "leaf": "clip",
                "type": "Leaf"
            },
            {
                "data": "4:33745",
                "leaf": "clip",
                "type": "Leaf"
            }
        ],
        "type": "AVSplit"
    },
    {
        "children": [
            {
                "data": "4:20447",
                "leaf": "clip",
                "type": "Leaf"
            },
            {
                "data": "5:20447",
                "leaf": "clip",
                "type": "Leaf"
            }
        ],
        "type": "AVSplit"
    },
    {
        "children": [
            {
                "data": "4:47145",
                "leaf": "clip",
                "type": "Leaf"
            },
            {
                "data": "5:47145",
                "leaf": "clip",
                "type": "Leaf"
            }
        ],
        "type": "AVSplit"
    },
    {
        "children": [
            {
                "data": "4:40115",
                "leaf": "clip",
                "type": "Leaf"
            },
            {
                "data": "5:40115",
                "leaf": "clip",
                "type": "Leaf"
            }
        ],
        "type": "AVSplit"
    },
    {
        "children": [
            {
                "data": "5:63024",
                "leaf": "clip",
                "type": "Leaf"
            },
            {
                "data": "4:63024",
                "leaf": "clip",
                "type": "Leaf"
            }
        ],
        "type": "AVSplit"
    },
    {
        "children": [
            {
                "data": "5:63916",
                "leaf": "clip",
                "type": "Leaf"
            },
            {
                "data": "4:63916",
                "leaf": "clip",
                "type": "Leaf"
            }
        ],
        "type": "AVSplit"
    },
    {
        "children": [
            {
                "data": "5:78076",
                "leaf": "clip",
                "type": "Leaf"
            },
            {
                "data": "4:78076",
                "leaf": "clip",
                "type": "Leaf"
            }
        ],
        "type": "AVSplit"
    },
    {
        "children": [
            {
                "data": "3:18518",
                "leaf": "clip",
                "type": "Leaf"
            },
            {
                "data": "6:18518",
                "leaf": "clip",
                "type": "Leaf"
            }
        ],
        "type": "AVSplit"
    },
    {
        "children": [
            {
                "data": "5:36102",
                "leaf": "clip",
                "type": "Leaf"
            },
            {
                "data": "4:36102",
                "leaf": "clip",
                "type": "Leaf"
            }
        ],
        "type": "AVSplit"
    },
    {
        "children": [
            {
                "children": [
                    {
                        "data": "5:55605",
                        "leaf": "clip",
                        "type": "Leaf"
                    },
                    {
                        "data": "4:55605",
                        "leaf": "clip",
                        "type": "Leaf"
                    }
                ],
                "type": "AVSplit"
            },
            {
                "children": [
                    {
                        "data": "4:55645",
                        "leaf": "clip",
                        "type": "Leaf"
                    },
                    {
                        "data": "5:55645",
                        "leaf": "clip",
                        "type": "Leaf"
                    }
                ],
                "type": "AVSplit"
            },
            {
                "data": "3:55557",
                "leaf": "clip",
                "type": "Leaf"
            },
            {
                "data": "3:55519",
                "leaf": "clip",
                "type": "Leaf"
            },
            {
                "data": "3:55419",
                "leaf": "clip",
                "type": "Leaf"
            },
            {
                "children": [
                    {
                        "data": "5:55506",
                        "leaf": "clip",
                        "type": "Leaf"
                    },
                    {
                        "data": "4:55506",
                        "leaf": "clip",
                        "type": "Leaf"
                    }
                ],
                "type": "AVSplit"
            },
            {
                "data": "3:55462",
                "leaf": "clip",
                "type": "Leaf"
            },
            {
                "children": [
                    {
                        "data": "5:55557",
                        "leaf": "clip",
                        "type": "Leaf"
                    },
                    {
                        "data": "4:55557",
                        "leaf": "clip",
                        "type": "Leaf"
                    }
                ],
                "type": "AVSplit"
            },
            {
                "data": "3:55651",
                "leaf": "clip",
                "type": "Leaf"
            },
            {
                "children": [
                    {
                        "data": "5:55449",
                        "leaf": "clip",
                        "type": "Leaf"
                    },
                    {
                        "data": "4:55449",
                        "leaf": "clip",
                        "type": "Leaf"
                    }
                ],
                "type": "AVSplit"
            },
            {
                "children": [
                    {
                        "data": "5:55257",
                        "leaf": "clip",
                        "type": "Leaf"
                    },
                    {
                        "data": "4:55257",
                        "leaf": "clip",
                        "type": "Leaf"
                    }
                ],
                "type": "AVSplit"
            }
        ],
        "type": "Normal"
    },
    {
        "children": [
            {
                "data": "5:47810",
                "leaf": "clip",
                "type": "Leaf"
            },
            {
                "data": "4:47810",
                "leaf": "clip",
                "type": "Leaf"
            }
        ],
        "type": "AVSplit"
    },
    {
        "children": [
            {
                "data": "5:40233",
                "leaf": "clip",
                "type": "Leaf"
            },
            {
                "data": "4:40233",
                "leaf": "clip",
                "type": "Leaf"
            }
        ],
        "type": "AVSplit"
    },
    {
        "children": [
            {
                "data": "5:81530",
                "leaf": "clip",
                "type": "Leaf"
            },
            {
                "data": "4:81530",
                "leaf": "clip",
                "type": "Leaf"
            }
        ],
        "type": "AVSplit"
    },
    {
        "children": [
            {
                "data": "4:35564",
                "leaf": "clip",
                "type": "Leaf"
            },
            {
                "data": "5:35564",
                "leaf": "clip",
                "type": "Leaf"
            }
        ],
        "type": "AVSplit"
    },
    {
        "children": [
            {
                "data": "4:60809",
                "leaf": "clip",
                "type": "Leaf"
            },
            {
                "data": "5:60809",
                "leaf": "clip",
                "type": "Leaf"
            }
        ],
        "type": "AVSplit"
    },
    {
        "children": [
            {
                "data": "5:34992",
                "leaf": "clip",
                "type": "Leaf"
            },
            {
                "data": "4:34992",
                "leaf": "clip",
                "type": "Leaf"
            }
        ],
        "type": "AVSplit"
    },
    {
        "children": [
            {
                "data": "5:78356",
                "leaf": "clip",
                "type": "Leaf"
            },
            {
                "data": "4:78356",
                "leaf": "clip",
                "type": "Leaf"
            }
        ],
        "type": "AVSplit"
    },
    {
        "children": [
            {
                "data": "5:26899",
                "leaf": "clip",
                "type": "Leaf"
            },
            {
                "data": "4:26899",
                "leaf": "clip",
                "type": "Leaf"
            }
        ],
        "type": "AVSplit"
    },
    {
        "children": [
            {
                "data": "5:48188",
                "leaf": "clip",
                "type": "Leaf"
            },
            {
                "data": "4:48188",
                "leaf": "clip",
                "type": "Leaf"
            }
        ],
        "type": "AVSplit"
    },
    {
        "children": [
            {
                "data": "3:45931",
                "leaf": "clip",
                "type": "Leaf"
            },
            {
                "children": [
                    {
                        "data": "5:45778",
                        "leaf": "clip",
                        "type": "Leaf"
                    },
                    {
                        "data": "4:45778",
                        "leaf": "clip",
                        "type": "Leaf"
                    }
                ],
                "type": "AVSplit"
            }
        ],
        "type": "Normal"
    },
    {
        "children": [
            {
                "data": "4:32242",
                "leaf": "clip",
                "type": "Leaf"
            },
            {
                "data": "5:32242",
                "leaf": "clip",
                "type": "Leaf"
            }
        ],
        "type": "AVSplit"
    },
    {
        "children": [
            {
                "data": "4:47860",
                "leaf": "clip",
                "type": "Leaf"
            },
            {
                "data": "5:47860",
                "leaf": "clip",
                "type": "Leaf"
            }
        ],
        "type": "AVSplit"
    },
    {
        "children": [
            {
                "data": "4:79073",
                "leaf": "clip",
                "type": "Leaf"
            },
            {
                "data": "5:79073",
                "leaf": "clip",
                "type": "Leaf"
            }
        ],
        "type": "AVSplit"
    },
    {
        "children": [
            {
                "data": "5:78502",
                "leaf": "clip",
                "type": "Leaf"
            },
            {
                "data": "4:78502",
                "leaf": "clip",
                "type": "Leaf"
            }
        ],
        "type": "AVSplit"
    },
    {
        "children": [
            {
                "data": "4:48528",
                "leaf": "clip",
                "type": "Leaf"
            },
            {
                "data": "5:48528",
                "leaf": "clip",
                "type": "Leaf"
            }
        ],
        "type": "AVSplit"
    },
    {
        "children": [
            {
                "data": "5:12028",
                "leaf": "clip",
                "type": "Leaf"
            },
            {
                "data": "4:12028",
                "leaf": "clip",
                "type": "Leaf"
            }
        ],
        "type": "AVSplit"
    },
    {
        "children": [
            {
                "data": "4:68024",
                "leaf": "clip",
                "type": "Leaf"
            },
            {
                "data": "5:68024",
                "leaf": "clip",
                "type": "Leaf"
            }
        ],
        "type": "AVSplit"
    },
    {
        "children": [
            {
                "data": "4:34033",
                "leaf": "clip",
                "type": "Leaf"
            },
            {
                "data": "5:34033",
                "leaf": "clip",
                "type": "Leaf"
            }
        ],
        "type": "AVSplit"
    },
    {
        "children": [
            {
                "data": "5:81573",
                "leaf": "clip",
                "type": "Leaf"
            },
            {
                "data": "4:81573",
                "leaf": "clip",
                "type": "Leaf"
            }
        ],
        "type": "AVSplit"
    },
    {
        "children": [
            {
                "data": "5:27899",
                "leaf": "clip",
                "type": "Leaf"
            },
            {
                "data": "4:27899",
                "leaf": "clip",
                "type": "Leaf"
            }
        ],
        "type": "AVSplit"
    },
    {
        "children": [
            {
                "data": "4:31643",
                "leaf": "clip",
                "type": "Leaf"
            },
            {
                "data": "5:31643",
                "leaf": "clip",
                "type": "Leaf"
            }
        ],
        "type": "AVSplit"
    },
    {
        "children": [
            {
                "data": "4:78767",
                "leaf": "clip",
                "type": "Leaf"
            },
            {
                "data": "5:78767",
                "leaf": "clip",
                "type": "Leaf"
            }
        ],
        "type": "AVSplit"
    },
    {
        "children": [
            {
                "data": "5:79618",
                "leaf": "clip",
                "type": "Leaf"
            },
            {
                "data": "4:79618",
                "leaf": "clip",
                "type": "Leaf"
            }
        ],
        "type": "AVSplit"
    },
    {
        "children": [
            {
                "data": "5:28104",
                "leaf": "clip",
                "type": "Leaf"
            },
            {
                "data": "4:28104",
                "leaf": "clip",
                "type": "Leaf"
            }
        ],
        "type": "AVSplit"
    },
    {
        "children": [
            {
                "data": "5:26134",
                "leaf": "clip",
                "type": "Leaf"
            },
            {
                "data": "4:26134",
                "leaf": "clip",
                "type": "Leaf"
            }
        ],
        "type": "AVSplit"
    },
    {
        "children": [
            {
                "data": "4:42832",
                "leaf": "clip",
                "type": "Leaf"
            },
            {
                "data": "5:42832",
                "leaf": "clip",
                "type": "Leaf"
            }
        ],
        "type": "AVSplit"
    },
    {
        "children": [
            {
                "data": "4:57008",
                "leaf": "clip",
                "type": "Leaf"
            },
            {
                "data": "5:57008",
                "leaf": "clip",
                "type": "Leaf"
            }
        ],
        "type": "AVSplit"
    },
    {
        "children": [
            {
                "data": "5:48933",
                "leaf": "clip",
                "type": "Leaf"
            },
            {
                "data": "4:48933",
                "leaf": "clip",
                "type": "Leaf"
            }
        ],
        "type": "AVSplit"
    },
    {
        "children": [
            {
                "data": "4:35262",
                "leaf": "clip",
                "type": "Leaf"
            },
            {
                "data": "5:35262",
                "leaf": "clip",
                "type": "Leaf"
            }
        ],
        "type": "AVSplit"
    },
    {
        "children": [
            {
                "data": "4:45616",
                "leaf": "clip",
                "type": "Leaf"
            },
            {
                "data": "5:45616",
                "leaf": "clip",
                "type": "Leaf"
            }
        ],
        "type": "AVSplit"
    },
    {
        "children": [
            {
                "data": "5:56259",
                "leaf": "clip",
                "type": "Leaf"
            },
            {
                "data": "4:56259",
                "leaf": "clip",
                "type": "Leaf"
            }
        ],
        "type": "AVSplit"
    },
    {
        "children": [
            {
                "data": "4:27865",
                "leaf": "clip",
                "type": "Leaf"
            },
            {
                "data": "5:27865",
                "leaf": "clip",
                "type": "Leaf"
            }
        ],
        "type": "AVSplit"
    },
    {
        "children": [
            {
                "data": "5:59399",
                "leaf": "clip",
                "type": "Leaf"
            },
            {
                "data": "4:59399",
                "leaf": "clip",
                "type": "Leaf"
            }
        ],
        "type": "AVSplit"
    },
    {
        "children": [
            {
                "data": "4:28464",
                "leaf": "clip",
                "type": "Leaf"
            },
            {
                "data": "5:28464",
                "leaf": "clip",
                "type": "Leaf"
            }
        ],
        "type": "AVSplit"
    },
    {
        "children": [
            {
                "data": "5:25649",
                "leaf": "clip",
                "type": "Leaf"
            },
            {
                "data": "4:25649",
                "leaf": "clip",
                "type": "Leaf"
            }
        ],
        "type": "AVSplit"
    },
    {
        "children": [
            {
                "data": "5:33660",
                "leaf": "clip",
                "type": "Leaf"
            },
            {
                "data": "4:33660",
                "leaf": "clip",
                "type": "Leaf"
            }
        ],
        "type": "AVSplit"
    },
    {
        "children": [
            {
                "data": "6:79765",
                "leaf": "clip",
                "type": "Leaf"
            },
            {
                "data": "3:79765",
                "leaf": "clip",
                "type": "Leaf"
            }
        ],
        "type": "AVSplit"
    },
    {
        "children": [
            {
                "data": "4:28293",
                "leaf": "clip",
                "type": "Leaf"
            },
            {
                "data": "5:28293",
                "leaf": "clip",
                "type": "Leaf"
            }
        ],
        "type": "AVSplit"
    },
    {
        "children": [
            {
                "data": "4:62127",
                "leaf": "clip",
                "type": "Leaf"
            },
            {
                "data": "5:62127",
                "leaf": "clip",
                "type": "Leaf"
            }
        ],
        "type": "AVSplit"
    },
    {
        "children": [
            {
                "data": "5:78672",
                "leaf": "clip",
                "type": "Leaf"
            },
            {
                "data": "4:78672",
                "leaf": "clip",
                "type": "Leaf"
            }
        ],
        "type": "AVSplit"
    },
    {
        "children": [
            {
                "data": "5:22372",
                "leaf": "clip",
                "type": "Leaf"
            },
            {
                "data": "4:22372",
                "leaf": "clip",
                "type": "Leaf"
            }
        ],
        "type": "AVSplit"
    },
    {
        "children": [
            {
                "data": "4:32388",
                "leaf": "clip",
                "type": "Leaf"
            },
            {
                "data": "5:32388",
                "leaf": "clip",
                "type": "Leaf"
            }
        ],
        "type": "AVSplit"
    },
    {
        "children": [
            {
                "data": "5:63237",
                "leaf": "clip",
                "type": "Leaf"
            },
            {
                "data": "4:63237",
                "leaf": "clip",
                "type": "Leaf"
            }
        ],
        "type": "AVSplit"
    },
    {
        "children": [
            {
                "data": "5:62968",
                "leaf": "clip",
                "type": "Leaf"
            },
            {
                "data": "4:62968",
                "leaf": "clip",
                "type": "Leaf"
            }
        ],
        "type": "AVSplit"
    },
    {
        "children": [
            {
                "data": "4:47097",
                "leaf": "clip",
                "type": "Leaf"
            },
            {
                "data": "5:47097",
                "leaf": "clip",
                "type": "Leaf"
            }
        ],
        "type": "AVSplit"
    },
    {
        "children": [
            {
                "data": "4:28518",
                "leaf": "clip",
                "type": "Leaf"
            },
            {
                "data": "5:28518",
                "leaf": "clip",
                "type": "Leaf"
            }
        ],
        "type": "AVSplit"
    },
    {
        "children": [
            {
                "data": "4:56134",
                "leaf": "clip",
                "type": "Leaf"
            },
            {
                "data": "5:56134",
                "leaf": "clip",
                "type": "Leaf"
            }
        ],
        "type": "AVSplit"
    },
    {
        "children": [
            {
                "data": "5:33555",
                "leaf": "clip",
                "type": "Leaf"
            },
            {
                "data": "4:33555",
                "leaf": "clip",
                "type": "Leaf"
            }
        ],
        "type": "AVSplit"
    },
    {
        "children": [
            {
                "data": "4:27446",
                "leaf": "clip",
                "type": "Leaf"
            },
            {
                "data": "5:27446",
                "leaf": "clip",
                "type": "Leaf"
            }
        ],
        "type": "AVSplit"
    },
    {
        "children": [
            {
                "data": "4:42925",
                "leaf": "clip",
                "type": "Leaf"
            },
            {
                "data": "5:42925",
                "leaf": "clip",
                "type": "Leaf"
            }
        ],
        "type": "AVSplit"
    },
    {
        "children": [
            {
                "data": "5:59959",
                "leaf": "clip",
                "type": "Leaf"
            },
            {
                "data": "4:59959",
                "leaf": "clip",
                "type": "Leaf"
            }
        ],
        "type": "AVSplit"
    },
    {
        "children": [
            {
                "data": "1:45653",
                "leaf": "clip",
                "type": "Leaf"
            },
            {
                "data": "8:45653",
                "leaf": "clip",
                "type": "Leaf"
            }
        ],
        "type": "AVSplit"
    },
    {
        "children": [
            {
                "data": "5:639",
                "leaf": "clip",
                "type": "Leaf"
            },
            {
                "data": "4:639",
                "leaf": "clip",
                "type": "Leaf"
            }
        ],
        "type": "AVSplit"
    },
    {
        "children": [
            {
                "data": "4:39944",
                "leaf": "clip",
                "type": "Leaf"
            },
            {
                "data": "5:39944",
                "leaf": "clip",
                "type": "Leaf"
            }
        ],
        "type": "AVSplit"
    },
    {
        "children": [
            {
                "data": "4:42752",
                "leaf": "clip",
                "type": "Leaf"
            },
            {
                "data": "5:42752",
                "leaf": "clip",
                "type": "Leaf"
            }
        ],
        "type": "AVSplit"
    },
    {
        "children": [
            {
                "data": "4:78239",
                "leaf": "clip",
                "type": "Leaf"
            },
            {
                "data": "5:78239",
                "leaf": "clip",
                "type": "Leaf"
            }
        ],
        "type": "AVSplit"
    },
    {
        "children": [
            {
                "data": "4:81761",
                "leaf": "clip",
                "type": "Leaf"
            },
            {
                "data": "5:81761",
                "leaf": "clip",
                "type": "Leaf"
            }
        ],
        "type": "AVSplit"
    },
    {
        "children": [
            {
                "data": "4:42436",
                "leaf": "clip",
                "type": "Leaf"
            },
            {
                "data": "5:42436",
                "leaf": "clip",
                "type": "Leaf"
            }
        ],
        "type": "AVSplit"
    },
    {
        "children": [
            {
                "data": "4:32791",
                "leaf": "clip",
                "type": "Leaf"
            },
            {
                "data": "5:32791",
                "leaf": "clip",
                "type": "Leaf"
            }
        ],
        "type": "AVSplit"
    },
    {
        "children": [
            {
                "data": "3:69837",
                "leaf": "clip",
                "type": "Leaf"
            },
            {
                "data": "6:69837",
                "leaf": "clip",
                "type": "Leaf"
            }
        ],
        "type": "AVSplit"
    },
    {
        "children": [
            {
                "data": "5:42230",
                "leaf": "clip",
                "type": "Leaf"
            },
            {
                "data": "4:42230",
                "leaf": "clip",
                "type": "Leaf"
            }
        ],
        "type": "AVSplit"
    },
    {
        "children": [
            {
                "data": "5:64391",
                "leaf": "clip",
                "type": "Leaf"
            },
            {
                "data": "4:64391",
                "leaf": "clip",
                "type": "Leaf"
            }
        ],
        "type": "AVSplit"
    },
    {
        "children": [
            {
                "data": "4:80850",
                "leaf": "clip",
                "type": "Leaf"
            },
            {
                "data": "5:80850",
                "leaf": "clip",
                "type": "Leaf"
            }
        ],
        "type": "AVSplit"
    },
    {
        "children": [
            {
                "data": "4:46443",
                "leaf": "clip",
                "type": "Leaf"
            },
            {
                "data": "5:46443",
                "leaf": "clip",
                "type": "Leaf"
            }
        ],
        "type": "AVSplit"
    },
    {
        "children": [
            {
                "data": "5:62480",
                "leaf": "clip",
                "type": "Leaf"
            },
            {
                "data": "4:62480",
                "leaf": "clip",
                "type": "Leaf"
            }
        ],
        "type": "AVSplit"
    },
    {
        "children": [
            {
                "data": "5:28547",
                "leaf": "clip",
                "type": "Leaf"
            },
            {
                "data": "4:28547",
                "leaf": "clip",
                "type": "Leaf"
            }
        ],
        "type": "AVSplit"
    },
    {
        "children": [
            {
                "data": "5:81846",
                "leaf": "clip",
                "type": "Leaf"
            },
            {
                "data": "4:81846",
                "leaf": "clip",
                "type": "Leaf"
            }
        ],
        "type": "AVSplit"
    },
    {
        "children": [
            {
                "data": "4:57143",
                "leaf": "clip",
                "type": "Leaf"
            },
            {
                "data": "5:57143",
                "leaf": "clip",
                "type": "Leaf"
            }
        ],
        "type": "AVSplit"
    },
    {
        "children": [
            {
                "data": "4:16554",
                "leaf": "clip",
                "type": "Leaf"
            },
            {
                "data": "5:16554",
                "leaf": "clip",
                "type": "Leaf"
            }
        ],
        "type": "AVSplit"
    },
    {
        "children": [
            {
                "data": "5:78813",
                "leaf": "clip",
                "type": "Leaf"
            },
            {
                "data": "4:78813",
                "leaf": "clip",
                "type": "Leaf"
            }
        ],
        "type": "AVSplit"
    },
    {
        "children": [
            {
                "data": "5:23464",
                "leaf": "clip",
                "type": "Leaf"
            },
            {
                "data": "4:23464",
                "leaf": "clip",
                "type": "Leaf"
            }
        ],
        "type": "AVSplit"
    },
    {
        "children": [
            {
                "data": "4:32331",
                "leaf": "clip",
                "type": "Leaf"
            },
            {
                "data": "5:32331",
                "leaf": "clip",
                "type": "Leaf"
            }
        ],
        "type": "AVSplit"
    },
    {
        "children": [
            {
                "data": "5:63058",
                "leaf": "clip",
                "type": "Leaf"
            },
            {
                "data": "4:63058",
                "leaf": "clip",
                "type": "Leaf"
            }
        ],
        "type": "AVSplit"
    },
    {
        "children": [
            {
                "data": "4:27762",
                "leaf": "clip",
                "type": "Leaf"
            },
            {
                "data": "5:27762",
                "leaf": "clip",
                "type": "Leaf"
            }
        ],
        "type": "AVSplit"
    },
    {
        "children": [
            {
                "data": "5:65161",
                "leaf": "clip",
                "type": "Leaf"
            },
            {
                "data": "4:65161",
                "leaf": "clip",
                "type": "Leaf"
            }
        ],
        "type": "AVSplit"
    },
    {
        "children": [
            {
                "data": "4:73527",
                "leaf": "clip",
                "type": "Leaf"
            },
            {
                "data": "5:73527",
                "leaf": "clip",
                "type": "Leaf"
            }
        ],
        "type": "AVSplit"
    },
    {
        "children": [
            {
                "data": "4:21415",
                "leaf": "clip",
                "type": "Leaf"
            },
            {
                "data": "5:21415",
                "leaf": "clip",
                "type": "Leaf"
            }
        ],
        "type": "AVSplit"
    },
    {
        "children": [
            {
                "data": "5:93714",
                "leaf": "clip",
                "type": "Leaf"
            },
            {
                "data": "4:93714",
                "leaf": "clip",
                "type": "Leaf"
            }
        ],
        "type": "AVSplit"
    },
    {
        "children": [
            {
                "data": "4:67906",
                "leaf": "clip",
                "type": "Leaf"
            },
            {
                "data": "5:67906",
                "leaf": "clip",
                "type": "Leaf"
            }
        ],
        "type": "AVSplit"
    },
    {
        "children": [
            {
                "data": "5:88417",
                "leaf": "clip",
                "type": "Leaf"
            },
            {
                "data": "4:88417",
                "leaf": "clip",
                "type": "Leaf"
            }
        ],
        "type": "AVSplit"
    },
    {
        "children": [
            {
                "data": "4:85323",
                "leaf": "clip",
                "type": "Leaf"
            },
            {
                "data": "5:85323",
                "leaf": "clip",
                "type": "Leaf"
            }
        ],
        "type": "AVSplit"
    },
    {
        "children": [
            {
                "data": "4:73592",
                "leaf": "clip",
                "type": "Leaf"
            },
            {
                "data": "5:73592",
                "leaf": "clip",
                "type": "Leaf"
            }
        ],
        "type": "AVSplit"
    },
    {
        "children": [
            {
                "data": "6:10375",
                "leaf": "clip",
                "type": "Leaf"
            },
            {
                "data": "3:10375",
                "leaf": "clip",
                "type": "Leaf"
            }
        ],
        "type": "AVSplit"
    },
    {
        "children": [
            {
                "data": "5:91721",
                "leaf": "clip",
                "type": "Leaf"
            },
            {
                "data": "4:91721",
                "leaf": "clip",
                "type": "Leaf"
            }
        ],
        "type": "AVSplit"
    },
    {
        "children": [
            {
                "data": "5:2658",
                "leaf": "clip",
                "type": "Leaf"
            },
            {
                "data": "4:2658",
                "leaf": "clip",
                "type": "Leaf"
            }
        ],
        "type": "AVSplit"
    },
    {
        "children": [
            {
                "data": "4:37551",
                "leaf": "clip",
                "type": "Leaf"
            },
            {
                "data": "5:37551",
                "leaf": "clip",
                "type": "Leaf"
            }
        ],
        "type": "AVSplit"
    },
    {
        "children": [
            {
                "data": "4:20836",
                "leaf": "clip",
                "type": "Leaf"
            },
            {
                "data": "5:20836",
                "leaf": "clip",
                "type": "Leaf"
            }
        ],
        "type": "AVSplit"
    },
    {
        "children": [
            {
                "data": "6:49325",
                "leaf": "clip",
                "type": "Leaf"
            },
            {
                "data": "3:49325",
                "leaf": "clip",
                "type": "Leaf"
            }
        ],
        "type": "AVSplit"
    },
    {
        "children": [
            {
                "data": "5:2452",
                "leaf": "clip",
                "type": "Leaf"
            },
            {
                "data": "4:2452",
                "leaf": "clip",
                "type": "Leaf"
            }
        ],
        "type": "AVSplit"
    },
    {
        "children": [
            {
                "data": "5:96743",
                "leaf": "clip",
                "type": "Leaf"
            },
            {
                "data": "4:96743",
                "leaf": "clip",
                "type": "Leaf"
            }
        ],
        "type": "AVSplit"
    },
    {
        "children": [
            {
                "data": "5:50524",
                "leaf": "clip",
                "type": "Leaf"
            },
            {
                "data": "4:50524",
                "leaf": "clip",
                "type": "Leaf"
            }
        ],
        "type": "AVSplit"
    },
    {
        "children": [
            {
                "data": "4:38547",
                "leaf": "clip",
                "type": "Leaf"
            },
            {
                "data": "5:38547",
                "leaf": "clip",
                "type": "Leaf"
            }
        ],
        "type": "AVSplit"
    },
    {
        "children": [
            {
                "data": "4:19172",
                "leaf": "clip",
                "type": "Leaf"
            },
            {
                "data": "5:19172",
                "leaf": "clip",
                "type": "Leaf"
            }
        ],
        "type": "AVSplit"
    },
    {
        "children": [
            {
                "data": "5:49093",
                "leaf": "clip",
                "type": "Leaf"
            },
            {
                "data": "4:49093",
                "leaf": "clip",
                "type": "Leaf"
            }
        ],
        "type": "AVSplit"
    },
    {
        "children": [
            {
                "data": "4:57193",
                "leaf": "clip",
                "type": "Leaf"
            },
            {
                "data": "5:57193",
                "leaf": "clip",
                "type": "Leaf"
            }
        ],
        "type": "AVSplit"
    },
    {
        "children": [
            {
                "data": "4:90878",
                "leaf": "clip",
                "type": "Leaf"
            },
            {
                "data": "5:90878",
                "leaf": "clip",
                "type": "Leaf"
            }
        ],
        "type": "AVSplit"
    },
    {
        "children": [
            {
                "data": "5:43777",
                "leaf": "clip",
                "type": "Leaf"
            },
            {
                "data": "4:43777",
                "leaf": "clip",
                "type": "Leaf"
            }
        ],
        "type": "AVSplit"
    },
    {
        "children": [
            {
                "data": "4:44850",
                "leaf": "clip",
                "type": "Leaf"
            },
            {
                "data": "5:44850",
                "leaf": "clip",
                "type": "Leaf"
            }
        ],
        "type": "AVSplit"
    },
    {
        "children": [
            {
                "data": "4:37511",
                "leaf": "clip",
                "type": "Leaf"
            },
            {
                "data": "5:37511",
                "leaf": "clip",
                "type": "Leaf"
            }
        ],
        "type": "AVSplit"
    },
    {
        "children": [
            {
                "data": "5:11494",
                "leaf": "clip",
                "type": "Leaf"
            },
            {
                "data": "4:11494",
                "leaf": "clip",
                "type": "Leaf"
            }
        ],
        "type": "AVSplit"
    },
    {
        "children": [
            {
                "data": "4:12738",
                "leaf": "clip",
                "type": "Leaf"
            },
            {
                "data": "5:12738",
                "leaf": "clip",
                "type": "Leaf"
            }
        ],
        "type": "AVSplit"
    },
    {
        "children": [
            {
                "data": "5:94424",
                "leaf": "clip",
                "type": "Leaf"
            },
            {
                "data": "4:94424",
                "leaf": "clip",
                "type": "Leaf"
            }
        ],
        "type": "AVSplit"
    },
    {
        "children": [
            {
                "data": "5:17947",
                "leaf": "clip",
                "type": "Leaf"
            },
            {
                "data": "4:17947",
                "leaf": "clip",
                "type": "Leaf"
            }
        ],
        "type": "AVSplit"
    },
    {
        "children": [
            {
                "data": "5:74562",
                "leaf": "clip",
                "type": "Leaf"
            },
            {
                "data": "4:74562",
                "leaf": "clip",
                "type": "Leaf"
            }
        ],
        "type": "AVSplit"
    },
    {
        "children": [
            {
                "data": "5:45578",
                "leaf": "clip",
                "type": "Leaf"
            },
            {
                "data": "4:45578",
                "leaf": "clip",
                "type": "Leaf"
            }
        ],
        "type": "AVSplit"
    },
    {
        "children": [
            {
                "data": "4:96436",
                "leaf": "clip",
                "type": "Leaf"
            },
            {
                "data": "5:96436",
                "leaf": "clip",
                "type": "Leaf"
            }
        ],
        "type": "AVSplit"
    },
    {
        "children": [
            {
                "data": "4:30857",
                "leaf": "clip",
                "type": "Leaf"
            },
            {
                "data": "5:30857",
                "leaf": "clip",
                "type": "Leaf"
            }
        ],
        "type": "AVSplit"
    },
    {
        "children": [
            {
                "data": "5:56621",
                "leaf": "clip",
                "type": "Leaf"
            },
            {
                "data": "4:56621",
                "leaf": "clip",
                "type": "Leaf"
            }
        ],
        "type": "AVSplit"
    },
    {
        "children": [
            {
                "data": "5:36869",
                "leaf": "clip",
                "type": "Leaf"
            },
            {
                "data": "4:36869",
                "leaf": "clip",
                "type": "Leaf"
            }
        ],
        "type": "AVSplit"
    },
    {
        "children": [
            {
                "data": "4:89334",
                "leaf": "clip",
                "type": "Leaf"
            },
            {
                "data": "5:89334",
                "leaf": "clip",
                "type": "Leaf"
            }
        ],
        "type": "AVSplit"
    },
    {
        "children": [
            {
                "data": "5:54325",
                "leaf": "clip",
                "type": "Leaf"
            },
            {
                "data": "4:54325",
                "leaf": "clip",
                "type": "Leaf"
            }
        ],
        "type": "AVSplit"
    },
    {
        "children": [
            {
                "data": "4:14956",
                "leaf": "clip",
                "type": "Leaf"
            },
            {
                "data": "5:14956",
                "leaf": "clip",
                "type": "Leaf"
            }
        ],
        "type": "AVSplit"
    },
    {
        "children": [
            {
                "data": "5:36719",
                "leaf": "clip",
                "type": "Leaf"
            },
            {
                "data": "4:36719",
                "leaf": "clip",
                "type": "Leaf"
            }
        ],
        "type": "AVSplit"
    },
    {
        "children": [
            {
                "data": "4:51712",
                "leaf": "clip",
                "type": "Leaf"
            },
            {
                "data": "5:51712",
                "leaf": "clip",
                "type": "Leaf"
            }
        ],
        "type": "AVSplit"
    },
    {
        "children": [
            {
                "data": "5:2833",
                "leaf": "clip",
                "type": "Leaf"
            },
            {
                "data": "4:2833",
                "leaf": "clip",
                "type": "Leaf"
            }
        ],
        "type": "AVSplit"
    },
    {
        "children": [
            {
                "data": "5:25242",
                "leaf": "clip",
                "type": "Leaf"
            },
            {
                "data": "4:25242",
                "leaf": "clip",
                "type": "Leaf"
            }
        ],
        "type": "AVSplit"
    },
    {
        "children": [
            {
                "data": "4:14796",
                "leaf": "clip",
                "type": "Leaf"
            },
            {
                "data": "5:14796",
                "leaf": "clip",
                "type": "Leaf"
            }
        ],
        "type": "AVSplit"
    },
    {
        "children": [
            {
                "data": "5:50353",
                "leaf": "clip",
                "type": "Leaf"
            },
            {
                "data": "4:50353",
                "leaf": "clip",
                "type": "Leaf"
            }
        ],
        "type": "AVSplit"
    },
    {
        "children": [
            {
                "data": "4:12500",
                "leaf": "clip",
                "type": "Leaf"
            },
            {
                "data": "5:12500",
                "leaf": "clip",
                "type": "Leaf"
            }
        ],
        "type": "AVSplit"
    },
    {
        "children": [
            {
                "data": "4:95639",
                "leaf": "clip",
                "type": "Leaf"
            },
            {
                "data": "5:95639",
                "leaf": "clip",
                "type": "Leaf"
            }
        ],
        "type": "AVSplit"
    },
    {
        "children": [
            {
                "data": "5:25163",
                "leaf": "clip",
                "type": "Leaf"
            },
            {
                "data": "4:25163",
                "leaf": "clip",
                "type": "Leaf"
            }
        ],
        "type": "AVSplit"
    },
    {
        "children": [
            {
                "data": "5:88996",
                "leaf": "clip",
                "type": "Leaf"
            },
            {
                "data": "4:88996",
                "leaf": "clip",
                "type": "Leaf"
            }
        ],
        "type": "AVSplit"
    },
    {
        "children": [
            {
                "data": "5:35966",
                "leaf": "clip",
                "type": "Leaf"
            },
            {
                "data": "4:35966",
                "leaf": "clip",
                "type": "Leaf"
            }
        ],
        "type": "AVSplit"
    },
    {
        "children": [
            {
                "data": "5:7263",
                "leaf": "clip",
                "type": "Leaf"
            },
            {
                "data": "4:7263",
                "leaf": "clip",
                "type": "Leaf"
            }
        ],
        "type": "AVSplit"
    },
    {
        "children": [
            {
                "data": "6:21563",
                "leaf": "clip",
                "type": "Leaf"
            },
            {
                "data": "3:21563",
                "leaf": "clip",
                "type": "Leaf"
            }
        ],
        "type": "AVSplit"
    },
    {
        "children": [
            {
                "data": "4:51758",
                "leaf": "clip",
                "type": "Leaf"
            },
            {
                "data": "5:51758",
                "leaf": "clip",
                "type": "Leaf"
            }
        ],
        "type": "AVSplit"
    },
    {
        "children": [
            {
                "data": "4:2535",
                "leaf": "clip",
                "type": "Leaf"
            },
            {
                "data": "5:2535",
                "leaf": "clip",
                "type": "Leaf"
            }
        ],
        "type": "AVSplit"
    },
    {
        "children": [
            {
                "data": "5:96881",
                "leaf": "clip",
                "type": "Leaf"
            },
            {
                "data": "4:96881",
                "leaf": "clip",
                "type": "Leaf"
            }
        ],
        "type": "AVSplit"
    },
    {
        "children": [
            {
                "data": "5:66327",
                "leaf": "clip",
                "type": "Leaf"
            },
            {
                "data": "4:66327",
                "leaf": "clip",
                "type": "Leaf"
            }
        ],
        "type": "AVSplit"
    },
    {
        "children": [
            {
                "data": "4:8805",
                "leaf": "clip",
                "type": "Leaf"
            },
            {
                "data": "5:8805",
                "leaf": "clip",
                "type": "Leaf"
            }
        ],
        "type": "AVSplit"
    },
    {
        "children": [
            {
                "data": "4:30343",
                "leaf": "clip",
                "type": "Leaf"
            },
            {
                "data": "5:30343",
                "leaf": "clip",
                "type": "Leaf"
            }
        ],
        "type": "AVSplit"
    },
    {
        "children": [
            {
                "data": "4:8172",
                "leaf": "clip",
                "type": "Leaf"
            },
            {
                "data": "5:8172",
                "leaf": "clip",
                "type": "Leaf"
            }
        ],
        "type": "AVSplit"
    },
    {
        "children": [
            {
                "data": "4:24165",
                "leaf": "clip",
                "type": "Leaf"
            },
            {
                "data": "5:24165",
                "leaf": "clip",
                "type": "Leaf"
            }
        ],
        "type": "AVSplit"
    },
    {
        "children": [
            {
                "data": "4:92810",
                "leaf": "clip",
                "type": "Leaf"
            },
            {
                "data": "5:92810",
                "leaf": "clip",
                "type": "Leaf"
            }
        ],
        "type": "AVSplit"
    },
    {
        "children": [
            {
                "data": "5:53979",
                "leaf": "clip",
                "type": "Leaf"
            },
            {
                "data": "4:53979",
                "leaf": "clip",
                "type": "Leaf"
            }
        ],
        "type": "AVSplit"
    },
    {
        "children": [
            {
                "data": "4:49781",
                "leaf": "clip",
                "type": "Leaf"
            },
            {
                "data": "5:49781",
                "leaf": "clip",
                "type": "Leaf"
            }
        ],
        "type": "AVSplit"
    },
    {
        "children": [
            {
                "data": "4:11608",
                "leaf": "clip",
                "type": "Leaf"
            },
            {
                "data": "5:11608",
                "leaf": "clip",
                "type": "Leaf"
            }
        ],
        "type": "AVSplit"
    },
    {
        "children": [
            {
                "data": "5:68564",
                "leaf": "clip",
                "type": "Leaf"
            },
            {
                "data": "4:68564",
                "leaf": "clip",
                "type": "Leaf"
            }
        ],
        "type": "AVSplit"
    },
    {
        "children": [
            {
                "data": "4:66235",
                "leaf": "clip",
                "type": "Leaf"
            },
            {
                "data": "5:66235",
                "leaf": "clip",
                "type": "Leaf"
            }
        ],
        "type": "AVSplit"
    },
    {
        "children": [
            {
                "data": "5:93827",
                "leaf": "clip",
                "type": "Leaf"
            },
            {
                "data": "4:93827",
                "leaf": "clip",
                "type": "Leaf"
            }
        ],
        "type": "AVSplit"
    },
    {
        "children": [
            {
                "data": "4:26647",
                "leaf": "clip",
                "type": "Leaf"
            },
            {
                "data": "5:26647",
                "leaf": "clip",
                "type": "Leaf"
            }
        ],
        "type": "AVSplit"
    },
    {
        "children": [
            {
                "data": "4:18646",
                "leaf": "clip",
                "type": "Leaf"
            },
            {
                "data": "5:18646",
                "leaf": "clip",
                "type": "Leaf"
            }
        ],
        "type": "AVSplit"
    },
    {
        "children": [
            {
                "data": "4:38636",
                "leaf": "clip",
                "type": "Leaf"
            },
            {
                "data": "5:38636",
                "leaf": "clip",
                "type": "Leaf"
            }
        ],
        "type": "AVSplit"
    },
    {
        "children": [
            {
                "data": "5:87654",
                "leaf": "clip",
                "type": "Leaf"
            },
            {
                "data": "4:87654",
                "leaf": "clip",
                "type": "Leaf"
            }
        ],
        "type": "AVSplit"
    },
    {
        "children": [
            {
                "data": "5:11071",
                "leaf": "clip",
                "type": "Leaf"
            },
            {
                "data": "4:11071",
                "leaf": "clip",
                "type": "Leaf"
            }
        ],
        "type": "AVSplit"
    },
    {
        "children": [
            {
                "data": "4:1636",
                "leaf": "clip",
                "type": "Leaf"
            },
            {
                "data": "5:1636",
                "leaf": "clip",
                "type": "Leaf"
            }
        ],
        "type": "AVSplit"
    },
    {
        "children": [
            {
                "data": "5:10947",
                "leaf": "clip",
                "type": "Leaf"
            },
            {
                "data": "4:10947",
                "leaf": "clip",
                "type": "Leaf"
            }
        ],
        "type": "AVSplit"
    },
    {
        "children": [
            {
                "data": "4:96828",
                "leaf": "clip",
                "type": "Leaf"
            },
            {
                "data": "5:96828",
                "leaf": "clip",
                "type": "Leaf"
            }
        ],
        "type": "AVSplit"
    },
    {
        "children": [
            {
                "data": "4:26318",
                "leaf": "clip",
                "type": "Leaf"
            },
            {
                "data": "5:26318",
                "leaf": "clip",
                "type": "Leaf"
            }
        ],
        "type": "AVSplit"
    },
    {
        "children": [
            {
                "data": "4:53507",
                "leaf": "clip",
                "type": "Leaf"
            },
            {
                "data": "5:53507",
                "leaf": "clip",
                "type": "Leaf"
            }
        ],
        "type": "AVSplit"
    },
    {
        "children": [
            {
                "data": "4:2283",
                "leaf": "clip",
                "type": "Leaf"
            },
            {
                "data": "5:2283",
                "leaf": "clip",
                "type": "Leaf"
            }
        ],
        "type": "AVSplit"
    },
    {
        "children": [
            {
                "data": "5:47997",
                "leaf": "clip",
                "type": "Leaf"
            },
            {
                "data": "4:47997",
                "leaf": "clip",
                "type": "Leaf"
            }
        ],
        "type": "AVSplit"
    },
    {
        "children": [
            {
                "data": "5:33207",
                "leaf": "clip",
                "type": "Leaf"
            },
            {
                "data": "4:33207",
                "leaf": "clip",
                "type": "Leaf"
            }
        ],
        "type": "AVSplit"
    },
    {
        "children": [
            {
                "data": "5:92652",
                "leaf": "clip",
                "type": "Leaf"
            },
            {
                "data": "4:92652",
                "leaf": "clip",
                "type": "Leaf"
            }
        ],
        "type": "AVSplit"
    },
    {
        "children": [
            {
                "data": "4:40899",
                "leaf": "clip",
                "type": "Leaf"
            },
            {
                "data": "5:40899",
                "leaf": "clip",
                "type": "Leaf"
            }
        ],
        "type": "AVSplit"
    },
    {
        "children": [
            {
                "data": "4:72115",
                "leaf": "clip",
                "type": "Leaf"
            },
            {
                "data": "5:72115",
                "leaf": "clip",
                "type": "Leaf"
            }
        ],
        "type": "AVSplit"
    },
    {
        "children": [
            {
                "data": "5:32552",
                "leaf": "clip",
                "type": "Leaf"
            },
            {
                "data": "4:32552",
                "leaf": "clip",
                "type": "Leaf"
            }
        ],
        "type": "AVSplit"
    },
    {
        "children": [
            {
                "data": "4:71642",
                "leaf": "clip",
                "type": "Leaf"
            },
            {
                "data": "5:71642",
                "leaf": "clip",
                "type": "Leaf"
            }
        ],
        "type": "AVSplit"
    },
    {
        "children": [
            {
                "data": "5:15090",
                "leaf": "clip",
                "type": "Leaf"
            },
            {
                "data": "4:15090",
                "leaf": "clip",
                "type": "Leaf"
            }
        ],
        "type": "AVSplit"
    },
    {
        "children": [
            {
                "children": [
                    {
                        "data": "3:55022",
                        "leaf": "clip",
                        "type": "Leaf"
                    },
                    {
                        "data": "6:55022",
                        "leaf": "clip",
                        "type": "Leaf"
                    }
                ],
                "type": "AVSplit"
            },
            {
                "children": [
                    {
                        "data": "6:54637",
                        "leaf": "clip",
                        "type": "Leaf"
                    },
                    {
                        "data": "3:54637",
                        "leaf": "clip",
                        "type": "Leaf"
                    }
                ],
                "type": "AVSplit"
            },
            {
                "children": [
                    {
                        "data": "3:55190",
                        "leaf": "clip",
                        "type": "Leaf"
                    },
                    {
                        "data": "6:55190",
                        "leaf": "clip",
                        "type": "Leaf"
                    }
                ],
                "type": "AVSplit"
            }
        ],
        "type": "Normal"
    },
    {
        "children": [
            {
                "data": "0:1636",
                "leaf": "clip",
                "type": "Leaf"
            },
            {
                "data": "9:1636",
                "leaf": "clip",
                "type": "Leaf"
            }
        ],
        "type": "AVSplit"
    },
    {
        "children": [
            {
                "data": "4:76564",
                "leaf": "clip",
                "type": "Leaf"
            },
            {
                "data": "5:76564",
                "leaf": "clip",
                "type": "Leaf"
            }
        ],
        "type": "AVSplit"
    },
    {
        "children": [
            {
                "data": "5:34393",
                "leaf": "clip",
                "type": "Leaf"
            },
            {
                "data": "4:34393",
                "leaf": "clip",
                "type": "Leaf"
            }
        ],
        "type": "AVSplit"
    },
    {
        "children": [
            {
                "data": "4:29867",
                "leaf": "clip",
                "type": "Leaf"
            },
            {
                "data": "5:29867",
                "leaf": "clip",
                "type": "Leaf"
            }
        ],
        "type": "AVSplit"
    },
    {
        "children": [
            {
                "data": "5:40713",
                "leaf": "clip",
                "type": "Leaf"
            },
            {
                "data": "4:40713",
                "leaf": "clip",
                "type": "Leaf"
            }
        ],
        "type": "AVSplit"
    },
    {
        "children": [
            {
                "data": "4:91117",
                "leaf": "clip",
                "type": "Leaf"
            },
            {
                "data": "5:91117",
                "leaf": "clip",
                "type": "Leaf"
            }
        ],
        "type": "AVSplit"
    },
    {
        "children": [
            {
                "data": "5:30726",
                "leaf": "clip",
                "type": "Leaf"
            },
            {
                "data": "4:30726",
                "leaf": "clip",
                "type": "Leaf"
            }
        ],
        "type": "AVSplit"
    },
    {
        "children": [
            {
                "data": "5:35672",
                "leaf": "clip",
                "type": "Leaf"
            },
            {
                "data": "4:35672",
                "leaf": "clip",
                "type": "Leaf"
            }
        ],
        "type": "AVSplit"
    },
    {
        "children": [
            {
                "data": "5:64812",
                "leaf": "clip",
                "type": "Leaf"
            },
            {
                "data": "4:64812",
                "leaf": "clip",
                "type": "Leaf"
            }
        ],
        "type": "AVSplit"
    },
    {
        "children": [
            {
                "data": "5:89042",
                "leaf": "clip",
                "type": "Leaf"
            },
            {
                "data": "4:89042",
                "leaf": "clip",
                "type": "Leaf"
            }
        ],
        "type": "AVSplit"
    },
    {
        "children": [
            {
                "data": "5:34206",
                "leaf": "clip",
                "type": "Leaf"
            },
            {
                "data": "4:34206",
                "leaf": "clip",
                "type": "Leaf"
            }
        ],
        "type": "AVSplit"
    },
    {
        "children": [
            {
                "data": "5:96934",
                "leaf": "clip",
                "type": "Leaf"
            },
            {
                "data": "4:96934",
                "leaf": "clip",
                "type": "Leaf"
            }
        ],
        "type": "AVSplit"
    },
    {
        "children": [
            {
                "data": "4:50049",
                "leaf": "clip",
                "type": "Leaf"
            },
            {
                "data": "5:50049",
                "leaf": "clip",
                "type": "Leaf"
            }
        ],
        "type": "AVSplit"
    },
    {
        "children": [
            {
                "data": "5:2985",
                "leaf": "clip",
                "type": "Leaf"
            },
            {
                "data": "4:2985",
                "leaf": "clip",
                "type": "Leaf"
            }
        ],
        "type": "AVSplit"
    },
    {
        "children": [
            {
                "data": "4:34558",
                "leaf": "clip",
                "type": "Leaf"
            },
            {
                "data": "5:34558",
                "leaf": "clip",
                "type": "Leaf"
            }
        ],
        "type": "AVSplit"
    },
    {
        "children": [
            {
                "data": "5:7948",
                "leaf": "clip",
                "type": "Leaf"
            },
            {
                "data": "4:7948",
                "leaf": "clip",
                "type": "Leaf"
            }
        ],
        "type": "AVSplit"
    },
    {
        "children": [
            {
                "data": "4:12195",
                "leaf": "clip",
                "type": "Leaf"
            },
            {
                "data": "5:12195",
                "leaf": "clip",
                "type": "Leaf"
            }
        ],
        "type": "AVSplit"
    },
    {
        "children": [
            {
                "data": "4:71238",
                "leaf": "clip",
                "type": "Leaf"
            },
            {
                "data": "5:71238",
                "leaf": "clip",
                "type": "Leaf"
            }
        ],
        "type": "AVSplit"
    },
    {
        "children": [
            {
                "data": "5:85379",
                "leaf": "clip",
                "type": "Leaf"
            },
            {
                "data": "4:85379",
                "leaf": "clip",
                "type": "Leaf"
            }
        ],
        "type": "AVSplit"
    },
    {
        "children": [
            {
                "data": "4:74190",
                "leaf": "clip",
                "type": "Leaf"
            },
            {
                "data": "5:74190",
                "leaf": "clip",
                "type": "Leaf"
            }
        ],
        "type": "AVSplit"
    },
    {
        "children": [
            {
                "data": "5:35021",
                "leaf": "clip",
                "type": "Leaf"
            },
            {
                "data": "4:35021",
                "leaf": "clip",
                "type": "Leaf"
            }
        ],
        "type": "AVSplit"
    },
    {
        "children": [
            {
                "data": "4:44989",
                "leaf": "clip",
                "type": "Leaf"
            },
            {
                "data": "5:44989",
                "leaf": "clip",
                "type": "Leaf"
            }
        ],
        "type": "AVSplit"
    },
    {
        "children": [
            {
                "data": "4:32520",
                "leaf": "clip",
                "type": "Leaf"
            },
            {
                "data": "5:32520",
                "leaf": "clip",
                "type": "Leaf"
            }
        ],
        "type": "AVSplit"
    },
    {
        "children": [
            {
                "data": "4:46353",
                "leaf": "clip",
                "type": "Leaf"
            },
            {
                "data": "5:46353",
                "leaf": "clip",
                "type": "Leaf"
            }
        ],
        "type": "AVSplit"
    },
    {
        "children": [
            {
                "data": "4:32751",
                "leaf": "clip",
                "type": "Leaf"
            },
            {
                "data": "5:32751",
                "leaf": "clip",
                "type": "Leaf"
            }
        ],
        "type": "AVSplit"
    },
    {
        "children": [
            {
                "data": "4:86994",
                "leaf": "clip",
                "type": "Leaf"
            },
            {
                "data": "5:86994",
                "leaf": "clip",
                "type": "Leaf"
            }
        ],
        "type": "AVSplit"
    },
    {
        "children": [
            {
                "data": "4:14600",
                "leaf": "clip",
                "type": "Leaf"
            },
            {
                "data": "5:14600",
                "leaf": "clip",
                "type": "Leaf"
            }
        ],
        "type": "AVSplit"
    },
    {
        "children": [
            {
                "data": "4:1827",
                "leaf": "clip",
                "type": "Leaf"
            },
            {
                "data": "5:1827",
                "leaf": "clip",
                "type": "Leaf"
            }
        ],
        "type": "AVSplit"
    },
    {
        "children": [
            {
                "data": "4:17882",
                "leaf": "clip",
                "type": "Leaf"
            },
            {
                "data": "5:17882",
                "leaf": "clip",
                "type": "Leaf"
            }
        ],
        "type": "AVSplit"
    },
    {
        "children": [
            {
                "data": "5:43447",
                "leaf": "clip",
                "type": "Leaf"
            },
            {
                "data": "4:43447",
                "leaf": "clip",
                "type": "Leaf"
            }
        ],
        "type": "AVSplit"
    },
    {
        "children": [
            {
                "data": "4:65316",
                "leaf": "clip",
                "type": "Leaf"
            },
            {
                "data": "5:65316",
                "leaf": "clip",
                "type": "Leaf"
            }
        ],
        "type": "AVSplit"
    },
    {
        "children": [
            {
                "data": "5:91847",
                "leaf": "clip",
                "type": "Leaf"
            },
            {
                "data": "4:91847",
                "leaf": "clip",
                "type": "Leaf"
            }
        ],
        "type": "AVSplit"
    },
    {
        "children": [
            {
                "data": "4:17100",
                "leaf": "clip",
                "type": "Leaf"
            },
            {
                "data": "5:17100",
                "leaf": "clip",
                "type": "Leaf"
            }
        ],
        "type": "AVSplit"
    },
    {
        "children": [
            {
                "data": "4:29002",
                "leaf": "clip",
                "type": "Leaf"
            },
            {
                "data": "5:29002",
                "leaf": "clip",
                "type": "Leaf"
            }
        ],
        "type": "AVSplit"
    },
    {
        "children": [
            {
                "data": "4:24059",
                "leaf": "clip",
                "type": "Leaf"
            },
            {
                "data": "5:24059",
                "leaf": "clip",
                "type": "Leaf"
            }
        ],
        "type": "AVSplit"
    },
    {
        "children": [
            {
                "data": "5:18884",
                "leaf": "clip",
                "type": "Leaf"
            },
            {
                "data": "5:18842",
                "leaf": "clip",
                "type": "Leaf"
            },
            {
                "data": "4:18842",
                "leaf": "clip",
                "type": "Leaf"
            },
            {
                "children": [
                    {
                        "data": "5:18976",
                        "leaf": "clip",
                        "type": "Leaf"
                    },
                    {
                        "data": "4:18976",
                        "leaf": "clip",
                        "type": "Leaf"
                    }
                ],
                "type": "AVSplit"
            },
            {
                "children": [
                    {
                        "data": "6:18953",
                        "leaf": "clip",
                        "type": "Leaf"
                    },
                    {
                        "data": "3:18953",
                        "leaf": "clip",
                        "type": "Leaf"
                    }
                ],
                "type": "AVSplit"
            }
        ],
        "type": "Normal"
    },
    {
        "children": [
            {
                "data": "5:16015",
                "leaf": "clip",
                "type": "Leaf"
            },
            {
                "data": "4:16015",
                "leaf": "clip",
                "type": "Leaf"
            }
        ],
        "type": "AVSplit"
    },
    {
        "children": [
            {
                "data": "5:54239",
                "leaf": "clip",
                "type": "Leaf"
            },
            {
                "data": "4:54239",
                "leaf": "clip",
                "type": "Leaf"
            }
        ],
        "type": "AVSplit"
    },
    {
        "children": [
            {
                "data": "5:65513",
                "leaf": "clip",
                "type": "Leaf"
            },
            {
                "data": "4:65513",
                "leaf": "clip",
                "type": "Leaf"
            }
        ],
        "type": "AVSplit"
    },
    {
        "children": [
            {
                "data": "4:95939",
                "leaf": "clip",
                "type": "Leaf"
            },
            {
                "data": "5:95939",
                "leaf": "clip",
                "type": "Leaf"
            }
        ],
        "type": "AVSplit"
    },
    {
        "children": [
            {
                "data": "5:4716",
                "leaf": "clip",
                "type": "Leaf"
            },
            {
                "data": "4:4716",
                "leaf": "clip",
                "type": "Leaf"
            }
        ],
        "type": "AVSplit"
    },
    {
        "children": [
            {
                "data": "5:94154",
                "leaf": "clip",
                "type": "Leaf"
            },
            {
                "data": "4:94154",
                "leaf": "clip",
                "type": "Leaf"
            }
        ],
        "type": "AVSplit"
    },
    {
        "children": [
            {
                "data": "5:85856",
                "leaf": "clip",
                "type": "Leaf"
            },
            {
                "data": "4:85856",
                "leaf": "clip",
                "type": "Leaf"
            }
        ],
        "type": "AVSplit"
    },
    {
        "children": [
            {
                "data": "4:45436",
                "leaf": "clip",
                "type": "Leaf"
            },
            {
                "data": "5:45436",
                "leaf": "clip",
                "type": "Leaf"
            }
        ],
        "type": "AVSplit"
    },
    {
        "children": [
            {
                "data": "4:18778",
                "leaf": "clip",
                "type": "Leaf"
            },
            {
                "data": "5:18778",
                "leaf": "clip",
                "type": "Leaf"
            }
        ],
        "type": "AVSplit"
    },
    {
        "children": [
            {
                "data": "6:68764",
                "leaf": "clip",
                "type": "Leaf"
            },
            {
                "data": "3:68764",
                "leaf": "clip",
                "type": "Leaf"
            }
        ],
        "type": "AVSplit"
    },
    {
        "children": [
            {
                "data": "4:29201",
                "leaf": "clip",
                "type": "Leaf"
            },
            {
                "data": "5:29201",
                "leaf": "clip",
                "type": "Leaf"
            }
        ],
        "type": "AVSplit"
    },
    {
        "children": [
            {
                "data": "4:88019",
                "leaf": "clip",
                "type": "Leaf"
            },
            {
                "data": "5:88019",
                "leaf": "clip",
                "type": "Leaf"
            }
        ],
        "type": "AVSplit"
    },
    {
        "children": [
            {
                "data": "5:33073",
                "leaf": "clip",
                "type": "Leaf"
            },
            {
                "data": "4:33073",
                "leaf": "clip",
                "type": "Leaf"
            }
        ],
        "type": "AVSplit"
    },
    {
        "children": [
            {
                "data": "5:29030",
                "leaf": "clip",
                "type": "Leaf"
            },
            {
                "data": "4:29030",
                "leaf": "clip",
                "type": "Leaf"
            }
        ],
        "type": "AVSplit"
    },
    {
        "children": [
            {
                "data": "4:65396",
                "leaf": "clip",
                "type": "Leaf"
            },
            {
                "data": "5:65396",
                "leaf": "clip",
                "type": "Leaf"
            }
        ],
        "type": "AVSplit"
    },
    {
        "children": [
            {
                "data": "5:81480",
                "leaf": "clip",
                "type": "Leaf"
            },
            {
                "data": "4:81480",
                "leaf": "clip",
                "type": "Leaf"
            }
        ],
        "type": "AVSplit"
    },
    {
        "children": [
            {
                "data": "5:3777",
                "leaf": "clip",
                "type": "Leaf"
            },
            {
                "data": "4:3777",
                "leaf": "clip",
                "type": "Leaf"
            }
        ],
        "type": "AVSplit"
    },
    {
        "children": [
            {
                "data": "4:58098",
                "leaf": "clip",
                "type": "Leaf"
            },
            {
                "data": "5:58098",
                "leaf": "clip",
                "type": "Leaf"
            }
        ],
        "type": "AVSplit"
    },
    {
        "children": [
            {
                "data": "5:78041",
                "leaf": "clip",
                "type": "Leaf"
            },
            {
                "data": "4:78041",
                "leaf": "clip",
                "type": "Leaf"
            }
        ],
        "type": "AVSplit"
    },
    {
        "children": [
            {
                "data": "5:38319",
                "leaf": "clip",
                "type": "Leaf"
            },
            {
                "data": "4:38319",
                "leaf": "clip",
                "type": "Leaf"
            }
        ],
        "type": "AVSplit"
    },
    {
        "children": [
            {
                "data": "4:1087",
                "leaf": "clip",
                "type": "Leaf"
            },
            {
                "data": "5:1087",
                "leaf": "clip",
                "type": "Leaf"
            }
        ],
        "type": "AVSplit"
    },
    {
        "children": [
            {
                "data": "5:67455",
                "leaf": "clip",
                "type": "Leaf"
            },
            {
                "data": "4:67455",
                "leaf": "clip",
                "type": "Leaf"
            }
        ],
        "type": "AVSplit"
    },
    {
        "children": [
            {
                "data": "4:64938",
                "leaf": "clip",
                "type": "Leaf"
            },
            {
                "data": "5:64938",
                "leaf": "clip",
                "type": "Leaf"
            }
        ],
        "type": "AVSplit"
    },
    {
        "children": [
            {
                "data": "4:85540",
                "leaf": "clip",
                "type": "Leaf"
            },
            {
                "data": "5:85540",
                "leaf": "clip",
                "type": "Leaf"
            }
        ],
        "type": "AVSplit"
    },
    {
        "children": [
            {
                "data": "5:1214",
                "leaf": "clip",
                "type": "Leaf"
            },
            {
                "data": "4:1214",
                "leaf": "clip",
                "type": "Leaf"
            }
        ],
        "type": "AVSplit"
    },
    {
        "children": [
            {
                "data": "4:34111",
                "leaf": "clip",
                "type": "Leaf"
            },
            {
                "data": "5:34111",
                "leaf": "clip",
                "type": "Leaf"
            }
        ],
        "type": "AVSplit"
    },
    {
        "children": [
            {
                "data": "4:24397",
                "leaf": "clip",
                "type": "Leaf"
            },
            {
                "data": "5:24397",
                "leaf": "clip",
                "type": "Leaf"
            }
        ],
        "type": "AVSplit"
    }
]
</property>
  <property name="kdenlive:docproperties.guides">[
]
</property>
  <property name="kdenlive:docproperties.kdenliveversion">22.08.3</property>
  <property name="kdenlive:docproperties.position">91813</property>
  <property name="kdenlive:docproperties.previewchunks"/>
  <property name="kdenlive:docproperties.previewextension">mkv</property>
  <property name="kdenlive:docproperties.previewparameters">vcodec=h264_vaapi g=1 bf=0 profile=578</property>
  <property name="kdenlive:docproperties.profile">atsc_1080p_60</property>
  <property name="kdenlive:docproperties.proxyextension">mov</property>
  <property name="kdenlive:docproperties.proxyimageminsize">2000</property>
  <property name="kdenlive:docproperties.proxyimagesize">800</property>
  <property name="kdenlive:docproperties.proxyminsize">1000</property>
  <property name="kdenlive:docproperties.proxyparams">-vf scale=%width:-2 -vcodec libx264 -g 1 -bf 0 -vb 0 -crf 20 -preset veryfast -acodec aac -ab 128k</property>
  <property name="kdenlive:docproperties.proxyresize">640</property>
  <property name="kdenlive:docproperties.rendercategory">Generic (HD for web, mobile devices...)</property>
  <property name="kdenlive:docproperties.rendercustomquality">100</property>
  <property name="kdenlive:docproperties.renderendguide">1</property>
  <property name="kdenlive:docproperties.renderexportaudio">0</property>
  <property name="kdenlive:docproperties.rendermode">2</property>
  <property name="kdenlive:docproperties.renderplay">0</property>
  <property name="kdenlive:docproperties.renderpreview">0</property>
  <property name="kdenlive:docproperties.renderprofile">Matroska-H264/AAC</property>
  <property name="kdenlive:docproperties.renderratio">1</property>
  <property name="kdenlive:docproperties.renderrescale">0</property>
  <property name="kdenlive:docproperties.renderrescaleheight">540</property>
  <property name="kdenlive:docproperties.renderrescalewidth">960</property>
  <property name="kdenlive:docproperties.renderspeed">8</property>
  <property name="kdenlive:docproperties.renderstartguide">0</property>
  <property name="kdenlive:docproperties.rendertcoverlay">0</property>
  <property name="kdenlive:docproperties.rendertctype">-1</property>
  <property name="kdenlive:docproperties.rendertwopass">0</property>
  <property name="kdenlive:docproperties.renderurl">/home/federico/Videos/Edit/VideoRendering/DS3_cinders_4.mkv</property>
  <property name="kdenlive:docproperties.scrollPos">124717</property>
  <property name="kdenlive:docproperties.seekOffset">30000</property>
  <property name="kdenlive:docproperties.storagefolder">/home/federico/Videos/Edit/Kden/ProxyRender/1748098229019</property>
  <property name="kdenlive:docproperties.version">1.04</property>
  <property name="kdenlive:docproperties.verticalzoom">1</property>
  <property name="kdenlive:docproperties.videoTarget">-1</property>
  <property name="kdenlive:docproperties.zonein">0</property>
  <property name="kdenlive:docproperties.zoneout">75</property>
  <property name="kdenlive:docproperties.zoom">6</property>
  <property name="kdenlive:expandedFolders">103;5</property>
  <property name="kdenlive:documentnotes"/>
  <property name="xml_retain">1</property>
  <entry producer="producer1" in="00:00:00.000" out="00:00:01.517"/>
  <entry producer="producer3" in="00:00:00.000" out="00:00:00.817"/>
  <entry producer="producer0" in="00:00:00.000" out="00:00:00.817"/>
  <entry producer="producer2" in="00:00:00.000" out="00:00:00.817"/>
  <entry producer="producer13" in="00:00:00.000" out="00:00:00.817"/>
  <entry producer="producer7" in="00:00:00.000" out="00:00:00.817"/>
  <entry producer="producer4" in="00:00:00.000" out="00:00:00.817"/>
  <entry producer="producer5" in="00:00:00.000" out="00:00:00.817"/>
  <entry producer="producer6" in="00:00:00.000" out="00:00:00.817"/>
  <entry producer="producer8" in="00:00:00.000" out="00:00:00.817"/>
  <entry producer="producer9" in="00:00:00.000" out="00:00:00.817"/>
  <entry producer="producer11" in="00:00:00.000" out="00:00:00.817"/>
  <entry producer="producer10" in="00:00:00.000" out="00:00:00.817"/>
  <entry producer="producer12" in="00:00:00.000" out="00:00:00.817"/>
  <entry producer="producer15" in="00:00:00.000" out="00:00:00.817"/>
  <entry producer="producer14" in="00:00:00.000" out="00:00:01.517"/>
  <entry producer="producer20" in="00:00:00.000" out="00:00:00.817"/>
  <entry producer="producer16" in="00:00:00.000" out="00:00:00.817"/>
  <entry producer="producer17" in="00:00:00.000" out="00:00:00.817"/>
  <entry producer="producer21" in="00:00:00.000" out="00:00:00.817"/>
  <entry producer="producer18" in="00:00:00.000" out="00:00:00.817"/>
  <entry producer="producer22" in="00:00:00.000" out="00:00:00.817"/>
  <entry producer="producer19" in="00:00:00.000" out="00:00:00.817"/>
  <entry producer="producer23" in="00:00:00.000" out="00:00:05.783"/>
  <entry producer="producer24" in="00:00:00.000" out="00:00:01.300"/>
  <entry producer="producer27" in="00:00:00.000" out="00:00:01.650"/>
  <entry producer="producer25" in="00:00:00.000" out="00:00:01.883"/>
  <entry producer="producer28" in="00:00:00.000" out="00:00:08.500"/>
  <entry producer="producer26" in="00:00:00.000" out="00:00:04.117"/>
  <entry producer="producer29" in="00:00:00.000" out="00:00:10.817"/>
  <entry producer="producer30" in="00:00:00.000" out="00:00:12.283"/>
  <entry producer="producer32" in="00:00:00.000" out="00:00:11.350"/>
  <entry producer="producer31" in="00:00:00.000" out="00:00:10.017"/>
  <entry producer="producer34" in="00:00:00.000" out="00:00:01.217"/>
  <entry producer="producer33" in="00:00:00.000" out="00:00:00.967"/>
  <entry producer="producer35" in="00:00:00.000" out="00:00:14.617"/>
  <entry producer="producer36" in="00:00:00.000" out="00:00:07.117"/>
  <entry producer="producer37" in="00:00:00.000" out="00:00:06.700"/>
  <entry producer="producer38" in="00:00:00.000" out="00:00:03.200"/>
  <entry producer="producer39" in="00:00:00.000" out="00:00:04.117"/>
  <entry producer="producer40" in="00:00:00.000" out="00:00:10.383"/>
  <entry producer="producer42" in="00:00:00.000" out="00:00:07.400"/>
  <entry producer="producer41" in="00:00:00.000" out="00:00:00.950"/>
  <entry producer="producer44" in="00:00:00.000" out="00:00:05.150"/>
  <entry producer="producer43" in="00:00:00.000" out="00:00:01.867"/>
  <entry producer="producer51" in="00:00:00.000" out="00:00:05.633"/>
  <entry producer="producer45" in="00:00:00.000" out="00:00:03.117"/>
  <entry producer="producer46" in="00:00:00.000" out="00:00:09.567"/>
  <entry producer="producer47" in="00:00:00.000" out="00:00:03.150"/>
  <entry producer="producer48" in="00:00:00.000" out="00:00:03.717"/>
  <entry producer="producer49" in="00:00:00.000" out="00:00:18.967"/>
  <entry producer="producer50" in="00:00:00.000" out="00:00:12.900"/>
  <entry producer="producer52" in="00:00:00.000" out="00:00:07.667"/>
  <entry producer="producer53" in="00:00:00.000" out="00:00:05.100"/>
  <entry producer="producer54" in="00:00:00.000" out="00:00:18.733"/>
  <entry producer="producer55" in="00:00:00.000" out="00:00:22.350"/>
  <entry producer="producer56" in="00:00:00.000" out="00:00:28.433"/>
  <entry producer="producer57" in="00:00:00.000" out="00:00:10.467"/>
  <entry producer="producer58" in="00:00:00.000" out="00:00:07.683"/>
  <entry producer="producer59" in="00:00:00.000" out="00:00:23.733"/>
  <entry producer="producer60" in="00:00:00.000" out="00:00:30.717"/>
  <entry producer="producer61" in="00:00:00.000" out="00:00:39.717"/>
  <entry producer="producer63" in="00:00:00.000" out="00:00:12.550"/>
  <entry producer="producer62" in="00:00:00.000" out="00:00:11.500"/>
  <entry producer="producer64" in="00:00:00.000" out="00:00:24.850"/>
  <entry producer="producer65" in="00:00:00.000" out="00:00:08.850"/>
  <entry producer="producer66" in="00:00:00.000" out="00:00:09.600"/>
  <entry producer="producer67" in="00:00:00.000" out="00:00:10.433"/>
  <entry producer="producer69" in="00:00:00.000" out="00:00:04.783"/>
  <entry producer="producer68" in="00:00:00.000" out="00:00:04.383"/>
  <entry producer="producer70" in="00:00:00.000" out="00:00:11.683"/>
  <entry producer="producer71" in="00:00:00.000" out="00:00:10.617"/>
  <entry producer="producer72" in="00:00:00.000" out="00:00:16.250"/>
  <entry producer="producer73" in="00:00:00.000" out="00:00:16.133"/>
  <entry producer="producer74" in="00:00:00.000" out="00:00:13.167"/>
  <entry producer="producer75" in="00:00:00.000" out="00:00:03.450"/>
  <entry producer="producer77" in="00:00:00.000" out="00:00:05.783"/>
  <entry producer="producer78" in="00:00:00.000" out="00:00:22.900"/>
  <entry producer="producer76" in="00:00:00.000" out="00:00:09.850"/>
  <entry producer="producer80" in="00:00:00.000" out="00:00:02.783"/>
  <entry producer="producer79" in="00:00:00.000" out="00:00:18.450"/>
  <entry producer="producer81" in="00:00:00.000" out="00:00:11.000"/>
  <entry producer="producer82" in="00:00:00.000" out="00:00:08.267"/>
  <entry producer="producer83" in="00:00:00.000" out="00:00:09.017"/>
  <entry producer="producer84" in="00:00:00.000" out="00:00:10.300"/>
  <entry producer="producer85" in="00:00:00.000" out="00:00:11.967"/>
  <entry producer="producer86" in="00:00:00.000" out="00:00:06.300"/>
  <entry producer="producer87" in="00:00:00.000" out="00:00:12.567"/>
  <entry producer="producer88" in="00:00:00.000" out="00:00:32.267"/>
  <entry producer="producer89" in="00:00:00.000" out="00:00:01.617"/>
  <entry producer="producer90" in="00:00:00.000" out="00:00:02.000"/>
  <entry producer="producer91" in="00:00:00.000" out="00:00:02.300"/>
  <entry producer="producer92" in="00:00:00.000" out="00:00:01.100"/>
  <entry producer="producer93" in="00:00:00.000" out="00:00:04.083"/>
  <entry producer="producer94" in="00:00:00.000" out="00:00:04.600"/>
  <entry producer="producer95" in="00:00:00.000" out="00:00:03.050"/>
  <entry producer="producer96" in="00:00:00.000" out="00:00:02.850"/>
  <entry producer="producer98" in="00:00:00.000" out="00:00:03.100"/>
  <entry producer="producer97" in="00:00:00.000" out="00:00:01.683"/>
  <entry producer="producer99" in="00:00:00.000" out="00:00:05.450"/>
  <entry producer="producer101" in="00:00:00.000" out="00:00:04.450"/>
  <entry producer="producer100" in="00:00:00.000" out="00:00:05.083"/>
  <entry producer="producer102" in="00:00:00.000" out="00:00:04.450"/>
  <entry producer="producer103" in="00:00:00.000" out="00:00:01.550"/>
  <entry producer="producer104" in="00:00:00.000" out="00:00:02.000"/>
  <entry producer="producer105" in="00:00:00.000" out="00:00:00.733"/>
  <entry producer="producer106" in="00:00:00.000" out="00:00:05.100"/>
  <entry producer="producer107" in="00:00:00.000" out="00:00:07.183"/>
  <entry producer="producer108" in="00:00:00.000" out="00:00:01.600"/>
  <entry producer="producer109" in="00:00:00.000" out="00:00:01.817"/>
  <entry producer="producer110" in="00:00:00.000" out="00:00:02.617"/>
  <entry producer="producer111" in="00:00:00.000" out="00:00:28.167"/>
  <entry producer="producer112" in="00:00:00.000" out="00:00:02.467"/>
  <entry producer="producer113" in="00:00:00.000" out="00:00:01.150"/>
  <entry producer="producer114" in="00:00:00.000" out="00:00:01.183"/>
  <entry producer="producer116" in="00:00:00.000" out="00:00:07.950"/>
  <entry producer="producer115" in="00:00:00.000" out="00:00:04.000"/>
  <entry producer="producer117" in="00:00:00.000" out="00:00:05.133"/>
  <entry producer="producer118" in="00:00:00.000" out="00:00:06.850"/>
  <entry producer="producer119" in="00:00:00.000" out="00:00:07.833"/>
  <entry producer="producer120" in="00:00:00.000" out="00:00:31.350"/>
  <entry producer="producer121" in="00:00:00.000" out="00:00:02.733"/>
  <entry producer="producer122" in="00:00:00.000" out="00:00:01.567"/>
  <entry producer="producer123" in="00:00:00.000" out="00:00:04.450"/>
  <entry producer="producer124" in="00:00:00.000" out="00:00:08.467"/>
  <entry producer="producer125" in="00:00:00.000" out="00:00:13.567"/>
  <entry producer="producer127" in="00:00:00.000" out="00:00:03.100"/>
  <entry producer="producer126" in="00:00:00.000" out="00:00:06.850"/>
  <entry producer="producer128" in="00:00:00.000" out="00:00:12.233"/>
  <entry producer="producer129" in="00:00:00.000" out="00:00:19.367"/>
  <entry producer="producer130" in="00:00:00.000" out="00:00:14.800"/>
  <entry producer="producer132" in="00:00:00.000" out="00:00:04.850"/>
  <entry producer="producer131" in="00:00:00.000" out="00:00:02.750"/>
  <entry producer="producer133" in="00:00:00.000" out="00:00:04.717"/>
  <entry producer="producer134" in="00:00:00.000" out="00:00:00.983"/>
  <entry producer="producer135" in="00:00:00.000" out="00:00:03.100"/>
  <entry producer="producer136" in="00:00:00.000" out="00:00:03.983"/>
  <entry producer="producer137" in="00:00:00.000" out="00:00:06.333"/>
  <entry producer="producer140" in="00:00:00.000" out="00:00:02.150"/>
  <entry producer="producer138" in="00:00:00.000" out="00:00:02.100"/>
  <entry producer="producer139" in="00:00:00.000" out="00:00:00.700"/>
  <entry producer="producer141" in="00:00:00.000" out="00:00:04.367"/>
  <entry producer="producer142" in="00:00:00.000" out="00:00:03.800"/>
  <entry producer="producer143" in="00:00:00.000" out="00:00:06.667"/>
  <entry producer="producer144" in="00:00:00.000" out="00:00:07.133"/>
  <entry producer="producer145" in="00:00:00.000" out="00:00:04.083"/>
  <entry producer="producer146" in="00:00:00.000" out="00:00:09.733"/>
  <entry producer="producer147" in="00:00:00.000" out="00:00:04.783"/>
  <entry producer="producer148" in="00:00:00.000" out="00:00:01.550"/>
  <entry producer="producer149" in="00:00:00.000" out="00:00:10.483"/>
  <entry producer="producer150" in="00:00:00.000" out="00:00:05.083"/>
  <entry producer="producer151" in="00:00:00.000" out="00:00:05.450"/>
  <entry producer="producer152" in="00:00:00.000" out="00:00:11.217"/>
  <entry producer="producer154" in="00:00:00.000" out="00:00:02.050"/>
  <entry producer="producer153" in="00:00:00.000" out="00:00:01.100"/>
  <entry producer="producer155" in="00:00:00.000" out="00:00:13.883"/>
  <entry producer="producer156" in="00:00:00.000" out="00:00:01.600"/>
  <entry producer="producer157" in="00:00:00.000" out="00:00:06.600"/>
  <entry producer="producer158" in="00:00:00.000" out="00:00:02.517"/>
  <entry producer="producer159" in="00:00:00.000" out="00:00:05.833"/>
  <entry producer="producer160" in="00:00:00.000" out="00:00:02.100"/>
  <entry producer="producer161" in="00:00:00.000" out="00:00:02.050"/>
  <entry producer="producer163" in="00:00:00.000" out="00:00:03.383"/>
  <entry producer="producer162" in="00:00:00.000" out="00:00:01.183"/>
  <entry producer="producer164" in="00:00:00.000" out="00:00:01.367"/>
  <entry producer="producer165" in="00:00:00.000" out="00:00:12.050"/>
  <entry producer="producer166" in="00:00:00.000" out="00:00:03.200"/>
  <entry producer="producer167" in="00:00:00.000" out="00:00:02.617"/>
  <entry producer="producer168" in="00:00:00.000" out="00:00:03.150"/>
  <entry producer="producer169" in="00:00:00.000" out="00:00:02.567"/>
  <entry producer="producer171" in="00:00:00.000" out="00:00:03.017"/>
  <entry producer="producer170" in="00:00:00.000" out="00:00:05.933"/>
  <entry producer="producer172" in="00:00:00.000" out="00:00:09.883"/>
  <entry producer="producer173" in="00:00:00.000" out="00:00:01.817"/>
  <entry producer="producer175" in="00:00:00.000" out="00:00:01.817"/>
  <entry producer="producer176" in="00:00:00.000" out="00:00:01.583"/>
  <entry producer="producer174" in="00:00:00.000" out="00:00:04.767"/>
  <entry producer="producer177" in="00:00:00.000" out="00:00:07.450"/>
  <entry producer="producer178" in="00:00:00.000" out="00:00:25.733"/>
  <entry producer="producer179" in="00:00:00.000" out="00:00:06.483"/>
  <entry producer="producer180" in="00:00:00.000" out="00:00:01.867"/>
  <entry producer="producer181" in="00:00:00.000" out="00:00:02.567"/>
  <entry producer="producer182" in="00:00:00.000" out="00:00:15.050"/>
  <entry producer="producer184" in="00:00:00.000" out="00:00:02.100"/>
  <entry producer="producer183" in="00:00:00.000" out="00:00:07.033"/>
  <entry producer="producer185" in="00:00:00.000" out="00:00:04.083"/>
  <entry producer="producer186" in="00:00:00.000" out="00:00:02.933"/>
  <entry producer="producer187" in="00:00:00.000" out="00:00:09.783"/>
  <entry producer="producer188" in="00:00:00.000" out="00:00:02.800"/>
  <entry producer="producer189" in="00:00:00.000" out="00:00:26.450"/>
  <entry producer="producer190" in="00:00:00.000" out="00:00:03.100"/>
  <entry producer="producer191" in="00:00:00.000" out="00:00:05.050"/>
  <entry producer="producer192" in="00:00:00.000" out="00:00:01.867"/>
  <entry producer="producer194" in="00:00:00.000" out="00:00:02.733"/>
  <entry producer="producer193" in="00:00:00.000" out="00:00:02.000"/>
  <entry producer="producer195" in="00:00:00.000" out="00:00:02.067"/>
  <entry producer="producer197" in="00:00:00.000" out="00:00:03.100"/>
  <entry producer="producer196" in="00:00:00.000" out="00:00:15.050"/>
  <entry producer="producer199" in="00:00:00.000" out="00:00:01.183"/>
  <entry producer="producer198" in="00:00:00.000" out="00:00:02.050"/>
  <entry producer="producer200" in="00:00:00.000" out="00:00:02.733"/>
  <entry producer="producer201" in="00:00:00.000" out="00:00:02.700"/>
  <entry producer="producer202" in="00:00:00.000" out="00:00:01.867"/>
  <entry producer="producer203" in="00:00:00.000" out="00:00:01.100"/>
  <entry producer="producer206" in="00:00:00.000" out="00:00:02.300"/>
  <entry producer="producer204" in="00:00:00.000" out="00:00:01.700"/>
  <entry producer="producer205" in="00:00:00.000" out="00:00:07.617"/>
  <entry producer="producer207" in="00:00:00.000" out="00:00:05.750"/>
  <entry producer="producer209" in="00:00:00.000" out="00:00:02.800"/>
  <entry producer="producer208" in="00:00:00.000" out="00:00:09.300"/>
  <entry producer="producer210" in="00:00:00.000" out="00:00:01.883"/>
  <entry producer="producer211" in="00:00:00.000" out="00:00:01.300"/>
  <entry producer="producer212" in="00:00:00.000" out="00:00:02.100"/>
  <entry producer="producer214" in="00:00:00.000" out="00:00:04.550"/>
  <entry producer="producer215" in="00:00:00.000" out="00:00:02.733"/>
  <entry producer="producer213" in="00:00:00.000" out="00:00:02.200"/>
  <entry producer="producer216" in="00:00:00.000" out="00:00:08.050"/>
  <entry producer="producer217" in="00:00:00.000" out="00:00:02.983"/>
  <entry producer="producer219" in="00:00:00.000" out="00:00:01.883"/>
  <entry producer="producer218" in="00:00:00.000" out="00:00:06.250"/>
  <entry producer="producer220" in="00:00:00.000" out="00:00:02.800"/>
  <entry producer="producer221" in="00:00:00.000" out="00:00:02.250"/>
  <entry producer="producer222" in="00:00:00.000" out="00:00:09.133"/>
  <entry producer="producer223" in="00:00:00.000" out="00:00:13.633"/>
  <entry producer="producer224" in="00:00:00.000" out="00:00:08.000"/>
  <entry producer="producer225" in="00:00:00.000" out="00:00:14.717"/>
  <entry producer="producer226" in="00:00:00.000" out="00:00:01.050"/>
  <entry producer="producer227" in="00:00:00.000" out="00:00:02.567"/>
  <entry producer="producer228" in="00:00:00.000" out="00:00:00.683"/>
  <entry producer="producer229" in="00:00:00.000" out="00:00:03.100"/>
  <entry producer="producer230" in="00:00:00.000" out="00:00:00.783"/>
  <entry producer="producer231" in="00:00:00.000" out="00:00:01.650"/>
  <entry producer="producer233" in="00:00:00.000" out="00:00:09.367"/>
  <entry producer="producer232" in="00:00:00.000" out="00:00:02.017"/>
  <entry producer="producer234" in="00:00:00.000" out="00:00:01.217"/>
  <entry producer="producer236" in="00:00:00.000" out="00:00:04.117"/>
  <entry producer="producer235" in="00:00:00.000" out="00:00:01.467"/>
  <entry producer="producer237" in="00:00:00.000" out="00:00:12.417"/>
  <entry producer="producer238" in="00:00:00.000" out="00:00:11.417"/>
  <entry producer="producer239" in="00:00:00.000" out="00:00:02.567"/>
  <entry producer="producer240" in="00:00:00.000" out="00:00:11.083"/>
  <entry producer="producer241" in="00:00:00.000" out="00:00:02.333"/>
  <entry producer="producer242" in="00:00:00.000" out="00:00:08.367"/>
  <entry producer="producer243" in="00:00:00.000" out="00:00:06.100"/>
  <entry producer="producer244" in="00:00:00.000" out="00:00:08.233"/>
  <entry producer="producer245" in="00:00:00.000" out="00:00:13.567"/>
  <entry producer="producer247" in="00:00:00.000" out="00:00:02.050"/>
  <entry producer="producer246" in="00:00:00.000" out="00:00:23.800"/>
  <entry producer="producer248" in="00:00:00.000" out="00:00:02.100"/>
  <entry producer="producer249" in="00:00:00.000" out="00:00:01.850"/>
  <entry producer="producer250" in="00:00:00.000" out="00:00:03.333"/>
  <entry producer="producer251" in="00:00:00.000" out="00:00:01.100"/>
  <entry producer="producer252" in="00:00:00.000" out="00:00:02.733"/>
  <entry producer="producer254" in="00:00:00.000" out="00:00:01.883"/>
  <entry producer="producer253" in="00:00:00.000" out="00:00:03.033"/>
  <entry producer="producer256" in="00:00:00.000" out="00:00:04.033"/>
  <entry producer="producer255" in="00:00:00.000" out="00:00:02.733"/>
  <entry producer="producer257" in="00:00:00.000" out="00:00:07.083"/>
  <entry producer="producer258" in="00:00:00.000" out="00:00:10.067"/>
  <entry producer="producer259" in="00:00:00.000" out="00:00:45.883"/>
  <entry producer="producer260" in="00:00:00.000" out="00:00:01.467"/>
  <entry producer="producer261" in="00:00:00.000" out="00:00:03.100"/>
  <entry producer="producer262" in="00:00:00.000" out="00:00:03.217"/>
  <entry producer="producer263" in="00:00:00.000" out="00:00:03.850"/>
  <entry producer="producer264" in="00:00:00.000" out="00:00:00.983"/>
  <entry producer="producer265" in="00:00:00.000" out="00:00:01.633"/>
  <entry producer="producer266" in="00:00:00.000" out="00:00:01.233"/>
  <entry producer="producer267" in="00:00:00.000" out="00:00:02.600"/>
  <entry producer="producer268" in="00:00:00.000" out="00:00:03.700"/>
  <entry producer="producer270" in="00:00:00.000" out="00:00:01.700"/>
  <entry producer="producer269" in="00:00:00.000" out="00:00:18.250"/>
  <entry producer="producer271" in="00:00:00.000" out="00:00:02.883"/>
  <entry producer="producer272" in="00:00:00.000" out="00:00:02.283"/>
  <entry producer="producer274" in="00:00:00.000" out="00:00:17.017"/>
  <entry producer="producer273" in="00:00:00.000" out="00:00:04.683"/>
  <entry producer="producer275" in="00:00:00.000" out="00:00:03.533"/>
  <entry producer="producer276" in="00:00:00.000" out="00:00:04.583"/>
  <entry producer="producer277" in="00:00:00.000" out="00:00:07.617"/>
  <entry producer="producer278" in="00:00:00.000" out="00:00:04.083"/>
  <entry producer="producer279" in="00:00:00.000" out="00:00:01.100"/>
  <entry producer="producer282" in="00:00:00.000" out="00:00:05.317"/>
  <entry producer="producer280" in="00:00:00.000" out="00:00:04.083"/>
  <entry producer="producer281" in="00:00:00.000" out="00:00:04.167"/>
  <entry producer="producer283" in="00:00:00.000" out="00:00:01.467"/>
  <entry producer="producer284" in="00:00:00.000" out="00:00:01.767"/>
  <entry producer="producer285" in="00:00:00.000" out="00:00:02.800"/>
  <entry producer="producer287" in="00:00:00.000" out="00:00:00.783"/>
  <entry producer="producer286" in="00:00:00.000" out="00:00:07.117"/>
  <entry producer="producer290" in="00:00:00.000" out="00:00:02.850"/>
  <entry producer="producer288" in="00:00:00.000" out="00:00:05.117"/>
  <entry producer="producer289" in="00:00:00.000" out="00:00:01.083"/>
  <entry producer="producer291" in="00:00:00.000" out="00:00:00.800"/>
  <entry producer="producer292" in="00:00:00.000" out="00:00:03.100"/>
  <entry producer="producer294" in="00:00:00.000" out="00:00:04.117"/>
  <entry producer="producer293" in="00:00:00.000" out="00:00:07.750"/>
  <entry producer="producer295" in="00:00:00.000" out="00:00:26.133"/>
  <entry producer="producer296" in="00:00:00.000" out="00:00:46.400"/>
  <entry producer="producer297" in="00:00:00.000" out="00:00:51.000"/>
  <entry producer="producer298" in="00:00:00.000" out="00:00:01.467"/>
  <entry producer="producer299" in="00:00:00.000" out="00:00:00.867"/>
  <entry producer="producer300" in="00:00:00.000" out="00:00:00.617"/>
  <entry producer="producer301" in="00:00:00.000" out="00:01:04.017"/>
  <entry producer="producer302" in="00:00:00.000" out="00:00:28.383"/>
  <entry producer="producer303" in="00:00:00.000" out="00:00:01.217"/>
  <entry producer="producer304" in="00:00:00.000" out="00:00:05.100"/>
  <entry producer="producer305" in="00:00:00.000" out="00:00:02.100"/>
  <entry producer="producer306" in="00:00:00.000" out="00:00:01.883"/>
  <entry producer="producer307" in="00:00:00.000" out="00:00:08.767"/>
  <entry producer="producer308" in="00:00:00.000" out="00:00:04.600"/>
  <entry producer="producer309" in="00:00:00.000" out="00:00:01.683"/>
  <entry producer="producer311" in="00:00:00.000" out="00:00:01.867"/>
  <entry producer="producer310" in="00:00:00.000" out="00:00:02.783"/>
  <entry producer="producer313" in="00:00:00.000" out="00:04:01.433"/>
  <entry producer="producer312" in="00:00:00.000" out="00:00:07.117"/>
  <entry producer="producer314" in="00:00:00.000" out="00:00:24.217"/>
  <entry producer="producer315" in="00:00:00.000" out="00:00:26.050"/>
  <entry producer="producer317" in="00:00:00.000" out="00:00:29.367"/>
  <entry producer="producer318" in="00:00:00.000" out="00:00:45.783"/>
  <entry producer="producer316" in="00:00:00.000" out="00:00:20.300"/>
  <entry producer="producer319" in="00:00:00.000" out="00:00:25.550"/>
  <entry producer="producer320" in="00:00:00.000" out="00:00:01.817"/>
  <entry producer="producer321" in="00:00:00.000" out="00:00:32.383"/>
  <entry producer="producer322" in="00:00:00.000" out="00:00:02.567"/>
  <entry producer="producer324" in="00:00:00.000" out="00:00:02.017"/>
  <entry producer="producer323" in="00:00:00.000" out="00:00:04.850"/>
  <entry producer="producer325" in="00:00:00.000" out="00:00:02.067"/>
  <entry producer="producer327" in="00:00:00.000" out="00:00:01.683"/>
  <entry producer="producer326" in="00:00:00.000" out="00:00:01.733"/>
  <entry producer="producer328" in="00:00:00.000" out="00:00:01.833"/>
  <entry producer="producer329" in="00:00:00.000" out="00:00:13.783"/>
  <entry producer="producer330" in="00:00:00.000" out="00:00:02.883"/>
  <entry producer="producer332" in="00:00:00.000" out="00:00:05.750"/>
  <entry producer="producer331" in="00:00:00.000" out="00:00:00.833"/>
  <entry producer="producer333" in="00:00:00.000" out="00:00:00.667"/>
  <entry producer="producer335" in="00:00:00.000" out="00:00:03.100"/>
  <entry producer="producer334" in="00:00:00.000" out="00:00:02.567"/>
  <entry producer="producer337" in="00:00:00.000" out="00:00:03.533"/>
  <entry producer="producer336" in="00:00:00.000" out="00:00:02.567"/>
  <entry producer="producer338" in="00:00:00.000" out="00:00:00.483"/>
  <entry producer="producer339" in="00:00:00.000" out="00:00:00.950"/>
  <entry producer="producer340" in="00:00:00.000" out="00:00:01.550"/>
  <entry producer="producer341" in="00:00:00.000" out="00:00:04.583"/>
  <entry producer="producer342" in="00:00:00.000" out="00:00:07.667"/>
  <entry producer="producer343" in="00:00:00.000" out="00:00:02.883"/>
  <entry producer="producer344" in="00:00:00.000" out="00:00:49.483"/>
  <entry producer="producer345" in="00:00:00.000" out="00:00:00.667"/>
  <entry producer="producer346" in="00:00:00.000" out="00:00:00.683"/>
  <entry producer="producer348" in="00:00:00.000" out="00:00:05.500"/>
  <entry producer="producer347" in="00:00:00.000" out="00:00:07.317"/>
  <entry producer="producer349" in="00:00:00.000" out="00:00:05.450"/>
  <entry producer="producer350" in="00:00:00.000" out="00:00:10.100"/>
  <entry producer="producer351" in="00:00:00.000" out="00:00:10.767"/>
  <entry producer="producer352" in="00:00:00.000" out="00:00:06.700"/>
  <entry producer="producer353" in="00:00:00.000" out="00:00:01.583"/>
  <entry producer="producer354" in="00:00:00.000" out="00:00:02.250"/>
  <entry producer="producer355" in="00:00:00.000" out="00:00:10.983"/>
  <entry producer="producer356" in="00:00:00.000" out="00:00:02.733"/>
  <entry producer="producer357" in="00:00:00.000" out="00:00:10.667"/>
  <entry producer="producer358" in="00:00:00.000" out="00:00:01.033"/>
  <entry producer="producer359" in="00:00:00.000" out="00:00:02.983"/>
  <entry producer="producer360" in="00:00:00.000" out="00:00:02.983"/>
  <entry producer="producer362" in="00:00:00.000" out="00:00:05.367"/>
  <entry producer="producer361" in="00:00:00.000" out="00:00:00.850"/>
  <entry producer="producer363" in="00:00:00.000" out="00:00:05.650"/>
  <entry producer="producer365" in="00:00:00.000" out="00:00:12.317"/>
  <entry producer="producer364" in="00:00:00.000" out="00:00:24.433"/>
  <entry producer="producer366" in="00:00:00.000" out="00:00:00.950"/>
  <entry producer="producer367" in="00:00:00.000" out="00:00:14.817"/>
  <entry producer="producer368" in="00:00:00.000" out="00:00:04.033"/>
  <entry producer="producer369" in="00:00:00.000" out="00:00:01.700"/>
  <entry producer="producer372" in="00:00:00.000" out="00:00:09.183"/>
  <entry producer="producer370" in="00:00:00.000" out="00:00:05.350"/>
  <entry producer="producer374" in="00:00:00.000" out="00:00:01.233"/>
  <entry producer="producer371" in="00:00:00.000" out="00:00:12.417"/>
  <entry producer="producer376" in="00:00:00.000" out="00:00:01.733"/>
  <entry producer="producer373" in="00:00:00.000" out="00:00:05.633"/>
  <entry producer="producer379" in="00:00:00.000" out="00:00:08.050"/>
  <entry producer="producer375" in="00:00:00.000" out="00:00:48.000"/>
  <entry producer="producer378" in="00:00:00.000" out="00:00:08.600"/>
  <entry producer="producer377" in="00:00:00.000" out="00:00:02.117"/>
  <entry producer="producer380" in="00:00:00.000" out="00:00:04.250"/>
  <entry producer="producer381" in="00:00:00.000" out="00:00:10.117"/>
  <entry producer="producer382" in="00:00:00.000" out="00:00:01.683"/>
  <entry producer="producer386" in="00:00:00.000" out="00:00:19.533"/>
  <entry producer="producer384" in="00:00:00.000" out="00:00:07.633"/>
  <entry producer="producer383" in="00:00:00.000" out="00:00:09.083"/>
  <entry producer="producer389" in="00:00:00.000" out="00:00:07.967"/>
  <entry producer="producer385" in="00:00:00.000" out="00:00:02.817"/>
  <entry producer="producer390" in="00:00:00.000" out="00:00:03.117"/>
  <entry producer="producer387" in="00:00:00.000" out="00:00:06.783"/>
  <entry producer="producer388" in="00:00:00.000" out="00:00:10.717"/>
  <entry producer="producer394" in="00:00:00.000" out="00:00:02.000"/>
  <entry producer="producer391" in="00:00:00.000" out="00:00:02.617"/>
  <entry producer="producer395" in="00:00:00.000" out="00:00:16.867"/>
  <entry producer="producer393" in="00:00:00.000" out="00:00:07.083"/>
  <entry producer="producer392" in="00:00:00.000" out="00:00:09.900"/>
  <entry producer="producer396" in="00:00:00.000" out="00:00:23.817"/>
  <entry producer="producer400" in="00:00:00.000" out="00:00:05.300"/>
  <entry producer="producer397" in="00:00:00.000" out="00:00:04.067"/>
  <entry producer="producer402" in="00:00:00.000" out="00:00:05.183"/>
  <entry producer="producer398" in="00:00:00.000" out="00:00:12.683"/>
  <entry producer="producer399" in="00:00:00.000" out="00:00:10.117"/>
  <entry producer="producer404" in="00:00:00.000" out="00:00:29.950"/>
  <entry producer="producer401" in="00:00:00.000" out="00:00:06.250"/>
  <entry producer="producer406" in="00:00:00.000" out="00:00:05.333"/>
  <entry producer="producer405" in="00:00:00.000" out="00:00:09.850"/>
  <entry producer="producer403" in="00:00:00.000" out="00:00:01.450"/>
  <entry producer="producer407" in="00:00:00.000" out="00:00:01.117"/>
  <entry producer="producer409" in="00:00:00.000" out="00:00:02.967"/>
  <entry producer="producer408" in="00:00:00.000" out="00:00:10.650"/>
  <entry producer="producer412" in="00:00:00.000" out="00:00:05.167"/>
  <entry producer="producer411" in="00:00:00.000" out="00:00:04.900"/>
  <entry producer="producer413" in="00:00:00.000" out="00:00:11.017"/>
  <entry producer="producer410" in="00:00:00.000" out="00:00:02.117"/>
  <entry producer="producer416" in="00:00:00.000" out="00:00:02.500"/>
  <entry producer="producer414" in="00:00:00.000" out="00:00:01.483"/>
  <entry producer="producer415" in="00:00:00.000" out="00:00:04.783"/>
  <entry producer="producer417" in="00:00:00.000" out="00:00:27.150"/>
  <entry producer="producer418" in="00:00:00.000" out="00:00:05.483"/>
  <entry producer="producer419" in="00:00:00.000" out="00:00:15.450"/>
  <entry producer="producer420" in="00:00:00.000" out="00:00:01.433"/>
  <entry producer="producer421" in="00:00:00.000" out="00:00:03.267"/>
  <entry producer="producer422" in="00:00:00.000" out="00:00:02.883"/>
  <entry producer="producer424" in="00:00:00.000" out="00:00:04.850"/>
  <entry producer="producer423" in="00:00:00.000" out="00:00:42.167"/>
  <entry producer="producer426" in="00:00:00.000" out="00:00:04.567"/>
  <entry producer="producer427" in="00:00:00.000" out="00:00:03.017"/>
  <entry producer="producer425" in="00:00:00.000" out="00:00:06.983"/>
  <entry producer="producer428" in="00:00:00.000" out="00:00:13.167"/>
  <entry producer="producer430" in="00:00:00.000" out="00:00:09.050"/>
  <entry producer="producer429" in="00:00:00.000" out="00:00:02.883"/>
  <entry producer="producer431" in="00:00:00.000" out="00:00:02.800"/>
  <entry producer="producer432" in="00:00:00.000" out="00:00:01.217"/>
  <entry producer="producer433" in="00:00:00.000" out="00:00:01.933"/>
  <entry producer="producer434" in="00:00:00.000" out="00:00:03.350"/>
  <entry producer="producer435" in="00:00:00.000" out="00:00:02.583"/>
  <entry producer="producer436" in="00:00:00.000" out="00:00:02.117"/>
  <entry producer="producer438" in="00:00:00.000" out="00:00:01.667"/>
  <entry producer="producer437" in="00:00:00.000" out="00:00:27.950"/>
  <entry producer="producer439" in="00:00:00.000" out="00:00:02.233"/>
  <entry producer="producer440" in="00:00:00.000" out="00:00:01.267"/>
  <entry producer="producer441" in="00:00:00.000" out="00:00:01.050"/>
  <entry producer="producer443" in="00:00:00.000" out="00:00:02.117"/>
  <entry producer="producer442" in="00:00:00.000" out="00:00:04.333"/>
  <entry producer="producer444" in="00:00:00.000" out="00:00:04.867"/>
  <entry producer="producer445" in="00:00:00.000" out="00:00:10.950"/>
  <entry producer="producer446" in="00:00:00.000" out="00:00:02.433"/>
  <entry producer="producer447" in="00:00:00.000" out="00:00:06.650"/>
  <entry producer="producer448" in="00:00:00.000" out="00:00:01.750"/>
  <entry producer="producer449" in="00:00:00.000" out="00:00:09.067"/>
  <entry producer="producer450" in="00:00:00.000" out="00:00:01.433"/>
  <entry producer="producer451" in="00:00:00.000" out="00:00:02.033"/>
  <entry producer="producer453" in="00:00:00.000" out="00:00:04.867"/>
  <entry producer="producer452" in="00:00:00.000" out="00:00:02.467"/>
  <entry producer="producer454" in="00:00:00.000" out="00:00:16.133"/>
  <entry producer="producer455" in="00:00:00.000" out="00:00:05.717"/>
  <entry producer="producer456" in="00:00:00.000" out="00:00:02.550"/>
  <entry producer="producer458" in="00:00:00.000" out="00:00:03.783"/>
  <entry producer="producer459" in="00:00:00.000" out="00:00:02.167"/>
  <entry producer="producer457" in="00:00:00.000" out="00:00:15.283"/>
  <entry producer="producer461" in="00:00:00.000" out="00:00:06.233"/>
  <entry producer="producer460" in="00:00:00.000" out="00:00:04.417"/>
  <entry producer="producer463" in="00:00:00.000" out="00:00:03.917"/>
  <entry producer="producer462" in="00:00:00.000" out="00:00:03.867"/>
  <entry producer="producer465" in="00:00:00.000" out="00:00:04.083"/>
  <entry producer="producer464" in="00:00:00.000" out="00:00:00.917"/>
  <entry producer="producer468" in="00:00:00.000" out="00:00:16.533"/>
  <entry producer="producer466" in="00:00:00.000" out="00:00:24.883"/>
  <entry producer="producer469" in="00:00:00.000" out="00:00:06.617"/>
  <entry producer="producer467" in="00:00:00.000" out="00:00:24.017"/>
  <entry producer="producer470" in="00:00:00.000" out="00:00:08.617"/>
  <entry producer="producer474" in="00:00:00.000" out="00:00:05.650"/>
  <entry producer="producer472" in="00:00:00.000" out="00:00:10.067"/>
  <entry producer="producer471" in="00:00:00.000" out="00:00:04.400"/>
  <entry producer="producer473" in="00:00:00.000" out="00:00:16.100"/>
  <entry producer="producer476" in="00:00:00.000" out="00:00:11.333"/>
  <entry producer="producer477" in="00:00:00.000" out="00:00:03.950"/>
  <entry producer="producer479" in="00:00:00.000" out="00:00:10.617"/>
  <entry producer="producer475" in="00:00:00.000" out="00:00:01.467"/>
  <entry producer="producer480" in="00:00:00.000" out="00:00:15.700"/>
  <entry producer="producer481" in="00:00:00.000" out="00:00:05.933"/>
  <entry producer="producer478" in="00:00:00.000" out="00:00:04.100"/>
  <entry producer="producer482" in="00:00:00.000" out="00:00:04.067"/>
  <entry producer="producer484" in="00:00:00.000" out="00:00:06.950"/>
  <entry producer="producer483" in="00:00:00.000" out="00:00:04.100"/>
  <entry producer="producer485" in="00:00:00.000" out="00:00:06.000"/>
  <entry producer="producer486" in="00:00:00.000" out="00:00:11.200"/>
  <entry producer="producer487" in="00:00:00.000" out="00:00:05.600"/>
  <entry producer="producer488" in="00:00:00.000" out="00:00:04.983"/>
  <entry producer="producer489" in="00:00:00.000" out="00:00:05.600"/>
  <entry producer="producer490" in="00:00:00.000" out="00:01:00.100"/>
  <entry producer="producer491" in="00:00:00.000" out="00:00:01.283"/>
  <entry producer="producer493" in="00:00:00.000" out="00:00:03.833"/>
  <entry producer="producer494" in="00:00:00.000" out="00:00:05.783"/>
  <entry producer="producer492" in="00:00:00.000" out="00:00:06.283"/>
  <entry producer="producer495" in="00:00:00.000" out="00:00:04.300"/>
  <entry producer="producer497" in="00:00:00.000" out="00:00:04.600"/>
  <entry producer="producer496" in="00:00:00.000" out="00:00:03.233"/>
  <entry producer="producer498" in="00:00:00.000" out="00:00:02.517"/>
  <entry producer="producer499" in="00:00:00.000" out="00:00:01.883"/>
  <entry producer="producer500" in="00:00:00.000" out="00:00:06.517"/>
  <entry producer="producer501" in="00:00:00.000" out="00:00:02.683"/>
  <entry producer="producer502" in="00:00:00.000" out="00:00:07.650"/>
  <entry producer="producer507" in="00:00:00.000" out="00:00:21.833"/>
  <entry producer="producer505" in="00:00:00.000" out="00:00:25.383"/>
  <entry producer="producer503" in="00:00:00.000" out="00:00:11.567"/>
  <entry producer="producer506" in="00:00:00.000" out="00:00:18.283"/>
  <entry producer="producer504" in="00:00:00.000" out="00:00:30.750"/>
  <entry producer="producer508" in="00:00:00.000" out="00:00:06.583"/>
  <entry producer="producer509" in="00:00:00.000" out="00:00:05.583"/>
  <entry producer="producer511" in="00:00:00.000" out="00:00:15.133"/>
  <entry producer="producer510" in="00:00:00.000" out="00:00:06.517"/>
  <entry producer="producer512" in="00:00:00.000" out="00:00:05.367"/>
  <entry producer="producer513" in="00:00:00.000" out="00:00:02.150"/>
  <entry producer="producer514" in="00:00:00.000" out="00:00:03.267"/>
  <entry producer="producer515" in="00:00:00.000" out="00:00:14.450"/>
  <entry producer="producer517" in="00:00:00.000" out="00:00:03.950"/>
  <entry producer="producer516" in="00:00:00.000" out="00:00:03.050"/>
  <entry producer="producer518" in="00:00:00.000" out="00:00:03.050"/>
  <entry producer="producer519" in="00:00:00.000" out="00:00:10.383"/>
  <entry producer="producer520" in="00:00:00.000" out="00:00:10.067"/>
  <entry producer="producer521" in="00:00:00.000" out="00:00:05.683"/>
  <entry producer="producer523" in="00:00:00.000" out="00:00:09.017"/>
  <entry producer="producer522" in="00:00:00.000" out="00:00:03.883"/>
  <entry producer="producer526" in="00:00:00.000" out="00:00:05.300"/>
  <entry producer="producer524" in="00:00:00.000" out="00:00:05.867"/>
  <entry producer="producer525" in="00:00:00.000" out="00:00:15.133"/>
  <entry producer="producer530" in="00:00:00.000" out="00:00:09.117"/>
  <entry producer="producer527" in="00:00:00.000" out="00:00:04.050"/>
  <entry producer="producer529" in="00:00:00.000" out="00:00:01.700"/>
  <entry producer="producer528" in="00:00:00.000" out="00:00:16.850"/>
  <entry producer="producer534" in="00:00:00.000" out="00:00:03.033"/>
  <entry producer="producer531" in="00:00:00.000" out="00:00:02.200"/>
  <entry producer="producer533" in="00:00:00.000" out="00:00:03.833"/>
  <entry producer="producer532" in="00:00:00.000" out="00:00:03.833"/>
  <entry producer="producer535" in="00:00:00.000" out="00:00:25.900"/>
  <entry producer="producer538" in="00:00:00.000" out="00:00:03.567"/>
  <entry producer="producer537" in="00:00:00.000" out="00:00:03.867"/>
  <entry producer="producer536" in="00:00:00.000" out="00:00:03.183"/>
  <entry producer="producer540" in="00:00:00.000" out="00:00:01.700"/>
  <entry producer="producer541" in="00:00:00.000" out="00:00:02.283"/>
  <entry producer="producer539" in="00:00:00.000" out="00:00:02.400"/>
  <entry producer="producer542" in="00:00:00.000" out="00:00:02.500"/>
  <entry producer="producer544" in="00:00:00.000" out="00:00:13.150"/>
  <entry producer="producer543" in="00:00:00.000" out="00:00:05.833"/>
  <entry producer="producer545" in="00:00:00.000" out="00:00:02.933"/>
  <entry producer="producer546" in="00:00:00.000" out="00:00:00.833"/>
  <entry producer="producer547" in="00:00:00.000" out="00:00:04.950"/>
  <entry producer="producer548" in="00:00:00.000" out="00:00:03.183"/>
  <entry producer="producer551" in="00:00:00.000" out="00:00:01.817"/>
  <entry producer="producer549" in="00:00:00.000" out="00:00:03.650"/>
  <entry producer="producer550" in="00:00:00.000" out="00:00:05.783"/>
  <entry producer="producer552" in="00:00:00.000" out="00:00:06.333"/>
  <entry producer="producer553" in="00:00:00.000" out="00:00:01.933"/>
  <entry producer="producer554" in="00:00:00.000" out="00:00:12.833"/>
  <entry producer="producer556" in="00:00:00.000" out="00:00:02.850"/>
  <entry producer="producer555" in="00:00:00.000" out="00:00:03.717"/>
  <entry producer="producer557" in="00:00:00.000" out="00:00:01.900"/>
  <entry producer="producer558" in="00:00:00.000" out="00:00:03.033"/>
  <entry producer="producer562" in="00:00:00.000" out="00:00:04.633"/>
  <entry producer="producer559" in="00:00:00.000" out="00:00:15.183"/>
  <entry producer="producer560" in="00:00:00.000" out="00:00:05.967"/>
  <entry producer="producer561" in="00:00:00.000" out="00:00:06.017"/>
  <entry producer="producer563" in="00:00:00.000" out="00:00:09.017"/>
  <entry producer="producer567" in="00:00:00.000" out="00:00:03.867"/>
  <entry producer="producer566" in="00:00:00.000" out="00:00:02.817"/>
  <entry producer="producer564" in="00:00:00.000" out="00:00:05.217"/>
  <entry producer="producer568" in="00:00:00.000" out="00:00:06.300"/>
  <entry producer="producer565" in="00:00:00.000" out="00:00:12.167"/>
  <entry producer="producer569" in="00:00:00.000" out="00:00:02.733"/>
  <entry producer="producer572" in="00:00:00.000" out="00:00:02.850"/>
  <entry producer="producer570" in="00:00:00.000" out="00:00:01.433"/>
  <entry producer="producer571" in="00:00:00.000" out="00:00:03.500"/>
  <entry producer="producer573" in="00:00:00.000" out="00:00:02.583"/>
  <entry producer="producer575" in="00:00:00.000" out="00:00:01.350"/>
  <entry producer="producer574" in="00:00:00.000" out="00:00:07.983"/>
  <entry producer="producer576" in="00:00:00.000" out="00:00:04.033"/>
  <entry producer="producer577" in="00:00:00.000" out="00:00:11.767"/>
  <entry producer="producer578" in="00:00:00.000" out="00:00:01.100"/>
  <entry producer="producer579" in="00:00:00.000" out="00:00:04.250"/>
  <entry producer="producer580" in="00:00:00.000" out="00:00:03.883"/>
  <entry producer="producer583" in="00:00:00.000" out="00:00:03.383"/>
  <entry producer="producer584" in="00:00:00.000" out="00:00:04.350"/>
  <entry producer="producer582" in="00:00:00.000" out="00:00:01.017"/>
  <entry producer="producer581" in="00:00:00.000" out="00:00:03.817"/>
  <entry producer="producer585" in="00:00:00.000" out="00:00:10.917"/>
  <entry producer="producer586" in="00:00:00.000" out="00:00:13.633"/>
  <entry producer="producer589" in="00:00:00.000" out="00:00:04.533"/>
  <entry producer="producer587" in="00:00:00.000" out="00:00:01.200"/>
  <entry producer="producer590" in="00:00:00.000" out="00:00:01.133"/>
  <entry producer="producer588" in="00:00:00.000" out="00:00:01.767"/>
  <entry producer="producer593" in="00:00:00.000" out="00:00:01.617"/>
  <entry producer="producer591" in="00:00:00.000" out="00:00:02.117"/>
  <entry producer="producer594" in="00:00:00.000" out="00:00:01.683"/>
  <entry producer="producer595" in="00:00:00.000" out="00:00:01.200"/>
  <entry producer="producer592" in="00:00:00.000" out="00:00:00.933"/>
  <entry producer="producer598" in="00:00:00.000" out="00:00:02.317"/>
  <entry producer="producer605" in="00:00:00.000" out="00:00:01.850"/>
  <entry producer="producer596" in="00:00:00.000" out="00:00:01.383"/>
  <entry producer="producer599" in="00:00:00.000" out="00:00:02.800"/>
  <entry producer="producer597" in="00:00:00.000" out="00:00:41.800"/>
  <entry producer="producer600" in="00:00:00.000" out="00:00:00.933"/>
  <entry producer="producer601" in="00:00:00.000" out="00:00:16.650"/>
  <entry producer="producer603" in="00:00:00.000" out="00:00:13.100"/>
  <entry producer="producer602" in="00:00:00.000" out="00:00:20.900"/>
  <entry producer="producer604" in="00:00:00.000" out="00:01:02.650"/>
  <entry producer="producer606" in="00:00:00.000" out="00:00:00.650"/>
  <entry producer="producer607" in="00:00:00.000" out="00:00:00.350"/>
  <entry producer="producer609" in="00:00:00.000" out="00:00:01.400"/>
  <entry producer="producer614" in="00:00:00.000" out="00:00:00.617"/>
  <entry producer="producer608" in="00:00:00.000" out="00:00:04.183"/>
  <entry producer="producer611" in="00:00:00.000" out="00:00:03.067"/>
  <entry producer="producer612" in="00:00:00.000" out="00:00:07.583"/>
  <entry producer="producer610" in="00:00:00.000" out="00:00:10.417"/>
  <entry producer="producer613" in="00:00:00.000" out="00:00:02.350"/>
  <entry producer="producer615" in="00:00:00.000" out="00:00:05.700"/>
  <entry producer="producer616" in="00:00:00.000" out="00:00:01.650"/>
  <entry producer="producer617" in="00:00:00.000" out="00:00:01.883"/>
  <entry producer="producer618" in="00:00:00.000" out="00:00:05.417"/>
  <entry producer="producer619" in="00:00:00.000" out="00:00:08.650"/>
  <entry producer="producer620" in="00:00:00.000" out="00:00:07.450"/>
  <entry producer="producer621" in="00:00:00.000" out="00:00:07.033"/>
  <entry producer="producer622" in="00:00:00.000" out="00:00:25.067"/>
  <entry producer="producer646" in="00:00:00.000" out="02:55:15.583"/>
  <entry producer="producer641" in="00:00:00.000" out="02:50:28.900"/>
  <entry producer="producer632" in="00:00:00.000" out="02:11:32.800"/>
  <entry producer="producer642" in="00:00:00.000" out="02:31:23.133"/>
  <entry producer="producer627" in="00:00:00.000" out="02:27:56.617"/>
  <entry producer="producer643" in="00:00:00.000" out="02:38:45.867"/>
  <entry producer="producer644" in="00:00:00.000" out="02:52:36.450"/>
  <entry producer="producer645" in="00:00:00.000" out="01:50:41.183"/>
  <entry producer="producer631" in="00:00:00.000" out="00:00:00.933"/>
  <entry producer="producer626" in="00:00:00.000" out="00:00:01.383"/>
  <entry producer="producer633" in="00:00:00.000" out="00:00:02.417"/>
  <entry producer="producer623" in="00:00:00.000" out="00:00:01.767"/>
  <entry producer="producer624" in="00:00:00.000" out="00:00:10.883"/>
  <entry producer="producer630" in="00:00:00.000" out="00:00:08.100"/>
  <entry producer="producer625" in="00:00:00.000" out="00:00:05.333"/>
  <entry producer="producer629" in="00:00:00.000" out="00:00:02.033"/>
  <entry producer="producer628" in="00:00:00.000" out="00:00:02.033"/>
  <entry producer="producer634" in="00:00:00.000" out="00:00:01.017"/>
  <entry producer="producer635" in="00:00:00.000" out="00:00:01.017"/>
  <entry producer="producer636" in="00:00:00.000" out="00:00:04.083"/>
  <entry producer="producer637" in="00:00:00.000" out="00:00:02.283"/>
  <entry producer="producer638" in="00:00:00.000" out="00:00:02.283"/>
  <entry producer="producer639" in="00:00:00.000" out="00:00:00.850"/>
  <entry producer="producer640" in="00:00:00.000" out="00:00:10.650"/>
 </playlist>
 <producer id="black_track" in="00:00:00.000" out="00:35:18.500">
  <property name="length">2147483647</property>
  <property name="eof">continue</property>
  <property name="resource">black</property>
  <property name="aspect_ratio">1</property>
  <property name="mlt_service">color</property>
  <property name="mlt_image_format">rgba</property>
  <property name="set.test_audio">0</property>
 </producer>
 <producer id="producer647" in="00:00:00.000" out="02:11:32.800">
  <property name="length">473570</property>
  <property name="eof">pause</property>
  <property name="resource">/home/federico/Videos/Edit/Kden/ProxyRender/proxy/e297f2e0f7ae15f1f6c3e6c7a3b137c7.mov</property>
  <property name="audio_index">1</property>
  <property name="video_index">0</property>
  <property name="mute_on_pause">0</property>
  <property name="mlt_service">avformat-novalidate</property>
  <property name="seekable">1</property>
  <property name="aspect_ratio">1</property>
  <property name="format">3</property>
  <property name="kdenlive:clipname">3 - dark souls iii cinders  anima della sfida ii 3.mkv</property>
  <property name="kdenlive:clip_type">0</property>
  <property name="kdenlive:folderid">4</property>
  <property name="kdenlive:id">681</property>
  <property name="kdenlive:file_size">3370680153</property>
  <property name="kdenlive:file_hash">e297f2e0f7ae15f1f6c3e6c7a3b137c7</property>
  <property name="kdenlive:proxy">/home/federico/Videos/Edit/Kden/ProxyRender/proxy/e297f2e0f7ae15f1f6c3e6c7a3b137c7.mov</property>
  <property name="kdenlive:originalurl">/home/federico/Videos/Edit/Projects/DS3_cinders/5-Stream/3 - dark souls iii cinders  anima della sfida ii 3.mkv</property>
  <property name="kdenlive:original.mlt_type">producer</property>
  <property name="kdenlive:original.in">00:00:00.000</property>
  <property name="kdenlive:original.out">02:11:32.817</property>
  <property name="kdenlive:original.length">473570</property>
  <property name="kdenlive:original.eof">pause</property>
  <property name="kdenlive:original.resource">/home/federico/Videos/Edit/Projects/DS3_cinders/5-Stream/3 - dark souls iii cinders  anima della sfida ii 3.mkv</property>
  <property name="kdenlive:original.meta.media.nb_streams">2</property>
  <property name="kdenlive:original.meta.media.0.stream.type">video</property>
  <property name="kdenlive:original.meta.media.0.stream.frame_rate">59.9401</property>
  <property name="kdenlive:original.meta.media.0.stream.sample_aspect_ratio">0</property>
  <property name="kdenlive:original.meta.media.0.codec.width">1920</property>
  <property name="kdenlive:original.meta.media.0.codec.height">1080</property>
  <property name="kdenlive:original.meta.media.0.codec.rotate">0</property>
  <property name="kdenlive:original.meta.media.0.codec.pix_fmt">yuv420p</property>
  <property name="kdenlive:original.meta.media.0.codec.sample_aspect_ratio">0</property>
  <property name="kdenlive:original.meta.media.0.codec.colorspace">709</property>
  <property name="kdenlive:original.meta.media.0.codec.color_trc">1</property>
  <property name="kdenlive:original.meta.media.0.codec.name">libdav1d</property>
  <property name="kdenlive:original.meta.media.0.codec.long_name">dav1d AV1 decoder by VideoLAN</property>
  <property name="kdenlive:original.meta.media.0.codec.bit_rate">0</property>
  <property name="kdenlive:original.meta.attr.0.stream.HANDLER_NAME.markup">ISO Media file produced by Google Inc.</property>
  <property name="kdenlive:original.meta.attr.0.stream.VENDOR_ID.markup">[0][0][0][0]</property>
  <property name="kdenlive:original.meta.attr.0.stream.DURATION.markup">02:11:32.802000000</property>
  <property name="kdenlive:original.meta.media.1.stream.type">audio</property>
  <property name="kdenlive:original.meta.media.1.codec.sample_fmt">fltp</property>
  <property name="kdenlive:original.meta.media.1.codec.sample_rate">48000</property>
  <property name="kdenlive:original.meta.media.1.codec.channels">2</property>
  <property name="kdenlive:original.meta.media.1.codec.name">opus</property>
  <property name="kdenlive:original.meta.media.1.codec.long_name">Opus</property>
  <property name="kdenlive:original.meta.media.1.codec.bit_rate">0</property>
  <property name="kdenlive:original.meta.attr.1.stream.language.markup">eng</property>
  <property name="kdenlive:original.meta.attr.1.stream.DURATION.markup">02:11:32.828000000</property>
  <property name="kdenlive:original.meta.attr.COMPATIBLE_BRANDS.markup">iso6av01mp41</property>
  <property name="kdenlive:original.meta.attr.MAJOR_BRAND.markup">dash</property>
  <property name="kdenlive:original.meta.attr.MINOR_VERSION.markup">0</property>
  <property name="kdenlive:original.meta.attr.ENCODER.markup">Lavf60.16.100</property>
  <property name="kdenlive:original.seekable">1</property>
  <property name="kdenlive:original.width">1920</property>
  <property name="kdenlive:original.height">1080</property>
  <property name="kdenlive:original.meta.media.sample_aspect_num">1</property>
  <property name="kdenlive:original.meta.media.sample_aspect_den">1</property>
  <property name="kdenlive:original.aspect_ratio">1</property>
  <property name="kdenlive:original.format">3</property>
  <property name="kdenlive:original.audio_index">1</property>
  <property name="kdenlive:original.video_index">0</property>
  <property name="kdenlive:original.mute_on_pause">0</property>
  <property name="kdenlive:original.mlt_service">avformat-novalidate</property>
  <property name="kdenlive:original.meta.media.frame_rate_num">60000</property>
  <property name="kdenlive:original.meta.media.frame_rate_den">1001</property>
  <property name="kdenlive:original.meta.media.colorspace">709</property>
  <property name="kdenlive:original.meta.media.color_trc">1</property>
  <property name="kdenlive:original.meta.media.has_b_frames">0</property>
  <property name="kdenlive:original.meta.media.width">1920</property>
  <property name="kdenlive:original.meta.media.height">1080</property>
  <property name="kdenlive:original.meta.media.color_range">mpeg</property>
  <property name="kdenlive:original.meta.media.top_field_first">0</property>
  <property name="kdenlive:original.meta.media.progressive">1</property>
  <property name="kdenlive:original.kdenlive:clip_type">0</property>
  <property name="kdenlive:original.kdenlive:folderid">4</property>
  <property name="kdenlive:original.kdenlive:id">681</property>
  <property name="kdenlive:original.kdenlive:file_size">3370680153</property>
  <property name="kdenlive:original.kdenlive:file_hash">e297f2e0f7ae15f1f6c3e6c7a3b137c7</property>
  <property name="kdenlive:original.backup">1</property>
  <property name="kdenlive:audio_max1">203</property>
  <property name="xml">was here</property>
  <property name="meta.media.nb_streams">2</property>
  <property name="meta.media.0.stream.type">video</property>
  <property name="meta.media.0.stream.frame_rate">59.9401</property>
  <property name="meta.media.0.stream.sample_aspect_ratio">1</property>
  <property name="meta.media.0.codec.width">640</property>
  <property name="meta.media.0.codec.height">360</property>
  <property name="meta.media.0.codec.rotate">0</property>
  <property name="meta.media.0.codec.pix_fmt">yuv420p</property>
  <property name="meta.media.0.codec.sample_aspect_ratio">1</property>
  <property name="meta.media.0.codec.colorspace">709</property>
  <property name="meta.media.0.codec.color_trc">1</property>
  <property name="meta.media.0.codec.name">h264</property>
  <property name="meta.media.0.codec.long_name">H.264 / AVC / MPEG-4 AVC / MPEG-4 part 10</property>
  <property name="meta.media.0.codec.bit_rate">5565045</property>
  <property name="meta.attr.0.stream.handler_name.markup">ISO Media file produced by Google Inc.</property>
  <property name="meta.attr.0.stream.vendor_id.markup">FFMP</property>
  <property name="meta.attr.0.stream.encoder.markup">Lavc59.18.100 libx264</property>
  <property name="meta.media.1.stream.type">audio</property>
  <property name="meta.media.1.codec.sample_fmt">fltp</property>
  <property name="meta.media.1.codec.sample_rate">48000</property>
  <property name="meta.media.1.codec.channels">2</property>
  <property name="meta.media.1.codec.name">aac</property>
  <property name="meta.media.1.codec.long_name">AAC (Advanced Audio Coding)</property>
  <property name="meta.media.1.codec.bit_rate">128838</property>
  <property name="meta.attr.1.stream.language.markup">eng</property>
  <property name="meta.attr.1.stream.handler_name.markup">SoundHandler</property>
  <property name="meta.attr.1.stream.vendor_id.markup">[0][0][0][0]</property>
  <property name="meta.attr.major_brand.markup">qt  </property>
  <property name="meta.attr.minor_version.markup">512</property>
  <property name="meta.attr.compatible_brands.markup">qt  </property>
  <property name="meta.attr.encoder.markup">Lavf59.16.100</property>
  <property name="meta.media.sample_aspect_num">1</property>
  <property name="meta.media.sample_aspect_den">1</property>
  <property name="meta.media.frame_rate_num">19001</property>
  <property name="meta.media.frame_rate_den">317</property>
  <property name="meta.media.colorspace">709</property>
  <property name="meta.media.color_trc">1</property>
  <property name="meta.media.has_b_frames">0</property>
  <property name="meta.media.width">640</property>
  <property name="meta.media.height">360</property>
  <property name="meta.media.color_range">mpeg</property>
  <property name="meta.media.top_field_first">0</property>
  <property name="meta.media.progressive">1</property>
  <property name="set.test_audio">1</property>
  <property name="set.test_image">1</property>
 </producer>
 <producer id="producer648" in="00:00:00.000" out="00:00:01.633">
  <property name="length">99</property>
  <property name="eof">pause</property>
  <property name="resource">/home/federico/Nextcloud/Kden/EditingUT/Sound/Games/you picked the wrong house fool.wav</property>
  <property name="audio_index">0</property>
  <property name="video_index">-1</property>
  <property name="mute_on_pause">0</property>
  <property name="mlt_service">avformat-novalidate</property>
  <property name="meta.media.nb_streams">1</property>
  <property name="meta.media.0.stream.type">audio</property>
  <property name="meta.media.0.codec.sample_fmt">s16</property>
  <property name="meta.media.0.codec.sample_rate">44100</property>
  <property name="meta.media.0.codec.channels">2</property>
  <property name="meta.media.0.codec.name">pcm_s16le</property>
  <property name="meta.media.0.codec.long_name">PCM signed 16-bit little-endian</property>
  <property name="meta.media.0.codec.bit_rate">1411200</property>
  <property name="meta.attr.encoder.markup">Lavf60.16.100</property>
  <property name="seekable">1</property>
  <property name="kdenlive:clipname"/>
  <property name="kdenlive:clip_type">1</property>
  <property name="kdenlive:folderid">256</property>
  <property name="kdenlive:id">293</property>
  <property name="kdenlive:file_size">290382</property>
  <property name="kdenlive:file_hash">62b72916405ba2386f36a6f54f860503</property>
  <property name="kdenlive:audio_max0">144</property>
  <property name="xml">was here</property>
  <property name="set.test_audio">0</property>
  <property name="set.test_image">1</property>
 </producer>
 <playlist id="playlist0">
  <property name="kdenlive:audio_track">1</property>
  <blank length="00:00:22.583"/>
  <entry producer="producer647" in="00:49:10.767" out="00:49:15.433">
   <property name="kdenlive:id">681</property>
  </entry>
  <entry producer="producer647" in="00:49:17.917" out="00:49:21.983">
   <property name="kdenlive:id">681</property>
  </entry>
  <blank length="00:03:12.550"/>
  <entry producer="producer648" in="00:00:00.000" out="00:00:01.633">
   <property name="kdenlive:id">293</property>
   <property name="kdenlive:activeeffect">0</property>
   <filter id="filter0">
    <property name="window">75</property>
    <property name="max_gain">20dB</property>
    <property name="level">00:00:01.650=-3</property>
    <property name="mlt_service">volume</property>
    <property name="kdenlive_id">-3db</property>
    <property name="kdenlive:collapsed">0</property>
   </filter>
  </entry>
 </playlist>
 <playlist id="playlist1">
  <property name="kdenlive:audio_track">1</property>
 </playlist>
 <tractor id="tractor0" in="00:00:00.000" out="00:03:45.533">
  <property name="kdenlive:audio_track">1</property>
  <property name="kdenlive:trackheight">50</property>
  <property name="kdenlive:timeline_active">1</property>
  <property name="kdenlive:collapsed">0</property>
  <property name="kdenlive:thumbs_format"/>
  <property name="kdenlive:audio_rec"/>
  <track hide="video" producer="playlist0"/>
  <track hide="video" producer="playlist1"/>
  <filter id="filter1">
   <property name="window">75</property>
   <property name="max_gain">20dB</property>
   <property name="mlt_service">volume</property>
   <property name="internal_added">237</property>
   <property name="disable">1</property>
  </filter>
  <filter id="filter2">
   <property name="channel">-1</property>
   <property name="mlt_service">panner</property>
   <property name="internal_added">237</property>
   <property name="start">0.5</property>
   <property name="disable">1</property>
  </filter>
  <filter id="filter3">
   <property name="iec_scale">0</property>
   <property name="mlt_service">audiolevel</property>
   <property name="dbpeak">1</property>
   <property name="disable">1</property>
  </filter>
 </tractor>
 <producer id="producer650" in="00:00:00.000" out="00:00:00.833">
  <property name="length">51</property>
  <property name="eof">pause</property>
  <property name="resource">/home/federico/Nextcloud/Kden/EditingUT/Sound/Punch_Hit_Stomp/impact on metal  first variation.wav</property>
  <property name="audio_index">0</property>
  <property name="video_index">-1</property>
  <property name="mute_on_pause">0</property>
  <property name="mlt_service">avformat-novalidate</property>
  <property name="meta.media.nb_streams">1</property>
  <property name="meta.media.0.stream.type">audio</property>
  <property name="meta.media.0.codec.sample_fmt">s16</property>
  <property name="meta.media.0.codec.sample_rate">48000</property>
  <property name="meta.media.0.codec.channels">2</property>
  <property name="meta.media.0.codec.name">pcm_s16le</property>
  <property name="meta.media.0.codec.long_name">PCM signed 16-bit little-endian</property>
  <property name="meta.media.0.codec.bit_rate">1536000</property>
  <property name="meta.attr.encoder.markup">Lavf61.7.100</property>
  <property name="seekable">1</property>
  <property name="kdenlive:clipname"/>
  <property name="kdenlive:clip_type">1</property>
  <property name="kdenlive:folderid">356</property>
  <property name="kdenlive:id">366</property>
  <property name="kdenlive:file_size">163278</property>
  <property name="kdenlive:file_hash">0ad7826ff2205a843a5514af1c80ca55</property>
  <property name="kdenlive:audio_max0">201</property>
  <property name="xml">was here</property>
  <property name="set.test_audio">0</property>
  <property name="set.test_image">1</property>
 </producer>
 <producer id="producer651" in="00:00:00.000" out="00:00:09.017">
  <property name="length">542</property>
  <property name="eof">pause</property>
  <property name="resource">/home/federico/Nextcloud/Kden/EditingUT/Video/GreenScreen/what meme green screen.mkv</property>
  <property name="audio_index">1</property>
  <property name="video_index">0</property>
  <property name="mute_on_pause">0</property>
  <property name="mlt_service">avformat-novalidate</property>
  <property name="seekable">1</property>
  <property name="aspect_ratio">1</property>
  <property name="format">3</property>
  <property name="kdenlive:clipname"/>
  <property name="kdenlive:clip_type">0</property>
  <property name="kdenlive:folderid">511</property>
  <property name="kdenlive:id">566</property>
  <property name="kdenlive:file_size">166089</property>
  <property name="kdenlive:file_hash">e5eb6121a886b7801777849bd734eb06</property>
  <property name="kdenlive:audio_max1">234</property>
  <property name="xml">was here</property>
  <property name="meta.media.nb_streams">2</property>
  <property name="meta.media.0.stream.type">video</property>
  <property name="meta.media.0.stream.frame_rate">30</property>
  <property name="meta.media.0.stream.sample_aspect_ratio">1</property>
  <property name="meta.media.0.codec.width">1920</property>
  <property name="meta.media.0.codec.height">1080</property>
  <property name="meta.media.0.codec.rotate">0</property>
  <property name="meta.media.0.codec.pix_fmt">yuv420p</property>
  <property name="meta.media.0.codec.sample_aspect_ratio">1</property>
  <property name="meta.media.0.codec.colorspace">709</property>
  <property name="meta.media.0.codec.color_trc">1</property>
  <property name="meta.media.0.codec.name">h264</property>
  <property name="meta.media.0.codec.long_name">H.264 / AVC / MPEG-4 AVC / MPEG-4 part 10</property>
  <property name="meta.media.0.codec.bit_rate">0</property>
  <property name="meta.attr.0.stream.HANDLER_NAME.markup">ISO Media file produced by Google Inc.</property>
  <property name="meta.attr.0.stream.VENDOR_ID.markup">[0][0][0][0]</property>
  <property name="meta.attr.0.stream.ENCODER.markup">Lavc60.31.102 libx264</property>
  <property name="meta.attr.0.stream.DURATION.markup">00:00:08.969000000</property>
  <property name="meta.media.1.stream.type">audio</property>
  <property name="meta.media.1.codec.sample_fmt">fltp</property>
  <property name="meta.media.1.codec.sample_rate">44100</property>
  <property name="meta.media.1.codec.channels">2</property>
  <property name="meta.media.1.codec.name">vorbis</property>
  <property name="meta.media.1.codec.long_name">Vorbis</property>
  <property name="meta.media.1.codec.bit_rate">0</property>
  <property name="meta.attr.1.stream.language.markup">eng</property>
  <property name="meta.attr.1.stream.HANDLER_NAME.markup">ISO Media file produced by Google Inc.</property>
  <property name="meta.attr.1.stream.VENDOR_ID.markup">[0][0][0][0]</property>
  <property name="meta.attr.1.stream.ENCODER.markup">Lavc60.31.102 libvorbis</property>
  <property name="meta.attr.1.stream.DURATION.markup">00:00:09.036000000</property>
  <property name="meta.attr.COMPATIBLE_BRANDS.markup">isomiso2avc1mp41</property>
  <property name="meta.attr.MAJOR_BRAND.markup">isom</property>
  <property name="meta.attr.MINOR_VERSION.markup">512</property>
  <property name="meta.attr.ENCODER.markup">Lavf60.16.100</property>
  <property name="meta.media.sample_aspect_num">1</property>
  <property name="meta.media.sample_aspect_den">1</property>
  <property name="meta.media.frame_rate_num">30</property>
  <property name="meta.media.frame_rate_den">1</property>
  <property name="meta.media.colorspace">709</property>
  <property name="meta.media.color_trc">1</property>
  <property name="meta.media.has_b_frames">2</property>
  <property name="meta.media.width">1920</property>
  <property name="meta.media.height">1080</property>
  <property name="meta.media.color_range">mpeg</property>
  <property name="meta.media.top_field_first">0</property>
  <property name="meta.media.progressive">1</property>
  <property name="set.test_audio">0</property>
  <property name="set.test_image">1</property>
 </producer>
 <producer id="producer652" in="00:00:00.000" out="00:00:07.617">
  <property name="length">458</property>
  <property name="eof">pause</property>
  <property name="resource">/home/federico/Nextcloud/Kden/EditingUT/Sound/Horn/dramatic inception horn.wav</property>
  <property name="audio_index">0</property>
  <property name="video_index">-1</property>
  <property name="mute_on_pause">0</property>
  <property name="mlt_service">avformat-novalidate</property>
  <property name="meta.media.nb_streams">1</property>
  <property name="meta.media.0.stream.type">audio</property>
  <property name="meta.media.0.codec.sample_fmt">s16</property>
  <property name="meta.media.0.codec.sample_rate">48000</property>
  <property name="meta.media.0.codec.channels">2</property>
  <property name="meta.media.0.codec.name">pcm_s16le</property>
  <property name="meta.media.0.codec.long_name">PCM signed 16-bit little-endian</property>
  <property name="meta.media.0.codec.bit_rate">1536000</property>
  <property name="meta.attr.encoder.markup">Lavf59.16.100</property>
  <property name="seekable">1</property>
  <property name="kdenlive:clipname"/>
  <property name="kdenlive:clip_type">1</property>
  <property name="kdenlive:folderid">303</property>
  <property name="kdenlive:id">307</property>
  <property name="kdenlive:file_size">1465678</property>
  <property name="kdenlive:file_hash">df3e63333e262c2a029f7285bd5555b3</property>
  <property name="kdenlive:audio_max0">138</property>
  <property name="xml">was here</property>
  <property name="set.test_audio">0</property>
  <property name="set.test_image">1</property>
 </producer>
 <playlist id="playlist2">
  <property name="kdenlive:audio_track">1</property>
  <blank length="00:08:50.500"/>
  <entry producer="producer650" in="00:00:00.000" out="00:00:00.833">
   <property name="kdenlive:id">366</property>
   <filter id="filter4">
    <property name="window">75</property>
    <property name="max_gain">20dB</property>
    <property name="level">00:00:00.000=-8</property>
    <property name="mlt_service">volume</property>
    <property name="kdenlive_id">-8db</property>
    <property name="kdenlive:collapsed">0</property>
   </filter>
  </entry>
  <blank length="00:03:49.533"/>
  <entry producer="producer651" in="00:00:00.000" out="00:00:02.067">
   <property name="kdenlive:id">566</property>
   <filter id="filter5">
    <property name="window">75</property>
    <property name="max_gain">20dB</property>
    <property name="level">00:00:09.033=-5</property>
    <property name="mlt_service">volume</property>
    <property name="kdenlive_id">-5db</property>
    <property name="kdenlive:collapsed">0</property>
   </filter>
  </entry>
  <blank length="00:04:05.683"/>
  <entry producer="producer652" in="00:00:00.117" out="00:00:03.533">
   <property name="kdenlive:id">307</property>
   <filter id="filter6" in="00:00:01.217" out="00:00:03.533">
    <property name="window">75</property>
    <property name="max_gain">20dB</property>
    <property name="mlt_service">volume</property>
    <property name="kdenlive_id">fadeout</property>
    <property name="gain">1</property>
    <property name="end">0</property>
   </filter>
  </entry>
 </playlist>
 <playlist id="playlist3">
  <property name="kdenlive:audio_track">1</property>
 </playlist>
 <tractor id="tractor1" in="00:00:00.000" out="00:16:52.067">
  <property name="kdenlive:audio_track">1</property>
  <property name="kdenlive:trackheight">50</property>
  <property name="kdenlive:timeline_active">1</property>
  <property name="kdenlive:collapsed">0</property>
  <property name="kdenlive:thumbs_format"/>
  <property name="kdenlive:audio_rec"/>
  <track hide="video" producer="playlist2"/>
  <track hide="video" producer="playlist3"/>
  <filter id="filter7">
   <property name="window">75</property>
   <property name="max_gain">20dB</property>
   <property name="mlt_service">volume</property>
   <property name="internal_added">237</property>
   <property name="disable">1</property>
  </filter>
  <filter id="filter8">
   <property name="channel">-1</property>
   <property name="mlt_service">panner</property>
   <property name="internal_added">237</property>
   <property name="start">0.5</property>
   <property name="disable">1</property>
  </filter>
  <filter id="filter9">
   <property name="iec_scale">0</property>
   <property name="mlt_service">audiolevel</property>
   <property name="dbpeak">1</property>
   <property name="disable">1</property>
  </filter>
 </tractor>
 <producer id="producer653" in="00:00:00.000" out="00:00:12.417">
  <property name="length">746</property>
  <property name="eof">pause</property>
  <property name="resource">/home/federico/Nextcloud/Kden/EditingUT/Sound/Games/flashbang.wav</property>
  <property name="audio_index">0</property>
  <property name="video_index">-1</property>
  <property name="mute_on_pause">0</property>
  <property name="mlt_service">avformat-novalidate</property>
  <property name="meta.media.nb_streams">1</property>
  <property name="meta.media.0.stream.type">audio</property>
  <property name="meta.media.0.codec.sample_fmt">s16</property>
  <property name="meta.media.0.codec.sample_rate">44100</property>
  <property name="meta.media.0.codec.channels">2</property>
  <property name="meta.media.0.codec.name">pcm_s16le</property>
  <property name="meta.media.0.codec.long_name">PCM signed 16-bit little-endian</property>
  <property name="meta.media.0.codec.bit_rate">1411200</property>
  <property name="meta.attr.encoder.markup">Lavf60.16.100</property>
  <property name="seekable">1</property>
  <property name="kdenlive:clipname"/>
  <property name="kdenlive:clip_type">1</property>
  <property name="kdenlive:folderid">256</property>
  <property name="kdenlive:id">265</property>
  <property name="kdenlive:file_size">2193486</property>
  <property name="kdenlive:file_hash">29b0b287d90d1fdc61d7bf6f5854ba4c</property>
  <property name="kdenlive:audio_max0">233</property>
  <property name="kdenlive:zone_in">293</property>
  <property name="kdenlive:zone_out">463</property>
  <property name="xml">was here</property>
  <property name="set.test_audio">0</property>
  <property name="set.test_image">1</property>
 </producer>
 <producer id="producer654" in="00:00:00.000" out="00:00:03.533">
  <property name="length">213</property>
  <property name="eof">pause</property>
  <property name="resource">/home/federico/Nextcloud/Kden/EditingUT/Sound/Punch_Hit_Stomp/pinball bumper hit.wav</property>
  <property name="audio_index">0</property>
  <property name="video_index">-1</property>
  <property name="mute_on_pause">0</property>
  <property name="mlt_service">avformat-novalidate</property>
  <property name="meta.media.nb_streams">1</property>
  <property name="meta.media.0.stream.type">audio</property>
  <property name="meta.media.0.codec.sample_fmt">s16</property>
  <property name="meta.media.0.codec.sample_rate">44100</property>
  <property name="meta.media.0.codec.channels">2</property>
  <property name="meta.media.0.codec.name">pcm_s16le</property>
  <property name="meta.media.0.codec.long_name">PCM signed 16-bit little-endian</property>
  <property name="meta.media.0.codec.bit_rate">1411200</property>
  <property name="meta.attr.encoder.markup">Lavf60.16.100</property>
  <property name="seekable">1</property>
  <property name="kdenlive:clipname"/>
  <property name="kdenlive:clip_type">1</property>
  <property name="kdenlive:folderid">356</property>
  <property name="kdenlive:id">370</property>
  <property name="kdenlive:file_size">626766</property>
  <property name="kdenlive:file_hash">2878fd1b27a8de6224d878f7143b433c</property>
  <property name="kdenlive:audio_max0">174</property>
  <property name="kdenlive:zone_in">0</property>
  <property name="kdenlive:zone_out">47</property>
  <property name="xml">was here</property>
  <property name="set.test_audio">0</property>
  <property name="set.test_image">1</property>
 </producer>
 <producer id="producer655" in="00:00:00.000" out="02:55:15.583">
  <property name="length">630938</property>
  <property name="eof">pause</property>
  <property name="resource">/home/federico/Videos/Edit/Kden/ProxyRender/proxy/fe0d51893463e6190634030c49539660.mov</property>
  <property name="audio_index">1</property>
  <property name="video_index">0</property>
  <property name="mute_on_pause">0</property>
  <property name="mlt_service">avformat-novalidate</property>
  <property name="meta.media.nb_streams">2</property>
  <property name="meta.media.0.stream.type">video</property>
  <property name="meta.media.0.stream.frame_rate">59.9401</property>
  <property name="meta.media.0.stream.sample_aspect_ratio">1</property>
  <property name="meta.media.0.codec.width">640</property>
  <property name="meta.media.0.codec.height">360</property>
  <property name="meta.media.0.codec.rotate">0</property>
  <property name="meta.media.0.codec.pix_fmt">yuv420p</property>
  <property name="meta.media.0.codec.sample_aspect_ratio">1</property>
  <property name="meta.media.0.codec.colorspace">709</property>
  <property name="meta.media.0.codec.color_trc">1</property>
  <property name="meta.media.0.codec.name">h264</property>
  <property name="meta.media.0.codec.long_name">H.264 / AVC / MPEG-4 AVC / MPEG-4 part 10</property>
  <property name="meta.media.0.codec.bit_rate">5355740</property>
  <property name="meta.attr.0.stream.handler_name.markup">ISO Media file produced by Google Inc.</property>
  <property name="meta.attr.0.stream.vendor_id.markup">FFMP</property>
  <property name="meta.attr.0.stream.encoder.markup">Lavc59.18.100 libx264</property>
  <property name="meta.media.1.stream.type">audio</property>
  <property name="meta.media.1.codec.sample_fmt">fltp</property>
  <property name="meta.media.1.codec.sample_rate">48000</property>
  <property name="meta.media.1.codec.channels">2</property>
  <property name="meta.media.1.codec.name">aac</property>
  <property name="meta.media.1.codec.long_name">AAC (Advanced Audio Coding)</property>
  <property name="meta.media.1.codec.bit_rate">128722</property>
  <property name="meta.attr.1.stream.language.markup">eng</property>
  <property name="meta.attr.1.stream.handler_name.markup">SoundHandler</property>
  <property name="meta.attr.1.stream.vendor_id.markup">[0][0][0][0]</property>
  <property name="meta.attr.major_brand.markup">qt  </property>
  <property name="meta.attr.minor_version.markup">512</property>
  <property name="meta.attr.compatible_brands.markup">qt  </property>
  <property name="meta.attr.encoder.markup">Lavf59.16.100</property>
  <property name="seekable">1</property>
  <property name="meta.media.sample_aspect_num">1</property>
  <property name="meta.media.sample_aspect_den">1</property>
  <property name="aspect_ratio">1</property>
  <property name="format">3</property>
  <property name="kdenlive:clipname">1 - iudex hit - dark souls iii cinders  anima della sfida ii 1.mkv</property>
  <property name="kdenlive:clip_type">0</property>
  <property name="kdenlive:folderid">4</property>
  <property name="kdenlive:id">679</property>
  <property name="kdenlive:file_size">2828126290</property>
  <property name="kdenlive:file_hash">fe0d51893463e6190634030c49539660</property>
  <property name="kdenlive:audio_max1">212</property>
  <property name="kdenlive:proxy">/home/federico/Videos/Edit/Kden/ProxyRender/proxy/fe0d51893463e6190634030c49539660.mov</property>
  <property name="kdenlive:originalurl">/home/federico/Videos/Edit/Projects/DS3_cinders/5-Stream/1 - iudex hit - dark souls iii cinders  anima della sfida ii 1.mkv</property>
  <property name="kdenlive:original.mlt_type">producer</property>
  <property name="kdenlive:original.in">00:00:00.000</property>
  <property name="kdenlive:original.out">02:55:15.617</property>
  <property name="kdenlive:original.length">630938</property>
  <property name="kdenlive:original.eof">pause</property>
  <property name="kdenlive:original.resource">/home/federico/Videos/Edit/Projects/DS3_cinders/5-Stream/1 - iudex hit - dark souls iii cinders  anima della sfida ii 1.mkv</property>
  <property name="kdenlive:original.meta.media.nb_streams">2</property>
  <property name="kdenlive:original.meta.media.0.stream.type">video</property>
  <property name="kdenlive:original.meta.media.0.stream.frame_rate">59.9401</property>
  <property name="kdenlive:original.meta.media.0.stream.sample_aspect_ratio">0</property>
  <property name="kdenlive:original.meta.media.0.codec.width">1920</property>
  <property name="kdenlive:original.meta.media.0.codec.height">1080</property>
  <property name="kdenlive:original.meta.media.0.codec.rotate">0</property>
  <property name="kdenlive:original.meta.media.0.codec.pix_fmt">yuv420p</property>
  <property name="kdenlive:original.meta.media.0.codec.sample_aspect_ratio">0</property>
  <property name="kdenlive:original.meta.media.0.codec.colorspace">709</property>
  <property name="kdenlive:original.meta.media.0.codec.color_trc">1</property>
  <property name="kdenlive:original.meta.media.0.codec.name">libdav1d</property>
  <property name="kdenlive:original.meta.media.0.codec.long_name">dav1d AV1 decoder by VideoLAN</property>
  <property name="kdenlive:original.meta.media.0.codec.bit_rate">0</property>
  <property name="kdenlive:original.meta.attr.0.stream.HANDLER_NAME.markup">ISO Media file produced by Google Inc.</property>
  <property name="kdenlive:original.meta.attr.0.stream.VENDOR_ID.markup">[0][0][0][0]</property>
  <property name="kdenlive:original.meta.attr.0.stream.DURATION.markup">02:55:15.589000000</property>
  <property name="kdenlive:original.meta.media.1.stream.type">audio</property>
  <property name="kdenlive:original.meta.media.1.codec.sample_fmt">fltp</property>
  <property name="kdenlive:original.meta.media.1.codec.sample_rate">48000</property>
  <property name="kdenlive:original.meta.media.1.codec.channels">2</property>
  <property name="kdenlive:original.meta.media.1.codec.name">opus</property>
  <property name="kdenlive:original.meta.media.1.codec.long_name">Opus</property>
  <property name="kdenlive:original.meta.media.1.codec.bit_rate">0</property>
  <property name="kdenlive:original.meta.attr.1.stream.language.markup">eng</property>
  <property name="kdenlive:original.meta.attr.1.stream.DURATION.markup">02:55:15.628000000</property>
  <property name="kdenlive:original.meta.attr.COMPATIBLE_BRANDS.markup">iso6av01mp41</property>
  <property name="kdenlive:original.meta.attr.MAJOR_BRAND.markup">dash</property>
  <property name="kdenlive:original.meta.attr.MINOR_VERSION.markup">0</property>
  <property name="kdenlive:original.meta.attr.ENCODER.markup">Lavf60.16.100</property>
  <property name="kdenlive:original.seekable">1</property>
  <property name="kdenlive:original.width">1920</property>
  <property name="kdenlive:original.height">1080</property>
  <property name="kdenlive:original.meta.media.sample_aspect_num">1</property>
  <property name="kdenlive:original.meta.media.sample_aspect_den">1</property>
  <property name="kdenlive:original.aspect_ratio">1</property>
  <property name="kdenlive:original.format">3</property>
  <property name="kdenlive:original.audio_index">1</property>
  <property name="kdenlive:original.video_index">0</property>
  <property name="kdenlive:original.mute_on_pause">0</property>
  <property name="kdenlive:original.mlt_service">avformat-novalidate</property>
  <property name="kdenlive:original.meta.media.frame_rate_num">60000</property>
  <property name="kdenlive:original.meta.media.frame_rate_den">1001</property>
  <property name="kdenlive:original.meta.media.colorspace">709</property>
  <property name="kdenlive:original.meta.media.color_trc">1</property>
  <property name="kdenlive:original.meta.media.has_b_frames">0</property>
  <property name="kdenlive:original.meta.media.width">1920</property>
  <property name="kdenlive:original.meta.media.height">1080</property>
  <property name="kdenlive:original.meta.media.color_range">mpeg</property>
  <property name="kdenlive:original.meta.media.top_field_first">0</property>
  <property name="kdenlive:original.meta.media.progressive">1</property>
  <property name="kdenlive:original.kdenlive:clip_type">0</property>
  <property name="kdenlive:original.kdenlive:folderid">4</property>
  <property name="kdenlive:original.kdenlive:id">679</property>
  <property name="kdenlive:original.kdenlive:file_size">2828126290</property>
  <property name="kdenlive:original.kdenlive:file_hash">fe0d51893463e6190634030c49539660</property>
  <property name="kdenlive:original.kdenlive:audio_max1">212</property>
  <property name="kdenlive:original.backup">1</property>
  <property name="xml">was here</property>
  <property name="meta.media.frame_rate_num">19001</property>
  <property name="meta.media.frame_rate_den">317</property>
  <property name="meta.media.colorspace">709</property>
  <property name="meta.media.color_trc">1</property>
  <property name="meta.media.has_b_frames">0</property>
  <property name="meta.media.width">640</property>
  <property name="meta.media.height">360</property>
  <property name="meta.media.color_range">mpeg</property>
  <property name="meta.media.top_field_first">0</property>
  <property name="meta.media.progressive">1</property>
  <property name="set.test_audio">0</property>
  <property name="set.test_image">1</property>
 </producer>
 <producer id="producer656" in="00:00:00.000" out="00:00:02.750">
  <property name="length">166</property>
  <property name="eof">pause</property>
  <property name="resource">/home/federico/Nextcloud/Kden/EditingUT/Sound/Animals/rubber duck.wav</property>
  <property name="audio_index">0</property>
  <property name="video_index">-1</property>
  <property name="mute_on_pause">0</property>
  <property name="mlt_service">avformat-novalidate</property>
  <property name="meta.media.nb_streams">1</property>
  <property name="meta.media.0.stream.type">audio</property>
  <property name="meta.media.0.codec.sample_fmt">s16</property>
  <property name="meta.media.0.codec.sample_rate">44100</property>
  <property name="meta.media.0.codec.channels">2</property>
  <property name="meta.media.0.codec.name">pcm_s16le</property>
  <property name="meta.media.0.codec.long_name">PCM signed 16-bit little-endian</property>
  <property name="meta.media.0.codec.bit_rate">1411200</property>
  <property name="meta.attr.encoder.markup">Lavf60.16.100</property>
  <property name="seekable">1</property>
  <property name="kdenlive:clipname"/>
  <property name="kdenlive:clip_type">1</property>
  <property name="kdenlive:folderid">137</property>
  <property name="kdenlive:id">148</property>
  <property name="kdenlive:file_size">488526</property>
  <property name="kdenlive:file_hash">d8991451f877baa3de0a1301b9935325</property>
  <property name="kdenlive:audio_max0">167</property>
  <property name="kdenlive:zone_in">73</property>
  <property name="kdenlive:zone_out">115</property>
  <property name="xml">was here</property>
  <property name="set.test_audio">0</property>
  <property name="set.test_image">1</property>
 </producer>
 <producer id="producer657" in="00:00:00.000" out="02:50:28.900">
  <property name="length">613736</property>
  <property name="eof">pause</property>
  <property name="resource">/home/federico/Videos/Edit/Kden/ProxyRender/proxy/f6918f2d79882f9391f2f765ac219be5.mov</property>
  <property name="audio_index">1</property>
  <property name="video_index">0</property>
  <property name="mute_on_pause">0</property>
  <property name="mlt_service">avformat-novalidate</property>
  <property name="meta.media.nb_streams">2</property>
  <property name="meta.media.0.stream.type">video</property>
  <property name="meta.media.0.stream.frame_rate">60</property>
  <property name="meta.media.0.stream.sample_aspect_ratio">1</property>
  <property name="meta.media.0.codec.width">640</property>
  <property name="meta.media.0.codec.height">360</property>
  <property name="meta.media.0.codec.rotate">0</property>
  <property name="meta.media.0.codec.pix_fmt">yuv420p</property>
  <property name="meta.media.0.codec.sample_aspect_ratio">1</property>
  <property name="meta.media.0.codec.colorspace">709</property>
  <property name="meta.media.0.codec.color_trc">1</property>
  <property name="meta.media.0.codec.name">h264</property>
  <property name="meta.media.0.codec.long_name">H.264 / AVC / MPEG-4 AVC / MPEG-4 part 10</property>
  <property name="meta.media.0.codec.bit_rate">5791824</property>
  <property name="meta.attr.0.stream.handler_name.markup">ISO Media file produced by Google Inc.</property>
  <property name="meta.attr.0.stream.vendor_id.markup">FFMP</property>
  <property name="meta.attr.0.stream.encoder.markup">Lavc59.18.100 libx264</property>
  <property name="meta.media.1.stream.type">audio</property>
  <property name="meta.media.1.codec.sample_fmt">fltp</property>
  <property name="meta.media.1.codec.sample_rate">48000</property>
  <property name="meta.media.1.codec.channels">2</property>
  <property name="meta.media.1.codec.name">aac</property>
  <property name="meta.media.1.codec.long_name">AAC (Advanced Audio Coding)</property>
  <property name="meta.media.1.codec.bit_rate">128878</property>
  <property name="meta.attr.1.stream.language.markup">eng</property>
  <property name="meta.attr.1.stream.handler_name.markup">SoundHandler</property>
  <property name="meta.attr.1.stream.vendor_id.markup">[0][0][0][0]</property>
  <property name="meta.attr.major_brand.markup">qt  </property>
  <property name="meta.attr.minor_version.markup">512</property>
  <property name="meta.attr.compatible_brands.markup">qt  </property>
  <property name="meta.attr.encoder.markup">Lavf59.16.100</property>
  <property name="seekable">1</property>
  <property name="meta.media.sample_aspect_num">1</property>
  <property name="meta.media.sample_aspect_den">1</property>
  <property name="aspect_ratio">1</property>
  <property name="format">3</property>
  <property name="kdenlive:clipname">2 - mod of chaos - dark souls iii cinders  anima della sfida ii 2.mkv</property>
  <property name="kdenlive:clip_type">0</property>
  <property name="kdenlive:folderid">4</property>
  <property name="kdenlive:id">680</property>
  <property name="kdenlive:file_size">3761357757</property>
  <property name="kdenlive:file_hash">f6918f2d79882f9391f2f765ac219be5</property>
  <property name="kdenlive:proxy">/home/federico/Videos/Edit/Kden/ProxyRender/proxy/f6918f2d79882f9391f2f765ac219be5.mov</property>
  <property name="kdenlive:originalurl">/home/federico/Videos/Edit/Projects/DS3_cinders/5-Stream/2 - mod of chaos - dark souls iii cinders  anima della sfida ii 2.mkv</property>
  <property name="kdenlive:original.mlt_type">producer</property>
  <property name="kdenlive:original.in">00:00:00.000</property>
  <property name="kdenlive:original.out">02:50:28.917</property>
  <property name="kdenlive:original.length">613736</property>
  <property name="kdenlive:original.eof">pause</property>
  <property name="kdenlive:original.resource">/home/federico/Videos/Edit/Projects/DS3_cinders/5-Stream/2 - mod of chaos - dark souls iii cinders  anima della sfida ii 2.mkv</property>
  <property name="kdenlive:original.meta.media.nb_streams">2</property>
  <property name="kdenlive:original.meta.media.0.stream.type">video</property>
  <property name="kdenlive:original.meta.media.0.stream.frame_rate">60</property>
  <property name="kdenlive:original.meta.media.0.stream.sample_aspect_ratio">0</property>
  <property name="kdenlive:original.meta.media.0.codec.width">1920</property>
  <property name="kdenlive:original.meta.media.0.codec.height">1080</property>
  <property name="kdenlive:original.meta.media.0.codec.rotate">0</property>
  <property name="kdenlive:original.meta.media.0.codec.pix_fmt">yuv420p</property>
  <property name="kdenlive:original.meta.media.0.codec.sample_aspect_ratio">0</property>
  <property name="kdenlive:original.meta.media.0.codec.colorspace">709</property>
  <property name="kdenlive:original.meta.media.0.codec.color_trc">1</property>
  <property name="kdenlive:original.meta.media.0.codec.name">libdav1d</property>
  <property name="kdenlive:original.meta.media.0.codec.long_name">dav1d AV1 decoder by VideoLAN</property>
  <property name="kdenlive:original.meta.media.0.codec.bit_rate">0</property>
  <property name="kdenlive:original.meta.attr.0.stream.HANDLER_NAME.markup">ISO Media file produced by Google Inc.</property>
  <property name="kdenlive:original.meta.attr.0.stream.VENDOR_ID.markup">[0][0][0][0]</property>
  <property name="kdenlive:original.meta.attr.0.stream.DURATION.markup">02:50:28.900000000</property>
  <property name="kdenlive:original.meta.media.1.stream.type">audio</property>
  <property name="kdenlive:original.meta.media.1.codec.sample_fmt">fltp</property>
  <property name="kdenlive:original.meta.media.1.codec.sample_rate">48000</property>
  <property name="kdenlive:original.meta.media.1.codec.channels">2</property>
  <property name="kdenlive:original.meta.media.1.codec.name">opus</property>
  <property name="kdenlive:original.meta.media.1.codec.long_name">Opus</property>
  <property name="kdenlive:original.meta.media.1.codec.bit_rate">0</property>
  <property name="kdenlive:original.meta.attr.1.stream.language.markup">eng</property>
  <property name="kdenlive:original.meta.attr.1.stream.DURATION.markup">02:50:28.928000000</property>
  <property name="kdenlive:original.meta.attr.COMPATIBLE_BRANDS.markup">iso6av01mp41</property>
  <property name="kdenlive:original.meta.attr.MAJOR_BRAND.markup">dash</property>
  <property name="kdenlive:original.meta.attr.MINOR_VERSION.markup">0</property>
  <property name="kdenlive:original.meta.attr.ENCODER.markup">Lavf60.16.100</property>
  <property name="kdenlive:original.seekable">1</property>
  <property name="kdenlive:original.width">1920</property>
  <property name="kdenlive:original.height">1080</property>
  <property name="kdenlive:original.meta.media.sample_aspect_num">1</property>
  <property name="kdenlive:original.meta.media.sample_aspect_den">1</property>
  <property name="kdenlive:original.aspect_ratio">1</property>
  <property name="kdenlive:original.format">3</property>
  <property name="kdenlive:original.audio_index">1</property>
  <property name="kdenlive:original.video_index">0</property>
  <property name="kdenlive:original.mute_on_pause">0</property>
  <property name="kdenlive:original.mlt_service">avformat-novalidate</property>
  <property name="kdenlive:original.meta.media.frame_rate_num">60</property>
  <property name="kdenlive:original.meta.media.frame_rate_den">1</property>
  <property name="kdenlive:original.meta.media.colorspace">709</property>
  <property name="kdenlive:original.meta.media.color_trc">1</property>
  <property name="kdenlive:original.meta.media.has_b_frames">0</property>
  <property name="kdenlive:original.meta.media.width">1920</property>
  <property name="kdenlive:original.meta.media.height">1080</property>
  <property name="kdenlive:original.meta.media.color_range">mpeg</property>
  <property name="kdenlive:original.meta.media.top_field_first">0</property>
  <property name="kdenlive:original.meta.media.progressive">1</property>
  <property name="kdenlive:original.kdenlive:clip_type">0</property>
  <property name="kdenlive:original.kdenlive:folderid">4</property>
  <property name="kdenlive:original.kdenlive:id">680</property>
  <property name="kdenlive:original.kdenlive:file_size">3761357757</property>
  <property name="kdenlive:original.kdenlive:file_hash">f6918f2d79882f9391f2f765ac219be5</property>
  <property name="kdenlive:original.backup">1</property>
  <property name="kdenlive:audio_max1">206</property>
  <property name="xml">was here</property>
  <property name="meta.media.frame_rate_num">60</property>
  <property name="meta.media.frame_rate_den">1</property>
  <property name="meta.media.colorspace">709</property>
  <property name="meta.media.color_trc">1</property>
  <property name="meta.media.has_b_frames">0</property>
  <property name="meta.media.width">640</property>
  <property name="meta.media.height">360</property>
  <property name="meta.media.color_range">mpeg</property>
  <property name="meta.media.top_field_first">0</property>
  <property name="meta.media.progressive">1</property>
  <property name="set.test_audio">0</property>
  <property name="set.test_image">1</property>
 </producer>
 <producer id="producer658" in="00:00:00.000" out="00:00:04.583">
  <property name="length">276</property>
  <property name="eof">pause</property>
  <property name="resource">/home/federico/Nextcloud/Kden/EditingUT/Sound/Punch_Hit_Stomp/super punch.wav</property>
  <property name="audio_index">0</property>
  <property name="video_index">-1</property>
  <property name="mute_on_pause">0</property>
  <property name="mlt_service">avformat-novalidate</property>
  <property name="meta.media.nb_streams">1</property>
  <property name="meta.media.0.stream.type">audio</property>
  <property name="meta.media.0.codec.sample_fmt">s16</property>
  <property name="meta.media.0.codec.sample_rate">44100</property>
  <property name="meta.media.0.codec.channels">2</property>
  <property name="meta.media.0.codec.name">pcm_s16le</property>
  <property name="meta.media.0.codec.long_name">PCM signed 16-bit little-endian</property>
  <property name="meta.media.0.codec.bit_rate">1411200</property>
  <property name="meta.attr.encoder.markup">Lavf60.16.100</property>
  <property name="seekable">1</property>
  <property name="kdenlive:clipname"/>
  <property name="kdenlive:clip_type">1</property>
  <property name="kdenlive:folderid">356</property>
  <property name="kdenlive:id">375</property>
  <property name="kdenlive:file_size">811086</property>
  <property name="kdenlive:file_hash">b2917074e02fe7263e09abb1bd524a20</property>
  <property name="kdenlive:audio_max0">235</property>
  <property name="kdenlive:zone_in">110</property>
  <property name="kdenlive:zone_out">161</property>
  <property name="xml">was here</property>
  <property name="set.test_audio">0</property>
  <property name="set.test_image">1</property>
 </producer>
 <producer id="producer659" in="00:00:00.000" out="00:00:07.133">
  <property name="length">429</property>
  <property name="eof">pause</property>
  <property name="resource">/home/federico/Nextcloud/Kden/EditingUT/Sound/BassDrop/dramatic bass downfall -.wav</property>
  <property name="audio_index">0</property>
  <property name="video_index">-1</property>
  <property name="mute_on_pause">0</property>
  <property name="mlt_service">avformat-novalidate</property>
  <property name="meta.media.nb_streams">1</property>
  <property name="meta.media.0.stream.type">audio</property>
  <property name="meta.media.0.codec.sample_fmt">s16</property>
  <property name="meta.media.0.codec.sample_rate">44100</property>
  <property name="meta.media.0.codec.channels">2</property>
  <property name="meta.media.0.codec.name">pcm_s16le</property>
  <property name="meta.media.0.codec.long_name">PCM signed 16-bit little-endian</property>
  <property name="meta.media.0.codec.bit_rate">1411200</property>
  <property name="meta.attr.encoder.markup">Lavf60.16.100</property>
  <property name="seekable">1</property>
  <property name="kdenlive:clipname"/>
  <property name="kdenlive:clip_type">1</property>
  <property name="kdenlive:folderid">158</property>
  <property name="kdenlive:id">162</property>
  <property name="kdenlive:file_size">1262670</property>
  <property name="kdenlive:file_hash">ef0617b5978c5769b1c11aa02d343d33</property>
  <property name="kdenlive:audio_max0">255</property>
  <property name="xml">was here</property>
  <property name="set.test_audio">0</property>
  <property name="set.test_image">1</property>
 </producer>
 <producer id="producer660" in="00:00:00.000" out="00:00:02.250">
  <property name="length">136</property>
  <property name="eof">pause</property>
  <property name="resource">/home/federico/Nextcloud/Kden/EditingUT/Sound/Explosion/explosion_russian sneeze.wav</property>
  <property name="audio_index">0</property>
  <property name="video_index">-1</property>
  <property name="mute_on_pause">0</property>
  <property name="mlt_service">avformat-novalidate</property>
  <property name="meta.media.nb_streams">1</property>
  <property name="meta.media.0.stream.type">audio</property>
  <property name="meta.media.0.codec.sample_fmt">s16</property>
  <property name="meta.media.0.codec.sample_rate">48000</property>
  <property name="meta.media.0.codec.channels">2</property>
  <property name="meta.media.0.codec.name">pcm_s16le</property>
  <property name="meta.media.0.codec.long_name">PCM signed 16-bit little-endian</property>
  <property name="meta.media.0.codec.bit_rate">1536000</property>
  <property name="meta.attr.encoder.markup">Lavf59.16.100</property>
  <property name="seekable">1</property>
  <property name="kdenlive:clipname"/>
  <property name="kdenlive:clip_type">1</property>
  <property name="kdenlive:folderid">243</property>
  <property name="kdenlive:id">246</property>
  <property name="kdenlive:file_size">435278</property>
  <property name="kdenlive:file_hash">8e2b9429db182b45cb66eaca1b0bdc33</property>
  <property name="kdenlive:audio_max0">236</property>
  <property name="kdenlive:zone_in">19</property>
  <property name="kdenlive:zone_out">136</property>
  <property name="xml">was here</property>
  <property name="set.test_audio">0</property>
  <property name="set.test_image">1</property>
 </producer>
 <producer id="producer661" in="00:00:00.000" out="02:11:32.800">
  <property name="length">473570</property>
  <property name="eof">pause</property>
  <property name="resource">/home/federico/Videos/Edit/Kden/ProxyRender/proxy/e297f2e0f7ae15f1f6c3e6c7a3b137c7.mov</property>
  <property name="audio_index">1</property>
  <property name="video_index">0</property>
  <property name="mute_on_pause">0</property>
  <property name="mlt_service">avformat-novalidate</property>
  <property name="meta.media.nb_streams">2</property>
  <property name="meta.media.0.stream.type">video</property>
  <property name="meta.media.0.stream.frame_rate">59.9401</property>
  <property name="meta.media.0.stream.sample_aspect_ratio">1</property>
  <property name="meta.media.0.codec.width">640</property>
  <property name="meta.media.0.codec.height">360</property>
  <property name="meta.media.0.codec.rotate">0</property>
  <property name="meta.media.0.codec.pix_fmt">yuv420p</property>
  <property name="meta.media.0.codec.sample_aspect_ratio">1</property>
  <property name="meta.media.0.codec.colorspace">709</property>
  <property name="meta.media.0.codec.color_trc">1</property>
  <property name="meta.media.0.codec.name">h264</property>
  <property name="meta.media.0.codec.long_name">H.264 / AVC / MPEG-4 AVC / MPEG-4 part 10</property>
  <property name="meta.media.0.codec.bit_rate">5565045</property>
  <property name="meta.attr.0.stream.handler_name.markup">ISO Media file produced by Google Inc.</property>
  <property name="meta.attr.0.stream.vendor_id.markup">FFMP</property>
  <property name="meta.attr.0.stream.encoder.markup">Lavc59.18.100 libx264</property>
  <property name="meta.media.1.stream.type">audio</property>
  <property name="meta.media.1.codec.sample_fmt">fltp</property>
  <property name="meta.media.1.codec.sample_rate">48000</property>
  <property name="meta.media.1.codec.channels">2</property>
  <property name="meta.media.1.codec.name">aac</property>
  <property name="meta.media.1.codec.long_name">AAC (Advanced Audio Coding)</property>
  <property name="meta.media.1.codec.bit_rate">128838</property>
  <property name="meta.attr.1.stream.language.markup">eng</property>
  <property name="meta.attr.1.stream.handler_name.markup">SoundHandler</property>
  <property name="meta.attr.1.stream.vendor_id.markup">[0][0][0][0]</property>
  <property name="meta.attr.major_brand.markup">qt  </property>
  <property name="meta.attr.minor_version.markup">512</property>
  <property name="meta.attr.compatible_brands.markup">qt  </property>
  <property name="meta.attr.encoder.markup">Lavf59.16.100</property>
  <property name="seekable">1</property>
  <property name="meta.media.sample_aspect_num">1</property>
  <property name="meta.media.sample_aspect_den">1</property>
  <property name="aspect_ratio">1</property>
  <property name="format">3</property>
  <property name="kdenlive:clipname">3 - dark souls iii cinders  anima della sfida ii 3.mkv</property>
  <property name="kdenlive:clip_type">0</property>
  <property name="kdenlive:folderid">4</property>
  <property name="kdenlive:id">681</property>
  <property name="kdenlive:file_size">3370680153</property>
  <property name="kdenlive:file_hash">e297f2e0f7ae15f1f6c3e6c7a3b137c7</property>
  <property name="kdenlive:proxy">/home/federico/Videos/Edit/Kden/ProxyRender/proxy/e297f2e0f7ae15f1f6c3e6c7a3b137c7.mov</property>
  <property name="kdenlive:originalurl">/home/federico/Videos/Edit/Projects/DS3_cinders/5-Stream/3 - dark souls iii cinders  anima della sfida ii 3.mkv</property>
  <property name="kdenlive:original.mlt_type">producer</property>
  <property name="kdenlive:original.in">00:00:00.000</property>
  <property name="kdenlive:original.out">02:11:32.817</property>
  <property name="kdenlive:original.length">473570</property>
  <property name="kdenlive:original.eof">pause</property>
  <property name="kdenlive:original.resource">/home/federico/Videos/Edit/Projects/DS3_cinders/5-Stream/3 - dark souls iii cinders  anima della sfida ii 3.mkv</property>
  <property name="kdenlive:original.meta.media.nb_streams">2</property>
  <property name="kdenlive:original.meta.media.0.stream.type">video</property>
  <property name="kdenlive:original.meta.media.0.stream.frame_rate">59.9401</property>
  <property name="kdenlive:original.meta.media.0.stream.sample_aspect_ratio">0</property>
  <property name="kdenlive:original.meta.media.0.codec.width">1920</property>
  <property name="kdenlive:original.meta.media.0.codec.height">1080</property>
  <property name="kdenlive:original.meta.media.0.codec.rotate">0</property>
  <property name="kdenlive:original.meta.media.0.codec.pix_fmt">yuv420p</property>
  <property name="kdenlive:original.meta.media.0.codec.sample_aspect_ratio">0</property>
  <property name="kdenlive:original.meta.media.0.codec.colorspace">709</property>
  <property name="kdenlive:original.meta.media.0.codec.color_trc">1</property>
  <property name="kdenlive:original.meta.media.0.codec.name">libdav1d</property>
  <property name="kdenlive:original.meta.media.0.codec.long_name">dav1d AV1 decoder by VideoLAN</property>
  <property name="kdenlive:original.meta.media.0.codec.bit_rate">0</property>
  <property name="kdenlive:original.meta.attr.0.stream.HANDLER_NAME.markup">ISO Media file produced by Google Inc.</property>
  <property name="kdenlive:original.meta.attr.0.stream.VENDOR_ID.markup">[0][0][0][0]</property>
  <property name="kdenlive:original.meta.attr.0.stream.DURATION.markup">02:11:32.802000000</property>
  <property name="kdenlive:original.meta.media.1.stream.type">audio</property>
  <property name="kdenlive:original.meta.media.1.codec.sample_fmt">fltp</property>
  <property name="kdenlive:original.meta.media.1.codec.sample_rate">48000</property>
  <property name="kdenlive:original.meta.media.1.codec.channels">2</property>
  <property name="kdenlive:original.meta.media.1.codec.name">opus</property>
  <property name="kdenlive:original.meta.media.1.codec.long_name">Opus</property>
  <property name="kdenlive:original.meta.media.1.codec.bit_rate">0</property>
  <property name="kdenlive:original.meta.attr.1.stream.language.markup">eng</property>
  <property name="kdenlive:original.meta.attr.1.stream.DURATION.markup">02:11:32.828000000</property>
  <property name="kdenlive:original.meta.attr.COMPATIBLE_BRANDS.markup">iso6av01mp41</property>
  <property name="kdenlive:original.meta.attr.MAJOR_BRAND.markup">dash</property>
  <property name="kdenlive:original.meta.attr.MINOR_VERSION.markup">0</property>
  <property name="kdenlive:original.meta.attr.ENCODER.markup">Lavf60.16.100</property>
  <property name="kdenlive:original.seekable">1</property>
  <property name="kdenlive:original.width">1920</property>
  <property name="kdenlive:original.height">1080</property>
  <property name="kdenlive:original.meta.media.sample_aspect_num">1</property>
  <property name="kdenlive:original.meta.media.sample_aspect_den">1</property>
  <property name="kdenlive:original.aspect_ratio">1</property>
  <property name="kdenlive:original.format">3</property>
  <property name="kdenlive:original.audio_index">1</property>
  <property name="kdenlive:original.video_index">0</property>
  <property name="kdenlive:original.mute_on_pause">0</property>
  <property name="kdenlive:original.mlt_service">avformat-novalidate</property>
  <property name="kdenlive:original.meta.media.frame_rate_num">60000</property>
  <property name="kdenlive:original.meta.media.frame_rate_den">1001</property>
  <property name="kdenlive:original.meta.media.colorspace">709</property>
  <property name="kdenlive:original.meta.media.color_trc">1</property>
  <property name="kdenlive:original.meta.media.has_b_frames">0</property>
  <property name="kdenlive:original.meta.media.width">1920</property>
  <property name="kdenlive:original.meta.media.height">1080</property>
  <property name="kdenlive:original.meta.media.color_range">mpeg</property>
  <property name="kdenlive:original.meta.media.top_field_first">0</property>
  <property name="kdenlive:original.meta.media.progressive">1</property>
  <property name="kdenlive:original.kdenlive:clip_type">0</property>
  <property name="kdenlive:original.kdenlive:folderid">4</property>
  <property name="kdenlive:original.kdenlive:id">681</property>
  <property name="kdenlive:original.kdenlive:file_size">3370680153</property>
  <property name="kdenlive:original.kdenlive:file_hash">e297f2e0f7ae15f1f6c3e6c7a3b137c7</property>
  <property name="kdenlive:original.backup">1</property>
  <property name="kdenlive:audio_max1">203</property>
  <property name="xml">was here</property>
  <property name="meta.media.frame_rate_num">19001</property>
  <property name="meta.media.frame_rate_den">317</property>
  <property name="meta.media.colorspace">709</property>
  <property name="meta.media.color_trc">1</property>
  <property name="meta.media.has_b_frames">0</property>
  <property name="meta.media.width">640</property>
  <property name="meta.media.height">360</property>
  <property name="meta.media.color_range">mpeg</property>
  <property name="meta.media.top_field_first">0</property>
  <property name="meta.media.progressive">1</property>
  <property name="set.test_audio">0</property>
  <property name="set.test_image">1</property>
 </producer>
 <producer id="producer662" in="00:00:00.000" out="00:00:18.250">
  <property name="length">1096</property>
  <property name="eof">pause</property>
  <property name="resource">/home/federico/Nextcloud/Kden/EditingUT/Sound/Gun_Shot/machine gun s.wav</property>
  <property name="audio_index">0</property>
  <property name="video_index">-1</property>
  <property name="mute_on_pause">0</property>
  <property name="mlt_service">avformat-novalidate</property>
  <property name="meta.media.nb_streams">1</property>
  <property name="meta.media.0.stream.type">audio</property>
  <property name="meta.media.0.codec.sample_fmt">s16</property>
  <property name="meta.media.0.codec.sample_rate">44100</property>
  <property name="meta.media.0.codec.channels">2</property>
  <property name="meta.media.0.codec.name">pcm_s16le</property>
  <property name="meta.media.0.codec.long_name">PCM signed 16-bit little-endian</property>
  <property name="meta.media.0.codec.bit_rate">1411200</property>
  <property name="meta.attr.encoder.markup">Lavf60.16.100</property>
  <property name="seekable">1</property>
  <property name="kdenlive:clipname"/>
  <property name="kdenlive:clip_type">1</property>
  <property name="kdenlive:folderid">294</property>
  <property name="kdenlive:id">299</property>
  <property name="kdenlive:file_size">3221070</property>
  <property name="kdenlive:file_hash">80ee3d6ba27c7b2deb585b5955deaaaa</property>
  <property name="kdenlive:audio_max0">249</property>
  <property name="kdenlive:zone_in">111</property>
  <property name="kdenlive:zone_out">1096</property>
  <property name="xml">was here</property>
  <property name="set.test_audio">0</property>
  <property name="set.test_image">1</property>
 </producer>
 <producer id="producer663" in="00:00:00.000" out="00:00:48.000">
  <property name="length">2881</property>
  <property name="eof">pause</property>
  <property name="resource">/home/federico/Nextcloud/Kden/EditingUT/Video/everyone scream then disappear.mkv</property>
  <property name="audio_index">1</property>
  <property name="video_index">0</property>
  <property name="mute_on_pause">0</property>
  <property name="mlt_service">avformat-novalidate</property>
  <property name="seekable">1</property>
  <property name="aspect_ratio">1</property>
  <property name="format">3</property>
  <property name="kdenlive:clipname"/>
  <property name="kdenlive:clip_type">0</property>
  <property name="kdenlive:folderid">407</property>
  <property name="kdenlive:id">418</property>
  <property name="kdenlive:file_size">1112339</property>
  <property name="kdenlive:file_hash">331c9696672a816dc02d1a24bf2cccf0</property>
  <property name="kdenlive:audio_max1">250</property>
  <property name="kdenlive:zone_in">0</property>
  <property name="kdenlive:zone_out">85</property>
  <property name="xml">was here</property>
  <property name="meta.media.nb_streams">3</property>
  <property name="meta.media.0.stream.type">video</property>
  <property name="meta.media.0.stream.frame_rate">30</property>
  <property name="meta.media.0.stream.sample_aspect_ratio">1</property>
  <property name="meta.media.0.codec.width">426</property>
  <property name="meta.media.0.codec.height">240</property>
  <property name="meta.media.0.codec.rotate">0</property>
  <property name="meta.media.0.codec.pix_fmt">yuv420p</property>
  <property name="meta.media.0.codec.sample_aspect_ratio">1</property>
  <property name="meta.media.0.codec.colorspace">601</property>
  <property name="meta.media.0.codec.color_trc">1</property>
  <property name="meta.media.0.codec.name">h264</property>
  <property name="meta.media.0.codec.long_name">H.264 / AVC / MPEG-4 AVC / MPEG-4 part 10</property>
  <property name="meta.media.0.codec.bit_rate">0</property>
  <property name="meta.attr.0.stream.HANDLER_NAME.markup">ISO Media file produced by Google Inc.</property>
  <property name="meta.attr.0.stream.VENDOR_ID.markup">[0][0][0][0]</property>
  <property name="meta.attr.0.stream.ENCODER.markup">Lavc60.31.102 libx264</property>
  <property name="meta.attr.0.stream.DURATION.markup">00:00:47.969000000</property>
  <property name="meta.media.1.stream.type">audio</property>
  <property name="meta.media.1.codec.sample_fmt">fltp</property>
  <property name="meta.media.1.codec.sample_rate">44100</property>
  <property name="meta.media.1.codec.channels">2</property>
  <property name="meta.media.1.codec.name">vorbis</property>
  <property name="meta.media.1.codec.long_name">Vorbis</property>
  <property name="meta.media.1.codec.bit_rate">0</property>
  <property name="meta.attr.1.stream.HANDLER_NAME.markup">ISO Media file produced by Google Inc.</property>
  <property name="meta.attr.1.stream.VENDOR_ID.markup">[0][0][0][0]</property>
  <property name="meta.attr.1.stream.ENCODER.markup">Lavc60.31.102 libvorbis</property>
  <property name="meta.attr.1.stream.DURATION.markup">00:00:48.022000000</property>
  <property name="meta.media.2.codec.name">ssa</property>
  <property name="meta.media.2.codec.long_name">ASS (Advanced SubStation Alpha) subtitle</property>
  <property name="meta.media.2.codec.bit_rate">0</property>
  <property name="meta.attr.2.stream.language.markup">eng</property>
  <property name="meta.attr.2.stream.HANDLER_NAME.markup">English (United States)</property>
  <property name="meta.attr.2.stream.ENCODER.markup">Lavc60.31.102 ssa</property>
  <property name="meta.attr.2.stream.DURATION.markup">00:00:46.861000000</property>
  <property name="meta.attr.COMPATIBLE_BRANDS.markup">isomiso2avc1mp41</property>
  <property name="meta.attr.MAJOR_BRAND.markup">isom</property>
  <property name="meta.attr.MINOR_VERSION.markup">512</property>
  <property name="meta.attr.ENCODER.markup">Lavf60.16.100</property>
  <property name="meta.media.sample_aspect_num">1</property>
  <property name="meta.media.sample_aspect_den">1</property>
  <property name="meta.media.frame_rate_num">30</property>
  <property name="meta.media.frame_rate_den">1</property>
  <property name="meta.media.colorspace">601</property>
  <property name="meta.media.color_trc">1</property>
  <property name="meta.media.has_b_frames">2</property>
  <property name="meta.media.width">426</property>
  <property name="meta.media.height">240</property>
  <property name="meta.media.color_range">mpeg</property>
  <property name="meta.media.top_field_first">0</property>
  <property name="meta.media.progressive">1</property>
  <property name="set.test_audio">0</property>
  <property name="set.test_image">1</property>
 </producer>
 <producer id="producer664" in="00:00:00.000" out="00:00:07.400">
  <property name="length">445</property>
  <property name="eof">pause</property>
  <property name="resource">/home/federico/Nextcloud/Kden/EditingUT/MemeFresh/siren meme.wav</property>
  <property name="audio_index">0</property>
  <property name="video_index">-1</property>
  <property name="mute_on_pause">0</property>
  <property name="mlt_service">avformat-novalidate</property>
  <property name="meta.media.nb_streams">1</property>
  <property name="meta.media.0.stream.type">audio</property>
  <property name="meta.media.0.codec.sample_fmt">s16</property>
  <property name="meta.media.0.codec.sample_rate">48000</property>
  <property name="meta.media.0.codec.channels">2</property>
  <property name="meta.media.0.codec.name">pcm_s16le</property>
  <property name="meta.media.0.codec.long_name">PCM signed 16-bit little-endian</property>
  <property name="meta.media.0.codec.bit_rate">1536000</property>
  <property name="meta.attr.encoder.markup">Lavf59.16.100</property>
  <property name="seekable">1</property>
  <property name="kdenlive:clipname"/>
  <property name="kdenlive:clip_type">1</property>
  <property name="kdenlive:folderid">31</property>
  <property name="kdenlive:id">50</property>
  <property name="kdenlive:file_size">1424078</property>
  <property name="kdenlive:file_hash">41a488d1a9b2960398f12688a8941235</property>
  <property name="kdenlive:audio_max0">148</property>
  <property name="kdenlive:zone_in">0</property>
  <property name="kdenlive:zone_out">66</property>
  <property name="xml">was here</property>
  <property name="set.test_audio">0</property>
  <property name="set.test_image">1</property>
 </producer>
 <producer id="producer665" in="00:00:00.000" out="00:00:04.117">
  <property name="length">248</property>
  <property name="eof">pause</property>
  <property name="resource">/home/federico/Nextcloud/Kden/EditingUT/Sound/Microsoft/microsoft windows xp shutdown -.wav</property>
  <property name="audio_index">0</property>
  <property name="video_index">-1</property>
  <property name="mute_on_pause">0</property>
  <property name="mlt_service">avformat-novalidate</property>
  <property name="meta.media.nb_streams">1</property>
  <property name="meta.media.0.stream.type">audio</property>
  <property name="meta.media.0.codec.sample_fmt">s16</property>
  <property name="meta.media.0.codec.sample_rate">44100</property>
  <property name="meta.media.0.codec.channels">2</property>
  <property name="meta.media.0.codec.name">pcm_s16le</property>
  <property name="meta.media.0.codec.long_name">PCM signed 16-bit little-endian</property>
  <property name="meta.media.0.codec.bit_rate">1411200</property>
  <property name="meta.attr.encoder.markup">Lavf60.16.100</property>
  <property name="seekable">1</property>
  <property name="kdenlive:clipname"/>
  <property name="kdenlive:clip_type">1</property>
  <property name="kdenlive:folderid">323</property>
  <property name="kdenlive:id">325</property>
  <property name="kdenlive:file_size">728142</property>
  <property name="kdenlive:file_hash">6e06d9a848a96cfb2ada76fbdd95bf9e</property>
  <property name="kdenlive:audio_max0">192</property>
  <property name="xml">was here</property>
  <property name="set.test_audio">0</property>
  <property name="set.test_image">1</property>
 </producer>
 <producer id="producer649" in="00:00:00.000" out="00:00:03.100">
  <property name="length">187</property>
  <property name="eof">pause</property>
  <property name="resource">/home/federico/Nextcloud/Kden/EditingUT/Sound/Games/teleport.wav</property>
  <property name="meta.media.nb_streams">1</property>
  <property name="meta.media.0.stream.type">audio</property>
  <property name="meta.media.0.codec.sample_fmt">s16</property>
  <property name="meta.media.0.codec.sample_rate">44100</property>
  <property name="meta.media.0.codec.channels">2</property>
  <property name="meta.media.0.codec.name">pcm_s16le</property>
  <property name="meta.media.0.codec.long_name">PCM signed 16-bit little-endian</property>
  <property name="meta.media.0.codec.bit_rate">1411200</property>
  <property name="meta.attr.encoder.markup">Lavf60.16.100</property>
  <property name="seekable">1</property>
  <property name="audio_index">0</property>
  <property name="video_index">-1</property>
  <property name="mute_on_pause">0</property>
  <property name="mlt_service">avformat-novalidate</property>
  <property name="kdenlive:clipname"/>
  <property name="kdenlive:clip_type">1</property>
  <property name="kdenlive:folderid">256</property>
  <property name="kdenlive:id">289</property>
  <property name="kdenlive:file_size">548430</property>
  <property name="kdenlive:file_hash">287d35b716b820d389c3115e53ed9c26</property>
  <property name="kdenlive:audio_max0">171</property>
  <property name="xml">was here</property>
  <property name="set.test_audio">0</property>
  <property name="set.test_image">1</property>
 </producer>
 <producer id="producer666" in="00:00:00.000" out="00:00:07.617">
  <property name="length">458</property>
  <property name="eof">pause</property>
  <property name="resource">/home/federico/Nextcloud/Kden/EditingUT/Sound/Horn/dramatic inception horn.wav</property>
  <property name="audio_index">0</property>
  <property name="video_index">-1</property>
  <property name="mute_on_pause">0</property>
  <property name="mlt_service">avformat-novalidate</property>
  <property name="meta.media.nb_streams">1</property>
  <property name="meta.media.0.stream.type">audio</property>
  <property name="meta.media.0.codec.sample_fmt">s16</property>
  <property name="meta.media.0.codec.sample_rate">48000</property>
  <property name="meta.media.0.codec.channels">2</property>
  <property name="meta.media.0.codec.name">pcm_s16le</property>
  <property name="meta.media.0.codec.long_name">PCM signed 16-bit little-endian</property>
  <property name="meta.media.0.codec.bit_rate">1536000</property>
  <property name="meta.attr.encoder.markup">Lavf59.16.100</property>
  <property name="seekable">1</property>
  <property name="kdenlive:clipname"/>
  <property name="kdenlive:clip_type">1</property>
  <property name="kdenlive:folderid">303</property>
  <property name="kdenlive:id">307</property>
  <property name="kdenlive:file_size">1465678</property>
  <property name="kdenlive:file_hash">df3e63333e262c2a029f7285bd5555b3</property>
  <property name="kdenlive:audio_max0">138</property>
  <property name="xml">was here</property>
  <property name="set.test_audio">0</property>
  <property name="set.test_image">1</property>
 </producer>
 <producer id="producer667" in="00:00:00.000" out="00:00:04.367">
  <property name="length">263</property>
  <property name="eof">pause</property>
  <property name="resource">/home/federico/Nextcloud/Kden/EditingUT/Sound/BassDrop/bass impact_hit_meme.wav</property>
  <property name="audio_index">0</property>
  <property name="video_index">-1</property>
  <property name="mute_on_pause">0</property>
  <property name="mlt_service">avformat-novalidate</property>
  <property name="meta.media.nb_streams">1</property>
  <property name="meta.media.0.stream.type">audio</property>
  <property name="meta.media.0.codec.sample_fmt">s16</property>
  <property name="meta.media.0.codec.sample_rate">44100</property>
  <property name="meta.media.0.codec.channels">2</property>
  <property name="meta.media.0.codec.name">pcm_s16le</property>
  <property name="meta.media.0.codec.long_name">PCM signed 16-bit little-endian</property>
  <property name="meta.media.0.codec.bit_rate">1411200</property>
  <property name="meta.attr.encoder.markup">Lavf60.16.100</property>
  <property name="seekable">1</property>
  <property name="kdenlive:clipname"/>
  <property name="kdenlive:clip_type">1</property>
  <property name="kdenlive:folderid">158</property>
  <property name="kdenlive:id">159</property>
  <property name="kdenlive:file_size">774222</property>
  <property name="kdenlive:file_hash">d6f585a870288b3026ca87935a90d505</property>
  <property name="kdenlive:audio_max0">253</property>
  <property name="xml">was here</property>
  <property name="set.test_audio">0</property>
  <property name="set.test_image">1</property>
 </producer>
 <producer id="producer668" in="00:00:00.000" out="00:00:09.367">
  <property name="length">563</property>
  <property name="eof">pause</property>
  <property name="resource">/home/federico/Nextcloud/Kden/EditingUT/Sound/Games/dbz surprised.wav</property>
  <property name="meta.media.nb_streams">1</property>
  <property name="meta.media.0.stream.type">audio</property>
  <property name="meta.media.0.codec.sample_fmt">s16</property>
  <property name="meta.media.0.codec.sample_rate">44100</property>
  <property name="meta.media.0.codec.channels">2</property>
  <property name="meta.media.0.codec.name">pcm_s16le</property>
  <property name="meta.media.0.codec.long_name">PCM signed 16-bit little-endian</property>
  <property name="meta.media.0.codec.bit_rate">1411200</property>
  <property name="meta.attr.encoder.markup">Lavf60.16.100</property>
  <property name="seekable">1</property>
  <property name="audio_index">0</property>
  <property name="video_index">-1</property>
  <property name="mute_on_pause">0</property>
  <property name="mlt_service">avformat-novalidate</property>
  <property name="kdenlive:clipname"/>
  <property name="kdenlive:clip_type">1</property>
  <property name="kdenlive:folderid">256</property>
  <property name="kdenlive:id">260</property>
  <property name="kdenlive:file_size">1654350</property>
  <property name="kdenlive:file_hash">14609c26dd22bead3bd9c7dad6533621</property>
  <property name="kdenlive:audio_max0">185</property>
  <property name="xml">was here</property>
  <property name="set.test_audio">0</property>
  <property name="set.test_image">1</property>
 </producer>
 <producer id="producer669" in="00:00:00.000" out="00:00:03.983">
  <property name="length">240</property>
  <property name="eof">pause</property>
  <property name="resource">/home/federico/Nextcloud/Kden/EditingUT/Sound/Anime/anime wow -   to use.wav</property>
  <property name="meta.media.nb_streams">1</property>
  <property name="meta.media.0.stream.type">audio</property>
  <property name="meta.media.0.codec.sample_fmt">s16</property>
  <property name="meta.media.0.codec.sample_rate">44100</property>
  <property name="meta.media.0.codec.channels">2</property>
  <property name="meta.media.0.codec.name">pcm_s16le</property>
  <property name="meta.media.0.codec.long_name">PCM signed 16-bit little-endian</property>
  <property name="meta.media.0.codec.bit_rate">1411200</property>
  <property name="meta.attr.encoder.markup">Lavf60.16.100</property>
  <property name="seekable">1</property>
  <property name="audio_index">0</property>
  <property name="video_index">-1</property>
  <property name="mute_on_pause">0</property>
  <property name="mlt_service">avformat-novalidate</property>
  <property name="kdenlive:clipname"/>
  <property name="kdenlive:clip_type">1</property>
  <property name="kdenlive:folderid">150</property>
  <property name="kdenlive:id">153</property>
  <property name="kdenlive:file_size">705102</property>
  <property name="kdenlive:file_hash">2951b71f99b744a9134af7fefd520325</property>
  <property name="kdenlive:audio_max0">116</property>
  <property name="xml">was here</property>
  <property name="set.test_audio">0</property>
  <property name="set.test_image">1</property>
 </producer>
 <producer id="producer670" in="00:00:00.000" out="00:00:01.833">
  <property name="length">111</property>
  <property name="eof">pause</property>
  <property name="resource">/home/federico/Nextcloud/Kden/EditingUT/Sound/Punch_Hit_Stomp/dinosaur stomp  5.wav</property>
  <property name="audio_index">0</property>
  <property name="video_index">-1</property>
  <property name="mute_on_pause">0</property>
  <property name="mlt_service">avformat-novalidate</property>
  <property name="meta.media.nb_streams">1</property>
  <property name="meta.media.0.stream.type">audio</property>
  <property name="meta.media.0.codec.sample_fmt">s16</property>
  <property name="meta.media.0.codec.sample_rate">44100</property>
  <property name="meta.media.0.codec.channels">2</property>
  <property name="meta.media.0.codec.name">pcm_s16le</property>
  <property name="meta.media.0.codec.long_name">PCM signed 16-bit little-endian</property>
  <property name="meta.media.0.codec.bit_rate">1411200</property>
  <property name="meta.attr.encoder.markup">Lavf60.16.100</property>
  <property name="seekable">1</property>
  <property name="kdenlive:clipname"/>
  <property name="kdenlive:clip_type">1</property>
  <property name="kdenlive:folderid">356</property>
  <property name="kdenlive:id">362</property>
  <property name="kdenlive:file_size">327246</property>
  <property name="kdenlive:file_hash">af92e6821aa97749e48e2f4d893c1a04</property>
  <property name="kdenlive:audio_max0">221</property>
  <property name="xml">was here</property>
  <property name="set.test_audio">0</property>
  <property name="set.test_image">1</property>
 </producer>
 <producer id="producer671" in="00:00:00.000" out="02:52:36.450">
  <property name="length">621389</property>
  <property name="eof">pause</property>
  <property name="resource">/home/federico/Videos/Edit/Kden/ProxyRender/proxy/e00b59329972f7cbbe05cbe5eabe0684.mov</property>
  <property name="audio_index">1</property>
  <property name="video_index">0</property>
  <property name="mute_on_pause">0</property>
  <property name="mlt_service">avformat-novalidate</property>
  <property name="meta.media.nb_streams">2</property>
  <property name="meta.media.0.stream.type">video</property>
  <property name="meta.media.0.stream.frame_rate">60</property>
  <property name="meta.media.0.stream.sample_aspect_ratio">1</property>
  <property name="meta.media.0.codec.width">640</property>
  <property name="meta.media.0.codec.height">360</property>
  <property name="meta.media.0.codec.rotate">0</property>
  <property name="meta.media.0.codec.pix_fmt">yuv420p</property>
  <property name="meta.media.0.codec.sample_aspect_ratio">1</property>
  <property name="meta.media.0.codec.colorspace">709</property>
  <property name="meta.media.0.codec.color_trc">1</property>
  <property name="meta.media.0.codec.name">h264</property>
  <property name="meta.media.0.codec.long_name">H.264 / AVC / MPEG-4 AVC / MPEG-4 part 10</property>
  <property name="meta.media.0.codec.bit_rate">5487106</property>
  <property name="meta.attr.0.stream.language.markup">eng</property>
  <property name="meta.attr.0.stream.handler_name.markup">VideoHandler</property>
  <property name="meta.attr.0.stream.vendor_id.markup">FFMP</property>
  <property name="meta.attr.0.stream.encoder.markup">Lavc59.18.100 libx264</property>
  <property name="meta.media.1.stream.type">audio</property>
  <property name="meta.media.1.codec.sample_fmt">fltp</property>
  <property name="meta.media.1.codec.sample_rate">48000</property>
  <property name="meta.media.1.codec.channels">2</property>
  <property name="meta.media.1.codec.name">aac</property>
  <property name="meta.media.1.codec.long_name">AAC (Advanced Audio Coding)</property>
  <property name="meta.media.1.codec.bit_rate">125682</property>
  <property name="meta.attr.1.stream.language.markup">eng</property>
  <property name="meta.attr.1.stream.handler_name.markup">SoundHandler</property>
  <property name="meta.attr.1.stream.vendor_id.markup">[0][0][0][0]</property>
  <property name="meta.attr.major_brand.markup">qt  </property>
  <property name="meta.attr.minor_version.markup">512</property>
  <property name="meta.attr.compatible_brands.markup">qt  </property>
  <property name="meta.attr.encoder.markup">Lavf59.16.100</property>
  <property name="seekable">1</property>
  <property name="meta.media.sample_aspect_num">1</property>
  <property name="meta.media.sample_aspect_den">1</property>
  <property name="aspect_ratio">1</property>
  <property name="format">3</property>
  <property name="kdenlive:clipname">7 - builded - dark souls iii cinders  anima della sfida ii 7.mkv</property>
  <property name="kdenlive:clip_type">0</property>
  <property name="kdenlive:folderid">4</property>
  <property name="kdenlive:id">685</property>
  <property name="kdenlive:file_size">4980831000</property>
  <property name="kdenlive:file_hash">e00b59329972f7cbbe05cbe5eabe0684</property>
  <property name="kdenlive:proxy">/home/federico/Videos/Edit/Kden/ProxyRender/proxy/e00b59329972f7cbbe05cbe5eabe0684.mov</property>
  <property name="kdenlive:originalurl">/home/federico/Videos/Edit/Projects/DS3_cinders/5-Stream/7 - builded - dark souls iii cinders  anima della sfida ii 7.mkv</property>
  <property name="kdenlive:original.mlt_type">producer</property>
  <property name="kdenlive:original.in">00:00:00.000</property>
  <property name="kdenlive:original.out">02:52:36.467</property>
  <property name="kdenlive:original.length">621389</property>
  <property name="kdenlive:original.eof">pause</property>
  <property name="kdenlive:original.resource">/home/federico/Videos/Edit/Projects/DS3_cinders/5-Stream/7 - builded - dark souls iii cinders  anima della sfida ii 7.mkv</property>
  <property name="kdenlive:original.meta.media.nb_streams">2</property>
  <property name="kdenlive:original.meta.media.0.stream.type">video</property>
  <property name="kdenlive:original.meta.media.0.stream.frame_rate">60</property>
  <property name="kdenlive:original.meta.media.0.stream.sample_aspect_ratio">1</property>
  <property name="kdenlive:original.meta.media.0.codec.width">1920</property>
  <property name="kdenlive:original.meta.media.0.codec.height">1080</property>
  <property name="kdenlive:original.meta.media.0.codec.rotate">0</property>
  <property name="kdenlive:original.meta.media.0.codec.pix_fmt">yuv420p</property>
  <property name="kdenlive:original.meta.media.0.codec.sample_aspect_ratio">0</property>
  <property name="kdenlive:original.meta.media.0.codec.colorspace">709</property>
  <property name="kdenlive:original.meta.media.0.codec.color_trc">1</property>
  <property name="kdenlive:original.meta.media.0.codec.name">vp9</property>
  <property name="kdenlive:original.meta.media.0.codec.long_name">Google VP9</property>
  <property name="kdenlive:original.meta.media.0.codec.bit_rate">0</property>
  <property name="kdenlive:original.meta.attr.0.stream.language.markup">eng</property>
  <property name="kdenlive:original.meta.attr.0.stream.DURATION.markup">02:52:36.449000000</property>
  <property name="kdenlive:original.meta.media.1.stream.type">audio</property>
  <property name="kdenlive:original.meta.media.1.codec.sample_fmt">fltp</property>
  <property name="kdenlive:original.meta.media.1.codec.sample_rate">48000</property>
  <property name="kdenlive:original.meta.media.1.codec.channels">2</property>
  <property name="kdenlive:original.meta.media.1.codec.name">opus</property>
  <property name="kdenlive:original.meta.media.1.codec.long_name">Opus</property>
  <property name="kdenlive:original.meta.media.1.codec.bit_rate">0</property>
  <property name="kdenlive:original.meta.attr.1.stream.language.markup">eng</property>
  <property name="kdenlive:original.meta.attr.1.stream.DURATION.markup">02:52:36.488000000</property>
  <property name="kdenlive:original.meta.attr.ENCODER.markup">Lavf60.16.100</property>
  <property name="kdenlive:original.seekable">1</property>
  <property name="kdenlive:original.width">1920</property>
  <property name="kdenlive:original.height">1080</property>
  <property name="kdenlive:original.meta.media.sample_aspect_num">1</property>
  <property name="kdenlive:original.meta.media.sample_aspect_den">1</property>
  <property name="kdenlive:original.aspect_ratio">1</property>
  <property name="kdenlive:original.format">3</property>
  <property name="kdenlive:original.audio_index">1</property>
  <property name="kdenlive:original.video_index">0</property>
  <property name="kdenlive:original.mute_on_pause">0</property>
  <property name="kdenlive:original.mlt_service">avformat-novalidate</property>
  <property name="kdenlive:original.meta.media.frame_rate_num">60</property>
  <property name="kdenlive:original.meta.media.frame_rate_den">1</property>
  <property name="kdenlive:original.meta.media.colorspace">709</property>
  <property name="kdenlive:original.meta.media.color_trc">1</property>
  <property name="kdenlive:original.meta.media.has_b_frames">0</property>
  <property name="kdenlive:original.meta.media.width">1920</property>
  <property name="kdenlive:original.meta.media.height">1080</property>
  <property name="kdenlive:original.meta.media.color_range">mpeg</property>
  <property name="kdenlive:original.meta.media.top_field_first">0</property>
  <property name="kdenlive:original.meta.media.progressive">1</property>
  <property name="kdenlive:original.kdenlive:clip_type">0</property>
  <property name="kdenlive:original.kdenlive:folderid">4</property>
  <property name="kdenlive:original.kdenlive:id">685</property>
  <property name="kdenlive:original.kdenlive:file_size">4980831000</property>
  <property name="kdenlive:original.kdenlive:file_hash">e00b59329972f7cbbe05cbe5eabe0684</property>
  <property name="kdenlive:original.backup">1</property>
  <property name="kdenlive:audio_max1">204</property>
  <property name="xml">was here</property>
  <property name="meta.media.frame_rate_num">60</property>
  <property name="meta.media.frame_rate_den">1</property>
  <property name="meta.media.colorspace">709</property>
  <property name="meta.media.color_trc">1</property>
  <property name="meta.media.has_b_frames">0</property>
  <property name="meta.media.width">640</property>
  <property name="meta.media.height">360</property>
  <property name="meta.media.color_range">mpeg</property>
  <property name="meta.media.top_field_first">0</property>
  <property name="meta.media.progressive">1</property>
  <property name="set.test_audio">0</property>
  <property name="set.test_image">1</property>
 </producer>
 <producer id="producer672" in="00:00:00.000" out="00:00:06.250">
  <property name="length">376</property>
  <property name="eof">pause</property>
  <property name="resource">/home/federico/Nextcloud/Kden/EditingUT/Sound/Explosion/explode.wav</property>
  <property name="meta.media.nb_streams">1</property>
  <property name="meta.media.0.stream.type">audio</property>
  <property name="meta.media.0.codec.sample_fmt">s16</property>
  <property name="meta.media.0.codec.sample_rate">48000</property>
  <property name="meta.media.0.codec.channels">2</property>
  <property name="meta.media.0.codec.name">pcm_s16le</property>
  <property name="meta.media.0.codec.long_name">PCM signed 16-bit little-endian</property>
  <property name="meta.media.0.codec.bit_rate">1536000</property>
  <property name="meta.attr.encoder.markup">Lavf59.16.100</property>
  <property name="seekable">1</property>
  <property name="audio_index">0</property>
  <property name="video_index">-1</property>
  <property name="mute_on_pause">0</property>
  <property name="mlt_service">avformat-novalidate</property>
  <property name="kdenlive:clipname"/>
  <property name="kdenlive:clip_type">1</property>
  <property name="kdenlive:folderid">243</property>
  <property name="kdenlive:id">244</property>
  <property name="kdenlive:file_size">1203278</property>
  <property name="kdenlive:file_hash">3cbb78c56c772789479ddbc978c793aa</property>
  <property name="kdenlive:audio_max0">214</property>
  <property name="xml">was here</property>
  <property name="set.test_audio">0</property>
  <property name="set.test_image">1</property>
 </producer>
 <producer id="producer673" in="00:00:00.000" out="00:00:02.050">
  <property name="length">124</property>
  <property name="eof">pause</property>
  <property name="resource">/home/federico/Nextcloud/Kden/EditingUT/Sound/Cartoon/cartoon slip.wav</property>
  <property name="meta.media.nb_streams">1</property>
  <property name="meta.media.0.stream.type">audio</property>
  <property name="meta.media.0.codec.sample_fmt">s16</property>
  <property name="meta.media.0.codec.sample_rate">44100</property>
  <property name="meta.media.0.codec.channels">2</property>
  <property name="meta.media.0.codec.name">pcm_s16le</property>
  <property name="meta.media.0.codec.long_name">PCM signed 16-bit little-endian</property>
  <property name="meta.media.0.codec.bit_rate">1411200</property>
  <property name="meta.attr.encoder.markup">Lavf60.16.100</property>
  <property name="seekable">1</property>
  <property name="audio_index">0</property>
  <property name="video_index">-1</property>
  <property name="mute_on_pause">0</property>
  <property name="mlt_service">avformat-novalidate</property>
  <property name="kdenlive:clipname"/>
  <property name="kdenlive:clip_type">1</property>
  <property name="kdenlive:folderid">172</property>
  <property name="kdenlive:id">181</property>
  <property name="kdenlive:file_size">364110</property>
  <property name="kdenlive:file_hash">3e2d0f5081be3dec307bf8d2836e0904</property>
  <property name="kdenlive:audio_max0">208</property>
  <property name="xml">was here</property>
  <property name="set.test_audio">0</property>
  <property name="set.test_image">1</property>
 </producer>
 <producer id="producer674" in="00:00:00.000" out="00:00:02.617">
  <property name="length">158</property>
  <property name="eof">pause</property>
  <property name="resource">/home/federico/Nextcloud/Kden/EditingUT/Sound/neil degrasse tyson nyoom.wav</property>
  <property name="meta.media.nb_streams">1</property>
  <property name="meta.media.0.stream.type">audio</property>
  <property name="meta.media.0.codec.sample_fmt">s16</property>
  <property name="meta.media.0.codec.sample_rate">44100</property>
  <property name="meta.media.0.codec.channels">2</property>
  <property name="meta.media.0.codec.name">pcm_s16le</property>
  <property name="meta.media.0.codec.long_name">PCM signed 16-bit little-endian</property>
  <property name="meta.media.0.codec.bit_rate">1411200</property>
  <property name="meta.attr.encoder.markup">Lavf60.16.100</property>
  <property name="seekable">1</property>
  <property name="audio_index">0</property>
  <property name="video_index">-1</property>
  <property name="mute_on_pause">0</property>
  <property name="mlt_service">avformat-novalidate</property>
  <property name="kdenlive:clipname"/>
  <property name="kdenlive:clip_type">1</property>
  <property name="kdenlive:folderid">103</property>
  <property name="kdenlive:id">125</property>
  <property name="kdenlive:file_size">465486</property>
  <property name="kdenlive:file_hash">802101e7d3c889af8fbbf6235a1556aa</property>
  <property name="kdenlive:audio_max0">213</property>
  <property name="xml">was here</property>
  <property name="set.test_audio">0</property>
  <property name="set.test_image">1</property>
 </producer>
 <playlist id="playlist4">
  <property name="kdenlive:audio_track">1</property>
  <blank length="00:02:06.767"/>
  <entry producer="producer653" in="00:00:04.267" out="00:00:06.683">
   <property name="kdenlive:id">265</property>
   <filter id="filter10">
    <property name="window">75</property>
    <property name="max_gain">20dB</property>
    <property name="level">00:00:00.000=-8</property>
    <property name="mlt_service">volume</property>
    <property name="kdenlive_id">-8db</property>
    <property name="kdenlive:collapsed">0</property>
   </filter>
   <filter id="filter11">
    <property name="window">75</property>
    <property name="max_gain">20dB</property>
    <property name="level">00:00:00.000=-8</property>
    <property name="mlt_service">volume</property>
    <property name="kdenlive_id">-8db</property>
    <property name="kdenlive:collapsed">0</property>
   </filter>
   <filter id="filter12" in="00:00:04.267" out="00:00:04.383">
    <property name="window">75</property>
    <property name="max_gain">20dB</property>
    <property name="mlt_service">volume</property>
    <property name="kdenlive_id">fadein</property>
    <property name="gain">0</property>
    <property name="end">1</property>
   </filter>
  </entry>
  <blank length="00:01:25.517"/>
  <entry producer="producer654" in="00:00:00.000" out="00:00:00.783">
   <property name="kdenlive:id">370</property>
   <filter id="filter13" in="00:00:00.717" out="00:00:00.783">
    <property name="window">75</property>
    <property name="max_gain">20dB</property>
    <property name="mlt_service">volume</property>
    <property name="kdenlive_id">fadeout</property>
    <property name="gain">1</property>
    <property name="end">0</property>
    <property name="kdenlive:collapsed">0</property>
   </filter>
  </entry>
  <blank length="00:00:01.467"/>
  <entry producer="producer654" in="00:00:00.000" out="00:00:00.783">
   <property name="kdenlive:id">370</property>
   <filter id="filter14" in="00:00:00.717" out="00:00:00.783">
    <property name="window">75</property>
    <property name="max_gain">20dB</property>
    <property name="mlt_service">volume</property>
    <property name="kdenlive_id">fadeout</property>
    <property name="gain">1</property>
    <property name="end">0</property>
    <property name="kdenlive:collapsed">0</property>
   </filter>
  </entry>
  <blank length="00:00:00.767"/>
  <entry producer="producer654" in="00:00:00.000" out="00:00:00.783">
   <property name="kdenlive:id">370</property>
   <filter id="filter15" in="00:00:00.717" out="00:00:00.783">
    <property name="window">75</property>
    <property name="max_gain">20dB</property>
    <property name="mlt_service">volume</property>
    <property name="kdenlive_id">fadeout</property>
    <property name="gain">1</property>
    <property name="end">0</property>
    <property name="kdenlive:collapsed">0</property>
   </filter>
  </entry>
  <blank length="00:00:01.683"/>
  <entry producer="producer654" in="00:00:00.000" out="00:00:00.783">
   <property name="kdenlive:id">370</property>
   <filter id="filter16" in="00:00:00.717" out="00:00:00.783">
    <property name="window">75</property>
    <property name="max_gain">20dB</property>
    <property name="mlt_service">volume</property>
    <property name="kdenlive_id">fadeout</property>
    <property name="gain">1</property>
    <property name="end">0</property>
    <property name="kdenlive:collapsed">0</property>
   </filter>
  </entry>
  <blank length="00:00:00.367"/>
  <entry producer="producer654" in="00:00:00.000" out="00:00:00.783">
   <property name="kdenlive:id">370</property>
   <filter id="filter17" in="00:00:00.717" out="00:00:00.783">
    <property name="window">75</property>
    <property name="max_gain">20dB</property>
    <property name="mlt_service">volume</property>
    <property name="kdenlive_id">fadeout</property>
    <property name="gain">1</property>
    <property name="end">0</property>
    <property name="kdenlive:collapsed">0</property>
   </filter>
  </entry>
  <blank length="00:01:15.033"/>
  <entry producer="producer655" in="02:40:53.217" out="02:40:54.283">
   <property name="kdenlive:id">679</property>
   <filter id="filter18" in="02:40:53.217" out="02:40:54.017">
    <property name="window">75</property>
    <property name="max_gain">20dB</property>
    <property name="mlt_service">volume</property>
    <property name="kdenlive_id">fadein</property>
    <property name="gain">0</property>
    <property name="end">1</property>
    <property name="kdenlive:collapsed">0</property>
   </filter>
  </entry>
  <blank length="00:00:08.417"/>
  <entry producer="producer656" in="00:00:01.217" out="00:00:01.900">
   <property name="kdenlive:id">148</property>
   <filter id="filter19">
    <property name="window">75</property>
    <property name="max_gain">20dB</property>
    <property name="level">00:00:02.767=-5</property>
    <property name="mlt_service">volume</property>
    <property name="kdenlive_id">-5db</property>
    <property name="kdenlive:collapsed">0</property>
   </filter>
  </entry>
  <blank length="00:00:50.517"/>
  <entry producer="producer657" in="00:56:33.250" out="00:56:36.783">
   <property name="kdenlive:id">680</property>
   <filter id="filter20" in="00:56:33.250" out="00:56:34.517">
    <property name="window">75</property>
    <property name="max_gain">20dB</property>
    <property name="mlt_service">volume</property>
    <property name="kdenlive_id">fadein</property>
    <property name="gain">0</property>
    <property name="end">1</property>
    <property name="kdenlive:collapsed">0</property>
   </filter>
   <filter id="filter21">
    <property name="window">75</property>
    <property name="max_gain">20dB</property>
    <property name="level">00:00:15.367=-5</property>
    <property name="mlt_service">volume</property>
    <property name="kdenlive_id">-5db</property>
    <property name="kdenlive:collapsed">0</property>
   </filter>
  </entry>
  <blank length="00:00:02.350"/>
  <entry producer="producer658" in="00:00:01.833" out="00:00:02.667">
   <property name="kdenlive:id">375</property>
   <filter id="filter22">
    <property name="window">75</property>
    <property name="max_gain">20dB</property>
    <property name="level">00:00:00.000=-8</property>
    <property name="mlt_service">volume</property>
    <property name="kdenlive_id">-8db</property>
    <property name="kdenlive:collapsed">0</property>
   </filter>
  </entry>
  <blank length="00:03:21.417"/>
  <entry producer="producer659" in="00:00:00.000" out="00:00:01.900">
   <property name="kdenlive:id">162</property>
   <filter id="filter23" in="00:00:01.533" out="00:00:01.900">
    <property name="window">75</property>
    <property name="max_gain">20dB</property>
    <property name="mlt_service">volume</property>
    <property name="kdenlive_id">fadeout</property>
    <property name="gain">1</property>
    <property name="end">0</property>
    <property name="kdenlive:collapsed">0</property>
   </filter>
   <filter id="filter24">
    <property name="window">75</property>
    <property name="max_gain">20dB</property>
    <property name="level">00:00:00.000=-8</property>
    <property name="mlt_service">volume</property>
    <property name="kdenlive_id">-8db</property>
    <property name="kdenlive:collapsed">0</property>
   </filter>
  </entry>
  <blank length="00:00:04.833"/>
  <entry producer="producer660" in="00:00:00.317" out="00:00:00.667">
   <property name="kdenlive:id">246</property>
   <filter id="filter25">
    <property name="window">75</property>
    <property name="max_gain">20dB</property>
    <property name="level">00:00:00.000=-8</property>
    <property name="mlt_service">volume</property>
    <property name="kdenlive_id">-8db</property>
    <property name="kdenlive:collapsed">0</property>
   </filter>
   <filter id="filter26">
    <property name="window">75</property>
    <property name="max_gain">20dB</property>
    <property name="level">00:00:02.267=-5</property>
    <property name="mlt_service">volume</property>
    <property name="kdenlive_id">-5db</property>
    <property name="kdenlive:collapsed">0</property>
   </filter>
  </entry>
  <blank length="00:00:00.233"/>
  <entry producer="producer661" in="00:52:32.750" out="00:52:34.433">
   <property name="kdenlive:id">681</property>
  </entry>
  <blank length="00:00:04.350"/>
  <entry producer="producer662" in="00:00:01.850" out="00:00:04.717">
   <property name="kdenlive:id">299</property>
   <property name="kdenlive:activeeffect">0</property>
   <filter id="filter27">
    <property name="window">75</property>
    <property name="max_gain">20dB</property>
    <property name="level">00:00:00.000=-20</property>
    <property name="mlt_service">volume</property>
    <property name="kdenlive_id">-20db</property>
    <property name="kdenlive:collapsed">0</property>
   </filter>
  </entry>
  <blank length="00:03:21.250"/>
  <entry producer="producer663" in="00:00:00.000" out="00:00:02.867">
   <property name="kdenlive:id">418</property>
   <filter id="filter28">
    <property name="window">75</property>
    <property name="max_gain">20dB</property>
    <property name="level">00:00:15.367=-5</property>
    <property name="mlt_service">volume</property>
    <property name="kdenlive_id">-5db</property>
    <property name="kdenlive:collapsed">0</property>
   </filter>
  </entry>
  <blank length="00:01:16.400"/>
  <entry producer="producer664" in="00:00:00.000" out="00:00:00.833">
   <property name="kdenlive:id">50</property>
   <filter id="filter29">
    <property name="window">75</property>
    <property name="max_gain">20dB</property>
    <property name="level">00:00:00.000=-8</property>
    <property name="mlt_service">volume</property>
    <property name="kdenlive_id">-8db</property>
    <property name="kdenlive:collapsed">0</property>
   </filter>
  </entry>
  <blank length="00:00:25.267"/>
  <entry producer="producer665" in="00:00:00.000" out="00:00:02.233">
   <property name="kdenlive:id">325</property>
   <filter id="filter30">
    <property name="window">75</property>
    <property name="max_gain">20dB</property>
    <property name="level">00:00:00.000=-8</property>
    <property name="mlt_service">volume</property>
    <property name="kdenlive_id">-8db</property>
    <property name="kdenlive:collapsed">0</property>
   </filter>
   <filter id="filter31" in="00:00:01.917" out="00:00:02.233">
    <property name="window">75</property>
    <property name="max_gain">20dB</property>
    <property name="mlt_service">volume</property>
    <property name="kdenlive_id">fadeout</property>
    <property name="gain">1</property>
    <property name="end">0</property>
    <property name="kdenlive:collapsed">0</property>
   </filter>
  </entry>
  <blank length="00:00:51.317"/>
  <entry producer="producer649" in="00:00:00.000" out="00:00:03.100">
   <property name="kdenlive:id">289</property>
   <property name="kdenlive:activeeffect">0</property>
   <filter id="filter32">
    <property name="window">75</property>
    <property name="max_gain">20dB</property>
    <property name="level">00:00:03.117=-5</property>
    <property name="mlt_service">volume</property>
    <property name="kdenlive_id">-5db</property>
    <property name="kdenlive:collapsed">0</property>
   </filter>
  </entry>
  <blank length="00:01:00.317"/>
  <entry producer="producer666" in="00:00:00.117" out="00:00:02.433">
   <property name="kdenlive:id">307</property>
   <filter id="filter33" in="00:00:01.767" out="00:00:02.433">
    <property name="window">75</property>
    <property name="max_gain">20dB</property>
    <property name="mlt_service">volume</property>
    <property name="kdenlive_id">fadeout</property>
    <property name="gain">1</property>
    <property name="end">0</property>
   </filter>
  </entry>
  <blank length="00:00:29.083"/>
  <entry producer="producer667" in="00:00:00.000" out="00:00:01.500">
   <property name="kdenlive:id">159</property>
   <filter id="filter34" in="00:00:00.700" out="00:00:01.500">
    <property name="window">75</property>
    <property name="max_gain">20dB</property>
    <property name="mlt_service">volume</property>
    <property name="kdenlive_id">fadeout</property>
    <property name="gain">1</property>
    <property name="end">0</property>
    <property name="kdenlive:collapsed">0</property>
   </filter>
   <filter id="filter35">
    <property name="window">75</property>
    <property name="max_gain">20dB</property>
    <property name="level">00:00:00.000=-8</property>
    <property name="mlt_service">volume</property>
    <property name="kdenlive_id">-8db</property>
    <property name="kdenlive:collapsed">0</property>
   </filter>
  </entry>
  <blank length="00:02:11.217"/>
  <entry producer="producer668" in="00:00:00.000" out="00:00:01.833">
   <property name="kdenlive:id">260</property>
   <property name="kdenlive:activeeffect">2</property>
   <filter id="filter36" in="00:00:00.467" out="00:00:01.833">
    <property name="window">75</property>
    <property name="max_gain">20dB</property>
    <property name="mlt_service">volume</property>
    <property name="kdenlive_id">fadeout</property>
    <property name="gain">1</property>
    <property name="end">0</property>
    <property name="kdenlive:collapsed">0</property>
   </filter>
   <filter id="filter37">
    <property name="window">75</property>
    <property name="max_gain">20dB</property>
    <property name="level">00:00:00.000=-8</property>
    <property name="mlt_service">volume</property>
    <property name="kdenlive_id">-8db</property>
    <property name="kdenlive:collapsed">0</property>
   </filter>
   <filter id="filter38">
    <property name="window">75</property>
    <property name="max_gain">20dB</property>
    <property name="level">00:00:00.000=-8</property>
    <property name="mlt_service">volume</property>
    <property name="kdenlive_id">-8db</property>
    <property name="kdenlive:collapsed">0</property>
   </filter>
  </entry>
  <blank length="00:00:43.517"/>
  <entry producer="producer669" in="00:00:00.000" out="00:00:03.983">
   <property name="kdenlive:id">153</property>
   <filter id="filter39">
    <property name="window">75</property>
    <property name="max_gain">20dB</property>
    <property name="level">00:00:04.000=-5</property>
    <property name="mlt_service">volume</property>
    <property name="kdenlive_id">-5db</property>
    <property name="kdenlive:collapsed">0</property>
   </filter>
   <filter id="filter40" in="00:00:01.283" out="00:00:03.983">
    <property name="window">75</property>
    <property name="max_gain">20dB</property>
    <property name="mlt_service">volume</property>
    <property name="kdenlive_id">fadeout</property>
    <property name="gain">1</property>
    <property name="end">0</property>
   </filter>
  </entry>
  <blank length="00:00:25.317"/>
  <entry producer="producer670" in="00:00:00.000" out="00:00:00.833">
   <property name="kdenlive:id">362</property>
   <filter id="filter41">
    <property name="window">75</property>
    <property name="max_gain">20dB</property>
    <property name="level">00:00:00.000=-5;00:00:00.833=-5</property>
    <property name="mlt_service">volume</property>
    <property name="kdenlive_id">-5db</property>
    <property name="kdenlive:collapsed">0</property>
   </filter>
  </entry>
  <blank length="00:01:51.467"/>
  <entry producer="producer671" in="01:40:01.950" out="01:40:02.317">
   <property name="kdenlive:id">685</property>
  </entry>
  <blank length="00:02:19.650"/>
  <entry producer="producer672" in="00:00:00.000" out="00:00:02.533">
   <property name="kdenlive:id">244</property>
   <filter id="filter42">
    <property name="window">75</property>
    <property name="max_gain">20dB</property>
    <property name="level">00:00:00.000=-8</property>
    <property name="mlt_service">volume</property>
    <property name="kdenlive_id">-8db</property>
    <property name="kdenlive:collapsed">0</property>
   </filter>
   <filter id="filter43" in="00:00:00.550" out="00:00:02.533">
    <property name="window">75</property>
    <property name="max_gain">20dB</property>
    <property name="mlt_service">volume</property>
    <property name="kdenlive_id">fadeout</property>
    <property name="gain">1</property>
    <property name="end">0</property>
    <property name="kdenlive:collapsed">0</property>
   </filter>
  </entry>
  <blank length="00:00:09.433"/>
  <entry producer="producer673" in="00:00:00.000" out="00:00:00.900">
   <property name="kdenlive:id">181</property>
   <property name="kdenlive:activeeffect">0</property>
   <filter id="filter44">
    <property name="window">75</property>
    <property name="max_gain">20dB</property>
    <property name="level">00:00:00.000=-8</property>
    <property name="mlt_service">volume</property>
    <property name="kdenlive_id">-8db</property>
    <property name="kdenlive:collapsed">0</property>
   </filter>
  </entry>
  <blank length="00:00:21.800"/>
  <entry producer="producer674" in="00:00:00.000" out="00:00:02.617">
   <property name="kdenlive:id">125</property>
   <property name="kdenlive:activeeffect">1</property>
   <filter id="filter45">
    <property name="window">75</property>
    <property name="max_gain">20dB</property>
    <property name="level">00:00:00.000=-8</property>
    <property name="mlt_service">volume</property>
    <property name="kdenlive_id">-8db</property>
    <property name="kdenlive:collapsed">0</property>
   </filter>
   <filter id="filter46">
    <property name="window">75</property>
    <property name="max_gain">20dB</property>
    <property name="level">922=-3</property>
    <property name="mlt_service">volume</property>
    <property name="kdenlive_id">-3db</property>
    <property name="kdenlive:collapsed">0</property>
   </filter>
  </entry>
 </playlist>
 <playlist id="playlist5">
  <property name="kdenlive:audio_track">1</property>
 </playlist>
 <tractor id="tractor2" in="00:00:00.000" out="00:25:35.350">
  <property name="kdenlive:audio_track">1</property>
  <property name="kdenlive:trackheight">50</property>
  <property name="kdenlive:timeline_active">1</property>
  <property name="kdenlive:collapsed">0</property>
  <property name="kdenlive:thumbs_format"/>
  <property name="kdenlive:audio_rec"/>
  <track hide="video" producer="playlist4"/>
  <track hide="video" producer="playlist5"/>
  <filter id="filter47">
   <property name="window">75</property>
   <property name="max_gain">20dB</property>
   <property name="mlt_service">volume</property>
   <property name="internal_added">237</property>
   <property name="disable">1</property>
  </filter>
  <filter id="filter48">
   <property name="channel">-1</property>
   <property name="mlt_service">panner</property>
   <property name="internal_added">237</property>
   <property name="start">0.5</property>
   <property name="disable">1</property>
  </filter>
  <filter id="filter49">
   <property name="iec_scale">0</property>
   <property name="mlt_service">audiolevel</property>
   <property name="dbpeak">1</property>
   <property name="disable">1</property>
  </filter>
 </tractor>
 <producer id="producer675" in="00:00:00.000" out="00:00:05.700">
  <property name="length">343</property>
  <property name="eof">pause</property>
  <property name="resource">/home/federico/Nextcloud/Kden/EditingUT/MemeFresh/ds2_meme.mkv</property>
  <property name="audio_index">1</property>
  <property name="video_index">0</property>
  <property name="mute_on_pause">0</property>
  <property name="mlt_service">avformat-novalidate</property>
  <property name="seekable">1</property>
  <property name="aspect_ratio">1</property>
  <property name="format">3</property>
  <property name="kdenlive:clipname"/>
  <property name="kdenlive:clip_type">0</property>
  <property name="kdenlive:folderid">31</property>
  <property name="kdenlive:id">671</property>
  <property name="kdenlive:file_size">6041318</property>
  <property name="kdenlive:file_hash">ece530c65b9f0b7077db86be936353a3</property>
  <property name="kdenlive:audio_max1">196</property>
  <property name="xml">was here</property>
  <property name="meta.media.nb_streams">2</property>
  <property name="meta.media.0.stream.type">video</property>
  <property name="meta.media.0.stream.frame_rate">60</property>
  <property name="meta.media.0.stream.sample_aspect_ratio">1</property>
  <property name="meta.media.0.codec.width">1920</property>
  <property name="meta.media.0.codec.height">1080</property>
  <property name="meta.media.0.codec.rotate">0</property>
  <property name="meta.media.0.codec.pix_fmt">yuv420p</property>
  <property name="meta.media.0.codec.sample_aspect_ratio">1</property>
  <property name="meta.media.0.codec.colorspace">709</property>
  <property name="meta.media.0.codec.color_trc">1</property>
  <property name="meta.media.0.codec.name">h264</property>
  <property name="meta.media.0.codec.long_name">H.264 / AVC / MPEG-4 AVC / MPEG-4 part 10</property>
  <property name="meta.media.0.codec.bit_rate">0</property>
  <property name="meta.attr.0.stream.DURATION.markup">00:00:05.705000000</property>
  <property name="meta.media.1.stream.type">audio</property>
  <property name="meta.media.1.codec.sample_fmt">fltp</property>
  <property name="meta.media.1.codec.sample_rate">48000</property>
  <property name="meta.media.1.codec.channels">2</property>
  <property name="meta.media.1.codec.name">aac</property>
  <property name="meta.media.1.codec.long_name">AAC (Advanced Audio Coding)</property>
  <property name="meta.media.1.codec.bit_rate">0</property>
  <property name="meta.attr.1.stream.DURATION.markup">00:00:05.717000000</property>
  <property name="meta.attr.ENCODER.markup">Lavf59.16.100</property>
  <property name="meta.media.sample_aspect_num">1</property>
  <property name="meta.media.sample_aspect_den">1</property>
  <property name="meta.media.frame_rate_num">60</property>
  <property name="meta.media.frame_rate_den">1</property>
  <property name="meta.media.colorspace">709</property>
  <property name="meta.media.color_trc">1</property>
  <property name="meta.media.has_b_frames">0</property>
  <property name="meta.media.width">1920</property>
  <property name="meta.media.height">1080</property>
  <property name="meta.media.color_range">mpeg</property>
  <property name="meta.media.top_field_first">0</property>
  <property name="meta.media.progressive">1</property>
  <property name="set.test_audio">0</property>
  <property name="set.test_image">1</property>
 </producer>
 <producer id="producer676" in="00:00:00.000" out="00:00:10.667">
  <property name="length">641</property>
  <property name="eof">pause</property>
  <property name="resource">/home/federico/Nextcloud/Kden/EditingUT/Sound/Spongebob/spongebob_squidward walking.wav</property>
  <property name="audio_index">0</property>
  <property name="video_index">-1</property>
  <property name="mute_on_pause">0</property>
  <property name="mlt_service">avformat-novalidate</property>
  <property name="meta.media.nb_streams">1</property>
  <property name="meta.media.0.stream.type">audio</property>
  <property name="meta.media.0.codec.sample_fmt">s16</property>
  <property name="meta.media.0.codec.sample_rate">44100</property>
  <property name="meta.media.0.codec.channels">2</property>
  <property name="meta.media.0.codec.name">pcm_s16le</property>
  <property name="meta.media.0.codec.long_name">PCM signed 16-bit little-endian</property>
  <property name="meta.media.0.codec.bit_rate">1411200</property>
  <property name="meta.attr.encoder.markup">Lavf60.16.100</property>
  <property name="seekable">1</property>
  <property name="kdenlive:clipname"/>
  <property name="kdenlive:clip_type">1</property>
  <property name="kdenlive:folderid">393</property>
  <property name="kdenlive:id">395</property>
  <property name="kdenlive:file_size">1884750</property>
  <property name="kdenlive:file_hash">6eae183052d7255ac8f95cc15dc41797</property>
  <property name="kdenlive:audio_max0">114</property>
  <property name="kdenlive:zone_in">0</property>
  <property name="kdenlive:zone_out">28</property>
  <property name="xml">was here</property>
  <property name="set.test_audio">0</property>
  <property name="set.test_image">1</property>
 </producer>
 <producer id="producer677" in="00:00:00.000" out="00:00:01.383">
  <property name="length">84</property>
  <property name="eof">pause</property>
  <property name="resource">/home/federico/Nextcloud/Kden/EditingUT/Video/Spongebob/spongebob  my eyes!!!.mkv</property>
  <property name="audio_index">1</property>
  <property name="video_index">0</property>
  <property name="mute_on_pause">0</property>
  <property name="mlt_service">avformat-novalidate</property>
  <property name="seekable">1</property>
  <property name="aspect_ratio">1</property>
  <property name="format">3</property>
  <property name="kdenlive:clipname"/>
  <property name="kdenlive:clip_type">0</property>
  <property name="kdenlive:folderid">640</property>
  <property name="kdenlive:id">649</property>
  <property name="kdenlive:file_size">62411</property>
  <property name="kdenlive:file_hash">7fb3253645fab096b19412d757f51d72</property>
  <property name="kdenlive:audio_max1">113</property>
  <property name="xml">was here</property>
  <property name="meta.media.nb_streams">2</property>
  <property name="meta.media.0.stream.type">video</property>
  <property name="meta.media.0.stream.frame_rate">29.97</property>
  <property name="meta.media.0.stream.sample_aspect_ratio">0</property>
  <property name="meta.media.0.codec.width">530</property>
  <property name="meta.media.0.codec.height">360</property>
  <property name="meta.media.0.codec.rotate">0</property>
  <property name="meta.media.0.codec.pix_fmt">yuv420p</property>
  <property name="meta.media.0.codec.sample_aspect_ratio">0</property>
  <property name="meta.media.0.codec.colorspace">709</property>
  <property name="meta.media.0.codec.color_trc">1</property>
  <property name="meta.media.0.codec.name">h264</property>
  <property name="meta.media.0.codec.long_name">H.264 / AVC / MPEG-4 AVC / MPEG-4 part 10</property>
  <property name="meta.media.0.codec.bit_rate">0</property>
  <property name="meta.attr.0.stream.HANDLER_NAME.markup">ISO Media file produced by Google Inc. Created on: 06/24/2023.</property>
  <property name="meta.attr.0.stream.VENDOR_ID.markup">[0][0][0][0]</property>
  <property name="meta.attr.0.stream.ENCODER.markup">Lavc60.31.102 libx264</property>
  <property name="meta.attr.0.stream.DURATION.markup">00:00:01.337000000</property>
  <property name="meta.media.1.stream.type">audio</property>
  <property name="meta.media.1.codec.sample_fmt">fltp</property>
  <property name="meta.media.1.codec.sample_rate">44100</property>
  <property name="meta.media.1.codec.channels">2</property>
  <property name="meta.media.1.codec.name">vorbis</property>
  <property name="meta.media.1.codec.long_name">Vorbis</property>
  <property name="meta.media.1.codec.bit_rate">0</property>
  <property name="meta.attr.1.stream.HANDLER_NAME.markup">ISO Media file produced by Google Inc.</property>
  <property name="meta.attr.1.stream.VENDOR_ID.markup">[0][0][0][0]</property>
  <property name="meta.attr.1.stream.ENCODER.markup">Lavc60.31.102 libvorbis</property>
  <property name="meta.attr.1.stream.DURATION.markup">00:00:01.396000000</property>
  <property name="meta.attr.COMPATIBLE_BRANDS.markup">isomiso2mp41</property>
  <property name="meta.attr.MAJOR_BRAND.markup">isom</property>
  <property name="meta.attr.MINOR_VERSION.markup">512</property>
  <property name="meta.attr.ENCODER.markup">Lavf60.16.100</property>
  <property name="meta.media.sample_aspect_num">1</property>
  <property name="meta.media.sample_aspect_den">1</property>
  <property name="meta.media.frame_rate_num">30000</property>
  <property name="meta.media.frame_rate_den">1001</property>
  <property name="meta.media.colorspace">709</property>
  <property name="meta.media.color_trc">1</property>
  <property name="meta.media.has_b_frames">2</property>
  <property name="meta.media.width">530</property>
  <property name="meta.media.height">360</property>
  <property name="meta.media.color_range">mpeg</property>
  <property name="meta.media.top_field_first">0</property>
  <property name="meta.media.progressive">1</property>
  <property name="set.test_audio">0</property>
  <property name="set.test_image">1</property>
 </producer>
 <producer id="producer678" in="00:00:00.000" out="00:00:03.100">
  <property name="length">187</property>
  <property name="eof">pause</property>
  <property name="resource">/home/federico/Nextcloud/Kden/EditingUT/Sound/Microsoft/microsoft windows xp error -.wav</property>
  <property name="audio_index">0</property>
  <property name="video_index">-1</property>
  <property name="mute_on_pause">0</property>
  <property name="mlt_service">avformat-novalidate</property>
  <property name="meta.media.nb_streams">1</property>
  <property name="meta.media.0.stream.type">audio</property>
  <property name="meta.media.0.codec.sample_fmt">s16</property>
  <property name="meta.media.0.codec.sample_rate">44100</property>
  <property name="meta.media.0.codec.channels">2</property>
  <property name="meta.media.0.codec.name">pcm_s16le</property>
  <property name="meta.media.0.codec.long_name">PCM signed 16-bit little-endian</property>
  <property name="meta.media.0.codec.bit_rate">1411200</property>
  <property name="meta.attr.encoder.markup">Lavf60.16.100</property>
  <property name="seekable">1</property>
  <property name="kdenlive:clipname"/>
  <property name="kdenlive:clip_type">1</property>
  <property name="kdenlive:folderid">323</property>
  <property name="kdenlive:id">324</property>
  <property name="kdenlive:file_size">548430</property>
  <property name="kdenlive:file_hash">a7c4a46202bb0a724fc50589bdc03e78</property>
  <property name="kdenlive:audio_max0">200</property>
  <property name="kdenlive:zone_in">0</property>
  <property name="kdenlive:zone_out">89</property>
  <property name="xml">was here</property>
  <property name="set.test_audio">0</property>
  <property name="set.test_image">1</property>
 </producer>
 <producer id="producer679" in="00:00:00.000" out="00:00:18.250">
  <property name="length">1096</property>
  <property name="eof">pause</property>
  <property name="resource">/home/federico/Nextcloud/Kden/EditingUT/Sound/Gun_Shot/machine gun s.wav</property>
  <property name="audio_index">0</property>
  <property name="video_index">-1</property>
  <property name="mute_on_pause">0</property>
  <property name="mlt_service">avformat-novalidate</property>
  <property name="meta.media.nb_streams">1</property>
  <property name="meta.media.0.stream.type">audio</property>
  <property name="meta.media.0.codec.sample_fmt">s16</property>
  <property name="meta.media.0.codec.sample_rate">44100</property>
  <property name="meta.media.0.codec.channels">2</property>
  <property name="meta.media.0.codec.name">pcm_s16le</property>
  <property name="meta.media.0.codec.long_name">PCM signed 16-bit little-endian</property>
  <property name="meta.media.0.codec.bit_rate">1411200</property>
  <property name="meta.attr.encoder.markup">Lavf60.16.100</property>
  <property name="seekable">1</property>
  <property name="kdenlive:clipname"/>
  <property name="kdenlive:clip_type">1</property>
  <property name="kdenlive:folderid">294</property>
  <property name="kdenlive:id">299</property>
  <property name="kdenlive:file_size">3221070</property>
  <property name="kdenlive:file_hash">80ee3d6ba27c7b2deb585b5955deaaaa</property>
  <property name="kdenlive:audio_max0">249</property>
  <property name="kdenlive:zone_in">111</property>
  <property name="kdenlive:zone_out">337</property>
  <property name="xml">was here</property>
  <property name="set.test_audio">0</property>
  <property name="set.test_image">1</property>
 </producer>
 <producer id="producer680" in="00:00:00.000" out="00:00:01.767">
  <property name="length">107</property>
  <property name="eof">pause</property>
  <property name="resource">/home/federico/Videos/Edit/Projects/DS3_cinders/1-DS3_cinders_ROBBBA/attacco_salto_reve.wav</property>
  <property name="audio_index">0</property>
  <property name="video_index">-1</property>
  <property name="mute_on_pause">0</property>
  <property name="mlt_service">avformat-novalidate</property>
  <property name="meta.media.nb_streams">1</property>
  <property name="meta.media.0.stream.type">audio</property>
  <property name="meta.media.0.codec.sample_fmt">s16</property>
  <property name="meta.media.0.codec.sample_rate">48000</property>
  <property name="meta.media.0.codec.channels">2</property>
  <property name="meta.media.0.codec.name">pcm_s16le</property>
  <property name="meta.media.0.codec.long_name">PCM signed 16-bit little-endian</property>
  <property name="meta.media.0.codec.bit_rate">1536000</property>
  <property name="meta.attr.encoder.markup">Lavf59.16.100 (libsndfile-1.2.2)</property>
  <property name="seekable">1</property>
  <property name="kdenlive:clipname"/>
  <property name="kdenlive:clip_type">1</property>
  <property name="kdenlive:folderid">-1</property>
  <property name="kdenlive:id">690</property>
  <property name="kdenlive:file_size">342874</property>
  <property name="kdenlive:file_hash">45176ec73813610c8aba4d2d18307403</property>
  <property name="kdenlive:audio_max0">176</property>
  <property name="xml">was here</property>
  <property name="set.test_audio">0</property>
  <property name="set.test_image">1</property>
 </producer>
 <producer id="producer681" in="00:00:00.000" out="00:00:01.383">
  <property name="length">84</property>
  <property name="eof">pause</property>
  <property name="resource">/home/federico/Videos/Edit/Projects/DS3_cinders/1-DS3_cinders_ROBBBA/torre_aperta_reve.wav</property>
  <property name="audio_index">0</property>
  <property name="video_index">-1</property>
  <property name="mute_on_pause">0</property>
  <property name="mlt_service">avformat-novalidate</property>
  <property name="meta.media.nb_streams">1</property>
  <property name="meta.media.0.stream.type">audio</property>
  <property name="meta.media.0.codec.sample_fmt">s16</property>
  <property name="meta.media.0.codec.sample_rate">48000</property>
  <property name="meta.media.0.codec.channels">2</property>
  <property name="meta.media.0.codec.name">pcm_s16le</property>
  <property name="meta.media.0.codec.long_name">PCM signed 16-bit little-endian</property>
  <property name="meta.media.0.codec.bit_rate">1536000</property>
  <property name="meta.attr.encoder.markup">Lavf59.16.100 (libsndfile-1.2.2)</property>
  <property name="seekable">1</property>
  <property name="kdenlive:clipname"/>
  <property name="kdenlive:clip_type">1</property>
  <property name="kdenlive:folderid">-1</property>
  <property name="kdenlive:id">688</property>
  <property name="kdenlive:file_size">269758</property>
  <property name="kdenlive:file_hash">f8ed8f909bae90edc7395df232473c93</property>
  <property name="kdenlive:audio_max0">154</property>
  <property name="xml">was here</property>
  <property name="set.test_audio">0</property>
  <property name="set.test_image">1</property>
 </producer>
 <producer id="producer682" in="00:00:00.000" out="00:00:02.800">
  <property name="length">169</property>
  <property name="eof">pause</property>
  <property name="resource">/home/federico/Nextcloud/Kden/EditingUT/Sound/DarkSouls/dark souls ii - parry.wav</property>
  <property name="audio_index">0</property>
  <property name="video_index">-1</property>
  <property name="mute_on_pause">0</property>
  <property name="mlt_service">avformat-novalidate</property>
  <property name="meta.media.nb_streams">1</property>
  <property name="meta.media.0.stream.type">audio</property>
  <property name="meta.media.0.codec.sample_fmt">s16</property>
  <property name="meta.media.0.codec.sample_rate">44100</property>
  <property name="meta.media.0.codec.channels">2</property>
  <property name="meta.media.0.codec.name">pcm_s16le</property>
  <property name="meta.media.0.codec.long_name">PCM signed 16-bit little-endian</property>
  <property name="meta.media.0.codec.bit_rate">1411200</property>
  <property name="meta.attr.encoder.markup">Lavf60.16.100</property>
  <property name="seekable">1</property>
  <property name="kdenlive:clipname"/>
  <property name="kdenlive:clip_type">1</property>
  <property name="kdenlive:folderid">203</property>
  <property name="kdenlive:id">210</property>
  <property name="kdenlive:file_size">497742</property>
  <property name="kdenlive:file_hash">c3cb7f85e6743ec2b6db8f6ed1497499</property>
  <property name="kdenlive:audio_max0">174</property>
  <property name="kdenlive:zone_in">37</property>
  <property name="kdenlive:zone_out">169</property>
  <property name="xml">was here</property>
  <property name="set.test_audio">0</property>
  <property name="set.test_image">1</property>
 </producer>
 <producer id="producer683" in="00:00:00.000" out="00:00:04.117">
  <property name="length">248</property>
  <property name="eof">pause</property>
  <property name="resource">/home/federico/Nextcloud/Kden/EditingUT/MemeFresh/explosive diarrhea.wav</property>
  <property name="audio_index">0</property>
  <property name="video_index">-1</property>
  <property name="mute_on_pause">0</property>
  <property name="mlt_service">avformat-novalidate</property>
  <property name="meta.media.nb_streams">1</property>
  <property name="meta.media.0.stream.type">audio</property>
  <property name="meta.media.0.codec.sample_fmt">s16</property>
  <property name="meta.media.0.codec.sample_rate">44100</property>
  <property name="meta.media.0.codec.channels">2</property>
  <property name="meta.media.0.codec.name">pcm_s16le</property>
  <property name="meta.media.0.codec.long_name">PCM signed 16-bit little-endian</property>
  <property name="meta.media.0.codec.bit_rate">1411200</property>
  <property name="meta.attr.encoder.markup">Lavf60.16.100</property>
  <property name="seekable">1</property>
  <property name="kdenlive:clipname"/>
  <property name="kdenlive:clip_type">1</property>
  <property name="kdenlive:folderid">31</property>
  <property name="kdenlive:id">37</property>
  <property name="kdenlive:file_size">728142</property>
  <property name="kdenlive:file_hash">40bdaac5d8f544fe7599a44d2e39adc9</property>
  <property name="kdenlive:audio_max0">173</property>
  <property name="kdenlive:zone_in">108</property>
  <property name="kdenlive:zone_out">196</property>
  <property name="xml">was here</property>
  <property name="set.test_audio">0</property>
  <property name="set.test_image">1</property>
 </producer>
 <producer id="producer684" in="00:00:00.000" out="02:55:15.583">
  <property name="length">630938</property>
  <property name="eof">pause</property>
  <property name="resource">/home/federico/Videos/Edit/Kden/ProxyRender/proxy/fe0d51893463e6190634030c49539660.mov</property>
  <property name="audio_index">1</property>
  <property name="video_index">0</property>
  <property name="mute_on_pause">0</property>
  <property name="mlt_service">avformat-novalidate</property>
  <property name="meta.media.nb_streams">2</property>
  <property name="meta.media.0.stream.type">video</property>
  <property name="meta.media.0.stream.frame_rate">59.9401</property>
  <property name="meta.media.0.stream.sample_aspect_ratio">1</property>
  <property name="meta.media.0.codec.width">640</property>
  <property name="meta.media.0.codec.height">360</property>
  <property name="meta.media.0.codec.rotate">0</property>
  <property name="meta.media.0.codec.pix_fmt">yuv420p</property>
  <property name="meta.media.0.codec.sample_aspect_ratio">1</property>
  <property name="meta.media.0.codec.colorspace">709</property>
  <property name="meta.media.0.codec.color_trc">1</property>
  <property name="meta.media.0.codec.name">h264</property>
  <property name="meta.media.0.codec.long_name">H.264 / AVC / MPEG-4 AVC / MPEG-4 part 10</property>
  <property name="meta.media.0.codec.bit_rate">5355740</property>
  <property name="meta.attr.0.stream.handler_name.markup">ISO Media file produced by Google Inc.</property>
  <property name="meta.attr.0.stream.vendor_id.markup">FFMP</property>
  <property name="meta.attr.0.stream.encoder.markup">Lavc59.18.100 libx264</property>
  <property name="meta.media.1.stream.type">audio</property>
  <property name="meta.media.1.codec.sample_fmt">fltp</property>
  <property name="meta.media.1.codec.sample_rate">48000</property>
  <property name="meta.media.1.codec.channels">2</property>
  <property name="meta.media.1.codec.name">aac</property>
  <property name="meta.media.1.codec.long_name">AAC (Advanced Audio Coding)</property>
  <property name="meta.media.1.codec.bit_rate">128722</property>
  <property name="meta.attr.1.stream.language.markup">eng</property>
  <property name="meta.attr.1.stream.handler_name.markup">SoundHandler</property>
  <property name="meta.attr.1.stream.vendor_id.markup">[0][0][0][0]</property>
  <property name="meta.attr.major_brand.markup">qt  </property>
  <property name="meta.attr.minor_version.markup">512</property>
  <property name="meta.attr.compatible_brands.markup">qt  </property>
  <property name="meta.attr.encoder.markup">Lavf59.16.100</property>
  <property name="seekable">1</property>
  <property name="meta.media.sample_aspect_num">1</property>
  <property name="meta.media.sample_aspect_den">1</property>
  <property name="aspect_ratio">1</property>
  <property name="format">3</property>
  <property name="kdenlive:clipname">1 - iudex hit - dark souls iii cinders  anima della sfida ii 1.mkv</property>
  <property name="kdenlive:clip_type">0</property>
  <property name="kdenlive:folderid">4</property>
  <property name="kdenlive:id">679</property>
  <property name="kdenlive:file_size">2828126290</property>
  <property name="kdenlive:file_hash">fe0d51893463e6190634030c49539660</property>
  <property name="kdenlive:audio_max1">212</property>
  <property name="kdenlive:proxy">/home/federico/Videos/Edit/Kden/ProxyRender/proxy/fe0d51893463e6190634030c49539660.mov</property>
  <property name="kdenlive:originalurl">/home/federico/Videos/Edit/Projects/DS3_cinders/5-Stream/1 - iudex hit - dark souls iii cinders  anima della sfida ii 1.mkv</property>
  <property name="kdenlive:original.mlt_type">producer</property>
  <property name="kdenlive:original.in">00:00:00.000</property>
  <property name="kdenlive:original.out">02:55:15.617</property>
  <property name="kdenlive:original.length">630938</property>
  <property name="kdenlive:original.eof">pause</property>
  <property name="kdenlive:original.resource">/home/federico/Videos/Edit/Projects/DS3_cinders/5-Stream/1 - iudex hit - dark souls iii cinders  anima della sfida ii 1.mkv</property>
  <property name="kdenlive:original.meta.media.nb_streams">2</property>
  <property name="kdenlive:original.meta.media.0.stream.type">video</property>
  <property name="kdenlive:original.meta.media.0.stream.frame_rate">59.9401</property>
  <property name="kdenlive:original.meta.media.0.stream.sample_aspect_ratio">0</property>
  <property name="kdenlive:original.meta.media.0.codec.width">1920</property>
  <property name="kdenlive:original.meta.media.0.codec.height">1080</property>
  <property name="kdenlive:original.meta.media.0.codec.rotate">0</property>
  <property name="kdenlive:original.meta.media.0.codec.pix_fmt">yuv420p</property>
  <property name="kdenlive:original.meta.media.0.codec.sample_aspect_ratio">0</property>
  <property name="kdenlive:original.meta.media.0.codec.colorspace">709</property>
  <property name="kdenlive:original.meta.media.0.codec.color_trc">1</property>
  <property name="kdenlive:original.meta.media.0.codec.name">libdav1d</property>
  <property name="kdenlive:original.meta.media.0.codec.long_name">dav1d AV1 decoder by VideoLAN</property>
  <property name="kdenlive:original.meta.media.0.codec.bit_rate">0</property>
  <property name="kdenlive:original.meta.attr.0.stream.HANDLER_NAME.markup">ISO Media file produced by Google Inc.</property>
  <property name="kdenlive:original.meta.attr.0.stream.VENDOR_ID.markup">[0][0][0][0]</property>
  <property name="kdenlive:original.meta.attr.0.stream.DURATION.markup">02:55:15.589000000</property>
  <property name="kdenlive:original.meta.media.1.stream.type">audio</property>
  <property name="kdenlive:original.meta.media.1.codec.sample_fmt">fltp</property>
  <property name="kdenlive:original.meta.media.1.codec.sample_rate">48000</property>
  <property name="kdenlive:original.meta.media.1.codec.channels">2</property>
  <property name="kdenlive:original.meta.media.1.codec.name">opus</property>
  <property name="kdenlive:original.meta.media.1.codec.long_name">Opus</property>
  <property name="kdenlive:original.meta.media.1.codec.bit_rate">0</property>
  <property name="kdenlive:original.meta.attr.1.stream.language.markup">eng</property>
  <property name="kdenlive:original.meta.attr.1.stream.DURATION.markup">02:55:15.628000000</property>
  <property name="kdenlive:original.meta.attr.COMPATIBLE_BRANDS.markup">iso6av01mp41</property>
  <property name="kdenlive:original.meta.attr.MAJOR_BRAND.markup">dash</property>
  <property name="kdenlive:original.meta.attr.MINOR_VERSION.markup">0</property>
  <property name="kdenlive:original.meta.attr.ENCODER.markup">Lavf60.16.100</property>
  <property name="kdenlive:original.seekable">1</property>
  <property name="kdenlive:original.width">1920</property>
  <property name="kdenlive:original.height">1080</property>
  <property name="kdenlive:original.meta.media.sample_aspect_num">1</property>
  <property name="kdenlive:original.meta.media.sample_aspect_den">1</property>
  <property name="kdenlive:original.aspect_ratio">1</property>
  <property name="kdenlive:original.format">3</property>
  <property name="kdenlive:original.audio_index">1</property>
  <property name="kdenlive:original.video_index">0</property>
  <property name="kdenlive:original.mute_on_pause">0</property>
  <property name="kdenlive:original.mlt_service">avformat-novalidate</property>
  <property name="kdenlive:original.meta.media.frame_rate_num">60000</property>
  <property name="kdenlive:original.meta.media.frame_rate_den">1001</property>
  <property name="kdenlive:original.meta.media.colorspace">709</property>
  <property name="kdenlive:original.meta.media.color_trc">1</property>
  <property name="kdenlive:original.meta.media.has_b_frames">0</property>
  <property name="kdenlive:original.meta.media.width">1920</property>
  <property name="kdenlive:original.meta.media.height">1080</property>
  <property name="kdenlive:original.meta.media.color_range">mpeg</property>
  <property name="kdenlive:original.meta.media.top_field_first">0</property>
  <property name="kdenlive:original.meta.media.progressive">1</property>
  <property name="kdenlive:original.kdenlive:clip_type">0</property>
  <property name="kdenlive:original.kdenlive:folderid">4</property>
  <property name="kdenlive:original.kdenlive:id">679</property>
  <property name="kdenlive:original.kdenlive:file_size">2828126290</property>
  <property name="kdenlive:original.kdenlive:file_hash">fe0d51893463e6190634030c49539660</property>
  <property name="kdenlive:original.kdenlive:audio_max1">212</property>
  <property name="kdenlive:original.backup">1</property>
  <property name="xml">was here</property>
  <property name="meta.media.frame_rate_num">19001</property>
  <property name="meta.media.frame_rate_den">317</property>
  <property name="meta.media.colorspace">709</property>
  <property name="meta.media.color_trc">1</property>
  <property name="meta.media.has_b_frames">0</property>
  <property name="meta.media.width">640</property>
  <property name="meta.media.height">360</property>
  <property name="meta.media.color_range">mpeg</property>
  <property name="meta.media.top_field_first">0</property>
  <property name="meta.media.progressive">1</property>
  <property name="set.test_audio">0</property>
  <property name="set.test_image">1</property>
 </producer>
 <producer id="producer685" in="00:00:00.000" out="00:00:00.950">
  <property name="length">58</property>
  <property name="eof">pause</property>
  <property name="resource">/home/federico/Nextcloud/Kden/EditingUT/MemeFresh/slap.wav</property>
  <property name="audio_index">0</property>
  <property name="video_index">-1</property>
  <property name="mute_on_pause">0</property>
  <property name="mlt_service">avformat-novalidate</property>
  <property name="meta.media.nb_streams">1</property>
  <property name="meta.media.0.stream.type">audio</property>
  <property name="meta.media.0.codec.sample_fmt">s16</property>
  <property name="meta.media.0.codec.sample_rate">48000</property>
  <property name="meta.media.0.codec.channels">2</property>
  <property name="meta.media.0.codec.name">pcm_s16le</property>
  <property name="meta.media.0.codec.long_name">PCM signed 16-bit little-endian</property>
  <property name="meta.media.0.codec.bit_rate">1536000</property>
  <property name="meta.attr.encoder.markup">Lavf59.16.100</property>
  <property name="seekable">1</property>
  <property name="kdenlive:clipname"/>
  <property name="kdenlive:clip_type">1</property>
  <property name="kdenlive:folderid">31</property>
  <property name="kdenlive:id">51</property>
  <property name="kdenlive:file_size">185678</property>
  <property name="kdenlive:file_hash">40a136ca4432692234991dba0020f97e</property>
  <property name="kdenlive:audio_max0">195</property>
  <property name="xml">was here</property>
  <property name="set.test_audio">0</property>
  <property name="set.test_image">1</property>
 </producer>
 <producer id="producer686" in="00:00:00.000" out="00:00:04.117">
  <property name="length">248</property>
  <property name="eof">pause</property>
  <property name="resource">/home/federico/Nextcloud/Kden/EditingUT/MemeFresh/metal pipe falling_reverb.wav</property>
  <property name="audio_index">0</property>
  <property name="video_index">-1</property>
  <property name="mute_on_pause">0</property>
  <property name="mlt_service">avformat-novalidate</property>
  <property name="meta.media.nb_streams">1</property>
  <property name="meta.media.0.stream.type">audio</property>
  <property name="meta.media.0.codec.sample_fmt">s16</property>
  <property name="meta.media.0.codec.sample_rate">48000</property>
  <property name="meta.media.0.codec.channels">2</property>
  <property name="meta.media.0.codec.name">pcm_s16le</property>
  <property name="meta.media.0.codec.long_name">PCM signed 16-bit little-endian</property>
  <property name="meta.media.0.codec.bit_rate">1536000</property>
  <property name="meta.attr.encoder.markup">Lavf60.16.100 (libsndfile-1.2.0)</property>
  <property name="seekable">1</property>
  <property name="kdenlive:clipname"/>
  <property name="kdenlive:clip_type">1</property>
  <property name="kdenlive:folderid">31</property>
  <property name="kdenlive:id">48</property>
  <property name="kdenlive:file_size">792614</property>
  <property name="kdenlive:file_hash">ec44bb3eed431a650bf9411ae275755b</property>
  <property name="kdenlive:audio_max0">168</property>
  <property name="kdenlive:zone_in">0</property>
  <property name="kdenlive:zone_out">30</property>
  <property name="xml">was here</property>
  <property name="set.test_audio">0</property>
  <property name="set.test_image">1</property>
 </producer>
 <producer id="producer687" in="00:00:00.000" out="00:00:05.100">
  <property name="length">307</property>
  <property name="eof">pause</property>
  <property name="resource">/home/federico/Nextcloud/Kden/EditingUT/Sound/in nomine patris et filli et spiritus sancti.wav</property>
  <property name="audio_index">0</property>
  <property name="video_index">-1</property>
  <property name="mute_on_pause">0</property>
  <property name="mlt_service">avformat-novalidate</property>
  <property name="meta.media.nb_streams">1</property>
  <property name="meta.media.0.stream.type">audio</property>
  <property name="meta.media.0.codec.sample_fmt">s16</property>
  <property name="meta.media.0.codec.sample_rate">48000</property>
  <property name="meta.media.0.codec.channels">2</property>
  <property name="meta.media.0.codec.name">pcm_s16le</property>
  <property name="meta.media.0.codec.long_name">PCM signed 16-bit little-endian</property>
  <property name="meta.media.0.codec.bit_rate">1536000</property>
  <property name="meta.attr.artist.markup">Random Videos 139</property>
  <property name="meta.attr.comment.markup">https://www.youtube.com/watch?v=gDLnAjvcJgA</property>
  <property name="meta.attr.date.markup">2022</property>
  <property name="meta.attr.title.markup">In Nomine Patris Et Filli Et Spiritus Sancti Sound Effect</property>
  <property name="meta.attr.encoder.markup">Lavf60.16.100</property>
  <property name="seekable">1</property>
  <property name="kdenlive:clipname"/>
  <property name="kdenlive:clip_type">1</property>
  <property name="kdenlive:folderid">103</property>
  <property name="kdenlive:id">121</property>
  <property name="kdenlive:file_size">981048</property>
  <property name="kdenlive:file_hash">37c845b50c70f3635288a2eb3fdbaa50</property>
  <property name="kdenlive:audio_max0">205</property>
  <property name="kdenlive:zone_in">0</property>
  <property name="kdenlive:zone_out">68</property>
  <property name="xml">was here</property>
  <property name="set.test_audio">0</property>
  <property name="set.test_image">1</property>
 </producer>
 <producer id="producer688" in="00:00:00.000" out="00:00:02.000">
  <property name="length">121</property>
  <property name="eof">pause</property>
  <property name="resource">/home/federico/Nextcloud/Kden/EditingUT/Sound/glass shatter .wav</property>
  <property name="audio_index">0</property>
  <property name="video_index">-1</property>
  <property name="mute_on_pause">0</property>
  <property name="mlt_service">avformat-novalidate</property>
  <property name="meta.media.nb_streams">1</property>
  <property name="meta.media.0.stream.type">audio</property>
  <property name="meta.media.0.codec.sample_fmt">s16</property>
  <property name="meta.media.0.codec.sample_rate">44100</property>
  <property name="meta.media.0.codec.channels">2</property>
  <property name="meta.media.0.codec.name">pcm_s16le</property>
  <property name="meta.media.0.codec.long_name">PCM signed 16-bit little-endian</property>
  <property name="meta.media.0.codec.bit_rate">1411200</property>
  <property name="meta.attr.encoder.markup">Lavf60.16.100</property>
  <property name="seekable">1</property>
  <property name="kdenlive:clipname"/>
  <property name="kdenlive:clip_type">1</property>
  <property name="kdenlive:folderid">103</property>
  <property name="kdenlive:id">119</property>
  <property name="kdenlive:file_size">354894</property>
  <property name="kdenlive:file_hash">5bc83e1d5af04f6b387196368c06b55d</property>
  <property name="kdenlive:audio_max0">208</property>
  <property name="xml">was here</property>
  <property name="set.test_audio">0</property>
  <property name="set.test_image">1</property>
 </producer>
 <producer id="producer689" in="00:00:00.000" out="02:50:28.900">
  <property name="length">613736</property>
  <property name="eof">pause</property>
  <property name="resource">/home/federico/Videos/Edit/Kden/ProxyRender/proxy/f6918f2d79882f9391f2f765ac219be5.mov</property>
  <property name="audio_index">1</property>
  <property name="video_index">0</property>
  <property name="mute_on_pause">0</property>
  <property name="mlt_service">avformat-novalidate</property>
  <property name="meta.media.nb_streams">2</property>
  <property name="meta.media.0.stream.type">video</property>
  <property name="meta.media.0.stream.frame_rate">60</property>
  <property name="meta.media.0.stream.sample_aspect_ratio">1</property>
  <property name="meta.media.0.codec.width">640</property>
  <property name="meta.media.0.codec.height">360</property>
  <property name="meta.media.0.codec.rotate">0</property>
  <property name="meta.media.0.codec.pix_fmt">yuv420p</property>
  <property name="meta.media.0.codec.sample_aspect_ratio">1</property>
  <property name="meta.media.0.codec.colorspace">709</property>
  <property name="meta.media.0.codec.color_trc">1</property>
  <property name="meta.media.0.codec.name">h264</property>
  <property name="meta.media.0.codec.long_name">H.264 / AVC / MPEG-4 AVC / MPEG-4 part 10</property>
  <property name="meta.media.0.codec.bit_rate">5791824</property>
  <property name="meta.attr.0.stream.handler_name.markup">ISO Media file produced by Google Inc.</property>
  <property name="meta.attr.0.stream.vendor_id.markup">FFMP</property>
  <property name="meta.attr.0.stream.encoder.markup">Lavc59.18.100 libx264</property>
  <property name="meta.media.1.stream.type">audio</property>
  <property name="meta.media.1.codec.sample_fmt">fltp</property>
  <property name="meta.media.1.codec.sample_rate">48000</property>
  <property name="meta.media.1.codec.channels">2</property>
  <property name="meta.media.1.codec.name">aac</property>
  <property name="meta.media.1.codec.long_name">AAC (Advanced Audio Coding)</property>
  <property name="meta.media.1.codec.bit_rate">128878</property>
  <property name="meta.attr.1.stream.language.markup">eng</property>
  <property name="meta.attr.1.stream.handler_name.markup">SoundHandler</property>
  <property name="meta.attr.1.stream.vendor_id.markup">[0][0][0][0]</property>
  <property name="meta.attr.major_brand.markup">qt  </property>
  <property name="meta.attr.minor_version.markup">512</property>
  <property name="meta.attr.compatible_brands.markup">qt  </property>
  <property name="meta.attr.encoder.markup">Lavf59.16.100</property>
  <property name="seekable">1</property>
  <property name="meta.media.sample_aspect_num">1</property>
  <property name="meta.media.sample_aspect_den">1</property>
  <property name="aspect_ratio">1</property>
  <property name="format">3</property>
  <property name="kdenlive:clipname">2 - mod of chaos - dark souls iii cinders  anima della sfida ii 2.mkv</property>
  <property name="kdenlive:clip_type">0</property>
  <property name="kdenlive:folderid">4</property>
  <property name="kdenlive:id">680</property>
  <property name="kdenlive:file_size">3761357757</property>
  <property name="kdenlive:file_hash">f6918f2d79882f9391f2f765ac219be5</property>
  <property name="kdenlive:proxy">/home/federico/Videos/Edit/Kden/ProxyRender/proxy/f6918f2d79882f9391f2f765ac219be5.mov</property>
  <property name="kdenlive:originalurl">/home/federico/Videos/Edit/Projects/DS3_cinders/5-Stream/2 - mod of chaos - dark souls iii cinders  anima della sfida ii 2.mkv</property>
  <property name="kdenlive:original.mlt_type">producer</property>
  <property name="kdenlive:original.in">00:00:00.000</property>
  <property name="kdenlive:original.out">02:50:28.917</property>
  <property name="kdenlive:original.length">613736</property>
  <property name="kdenlive:original.eof">pause</property>
  <property name="kdenlive:original.resource">/home/federico/Videos/Edit/Projects/DS3_cinders/5-Stream/2 - mod of chaos - dark souls iii cinders  anima della sfida ii 2.mkv</property>
  <property name="kdenlive:original.meta.media.nb_streams">2</property>
  <property name="kdenlive:original.meta.media.0.stream.type">video</property>
  <property name="kdenlive:original.meta.media.0.stream.frame_rate">60</property>
  <property name="kdenlive:original.meta.media.0.stream.sample_aspect_ratio">0</property>
  <property name="kdenlive:original.meta.media.0.codec.width">1920</property>
  <property name="kdenlive:original.meta.media.0.codec.height">1080</property>
  <property name="kdenlive:original.meta.media.0.codec.rotate">0</property>
  <property name="kdenlive:original.meta.media.0.codec.pix_fmt">yuv420p</property>
  <property name="kdenlive:original.meta.media.0.codec.sample_aspect_ratio">0</property>
  <property name="kdenlive:original.meta.media.0.codec.colorspace">709</property>
  <property name="kdenlive:original.meta.media.0.codec.color_trc">1</property>
  <property name="kdenlive:original.meta.media.0.codec.name">libdav1d</property>
  <property name="kdenlive:original.meta.media.0.codec.long_name">dav1d AV1 decoder by VideoLAN</property>
  <property name="kdenlive:original.meta.media.0.codec.bit_rate">0</property>
  <property name="kdenlive:original.meta.attr.0.stream.HANDLER_NAME.markup">ISO Media file produced by Google Inc.</property>
  <property name="kdenlive:original.meta.attr.0.stream.VENDOR_ID.markup">[0][0][0][0]</property>
  <property name="kdenlive:original.meta.attr.0.stream.DURATION.markup">02:50:28.900000000</property>
  <property name="kdenlive:original.meta.media.1.stream.type">audio</property>
  <property name="kdenlive:original.meta.media.1.codec.sample_fmt">fltp</property>
  <property name="kdenlive:original.meta.media.1.codec.sample_rate">48000</property>
  <property name="kdenlive:original.meta.media.1.codec.channels">2</property>
  <property name="kdenlive:original.meta.media.1.codec.name">opus</property>
  <property name="kdenlive:original.meta.media.1.codec.long_name">Opus</property>
  <property name="kdenlive:original.meta.media.1.codec.bit_rate">0</property>
  <property name="kdenlive:original.meta.attr.1.stream.language.markup">eng</property>
  <property name="kdenlive:original.meta.attr.1.stream.DURATION.markup">02:50:28.928000000</property>
  <property name="kdenlive:original.meta.attr.COMPATIBLE_BRANDS.markup">iso6av01mp41</property>
  <property name="kdenlive:original.meta.attr.MAJOR_BRAND.markup">dash</property>
  <property name="kdenlive:original.meta.attr.MINOR_VERSION.markup">0</property>
  <property name="kdenlive:original.meta.attr.ENCODER.markup">Lavf60.16.100</property>
  <property name="kdenlive:original.seekable">1</property>
  <property name="kdenlive:original.width">1920</property>
  <property name="kdenlive:original.height">1080</property>
  <property name="kdenlive:original.meta.media.sample_aspect_num">1</property>
  <property name="kdenlive:original.meta.media.sample_aspect_den">1</property>
  <property name="kdenlive:original.aspect_ratio">1</property>
  <property name="kdenlive:original.format">3</property>
  <property name="kdenlive:original.audio_index">1</property>
  <property name="kdenlive:original.video_index">0</property>
  <property name="kdenlive:original.mute_on_pause">0</property>
  <property name="kdenlive:original.mlt_service">avformat-novalidate</property>
  <property name="kdenlive:original.meta.media.frame_rate_num">60</property>
  <property name="kdenlive:original.meta.media.frame_rate_den">1</property>
  <property name="kdenlive:original.meta.media.colorspace">709</property>
  <property name="kdenlive:original.meta.media.color_trc">1</property>
  <property name="kdenlive:original.meta.media.has_b_frames">0</property>
  <property name="kdenlive:original.meta.media.width">1920</property>
  <property name="kdenlive:original.meta.media.height">1080</property>
  <property name="kdenlive:original.meta.media.color_range">mpeg</property>
  <property name="kdenlive:original.meta.media.top_field_first">0</property>
  <property name="kdenlive:original.meta.media.progressive">1</property>
  <property name="kdenlive:original.kdenlive:clip_type">0</property>
  <property name="kdenlive:original.kdenlive:folderid">4</property>
  <property name="kdenlive:original.kdenlive:id">680</property>
  <property name="kdenlive:original.kdenlive:file_size">3761357757</property>
  <property name="kdenlive:original.kdenlive:file_hash">f6918f2d79882f9391f2f765ac219be5</property>
  <property name="kdenlive:original.backup">1</property>
  <property name="kdenlive:audio_max1">206</property>
  <property name="xml">was here</property>
  <property name="meta.media.frame_rate_num">60</property>
  <property name="meta.media.frame_rate_den">1</property>
  <property name="meta.media.colorspace">709</property>
  <property name="meta.media.color_trc">1</property>
  <property name="meta.media.has_b_frames">0</property>
  <property name="meta.media.width">640</property>
  <property name="meta.media.height">360</property>
  <property name="meta.media.color_range">mpeg</property>
  <property name="meta.media.top_field_first">0</property>
  <property name="meta.media.progressive">1</property>
  <property name="set.test_audio">0</property>
  <property name="set.test_image">1</property>
 </producer>
 <producer id="producer690" in="00:00:00.000" out="00:00:03.117">
  <property name="length">188</property>
  <property name="eof">pause</property>
  <property name="resource">/home/federico/Nextcloud/Kden/EditingUT/MemeFresh/vine boom.wav</property>
  <property name="audio_index">0</property>
  <property name="video_index">-1</property>
  <property name="mute_on_pause">0</property>
  <property name="mlt_service">avformat-novalidate</property>
  <property name="meta.media.nb_streams">1</property>
  <property name="meta.media.0.stream.type">audio</property>
  <property name="meta.media.0.codec.sample_fmt">s16</property>
  <property name="meta.media.0.codec.sample_rate">44100</property>
  <property name="meta.media.0.codec.channels">2</property>
  <property name="meta.media.0.codec.name">pcm_s16le</property>
  <property name="meta.media.0.codec.long_name">PCM signed 16-bit little-endian</property>
  <property name="meta.media.0.codec.bit_rate">1411200</property>
  <property name="meta.attr.encoder.markup">Lavf60.16.100</property>
  <property name="seekable">1</property>
  <property name="kdenlive:clipname"/>
  <property name="kdenlive:clip_type">1</property>
  <property name="kdenlive:folderid">31</property>
  <property name="kdenlive:id">55</property>
  <property name="kdenlive:file_size">553038</property>
  <property name="kdenlive:file_hash">ba2b5fa54af603ecc7dd45ec7b28486a</property>
  <property name="kdenlive:audio_max0">250</property>
  <property name="kdenlive:zone_in">0</property>
  <property name="kdenlive:zone_out">28</property>
  <property name="xml">was here</property>
  <property name="set.test_audio">0</property>
  <property name="set.test_image">1</property>
 </producer>
 <producer id="producer691" in="00:00:00.000" out="00:00:05.783">
  <property name="length">348</property>
  <property name="eof">pause</property>
  <property name="resource">/home/federico/Nextcloud/Kden/EditingUT/MemeFresh/among us impostor.wav</property>
  <property name="audio_index">0</property>
  <property name="video_index">-1</property>
  <property name="mute_on_pause">0</property>
  <property name="mlt_service">avformat-novalidate</property>
  <property name="meta.media.nb_streams">1</property>
  <property name="meta.media.0.stream.type">audio</property>
  <property name="meta.media.0.codec.sample_fmt">s16</property>
  <property name="meta.media.0.codec.sample_rate">44100</property>
  <property name="meta.media.0.codec.channels">2</property>
  <property name="meta.media.0.codec.name">pcm_s16le</property>
  <property name="meta.media.0.codec.long_name">PCM signed 16-bit little-endian</property>
  <property name="meta.media.0.codec.bit_rate">1411200</property>
  <property name="meta.attr.encoder.markup">Lavf60.16.100</property>
  <property name="seekable">1</property>
  <property name="kdenlive:clipname"/>
  <property name="kdenlive:clip_type">1</property>
  <property name="kdenlive:folderid">31</property>
  <property name="kdenlive:id">32</property>
  <property name="kdenlive:file_size">1023054</property>
  <property name="kdenlive:file_hash">06c0b60c9b67bc14e081eab46d43f608</property>
  <property name="kdenlive:audio_max0">198</property>
  <property name="kdenlive:zone_in">0</property>
  <property name="kdenlive:zone_out">96</property>
  <property name="xml">was here</property>
  <property name="set.test_audio">0</property>
  <property name="set.test_image">1</property>
 </producer>
 <producer id="producer692" in="00:00:00.000" out="00:00:03.200">
  <property name="length">193</property>
  <property name="eof">pause</property>
  <property name="resource">/home/federico/Nextcloud/Kden/EditingUT/MemeFresh/metal pipe falling.wav</property>
  <property name="audio_index">0</property>
  <property name="video_index">-1</property>
  <property name="mute_on_pause">0</property>
  <property name="mlt_service">avformat-novalidate</property>
  <property name="meta.media.nb_streams">1</property>
  <property name="meta.media.0.stream.type">audio</property>
  <property name="meta.media.0.codec.sample_fmt">s16</property>
  <property name="meta.media.0.codec.sample_rate">48000</property>
  <property name="meta.media.0.codec.channels">2</property>
  <property name="meta.media.0.codec.name">pcm_s16le</property>
  <property name="meta.media.0.codec.long_name">PCM signed 16-bit little-endian</property>
  <property name="meta.media.0.codec.bit_rate">1536000</property>
  <property name="meta.attr.encoder.markup">Lavf60.16.100</property>
  <property name="seekable">1</property>
  <property name="kdenlive:clipname"/>
  <property name="kdenlive:clip_type">1</property>
  <property name="kdenlive:folderid">31</property>
  <property name="kdenlive:id">47</property>
  <property name="kdenlive:file_size">617550</property>
  <property name="kdenlive:file_hash">3c52f29b9870f386be0d1029694a62fb</property>
  <property name="kdenlive:audio_max0">168</property>
  <property name="xml">was here</property>
  <property name="set.test_audio">0</property>
  <property name="set.test_image">1</property>
 </producer>
 <producer id="producer693" in="00:00:00.000" out="00:00:02.983">
  <property name="length">180</property>
  <property name="eof">pause</property>
  <property name="resource">/home/federico/Nextcloud/Kden/EditingUT/Sound/Suspense/sudden suspense.wav</property>
  <property name="audio_index">0</property>
  <property name="video_index">-1</property>
  <property name="mute_on_pause">0</property>
  <property name="mlt_service">avformat-novalidate</property>
  <property name="meta.media.nb_streams">1</property>
  <property name="meta.media.0.stream.type">audio</property>
  <property name="meta.media.0.codec.sample_fmt">s16</property>
  <property name="meta.media.0.codec.sample_rate">44100</property>
  <property name="meta.media.0.codec.channels">2</property>
  <property name="meta.media.0.codec.name">pcm_s16le</property>
  <property name="meta.media.0.codec.long_name">PCM signed 16-bit little-endian</property>
  <property name="meta.media.0.codec.bit_rate">1411200</property>
  <property name="meta.attr.encoder.markup">Lavf60.16.100</property>
  <property name="seekable">1</property>
  <property name="kdenlive:clipname"/>
  <property name="kdenlive:clip_type">1</property>
  <property name="kdenlive:folderid">397</property>
  <property name="kdenlive:id">398</property>
  <property name="kdenlive:file_size">529998</property>
  <property name="kdenlive:file_hash">4b0e42cc6ed7884e23eb445c2c2749e7</property>
  <property name="kdenlive:audio_max0">209</property>
  <property name="xml">was here</property>
  <property name="set.test_audio">0</property>
  <property name="set.test_image">1</property>
 </producer>
 <producer id="producer694" in="00:00:00.000" out="00:00:01.517">
  <property name="length">92</property>
  <property name="eof">pause</property>
  <property name="resource">/home/federico/Nextcloud/Kden/EditingUT/censor.wav</property>
  <property name="audio_index">0</property>
  <property name="video_index">-1</property>
  <property name="mute_on_pause">0</property>
  <property name="mlt_service">avformat-novalidate</property>
  <property name="meta.media.nb_streams">1</property>
  <property name="meta.media.0.stream.type">audio</property>
  <property name="meta.media.0.codec.sample_fmt">s16</property>
  <property name="meta.media.0.codec.sample_rate">48000</property>
  <property name="meta.media.0.codec.channels">2</property>
  <property name="meta.media.0.codec.name">pcm_s16le</property>
  <property name="meta.media.0.codec.long_name">PCM signed 16-bit little-endian</property>
  <property name="meta.media.0.codec.bit_rate">1536000</property>
  <property name="meta.attr.encoder.markup">Lavf60.16.100</property>
  <property name="seekable">1</property>
  <property name="kdenlive:clipname"/>
  <property name="kdenlive:clip_type">1</property>
  <property name="kdenlive:folderid">5</property>
  <property name="kdenlive:id">6</property>
  <property name="kdenlive:file_size">294990</property>
  <property name="kdenlive:file_hash">11768959a659614d952e74d271daca7a</property>
  <property name="kdenlive:audio_max0">147</property>
  <property name="xml">was here</property>
  <property name="set.test_audio">0</property>
  <property name="set.test_image">1</property>
 </producer>
 <producer id="producer695" in="00:00:00.000" out="00:00:01.883">
  <property name="length">114</property>
  <property name="eof">pause</property>
  <property name="resource">/home/federico/Nextcloud/Kden/EditingUT/MemeFresh/bonk.wav</property>
  <property name="audio_index">0</property>
  <property name="video_index">-1</property>
  <property name="mute_on_pause">0</property>
  <property name="mlt_service">avformat-novalidate</property>
  <property name="meta.media.nb_streams">1</property>
  <property name="meta.media.0.stream.type">audio</property>
  <property name="meta.media.0.codec.sample_fmt">s16</property>
  <property name="meta.media.0.codec.sample_rate">44100</property>
  <property name="meta.media.0.codec.channels">2</property>
  <property name="meta.media.0.codec.name">pcm_s16le</property>
  <property name="meta.media.0.codec.long_name">PCM signed 16-bit little-endian</property>
  <property name="meta.media.0.codec.bit_rate">1411200</property>
  <property name="meta.attr.encoder.markup">Lavf60.16.100</property>
  <property name="seekable">1</property>
  <property name="kdenlive:clipname"/>
  <property name="kdenlive:clip_type">1</property>
  <property name="kdenlive:folderid">31</property>
  <property name="kdenlive:id">35</property>
  <property name="kdenlive:file_size">336462</property>
  <property name="kdenlive:file_hash">336b3f3af1e146f3f6a53566f05127ea</property>
  <property name="kdenlive:audio_max0">181</property>
  <property name="xml">was here</property>
  <property name="set.test_audio">0</property>
  <property name="set.test_image">1</property>
 </producer>
 <producer id="producer696" in="00:00:00.000" out="00:00:00.733">
  <property name="length">45</property>
  <property name="eof">pause</property>
  <property name="resource">/home/federico/Nextcloud/Kden/EditingUT/Sound/Home Alone Hello.wav</property>
  <property name="audio_index">0</property>
  <property name="video_index">-1</property>
  <property name="mute_on_pause">0</property>
  <property name="mlt_service">avformat-novalidate</property>
  <property name="meta.media.nb_streams">1</property>
  <property name="meta.media.0.stream.type">audio</property>
  <property name="meta.media.0.codec.sample_fmt">s16</property>
  <property name="meta.media.0.codec.sample_rate">48000</property>
  <property name="meta.media.0.codec.channels">2</property>
  <property name="meta.media.0.codec.name">pcm_s16le</property>
  <property name="meta.media.0.codec.long_name">PCM signed 16-bit little-endian</property>
  <property name="meta.media.0.codec.bit_rate">1536000</property>
  <property name="meta.attr.encoder.markup">Lavf61.7.100</property>
  <property name="seekable">1</property>
  <property name="kdenlive:clipname"/>
  <property name="kdenlive:clip_type">1</property>
  <property name="kdenlive:folderid">103</property>
  <property name="kdenlive:id">120</property>
  <property name="kdenlive:file_size">144078</property>
  <property name="kdenlive:file_hash">c62ca56e5bac6542a10ff1979ff32eee</property>
  <property name="kdenlive:audio_max0">206</property>
  <property name="xml">was here</property>
  <property name="set.test_audio">0</property>
  <property name="set.test_image">1</property>
 </producer>
 <producer id="producer697" in="00:00:00.000" out="00:00:00.667">
  <property name="length">41</property>
  <property name="eof">pause</property>
  <property name="resource">/home/federico/Nextcloud/Kden/EditingUT/Sound/Punch_Hit_Stomp/metal hit.wav</property>
  <property name="audio_index">0</property>
  <property name="video_index">-1</property>
  <property name="mute_on_pause">0</property>
  <property name="mlt_service">avformat-novalidate</property>
  <property name="meta.media.nb_streams">1</property>
  <property name="meta.media.0.stream.type">audio</property>
  <property name="meta.media.0.codec.sample_fmt">s16</property>
  <property name="meta.media.0.codec.sample_rate">44100</property>
  <property name="meta.media.0.codec.channels">2</property>
  <property name="meta.media.0.codec.name">pcm_s16le</property>
  <property name="meta.media.0.codec.long_name">PCM signed 16-bit little-endian</property>
  <property name="meta.media.0.codec.bit_rate">1411200</property>
  <property name="meta.attr.encoder.markup">Lavf60.16.100</property>
  <property name="seekable">1</property>
  <property name="kdenlive:clipname"/>
  <property name="kdenlive:clip_type">1</property>
  <property name="kdenlive:folderid">356</property>
  <property name="kdenlive:id">367</property>
  <property name="kdenlive:file_size">119886</property>
  <property name="kdenlive:file_hash">1a7befc09473b2c55b4092fca3086bfb</property>
  <property name="kdenlive:audio_max0">189</property>
  <property name="xml">was here</property>
  <property name="set.test_audio">0</property>
  <property name="set.test_image">1</property>
 </producer>
 <producer id="producer698" in="00:00:00.000" out="00:00:03.100">
  <property name="length">187</property>
  <property name="eof">pause</property>
  <property name="resource">/home/federico/Nextcloud/Kden/EditingUT/Sound/Punch_Hit_Stomp/pan hit_1.wav</property>
  <property name="audio_index">0</property>
  <property name="video_index">-1</property>
  <property name="mute_on_pause">0</property>
  <property name="mlt_service">avformat-novalidate</property>
  <property name="meta.media.nb_streams">1</property>
  <property name="meta.media.0.stream.type">audio</property>
  <property name="meta.media.0.codec.sample_fmt">s16</property>
  <property name="meta.media.0.codec.sample_rate">44100</property>
  <property name="meta.media.0.codec.channels">2</property>
  <property name="meta.media.0.codec.name">pcm_s16le</property>
  <property name="meta.media.0.codec.long_name">PCM signed 16-bit little-endian</property>
  <property name="meta.media.0.codec.bit_rate">1411200</property>
  <property name="meta.attr.encoder.markup">Lavf60.16.100</property>
  <property name="seekable">1</property>
  <property name="kdenlive:clipname"/>
  <property name="kdenlive:clip_type">1</property>
  <property name="kdenlive:folderid">356</property>
  <property name="kdenlive:id">368</property>
  <property name="kdenlive:file_size">548430</property>
  <property name="kdenlive:file_hash">79375cb469a973f61383d39fd84835b5</property>
  <property name="kdenlive:audio_max0">213</property>
  <property name="xml">was here</property>
  <property name="set.test_audio">0</property>
  <property name="set.test_image">1</property>
 </producer>
 <producer id="producer699" in="00:00:00.000" out="00:00:10.383">
  <property name="length">624</property>
  <property name="eof">pause</property>
  <property name="resource">/home/federico/Nextcloud/Kden/EditingUT/MemeFresh/pokemon wall bump.wav</property>
  <property name="audio_index">0</property>
  <property name="video_index">-1</property>
  <property name="mute_on_pause">0</property>
  <property name="mlt_service">avformat-novalidate</property>
  <property name="meta.media.nb_streams">1</property>
  <property name="meta.media.0.stream.type">audio</property>
  <property name="meta.media.0.codec.sample_fmt">s16</property>
  <property name="meta.media.0.codec.sample_rate">48000</property>
  <property name="meta.media.0.codec.channels">2</property>
  <property name="meta.media.0.codec.name">pcm_s16le</property>
  <property name="meta.media.0.codec.long_name">PCM signed 16-bit little-endian</property>
  <property name="meta.media.0.codec.bit_rate">1536000</property>
  <property name="meta.attr.artist.markup">Azure</property>
  <property name="meta.attr.comment.markup">https://www.youtube.com/watch?v=nMFFIwv7F_s</property>
  <property name="meta.attr.date.markup">2017</property>
  <property name="meta.attr.title.markup">Pokemon Wall Bump Sound Effect</property>
  <property name="meta.attr.encoder.markup">Lavf60.16.100</property>
  <property name="seekable">1</property>
  <property name="kdenlive:clipname"/>
  <property name="kdenlive:clip_type">1</property>
  <property name="kdenlive:folderid">31</property>
  <property name="kdenlive:id">49</property>
  <property name="kdenlive:file_size">1997486</property>
  <property name="kdenlive:file_hash">c7a7c904152bb1b3606ab1a13d44c06d</property>
  <property name="kdenlive:audio_max0">146</property>
  <property name="xml">was here</property>
  <property name="set.test_audio">0</property>
  <property name="set.test_image">1</property>
 </producer>
 <producer id="producer700" in="00:00:00.000" out="00:00:16.133">
  <property name="length">969</property>
  <property name="eof">pause</property>
  <property name="resource">/home/federico/Nextcloud/Kden/EditingUT/Music/Meme/spider-man 3 meme.wav</property>
  <property name="audio_index">0</property>
  <property name="video_index">-1</property>
  <property name="mute_on_pause">0</property>
  <property name="mlt_service">avformat-novalidate</property>
  <property name="meta.media.nb_streams">1</property>
  <property name="meta.media.0.stream.type">audio</property>
  <property name="meta.media.0.codec.sample_fmt">s16</property>
  <property name="meta.media.0.codec.sample_rate">44100</property>
  <property name="meta.media.0.codec.channels">2</property>
  <property name="meta.media.0.codec.name">pcm_s16le</property>
  <property name="meta.media.0.codec.long_name">PCM signed 16-bit little-endian</property>
  <property name="meta.media.0.codec.bit_rate">1411200</property>
  <property name="meta.attr.encoder.markup">Lavf60.16.100</property>
  <property name="seekable">1</property>
  <property name="kdenlive:clipname"/>
  <property name="kdenlive:clip_type">1</property>
  <property name="kdenlive:folderid">68</property>
  <property name="kdenlive:id">85</property>
  <property name="kdenlive:file_size">2847822</property>
  <property name="kdenlive:file_hash">dcfda784a68816aa69fd9806c2c201ce</property>
  <property name="kdenlive:audio_max0">225</property>
  <property name="kdenlive:zone_in">40</property>
  <property name="kdenlive:zone_out">152</property>
  <property name="xml">was here</property>
  <property name="set.test_audio">0</property>
  <property name="set.test_image">1</property>
 </producer>
 <producer id="producer701" in="00:00:00.000" out="00:00:03.100">
  <property name="length">187</property>
  <property name="eof">pause</property>
  <property name="resource">/home/federico/Nextcloud/Kden/EditingUT/Sound/discord disconnect -.wav</property>
  <property name="audio_index">0</property>
  <property name="video_index">-1</property>
  <property name="mute_on_pause">0</property>
  <property name="mlt_service">avformat-novalidate</property>
  <property name="meta.media.nb_streams">1</property>
  <property name="meta.media.0.stream.type">audio</property>
  <property name="meta.media.0.codec.sample_fmt">s16</property>
  <property name="meta.media.0.codec.sample_rate">44100</property>
  <property name="meta.media.0.codec.channels">2</property>
  <property name="meta.media.0.codec.name">pcm_s16le</property>
  <property name="meta.media.0.codec.long_name">PCM signed 16-bit little-endian</property>
  <property name="meta.media.0.codec.bit_rate">1411200</property>
  <property name="meta.attr.encoder.markup">Lavf60.16.100</property>
  <property name="seekable">1</property>
  <property name="kdenlive:clipname"/>
  <property name="kdenlive:clip_type">1</property>
  <property name="kdenlive:folderid">103</property>
  <property name="kdenlive:id">112</property>
  <property name="kdenlive:file_size">548430</property>
  <property name="kdenlive:file_hash">0632e251aceb32b7224e76bb46ae1cd9</property>
  <property name="kdenlive:audio_max0">226</property>
  <property name="xml">was here</property>
  <property name="set.test_audio">0</property>
  <property name="set.test_image">1</property>
 </producer>
 <producer id="producer702" in="00:00:00.000" out="00:00:01.083">
  <property name="length">66</property>
  <property name="eof">pause</property>
  <property name="resource">/home/federico/Nextcloud/Kden/EditingUT/Sound/Mario/super mario power up.wav</property>
  <property name="audio_index">0</property>
  <property name="video_index">-1</property>
  <property name="mute_on_pause">0</property>
  <property name="mlt_service">avformat-novalidate</property>
  <property name="meta.media.nb_streams">1</property>
  <property name="meta.media.0.stream.type">audio</property>
  <property name="meta.media.0.codec.sample_fmt">s16</property>
  <property name="meta.media.0.codec.sample_rate">44100</property>
  <property name="meta.media.0.codec.channels">2</property>
  <property name="meta.media.0.codec.name">pcm_s16le</property>
  <property name="meta.media.0.codec.long_name">PCM signed 16-bit little-endian</property>
  <property name="meta.media.0.codec.bit_rate">1411200</property>
  <property name="meta.attr.encoder.markup">Lavf60.16.100</property>
  <property name="seekable">1</property>
  <property name="kdenlive:clipname"/>
  <property name="kdenlive:clip_type">1</property>
  <property name="kdenlive:folderid">312</property>
  <property name="kdenlive:id">321</property>
  <property name="kdenlive:file_size">193614</property>
  <property name="kdenlive:file_hash">37e2a44ca80bfc0871387d7e339a7d31</property>
  <property name="kdenlive:audio_max0">150</property>
  <property name="xml">was here</property>
  <property name="set.test_audio">0</property>
  <property name="set.test_image">1</property>
 </producer>
 <producer id="producer703" in="00:00:00.000" out="00:00:01.767">
  <property name="length">107</property>
  <property name="eof">pause</property>
  <property name="resource">/home/federico/Nextcloud/Kden/EditingUT/Sound/Mario/mario coin  -.wav</property>
  <property name="audio_index">0</property>
  <property name="video_index">-1</property>
  <property name="mute_on_pause">0</property>
  <property name="mlt_service">avformat-novalidate</property>
  <property name="meta.media.nb_streams">1</property>
  <property name="meta.media.0.stream.type">audio</property>
  <property name="meta.media.0.codec.sample_fmt">s16</property>
  <property name="meta.media.0.codec.sample_rate">44100</property>
  <property name="meta.media.0.codec.channels">2</property>
  <property name="meta.media.0.codec.name">pcm_s16le</property>
  <property name="meta.media.0.codec.long_name">PCM signed 16-bit little-endian</property>
  <property name="meta.media.0.codec.bit_rate">1411200</property>
  <property name="meta.attr.encoder.markup">Lavf60.16.100</property>
  <property name="seekable">1</property>
  <property name="kdenlive:clipname"/>
  <property name="kdenlive:clip_type">1</property>
  <property name="kdenlive:folderid">312</property>
  <property name="kdenlive:id">315</property>
  <property name="kdenlive:file_size">313422</property>
  <property name="kdenlive:file_hash">7bb40fb6516f822c2c04758ea9dabb6b</property>
  <property name="kdenlive:audio_max0">238</property>
  <property name="xml">was here</property>
  <property name="set.test_audio">0</property>
  <property name="set.test_image">1</property>
 </producer>
 <producer id="producer704" in="00:00:00.000" out="00:00:02.017">
  <property name="length">122</property>
  <property name="eof">pause</property>
  <property name="resource">/home/federico/Nextcloud/Kden/EditingUT/Sound/Punch_Hit_Stomp/anime smash punch.wav</property>
  <property name="audio_index">0</property>
  <property name="video_index">-1</property>
  <property name="mute_on_pause">0</property>
  <property name="mlt_service">avformat-novalidate</property>
  <property name="meta.media.nb_streams">1</property>
  <property name="meta.media.0.stream.type">audio</property>
  <property name="meta.media.0.codec.sample_fmt">s16</property>
  <property name="meta.media.0.codec.sample_rate">44100</property>
  <property name="meta.media.0.codec.channels">2</property>
  <property name="meta.media.0.codec.name">pcm_s16le</property>
  <property name="meta.media.0.codec.long_name">PCM signed 16-bit little-endian</property>
  <property name="meta.media.0.codec.bit_rate">1411200</property>
  <property name="meta.attr.encoder.markup">Lavf60.16.100</property>
  <property name="seekable">1</property>
  <property name="kdenlive:clipname"/>
  <property name="kdenlive:clip_type">1</property>
  <property name="kdenlive:folderid">356</property>
  <property name="kdenlive:id">357</property>
  <property name="kdenlive:file_size">359502</property>
  <property name="kdenlive:file_hash">dff3d8190194d2dd252fe9a745d5105a</property>
  <property name="kdenlive:audio_max0">192</property>
  <property name="xml">was here</property>
  <property name="set.test_audio">0</property>
  <property name="set.test_image">1</property>
 </producer>
 <producer id="producer705" in="00:00:00.000" out="00:00:03.100">
  <property name="length">187</property>
  <property name="eof">pause</property>
  <property name="resource">/home/federico/Nextcloud/Kden/EditingUT/Sound/Games/teleport.wav</property>
  <property name="audio_index">0</property>
  <property name="video_index">-1</property>
  <property name="mute_on_pause">0</property>
  <property name="mlt_service">avformat-novalidate</property>
  <property name="meta.media.nb_streams">1</property>
  <property name="meta.media.0.stream.type">audio</property>
  <property name="meta.media.0.codec.sample_fmt">s16</property>
  <property name="meta.media.0.codec.sample_rate">44100</property>
  <property name="meta.media.0.codec.channels">2</property>
  <property name="meta.media.0.codec.name">pcm_s16le</property>
  <property name="meta.media.0.codec.long_name">PCM signed 16-bit little-endian</property>
  <property name="meta.media.0.codec.bit_rate">1411200</property>
  <property name="meta.attr.encoder.markup">Lavf60.16.100</property>
  <property name="seekable">1</property>
  <property name="kdenlive:clipname"/>
  <property name="kdenlive:clip_type">1</property>
  <property name="kdenlive:folderid">256</property>
  <property name="kdenlive:id">289</property>
  <property name="kdenlive:file_size">548430</property>
  <property name="kdenlive:file_hash">287d35b716b820d389c3115e53ed9c26</property>
  <property name="kdenlive:audio_max0">171</property>
  <property name="xml">was here</property>
  <property name="set.test_audio">0</property>
  <property name="set.test_image">1</property>
 </producer>
 <producer id="producer706" in="00:00:00.000" out="00:00:06.250">
  <property name="length">376</property>
  <property name="eof">pause</property>
  <property name="resource">/home/federico/Nextcloud/Kden/EditingUT/Sound/Explosion/explode.wav</property>
  <property name="audio_index">0</property>
  <property name="video_index">-1</property>
  <property name="mute_on_pause">0</property>
  <property name="mlt_service">avformat-novalidate</property>
  <property name="meta.media.nb_streams">1</property>
  <property name="meta.media.0.stream.type">audio</property>
  <property name="meta.media.0.codec.sample_fmt">s16</property>
  <property name="meta.media.0.codec.sample_rate">48000</property>
  <property name="meta.media.0.codec.channels">2</property>
  <property name="meta.media.0.codec.name">pcm_s16le</property>
  <property name="meta.media.0.codec.long_name">PCM signed 16-bit little-endian</property>
  <property name="meta.media.0.codec.bit_rate">1536000</property>
  <property name="meta.attr.encoder.markup">Lavf59.16.100</property>
  <property name="seekable">1</property>
  <property name="kdenlive:clipname"/>
  <property name="kdenlive:clip_type">1</property>
  <property name="kdenlive:folderid">243</property>
  <property name="kdenlive:id">244</property>
  <property name="kdenlive:file_size">1203278</property>
  <property name="kdenlive:file_hash">3cbb78c56c772789479ddbc978c793aa</property>
  <property name="kdenlive:audio_max0">214</property>
  <property name="xml">was here</property>
  <property name="set.test_audio">0</property>
  <property name="set.test_image">1</property>
 </producer>
 <producer id="producer707" in="00:00:00.000" out="00:00:02.567">
  <property name="length">155</property>
  <property name="eof">pause</property>
  <property name="resource">/home/federico/Nextcloud/Kden/EditingUT/Sound/Punch_Hit_Stomp/punch  2.wav</property>
  <property name="audio_index">0</property>
  <property name="video_index">-1</property>
  <property name="mute_on_pause">0</property>
  <property name="mlt_service">avformat-novalidate</property>
  <property name="meta.media.nb_streams">1</property>
  <property name="meta.media.0.stream.type">audio</property>
  <property name="meta.media.0.codec.sample_fmt">s16</property>
  <property name="meta.media.0.codec.sample_rate">44100</property>
  <property name="meta.media.0.codec.channels">2</property>
  <property name="meta.media.0.codec.name">pcm_s16le</property>
  <property name="meta.media.0.codec.long_name">PCM signed 16-bit little-endian</property>
  <property name="meta.media.0.codec.bit_rate">1411200</property>
  <property name="meta.attr.encoder.markup">Lavf60.16.100</property>
  <property name="seekable">1</property>
  <property name="kdenlive:clipname"/>
  <property name="kdenlive:clip_type">1</property>
  <property name="kdenlive:folderid">356</property>
  <property name="kdenlive:id">371</property>
  <property name="kdenlive:file_size">456270</property>
  <property name="kdenlive:file_hash">19d187032d5673e9e61e7409d65b8297</property>
  <property name="kdenlive:audio_max0">213</property>
  <property name="xml">was here</property>
  <property name="set.test_audio">0</property>
  <property name="set.test_image">1</property>
 </producer>
 <producer id="producer708" in="00:00:00.000" out="00:00:03.800">
  <property name="length">229</property>
  <property name="eof">pause</property>
  <property name="resource">/home/federico/Nextcloud/Kden/EditingUT/Sound/BassDrop/bass_thum_meme.wav</property>
  <property name="audio_index">0</property>
  <property name="video_index">-1</property>
  <property name="mute_on_pause">0</property>
  <property name="mlt_service">avformat-novalidate</property>
  <property name="meta.media.nb_streams">1</property>
  <property name="meta.media.0.stream.type">audio</property>
  <property name="meta.media.0.codec.sample_fmt">s16</property>
  <property name="meta.media.0.codec.sample_rate">48000</property>
  <property name="meta.media.0.codec.channels">2</property>
  <property name="meta.media.0.codec.name">pcm_s16le</property>
  <property name="meta.media.0.codec.long_name">PCM signed 16-bit little-endian</property>
  <property name="meta.media.0.codec.bit_rate">1536000</property>
  <property name="meta.attr.encoder.markup">Lavf60.16.100</property>
  <property name="seekable">1</property>
  <property name="kdenlive:clipname"/>
  <property name="kdenlive:clip_type">1</property>
  <property name="kdenlive:folderid">158</property>
  <property name="kdenlive:id">160</property>
  <property name="kdenlive:file_size">732750</property>
  <property name="kdenlive:file_hash">f5ef787f2d10d0ee7f62941fe8f5fcb6</property>
  <property name="kdenlive:audio_max0">174</property>
  <property name="xml">was here</property>
  <property name="set.test_audio">0</property>
  <property name="set.test_image">1</property>
 </producer>
 <producer id="producer709" in="00:00:00.000" out="00:00:01.867">
  <property name="length">113</property>
  <property name="eof">pause</property>
  <property name="resource">/home/federico/Nextcloud/Kden/EditingUT/MemeFresh/taco_bell_death.wav</property>
  <property name="audio_index">0</property>
  <property name="video_index">-1</property>
  <property name="mute_on_pause">0</property>
  <property name="mlt_service">avformat-novalidate</property>
  <property name="meta.media.nb_streams">1</property>
  <property name="meta.media.0.stream.type">audio</property>
  <property name="meta.media.0.codec.sample_fmt">s16</property>
  <property name="meta.media.0.codec.sample_rate">48000</property>
  <property name="meta.media.0.codec.channels">2</property>
  <property name="meta.media.0.codec.name">pcm_s16le</property>
  <property name="meta.media.0.codec.long_name">PCM signed 16-bit little-endian</property>
  <property name="meta.media.0.codec.bit_rate">1536000</property>
  <property name="meta.attr.encoder.markup">Lavf61.7.100</property>
  <property name="seekable">1</property>
  <property name="kdenlive:clipname"/>
  <property name="kdenlive:clip_type">1</property>
  <property name="kdenlive:folderid">31</property>
  <property name="kdenlive:id">53</property>
  <property name="kdenlive:file_size">361678</property>
  <property name="kdenlive:file_hash">580c1a00c35fff60953328ea291f8e71</property>
  <property name="kdenlive:audio_max0">188</property>
  <property name="xml">was here</property>
  <property name="set.test_audio">0</property>
  <property name="set.test_image">1</property>
 </producer>
 <producer id="producer710" in="00:00:00.000" out="00:00:10.017">
  <property name="length">602</property>
  <property name="eof">pause</property>
  <property name="resource">/home/federico/Nextcloud/Kden/EditingUT/MemeFresh/guy snoring.wav</property>
  <property name="audio_index">0</property>
  <property name="video_index">-1</property>
  <property name="mute_on_pause">0</property>
  <property name="mlt_service">avformat-novalidate</property>
  <property name="meta.media.nb_streams">1</property>
  <property name="meta.media.0.stream.type">audio</property>
  <property name="meta.media.0.codec.sample_fmt">s16</property>
  <property name="meta.media.0.codec.sample_rate">44100</property>
  <property name="meta.media.0.codec.channels">2</property>
  <property name="meta.media.0.codec.name">pcm_s16le</property>
  <property name="meta.media.0.codec.long_name">PCM signed 16-bit little-endian</property>
  <property name="meta.media.0.codec.bit_rate">1411200</property>
  <property name="meta.attr.encoder.markup">Lavf60.16.100</property>
  <property name="seekable">1</property>
  <property name="kdenlive:clipname"/>
  <property name="kdenlive:clip_type">1</property>
  <property name="kdenlive:folderid">31</property>
  <property name="kdenlive:id">41</property>
  <property name="kdenlive:file_size">1769550</property>
  <property name="kdenlive:file_hash">014bbb81133a672835baf8cb812d5929</property>
  <property name="kdenlive:audio_max0">188</property>
  <property name="kdenlive:zone_in">0</property>
  <property name="kdenlive:zone_out">53</property>
  <property name="xml">was here</property>
  <property name="set.test_audio">0</property>
  <property name="set.test_image">1</property>
 </producer>
 <producer id="producer711" in="00:00:00.000" out="02:11:32.800">
  <property name="length">473570</property>
  <property name="eof">pause</property>
  <property name="resource">/home/federico/Videos/Edit/Kden/ProxyRender/proxy/e297f2e0f7ae15f1f6c3e6c7a3b137c7.mov</property>
  <property name="audio_index">1</property>
  <property name="video_index">0</property>
  <property name="mute_on_pause">0</property>
  <property name="mlt_service">avformat-novalidate</property>
  <property name="meta.media.nb_streams">2</property>
  <property name="meta.media.0.stream.type">video</property>
  <property name="meta.media.0.stream.frame_rate">59.9401</property>
  <property name="meta.media.0.stream.sample_aspect_ratio">1</property>
  <property name="meta.media.0.codec.width">640</property>
  <property name="meta.media.0.codec.height">360</property>
  <property name="meta.media.0.codec.rotate">0</property>
  <property name="meta.media.0.codec.pix_fmt">yuv420p</property>
  <property name="meta.media.0.codec.sample_aspect_ratio">1</property>
  <property name="meta.media.0.codec.colorspace">709</property>
  <property name="meta.media.0.codec.color_trc">1</property>
  <property name="meta.media.0.codec.name">h264</property>
  <property name="meta.media.0.codec.long_name">H.264 / AVC / MPEG-4 AVC / MPEG-4 part 10</property>
  <property name="meta.media.0.codec.bit_rate">5565045</property>
  <property name="meta.attr.0.stream.handler_name.markup">ISO Media file produced by Google Inc.</property>
  <property name="meta.attr.0.stream.vendor_id.markup">FFMP</property>
  <property name="meta.attr.0.stream.encoder.markup">Lavc59.18.100 libx264</property>
  <property name="meta.media.1.stream.type">audio</property>
  <property name="meta.media.1.codec.sample_fmt">fltp</property>
  <property name="meta.media.1.codec.sample_rate">48000</property>
  <property name="meta.media.1.codec.channels">2</property>
  <property name="meta.media.1.codec.name">aac</property>
  <property name="meta.media.1.codec.long_name">AAC (Advanced Audio Coding)</property>
  <property name="meta.media.1.codec.bit_rate">128838</property>
  <property name="meta.attr.1.stream.language.markup">eng</property>
  <property name="meta.attr.1.stream.handler_name.markup">SoundHandler</property>
  <property name="meta.attr.1.stream.vendor_id.markup">[0][0][0][0]</property>
  <property name="meta.attr.major_brand.markup">qt  </property>
  <property name="meta.attr.minor_version.markup">512</property>
  <property name="meta.attr.compatible_brands.markup">qt  </property>
  <property name="meta.attr.encoder.markup">Lavf59.16.100</property>
  <property name="seekable">1</property>
  <property name="meta.media.sample_aspect_num">1</property>
  <property name="meta.media.sample_aspect_den">1</property>
  <property name="aspect_ratio">1</property>
  <property name="format">3</property>
  <property name="kdenlive:clipname">3 - dark souls iii cinders  anima della sfida ii 3.mkv</property>
  <property name="kdenlive:clip_type">0</property>
  <property name="kdenlive:folderid">4</property>
  <property name="kdenlive:id">681</property>
  <property name="kdenlive:file_size">3370680153</property>
  <property name="kdenlive:file_hash">e297f2e0f7ae15f1f6c3e6c7a3b137c7</property>
  <property name="kdenlive:proxy">/home/federico/Videos/Edit/Kden/ProxyRender/proxy/e297f2e0f7ae15f1f6c3e6c7a3b137c7.mov</property>
  <property name="kdenlive:originalurl">/home/federico/Videos/Edit/Projects/DS3_cinders/5-Stream/3 - dark souls iii cinders  anima della sfida ii 3.mkv</property>
  <property name="kdenlive:original.mlt_type">producer</property>
  <property name="kdenlive:original.in">00:00:00.000</property>
  <property name="kdenlive:original.out">02:11:32.817</property>
  <property name="kdenlive:original.length">473570</property>
  <property name="kdenlive:original.eof">pause</property>
  <property name="kdenlive:original.resource">/home/federico/Videos/Edit/Projects/DS3_cinders/5-Stream/3 - dark souls iii cinders  anima della sfida ii 3.mkv</property>
  <property name="kdenlive:original.meta.media.nb_streams">2</property>
  <property name="kdenlive:original.meta.media.0.stream.type">video</property>
  <property name="kdenlive:original.meta.media.0.stream.frame_rate">59.9401</property>
  <property name="kdenlive:original.meta.media.0.stream.sample_aspect_ratio">0</property>
  <property name="kdenlive:original.meta.media.0.codec.width">1920</property>
  <property name="kdenlive:original.meta.media.0.codec.height">1080</property>
  <property name="kdenlive:original.meta.media.0.codec.rotate">0</property>
  <property name="kdenlive:original.meta.media.0.codec.pix_fmt">yuv420p</property>
  <property name="kdenlive:original.meta.media.0.codec.sample_aspect_ratio">0</property>
  <property name="kdenlive:original.meta.media.0.codec.colorspace">709</property>
  <property name="kdenlive:original.meta.media.0.codec.color_trc">1</property>
  <property name="kdenlive:original.meta.media.0.codec.name">libdav1d</property>
  <property name="kdenlive:original.meta.media.0.codec.long_name">dav1d AV1 decoder by VideoLAN</property>
  <property name="kdenlive:original.meta.media.0.codec.bit_rate">0</property>
  <property name="kdenlive:original.meta.attr.0.stream.HANDLER_NAME.markup">ISO Media file produced by Google Inc.</property>
  <property name="kdenlive:original.meta.attr.0.stream.VENDOR_ID.markup">[0][0][0][0]</property>
  <property name="kdenlive:original.meta.attr.0.stream.DURATION.markup">02:11:32.802000000</property>
  <property name="kdenlive:original.meta.media.1.stream.type">audio</property>
  <property name="kdenlive:original.meta.media.1.codec.sample_fmt">fltp</property>
  <property name="kdenlive:original.meta.media.1.codec.sample_rate">48000</property>
  <property name="kdenlive:original.meta.media.1.codec.channels">2</property>
  <property name="kdenlive:original.meta.media.1.codec.name">opus</property>
  <property name="kdenlive:original.meta.media.1.codec.long_name">Opus</property>
  <property name="kdenlive:original.meta.media.1.codec.bit_rate">0</property>
  <property name="kdenlive:original.meta.attr.1.stream.language.markup">eng</property>
  <property name="kdenlive:original.meta.attr.1.stream.DURATION.markup">02:11:32.828000000</property>
  <property name="kdenlive:original.meta.attr.COMPATIBLE_BRANDS.markup">iso6av01mp41</property>
  <property name="kdenlive:original.meta.attr.MAJOR_BRAND.markup">dash</property>
  <property name="kdenlive:original.meta.attr.MINOR_VERSION.markup">0</property>
  <property name="kdenlive:original.meta.attr.ENCODER.markup">Lavf60.16.100</property>
  <property name="kdenlive:original.seekable">1</property>
  <property name="kdenlive:original.width">1920</property>
  <property name="kdenlive:original.height">1080</property>
  <property name="kdenlive:original.meta.media.sample_aspect_num">1</property>
  <property name="kdenlive:original.meta.media.sample_aspect_den">1</property>
  <property name="kdenlive:original.aspect_ratio">1</property>
  <property name="kdenlive:original.format">3</property>
  <property name="kdenlive:original.audio_index">1</property>
  <property name="kdenlive:original.video_index">0</property>
  <property name="kdenlive:original.mute_on_pause">0</property>
  <property name="kdenlive:original.mlt_service">avformat-novalidate</property>
  <property name="kdenlive:original.meta.media.frame_rate_num">60000</property>
  <property name="kdenlive:original.meta.media.frame_rate_den">1001</property>
  <property name="kdenlive:original.meta.media.colorspace">709</property>
  <property name="kdenlive:original.meta.media.color_trc">1</property>
  <property name="kdenlive:original.meta.media.has_b_frames">0</property>
  <property name="kdenlive:original.meta.media.width">1920</property>
  <property name="kdenlive:original.meta.media.height">1080</property>
  <property name="kdenlive:original.meta.media.color_range">mpeg</property>
  <property name="kdenlive:original.meta.media.top_field_first">0</property>
  <property name="kdenlive:original.meta.media.progressive">1</property>
  <property name="kdenlive:original.kdenlive:clip_type">0</property>
  <property name="kdenlive:original.kdenlive:folderid">4</property>
  <property name="kdenlive:original.kdenlive:id">681</property>
  <property name="kdenlive:original.kdenlive:file_size">3370680153</property>
  <property name="kdenlive:original.kdenlive:file_hash">e297f2e0f7ae15f1f6c3e6c7a3b137c7</property>
  <property name="kdenlive:original.backup">1</property>
  <property name="kdenlive:audio_max1">203</property>
  <property name="xml">was here</property>
  <property name="meta.media.frame_rate_num">19001</property>
  <property name="meta.media.frame_rate_den">317</property>
  <property name="meta.media.colorspace">709</property>
  <property name="meta.media.color_trc">1</property>
  <property name="meta.media.has_b_frames">0</property>
  <property name="meta.media.width">640</property>
  <property name="meta.media.height">360</property>
  <property name="meta.media.color_range">mpeg</property>
  <property name="meta.media.top_field_first">0</property>
  <property name="meta.media.progressive">1</property>
  <property name="set.test_audio">0</property>
  <property name="set.test_image">1</property>
 </producer>
 <producer id="producer712" in="00:00:00.000" out="00:00:01.883">
  <property name="length">114</property>
  <property name="eof">pause</property>
  <property name="resource">/home/federico/Nextcloud/Kden/EditingUT/Sound/Minecraft/minecraft drinking.wav</property>
  <property name="audio_index">0</property>
  <property name="video_index">-1</property>
  <property name="mute_on_pause">0</property>
  <property name="mlt_service">avformat-novalidate</property>
  <property name="meta.media.nb_streams">1</property>
  <property name="meta.media.0.stream.type">audio</property>
  <property name="meta.media.0.codec.sample_fmt">s16</property>
  <property name="meta.media.0.codec.sample_rate">44100</property>
  <property name="meta.media.0.codec.channels">2</property>
  <property name="meta.media.0.codec.name">pcm_s16le</property>
  <property name="meta.media.0.codec.long_name">PCM signed 16-bit little-endian</property>
  <property name="meta.media.0.codec.bit_rate">1411200</property>
  <property name="meta.attr.encoder.markup">Lavf60.16.100</property>
  <property name="seekable">1</property>
  <property name="kdenlive:clipname"/>
  <property name="kdenlive:clip_type">1</property>
  <property name="kdenlive:folderid">327</property>
  <property name="kdenlive:id">339</property>
  <property name="kdenlive:file_size">336462</property>
  <property name="kdenlive:file_hash">6765bc5268935ed4c1289ddb66a727f5</property>
  <property name="kdenlive:audio_max0">109</property>
  <property name="kdenlive:zone_in">39</property>
  <property name="kdenlive:zone_out">114</property>
  <property name="xml">was here</property>
  <property name="set.test_audio">0</property>
  <property name="set.test_image">1</property>
 </producer>
 <producer id="producer713" in="00:00:00.000" out="00:00:02.050">
  <property name="length">124</property>
  <property name="eof">pause</property>
  <property name="resource">/home/federico/Nextcloud/Kden/EditingUT/Sound/Cartoon/cartoon slip.wav</property>
  <property name="audio_index">0</property>
  <property name="video_index">-1</property>
  <property name="mute_on_pause">0</property>
  <property name="mlt_service">avformat-novalidate</property>
  <property name="meta.media.nb_streams">1</property>
  <property name="meta.media.0.stream.type">audio</property>
  <property name="meta.media.0.codec.sample_fmt">s16</property>
  <property name="meta.media.0.codec.sample_rate">44100</property>
  <property name="meta.media.0.codec.channels">2</property>
  <property name="meta.media.0.codec.name">pcm_s16le</property>
  <property name="meta.media.0.codec.long_name">PCM signed 16-bit little-endian</property>
  <property name="meta.media.0.codec.bit_rate">1411200</property>
  <property name="meta.attr.encoder.markup">Lavf60.16.100</property>
  <property name="seekable">1</property>
  <property name="kdenlive:clipname"/>
  <property name="kdenlive:clip_type">1</property>
  <property name="kdenlive:folderid">172</property>
  <property name="kdenlive:id">181</property>
  <property name="kdenlive:file_size">364110</property>
  <property name="kdenlive:file_hash">3e2d0f5081be3dec307bf8d2836e0904</property>
  <property name="kdenlive:audio_max0">208</property>
  <property name="xml">was here</property>
  <property name="set.test_audio">0</property>
  <property name="set.test_image">1</property>
 </producer>
 <producer id="producer714" in="00:00:00.000" out="00:00:01.367">
  <property name="length">83</property>
  <property name="eof">pause</property>
  <property name="resource">/home/federico/Nextcloud/Kden/EditingUT/Sound/Cartoon/fast tip toes.wav</property>
  <property name="audio_index">0</property>
  <property name="video_index">-1</property>
  <property name="mute_on_pause">0</property>
  <property name="mlt_service">avformat-novalidate</property>
  <property name="meta.media.nb_streams">1</property>
  <property name="meta.media.0.stream.type">audio</property>
  <property name="meta.media.0.codec.sample_fmt">s16</property>
  <property name="meta.media.0.codec.sample_rate">44100</property>
  <property name="meta.media.0.codec.channels">2</property>
  <property name="meta.media.0.codec.name">pcm_s16le</property>
  <property name="meta.media.0.codec.long_name">PCM signed 16-bit little-endian</property>
  <property name="meta.media.0.codec.bit_rate">1411200</property>
  <property name="meta.attr.encoder.markup">Lavf60.16.100</property>
  <property name="seekable">1</property>
  <property name="kdenlive:clipname"/>
  <property name="kdenlive:clip_type">1</property>
  <property name="kdenlive:folderid">172</property>
  <property name="kdenlive:id">184</property>
  <property name="kdenlive:file_size">244302</property>
  <property name="kdenlive:file_hash">53fb5e0db9b1fdd4730596538251bd23</property>
  <property name="kdenlive:audio_max0">227</property>
  <property name="kdenlive:zone_in">18</property>
  <property name="kdenlive:zone_out">63</property>
  <property name="xml">was here</property>
  <property name="set.test_audio">0</property>
  <property name="set.test_image">1</property>
 </producer>
 <producer id="producer715" in="00:00:00.000" out="00:00:00.967">
  <property name="length">59</property>
  <property name="eof">pause</property>
  <property name="resource">/home/federico/Nextcloud/Kden/EditingUT/MemeFresh/landing.wav</property>
  <property name="audio_index">0</property>
  <property name="video_index">-1</property>
  <property name="mute_on_pause">0</property>
  <property name="mlt_service">avformat-novalidate</property>
  <property name="meta.media.nb_streams">1</property>
  <property name="meta.media.0.stream.type">audio</property>
  <property name="meta.media.0.codec.sample_fmt">s16</property>
  <property name="meta.media.0.codec.sample_rate">48000</property>
  <property name="meta.media.0.codec.channels">2</property>
  <property name="meta.media.0.codec.name">pcm_s16le</property>
  <property name="meta.media.0.codec.long_name">PCM signed 16-bit little-endian</property>
  <property name="meta.media.0.codec.bit_rate">1536000</property>
  <property name="meta.attr.encoder.markup">Lavf59.16.100</property>
  <property name="seekable">1</property>
  <property name="kdenlive:clipname"/>
  <property name="kdenlive:clip_type">1</property>
  <property name="kdenlive:folderid">31</property>
  <property name="kdenlive:id">43</property>
  <property name="kdenlive:file_size">188878</property>
  <property name="kdenlive:file_hash">45e0bb9ba60cc0a272c5aebb535bdadb</property>
  <property name="kdenlive:audio_max0">205</property>
  <property name="xml">was here</property>
  <property name="set.test_audio">0</property>
  <property name="set.test_image">1</property>
 </producer>
 <producer id="producer716" in="00:00:00.000" out="00:00:08.767">
  <property name="length">527</property>
  <property name="eof">pause</property>
  <property name="resource">/home/federico/Nextcloud/Kden/EditingUT/Sound/Minecraft/minecraft eating.wav</property>
  <property name="audio_index">0</property>
  <property name="video_index">-1</property>
  <property name="mute_on_pause">0</property>
  <property name="mlt_service">avformat-novalidate</property>
  <property name="meta.media.nb_streams">1</property>
  <property name="meta.media.0.stream.type">audio</property>
  <property name="meta.media.0.codec.sample_fmt">s16</property>
  <property name="meta.media.0.codec.sample_rate">48000</property>
  <property name="meta.media.0.codec.channels">2</property>
  <property name="meta.media.0.codec.name">pcm_s16le</property>
  <property name="meta.media.0.codec.long_name">PCM signed 16-bit little-endian</property>
  <property name="meta.media.0.codec.bit_rate">1536000</property>
  <property name="meta.attr.encoder.markup">Lavf60.16.100</property>
  <property name="seekable">1</property>
  <property name="kdenlive:clipname"/>
  <property name="kdenlive:clip_type">1</property>
  <property name="kdenlive:folderid">327</property>
  <property name="kdenlive:id">340</property>
  <property name="kdenlive:file_size">1687522</property>
  <property name="kdenlive:file_hash">d12b60073d9c83b71456751ca4b5fdb7</property>
  <property name="kdenlive:audio_max0">125</property>
  <property name="kdenlive:zone_in">120</property>
  <property name="kdenlive:zone_out">213</property>
  <property name="xml">was here</property>
  <property name="set.test_audio">0</property>
  <property name="set.test_image">1</property>
 </producer>
 <producer id="producer717" in="00:00:00.000" out="00:00:02.800">
  <property name="length">169</property>
  <property name="eof">pause</property>
  <property name="resource">/home/federico/Nextcloud/Kden/EditingUT/Sound/Explosion/explosion.wav</property>
  <property name="audio_index">0</property>
  <property name="video_index">-1</property>
  <property name="mute_on_pause">0</property>
  <property name="mlt_service">avformat-novalidate</property>
  <property name="meta.media.nb_streams">1</property>
  <property name="meta.media.0.stream.type">audio</property>
  <property name="meta.media.0.codec.sample_fmt">s16</property>
  <property name="meta.media.0.codec.sample_rate">44100</property>
  <property name="meta.media.0.codec.channels">2</property>
  <property name="meta.media.0.codec.name">pcm_s16le</property>
  <property name="meta.media.0.codec.long_name">PCM signed 16-bit little-endian</property>
  <property name="meta.media.0.codec.bit_rate">1411200</property>
  <property name="meta.attr.encoder.markup">Lavf60.16.100</property>
  <property name="seekable">1</property>
  <property name="kdenlive:clipname"/>
  <property name="kdenlive:clip_type">1</property>
  <property name="kdenlive:folderid">243</property>
  <property name="kdenlive:id">245</property>
  <property name="kdenlive:file_size">497742</property>
  <property name="kdenlive:file_hash">3994b9ed48a4f91cc02f4add84daaa9a</property>
  <property name="kdenlive:audio_max0">233</property>
  <property name="xml">was here</property>
  <property name="set.test_audio">0</property>
  <property name="set.test_image">1</property>
 </producer>
 <producer id="producer718" in="00:00:00.000" out="00:00:10.383">
  <property name="length">624</property>
  <property name="eof">pause</property>
  <property name="resource">/home/federico/Nextcloud/Kden/EditingUT/Video/GreenScreen/to be continued  green screen.mkv</property>
  <property name="audio_index">1</property>
  <property name="video_index">0</property>
  <property name="mute_on_pause">0</property>
  <property name="mlt_service">avformat-novalidate</property>
  <property name="seekable">1</property>
  <property name="aspect_ratio">1</property>
  <property name="format">3</property>
  <property name="kdenlive:clipname"/>
  <property name="kdenlive:clip_type">0</property>
  <property name="kdenlive:folderid">511</property>
  <property name="kdenlive:id">563</property>
  <property name="kdenlive:file_size">250515</property>
  <property name="kdenlive:file_hash">64d9d8a1b3579be879565348bd3db58e</property>
  <property name="kdenlive:audio_max1">207</property>
  <property name="kdenlive:zone_in">198</property>
  <property name="kdenlive:zone_out">624</property>
  <property name="xml">was here</property>
  <property name="meta.media.nb_streams">2</property>
  <property name="meta.media.0.stream.type">video</property>
  <property name="meta.media.0.stream.frame_rate">59.9401</property>
  <property name="meta.media.0.stream.sample_aspect_ratio">1</property>
  <property name="meta.media.0.codec.width">1920</property>
  <property name="meta.media.0.codec.height">1080</property>
  <property name="meta.media.0.codec.rotate">0</property>
  <property name="meta.media.0.codec.pix_fmt">yuv420p</property>
  <property name="meta.media.0.codec.sample_aspect_ratio">1</property>
  <property name="meta.media.0.codec.colorspace">709</property>
  <property name="meta.media.0.codec.color_trc">1</property>
  <property name="meta.media.0.codec.name">h264</property>
  <property name="meta.media.0.codec.long_name">H.264 / AVC / MPEG-4 AVC / MPEG-4 part 10</property>
  <property name="meta.media.0.codec.bit_rate">0</property>
  <property name="meta.attr.0.stream.HANDLER_NAME.markup">ISO Media file produced by Google Inc.</property>
  <property name="meta.attr.0.stream.VENDOR_ID.markup">[0][0][0][0]</property>
  <property name="meta.attr.0.stream.ENCODER.markup">Lavc60.31.102 libx264</property>
  <property name="meta.attr.0.stream.DURATION.markup">00:00:10.347000000</property>
  <property name="meta.media.1.stream.type">audio</property>
  <property name="meta.media.1.codec.sample_fmt">fltp</property>
  <property name="meta.media.1.codec.sample_rate">44100</property>
  <property name="meta.media.1.codec.channels">2</property>
  <property name="meta.media.1.codec.name">vorbis</property>
  <property name="meta.media.1.codec.long_name">Vorbis</property>
  <property name="meta.media.1.codec.bit_rate">0</property>
  <property name="meta.attr.1.stream.HANDLER_NAME.markup">ISO Media file produced by Google Inc.</property>
  <property name="meta.attr.1.stream.VENDOR_ID.markup">[0][0][0][0]</property>
  <property name="meta.attr.1.stream.ENCODER.markup">Lavc60.31.102 libvorbis</property>
  <property name="meta.attr.1.stream.DURATION.markup">00:00:10.405000000</property>
  <property name="meta.attr.COMPATIBLE_BRANDS.markup">isomiso2avc1mp41</property>
  <property name="meta.attr.MAJOR_BRAND.markup">isom</property>
  <property name="meta.attr.MINOR_VERSION.markup">512</property>
  <property name="meta.attr.ENCODER.markup">Lavf60.16.100</property>
  <property name="meta.media.sample_aspect_num">1</property>
  <property name="meta.media.sample_aspect_den">1</property>
  <property name="meta.media.frame_rate_num">60000</property>
  <property name="meta.media.frame_rate_den">1001</property>
  <property name="meta.media.colorspace">709</property>
  <property name="meta.media.color_trc">1</property>
  <property name="meta.media.has_b_frames">2</property>
  <property name="meta.media.width">1920</property>
  <property name="meta.media.height">1080</property>
  <property name="meta.media.color_range">mpeg</property>
  <property name="meta.media.top_field_first">0</property>
  <property name="meta.media.progressive">1</property>
  <property name="set.test_audio">0</property>
  <property name="set.test_image">1</property>
 </producer>
 <producer id="producer719" in="00:00:00.000" out="00:00:04.850">
  <property name="length">292</property>
  <property name="eof">pause</property>
  <property name="resource">/home/federico/Nextcloud/Kden/EditingUT/Sound/Punch_Hit_Stomp/animepunch .wav</property>
  <property name="audio_index">0</property>
  <property name="video_index">-1</property>
  <property name="mute_on_pause">0</property>
  <property name="mlt_service">avformat-novalidate</property>
  <property name="meta.media.nb_streams">1</property>
  <property name="meta.media.0.stream.type">audio</property>
  <property name="meta.media.0.codec.sample_fmt">s16</property>
  <property name="meta.media.0.codec.sample_rate">44100</property>
  <property name="meta.media.0.codec.channels">2</property>
  <property name="meta.media.0.codec.name">pcm_s16le</property>
  <property name="meta.media.0.codec.long_name">PCM signed 16-bit little-endian</property>
  <property name="meta.media.0.codec.bit_rate">1411200</property>
  <property name="meta.attr.encoder.markup">Lavf60.16.100</property>
  <property name="seekable">1</property>
  <property name="kdenlive:clipname"/>
  <property name="kdenlive:clip_type">1</property>
  <property name="kdenlive:folderid">356</property>
  <property name="kdenlive:id">358</property>
  <property name="kdenlive:file_size">857166</property>
  <property name="kdenlive:file_hash">7b9ff7c9989874d4836bcee937827044</property>
  <property name="kdenlive:audio_max0">256</property>
  <property name="xml">was here</property>
  <property name="set.test_audio">0</property>
  <property name="set.test_image">1</property>
 </producer>
 <producer id="producer720" in="00:00:00.000" out="02:31:23.133">
  <property name="length">544990</property>
  <property name="eof">pause</property>
  <property name="resource">/home/federico/Videos/Edit/Kden/ProxyRender/proxy/ca27a9d972c9214920a1b80c39287441.mov</property>
  <property name="audio_index">1</property>
  <property name="video_index">0</property>
  <property name="mute_on_pause">0</property>
  <property name="mlt_service">avformat-novalidate</property>
  <property name="seekable">1</property>
  <property name="aspect_ratio">1</property>
  <property name="format">3</property>
  <property name="kdenlive:clipname">4 - sleep issue - dark souls iii cinders  anima della sfida ii 4.mkv</property>
  <property name="kdenlive:clip_type">0</property>
  <property name="kdenlive:folderid">4</property>
  <property name="kdenlive:id">682</property>
  <property name="kdenlive:file_size">3681493931</property>
  <property name="kdenlive:file_hash">ca27a9d972c9214920a1b80c39287441</property>
  <property name="kdenlive:proxy">/home/federico/Videos/Edit/Kden/ProxyRender/proxy/ca27a9d972c9214920a1b80c39287441.mov</property>
  <property name="kdenlive:originalurl">/home/federico/Videos/Edit/Projects/DS3_cinders/5-Stream/4 - sleep issue - dark souls iii cinders  anima della sfida ii 4.mkv</property>
  <property name="kdenlive:original.mlt_type">producer</property>
  <property name="kdenlive:original.in">00:00:00.000</property>
  <property name="kdenlive:original.out">02:31:23.150</property>
  <property name="kdenlive:original.length">544990</property>
  <property name="kdenlive:original.eof">pause</property>
  <property name="kdenlive:original.resource">/home/federico/Videos/Edit/Projects/DS3_cinders/5-Stream/4 - sleep issue - dark souls iii cinders  anima della sfida ii 4.mkv</property>
  <property name="kdenlive:original.meta.media.nb_streams">2</property>
  <property name="kdenlive:original.meta.media.0.stream.type">video</property>
  <property name="kdenlive:original.meta.media.0.stream.frame_rate">60</property>
  <property name="kdenlive:original.meta.media.0.stream.sample_aspect_ratio">1</property>
  <property name="kdenlive:original.meta.media.0.codec.width">1920</property>
  <property name="kdenlive:original.meta.media.0.codec.height">1080</property>
  <property name="kdenlive:original.meta.media.0.codec.rotate">0</property>
  <property name="kdenlive:original.meta.media.0.codec.pix_fmt">yuv420p</property>
  <property name="kdenlive:original.meta.media.0.codec.sample_aspect_ratio">0</property>
  <property name="kdenlive:original.meta.media.0.codec.colorspace">709</property>
  <property name="kdenlive:original.meta.media.0.codec.color_trc">1</property>
  <property name="kdenlive:original.meta.media.0.codec.name">vp9</property>
  <property name="kdenlive:original.meta.media.0.codec.long_name">Google VP9</property>
  <property name="kdenlive:original.meta.media.0.codec.bit_rate">0</property>
  <property name="kdenlive:original.meta.attr.0.stream.language.markup">eng</property>
  <property name="kdenlive:original.meta.attr.0.stream.DURATION.markup">02:31:23.116000000</property>
  <property name="kdenlive:original.meta.media.1.stream.type">audio</property>
  <property name="kdenlive:original.meta.media.1.codec.sample_fmt">fltp</property>
  <property name="kdenlive:original.meta.media.1.codec.sample_rate">48000</property>
  <property name="kdenlive:original.meta.media.1.codec.channels">2</property>
  <property name="kdenlive:original.meta.media.1.codec.name">opus</property>
  <property name="kdenlive:original.meta.media.1.codec.long_name">Opus</property>
  <property name="kdenlive:original.meta.media.1.codec.bit_rate">0</property>
  <property name="kdenlive:original.meta.attr.1.stream.language.markup">eng</property>
  <property name="kdenlive:original.meta.attr.1.stream.DURATION.markup">02:31:23.168000000</property>
  <property name="kdenlive:original.meta.attr.ENCODER.markup">Lavf60.16.100</property>
  <property name="kdenlive:original.seekable">1</property>
  <property name="kdenlive:original.width">1920</property>
  <property name="kdenlive:original.height">1080</property>
  <property name="kdenlive:original.meta.media.sample_aspect_num">1</property>
  <property name="kdenlive:original.meta.media.sample_aspect_den">1</property>
  <property name="kdenlive:original.aspect_ratio">1</property>
  <property name="kdenlive:original.format">3</property>
  <property name="kdenlive:original.audio_index">1</property>
  <property name="kdenlive:original.video_index">0</property>
  <property name="kdenlive:original.mute_on_pause">0</property>
  <property name="kdenlive:original.mlt_service">avformat-novalidate</property>
  <property name="kdenlive:original.meta.media.frame_rate_num">60</property>
  <property name="kdenlive:original.meta.media.frame_rate_den">1</property>
  <property name="kdenlive:original.meta.media.colorspace">709</property>
  <property name="kdenlive:original.meta.media.color_trc">1</property>
  <property name="kdenlive:original.meta.media.has_b_frames">0</property>
  <property name="kdenlive:original.meta.media.width">1920</property>
  <property name="kdenlive:original.meta.media.height">1080</property>
  <property name="kdenlive:original.meta.media.color_range">mpeg</property>
  <property name="kdenlive:original.meta.media.top_field_first">0</property>
  <property name="kdenlive:original.meta.media.progressive">1</property>
  <property name="kdenlive:original.kdenlive:clip_type">0</property>
  <property name="kdenlive:original.kdenlive:folderid">4</property>
  <property name="kdenlive:original.kdenlive:id">682</property>
  <property name="kdenlive:original.kdenlive:file_size">3681493931</property>
  <property name="kdenlive:original.kdenlive:file_hash">ca27a9d972c9214920a1b80c39287441</property>
  <property name="kdenlive:original.backup">1</property>
  <property name="kdenlive:audio_max1">205</property>
  <property name="xml">was here</property>
  <property name="meta.media.nb_streams">2</property>
  <property name="meta.media.0.stream.type">video</property>
  <property name="meta.media.0.stream.frame_rate">60</property>
  <property name="meta.media.0.stream.sample_aspect_ratio">1</property>
  <property name="meta.media.0.codec.width">640</property>
  <property name="meta.media.0.codec.height">360</property>
  <property name="meta.media.0.codec.rotate">0</property>
  <property name="meta.media.0.codec.pix_fmt">yuv420p</property>
  <property name="meta.media.0.codec.sample_aspect_ratio">1</property>
  <property name="meta.media.0.codec.colorspace">709</property>
  <property name="meta.media.0.codec.color_trc">1</property>
  <property name="meta.media.0.codec.name">h264</property>
  <property name="meta.media.0.codec.long_name">H.264 / AVC / MPEG-4 AVC / MPEG-4 part 10</property>
  <property name="meta.media.0.codec.bit_rate">5391916</property>
  <property name="meta.attr.0.stream.language.markup">eng</property>
  <property name="meta.attr.0.stream.handler_name.markup">VideoHandler</property>
  <property name="meta.attr.0.stream.vendor_id.markup">FFMP</property>
  <property name="meta.attr.0.stream.encoder.markup">Lavc59.18.100 libx264</property>
  <property name="meta.media.1.stream.type">audio</property>
  <property name="meta.media.1.codec.sample_fmt">fltp</property>
  <property name="meta.media.1.codec.sample_rate">48000</property>
  <property name="meta.media.1.codec.channels">2</property>
  <property name="meta.media.1.codec.name">aac</property>
  <property name="meta.media.1.codec.long_name">AAC (Advanced Audio Coding)</property>
  <property name="meta.media.1.codec.bit_rate">129930</property>
  <property name="meta.attr.1.stream.language.markup">eng</property>
  <property name="meta.attr.1.stream.handler_name.markup">SoundHandler</property>
  <property name="meta.attr.1.stream.vendor_id.markup">[0][0][0][0]</property>
  <property name="meta.attr.major_brand.markup">qt  </property>
  <property name="meta.attr.minor_version.markup">512</property>
  <property name="meta.attr.compatible_brands.markup">qt  </property>
  <property name="meta.attr.encoder.markup">Lavf59.16.100</property>
  <property name="meta.media.sample_aspect_num">1</property>
  <property name="meta.media.sample_aspect_den">1</property>
  <property name="meta.media.frame_rate_num">60</property>
  <property name="meta.media.frame_rate_den">1</property>
  <property name="meta.media.colorspace">709</property>
  <property name="meta.media.color_trc">1</property>
  <property name="meta.media.has_b_frames">0</property>
  <property name="meta.media.width">640</property>
  <property name="meta.media.height">360</property>
  <property name="meta.media.color_range">mpeg</property>
  <property name="meta.media.top_field_first">0</property>
  <property name="meta.media.progressive">1</property>
  <property name="set.test_audio">1</property>
  <property name="set.test_image">1</property>
 </producer>
 <producer id="producer721" in="00:00:00.000" out="00:00:12.283">
  <property name="length">738</property>
  <property name="eof">pause</property>
  <property name="resource">/home/federico/Nextcloud/Kden/EditingUT/MemeFresh/gangstas paradise choir.wav</property>
  <property name="audio_index">0</property>
  <property name="video_index">-1</property>
  <property name="mute_on_pause">0</property>
  <property name="mlt_service">avformat-novalidate</property>
  <property name="meta.media.nb_streams">1</property>
  <property name="meta.media.0.stream.type">audio</property>
  <property name="meta.media.0.codec.sample_fmt">s16</property>
  <property name="meta.media.0.codec.sample_rate">44100</property>
  <property name="meta.media.0.codec.channels">2</property>
  <property name="meta.media.0.codec.name">pcm_s16le</property>
  <property name="meta.media.0.codec.long_name">PCM signed 16-bit little-endian</property>
  <property name="meta.media.0.codec.bit_rate">1411200</property>
  <property name="meta.attr.encoder.markup">Lavf60.16.100</property>
  <property name="seekable">1</property>
  <property name="kdenlive:clipname"/>
  <property name="kdenlive:clip_type">1</property>
  <property name="kdenlive:folderid">31</property>
  <property name="kdenlive:id">39</property>
  <property name="kdenlive:file_size">2170446</property>
  <property name="kdenlive:file_hash">18767d36687a9d457703a2e5cdbf4738</property>
  <property name="kdenlive:audio_max0">173</property>
  <property name="kdenlive:zone_in">0</property>
  <property name="kdenlive:zone_out">38</property>
  <property name="xml">was here</property>
  <property name="set.test_audio">0</property>
  <property name="set.test_image">1</property>
 </producer>
 <producer id="producer722" in="00:00:00.000" out="02:31:23.133">
  <property name="length">544990</property>
  <property name="eof">pause</property>
  <property name="resource">/home/federico/Videos/Edit/Kden/ProxyRender/proxy/ca27a9d972c9214920a1b80c39287441.mov</property>
  <property name="audio_index">1</property>
  <property name="video_index">0</property>
  <property name="mute_on_pause">0</property>
  <property name="mlt_service">avformat-novalidate</property>
  <property name="meta.media.nb_streams">2</property>
  <property name="meta.media.0.stream.type">video</property>
  <property name="meta.media.0.stream.frame_rate">60</property>
  <property name="meta.media.0.stream.sample_aspect_ratio">1</property>
  <property name="meta.media.0.codec.width">640</property>
  <property name="meta.media.0.codec.height">360</property>
  <property name="meta.media.0.codec.rotate">0</property>
  <property name="meta.media.0.codec.pix_fmt">yuv420p</property>
  <property name="meta.media.0.codec.sample_aspect_ratio">1</property>
  <property name="meta.media.0.codec.colorspace">709</property>
  <property name="meta.media.0.codec.color_trc">1</property>
  <property name="meta.media.0.codec.name">h264</property>
  <property name="meta.media.0.codec.long_name">H.264 / AVC / MPEG-4 AVC / MPEG-4 part 10</property>
  <property name="meta.media.0.codec.bit_rate">5391916</property>
  <property name="meta.attr.0.stream.language.markup">eng</property>
  <property name="meta.attr.0.stream.handler_name.markup">VideoHandler</property>
  <property name="meta.attr.0.stream.vendor_id.markup">FFMP</property>
  <property name="meta.attr.0.stream.encoder.markup">Lavc59.18.100 libx264</property>
  <property name="meta.media.1.stream.type">audio</property>
  <property name="meta.media.1.codec.sample_fmt">fltp</property>
  <property name="meta.media.1.codec.sample_rate">48000</property>
  <property name="meta.media.1.codec.channels">2</property>
  <property name="meta.media.1.codec.name">aac</property>
  <property name="meta.media.1.codec.long_name">AAC (Advanced Audio Coding)</property>
  <property name="meta.media.1.codec.bit_rate">129930</property>
  <property name="meta.attr.1.stream.language.markup">eng</property>
  <property name="meta.attr.1.stream.handler_name.markup">SoundHandler</property>
  <property name="meta.attr.1.stream.vendor_id.markup">[0][0][0][0]</property>
  <property name="meta.attr.major_brand.markup">qt  </property>
  <property name="meta.attr.minor_version.markup">512</property>
  <property name="meta.attr.compatible_brands.markup">qt  </property>
  <property name="meta.attr.encoder.markup">Lavf59.16.100</property>
  <property name="seekable">1</property>
  <property name="meta.media.sample_aspect_num">1</property>
  <property name="meta.media.sample_aspect_den">1</property>
  <property name="aspect_ratio">1</property>
  <property name="format">3</property>
  <property name="kdenlive:clipname">4 - sleep issue - dark souls iii cinders  anima della sfida ii 4.mkv</property>
  <property name="kdenlive:clip_type">0</property>
  <property name="kdenlive:folderid">4</property>
  <property name="kdenlive:id">682</property>
  <property name="kdenlive:file_size">3681493931</property>
  <property name="kdenlive:file_hash">ca27a9d972c9214920a1b80c39287441</property>
  <property name="kdenlive:proxy">/home/federico/Videos/Edit/Kden/ProxyRender/proxy/ca27a9d972c9214920a1b80c39287441.mov</property>
  <property name="kdenlive:originalurl">/home/federico/Videos/Edit/Projects/DS3_cinders/5-Stream/4 - sleep issue - dark souls iii cinders  anima della sfida ii 4.mkv</property>
  <property name="kdenlive:original.mlt_type">producer</property>
  <property name="kdenlive:original.in">00:00:00.000</property>
  <property name="kdenlive:original.out">02:31:23.150</property>
  <property name="kdenlive:original.length">544990</property>
  <property name="kdenlive:original.eof">pause</property>
  <property name="kdenlive:original.resource">/home/federico/Videos/Edit/Projects/DS3_cinders/5-Stream/4 - sleep issue - dark souls iii cinders  anima della sfida ii 4.mkv</property>
  <property name="kdenlive:original.meta.media.nb_streams">2</property>
  <property name="kdenlive:original.meta.media.0.stream.type">video</property>
  <property name="kdenlive:original.meta.media.0.stream.frame_rate">60</property>
  <property name="kdenlive:original.meta.media.0.stream.sample_aspect_ratio">1</property>
  <property name="kdenlive:original.meta.media.0.codec.width">1920</property>
  <property name="kdenlive:original.meta.media.0.codec.height">1080</property>
  <property name="kdenlive:original.meta.media.0.codec.rotate">0</property>
  <property name="kdenlive:original.meta.media.0.codec.pix_fmt">yuv420p</property>
  <property name="kdenlive:original.meta.media.0.codec.sample_aspect_ratio">0</property>
  <property name="kdenlive:original.meta.media.0.codec.colorspace">709</property>
  <property name="kdenlive:original.meta.media.0.codec.color_trc">1</property>
  <property name="kdenlive:original.meta.media.0.codec.name">vp9</property>
  <property name="kdenlive:original.meta.media.0.codec.long_name">Google VP9</property>
  <property name="kdenlive:original.meta.media.0.codec.bit_rate">0</property>
  <property name="kdenlive:original.meta.attr.0.stream.language.markup">eng</property>
  <property name="kdenlive:original.meta.attr.0.stream.DURATION.markup">02:31:23.116000000</property>
  <property name="kdenlive:original.meta.media.1.stream.type">audio</property>
  <property name="kdenlive:original.meta.media.1.codec.sample_fmt">fltp</property>
  <property name="kdenlive:original.meta.media.1.codec.sample_rate">48000</property>
  <property name="kdenlive:original.meta.media.1.codec.channels">2</property>
  <property name="kdenlive:original.meta.media.1.codec.name">opus</property>
  <property name="kdenlive:original.meta.media.1.codec.long_name">Opus</property>
  <property name="kdenlive:original.meta.media.1.codec.bit_rate">0</property>
  <property name="kdenlive:original.meta.attr.1.stream.language.markup">eng</property>
  <property name="kdenlive:original.meta.attr.1.stream.DURATION.markup">02:31:23.168000000</property>
  <property name="kdenlive:original.meta.attr.ENCODER.markup">Lavf60.16.100</property>
  <property name="kdenlive:original.seekable">1</property>
  <property name="kdenlive:original.width">1920</property>
  <property name="kdenlive:original.height">1080</property>
  <property name="kdenlive:original.meta.media.sample_aspect_num">1</property>
  <property name="kdenlive:original.meta.media.sample_aspect_den">1</property>
  <property name="kdenlive:original.aspect_ratio">1</property>
  <property name="kdenlive:original.format">3</property>
  <property name="kdenlive:original.audio_index">1</property>
  <property name="kdenlive:original.video_index">0</property>
  <property name="kdenlive:original.mute_on_pause">0</property>
  <property name="kdenlive:original.mlt_service">avformat-novalidate</property>
  <property name="kdenlive:original.meta.media.frame_rate_num">60</property>
  <property name="kdenlive:original.meta.media.frame_rate_den">1</property>
  <property name="kdenlive:original.meta.media.colorspace">709</property>
  <property name="kdenlive:original.meta.media.color_trc">1</property>
  <property name="kdenlive:original.meta.media.has_b_frames">0</property>
  <property name="kdenlive:original.meta.media.width">1920</property>
  <property name="kdenlive:original.meta.media.height">1080</property>
  <property name="kdenlive:original.meta.media.color_range">mpeg</property>
  <property name="kdenlive:original.meta.media.top_field_first">0</property>
  <property name="kdenlive:original.meta.media.progressive">1</property>
  <property name="kdenlive:original.kdenlive:clip_type">0</property>
  <property name="kdenlive:original.kdenlive:folderid">4</property>
  <property name="kdenlive:original.kdenlive:id">682</property>
  <property name="kdenlive:original.kdenlive:file_size">3681493931</property>
  <property name="kdenlive:original.kdenlive:file_hash">ca27a9d972c9214920a1b80c39287441</property>
  <property name="kdenlive:original.backup">1</property>
  <property name="kdenlive:audio_max1">205</property>
  <property name="xml">was here</property>
  <property name="meta.media.frame_rate_num">60</property>
  <property name="meta.media.frame_rate_den">1</property>
  <property name="meta.media.colorspace">709</property>
  <property name="meta.media.color_trc">1</property>
  <property name="meta.media.has_b_frames">0</property>
  <property name="meta.media.width">640</property>
  <property name="meta.media.height">360</property>
  <property name="meta.media.color_range">mpeg</property>
  <property name="meta.media.top_field_first">0</property>
  <property name="meta.media.progressive">1</property>
  <property name="set.test_audio">0</property>
  <property name="set.test_image">1</property>
 </producer>
 <producer id="producer723" in="00:00:00.000" out="00:00:01.450">
  <property name="length">88</property>
  <property name="eof">pause</property>
  <property name="resource">/home/federico/Nextcloud/Kden/EditingUT/Video/Explosion/explosion meme.mkv</property>
  <property name="audio_index">1</property>
  <property name="video_index">0</property>
  <property name="mute_on_pause">0</property>
  <property name="mlt_service">avformat-novalidate</property>
  <property name="seekable">1</property>
  <property name="aspect_ratio">1</property>
  <property name="format">3</property>
  <property name="kdenlive:clipname"/>
  <property name="kdenlive:clip_type">0</property>
  <property name="kdenlive:folderid">447</property>
  <property name="kdenlive:id">448</property>
  <property name="kdenlive:file_size">565413</property>
  <property name="kdenlive:file_hash">3e55e542f6455f7e0e4aefaa1d8736d4</property>
  <property name="kdenlive:audio_max1">174</property>
  <property name="xml">was here</property>
  <property name="meta.media.nb_streams">2</property>
  <property name="meta.media.0.stream.type">video</property>
  <property name="meta.media.0.stream.frame_rate">29.97</property>
  <property name="meta.media.0.stream.sample_aspect_ratio">1</property>
  <property name="meta.media.0.codec.width">1920</property>
  <property name="meta.media.0.codec.height">1080</property>
  <property name="meta.media.0.codec.rotate">0</property>
  <property name="meta.media.0.codec.pix_fmt">yuv420p</property>
  <property name="meta.media.0.codec.sample_aspect_ratio">1</property>
  <property name="meta.media.0.codec.colorspace">709</property>
  <property name="meta.media.0.codec.color_trc">1</property>
  <property name="meta.media.0.codec.name">h264</property>
  <property name="meta.media.0.codec.long_name">H.264 / AVC / MPEG-4 AVC / MPEG-4 part 10</property>
  <property name="meta.media.0.codec.bit_rate">0</property>
  <property name="meta.attr.0.stream.HANDLER_NAME.markup">ISO Media file produced by Google Inc.</property>
  <property name="meta.attr.0.stream.VENDOR_ID.markup">[0][0][0][0]</property>
  <property name="meta.attr.0.stream.ENCODER.markup">Lavc60.31.102 libx264</property>
  <property name="meta.attr.0.stream.DURATION.markup">00:00:01.404000000</property>
  <property name="meta.media.1.stream.type">audio</property>
  <property name="meta.media.1.codec.sample_fmt">fltp</property>
  <property name="meta.media.1.codec.sample_rate">44100</property>
  <property name="meta.media.1.codec.channels">2</property>
  <property name="meta.media.1.codec.name">vorbis</property>
  <property name="meta.media.1.codec.long_name">Vorbis</property>
  <property name="meta.media.1.codec.bit_rate">0</property>
  <property name="meta.attr.1.stream.language.markup">eng</property>
  <property name="meta.attr.1.stream.HANDLER_NAME.markup">ISO Media file produced by Google Inc.</property>
  <property name="meta.attr.1.stream.VENDOR_ID.markup">[0][0][0][0]</property>
  <property name="meta.attr.1.stream.ENCODER.markup">Lavc60.31.102 libvorbis</property>
  <property name="meta.attr.1.stream.DURATION.markup">00:00:01.466000000</property>
  <property name="meta.attr.COMPATIBLE_BRANDS.markup">isomiso2avc1mp41</property>
  <property name="meta.attr.MAJOR_BRAND.markup">isom</property>
  <property name="meta.attr.MINOR_VERSION.markup">512</property>
  <property name="meta.attr.ENCODER.markup">Lavf60.16.100</property>
  <property name="meta.media.sample_aspect_num">1</property>
  <property name="meta.media.sample_aspect_den">1</property>
  <property name="meta.media.frame_rate_num">30000</property>
  <property name="meta.media.frame_rate_den">1001</property>
  <property name="meta.media.colorspace">709</property>
  <property name="meta.media.color_trc">1</property>
  <property name="meta.media.has_b_frames">2</property>
  <property name="meta.media.width">1920</property>
  <property name="meta.media.height">1080</property>
  <property name="meta.media.color_range">mpeg</property>
  <property name="meta.media.top_field_first">0</property>
  <property name="meta.media.progressive">1</property>
  <property name="set.test_audio">0</property>
  <property name="set.test_image">1</property>
 </producer>
 <producer id="producer724" in="00:00:00.000" out="00:00:05.633">
  <property name="length">339</property>
  <property name="eof">pause</property>
  <property name="resource">/home/federico/Nextcloud/Kden/EditingUT/MemeFresh/troll face smiling meme template.mkv</property>
  <property name="audio_index">1</property>
  <property name="video_index">0</property>
  <property name="mute_on_pause">0</property>
  <property name="mlt_service">avformat-novalidate</property>
  <property name="seekable">1</property>
  <property name="aspect_ratio">1</property>
  <property name="format">3</property>
  <property name="kdenlive:clipname"/>
  <property name="kdenlive:clip_type">0</property>
  <property name="kdenlive:folderid">31</property>
  <property name="kdenlive:id">54</property>
  <property name="kdenlive:file_size">4464917</property>
  <property name="kdenlive:file_hash">2cf7e6929a529c4637fe5faa7b980a3c</property>
  <property name="kdenlive:audio_max1">154</property>
  <property name="kdenlive:zone_in">16</property>
  <property name="kdenlive:zone_out">35</property>
  <property name="xml">was here</property>
  <property name="meta.media.nb_streams">2</property>
  <property name="meta.media.0.stream.type">video</property>
  <property name="meta.media.0.stream.frame_rate">60</property>
  <property name="meta.media.0.stream.sample_aspect_ratio">1</property>
  <property name="meta.media.0.codec.width">1920</property>
  <property name="meta.media.0.codec.height">1080</property>
  <property name="meta.media.0.codec.rotate">0</property>
  <property name="meta.media.0.codec.pix_fmt">yuv420p</property>
  <property name="meta.media.0.codec.sample_aspect_ratio">1</property>
  <property name="meta.media.0.codec.colorspace">709</property>
  <property name="meta.media.0.codec.color_trc">1</property>
  <property name="meta.media.0.codec.name">h264</property>
  <property name="meta.media.0.codec.long_name">H.264 / AVC / MPEG-4 AVC / MPEG-4 part 10</property>
  <property name="meta.media.0.codec.bit_rate">0</property>
  <property name="meta.attr.0.stream.DURATION.markup">00:00:05.638000000</property>
  <property name="meta.media.1.stream.type">audio</property>
  <property name="meta.media.1.codec.sample_fmt">fltp</property>
  <property name="meta.media.1.codec.sample_rate">48000</property>
  <property name="meta.media.1.codec.channels">2</property>
  <property name="meta.media.1.codec.name">aac</property>
  <property name="meta.media.1.codec.long_name">AAC (Advanced Audio Coding)</property>
  <property name="meta.media.1.codec.bit_rate">0</property>
  <property name="meta.attr.1.stream.DURATION.markup">00:00:05.653000000</property>
  <property name="meta.attr.ENCODER.markup">Lavf59.16.100</property>
  <property name="meta.media.sample_aspect_num">1</property>
  <property name="meta.media.sample_aspect_den">1</property>
  <property name="meta.media.frame_rate_num">60</property>
  <property name="meta.media.frame_rate_den">1</property>
  <property name="meta.media.colorspace">709</property>
  <property name="meta.media.color_trc">1</property>
  <property name="meta.media.has_b_frames">0</property>
  <property name="meta.media.width">1920</property>
  <property name="meta.media.height">1080</property>
  <property name="meta.media.color_range">mpeg</property>
  <property name="meta.media.top_field_first">0</property>
  <property name="meta.media.progressive">1</property>
  <property name="set.test_audio">0</property>
  <property name="set.test_image">1</property>
 </producer>
 <producer id="producer725" in="00:00:00.000" out="00:00:26.133">
  <property name="length">1569</property>
  <property name="eof">pause</property>
  <property name="resource">/home/federico/Nextcloud/Kden/EditingUT/Sound/Minecraft/all enderman s minecraft - s.wav</property>
  <property name="audio_index">0</property>
  <property name="video_index">-1</property>
  <property name="mute_on_pause">0</property>
  <property name="mlt_service">avformat-novalidate</property>
  <property name="meta.media.nb_streams">1</property>
  <property name="meta.media.0.stream.type">audio</property>
  <property name="meta.media.0.codec.sample_fmt">s16</property>
  <property name="meta.media.0.codec.sample_rate">44100</property>
  <property name="meta.media.0.codec.channels">2</property>
  <property name="meta.media.0.codec.name">pcm_s16le</property>
  <property name="meta.media.0.codec.long_name">PCM signed 16-bit little-endian</property>
  <property name="meta.media.0.codec.bit_rate">1411200</property>
  <property name="meta.attr.encoder.markup">Lavf60.16.100</property>
  <property name="seekable">1</property>
  <property name="kdenlive:clipname"/>
  <property name="kdenlive:clip_type">1</property>
  <property name="kdenlive:folderid">327</property>
  <property name="kdenlive:id">328</property>
  <property name="kdenlive:file_size">4612686</property>
  <property name="kdenlive:file_hash">f8c91e7722dc460706ac999879ad9e27</property>
  <property name="kdenlive:audio_max0">240</property>
  <property name="kdenlive:zone_in">892</property>
  <property name="kdenlive:zone_out">938</property>
  <property name="xml">was here</property>
  <property name="set.test_audio">0</property>
  <property name="set.test_image">1</property>
 </producer>
 <producer id="producer726" in="00:00:00.000" out="00:00:05.350">
  <property name="length">322</property>
  <property name="eof">pause</property>
  <property name="resource">/home/federico/Nextcloud/Kden/EditingUT/Video/bsod blue screen of death meme_error_windows.mkv</property>
  <property name="audio_index">1</property>
  <property name="video_index">0</property>
  <property name="mute_on_pause">0</property>
  <property name="mlt_service">avformat-novalidate</property>
  <property name="seekable">1</property>
  <property name="aspect_ratio">1</property>
  <property name="format">3</property>
  <property name="kdenlive:clipname"/>
  <property name="kdenlive:clip_type">0</property>
  <property name="kdenlive:folderid">407</property>
  <property name="kdenlive:id">412</property>
  <property name="kdenlive:file_size">275773</property>
  <property name="kdenlive:file_hash">711951f668033a9e300e8531e78eb20a</property>
  <property name="kdenlive:audio_max1">252</property>
  <property name="xml">was here</property>
  <property name="meta.media.nb_streams">2</property>
  <property name="meta.media.0.stream.type">video</property>
  <property name="meta.media.0.stream.frame_rate">30</property>
  <property name="meta.media.0.stream.sample_aspect_ratio">1</property>
  <property name="meta.media.0.codec.width">852</property>
  <property name="meta.media.0.codec.height">480</property>
  <property name="meta.media.0.codec.rotate">0</property>
  <property name="meta.media.0.codec.pix_fmt">yuv420p</property>
  <property name="meta.media.0.codec.sample_aspect_ratio">1</property>
  <property name="meta.media.0.codec.colorspace">709</property>
  <property name="meta.media.0.codec.color_trc">1</property>
  <property name="meta.media.0.codec.name">h264</property>
  <property name="meta.media.0.codec.long_name">H.264 / AVC / MPEG-4 AVC / MPEG-4 part 10</property>
  <property name="meta.media.0.codec.bit_rate">0</property>
  <property name="meta.attr.0.stream.HANDLER_NAME.markup">ISO Media file produced by Google Inc.</property>
  <property name="meta.attr.0.stream.VENDOR_ID.markup">[0][0][0][0]</property>
  <property name="meta.attr.0.stream.ENCODER.markup">Lavc60.31.102 libx264</property>
  <property name="meta.attr.0.stream.DURATION.markup">00:00:05.236000000</property>
  <property name="meta.media.1.stream.type">audio</property>
  <property name="meta.media.1.codec.sample_fmt">fltp</property>
  <property name="meta.media.1.codec.sample_rate">44100</property>
  <property name="meta.media.1.codec.channels">2</property>
  <property name="meta.media.1.codec.name">vorbis</property>
  <property name="meta.media.1.codec.long_name">Vorbis</property>
  <property name="meta.media.1.codec.bit_rate">0</property>
  <property name="meta.attr.1.stream.HANDLER_NAME.markup">ISO Media file produced by Google Inc.</property>
  <property name="meta.attr.1.stream.VENDOR_ID.markup">[0][0][0][0]</property>
  <property name="meta.attr.1.stream.ENCODER.markup">Lavc60.31.102 libvorbis</property>
  <property name="meta.attr.1.stream.DURATION.markup">00:00:05.367000000</property>
  <property name="meta.attr.COMPATIBLE_BRANDS.markup">isomiso2avc1mp41</property>
  <property name="meta.attr.MAJOR_BRAND.markup">isom</property>
  <property name="meta.attr.MINOR_VERSION.markup">512</property>
  <property name="meta.attr.ENCODER.markup">Lavf60.16.100</property>
  <property name="meta.media.sample_aspect_num">1</property>
  <property name="meta.media.sample_aspect_den">1</property>
  <property name="meta.media.frame_rate_num">30</property>
  <property name="meta.media.frame_rate_den">1</property>
  <property name="meta.media.colorspace">709</property>
  <property name="meta.media.color_trc">1</property>
  <property name="meta.media.has_b_frames">2</property>
  <property name="meta.media.width">852</property>
  <property name="meta.media.height">480</property>
  <property name="meta.media.color_range">mpeg</property>
  <property name="meta.media.top_field_first">0</property>
  <property name="meta.media.progressive">1</property>
  <property name="set.test_audio">0</property>
  <property name="set.test_image">1</property>
 </producer>
 <producer id="producer727" in="00:00:00.000" out="00:00:04.783">
  <property name="length">288</property>
  <property name="eof">pause</property>
  <property name="resource">/home/federico/Nextcloud/Kden/EditingUT/Music/Meme/hyper_chad_meme.wav</property>
  <property name="audio_index">0</property>
  <property name="video_index">-1</property>
  <property name="mute_on_pause">0</property>
  <property name="mlt_service">avformat-novalidate</property>
  <property name="meta.media.nb_streams">1</property>
  <property name="meta.media.0.stream.type">audio</property>
  <property name="meta.media.0.codec.sample_fmt">s16</property>
  <property name="meta.media.0.codec.sample_rate">48000</property>
  <property name="meta.media.0.codec.channels">2</property>
  <property name="meta.media.0.codec.name">pcm_s16le</property>
  <property name="meta.media.0.codec.long_name">PCM signed 16-bit little-endian</property>
  <property name="meta.media.0.codec.bit_rate">1536000</property>
  <property name="meta.attr.encoder.markup">Lavf60.16.100</property>
  <property name="seekable">1</property>
  <property name="kdenlive:clipname"/>
  <property name="kdenlive:clip_type">1</property>
  <property name="kdenlive:folderid">68</property>
  <property name="kdenlive:id">80</property>
  <property name="kdenlive:file_size">921678</property>
  <property name="kdenlive:file_hash">bfde8c404c300ba6a56a83355a70a700</property>
  <property name="kdenlive:audio_max0">247</property>
  <property name="kdenlive:zone_in">0</property>
  <property name="kdenlive:zone_out">139</property>
  <property name="xml">was here</property>
  <property name="set.test_audio">0</property>
  <property name="set.test_image">1</property>
 </producer>
 <producer id="producer728" in="00:00:00.000" out="00:00:00.683">
  <property name="length">42</property>
  <property name="eof">pause</property>
  <property name="resource">/home/federico/Nextcloud/Kden/EditingUT/Sound/Fart/quick fart.wav</property>
  <property name="audio_index">0</property>
  <property name="video_index">-1</property>
  <property name="mute_on_pause">0</property>
  <property name="mlt_service">avformat-novalidate</property>
  <property name="meta.media.nb_streams">1</property>
  <property name="meta.media.0.stream.type">audio</property>
  <property name="meta.media.0.codec.sample_fmt">s16</property>
  <property name="meta.media.0.codec.sample_rate">44100</property>
  <property name="meta.media.0.codec.channels">2</property>
  <property name="meta.media.0.codec.name">pcm_s16le</property>
  <property name="meta.media.0.codec.long_name">PCM signed 16-bit little-endian</property>
  <property name="meta.media.0.codec.bit_rate">1411200</property>
  <property name="meta.attr.encoder.markup">Lavf60.16.100</property>
  <property name="seekable">1</property>
  <property name="kdenlive:clipname"/>
  <property name="kdenlive:clip_type">1</property>
  <property name="kdenlive:folderid">251</property>
  <property name="kdenlive:id">255</property>
  <property name="kdenlive:file_size">124494</property>
  <property name="kdenlive:file_hash">af0c92b94df6f4ea13aabe668d62db20</property>
  <property name="kdenlive:audio_max0">152</property>
  <property name="xml">was here</property>
  <property name="set.test_audio">0</property>
  <property name="set.test_image">1</property>
 </producer>
 <producer id="producer729" in="00:00:00.000" out="00:00:06.667">
  <property name="length">401</property>
  <property name="eof">pause</property>
  <property name="resource">/home/federico/Nextcloud/Kden/EditingUT/Sound/BassDrop/cinema sins dun -.wav</property>
  <property name="audio_index">0</property>
  <property name="video_index">-1</property>
  <property name="mute_on_pause">0</property>
  <property name="mlt_service">avformat-novalidate</property>
  <property name="meta.media.nb_streams">1</property>
  <property name="meta.media.0.stream.type">audio</property>
  <property name="meta.media.0.codec.sample_fmt">s16</property>
  <property name="meta.media.0.codec.sample_rate">44100</property>
  <property name="meta.media.0.codec.channels">2</property>
  <property name="meta.media.0.codec.name">pcm_s16le</property>
  <property name="meta.media.0.codec.long_name">PCM signed 16-bit little-endian</property>
  <property name="meta.media.0.codec.bit_rate">1411200</property>
  <property name="meta.attr.encoder.markup">Lavf60.16.100</property>
  <property name="seekable">1</property>
  <property name="kdenlive:clipname"/>
  <property name="kdenlive:clip_type">1</property>
  <property name="kdenlive:folderid">158</property>
  <property name="kdenlive:id">161</property>
  <property name="kdenlive:file_size">1179726</property>
  <property name="kdenlive:file_hash">aa8638f20a4fc790d3dcf2232f252c60</property>
  <property name="kdenlive:audio_max0">251</property>
  <property name="xml">was here</property>
  <property name="set.test_audio">0</property>
  <property name="set.test_image">1</property>
 </producer>
 <producer id="producer730" in="00:00:00.000" out="00:00:03.700">
  <property name="length">223</property>
  <property name="eof">pause</property>
  <property name="resource">/home/federico/Nextcloud/Kden/EditingUT/Sound/Gun_Shot/gun shot.wav</property>
  <property name="audio_index">0</property>
  <property name="video_index">-1</property>
  <property name="mute_on_pause">0</property>
  <property name="mlt_service">avformat-novalidate</property>
  <property name="meta.media.nb_streams">1</property>
  <property name="meta.media.0.stream.type">audio</property>
  <property name="meta.media.0.codec.sample_fmt">s16</property>
  <property name="meta.media.0.codec.sample_rate">44100</property>
  <property name="meta.media.0.codec.channels">2</property>
  <property name="meta.media.0.codec.name">pcm_s16le</property>
  <property name="meta.media.0.codec.long_name">PCM signed 16-bit little-endian</property>
  <property name="meta.media.0.codec.bit_rate">1411200</property>
  <property name="meta.attr.encoder.markup">Lavf60.16.100</property>
  <property name="seekable">1</property>
  <property name="kdenlive:clipname"/>
  <property name="kdenlive:clip_type">1</property>
  <property name="kdenlive:folderid">294</property>
  <property name="kdenlive:id">297</property>
  <property name="kdenlive:file_size">654414</property>
  <property name="kdenlive:file_hash">8f284d917f65420ee6167894cb40d849</property>
  <property name="kdenlive:audio_max0">210</property>
  <property name="xml">was here</property>
  <property name="set.test_audio">0</property>
  <property name="set.test_image">1</property>
 </producer>
 <producer id="producer731" in="00:00:00.000" out="00:00:01.683">
  <property name="length">102</property>
  <property name="eof">pause</property>
  <property name="resource">/home/federico/Nextcloud/Kden/EditingUT/Sound/Punch_Hit_Stomp/bamboo hit.wav</property>
  <property name="audio_index">0</property>
  <property name="video_index">-1</property>
  <property name="mute_on_pause">0</property>
  <property name="mlt_service">avformat-novalidate</property>
  <property name="meta.media.nb_streams">1</property>
  <property name="meta.media.0.stream.type">audio</property>
  <property name="meta.media.0.codec.sample_fmt">s16</property>
  <property name="meta.media.0.codec.sample_rate">44100</property>
  <property name="meta.media.0.codec.channels">2</property>
  <property name="meta.media.0.codec.name">pcm_s16le</property>
  <property name="meta.media.0.codec.long_name">PCM signed 16-bit little-endian</property>
  <property name="meta.media.0.codec.bit_rate">1411200</property>
  <property name="meta.attr.encoder.markup">Lavf60.16.100</property>
  <property name="seekable">1</property>
  <property name="kdenlive:clipname"/>
  <property name="kdenlive:clip_type">1</property>
  <property name="kdenlive:folderid">356</property>
  <property name="kdenlive:id">360</property>
  <property name="kdenlive:file_size">299598</property>
  <property name="kdenlive:file_hash">48dd56455e6d12ec1ad4e999643f73eb</property>
  <property name="kdenlive:audio_max0">209</property>
  <property name="kdenlive:zone_in">63</property>
  <property name="kdenlive:zone_out">102</property>
  <property name="xml">was here</property>
  <property name="set.test_audio">0</property>
  <property name="set.test_image">1</property>
 </producer>
 <producer id="producer732" in="00:00:00.000" out="02:27:56.617">
  <property name="length">532598</property>
  <property name="eof">pause</property>
  <property name="resource">/home/federico/Videos/Edit/Kden/ProxyRender/proxy/fa2e21925daa2aa504e340903ed9d0c2.mov</property>
  <property name="audio_index">1</property>
  <property name="video_index">0</property>
  <property name="mute_on_pause">0</property>
  <property name="mlt_service">avformat-novalidate</property>
  <property name="seekable">1</property>
  <property name="aspect_ratio">1</property>
  <property name="format">3</property>
  <property name="kdenlive:clipname"/>
  <property name="kdenlive:clip_type">0</property>
  <property name="kdenlive:folderid">4</property>
  <property name="kdenlive:id">683</property>
  <property name="kdenlive:file_size">3890870258</property>
  <property name="kdenlive:file_hash">fa2e21925daa2aa504e340903ed9d0c2</property>
  <property name="kdenlive:proxy">/home/federico/Videos/Edit/Kden/ProxyRender/proxy/fa2e21925daa2aa504e340903ed9d0c2.mov</property>
  <property name="kdenlive:originalurl">/home/federico/Videos/Edit/Projects/DS3_cinders/5-Stream/5 - difesa - dark souls iii cinders  anima della sfida ii 5.mkv</property>
  <property name="kdenlive:original.mlt_type">producer</property>
  <property name="kdenlive:original.in">00:00:00.000</property>
  <property name="kdenlive:original.out">02:27:56.617</property>
  <property name="kdenlive:original.length">532598</property>
  <property name="kdenlive:original.eof">pause</property>
  <property name="kdenlive:original.resource">/home/federico/Videos/Edit/Projects/DS3_cinders/5-Stream/5 - difesa - dark souls iii cinders  anima della sfida ii 5.mkv</property>
  <property name="kdenlive:original.meta.media.nb_streams">2</property>
  <property name="kdenlive:original.meta.media.0.stream.type">video</property>
  <property name="kdenlive:original.meta.media.0.stream.frame_rate">60</property>
  <property name="kdenlive:original.meta.media.0.stream.sample_aspect_ratio">1</property>
  <property name="kdenlive:original.meta.media.0.codec.width">1920</property>
  <property name="kdenlive:original.meta.media.0.codec.height">1080</property>
  <property name="kdenlive:original.meta.media.0.codec.rotate">0</property>
  <property name="kdenlive:original.meta.media.0.codec.pix_fmt">yuv420p</property>
  <property name="kdenlive:original.meta.media.0.codec.sample_aspect_ratio">0</property>
  <property name="kdenlive:original.meta.media.0.codec.colorspace">709</property>
  <property name="kdenlive:original.meta.media.0.codec.color_trc">1</property>
  <property name="kdenlive:original.meta.media.0.codec.name">vp9</property>
  <property name="kdenlive:original.meta.media.0.codec.long_name">Google VP9</property>
  <property name="kdenlive:original.meta.media.0.codec.bit_rate">0</property>
  <property name="kdenlive:original.meta.attr.0.stream.language.markup">eng</property>
  <property name="kdenlive:original.meta.attr.0.stream.DURATION.markup">02:27:56.599000000</property>
  <property name="kdenlive:original.meta.media.1.stream.type">audio</property>
  <property name="kdenlive:original.meta.media.1.codec.sample_fmt">fltp</property>
  <property name="kdenlive:original.meta.media.1.codec.sample_rate">48000</property>
  <property name="kdenlive:original.meta.media.1.codec.channels">2</property>
  <property name="kdenlive:original.meta.media.1.codec.name">opus</property>
  <property name="kdenlive:original.meta.media.1.codec.long_name">Opus</property>
  <property name="kdenlive:original.meta.media.1.codec.bit_rate">0</property>
  <property name="kdenlive:original.meta.attr.1.stream.language.markup">eng</property>
  <property name="kdenlive:original.meta.attr.1.stream.DURATION.markup">02:27:56.628000000</property>
  <property name="kdenlive:original.meta.attr.ENCODER.markup">Lavf60.16.100</property>
  <property name="kdenlive:original.seekable">1</property>
  <property name="kdenlive:original.width">1920</property>
  <property name="kdenlive:original.height">1080</property>
  <property name="kdenlive:original.meta.media.sample_aspect_num">1</property>
  <property name="kdenlive:original.meta.media.sample_aspect_den">1</property>
  <property name="kdenlive:original.aspect_ratio">1</property>
  <property name="kdenlive:original.format">3</property>
  <property name="kdenlive:original.audio_index">1</property>
  <property name="kdenlive:original.video_index">0</property>
  <property name="kdenlive:original.mute_on_pause">0</property>
  <property name="kdenlive:original.mlt_service">avformat-novalidate</property>
  <property name="kdenlive:original.meta.media.frame_rate_num">60</property>
  <property name="kdenlive:original.meta.media.frame_rate_den">1</property>
  <property name="kdenlive:original.meta.media.colorspace">709</property>
  <property name="kdenlive:original.meta.media.color_trc">1</property>
  <property name="kdenlive:original.meta.media.has_b_frames">0</property>
  <property name="kdenlive:original.meta.media.width">1920</property>
  <property name="kdenlive:original.meta.media.height">1080</property>
  <property name="kdenlive:original.meta.media.color_range">mpeg</property>
  <property name="kdenlive:original.meta.media.top_field_first">0</property>
  <property name="kdenlive:original.meta.media.progressive">1</property>
  <property name="kdenlive:original.kdenlive:clip_type">0</property>
  <property name="kdenlive:original.kdenlive:folderid">4</property>
  <property name="kdenlive:original.kdenlive:id">683</property>
  <property name="kdenlive:original.kdenlive:file_size">3890870258</property>
  <property name="kdenlive:original.kdenlive:file_hash">fa2e21925daa2aa504e340903ed9d0c2</property>
  <property name="kdenlive:original.backup">1</property>
  <property name="kdenlive:audio_max1">195</property>
  <property name="xml">was here</property>
  <property name="meta.media.nb_streams">2</property>
  <property name="meta.media.0.stream.type">video</property>
  <property name="meta.media.0.stream.frame_rate">60</property>
  <property name="meta.media.0.stream.sample_aspect_ratio">1</property>
  <property name="meta.media.0.codec.width">640</property>
  <property name="meta.media.0.codec.height">360</property>
  <property name="meta.media.0.codec.rotate">0</property>
  <property name="meta.media.0.codec.pix_fmt">yuv420p</property>
  <property name="meta.media.0.codec.sample_aspect_ratio">1</property>
  <property name="meta.media.0.codec.colorspace">709</property>
  <property name="meta.media.0.codec.color_trc">1</property>
  <property name="meta.media.0.codec.name">h264</property>
  <property name="meta.media.0.codec.long_name">H.264 / AVC / MPEG-4 AVC / MPEG-4 part 10</property>
  <property name="meta.media.0.codec.bit_rate">5200999</property>
  <property name="meta.attr.0.stream.language.markup">eng</property>
  <property name="meta.attr.0.stream.DURATION.markup">02:27:56.599000000</property>
  <property name="meta.media.1.stream.type">audio</property>
  <property name="meta.media.1.codec.sample_fmt">fltp</property>
  <property name="meta.media.1.codec.sample_rate">48000</property>
  <property name="meta.media.1.codec.channels">2</property>
  <property name="meta.media.1.codec.name">aac</property>
  <property name="meta.media.1.codec.long_name">AAC (Advanced Audio Coding)</property>
  <property name="meta.media.1.codec.bit_rate">128316</property>
  <property name="meta.attr.1.stream.language.markup">eng</property>
  <property name="meta.attr.1.stream.DURATION.markup">02:27:56.628000000</property>
  <property name="meta.attr.ENCODER.markup">Lavf60.16.100</property>
  <property name="meta.media.sample_aspect_num">1</property>
  <property name="meta.media.sample_aspect_den">1</property>
  <property name="meta.media.frame_rate_num">60</property>
  <property name="meta.media.frame_rate_den">1</property>
  <property name="meta.media.colorspace">709</property>
  <property name="meta.media.color_trc">1</property>
  <property name="meta.media.has_b_frames">0</property>
  <property name="meta.media.width">640</property>
  <property name="meta.media.height">360</property>
  <property name="meta.media.color_range">mpeg</property>
  <property name="meta.media.top_field_first">0</property>
  <property name="meta.media.progressive">1</property>
  <property name="meta.attr.0.stream.handler_name.markup">VideoHandler</property>
  <property name="meta.attr.0.stream.vendor_id.markup">FFMP</property>
  <property name="meta.attr.0.stream.encoder.markup">Lavc59.18.100 libx264</property>
  <property name="meta.attr.1.stream.handler_name.markup">SoundHandler</property>
  <property name="meta.attr.1.stream.vendor_id.markup">[0][0][0][0]</property>
  <property name="meta.attr.major_brand.markup">qt  </property>
  <property name="meta.attr.minor_version.markup">512</property>
  <property name="meta.attr.compatible_brands.markup">qt  </property>
  <property name="meta.attr.encoder.markup">Lavf59.16.100</property>
  <property name="set.test_audio">0</property>
  <property name="set.test_image">1</property>
 </producer>
 <producer id="producer733" in="00:00:00.000" out="00:00:01.550">
  <property name="length">94</property>
  <property name="eof">pause</property>
  <property name="resource">/home/federico/Nextcloud/Kden/EditingUT/Sound/Punch_Hit_Stomp/stomp.wav</property>
  <property name="audio_index">0</property>
  <property name="video_index">-1</property>
  <property name="mute_on_pause">0</property>
  <property name="mlt_service">avformat-novalidate</property>
  <property name="meta.media.nb_streams">1</property>
  <property name="meta.media.0.stream.type">audio</property>
  <property name="meta.media.0.codec.sample_fmt">s16</property>
  <property name="meta.media.0.codec.sample_rate">44100</property>
  <property name="meta.media.0.codec.channels">2</property>
  <property name="meta.media.0.codec.name">pcm_s16le</property>
  <property name="meta.media.0.codec.long_name">PCM signed 16-bit little-endian</property>
  <property name="meta.media.0.codec.bit_rate">1411200</property>
  <property name="meta.attr.encoder.markup">Lavf60.16.100</property>
  <property name="seekable">1</property>
  <property name="kdenlive:clipname"/>
  <property name="kdenlive:clip_type">1</property>
  <property name="kdenlive:folderid">356</property>
  <property name="kdenlive:id">374</property>
  <property name="kdenlive:file_size">276558</property>
  <property name="kdenlive:file_hash">c76b71439fb617f25c76d80c448674af</property>
  <property name="kdenlive:audio_max0">256</property>
  <property name="xml">was here</property>
  <property name="set.test_audio">0</property>
  <property name="set.test_image">1</property>
 </producer>
 <producer id="producer734" in="00:00:00.000" out="00:00:00.667">
  <property name="length">41</property>
  <property name="eof">pause</property>
  <property name="resource">/home/federico/Nextcloud/Kden/EditingUT/Sound/S-whoosh/whoosh.wav</property>
  <property name="audio_index">0</property>
  <property name="video_index">-1</property>
  <property name="mute_on_pause">0</property>
  <property name="mlt_service">avformat-novalidate</property>
  <property name="meta.media.nb_streams">1</property>
  <property name="meta.media.0.stream.type">audio</property>
  <property name="meta.media.0.codec.sample_fmt">s16</property>
  <property name="meta.media.0.codec.sample_rate">44100</property>
  <property name="meta.media.0.codec.channels">2</property>
  <property name="meta.media.0.codec.name">pcm_s16le</property>
  <property name="meta.media.0.codec.long_name">PCM signed 16-bit little-endian</property>
  <property name="meta.media.0.codec.bit_rate">1411200</property>
  <property name="meta.attr.encoder.markup">Lavf60.16.100</property>
  <property name="seekable">1</property>
  <property name="kdenlive:clipname"/>
  <property name="kdenlive:clip_type">1</property>
  <property name="kdenlive:folderid">376</property>
  <property name="kdenlive:id">380</property>
  <property name="kdenlive:file_size">119886</property>
  <property name="kdenlive:file_hash">ad8eb5d24a882b858aa3bb75a6fdf8df</property>
  <property name="kdenlive:audio_max0">202</property>
  <property name="xml">was here</property>
  <property name="set.test_audio">0</property>
  <property name="set.test_image">1</property>
 </producer>
 <producer id="producer735" in="00:00:00.000" out="00:00:02.567">
  <property name="length">155</property>
  <property name="eof">pause</property>
  <property name="resource">/home/federico/Nextcloud/Kden/EditingUT/Sound/Fart/normal fart ..wav</property>
  <property name="audio_index">0</property>
  <property name="video_index">-1</property>
  <property name="mute_on_pause">0</property>
  <property name="mlt_service">avformat-novalidate</property>
  <property name="meta.media.nb_streams">1</property>
  <property name="meta.media.0.stream.type">audio</property>
  <property name="meta.media.0.codec.sample_fmt">s16</property>
  <property name="meta.media.0.codec.sample_rate">44100</property>
  <property name="meta.media.0.codec.channels">2</property>
  <property name="meta.media.0.codec.name">pcm_s16le</property>
  <property name="meta.media.0.codec.long_name">PCM signed 16-bit little-endian</property>
  <property name="meta.media.0.codec.bit_rate">1411200</property>
  <property name="meta.attr.encoder.markup">Lavf60.16.100</property>
  <property name="seekable">1</property>
  <property name="kdenlive:clipname"/>
  <property name="kdenlive:clip_type">1</property>
  <property name="kdenlive:folderid">251</property>
  <property name="kdenlive:id">254</property>
  <property name="kdenlive:file_size">456270</property>
  <property name="kdenlive:file_hash">44a325f56c646520e2d0bef31d17b957</property>
  <property name="kdenlive:audio_max0">141</property>
  <property name="kdenlive:zone_in">62</property>
  <property name="kdenlive:zone_out">155</property>
  <property name="xml">was here</property>
  <property name="set.test_audio">0</property>
  <property name="set.test_image">1</property>
 </producer>
 <producer id="producer736" in="00:00:00.000" out="02:38:45.867">
  <property name="length">571553</property>
  <property name="eof">pause</property>
  <property name="resource">/home/federico/Videos/Edit/Kden/ProxyRender/proxy/cf314eebe17b047f9605a52d59418270.mov</property>
  <property name="audio_index">1</property>
  <property name="video_index">0</property>
  <property name="mute_on_pause">0</property>
  <property name="mlt_service">avformat-novalidate</property>
  <property name="meta.media.nb_streams">2</property>
  <property name="meta.media.0.stream.type">video</property>
  <property name="meta.media.0.stream.frame_rate">60</property>
  <property name="meta.media.0.stream.sample_aspect_ratio">1</property>
  <property name="meta.media.0.codec.width">640</property>
  <property name="meta.media.0.codec.height">360</property>
  <property name="meta.media.0.codec.rotate">0</property>
  <property name="meta.media.0.codec.pix_fmt">yuv420p</property>
  <property name="meta.media.0.codec.sample_aspect_ratio">1</property>
  <property name="meta.media.0.codec.colorspace">709</property>
  <property name="meta.media.0.codec.color_trc">1</property>
  <property name="meta.media.0.codec.name">h264</property>
  <property name="meta.media.0.codec.long_name">H.264 / AVC / MPEG-4 AVC / MPEG-4 part 10</property>
  <property name="meta.media.0.codec.bit_rate">5667419</property>
  <property name="meta.attr.0.stream.language.markup">eng</property>
  <property name="meta.attr.0.stream.handler_name.markup">VideoHandler</property>
  <property name="meta.attr.0.stream.vendor_id.markup">FFMP</property>
  <property name="meta.attr.0.stream.encoder.markup">Lavc59.18.100 libx264</property>
  <property name="meta.media.1.stream.type">audio</property>
  <property name="meta.media.1.codec.sample_fmt">fltp</property>
  <property name="meta.media.1.codec.sample_rate">48000</property>
  <property name="meta.media.1.codec.channels">2</property>
  <property name="meta.media.1.codec.name">aac</property>
  <property name="meta.media.1.codec.long_name">AAC (Advanced Audio Coding)</property>
  <property name="meta.media.1.codec.bit_rate">129290</property>
  <property name="meta.attr.1.stream.language.markup">eng</property>
  <property name="meta.attr.1.stream.handler_name.markup">SoundHandler</property>
  <property name="meta.attr.1.stream.vendor_id.markup">[0][0][0][0]</property>
  <property name="meta.attr.major_brand.markup">qt  </property>
  <property name="meta.attr.minor_version.markup">512</property>
  <property name="meta.attr.compatible_brands.markup">qt  </property>
  <property name="meta.attr.encoder.markup">Lavf59.16.100</property>
  <property name="seekable">1</property>
  <property name="meta.media.sample_aspect_num">1</property>
  <property name="meta.media.sample_aspect_den">1</property>
  <property name="aspect_ratio">1</property>
  <property name="format">3</property>
  <property name="kdenlive:clipname">6 - sfida accettata - dark souls iii cinders  anima della sfida ii 6.mkv</property>
  <property name="kdenlive:clip_type">0</property>
  <property name="kdenlive:folderid">4</property>
  <property name="kdenlive:id">684</property>
  <property name="kdenlive:file_size">4537358114</property>
  <property name="kdenlive:file_hash">cf314eebe17b047f9605a52d59418270</property>
  <property name="kdenlive:proxy">/home/federico/Videos/Edit/Kden/ProxyRender/proxy/cf314eebe17b047f9605a52d59418270.mov</property>
  <property name="kdenlive:originalurl">/home/federico/Videos/Edit/Projects/DS3_cinders/5-Stream/6 - sfida accettata - dark souls iii cinders  anima della sfida ii 6.mkv</property>
  <property name="kdenlive:original.mlt_type">producer</property>
  <property name="kdenlive:original.in">00:00:00.000</property>
  <property name="kdenlive:original.out">02:38:45.867</property>
  <property name="kdenlive:original.length">571553</property>
  <property name="kdenlive:original.eof">pause</property>
  <property name="kdenlive:original.resource">/home/federico/Videos/Edit/Projects/DS3_cinders/5-Stream/6 - sfida accettata - dark souls iii cinders  anima della sfida ii 6.mkv</property>
  <property name="kdenlive:original.meta.media.nb_streams">2</property>
  <property name="kdenlive:original.meta.media.0.stream.type">video</property>
  <property name="kdenlive:original.meta.media.0.stream.frame_rate">60</property>
  <property name="kdenlive:original.meta.media.0.stream.sample_aspect_ratio">1</property>
  <property name="kdenlive:original.meta.media.0.codec.width">1920</property>
  <property name="kdenlive:original.meta.media.0.codec.height">1080</property>
  <property name="kdenlive:original.meta.media.0.codec.rotate">0</property>
  <property name="kdenlive:original.meta.media.0.codec.pix_fmt">yuv420p</property>
  <property name="kdenlive:original.meta.media.0.codec.sample_aspect_ratio">0</property>
  <property name="kdenlive:original.meta.media.0.codec.colorspace">709</property>
  <property name="kdenlive:original.meta.media.0.codec.color_trc">1</property>
  <property name="kdenlive:original.meta.media.0.codec.name">vp9</property>
  <property name="kdenlive:original.meta.media.0.codec.long_name">Google VP9</property>
  <property name="kdenlive:original.meta.media.0.codec.bit_rate">0</property>
  <property name="kdenlive:original.meta.attr.0.stream.language.markup">eng</property>
  <property name="kdenlive:original.meta.attr.0.stream.DURATION.markup">02:38:45.866000000</property>
  <property name="kdenlive:original.meta.media.1.stream.type">audio</property>
  <property name="kdenlive:original.meta.media.1.codec.sample_fmt">fltp</property>
  <property name="kdenlive:original.meta.media.1.codec.sample_rate">48000</property>
  <property name="kdenlive:original.meta.media.1.codec.channels">2</property>
  <property name="kdenlive:original.meta.media.1.codec.name">opus</property>
  <property name="kdenlive:original.meta.media.1.codec.long_name">Opus</property>
  <property name="kdenlive:original.meta.media.1.codec.bit_rate">0</property>
  <property name="kdenlive:original.meta.attr.1.stream.language.markup">eng</property>
  <property name="kdenlive:original.meta.attr.1.stream.DURATION.markup">02:38:45.888000000</property>
  <property name="kdenlive:original.meta.attr.ENCODER.markup">Lavf60.16.100</property>
  <property name="kdenlive:original.seekable">1</property>
  <property name="kdenlive:original.width">1920</property>
  <property name="kdenlive:original.height">1080</property>
  <property name="kdenlive:original.meta.media.sample_aspect_num">1</property>
  <property name="kdenlive:original.meta.media.sample_aspect_den">1</property>
  <property name="kdenlive:original.aspect_ratio">1</property>
  <property name="kdenlive:original.format">3</property>
  <property name="kdenlive:original.audio_index">1</property>
  <property name="kdenlive:original.video_index">0</property>
  <property name="kdenlive:original.mute_on_pause">0</property>
  <property name="kdenlive:original.mlt_service">avformat-novalidate</property>
  <property name="kdenlive:original.meta.media.frame_rate_num">60</property>
  <property name="kdenlive:original.meta.media.frame_rate_den">1</property>
  <property name="kdenlive:original.meta.media.colorspace">709</property>
  <property name="kdenlive:original.meta.media.color_trc">1</property>
  <property name="kdenlive:original.meta.media.has_b_frames">0</property>
  <property name="kdenlive:original.meta.media.width">1920</property>
  <property name="kdenlive:original.meta.media.height">1080</property>
  <property name="kdenlive:original.meta.media.color_range">mpeg</property>
  <property name="kdenlive:original.meta.media.top_field_first">0</property>
  <property name="kdenlive:original.meta.media.progressive">1</property>
  <property name="kdenlive:original.kdenlive:clip_type">0</property>
  <property name="kdenlive:original.kdenlive:folderid">4</property>
  <property name="kdenlive:original.kdenlive:id">684</property>
  <property name="kdenlive:original.kdenlive:file_size">4537358114</property>
  <property name="kdenlive:original.kdenlive:file_hash">cf314eebe17b047f9605a52d59418270</property>
  <property name="kdenlive:original.backup">1</property>
  <property name="kdenlive:audio_max1">196</property>
  <property name="xml">was here</property>
  <property name="meta.media.frame_rate_num">60</property>
  <property name="meta.media.frame_rate_den">1</property>
  <property name="meta.media.colorspace">709</property>
  <property name="meta.media.color_trc">1</property>
  <property name="meta.media.has_b_frames">0</property>
  <property name="meta.media.width">640</property>
  <property name="meta.media.height">360</property>
  <property name="meta.media.color_range">mpeg</property>
  <property name="meta.media.top_field_first">0</property>
  <property name="meta.media.progressive">1</property>
  <property name="set.test_audio">0</property>
  <property name="set.test_image">1</property>
 </producer>
 <producer id="producer737" in="00:00:00.000" out="00:00:01.117">
  <property name="length">68</property>
  <property name="eof">pause</property>
  <property name="resource">/home/federico/Nextcloud/Kden/EditingUT/Video/Explosion/house exploding meme.mkv</property>
  <property name="audio_index">1</property>
  <property name="video_index">0</property>
  <property name="mute_on_pause">0</property>
  <property name="mlt_service">avformat-novalidate</property>
  <property name="seekable">1</property>
  <property name="aspect_ratio">1</property>
  <property name="format">3</property>
  <property name="kdenlive:clipname"/>
  <property name="kdenlive:clip_type">0</property>
  <property name="kdenlive:folderid">447</property>
  <property name="kdenlive:id">449</property>
  <property name="kdenlive:file_size">2409206</property>
  <property name="kdenlive:file_hash">849111d4251f35132f1fb8a86c2308a4</property>
  <property name="kdenlive:audio_max1">182</property>
  <property name="xml">was here</property>
  <property name="meta.media.nb_streams">2</property>
  <property name="meta.media.0.stream.type">video</property>
  <property name="meta.media.0.stream.frame_rate">60</property>
  <property name="meta.media.0.stream.sample_aspect_ratio">1</property>
  <property name="meta.media.0.codec.width">1920</property>
  <property name="meta.media.0.codec.height">1080</property>
  <property name="meta.media.0.codec.rotate">0</property>
  <property name="meta.media.0.codec.pix_fmt">yuv420p</property>
  <property name="meta.media.0.codec.sample_aspect_ratio">1</property>
  <property name="meta.media.0.codec.colorspace">709</property>
  <property name="meta.media.0.codec.color_trc">1</property>
  <property name="meta.media.0.codec.name">h264</property>
  <property name="meta.media.0.codec.long_name">H.264 / AVC / MPEG-4 AVC / MPEG-4 part 10</property>
  <property name="meta.media.0.codec.bit_rate">0</property>
  <property name="meta.attr.0.stream.DURATION.markup">00:00:01.121000000</property>
  <property name="meta.media.1.stream.type">audio</property>
  <property name="meta.media.1.codec.sample_fmt">fltp</property>
  <property name="meta.media.1.codec.sample_rate">48000</property>
  <property name="meta.media.1.codec.channels">2</property>
  <property name="meta.media.1.codec.name">aac</property>
  <property name="meta.media.1.codec.long_name">AAC (Advanced Audio Coding)</property>
  <property name="meta.media.1.codec.bit_rate">0</property>
  <property name="meta.attr.1.stream.DURATION.markup">00:00:01.130000000</property>
  <property name="meta.attr.ENCODER.markup">Lavf59.16.100</property>
  <property name="meta.media.sample_aspect_num">1</property>
  <property name="meta.media.sample_aspect_den">1</property>
  <property name="meta.media.frame_rate_num">60</property>
  <property name="meta.media.frame_rate_den">1</property>
  <property name="meta.media.colorspace">709</property>
  <property name="meta.media.color_trc">1</property>
  <property name="meta.media.has_b_frames">0</property>
  <property name="meta.media.width">1920</property>
  <property name="meta.media.height">1080</property>
  <property name="meta.media.color_range">mpeg</property>
  <property name="meta.media.top_field_first">0</property>
  <property name="meta.media.progressive">1</property>
  <property name="set.test_audio">0</property>
  <property name="set.test_image">1</property>
 </producer>
 <producer id="producer738" in="00:00:00.000" out="00:00:02.883">
  <property name="length">174</property>
  <property name="eof">pause</property>
  <property name="resource">/home/federico/Nextcloud/Kden/EditingUT/Sound/Punch_Hit_Stomp/heavy object hit and body thud.wav</property>
  <property name="audio_index">0</property>
  <property name="video_index">-1</property>
  <property name="mute_on_pause">0</property>
  <property name="mlt_service">avformat-novalidate</property>
  <property name="meta.media.nb_streams">1</property>
  <property name="meta.media.0.stream.type">audio</property>
  <property name="meta.media.0.codec.sample_fmt">s16</property>
  <property name="meta.media.0.codec.sample_rate">44100</property>
  <property name="meta.media.0.codec.channels">2</property>
  <property name="meta.media.0.codec.name">pcm_s16le</property>
  <property name="meta.media.0.codec.long_name">PCM signed 16-bit little-endian</property>
  <property name="meta.media.0.codec.bit_rate">1411200</property>
  <property name="meta.attr.encoder.markup">Lavf60.16.100</property>
  <property name="seekable">1</property>
  <property name="kdenlive:clipname"/>
  <property name="kdenlive:clip_type">1</property>
  <property name="kdenlive:folderid">356</property>
  <property name="kdenlive:id">364</property>
  <property name="kdenlive:file_size">511566</property>
  <property name="kdenlive:file_hash">29a353ebfd10d440b7412af05851d7b3</property>
  <property name="kdenlive:audio_max0">249</property>
  <property name="kdenlive:zone_in">71</property>
  <property name="kdenlive:zone_out">93</property>
  <property name="xml">was here</property>
  <property name="set.test_audio">0</property>
  <property name="set.test_image">1</property>
 </producer>
 <producer id="producer739" in="00:00:00.000" out="00:00:05.150">
  <property name="length">310</property>
  <property name="eof">pause</property>
  <property name="resource">/home/federico/Nextcloud/Kden/EditingUT/MemeFresh/slenderman death.wav</property>
  <property name="audio_index">0</property>
  <property name="video_index">-1</property>
  <property name="mute_on_pause">0</property>
  <property name="mlt_service">avformat-novalidate</property>
  <property name="meta.media.nb_streams">1</property>
  <property name="meta.media.0.stream.type">audio</property>
  <property name="meta.media.0.codec.sample_fmt">s16</property>
  <property name="meta.media.0.codec.sample_rate">44100</property>
  <property name="meta.media.0.codec.channels">2</property>
  <property name="meta.media.0.codec.name">pcm_s16le</property>
  <property name="meta.media.0.codec.long_name">PCM signed 16-bit little-endian</property>
  <property name="meta.media.0.codec.bit_rate">1411200</property>
  <property name="meta.attr.encoder.markup">Lavf60.16.100</property>
  <property name="seekable">1</property>
  <property name="kdenlive:clipname"/>
  <property name="kdenlive:clip_type">1</property>
  <property name="kdenlive:folderid">31</property>
  <property name="kdenlive:id">52</property>
  <property name="kdenlive:file_size">912462</property>
  <property name="kdenlive:file_hash">9f9ad9ffc798a6dbba67d586545b5614</property>
  <property name="kdenlive:audio_max0">181</property>
  <property name="kdenlive:zone_in">51</property>
  <property name="kdenlive:zone_out">92</property>
  <property name="xml">was here</property>
  <property name="set.test_audio">0</property>
  <property name="set.test_image">1</property>
 </producer>
 <producer id="producer740" in="00:00:00.000" out="00:00:06.850">
  <property name="length">412</property>
  <property name="eof">pause</property>
  <property name="resource">/home/federico/Nextcloud/Kden/EditingUT/Sound/weeeee! - ..wav</property>
  <property name="meta.media.nb_streams">1</property>
  <property name="meta.media.0.stream.type">audio</property>
  <property name="meta.media.0.codec.sample_fmt">s16</property>
  <property name="meta.media.0.codec.sample_rate">44100</property>
  <property name="meta.media.0.codec.channels">2</property>
  <property name="meta.media.0.codec.name">pcm_s16le</property>
  <property name="meta.media.0.codec.long_name">PCM signed 16-bit little-endian</property>
  <property name="meta.media.0.codec.bit_rate">1411200</property>
  <property name="meta.attr.encoder.markup">Lavf60.16.100</property>
  <property name="seekable">1</property>
  <property name="audio_index">0</property>
  <property name="video_index">-1</property>
  <property name="mute_on_pause">0</property>
  <property name="mlt_service">avformat-novalidate</property>
  <property name="kdenlive:clipname"/>
  <property name="kdenlive:clip_type">1</property>
  <property name="kdenlive:folderid">103</property>
  <property name="kdenlive:id">133</property>
  <property name="kdenlive:file_size">1211982</property>
  <property name="kdenlive:file_hash">8cd325726c839e43e5682bf74a32bf04</property>
  <property name="kdenlive:audio_max0">177</property>
  <property name="xml">was here</property>
  <property name="set.test_audio">0</property>
  <property name="set.test_image">1</property>
 </producer>
 <producer id="producer741" in="00:00:00.000" out="00:00:00.850">
  <property name="length">52</property>
  <property name="eof">pause</property>
  <property name="resource">/home/federico/Videos/Edit/Projects/DS3_cinders/1-DS3_cinders_ROBBBA/bella_merda_reve.wav</property>
  <property name="audio_index">0</property>
  <property name="video_index">-1</property>
  <property name="mute_on_pause">0</property>
  <property name="mlt_service">avformat-novalidate</property>
  <property name="meta.media.nb_streams">1</property>
  <property name="meta.media.0.stream.type">audio</property>
  <property name="meta.media.0.codec.sample_fmt">s16</property>
  <property name="meta.media.0.codec.sample_rate">48000</property>
  <property name="meta.media.0.codec.channels">2</property>
  <property name="meta.media.0.codec.name">pcm_s16le</property>
  <property name="meta.media.0.codec.long_name">PCM signed 16-bit little-endian</property>
  <property name="meta.media.0.codec.bit_rate">1536000</property>
  <property name="meta.attr.encoder.markup">Lavf59.16.100 (libsndfile-1.2.2)</property>
  <property name="seekable">1</property>
  <property name="kdenlive:clipname"/>
  <property name="kdenlive:clip_type">1</property>
  <property name="kdenlive:folderid">-1</property>
  <property name="kdenlive:id">701</property>
  <property name="kdenlive:file_size">166022</property>
  <property name="kdenlive:file_hash">507bcd1b30c32f42f7a880e627648f0c</property>
  <property name="kdenlive:audio_max0">158</property>
  <property name="xml">was here</property>
  <property name="set.test_audio">0</property>
  <property name="set.test_image">1</property>
 </producer>
 <producer id="producer742" in="00:00:00.000" out="00:00:07.400">
  <property name="length">445</property>
  <property name="eof">pause</property>
  <property name="resource">/home/federico/Nextcloud/Kden/EditingUT/MemeFresh/siren meme.wav</property>
  <property name="audio_index">0</property>
  <property name="video_index">-1</property>
  <property name="mute_on_pause">0</property>
  <property name="mlt_service">avformat-novalidate</property>
  <property name="meta.media.nb_streams">1</property>
  <property name="meta.media.0.stream.type">audio</property>
  <property name="meta.media.0.codec.sample_fmt">s16</property>
  <property name="meta.media.0.codec.sample_rate">48000</property>
  <property name="meta.media.0.codec.channels">2</property>
  <property name="meta.media.0.codec.name">pcm_s16le</property>
  <property name="meta.media.0.codec.long_name">PCM signed 16-bit little-endian</property>
  <property name="meta.media.0.codec.bit_rate">1536000</property>
  <property name="meta.attr.encoder.markup">Lavf59.16.100</property>
  <property name="seekable">1</property>
  <property name="kdenlive:clipname"/>
  <property name="kdenlive:clip_type">1</property>
  <property name="kdenlive:folderid">31</property>
  <property name="kdenlive:id">50</property>
  <property name="kdenlive:file_size">1424078</property>
  <property name="kdenlive:file_hash">41a488d1a9b2960398f12688a8941235</property>
  <property name="kdenlive:audio_max0">148</property>
  <property name="kdenlive:zone_in">0</property>
  <property name="kdenlive:zone_out">66</property>
  <property name="xml">was here</property>
  <property name="set.test_audio">0</property>
  <property name="set.test_image">1</property>
 </producer>
 <producer id="producer743" in="00:00:00.000" out="00:00:02.683">
  <property name="length">162</property>
  <property name="eof">pause</property>
  <property name="resource">/home/federico/Nextcloud/Kden/EditingUT/Video/GreenScreen/loading lost connection green screen with.mkv</property>
  <property name="audio_index">1</property>
  <property name="video_index">0</property>
  <property name="mute_on_pause">0</property>
  <property name="mlt_service">avformat-novalidate</property>
  <property name="seekable">1</property>
  <property name="aspect_ratio">1</property>
  <property name="format">3</property>
  <property name="kdenlive:clipname"/>
  <property name="kdenlive:clip_type">0</property>
  <property name="kdenlive:folderid">511</property>
  <property name="kdenlive:id">545</property>
  <property name="kdenlive:file_size">113189</property>
  <property name="kdenlive:file_hash">7ab0d8a0b3d5a2e51d5b0187c9562ab7</property>
  <property name="kdenlive:audio_max1">99</property>
  <property name="kdenlive:zone_in">8</property>
  <property name="kdenlive:zone_out">38</property>
  <property name="xml">was here</property>
  <property name="meta.media.nb_streams">2</property>
  <property name="meta.media.0.stream.type">video</property>
  <property name="meta.media.0.stream.frame_rate">30</property>
  <property name="meta.media.0.stream.sample_aspect_ratio">1</property>
  <property name="meta.media.0.codec.width">1280</property>
  <property name="meta.media.0.codec.height">720</property>
  <property name="meta.media.0.codec.rotate">0</property>
  <property name="meta.media.0.codec.pix_fmt">yuv420p</property>
  <property name="meta.media.0.codec.sample_aspect_ratio">1</property>
  <property name="meta.media.0.codec.colorspace">601</property>
  <property name="meta.media.0.codec.color_trc">1</property>
  <property name="meta.media.0.codec.name">h264</property>
  <property name="meta.media.0.codec.long_name">H.264 / AVC / MPEG-4 AVC / MPEG-4 part 10</property>
  <property name="meta.media.0.codec.bit_rate">0</property>
  <property name="meta.attr.0.stream.HANDLER_NAME.markup">ISO Media file produced by Google Inc.</property>
  <property name="meta.attr.0.stream.VENDOR_ID.markup">[0][0][0][0]</property>
  <property name="meta.attr.0.stream.ENCODER.markup">Lavc60.31.102 libx264</property>
  <property name="meta.attr.0.stream.DURATION.markup">00:00:02.636000000</property>
  <property name="meta.media.1.stream.type">audio</property>
  <property name="meta.media.1.codec.sample_fmt">fltp</property>
  <property name="meta.media.1.codec.sample_rate">44100</property>
  <property name="meta.media.1.codec.channels">2</property>
  <property name="meta.media.1.codec.name">vorbis</property>
  <property name="meta.media.1.codec.long_name">Vorbis</property>
  <property name="meta.media.1.codec.bit_rate">0</property>
  <property name="meta.attr.1.stream.language.markup">eng</property>
  <property name="meta.attr.1.stream.HANDLER_NAME.markup">ISO Media file produced by Google Inc.</property>
  <property name="meta.attr.1.stream.VENDOR_ID.markup">[0][0][0][0]</property>
  <property name="meta.attr.1.stream.ENCODER.markup">Lavc60.31.102 libvorbis</property>
  <property name="meta.attr.1.stream.DURATION.markup">00:00:02.697000000</property>
  <property name="meta.attr.COMPATIBLE_BRANDS.markup">isomiso2avc1mp41</property>
  <property name="meta.attr.MAJOR_BRAND.markup">isom</property>
  <property name="meta.attr.MINOR_VERSION.markup">512</property>
  <property name="meta.attr.ENCODER.markup">Lavf60.16.100</property>
  <property name="meta.media.sample_aspect_num">1</property>
  <property name="meta.media.sample_aspect_den">1</property>
  <property name="meta.media.frame_rate_num">30</property>
  <property name="meta.media.frame_rate_den">1</property>
  <property name="meta.media.colorspace">601</property>
  <property name="meta.media.color_trc">1</property>
  <property name="meta.media.has_b_frames">2</property>
  <property name="meta.media.width">1280</property>
  <property name="meta.media.height">720</property>
  <property name="meta.media.color_range">mpeg</property>
  <property name="meta.media.top_field_first">0</property>
  <property name="meta.media.progressive">1</property>
  <property name="set.test_audio">0</property>
  <property name="set.test_image">1</property>
 </producer>
 <producer id="producer744" in="00:00:00.000" out="00:00:10.650">
  <property name="length">640</property>
  <property name="eof">pause</property>
  <property name="resource">/home/federico/Videos/Edit/Projects/DS3_cinders/1-DS3_cinders_ROBBBA/gardaland.mkv</property>
  <property name="audio_index">1</property>
  <property name="video_index">0</property>
  <property name="mute_on_pause">0</property>
  <property name="mlt_service">avformat-novalidate</property>
  <property name="seekable">1</property>
  <property name="aspect_ratio">1</property>
  <property name="format">3</property>
  <property name="kdenlive:clipname"/>
  <property name="kdenlive:clip_type">0</property>
  <property name="kdenlive:folderid">-1</property>
  <property name="kdenlive:id">702</property>
  <property name="kdenlive:file_size">279825</property>
  <property name="kdenlive:file_hash">676fe093cc7caefeff24e87d48c7d3ae</property>
  <property name="kdenlive:audio_max1">184</property>
  <property name="kdenlive:zone_in">0</property>
  <property name="kdenlive:zone_out">116</property>
  <property name="xml">was here</property>
  <property name="meta.media.nb_streams">2</property>
  <property name="meta.media.0.stream.type">video</property>
  <property name="meta.media.0.stream.frame_rate">30</property>
  <property name="meta.media.0.stream.sample_aspect_ratio">0</property>
  <property name="meta.media.0.codec.width">1920</property>
  <property name="meta.media.0.codec.height">1080</property>
  <property name="meta.media.0.codec.rotate">0</property>
  <property name="meta.media.0.codec.pix_fmt">yuv420p</property>
  <property name="meta.media.0.codec.sample_aspect_ratio">1</property>
  <property name="meta.media.0.codec.colorspace">709</property>
  <property name="meta.media.0.codec.color_trc">1</property>
  <property name="meta.media.0.codec.name">h264</property>
  <property name="meta.media.0.codec.long_name">H.264 / AVC / MPEG-4 AVC / MPEG-4 part 10</property>
  <property name="meta.media.0.codec.bit_rate">0</property>
  <property name="meta.attr.0.stream.DURATION.markup">00:00:10.666000000</property>
  <property name="meta.media.1.stream.type">audio</property>
  <property name="meta.media.1.codec.sample_fmt">fltp</property>
  <property name="meta.media.1.codec.sample_rate">48000</property>
  <property name="meta.media.1.codec.channels">2</property>
  <property name="meta.media.1.codec.name">aac</property>
  <property name="meta.media.1.codec.long_name">AAC (Advanced Audio Coding)</property>
  <property name="meta.media.1.codec.bit_rate">0</property>
  <property name="meta.attr.1.stream.title.markup">simple_aac_recording0</property>
  <property name="meta.attr.1.stream.DURATION.markup">00:00:10.666000000</property>
  <property name="meta.attr.ENCODER.markup">Lavf61.1.100</property>
  <property name="meta.media.sample_aspect_num">1</property>
  <property name="meta.media.sample_aspect_den">1</property>
  <property name="meta.media.frame_rate_num">30</property>
  <property name="meta.media.frame_rate_den">1</property>
  <property name="meta.media.colorspace">709</property>
  <property name="meta.media.color_trc">1</property>
  <property name="meta.media.has_b_frames">0</property>
  <property name="meta.media.width">1920</property>
  <property name="meta.media.height">1080</property>
  <property name="meta.media.color_range">mpeg</property>
  <property name="meta.media.top_field_first">0</property>
  <property name="meta.media.progressive">1</property>
  <property name="set.test_audio">0</property>
  <property name="set.test_image">1</property>
 </producer>
 <producer id="producer745" in="00:00:00.000" out="00:00:05.317">
  <property name="length">320</property>
  <property name="eof">pause</property>
  <property name="resource">/home/federico/Nextcloud/Kden/EditingUT/Sound/Horn/train horn -.wav</property>
  <property name="audio_index">0</property>
  <property name="video_index">-1</property>
  <property name="mute_on_pause">0</property>
  <property name="mlt_service">avformat-novalidate</property>
  <property name="meta.media.nb_streams">1</property>
  <property name="meta.media.0.stream.type">audio</property>
  <property name="meta.media.0.codec.sample_fmt">s16</property>
  <property name="meta.media.0.codec.sample_rate">44100</property>
  <property name="meta.media.0.codec.channels">2</property>
  <property name="meta.media.0.codec.name">pcm_s16le</property>
  <property name="meta.media.0.codec.long_name">PCM signed 16-bit little-endian</property>
  <property name="meta.media.0.codec.bit_rate">1411200</property>
  <property name="meta.attr.encoder.markup">Lavf60.16.100</property>
  <property name="seekable">1</property>
  <property name="kdenlive:clipname"/>
  <property name="kdenlive:clip_type">1</property>
  <property name="kdenlive:folderid">303</property>
  <property name="kdenlive:id">310</property>
  <property name="kdenlive:file_size">940110</property>
  <property name="kdenlive:file_hash">938e9dfc7cc85accc843d2dfc2669385</property>
  <property name="kdenlive:audio_max0">174</property>
  <property name="kdenlive:zone_in">50</property>
  <property name="kdenlive:zone_out">151</property>
  <property name="xml">was here</property>
  <property name="set.test_audio">0</property>
  <property name="set.test_image">1</property>
 </producer>
 <producer id="producer746" in="00:00:00.000" out="00:00:04.083">
  <property name="length">246</property>
  <property name="eof">pause</property>
  <property name="resource">/home/federico/Nextcloud/Kden/EditingUT/Sound/BassDrop/earrape bass drop.wav</property>
  <property name="meta.media.nb_streams">1</property>
  <property name="meta.media.0.stream.type">audio</property>
  <property name="meta.media.0.codec.sample_fmt">s16</property>
  <property name="meta.media.0.codec.sample_rate">48000</property>
  <property name="meta.media.0.codec.channels">2</property>
  <property name="meta.media.0.codec.name">pcm_s16le</property>
  <property name="meta.media.0.codec.long_name">PCM signed 16-bit little-endian</property>
  <property name="meta.media.0.codec.bit_rate">1536000</property>
  <property name="meta.attr.encoder.markup">Lavf61.7.100</property>
  <property name="seekable">1</property>
  <property name="audio_index">0</property>
  <property name="video_index">-1</property>
  <property name="mute_on_pause">0</property>
  <property name="mlt_service">avformat-novalidate</property>
  <property name="kdenlive:clipname"/>
  <property name="kdenlive:clip_type">1</property>
  <property name="kdenlive:folderid">158</property>
  <property name="kdenlive:id">163</property>
  <property name="kdenlive:file_size">787278</property>
  <property name="kdenlive:file_hash">2855f4f4c7404ea425396309266ecb5f</property>
  <property name="kdenlive:audio_max0">216</property>
  <property name="xml">was here</property>
  <property name="set.test_audio">0</property>
  <property name="set.test_image">1</property>
 </producer>
 <producer id="producer747" in="00:00:00.000" out="00:00:01.217">
  <property name="length">74</property>
  <property name="eof">pause</property>
  <property name="resource">/home/federico/Nextcloud/Kden/EditingUT/Sound/Minecraft/minecraft death.wav</property>
  <property name="meta.media.nb_streams">1</property>
  <property name="meta.media.0.stream.type">audio</property>
  <property name="meta.media.0.codec.sample_fmt">s16</property>
  <property name="meta.media.0.codec.sample_rate">44100</property>
  <property name="meta.media.0.codec.channels">2</property>
  <property name="meta.media.0.codec.name">pcm_s16le</property>
  <property name="meta.media.0.codec.long_name">PCM signed 16-bit little-endian</property>
  <property name="meta.media.0.codec.bit_rate">1411200</property>
  <property name="meta.attr.encoder.markup">Lavf60.16.100</property>
  <property name="seekable">1</property>
  <property name="audio_index">0</property>
  <property name="video_index">-1</property>
  <property name="mute_on_pause">0</property>
  <property name="mlt_service">avformat-novalidate</property>
  <property name="kdenlive:clipname"/>
  <property name="kdenlive:clip_type">1</property>
  <property name="kdenlive:folderid">327</property>
  <property name="kdenlive:id">336</property>
  <property name="kdenlive:file_size">216654</property>
  <property name="kdenlive:file_hash">f4c1e37e080b97754356d503d16f947d</property>
  <property name="kdenlive:audio_max0">181</property>
  <property name="xml">was here</property>
  <property name="set.test_audio">0</property>
  <property name="set.test_image">1</property>
 </producer>
 <producer id="producer748" in="00:00:00.000" out="00:00:14.717">
  <property name="length">884</property>
  <property name="eof">pause</property>
  <property name="resource">/home/federico/Nextcloud/Kden/EditingUT/Sound/Fart/dramatic fart.wav</property>
  <property name="meta.media.nb_streams">1</property>
  <property name="meta.media.0.stream.type">audio</property>
  <property name="meta.media.0.codec.sample_fmt">s16</property>
  <property name="meta.media.0.codec.sample_rate">44100</property>
  <property name="meta.media.0.codec.channels">2</property>
  <property name="meta.media.0.codec.name">pcm_s16le</property>
  <property name="meta.media.0.codec.long_name">PCM signed 16-bit little-endian</property>
  <property name="meta.media.0.codec.bit_rate">1411200</property>
  <property name="meta.attr.encoder.markup">Lavf60.16.100</property>
  <property name="seekable">1</property>
  <property name="audio_index">0</property>
  <property name="video_index">-1</property>
  <property name="mute_on_pause">0</property>
  <property name="mlt_service">avformat-novalidate</property>
  <property name="kdenlive:clipname"/>
  <property name="kdenlive:clip_type">1</property>
  <property name="kdenlive:folderid">251</property>
  <property name="kdenlive:id">252</property>
  <property name="kdenlive:file_size">2598990</property>
  <property name="kdenlive:file_hash">5998e66e979e1f6765906a42216de72a</property>
  <property name="kdenlive:audio_max0">252</property>
  <property name="kdenlive:zone_in">471</property>
  <property name="kdenlive:zone_out">884</property>
  <property name="xml">was here</property>
  <property name="set.test_audio">0</property>
  <property name="set.test_image">1</property>
 </producer>
 <producer id="producer749" in="00:00:00.000" out="01:50:41.183">
  <property name="length">398472</property>
  <property name="eof">pause</property>
  <property name="resource">/home/federico/Videos/Edit/Kden/ProxyRender/proxy/31ec4e3b8500d553e125625112366d7f.mov</property>
  <property name="audio_index">1</property>
  <property name="video_index">0</property>
  <property name="mute_on_pause">0</property>
  <property name="mlt_service">avformat-novalidate</property>
  <property name="meta.media.nb_streams">2</property>
  <property name="meta.media.0.stream.type">video</property>
  <property name="meta.media.0.stream.frame_rate">60</property>
  <property name="meta.media.0.stream.sample_aspect_ratio">1</property>
  <property name="meta.media.0.codec.width">640</property>
  <property name="meta.media.0.codec.height">360</property>
  <property name="meta.media.0.codec.rotate">0</property>
  <property name="meta.media.0.codec.pix_fmt">yuv420p</property>
  <property name="meta.media.0.codec.sample_aspect_ratio">1</property>
  <property name="meta.media.0.codec.colorspace">709</property>
  <property name="meta.media.0.codec.color_trc">1</property>
  <property name="meta.media.0.codec.name">h264</property>
  <property name="meta.media.0.codec.long_name">H.264 / AVC / MPEG-4 AVC / MPEG-4 part 10</property>
  <property name="meta.media.0.codec.bit_rate">5578912</property>
  <property name="meta.attr.0.stream.language.markup">eng</property>
  <property name="meta.attr.0.stream.handler_name.markup">VideoHandler</property>
  <property name="meta.attr.0.stream.vendor_id.markup">FFMP</property>
  <property name="meta.attr.0.stream.encoder.markup">Lavc59.18.100 libx264</property>
  <property name="meta.media.1.stream.type">audio</property>
  <property name="meta.media.1.codec.sample_fmt">fltp</property>
  <property name="meta.media.1.codec.sample_rate">48000</property>
  <property name="meta.media.1.codec.channels">2</property>
  <property name="meta.media.1.codec.name">aac</property>
  <property name="meta.media.1.codec.long_name">AAC (Advanced Audio Coding)</property>
  <property name="meta.media.1.codec.bit_rate">127625</property>
  <property name="meta.attr.1.stream.language.markup">eng</property>
  <property name="meta.attr.1.stream.handler_name.markup">SoundHandler</property>
  <property name="meta.attr.1.stream.vendor_id.markup">[0][0][0][0]</property>
  <property name="meta.attr.major_brand.markup">qt  </property>
  <property name="meta.attr.minor_version.markup">512</property>
  <property name="meta.attr.compatible_brands.markup">qt  </property>
  <property name="meta.attr.encoder.markup">Lavf59.16.100</property>
  <property name="seekable">1</property>
  <property name="meta.media.sample_aspect_num">1</property>
  <property name="meta.media.sample_aspect_den">1</property>
  <property name="aspect_ratio">1</property>
  <property name="format">3</property>
  <property name="kdenlive:clipname">8 - playground - dark souls iii cinders  anima della sfida ii 8.mkv</property>
  <property name="kdenlive:clip_type">0</property>
  <property name="kdenlive:folderid">4</property>
  <property name="kdenlive:id">686</property>
  <property name="kdenlive:file_size">3569794435</property>
  <property name="kdenlive:file_hash">31ec4e3b8500d553e125625112366d7f</property>
  <property name="kdenlive:proxy">/home/federico/Videos/Edit/Kden/ProxyRender/proxy/31ec4e3b8500d553e125625112366d7f.mov</property>
  <property name="kdenlive:originalurl">/home/federico/Videos/Edit/Projects/DS3_cinders/5-Stream/8 - playground - dark souls iii cinders  anima della sfida ii 8.mkv</property>
  <property name="kdenlive:original.mlt_type">producer</property>
  <property name="kdenlive:original.in">00:00:00.000</property>
  <property name="kdenlive:original.out">01:50:41.183</property>
  <property name="kdenlive:original.length">398472</property>
  <property name="kdenlive:original.eof">pause</property>
  <property name="kdenlive:original.resource">/home/federico/Videos/Edit/Projects/DS3_cinders/5-Stream/8 - playground - dark souls iii cinders  anima della sfida ii 8.mkv</property>
  <property name="kdenlive:original.meta.media.nb_streams">2</property>
  <property name="kdenlive:original.meta.media.0.stream.type">video</property>
  <property name="kdenlive:original.meta.media.0.stream.frame_rate">60</property>
  <property name="kdenlive:original.meta.media.0.stream.sample_aspect_ratio">1</property>
  <property name="kdenlive:original.meta.media.0.codec.width">1920</property>
  <property name="kdenlive:original.meta.media.0.codec.height">1080</property>
  <property name="kdenlive:original.meta.media.0.codec.rotate">0</property>
  <property name="kdenlive:original.meta.media.0.codec.pix_fmt">yuv420p</property>
  <property name="kdenlive:original.meta.media.0.codec.sample_aspect_ratio">0</property>
  <property name="kdenlive:original.meta.media.0.codec.colorspace">709</property>
  <property name="kdenlive:original.meta.media.0.codec.color_trc">1</property>
  <property name="kdenlive:original.meta.media.0.codec.name">vp9</property>
  <property name="kdenlive:original.meta.media.0.codec.long_name">Google VP9</property>
  <property name="kdenlive:original.meta.media.0.codec.bit_rate">0</property>
  <property name="kdenlive:original.meta.attr.0.stream.language.markup">eng</property>
  <property name="kdenlive:original.meta.attr.0.stream.DURATION.markup">01:50:41.183000000</property>
  <property name="kdenlive:original.meta.media.1.stream.type">audio</property>
  <property name="kdenlive:original.meta.media.1.codec.sample_fmt">fltp</property>
  <property name="kdenlive:original.meta.media.1.codec.sample_rate">48000</property>
  <property name="kdenlive:original.meta.media.1.codec.channels">2</property>
  <property name="kdenlive:original.meta.media.1.codec.name">opus</property>
  <property name="kdenlive:original.meta.media.1.codec.long_name">Opus</property>
  <property name="kdenlive:original.meta.media.1.codec.bit_rate">0</property>
  <property name="kdenlive:original.meta.attr.1.stream.language.markup">eng</property>
  <property name="kdenlive:original.meta.attr.1.stream.DURATION.markup">01:50:41.208000000</property>
  <property name="kdenlive:original.meta.attr.ENCODER.markup">Lavf60.16.100</property>
  <property name="kdenlive:original.seekable">1</property>
  <property name="kdenlive:original.width">1920</property>
  <property name="kdenlive:original.height">1080</property>
  <property name="kdenlive:original.meta.media.sample_aspect_num">1</property>
  <property name="kdenlive:original.meta.media.sample_aspect_den">1</property>
  <property name="kdenlive:original.aspect_ratio">1</property>
  <property name="kdenlive:original.format">3</property>
  <property name="kdenlive:original.audio_index">1</property>
  <property name="kdenlive:original.video_index">0</property>
  <property name="kdenlive:original.mute_on_pause">0</property>
  <property name="kdenlive:original.mlt_service">avformat-novalidate</property>
  <property name="kdenlive:original.meta.media.frame_rate_num">60</property>
  <property name="kdenlive:original.meta.media.frame_rate_den">1</property>
  <property name="kdenlive:original.meta.media.colorspace">709</property>
  <property name="kdenlive:original.meta.media.color_trc">1</property>
  <property name="kdenlive:original.meta.media.has_b_frames">0</property>
  <property name="kdenlive:original.meta.media.width">1920</property>
  <property name="kdenlive:original.meta.media.height">1080</property>
  <property name="kdenlive:original.meta.media.color_range">mpeg</property>
  <property name="kdenlive:original.meta.media.top_field_first">0</property>
  <property name="kdenlive:original.meta.media.progressive">1</property>
  <property name="kdenlive:original.kdenlive:clip_type">0</property>
  <property name="kdenlive:original.kdenlive:folderid">4</property>
  <property name="kdenlive:original.kdenlive:id">686</property>
  <property name="kdenlive:original.kdenlive:file_size">3569794435</property>
  <property name="kdenlive:original.kdenlive:file_hash">31ec4e3b8500d553e125625112366d7f</property>
  <property name="kdenlive:original.backup">1</property>
  <property name="kdenlive:audio_max1">237</property>
  <property name="xml">was here</property>
  <property name="meta.media.frame_rate_num">60</property>
  <property name="meta.media.frame_rate_den">1</property>
  <property name="meta.media.colorspace">709</property>
  <property name="meta.media.color_trc">1</property>
  <property name="meta.media.has_b_frames">0</property>
  <property name="meta.media.width">640</property>
  <property name="meta.media.height">360</property>
  <property name="meta.media.color_range">mpeg</property>
  <property name="meta.media.top_field_first">0</property>
  <property name="meta.media.progressive">1</property>
  <property name="set.test_audio">0</property>
  <property name="set.test_image">1</property>
 </producer>
 <producer id="producer750" in="00:00:00.000" out="00:00:02.617">
  <property name="length">158</property>
  <property name="eof">pause</property>
  <property name="resource">/home/federico/Nextcloud/Kden/EditingUT/Sound/neil degrasse tyson nyoom.wav</property>
  <property name="meta.media.nb_streams">1</property>
  <property name="meta.media.0.stream.type">audio</property>
  <property name="meta.media.0.codec.sample_fmt">s16</property>
  <property name="meta.media.0.codec.sample_rate">44100</property>
  <property name="meta.media.0.codec.channels">2</property>
  <property name="meta.media.0.codec.name">pcm_s16le</property>
  <property name="meta.media.0.codec.long_name">PCM signed 16-bit little-endian</property>
  <property name="meta.media.0.codec.bit_rate">1411200</property>
  <property name="meta.attr.encoder.markup">Lavf60.16.100</property>
  <property name="seekable">1</property>
  <property name="audio_index">0</property>
  <property name="video_index">-1</property>
  <property name="mute_on_pause">0</property>
  <property name="mlt_service">avformat-novalidate</property>
  <property name="kdenlive:clipname"/>
  <property name="kdenlive:clip_type">1</property>
  <property name="kdenlive:folderid">103</property>
  <property name="kdenlive:id">125</property>
  <property name="kdenlive:file_size">465486</property>
  <property name="kdenlive:file_hash">802101e7d3c889af8fbbf6235a1556aa</property>
  <property name="kdenlive:audio_max0">213</property>
  <property name="xml">was here</property>
  <property name="set.test_audio">0</property>
  <property name="set.test_image">1</property>
 </producer>
 <playlist id="playlist6">
  <property name="kdenlive:audio_track">1</property>
  <blank length="00:00:48.133"/>
  <entry producer="producer675" in="00:00:00.000" out="00:00:01.600">
   <property name="kdenlive:id">671</property>
   <filter id="filter50" in="00:00:00.267" out="00:00:01.600">
    <property name="window">75</property>
    <property name="max_gain">20dB</property>
    <property name="mlt_service">volume</property>
    <property name="kdenlive_id">fadeout</property>
    <property name="gain">1</property>
    <property name="end">0</property>
    <property name="kdenlive:collapsed">0</property>
   </filter>
   <filter id="filter51">
    <property name="window">75</property>
    <property name="max_gain">20dB</property>
    <property name="level">00:00:05.717=-5</property>
    <property name="mlt_service">volume</property>
    <property name="kdenlive_id">-5db</property>
    <property name="kdenlive:collapsed">0</property>
   </filter>
  </entry>
  <blank length="00:00:22.367"/>
  <entry producer="producer675" in="00:00:00.000" out="00:00:02.300">
   <property name="kdenlive:id">671</property>
   <filter id="filter52" in="00:00:00.300" out="00:00:02.300">
    <property name="window">75</property>
    <property name="max_gain">20dB</property>
    <property name="mlt_service">volume</property>
    <property name="kdenlive_id">fadeout</property>
    <property name="gain">1</property>
    <property name="end">0</property>
    <property name="kdenlive:collapsed">0</property>
   </filter>
   <filter id="filter53">
    <property name="window">75</property>
    <property name="max_gain">20dB</property>
    <property name="level">00:00:00.000=-5;00:00:02.300=-5</property>
    <property name="mlt_service">volume</property>
    <property name="kdenlive_id">-5db</property>
    <property name="kdenlive:collapsed">0</property>
   </filter>
  </entry>
  <blank length="00:00:01.017"/>
  <entry producer="producer675" in="00:00:00.000" out="00:00:01.883">
   <property name="kdenlive:id">671</property>
   <filter id="filter54" in="00:00:-0.017" out="00:00:01.883">
    <property name="window">75</property>
    <property name="max_gain">20dB</property>
    <property name="mlt_service">volume</property>
    <property name="kdenlive_id">fadeout</property>
    <property name="gain">1</property>
    <property name="end">0</property>
   </filter>
   <filter id="filter55">
    <property name="window">75</property>
    <property name="max_gain">20dB</property>
    <property name="level">00:00:00.000=-5;00:00:01.883=-5</property>
    <property name="mlt_service">volume</property>
    <property name="kdenlive_id">-5db</property>
   </filter>
  </entry>
  <blank length="00:00:36.117"/>
  <entry producer="producer676" in="00:00:00.000" out="00:00:00.450">
   <property name="kdenlive:id">395</property>
  </entry>
  <blank length="00:00:13.867"/>
  <entry producer="producer677" in="00:00:00.000" out="00:00:01.383">
   <property name="kdenlive:id">649</property>
   <filter id="filter56">
    <property name="window">75</property>
    <property name="max_gain">20dB</property>
    <property name="level">00:00:01.400=-5</property>
    <property name="mlt_service">volume</property>
    <property name="kdenlive_id">-5db</property>
    <property name="kdenlive:collapsed">0</property>
   </filter>
  </entry>
  <blank length="00:00:28.517"/>
  <entry producer="producer678" in="00:00:00.000" out="00:00:01.467">
   <property name="kdenlive:id">324</property>
   <filter id="filter57">
    <property name="window">75</property>
    <property name="max_gain">20dB</property>
    <property name="level">00:00:03.117=-5</property>
    <property name="mlt_service">volume</property>
    <property name="kdenlive_id">-5db</property>
    <property name="kdenlive:collapsed">0</property>
   </filter>
  </entry>
  <blank length="00:00:01.833"/>
  <entry producer="producer679" in="00:00:01.850" out="00:00:05.050">
   <property name="kdenlive:id">299</property>
   <property name="kdenlive:activeeffect">0</property>
   <filter id="filter58">
    <property name="window">75</property>
    <property name="max_gain">20dB</property>
    <property name="level">00:00:00.000=-20</property>
    <property name="mlt_service">volume</property>
    <property name="kdenlive_id">-20db</property>
    <property name="kdenlive:collapsed">0</property>
   </filter>
   <filter id="filter59" in="00:00:01.850" out="00:00:02.167">
    <property name="window">75</property>
    <property name="max_gain">20dB</property>
    <property name="mlt_service">volume</property>
    <property name="kdenlive_id">fadein</property>
    <property name="gain">0</property>
    <property name="end">1</property>
   </filter>
  </entry>
  <blank length="00:00:02.950"/>
  <entry producer="producer680" in="00:00:00.000" out="00:00:01.767">
   <property name="kdenlive:id">690</property>
   <property name="kdenlive:activeeffect">0</property>
   <filter id="filter60">
    <property name="window">75</property>
    <property name="max_gain">20dB</property>
    <property name="level">00:00:00.000=3</property>
    <property name="mlt_service">volume</property>
    <property name="kdenlive_id">+3db</property>
    <property name="kdenlive:collapsed">0</property>
   </filter>
  </entry>
  <blank length="00:00:03.933"/>
  <entry producer="producer675" in="00:00:00.000" out="00:00:01.883">
   <property name="kdenlive:id">671</property>
   <filter id="filter61" in="00:00:-0.017" out="00:00:01.883">
    <property name="window">75</property>
    <property name="max_gain">20dB</property>
    <property name="mlt_service">volume</property>
    <property name="kdenlive_id">fadeout</property>
    <property name="gain">1</property>
    <property name="end">0</property>
    <property name="kdenlive:collapsed">0</property>
   </filter>
   <filter id="filter62">
    <property name="window">75</property>
    <property name="max_gain">20dB</property>
    <property name="level">00:00:00.000=-5;00:00:01.883=-5</property>
    <property name="mlt_service">volume</property>
    <property name="kdenlive_id">-5db</property>
    <property name="kdenlive:collapsed">0</property>
   </filter>
  </entry>
  <blank length="00:00:10.200"/>
  <entry producer="producer675" in="00:00:00.000" out="00:00:01.883">
   <property name="kdenlive:id">671</property>
   <filter id="filter63" in="00:00:-0.017" out="00:00:01.883">
    <property name="window">75</property>
    <property name="max_gain">20dB</property>
    <property name="mlt_service">volume</property>
    <property name="kdenlive_id">fadeout</property>
    <property name="gain">1</property>
    <property name="end">0</property>
    <property name="kdenlive:collapsed">0</property>
   </filter>
   <filter id="filter64">
    <property name="window">75</property>
    <property name="max_gain">20dB</property>
    <property name="level">00:00:00.000=-5;00:00:01.883=-5</property>
    <property name="mlt_service">volume</property>
    <property name="kdenlive_id">-5db</property>
    <property name="kdenlive:collapsed">0</property>
   </filter>
  </entry>
  <blank length="00:00:22.550"/>
  <entry producer="producer675" in="00:00:00.000" out="00:00:01.883">
   <property name="kdenlive:id">671</property>
   <filter id="filter65" in="00:00:-0.017" out="00:00:01.883">
    <property name="window">75</property>
    <property name="max_gain">20dB</property>
    <property name="mlt_service">volume</property>
    <property name="kdenlive_id">fadeout</property>
    <property name="gain">1</property>
    <property name="end">0</property>
    <property name="kdenlive:collapsed">0</property>
   </filter>
   <filter id="filter66">
    <property name="window">75</property>
    <property name="max_gain">20dB</property>
    <property name="level">00:00:00.000=-5;00:00:01.883=-5</property>
    <property name="mlt_service">volume</property>
    <property name="kdenlive_id">-5db</property>
    <property name="kdenlive:collapsed">0</property>
   </filter>
  </entry>
  <blank length="00:00:11.567"/>
  <entry producer="producer681" in="00:00:00.000" out="00:00:01.383">
   <property name="kdenlive:id">688</property>
   <filter id="filter67">
    <property name="window">75</property>
    <property name="max_gain">20dB</property>
    <property name="level">00:00:00.000=3</property>
    <property name="mlt_service">volume</property>
    <property name="kdenlive_id">+3db</property>
    <property name="kdenlive:collapsed">0</property>
   </filter>
  </entry>
  <blank length="00:00:21.550"/>
  <entry producer="producer682" in="00:00:00.617" out="00:00:01.583">
   <property name="kdenlive:id">210</property>
   <filter id="filter68">
    <property name="window">75</property>
    <property name="max_gain">20dB</property>
    <property name="level">00:00:00.617=-5;00:00:01.583=-5</property>
    <property name="mlt_service">volume</property>
    <property name="kdenlive_id">-5db</property>
    <property name="kdenlive:collapsed">0</property>
   </filter>
   <filter id="filter69" in="00:00:01.067" out="00:00:01.583">
    <property name="window">75</property>
    <property name="max_gain">20dB</property>
    <property name="mlt_service">volume</property>
    <property name="kdenlive_id">fadeout</property>
    <property name="gain">1</property>
    <property name="end">0</property>
   </filter>
  </entry>
  <blank length="00:00:06.717"/>
  <entry producer="producer683" in="00:00:01.800" out="00:00:02.417">
   <property name="kdenlive:id">37</property>
   <filter id="filter70">
    <property name="window">75</property>
    <property name="max_gain">20dB</property>
    <property name="level">00:00:01.800=-5;00:00:02.417=-5</property>
    <property name="mlt_service">volume</property>
    <property name="kdenlive_id">-5db</property>
    <property name="kdenlive:collapsed">0</property>
   </filter>
  </entry>
  <blank length="00:00:02.467"/>
  <entry producer="producer684" in="02:09:09.567" out="02:09:10.133">
   <property name="kdenlive:id">679</property>
   <filter id="filter71">
    <property name="window">75</property>
    <property name="max_gain">20dB</property>
    <property name="level">02:09:09.567=5</property>
    <property name="mlt_service">volume</property>
    <property name="kdenlive_id">+5db</property>
    <property name="kdenlive:collapsed">0</property>
   </filter>
   <filter id="filter72" in="02:09:09.567" out="02:09:09.933">
    <property name="window">75</property>
    <property name="max_gain">20dB</property>
    <property name="mlt_service">volume</property>
    <property name="kdenlive_id">fadein</property>
    <property name="gain">0</property>
    <property name="end">1</property>
    <property name="kdenlive:collapsed">0</property>
   </filter>
  </entry>
  <entry producer="producer684" in="02:09:10.150" out="02:09:11.200">
   <property name="kdenlive:id">679</property>
   <filter id="filter73">
    <property name="window">75</property>
    <property name="max_gain">20dB</property>
    <property name="level">02:09:10.150=5</property>
    <property name="mlt_service">volume</property>
    <property name="kdenlive_id">+5db</property>
    <property name="kdenlive:collapsed">0</property>
   </filter>
  </entry>
  <blank length="00:00:04.683"/>
  <entry producer="producer685" in="00:00:00.000" out="00:00:00.700">
   <property name="kdenlive:id">51</property>
   <filter id="filter74">
    <property name="window">75</property>
    <property name="max_gain">20dB</property>
    <property name="level">00:00:00.000=-5;00:00:00.700=-5</property>
    <property name="mlt_service">volume</property>
    <property name="kdenlive_id">-5db</property>
    <property name="kdenlive:collapsed">0</property>
   </filter>
  </entry>
  <blank length="00:00:00.117"/>
  <entry producer="producer686" in="00:00:00.250" out="00:00:00.617">
   <property name="kdenlive:id">48</property>
   <filter id="filter75">
    <property name="window">75</property>
    <property name="max_gain">20dB</property>
    <property name="level">00:00:00.250=-8</property>
    <property name="mlt_service">volume</property>
    <property name="kdenlive_id">-8db</property>
    <property name="kdenlive:collapsed">0</property>
   </filter>
   <filter id="filter76" in="00:00:00.517" out="00:00:00.617">
    <property name="window">75</property>
    <property name="max_gain">20dB</property>
    <property name="mlt_service">volume</property>
    <property name="kdenlive_id">fadeout</property>
    <property name="gain">1</property>
    <property name="end">0</property>
    <property name="kdenlive:collapsed">0</property>
   </filter>
  </entry>
  <blank length="00:00:00.583"/>
  <entry producer="producer687" in="00:00:00.683" out="00:00:01.300">
   <property name="kdenlive:id">121</property>
   <filter id="filter77">
    <property name="window">75</property>
    <property name="max_gain">20dB</property>
    <property name="level">00:00:00.000=-8</property>
    <property name="mlt_service">volume</property>
    <property name="kdenlive_id">-8db</property>
    <property name="kdenlive:collapsed">0</property>
   </filter>
   <filter id="filter78" in="00:00:01.117" out="00:00:01.300">
    <property name="window">75</property>
    <property name="max_gain">20dB</property>
    <property name="mlt_service">volume</property>
    <property name="kdenlive_id">fadeout</property>
    <property name="gain">1</property>
    <property name="end">0</property>
   </filter>
  </entry>
  <blank length="00:00:04.800"/>
  <entry producer="producer688" in="00:00:00.000" out="00:00:02.000">
   <property name="kdenlive:id">119</property>
   <filter id="filter79">
    <property name="window">75</property>
    <property name="max_gain">20dB</property>
    <property name="level">00:00:02.017=-5</property>
    <property name="mlt_service">volume</property>
    <property name="kdenlive_id">-5db</property>
    <property name="kdenlive:collapsed">0</property>
   </filter>
  </entry>
  <blank length="00:00:00.933"/>
  <entry producer="producer684" in="02:27:44.600" out="02:27:45.050">
   <property name="kdenlive:id">679</property>
   <filter id="filter200">
    <property name="window">75</property>
    <property name="max_gain">20dB</property>
    <property name="level">02:27:44.600=-3</property>
    <property name="mlt_service">volume</property>
    <property name="kdenlive_id">-3db</property>
    <property name="kdenlive:collapsed">0</property>
   </filter>
   <filter id="filter80" in="02:27:44.600" out="02:27:44.867">
    <property name="window">75</property>
    <property name="max_gain">20dB</property>
    <property name="mlt_service">volume</property>
    <property name="kdenlive_id">fadein</property>
    <property name="gain">0</property>
    <property name="end">1</property>
    <property name="kdenlive:collapsed">0</property>
   </filter>
  </entry>
  <blank length="00:00:09.050"/>
  <entry producer="producer684" in="02:31:53.450" out="02:31:54.017">
   <property name="kdenlive:id">679</property>
   <filter id="filter81" in="02:31:53.483" out="02:31:54.017">
    <property name="window">75</property>
    <property name="max_gain">20dB</property>
    <property name="mlt_service">volume</property>
    <property name="kdenlive_id">fadeout</property>
    <property name="gain">1</property>
    <property name="end">0</property>
   </filter>
  </entry>
  <blank length="00:00:14.733"/>
  <entry producer="producer684" in="02:38:13.133" out="02:38:13.967">
   <property name="kdenlive:id">679</property>
   <filter id="filter82" in="02:38:13.117" out="02:38:13.967">
    <property name="window">75</property>
    <property name="max_gain">20dB</property>
    <property name="mlt_service">volume</property>
    <property name="kdenlive_id">fadeout</property>
    <property name="gain">1</property>
    <property name="end">0</property>
   </filter>
  </entry>
  <blank length="00:00:09.750"/>
  <entry producer="producer689" in="00:29:29.250" out="00:29:29.867">
   <property name="kdenlive:id">680</property>
  </entry>
  <blank length="00:00:06.617"/>
  <entry producer="producer675" in="00:00:00.000" out="00:00:01.883">
   <property name="kdenlive:id">671</property>
   <filter id="filter83" in="00:00:-0.017" out="00:00:01.883">
    <property name="window">75</property>
    <property name="max_gain">20dB</property>
    <property name="mlt_service">volume</property>
    <property name="kdenlive_id">fadeout</property>
    <property name="gain">1</property>
    <property name="end">0</property>
    <property name="kdenlive:collapsed">0</property>
   </filter>
   <filter id="filter84">
    <property name="window">75</property>
    <property name="max_gain">20dB</property>
    <property name="level">00:00:00.000=-5;00:00:01.883=-5</property>
    <property name="mlt_service">volume</property>
    <property name="kdenlive_id">-5db</property>
    <property name="kdenlive:collapsed">0</property>
   </filter>
  </entry>
  <blank length="00:00:03.117"/>
  <entry producer="producer690" in="00:00:00.000" out="00:00:00.500">
   <property name="kdenlive:id">55</property>
   <filter id="filter85">
    <property name="window">75</property>
    <property name="max_gain">20dB</property>
    <property name="level">00:00:00.000=-8</property>
    <property name="mlt_service">volume</property>
    <property name="kdenlive_id">-8db</property>
    <property name="kdenlive:collapsed">0</property>
   </filter>
   <filter id="filter86" out="00:00:00.150">
    <property name="window">75</property>
    <property name="max_gain">20dB</property>
    <property name="mlt_service">volume</property>
    <property name="kdenlive_id">fadein</property>
    <property name="gain">0</property>
    <property name="end">1</property>
    <property name="kdenlive:collapsed">0</property>
   </filter>
  </entry>
  <blank length="00:00:04.483"/>
  <entry producer="producer690" in="00:00:00.000" out="00:00:00.500">
   <property name="kdenlive:id">55</property>
   <filter id="filter87">
    <property name="window">75</property>
    <property name="max_gain">20dB</property>
    <property name="level">00:00:00.000=-8</property>
    <property name="mlt_service">volume</property>
    <property name="kdenlive_id">-8db</property>
    <property name="kdenlive:collapsed">0</property>
   </filter>
   <filter id="filter88" out="00:00:00.150">
    <property name="window">75</property>
    <property name="max_gain">20dB</property>
    <property name="mlt_service">volume</property>
    <property name="kdenlive_id">fadein</property>
    <property name="gain">0</property>
    <property name="end">1</property>
    <property name="kdenlive:collapsed">0</property>
   </filter>
  </entry>
  <blank length="00:00:13.017"/>
  <entry producer="producer691" in="00:00:00.000" out="00:00:01.333">
   <property name="kdenlive:id">32</property>
   <filter id="filter89" in="00:00:01.217" out="00:00:01.333">
    <property name="window">75</property>
    <property name="max_gain">20dB</property>
    <property name="mlt_service">volume</property>
    <property name="kdenlive_id">fadeout</property>
    <property name="gain">1</property>
    <property name="end">0</property>
    <property name="kdenlive:collapsed">0</property>
   </filter>
   <filter id="filter90" out="00:00:00.983">
    <property name="window">75</property>
    <property name="max_gain">20dB</property>
    <property name="mlt_service">volume</property>
    <property name="kdenlive_id">fadein</property>
    <property name="gain">0</property>
    <property name="end">1</property>
    <property name="kdenlive:collapsed">0</property>
   </filter>
   <filter id="filter91">
    <property name="window">75</property>
    <property name="max_gain">20dB</property>
    <property name="level">00:00:00.000=-8</property>
    <property name="mlt_service">volume</property>
    <property name="kdenlive_id">-8db</property>
    <property name="kdenlive:collapsed">0</property>
   </filter>
  </entry>
  <blank length="00:00:05.467"/>
  <entry producer="producer692" in="00:00:00.000" out="00:00:01.000">
   <property name="kdenlive:id">47</property>
   <filter id="filter92">
    <property name="window">75</property>
    <property name="max_gain">20dB</property>
    <property name="level">00:00:03.217=-5</property>
    <property name="mlt_service">volume</property>
    <property name="kdenlive_id">-5db</property>
    <property name="kdenlive:collapsed">0</property>
   </filter>
  </entry>
  <blank length="00:00:05.833"/>
  <entry producer="producer693" in="00:00:01.183" out="00:00:02.983">
   <property name="kdenlive:id">398</property>
   <filter id="filter93">
    <property name="window">75</property>
    <property name="max_gain">20dB</property>
    <property name="level">00:00:00.000=-8</property>
    <property name="mlt_service">volume</property>
    <property name="kdenlive_id">-8db</property>
    <property name="kdenlive:collapsed">0</property>
   </filter>
  </entry>
  <blank length="00:00:04.467"/>
  <entry producer="producer675" in="00:00:00.000" out="00:00:01.883">
   <property name="kdenlive:id">671</property>
   <filter id="filter94" in="00:00:-0.017" out="00:00:01.883">
    <property name="window">75</property>
    <property name="max_gain">20dB</property>
    <property name="mlt_service">volume</property>
    <property name="kdenlive_id">fadeout</property>
    <property name="gain">1</property>
    <property name="end">0</property>
    <property name="kdenlive:collapsed">0</property>
   </filter>
   <filter id="filter95">
    <property name="window">75</property>
    <property name="max_gain">20dB</property>
    <property name="level">00:00:00.000=-5;00:00:01.883=-5</property>
    <property name="mlt_service">volume</property>
    <property name="kdenlive_id">-5db</property>
    <property name="kdenlive:collapsed">0</property>
   </filter>
  </entry>
  <blank length="00:00:04.033"/>
  <entry producer="producer694" in="00:00:00.000" out="00:00:00.800">
   <property name="kdenlive:id">6</property>
   <filter id="filter96" out="00:00:00.717">
    <property name="window">75</property>
    <property name="max_gain">20dB</property>
    <property name="mlt_service">volume</property>
    <property name="kdenlive_id">fadein</property>
    <property name="gain">0</property>
    <property name="end">1</property>
    <property name="kdenlive:collapsed">0</property>
   </filter>
  </entry>
  <blank length="00:00:02.717"/>
  <entry producer="producer695" in="00:00:00.467" out="00:00:00.733">
   <property name="kdenlive:id">35</property>
   <filter id="filter97">
    <property name="window">75</property>
    <property name="max_gain">20dB</property>
    <property name="level">00:00:01.900=-5</property>
    <property name="mlt_service">volume</property>
    <property name="kdenlive_id">-5db</property>
    <property name="kdenlive:collapsed">0</property>
   </filter>
  </entry>
  <blank length="00:00:36.667"/>
  <entry producer="producer696" in="00:00:00.000" out="00:00:00.733">
   <property name="kdenlive:id">120</property>
   <filter id="filter98">
    <property name="window">75</property>
    <property name="max_gain">20dB</property>
    <property name="level">00:00:00.750=-3</property>
    <property name="mlt_service">volume</property>
    <property name="kdenlive_id">-3db</property>
    <property name="kdenlive:collapsed">0</property>
   </filter>
  </entry>
  <blank length="00:00:04.083"/>
  <entry producer="producer689" in="01:25:34.700" out="01:25:35.300">
   <property name="kdenlive:id">680</property>
   <filter id="filter99">
    <property name="window">75</property>
    <property name="max_gain">20dB</property>
    <property name="level">01:25:34.700=5</property>
    <property name="mlt_service">volume</property>
    <property name="kdenlive_id">+5db</property>
    <property name="kdenlive:collapsed">0</property>
   </filter>
   <filter id="filter100">
    <property name="window">75</property>
    <property name="max_gain">20dB</property>
    <property name="level">01:25:34.700=3</property>
    <property name="mlt_service">volume</property>
    <property name="kdenlive_id">+3db</property>
    <property name="kdenlive:collapsed">0</property>
   </filter>
  </entry>
  <blank length="00:00:04.417"/>
  <entry producer="producer690" in="00:00:00.000" out="00:00:00.567">
   <property name="kdenlive:id">55</property>
   <filter id="filter101" out="00:00:00.150">
    <property name="window">75</property>
    <property name="max_gain">20dB</property>
    <property name="mlt_service">volume</property>
    <property name="kdenlive_id">fadein</property>
    <property name="gain">0</property>
    <property name="end">1</property>
    <property name="kdenlive:collapsed">0</property>
   </filter>
   <filter id="filter102">
    <property name="window">75</property>
    <property name="max_gain">20dB</property>
    <property name="level">00:00:03.133=-5</property>
    <property name="mlt_service">volume</property>
    <property name="kdenlive_id">-5db</property>
    <property name="kdenlive:collapsed">0</property>
   </filter>
   <filter id="filter103" in="00:00:00.533" out="00:00:00.567">
    <property name="window">75</property>
    <property name="max_gain">20dB</property>
    <property name="mlt_service">volume</property>
    <property name="kdenlive_id">fadeout</property>
    <property name="gain">1</property>
    <property name="end">0</property>
   </filter>
  </entry>
  <blank length="00:00:03.883"/>
  <entry producer="producer697" in="00:00:00.000" out="00:00:00.550">
   <property name="kdenlive:id">367</property>
   <filter id="filter104">
    <property name="window">75</property>
    <property name="max_gain">20dB</property>
    <property name="level">00:00:00.000=-8</property>
    <property name="mlt_service">volume</property>
    <property name="kdenlive_id">-8db</property>
    <property name="kdenlive:collapsed">0</property>
   </filter>
  </entry>
  <blank length="00:00:00.550"/>
  <entry producer="producer698" in="00:00:00.433" out="00:00:01.100">
   <property name="kdenlive:id">368</property>
   <filter id="filter105">
    <property name="window">75</property>
    <property name="max_gain">20dB</property>
    <property name="level">00:00:03.117=-5</property>
    <property name="mlt_service">volume</property>
    <property name="kdenlive_id">-5db</property>
    <property name="kdenlive:collapsed">0</property>
   </filter>
  </entry>
  <blank length="00:00:03.383"/>
  <entry producer="producer699" in="00:00:00.000" out="00:00:01.533">
   <property name="kdenlive:id">49</property>
   <filter id="filter106">
    <property name="window">75</property>
    <property name="max_gain">20dB</property>
    <property name="level">00:00:10.400=-5</property>
    <property name="mlt_service">volume</property>
    <property name="kdenlive_id">-5db</property>
    <property name="kdenlive:collapsed">0</property>
   </filter>
  </entry>
  <blank length="00:00:02.550"/>
  <entry producer="producer700" in="00:00:00.667" out="00:00:01.433">
   <property name="kdenlive:id">85</property>
   <filter id="filter107">
    <property name="window">75</property>
    <property name="max_gain">20dB</property>
    <property name="level">00:00:00.000=-8</property>
    <property name="mlt_service">volume</property>
    <property name="kdenlive_id">-8db</property>
    <property name="kdenlive:collapsed">0</property>
   </filter>
   <filter id="filter108">
    <property name="window">75</property>
    <property name="max_gain">20dB</property>
    <property name="level">00:00:00.000=-8</property>
    <property name="mlt_service">volume</property>
    <property name="kdenlive_id">-8db</property>
    <property name="kdenlive:collapsed">0</property>
   </filter>
  </entry>
  <entry producer="producer700" in="00:00:01.450" out="00:00:02.517">
   <property name="kdenlive:id">85</property>
   <filter id="filter109">
    <property name="window">75</property>
    <property name="max_gain">20dB</property>
    <property name="level">00:00:01.450=-8</property>
    <property name="mlt_service">volume</property>
    <property name="kdenlive_id">-8db</property>
    <property name="kdenlive:collapsed">0</property>
   </filter>
   <filter id="filter110">
    <property name="window">75</property>
    <property name="max_gain">20dB</property>
    <property name="level">00:00:15.367=-3</property>
    <property name="mlt_service">volume</property>
    <property name="kdenlive_id">-3db</property>
    <property name="kdenlive:collapsed">0</property>
   </filter>
  </entry>
  <blank length="00:00:01.017"/>
  <entry producer="producer695" in="00:00:00.517" out="00:00:00.833">
   <property name="kdenlive:id">35</property>
  </entry>
  <blank length="00:00:02.700"/>
  <entry producer="producer690" in="00:00:00.000" out="00:00:01.350">
   <property name="kdenlive:id">55</property>
   <filter id="filter111">
    <property name="window">75</property>
    <property name="max_gain">20dB</property>
    <property name="level">00:00:00.000=-8</property>
    <property name="mlt_service">volume</property>
    <property name="kdenlive_id">-8db</property>
    <property name="kdenlive:collapsed">0</property>
   </filter>
   <filter id="filter112" out="00:00:00.133">
    <property name="window">75</property>
    <property name="max_gain">20dB</property>
    <property name="mlt_service">volume</property>
    <property name="kdenlive_id">fadein</property>
    <property name="gain">0</property>
    <property name="end">1</property>
   </filter>
  </entry>
  <blank length="00:00:03.750"/>
  <entry producer="producer694" in="00:00:00.000" out="00:00:00.300">
   <property name="kdenlive:id">6</property>
   <filter id="filter113" in="00:00:00.250" out="00:00:00.300">
    <property name="window">75</property>
    <property name="max_gain">20dB</property>
    <property name="mlt_service">volume</property>
    <property name="kdenlive_id">fadeout</property>
    <property name="gain">1</property>
    <property name="end">0</property>
    <property name="kdenlive:collapsed">0</property>
   </filter>
  </entry>
  <blank length="00:00:03.617"/>
  <entry producer="producer701" in="00:00:00.000" out="00:00:01.000">
   <property name="kdenlive:id">112</property>
   <filter id="filter114">
    <property name="window">75</property>
    <property name="max_gain">20dB</property>
    <property name="level">00:00:00.000=-8</property>
    <property name="mlt_service">volume</property>
    <property name="kdenlive_id">-8db</property>
    <property name="kdenlive:collapsed">0</property>
   </filter>
  </entry>
  <blank length="00:00:07.767"/>
  <entry producer="producer702" in="00:00:00.000" out="00:00:01.083">
   <property name="kdenlive:id">321</property>
   <filter id="filter115">
    <property name="window">75</property>
    <property name="max_gain">20dB</property>
    <property name="level">00:00:00.000=-8</property>
    <property name="mlt_service">volume</property>
    <property name="kdenlive_id">-8db</property>
    <property name="kdenlive:collapsed">0</property>
   </filter>
  </entry>
  <blank length="00:00:00.217"/>
  <entry producer="producer703" in="00:00:00.000" out="00:00:01.083">
   <property name="kdenlive:id">315</property>
   <filter id="filter116">
    <property name="window">75</property>
    <property name="max_gain">20dB</property>
    <property name="level">00:00:00.000=-8</property>
    <property name="mlt_service">volume</property>
    <property name="kdenlive_id">-8db</property>
    <property name="kdenlive:collapsed">0</property>
   </filter>
   <filter id="filter117">
    <property name="window">75</property>
    <property name="max_gain">20dB</property>
    <property name="level">00:00:00.000=-5;00:00:01.083=-5</property>
    <property name="mlt_service">volume</property>
    <property name="kdenlive_id">-5db</property>
    <property name="kdenlive:collapsed">0</property>
   </filter>
   <filter id="filter118" in="00:00:00.817" out="00:00:01.083">
    <property name="window">75</property>
    <property name="max_gain">20dB</property>
    <property name="mlt_service">volume</property>
    <property name="kdenlive_id">fadeout</property>
    <property name="gain">1</property>
    <property name="end">0</property>
   </filter>
  </entry>
  <blank length="00:00:04.283"/>
  <entry producer="producer689" in="01:38:19.600" out="01:38:21.633">
   <property name="kdenlive:id">680</property>
  </entry>
  <blank length="00:00:02.500"/>
  <entry producer="producer704" in="00:00:00.133" out="00:00:00.683">
   <property name="kdenlive:id">357</property>
   <filter id="filter119">
    <property name="window">75</property>
    <property name="max_gain">20dB</property>
    <property name="level">00:00:00.133=-8</property>
    <property name="mlt_service">volume</property>
    <property name="kdenlive_id">-8db</property>
    <property name="kdenlive:collapsed">0</property>
   </filter>
   <filter id="filter120">
    <property name="window">75</property>
    <property name="max_gain">20dB</property>
    <property name="level">00:00:02.033=-5</property>
    <property name="mlt_service">volume</property>
    <property name="kdenlive_id">-5db</property>
    <property name="kdenlive:collapsed">0</property>
   </filter>
  </entry>
  <blank length="00:00:10.317"/>
  <entry producer="producer685" in="00:00:00.000" out="00:00:00.467">
   <property name="kdenlive:id">51</property>
   <filter id="filter121">
    <property name="window">75</property>
    <property name="max_gain">20dB</property>
    <property name="level">00:00:00.000=-8</property>
    <property name="mlt_service">volume</property>
    <property name="kdenlive_id">-8db</property>
    <property name="kdenlive:collapsed">0</property>
   </filter>
  </entry>
  <blank length="00:00:17.817"/>
  <entry producer="producer689" in="02:09:28.550" out="02:09:29.433">
   <property name="kdenlive:id">680</property>
   <filter id="filter122" in="02:09:28.550" out="02:09:29.300">
    <property name="window">75</property>
    <property name="max_gain">20dB</property>
    <property name="mlt_service">volume</property>
    <property name="kdenlive_id">fadein</property>
    <property name="gain">0</property>
    <property name="end">1</property>
    <property name="kdenlive:collapsed">0</property>
   </filter>
  </entry>
  <blank length="00:00:05.767"/>
  <entry producer="producer705" in="00:00:00.000" out="00:00:03.100">
   <property name="kdenlive:id">289</property>
   <filter id="filter123">
    <property name="window">75</property>
    <property name="max_gain">20dB</property>
    <property name="level">00:00:03.117=-5</property>
    <property name="mlt_service">volume</property>
    <property name="kdenlive_id">-5db</property>
    <property name="kdenlive:collapsed">0</property>
   </filter>
  </entry>
  <blank length="00:00:00.483"/>
  <entry producer="producer706" in="00:00:00.000" out="00:00:00.433">
   <property name="kdenlive:id">244</property>
   <filter id="filter124">
    <property name="window">75</property>
    <property name="max_gain">20dB</property>
    <property name="level">00:00:00.000=-5;00:00:00.433=-5</property>
    <property name="mlt_service">volume</property>
    <property name="kdenlive_id">-5db</property>
    <property name="kdenlive:collapsed">0</property>
   </filter>
  </entry>
  <blank length="00:00:00.633"/>
  <entry producer="producer689" in="02:15:22.867" out="02:15:23.617">
   <property name="kdenlive:id">680</property>
   <filter id="filter125" in="02:15:22.867" out="02:15:23.267">
    <property name="window">75</property>
    <property name="max_gain">20dB</property>
    <property name="mlt_service">volume</property>
    <property name="kdenlive_id">fadein</property>
    <property name="gain">0</property>
    <property name="end">1</property>
    <property name="kdenlive:collapsed">0</property>
   </filter>
  </entry>
  <blank length="00:00:03.300"/>
  <entry producer="producer707" in="00:00:00.950" out="00:00:01.483">
   <property name="kdenlive:id">371</property>
   <filter id="filter126">
    <property name="window">75</property>
    <property name="max_gain">20dB</property>
    <property name="level">00:00:02.583=-3</property>
    <property name="mlt_service">volume</property>
    <property name="kdenlive_id">-3db</property>
    <property name="kdenlive:collapsed">0</property>
   </filter>
  </entry>
  <blank length="00:00:05.500"/>
  <entry producer="producer689" in="02:20:23.267" out="02:20:23.850">
   <property name="kdenlive:id">680</property>
   <filter id="filter127" in="02:20:23.267" out="02:20:23.583">
    <property name="window">75</property>
    <property name="max_gain">20dB</property>
    <property name="mlt_service">volume</property>
    <property name="kdenlive_id">fadein</property>
    <property name="gain">0</property>
    <property name="end">1</property>
   </filter>
  </entry>
  <blank length="00:00:00.717"/>
  <entry producer="producer689" in="02:20:24.583" out="02:20:26.017">
   <property name="kdenlive:id">680</property>
   <filter id="filter128" in="02:20:25.150" out="02:20:26.017">
    <property name="window">75</property>
    <property name="max_gain">20dB</property>
    <property name="mlt_service">volume</property>
    <property name="kdenlive_id">fadeout</property>
    <property name="gain">1</property>
    <property name="end">0</property>
    <property name="kdenlive:collapsed">0</property>
   </filter>
  </entry>
  <blank length="00:00:02.233"/>
  <entry producer="producer708" in="00:00:00.000" out="00:00:01.883">
   <property name="kdenlive:id">160</property>
   <filter id="filter129" in="00:00:00.483" out="00:00:01.883">
    <property name="window">75</property>
    <property name="max_gain">20dB</property>
    <property name="mlt_service">volume</property>
    <property name="kdenlive_id">fadeout</property>
    <property name="gain">1</property>
    <property name="end">0</property>
    <property name="kdenlive:collapsed">0</property>
   </filter>
   <filter id="filter130">
    <property name="window">75</property>
    <property name="max_gain">20dB</property>
    <property name="level">00:00:03.817=-5</property>
    <property name="mlt_service">volume</property>
    <property name="kdenlive_id">-5db</property>
    <property name="kdenlive:collapsed">0</property>
   </filter>
  </entry>
  <blank length="00:00:04.817"/>
  <entry producer="producer690" in="00:00:00.000" out="00:00:00.583">
   <property name="kdenlive:id">55</property>
   <filter id="filter131" out="00:00:00.033">
    <property name="window">75</property>
    <property name="max_gain">20dB</property>
    <property name="mlt_service">volume</property>
    <property name="kdenlive_id">fadein</property>
    <property name="gain">0</property>
    <property name="end">1</property>
    <property name="kdenlive:collapsed">0</property>
   </filter>
   <filter id="filter132">
    <property name="window">75</property>
    <property name="max_gain">20dB</property>
    <property name="level">00:00:03.133=-5</property>
    <property name="mlt_service">volume</property>
    <property name="kdenlive_id">-5db</property>
    <property name="kdenlive:collapsed">0</property>
   </filter>
   <filter id="filter133" in="00:00:00.533" out="00:00:00.583">
    <property name="window">75</property>
    <property name="max_gain">20dB</property>
    <property name="mlt_service">volume</property>
    <property name="kdenlive_id">fadeout</property>
    <property name="gain">1</property>
    <property name="end">0</property>
   </filter>
  </entry>
  <blank length="00:00:03.800"/>
  <entry producer="producer709" in="00:00:00.000" out="00:00:00.283">
   <property name="kdenlive:id">53</property>
   <filter id="filter134">
    <property name="window">75</property>
    <property name="max_gain">20dB</property>
    <property name="level">00:00:00.000=-8</property>
    <property name="mlt_service">volume</property>
    <property name="kdenlive_id">-8db</property>
    <property name="kdenlive:collapsed">0</property>
   </filter>
  </entry>
  <blank length="00:00:07.200"/>
  <entry producer="producer710" in="00:00:00.000" out="00:00:01.100">
   <property name="kdenlive:id">41</property>
   <filter id="filter135">
    <property name="window">75</property>
    <property name="max_gain">20dB</property>
    <property name="level">00:00:00.000=-8</property>
    <property name="mlt_service">volume</property>
    <property name="kdenlive_id">-8db</property>
    <property name="kdenlive:collapsed">0</property>
   </filter>
  </entry>
  <blank length="00:00:07.367"/>
  <entry producer="producer685" in="00:00:00.000" out="00:00:00.550">
   <property name="kdenlive:id">51</property>
   <filter id="filter136">
    <property name="window">75</property>
    <property name="max_gain">20dB</property>
    <property name="level">00:00:00.000=-5;00:00:00.550=-5</property>
    <property name="mlt_service">volume</property>
    <property name="kdenlive_id">-5db</property>
    <property name="kdenlive:collapsed">0</property>
   </filter>
  </entry>
  <blank length="00:00:00.650"/>
  <entry producer="producer694" in="00:00:00.533" out="00:00:00.667">
   <property name="kdenlive:id">6</property>
  </entry>
  <blank length="00:00:22.217"/>
  <entry producer="producer711" in="00:52:03.983" out="00:52:06.433">
   <property name="kdenlive:id">681</property>
  </entry>
  <blank length="00:00:05.200"/>
  <entry producer="producer711" in="00:58:10.550" out="00:58:11.833">
   <property name="kdenlive:id">681</property>
   <filter id="filter137" in="00:58:10.550" out="00:58:11.350">
    <property name="window">75</property>
    <property name="max_gain">20dB</property>
    <property name="mlt_service">volume</property>
    <property name="kdenlive_id">fadein</property>
    <property name="gain">0</property>
    <property name="end">1</property>
    <property name="kdenlive:collapsed">0</property>
   </filter>
   <filter id="filter138">
    <property name="window">75</property>
    <property name="max_gain">20dB</property>
    <property name="level">00:00:15.367=-3</property>
    <property name="mlt_service">volume</property>
    <property name="kdenlive_id">-3db</property>
    <property name="kdenlive:collapsed">0</property>
   </filter>
  </entry>
  <blank length="00:00:12.867"/>
  <entry producer="producer712" in="00:00:00.500" out="00:00:01.883">
   <property name="kdenlive:id">339</property>
   <filter id="filter139" in="00:00:00.500" out="00:00:00.617">
    <property name="window">75</property>
    <property name="max_gain">20dB</property>
    <property name="mlt_service">volume</property>
    <property name="kdenlive_id">fadein</property>
    <property name="gain">0</property>
    <property name="end">1</property>
    <property name="kdenlive:collapsed">0</property>
   </filter>
   <filter id="filter140">
    <property name="window">75</property>
    <property name="max_gain">20dB</property>
    <property name="level">00:00:01.900=-3</property>
    <property name="mlt_service">volume</property>
    <property name="kdenlive_id">-3db</property>
    <property name="kdenlive:collapsed">0</property>
   </filter>
  </entry>
  <blank length="00:00:02.417"/>
  <entry producer="producer713" in="00:00:00.000" out="00:00:00.683">
   <property name="kdenlive:id">181</property>
   <filter id="filter141">
    <property name="window">75</property>
    <property name="max_gain">20dB</property>
    <property name="level">00:00:00.000=-8</property>
    <property name="mlt_service">volume</property>
    <property name="kdenlive_id">-8db</property>
    <property name="kdenlive:collapsed">0</property>
   </filter>
  </entry>
  <blank length="00:00:03.883"/>
  <entry producer="producer714" in="00:00:00.300" out="00:00:01.033">
   <property name="kdenlive:id">184</property>
   <filter id="filter142">
    <property name="window">75</property>
    <property name="max_gain">20dB</property>
    <property name="level">00:00:00.000=-8</property>
    <property name="mlt_service">volume</property>
    <property name="kdenlive_id">-8db</property>
    <property name="kdenlive:collapsed">0</property>
   </filter>
   <filter id="filter143">
    <property name="window">75</property>
    <property name="max_gain">20dB</property>
    <property name="level">00:00:00.000=-8</property>
    <property name="mlt_service">volume</property>
    <property name="kdenlive_id">-8db</property>
    <property name="kdenlive:collapsed">0</property>
   </filter>
  </entry>
  <blank length="00:00:12.500"/>
  <entry producer="producer715" in="00:00:00.000" out="00:00:00.967">
   <property name="kdenlive:id">43</property>
   <filter id="filter144">
    <property name="window">75</property>
    <property name="max_gain">20dB</property>
    <property name="level">00:00:00.983=-5</property>
    <property name="mlt_service">volume</property>
    <property name="kdenlive_id">-5db</property>
    <property name="kdenlive:collapsed">0</property>
   </filter>
  </entry>
  <blank length="00:00:09.217"/>
  <entry producer="producer716" in="00:00:02.000" out="00:00:02.900">
   <property name="kdenlive:id">340</property>
   <filter id="filter145">
    <property name="window">75</property>
    <property name="max_gain">20dB</property>
    <property name="level">00:00:08.783=5</property>
    <property name="mlt_service">volume</property>
    <property name="kdenlive_id">+5db</property>
    <property name="kdenlive:collapsed">0</property>
   </filter>
  </entry>
  <blank length="00:00:02.633"/>
  <entry producer="producer711" in="01:22:52.517" out="01:22:53.533">
   <property name="kdenlive:id">681</property>
   <filter id="filter146" in="01:22:52.517" out="01:22:53.050">
    <property name="window">75</property>
    <property name="max_gain">20dB</property>
    <property name="mlt_service">volume</property>
    <property name="kdenlive_id">fadein</property>
    <property name="gain">0</property>
    <property name="end">1</property>
    <property name="kdenlive:collapsed">0</property>
   </filter>
   <filter id="filter147">
    <property name="window">75</property>
    <property name="max_gain">20dB</property>
    <property name="level">00:00:15.367=-5</property>
    <property name="mlt_service">volume</property>
    <property name="kdenlive_id">-5db</property>
    <property name="kdenlive:collapsed">0</property>
   </filter>
  </entry>
  <blank length="00:00:07.167"/>
  <entry producer="producer717" in="00:00:00.000" out="00:00:00.917">
   <property name="kdenlive:id">245</property>
   <filter id="filter148">
    <property name="window">75</property>
    <property name="max_gain">20dB</property>
    <property name="level">00:00:00.000=-5;00:00:00.917=-5</property>
    <property name="mlt_service">volume</property>
    <property name="kdenlive_id">-5db</property>
    <property name="kdenlive:collapsed">0</property>
   </filter>
  </entry>
  <blank length="00:00:05.817"/>
  <entry producer="producer675" in="00:00:00.000" out="00:00:01.917">
   <property name="kdenlive:id">671</property>
   <filter id="filter149" in="00:00:00.867" out="00:00:01.917">
    <property name="window">75</property>
    <property name="max_gain">20dB</property>
    <property name="mlt_service">volume</property>
    <property name="kdenlive_id">fadeout</property>
    <property name="gain">1</property>
    <property name="end">0</property>
    <property name="kdenlive:collapsed">0</property>
   </filter>
  </entry>
  <blank length="00:00:03.583"/>
  <entry producer="producer711" in="01:32:00.067" out="01:32:01.133">
   <property name="kdenlive:id">681</property>
   <filter id="filter150" in="01:32:00.067" out="01:32:00.917">
    <property name="window">75</property>
    <property name="max_gain">20dB</property>
    <property name="mlt_service">volume</property>
    <property name="kdenlive_id">fadein</property>
    <property name="gain">0</property>
    <property name="end">1</property>
    <property name="kdenlive:collapsed">0</property>
   </filter>
   <filter id="filter151">
    <property name="window">75</property>
    <property name="max_gain">20dB</property>
    <property name="level">00:00:15.367=-5</property>
    <property name="mlt_service">volume</property>
    <property name="kdenlive_id">-5db</property>
    <property name="kdenlive:collapsed">0</property>
   </filter>
  </entry>
  <blank length="00:00:03.433"/>
  <entry producer="producer718" in="00:00:02.183" out="00:00:06.300">
   <property name="kdenlive:id">563</property>
   <filter id="filter152" in="00:00:02.183" out="00:00:02.917">
    <property name="window">75</property>
    <property name="max_gain">20dB</property>
    <property name="mlt_service">volume</property>
    <property name="kdenlive_id">fadein</property>
    <property name="gain">0</property>
    <property name="end">1</property>
    <property name="kdenlive:collapsed">0</property>
   </filter>
   <filter id="filter153">
    <property name="window">75</property>
    <property name="max_gain">20dB</property>
    <property name="level">00:00:10.400=-5</property>
    <property name="mlt_service">volume</property>
    <property name="kdenlive_id">-5db</property>
    <property name="kdenlive:collapsed">0</property>
   </filter>
  </entry>
  <blank length="00:00:02.583"/>
  <entry producer="producer711" in="01:36:55.100" out="01:36:55.333">
   <property name="kdenlive:id">681</property>
   <filter id="filter154">
    <property name="window">75</property>
    <property name="max_gain">20dB</property>
    <property name="level">00:00:15.367=-5</property>
    <property name="mlt_service">volume</property>
    <property name="kdenlive_id">-5db</property>
    <property name="kdenlive:collapsed">0</property>
   </filter>
  </entry>
  <blank length="00:00:28.300"/>
  <entry producer="producer695" in="00:00:00.000" out="00:00:00.917">
   <property name="kdenlive:id">35</property>
  </entry>
  <blank length="00:00:02.850"/>
  <entry producer="producer719" in="00:00:00.000" out="00:00:04.850">
   <property name="kdenlive:id">358</property>
   <filter id="filter155">
    <property name="window">75</property>
    <property name="max_gain">20dB</property>
    <property name="level">00:00:00.000=-8</property>
    <property name="mlt_service">volume</property>
    <property name="kdenlive_id">-8db</property>
    <property name="kdenlive:collapsed">0</property>
   </filter>
   <filter id="filter156">
    <property name="window">75</property>
    <property name="max_gain">20dB</property>
    <property name="level">00:00:04.867=-5</property>
    <property name="mlt_service">volume</property>
    <property name="kdenlive_id">-5db</property>
    <property name="kdenlive:collapsed">0</property>
   </filter>
  </entry>
  <blank length="00:00:04.667"/>
  <entry producer="producer711" in="01:58:30.533" out="01:58:31.367">
   <property name="kdenlive:id">681</property>
   <filter id="filter157">
    <property name="window">75</property>
    <property name="max_gain">20dB</property>
    <property name="level">01:58:30.533=-5</property>
    <property name="mlt_service">volume</property>
    <property name="kdenlive_id">-5db</property>
    <property name="kdenlive:collapsed">0</property>
   </filter>
   <filter id="filter158" in="01:58:30.533" out="01:58:31.033">
    <property name="window">75</property>
    <property name="max_gain">20dB</property>
    <property name="mlt_service">volume</property>
    <property name="kdenlive_id">fadein</property>
    <property name="gain">0</property>
    <property name="end">1</property>
    <property name="kdenlive:collapsed">0</property>
   </filter>
  </entry>
  <blank length="00:00:09.950"/>
  <entry producer="producer711" in="02:01:19.383" out="02:01:20.883">
   <property name="kdenlive:id">681</property>
   <filter id="filter159">
    <property name="window">75</property>
    <property name="max_gain">20dB</property>
    <property name="level">02:01:19.383=-3</property>
    <property name="mlt_service">volume</property>
    <property name="kdenlive_id">-3db</property>
    <property name="kdenlive:collapsed">0</property>
   </filter>
   <filter id="filter160" in="02:01:19.500" out="02:01:20.883">
    <property name="window">75</property>
    <property name="max_gain">20dB</property>
    <property name="mlt_service">volume</property>
    <property name="kdenlive_id">fadeout</property>
    <property name="gain">1</property>
    <property name="end">0</property>
   </filter>
  </entry>
  <blank length="00:00:05.233"/>
  <entry producer="producer695" in="00:00:00.417" out="00:00:01.000">
   <property name="kdenlive:id">35</property>
   <filter id="filter161">
    <property name="window">75</property>
    <property name="max_gain">20dB</property>
    <property name="level">00:00:01.900=-3</property>
    <property name="mlt_service">volume</property>
    <property name="kdenlive_id">-3db</property>
    <property name="kdenlive:collapsed">0</property>
   </filter>
  </entry>
  <blank length="00:00:00.267"/>
  <entry producer="producer695" in="00:00:00.417" out="00:00:01.000">
   <property name="kdenlive:id">35</property>
   <filter id="filter162">
    <property name="window">75</property>
    <property name="max_gain">20dB</property>
    <property name="level">00:00:01.000=-3</property>
    <property name="mlt_service">volume</property>
    <property name="kdenlive_id">-3db</property>
   </filter>
  </entry>
  <blank length="00:00:02.950"/>
  <entry producer="producer695" in="00:00:00.417" out="00:00:01.000">
   <property name="kdenlive:id">35</property>
   <filter id="filter163">
    <property name="window">75</property>
    <property name="max_gain">20dB</property>
    <property name="level">00:00:01.000=-3</property>
    <property name="mlt_service">volume</property>
    <property name="kdenlive_id">-3db</property>
   </filter>
  </entry>
  <blank length="00:00:04.717"/>
  <entry producer="producer690" in="00:00:00.000" out="00:00:00.767">
   <property name="kdenlive:id">55</property>
   <filter id="filter164">
    <property name="window">75</property>
    <property name="max_gain">20dB</property>
    <property name="level">00:00:00.000=-8</property>
    <property name="mlt_service">volume</property>
    <property name="kdenlive_id">-8db</property>
    <property name="kdenlive:collapsed">0</property>
   </filter>
   <filter id="filter165" out="00:00:00.150">
    <property name="window">75</property>
    <property name="max_gain">20dB</property>
    <property name="mlt_service">volume</property>
    <property name="kdenlive_id">fadein</property>
    <property name="gain">0</property>
    <property name="end">1</property>
    <property name="kdenlive:collapsed">0</property>
   </filter>
   <filter id="filter166" in="00:00:00.717" out="00:00:00.767">
    <property name="window">75</property>
    <property name="max_gain">20dB</property>
    <property name="mlt_service">volume</property>
    <property name="kdenlive_id">fadeout</property>
    <property name="gain">1</property>
    <property name="end">0</property>
    <property name="kdenlive:collapsed">0</property>
   </filter>
  </entry>
  <blank length="00:00:19.500"/>
  <entry producer="producer690" in="00:00:00.000" out="00:00:00.683">
   <property name="kdenlive:id">55</property>
   <filter id="filter167">
    <property name="window">75</property>
    <property name="max_gain">20dB</property>
    <property name="level">00:00:00.000=-8</property>
    <property name="mlt_service">volume</property>
    <property name="kdenlive_id">-8db</property>
    <property name="kdenlive:collapsed">0</property>
   </filter>
   <filter id="filter168" out="00:00:00.067">
    <property name="window">75</property>
    <property name="max_gain">20dB</property>
    <property name="mlt_service">volume</property>
    <property name="kdenlive_id">fadein</property>
    <property name="gain">0</property>
    <property name="end">1</property>
    <property name="kdenlive:collapsed">0</property>
   </filter>
  </entry>
  <blank length="00:00:03.717"/>
  <entry producer="producer685" in="00:00:00.000" out="00:00:00.950">
   <property name="kdenlive:id">51</property>
   <filter id="filter169">
    <property name="window">75</property>
    <property name="max_gain">20dB</property>
    <property name="level">00:00:00.967=-5</property>
    <property name="mlt_service">volume</property>
    <property name="kdenlive_id">-5db</property>
    <property name="kdenlive:collapsed">0</property>
   </filter>
  </entry>
  <blank length="00:00:04.433"/>
  <entry producer="producer690" in="00:00:00.000" out="00:00:00.683">
   <property name="kdenlive:id">55</property>
   <filter id="filter170">
    <property name="window">75</property>
    <property name="max_gain">20dB</property>
    <property name="level">00:00:00.000=-8</property>
    <property name="mlt_service">volume</property>
    <property name="kdenlive_id">-8db</property>
    <property name="kdenlive:collapsed">0</property>
   </filter>
   <filter id="filter171" out="00:00:00.067">
    <property name="window">75</property>
    <property name="max_gain">20dB</property>
    <property name="mlt_service">volume</property>
    <property name="kdenlive_id">fadein</property>
    <property name="gain">0</property>
    <property name="end">1</property>
    <property name="kdenlive:collapsed">0</property>
   </filter>
  </entry>
  <blank length="00:00:00.633"/>
  <entry producer="producer720" in="00:54:27.433" out="00:54:29.033">
   <property name="kdenlive:id">682</property>
   <filter id="filter172">
    <property name="window">75</property>
    <property name="max_gain">20dB</property>
    <property name="level">19374=-3</property>
    <property name="mlt_service">volume</property>
    <property name="kdenlive_id">-3db</property>
   </filter>
  </entry>
  <blank length="00:00:03.633"/>
  <entry producer="producer690" in="00:00:00.000" out="00:00:00.683">
   <property name="kdenlive:id">55</property>
   <filter id="filter173">
    <property name="window">75</property>
    <property name="max_gain">20dB</property>
    <property name="level">00:00:00.000=-8</property>
    <property name="mlt_service">volume</property>
    <property name="kdenlive_id">-8db</property>
    <property name="kdenlive:collapsed">0</property>
   </filter>
   <filter id="filter174" out="00:00:00.067">
    <property name="window">75</property>
    <property name="max_gain">20dB</property>
    <property name="mlt_service">volume</property>
    <property name="kdenlive_id">fadein</property>
    <property name="gain">0</property>
    <property name="end">1</property>
    <property name="kdenlive:collapsed">0</property>
   </filter>
  </entry>
  <blank length="00:00:28.433"/>
  <entry producer="producer721" in="00:00:00.000" out="00:00:00.617">
   <property name="kdenlive:id">39</property>
   <filter id="filter175">
    <property name="window">75</property>
    <property name="max_gain">20dB</property>
    <property name="level">00:00:12.300=-5</property>
    <property name="mlt_service">volume</property>
    <property name="kdenlive_id">-5db</property>
    <property name="kdenlive:collapsed">0</property>
   </filter>
  </entry>
  <blank length="00:00:10.500"/>
  <entry producer="producer722" in="01:14:48.250" out="01:14:49.433">
   <property name="kdenlive:id">682</property>
   <filter id="filter176">
    <property name="window">75</property>
    <property name="max_gain">20dB</property>
    <property name="level">01:14:48.250=-5</property>
    <property name="mlt_service">volume</property>
    <property name="kdenlive_id">-5db</property>
    <property name="kdenlive:collapsed">0</property>
   </filter>
   <filter id="filter177" in="01:14:48.417" out="01:14:49.433">
    <property name="window">75</property>
    <property name="max_gain">20dB</property>
    <property name="mlt_service">volume</property>
    <property name="kdenlive_id">fadeout</property>
    <property name="gain">1</property>
    <property name="end">0</property>
    <property name="kdenlive:collapsed">0</property>
   </filter>
  </entry>
  <blank length="00:00:04.000"/>
  <entry producer="producer723" in="00:00:00.000" out="00:00:00.483">
   <property name="kdenlive:id">448</property>
   <filter id="filter178">
    <property name="window">75</property>
    <property name="max_gain">20dB</property>
    <property name="level">00:00:00.000=-5;00:00:00.483=-5</property>
    <property name="mlt_service">volume</property>
    <property name="kdenlive_id">-5db</property>
    <property name="kdenlive:collapsed">0</property>
   </filter>
   <filter id="filter179" out="00:00:00.117">
    <property name="window">75</property>
    <property name="max_gain">20dB</property>
    <property name="mlt_service">volume</property>
    <property name="kdenlive_id">fadein</property>
    <property name="gain">0</property>
    <property name="end">1</property>
   </filter>
  </entry>
  <blank length="00:00:03.017"/>
  <entry producer="producer675" in="00:00:00.000" out="00:00:01.933">
   <property name="kdenlive:id">671</property>
   <filter id="filter180">
    <property name="window">75</property>
    <property name="max_gain">20dB</property>
    <property name="level">00:00:00.000=-5;00:00:01.933=-5</property>
    <property name="mlt_service">volume</property>
    <property name="kdenlive_id">-5db</property>
    <property name="kdenlive:collapsed">0</property>
   </filter>
   <filter id="filter181" in="00:00:00.783" out="00:00:01.933">
    <property name="window">75</property>
    <property name="max_gain">20dB</property>
    <property name="mlt_service">volume</property>
    <property name="kdenlive_id">fadeout</property>
    <property name="gain">1</property>
    <property name="end">0</property>
    <property name="kdenlive:collapsed">0</property>
   </filter>
  </entry>
  <blank length="00:00:05.633"/>
  <entry producer="producer675" in="00:00:00.000" out="00:00:01.933">
   <property name="kdenlive:id">671</property>
   <filter id="filter182">
    <property name="window">75</property>
    <property name="max_gain">20dB</property>
    <property name="level">00:00:00.000=-5;00:00:01.933=-5</property>
    <property name="mlt_service">volume</property>
    <property name="kdenlive_id">-5db</property>
   </filter>
   <filter id="filter183" in="00:00:00.783" out="00:00:01.933">
    <property name="window">75</property>
    <property name="max_gain">20dB</property>
    <property name="mlt_service">volume</property>
    <property name="kdenlive_id">fadeout</property>
    <property name="gain">1</property>
    <property name="end">0</property>
   </filter>
  </entry>
  <blank length="00:00:03.883"/>
  <entry producer="producer715" in="00:00:00.000" out="00:00:00.967">
   <property name="kdenlive:id">43</property>
   <filter id="filter184">
    <property name="window">75</property>
    <property name="max_gain">20dB</property>
    <property name="level">00:00:00.000=-8</property>
    <property name="mlt_service">volume</property>
    <property name="kdenlive_id">-8db</property>
    <property name="kdenlive:collapsed">0</property>
   </filter>
  </entry>
  <blank length="00:00:05.950"/>
  <entry producer="producer724" in="00:00:00.267" out="00:00:00.750">
   <property name="kdenlive:id">54</property>
   <filter id="filter185">
    <property name="window">75</property>
    <property name="max_gain">20dB</property>
    <property name="level">00:00:00.000=-8</property>
    <property name="mlt_service">volume</property>
    <property name="kdenlive_id">-8db</property>
    <property name="kdenlive:collapsed">0</property>
   </filter>
  </entry>
  <blank length="00:00:04.733"/>
  <entry producer="producer686" in="00:00:00.000" out="00:00:04.117">
   <property name="kdenlive:id">48</property>
   <filter id="filter186">
    <property name="window">75</property>
    <property name="max_gain">20dB</property>
    <property name="level">00:00:00.000=-8</property>
    <property name="mlt_service">volume</property>
    <property name="kdenlive_id">-8db</property>
    <property name="kdenlive:collapsed">0</property>
   </filter>
   <filter id="filter187">
    <property name="window">75</property>
    <property name="max_gain">20dB</property>
    <property name="level">00:00:04.133=-5</property>
    <property name="mlt_service">volume</property>
    <property name="kdenlive_id">-5db</property>
    <property name="kdenlive:collapsed">0</property>
   </filter>
  </entry>
  <blank length="00:00:01.633"/>
  <entry producer="producer716" in="00:00:03.667" out="00:00:05.067">
   <property name="kdenlive:id">340</property>
   <filter id="filter188">
    <property name="window">75</property>
    <property name="max_gain">20dB</property>
    <property name="level">00:00:08.783=-5</property>
    <property name="mlt_service">volume</property>
    <property name="kdenlive_id">-5db</property>
    <property name="kdenlive:collapsed">0</property>
   </filter>
  </entry>
  <blank length="00:00:05.983"/>
  <entry producer="producer722" in="01:41:32.683" out="01:41:33.583">
   <property name="kdenlive:id">682</property>
   <filter id="filter189" in="01:41:32.683" out="01:41:32.967">
    <property name="window">75</property>
    <property name="max_gain">20dB</property>
    <property name="mlt_service">volume</property>
    <property name="kdenlive_id">fadein</property>
    <property name="gain">0</property>
    <property name="end">1</property>
    <property name="kdenlive:collapsed">0</property>
   </filter>
  </entry>
  <blank length="00:00:04.933"/>
  <entry producer="producer725" in="00:00:14.800" out="00:00:15.417">
   <property name="kdenlive:id">328</property>
   <filter id="filter190">
    <property name="window">75</property>
    <property name="max_gain">20dB</property>
    <property name="level">00:00:15.367=-5</property>
    <property name="mlt_service">volume</property>
    <property name="kdenlive_id">-5db</property>
    <property name="kdenlive:collapsed">0</property>
   </filter>
  </entry>
  <blank length="00:00:03.817"/>
  <entry producer="producer695" in="00:00:00.517" out="00:00:00.933">
   <property name="kdenlive:id">35</property>
   <filter id="filter191">
    <property name="window">75</property>
    <property name="max_gain">20dB</property>
    <property name="level">00:00:01.900=-3</property>
    <property name="mlt_service">volume</property>
    <property name="kdenlive_id">-3db</property>
    <property name="kdenlive:collapsed">0</property>
   </filter>
  </entry>
  <blank length="00:00:09.933"/>
  <entry producer="producer690" in="00:00:00.000" out="00:00:00.717">
   <property name="kdenlive:id">55</property>
   <filter id="filter192">
    <property name="window">75</property>
    <property name="max_gain">20dB</property>
    <property name="level">00:00:00.000=-5;00:00:00.717=-5</property>
    <property name="mlt_service">volume</property>
    <property name="kdenlive_id">-5db</property>
    <property name="kdenlive:collapsed">0</property>
   </filter>
   <filter id="filter193" out="00:00:00.183">
    <property name="window">75</property>
    <property name="max_gain">20dB</property>
    <property name="mlt_service">volume</property>
    <property name="kdenlive_id">fadein</property>
    <property name="gain">0</property>
    <property name="end">1</property>
    <property name="kdenlive:collapsed">0</property>
   </filter>
   <filter id="filter194" in="00:00:00.667" out="00:00:00.717">
    <property name="window">75</property>
    <property name="max_gain">20dB</property>
    <property name="mlt_service">volume</property>
    <property name="kdenlive_id">fadeout</property>
    <property name="gain">1</property>
    <property name="end">0</property>
   </filter>
  </entry>
  <blank length="00:00:01.683"/>
  <entry producer="producer675" in="00:00:00.000" out="00:00:02.467">
   <property name="kdenlive:id">671</property>
   <filter id="filter195" in="00:00:01.100" out="00:00:02.467">
    <property name="window">75</property>
    <property name="max_gain">20dB</property>
    <property name="mlt_service">volume</property>
    <property name="kdenlive_id">fadeout</property>
    <property name="gain">1</property>
    <property name="end">0</property>
    <property name="kdenlive:collapsed">0</property>
   </filter>
   <filter id="filter196">
    <property name="window">75</property>
    <property name="max_gain">20dB</property>
    <property name="level">00:00:00.000=-8</property>
    <property name="mlt_service">volume</property>
    <property name="kdenlive_id">-8db</property>
    <property name="kdenlive:collapsed">0</property>
   </filter>
  </entry>
  <blank length="00:00:02.883"/>
  <entry producer="producer722" in="02:01:38.850" out="02:01:39.733">
   <property name="kdenlive:id">682</property>
   <filter id="filter197" in="02:01:38.850" out="02:01:39.633">
    <property name="window">75</property>
    <property name="max_gain">20dB</property>
    <property name="mlt_service">volume</property>
    <property name="kdenlive_id">fadein</property>
    <property name="gain">0</property>
    <property name="end">1</property>
    <property name="kdenlive:collapsed">0</property>
   </filter>
   <filter id="filter198">
    <property name="window">75</property>
    <property name="max_gain">20dB</property>
    <property name="level">00:00:15.367=-5</property>
    <property name="mlt_service">volume</property>
    <property name="kdenlive_id">-5db</property>
    <property name="kdenlive:collapsed">0</property>
   </filter>
  </entry>
  <blank length="00:00:06.733"/>
  <entry producer="producer726" in="00:00:00.333" out="00:00:01.400">
   <property name="kdenlive:id">412</property>
   <filter id="filter199" in="00:00:00.333" out="00:00:00.450">
    <property name="window">75</property>
    <property name="max_gain">20dB</property>
    <property name="mlt_service">volume</property>
    <property name="kdenlive_id">fadein</property>
    <property name="gain">0</property>
    <property name="end">1</property>
    <property name="kdenlive:collapsed">0</property>
   </filter>
   <filter id="filter201">
    <property name="window">75</property>
    <property name="max_gain">20dB</property>
    <property name="level">00:00:00.000=-8</property>
    <property name="mlt_service">volume</property>
    <property name="kdenlive_id">-8db</property>
    <property name="kdenlive:collapsed">0</property>
   </filter>
   <filter id="filter202">
    <property name="window">75</property>
    <property name="max_gain">20dB</property>
    <property name="level">00:00:00.000=-8</property>
    <property name="mlt_service">volume</property>
    <property name="kdenlive_id">-8db</property>
    <property name="kdenlive:collapsed">0</property>
   </filter>
  </entry>
  <blank length="00:00:04.533"/>
  <entry producer="producer727" in="00:00:00.000" out="00:00:01.867">
   <property name="kdenlive:id">80</property>
   <filter id="filter203">
    <property name="window">75</property>
    <property name="max_gain">20dB</property>
    <property name="level">00:00:00.000=-8</property>
    <property name="mlt_service">volume</property>
    <property name="kdenlive_id">-8db</property>
    <property name="kdenlive:collapsed">0</property>
   </filter>
   <filter id="filter204">
    <property name="window">75</property>
    <property name="max_gain">20dB</property>
    <property name="level">00:00:00.000=-8</property>
    <property name="mlt_service">volume</property>
    <property name="kdenlive_id">-8db</property>
    <property name="kdenlive:collapsed">0</property>
   </filter>
   <filter id="filter205" out="00:00:00.167">
    <property name="window">75</property>
    <property name="max_gain">20dB</property>
    <property name="mlt_service">volume</property>
    <property name="kdenlive_id">fadein</property>
    <property name="gain">0</property>
    <property name="end">1</property>
    <property name="kdenlive:collapsed">0</property>
   </filter>
  </entry>
  <blank length="00:00:06.450"/>
  <entry producer="producer728" in="00:00:00.000" out="00:00:00.683">
   <property name="kdenlive:id">255</property>
  </entry>
  <blank length="00:00:03.000"/>
  <entry producer="producer729" in="00:00:00.000" out="00:00:02.450">
   <property name="kdenlive:id">161</property>
   <filter id="filter206">
    <property name="window">75</property>
    <property name="max_gain">20dB</property>
    <property name="level">00:00:00.000=-8</property>
    <property name="mlt_service">volume</property>
    <property name="kdenlive_id">-8db</property>
    <property name="kdenlive:collapsed">0</property>
   </filter>
   <filter id="filter207" in="00:00:00.583" out="00:00:02.450">
    <property name="window">75</property>
    <property name="max_gain">20dB</property>
    <property name="mlt_service">volume</property>
    <property name="kdenlive_id">fadeout</property>
    <property name="gain">1</property>
    <property name="end">0</property>
    <property name="kdenlive:collapsed">0</property>
   </filter>
   <filter id="filter208">
    <property name="window">75</property>
    <property name="max_gain">20dB</property>
    <property name="level">00:00:06.683=-3</property>
    <property name="mlt_service">volume</property>
    <property name="kdenlive_id">-3db</property>
    <property name="kdenlive:collapsed">0</property>
   </filter>
  </entry>
  <blank length="00:00:01.167"/>
  <entry producer="producer720" in="02:29:47.533" out="02:29:53.933">
   <property name="kdenlive:id">682</property>
   <filter id="filter209">
    <property name="window">75</property>
    <property name="max_gain">20dB</property>
    <property name="level">00:00:15.367=-3</property>
    <property name="mlt_service">volume</property>
    <property name="kdenlive_id">-3db</property>
    <property name="kdenlive:collapsed">0</property>
   </filter>
  </entry>
  <entry producer="producer720" in="02:29:53.950" out="02:29:56.733">
   <property name="kdenlive:id">682</property>
  </entry>
  <entry producer="producer720" in="02:30:22.050" out="02:30:23.033">
   <property name="kdenlive:id">682</property>
  </entry>
  <blank length="00:00:02.817"/>
  <entry producer="producer707" in="00:00:00.950" out="00:00:01.433">
   <property name="kdenlive:id">371</property>
   <filter id="filter210">
    <property name="window">75</property>
    <property name="max_gain">20dB</property>
    <property name="level">00:00:00.950=-5;00:00:01.433=-5</property>
    <property name="mlt_service">volume</property>
    <property name="kdenlive_id">-5db</property>
    <property name="kdenlive:collapsed">0</property>
   </filter>
  </entry>
  <blank length="00:00:00.217"/>
  <entry producer="producer707" in="00:00:00.950" out="00:00:01.433">
   <property name="kdenlive:id">371</property>
   <filter id="filter211">
    <property name="window">75</property>
    <property name="max_gain">20dB</property>
    <property name="level">00:00:00.950=-5;00:00:01.433=-5</property>
    <property name="mlt_service">volume</property>
    <property name="kdenlive_id">-5db</property>
    <property name="kdenlive:collapsed">0</property>
   </filter>
  </entry>
  <blank length="00:00:00.450"/>
  <entry producer="producer730" in="00:00:00.450" out="00:00:01.067">
   <property name="kdenlive:id">297</property>
   <filter id="filter212">
    <property name="window">75</property>
    <property name="max_gain">20dB</property>
    <property name="level">00:00:00.450=-8</property>
    <property name="mlt_service">volume</property>
    <property name="kdenlive_id">-8db</property>
    <property name="kdenlive:collapsed">0</property>
   </filter>
  </entry>
  <entry producer="producer690" in="00:00:00.000" out="00:00:00.850">
   <property name="kdenlive:id">55</property>
   <filter id="filter213" out="00:00:00.167">
    <property name="window">75</property>
    <property name="max_gain">20dB</property>
    <property name="mlt_service">volume</property>
    <property name="kdenlive_id">fadein</property>
    <property name="gain">0</property>
    <property name="end">1</property>
    <property name="kdenlive:collapsed">0</property>
   </filter>
   <filter id="filter214">
    <property name="window">75</property>
    <property name="max_gain">20dB</property>
    <property name="level">00:00:00.000=-5;00:00:00.850=-5</property>
    <property name="mlt_service">volume</property>
    <property name="kdenlive_id">-5db</property>
    <property name="kdenlive:collapsed">0</property>
   </filter>
   <filter id="filter215" in="00:00:00.667" out="00:00:00.850">
    <property name="window">75</property>
    <property name="max_gain">20dB</property>
    <property name="mlt_service">volume</property>
    <property name="kdenlive_id">fadeout</property>
    <property name="gain">1</property>
    <property name="end">0</property>
    <property name="kdenlive:collapsed">0</property>
   </filter>
  </entry>
  <blank length="00:00:00.700"/>
  <entry producer="producer690" in="00:00:00.000" out="00:00:00.683">
   <property name="kdenlive:id">55</property>
   <filter id="filter216" out="00:00:00.167">
    <property name="window">75</property>
    <property name="max_gain">20dB</property>
    <property name="mlt_service">volume</property>
    <property name="kdenlive_id">fadein</property>
    <property name="gain">0</property>
    <property name="end">1</property>
    <property name="kdenlive:collapsed">0</property>
   </filter>
   <filter id="filter217">
    <property name="window">75</property>
    <property name="max_gain">20dB</property>
    <property name="level">00:00:00.000=-5;00:00:00.683=-5</property>
    <property name="mlt_service">volume</property>
    <property name="kdenlive_id">-5db</property>
    <property name="kdenlive:collapsed">0</property>
   </filter>
   <filter id="filter218" in="00:00:00.633" out="00:00:00.683">
    <property name="window">75</property>
    <property name="max_gain">20dB</property>
    <property name="mlt_service">volume</property>
    <property name="kdenlive_id">fadeout</property>
    <property name="gain">1</property>
    <property name="end">0</property>
    <property name="kdenlive:collapsed">0</property>
   </filter>
  </entry>
  <blank length="00:00:07.567"/>
  <entry producer="producer731" in="00:00:01.050" out="00:00:01.683">
   <property name="kdenlive:id">360</property>
   <filter id="filter219">
    <property name="window">75</property>
    <property name="max_gain">20dB</property>
    <property name="level">00:00:01.700=-5</property>
    <property name="mlt_service">volume</property>
    <property name="kdenlive_id">-5db</property>
    <property name="kdenlive:collapsed">0</property>
   </filter>
  </entry>
  <blank length="00:00:06.850"/>
  <entry producer="producer732" in="01:03:57.167" out="01:03:57.550">
   <property name="kdenlive:id">683</property>
   <filter id="filter220" in="01:03:57.167" out="01:03:57.433">
    <property name="window">75</property>
    <property name="max_gain">20dB</property>
    <property name="mlt_service">volume</property>
    <property name="kdenlive_id">fadein</property>
    <property name="gain">0</property>
    <property name="end">1</property>
    <property name="kdenlive:collapsed">0</property>
   </filter>
  </entry>
  <blank length="00:00:16.583"/>
  <entry producer="producer733" in="00:00:00.000" out="00:00:01.550">
   <property name="kdenlive:id">374</property>
   <filter id="filter221">
    <property name="window">75</property>
    <property name="max_gain">20dB</property>
    <property name="level">00:00:00.000=-8</property>
    <property name="mlt_service">volume</property>
    <property name="kdenlive_id">-8db</property>
    <property name="kdenlive:collapsed">0</property>
   </filter>
  </entry>
  <blank length="00:00:18.267"/>
  <entry producer="producer732" in="01:25:21.317" out="01:25:21.700">
   <property name="kdenlive:id">683</property>
  </entry>
  <blank length="00:00:04.650"/>
  <entry producer="producer675" in="00:00:00.000" out="00:00:01.250">
   <property name="kdenlive:id">671</property>
   <filter id="filter222">
    <property name="window">75</property>
    <property name="max_gain">20dB</property>
    <property name="level">00:00:05.717=-5</property>
    <property name="mlt_service">volume</property>
    <property name="kdenlive_id">-5db</property>
    <property name="kdenlive:collapsed">0</property>
   </filter>
  </entry>
  <blank length="00:00:20.900"/>
  <entry producer="producer732" in="01:44:02.417" out="01:44:03.733">
   <property name="kdenlive:id">683</property>
  </entry>
  <blank length="00:00:10.617"/>
  <entry producer="producer675" in="00:00:00.000" out="00:00:01.833">
   <property name="kdenlive:id">671</property>
   <filter id="filter223" in="00:00:00.733" out="00:00:01.833">
    <property name="window">75</property>
    <property name="max_gain">20dB</property>
    <property name="mlt_service">volume</property>
    <property name="kdenlive_id">fadeout</property>
    <property name="gain">1</property>
    <property name="end">0</property>
    <property name="kdenlive:collapsed">0</property>
   </filter>
   <filter id="filter224">
    <property name="window">75</property>
    <property name="max_gain">20dB</property>
    <property name="level">00:00:05.717=-5</property>
    <property name="mlt_service">volume</property>
    <property name="kdenlive_id">-5db</property>
    <property name="kdenlive:collapsed">0</property>
   </filter>
  </entry>
  <blank length="00:00:07.600"/>
  <entry producer="producer732" in="02:01:05.767" out="02:01:06.867">
   <property name="kdenlive:id">683</property>
   <filter id="filter225" in="02:01:05.767" out="02:01:06.283">
    <property name="window">75</property>
    <property name="max_gain">20dB</property>
    <property name="mlt_service">volume</property>
    <property name="kdenlive_id">fadein</property>
    <property name="gain">0</property>
    <property name="end">1</property>
    <property name="kdenlive:collapsed">0</property>
   </filter>
  </entry>
  <blank length="00:00:09.200"/>
  <entry producer="producer734" in="00:00:00.000" out="00:00:00.667">
   <property name="kdenlive:id">380</property>
  </entry>
  <blank length="00:00:19.150"/>
  <entry producer="producer735" in="00:00:01.033" out="00:00:02.567">
   <property name="kdenlive:id">254</property>
   <filter id="filter226">
    <property name="window">75</property>
    <property name="max_gain">20dB</property>
    <property name="level">00:00:02.583=-5</property>
    <property name="mlt_service">volume</property>
    <property name="kdenlive_id">-5db</property>
    <property name="kdenlive:collapsed">0</property>
   </filter>
  </entry>
  <blank length="00:00:03.567"/>
  <entry producer="producer675" in="00:00:00.000" out="00:00:01.733">
   <property name="kdenlive:id">671</property>
   <filter id="filter227" in="00:00:01.100" out="00:00:01.733">
    <property name="window">75</property>
    <property name="max_gain">20dB</property>
    <property name="mlt_service">volume</property>
    <property name="kdenlive_id">fadeout</property>
    <property name="gain">1</property>
    <property name="end">0</property>
    <property name="kdenlive:collapsed">0</property>
   </filter>
   <filter id="filter228">
    <property name="window">75</property>
    <property name="max_gain">20dB</property>
    <property name="level">00:00:05.717=-5</property>
    <property name="mlt_service">volume</property>
    <property name="kdenlive_id">-5db</property>
    <property name="kdenlive:collapsed">0</property>
   </filter>
  </entry>
  <blank length="00:00:09.067"/>
  <entry producer="producer736" in="00:46:12.167" out="00:46:14.483">
   <property name="kdenlive:id">684</property>
   <filter id="filter229" in="00:46:13.900" out="00:46:14.483">
    <property name="window">75</property>
    <property name="max_gain">20dB</property>
    <property name="mlt_service">volume</property>
    <property name="kdenlive_id">fadeout</property>
    <property name="gain">1</property>
    <property name="end">0</property>
    <property name="kdenlive:collapsed">0</property>
   </filter>
   <filter id="filter230">
    <property name="window">75</property>
    <property name="max_gain">20dB</property>
    <property name="level">00:46:12.167=0;00:46:13.483=-3;00:46:13.933=-7</property>
    <property name="mlt_service">volume</property>
    <property name="kdenlive_id">volume</property>
    <property name="kdenlive:collapsed">0</property>
   </filter>
  </entry>
  <blank length="00:00:10.583"/>
  <entry producer="producer695" in="00:00:00.517" out="00:00:00.933">
   <property name="kdenlive:id">35</property>
   <filter id="filter231">
    <property name="window">75</property>
    <property name="max_gain">20dB</property>
    <property name="level">00:00:01.900=-5</property>
    <property name="mlt_service">volume</property>
    <property name="kdenlive_id">-5db</property>
    <property name="kdenlive:collapsed">0</property>
   </filter>
  </entry>
  <blank length="00:00:57.917"/>
  <entry producer="producer723" in="00:00:00.000" out="00:00:00.267">
   <property name="kdenlive:id">448</property>
   <filter id="filter232">
    <property name="window">75</property>
    <property name="max_gain">20dB</property>
    <property name="level">00:00:01.467=-5</property>
    <property name="mlt_service">volume</property>
    <property name="kdenlive_id">-5db</property>
    <property name="kdenlive:collapsed">0</property>
   </filter>
  </entry>
  <blank length="00:00:17.600"/>
  <entry producer="producer736" in="02:02:53.317" out="02:02:55.250">
   <property name="kdenlive:id">684</property>
  </entry>
  <entry producer="producer736" in="02:02:55.267" out="02:02:57.350">
   <property name="kdenlive:id">684</property>
  </entry>
  <entry producer="producer736" in="02:03:02.633" out="02:03:03.367">
   <property name="kdenlive:id">684</property>
  </entry>
  <entry producer="producer736" in="02:03:14.817" out="02:03:16.417">
   <property name="kdenlive:id">684</property>
  </entry>
  <entry producer="producer736" in="02:08:01.233" out="02:08:03.733">
   <property name="kdenlive:id">684</property>
  </entry>
  <entry producer="producer736" in="02:08:07.817" out="02:08:08.583">
   <property name="kdenlive:id">684</property>
  </entry>
  <entry producer="producer736" in="02:08:08.600" out="02:08:08.800">
   <property name="kdenlive:id">684</property>
   <property name="kdenlive:activeeffect">1</property>
   <filter id="filter233">
    <property name="window">75</property>
    <property name="max_gain">20dB</property>
    <property name="level">00:28:08.517=5</property>
    <property name="mlt_service">volume</property>
    <property name="kdenlive_id">+5db</property>
    <property name="kdenlive:collapsed">0</property>
   </filter>
   <filter id="filter234">
    <property name="window">75</property>
    <property name="max_gain">20dB</property>
    <property name="level">00:00:00.000=3</property>
    <property name="mlt_service">volume</property>
    <property name="kdenlive_id">+3db</property>
    <property name="kdenlive:collapsed">0</property>
   </filter>
  </entry>
  <entry producer="producer737" in="00:00:00.133" out="00:00:00.650">
   <property name="kdenlive:id">449</property>
   <filter id="filter235">
    <property name="window">75</property>
    <property name="max_gain">20dB</property>
    <property name="level">00:00:00.000=-8</property>
    <property name="mlt_service">volume</property>
    <property name="kdenlive_id">-8db</property>
    <property name="kdenlive:collapsed">0</property>
   </filter>
  </entry>
  <blank length="00:00:06.317"/>
  <entry producer="producer738" in="00:00:01.183" out="00:00:01.533">
   <property name="kdenlive:id">364</property>
   <filter id="filter236">
    <property name="window">75</property>
    <property name="max_gain">20dB</property>
    <property name="level">00:00:00.000=-8</property>
    <property name="mlt_service">volume</property>
    <property name="kdenlive_id">-8db</property>
    <property name="kdenlive:collapsed">0</property>
   </filter>
  </entry>
  <blank length="00:00:13.950"/>
  <entry producer="producer739" in="00:00:00.850" out="00:00:02.000">
   <property name="kdenlive:id">52</property>
   <filter id="filter237" in="00:00:01.517" out="00:00:02.000">
    <property name="window">75</property>
    <property name="max_gain">20dB</property>
    <property name="mlt_service">volume</property>
    <property name="kdenlive_id">fadeout</property>
    <property name="gain">1</property>
    <property name="end">0</property>
   </filter>
  </entry>
  <blank length="00:00:03.050"/>
  <entry producer="producer740" in="00:00:00.667" out="00:00:02.383">
   <property name="kdenlive:id">133</property>
   <property name="kdenlive:activeeffect">1</property>
   <filter id="filter238" in="00:00:00.667" out="00:00:02.400">
    <property name="window">75</property>
    <property name="max_gain">20dB</property>
    <property name="mlt_service">volume</property>
    <property name="kdenlive_id">fadeout</property>
    <property name="gain">1</property>
    <property name="end">0</property>
    <property name="kdenlive:collapsed">0</property>
   </filter>
   <filter id="filter239">
    <property name="window">75</property>
    <property name="max_gain">20dB</property>
    <property name="level">00:00:00.000=-8</property>
    <property name="mlt_service">volume</property>
    <property name="kdenlive_id">-8db</property>
    <property name="kdenlive:collapsed">0</property>
   </filter>
  </entry>
  <blank length="00:00:20.200"/>
  <entry producer="producer741" in="00:00:00.000" out="00:00:00.850">
   <property name="kdenlive:id">701</property>
   <filter id="filter240">
    <property name="window">75</property>
    <property name="max_gain">20dB</property>
    <property name="level">00:00:00.000=3</property>
    <property name="mlt_service">volume</property>
    <property name="kdenlive_id">+3db</property>
    <property name="kdenlive:collapsed">0</property>
   </filter>
  </entry>
  <blank length="00:00:13.033"/>
  <entry producer="producer695" in="00:00:00.517" out="00:00:00.750">
   <property name="kdenlive:id">35</property>
  </entry>
  <blank length="00:00:04.283"/>
  <entry producer="producer675" in="00:00:00.000" out="00:00:01.650">
   <property name="kdenlive:id">671</property>
   <filter id="filter241" in="00:00:00.967" out="00:00:01.650">
    <property name="window">75</property>
    <property name="max_gain">20dB</property>
    <property name="mlt_service">volume</property>
    <property name="kdenlive_id">fadeout</property>
    <property name="gain">1</property>
    <property name="end">0</property>
    <property name="kdenlive:collapsed">0</property>
   </filter>
   <filter id="filter242">
    <property name="window">75</property>
    <property name="max_gain">20dB</property>
    <property name="level">00:00:05.717=-5</property>
    <property name="mlt_service">volume</property>
    <property name="kdenlive_id">-5db</property>
    <property name="kdenlive:collapsed">0</property>
   </filter>
  </entry>
  <blank length="00:00:03.517"/>
  <entry producer="producer742" in="00:00:00.000" out="00:00:01.117">
   <property name="kdenlive:id">50</property>
   <filter id="filter243">
    <property name="window">75</property>
    <property name="max_gain">20dB</property>
    <property name="level">00:00:07.417=-5</property>
    <property name="mlt_service">volume</property>
    <property name="kdenlive_id">-5db</property>
    <property name="kdenlive:collapsed">0</property>
   </filter>
  </entry>
  <blank length="00:00:09.883"/>
  <entry producer="producer690" in="00:00:00.000" out="00:00:00.967">
   <property name="kdenlive:id">55</property>
   <filter id="filter244">
    <property name="window">75</property>
    <property name="max_gain">20dB</property>
    <property name="level">00:00:00.000=-8</property>
    <property name="mlt_service">volume</property>
    <property name="kdenlive_id">-8db</property>
    <property name="kdenlive:collapsed">0</property>
   </filter>
   <filter id="filter245" out="00:00:00.150">
    <property name="window">75</property>
    <property name="max_gain">20dB</property>
    <property name="mlt_service">volume</property>
    <property name="kdenlive_id">fadein</property>
    <property name="gain">0</property>
    <property name="end">1</property>
    <property name="kdenlive:collapsed">0</property>
   </filter>
  </entry>
  <blank length="00:00:00.033"/>
  <entry producer="producer690" in="00:00:00.000" out="00:00:00.917">
   <property name="kdenlive:id">55</property>
   <filter id="filter246">
    <property name="window">75</property>
    <property name="max_gain">20dB</property>
    <property name="level">00:00:00.000=-8</property>
    <property name="mlt_service">volume</property>
    <property name="kdenlive_id">-8db</property>
    <property name="kdenlive:collapsed">0</property>
   </filter>
   <filter id="filter247" out="00:00:00.033">
    <property name="window">75</property>
    <property name="max_gain">20dB</property>
    <property name="mlt_service">volume</property>
    <property name="kdenlive_id">fadein</property>
    <property name="gain">0</property>
    <property name="end">1</property>
    <property name="kdenlive:collapsed">0</property>
   </filter>
   <filter id="filter248" in="00:00:00.717" out="00:00:00.917">
    <property name="window">75</property>
    <property name="max_gain">20dB</property>
    <property name="mlt_service">volume</property>
    <property name="kdenlive_id">fadeout</property>
    <property name="gain">1</property>
    <property name="end">0</property>
   </filter>
  </entry>
  <blank length="00:00:01.950"/>
  <entry producer="producer690" in="00:00:00.000" out="00:00:01.417">
   <property name="kdenlive:id">55</property>
   <filter id="filter249">
    <property name="window">75</property>
    <property name="max_gain">20dB</property>
    <property name="level">00:00:00.000=-8</property>
    <property name="mlt_service">volume</property>
    <property name="kdenlive_id">-8db</property>
    <property name="kdenlive:collapsed">0</property>
   </filter>
   <filter id="filter250" out="00:00:00.150">
    <property name="window">75</property>
    <property name="max_gain">20dB</property>
    <property name="mlt_service">volume</property>
    <property name="kdenlive_id">fadein</property>
    <property name="gain">0</property>
    <property name="end">1</property>
    <property name="kdenlive:collapsed">0</property>
   </filter>
   <filter id="filter251" in="00:00:00.850" out="00:00:01.417">
    <property name="window">75</property>
    <property name="max_gain">20dB</property>
    <property name="mlt_service">volume</property>
    <property name="kdenlive_id">fadeout</property>
    <property name="gain">1</property>
    <property name="end">0</property>
   </filter>
  </entry>
  <blank length="00:00:01.450"/>
  <entry producer="producer690" in="00:00:00.000" out="00:00:02.150">
   <property name="kdenlive:id">55</property>
   <filter id="filter252">
    <property name="window">75</property>
    <property name="max_gain">20dB</property>
    <property name="level">00:00:00.000=-8</property>
    <property name="mlt_service">volume</property>
    <property name="kdenlive_id">-8db</property>
    <property name="kdenlive:collapsed">0</property>
   </filter>
   <filter id="filter253" out="00:00:00.150">
    <property name="window">75</property>
    <property name="max_gain">20dB</property>
    <property name="mlt_service">volume</property>
    <property name="kdenlive_id">fadein</property>
    <property name="gain">0</property>
    <property name="end">1</property>
    <property name="kdenlive:collapsed">0</property>
   </filter>
   <filter id="filter254" in="00:00:00.983" out="00:00:02.150">
    <property name="window">75</property>
    <property name="max_gain">20dB</property>
    <property name="mlt_service">volume</property>
    <property name="kdenlive_id">fadeout</property>
    <property name="gain">1</property>
    <property name="end">0</property>
    <property name="kdenlive:collapsed">0</property>
   </filter>
  </entry>
  <blank length="00:01:04.633"/>
  <entry producer="producer743" in="00:00:00.000" out="00:00:01.800">
   <property name="kdenlive:id">545</property>
  </entry>
  <blank length="00:00:05.800"/>
  <entry producer="producer690" in="00:00:00.000" out="00:00:00.450">
   <property name="kdenlive:id">55</property>
   <filter id="filter255" out="00:00:00.150">
    <property name="window">75</property>
    <property name="max_gain">20dB</property>
    <property name="mlt_service">volume</property>
    <property name="kdenlive_id">fadein</property>
    <property name="gain">0</property>
    <property name="end">1</property>
    <property name="kdenlive:collapsed">0</property>
   </filter>
   <filter id="filter256">
    <property name="window">75</property>
    <property name="max_gain">20dB</property>
    <property name="level">00:00:00.000=-8</property>
    <property name="mlt_service">volume</property>
    <property name="kdenlive_id">-8db</property>
    <property name="kdenlive:collapsed">0</property>
   </filter>
  </entry>
  <blank length="00:00:10.000"/>
  <entry producer="producer744" in="00:00:02.067" out="00:00:06.017">
   <property name="kdenlive:id">702</property>
   <filter id="filter257">
    <property name="window">75</property>
    <property name="max_gain">20dB</property>
    <property name="level">00:00:02.067=-8;00:00:05.400=-8;00:00:05.483=-20</property>
    <property name="mlt_service">volume</property>
    <property name="kdenlive_id">-8db</property>
    <property name="kdenlive:collapsed">0</property>
   </filter>
   <filter id="filter258" in="00:00:02.067" out="00:00:02.533">
    <property name="window">75</property>
    <property name="max_gain">20dB</property>
    <property name="mlt_service">volume</property>
    <property name="kdenlive_id">fadein</property>
    <property name="gain">0</property>
    <property name="end">1</property>
    <property name="kdenlive:collapsed">0</property>
   </filter>
  </entry>
  <blank length="00:00:06.383"/>
  <entry producer="producer675" in="00:00:00.000" out="00:00:02.850">
   <property name="kdenlive:id">671</property>
   <property name="kdenlive:activeeffect">2</property>
   <filter id="filter259">
    <property name="window">75</property>
    <property name="max_gain">20dB</property>
    <property name="level">00:00:00.000=-5;00:00:02.850=-5</property>
    <property name="mlt_service">volume</property>
    <property name="kdenlive_id">-5db</property>
    <property name="kdenlive:collapsed">0</property>
   </filter>
   <filter id="filter260" in="00:00:01.383" out="00:00:02.850">
    <property name="window">75</property>
    <property name="max_gain">20dB</property>
    <property name="mlt_service">volume</property>
    <property name="kdenlive_id">fadeout</property>
    <property name="gain">1</property>
    <property name="end">0</property>
    <property name="kdenlive:collapsed">0</property>
   </filter>
   <filter id="filter261">
    <property name="window">75</property>
    <property name="max_gain">20dB</property>
    <property name="level">922=-3</property>
    <property name="mlt_service">volume</property>
    <property name="kdenlive_id">-3db</property>
    <property name="kdenlive:collapsed">0</property>
   </filter>
  </entry>
  <blank length="00:00:10.817"/>
  <entry producer="producer694" in="00:00:00.000" out="00:00:01.517">
   <property name="kdenlive:id">6</property>
   <filter id="filter262" out="00:00:00.783">
    <property name="window">75</property>
    <property name="max_gain">20dB</property>
    <property name="mlt_service">volume</property>
    <property name="kdenlive_id">fadein</property>
    <property name="gain">0</property>
    <property name="end">1</property>
   </filter>
  </entry>
  <blank length="00:00:08.817"/>
  <entry producer="producer745" in="00:00:00.833" out="00:00:03.967">
   <property name="kdenlive:id">310</property>
   <filter id="filter263" in="00:00:00.833" out="00:00:01.300">
    <property name="window">75</property>
    <property name="max_gain">20dB</property>
    <property name="mlt_service">volume</property>
    <property name="kdenlive_id">fadein</property>
    <property name="gain">0</property>
    <property name="end">1</property>
    <property name="kdenlive:collapsed">0</property>
   </filter>
   <filter id="filter264">
    <property name="window">75</property>
    <property name="max_gain">20dB</property>
    <property name="level">00:00:00.000=-8</property>
    <property name="mlt_service">volume</property>
    <property name="kdenlive_id">-8db</property>
    <property name="kdenlive:collapsed">0</property>
   </filter>
   <filter id="filter265" in="00:00:01.483" out="00:00:03.967">
    <property name="window">75</property>
    <property name="max_gain">20dB</property>
    <property name="mlt_service">volume</property>
    <property name="kdenlive_id">fadeout</property>
    <property name="gain">1</property>
    <property name="end">0</property>
    <property name="kdenlive:collapsed">0</property>
   </filter>
  </entry>
  <blank length="00:00:15.617"/>
  <entry producer="producer695" in="00:00:00.517" out="00:00:00.850">
   <property name="kdenlive:id">35</property>
   <filter id="filter266">
    <property name="window">75</property>
    <property name="max_gain">20dB</property>
    <property name="level">00:00:00.517=-5;00:00:00.850=-5</property>
    <property name="mlt_service">volume</property>
    <property name="kdenlive_id">-5db</property>
    <property name="kdenlive:collapsed">0</property>
   </filter>
  </entry>
  <blank length="00:00:32.967"/>
  <entry producer="producer746" in="00:00:00.000" out="00:00:03.300">
   <property name="kdenlive:id">163</property>
   <filter id="filter267" out="00:00:01.050">
    <property name="window">75</property>
    <property name="max_gain">20dB</property>
    <property name="mlt_service">volume</property>
    <property name="kdenlive_id">fadein</property>
    <property name="gain">0</property>
    <property name="end">1</property>
    <property name="kdenlive:collapsed">0</property>
   </filter>
   <filter id="filter268">
    <property name="window">75</property>
    <property name="max_gain">20dB</property>
    <property name="level">00:00:00.000=-8</property>
    <property name="mlt_service">volume</property>
    <property name="kdenlive_id">-8db</property>
    <property name="kdenlive:collapsed">0</property>
   </filter>
   <filter id="filter269" in="00:00:02.333" out="00:00:03.300">
    <property name="window">75</property>
    <property name="max_gain">20dB</property>
    <property name="mlt_service">volume</property>
    <property name="kdenlive_id">fadeout</property>
    <property name="gain">1</property>
    <property name="end">0</property>
   </filter>
  </entry>
  <blank length="00:00:09.917"/>
  <entry producer="producer747" in="00:00:00.000" out="00:00:01.217">
   <property name="kdenlive:id">336</property>
   <property name="kdenlive:activeeffect">-1</property>
  </entry>
  <blank length="00:00:23.650"/>
  <entry producer="producer748" in="00:00:07.850" out="00:00:09.617">
   <property name="kdenlive:id">252</property>
   <filter id="filter270">
    <property name="window">75</property>
    <property name="max_gain">20dB</property>
    <property name="level">00:00:00.000=-8</property>
    <property name="mlt_service">volume</property>
    <property name="kdenlive_id">-8db</property>
    <property name="kdenlive:collapsed">0</property>
   </filter>
   <filter id="filter271">
    <property name="window">75</property>
    <property name="max_gain">20dB</property>
    <property name="level">00:00:00.000=-8</property>
    <property name="mlt_service">volume</property>
    <property name="kdenlive_id">-8db</property>
    <property name="kdenlive:collapsed">0</property>
   </filter>
   <filter id="filter272" in="00:00:08.050" out="00:00:09.617">
    <property name="window">75</property>
    <property name="max_gain">20dB</property>
    <property name="mlt_service">volume</property>
    <property name="kdenlive_id">fadeout</property>
    <property name="gain">1</property>
    <property name="end">0</property>
   </filter>
  </entry>
  <blank length="00:00:17.250"/>
  <entry producer="producer675" in="00:00:00.000" out="00:00:05.700">
   <property name="kdenlive:id">671</property>
   <property name="kdenlive:activeeffect">0</property>
   <filter id="filter273">
    <property name="window">75</property>
    <property name="max_gain">20dB</property>
    <property name="level">00:00:05.717=-5</property>
    <property name="mlt_service">volume</property>
    <property name="kdenlive_id">-5db</property>
    <property name="kdenlive:collapsed">0</property>
   </filter>
  </entry>
  <blank length="00:00:09.850"/>
  <entry producer="producer749" in="00:58:17.033" out="00:58:20.983">
   <property name="kdenlive:id">686</property>
   <property name="kdenlive:activeeffect">1</property>
   <filter id="filter274" in="00:58:17.017" out="00:58:20.983">
    <property name="window">75</property>
    <property name="max_gain">20dB</property>
    <property name="mlt_service">volume</property>
    <property name="kdenlive_id">fadeout</property>
    <property name="gain">1</property>
    <property name="end">0</property>
    <property name="kdenlive:collapsed">0</property>
   </filter>
   <filter id="filter275">
    <property name="window">75</property>
    <property name="max_gain">20dB</property>
    <property name="level">00:00:15.367=-5;00:58:17.300=-5;00:58:20.500=-20</property>
    <property name="mlt_service">volume</property>
    <property name="kdenlive_id">-5db</property>
    <property name="kdenlive:collapsed">0</property>
   </filter>
  </entry>
  <blank length="00:00:20.133"/>
  <entry producer="producer750" in="00:00:00.000" out="00:00:02.617">
   <property name="kdenlive:id">125</property>
   <property name="kdenlive:activeeffect">1</property>
   <filter id="filter276">
    <property name="window">75</property>
    <property name="max_gain">20dB</property>
    <property name="level">00:00:00.000=-8</property>
    <property name="mlt_service">volume</property>
    <property name="kdenlive_id">-8db</property>
    <property name="kdenlive:collapsed">0</property>
   </filter>
   <filter id="filter277">
    <property name="window">75</property>
    <property name="max_gain">20dB</property>
    <property name="level">00:00:02.633=-3</property>
    <property name="mlt_service">volume</property>
    <property name="kdenlive_id">-3db</property>
    <property name="kdenlive:collapsed">0</property>
   </filter>
  </entry>
  <blank length="00:00:00.833"/>
  <entry producer="producer750" in="00:00:00.000" out="00:00:02.617">
   <property name="kdenlive:id">125</property>
   <property name="kdenlive:activeeffect">1</property>
   <filter id="filter278">
    <property name="window">75</property>
    <property name="max_gain">20dB</property>
    <property name="level">00:00:00.000=-8</property>
    <property name="mlt_service">volume</property>
    <property name="kdenlive_id">-8db</property>
    <property name="kdenlive:collapsed">0</property>
   </filter>
   <filter id="filter279">
    <property name="window">75</property>
    <property name="max_gain">20dB</property>
    <property name="level">922=-3</property>
    <property name="mlt_service">volume</property>
    <property name="kdenlive_id">-3db</property>
    <property name="kdenlive:collapsed">0</property>
   </filter>
  </entry>
  <blank length="00:00:25.017"/>
  <entry producer="producer749" in="01:32:41.350" out="01:32:42.783">
   <property name="kdenlive:id">686</property>
   <filter id="filter280">
    <property name="window">75</property>
    <property name="max_gain">20dB</property>
    <property name="level">00:00:15.367=-5</property>
    <property name="mlt_service">volume</property>
    <property name="kdenlive_id">-5db</property>
    <property name="kdenlive:collapsed">0</property>
   </filter>
   <filter id="filter281" in="01:32:41.333" out="01:32:42.783">
    <property name="window">75</property>
    <property name="max_gain">20dB</property>
    <property name="mlt_service">volume</property>
    <property name="kdenlive_id">fadeout</property>
    <property name="gain">1</property>
    <property name="end">0</property>
    <property name="kdenlive:collapsed">0</property>
   </filter>
  </entry>
 </playlist>
 <playlist id="playlist7">
  <property name="kdenlive:audio_track">1</property>
 </playlist>
 <tractor id="tractor3" in="00:00:00.000" out="00:26:03.333">
  <property name="kdenlive:audio_track">1</property>
  <property name="kdenlive:trackheight">50</property>
  <property name="kdenlive:timeline_active">1</property>
  <property name="kdenlive:collapsed">0</property>
  <property name="kdenlive:thumbs_format"/>
  <property name="kdenlive:audio_rec"/>
  <track hide="video" producer="playlist6"/>
  <track hide="video" producer="playlist7"/>
  <filter id="filter282">
   <property name="window">75</property>
   <property name="max_gain">20dB</property>
   <property name="mlt_service">volume</property>
   <property name="internal_added">237</property>
   <property name="disable">1</property>
  </filter>
  <filter id="filter283">
   <property name="channel">-1</property>
   <property name="mlt_service">panner</property>
   <property name="internal_added">237</property>
   <property name="start">0.5</property>
   <property name="disable">1</property>
  </filter>
  <filter id="filter284">
   <property name="iec_scale">0</property>
   <property name="mlt_service">audiolevel</property>
   <property name="dbpeak">1</property>
   <property name="disable">1</property>
  </filter>
 </tractor>
 <producer id="producer751" in="00:00:00.000" out="00:00:03.833">
  <property name="length">231</property>
  <property name="eof">pause</property>
  <property name="resource">/home/federico/Nextcloud/Kden/EditingUT/Video/Intro/Yt/intro_nuova_2025.mkv</property>
  <property name="audio_index">1</property>
  <property name="video_index">0</property>
  <property name="mute_on_pause">0</property>
  <property name="mlt_service">avformat-novalidate</property>
  <property name="seekable">1</property>
  <property name="aspect_ratio">1</property>
  <property name="format">3</property>
  <property name="kdenlive:clipname"/>
  <property name="kdenlive:clip_type">0</property>
  <property name="kdenlive:folderid">577</property>
  <property name="kdenlive:id">579</property>
  <property name="kdenlive:file_size">738643</property>
  <property name="kdenlive:file_hash">d7c653594efa74c6ea3a2ff66ea3e890</property>
  <property name="kdenlive:audio_max1">171</property>
  <property name="xml">was here</property>
  <property name="meta.media.nb_streams">2</property>
  <property name="meta.media.0.stream.type">video</property>
  <property name="meta.media.0.stream.frame_rate">60</property>
  <property name="meta.media.0.stream.sample_aspect_ratio">1</property>
  <property name="meta.media.0.codec.width">1920</property>
  <property name="meta.media.0.codec.height">1080</property>
  <property name="meta.media.0.codec.rotate">0</property>
  <property name="meta.media.0.codec.pix_fmt">yuv420p</property>
  <property name="meta.media.0.codec.sample_aspect_ratio">1</property>
  <property name="meta.media.0.codec.colorspace">709</property>
  <property name="meta.media.0.codec.color_trc">1</property>
  <property name="meta.media.0.codec.name">h264</property>
  <property name="meta.media.0.codec.long_name">H.264 / AVC / MPEG-4 AVC / MPEG-4 part 10</property>
  <property name="meta.media.0.codec.bit_rate">0</property>
  <property name="meta.attr.0.stream.HANDLER_NAME.markup">VideoHandler</property>
  <property name="meta.attr.0.stream.VENDOR_ID.markup">[0][0][0][0]</property>
  <property name="meta.attr.0.stream.ENCODER.markup">Lavc60.31.102 libx264</property>
  <property name="meta.attr.0.stream.DURATION.markup">00:00:03.837000000</property>
  <property name="meta.media.1.stream.type">audio</property>
  <property name="meta.media.1.codec.sample_fmt">fltp</property>
  <property name="meta.media.1.codec.sample_rate">48000</property>
  <property name="meta.media.1.codec.channels">2</property>
  <property name="meta.media.1.codec.name">vorbis</property>
  <property name="meta.media.1.codec.long_name">Vorbis</property>
  <property name="meta.media.1.codec.bit_rate">0</property>
  <property name="meta.attr.1.stream.HANDLER_NAME.markup">SoundHandler</property>
  <property name="meta.attr.1.stream.VENDOR_ID.markup">[0][0][0][0]</property>
  <property name="meta.attr.1.stream.ENCODER.markup">Lavc60.31.102 libvorbis</property>
  <property name="meta.attr.1.stream.DURATION.markup">00:00:03.843000000</property>
  <property name="meta.attr.COMPATIBLE_BRANDS.markup">isomiso2avc1mp41</property>
  <property name="meta.attr.MAJOR_BRAND.markup">isom</property>
  <property name="meta.attr.MINOR_VERSION.markup">512</property>
  <property name="meta.attr.ENCODER.markup">Lavf60.16.100</property>
  <property name="meta.media.sample_aspect_num">1</property>
  <property name="meta.media.sample_aspect_den">1</property>
  <property name="meta.media.frame_rate_num">60</property>
  <property name="meta.media.frame_rate_den">1</property>
  <property name="meta.media.colorspace">709</property>
  <property name="meta.media.color_trc">1</property>
  <property name="meta.media.has_b_frames">2</property>
  <property name="meta.media.width">1920</property>
  <property name="meta.media.height">1080</property>
  <property name="meta.media.color_range">mpeg</property>
  <property name="meta.media.top_field_first">0</property>
  <property name="meta.media.progressive">1</property>
  <property name="set.test_audio">0</property>
  <property name="set.test_image">1</property>
 </producer>
 <producer id="producer752" in="00:00:00.000" out="02:55:15.583">
  <property name="length">630938</property>
  <property name="eof">pause</property>
  <property name="resource">/home/federico/Videos/Edit/Kden/ProxyRender/proxy/fe0d51893463e6190634030c49539660.mov</property>
  <property name="audio_index">1</property>
  <property name="video_index">0</property>
  <property name="mute_on_pause">0</property>
  <property name="mlt_service">avformat-novalidate</property>
  <property name="meta.media.nb_streams">2</property>
  <property name="meta.media.0.stream.type">video</property>
  <property name="meta.media.0.stream.frame_rate">59.9401</property>
  <property name="meta.media.0.stream.sample_aspect_ratio">1</property>
  <property name="meta.media.0.codec.width">640</property>
  <property name="meta.media.0.codec.height">360</property>
  <property name="meta.media.0.codec.rotate">0</property>
  <property name="meta.media.0.codec.pix_fmt">yuv420p</property>
  <property name="meta.media.0.codec.sample_aspect_ratio">1</property>
  <property name="meta.media.0.codec.colorspace">709</property>
  <property name="meta.media.0.codec.color_trc">1</property>
  <property name="meta.media.0.codec.name">h264</property>
  <property name="meta.media.0.codec.long_name">H.264 / AVC / MPEG-4 AVC / MPEG-4 part 10</property>
  <property name="meta.media.0.codec.bit_rate">5355740</property>
  <property name="meta.attr.0.stream.handler_name.markup">ISO Media file produced by Google Inc.</property>
  <property name="meta.attr.0.stream.vendor_id.markup">FFMP</property>
  <property name="meta.attr.0.stream.encoder.markup">Lavc59.18.100 libx264</property>
  <property name="meta.media.1.stream.type">audio</property>
  <property name="meta.media.1.codec.sample_fmt">fltp</property>
  <property name="meta.media.1.codec.sample_rate">48000</property>
  <property name="meta.media.1.codec.channels">2</property>
  <property name="meta.media.1.codec.name">aac</property>
  <property name="meta.media.1.codec.long_name">AAC (Advanced Audio Coding)</property>
  <property name="meta.media.1.codec.bit_rate">128722</property>
  <property name="meta.attr.1.stream.language.markup">eng</property>
  <property name="meta.attr.1.stream.handler_name.markup">SoundHandler</property>
  <property name="meta.attr.1.stream.vendor_id.markup">[0][0][0][0]</property>
  <property name="meta.attr.major_brand.markup">qt  </property>
  <property name="meta.attr.minor_version.markup">512</property>
  <property name="meta.attr.compatible_brands.markup">qt  </property>
  <property name="meta.attr.encoder.markup">Lavf59.16.100</property>
  <property name="seekable">1</property>
  <property name="meta.media.sample_aspect_num">1</property>
  <property name="meta.media.sample_aspect_den">1</property>
  <property name="aspect_ratio">1</property>
  <property name="format">3</property>
  <property name="kdenlive:clipname">1 - iudex hit - dark souls iii cinders  anima della sfida ii 1.mkv</property>
  <property name="kdenlive:clip_type">0</property>
  <property name="kdenlive:folderid">4</property>
  <property name="kdenlive:id">679</property>
  <property name="kdenlive:file_size">2828126290</property>
  <property name="kdenlive:file_hash">fe0d51893463e6190634030c49539660</property>
  <property name="kdenlive:audio_max1">212</property>
  <property name="kdenlive:proxy">/home/federico/Videos/Edit/Kden/ProxyRender/proxy/fe0d51893463e6190634030c49539660.mov</property>
  <property name="kdenlive:originalurl">/home/federico/Videos/Edit/Projects/DS3_cinders/5-Stream/1 - iudex hit - dark souls iii cinders  anima della sfida ii 1.mkv</property>
  <property name="kdenlive:original.mlt_type">producer</property>
  <property name="kdenlive:original.in">00:00:00.000</property>
  <property name="kdenlive:original.out">02:55:15.617</property>
  <property name="kdenlive:original.length">630938</property>
  <property name="kdenlive:original.eof">pause</property>
  <property name="kdenlive:original.resource">/home/federico/Videos/Edit/Projects/DS3_cinders/5-Stream/1 - iudex hit - dark souls iii cinders  anima della sfida ii 1.mkv</property>
  <property name="kdenlive:original.meta.media.nb_streams">2</property>
  <property name="kdenlive:original.meta.media.0.stream.type">video</property>
  <property name="kdenlive:original.meta.media.0.stream.frame_rate">59.9401</property>
  <property name="kdenlive:original.meta.media.0.stream.sample_aspect_ratio">0</property>
  <property name="kdenlive:original.meta.media.0.codec.width">1920</property>
  <property name="kdenlive:original.meta.media.0.codec.height">1080</property>
  <property name="kdenlive:original.meta.media.0.codec.rotate">0</property>
  <property name="kdenlive:original.meta.media.0.codec.pix_fmt">yuv420p</property>
  <property name="kdenlive:original.meta.media.0.codec.sample_aspect_ratio">0</property>
  <property name="kdenlive:original.meta.media.0.codec.colorspace">709</property>
  <property name="kdenlive:original.meta.media.0.codec.color_trc">1</property>
  <property name="kdenlive:original.meta.media.0.codec.name">libdav1d</property>
  <property name="kdenlive:original.meta.media.0.codec.long_name">dav1d AV1 decoder by VideoLAN</property>
  <property name="kdenlive:original.meta.media.0.codec.bit_rate">0</property>
  <property name="kdenlive:original.meta.attr.0.stream.HANDLER_NAME.markup">ISO Media file produced by Google Inc.</property>
  <property name="kdenlive:original.meta.attr.0.stream.VENDOR_ID.markup">[0][0][0][0]</property>
  <property name="kdenlive:original.meta.attr.0.stream.DURATION.markup">02:55:15.589000000</property>
  <property name="kdenlive:original.meta.media.1.stream.type">audio</property>
  <property name="kdenlive:original.meta.media.1.codec.sample_fmt">fltp</property>
  <property name="kdenlive:original.meta.media.1.codec.sample_rate">48000</property>
  <property name="kdenlive:original.meta.media.1.codec.channels">2</property>
  <property name="kdenlive:original.meta.media.1.codec.name">opus</property>
  <property name="kdenlive:original.meta.media.1.codec.long_name">Opus</property>
  <property name="kdenlive:original.meta.media.1.codec.bit_rate">0</property>
  <property name="kdenlive:original.meta.attr.1.stream.language.markup">eng</property>
  <property name="kdenlive:original.meta.attr.1.stream.DURATION.markup">02:55:15.628000000</property>
  <property name="kdenlive:original.meta.attr.COMPATIBLE_BRANDS.markup">iso6av01mp41</property>
  <property name="kdenlive:original.meta.attr.MAJOR_BRAND.markup">dash</property>
  <property name="kdenlive:original.meta.attr.MINOR_VERSION.markup">0</property>
  <property name="kdenlive:original.meta.attr.ENCODER.markup">Lavf60.16.100</property>
  <property name="kdenlive:original.seekable">1</property>
  <property name="kdenlive:original.width">1920</property>
  <property name="kdenlive:original.height">1080</property>
  <property name="kdenlive:original.meta.media.sample_aspect_num">1</property>
  <property name="kdenlive:original.meta.media.sample_aspect_den">1</property>
  <property name="kdenlive:original.aspect_ratio">1</property>
  <property name="kdenlive:original.format">3</property>
  <property name="kdenlive:original.audio_index">1</property>
  <property name="kdenlive:original.video_index">0</property>
  <property name="kdenlive:original.mute_on_pause">0</property>
  <property name="kdenlive:original.mlt_service">avformat-novalidate</property>
  <property name="kdenlive:original.meta.media.frame_rate_num">60000</property>
  <property name="kdenlive:original.meta.media.frame_rate_den">1001</property>
  <property name="kdenlive:original.meta.media.colorspace">709</property>
  <property name="kdenlive:original.meta.media.color_trc">1</property>
  <property name="kdenlive:original.meta.media.has_b_frames">0</property>
  <property name="kdenlive:original.meta.media.width">1920</property>
  <property name="kdenlive:original.meta.media.height">1080</property>
  <property name="kdenlive:original.meta.media.color_range">mpeg</property>
  <property name="kdenlive:original.meta.media.top_field_first">0</property>
  <property name="kdenlive:original.meta.media.progressive">1</property>
  <property name="kdenlive:original.kdenlive:clip_type">0</property>
  <property name="kdenlive:original.kdenlive:folderid">4</property>
  <property name="kdenlive:original.kdenlive:id">679</property>
  <property name="kdenlive:original.kdenlive:file_size">2828126290</property>
  <property name="kdenlive:original.kdenlive:file_hash">fe0d51893463e6190634030c49539660</property>
  <property name="kdenlive:original.kdenlive:audio_max1">212</property>
  <property name="kdenlive:original.backup">1</property>
  <property name="xml">was here</property>
  <property name="meta.media.frame_rate_num">19001</property>
  <property name="meta.media.frame_rate_den">317</property>
  <property name="meta.media.colorspace">709</property>
  <property name="meta.media.color_trc">1</property>
  <property name="meta.media.has_b_frames">0</property>
  <property name="meta.media.width">640</property>
  <property name="meta.media.height">360</property>
  <property name="meta.media.color_range">mpeg</property>
  <property name="meta.media.top_field_first">0</property>
  <property name="meta.media.progressive">1</property>
  <property name="set.test_audio">0</property>
  <property name="set.test_image">1</property>
 </producer>
 <producer id="producer753" in="00:00:00.000" out="02:55:15.583">
  <property name="length">630938</property>
  <property name="eof">pause</property>
  <property name="resource">/home/federico/Videos/Edit/Kden/ProxyRender/proxy/fe0d51893463e6190634030c49539660.mov</property>
  <property name="audio_index">1</property>
  <property name="video_index">0</property>
  <property name="mute_on_pause">0</property>
  <property name="mlt_service">avformat-novalidate</property>
  <property name="seekable">1</property>
  <property name="aspect_ratio">1</property>
  <property name="format">3</property>
  <property name="kdenlive:clipname">1 - iudex hit - dark souls iii cinders  anima della sfida ii 1.mkv</property>
  <property name="kdenlive:clip_type">0</property>
  <property name="kdenlive:folderid">4</property>
  <property name="kdenlive:id">679</property>
  <property name="kdenlive:file_size">2828126290</property>
  <property name="kdenlive:file_hash">fe0d51893463e6190634030c49539660</property>
  <property name="kdenlive:audio_max1">212</property>
  <property name="kdenlive:proxy">/home/federico/Videos/Edit/Kden/ProxyRender/proxy/fe0d51893463e6190634030c49539660.mov</property>
  <property name="kdenlive:originalurl">/home/federico/Videos/Edit/Projects/DS3_cinders/5-Stream/1 - iudex hit - dark souls iii cinders  anima della sfida ii 1.mkv</property>
  <property name="kdenlive:original.mlt_type">producer</property>
  <property name="kdenlive:original.in">00:00:00.000</property>
  <property name="kdenlive:original.out">02:55:15.617</property>
  <property name="kdenlive:original.length">630938</property>
  <property name="kdenlive:original.eof">pause</property>
  <property name="kdenlive:original.resource">/home/federico/Videos/Edit/Projects/DS3_cinders/5-Stream/1 - iudex hit - dark souls iii cinders  anima della sfida ii 1.mkv</property>
  <property name="kdenlive:original.meta.media.nb_streams">2</property>
  <property name="kdenlive:original.meta.media.0.stream.type">video</property>
  <property name="kdenlive:original.meta.media.0.stream.frame_rate">59.9401</property>
  <property name="kdenlive:original.meta.media.0.stream.sample_aspect_ratio">0</property>
  <property name="kdenlive:original.meta.media.0.codec.width">1920</property>
  <property name="kdenlive:original.meta.media.0.codec.height">1080</property>
  <property name="kdenlive:original.meta.media.0.codec.rotate">0</property>
  <property name="kdenlive:original.meta.media.0.codec.pix_fmt">yuv420p</property>
  <property name="kdenlive:original.meta.media.0.codec.sample_aspect_ratio">0</property>
  <property name="kdenlive:original.meta.media.0.codec.colorspace">709</property>
  <property name="kdenlive:original.meta.media.0.codec.color_trc">1</property>
  <property name="kdenlive:original.meta.media.0.codec.name">libdav1d</property>
  <property name="kdenlive:original.meta.media.0.codec.long_name">dav1d AV1 decoder by VideoLAN</property>
  <property name="kdenlive:original.meta.media.0.codec.bit_rate">0</property>
  <property name="kdenlive:original.meta.attr.0.stream.HANDLER_NAME.markup">ISO Media file produced by Google Inc.</property>
  <property name="kdenlive:original.meta.attr.0.stream.VENDOR_ID.markup">[0][0][0][0]</property>
  <property name="kdenlive:original.meta.attr.0.stream.DURATION.markup">02:55:15.589000000</property>
  <property name="kdenlive:original.meta.media.1.stream.type">audio</property>
  <property name="kdenlive:original.meta.media.1.codec.sample_fmt">fltp</property>
  <property name="kdenlive:original.meta.media.1.codec.sample_rate">48000</property>
  <property name="kdenlive:original.meta.media.1.codec.channels">2</property>
  <property name="kdenlive:original.meta.media.1.codec.name">opus</property>
  <property name="kdenlive:original.meta.media.1.codec.long_name">Opus</property>
  <property name="kdenlive:original.meta.media.1.codec.bit_rate">0</property>
  <property name="kdenlive:original.meta.attr.1.stream.language.markup">eng</property>
  <property name="kdenlive:original.meta.attr.1.stream.DURATION.markup">02:55:15.628000000</property>
  <property name="kdenlive:original.meta.attr.COMPATIBLE_BRANDS.markup">iso6av01mp41</property>
  <property name="kdenlive:original.meta.attr.MAJOR_BRAND.markup">dash</property>
  <property name="kdenlive:original.meta.attr.MINOR_VERSION.markup">0</property>
  <property name="kdenlive:original.meta.attr.ENCODER.markup">Lavf60.16.100</property>
  <property name="kdenlive:original.seekable">1</property>
  <property name="kdenlive:original.width">1920</property>
  <property name="kdenlive:original.height">1080</property>
  <property name="kdenlive:original.meta.media.sample_aspect_num">1</property>
  <property name="kdenlive:original.meta.media.sample_aspect_den">1</property>
  <property name="kdenlive:original.aspect_ratio">1</property>
  <property name="kdenlive:original.format">3</property>
  <property name="kdenlive:original.audio_index">1</property>
  <property name="kdenlive:original.video_index">0</property>
  <property name="kdenlive:original.mute_on_pause">0</property>
  <property name="kdenlive:original.mlt_service">avformat-novalidate</property>
  <property name="kdenlive:original.meta.media.frame_rate_num">60000</property>
  <property name="kdenlive:original.meta.media.frame_rate_den">1001</property>
  <property name="kdenlive:original.meta.media.colorspace">709</property>
  <property name="kdenlive:original.meta.media.color_trc">1</property>
  <property name="kdenlive:original.meta.media.has_b_frames">0</property>
  <property name="kdenlive:original.meta.media.width">1920</property>
  <property name="kdenlive:original.meta.media.height">1080</property>
  <property name="kdenlive:original.meta.media.color_range">mpeg</property>
  <property name="kdenlive:original.meta.media.top_field_first">0</property>
  <property name="kdenlive:original.meta.media.progressive">1</property>
  <property name="kdenlive:original.kdenlive:clip_type">0</property>
  <property name="kdenlive:original.kdenlive:folderid">4</property>
  <property name="kdenlive:original.kdenlive:id">679</property>
  <property name="kdenlive:original.kdenlive:file_size">2828126290</property>
  <property name="kdenlive:original.kdenlive:file_hash">fe0d51893463e6190634030c49539660</property>
  <property name="kdenlive:original.kdenlive:audio_max1">212</property>
  <property name="kdenlive:original.backup">1</property>
  <property name="xml">was here</property>
  <property name="meta.media.nb_streams">2</property>
  <property name="meta.media.0.stream.type">video</property>
  <property name="meta.media.0.stream.frame_rate">59.9401</property>
  <property name="meta.media.0.stream.sample_aspect_ratio">1</property>
  <property name="meta.media.0.codec.width">640</property>
  <property name="meta.media.0.codec.height">360</property>
  <property name="meta.media.0.codec.rotate">0</property>
  <property name="meta.media.0.codec.pix_fmt">yuv420p</property>
  <property name="meta.media.0.codec.sample_aspect_ratio">1</property>
  <property name="meta.media.0.codec.colorspace">709</property>
  <property name="meta.media.0.codec.color_trc">1</property>
  <property name="meta.media.0.codec.name">h264</property>
  <property name="meta.media.0.codec.long_name">H.264 / AVC / MPEG-4 AVC / MPEG-4 part 10</property>
  <property name="meta.media.0.codec.bit_rate">5355740</property>
  <property name="meta.attr.0.stream.handler_name.markup">ISO Media file produced by Google Inc.</property>
  <property name="meta.attr.0.stream.vendor_id.markup">FFMP</property>
  <property name="meta.attr.0.stream.encoder.markup">Lavc59.18.100 libx264</property>
  <property name="meta.media.1.stream.type">audio</property>
  <property name="meta.media.1.codec.sample_fmt">fltp</property>
  <property name="meta.media.1.codec.sample_rate">48000</property>
  <property name="meta.media.1.codec.channels">2</property>
  <property name="meta.media.1.codec.name">aac</property>
  <property name="meta.media.1.codec.long_name">AAC (Advanced Audio Coding)</property>
  <property name="meta.media.1.codec.bit_rate">128722</property>
  <property name="meta.attr.1.stream.language.markup">eng</property>
  <property name="meta.attr.1.stream.handler_name.markup">SoundHandler</property>
  <property name="meta.attr.1.stream.vendor_id.markup">[0][0][0][0]</property>
  <property name="meta.attr.major_brand.markup">qt  </property>
  <property name="meta.attr.minor_version.markup">512</property>
  <property name="meta.attr.compatible_brands.markup">qt  </property>
  <property name="meta.attr.encoder.markup">Lavf59.16.100</property>
  <property name="meta.media.sample_aspect_num">1</property>
  <property name="meta.media.sample_aspect_den">1</property>
  <property name="meta.media.frame_rate_num">19001</property>
  <property name="meta.media.frame_rate_den">317</property>
  <property name="meta.media.colorspace">709</property>
  <property name="meta.media.color_trc">1</property>
  <property name="meta.media.has_b_frames">0</property>
  <property name="meta.media.width">640</property>
  <property name="meta.media.height">360</property>
  <property name="meta.media.color_range">mpeg</property>
  <property name="meta.media.top_field_first">0</property>
  <property name="meta.media.progressive">1</property>
  <property name="set.test_audio">1</property>
  <property name="set.test_image">1</property>
 </producer>
 <producer id="producer754" in="00:00:00.000" out="02:50:28.900">
  <property name="length">613736</property>
  <property name="eof">pause</property>
  <property name="resource">/home/federico/Videos/Edit/Kden/ProxyRender/proxy/f6918f2d79882f9391f2f765ac219be5.mov</property>
  <property name="audio_index">1</property>
  <property name="video_index">0</property>
  <property name="mute_on_pause">0</property>
  <property name="mlt_service">avformat-novalidate</property>
  <property name="meta.media.nb_streams">2</property>
  <property name="meta.media.0.stream.type">video</property>
  <property name="meta.media.0.stream.frame_rate">60</property>
  <property name="meta.media.0.stream.sample_aspect_ratio">1</property>
  <property name="meta.media.0.codec.width">640</property>
  <property name="meta.media.0.codec.height">360</property>
  <property name="meta.media.0.codec.rotate">0</property>
  <property name="meta.media.0.codec.pix_fmt">yuv420p</property>
  <property name="meta.media.0.codec.sample_aspect_ratio">1</property>
  <property name="meta.media.0.codec.colorspace">709</property>
  <property name="meta.media.0.codec.color_trc">1</property>
  <property name="meta.media.0.codec.name">h264</property>
  <property name="meta.media.0.codec.long_name">H.264 / AVC / MPEG-4 AVC / MPEG-4 part 10</property>
  <property name="meta.media.0.codec.bit_rate">5791824</property>
  <property name="meta.attr.0.stream.handler_name.markup">ISO Media file produced by Google Inc.</property>
  <property name="meta.attr.0.stream.vendor_id.markup">FFMP</property>
  <property name="meta.attr.0.stream.encoder.markup">Lavc59.18.100 libx264</property>
  <property name="meta.media.1.stream.type">audio</property>
  <property name="meta.media.1.codec.sample_fmt">fltp</property>
  <property name="meta.media.1.codec.sample_rate">48000</property>
  <property name="meta.media.1.codec.channels">2</property>
  <property name="meta.media.1.codec.name">aac</property>
  <property name="meta.media.1.codec.long_name">AAC (Advanced Audio Coding)</property>
  <property name="meta.media.1.codec.bit_rate">128878</property>
  <property name="meta.attr.1.stream.language.markup">eng</property>
  <property name="meta.attr.1.stream.handler_name.markup">SoundHandler</property>
  <property name="meta.attr.1.stream.vendor_id.markup">[0][0][0][0]</property>
  <property name="meta.attr.major_brand.markup">qt  </property>
  <property name="meta.attr.minor_version.markup">512</property>
  <property name="meta.attr.compatible_brands.markup">qt  </property>
  <property name="meta.attr.encoder.markup">Lavf59.16.100</property>
  <property name="seekable">1</property>
  <property name="meta.media.sample_aspect_num">1</property>
  <property name="meta.media.sample_aspect_den">1</property>
  <property name="aspect_ratio">1</property>
  <property name="format">3</property>
  <property name="kdenlive:clipname">2 - mod of chaos - dark souls iii cinders  anima della sfida ii 2.mkv</property>
  <property name="kdenlive:clip_type">0</property>
  <property name="kdenlive:folderid">4</property>
  <property name="kdenlive:id">680</property>
  <property name="kdenlive:file_size">3761357757</property>
  <property name="kdenlive:file_hash">f6918f2d79882f9391f2f765ac219be5</property>
  <property name="kdenlive:proxy">/home/federico/Videos/Edit/Kden/ProxyRender/proxy/f6918f2d79882f9391f2f765ac219be5.mov</property>
  <property name="kdenlive:originalurl">/home/federico/Videos/Edit/Projects/DS3_cinders/5-Stream/2 - mod of chaos - dark souls iii cinders  anima della sfida ii 2.mkv</property>
  <property name="kdenlive:original.mlt_type">producer</property>
  <property name="kdenlive:original.in">00:00:00.000</property>
  <property name="kdenlive:original.out">02:50:28.917</property>
  <property name="kdenlive:original.length">613736</property>
  <property name="kdenlive:original.eof">pause</property>
  <property name="kdenlive:original.resource">/home/federico/Videos/Edit/Projects/DS3_cinders/5-Stream/2 - mod of chaos - dark souls iii cinders  anima della sfida ii 2.mkv</property>
  <property name="kdenlive:original.meta.media.nb_streams">2</property>
  <property name="kdenlive:original.meta.media.0.stream.type">video</property>
  <property name="kdenlive:original.meta.media.0.stream.frame_rate">60</property>
  <property name="kdenlive:original.meta.media.0.stream.sample_aspect_ratio">0</property>
  <property name="kdenlive:original.meta.media.0.codec.width">1920</property>
  <property name="kdenlive:original.meta.media.0.codec.height">1080</property>
  <property name="kdenlive:original.meta.media.0.codec.rotate">0</property>
  <property name="kdenlive:original.meta.media.0.codec.pix_fmt">yuv420p</property>
  <property name="kdenlive:original.meta.media.0.codec.sample_aspect_ratio">0</property>
  <property name="kdenlive:original.meta.media.0.codec.colorspace">709</property>
  <property name="kdenlive:original.meta.media.0.codec.color_trc">1</property>
  <property name="kdenlive:original.meta.media.0.codec.name">libdav1d</property>
  <property name="kdenlive:original.meta.media.0.codec.long_name">dav1d AV1 decoder by VideoLAN</property>
  <property name="kdenlive:original.meta.media.0.codec.bit_rate">0</property>
  <property name="kdenlive:original.meta.attr.0.stream.HANDLER_NAME.markup">ISO Media file produced by Google Inc.</property>
  <property name="kdenlive:original.meta.attr.0.stream.VENDOR_ID.markup">[0][0][0][0]</property>
  <property name="kdenlive:original.meta.attr.0.stream.DURATION.markup">02:50:28.900000000</property>
  <property name="kdenlive:original.meta.media.1.stream.type">audio</property>
  <property name="kdenlive:original.meta.media.1.codec.sample_fmt">fltp</property>
  <property name="kdenlive:original.meta.media.1.codec.sample_rate">48000</property>
  <property name="kdenlive:original.meta.media.1.codec.channels">2</property>
  <property name="kdenlive:original.meta.media.1.codec.name">opus</property>
  <property name="kdenlive:original.meta.media.1.codec.long_name">Opus</property>
  <property name="kdenlive:original.meta.media.1.codec.bit_rate">0</property>
  <property name="kdenlive:original.meta.attr.1.stream.language.markup">eng</property>
  <property name="kdenlive:original.meta.attr.1.stream.DURATION.markup">02:50:28.928000000</property>
  <property name="kdenlive:original.meta.attr.COMPATIBLE_BRANDS.markup">iso6av01mp41</property>
  <property name="kdenlive:original.meta.attr.MAJOR_BRAND.markup">dash</property>
  <property name="kdenlive:original.meta.attr.MINOR_VERSION.markup">0</property>
  <property name="kdenlive:original.meta.attr.ENCODER.markup">Lavf60.16.100</property>
  <property name="kdenlive:original.seekable">1</property>
  <property name="kdenlive:original.width">1920</property>
  <property name="kdenlive:original.height">1080</property>
  <property name="kdenlive:original.meta.media.sample_aspect_num">1</property>
  <property name="kdenlive:original.meta.media.sample_aspect_den">1</property>
  <property name="kdenlive:original.aspect_ratio">1</property>
  <property name="kdenlive:original.format">3</property>
  <property name="kdenlive:original.audio_index">1</property>
  <property name="kdenlive:original.video_index">0</property>
  <property name="kdenlive:original.mute_on_pause">0</property>
  <property name="kdenlive:original.mlt_service">avformat-novalidate</property>
  <property name="kdenlive:original.meta.media.frame_rate_num">60</property>
  <property name="kdenlive:original.meta.media.frame_rate_den">1</property>
  <property name="kdenlive:original.meta.media.colorspace">709</property>
  <property name="kdenlive:original.meta.media.color_trc">1</property>
  <property name="kdenlive:original.meta.media.has_b_frames">0</property>
  <property name="kdenlive:original.meta.media.width">1920</property>
  <property name="kdenlive:original.meta.media.height">1080</property>
  <property name="kdenlive:original.meta.media.color_range">mpeg</property>
  <property name="kdenlive:original.meta.media.top_field_first">0</property>
  <property name="kdenlive:original.meta.media.progressive">1</property>
  <property name="kdenlive:original.kdenlive:clip_type">0</property>
  <property name="kdenlive:original.kdenlive:folderid">4</property>
  <property name="kdenlive:original.kdenlive:id">680</property>
  <property name="kdenlive:original.kdenlive:file_size">3761357757</property>
  <property name="kdenlive:original.kdenlive:file_hash">f6918f2d79882f9391f2f765ac219be5</property>
  <property name="kdenlive:original.backup">1</property>
  <property name="kdenlive:audio_max1">206</property>
  <property name="xml">was here</property>
  <property name="meta.media.frame_rate_num">60</property>
  <property name="meta.media.frame_rate_den">1</property>
  <property name="meta.media.colorspace">709</property>
  <property name="meta.media.color_trc">1</property>
  <property name="meta.media.has_b_frames">0</property>
  <property name="meta.media.width">640</property>
  <property name="meta.media.height">360</property>
  <property name="meta.media.color_range">mpeg</property>
  <property name="meta.media.top_field_first">0</property>
  <property name="meta.media.progressive">1</property>
  <property name="set.test_audio">0</property>
  <property name="set.test_image">1</property>
 </producer>
 <producer id="producer755" in="00:00:00.000" out="02:11:32.800">
  <property name="length">473570</property>
  <property name="eof">pause</property>
  <property name="resource">/home/federico/Videos/Edit/Kden/ProxyRender/proxy/e297f2e0f7ae15f1f6c3e6c7a3b137c7.mov</property>
  <property name="audio_index">1</property>
  <property name="video_index">0</property>
  <property name="mute_on_pause">0</property>
  <property name="mlt_service">avformat-novalidate</property>
  <property name="meta.media.nb_streams">2</property>
  <property name="meta.media.0.stream.type">video</property>
  <property name="meta.media.0.stream.frame_rate">59.9401</property>
  <property name="meta.media.0.stream.sample_aspect_ratio">1</property>
  <property name="meta.media.0.codec.width">640</property>
  <property name="meta.media.0.codec.height">360</property>
  <property name="meta.media.0.codec.rotate">0</property>
  <property name="meta.media.0.codec.pix_fmt">yuv420p</property>
  <property name="meta.media.0.codec.sample_aspect_ratio">1</property>
  <property name="meta.media.0.codec.colorspace">709</property>
  <property name="meta.media.0.codec.color_trc">1</property>
  <property name="meta.media.0.codec.name">h264</property>
  <property name="meta.media.0.codec.long_name">H.264 / AVC / MPEG-4 AVC / MPEG-4 part 10</property>
  <property name="meta.media.0.codec.bit_rate">5565045</property>
  <property name="meta.attr.0.stream.handler_name.markup">ISO Media file produced by Google Inc.</property>
  <property name="meta.attr.0.stream.vendor_id.markup">FFMP</property>
  <property name="meta.attr.0.stream.encoder.markup">Lavc59.18.100 libx264</property>
  <property name="meta.media.1.stream.type">audio</property>
  <property name="meta.media.1.codec.sample_fmt">fltp</property>
  <property name="meta.media.1.codec.sample_rate">48000</property>
  <property name="meta.media.1.codec.channels">2</property>
  <property name="meta.media.1.codec.name">aac</property>
  <property name="meta.media.1.codec.long_name">AAC (Advanced Audio Coding)</property>
  <property name="meta.media.1.codec.bit_rate">128838</property>
  <property name="meta.attr.1.stream.language.markup">eng</property>
  <property name="meta.attr.1.stream.handler_name.markup">SoundHandler</property>
  <property name="meta.attr.1.stream.vendor_id.markup">[0][0][0][0]</property>
  <property name="meta.attr.major_brand.markup">qt  </property>
  <property name="meta.attr.minor_version.markup">512</property>
  <property name="meta.attr.compatible_brands.markup">qt  </property>
  <property name="meta.attr.encoder.markup">Lavf59.16.100</property>
  <property name="seekable">1</property>
  <property name="meta.media.sample_aspect_num">1</property>
  <property name="meta.media.sample_aspect_den">1</property>
  <property name="aspect_ratio">1</property>
  <property name="format">3</property>
  <property name="kdenlive:clipname">3 - dark souls iii cinders  anima della sfida ii 3.mkv</property>
  <property name="kdenlive:clip_type">0</property>
  <property name="kdenlive:folderid">4</property>
  <property name="kdenlive:id">681</property>
  <property name="kdenlive:file_size">3370680153</property>
  <property name="kdenlive:file_hash">e297f2e0f7ae15f1f6c3e6c7a3b137c7</property>
  <property name="kdenlive:proxy">/home/federico/Videos/Edit/Kden/ProxyRender/proxy/e297f2e0f7ae15f1f6c3e6c7a3b137c7.mov</property>
  <property name="kdenlive:originalurl">/home/federico/Videos/Edit/Projects/DS3_cinders/5-Stream/3 - dark souls iii cinders  anima della sfida ii 3.mkv</property>
  <property name="kdenlive:original.mlt_type">producer</property>
  <property name="kdenlive:original.in">00:00:00.000</property>
  <property name="kdenlive:original.out">02:11:32.817</property>
  <property name="kdenlive:original.length">473570</property>
  <property name="kdenlive:original.eof">pause</property>
  <property name="kdenlive:original.resource">/home/federico/Videos/Edit/Projects/DS3_cinders/5-Stream/3 - dark souls iii cinders  anima della sfida ii 3.mkv</property>
  <property name="kdenlive:original.meta.media.nb_streams">2</property>
  <property name="kdenlive:original.meta.media.0.stream.type">video</property>
  <property name="kdenlive:original.meta.media.0.stream.frame_rate">59.9401</property>
  <property name="kdenlive:original.meta.media.0.stream.sample_aspect_ratio">0</property>
  <property name="kdenlive:original.meta.media.0.codec.width">1920</property>
  <property name="kdenlive:original.meta.media.0.codec.height">1080</property>
  <property name="kdenlive:original.meta.media.0.codec.rotate">0</property>
  <property name="kdenlive:original.meta.media.0.codec.pix_fmt">yuv420p</property>
  <property name="kdenlive:original.meta.media.0.codec.sample_aspect_ratio">0</property>
  <property name="kdenlive:original.meta.media.0.codec.colorspace">709</property>
  <property name="kdenlive:original.meta.media.0.codec.color_trc">1</property>
  <property name="kdenlive:original.meta.media.0.codec.name">libdav1d</property>
  <property name="kdenlive:original.meta.media.0.codec.long_name">dav1d AV1 decoder by VideoLAN</property>
  <property name="kdenlive:original.meta.media.0.codec.bit_rate">0</property>
  <property name="kdenlive:original.meta.attr.0.stream.HANDLER_NAME.markup">ISO Media file produced by Google Inc.</property>
  <property name="kdenlive:original.meta.attr.0.stream.VENDOR_ID.markup">[0][0][0][0]</property>
  <property name="kdenlive:original.meta.attr.0.stream.DURATION.markup">02:11:32.802000000</property>
  <property name="kdenlive:original.meta.media.1.stream.type">audio</property>
  <property name="kdenlive:original.meta.media.1.codec.sample_fmt">fltp</property>
  <property name="kdenlive:original.meta.media.1.codec.sample_rate">48000</property>
  <property name="kdenlive:original.meta.media.1.codec.channels">2</property>
  <property name="kdenlive:original.meta.media.1.codec.name">opus</property>
  <property name="kdenlive:original.meta.media.1.codec.long_name">Opus</property>
  <property name="kdenlive:original.meta.media.1.codec.bit_rate">0</property>
  <property name="kdenlive:original.meta.attr.1.stream.language.markup">eng</property>
  <property name="kdenlive:original.meta.attr.1.stream.DURATION.markup">02:11:32.828000000</property>
  <property name="kdenlive:original.meta.attr.COMPATIBLE_BRANDS.markup">iso6av01mp41</property>
  <property name="kdenlive:original.meta.attr.MAJOR_BRAND.markup">dash</property>
  <property name="kdenlive:original.meta.attr.MINOR_VERSION.markup">0</property>
  <property name="kdenlive:original.meta.attr.ENCODER.markup">Lavf60.16.100</property>
  <property name="kdenlive:original.seekable">1</property>
  <property name="kdenlive:original.width">1920</property>
  <property name="kdenlive:original.height">1080</property>
  <property name="kdenlive:original.meta.media.sample_aspect_num">1</property>
  <property name="kdenlive:original.meta.media.sample_aspect_den">1</property>
  <property name="kdenlive:original.aspect_ratio">1</property>
  <property name="kdenlive:original.format">3</property>
  <property name="kdenlive:original.audio_index">1</property>
  <property name="kdenlive:original.video_index">0</property>
  <property name="kdenlive:original.mute_on_pause">0</property>
  <property name="kdenlive:original.mlt_service">avformat-novalidate</property>
  <property name="kdenlive:original.meta.media.frame_rate_num">60000</property>
  <property name="kdenlive:original.meta.media.frame_rate_den">1001</property>
  <property name="kdenlive:original.meta.media.colorspace">709</property>
  <property name="kdenlive:original.meta.media.color_trc">1</property>
  <property name="kdenlive:original.meta.media.has_b_frames">0</property>
  <property name="kdenlive:original.meta.media.width">1920</property>
  <property name="kdenlive:original.meta.media.height">1080</property>
  <property name="kdenlive:original.meta.media.color_range">mpeg</property>
  <property name="kdenlive:original.meta.media.top_field_first">0</property>
  <property name="kdenlive:original.meta.media.progressive">1</property>
  <property name="kdenlive:original.kdenlive:clip_type">0</property>
  <property name="kdenlive:original.kdenlive:folderid">4</property>
  <property name="kdenlive:original.kdenlive:id">681</property>
  <property name="kdenlive:original.kdenlive:file_size">3370680153</property>
  <property name="kdenlive:original.kdenlive:file_hash">e297f2e0f7ae15f1f6c3e6c7a3b137c7</property>
  <property name="kdenlive:original.backup">1</property>
  <property name="kdenlive:audio_max1">203</property>
  <property name="xml">was here</property>
  <property name="meta.media.frame_rate_num">19001</property>
  <property name="meta.media.frame_rate_den">317</property>
  <property name="meta.media.colorspace">709</property>
  <property name="meta.media.color_trc">1</property>
  <property name="meta.media.has_b_frames">0</property>
  <property name="meta.media.width">640</property>
  <property name="meta.media.height">360</property>
  <property name="meta.media.color_range">mpeg</property>
  <property name="meta.media.top_field_first">0</property>
  <property name="meta.media.progressive">1</property>
  <property name="set.test_audio">0</property>
  <property name="set.test_image">1</property>
 </producer>
 <producer id="producer756" in="00:00:00.000" out="02:31:23.133">
  <property name="length">544990</property>
  <property name="eof">pause</property>
  <property name="resource">/home/federico/Videos/Edit/Kden/ProxyRender/proxy/ca27a9d972c9214920a1b80c39287441.mov</property>
  <property name="audio_index">1</property>
  <property name="video_index">0</property>
  <property name="mute_on_pause">0</property>
  <property name="mlt_service">avformat-novalidate</property>
  <property name="meta.media.nb_streams">2</property>
  <property name="meta.media.0.stream.type">video</property>
  <property name="meta.media.0.stream.frame_rate">60</property>
  <property name="meta.media.0.stream.sample_aspect_ratio">1</property>
  <property name="meta.media.0.codec.width">640</property>
  <property name="meta.media.0.codec.height">360</property>
  <property name="meta.media.0.codec.rotate">0</property>
  <property name="meta.media.0.codec.pix_fmt">yuv420p</property>
  <property name="meta.media.0.codec.sample_aspect_ratio">1</property>
  <property name="meta.media.0.codec.colorspace">709</property>
  <property name="meta.media.0.codec.color_trc">1</property>
  <property name="meta.media.0.codec.name">h264</property>
  <property name="meta.media.0.codec.long_name">H.264 / AVC / MPEG-4 AVC / MPEG-4 part 10</property>
  <property name="meta.media.0.codec.bit_rate">5391916</property>
  <property name="meta.attr.0.stream.language.markup">eng</property>
  <property name="meta.attr.0.stream.handler_name.markup">VideoHandler</property>
  <property name="meta.attr.0.stream.vendor_id.markup">FFMP</property>
  <property name="meta.attr.0.stream.encoder.markup">Lavc59.18.100 libx264</property>
  <property name="meta.media.1.stream.type">audio</property>
  <property name="meta.media.1.codec.sample_fmt">fltp</property>
  <property name="meta.media.1.codec.sample_rate">48000</property>
  <property name="meta.media.1.codec.channels">2</property>
  <property name="meta.media.1.codec.name">aac</property>
  <property name="meta.media.1.codec.long_name">AAC (Advanced Audio Coding)</property>
  <property name="meta.media.1.codec.bit_rate">129930</property>
  <property name="meta.attr.1.stream.language.markup">eng</property>
  <property name="meta.attr.1.stream.handler_name.markup">SoundHandler</property>
  <property name="meta.attr.1.stream.vendor_id.markup">[0][0][0][0]</property>
  <property name="meta.attr.major_brand.markup">qt  </property>
  <property name="meta.attr.minor_version.markup">512</property>
  <property name="meta.attr.compatible_brands.markup">qt  </property>
  <property name="meta.attr.encoder.markup">Lavf59.16.100</property>
  <property name="seekable">1</property>
  <property name="meta.media.sample_aspect_num">1</property>
  <property name="meta.media.sample_aspect_den">1</property>
  <property name="aspect_ratio">1</property>
  <property name="format">3</property>
  <property name="kdenlive:clipname">4 - sleep issue - dark souls iii cinders  anima della sfida ii 4.mkv</property>
  <property name="kdenlive:clip_type">0</property>
  <property name="kdenlive:folderid">4</property>
  <property name="kdenlive:id">682</property>
  <property name="kdenlive:file_size">3681493931</property>
  <property name="kdenlive:file_hash">ca27a9d972c9214920a1b80c39287441</property>
  <property name="kdenlive:proxy">/home/federico/Videos/Edit/Kden/ProxyRender/proxy/ca27a9d972c9214920a1b80c39287441.mov</property>
  <property name="kdenlive:originalurl">/home/federico/Videos/Edit/Projects/DS3_cinders/5-Stream/4 - sleep issue - dark souls iii cinders  anima della sfida ii 4.mkv</property>
  <property name="kdenlive:original.mlt_type">producer</property>
  <property name="kdenlive:original.in">00:00:00.000</property>
  <property name="kdenlive:original.out">02:31:23.150</property>
  <property name="kdenlive:original.length">544990</property>
  <property name="kdenlive:original.eof">pause</property>
  <property name="kdenlive:original.resource">/home/federico/Videos/Edit/Projects/DS3_cinders/5-Stream/4 - sleep issue - dark souls iii cinders  anima della sfida ii 4.mkv</property>
  <property name="kdenlive:original.meta.media.nb_streams">2</property>
  <property name="kdenlive:original.meta.media.0.stream.type">video</property>
  <property name="kdenlive:original.meta.media.0.stream.frame_rate">60</property>
  <property name="kdenlive:original.meta.media.0.stream.sample_aspect_ratio">1</property>
  <property name="kdenlive:original.meta.media.0.codec.width">1920</property>
  <property name="kdenlive:original.meta.media.0.codec.height">1080</property>
  <property name="kdenlive:original.meta.media.0.codec.rotate">0</property>
  <property name="kdenlive:original.meta.media.0.codec.pix_fmt">yuv420p</property>
  <property name="kdenlive:original.meta.media.0.codec.sample_aspect_ratio">0</property>
  <property name="kdenlive:original.meta.media.0.codec.colorspace">709</property>
  <property name="kdenlive:original.meta.media.0.codec.color_trc">1</property>
  <property name="kdenlive:original.meta.media.0.codec.name">vp9</property>
  <property name="kdenlive:original.meta.media.0.codec.long_name">Google VP9</property>
  <property name="kdenlive:original.meta.media.0.codec.bit_rate">0</property>
  <property name="kdenlive:original.meta.attr.0.stream.language.markup">eng</property>
  <property name="kdenlive:original.meta.attr.0.stream.DURATION.markup">02:31:23.116000000</property>
  <property name="kdenlive:original.meta.media.1.stream.type">audio</property>
  <property name="kdenlive:original.meta.media.1.codec.sample_fmt">fltp</property>
  <property name="kdenlive:original.meta.media.1.codec.sample_rate">48000</property>
  <property name="kdenlive:original.meta.media.1.codec.channels">2</property>
  <property name="kdenlive:original.meta.media.1.codec.name">opus</property>
  <property name="kdenlive:original.meta.media.1.codec.long_name">Opus</property>
  <property name="kdenlive:original.meta.media.1.codec.bit_rate">0</property>
  <property name="kdenlive:original.meta.attr.1.stream.language.markup">eng</property>
  <property name="kdenlive:original.meta.attr.1.stream.DURATION.markup">02:31:23.168000000</property>
  <property name="kdenlive:original.meta.attr.ENCODER.markup">Lavf60.16.100</property>
  <property name="kdenlive:original.seekable">1</property>
  <property name="kdenlive:original.width">1920</property>
  <property name="kdenlive:original.height">1080</property>
  <property name="kdenlive:original.meta.media.sample_aspect_num">1</property>
  <property name="kdenlive:original.meta.media.sample_aspect_den">1</property>
  <property name="kdenlive:original.aspect_ratio">1</property>
  <property name="kdenlive:original.format">3</property>
  <property name="kdenlive:original.audio_index">1</property>
  <property name="kdenlive:original.video_index">0</property>
  <property name="kdenlive:original.mute_on_pause">0</property>
  <property name="kdenlive:original.mlt_service">avformat-novalidate</property>
  <property name="kdenlive:original.meta.media.frame_rate_num">60</property>
  <property name="kdenlive:original.meta.media.frame_rate_den">1</property>
  <property name="kdenlive:original.meta.media.colorspace">709</property>
  <property name="kdenlive:original.meta.media.color_trc">1</property>
  <property name="kdenlive:original.meta.media.has_b_frames">0</property>
  <property name="kdenlive:original.meta.media.width">1920</property>
  <property name="kdenlive:original.meta.media.height">1080</property>
  <property name="kdenlive:original.meta.media.color_range">mpeg</property>
  <property name="kdenlive:original.meta.media.top_field_first">0</property>
  <property name="kdenlive:original.meta.media.progressive">1</property>
  <property name="kdenlive:original.kdenlive:clip_type">0</property>
  <property name="kdenlive:original.kdenlive:folderid">4</property>
  <property name="kdenlive:original.kdenlive:id">682</property>
  <property name="kdenlive:original.kdenlive:file_size">3681493931</property>
  <property name="kdenlive:original.kdenlive:file_hash">ca27a9d972c9214920a1b80c39287441</property>
  <property name="kdenlive:original.backup">1</property>
  <property name="kdenlive:audio_max1">205</property>
  <property name="xml">was here</property>
  <property name="meta.media.frame_rate_num">60</property>
  <property name="meta.media.frame_rate_den">1</property>
  <property name="meta.media.colorspace">709</property>
  <property name="meta.media.color_trc">1</property>
  <property name="meta.media.has_b_frames">0</property>
  <property name="meta.media.width">640</property>
  <property name="meta.media.height">360</property>
  <property name="meta.media.color_range">mpeg</property>
  <property name="meta.media.top_field_first">0</property>
  <property name="meta.media.progressive">1</property>
  <property name="set.test_audio">0</property>
  <property name="set.test_image">1</property>
 </producer>
 <producer id="producer757" in="00:00:00.000" out="02:27:56.617">
  <property name="length">532598</property>
  <property name="eof">pause</property>
  <property name="resource">/home/federico/Videos/Edit/Kden/ProxyRender/proxy/fa2e21925daa2aa504e340903ed9d0c2.mov</property>
  <property name="audio_index">1</property>
  <property name="video_index">0</property>
  <property name="mute_on_pause">0</property>
  <property name="mlt_service">avformat-novalidate</property>
  <property name="seekable">1</property>
  <property name="aspect_ratio">1</property>
  <property name="format">3</property>
  <property name="kdenlive:clipname"/>
  <property name="kdenlive:clip_type">0</property>
  <property name="kdenlive:folderid">4</property>
  <property name="kdenlive:id">683</property>
  <property name="kdenlive:file_size">3890870258</property>
  <property name="kdenlive:file_hash">fa2e21925daa2aa504e340903ed9d0c2</property>
  <property name="kdenlive:proxy">/home/federico/Videos/Edit/Kden/ProxyRender/proxy/fa2e21925daa2aa504e340903ed9d0c2.mov</property>
  <property name="kdenlive:originalurl">/home/federico/Videos/Edit/Projects/DS3_cinders/5-Stream/5 - difesa - dark souls iii cinders  anima della sfida ii 5.mkv</property>
  <property name="kdenlive:original.mlt_type">producer</property>
  <property name="kdenlive:original.in">00:00:00.000</property>
  <property name="kdenlive:original.out">02:27:56.617</property>
  <property name="kdenlive:original.length">532598</property>
  <property name="kdenlive:original.eof">pause</property>
  <property name="kdenlive:original.resource">/home/federico/Videos/Edit/Projects/DS3_cinders/5-Stream/5 - difesa - dark souls iii cinders  anima della sfida ii 5.mkv</property>
  <property name="kdenlive:original.meta.media.nb_streams">2</property>
  <property name="kdenlive:original.meta.media.0.stream.type">video</property>
  <property name="kdenlive:original.meta.media.0.stream.frame_rate">60</property>
  <property name="kdenlive:original.meta.media.0.stream.sample_aspect_ratio">1</property>
  <property name="kdenlive:original.meta.media.0.codec.width">1920</property>
  <property name="kdenlive:original.meta.media.0.codec.height">1080</property>
  <property name="kdenlive:original.meta.media.0.codec.rotate">0</property>
  <property name="kdenlive:original.meta.media.0.codec.pix_fmt">yuv420p</property>
  <property name="kdenlive:original.meta.media.0.codec.sample_aspect_ratio">0</property>
  <property name="kdenlive:original.meta.media.0.codec.colorspace">709</property>
  <property name="kdenlive:original.meta.media.0.codec.color_trc">1</property>
  <property name="kdenlive:original.meta.media.0.codec.name">vp9</property>
  <property name="kdenlive:original.meta.media.0.codec.long_name">Google VP9</property>
  <property name="kdenlive:original.meta.media.0.codec.bit_rate">0</property>
  <property name="kdenlive:original.meta.attr.0.stream.language.markup">eng</property>
  <property name="kdenlive:original.meta.attr.0.stream.DURATION.markup">02:27:56.599000000</property>
  <property name="kdenlive:original.meta.media.1.stream.type">audio</property>
  <property name="kdenlive:original.meta.media.1.codec.sample_fmt">fltp</property>
  <property name="kdenlive:original.meta.media.1.codec.sample_rate">48000</property>
  <property name="kdenlive:original.meta.media.1.codec.channels">2</property>
  <property name="kdenlive:original.meta.media.1.codec.name">opus</property>
  <property name="kdenlive:original.meta.media.1.codec.long_name">Opus</property>
  <property name="kdenlive:original.meta.media.1.codec.bit_rate">0</property>
  <property name="kdenlive:original.meta.attr.1.stream.language.markup">eng</property>
  <property name="kdenlive:original.meta.attr.1.stream.DURATION.markup">02:27:56.628000000</property>
  <property name="kdenlive:original.meta.attr.ENCODER.markup">Lavf60.16.100</property>
  <property name="kdenlive:original.seekable">1</property>
  <property name="kdenlive:original.width">1920</property>
  <property name="kdenlive:original.height">1080</property>
  <property name="kdenlive:original.meta.media.sample_aspect_num">1</property>
  <property name="kdenlive:original.meta.media.sample_aspect_den">1</property>
  <property name="kdenlive:original.aspect_ratio">1</property>
  <property name="kdenlive:original.format">3</property>
  <property name="kdenlive:original.audio_index">1</property>
  <property name="kdenlive:original.video_index">0</property>
  <property name="kdenlive:original.mute_on_pause">0</property>
  <property name="kdenlive:original.mlt_service">avformat-novalidate</property>
  <property name="kdenlive:original.meta.media.frame_rate_num">60</property>
  <property name="kdenlive:original.meta.media.frame_rate_den">1</property>
  <property name="kdenlive:original.meta.media.colorspace">709</property>
  <property name="kdenlive:original.meta.media.color_trc">1</property>
  <property name="kdenlive:original.meta.media.has_b_frames">0</property>
  <property name="kdenlive:original.meta.media.width">1920</property>
  <property name="kdenlive:original.meta.media.height">1080</property>
  <property name="kdenlive:original.meta.media.color_range">mpeg</property>
  <property name="kdenlive:original.meta.media.top_field_first">0</property>
  <property name="kdenlive:original.meta.media.progressive">1</property>
  <property name="kdenlive:original.kdenlive:clip_type">0</property>
  <property name="kdenlive:original.kdenlive:folderid">4</property>
  <property name="kdenlive:original.kdenlive:id">683</property>
  <property name="kdenlive:original.kdenlive:file_size">3890870258</property>
  <property name="kdenlive:original.kdenlive:file_hash">fa2e21925daa2aa504e340903ed9d0c2</property>
  <property name="kdenlive:original.backup">1</property>
  <property name="kdenlive:audio_max1">195</property>
  <property name="xml">was here</property>
  <property name="meta.media.nb_streams">2</property>
  <property name="meta.media.0.stream.type">video</property>
  <property name="meta.media.0.stream.frame_rate">60</property>
  <property name="meta.media.0.stream.sample_aspect_ratio">1</property>
  <property name="meta.media.0.codec.width">640</property>
  <property name="meta.media.0.codec.height">360</property>
  <property name="meta.media.0.codec.rotate">0</property>
  <property name="meta.media.0.codec.pix_fmt">yuv420p</property>
  <property name="meta.media.0.codec.sample_aspect_ratio">1</property>
  <property name="meta.media.0.codec.colorspace">709</property>
  <property name="meta.media.0.codec.color_trc">1</property>
  <property name="meta.media.0.codec.name">h264</property>
  <property name="meta.media.0.codec.long_name">H.264 / AVC / MPEG-4 AVC / MPEG-4 part 10</property>
  <property name="meta.media.0.codec.bit_rate">5200999</property>
  <property name="meta.attr.0.stream.language.markup">eng</property>
  <property name="meta.attr.0.stream.DURATION.markup">02:27:56.599000000</property>
  <property name="meta.media.1.stream.type">audio</property>
  <property name="meta.media.1.codec.sample_fmt">fltp</property>
  <property name="meta.media.1.codec.sample_rate">48000</property>
  <property name="meta.media.1.codec.channels">2</property>
  <property name="meta.media.1.codec.name">aac</property>
  <property name="meta.media.1.codec.long_name">AAC (Advanced Audio Coding)</property>
  <property name="meta.media.1.codec.bit_rate">128316</property>
  <property name="meta.attr.1.stream.language.markup">eng</property>
  <property name="meta.attr.1.stream.DURATION.markup">02:27:56.628000000</property>
  <property name="meta.attr.ENCODER.markup">Lavf60.16.100</property>
  <property name="meta.media.sample_aspect_num">1</property>
  <property name="meta.media.sample_aspect_den">1</property>
  <property name="meta.media.frame_rate_num">60</property>
  <property name="meta.media.frame_rate_den">1</property>
  <property name="meta.media.colorspace">709</property>
  <property name="meta.media.color_trc">1</property>
  <property name="meta.media.has_b_frames">0</property>
  <property name="meta.media.width">640</property>
  <property name="meta.media.height">360</property>
  <property name="meta.media.color_range">mpeg</property>
  <property name="meta.media.top_field_first">0</property>
  <property name="meta.media.progressive">1</property>
  <property name="meta.attr.0.stream.handler_name.markup">VideoHandler</property>
  <property name="meta.attr.0.stream.vendor_id.markup">FFMP</property>
  <property name="meta.attr.0.stream.encoder.markup">Lavc59.18.100 libx264</property>
  <property name="meta.attr.1.stream.handler_name.markup">SoundHandler</property>
  <property name="meta.attr.1.stream.vendor_id.markup">[0][0][0][0]</property>
  <property name="meta.attr.major_brand.markup">qt  </property>
  <property name="meta.attr.minor_version.markup">512</property>
  <property name="meta.attr.compatible_brands.markup">qt  </property>
  <property name="meta.attr.encoder.markup">Lavf59.16.100</property>
  <property name="set.test_audio">0</property>
  <property name="set.test_image">1</property>
 </producer>
 <producer id="producer758" in="00:00:00.000" out="00:00:13.883">
  <property name="length">834</property>
  <property name="eof">pause</property>
  <property name="resource">/home/federico/Nextcloud/Kden/EditingUT/Sound/Cartoon/cartoon crazy run slip &amp; crash.wav</property>
  <property name="audio_index">0</property>
  <property name="video_index">-1</property>
  <property name="mute_on_pause">0</property>
  <property name="mlt_service">avformat-novalidate</property>
  <property name="meta.media.nb_streams">1</property>
  <property name="meta.media.0.stream.type">audio</property>
  <property name="meta.media.0.codec.sample_fmt">s16</property>
  <property name="meta.media.0.codec.sample_rate">44100</property>
  <property name="meta.media.0.codec.channels">2</property>
  <property name="meta.media.0.codec.name">pcm_s16le</property>
  <property name="meta.media.0.codec.long_name">PCM signed 16-bit little-endian</property>
  <property name="meta.media.0.codec.bit_rate">1411200</property>
  <property name="meta.attr.encoder.markup">Lavf60.16.100</property>
  <property name="seekable">1</property>
  <property name="kdenlive:clipname"/>
  <property name="kdenlive:clip_type">1</property>
  <property name="kdenlive:folderid">172</property>
  <property name="kdenlive:id">175</property>
  <property name="kdenlive:file_size">2451534</property>
  <property name="kdenlive:file_hash">e025070582b523af49e63e8931ac88d1</property>
  <property name="kdenlive:audio_max0">229</property>
  <property name="kdenlive:zone_in">30</property>
  <property name="kdenlive:zone_out">93</property>
  <property name="xml">was here</property>
  <property name="set.test_audio">0</property>
  <property name="set.test_image">1</property>
 </producer>
 <producer id="producer759" in="00:00:00.000" out="02:38:45.867">
  <property name="length">571553</property>
  <property name="eof">pause</property>
  <property name="resource">/home/federico/Videos/Edit/Kden/ProxyRender/proxy/cf314eebe17b047f9605a52d59418270.mov</property>
  <property name="audio_index">1</property>
  <property name="video_index">0</property>
  <property name="mute_on_pause">0</property>
  <property name="mlt_service">avformat-novalidate</property>
  <property name="meta.media.nb_streams">2</property>
  <property name="meta.media.0.stream.type">video</property>
  <property name="meta.media.0.stream.frame_rate">60</property>
  <property name="meta.media.0.stream.sample_aspect_ratio">1</property>
  <property name="meta.media.0.codec.width">640</property>
  <property name="meta.media.0.codec.height">360</property>
  <property name="meta.media.0.codec.rotate">0</property>
  <property name="meta.media.0.codec.pix_fmt">yuv420p</property>
  <property name="meta.media.0.codec.sample_aspect_ratio">1</property>
  <property name="meta.media.0.codec.colorspace">709</property>
  <property name="meta.media.0.codec.color_trc">1</property>
  <property name="meta.media.0.codec.name">h264</property>
  <property name="meta.media.0.codec.long_name">H.264 / AVC / MPEG-4 AVC / MPEG-4 part 10</property>
  <property name="meta.media.0.codec.bit_rate">5667419</property>
  <property name="meta.attr.0.stream.language.markup">eng</property>
  <property name="meta.attr.0.stream.handler_name.markup">VideoHandler</property>
  <property name="meta.attr.0.stream.vendor_id.markup">FFMP</property>
  <property name="meta.attr.0.stream.encoder.markup">Lavc59.18.100 libx264</property>
  <property name="meta.media.1.stream.type">audio</property>
  <property name="meta.media.1.codec.sample_fmt">fltp</property>
  <property name="meta.media.1.codec.sample_rate">48000</property>
  <property name="meta.media.1.codec.channels">2</property>
  <property name="meta.media.1.codec.name">aac</property>
  <property name="meta.media.1.codec.long_name">AAC (Advanced Audio Coding)</property>
  <property name="meta.media.1.codec.bit_rate">129290</property>
  <property name="meta.attr.1.stream.language.markup">eng</property>
  <property name="meta.attr.1.stream.handler_name.markup">SoundHandler</property>
  <property name="meta.attr.1.stream.vendor_id.markup">[0][0][0][0]</property>
  <property name="meta.attr.major_brand.markup">qt  </property>
  <property name="meta.attr.minor_version.markup">512</property>
  <property name="meta.attr.compatible_brands.markup">qt  </property>
  <property name="meta.attr.encoder.markup">Lavf59.16.100</property>
  <property name="seekable">1</property>
  <property name="meta.media.sample_aspect_num">1</property>
  <property name="meta.media.sample_aspect_den">1</property>
  <property name="aspect_ratio">1</property>
  <property name="format">3</property>
  <property name="kdenlive:clipname">6 - sfida accettata - dark souls iii cinders  anima della sfida ii 6.mkv</property>
  <property name="kdenlive:clip_type">0</property>
  <property name="kdenlive:folderid">4</property>
  <property name="kdenlive:id">684</property>
  <property name="kdenlive:file_size">4537358114</property>
  <property name="kdenlive:file_hash">cf314eebe17b047f9605a52d59418270</property>
  <property name="kdenlive:proxy">/home/federico/Videos/Edit/Kden/ProxyRender/proxy/cf314eebe17b047f9605a52d59418270.mov</property>
  <property name="kdenlive:originalurl">/home/federico/Videos/Edit/Projects/DS3_cinders/5-Stream/6 - sfida accettata - dark souls iii cinders  anima della sfida ii 6.mkv</property>
  <property name="kdenlive:original.mlt_type">producer</property>
  <property name="kdenlive:original.in">00:00:00.000</property>
  <property name="kdenlive:original.out">02:38:45.867</property>
  <property name="kdenlive:original.length">571553</property>
  <property name="kdenlive:original.eof">pause</property>
  <property name="kdenlive:original.resource">/home/federico/Videos/Edit/Projects/DS3_cinders/5-Stream/6 - sfida accettata - dark souls iii cinders  anima della sfida ii 6.mkv</property>
  <property name="kdenlive:original.meta.media.nb_streams">2</property>
  <property name="kdenlive:original.meta.media.0.stream.type">video</property>
  <property name="kdenlive:original.meta.media.0.stream.frame_rate">60</property>
  <property name="kdenlive:original.meta.media.0.stream.sample_aspect_ratio">1</property>
  <property name="kdenlive:original.meta.media.0.codec.width">1920</property>
  <property name="kdenlive:original.meta.media.0.codec.height">1080</property>
  <property name="kdenlive:original.meta.media.0.codec.rotate">0</property>
  <property name="kdenlive:original.meta.media.0.codec.pix_fmt">yuv420p</property>
  <property name="kdenlive:original.meta.media.0.codec.sample_aspect_ratio">0</property>
  <property name="kdenlive:original.meta.media.0.codec.colorspace">709</property>
  <property name="kdenlive:original.meta.media.0.codec.color_trc">1</property>
  <property name="kdenlive:original.meta.media.0.codec.name">vp9</property>
  <property name="kdenlive:original.meta.media.0.codec.long_name">Google VP9</property>
  <property name="kdenlive:original.meta.media.0.codec.bit_rate">0</property>
  <property name="kdenlive:original.meta.attr.0.stream.language.markup">eng</property>
  <property name="kdenlive:original.meta.attr.0.stream.DURATION.markup">02:38:45.866000000</property>
  <property name="kdenlive:original.meta.media.1.stream.type">audio</property>
  <property name="kdenlive:original.meta.media.1.codec.sample_fmt">fltp</property>
  <property name="kdenlive:original.meta.media.1.codec.sample_rate">48000</property>
  <property name="kdenlive:original.meta.media.1.codec.channels">2</property>
  <property name="kdenlive:original.meta.media.1.codec.name">opus</property>
  <property name="kdenlive:original.meta.media.1.codec.long_name">Opus</property>
  <property name="kdenlive:original.meta.media.1.codec.bit_rate">0</property>
  <property name="kdenlive:original.meta.attr.1.stream.language.markup">eng</property>
  <property name="kdenlive:original.meta.attr.1.stream.DURATION.markup">02:38:45.888000000</property>
  <property name="kdenlive:original.meta.attr.ENCODER.markup">Lavf60.16.100</property>
  <property name="kdenlive:original.seekable">1</property>
  <property name="kdenlive:original.width">1920</property>
  <property name="kdenlive:original.height">1080</property>
  <property name="kdenlive:original.meta.media.sample_aspect_num">1</property>
  <property name="kdenlive:original.meta.media.sample_aspect_den">1</property>
  <property name="kdenlive:original.aspect_ratio">1</property>
  <property name="kdenlive:original.format">3</property>
  <property name="kdenlive:original.audio_index">1</property>
  <property name="kdenlive:original.video_index">0</property>
  <property name="kdenlive:original.mute_on_pause">0</property>
  <property name="kdenlive:original.mlt_service">avformat-novalidate</property>
  <property name="kdenlive:original.meta.media.frame_rate_num">60</property>
  <property name="kdenlive:original.meta.media.frame_rate_den">1</property>
  <property name="kdenlive:original.meta.media.colorspace">709</property>
  <property name="kdenlive:original.meta.media.color_trc">1</property>
  <property name="kdenlive:original.meta.media.has_b_frames">0</property>
  <property name="kdenlive:original.meta.media.width">1920</property>
  <property name="kdenlive:original.meta.media.height">1080</property>
  <property name="kdenlive:original.meta.media.color_range">mpeg</property>
  <property name="kdenlive:original.meta.media.top_field_first">0</property>
  <property name="kdenlive:original.meta.media.progressive">1</property>
  <property name="kdenlive:original.kdenlive:clip_type">0</property>
  <property name="kdenlive:original.kdenlive:folderid">4</property>
  <property name="kdenlive:original.kdenlive:id">684</property>
  <property name="kdenlive:original.kdenlive:file_size">4537358114</property>
  <property name="kdenlive:original.kdenlive:file_hash">cf314eebe17b047f9605a52d59418270</property>
  <property name="kdenlive:original.backup">1</property>
  <property name="kdenlive:audio_max1">196</property>
  <property name="xml">was here</property>
  <property name="meta.media.frame_rate_num">60</property>
  <property name="meta.media.frame_rate_den">1</property>
  <property name="meta.media.colorspace">709</property>
  <property name="meta.media.color_trc">1</property>
  <property name="meta.media.has_b_frames">0</property>
  <property name="meta.media.width">640</property>
  <property name="meta.media.height">360</property>
  <property name="meta.media.color_range">mpeg</property>
  <property name="meta.media.top_field_first">0</property>
  <property name="meta.media.progressive">1</property>
  <property name="set.test_audio">0</property>
  <property name="set.test_image">1</property>
 </producer>
 <producer id="producer760" in="00:00:00.000" out="02:38:45.867">
  <property name="length">571553</property>
  <property name="eof">pause</property>
  <property name="resource">/home/federico/Videos/Edit/Kden/ProxyRender/proxy/cf314eebe17b047f9605a52d59418270.mov</property>
  <property name="audio_index">1</property>
  <property name="video_index">0</property>
  <property name="mute_on_pause">0</property>
  <property name="mlt_service">avformat-novalidate</property>
  <property name="seekable">1</property>
  <property name="aspect_ratio">1</property>
  <property name="format">3</property>
  <property name="kdenlive:clipname">6 - sfida accettata - dark souls iii cinders  anima della sfida ii 6.mkv</property>
  <property name="kdenlive:clip_type">0</property>
  <property name="kdenlive:folderid">4</property>
  <property name="kdenlive:id">684</property>
  <property name="kdenlive:file_size">4537358114</property>
  <property name="kdenlive:file_hash">cf314eebe17b047f9605a52d59418270</property>
  <property name="kdenlive:proxy">/home/federico/Videos/Edit/Kden/ProxyRender/proxy/cf314eebe17b047f9605a52d59418270.mov</property>
  <property name="kdenlive:originalurl">/home/federico/Videos/Edit/Projects/DS3_cinders/5-Stream/6 - sfida accettata - dark souls iii cinders  anima della sfida ii 6.mkv</property>
  <property name="kdenlive:original.mlt_type">producer</property>
  <property name="kdenlive:original.in">00:00:00.000</property>
  <property name="kdenlive:original.out">02:38:45.867</property>
  <property name="kdenlive:original.length">571553</property>
  <property name="kdenlive:original.eof">pause</property>
  <property name="kdenlive:original.resource">/home/federico/Videos/Edit/Projects/DS3_cinders/5-Stream/6 - sfida accettata - dark souls iii cinders  anima della sfida ii 6.mkv</property>
  <property name="kdenlive:original.meta.media.nb_streams">2</property>
  <property name="kdenlive:original.meta.media.0.stream.type">video</property>
  <property name="kdenlive:original.meta.media.0.stream.frame_rate">60</property>
  <property name="kdenlive:original.meta.media.0.stream.sample_aspect_ratio">1</property>
  <property name="kdenlive:original.meta.media.0.codec.width">1920</property>
  <property name="kdenlive:original.meta.media.0.codec.height">1080</property>
  <property name="kdenlive:original.meta.media.0.codec.rotate">0</property>
  <property name="kdenlive:original.meta.media.0.codec.pix_fmt">yuv420p</property>
  <property name="kdenlive:original.meta.media.0.codec.sample_aspect_ratio">0</property>
  <property name="kdenlive:original.meta.media.0.codec.colorspace">709</property>
  <property name="kdenlive:original.meta.media.0.codec.color_trc">1</property>
  <property name="kdenlive:original.meta.media.0.codec.name">vp9</property>
  <property name="kdenlive:original.meta.media.0.codec.long_name">Google VP9</property>
  <property name="kdenlive:original.meta.media.0.codec.bit_rate">0</property>
  <property name="kdenlive:original.meta.attr.0.stream.language.markup">eng</property>
  <property name="kdenlive:original.meta.attr.0.stream.DURATION.markup">02:38:45.866000000</property>
  <property name="kdenlive:original.meta.media.1.stream.type">audio</property>
  <property name="kdenlive:original.meta.media.1.codec.sample_fmt">fltp</property>
  <property name="kdenlive:original.meta.media.1.codec.sample_rate">48000</property>
  <property name="kdenlive:original.meta.media.1.codec.channels">2</property>
  <property name="kdenlive:original.meta.media.1.codec.name">opus</property>
  <property name="kdenlive:original.meta.media.1.codec.long_name">Opus</property>
  <property name="kdenlive:original.meta.media.1.codec.bit_rate">0</property>
  <property name="kdenlive:original.meta.attr.1.stream.language.markup">eng</property>
  <property name="kdenlive:original.meta.attr.1.stream.DURATION.markup">02:38:45.888000000</property>
  <property name="kdenlive:original.meta.attr.ENCODER.markup">Lavf60.16.100</property>
  <property name="kdenlive:original.seekable">1</property>
  <property name="kdenlive:original.width">1920</property>
  <property name="kdenlive:original.height">1080</property>
  <property name="kdenlive:original.meta.media.sample_aspect_num">1</property>
  <property name="kdenlive:original.meta.media.sample_aspect_den">1</property>
  <property name="kdenlive:original.aspect_ratio">1</property>
  <property name="kdenlive:original.format">3</property>
  <property name="kdenlive:original.audio_index">1</property>
  <property name="kdenlive:original.video_index">0</property>
  <property name="kdenlive:original.mute_on_pause">0</property>
  <property name="kdenlive:original.mlt_service">avformat-novalidate</property>
  <property name="kdenlive:original.meta.media.frame_rate_num">60</property>
  <property name="kdenlive:original.meta.media.frame_rate_den">1</property>
  <property name="kdenlive:original.meta.media.colorspace">709</property>
  <property name="kdenlive:original.meta.media.color_trc">1</property>
  <property name="kdenlive:original.meta.media.has_b_frames">0</property>
  <property name="kdenlive:original.meta.media.width">1920</property>
  <property name="kdenlive:original.meta.media.height">1080</property>
  <property name="kdenlive:original.meta.media.color_range">mpeg</property>
  <property name="kdenlive:original.meta.media.top_field_first">0</property>
  <property name="kdenlive:original.meta.media.progressive">1</property>
  <property name="kdenlive:original.kdenlive:clip_type">0</property>
  <property name="kdenlive:original.kdenlive:folderid">4</property>
  <property name="kdenlive:original.kdenlive:id">684</property>
  <property name="kdenlive:original.kdenlive:file_size">4537358114</property>
  <property name="kdenlive:original.kdenlive:file_hash">cf314eebe17b047f9605a52d59418270</property>
  <property name="kdenlive:original.backup">1</property>
  <property name="kdenlive:audio_max1">196</property>
  <property name="xml">was here</property>
  <property name="meta.media.nb_streams">2</property>
  <property name="meta.media.0.stream.type">video</property>
  <property name="meta.media.0.stream.frame_rate">60</property>
  <property name="meta.media.0.stream.sample_aspect_ratio">1</property>
  <property name="meta.media.0.codec.width">640</property>
  <property name="meta.media.0.codec.height">360</property>
  <property name="meta.media.0.codec.rotate">0</property>
  <property name="meta.media.0.codec.pix_fmt">yuv420p</property>
  <property name="meta.media.0.codec.sample_aspect_ratio">1</property>
  <property name="meta.media.0.codec.colorspace">709</property>
  <property name="meta.media.0.codec.color_trc">1</property>
  <property name="meta.media.0.codec.name">h264</property>
  <property name="meta.media.0.codec.long_name">H.264 / AVC / MPEG-4 AVC / MPEG-4 part 10</property>
  <property name="meta.media.0.codec.bit_rate">5667419</property>
  <property name="meta.attr.0.stream.language.markup">eng</property>
  <property name="meta.attr.0.stream.handler_name.markup">VideoHandler</property>
  <property name="meta.attr.0.stream.vendor_id.markup">FFMP</property>
  <property name="meta.attr.0.stream.encoder.markup">Lavc59.18.100 libx264</property>
  <property name="meta.media.1.stream.type">audio</property>
  <property name="meta.media.1.codec.sample_fmt">fltp</property>
  <property name="meta.media.1.codec.sample_rate">48000</property>
  <property name="meta.media.1.codec.channels">2</property>
  <property name="meta.media.1.codec.name">aac</property>
  <property name="meta.media.1.codec.long_name">AAC (Advanced Audio Coding)</property>
  <property name="meta.media.1.codec.bit_rate">129290</property>
  <property name="meta.attr.1.stream.language.markup">eng</property>
  <property name="meta.attr.1.stream.handler_name.markup">SoundHandler</property>
  <property name="meta.attr.1.stream.vendor_id.markup">[0][0][0][0]</property>
  <property name="meta.attr.major_brand.markup">qt  </property>
  <property name="meta.attr.minor_version.markup">512</property>
  <property name="meta.attr.compatible_brands.markup">qt  </property>
  <property name="meta.attr.encoder.markup">Lavf59.16.100</property>
  <property name="meta.media.sample_aspect_num">1</property>
  <property name="meta.media.sample_aspect_den">1</property>
  <property name="meta.media.frame_rate_num">60</property>
  <property name="meta.media.frame_rate_den">1</property>
  <property name="meta.media.colorspace">709</property>
  <property name="meta.media.color_trc">1</property>
  <property name="meta.media.has_b_frames">0</property>
  <property name="meta.media.width">640</property>
  <property name="meta.media.height">360</property>
  <property name="meta.media.color_range">mpeg</property>
  <property name="meta.media.top_field_first">0</property>
  <property name="meta.media.progressive">1</property>
  <property name="set.test_audio">1</property>
  <property name="set.test_image">1</property>
 </producer>
 <producer id="producer761" in="00:00:00.000" out="02:52:36.450">
  <property name="length">621389</property>
  <property name="eof">pause</property>
  <property name="resource">/home/federico/Videos/Edit/Kden/ProxyRender/proxy/e00b59329972f7cbbe05cbe5eabe0684.mov</property>
  <property name="audio_index">1</property>
  <property name="video_index">0</property>
  <property name="mute_on_pause">0</property>
  <property name="mlt_service">avformat-novalidate</property>
  <property name="meta.media.nb_streams">2</property>
  <property name="meta.media.0.stream.type">video</property>
  <property name="meta.media.0.stream.frame_rate">60</property>
  <property name="meta.media.0.stream.sample_aspect_ratio">1</property>
  <property name="meta.media.0.codec.width">640</property>
  <property name="meta.media.0.codec.height">360</property>
  <property name="meta.media.0.codec.rotate">0</property>
  <property name="meta.media.0.codec.pix_fmt">yuv420p</property>
  <property name="meta.media.0.codec.sample_aspect_ratio">1</property>
  <property name="meta.media.0.codec.colorspace">709</property>
  <property name="meta.media.0.codec.color_trc">1</property>
  <property name="meta.media.0.codec.name">h264</property>
  <property name="meta.media.0.codec.long_name">H.264 / AVC / MPEG-4 AVC / MPEG-4 part 10</property>
  <property name="meta.media.0.codec.bit_rate">5487106</property>
  <property name="meta.attr.0.stream.language.markup">eng</property>
  <property name="meta.attr.0.stream.handler_name.markup">VideoHandler</property>
  <property name="meta.attr.0.stream.vendor_id.markup">FFMP</property>
  <property name="meta.attr.0.stream.encoder.markup">Lavc59.18.100 libx264</property>
  <property name="meta.media.1.stream.type">audio</property>
  <property name="meta.media.1.codec.sample_fmt">fltp</property>
  <property name="meta.media.1.codec.sample_rate">48000</property>
  <property name="meta.media.1.codec.channels">2</property>
  <property name="meta.media.1.codec.name">aac</property>
  <property name="meta.media.1.codec.long_name">AAC (Advanced Audio Coding)</property>
  <property name="meta.media.1.codec.bit_rate">125682</property>
  <property name="meta.attr.1.stream.language.markup">eng</property>
  <property name="meta.attr.1.stream.handler_name.markup">SoundHandler</property>
  <property name="meta.attr.1.stream.vendor_id.markup">[0][0][0][0]</property>
  <property name="meta.attr.major_brand.markup">qt  </property>
  <property name="meta.attr.minor_version.markup">512</property>
  <property name="meta.attr.compatible_brands.markup">qt  </property>
  <property name="meta.attr.encoder.markup">Lavf59.16.100</property>
  <property name="seekable">1</property>
  <property name="meta.media.sample_aspect_num">1</property>
  <property name="meta.media.sample_aspect_den">1</property>
  <property name="aspect_ratio">1</property>
  <property name="format">3</property>
  <property name="kdenlive:clipname">7 - builded - dark souls iii cinders  anima della sfida ii 7.mkv</property>
  <property name="kdenlive:clip_type">0</property>
  <property name="kdenlive:folderid">4</property>
  <property name="kdenlive:id">685</property>
  <property name="kdenlive:file_size">4980831000</property>
  <property name="kdenlive:file_hash">e00b59329972f7cbbe05cbe5eabe0684</property>
  <property name="kdenlive:proxy">/home/federico/Videos/Edit/Kden/ProxyRender/proxy/e00b59329972f7cbbe05cbe5eabe0684.mov</property>
  <property name="kdenlive:originalurl">/home/federico/Videos/Edit/Projects/DS3_cinders/5-Stream/7 - builded - dark souls iii cinders  anima della sfida ii 7.mkv</property>
  <property name="kdenlive:original.mlt_type">producer</property>
  <property name="kdenlive:original.in">00:00:00.000</property>
  <property name="kdenlive:original.out">02:52:36.467</property>
  <property name="kdenlive:original.length">621389</property>
  <property name="kdenlive:original.eof">pause</property>
  <property name="kdenlive:original.resource">/home/federico/Videos/Edit/Projects/DS3_cinders/5-Stream/7 - builded - dark souls iii cinders  anima della sfida ii 7.mkv</property>
  <property name="kdenlive:original.meta.media.nb_streams">2</property>
  <property name="kdenlive:original.meta.media.0.stream.type">video</property>
  <property name="kdenlive:original.meta.media.0.stream.frame_rate">60</property>
  <property name="kdenlive:original.meta.media.0.stream.sample_aspect_ratio">1</property>
  <property name="kdenlive:original.meta.media.0.codec.width">1920</property>
  <property name="kdenlive:original.meta.media.0.codec.height">1080</property>
  <property name="kdenlive:original.meta.media.0.codec.rotate">0</property>
  <property name="kdenlive:original.meta.media.0.codec.pix_fmt">yuv420p</property>
  <property name="kdenlive:original.meta.media.0.codec.sample_aspect_ratio">0</property>
  <property name="kdenlive:original.meta.media.0.codec.colorspace">709</property>
  <property name="kdenlive:original.meta.media.0.codec.color_trc">1</property>
  <property name="kdenlive:original.meta.media.0.codec.name">vp9</property>
  <property name="kdenlive:original.meta.media.0.codec.long_name">Google VP9</property>
  <property name="kdenlive:original.meta.media.0.codec.bit_rate">0</property>
  <property name="kdenlive:original.meta.attr.0.stream.language.markup">eng</property>
  <property name="kdenlive:original.meta.attr.0.stream.DURATION.markup">02:52:36.449000000</property>
  <property name="kdenlive:original.meta.media.1.stream.type">audio</property>
  <property name="kdenlive:original.meta.media.1.codec.sample_fmt">fltp</property>
  <property name="kdenlive:original.meta.media.1.codec.sample_rate">48000</property>
  <property name="kdenlive:original.meta.media.1.codec.channels">2</property>
  <property name="kdenlive:original.meta.media.1.codec.name">opus</property>
  <property name="kdenlive:original.meta.media.1.codec.long_name">Opus</property>
  <property name="kdenlive:original.meta.media.1.codec.bit_rate">0</property>
  <property name="kdenlive:original.meta.attr.1.stream.language.markup">eng</property>
  <property name="kdenlive:original.meta.attr.1.stream.DURATION.markup">02:52:36.488000000</property>
  <property name="kdenlive:original.meta.attr.ENCODER.markup">Lavf60.16.100</property>
  <property name="kdenlive:original.seekable">1</property>
  <property name="kdenlive:original.width">1920</property>
  <property name="kdenlive:original.height">1080</property>
  <property name="kdenlive:original.meta.media.sample_aspect_num">1</property>
  <property name="kdenlive:original.meta.media.sample_aspect_den">1</property>
  <property name="kdenlive:original.aspect_ratio">1</property>
  <property name="kdenlive:original.format">3</property>
  <property name="kdenlive:original.audio_index">1</property>
  <property name="kdenlive:original.video_index">0</property>
  <property name="kdenlive:original.mute_on_pause">0</property>
  <property name="kdenlive:original.mlt_service">avformat-novalidate</property>
  <property name="kdenlive:original.meta.media.frame_rate_num">60</property>
  <property name="kdenlive:original.meta.media.frame_rate_den">1</property>
  <property name="kdenlive:original.meta.media.colorspace">709</property>
  <property name="kdenlive:original.meta.media.color_trc">1</property>
  <property name="kdenlive:original.meta.media.has_b_frames">0</property>
  <property name="kdenlive:original.meta.media.width">1920</property>
  <property name="kdenlive:original.meta.media.height">1080</property>
  <property name="kdenlive:original.meta.media.color_range">mpeg</property>
  <property name="kdenlive:original.meta.media.top_field_first">0</property>
  <property name="kdenlive:original.meta.media.progressive">1</property>
  <property name="kdenlive:original.kdenlive:clip_type">0</property>
  <property name="kdenlive:original.kdenlive:folderid">4</property>
  <property name="kdenlive:original.kdenlive:id">685</property>
  <property name="kdenlive:original.kdenlive:file_size">4980831000</property>
  <property name="kdenlive:original.kdenlive:file_hash">e00b59329972f7cbbe05cbe5eabe0684</property>
  <property name="kdenlive:original.backup">1</property>
  <property name="kdenlive:audio_max1">204</property>
  <property name="xml">was here</property>
  <property name="meta.media.frame_rate_num">60</property>
  <property name="meta.media.frame_rate_den">1</property>
  <property name="meta.media.colorspace">709</property>
  <property name="meta.media.color_trc">1</property>
  <property name="meta.media.has_b_frames">0</property>
  <property name="meta.media.width">640</property>
  <property name="meta.media.height">360</property>
  <property name="meta.media.color_range">mpeg</property>
  <property name="meta.media.top_field_first">0</property>
  <property name="meta.media.progressive">1</property>
  <property name="set.test_audio">0</property>
  <property name="set.test_image">1</property>
 </producer>
 <producer id="producer762" in="00:00:00.000" out="01:50:41.183">
  <property name="length">398472</property>
  <property name="eof">pause</property>
  <property name="resource">/home/federico/Videos/Edit/Kden/ProxyRender/proxy/31ec4e3b8500d553e125625112366d7f.mov</property>
  <property name="audio_index">1</property>
  <property name="video_index">0</property>
  <property name="mute_on_pause">0</property>
  <property name="mlt_service">avformat-novalidate</property>
  <property name="meta.media.nb_streams">2</property>
  <property name="meta.media.0.stream.type">video</property>
  <property name="meta.media.0.stream.frame_rate">60</property>
  <property name="meta.media.0.stream.sample_aspect_ratio">1</property>
  <property name="meta.media.0.codec.width">640</property>
  <property name="meta.media.0.codec.height">360</property>
  <property name="meta.media.0.codec.rotate">0</property>
  <property name="meta.media.0.codec.pix_fmt">yuv420p</property>
  <property name="meta.media.0.codec.sample_aspect_ratio">1</property>
  <property name="meta.media.0.codec.colorspace">709</property>
  <property name="meta.media.0.codec.color_trc">1</property>
  <property name="meta.media.0.codec.name">h264</property>
  <property name="meta.media.0.codec.long_name">H.264 / AVC / MPEG-4 AVC / MPEG-4 part 10</property>
  <property name="meta.media.0.codec.bit_rate">5578912</property>
  <property name="meta.attr.0.stream.language.markup">eng</property>
  <property name="meta.attr.0.stream.handler_name.markup">VideoHandler</property>
  <property name="meta.attr.0.stream.vendor_id.markup">FFMP</property>
  <property name="meta.attr.0.stream.encoder.markup">Lavc59.18.100 libx264</property>
  <property name="meta.media.1.stream.type">audio</property>
  <property name="meta.media.1.codec.sample_fmt">fltp</property>
  <property name="meta.media.1.codec.sample_rate">48000</property>
  <property name="meta.media.1.codec.channels">2</property>
  <property name="meta.media.1.codec.name">aac</property>
  <property name="meta.media.1.codec.long_name">AAC (Advanced Audio Coding)</property>
  <property name="meta.media.1.codec.bit_rate">127625</property>
  <property name="meta.attr.1.stream.language.markup">eng</property>
  <property name="meta.attr.1.stream.handler_name.markup">SoundHandler</property>
  <property name="meta.attr.1.stream.vendor_id.markup">[0][0][0][0]</property>
  <property name="meta.attr.major_brand.markup">qt  </property>
  <property name="meta.attr.minor_version.markup">512</property>
  <property name="meta.attr.compatible_brands.markup">qt  </property>
  <property name="meta.attr.encoder.markup">Lavf59.16.100</property>
  <property name="seekable">1</property>
  <property name="meta.media.sample_aspect_num">1</property>
  <property name="meta.media.sample_aspect_den">1</property>
  <property name="aspect_ratio">1</property>
  <property name="format">3</property>
  <property name="kdenlive:clipname">8 - playground - dark souls iii cinders  anima della sfida ii 8.mkv</property>
  <property name="kdenlive:clip_type">0</property>
  <property name="kdenlive:folderid">4</property>
  <property name="kdenlive:id">686</property>
  <property name="kdenlive:file_size">3569794435</property>
  <property name="kdenlive:file_hash">31ec4e3b8500d553e125625112366d7f</property>
  <property name="kdenlive:proxy">/home/federico/Videos/Edit/Kden/ProxyRender/proxy/31ec4e3b8500d553e125625112366d7f.mov</property>
  <property name="kdenlive:originalurl">/home/federico/Videos/Edit/Projects/DS3_cinders/5-Stream/8 - playground - dark souls iii cinders  anima della sfida ii 8.mkv</property>
  <property name="kdenlive:original.mlt_type">producer</property>
  <property name="kdenlive:original.in">00:00:00.000</property>
  <property name="kdenlive:original.out">01:50:41.183</property>
  <property name="kdenlive:original.length">398472</property>
  <property name="kdenlive:original.eof">pause</property>
  <property name="kdenlive:original.resource">/home/federico/Videos/Edit/Projects/DS3_cinders/5-Stream/8 - playground - dark souls iii cinders  anima della sfida ii 8.mkv</property>
  <property name="kdenlive:original.meta.media.nb_streams">2</property>
  <property name="kdenlive:original.meta.media.0.stream.type">video</property>
  <property name="kdenlive:original.meta.media.0.stream.frame_rate">60</property>
  <property name="kdenlive:original.meta.media.0.stream.sample_aspect_ratio">1</property>
  <property name="kdenlive:original.meta.media.0.codec.width">1920</property>
  <property name="kdenlive:original.meta.media.0.codec.height">1080</property>
  <property name="kdenlive:original.meta.media.0.codec.rotate">0</property>
  <property name="kdenlive:original.meta.media.0.codec.pix_fmt">yuv420p</property>
  <property name="kdenlive:original.meta.media.0.codec.sample_aspect_ratio">0</property>
  <property name="kdenlive:original.meta.media.0.codec.colorspace">709</property>
  <property name="kdenlive:original.meta.media.0.codec.color_trc">1</property>
  <property name="kdenlive:original.meta.media.0.codec.name">vp9</property>
  <property name="kdenlive:original.meta.media.0.codec.long_name">Google VP9</property>
  <property name="kdenlive:original.meta.media.0.codec.bit_rate">0</property>
  <property name="kdenlive:original.meta.attr.0.stream.language.markup">eng</property>
  <property name="kdenlive:original.meta.attr.0.stream.DURATION.markup">01:50:41.183000000</property>
  <property name="kdenlive:original.meta.media.1.stream.type">audio</property>
  <property name="kdenlive:original.meta.media.1.codec.sample_fmt">fltp</property>
  <property name="kdenlive:original.meta.media.1.codec.sample_rate">48000</property>
  <property name="kdenlive:original.meta.media.1.codec.channels">2</property>
  <property name="kdenlive:original.meta.media.1.codec.name">opus</property>
  <property name="kdenlive:original.meta.media.1.codec.long_name">Opus</property>
  <property name="kdenlive:original.meta.media.1.codec.bit_rate">0</property>
  <property name="kdenlive:original.meta.attr.1.stream.language.markup">eng</property>
  <property name="kdenlive:original.meta.attr.1.stream.DURATION.markup">01:50:41.208000000</property>
  <property name="kdenlive:original.meta.attr.ENCODER.markup">Lavf60.16.100</property>
  <property name="kdenlive:original.seekable">1</property>
  <property name="kdenlive:original.width">1920</property>
  <property name="kdenlive:original.height">1080</property>
  <property name="kdenlive:original.meta.media.sample_aspect_num">1</property>
  <property name="kdenlive:original.meta.media.sample_aspect_den">1</property>
  <property name="kdenlive:original.aspect_ratio">1</property>
  <property name="kdenlive:original.format">3</property>
  <property name="kdenlive:original.audio_index">1</property>
  <property name="kdenlive:original.video_index">0</property>
  <property name="kdenlive:original.mute_on_pause">0</property>
  <property name="kdenlive:original.mlt_service">avformat-novalidate</property>
  <property name="kdenlive:original.meta.media.frame_rate_num">60</property>
  <property name="kdenlive:original.meta.media.frame_rate_den">1</property>
  <property name="kdenlive:original.meta.media.colorspace">709</property>
  <property name="kdenlive:original.meta.media.color_trc">1</property>
  <property name="kdenlive:original.meta.media.has_b_frames">0</property>
  <property name="kdenlive:original.meta.media.width">1920</property>
  <property name="kdenlive:original.meta.media.height">1080</property>
  <property name="kdenlive:original.meta.media.color_range">mpeg</property>
  <property name="kdenlive:original.meta.media.top_field_first">0</property>
  <property name="kdenlive:original.meta.media.progressive">1</property>
  <property name="kdenlive:original.kdenlive:clip_type">0</property>
  <property name="kdenlive:original.kdenlive:folderid">4</property>
  <property name="kdenlive:original.kdenlive:id">686</property>
  <property name="kdenlive:original.kdenlive:file_size">3569794435</property>
  <property name="kdenlive:original.kdenlive:file_hash">31ec4e3b8500d553e125625112366d7f</property>
  <property name="kdenlive:original.backup">1</property>
  <property name="kdenlive:audio_max1">237</property>
  <property name="xml">was here</property>
  <property name="meta.media.frame_rate_num">60</property>
  <property name="meta.media.frame_rate_den">1</property>
  <property name="meta.media.colorspace">709</property>
  <property name="meta.media.color_trc">1</property>
  <property name="meta.media.has_b_frames">0</property>
  <property name="meta.media.width">640</property>
  <property name="meta.media.height">360</property>
  <property name="meta.media.color_range">mpeg</property>
  <property name="meta.media.top_field_first">0</property>
  <property name="meta.media.progressive">1</property>
  <property name="set.test_audio">0</property>
  <property name="set.test_image">1</property>
 </producer>
 <playlist id="playlist8">
  <property name="kdenlive:audio_track">1</property>
  <entry producer="producer751" in="00:00:00.000" out="00:00:03.833">
   <property name="kdenlive:id">579</property>
   <filter id="filter285">
    <property name="window">75</property>
    <property name="max_gain">20dB</property>
    <property name="level">00:00:03.850=-3</property>
    <property name="mlt_service">volume</property>
    <property name="kdenlive_id">-3db</property>
    <property name="kdenlive:collapsed">0</property>
   </filter>
  </entry>
  <entry producer="producer752" in="00:04:05.450" out="00:04:07.367">
   <property name="kdenlive:id">679</property>
  </entry>
  <entry producer="producer752" in="00:04:07.667" out="00:04:10.050">
   <property name="kdenlive:id">679</property>
  </entry>
  <entry producer="producer752" in="00:04:10.400" out="00:04:12.850">
   <property name="kdenlive:id">679</property>
  </entry>
  <entry producer="producer752" in="00:04:13.350" out="00:04:15.933">
   <property name="kdenlive:id">679</property>
   <filter id="filter286">
    <property name="window">75</property>
    <property name="max_gain">20dB</property>
    <property name="level">00:00:00.000=3</property>
    <property name="mlt_service">volume</property>
    <property name="kdenlive_id">+3db</property>
    <property name="kdenlive:collapsed">0</property>
   </filter>
  </entry>
  <entry producer="producer752" in="00:04:39.067" out="00:04:40.967">
   <property name="kdenlive:id">679</property>
  </entry>
  <entry producer="producer752" in="00:04:41.550" out="00:04:44.483">
   <property name="kdenlive:id">679</property>
  </entry>
  <entry producer="producer752" in="00:04:45.817" out="00:04:47.917">
   <property name="kdenlive:id">679</property>
  </entry>
  <entry producer="producer752" in="00:07:37.100" out="00:07:37.783">
   <property name="kdenlive:id">679</property>
  </entry>
  <entry producer="producer752" in="00:07:38.017" out="00:07:40.200">
   <property name="kdenlive:id">679</property>
  </entry>
  <entry producer="producer752" in="00:09:19.233" out="00:09:20.200">
   <property name="kdenlive:id">679</property>
  </entry>
  <entry producer="producer752" in="00:09:21.100" out="00:09:21.917">
   <property name="kdenlive:id">679</property>
  </entry>
  <entry producer="producer752" in="00:09:21.933" out="00:09:24.233">
   <property name="kdenlive:id">679</property>
  </entry>
  <entry producer="producer752" in="00:09:28.733" out="00:09:29.867">
   <property name="kdenlive:id">679</property>
  </entry>
  <entry producer="producer752" in="00:09:30.867" out="00:09:31.650">
   <property name="kdenlive:id">679</property>
  </entry>
  <entry producer="producer752" in="00:09:32.083" out="00:09:33.300">
   <property name="kdenlive:id">679</property>
  </entry>
  <entry producer="producer752" in="00:19:03.183" out="00:19:04.083">
   <property name="kdenlive:id">679</property>
  </entry>
  <entry producer="producer752" in="00:19:04.983" out="00:19:05.617">
   <property name="kdenlive:id">679</property>
  </entry>
  <entry producer="producer752" in="00:19:07.967" out="00:19:09.450">
   <property name="kdenlive:id">679</property>
  </entry>
  <entry producer="producer752" in="00:21:17.433" out="00:21:19.383">
   <property name="kdenlive:id">679</property>
  </entry>
  <blank length="00:00:00.433"/>
  <entry producer="producer752" in="00:23:42.917" out="00:23:43.650">
   <property name="kdenlive:id">679</property>
  </entry>
  <entry producer="producer752" in="00:23:45.333" out="00:23:46.700">
   <property name="kdenlive:id">679</property>
  </entry>
  <entry producer="producer752" in="00:23:50.900" out="00:23:52.183">
   <property name="kdenlive:id">679</property>
  </entry>
  <entry producer="producer752" in="00:24:43.550" out="00:24:45.050">
   <property name="kdenlive:id">679</property>
  </entry>
  <entry producer="producer752" in="00:25:02.617" out="00:25:03.983">
   <property name="kdenlive:id">679</property>
  </entry>
  <entry producer="producer752" in="00:25:04.783" out="00:25:06.817">
   <property name="kdenlive:id">679</property>
  </entry>
  <entry producer="producer752" in="00:25:19.483" out="00:25:21.017">
   <property name="kdenlive:id">679</property>
  </entry>
  <entry producer="producer752" in="00:25:21.033" out="00:25:22.383">
   <property name="kdenlive:id">679</property>
  </entry>
  <entry producer="producer752" in="00:25:26.400" out="00:25:27.683">
   <property name="kdenlive:id">679</property>
  </entry>
  <entry producer="producer752" in="00:25:32.050" out="00:25:33.267">
   <property name="kdenlive:id">679</property>
  </entry>
  <entry producer="producer752" in="00:25:47.033" out="00:25:48.617">
   <property name="kdenlive:id">679</property>
  </entry>
  <entry producer="producer752" in="00:26:19.367" out="00:26:20.950">
   <property name="kdenlive:id">679</property>
  </entry>
  <entry producer="producer752" in="00:26:54.500" out="00:26:58.150">
   <property name="kdenlive:id">679</property>
  </entry>
  <entry producer="producer752" in="00:26:58.983" out="00:27:00.300">
   <property name="kdenlive:id">679</property>
  </entry>
  <entry producer="producer752" in="00:27:48.417" out="00:27:51.183">
   <property name="kdenlive:id">679</property>
  </entry>
  <entry producer="producer752" in="00:27:51.200" out="00:27:53.400">
   <property name="kdenlive:id">679</property>
  </entry>
  <entry producer="producer752" in="00:28:01.017" out="00:28:01.667">
   <property name="kdenlive:id">679</property>
  </entry>
  <entry producer="producer752" in="00:28:01.683" out="00:28:06.733">
   <property name="kdenlive:id">679</property>
  </entry>
  <entry producer="producer752" in="00:28:49.483" out="00:28:52.483">
   <property name="kdenlive:id">679</property>
  </entry>
  <entry producer="producer752" in="00:28:54.950" out="00:28:59.033">
   <property name="kdenlive:id">679</property>
  </entry>
  <entry producer="producer752" in="00:29:24.650" out="00:29:26.900">
   <property name="kdenlive:id">679</property>
  </entry>
  <entry producer="producer752" in="00:32:47.967" out="00:32:48.483">
   <property name="kdenlive:id">679</property>
  </entry>
  <entry producer="producer752" in="00:32:48.867" out="00:32:50.250">
   <property name="kdenlive:id">679</property>
  </entry>
  <entry producer="producer752" in="00:33:42.283" out="00:33:43.567">
   <property name="kdenlive:id">679</property>
  </entry>
  <entry producer="producer752" in="00:33:43.900" out="00:33:44.950">
   <property name="kdenlive:id">679</property>
  </entry>
  <entry producer="producer752" in="00:33:45.183" out="00:33:46.500">
   <property name="kdenlive:id">679</property>
  </entry>
  <entry producer="producer752" in="00:33:46.900" out="00:33:48.233">
   <property name="kdenlive:id">679</property>
  </entry>
  <entry producer="producer752" in="00:40:25.867" out="00:40:27.017">
   <property name="kdenlive:id">679</property>
  </entry>
  <entry producer="producer752" in="00:42:20.150" out="00:42:24.350">
   <property name="kdenlive:id">679</property>
  </entry>
  <entry producer="producer752" in="00:42:30.900" out="00:42:31.500">
   <property name="kdenlive:id">679</property>
  </entry>
  <entry producer="producer752" in="00:42:32.917" out="00:42:33.583">
   <property name="kdenlive:id">679</property>
  </entry>
  <entry producer="producer752" in="00:42:45.250" out="00:42:46.883">
   <property name="kdenlive:id">679</property>
  </entry>
  <entry producer="producer752" in="00:42:46.900" out="00:42:48.617">
   <property name="kdenlive:id">679</property>
  </entry>
  <entry producer="producer752" in="00:43:07.833" out="00:43:08.833">
   <property name="kdenlive:id">679</property>
  </entry>
  <entry producer="producer752" in="00:43:08.850" out="00:43:10.167">
   <property name="kdenlive:id">679</property>
  </entry>
  <entry producer="producer752" in="00:44:14.017" out="00:44:15.917">
   <property name="kdenlive:id">679</property>
   <filter id="filter287">
    <property name="window">75</property>
    <property name="max_gain">20dB</property>
    <property name="level">00:28:08.517=5</property>
    <property name="mlt_service">volume</property>
    <property name="kdenlive_id">+5db</property>
    <property name="kdenlive:collapsed">0</property>
   </filter>
  </entry>
  <entry producer="producer752" in="00:44:46.817" out="00:44:48.483">
   <property name="kdenlive:id">679</property>
   <filter id="filter288">
    <property name="window">75</property>
    <property name="max_gain">20dB</property>
    <property name="level">00:28:08.517=5</property>
    <property name="mlt_service">volume</property>
    <property name="kdenlive_id">+5db</property>
    <property name="kdenlive:collapsed">0</property>
   </filter>
  </entry>
  <entry producer="producer752" in="00:45:27.833" out="00:45:31.917">
   <property name="kdenlive:id">679</property>
  </entry>
  <entry producer="producer752" in="00:46:16.950" out="00:46:18.333">
   <property name="kdenlive:id">679</property>
  </entry>
  <entry producer="producer752" in="00:46:33.167" out="00:46:36.800">
   <property name="kdenlive:id">679</property>
   <filter id="filter289">
    <property name="window">75</property>
    <property name="max_gain">20dB</property>
    <property name="level">00:28:08.517=5</property>
    <property name="mlt_service">volume</property>
    <property name="kdenlive_id">+5db</property>
    <property name="kdenlive:collapsed">0</property>
   </filter>
  </entry>
  <entry producer="producer752" in="00:46:59.933" out="00:47:02.700">
   <property name="kdenlive:id">679</property>
  </entry>
  <entry producer="producer752" in="00:47:02.717" out="00:47:03.533">
   <property name="kdenlive:id">679</property>
  </entry>
  <entry producer="producer752" in="00:47:12.917" out="00:47:14.800">
   <property name="kdenlive:id">679</property>
   <filter id="filter290">
    <property name="window">75</property>
    <property name="max_gain">20dB</property>
    <property name="level">00:28:08.517=5</property>
    <property name="mlt_service">volume</property>
    <property name="kdenlive_id">+5db</property>
    <property name="kdenlive:collapsed">0</property>
   </filter>
  </entry>
  <entry producer="producer752" in="00:47:21.083" out="00:47:26.383">
   <property name="kdenlive:id">679</property>
  </entry>
  <entry producer="producer752" in="00:47:36.517" out="00:47:37.750">
   <property name="kdenlive:id">679</property>
  </entry>
  <entry producer="producer752" in="00:47:38.717" out="00:47:39.783">
   <property name="kdenlive:id">679</property>
  </entry>
  <entry producer="producer752" in="00:47:46.483" out="00:47:49.883">
   <property name="kdenlive:id">679</property>
  </entry>
  <entry producer="producer752" in="00:48:00.767" out="00:48:01.833">
   <property name="kdenlive:id">679</property>
   <filter id="filter291">
    <property name="window">75</property>
    <property name="max_gain">20dB</property>
    <property name="level">00:28:08.517=5</property>
    <property name="mlt_service">volume</property>
    <property name="kdenlive_id">+5db</property>
    <property name="kdenlive:collapsed">0</property>
   </filter>
  </entry>
  <blank length="00:00:01.317"/>
  <entry producer="producer752" in="00:48:01.850" out="00:48:02.950">
   <property name="kdenlive:id">679</property>
  </entry>
  <entry producer="producer752" in="00:48:18.217" out="00:48:19.100">
   <property name="kdenlive:id">679</property>
  </entry>
  <entry producer="producer752" in="00:48:19.700" out="00:48:20.933">
   <property name="kdenlive:id">679</property>
  </entry>
  <entry producer="producer752" in="00:48:21.467" out="00:48:22.767">
   <property name="kdenlive:id">679</property>
  </entry>
  <entry producer="producer752" in="00:48:26.017" out="00:48:26.750">
   <property name="kdenlive:id">679</property>
  </entry>
  <entry producer="producer752" in="00:48:26.983" out="00:48:27.900">
   <property name="kdenlive:id">679</property>
  </entry>
  <entry producer="producer752" in="00:48:27.917" out="00:48:28.633">
   <property name="kdenlive:id">679</property>
   <filter id="filter292">
    <property name="window">75</property>
    <property name="max_gain">20dB</property>
    <property name="level">00:28:08.517=5</property>
    <property name="mlt_service">volume</property>
    <property name="kdenlive_id">+5db</property>
    <property name="kdenlive:collapsed">0</property>
   </filter>
  </entry>
  <entry producer="producer752" in="00:48:36.267" out="00:48:37.200">
   <property name="kdenlive:id">679</property>
  </entry>
  <entry producer="producer752" in="00:48:38.217" out="00:48:40.800">
   <property name="kdenlive:id">679</property>
  </entry>
  <entry producer="producer752" in="00:51:27.433" out="00:51:29.133">
   <property name="kdenlive:id">679</property>
   <filter id="filter293">
    <property name="window">75</property>
    <property name="max_gain">20dB</property>
    <property name="level">00:00:00.000=3</property>
    <property name="mlt_service">volume</property>
    <property name="kdenlive_id">+3db</property>
    <property name="kdenlive:collapsed">0</property>
   </filter>
  </entry>
  <entry producer="producer752" in="00:51:29.517" out="00:51:32.983">
   <property name="kdenlive:id">679</property>
   <filter id="filter294">
    <property name="window">75</property>
    <property name="max_gain">20dB</property>
    <property name="level">00:00:00.000=3</property>
    <property name="mlt_service">volume</property>
    <property name="kdenlive_id">+3db</property>
    <property name="kdenlive:collapsed">0</property>
   </filter>
  </entry>
  <entry producer="producer752" in="00:51:33.250" out="00:51:34.533">
   <property name="kdenlive:id">679</property>
  </entry>
  <entry producer="producer752" in="00:51:34.550" out="00:51:35.033">
   <property name="kdenlive:id">679</property>
  </entry>
  <entry producer="producer752" in="00:51:38.517" out="00:51:40.533">
   <property name="kdenlive:id">679</property>
  </entry>
  <entry producer="producer752" in="00:53:57.650" out="00:53:58.567">
   <property name="kdenlive:id">679</property>
  </entry>
  <entry producer="producer752" in="00:54:06.650" out="00:54:07.467">
   <property name="kdenlive:id">679</property>
  </entry>
  <entry producer="producer752" in="00:54:10.900" out="00:54:11.817">
   <property name="kdenlive:id">679</property>
   <filter id="filter295">
    <property name="window">75</property>
    <property name="max_gain">20dB</property>
    <property name="level">00:00:00.000=3</property>
    <property name="mlt_service">volume</property>
    <property name="kdenlive_id">+3db</property>
    <property name="kdenlive:collapsed">0</property>
   </filter>
  </entry>
  <entry producer="producer752" in="00:55:03.917" out="00:55:05.517">
   <property name="kdenlive:id">679</property>
   <filter id="filter296">
    <property name="window">75</property>
    <property name="max_gain">20dB</property>
    <property name="level">00:28:08.517=5</property>
    <property name="mlt_service">volume</property>
    <property name="kdenlive_id">+5db</property>
    <property name="kdenlive:collapsed">0</property>
   </filter>
  </entry>
  <entry producer="producer752" in="00:55:07.817" out="00:55:09.483">
   <property name="kdenlive:id">679</property>
  </entry>
  <entry producer="producer752" in="00:56:04.517" out="00:56:06.133">
   <property name="kdenlive:id">679</property>
   <filter id="filter297">
    <property name="window">75</property>
    <property name="max_gain">20dB</property>
    <property name="level">00:56:04.517=0;00:56:06.133=7</property>
    <property name="mlt_service">volume</property>
    <property name="kdenlive_id">volume</property>
    <property name="kdenlive:collapsed">0</property>
   </filter>
  </entry>
  <entry producer="producer752" in="00:57:20.400" out="00:57:21.900">
   <property name="kdenlive:id">679</property>
  </entry>
  <entry producer="producer752" in="00:59:38.833" out="00:59:41.917">
   <property name="kdenlive:id">679</property>
  </entry>
  <entry producer="producer752" in="01:01:14.383" out="01:01:19.817">
   <property name="kdenlive:id">679</property>
  </entry>
  <entry producer="producer752" in="01:01:21.800" out="01:01:22.500">
   <property name="kdenlive:id">679</property>
  </entry>
  <entry producer="producer753" in="01:01:22.517" out="01:01:23.933">
   <property name="kdenlive:id">679</property>
  </entry>
  <entry producer="producer752" in="01:06:33.467" out="01:06:36.750">
   <property name="kdenlive:id">679</property>
  </entry>
  <entry producer="producer752" in="01:06:52.317" out="01:06:53.617">
   <property name="kdenlive:id">679</property>
   <filter id="filter298" in="01:06:52.317" out="01:06:52.433">
    <property name="window">75</property>
    <property name="max_gain">20dB</property>
    <property name="mlt_service">volume</property>
    <property name="kdenlive_id">fadein</property>
    <property name="gain">0</property>
    <property name="end">1</property>
   </filter>
  </entry>
  <entry producer="producer752" in="01:06:53.883" out="01:06:55.717">
   <property name="kdenlive:id">679</property>
  </entry>
  <entry producer="producer752" in="01:07:42.517" out="01:07:45.533">
   <property name="kdenlive:id">679</property>
  </entry>
  <entry producer="producer752" in="01:07:48.300" out="01:07:49.117">
   <property name="kdenlive:id">679</property>
  </entry>
  <entry producer="producer752" in="01:08:34.550" out="01:08:35.200">
   <property name="kdenlive:id">679</property>
  </entry>
  <entry producer="producer752" in="01:08:38.017" out="01:08:39.333">
   <property name="kdenlive:id">679</property>
  </entry>
  <entry producer="producer752" in="01:08:49.633" out="01:08:51.100">
   <property name="kdenlive:id">679</property>
  </entry>
  <entry producer="producer752" in="01:08:53.800" out="01:08:54.983">
   <property name="kdenlive:id">679</property>
  </entry>
  <entry producer="producer752" in="01:10:54.750" out="01:10:55.600">
   <property name="kdenlive:id">679</property>
  </entry>
  <entry producer="producer752" in="01:10:55.617" out="01:10:56.450">
   <property name="kdenlive:id">679</property>
  </entry>
  <entry producer="producer752" in="01:11:14.533" out="01:11:16.383">
   <property name="kdenlive:id">679</property>
  </entry>
  <entry producer="producer752" in="01:12:38.200" out="01:12:40.333">
   <property name="kdenlive:id">679</property>
  </entry>
  <entry producer="producer752" in="01:12:53.117" out="01:12:53.950">
   <property name="kdenlive:id">679</property>
  </entry>
  <entry producer="producer752" in="01:12:53.967" out="01:12:54.500">
   <property name="kdenlive:id">679</property>
  </entry>
  <entry producer="producer752" in="01:23:55.633" out="01:23:56.400">
   <property name="kdenlive:id">679</property>
  </entry>
  <entry producer="producer752" in="01:23:56.417" out="01:23:57.100">
   <property name="kdenlive:id">679</property>
  </entry>
  <entry producer="producer752" in="01:25:35.567" out="01:25:36.750">
   <property name="kdenlive:id">679</property>
  </entry>
  <entry producer="producer752" in="01:25:37.600" out="01:25:39.133">
   <property name="kdenlive:id">679</property>
  </entry>
  <entry producer="producer752" in="01:25:41.517" out="01:25:43.033">
   <property name="kdenlive:id">679</property>
  </entry>
  <entry producer="producer752" in="01:25:56.833" out="01:25:57.717">
   <property name="kdenlive:id">679</property>
  </entry>
  <entry producer="producer752" in="01:25:48.250" out="01:25:50.100">
   <property name="kdenlive:id">679</property>
  </entry>
  <entry producer="producer752" in="01:26:26.833" out="01:26:27.967">
   <property name="kdenlive:id">679</property>
  </entry>
  <entry producer="producer752" in="01:26:28.300" out="01:26:30.133">
   <property name="kdenlive:id">679</property>
  </entry>
  <entry producer="producer752" in="01:29:20.117" out="01:29:21.033">
   <property name="kdenlive:id">679</property>
   <filter id="filter299">
    <property name="window">75</property>
    <property name="max_gain">20dB</property>
    <property name="level">00:00:00.000=3</property>
    <property name="mlt_service">volume</property>
    <property name="kdenlive_id">+3db</property>
    <property name="kdenlive:collapsed">0</property>
   </filter>
  </entry>
  <entry producer="producer752" in="01:29:29.300" out="01:29:30.400">
   <property name="kdenlive:id">679</property>
   <filter id="filter300">
    <property name="window">75</property>
    <property name="max_gain">20dB</property>
    <property name="level">00:00:00.000=3</property>
    <property name="mlt_service">volume</property>
    <property name="kdenlive_id">+3db</property>
    <property name="kdenlive:collapsed">0</property>
   </filter>
  </entry>
  <entry producer="producer752" in="01:30:35.867" out="01:30:38.400">
   <property name="kdenlive:id">679</property>
  </entry>
  <entry producer="producer752" in="01:39:33.467" out="01:39:34.867">
   <property name="kdenlive:id">679</property>
  </entry>
  <entry producer="producer752" in="01:39:43.150" out="01:39:45.183">
   <property name="kdenlive:id">679</property>
  </entry>
  <entry producer="producer752" in="01:42:09.450" out="01:42:11.350">
   <property name="kdenlive:id">679</property>
  </entry>
  <entry producer="producer752" in="01:42:15.083" out="01:42:17.100">
   <property name="kdenlive:id">679</property>
  </entry>
  <entry producer="producer752" in="01:43:04.017" out="01:43:04.967">
   <property name="kdenlive:id">679</property>
  </entry>
  <entry producer="producer752" in="01:43:05.817" out="01:43:08.767">
   <property name="kdenlive:id">679</property>
  </entry>
  <entry producer="producer752" in="01:43:10.417" out="01:43:11.033">
   <property name="kdenlive:id">679</property>
  </entry>
  <entry producer="producer752" in="01:43:13.433" out="01:43:14.517">
   <property name="kdenlive:id">679</property>
  </entry>
  <entry producer="producer752" in="01:43:19.083" out="01:43:20.650">
   <property name="kdenlive:id">679</property>
  </entry>
  <entry producer="producer752" in="01:43:22.250" out="01:43:23.583">
   <property name="kdenlive:id">679</property>
  </entry>
  <entry producer="producer753" in="01:43:25.400" out="01:43:26.500">
   <property name="kdenlive:id">679</property>
  </entry>
  <entry producer="producer752" in="01:44:25.033" out="01:44:27.283">
   <property name="kdenlive:id">679</property>
  </entry>
  <entry producer="producer752" in="01:44:29.467" out="01:44:31.367">
   <property name="kdenlive:id">679</property>
   <filter id="filter301">
    <property name="window">75</property>
    <property name="max_gain">20dB</property>
    <property name="level">00:00:15.367=-3</property>
    <property name="mlt_service">volume</property>
    <property name="kdenlive_id">-3db</property>
    <property name="kdenlive:collapsed">0</property>
   </filter>
  </entry>
  <entry producer="producer752" in="01:44:38.667" out="01:44:40.150">
   <property name="kdenlive:id">679</property>
   <filter id="filter302">
    <property name="window">75</property>
    <property name="max_gain">20dB</property>
    <property name="level">00:00:15.367=-5</property>
    <property name="mlt_service">volume</property>
    <property name="kdenlive_id">-5db</property>
    <property name="kdenlive:collapsed">0</property>
   </filter>
  </entry>
  <entry producer="producer752" in="01:44:50.733" out="01:44:52.250">
   <property name="kdenlive:id">679</property>
  </entry>
  <entry producer="producer752" in="01:45:15.150" out="01:45:16.167">
   <property name="kdenlive:id">679</property>
  </entry>
  <entry producer="producer752" in="01:45:17.183" out="01:45:18.267">
   <property name="kdenlive:id">679</property>
  </entry>
  <entry producer="producer752" in="01:45:21.217" out="01:45:23.733">
   <property name="kdenlive:id">679</property>
  </entry>
  <entry producer="producer752" in="01:45:23.750" out="01:45:24.083">
   <property name="kdenlive:id">679</property>
  </entry>
  <entry producer="producer752" in="01:52:06.617" out="01:52:07.933">
   <property name="kdenlive:id">679</property>
  </entry>
  <entry producer="producer752" in="01:55:46.783" out="01:55:49.750">
   <property name="kdenlive:id">679</property>
   <filter id="filter303">
    <property name="window">75</property>
    <property name="max_gain">20dB</property>
    <property name="level">00:00:00.000=3</property>
    <property name="mlt_service">volume</property>
    <property name="kdenlive_id">+3db</property>
    <property name="kdenlive:collapsed">0</property>
   </filter>
  </entry>
  <entry producer="producer752" in="01:55:57.667" out="01:55:58.000">
   <property name="kdenlive:id">679</property>
   <filter id="filter304">
    <property name="window">75</property>
    <property name="max_gain">20dB</property>
    <property name="level">01:55:57.667=5</property>
    <property name="mlt_service">volume</property>
    <property name="kdenlive_id">+5db</property>
    <property name="kdenlive:collapsed">0</property>
   </filter>
  </entry>
  <entry producer="producer752" in="01:55:58.017" out="01:55:59.250">
   <property name="kdenlive:id">679</property>
  </entry>
  <entry producer="producer752" in="01:56:00.017" out="01:56:00.683">
   <property name="kdenlive:id">679</property>
   <filter id="filter305">
    <property name="window">75</property>
    <property name="max_gain">20dB</property>
    <property name="level">00:00:00.000=10</property>
    <property name="mlt_service">volume</property>
    <property name="kdenlive_id">+10db</property>
    <property name="kdenlive:collapsed">0</property>
   </filter>
  </entry>
  <entry producer="producer752" in="01:56:01.283" out="01:56:01.717">
   <property name="kdenlive:id">679</property>
   <filter id="filter306">
    <property name="window">75</property>
    <property name="max_gain">20dB</property>
    <property name="level">00:28:08.517=5</property>
    <property name="mlt_service">volume</property>
    <property name="kdenlive_id">+5db</property>
    <property name="kdenlive:collapsed">0</property>
   </filter>
   <filter id="filter307">
    <property name="window">75</property>
    <property name="max_gain">20dB</property>
    <property name="level">00:28:08.517=5</property>
    <property name="mlt_service">volume</property>
    <property name="kdenlive_id">+5db</property>
    <property name="kdenlive:collapsed">0</property>
   </filter>
  </entry>
  <entry producer="producer752" in="02:06:27.450" out="02:06:28.467">
   <property name="kdenlive:id">679</property>
  </entry>
  <entry producer="producer752" in="02:06:41.750" out="02:06:43.033">
   <property name="kdenlive:id">679</property>
  </entry>
  <entry producer="producer752" in="02:06:47.617" out="02:06:48.000">
   <property name="kdenlive:id">679</property>
   <filter id="filter308">
    <property name="window">75</property>
    <property name="max_gain">20dB</property>
    <property name="level">00:00:00.000=3</property>
    <property name="mlt_service">volume</property>
    <property name="kdenlive_id">+3db</property>
    <property name="kdenlive:collapsed">0</property>
   </filter>
  </entry>
  <blank length="00:00:00.233"/>
  <entry producer="producer752" in="02:06:48.250" out="02:06:48.533">
   <property name="kdenlive:id">679</property>
   <filter id="filter309">
    <property name="window">75</property>
    <property name="max_gain">20dB</property>
    <property name="level">02:06:48.250=3</property>
    <property name="mlt_service">volume</property>
    <property name="kdenlive_id">+3db</property>
   </filter>
  </entry>
  <entry producer="producer752" in="02:06:57.600" out="02:07:00.250">
   <property name="kdenlive:id">679</property>
  </entry>
  <entry producer="producer752" in="02:07:16.767" out="02:07:17.250">
   <property name="kdenlive:id">679</property>
  </entry>
  <entry producer="producer752" in="02:07:23.017" out="02:07:23.650">
   <property name="kdenlive:id">679</property>
  </entry>
  <entry producer="producer752" in="02:07:25.933" out="02:07:27.000">
   <property name="kdenlive:id">679</property>
   <filter id="filter310">
    <property name="window">75</property>
    <property name="max_gain">20dB</property>
    <property name="level">00:00:15.367=-5</property>
    <property name="mlt_service">volume</property>
    <property name="kdenlive_id">-5db</property>
    <property name="kdenlive:collapsed">0</property>
   </filter>
  </entry>
  <entry producer="producer752" in="02:07:27.017" out="02:07:29.083">
   <property name="kdenlive:id">679</property>
   <filter id="filter311">
    <property name="window">75</property>
    <property name="max_gain">20dB</property>
    <property name="level">00:00:15.367=-5</property>
    <property name="mlt_service">volume</property>
    <property name="kdenlive_id">-5db</property>
    <property name="kdenlive:collapsed">0</property>
   </filter>
  </entry>
  <entry producer="producer752" in="02:07:37.700" out="02:07:38.317">
   <property name="kdenlive:id">679</property>
  </entry>
  <entry producer="producer752" in="02:07:59.867" out="02:08:02.933">
   <property name="kdenlive:id">679</property>
  </entry>
  <blank length="00:00:01.033"/>
  <entry producer="producer752" in="02:09:11.217" out="02:09:11.650">
   <property name="kdenlive:id">679</property>
  </entry>
  <entry producer="producer752" in="02:09:11.667" out="02:09:12.700">
   <property name="kdenlive:id">679</property>
  </entry>
  <entry producer="producer752" in="02:09:12.717" out="02:09:13.183">
   <property name="kdenlive:id">679</property>
  </entry>
  <entry producer="producer752" in="02:09:13.200" out="02:09:15.567">
   <property name="kdenlive:id">679</property>
   <filter id="filter312">
    <property name="window">75</property>
    <property name="max_gain">20dB</property>
    <property name="level">00:00:15.367=-3</property>
    <property name="mlt_service">volume</property>
    <property name="kdenlive_id">-3db</property>
    <property name="kdenlive:collapsed">0</property>
   </filter>
  </entry>
  <entry producer="producer752" in="02:16:17.400" out="02:16:18.417">
   <property name="kdenlive:id">679</property>
  </entry>
  <entry producer="producer752" in="02:17:43.317" out="02:17:44.767">
   <property name="kdenlive:id">679</property>
  </entry>
  <entry producer="producer752" in="02:17:46.100" out="02:17:47.033">
   <property name="kdenlive:id">679</property>
  </entry>
  <entry producer="producer752" in="02:17:47.050" out="02:17:47.800">
   <property name="kdenlive:id">679</property>
  </entry>
  <entry producer="producer752" in="02:20:29.283" out="02:20:31.683">
   <property name="kdenlive:id">679</property>
  </entry>
  <entry producer="producer752" in="02:22:48.500" out="02:22:52.683">
   <property name="kdenlive:id">679</property>
   <filter id="filter313">
    <property name="window">75</property>
    <property name="max_gain">20dB</property>
    <property name="level">00:00:15.367=-5</property>
    <property name="mlt_service">volume</property>
    <property name="kdenlive_id">-5db</property>
    <property name="kdenlive:collapsed">0</property>
   </filter>
   <filter id="filter314" in="02:22:52.183" out="02:22:52.683">
    <property name="window">75</property>
    <property name="max_gain">20dB</property>
    <property name="mlt_service">volume</property>
    <property name="kdenlive_id">fadeout</property>
    <property name="gain">1</property>
    <property name="end">0</property>
   </filter>
  </entry>
  <blank length="00:00:00.133"/>
  <entry producer="producer752" in="02:27:45.067" out="02:27:47.283">
   <property name="kdenlive:id">679</property>
   <filter id="filter315">
    <property name="window">75</property>
    <property name="max_gain">20dB</property>
    <property name="level">02:27:45.067=-3</property>
    <property name="mlt_service">volume</property>
    <property name="kdenlive_id">-3db</property>
   </filter>
  </entry>
  <entry producer="producer752" in="02:28:03.783" out="02:28:04.100">
   <property name="kdenlive:id">679</property>
  </entry>
  <entry producer="producer752" in="02:28:04.117" out="02:28:04.533">
   <property name="kdenlive:id">679</property>
  </entry>
  <entry producer="producer752" in="02:29:34.100" out="02:29:36.917">
   <property name="kdenlive:id">679</property>
  </entry>
  <entry producer="producer752" in="02:31:38.300" out="02:31:40.083">
   <property name="kdenlive:id">679</property>
  </entry>
  <entry producer="producer752" in="02:31:50.983" out="02:31:51.750">
   <property name="kdenlive:id">679</property>
  </entry>
  <entry producer="producer752" in="02:31:52.817" out="02:31:53.433">
   <property name="kdenlive:id">679</property>
  </entry>
  <entry producer="producer752" in="02:32:04.950" out="02:32:07.217">
   <property name="kdenlive:id">679</property>
  </entry>
  <entry producer="producer752" in="02:33:24.983" out="02:33:27.083">
   <property name="kdenlive:id">679</property>
  </entry>
  <entry producer="producer752" in="02:33:32.250" out="02:33:34.433">
   <property name="kdenlive:id">679</property>
  </entry>
  <entry producer="producer752" in="02:33:56.750" out="02:33:59.000">
   <property name="kdenlive:id">679</property>
  </entry>
  <entry producer="producer752" in="02:34:02.000" out="02:34:03.267">
   <property name="kdenlive:id">679</property>
  </entry>
  <entry producer="producer752" in="02:34:03.283" out="02:34:04.450">
   <property name="kdenlive:id">679</property>
   <filter id="filter316">
    <property name="window">75</property>
    <property name="max_gain">20dB</property>
    <property name="level">00:28:08.517=5</property>
    <property name="mlt_service">volume</property>
    <property name="kdenlive_id">+5db</property>
    <property name="kdenlive:collapsed">0</property>
   </filter>
  </entry>
  <entry producer="producer752" in="02:38:08.817" out="02:38:10.933">
   <property name="kdenlive:id">679</property>
  </entry>
  <entry producer="producer752" in="02:38:11.283" out="02:38:13.117">
   <property name="kdenlive:id">679</property>
  </entry>
  <entry producer="producer752" in="02:38:15.150" out="02:38:15.983">
   <property name="kdenlive:id">679</property>
   <filter id="filter317">
    <property name="window">75</property>
    <property name="max_gain">20dB</property>
    <property name="level">00:00:00.000=10</property>
    <property name="mlt_service">volume</property>
    <property name="kdenlive_id">+10db</property>
    <property name="kdenlive:collapsed">0</property>
   </filter>
  </entry>
  <blank length="00:00:00.233"/>
  <entry producer="producer752" in="02:40:54.300" out="02:40:55.967">
   <property name="kdenlive:id">679</property>
  </entry>
  <entry producer="producer752" in="02:47:19.533" out="02:47:21.067">
   <property name="kdenlive:id">679</property>
  </entry>
  <entry producer="producer752" in="02:44:03.750" out="02:44:05.267">
   <property name="kdenlive:id">679</property>
  </entry>
  <entry producer="producer752" in="02:44:08.267" out="02:44:09.300">
   <property name="kdenlive:id">679</property>
   <filter id="filter318">
    <property name="window">75</property>
    <property name="max_gain">20dB</property>
    <property name="level">02:44:08.267=5</property>
    <property name="mlt_service">volume</property>
    <property name="kdenlive_id">+5db</property>
    <property name="kdenlive:collapsed">0</property>
   </filter>
  </entry>
  <entry producer="producer754" in="00:27:56.400" out="00:27:57.133">
   <property name="kdenlive:id">680</property>
   <filter id="filter319">
    <property name="window">75</property>
    <property name="max_gain">20dB</property>
    <property name="level">00:28:08.517=5</property>
    <property name="mlt_service">volume</property>
    <property name="kdenlive_id">+5db</property>
    <property name="kdenlive:collapsed">0</property>
   </filter>
  </entry>
  <entry producer="producer754" in="00:29:25.567" out="00:29:29.117">
   <property name="kdenlive:id">680</property>
   <filter id="filter320" in="00:29:28.617" out="00:29:29.117">
    <property name="window">75</property>
    <property name="max_gain">20dB</property>
    <property name="mlt_service">volume</property>
    <property name="kdenlive_id">fadeout</property>
    <property name="gain">1</property>
    <property name="end">0</property>
    <property name="kdenlive:collapsed">0</property>
   </filter>
   <filter id="filter321">
    <property name="window">75</property>
    <property name="max_gain">20dB</property>
    <property name="level">00:00:15.367=-3</property>
    <property name="mlt_service">volume</property>
    <property name="kdenlive_id">-3db</property>
    <property name="kdenlive:collapsed">0</property>
   </filter>
  </entry>
  <blank length="00:00:00.017"/>
  <entry producer="producer754" in="00:30:36.817" out="00:30:38.300">
   <property name="kdenlive:id">680</property>
  </entry>
  <entry producer="producer754" in="00:31:37.883" out="00:31:40.067">
   <property name="kdenlive:id">680</property>
   <filter id="filter322">
    <property name="window">75</property>
    <property name="max_gain">20dB</property>
    <property name="level">00:00:15.367=-3</property>
    <property name="mlt_service">volume</property>
    <property name="kdenlive_id">-3db</property>
    <property name="kdenlive:collapsed">0</property>
   </filter>
  </entry>
  <entry producer="producer754" in="00:31:40.683" out="00:31:41.217">
   <property name="kdenlive:id">680</property>
   <filter id="filter323">
    <property name="window">75</property>
    <property name="max_gain">20dB</property>
    <property name="level">00:00:15.367=-3</property>
    <property name="mlt_service">volume</property>
    <property name="kdenlive_id">-3db</property>
    <property name="kdenlive:collapsed">0</property>
   </filter>
  </entry>
  <entry producer="producer754" in="00:31:44.433" out="00:31:44.933">
   <property name="kdenlive:id">680</property>
   <filter id="filter324">
    <property name="window">75</property>
    <property name="max_gain">20dB</property>
    <property name="level">00:00:15.367=-3</property>
    <property name="mlt_service">volume</property>
    <property name="kdenlive_id">-3db</property>
    <property name="kdenlive:collapsed">0</property>
   </filter>
  </entry>
  <entry producer="producer754" in="00:33:26.300" out="00:33:28.517">
   <property name="kdenlive:id">680</property>
  </entry>
  <entry producer="producer754" in="00:33:36.767" out="00:33:38.517">
   <property name="kdenlive:id">680</property>
  </entry>
  <entry producer="producer754" in="00:36:51.867" out="00:36:53.350">
   <property name="kdenlive:id">680</property>
   <filter id="filter325">
    <property name="window">75</property>
    <property name="max_gain">20dB</property>
    <property name="level">00:28:08.517=5</property>
    <property name="mlt_service">volume</property>
    <property name="kdenlive_id">+5db</property>
    <property name="kdenlive:collapsed">0</property>
   </filter>
  </entry>
  <entry producer="producer754" in="00:37:06.733" out="00:37:08.600">
   <property name="kdenlive:id">680</property>
  </entry>
  <entry producer="producer754" in="00:37:57.317" out="00:37:58.183">
   <property name="kdenlive:id">680</property>
  </entry>
  <entry producer="producer754" in="00:38:05.517" out="00:38:07.467">
   <property name="kdenlive:id">680</property>
  </entry>
  <entry producer="producer754" in="00:38:07.483" out="00:38:07.917">
   <property name="kdenlive:id">680</property>
  </entry>
  <entry producer="producer754" in="00:38:15.817" out="00:38:17.500">
   <property name="kdenlive:id">680</property>
  </entry>
  <entry producer="producer754" in="00:38:32.750" out="00:38:34.467">
   <property name="kdenlive:id">680</property>
   <filter id="filter326">
    <property name="window">75</property>
    <property name="max_gain">20dB</property>
    <property name="level">00:28:08.517=5</property>
    <property name="mlt_service">volume</property>
    <property name="kdenlive_id">+5db</property>
    <property name="kdenlive:collapsed">0</property>
   </filter>
  </entry>
  <entry producer="producer754" in="00:46:24.133" out="00:46:25.800">
   <property name="kdenlive:id">680</property>
  </entry>
  <entry producer="producer754" in="00:46:29.600" out="00:46:33.467">
   <property name="kdenlive:id">680</property>
  </entry>
  <entry producer="producer754" in="00:48:51.083" out="00:48:55.217">
   <property name="kdenlive:id">680</property>
   <filter id="filter327">
    <property name="window">75</property>
    <property name="max_gain">20dB</property>
    <property name="level">00:48:51.083=0;00:48:54.050=0.314516;00:48:55.217=3</property>
    <property name="mlt_service">volume</property>
    <property name="kdenlive_id">volume</property>
    <property name="kdenlive:collapsed">0</property>
   </filter>
  </entry>
  <entry producer="producer754" in="00:48:55.233" out="00:48:55.517">
   <property name="kdenlive:id">680</property>
   <filter id="filter328">
    <property name="window">75</property>
    <property name="max_gain">20dB</property>
    <property name="level">00:28:08.517=5</property>
    <property name="mlt_service">volume</property>
    <property name="kdenlive_id">+5db</property>
    <property name="kdenlive:collapsed">0</property>
   </filter>
  </entry>
  <entry producer="producer754" in="00:49:01.283" out="00:49:03.183">
   <property name="kdenlive:id">680</property>
   <filter id="filter329">
    <property name="window">75</property>
    <property name="max_gain">20dB</property>
    <property name="level">00:00:00.000=3</property>
    <property name="mlt_service">volume</property>
    <property name="kdenlive_id">+3db</property>
    <property name="kdenlive:collapsed">0</property>
   </filter>
  </entry>
  <entry producer="producer754" in="00:49:22.133" out="00:49:22.817">
   <property name="kdenlive:id">680</property>
  </entry>
  <entry producer="producer754" in="00:49:22.817" out="00:49:23.817">
   <property name="kdenlive:id">680</property>
  </entry>
  <entry producer="producer754" in="00:49:40.983" out="00:49:41.533">
   <property name="kdenlive:id">680</property>
  </entry>
  <entry producer="producer754" in="00:49:44.833" out="00:49:45.333">
   <property name="kdenlive:id">680</property>
  </entry>
  <entry producer="producer754" in="00:49:48.867" out="00:49:49.467">
   <property name="kdenlive:id">680</property>
  </entry>
  <entry producer="producer754" in="00:52:25.450" out="00:52:26.450">
   <property name="kdenlive:id">680</property>
  </entry>
  <entry producer="producer754" in="00:52:40.467" out="00:52:43.200">
   <property name="kdenlive:id">680</property>
  </entry>
  <entry producer="producer754" in="00:52:43.400" out="00:52:44.000">
   <property name="kdenlive:id">680</property>
  </entry>
  <entry producer="producer754" in="00:52:44.017" out="00:52:44.767">
   <property name="kdenlive:id">680</property>
  </entry>
  <entry producer="producer754" in="00:54:29.233" out="00:54:31.583">
   <property name="kdenlive:id">680</property>
   <filter id="filter330">
    <property name="window">75</property>
    <property name="max_gain">20dB</property>
    <property name="level">00:28:08.517=5</property>
    <property name="mlt_service">volume</property>
    <property name="kdenlive_id">+5db</property>
    <property name="kdenlive:collapsed">0</property>
   </filter>
  </entry>
  <entry producer="producer754" in="00:54:45.850" out="00:54:47.917">
   <property name="kdenlive:id">680</property>
  </entry>
  <entry producer="producer754" in="00:54:47.933" out="00:54:48.533">
   <property name="kdenlive:id">680</property>
  </entry>
  <entry producer="producer754" in="00:54:48.750" out="00:54:49.267">
   <property name="kdenlive:id">680</property>
  </entry>
  <entry producer="producer754" in="00:54:49.750" out="00:54:51.017">
   <property name="kdenlive:id">680</property>
  </entry>
  <entry producer="producer754" in="00:54:57.650" out="00:54:57.983">
   <property name="kdenlive:id">680</property>
  </entry>
  <entry producer="producer754" in="00:54:58.000" out="00:54:59.017">
   <property name="kdenlive:id">680</property>
  </entry>
  <entry producer="producer754" in="00:54:59.517" out="00:55:00.217">
   <property name="kdenlive:id">680</property>
  </entry>
  <entry producer="producer754" in="00:55:42.717" out="00:55:44.683">
   <property name="kdenlive:id">680</property>
   <filter id="filter331">
    <property name="window">75</property>
    <property name="max_gain">20dB</property>
    <property name="level">00:55:42.717=0;00:55:44.483=5</property>
    <property name="mlt_service">volume</property>
    <property name="kdenlive_id">volume</property>
    <property name="kdenlive:collapsed">0</property>
   </filter>
  </entry>
  <blank length="00:00:02.683"/>
  <entry producer="producer754" in="00:56:38.217" out="00:56:41.217">
   <property name="kdenlive:id">680</property>
   <filter id="filter332">
    <property name="window">75</property>
    <property name="max_gain">20dB</property>
    <property name="level">00:00:15.367=-5</property>
    <property name="mlt_service">volume</property>
    <property name="kdenlive_id">-5db</property>
    <property name="kdenlive:collapsed">0</property>
   </filter>
  </entry>
  <entry producer="producer754" in="00:56:41.233" out="00:56:42.033">
   <property name="kdenlive:id">680</property>
   <filter id="filter333">
    <property name="window">75</property>
    <property name="max_gain">20dB</property>
    <property name="level">00:00:15.367=-5</property>
    <property name="mlt_service">volume</property>
    <property name="kdenlive_id">-5db</property>
    <property name="kdenlive:collapsed">0</property>
   </filter>
  </entry>
  <entry producer="producer754" in="00:57:43.033" out="00:57:46.017">
   <property name="kdenlive:id">680</property>
   <filter id="filter334">
    <property name="window">75</property>
    <property name="max_gain">20dB</property>
    <property name="level">00:00:15.367=-3</property>
    <property name="mlt_service">volume</property>
    <property name="kdenlive_id">-3db</property>
    <property name="kdenlive:collapsed">0</property>
   </filter>
  </entry>
  <entry producer="producer754" in="00:57:54.067" out="00:57:55.300">
   <property name="kdenlive:id">680</property>
  </entry>
  <entry producer="producer754" in="01:01:48.900" out="01:01:50.333">
   <property name="kdenlive:id">680</property>
  </entry>
  <entry producer="producer754" in="01:01:50.350" out="01:01:51.367">
   <property name="kdenlive:id">680</property>
  </entry>
  <entry producer="producer754" in="01:02:42.300" out="01:02:44.250">
   <property name="kdenlive:id">680</property>
  </entry>
  <entry producer="producer754" in="01:04:48.700" out="01:04:51.067">
   <property name="kdenlive:id">680</property>
  </entry>
  <entry producer="producer754" in="01:05:25.283" out="01:05:26.350">
   <property name="kdenlive:id">680</property>
   <filter id="filter335">
    <property name="window">75</property>
    <property name="max_gain">20dB</property>
    <property name="level">00:00:15.367=-3</property>
    <property name="mlt_service">volume</property>
    <property name="kdenlive_id">-3db</property>
    <property name="kdenlive:collapsed">0</property>
   </filter>
  </entry>
  <entry producer="producer754" in="01:06:09.183" out="01:06:10.700">
   <property name="kdenlive:id">680</property>
   <filter id="filter336">
    <property name="window">75</property>
    <property name="max_gain">20dB</property>
    <property name="level">00:00:15.367=-3</property>
    <property name="mlt_service">volume</property>
    <property name="kdenlive_id">-3db</property>
    <property name="kdenlive:collapsed">0</property>
   </filter>
  </entry>
  <entry producer="producer754" in="01:09:23.467" out="01:09:28.100">
   <property name="kdenlive:id">680</property>
   <filter id="filter337">
    <property name="window">75</property>
    <property name="max_gain">20dB</property>
    <property name="level">00:00:15.367=-3</property>
    <property name="mlt_service">volume</property>
    <property name="kdenlive_id">-3db</property>
    <property name="kdenlive:collapsed">0</property>
   </filter>
  </entry>
  <entry producer="producer754" in="01:09:48.983" out="01:09:50.933">
   <property name="kdenlive:id">680</property>
   <filter id="filter338">
    <property name="window">75</property>
    <property name="max_gain">20dB</property>
    <property name="level">00:00:15.367=-3</property>
    <property name="mlt_service">volume</property>
    <property name="kdenlive_id">-3db</property>
    <property name="kdenlive:collapsed">0</property>
   </filter>
  </entry>
  <entry producer="producer754" in="01:09:58.950" out="01:10:00.900">
   <property name="kdenlive:id">680</property>
   <filter id="filter339">
    <property name="window">75</property>
    <property name="max_gain">20dB</property>
    <property name="level">00:00:15.367=-5</property>
    <property name="mlt_service">volume</property>
    <property name="kdenlive_id">-5db</property>
    <property name="kdenlive:collapsed">0</property>
   </filter>
  </entry>
  <entry producer="producer754" in="01:17:01.150" out="01:17:03.233">
   <property name="kdenlive:id">680</property>
   <filter id="filter340">
    <property name="window">75</property>
    <property name="max_gain">20dB</property>
    <property name="level">00:00:15.367=-3</property>
    <property name="mlt_service">volume</property>
    <property name="kdenlive_id">-3db</property>
    <property name="kdenlive:collapsed">0</property>
   </filter>
  </entry>
  <entry producer="producer754" in="01:17:03.250" out="01:17:03.783">
   <property name="kdenlive:id">680</property>
   <filter id="filter341">
    <property name="window">75</property>
    <property name="max_gain">20dB</property>
    <property name="level">00:00:15.367=-3</property>
    <property name="mlt_service">volume</property>
    <property name="kdenlive_id">-3db</property>
   </filter>
  </entry>
  <entry producer="producer754" in="01:20:26.100" out="01:20:28.450">
   <property name="kdenlive:id">680</property>
  </entry>
  <entry producer="producer754" in="01:20:34.017" out="01:20:35.900">
   <property name="kdenlive:id">680</property>
   <filter id="filter342">
    <property name="window">75</property>
    <property name="max_gain">20dB</property>
    <property name="level">00:00:15.367=-3</property>
    <property name="mlt_service">volume</property>
    <property name="kdenlive_id">-3db</property>
    <property name="kdenlive:collapsed">0</property>
   </filter>
  </entry>
  <entry producer="producer754" in="01:20:49.467" out="01:20:51.683">
   <property name="kdenlive:id">680</property>
   <filter id="filter343">
    <property name="window">75</property>
    <property name="max_gain">20dB</property>
    <property name="level">00:00:15.367=-3</property>
    <property name="mlt_service">volume</property>
    <property name="kdenlive_id">-3db</property>
    <property name="kdenlive:collapsed">0</property>
   </filter>
  </entry>
  <entry producer="producer754" in="01:22:02.967" out="01:22:04.817">
   <property name="kdenlive:id">680</property>
   <filter id="filter344">
    <property name="window">75</property>
    <property name="max_gain">20dB</property>
    <property name="level">00:00:15.367=-3</property>
    <property name="mlt_service">volume</property>
    <property name="kdenlive_id">-3db</property>
    <property name="kdenlive:collapsed">0</property>
   </filter>
  </entry>
  <entry producer="producer754" in="01:23:09.033" out="01:23:10.567">
   <property name="kdenlive:id">680</property>
   <filter id="filter345">
    <property name="window">75</property>
    <property name="max_gain">20dB</property>
    <property name="level">00:00:00.000=3</property>
    <property name="mlt_service">volume</property>
    <property name="kdenlive_id">+3db</property>
    <property name="kdenlive:collapsed">0</property>
   </filter>
  </entry>
  <entry producer="producer754" in="01:23:13.500" out="01:23:15.250">
   <property name="kdenlive:id">680</property>
   <filter id="filter346">
    <property name="window">75</property>
    <property name="max_gain">20dB</property>
    <property name="level">00:00:00.000=3</property>
    <property name="mlt_service">volume</property>
    <property name="kdenlive_id">+3db</property>
    <property name="kdenlive:collapsed">0</property>
   </filter>
  </entry>
  <entry producer="producer754" in="01:23:17.833" out="01:23:19.433">
   <property name="kdenlive:id">680</property>
  </entry>
  <entry producer="producer754" in="01:23:48.633" out="01:23:50.050">
   <property name="kdenlive:id">680</property>
  </entry>
  <entry producer="producer754" in="01:23:50.067" out="01:23:50.867">
   <property name="kdenlive:id">680</property>
  </entry>
  <entry producer="producer754" in="01:23:50.883" out="01:23:51.483">
   <property name="kdenlive:id">680</property>
  </entry>
  <entry producer="producer754" in="01:23:53.017" out="01:23:54.200">
   <property name="kdenlive:id">680</property>
  </entry>
  <entry producer="producer754" in="01:24:52.583" out="01:24:54.767">
   <property name="kdenlive:id">680</property>
  </entry>
  <entry producer="producer754" in="01:25:33.283" out="01:25:33.883">
   <property name="kdenlive:id">680</property>
  </entry>
  <entry producer="producer754" in="01:26:36.267" out="01:26:38.250">
   <property name="kdenlive:id">680</property>
  </entry>
  <entry producer="producer754" in="01:26:38.267" out="01:26:39.917">
   <property name="kdenlive:id">680</property>
   <filter id="filter347">
    <property name="window">75</property>
    <property name="max_gain">20dB</property>
    <property name="level">00:00:15.367=-3</property>
    <property name="mlt_service">volume</property>
    <property name="kdenlive_id">-3db</property>
    <property name="kdenlive:collapsed">0</property>
   </filter>
  </entry>
  <entry producer="producer754" in="01:26:54.467" out="01:26:55.783">
   <property name="kdenlive:id">680</property>
  </entry>
  <entry producer="producer754" in="01:27:15.633" out="01:27:16.400">
   <property name="kdenlive:id">680</property>
  </entry>
  <entry producer="producer754" in="01:27:16.417" out="01:27:18.750">
   <property name="kdenlive:id">680</property>
  </entry>
  <entry producer="producer754" in="01:28:06.150" out="01:28:07.450">
   <property name="kdenlive:id">680</property>
  </entry>
  <entry producer="producer754" in="01:28:07.717" out="01:28:08.150">
   <property name="kdenlive:id">680</property>
  </entry>
  <entry producer="producer754" in="01:28:09.983" out="01:28:10.750">
   <property name="kdenlive:id">680</property>
  </entry>
  <entry producer="producer754" in="01:28:10.767" out="01:28:11.150">
   <property name="kdenlive:id">680</property>
  </entry>
  <entry producer="producer754" in="01:28:19.067" out="01:28:20.117">
   <property name="kdenlive:id">680</property>
  </entry>
  <entry producer="producer754" in="01:29:01.900" out="01:29:05.567">
   <property name="kdenlive:id">680</property>
  </entry>
  <entry producer="producer754" in="01:29:05.583" out="01:29:05.967">
   <property name="kdenlive:id">680</property>
  </entry>
  <entry producer="producer754" in="01:29:14.750" out="01:29:16.233">
   <property name="kdenlive:id">680</property>
  </entry>
  <entry producer="producer754" in="01:29:23.467" out="01:29:24.667">
   <property name="kdenlive:id">680</property>
  </entry>
  <entry producer="producer754" in="01:29:24.683" out="01:29:25.533">
   <property name="kdenlive:id">680</property>
  </entry>
  <entry producer="producer754" in="01:29:25.550" out="01:29:26.283">
   <property name="kdenlive:id">680</property>
  </entry>
  <entry producer="producer754" in="01:29:59.067" out="01:29:59.867">
   <property name="kdenlive:id">680</property>
  </entry>
  <entry producer="producer754" in="01:30:01.433" out="01:30:02.900">
   <property name="kdenlive:id">680</property>
   <filter id="filter348">
    <property name="window">75</property>
    <property name="max_gain">20dB</property>
    <property name="level">00:00:15.367=-3</property>
    <property name="mlt_service">volume</property>
    <property name="kdenlive_id">-3db</property>
    <property name="kdenlive:collapsed">0</property>
   </filter>
  </entry>
  <entry producer="producer754" in="01:31:56.083" out="01:31:56.717">
   <property name="kdenlive:id">680</property>
  </entry>
  <entry producer="producer754" in="01:32:00.700" out="01:32:01.483">
   <property name="kdenlive:id">680</property>
  </entry>
  <entry producer="producer754" in="01:32:02.150" out="01:32:02.800">
   <property name="kdenlive:id">680</property>
  </entry>
  <entry producer="producer754" in="01:32:02.817" out="01:32:03.267">
   <property name="kdenlive:id">680</property>
   <filter id="filter349">
    <property name="window">75</property>
    <property name="max_gain">20dB</property>
    <property name="level">00:00:15.367=-3</property>
    <property name="mlt_service">volume</property>
    <property name="kdenlive_id">-3db</property>
    <property name="kdenlive:collapsed">0</property>
   </filter>
  </entry>
  <entry producer="producer754" in="01:32:04.817" out="01:32:05.667">
   <property name="kdenlive:id">680</property>
   <filter id="filter350">
    <property name="window">75</property>
    <property name="max_gain">20dB</property>
    <property name="level">00:00:15.367=-5</property>
    <property name="mlt_service">volume</property>
    <property name="kdenlive_id">-5db</property>
    <property name="kdenlive:collapsed">0</property>
   </filter>
  </entry>
  <entry producer="producer754" in="01:32:20.900" out="01:32:21.950">
   <property name="kdenlive:id">680</property>
   <filter id="filter351">
    <property name="window">75</property>
    <property name="max_gain">20dB</property>
    <property name="level">00:00:15.367=-3</property>
    <property name="mlt_service">volume</property>
    <property name="kdenlive_id">-3db</property>
    <property name="kdenlive:collapsed">0</property>
   </filter>
  </entry>
  <entry producer="producer754" in="01:32:25.583" out="01:32:26.767">
   <property name="kdenlive:id">680</property>
   <filter id="filter352">
    <property name="window">75</property>
    <property name="max_gain">20dB</property>
    <property name="level">00:00:15.367=-3</property>
    <property name="mlt_service">volume</property>
    <property name="kdenlive_id">-3db</property>
    <property name="kdenlive:collapsed">0</property>
   </filter>
  </entry>
  <entry producer="producer754" in="01:35:15.867" out="01:35:16.567">
   <property name="kdenlive:id">680</property>
   <filter id="filter353">
    <property name="window">75</property>
    <property name="max_gain">20dB</property>
    <property name="level">00:00:15.367=-3</property>
    <property name="mlt_service">volume</property>
    <property name="kdenlive_id">-3db</property>
    <property name="kdenlive:collapsed">0</property>
   </filter>
  </entry>
  <blank length="00:00:00.133"/>
  <entry producer="producer754" in="01:35:16.717" out="01:35:17.683">
   <property name="kdenlive:id">680</property>
   <filter id="filter354">
    <property name="window">75</property>
    <property name="max_gain">20dB</property>
    <property name="level">01:35:16.717=-3</property>
    <property name="mlt_service">volume</property>
    <property name="kdenlive_id">-3db</property>
   </filter>
  </entry>
  <entry producer="producer754" in="01:35:45.517" out="01:35:47.950">
   <property name="kdenlive:id">680</property>
  </entry>
  <entry producer="producer754" in="01:35:58.150" out="01:35:59.417">
   <property name="kdenlive:id">680</property>
  </entry>
  <entry producer="producer754" in="01:36:02.017" out="01:36:03.183">
   <property name="kdenlive:id">680</property>
  </entry>
  <entry producer="producer754" in="01:36:27.133" out="01:36:28.850">
   <property name="kdenlive:id">680</property>
  </entry>
  <entry producer="producer754" in="01:36:29.733" out="01:36:30.783">
   <property name="kdenlive:id">680</property>
  </entry>
  <entry producer="producer754" in="01:37:02.133" out="01:37:06.000">
   <property name="kdenlive:id">680</property>
  </entry>
  <entry producer="producer754" in="01:37:06.017" out="01:37:07.000">
   <property name="kdenlive:id">680</property>
  </entry>
  <entry producer="producer754" in="01:37:15.583" out="01:37:16.067">
   <property name="kdenlive:id">680</property>
  </entry>
  <blank length="00:00:00.167"/>
  <entry producer="producer754" in="01:37:16.250" out="01:37:16.883">
   <property name="kdenlive:id">680</property>
  </entry>
  <entry producer="producer754" in="01:37:53.417" out="01:37:54.600">
   <property name="kdenlive:id">680</property>
  </entry>
  <entry producer="producer754" in="01:37:56.000" out="01:37:56.633">
   <property name="kdenlive:id">680</property>
  </entry>
  <entry producer="producer754" in="01:38:13.800" out="01:38:16.283">
   <property name="kdenlive:id">680</property>
   <filter id="filter355" in="01:38:16.233" out="01:38:16.283">
    <property name="window">75</property>
    <property name="max_gain">20dB</property>
    <property name="mlt_service">volume</property>
    <property name="kdenlive_id">fadeout</property>
    <property name="gain">1</property>
    <property name="end">0</property>
   </filter>
  </entry>
  <blank length="00:00:01.983"/>
  <entry producer="producer754" in="01:40:08.733" out="01:40:09.500">
   <property name="kdenlive:id">680</property>
  </entry>
  <entry producer="producer754" in="01:44:24.833" out="01:44:25.283">
   <property name="kdenlive:id">680</property>
  </entry>
  <entry producer="producer754" in="01:44:26.450" out="01:44:27.683">
   <property name="kdenlive:id">680</property>
  </entry>
  <entry producer="producer754" in="01:44:28.583" out="01:44:29.133">
   <property name="kdenlive:id">680</property>
  </entry>
  <entry producer="producer754" in="01:44:42.867" out="01:44:44.883">
   <property name="kdenlive:id">680</property>
  </entry>
  <entry producer="producer754" in="01:51:39.933" out="01:51:41.300">
   <property name="kdenlive:id">680</property>
  </entry>
  <entry producer="producer754" in="01:51:44.483" out="01:51:45.533">
   <property name="kdenlive:id">680</property>
  </entry>
  <entry producer="producer754" in="01:54:19.050" out="01:54:21.117">
   <property name="kdenlive:id">680</property>
  </entry>
  <entry producer="producer754" in="01:54:33.383" out="01:54:36.217">
   <property name="kdenlive:id">680</property>
   <filter id="filter356">
    <property name="window">75</property>
    <property name="max_gain">20dB</property>
    <property name="level">00:00:15.367=-3</property>
    <property name="mlt_service">volume</property>
    <property name="kdenlive_id">-3db</property>
    <property name="kdenlive:collapsed">0</property>
   </filter>
  </entry>
  <entry producer="producer754" in="01:54:36.233" out="01:54:37.117">
   <property name="kdenlive:id">680</property>
  </entry>
  <entry producer="producer754" in="01:54:41.683" out="01:54:42.150">
   <property name="kdenlive:id">680</property>
   <filter id="filter357">
    <property name="window">75</property>
    <property name="max_gain">20dB</property>
    <property name="level">01:54:41.683=3</property>
    <property name="mlt_service">volume</property>
    <property name="kdenlive_id">+3db</property>
    <property name="kdenlive:collapsed">0</property>
   </filter>
  </entry>
  <entry producer="producer754" in="01:57:14.183" out="01:57:15.217">
   <property name="kdenlive:id">680</property>
  </entry>
  <entry producer="producer754" in="01:57:15.567" out="01:57:18.083">
   <property name="kdenlive:id">680</property>
  </entry>
  <entry producer="producer754" in="01:57:18.800" out="01:57:20.983">
   <property name="kdenlive:id">680</property>
  </entry>
  <entry producer="producer754" in="01:58:09.450" out="01:58:10.500">
   <property name="kdenlive:id">680</property>
  </entry>
  <entry producer="producer754" in="01:58:10.517" out="01:58:11.233">
   <property name="kdenlive:id">680</property>
  </entry>
  <entry producer="producer754" in="01:58:11.250" out="01:58:11.700">
   <property name="kdenlive:id">680</property>
  </entry>
  <entry producer="producer754" in="02:01:03.050" out="02:01:04.450">
   <property name="kdenlive:id">680</property>
  </entry>
  <entry producer="producer754" in="02:01:43.667" out="02:01:45.083">
   <property name="kdenlive:id">680</property>
  </entry>
  <entry producer="producer754" in="02:02:16.867" out="02:02:19.167">
   <property name="kdenlive:id">680</property>
  </entry>
  <entry producer="producer754" in="02:02:57.083" out="02:02:58.550">
   <property name="kdenlive:id">680</property>
  </entry>
  <entry producer="producer754" in="02:07:01.767" out="02:07:03.083">
   <property name="kdenlive:id">680</property>
  </entry>
  <entry producer="producer754" in="02:07:08.050" out="02:07:08.850">
   <property name="kdenlive:id">680</property>
  </entry>
  <entry producer="producer754" in="02:07:14.850" out="02:07:16.550">
   <property name="kdenlive:id">680</property>
  </entry>
  <blank length="00:00:00.150"/>
  <entry producer="producer754" in="02:09:29.450" out="02:09:31.417">
   <property name="kdenlive:id">680</property>
  </entry>
  <entry producer="producer754" in="02:09:31.433" out="02:09:32.717">
   <property name="kdenlive:id">680</property>
   <filter id="filter358">
    <property name="window">75</property>
    <property name="max_gain">20dB</property>
    <property name="level">00:00:00.000=-8</property>
    <property name="mlt_service">volume</property>
    <property name="kdenlive_id">-8db</property>
    <property name="kdenlive:collapsed">0</property>
   </filter>
  </entry>
  <entry producer="producer754" in="02:09:34.550" out="02:09:35.833">
   <property name="kdenlive:id">680</property>
   <filter id="filter359">
    <property name="window">75</property>
    <property name="max_gain">20dB</property>
    <property name="level">00:00:15.367=-3</property>
    <property name="mlt_service">volume</property>
    <property name="kdenlive_id">-3db</property>
    <property name="kdenlive:collapsed">0</property>
   </filter>
  </entry>
  <entry producer="producer754" in="02:12:01.850" out="02:12:07.067">
   <property name="kdenlive:id">680</property>
   <filter id="filter360">
    <property name="window">75</property>
    <property name="max_gain">20dB</property>
    <property name="level">00:00:15.367=-3</property>
    <property name="mlt_service">volume</property>
    <property name="kdenlive_id">-3db</property>
    <property name="kdenlive:collapsed">0</property>
   </filter>
  </entry>
  <entry producer="producer754" in="02:12:19.083" out="02:12:20.167">
   <property name="kdenlive:id">680</property>
  </entry>
  <blank length="00:00:00.300"/>
  <entry producer="producer754" in="02:15:23.633" out="02:15:27.650">
   <property name="kdenlive:id">680</property>
   <filter id="filter361">
    <property name="window">75</property>
    <property name="max_gain">20dB</property>
    <property name="level">00:00:15.367=-3</property>
    <property name="mlt_service">volume</property>
    <property name="kdenlive_id">-3db</property>
    <property name="kdenlive:collapsed">0</property>
   </filter>
  </entry>
  <entry producer="producer754" in="02:19:59.833" out="02:20:02.167">
   <property name="kdenlive:id">680</property>
  </entry>
  <entry producer="producer754" in="02:20:07.083" out="02:20:08.467">
   <property name="kdenlive:id">680</property>
  </entry>
  <entry producer="producer754" in="02:20:08.483" out="02:20:09.250">
   <property name="kdenlive:id">680</property>
  </entry>
  <entry producer="producer754" in="02:20:09.600" out="02:20:10.783">
   <property name="kdenlive:id">680</property>
   <filter id="filter362" in="02:20:10.667" out="02:20:10.783">
    <property name="window">75</property>
    <property name="max_gain">20dB</property>
    <property name="mlt_service">volume</property>
    <property name="kdenlive_id">fadeout</property>
    <property name="gain">1</property>
    <property name="end">0</property>
   </filter>
  </entry>
  <blank length="00:00:00.183"/>
  <entry producer="producer754" in="02:20:23.867" out="02:20:24.567">
   <property name="kdenlive:id">680</property>
  </entry>
  <blank length="00:00:00.567"/>
  <entry producer="producer754" in="02:20:41.467" out="02:20:42.333">
   <property name="kdenlive:id">680</property>
  </entry>
  <blank length="00:00:00.900"/>
  <entry producer="producer754" in="02:37:16.483" out="02:37:17.800">
   <property name="kdenlive:id">680</property>
  </entry>
  <entry producer="producer754" in="02:37:19.133" out="02:37:19.800">
   <property name="kdenlive:id">680</property>
  </entry>
  <entry producer="producer754" in="02:39:07.533" out="02:39:09.417">
   <property name="kdenlive:id">680</property>
  </entry>
  <entry producer="producer754" in="02:39:47.150" out="02:39:51.867">
   <property name="kdenlive:id">680</property>
   <filter id="filter363">
    <property name="window">75</property>
    <property name="max_gain">20dB</property>
    <property name="level">00:00:15.367=-3</property>
    <property name="mlt_service">volume</property>
    <property name="kdenlive_id">-3db</property>
    <property name="kdenlive:collapsed">0</property>
   </filter>
  </entry>
  <entry producer="producer754" in="02:39:59.817" out="02:40:03.467">
   <property name="kdenlive:id">680</property>
  </entry>
  <entry producer="producer754" in="02:40:04.667" out="02:40:05.083">
   <property name="kdenlive:id">680</property>
  </entry>
  <entry producer="producer754" in="02:42:17.850" out="02:42:18.933">
   <property name="kdenlive:id">680</property>
  </entry>
  <entry producer="producer754" in="02:42:19.817" out="02:42:21.600">
   <property name="kdenlive:id">680</property>
  </entry>
  <entry producer="producer754" in="02:42:22.117" out="02:42:23.233">
   <property name="kdenlive:id">680</property>
  </entry>
  <entry producer="producer755" in="00:17:49.917" out="00:17:51.750">
   <property name="kdenlive:id">681</property>
  </entry>
  <entry producer="producer755" in="00:27:37.517" out="00:27:38.983">
   <property name="kdenlive:id">681</property>
  </entry>
  <entry producer="producer755" in="00:27:39.000" out="00:27:39.933">
   <property name="kdenlive:id">681</property>
  </entry>
  <entry producer="producer755" in="00:28:36.383" out="00:28:38.567">
   <property name="kdenlive:id">681</property>
  </entry>
  <entry producer="producer755" in="00:28:51.283" out="00:28:51.800">
   <property name="kdenlive:id">681</property>
  </entry>
  <entry producer="producer755" in="00:28:57.467" out="00:29:00.767">
   <property name="kdenlive:id">681</property>
  </entry>
  <entry producer="producer755" in="00:29:00.783" out="00:29:01.433">
   <property name="kdenlive:id">681</property>
   <filter id="filter364">
    <property name="window">75</property>
    <property name="max_gain">20dB</property>
    <property name="level">00:00:00.000=3</property>
    <property name="mlt_service">volume</property>
    <property name="kdenlive_id">+3db</property>
    <property name="kdenlive:collapsed">0</property>
   </filter>
  </entry>
  <entry producer="producer755" in="00:29:01.450" out="00:29:02.650">
   <property name="kdenlive:id">681</property>
  </entry>
  <entry producer="producer755" in="00:40:08.233" out="00:40:11.700">
   <property name="kdenlive:id">681</property>
  </entry>
  <entry producer="producer755" in="00:43:30.567" out="00:43:32.783">
   <property name="kdenlive:id">681</property>
  </entry>
  <entry producer="producer755" in="00:43:32.800" out="00:43:33.733">
   <property name="kdenlive:id">681</property>
   <filter id="filter365">
    <property name="window">75</property>
    <property name="max_gain">20dB</property>
    <property name="level">00:00:00.000=3</property>
    <property name="mlt_service">volume</property>
    <property name="kdenlive_id">+3db</property>
    <property name="kdenlive:collapsed">0</property>
   </filter>
  </entry>
  <entry producer="producer755" in="00:43:44.667" out="00:43:48.617">
   <property name="kdenlive:id">681</property>
  </entry>
  <entry producer="producer755" in="00:43:48.633" out="00:43:49.500">
   <property name="kdenlive:id">681</property>
   <filter id="filter366">
    <property name="window">75</property>
    <property name="max_gain">20dB</property>
    <property name="level">00:00:15.367=-3</property>
    <property name="mlt_service">volume</property>
    <property name="kdenlive_id">-3db</property>
    <property name="kdenlive:collapsed">0</property>
   </filter>
  </entry>
  <entry producer="producer755" in="00:43:53.683" out="00:43:55.133">
   <property name="kdenlive:id">681</property>
  </entry>
  <entry producer="producer755" in="00:44:00.900" out="00:44:01.167">
   <property name="kdenlive:id">681</property>
  </entry>
  <entry producer="producer755" in="00:44:03.417" out="00:44:03.867">
   <property name="kdenlive:id">681</property>
  </entry>
  <entry producer="producer755" in="00:48:38.567" out="00:48:39.017">
   <property name="kdenlive:id">681</property>
  </entry>
  <entry producer="producer755" in="00:48:39.367" out="00:48:39.833">
   <property name="kdenlive:id">681</property>
  </entry>
  <entry producer="producer755" in="00:48:42.950" out="00:48:46.200">
   <property name="kdenlive:id">681</property>
  </entry>
  <entry producer="producer755" in="00:51:32.700" out="00:51:33.750">
   <property name="kdenlive:id">681</property>
  </entry>
  <entry producer="producer755" in="00:51:33.767" out="00:51:34.217">
   <property name="kdenlive:id">681</property>
  </entry>
  <entry producer="producer755" in="00:51:34.233" out="00:51:35.517">
   <property name="kdenlive:id">681</property>
  </entry>
  <entry producer="producer755" in="00:51:50.167" out="00:51:51.733">
   <property name="kdenlive:id">681</property>
   <filter id="filter367">
    <property name="window">75</property>
    <property name="max_gain">20dB</property>
    <property name="level">00:00:00.000=3</property>
    <property name="mlt_service">volume</property>
    <property name="kdenlive_id">+3db</property>
    <property name="kdenlive:collapsed">0</property>
   </filter>
  </entry>
  <entry producer="producer755" in="00:52:00.567" out="00:52:01.733">
   <property name="kdenlive:id">681</property>
  </entry>
  <blank length="00:00:01.933"/>
  <entry producer="producer755" in="00:52:11.483" out="00:52:12.283">
   <property name="kdenlive:id">681</property>
  </entry>
  <entry producer="producer755" in="00:52:31.467" out="00:52:32.450">
   <property name="kdenlive:id">681</property>
  </entry>
  <blank length="00:00:00.933"/>
  <entry producer="producer755" in="00:52:48.383" out="00:52:50.667">
   <property name="kdenlive:id">681</property>
  </entry>
  <entry producer="producer755" in="00:52:50.683" out="00:52:51.667">
   <property name="kdenlive:id">681</property>
  </entry>
  <blank length="00:00:00.450"/>
  <entry producer="producer755" in="00:58:11.850" out="00:58:15.317">
   <property name="kdenlive:id">681</property>
   <filter id="filter368">
    <property name="window">75</property>
    <property name="max_gain">20dB</property>
    <property name="level">00:00:15.367=-5</property>
    <property name="mlt_service">volume</property>
    <property name="kdenlive_id">-5db</property>
    <property name="kdenlive:collapsed">0</property>
   </filter>
  </entry>
  <entry producer="producer755" in="00:58:17.350" out="00:58:17.817">
   <property name="kdenlive:id">681</property>
  </entry>
  <entry producer="producer755" in="01:05:08.217" out="01:05:08.900">
   <property name="kdenlive:id">681</property>
  </entry>
  <entry producer="producer755" in="01:05:10.750" out="01:05:14.050">
   <property name="kdenlive:id">681</property>
  </entry>
  <entry producer="producer755" in="01:05:19.350" out="01:05:22.000">
   <property name="kdenlive:id">681</property>
  </entry>
  <entry producer="producer755" in="01:05:25.750" out="01:05:28.100">
   <property name="kdenlive:id">681</property>
  </entry>
  <entry producer="producer755" in="01:05:28.117" out="01:05:28.850">
   <property name="kdenlive:id">681</property>
  </entry>
  <entry producer="producer755" in="01:05:28.867" out="01:05:29.900">
   <property name="kdenlive:id">681</property>
  </entry>
  <entry producer="producer755" in="01:07:32.300" out="01:07:33.767">
   <property name="kdenlive:id">681</property>
  </entry>
  <entry producer="producer755" in="01:07:37.183" out="01:07:40.583">
   <property name="kdenlive:id">681</property>
  </entry>
  <entry producer="producer755" in="01:07:44.867" out="01:07:47.117">
   <property name="kdenlive:id">681</property>
   <filter id="filter369">
    <property name="window">75</property>
    <property name="max_gain">20dB</property>
    <property name="level">00:28:08.517=5</property>
    <property name="mlt_service">volume</property>
    <property name="kdenlive_id">+5db</property>
    <property name="kdenlive:collapsed">0</property>
   </filter>
  </entry>
  <entry producer="producer755" in="01:07:47.133" out="01:07:47.867">
   <property name="kdenlive:id">681</property>
   <filter id="filter370">
    <property name="window">75</property>
    <property name="max_gain">20dB</property>
    <property name="level">01:07:47.133=5</property>
    <property name="mlt_service">volume</property>
    <property name="kdenlive_id">+5db</property>
    <property name="kdenlive:collapsed">0</property>
   </filter>
   <filter id="filter371">
    <property name="window">75</property>
    <property name="max_gain">20dB</property>
    <property name="level">00:28:08.517=5</property>
    <property name="mlt_service">volume</property>
    <property name="kdenlive_id">+5db</property>
    <property name="kdenlive:collapsed">0</property>
   </filter>
  </entry>
  <entry producer="producer755" in="01:07:57.867" out="01:07:58.167">
   <property name="kdenlive:id">681</property>
  </entry>
  <entry producer="producer755" in="01:07:58.533" out="01:07:59.100">
   <property name="kdenlive:id">681</property>
  </entry>
  <entry producer="producer755" in="01:07:59.683" out="01:08:01.117">
   <property name="kdenlive:id">681</property>
  </entry>
  <entry producer="producer755" in="01:10:42.450" out="01:10:43.750">
   <property name="kdenlive:id">681</property>
   <filter id="filter372">
    <property name="window">75</property>
    <property name="max_gain">20dB</property>
    <property name="level">00:28:08.517=5</property>
    <property name="mlt_service">volume</property>
    <property name="kdenlive_id">+5db</property>
    <property name="kdenlive:collapsed">0</property>
   </filter>
  </entry>
  <entry producer="producer755" in="01:11:09.883" out="01:11:12.583">
   <property name="kdenlive:id">681</property>
  </entry>
  <entry producer="producer755" in="01:12:28.400" out="01:12:31.533">
   <property name="kdenlive:id">681</property>
  </entry>
  <entry producer="producer755" in="01:12:32.200" out="01:12:34.683">
   <property name="kdenlive:id">681</property>
  </entry>
  <entry producer="producer755" in="01:12:34.700" out="01:12:35.267">
   <property name="kdenlive:id">681</property>
  </entry>
  <entry producer="producer755" in="01:12:35.283" out="01:12:36.950">
   <property name="kdenlive:id">681</property>
  </entry>
  <entry producer="producer755" in="01:14:55.883" out="01:14:58.150">
   <property name="kdenlive:id">681</property>
  </entry>
  <entry producer="producer755" in="01:15:12.650" out="01:15:16.567">
   <property name="kdenlive:id">681</property>
  </entry>
  <entry producer="producer755" in="01:15:16.583" out="01:15:17.283">
   <property name="kdenlive:id">681</property>
   <filter id="filter373">
    <property name="window">75</property>
    <property name="max_gain">20dB</property>
    <property name="level">00:28:08.517=5</property>
    <property name="mlt_service">volume</property>
    <property name="kdenlive_id">+5db</property>
    <property name="kdenlive:collapsed">0</property>
   </filter>
  </entry>
  <entry producer="producer755" in="01:15:17.300" out="01:15:18.783">
   <property name="kdenlive:id">681</property>
  </entry>
  <entry producer="producer755" in="01:21:19.200" out="01:21:19.850">
   <property name="kdenlive:id">681</property>
  </entry>
  <entry producer="producer755" in="01:21:19.867" out="01:21:20.683">
   <property name="kdenlive:id">681</property>
  </entry>
  <entry producer="producer755" in="01:21:21.950" out="01:21:23.967">
   <property name="kdenlive:id">681</property>
   <filter id="filter374">
    <property name="window">75</property>
    <property name="max_gain">20dB</property>
    <property name="level">01:21:21.950=0;01:21:23.967=3</property>
    <property name="mlt_service">volume</property>
    <property name="kdenlive_id">volume</property>
    <property name="kdenlive:collapsed">0</property>
   </filter>
  </entry>
  <blank length="00:00:00.300"/>
  <entry producer="producer755" in="01:22:53.550" out="01:22:54.883">
   <property name="kdenlive:id">681</property>
   <filter id="filter375">
    <property name="window">75</property>
    <property name="max_gain">20dB</property>
    <property name="level">00:00:15.367=-3</property>
    <property name="mlt_service">volume</property>
    <property name="kdenlive_id">-3db</property>
    <property name="kdenlive:collapsed">0</property>
   </filter>
  </entry>
  <entry producer="producer755" in="01:23:21.067" out="01:23:22.567">
   <property name="kdenlive:id">681</property>
   <filter id="filter376">
    <property name="window">75</property>
    <property name="max_gain">20dB</property>
    <property name="level">00:00:15.367=-3</property>
    <property name="mlt_service">volume</property>
    <property name="kdenlive_id">-3db</property>
    <property name="kdenlive:collapsed">0</property>
   </filter>
  </entry>
  <entry producer="producer755" in="01:25:15.117" out="01:25:16.050">
   <property name="kdenlive:id">681</property>
   <filter id="filter377">
    <property name="window">75</property>
    <property name="max_gain">20dB</property>
    <property name="level">00:00:15.367=-3</property>
    <property name="mlt_service">volume</property>
    <property name="kdenlive_id">-3db</property>
    <property name="kdenlive:collapsed">0</property>
   </filter>
  </entry>
  <entry producer="producer755" in="01:25:20.050" out="01:25:21.167">
   <property name="kdenlive:id">681</property>
   <filter id="filter378">
    <property name="window">75</property>
    <property name="max_gain">20dB</property>
    <property name="level">00:00:15.367=-5</property>
    <property name="mlt_service">volume</property>
    <property name="kdenlive_id">-5db</property>
    <property name="kdenlive:collapsed">0</property>
   </filter>
  </entry>
  <entry producer="producer755" in="01:26:07.650" out="01:26:09.033">
   <property name="kdenlive:id">681</property>
   <filter id="filter379">
    <property name="window">75</property>
    <property name="max_gain">20dB</property>
    <property name="level">00:00:15.367=-5</property>
    <property name="mlt_service">volume</property>
    <property name="kdenlive_id">-5db</property>
    <property name="kdenlive:collapsed">0</property>
   </filter>
  </entry>
  <entry producer="producer755" in="01:26:18.633" out="01:26:20.367">
   <property name="kdenlive:id">681</property>
   <filter id="filter380">
    <property name="window">75</property>
    <property name="max_gain">20dB</property>
    <property name="level">00:00:15.367=-3</property>
    <property name="mlt_service">volume</property>
    <property name="kdenlive_id">-3db</property>
    <property name="kdenlive:collapsed">0</property>
   </filter>
  </entry>
  <entry producer="producer755" in="01:27:02.783" out="01:27:03.867">
   <property name="kdenlive:id">681</property>
  </entry>
  <entry producer="producer755" in="01:27:09.767" out="01:27:10.183">
   <property name="kdenlive:id">681</property>
   <filter id="filter381">
    <property name="window">75</property>
    <property name="max_gain">20dB</property>
    <property name="level">00:00:00.000=3</property>
    <property name="mlt_service">volume</property>
    <property name="kdenlive_id">+3db</property>
    <property name="kdenlive:collapsed">0</property>
   </filter>
  </entry>
  <entry producer="producer755" in="01:27:11.867" out="01:27:12.767">
   <property name="kdenlive:id">681</property>
  </entry>
  <entry producer="producer755" in="01:27:12.783" out="01:27:14.133">
   <property name="kdenlive:id">681</property>
  </entry>
  <entry producer="producer755" in="01:27:52.733" out="01:27:54.233">
   <property name="kdenlive:id">681</property>
   <filter id="filter382">
    <property name="window">75</property>
    <property name="max_gain">20dB</property>
    <property name="level">00:00:15.367=-3</property>
    <property name="mlt_service">volume</property>
    <property name="kdenlive_id">-3db</property>
    <property name="kdenlive:collapsed">0</property>
   </filter>
  </entry>
  <entry producer="producer755" in="01:28:07.833" out="01:28:09.300">
   <property name="kdenlive:id">681</property>
  </entry>
  <entry producer="producer755" in="01:28:10.100" out="01:28:11.400">
   <property name="kdenlive:id">681</property>
  </entry>
  <entry producer="producer755" in="01:28:28.867" out="01:28:32.933">
   <property name="kdenlive:id">681</property>
  </entry>
  <blank length="00:00:00.200"/>
  <entry producer="producer755" in="01:32:01.150" out="01:32:02.483">
   <property name="kdenlive:id">681</property>
   <filter id="filter383">
    <property name="window">75</property>
    <property name="max_gain">20dB</property>
    <property name="level">00:00:15.367=-5</property>
    <property name="mlt_service">volume</property>
    <property name="kdenlive_id">-5db</property>
    <property name="kdenlive:collapsed">0</property>
   </filter>
  </entry>
  <entry producer="producer755" in="01:32:09.550" out="01:32:10.450">
   <property name="kdenlive:id">681</property>
   <filter id="filter384">
    <property name="window">75</property>
    <property name="max_gain">20dB</property>
    <property name="level">00:00:23.767=-5</property>
    <property name="mlt_service">volume</property>
    <property name="kdenlive_id">-5db</property>
   </filter>
  </entry>
  <entry producer="producer755" in="01:32:15.200" out="01:32:16.783">
   <property name="kdenlive:id">681</property>
   <filter id="filter385">
    <property name="window">75</property>
    <property name="max_gain">20dB</property>
    <property name="level">00:00:29.417=-5</property>
    <property name="mlt_service">volume</property>
    <property name="kdenlive_id">-5db</property>
   </filter>
  </entry>
  <entry producer="producer755" in="01:32:27.767" out="01:32:29.017">
   <property name="kdenlive:id">681</property>
   <filter id="filter386">
    <property name="window">75</property>
    <property name="max_gain">20dB</property>
    <property name="level">00:00:41.983=-5</property>
    <property name="mlt_service">volume</property>
    <property name="kdenlive_id">-5db</property>
   </filter>
  </entry>
  <blank length="00:00:02.433"/>
  <entry producer="producer755" in="01:32:48.283" out="01:32:50.850">
   <property name="kdenlive:id">681</property>
  </entry>
  <blank length="00:00:00.250"/>
  <entry producer="producer755" in="01:36:55.350" out="01:36:56.883">
   <property name="kdenlive:id">681</property>
   <filter id="filter387">
    <property name="window">75</property>
    <property name="max_gain">20dB</property>
    <property name="level">00:00:15.367=-5</property>
    <property name="mlt_service">volume</property>
    <property name="kdenlive_id">-5db</property>
   </filter>
  </entry>
  <entry producer="producer755" in="01:36:59.750" out="01:37:01.117">
   <property name="kdenlive:id">681</property>
   <filter id="filter388">
    <property name="window">75</property>
    <property name="max_gain">20dB</property>
    <property name="level">00:00:15.367=-5</property>
    <property name="mlt_service">volume</property>
    <property name="kdenlive_id">-5db</property>
   </filter>
  </entry>
  <entry producer="producer755" in="01:37:53.200" out="01:37:54.433">
   <property name="kdenlive:id">681</property>
   <filter id="filter389">
    <property name="window">75</property>
    <property name="max_gain">20dB</property>
    <property name="level">00:00:15.367=-5</property>
    <property name="mlt_service">volume</property>
    <property name="kdenlive_id">-5db</property>
    <property name="kdenlive:collapsed">0</property>
   </filter>
  </entry>
  <entry producer="producer755" in="01:38:14.117" out="01:38:15.717">
   <property name="kdenlive:id">681</property>
   <filter id="filter390">
    <property name="window">75</property>
    <property name="max_gain">20dB</property>
    <property name="level">00:06:28.333=-5</property>
    <property name="mlt_service">volume</property>
    <property name="kdenlive_id">-5db</property>
    <property name="kdenlive:collapsed">0</property>
   </filter>
  </entry>
  <entry producer="producer755" in="01:38:19.517" out="01:38:21.017">
   <property name="kdenlive:id">681</property>
   <filter id="filter391">
    <property name="window">75</property>
    <property name="max_gain">20dB</property>
    <property name="level">00:06:33.733=-5</property>
    <property name="mlt_service">volume</property>
    <property name="kdenlive_id">-5db</property>
    <property name="kdenlive:collapsed">0</property>
   </filter>
  </entry>
  <entry producer="producer755" in="01:38:21.900" out="01:38:23.217">
   <property name="kdenlive:id">681</property>
   <filter id="filter392">
    <property name="window">75</property>
    <property name="max_gain">20dB</property>
    <property name="level">00:06:36.117=-5</property>
    <property name="mlt_service">volume</property>
    <property name="kdenlive_id">-5db</property>
    <property name="kdenlive:collapsed">0</property>
   </filter>
  </entry>
  <entry producer="producer755" in="01:38:28.400" out="01:38:29.450">
   <property name="kdenlive:id">681</property>
   <filter id="filter393">
    <property name="window">75</property>
    <property name="max_gain">20dB</property>
    <property name="level">00:00:15.367=-3</property>
    <property name="mlt_service">volume</property>
    <property name="kdenlive_id">-3db</property>
    <property name="kdenlive:collapsed">0</property>
   </filter>
  </entry>
  <entry producer="producer755" in="01:38:30.467" out="01:38:31.350">
   <property name="kdenlive:id">681</property>
   <filter id="filter394">
    <property name="window">75</property>
    <property name="max_gain">20dB</property>
    <property name="level">00:00:15.367=-5</property>
    <property name="mlt_service">volume</property>
    <property name="kdenlive_id">-5db</property>
    <property name="kdenlive:collapsed">0</property>
   </filter>
  </entry>
  <entry producer="producer755" in="01:38:34.133" out="01:38:35.383">
   <property name="kdenlive:id">681</property>
   <filter id="filter395">
    <property name="window">75</property>
    <property name="max_gain">20dB</property>
    <property name="level">00:00:15.367=-5</property>
    <property name="mlt_service">volume</property>
    <property name="kdenlive_id">-5db</property>
    <property name="kdenlive:collapsed">0</property>
   </filter>
  </entry>
  <entry producer="producer755" in="01:40:27.667" out="01:40:28.983">
   <property name="kdenlive:id">681</property>
   <filter id="filter396">
    <property name="window">75</property>
    <property name="max_gain">20dB</property>
    <property name="level">00:00:15.367=-5</property>
    <property name="mlt_service">volume</property>
    <property name="kdenlive_id">-5db</property>
    <property name="kdenlive:collapsed">0</property>
   </filter>
  </entry>
  <entry producer="producer755" in="01:40:30.383" out="01:40:31.483">
   <property name="kdenlive:id">681</property>
   <filter id="filter397">
    <property name="window">75</property>
    <property name="max_gain">20dB</property>
    <property name="level">00:00:15.367=-5</property>
    <property name="mlt_service">volume</property>
    <property name="kdenlive_id">-5db</property>
    <property name="kdenlive:collapsed">0</property>
   </filter>
  </entry>
  <entry producer="producer755" in="01:40:50.467" out="01:40:52.100">
   <property name="kdenlive:id">681</property>
   <filter id="filter398">
    <property name="window">75</property>
    <property name="max_gain">20dB</property>
    <property name="level">00:00:15.367=-3</property>
    <property name="mlt_service">volume</property>
    <property name="kdenlive_id">-3db</property>
    <property name="kdenlive:collapsed">0</property>
   </filter>
  </entry>
  <entry producer="producer755" in="01:40:53.150" out="01:40:54.600">
   <property name="kdenlive:id">681</property>
   <filter id="filter399">
    <property name="window">75</property>
    <property name="max_gain">20dB</property>
    <property name="level">00:00:15.367=-5</property>
    <property name="mlt_service">volume</property>
    <property name="kdenlive_id">-5db</property>
    <property name="kdenlive:collapsed">0</property>
   </filter>
  </entry>
  <entry producer="producer755" in="01:41:22.700" out="01:41:23.850">
   <property name="kdenlive:id">681</property>
   <filter id="filter400">
    <property name="window">75</property>
    <property name="max_gain">20dB</property>
    <property name="level">00:00:15.367=-3</property>
    <property name="mlt_service">volume</property>
    <property name="kdenlive_id">-3db</property>
    <property name="kdenlive:collapsed">0</property>
   </filter>
  </entry>
  <entry producer="producer755" in="01:41:23.867" out="01:41:24.533">
   <property name="kdenlive:id">681</property>
   <filter id="filter401">
    <property name="window">75</property>
    <property name="max_gain">20dB</property>
    <property name="level">01:41:23.867=-3</property>
    <property name="mlt_service">volume</property>
    <property name="kdenlive_id">-3db</property>
   </filter>
  </entry>
  <entry producer="producer755" in="01:41:42.383" out="01:41:44.783">
   <property name="kdenlive:id">681</property>
   <filter id="filter402">
    <property name="window">75</property>
    <property name="max_gain">20dB</property>
    <property name="level">00:00:15.367=-3</property>
    <property name="mlt_service">volume</property>
    <property name="kdenlive_id">-3db</property>
    <property name="kdenlive:collapsed">0</property>
   </filter>
  </entry>
  <entry producer="producer755" in="01:41:52.850" out="01:41:55.783">
   <property name="kdenlive:id">681</property>
   <filter id="filter403">
    <property name="window">75</property>
    <property name="max_gain">20dB</property>
    <property name="level">00:00:15.367=-5</property>
    <property name="mlt_service">volume</property>
    <property name="kdenlive_id">-5db</property>
    <property name="kdenlive:collapsed">0</property>
   </filter>
  </entry>
  <entry producer="producer755" in="01:42:03.400" out="01:42:04.783">
   <property name="kdenlive:id">681</property>
   <filter id="filter404">
    <property name="window">75</property>
    <property name="max_gain">20dB</property>
    <property name="level">00:00:15.367=-5</property>
    <property name="mlt_service">volume</property>
    <property name="kdenlive_id">-5db</property>
    <property name="kdenlive:collapsed">0</property>
   </filter>
  </entry>
  <entry producer="producer755" in="01:42:10.783" out="01:42:12.650">
   <property name="kdenlive:id">681</property>
   <filter id="filter405">
    <property name="window">75</property>
    <property name="max_gain">20dB</property>
    <property name="level">00:00:15.367=-5</property>
    <property name="mlt_service">volume</property>
    <property name="kdenlive_id">-5db</property>
    <property name="kdenlive:collapsed">0</property>
   </filter>
  </entry>
  <entry producer="producer755" in="01:42:37.183" out="01:42:38.450">
   <property name="kdenlive:id">681</property>
   <filter id="filter406">
    <property name="window">75</property>
    <property name="max_gain">20dB</property>
    <property name="level">00:00:15.367=-3</property>
    <property name="mlt_service">volume</property>
    <property name="kdenlive_id">-3db</property>
    <property name="kdenlive:collapsed">0</property>
   </filter>
  </entry>
  <entry producer="producer755" in="01:42:40.233" out="01:42:41.250">
   <property name="kdenlive:id">681</property>
   <filter id="filter407">
    <property name="window">75</property>
    <property name="max_gain">20dB</property>
    <property name="level">00:00:00.000=-8</property>
    <property name="mlt_service">volume</property>
    <property name="kdenlive_id">-8db</property>
    <property name="kdenlive:collapsed">0</property>
   </filter>
   <filter id="filter408">
    <property name="window">75</property>
    <property name="max_gain">20dB</property>
    <property name="level">00:00:00.000=-8</property>
    <property name="mlt_service">volume</property>
    <property name="kdenlive_id">-8db</property>
    <property name="kdenlive:collapsed">0</property>
   </filter>
  </entry>
  <entry producer="producer755" in="01:43:51.300" out="01:43:53.850">
   <property name="kdenlive:id">681</property>
   <filter id="filter409">
    <property name="window">75</property>
    <property name="max_gain">20dB</property>
    <property name="level">00:00:15.367=-5</property>
    <property name="mlt_service">volume</property>
    <property name="kdenlive_id">-5db</property>
    <property name="kdenlive:collapsed">0</property>
   </filter>
  </entry>
  <entry producer="producer755" in="01:43:53.867" out="01:44:03.250">
   <property name="kdenlive:id">681</property>
   <filter id="filter410">
    <property name="window">75</property>
    <property name="max_gain">20dB</property>
    <property name="level">01:43:53.867=-6;01:43:55.200=-15</property>
    <property name="mlt_service">volume</property>
    <property name="kdenlive_id">volume</property>
    <property name="kdenlive:collapsed">0</property>
   </filter>
  </entry>
  <blank length="00:00:00.233"/>
  <entry producer="producer755" in="01:58:31.383" out="01:58:32.800">
   <property name="kdenlive:id">681</property>
   <filter id="filter411">
    <property name="window">75</property>
    <property name="max_gain">20dB</property>
    <property name="level">01:58:31.383=-5</property>
    <property name="mlt_service">volume</property>
    <property name="kdenlive_id">-5db</property>
   </filter>
  </entry>
  <entry producer="producer755" in="01:59:41.367" out="01:59:44.117">
   <property name="kdenlive:id">681</property>
   <filter id="filter412">
    <property name="window">75</property>
    <property name="max_gain">20dB</property>
    <property name="level">00:00:15.367=-5</property>
    <property name="mlt_service">volume</property>
    <property name="kdenlive_id">-5db</property>
    <property name="kdenlive:collapsed">0</property>
   </filter>
  </entry>
  <entry producer="producer755" in="02:00:43.167" out="02:00:43.817">
   <property name="kdenlive:id">681</property>
   <filter id="filter413">
    <property name="window">75</property>
    <property name="max_gain">20dB</property>
    <property name="level">00:00:15.367=-3</property>
    <property name="mlt_service">volume</property>
    <property name="kdenlive_id">-3db</property>
    <property name="kdenlive:collapsed">0</property>
   </filter>
  </entry>
  <entry producer="producer755" in="02:01:08.750" out="02:01:12.467">
   <property name="kdenlive:id">681</property>
   <filter id="filter414">
    <property name="window">75</property>
    <property name="max_gain">20dB</property>
    <property name="level">00:00:15.367=-3</property>
    <property name="mlt_service">volume</property>
    <property name="kdenlive_id">-3db</property>
    <property name="kdenlive:collapsed">0</property>
   </filter>
  </entry>
  <entry producer="producer755" in="02:01:18.033" out="02:01:19.367">
   <property name="kdenlive:id">681</property>
   <filter id="filter415">
    <property name="window">75</property>
    <property name="max_gain">20dB</property>
    <property name="level">00:00:15.367=-3</property>
    <property name="mlt_service">volume</property>
    <property name="kdenlive_id">-3db</property>
    <property name="kdenlive:collapsed">0</property>
   </filter>
  </entry>
  <blank length="00:00:00.183"/>
  <entry producer="producer755" in="02:01:27.817" out="02:01:29.133">
   <property name="kdenlive:id">681</property>
   <filter id="filter416">
    <property name="window">75</property>
    <property name="max_gain">20dB</property>
    <property name="level">00:28:08.517=5</property>
    <property name="mlt_service">volume</property>
    <property name="kdenlive_id">+5db</property>
    <property name="kdenlive:collapsed">0</property>
   </filter>
   <filter id="filter417">
    <property name="window">75</property>
    <property name="max_gain">20dB</property>
    <property name="level">00:28:08.517=5</property>
    <property name="mlt_service">volume</property>
    <property name="kdenlive_id">+5db</property>
    <property name="kdenlive:collapsed">0</property>
   </filter>
  </entry>
  <entry producer="producer755" in="02:01:29.150" out="02:01:30.383">
   <property name="kdenlive:id">681</property>
  </entry>
  <entry producer="producer755" in="02:01:30.400" out="02:01:30.683">
   <property name="kdenlive:id">681</property>
   <filter id="filter418">
    <property name="window">75</property>
    <property name="max_gain">20dB</property>
    <property name="level">00:00:00.000=10</property>
    <property name="mlt_service">volume</property>
    <property name="kdenlive_id">+10db</property>
    <property name="kdenlive:collapsed">0</property>
   </filter>
  </entry>
  <entry producer="producer756" in="00:34:32.983" out="00:34:35.233">
   <property name="kdenlive:id">682</property>
  </entry>
  <entry producer="producer756" in="00:35:05.717" out="00:35:12.133">
   <property name="kdenlive:id">682</property>
   <filter id="filter419">
    <property name="window">75</property>
    <property name="max_gain">20dB</property>
    <property name="level">00:35:05.717=-3</property>
    <property name="mlt_service">volume</property>
    <property name="kdenlive_id">-3db</property>
    <property name="kdenlive:collapsed">0</property>
   </filter>
  </entry>
  <entry producer="producer756" in="00:39:07.483" out="00:39:08.967">
   <property name="kdenlive:id">682</property>
   <filter id="filter420" in="00:39:07.483" out="00:39:07.550">
    <property name="window">75</property>
    <property name="max_gain">20dB</property>
    <property name="mlt_service">volume</property>
    <property name="kdenlive_id">fadein</property>
    <property name="gain">0</property>
    <property name="end">1</property>
    <property name="kdenlive:collapsed">0</property>
   </filter>
   <filter id="filter421">
    <property name="window">75</property>
    <property name="max_gain">20dB</property>
    <property name="level">00:00:15.367=-3</property>
    <property name="mlt_service">volume</property>
    <property name="kdenlive_id">-3db</property>
    <property name="kdenlive:collapsed">0</property>
   </filter>
  </entry>
  <entry producer="producer756" in="00:40:43.167" out="00:40:43.967">
   <property name="kdenlive:id">682</property>
   <filter id="filter422">
    <property name="window">75</property>
    <property name="max_gain">20dB</property>
    <property name="level">00:28:08.517=5</property>
    <property name="mlt_service">volume</property>
    <property name="kdenlive_id">+5db</property>
    <property name="kdenlive:collapsed">0</property>
   </filter>
  </entry>
  <entry producer="producer756" in="00:40:44.900" out="00:40:45.533">
   <property name="kdenlive:id">682</property>
   <filter id="filter423">
    <property name="window">75</property>
    <property name="max_gain">20dB</property>
    <property name="level">00:28:08.517=5</property>
    <property name="mlt_service">volume</property>
    <property name="kdenlive_id">+5db</property>
    <property name="kdenlive:collapsed">0</property>
   </filter>
   <filter id="filter424">
    <property name="window">75</property>
    <property name="max_gain">20dB</property>
    <property name="level">00:00:15.367=-3</property>
    <property name="mlt_service">volume</property>
    <property name="kdenlive_id">-3db</property>
   </filter>
  </entry>
  <entry producer="producer756" in="00:41:10.767" out="00:41:13.283">
   <property name="kdenlive:id">682</property>
   <filter id="filter425">
    <property name="window">75</property>
    <property name="max_gain">20dB</property>
    <property name="level">00:00:00.900=-3</property>
    <property name="mlt_service">volume</property>
    <property name="kdenlive_id">-3db</property>
   </filter>
  </entry>
  <entry producer="producer756" in="00:41:23.000" out="00:41:24.500">
   <property name="kdenlive:id">682</property>
   <filter id="filter426">
    <property name="window">75</property>
    <property name="max_gain">20dB</property>
    <property name="level">00:00:13.133=-3</property>
    <property name="mlt_service">volume</property>
    <property name="kdenlive_id">-3db</property>
   </filter>
  </entry>
  <entry producer="producer756" in="00:41:25.233" out="00:41:27.833">
   <property name="kdenlive:id">682</property>
   <filter id="filter427">
    <property name="window">75</property>
    <property name="max_gain">20dB</property>
    <property name="level">00:00:15.367=-3</property>
    <property name="mlt_service">volume</property>
    <property name="kdenlive_id">-3db</property>
    <property name="kdenlive:collapsed">0</property>
   </filter>
  </entry>
  <entry producer="producer756" in="00:44:14.333" out="00:44:19.567">
   <property name="kdenlive:id">682</property>
   <filter id="filter428">
    <property name="window">75</property>
    <property name="max_gain">20dB</property>
    <property name="level">00:03:04.467=-3</property>
    <property name="mlt_service">volume</property>
    <property name="kdenlive_id">-3db</property>
   </filter>
  </entry>
  <entry producer="producer756" in="00:44:19.583" out="00:44:20.400">
   <property name="kdenlive:id">682</property>
  </entry>
  <entry producer="producer756" in="00:45:58.250" out="00:46:00.617">
   <property name="kdenlive:id">682</property>
  </entry>
  <entry producer="producer756" in="00:46:16.283" out="00:46:17.783">
   <property name="kdenlive:id">682</property>
  </entry>
  <entry producer="producer756" in="00:46:19.933" out="00:46:20.733">
   <property name="kdenlive:id">682</property>
  </entry>
  <entry producer="producer756" in="00:46:21.417" out="00:46:22.800">
   <property name="kdenlive:id">682</property>
  </entry>
  <entry producer="producer756" in="00:47:36.600" out="00:47:38.133">
   <property name="kdenlive:id">682</property>
   <filter id="filter429">
    <property name="window">75</property>
    <property name="max_gain">20dB</property>
    <property name="level">00:06:26.733=-3</property>
    <property name="mlt_service">volume</property>
    <property name="kdenlive_id">-3db</property>
   </filter>
  </entry>
  <entry producer="producer756" in="00:47:45.833" out="00:47:48.133">
   <property name="kdenlive:id">682</property>
   <filter id="filter430">
    <property name="window">75</property>
    <property name="max_gain">20dB</property>
    <property name="level">00:00:15.367=-3</property>
    <property name="mlt_service">volume</property>
    <property name="kdenlive_id">-3db</property>
    <property name="kdenlive:collapsed">0</property>
   </filter>
  </entry>
  <entry producer="producer756" in="00:48:48.600" out="00:48:50.150">
   <property name="kdenlive:id">682</property>
   <filter id="filter431">
    <property name="window">75</property>
    <property name="max_gain">20dB</property>
    <property name="level">00:00:15.367=-3</property>
    <property name="mlt_service">volume</property>
    <property name="kdenlive_id">-3db</property>
    <property name="kdenlive:collapsed">0</property>
   </filter>
  </entry>
  <entry producer="producer756" in="00:49:19.900" out="00:49:21.800">
   <property name="kdenlive:id">682</property>
   <filter id="filter432">
    <property name="window">75</property>
    <property name="max_gain">20dB</property>
    <property name="level">00:00:15.367=-3</property>
    <property name="mlt_service">volume</property>
    <property name="kdenlive_id">-3db</property>
    <property name="kdenlive:collapsed">0</property>
   </filter>
  </entry>
  <entry producer="producer756" in="00:51:45.583" out="00:51:46.817">
   <property name="kdenlive:id">682</property>
   <filter id="filter433">
    <property name="window">75</property>
    <property name="max_gain">20dB</property>
    <property name="level">00:02:41.050=-3</property>
    <property name="mlt_service">volume</property>
    <property name="kdenlive_id">-3db</property>
   </filter>
  </entry>
  <entry producer="producer756" in="00:51:50.550" out="00:51:53.250">
   <property name="kdenlive:id">682</property>
   <filter id="filter434">
    <property name="window">75</property>
    <property name="max_gain">20dB</property>
    <property name="level">00:02:46.017=-3</property>
    <property name="mlt_service">volume</property>
    <property name="kdenlive_id">-3db</property>
   </filter>
  </entry>
  <entry producer="producer756" in="00:52:19.817" out="00:52:21.750">
   <property name="kdenlive:id">682</property>
   <filter id="filter435">
    <property name="window">75</property>
    <property name="max_gain">20dB</property>
    <property name="level">00:03:15.283=-3</property>
    <property name="mlt_service">volume</property>
    <property name="kdenlive_id">-3db</property>
   </filter>
  </entry>
  <entry producer="producer756" in="00:52:21.767" out="00:52:22.167">
   <property name="kdenlive:id">682</property>
   <filter id="filter436">
    <property name="window">75</property>
    <property name="max_gain">20dB</property>
    <property name="level">00:03:17.233=-3</property>
    <property name="mlt_service">volume</property>
    <property name="kdenlive_id">-3db</property>
   </filter>
  </entry>
  <entry producer="producer756" in="00:54:24.517" out="00:54:25.133">
   <property name="kdenlive:id">682</property>
   <filter id="filter437">
    <property name="window">75</property>
    <property name="max_gain">20dB</property>
    <property name="level">00:05:19.983=-3</property>
    <property name="mlt_service">volume</property>
    <property name="kdenlive_id">-3db</property>
   </filter>
  </entry>
  <entry producer="producer756" in="00:54:27.433" out="00:54:28.717">
   <property name="kdenlive:id">682</property>
   <filter id="filter438">
    <property name="window">75</property>
    <property name="max_gain">20dB</property>
    <property name="level">00:05:22.900=-3</property>
    <property name="mlt_service">volume</property>
    <property name="kdenlive_id">-3db</property>
    <property name="kdenlive:collapsed">0</property>
   </filter>
  </entry>
  <entry producer="producer756" in="00:54:28.733" out="00:54:30.117">
   <property name="kdenlive:id">682</property>
   <filter id="filter439">
    <property name="window">75</property>
    <property name="max_gain">20dB</property>
    <property name="level">00:54:28.733=-3;00:54:29.533=-10</property>
    <property name="mlt_service">volume</property>
    <property name="kdenlive_id">-3db</property>
    <property name="kdenlive:collapsed">0</property>
   </filter>
  </entry>
  <entry producer="producer756" in="00:55:16.050" out="00:55:19.283">
   <property name="kdenlive:id">682</property>
   <filter id="filter440">
    <property name="window">75</property>
    <property name="max_gain">20dB</property>
    <property name="level">00:55:16.050=-3</property>
    <property name="mlt_service">volume</property>
    <property name="kdenlive_id">-3db</property>
    <property name="kdenlive:collapsed">0</property>
   </filter>
  </entry>
  <entry producer="producer756" in="01:02:26.533" out="01:02:27.650">
   <property name="kdenlive:id">682</property>
  </entry>
  <entry producer="producer756" in="01:02:30.850" out="01:02:31.600">
   <property name="kdenlive:id">682</property>
  </entry>
  <entry producer="producer756" in="01:02:37.750" out="01:02:39.317">
   <property name="kdenlive:id">682</property>
  </entry>
  <entry producer="producer756" in="01:02:39.333" out="01:02:42.167">
   <property name="kdenlive:id">682</property>
  </entry>
  <entry producer="producer756" in="01:02:52.183" out="01:02:53.667">
   <property name="kdenlive:id">682</property>
   <filter id="filter441">
    <property name="window">75</property>
    <property name="max_gain">20dB</property>
    <property name="level">00:28:08.517=5</property>
    <property name="mlt_service">volume</property>
    <property name="kdenlive_id">+5db</property>
    <property name="kdenlive:collapsed">0</property>
   </filter>
  </entry>
  <entry producer="producer756" in="01:03:14.567" out="01:03:15.867">
   <property name="kdenlive:id">682</property>
   <filter id="filter442">
    <property name="window">75</property>
    <property name="max_gain">20dB</property>
    <property name="level">00:00:15.367=-3</property>
    <property name="mlt_service">volume</property>
    <property name="kdenlive_id">-3db</property>
    <property name="kdenlive:collapsed">0</property>
   </filter>
  </entry>
  <entry producer="producer756" in="01:04:52.483" out="01:04:55.100">
   <property name="kdenlive:id">682</property>
  </entry>
  <entry producer="producer756" in="01:04:55.883" out="01:04:56.250">
   <property name="kdenlive:id">682</property>
  </entry>
  <entry producer="producer756" in="01:04:57.583" out="01:04:58.283">
   <property name="kdenlive:id">682</property>
  </entry>
  <entry producer="producer756" in="01:09:18.150" out="01:09:23.983">
   <property name="kdenlive:id">682</property>
  </entry>
  <entry producer="producer756" in="01:09:24.000" out="01:09:24.783">
   <property name="kdenlive:id">682</property>
  </entry>
  <entry producer="producer756" in="01:11:53.167" out="01:11:56.067">
   <property name="kdenlive:id">682</property>
  </entry>
  <entry producer="producer756" in="01:12:15.717" out="01:12:17.867">
   <property name="kdenlive:id">682</property>
   <filter id="filter443">
    <property name="window">75</property>
    <property name="max_gain">20dB</property>
    <property name="level">00:00:15.367=-3</property>
    <property name="mlt_service">volume</property>
    <property name="kdenlive_id">-3db</property>
    <property name="kdenlive:collapsed">0</property>
   </filter>
  </entry>
  <entry producer="producer756" in="01:12:33.017" out="01:12:36.867">
   <property name="kdenlive:id">682</property>
   <filter id="filter444">
    <property name="window">75</property>
    <property name="max_gain">20dB</property>
    <property name="level">00:00:15.367=-5</property>
    <property name="mlt_service">volume</property>
    <property name="kdenlive_id">-5db</property>
    <property name="kdenlive:collapsed">0</property>
   </filter>
  </entry>
  <entry producer="producer756" in="01:12:36.883" out="01:12:37.450">
   <property name="kdenlive:id">682</property>
   <filter id="filter445">
    <property name="window">75</property>
    <property name="max_gain">20dB</property>
    <property name="level">01:12:36.883=-5</property>
    <property name="mlt_service">volume</property>
    <property name="kdenlive_id">-5db</property>
   </filter>
  </entry>
  <entry producer="producer756" in="01:13:24.650" out="01:13:26.183">
   <property name="kdenlive:id">682</property>
   <filter id="filter446">
    <property name="window">75</property>
    <property name="max_gain">20dB</property>
    <property name="level">00:01:07.000=-5</property>
    <property name="mlt_service">volume</property>
    <property name="kdenlive_id">-5db</property>
   </filter>
  </entry>
  <entry producer="producer756" in="01:13:26.200" out="01:13:27.017">
   <property name="kdenlive:id">682</property>
   <filter id="filter447">
    <property name="window">75</property>
    <property name="max_gain">20dB</property>
    <property name="level">01:13:26.200=-5</property>
    <property name="mlt_service">volume</property>
    <property name="kdenlive_id">-5db</property>
   </filter>
  </entry>
  <entry producer="producer756" in="01:13:28.000" out="01:13:28.717">
   <property name="kdenlive:id">682</property>
   <filter id="filter448">
    <property name="window">75</property>
    <property name="max_gain">20dB</property>
    <property name="level">00:01:10.350=-5</property>
    <property name="mlt_service">volume</property>
    <property name="kdenlive_id">-5db</property>
   </filter>
  </entry>
  <entry producer="producer756" in="01:13:28.733" out="01:13:30.267">
   <property name="kdenlive:id">682</property>
   <filter id="filter449">
    <property name="window">75</property>
    <property name="max_gain">20dB</property>
    <property name="level">00:01:11.083=-5</property>
    <property name="mlt_service">volume</property>
    <property name="kdenlive_id">-5db</property>
   </filter>
  </entry>
  <entry producer="producer756" in="01:13:31.183" out="01:13:32.917">
   <property name="kdenlive:id">682</property>
   <filter id="filter450">
    <property name="window">75</property>
    <property name="max_gain">20dB</property>
    <property name="level">00:01:13.533=-5</property>
    <property name="mlt_service">volume</property>
    <property name="kdenlive_id">-5db</property>
   </filter>
  </entry>
  <entry producer="producer756" in="01:13:41.783" out="01:13:43.200">
   <property name="kdenlive:id">682</property>
   <filter id="filter451">
    <property name="window">75</property>
    <property name="max_gain">20dB</property>
    <property name="level">00:01:24.133=-5</property>
    <property name="mlt_service">volume</property>
    <property name="kdenlive_id">-5db</property>
   </filter>
  </entry>
  <entry producer="producer756" in="01:13:43.217" out="01:13:44.133">
   <property name="kdenlive:id">682</property>
   <filter id="filter452">
    <property name="window">75</property>
    <property name="max_gain">20dB</property>
    <property name="level">01:13:43.217=-5</property>
    <property name="mlt_service">volume</property>
    <property name="kdenlive_id">-5db</property>
   </filter>
  </entry>
  <entry producer="producer756" in="01:14:46.533" out="01:14:48.233">
   <property name="kdenlive:id">682</property>
   <filter id="filter453">
    <property name="window">75</property>
    <property name="max_gain">20dB</property>
    <property name="level">00:02:28.883=-5</property>
    <property name="mlt_service">volume</property>
    <property name="kdenlive_id">-5db</property>
    <property name="kdenlive:collapsed">0</property>
   </filter>
  </entry>
  <blank length="00:00:00.367"/>
  <entry producer="producer756" in="01:15:52.550" out="01:15:55.183">
   <property name="kdenlive:id">682</property>
   <filter id="filter454">
    <property name="window">75</property>
    <property name="max_gain">20dB</property>
    <property name="level">00:03:34.900=-5</property>
    <property name="mlt_service">volume</property>
    <property name="kdenlive_id">-5db</property>
   </filter>
  </entry>
  <entry producer="producer756" in="01:16:07.700" out="01:16:10.367">
   <property name="kdenlive:id">682</property>
   <filter id="filter455">
    <property name="window">75</property>
    <property name="max_gain">20dB</property>
    <property name="level">00:03:50.050=-5</property>
    <property name="mlt_service">volume</property>
    <property name="kdenlive_id">-5db</property>
   </filter>
  </entry>
  <entry producer="producer756" in="01:16:17.883" out="01:16:18.867">
   <property name="kdenlive:id">682</property>
   <filter id="filter456">
    <property name="window">75</property>
    <property name="max_gain">20dB</property>
    <property name="level">00:00:15.367=-3</property>
    <property name="mlt_service">volume</property>
    <property name="kdenlive_id">-3db</property>
    <property name="kdenlive:collapsed">0</property>
   </filter>
  </entry>
  <entry producer="producer756" in="01:16:19.550" out="01:16:22.600">
   <property name="kdenlive:id">682</property>
   <filter id="filter457">
    <property name="window">75</property>
    <property name="max_gain">20dB</property>
    <property name="level">00:00:15.367=-3</property>
    <property name="mlt_service">volume</property>
    <property name="kdenlive_id">-3db</property>
    <property name="kdenlive:collapsed">0</property>
   </filter>
  </entry>
  <entry producer="producer756" in="01:17:50.033" out="01:17:50.983">
   <property name="kdenlive:id">682</property>
   <filter id="filter458">
    <property name="window">75</property>
    <property name="max_gain">20dB</property>
    <property name="level">00:00:15.367=-3</property>
    <property name="mlt_service">volume</property>
    <property name="kdenlive_id">-3db</property>
    <property name="kdenlive:collapsed">0</property>
   </filter>
  </entry>
  <entry producer="producer756" in="01:17:52.117" out="01:17:52.967">
   <property name="kdenlive:id">682</property>
   <filter id="filter459">
    <property name="window">75</property>
    <property name="max_gain">20dB</property>
    <property name="level">00:00:15.367=-3</property>
    <property name="mlt_service">volume</property>
    <property name="kdenlive_id">-3db</property>
    <property name="kdenlive:collapsed">0</property>
   </filter>
  </entry>
  <entry producer="producer756" in="01:17:54.917" out="01:17:55.733">
   <property name="kdenlive:id">682</property>
   <filter id="filter460">
    <property name="window">75</property>
    <property name="max_gain">20dB</property>
    <property name="level">00:00:15.367=-3</property>
    <property name="mlt_service">volume</property>
    <property name="kdenlive_id">-3db</property>
    <property name="kdenlive:collapsed">0</property>
   </filter>
  </entry>
  <entry producer="producer756" in="01:20:13.300" out="01:20:19.550">
   <property name="kdenlive:id">682</property>
  </entry>
  <entry producer="producer756" in="01:25:59.900" out="01:26:04.300">
   <property name="kdenlive:id">682</property>
  </entry>
  <entry producer="producer756" in="01:26:33.200" out="01:26:33.967">
   <property name="kdenlive:id">682</property>
  </entry>
  <entry producer="producer756" in="01:28:21.367" out="01:28:22.850">
   <property name="kdenlive:id">682</property>
  </entry>
  <entry producer="producer756" in="01:29:45.867" out="01:29:48.817">
   <property name="kdenlive:id">682</property>
  </entry>
  <entry producer="producer756" in="01:29:50.050" out="01:29:51.233">
   <property name="kdenlive:id">682</property>
  </entry>
  <entry producer="producer756" in="01:30:03.783" out="01:30:06.550">
   <property name="kdenlive:id">682</property>
  </entry>
  <entry producer="producer756" in="01:30:14.433" out="01:30:15.500">
   <property name="kdenlive:id">682</property>
  </entry>
  <entry producer="producer756" in="01:30:15.517" out="01:30:17.083">
   <property name="kdenlive:id">682</property>
  </entry>
  <entry producer="producer756" in="01:30:17.100" out="01:30:18.350">
   <property name="kdenlive:id">682</property>
  </entry>
  <entry producer="producer756" in="01:31:50.050" out="01:31:51.283">
   <property name="kdenlive:id">682</property>
  </entry>
  <entry producer="producer756" in="01:31:54.617" out="01:31:58.550">
   <property name="kdenlive:id">682</property>
  </entry>
  <entry producer="producer756" in="01:32:07.033" out="01:32:10.033">
   <property name="kdenlive:id">682</property>
   <filter id="filter461">
    <property name="window">75</property>
    <property name="max_gain">20dB</property>
    <property name="level">00:00:15.367=-3</property>
    <property name="mlt_service">volume</property>
    <property name="kdenlive_id">-3db</property>
    <property name="kdenlive:collapsed">0</property>
   </filter>
  </entry>
  <entry producer="producer756" in="01:41:15.433" out="01:41:16.600">
   <property name="kdenlive:id">682</property>
  </entry>
  <entry producer="producer756" in="01:41:22.300" out="01:41:23.633">
   <property name="kdenlive:id">682</property>
   <filter id="filter462">
    <property name="window">75</property>
    <property name="max_gain">20dB</property>
    <property name="level">00:00:15.367=-3</property>
    <property name="mlt_service">volume</property>
    <property name="kdenlive_id">-3db</property>
    <property name="kdenlive:collapsed">0</property>
   </filter>
  </entry>
  <entry producer="producer756" in="01:41:26.917" out="01:41:27.817">
   <property name="kdenlive:id">682</property>
   <filter id="filter463">
    <property name="window">75</property>
    <property name="max_gain">20dB</property>
    <property name="level">00:00:00.000=3</property>
    <property name="mlt_service">volume</property>
    <property name="kdenlive_id">+3db</property>
    <property name="kdenlive:collapsed">0</property>
   </filter>
  </entry>
  <blank length="00:00:00.433"/>
  <entry producer="producer756" in="01:41:33.600" out="01:41:38.233">
   <property name="kdenlive:id">682</property>
   <filter id="filter464">
    <property name="window">75</property>
    <property name="max_gain">20dB</property>
    <property name="level">00:00:15.367=-3</property>
    <property name="mlt_service">volume</property>
    <property name="kdenlive_id">-3db</property>
   </filter>
  </entry>
  <entry producer="producer756" in="01:43:02.717" out="01:43:05.750">
   <property name="kdenlive:id">682</property>
   <filter id="filter465">
    <property name="window">75</property>
    <property name="max_gain">20dB</property>
    <property name="level">00:00:15.367=-3</property>
    <property name="mlt_service">volume</property>
    <property name="kdenlive_id">-3db</property>
    <property name="kdenlive:collapsed">0</property>
   </filter>
  </entry>
  <entry producer="producer756" in="01:43:08.083" out="01:43:08.833">
   <property name="kdenlive:id">682</property>
   <filter id="filter466">
    <property name="window">75</property>
    <property name="max_gain">20dB</property>
    <property name="level">00:00:20.733=-3</property>
    <property name="mlt_service">volume</property>
    <property name="kdenlive_id">-3db</property>
   </filter>
  </entry>
  <entry producer="producer756" in="01:43:09.083" out="01:43:10.433">
   <property name="kdenlive:id">682</property>
   <filter id="filter467">
    <property name="window">75</property>
    <property name="max_gain">20dB</property>
    <property name="level">00:00:21.733=-3</property>
    <property name="mlt_service">volume</property>
    <property name="kdenlive_id">-3db</property>
   </filter>
  </entry>
  <entry producer="producer756" in="01:43:10.450" out="01:43:11.017">
   <property name="kdenlive:id">682</property>
   <filter id="filter468">
    <property name="window">75</property>
    <property name="max_gain">20dB</property>
    <property name="level">01:43:10.450=-3</property>
    <property name="mlt_service">volume</property>
    <property name="kdenlive_id">-3db</property>
   </filter>
  </entry>
  <entry producer="producer756" in="01:45:10.150" out="01:45:12.100">
   <property name="kdenlive:id">682</property>
   <filter id="filter469">
    <property name="window">75</property>
    <property name="max_gain">20dB</property>
    <property name="level">00:02:22.800=-3</property>
    <property name="mlt_service">volume</property>
    <property name="kdenlive_id">-3db</property>
   </filter>
  </entry>
  <entry producer="producer756" in="01:45:23.050" out="01:45:24.583">
   <property name="kdenlive:id">682</property>
   <filter id="filter470">
    <property name="window">75</property>
    <property name="max_gain">20dB</property>
    <property name="level">01:45:23.050=-3;01:45:24.583=-7.84211</property>
    <property name="mlt_service">volume</property>
    <property name="kdenlive_id">volume</property>
    <property name="kdenlive:collapsed">0</property>
   </filter>
  </entry>
  <entry producer="producer756" in="01:45:57.750" out="01:46:00.583">
   <property name="kdenlive:id">682</property>
   <filter id="filter471">
    <property name="window">75</property>
    <property name="max_gain">20dB</property>
    <property name="level">00:00:15.367=-3</property>
    <property name="mlt_service">volume</property>
    <property name="kdenlive_id">-3db</property>
    <property name="kdenlive:collapsed">0</property>
   </filter>
  </entry>
  <entry producer="producer756" in="01:46:17.433" out="01:46:21.083">
   <property name="kdenlive:id">682</property>
   <filter id="filter472">
    <property name="window">75</property>
    <property name="max_gain">20dB</property>
    <property name="level">00:00:15.367=-3</property>
    <property name="mlt_service">volume</property>
    <property name="kdenlive_id">-3db</property>
    <property name="kdenlive:collapsed">0</property>
   </filter>
   <filter id="filter473" in="01:46:20.967" out="01:46:21.083">
    <property name="window">75</property>
    <property name="max_gain">20dB</property>
    <property name="mlt_service">volume</property>
    <property name="kdenlive_id">fadeout</property>
    <property name="gain">1</property>
    <property name="end">0</property>
   </filter>
  </entry>
  <entry producer="producer756" in="01:46:28.900" out="01:46:31.850">
   <property name="kdenlive:id">682</property>
   <filter id="filter474">
    <property name="window">75</property>
    <property name="max_gain">20dB</property>
    <property name="level">00:00:15.367=-3</property>
    <property name="mlt_service">volume</property>
    <property name="kdenlive_id">-3db</property>
    <property name="kdenlive:collapsed">0</property>
   </filter>
  </entry>
  <entry producer="producer756" in="02:00:58.717" out="02:01:00.117">
   <property name="kdenlive:id">682</property>
   <filter id="filter475">
    <property name="window">75</property>
    <property name="max_gain">20dB</property>
    <property name="level">00:00:15.367=-3</property>
    <property name="mlt_service">volume</property>
    <property name="kdenlive_id">-3db</property>
    <property name="kdenlive:collapsed">0</property>
   </filter>
  </entry>
  <entry producer="producer756" in="02:01:01.667" out="02:01:02.850">
   <property name="kdenlive:id">682</property>
   <filter id="filter476">
    <property name="window">75</property>
    <property name="max_gain">20dB</property>
    <property name="level">02:01:01.667=-3</property>
    <property name="mlt_service">volume</property>
    <property name="kdenlive_id">-3db</property>
    <property name="kdenlive:collapsed">0</property>
   </filter>
  </entry>
  <entry producer="producer756" in="02:01:02.867" out="02:01:05.000">
   <property name="kdenlive:id">682</property>
   <filter id="filter477">
    <property name="window">75</property>
    <property name="max_gain">20dB</property>
    <property name="level">02:01:02.867=-3</property>
    <property name="mlt_service">volume</property>
    <property name="kdenlive_id">-3db</property>
   </filter>
  </entry>
  <blank length="00:00:00.250"/>
  <entry producer="producer756" in="02:01:39.750" out="02:01:41.167">
   <property name="kdenlive:id">682</property>
   <filter id="filter478">
    <property name="window">75</property>
    <property name="max_gain">20dB</property>
    <property name="level">00:00:15.367=-3</property>
    <property name="mlt_service">volume</property>
    <property name="kdenlive_id">-3db</property>
    <property name="kdenlive:collapsed">0</property>
   </filter>
  </entry>
  <entry producer="producer756" in="02:02:15.450" out="02:02:17.800">
   <property name="kdenlive:id">682</property>
   <filter id="filter479">
    <property name="window">75</property>
    <property name="max_gain">20dB</property>
    <property name="level">00:00:22.783=-3</property>
    <property name="mlt_service">volume</property>
    <property name="kdenlive_id">-3db</property>
   </filter>
  </entry>
  <entry producer="producer756" in="02:02:22.967" out="02:02:25.550">
   <property name="kdenlive:id">682</property>
   <filter id="filter480">
    <property name="window">75</property>
    <property name="max_gain">20dB</property>
    <property name="level">00:00:30.300=-3</property>
    <property name="mlt_service">volume</property>
    <property name="kdenlive_id">-3db</property>
   </filter>
  </entry>
  <entry producer="producer756" in="02:05:27.650" out="02:05:29.050">
   <property name="kdenlive:id">682</property>
   <filter id="filter481">
    <property name="window">75</property>
    <property name="max_gain">20dB</property>
    <property name="level">00:00:00.000=3</property>
    <property name="mlt_service">volume</property>
    <property name="kdenlive_id">+3db</property>
    <property name="kdenlive:collapsed">0</property>
   </filter>
  </entry>
  <blank length="00:00:01.367"/>
  <entry producer="producer756" in="02:07:23.050" out="02:07:23.733">
   <property name="kdenlive:id">682</property>
   <filter id="filter482">
    <property name="window">75</property>
    <property name="max_gain">20dB</property>
    <property name="level">00:05:30.383=-3</property>
    <property name="mlt_service">volume</property>
    <property name="kdenlive_id">-3db</property>
   </filter>
  </entry>
  <entry producer="producer756" in="02:07:31.983" out="02:07:32.950">
   <property name="kdenlive:id">682</property>
   <filter id="filter483">
    <property name="window">75</property>
    <property name="max_gain">20dB</property>
    <property name="level">00:05:39.317=-3</property>
    <property name="mlt_service">volume</property>
    <property name="kdenlive_id">-3db</property>
    <property name="kdenlive:collapsed">0</property>
   </filter>
  </entry>
  <entry producer="producer756" in="02:08:43.633" out="02:08:45.267">
   <property name="kdenlive:id">682</property>
   <filter id="filter484">
    <property name="window">75</property>
    <property name="max_gain">20dB</property>
    <property name="level">00:06:50.967=-3</property>
    <property name="mlt_service">volume</property>
    <property name="kdenlive_id">-3db</property>
   </filter>
  </entry>
  <blank length="00:00:01.717"/>
  <entry producer="producer756" in="02:08:46.700" out="02:08:47.117">
   <property name="kdenlive:id">682</property>
   <filter id="filter485">
    <property name="window">75</property>
    <property name="max_gain">20dB</property>
    <property name="level">00:06:54.033=-3</property>
    <property name="mlt_service">volume</property>
    <property name="kdenlive_id">-3db</property>
   </filter>
  </entry>
  <entry producer="producer756" in="02:08:47.283" out="02:08:48.667">
   <property name="kdenlive:id">682</property>
   <filter id="filter486">
    <property name="window">75</property>
    <property name="max_gain">20dB</property>
    <property name="level">00:06:54.617=-3</property>
    <property name="mlt_service">volume</property>
    <property name="kdenlive_id">-3db</property>
   </filter>
  </entry>
  <entry producer="producer756" in="02:10:43.317" out="02:10:44.283">
   <property name="kdenlive:id">682</property>
   <filter id="filter487">
    <property name="window">75</property>
    <property name="max_gain">20dB</property>
    <property name="level">00:08:50.650=-3</property>
    <property name="mlt_service">volume</property>
    <property name="kdenlive_id">-3db</property>
   </filter>
  </entry>
  <entry producer="producer756" in="02:11:05.667" out="02:11:08.417">
   <property name="kdenlive:id">682</property>
   <filter id="filter488">
    <property name="window">75</property>
    <property name="max_gain">20dB</property>
    <property name="level">00:09:13.000=-3</property>
    <property name="mlt_service">volume</property>
    <property name="kdenlive_id">-3db</property>
   </filter>
  </entry>
  <entry producer="producer756" in="02:14:10.583" out="02:14:12.133">
   <property name="kdenlive:id">682</property>
   <filter id="filter489">
    <property name="window">75</property>
    <property name="max_gain">20dB</property>
    <property name="level">00:00:15.367=-3</property>
    <property name="mlt_service">volume</property>
    <property name="kdenlive_id">-3db</property>
    <property name="kdenlive:collapsed">0</property>
   </filter>
  </entry>
  <entry producer="producer756" in="02:14:12.150" out="02:14:13.567">
   <property name="kdenlive:id">682</property>
   <filter id="filter490">
    <property name="window">75</property>
    <property name="max_gain">20dB</property>
    <property name="level">02:14:12.150=-3</property>
    <property name="mlt_service">volume</property>
    <property name="kdenlive_id">-3db</property>
   </filter>
  </entry>
  <entry producer="producer756" in="02:14:58.900" out="02:15:00.900">
   <property name="kdenlive:id">682</property>
   <filter id="filter491">
    <property name="window">75</property>
    <property name="max_gain">20dB</property>
    <property name="level">00:00:15.367=-3</property>
    <property name="mlt_service">volume</property>
    <property name="kdenlive_id">-3db</property>
    <property name="kdenlive:collapsed">0</property>
   </filter>
  </entry>
  <entry producer="producer756" in="02:16:04.100" out="02:16:06.250">
   <property name="kdenlive:id">682</property>
   <filter id="filter492">
    <property name="window">75</property>
    <property name="max_gain">20dB</property>
    <property name="level">00:00:15.367=-3</property>
    <property name="mlt_service">volume</property>
    <property name="kdenlive_id">-3db</property>
    <property name="kdenlive:collapsed">0</property>
   </filter>
  </entry>
  <entry producer="producer756" in="02:16:22.667" out="02:16:25.650">
   <property name="kdenlive:id">682</property>
   <filter id="filter493">
    <property name="window">75</property>
    <property name="max_gain">20dB</property>
    <property name="level">00:00:15.367=-3</property>
    <property name="mlt_service">volume</property>
    <property name="kdenlive_id">-3db</property>
    <property name="kdenlive:collapsed">0</property>
   </filter>
  </entry>
  <entry producer="producer756" in="02:16:25.667" out="02:16:26.300">
   <property name="kdenlive:id">682</property>
   <filter id="filter494">
    <property name="window">75</property>
    <property name="max_gain">20dB</property>
    <property name="level">02:16:25.667=-3</property>
    <property name="mlt_service">volume</property>
    <property name="kdenlive_id">-3db</property>
   </filter>
  </entry>
  <entry producer="producer756" in="02:17:21.283" out="02:17:25.050">
   <property name="kdenlive:id">682</property>
   <filter id="filter495">
    <property name="window">75</property>
    <property name="max_gain">20dB</property>
    <property name="level">02:17:21.283=-5</property>
    <property name="mlt_service">volume</property>
    <property name="kdenlive_id">-5db</property>
   </filter>
  </entry>
  <entry producer="producer756" in="02:18:25.733" out="02:18:26.350">
   <property name="kdenlive:id">682</property>
   <filter id="filter496">
    <property name="window">75</property>
    <property name="max_gain">20dB</property>
    <property name="level">02:18:25.733=-5</property>
    <property name="mlt_service">volume</property>
    <property name="kdenlive_id">-5db</property>
   </filter>
  </entry>
  <entry producer="producer756" in="02:18:41.133" out="02:18:44.400">
   <property name="kdenlive:id">682</property>
   <filter id="filter497">
    <property name="window">75</property>
    <property name="max_gain">20dB</property>
    <property name="level">00:00:15.367=-3</property>
    <property name="mlt_service">volume</property>
    <property name="kdenlive_id">-3db</property>
    <property name="kdenlive:collapsed">0</property>
   </filter>
  </entry>
  <entry producer="producer757" in="00:18:28.117" out="00:18:31.300">
   <property name="kdenlive:id">683</property>
  </entry>
  <entry producer="producer757" in="00:18:35.983" out="00:18:36.917">
   <property name="kdenlive:id">683</property>
  </entry>
  <entry producer="producer757" in="00:19:21.633" out="00:19:22.467">
   <property name="kdenlive:id">683</property>
  </entry>
  <entry producer="producer757" in="00:19:29.117" out="00:19:29.900">
   <property name="kdenlive:id">683</property>
  </entry>
  <entry producer="producer757" in="00:19:33.450" out="00:19:34.100">
   <property name="kdenlive:id">683</property>
  </entry>
  <entry producer="producer757" in="00:19:36.100" out="00:19:36.883">
   <property name="kdenlive:id">683</property>
  </entry>
  <entry producer="producer757" in="00:44:39.767" out="00:44:44.600">
   <property name="kdenlive:id">683</property>
   <filter id="filter498">
    <property name="window">75</property>
    <property name="max_gain">20dB</property>
    <property name="level">00:00:15.367=-3</property>
    <property name="mlt_service">volume</property>
    <property name="kdenlive_id">-3db</property>
    <property name="kdenlive:collapsed">0</property>
   </filter>
  </entry>
  <entry producer="producer757" in="00:44:53.883" out="00:44:56.367">
   <property name="kdenlive:id">683</property>
   <filter id="filter499">
    <property name="window">75</property>
    <property name="max_gain">20dB</property>
    <property name="level">00:00:15.367=-3</property>
    <property name="mlt_service">volume</property>
    <property name="kdenlive_id">-3db</property>
    <property name="kdenlive:collapsed">0</property>
   </filter>
  </entry>
  <entry producer="producer757" in="00:44:56.383" out="00:44:57.233">
   <property name="kdenlive:id">683</property>
   <filter id="filter500">
    <property name="window">75</property>
    <property name="max_gain">20dB</property>
    <property name="level">00:00:15.367=-3</property>
    <property name="mlt_service">volume</property>
    <property name="kdenlive_id">-3db</property>
    <property name="kdenlive:collapsed">0</property>
   </filter>
  </entry>
  <entry producer="producer757" in="00:45:09.750" out="00:45:10.950">
   <property name="kdenlive:id">683</property>
   <filter id="filter501">
    <property name="window">75</property>
    <property name="max_gain">20dB</property>
    <property name="level">00:00:00.000=3</property>
    <property name="mlt_service">volume</property>
    <property name="kdenlive_id">+3db</property>
    <property name="kdenlive:collapsed">0</property>
   </filter>
  </entry>
  <entry producer="producer757" in="00:57:49.033" out="00:57:52.650">
   <property name="kdenlive:id">683</property>
   <filter id="filter502">
    <property name="window">75</property>
    <property name="max_gain">20dB</property>
    <property name="level">00:57:49.033=0;00:57:51.000=7</property>
    <property name="mlt_service">volume</property>
    <property name="kdenlive_id">volume</property>
    <property name="kdenlive:collapsed">0</property>
   </filter>
  </entry>
  <entry producer="producer757" in="00:57:58.867" out="00:58:01.083">
   <property name="kdenlive:id">683</property>
   <filter id="filter503">
    <property name="window">75</property>
    <property name="max_gain">20dB</property>
    <property name="level">00:00:00.000=10</property>
    <property name="mlt_service">volume</property>
    <property name="kdenlive_id">+10db</property>
    <property name="kdenlive:collapsed">0</property>
   </filter>
  </entry>
  <blank length="00:00:00.167"/>
  <entry producer="producer757" in="01:03:57.567" out="01:04:01.417">
   <property name="kdenlive:id">683</property>
  </entry>
  <entry producer="producer757" in="01:08:54.033" out="01:08:56.600">
   <property name="kdenlive:id">683</property>
  </entry>
  <entry producer="producer757" in="01:09:06.583" out="01:09:08.817">
   <property name="kdenlive:id">683</property>
  </entry>
  <entry producer="producer757" in="01:10:27.750" out="01:10:28.567">
   <property name="kdenlive:id">683</property>
  </entry>
  <entry producer="producer757" in="01:16:26.217" out="01:16:27.867">
   <property name="kdenlive:id">683</property>
  </entry>
  <entry producer="producer757" in="01:17:02.133" out="01:17:02.783">
   <property name="kdenlive:id">683</property>
  </entry>
  <entry producer="producer757" in="01:17:03.533" out="01:17:04.167">
   <property name="kdenlive:id">683</property>
  </entry>
  <entry producer="producer757" in="01:17:23.350" out="01:17:25.133">
   <property name="kdenlive:id">683</property>
  </entry>
  <entry producer="producer757" in="01:17:33.800" out="01:17:36.917">
   <property name="kdenlive:id">683</property>
  </entry>
  <entry producer="producer757" in="01:17:37.500" out="01:17:38.967">
   <property name="kdenlive:id">683</property>
  </entry>
  <entry producer="producer757" in="01:19:36.450" out="01:19:42.117">
   <property name="kdenlive:id">683</property>
  </entry>
  <entry producer="producer757" in="01:19:43.600" out="01:19:46.150">
   <property name="kdenlive:id">683</property>
  </entry>
  <entry producer="producer757" in="01:22:59.667" out="01:23:01.017">
   <property name="kdenlive:id">683</property>
  </entry>
  <entry producer="producer757" in="01:23:08.467" out="01:23:09.383">
   <property name="kdenlive:id">683</property>
  </entry>
  <entry producer="producer758" in="00:00:00.617" out="00:00:01.533">
   <property name="kdenlive:id">175</property>
   <filter id="filter504">
    <property name="window">75</property>
    <property name="max_gain">20dB</property>
    <property name="level">00:00:13.900=-5</property>
    <property name="mlt_service">volume</property>
    <property name="kdenlive_id">-5db</property>
    <property name="kdenlive:collapsed">0</property>
   </filter>
  </entry>
  <entry producer="producer757" in="01:23:45.133" out="01:23:45.700">
   <property name="kdenlive:id">683</property>
  </entry>
  <entry producer="producer757" in="01:23:47.333" out="01:23:50.833">
   <property name="kdenlive:id">683</property>
  </entry>
  <entry producer="producer757" in="01:25:19.000" out="01:25:20.883">
   <property name="kdenlive:id">683</property>
  </entry>
  <blank length="00:00:00.400"/>
  <entry producer="producer757" in="01:25:32.033" out="01:25:32.383">
   <property name="kdenlive:id">683</property>
  </entry>
  <entry producer="producer757" in="01:27:33.517" out="01:27:38.000">
   <property name="kdenlive:id">683</property>
  </entry>
  <entry producer="producer757" in="01:29:42.933" out="01:29:44.883">
   <property name="kdenlive:id">683</property>
  </entry>
  <entry producer="producer757" in="01:29:52.650" out="01:29:54.550">
   <property name="kdenlive:id">683</property>
  </entry>
  <entry producer="producer757" in="01:29:54.567" out="01:29:55.283">
   <property name="kdenlive:id">683</property>
  </entry>
  <entry producer="producer757" in="01:29:59.083" out="01:30:00.633">
   <property name="kdenlive:id">683</property>
  </entry>
  <entry producer="producer757" in="01:30:00.650" out="01:30:01.350">
   <property name="kdenlive:id">683</property>
  </entry>
  <entry producer="producer757" in="01:30:01.367" out="01:30:03.767">
   <property name="kdenlive:id">683</property>
  </entry>
  <entry producer="producer757" in="01:36:55.117" out="01:36:55.933">
   <property name="kdenlive:id">683</property>
  </entry>
  <entry producer="producer757" in="01:37:03.017" out="01:37:04.250">
   <property name="kdenlive:id">683</property>
  </entry>
  <entry producer="producer757" in="01:37:08.867" out="01:37:09.833">
   <property name="kdenlive:id">683</property>
  </entry>
  <entry producer="producer757" in="01:37:32.817" out="01:37:34.367">
   <property name="kdenlive:id">683</property>
  </entry>
  <entry producer="producer757" in="01:37:47.983" out="01:37:52.267">
   <property name="kdenlive:id">683</property>
  </entry>
  <entry producer="producer757" in="01:37:53.883" out="01:37:54.833">
   <property name="kdenlive:id">683</property>
  </entry>
  <entry producer="producer757" in="01:38:28.733" out="01:38:29.117">
   <property name="kdenlive:id">683</property>
  </entry>
  <entry producer="producer757" in="01:38:31.283" out="01:38:32.117">
   <property name="kdenlive:id">683</property>
  </entry>
  <entry producer="producer757" in="01:43:59.900" out="01:44:00.900">
   <property name="kdenlive:id">683</property>
  </entry>
  <entry producer="producer757" in="01:44:00.917" out="01:44:01.800">
   <property name="kdenlive:id">683</property>
  </entry>
  <blank length="00:00:00.900"/>
  <entry producer="producer757" in="01:44:12.300" out="01:44:14.533">
   <property name="kdenlive:id">683</property>
  </entry>
  <entry producer="producer757" in="01:44:18.183" out="01:44:19.583">
   <property name="kdenlive:id">683</property>
  </entry>
  <entry producer="producer757" in="01:44:58.067" out="01:44:59.217">
   <property name="kdenlive:id">683</property>
  </entry>
  <entry producer="producer757" in="01:45:26.500" out="01:45:30.033">
   <property name="kdenlive:id">683</property>
  </entry>
  <entry producer="producer757" in="01:45:31.367" out="01:45:32.783">
   <property name="kdenlive:id">683</property>
  </entry>
  <entry producer="producer757" in="01:45:42.367" out="01:45:45.000">
   <property name="kdenlive:id">683</property>
   <filter id="filter505">
    <property name="window">75</property>
    <property name="max_gain">20dB</property>
    <property name="level">00:00:00.000=3</property>
    <property name="mlt_service">volume</property>
    <property name="kdenlive_id">+3db</property>
    <property name="kdenlive:collapsed">0</property>
   </filter>
  </entry>
  <entry producer="producer757" in="01:45:50.083" out="01:45:52.550">
   <property name="kdenlive:id">683</property>
  </entry>
  <entry producer="producer757" in="01:59:39.350" out="01:59:43.267">
   <property name="kdenlive:id">683</property>
  </entry>
  <entry producer="producer757" in="01:59:45.417" out="01:59:46.583">
   <property name="kdenlive:id">683</property>
  </entry>
  <entry producer="producer757" in="01:59:47.083" out="01:59:47.717">
   <property name="kdenlive:id">683</property>
  </entry>
  <blank length="00:00:00.467"/>
  <entry producer="producer757" in="02:01:06.883" out="02:01:10.767">
   <property name="kdenlive:id">683</property>
  </entry>
  <entry producer="producer757" in="02:01:18.867" out="02:01:20.567">
   <property name="kdenlive:id">683</property>
  </entry>
  <entry producer="producer757" in="02:01:22.600" out="02:01:24.100">
   <property name="kdenlive:id">683</property>
  </entry>
  <entry producer="producer757" in="02:04:10.683" out="02:04:12.083">
   <property name="kdenlive:id">683</property>
  </entry>
  <blank length="00:00:00.750"/>
  <entry producer="producer757" in="02:05:28.483" out="02:05:30.667">
   <property name="kdenlive:id">683</property>
  </entry>
  <entry producer="producer757" in="02:07:42.567" out="02:07:45.233">
   <property name="kdenlive:id">683</property>
   <filter id="filter506">
    <property name="window">75</property>
    <property name="max_gain">20dB</property>
    <property name="level">00:00:00.000=3</property>
    <property name="mlt_service">volume</property>
    <property name="kdenlive_id">+3db</property>
    <property name="kdenlive:collapsed">0</property>
   </filter>
  </entry>
  <entry producer="producer757" in="02:10:29.850" out="02:10:34.400">
   <property name="kdenlive:id">683</property>
  </entry>
  <entry producer="producer757" in="02:10:34.850" out="02:10:35.717">
   <property name="kdenlive:id">683</property>
   <filter id="filter507">
    <property name="window">75</property>
    <property name="max_gain">20dB</property>
    <property name="level">00:00:00.000=3</property>
    <property name="mlt_service">volume</property>
    <property name="kdenlive_id">+3db</property>
    <property name="kdenlive:collapsed">0</property>
   </filter>
  </entry>
  <entry producer="producer757" in="02:16:21.650" out="02:16:22.567">
   <property name="kdenlive:id">683</property>
   <filter id="filter508">
    <property name="window">75</property>
    <property name="max_gain">20dB</property>
    <property name="level">00:28:08.517=5</property>
    <property name="mlt_service">volume</property>
    <property name="kdenlive_id">+5db</property>
    <property name="kdenlive:collapsed">0</property>
   </filter>
  </entry>
  <entry producer="producer757" in="02:16:22.583" out="02:16:23.133">
   <property name="kdenlive:id">683</property>
   <filter id="filter509">
    <property name="window">75</property>
    <property name="max_gain">20dB</property>
    <property name="level">00:28:08.517=5</property>
    <property name="mlt_service">volume</property>
    <property name="kdenlive_id">+5db</property>
    <property name="kdenlive:collapsed">0</property>
   </filter>
   <filter id="filter510">
    <property name="window">75</property>
    <property name="max_gain">20dB</property>
    <property name="level">00:28:08.517=5</property>
    <property name="mlt_service">volume</property>
    <property name="kdenlive_id">+5db</property>
    <property name="kdenlive:collapsed">0</property>
   </filter>
  </entry>
  <entry producer="producer757" in="02:16:42.267" out="02:16:45.233">
   <property name="kdenlive:id">683</property>
  </entry>
  <entry producer="producer759" in="00:37:49.417" out="00:37:50.967">
   <property name="kdenlive:id">684</property>
   <filter id="filter511">
    <property name="window">75</property>
    <property name="max_gain">20dB</property>
    <property name="level">00:00:00.000=3</property>
    <property name="mlt_service">volume</property>
    <property name="kdenlive_id">+3db</property>
    <property name="kdenlive:collapsed">0</property>
   </filter>
  </entry>
  <entry producer="producer759" in="00:37:55.883" out="00:37:57.600">
   <property name="kdenlive:id">684</property>
  </entry>
  <entry producer="producer759" in="00:42:15.317" out="00:42:18.467">
   <property name="kdenlive:id">684</property>
  </entry>
  <entry producer="producer759" in="00:42:19.983" out="00:42:21.867">
   <property name="kdenlive:id">684</property>
  </entry>
  <entry producer="producer759" in="00:42:33.600" out="00:42:34.783">
   <property name="kdenlive:id">684</property>
  </entry>
  <entry producer="producer759" in="00:42:35.267" out="00:42:37.000">
   <property name="kdenlive:id">684</property>
  </entry>
  <entry producer="producer759" in="00:42:37.550" out="00:42:38.217">
   <property name="kdenlive:id">684</property>
  </entry>
  <entry producer="producer759" in="00:44:34.867" out="00:44:40.783">
   <property name="kdenlive:id">684</property>
  </entry>
  <entry producer="producer759" in="00:44:44.817" out="00:44:45.517">
   <property name="kdenlive:id">684</property>
  </entry>
  <entry producer="producer759" in="00:45:17.050" out="00:45:17.617">
   <property name="kdenlive:id">684</property>
  </entry>
  <entry producer="producer759" in="00:45:18.217" out="00:45:19.817">
   <property name="kdenlive:id">684</property>
  </entry>
  <blank length="00:00:01.617"/>
  <entry producer="producer759" in="00:47:02.600" out="00:47:03.683">
   <property name="kdenlive:id">684</property>
   <filter id="filter512">
    <property name="window">75</property>
    <property name="max_gain">20dB</property>
    <property name="level">00:28:08.517=5</property>
    <property name="mlt_service">volume</property>
    <property name="kdenlive_id">+5db</property>
    <property name="kdenlive:collapsed">0</property>
   </filter>
   <filter id="filter513">
    <property name="window">75</property>
    <property name="max_gain">20dB</property>
    <property name="level">00:00:00.000=3</property>
    <property name="mlt_service">volume</property>
    <property name="kdenlive_id">+3db</property>
    <property name="kdenlive:collapsed">0</property>
   </filter>
  </entry>
  <entry producer="producer759" in="00:47:25.000" out="00:47:27.667">
   <property name="kdenlive:id">684</property>
   <filter id="filter514">
    <property name="window">75</property>
    <property name="max_gain">20dB</property>
    <property name="level">00:00:00.000=3</property>
    <property name="mlt_service">volume</property>
    <property name="kdenlive_id">+3db</property>
    <property name="kdenlive:collapsed">0</property>
   </filter>
  </entry>
  <entry producer="producer759" in="00:51:14.017" out="00:51:15.067">
   <property name="kdenlive:id">684</property>
  </entry>
  <entry producer="producer759" in="00:51:27.283" out="00:51:28.300">
   <property name="kdenlive:id">684</property>
  </entry>
  <entry producer="producer759" in="00:51:38.283" out="00:51:40.100">
   <property name="kdenlive:id">684</property>
  </entry>
  <entry producer="producer759" in="00:51:57.650" out="00:51:58.300">
   <property name="kdenlive:id">684</property>
  </entry>
  <entry producer="producer759" in="00:51:59.050" out="00:52:00.250">
   <property name="kdenlive:id">684</property>
  </entry>
  <entry producer="producer759" in="00:52:21.433" out="00:52:24.000">
   <property name="kdenlive:id">684</property>
  </entry>
  <entry producer="producer759" in="00:52:24.017" out="00:52:25.333">
   <property name="kdenlive:id">684</property>
  </entry>
  <entry producer="producer759" in="00:52:28.117" out="00:52:30.050">
   <property name="kdenlive:id">684</property>
  </entry>
  <entry producer="producer759" in="00:52:30.067" out="00:52:31.033">
   <property name="kdenlive:id">684</property>
  </entry>
  <entry producer="producer759" in="00:52:53.100" out="00:52:57.400">
   <property name="kdenlive:id">684</property>
   <filter id="filter515">
    <property name="window">75</property>
    <property name="max_gain">20dB</property>
    <property name="level">00:00:00.000=3</property>
    <property name="mlt_service">volume</property>
    <property name="kdenlive_id">+3db</property>
    <property name="kdenlive:collapsed">0</property>
   </filter>
  </entry>
  <entry producer="producer759" in="00:52:58.800" out="00:53:01.083">
   <property name="kdenlive:id">684</property>
  </entry>
  <entry producer="producer759" in="00:53:01.583" out="00:53:02.617">
   <property name="kdenlive:id">684</property>
  </entry>
  <entry producer="producer759" in="00:58:52.567" out="00:58:53.617">
   <property name="kdenlive:id">684</property>
  </entry>
  <entry producer="producer759" in="00:58:58.583" out="00:59:00.883">
   <property name="kdenlive:id">684</property>
  </entry>
  <entry producer="producer759" in="00:59:34.133" out="00:59:34.833">
   <property name="kdenlive:id">684</property>
  </entry>
  <entry producer="producer759" in="00:59:34.850" out="00:59:35.650">
   <property name="kdenlive:id">684</property>
  </entry>
  <entry producer="producer759" in="00:59:42.700" out="00:59:44.150">
   <property name="kdenlive:id">684</property>
  </entry>
  <entry producer="producer759" in="00:59:44.867" out="00:59:46.683">
   <property name="kdenlive:id">684</property>
  </entry>
  <entry producer="producer759" in="01:00:32.100" out="01:00:34.850">
   <property name="kdenlive:id">684</property>
  </entry>
  <entry producer="producer759" in="01:00:39.750" out="01:00:44.033">
   <property name="kdenlive:id">684</property>
  </entry>
  <entry producer="producer759" in="01:00:52.067" out="01:00:53.600">
   <property name="kdenlive:id">684</property>
  </entry>
  <entry producer="producer759" in="01:05:57.233" out="01:06:00.600">
   <property name="kdenlive:id">684</property>
  </entry>
  <entry producer="producer759" in="01:06:01.033" out="01:06:04.517">
   <property name="kdenlive:id">684</property>
  </entry>
  <entry producer="producer759" in="01:06:27.783" out="01:06:30.750">
   <property name="kdenlive:id">684</property>
  </entry>
  <entry producer="producer759" in="01:07:15.633" out="01:07:18.117">
   <property name="kdenlive:id">684</property>
  </entry>
  <entry producer="producer759" in="01:07:20.833" out="01:07:21.750">
   <property name="kdenlive:id">684</property>
  </entry>
  <entry producer="producer759" in="01:07:34.800" out="01:07:35.883">
   <property name="kdenlive:id">684</property>
  </entry>
  <entry producer="producer759" in="01:07:35.900" out="01:07:36.267">
   <property name="kdenlive:id">684</property>
  </entry>
  <entry producer="producer759" in="01:07:36.283" out="01:07:37.850">
   <property name="kdenlive:id">684</property>
  </entry>
  <entry producer="producer759" in="01:07:37.867" out="01:07:38.550">
   <property name="kdenlive:id">684</property>
  </entry>
  <entry producer="producer759" in="01:07:40.117" out="01:07:40.950">
   <property name="kdenlive:id">684</property>
  </entry>
  <entry producer="producer759" in="01:07:40.967" out="01:07:42.600">
   <property name="kdenlive:id">684</property>
  </entry>
  <entry producer="producer759" in="01:07:45.833" out="01:07:47.450">
   <property name="kdenlive:id">684</property>
   <filter id="filter516">
    <property name="window">75</property>
    <property name="max_gain">20dB</property>
    <property name="level">00:00:00.000=3</property>
    <property name="mlt_service">volume</property>
    <property name="kdenlive_id">+3db</property>
    <property name="kdenlive:collapsed">0</property>
   </filter>
  </entry>
  <entry producer="producer759" in="01:08:28.217" out="01:08:28.517">
   <property name="kdenlive:id">684</property>
  </entry>
  <entry producer="producer759" in="01:08:34.233" out="01:08:35.633">
   <property name="kdenlive:id">684</property>
   <filter id="filter517">
    <property name="window">75</property>
    <property name="max_gain">20dB</property>
    <property name="level">00:28:08.517=5</property>
    <property name="mlt_service">volume</property>
    <property name="kdenlive_id">+5db</property>
    <property name="kdenlive:collapsed">0</property>
   </filter>
  </entry>
  <entry producer="producer759" in="01:11:07.167" out="01:11:08.467">
   <property name="kdenlive:id">684</property>
   <filter id="filter518">
    <property name="window">75</property>
    <property name="max_gain">20dB</property>
    <property name="level">00:28:08.517=5</property>
    <property name="mlt_service">volume</property>
    <property name="kdenlive_id">+5db</property>
    <property name="kdenlive:collapsed">0</property>
   </filter>
  </entry>
  <entry producer="producer759" in="01:11:16.067" out="01:11:17.167">
   <property name="kdenlive:id">684</property>
  </entry>
  <entry producer="producer759" in="01:13:14.883" out="01:13:16.133">
   <property name="kdenlive:id">684</property>
  </entry>
  <entry producer="producer759" in="01:13:16.150" out="01:13:16.767">
   <property name="kdenlive:id">684</property>
  </entry>
  <entry producer="producer759" in="01:17:14.633" out="01:17:16.117">
   <property name="kdenlive:id">684</property>
  </entry>
  <blank length="00:00:00.217"/>
  <entry producer="producer759" in="01:26:29.300" out="01:26:31.517">
   <property name="kdenlive:id">684</property>
   <filter id="filter519">
    <property name="window">75</property>
    <property name="max_gain">20dB</property>
    <property name="level">00:00:00.000=3</property>
    <property name="mlt_service">volume</property>
    <property name="kdenlive_id">+3db</property>
    <property name="kdenlive:collapsed">0</property>
   </filter>
  </entry>
  <entry producer="producer759" in="01:29:38.867" out="01:29:40.383">
   <property name="kdenlive:id">684</property>
  </entry>
  <entry producer="producer759" in="01:30:00.783" out="01:30:02.783">
   <property name="kdenlive:id">684</property>
  </entry>
  <entry producer="producer759" in="01:30:04.050" out="01:30:05.500">
   <property name="kdenlive:id">684</property>
  </entry>
  <entry producer="producer759" in="01:30:36.700" out="01:30:40.017">
   <property name="kdenlive:id">684</property>
  </entry>
  <entry producer="producer759" in="01:30:40.033" out="01:30:41.550">
   <property name="kdenlive:id">684</property>
   <filter id="filter520">
    <property name="window">75</property>
    <property name="max_gain">20dB</property>
    <property name="level">00:00:00.000=-8</property>
    <property name="mlt_service">volume</property>
    <property name="kdenlive_id">-8db</property>
    <property name="kdenlive:collapsed">0</property>
   </filter>
  </entry>
  <entry producer="producer759" in="02:02:30.083" out="02:02:33.300">
   <property name="kdenlive:id">684</property>
  </entry>
  <entry producer="producer759" in="02:02:45.317" out="02:02:49.767">
   <property name="kdenlive:id">684</property>
   <filter id="filter521" in="02:02:46.700" out="02:02:49.767">
    <property name="window">75</property>
    <property name="max_gain">20dB</property>
    <property name="mlt_service">volume</property>
    <property name="kdenlive_id">fadeout</property>
    <property name="gain">1</property>
    <property name="end">0</property>
   </filter>
  </entry>
  <blank length="00:00:08.250"/>
  <entry producer="producer759" in="02:18:55.333" out="02:18:57.550">
   <property name="kdenlive:id">684</property>
   <filter id="filter522">
    <property name="window">75</property>
    <property name="max_gain">20dB</property>
    <property name="level">00:00:00.000=3</property>
    <property name="mlt_service">volume</property>
    <property name="kdenlive_id">+3db</property>
    <property name="kdenlive:collapsed">0</property>
   </filter>
  </entry>
  <entry producer="producer759" in="02:19:33.167" out="02:19:36.200">
   <property name="kdenlive:id">684</property>
   <filter id="filter523">
    <property name="window">75</property>
    <property name="max_gain">20dB</property>
    <property name="level">00:00:00.000=3</property>
    <property name="mlt_service">volume</property>
    <property name="kdenlive_id">+3db</property>
    <property name="kdenlive:collapsed">0</property>
   </filter>
  </entry>
  <entry producer="producer759" in="02:19:36.217" out="02:19:37.600">
   <property name="kdenlive:id">684</property>
   <filter id="filter524">
    <property name="window">75</property>
    <property name="max_gain">20dB</property>
    <property name="level">00:00:15.367=-5</property>
    <property name="mlt_service">volume</property>
    <property name="kdenlive_id">-5db</property>
    <property name="kdenlive:collapsed">0</property>
   </filter>
  </entry>
  <entry producer="producer759" in="02:21:20.633" out="02:21:22.500">
   <property name="kdenlive:id">684</property>
   <filter id="filter525">
    <property name="window">75</property>
    <property name="max_gain">20dB</property>
    <property name="level">00:00:15.367=-3</property>
    <property name="mlt_service">volume</property>
    <property name="kdenlive_id">-3db</property>
    <property name="kdenlive:collapsed">0</property>
   </filter>
  </entry>
  <entry producer="producer759" in="02:21:32.433" out="02:21:34.850">
   <property name="kdenlive:id">684</property>
  </entry>
  <entry producer="producer759" in="02:21:35.267" out="02:21:36.100">
   <property name="kdenlive:id">684</property>
  </entry>
  <entry producer="producer759" in="02:22:00.567" out="02:22:01.583">
   <property name="kdenlive:id">684</property>
  </entry>
  <entry producer="producer759" in="02:22:10.833" out="02:22:12.950">
   <property name="kdenlive:id">684</property>
  </entry>
  <entry producer="producer759" in="02:22:14.950" out="02:22:18.233">
   <property name="kdenlive:id">684</property>
  </entry>
  <entry producer="producer759" in="02:22:18.250" out="02:22:19.533">
   <property name="kdenlive:id">684</property>
  </entry>
  <entry producer="producer759" in="02:23:49.550" out="02:23:51.200">
   <property name="kdenlive:id">684</property>
  </entry>
  <entry producer="producer759" in="02:23:59.717" out="02:24:01.533">
   <property name="kdenlive:id">684</property>
   <filter id="filter526">
    <property name="window">75</property>
    <property name="max_gain">20dB</property>
    <property name="level">00:00:00.000=-8</property>
    <property name="mlt_service">volume</property>
    <property name="kdenlive_id">-8db</property>
    <property name="kdenlive:collapsed">0</property>
   </filter>
  </entry>
  <entry producer="producer759" in="02:24:10.700" out="02:24:11.417">
   <property name="kdenlive:id">684</property>
  </entry>
  <entry producer="producer759" in="02:25:21.067" out="02:25:22.000">
   <property name="kdenlive:id">684</property>
  </entry>
  <entry producer="producer759" in="02:25:22.017" out="02:25:23.783">
   <property name="kdenlive:id">684</property>
  </entry>
  <entry producer="producer759" in="02:25:23.800" out="02:25:24.700">
   <property name="kdenlive:id">684</property>
  </entry>
  <entry producer="producer759" in="02:28:25.600" out="02:28:29.517">
   <property name="kdenlive:id">684</property>
  </entry>
  <entry producer="producer759" in="02:30:16.800" out="02:30:23.433">
   <property name="kdenlive:id">684</property>
  </entry>
  <entry producer="producer759" in="02:30:23.450" out="02:30:24.567">
   <property name="kdenlive:id">684</property>
   <filter id="filter527">
    <property name="window">75</property>
    <property name="max_gain">20dB</property>
    <property name="level">00:00:00.000=3</property>
    <property name="mlt_service">volume</property>
    <property name="kdenlive_id">+3db</property>
    <property name="kdenlive:collapsed">0</property>
   </filter>
  </entry>
  <entry producer="producer759" in="02:31:30.517" out="02:31:33.233">
   <property name="kdenlive:id">684</property>
  </entry>
  <entry producer="producer759" in="02:31:33.250" out="02:31:34.300">
   <property name="kdenlive:id">684</property>
  </entry>
  <entry producer="producer759" in="02:32:03.917" out="02:32:05.167">
   <property name="kdenlive:id">684</property>
   <filter id="filter528">
    <property name="window">75</property>
    <property name="max_gain">20dB</property>
    <property name="level">00:28:08.517=5</property>
    <property name="mlt_service">volume</property>
    <property name="kdenlive_id">+5db</property>
    <property name="kdenlive:collapsed">0</property>
   </filter>
  </entry>
  <entry producer="producer759" in="02:32:13.033" out="02:32:14.267">
   <property name="kdenlive:id">684</property>
   <filter id="filter529">
    <property name="window">75</property>
    <property name="max_gain">20dB</property>
    <property name="level">02:32:13.033=3</property>
    <property name="mlt_service">volume</property>
    <property name="kdenlive_id">+3db</property>
    <property name="kdenlive:collapsed">0</property>
   </filter>
  </entry>
  <entry producer="producer759" in="02:32:24.933" out="02:32:26.167">
   <property name="kdenlive:id">684</property>
   <filter id="filter530">
    <property name="window">75</property>
    <property name="max_gain">20dB</property>
    <property name="level">00:00:00.000=3</property>
    <property name="mlt_service">volume</property>
    <property name="kdenlive_id">+3db</property>
   </filter>
  </entry>
  <entry producer="producer760" in="02:32:40.667" out="02:32:41.250">
   <property name="kdenlive:id">684</property>
  </entry>
  <entry producer="producer759" in="02:32:42.000" out="02:32:43.717">
   <property name="kdenlive:id">684</property>
  </entry>
  <entry producer="producer759" in="02:32:53.667" out="02:32:55.567">
   <property name="kdenlive:id">684</property>
  </entry>
  <entry producer="producer759" in="02:32:56.550" out="02:32:57.617">
   <property name="kdenlive:id">684</property>
  </entry>
  <entry producer="producer759" in="02:33:01.733" out="02:33:02.550">
   <property name="kdenlive:id">684</property>
  </entry>
  <entry producer="producer761" in="00:17:05.833" out="00:17:07.333">
   <property name="kdenlive:id">685</property>
  </entry>
  <entry producer="producer761" in="00:17:09.400" out="00:17:10.150">
   <property name="kdenlive:id">685</property>
  </entry>
  <entry producer="producer761" in="00:17:38.450" out="00:17:41.783">
   <property name="kdenlive:id">685</property>
  </entry>
  <entry producer="producer761" in="00:17:45.917" out="00:17:46.783">
   <property name="kdenlive:id">685</property>
  </entry>
  <entry producer="producer761" in="00:17:51.067" out="00:17:52.517">
   <property name="kdenlive:id">685</property>
  </entry>
  <entry producer="producer761" in="00:21:13.267" out="00:21:14.400">
   <property name="kdenlive:id">685</property>
   <filter id="filter531">
    <property name="window">75</property>
    <property name="max_gain">20dB</property>
    <property name="level">00:00:00.000=3</property>
    <property name="mlt_service">volume</property>
    <property name="kdenlive_id">+3db</property>
    <property name="kdenlive:collapsed">0</property>
   </filter>
  </entry>
  <entry producer="producer761" in="00:21:14.733" out="00:21:16.050">
   <property name="kdenlive:id">685</property>
   <filter id="filter532">
    <property name="window">75</property>
    <property name="max_gain">20dB</property>
    <property name="level">00:28:08.517=5</property>
    <property name="mlt_service">volume</property>
    <property name="kdenlive_id">+5db</property>
    <property name="kdenlive:collapsed">0</property>
   </filter>
  </entry>
  <entry producer="producer761" in="00:26:39.283" out="00:26:41.367">
   <property name="kdenlive:id">685</property>
   <filter id="filter533">
    <property name="window">75</property>
    <property name="max_gain">20dB</property>
    <property name="level">00:00:00.000=3</property>
    <property name="mlt_service">volume</property>
    <property name="kdenlive_id">+3db</property>
    <property name="kdenlive:collapsed">0</property>
   </filter>
  </entry>
  <entry producer="producer761" in="00:27:31.400" out="00:27:32.883">
   <property name="kdenlive:id">685</property>
  </entry>
  <entry producer="producer761" in="00:27:33.867" out="00:27:34.833">
   <property name="kdenlive:id">685</property>
  </entry>
  <entry producer="producer761" in="00:27:43.517" out="00:27:43.783">
   <property name="kdenlive:id">685</property>
   <filter id="filter534">
    <property name="window">75</property>
    <property name="max_gain">20dB</property>
    <property name="level">00:28:08.517=5</property>
    <property name="mlt_service">volume</property>
    <property name="kdenlive_id">+5db</property>
    <property name="kdenlive:collapsed">0</property>
   </filter>
  </entry>
  <entry producer="producer761" in="00:27:45.017" out="00:27:45.500">
   <property name="kdenlive:id">685</property>
   <filter id="filter535">
    <property name="window">75</property>
    <property name="max_gain">20dB</property>
    <property name="level">00:28:08.517=5</property>
    <property name="mlt_service">volume</property>
    <property name="kdenlive_id">+5db</property>
    <property name="kdenlive:collapsed">0</property>
   </filter>
  </entry>
  <entry producer="producer761" in="00:27:45.817" out="00:27:46.333">
   <property name="kdenlive:id">685</property>
   <filter id="filter536">
    <property name="window">75</property>
    <property name="max_gain">20dB</property>
    <property name="level">00:27:45.817=5;00:28:08.517=5</property>
    <property name="mlt_service">volume</property>
    <property name="kdenlive_id">+5db</property>
    <property name="kdenlive:collapsed">0</property>
   </filter>
  </entry>
  <entry producer="producer761" in="00:37:44.617" out="00:37:47.400">
   <property name="kdenlive:id">685</property>
  </entry>
  <entry producer="producer761" in="00:40:13.383" out="00:40:15.233">
   <property name="kdenlive:id">685</property>
   <filter id="filter537">
    <property name="window">75</property>
    <property name="max_gain">20dB</property>
    <property name="level">00:28:08.517=5</property>
    <property name="mlt_service">volume</property>
    <property name="kdenlive_id">+5db</property>
    <property name="kdenlive:collapsed">0</property>
   </filter>
  </entry>
  <entry producer="producer761" in="00:40:19.500" out="00:40:22.200">
   <property name="kdenlive:id">685</property>
  </entry>
  <entry producer="producer761" in="00:40:23.050" out="00:40:24.017">
   <property name="kdenlive:id">685</property>
  </entry>
  <entry producer="producer761" in="00:40:57.983" out="00:40:58.633">
   <property name="kdenlive:id">685</property>
  </entry>
  <entry producer="producer761" in="00:40:58.650" out="00:41:00.150">
   <property name="kdenlive:id">685</property>
  </entry>
  <entry producer="producer761" in="00:41:02.950" out="00:41:03.483">
   <property name="kdenlive:id">685</property>
  </entry>
  <entry producer="producer761" in="00:41:11.000" out="00:41:11.683">
   <property name="kdenlive:id">685</property>
  </entry>
  <entry producer="producer761" in="00:41:19.217" out="00:41:20.483">
   <property name="kdenlive:id">685</property>
  </entry>
  <entry producer="producer761" in="00:41:49.617" out="00:41:56.433">
   <property name="kdenlive:id">685</property>
  </entry>
  <entry producer="producer761" in="00:42:02.217" out="00:42:03.333">
   <property name="kdenlive:id">685</property>
  </entry>
  <entry producer="producer761" in="00:44:26.833" out="00:44:28.367">
   <property name="kdenlive:id">685</property>
  </entry>
  <entry producer="producer761" in="00:45:46.333" out="00:45:47.017">
   <property name="kdenlive:id">685</property>
  </entry>
  <entry producer="producer761" in="00:45:57.250" out="00:45:59.433">
   <property name="kdenlive:id">685</property>
  </entry>
  <entry producer="producer761" in="00:46:05.000" out="00:46:09.250">
   <property name="kdenlive:id">685</property>
  </entry>
  <entry producer="producer761" in="00:46:33.350" out="00:46:35.900">
   <property name="kdenlive:id">685</property>
  </entry>
  <entry producer="producer761" in="00:46:42.467" out="00:46:45.033">
   <property name="kdenlive:id">685</property>
  </entry>
  <entry producer="producer761" in="00:51:43.783" out="00:51:46.533">
   <property name="kdenlive:id">685</property>
   <filter id="filter538">
    <property name="window">75</property>
    <property name="max_gain">20dB</property>
    <property name="level">00:00:00.000=3</property>
    <property name="mlt_service">volume</property>
    <property name="kdenlive_id">+3db</property>
    <property name="kdenlive:collapsed">0</property>
   </filter>
  </entry>
  <entry producer="producer761" in="00:51:52.500" out="00:51:55.467">
   <property name="kdenlive:id">685</property>
  </entry>
  <entry producer="producer761" in="00:51:55.483" out="00:51:55.867">
   <property name="kdenlive:id">685</property>
   <filter id="filter539">
    <property name="window">75</property>
    <property name="max_gain">20dB</property>
    <property name="level">00:28:08.517=5</property>
    <property name="mlt_service">volume</property>
    <property name="kdenlive_id">+5db</property>
    <property name="kdenlive:collapsed">0</property>
   </filter>
  </entry>
  <entry producer="producer761" in="00:55:55.117" out="00:55:56.500">
   <property name="kdenlive:id">685</property>
   <filter id="filter540">
    <property name="window">75</property>
    <property name="max_gain">20dB</property>
    <property name="level">00:55:55.117=5</property>
    <property name="mlt_service">volume</property>
    <property name="kdenlive_id">+5db</property>
    <property name="kdenlive:collapsed">0</property>
   </filter>
  </entry>
  <entry producer="producer761" in="00:56:39.133" out="00:56:40.350">
   <property name="kdenlive:id">685</property>
  </entry>
  <entry producer="producer761" in="00:56:45.683" out="00:56:47.083">
   <property name="kdenlive:id">685</property>
  </entry>
  <entry producer="producer761" in="00:56:55.100" out="00:56:56.483">
   <property name="kdenlive:id">685</property>
  </entry>
  <entry producer="producer761" in="00:58:29.700" out="00:58:30.717">
   <property name="kdenlive:id">685</property>
  </entry>
  <entry producer="producer761" in="00:59:30.733" out="00:59:32.183">
   <property name="kdenlive:id">685</property>
  </entry>
  <entry producer="producer761" in="01:00:20.150" out="01:00:21.300">
   <property name="kdenlive:id">685</property>
  </entry>
  <entry producer="producer761" in="01:00:34.650" out="01:00:38.700">
   <property name="kdenlive:id">685</property>
  </entry>
  <entry producer="producer761" in="01:05:14.017" out="01:05:15.550">
   <property name="kdenlive:id">685</property>
  </entry>
  <entry producer="producer761" in="01:05:18.167" out="01:05:19.300">
   <property name="kdenlive:id">685</property>
  </entry>
  <entry producer="producer761" in="01:05:21.667" out="01:05:22.233">
   <property name="kdenlive:id">685</property>
  </entry>
  <entry producer="producer761" in="01:05:22.250" out="01:05:23.083">
   <property name="kdenlive:id">685</property>
  </entry>
  <entry producer="producer761" in="01:05:23.100" out="01:05:24.950">
   <property name="kdenlive:id">685</property>
  </entry>
  <entry producer="producer761" in="01:05:25.483" out="01:05:27.417">
   <property name="kdenlive:id">685</property>
  </entry>
  <entry producer="producer761" in="01:06:09.750" out="01:06:12.167">
   <property name="kdenlive:id">685</property>
  </entry>
  <entry producer="producer761" in="01:06:12.183" out="01:06:13.117">
   <property name="kdenlive:id">685</property>
  </entry>
  <entry producer="producer761" in="01:05:28.500" out="01:05:30.367">
   <property name="kdenlive:id">685</property>
  </entry>
  <entry producer="producer761" in="01:06:38.017" out="01:06:39.583">
   <property name="kdenlive:id">685</property>
  </entry>
  <entry producer="producer761" in="01:07:19.500" out="01:07:20.250">
   <property name="kdenlive:id">685</property>
  </entry>
  <entry producer="producer761" in="01:09:25.917" out="01:09:28.683">
   <property name="kdenlive:id">685</property>
  </entry>
  <entry producer="producer761" in="01:10:26.650" out="01:10:28.183">
   <property name="kdenlive:id">685</property>
  </entry>
  <entry producer="producer761" in="01:10:55.983" out="01:10:58.850">
   <property name="kdenlive:id">685</property>
   <filter id="filter541">
    <property name="window">75</property>
    <property name="max_gain">20dB</property>
    <property name="level">00:00:15.367=-3</property>
    <property name="mlt_service">volume</property>
    <property name="kdenlive_id">-3db</property>
    <property name="kdenlive:collapsed">0</property>
   </filter>
  </entry>
  <entry producer="producer761" in="01:10:58.867" out="01:11:00.633">
   <property name="kdenlive:id">685</property>
  </entry>
  <entry producer="producer761" in="01:11:14.667" out="01:11:19.067">
   <property name="kdenlive:id">685</property>
  </entry>
  <entry producer="producer761" in="01:16:52.200" out="01:16:54.650">
   <property name="kdenlive:id">685</property>
  </entry>
  <entry producer="producer761" in="01:16:54.667" out="01:16:56.450">
   <property name="kdenlive:id">685</property>
   <filter id="filter542">
    <property name="window">75</property>
    <property name="max_gain">20dB</property>
    <property name="level">00:28:08.517=5</property>
    <property name="mlt_service">volume</property>
    <property name="kdenlive_id">+5db</property>
    <property name="kdenlive:collapsed">0</property>
   </filter>
  </entry>
  <entry producer="producer761" in="01:19:21.700" out="01:19:27.950">
   <property name="kdenlive:id">685</property>
   <filter id="filter543">
    <property name="window">75</property>
    <property name="max_gain">20dB</property>
    <property name="level">00:00:00.000=3</property>
    <property name="mlt_service">volume</property>
    <property name="kdenlive_id">+3db</property>
    <property name="kdenlive:collapsed">0</property>
   </filter>
  </entry>
  <entry producer="producer761" in="01:26:27.500" out="01:26:33.217">
   <property name="kdenlive:id">685</property>
  </entry>
  <entry producer="producer761" in="01:28:19.633" out="01:28:23.883">
   <property name="kdenlive:id">685</property>
  </entry>
  <entry producer="producer761" in="01:32:48.267" out="01:32:51.633">
   <property name="kdenlive:id">685</property>
  </entry>
  <entry producer="producer761" in="01:32:51.650" out="01:32:52.217">
   <property name="kdenlive:id">685</property>
   <filter id="filter544">
    <property name="window">75</property>
    <property name="max_gain">20dB</property>
    <property name="level">00:00:00.000=3</property>
    <property name="mlt_service">volume</property>
    <property name="kdenlive_id">+3db</property>
    <property name="kdenlive:collapsed">0</property>
   </filter>
  </entry>
  <entry producer="producer761" in="01:39:55.417" out="01:40:01.933">
   <property name="kdenlive:id">685</property>
  </entry>
  <entry producer="producer761" in="01:44:47.133" out="01:44:47.950">
   <property name="kdenlive:id">685</property>
  </entry>
  <entry producer="producer761" in="01:45:03.367" out="01:45:04.067">
   <property name="kdenlive:id">685</property>
   <filter id="filter545">
    <property name="window">75</property>
    <property name="max_gain">20dB</property>
    <property name="level">00:00:00.000=3</property>
    <property name="mlt_service">volume</property>
    <property name="kdenlive_id">+3db</property>
    <property name="kdenlive:collapsed">0</property>
   </filter>
  </entry>
  <entry producer="producer761" in="01:45:04.700" out="01:45:06.017">
   <property name="kdenlive:id">685</property>
  </entry>
  <entry producer="producer761" in="01:45:08.033" out="01:45:08.633">
   <property name="kdenlive:id">685</property>
  </entry>
  <entry producer="producer761" in="01:56:23.850" out="01:56:25.017">
   <property name="kdenlive:id">685</property>
  </entry>
  <entry producer="producer761" in="01:56:26.950" out="01:56:28.350">
   <property name="kdenlive:id">685</property>
  </entry>
  <entry producer="producer761" in="01:56:36.400" out="01:56:38.100">
   <property name="kdenlive:id">685</property>
  </entry>
  <entry producer="producer761" in="01:56:38.567" out="01:56:43.150">
   <property name="kdenlive:id">685</property>
  </entry>
  <entry producer="producer761" in="01:56:43.167" out="01:56:45.800">
   <property name="kdenlive:id">685</property>
  </entry>
  <entry producer="producer761" in="01:56:47.783" out="01:56:49.233">
   <property name="kdenlive:id">685</property>
   <filter id="filter546">
    <property name="window">75</property>
    <property name="max_gain">20dB</property>
    <property name="level">00:28:08.517=5</property>
    <property name="mlt_service">volume</property>
    <property name="kdenlive_id">+5db</property>
    <property name="kdenlive:collapsed">0</property>
   </filter>
  </entry>
  <entry producer="producer761" in="01:58:11.267" out="01:58:13.600">
   <property name="kdenlive:id">685</property>
  </entry>
  <entry producer="producer761" in="01:58:29.733" out="01:58:32.367">
   <property name="kdenlive:id">685</property>
  </entry>
  <entry producer="producer761" in="01:58:50.517" out="01:58:56.067">
   <property name="kdenlive:id">685</property>
  </entry>
  <entry producer="producer761" in="01:58:56.083" out="01:58:58.350">
   <property name="kdenlive:id">685</property>
   <filter id="filter547" in="01:58:57.217" out="01:58:58.350">
    <property name="window">75</property>
    <property name="max_gain">20dB</property>
    <property name="mlt_service">volume</property>
    <property name="kdenlive_id">fadeout</property>
    <property name="gain">1</property>
    <property name="end">0</property>
   </filter>
  </entry>
  <entry producer="producer761" in="01:59:14.467" out="01:59:17.167">
   <property name="kdenlive:id">685</property>
  </entry>
  <entry producer="producer761" in="01:59:45.783" out="01:59:48.900">
   <property name="kdenlive:id">685</property>
  </entry>
  <entry producer="producer761" in="02:05:33.517" out="02:05:41.267">
   <property name="kdenlive:id">685</property>
  </entry>
  <entry producer="producer761" in="02:06:19.917" out="02:06:21.550">
   <property name="kdenlive:id">685</property>
  </entry>
  <entry producer="producer761" in="02:06:23.817" out="02:06:24.667">
   <property name="kdenlive:id">685</property>
  </entry>
  <entry producer="producer761" in="02:06:28.783" out="02:06:31.250">
   <property name="kdenlive:id">685</property>
  </entry>
  <entry producer="producer761" in="02:06:40.550" out="02:06:41.933">
   <property name="kdenlive:id">685</property>
   <filter id="filter548">
    <property name="window">75</property>
    <property name="max_gain">20dB</property>
    <property name="level">02:06:40.550=3</property>
    <property name="mlt_service">volume</property>
    <property name="kdenlive_id">+3db</property>
    <property name="kdenlive:collapsed">0</property>
   </filter>
  </entry>
  <entry producer="producer761" in="02:06:41.950" out="02:06:48.750">
   <property name="kdenlive:id">685</property>
  </entry>
  <entry producer="producer761" in="02:12:06.000" out="02:12:07.233">
   <property name="kdenlive:id">685</property>
  </entry>
  <entry producer="producer761" in="02:12:41.083" out="02:12:46.800">
   <property name="kdenlive:id">685</property>
   <property name="kdenlive:activeeffect">0</property>
   <filter id="filter549">
    <property name="window">75</property>
    <property name="max_gain">20dB</property>
    <property name="level">922=-3</property>
    <property name="mlt_service">volume</property>
    <property name="kdenlive_id">-3db</property>
    <property name="kdenlive:collapsed">0</property>
   </filter>
  </entry>
  <entry producer="producer761" in="02:12:51.967" out="02:12:52.800">
   <property name="kdenlive:id">685</property>
   <property name="kdenlive:activeeffect">0</property>
   <filter id="filter550">
    <property name="window">75</property>
    <property name="max_gain">20dB</property>
    <property name="level">00:00:15.367=-3</property>
    <property name="mlt_service">volume</property>
    <property name="kdenlive_id">-3db</property>
    <property name="kdenlive:collapsed">0</property>
   </filter>
  </entry>
  <entry producer="producer761" in="02:12:59.367" out="02:13:00.283">
   <property name="kdenlive:id">685</property>
   <property name="kdenlive:activeeffect">0</property>
   <filter id="filter551">
    <property name="window">75</property>
    <property name="max_gain">20dB</property>
    <property name="level">00:00:15.367=-3</property>
    <property name="mlt_service">volume</property>
    <property name="kdenlive_id">-3db</property>
    <property name="kdenlive:collapsed">0</property>
   </filter>
  </entry>
  <entry producer="producer762" in="00:13:41.550" out="00:13:44.217">
   <property name="kdenlive:id">686</property>
   <filter id="filter552">
    <property name="window">75</property>
    <property name="max_gain">20dB</property>
    <property name="level">00:00:00.000=3</property>
    <property name="mlt_service">volume</property>
    <property name="kdenlive_id">+3db</property>
    <property name="kdenlive:collapsed">0</property>
   </filter>
  </entry>
  <entry producer="producer762" in="00:15:43.383" out="00:15:48.633">
   <property name="kdenlive:id">686</property>
   <filter id="filter553">
    <property name="window">75</property>
    <property name="max_gain">20dB</property>
    <property name="level">00:00:00.000=3</property>
    <property name="mlt_service">volume</property>
    <property name="kdenlive_id">+3db</property>
    <property name="kdenlive:collapsed">0</property>
   </filter>
  </entry>
  <entry producer="producer762" in="00:15:49.117" out="00:15:51.333">
   <property name="kdenlive:id">686</property>
   <filter id="filter554">
    <property name="window">75</property>
    <property name="max_gain">20dB</property>
    <property name="level">00:00:00.000=3</property>
    <property name="mlt_service">volume</property>
    <property name="kdenlive_id">+3db</property>
    <property name="kdenlive:collapsed">0</property>
   </filter>
  </entry>
  <entry producer="producer762" in="00:15:52.233" out="00:15:54.033">
   <property name="kdenlive:id">686</property>
   <filter id="filter555">
    <property name="window">75</property>
    <property name="max_gain">20dB</property>
    <property name="level">00:00:00.000=3</property>
    <property name="mlt_service">volume</property>
    <property name="kdenlive_id">+3db</property>
    <property name="kdenlive:collapsed">0</property>
   </filter>
  </entry>
  <entry producer="producer762" in="00:15:54.050" out="00:15:55.767">
   <property name="kdenlive:id">686</property>
  </entry>
  <entry producer="producer762" in="00:15:59.967" out="00:16:00.883">
   <property name="kdenlive:id">686</property>
  </entry>
  <entry producer="producer762" in="00:16:05.383" out="00:16:06.183">
   <property name="kdenlive:id">686</property>
  </entry>
  <entry producer="producer762" in="00:16:07.000" out="00:16:07.767">
   <property name="kdenlive:id">686</property>
  </entry>
  <entry producer="producer762" in="00:16:08.700" out="00:16:09.900">
   <property name="kdenlive:id">686</property>
  </entry>
  <entry producer="producer762" in="00:16:22.450" out="00:16:23.267">
   <property name="kdenlive:id">686</property>
  </entry>
  <entry producer="producer762" in="00:16:26.383" out="00:16:26.917">
   <property name="kdenlive:id">686</property>
  </entry>
  <entry producer="producer762" in="00:16:27.950" out="00:16:29.083">
   <property name="kdenlive:id">686</property>
   <filter id="filter556">
    <property name="window">75</property>
    <property name="max_gain">20dB</property>
    <property name="level">00:00:00.000=3</property>
    <property name="mlt_service">volume</property>
    <property name="kdenlive_id">+3db</property>
    <property name="kdenlive:collapsed">0</property>
   </filter>
  </entry>
  <entry producer="producer762" in="00:21:15.683" out="00:21:17.950">
   <property name="kdenlive:id">686</property>
  </entry>
  <entry producer="producer762" in="00:21:20.250" out="00:21:24.850">
   <property name="kdenlive:id">686</property>
   <filter id="filter557">
    <property name="window">75</property>
    <property name="max_gain">20dB</property>
    <property name="level">00:00:00.000=-8</property>
    <property name="mlt_service">volume</property>
    <property name="kdenlive_id">-8db</property>
    <property name="kdenlive:collapsed">0</property>
   </filter>
  </entry>
  <entry producer="producer762" in="00:21:24.867" out="00:21:26.150">
   <property name="kdenlive:id">686</property>
   <filter id="filter558">
    <property name="window">75</property>
    <property name="max_gain">20dB</property>
    <property name="level">00:21:24.867=-8</property>
    <property name="mlt_service">volume</property>
    <property name="kdenlive_id">-8db</property>
   </filter>
  </entry>
  <entry producer="producer762" in="00:21:59.583" out="00:22:01.767">
   <property name="kdenlive:id">686</property>
  </entry>
  <entry producer="producer762" in="00:22:02.033" out="00:22:02.967">
   <property name="kdenlive:id">686</property>
   <filter id="filter559">
    <property name="window">75</property>
    <property name="max_gain">20dB</property>
    <property name="level">00:00:00.000=3</property>
    <property name="mlt_service">volume</property>
    <property name="kdenlive_id">+3db</property>
    <property name="kdenlive:collapsed">0</property>
   </filter>
  </entry>
  <entry producer="producer762" in="00:29:31.167" out="00:29:35.467">
   <property name="kdenlive:id">686</property>
  </entry>
  <entry producer="producer762" in="00:29:39.017" out="00:29:41.233">
   <property name="kdenlive:id">686</property>
  </entry>
  <entry producer="producer762" in="00:34:03.267" out="00:34:06.633">
   <property name="kdenlive:id">686</property>
  </entry>
  <entry producer="producer762" in="00:34:07.917" out="00:34:08.633">
   <property name="kdenlive:id">686</property>
  </entry>
  <entry producer="producer762" in="00:34:11.083" out="00:34:13.033">
   <property name="kdenlive:id">686</property>
  </entry>
  <entry producer="producer762" in="00:34:26.333" out="00:34:27.183">
   <property name="kdenlive:id">686</property>
  </entry>
  <entry producer="producer762" in="00:34:32.700" out="00:34:36.150">
   <property name="kdenlive:id">686</property>
  </entry>
  <entry producer="producer762" in="00:35:43.033" out="00:35:45.317">
   <property name="kdenlive:id">686</property>
  </entry>
  <entry producer="producer762" in="00:54:18.800" out="00:54:22.017">
   <property name="kdenlive:id">686</property>
  </entry>
  <entry producer="producer762" in="00:54:22.033" out="00:54:27.267">
   <property name="kdenlive:id">686</property>
   <filter id="filter560">
    <property name="window">75</property>
    <property name="max_gain">20dB</property>
    <property name="level">00:28:08.517=5</property>
    <property name="mlt_service">volume</property>
    <property name="kdenlive_id">+5db</property>
    <property name="kdenlive:collapsed">0</property>
   </filter>
  </entry>
  <entry producer="producer762" in="00:54:27.283" out="00:54:28.000">
   <property name="kdenlive:id">686</property>
   <filter id="filter561">
    <property name="window">75</property>
    <property name="max_gain">20dB</property>
    <property name="level">00:54:27.283=5</property>
    <property name="mlt_service">volume</property>
    <property name="kdenlive_id">+5db</property>
   </filter>
  </entry>
  <entry producer="producer762" in="00:54:37.917" out="00:54:38.333">
   <property name="kdenlive:id">686</property>
  </entry>
  <entry producer="producer762" in="00:54:44.950" out="00:54:45.700">
   <property name="kdenlive:id">686</property>
  </entry>
  <entry producer="producer762" in="00:54:46.867" out="00:54:47.317">
   <property name="kdenlive:id">686</property>
   <filter id="filter562">
    <property name="window">75</property>
    <property name="max_gain">20dB</property>
    <property name="level">00:28:08.517=5</property>
    <property name="mlt_service">volume</property>
    <property name="kdenlive_id">+5db</property>
    <property name="kdenlive:collapsed">0</property>
   </filter>
  </entry>
  <entry producer="producer762" in="00:55:38.667" out="00:55:41.217">
   <property name="kdenlive:id">686</property>
  </entry>
  <entry producer="producer762" in="00:55:42.417" out="00:55:44.233">
   <property name="kdenlive:id">686</property>
  </entry>
  <entry producer="producer762" in="00:55:47.567" out="00:55:53.350">
   <property name="kdenlive:id">686</property>
   <property name="kdenlive:activeeffect">0</property>
   <filter id="filter563">
    <property name="window">75</property>
    <property name="max_gain">20dB</property>
    <property name="level">922=-3</property>
    <property name="mlt_service">volume</property>
    <property name="kdenlive_id">-3db</property>
    <property name="kdenlive:collapsed">0</property>
   </filter>
  </entry>
  <entry producer="producer762" in="00:57:08.883" out="00:57:11.000">
   <property name="kdenlive:id">686</property>
   <property name="kdenlive:activeeffect">0</property>
   <filter id="filter564">
    <property name="window">75</property>
    <property name="max_gain">20dB</property>
    <property name="level">00:00:15.367=-5</property>
    <property name="mlt_service">volume</property>
    <property name="kdenlive_id">-5db</property>
    <property name="kdenlive:collapsed">0</property>
   </filter>
  </entry>
  <entry producer="producer762" in="00:57:12.617" out="00:57:15.333">
   <property name="kdenlive:id">686</property>
   <filter id="filter565">
    <property name="window">75</property>
    <property name="max_gain">20dB</property>
    <property name="level">00:00:19.100=-5</property>
    <property name="mlt_service">volume</property>
    <property name="kdenlive_id">-5db</property>
    <property name="kdenlive:collapsed">0</property>
   </filter>
  </entry>
  <entry producer="producer762" in="00:57:22.033" out="00:57:24.283">
   <property name="kdenlive:id">686</property>
   <filter id="filter566">
    <property name="window">75</property>
    <property name="max_gain">20dB</property>
    <property name="level">00:00:28.517=-5</property>
    <property name="mlt_service">volume</property>
    <property name="kdenlive_id">-5db</property>
   </filter>
  </entry>
  <entry producer="producer762" in="00:58:12.183" out="00:58:17.017">
   <property name="kdenlive:id">686</property>
   <filter id="filter567">
    <property name="window">75</property>
    <property name="max_gain">20dB</property>
    <property name="level">00:00:15.367=-3</property>
    <property name="mlt_service">volume</property>
    <property name="kdenlive_id">-3db</property>
    <property name="kdenlive:collapsed">0</property>
   </filter>
  </entry>
  <entry producer="producer762" in="01:00:59.967" out="01:01:06.583">
   <property name="kdenlive:id">686</property>
  </entry>
  <entry producer="producer762" in="01:06:37.933" out="01:06:39.233">
   <property name="kdenlive:id">686</property>
  </entry>
  <entry producer="producer762" in="01:06:39.250" out="01:06:40.100">
   <property name="kdenlive:id">686</property>
  </entry>
  <entry producer="producer762" in="01:06:40.117" out="01:06:40.733">
   <property name="kdenlive:id">686</property>
   <filter id="filter568">
    <property name="window">75</property>
    <property name="max_gain">20dB</property>
    <property name="level">00:28:08.517=5</property>
    <property name="mlt_service">volume</property>
    <property name="kdenlive_id">+5db</property>
    <property name="kdenlive:collapsed">0</property>
   </filter>
  </entry>
  <entry producer="producer762" in="01:06:54.117" out="01:06:56.583">
   <property name="kdenlive:id">686</property>
  </entry>
  <entry producer="producer762" in="01:06:56.600" out="01:06:56.900">
   <property name="kdenlive:id">686</property>
   <filter id="filter569">
    <property name="window">75</property>
    <property name="max_gain">20dB</property>
    <property name="level">00:00:00.000=3</property>
    <property name="mlt_service">volume</property>
    <property name="kdenlive_id">+3db</property>
    <property name="kdenlive:collapsed">0</property>
   </filter>
  </entry>
  <entry producer="producer762" in="01:08:40.300" out="01:08:44.067">
   <property name="kdenlive:id">686</property>
   <property name="kdenlive:activeeffect">0</property>
   <filter id="filter570">
    <property name="window">75</property>
    <property name="max_gain">20dB</property>
    <property name="level">922=-5</property>
    <property name="mlt_service">volume</property>
    <property name="kdenlive_id">-5db</property>
    <property name="kdenlive:collapsed">0</property>
   </filter>
  </entry>
  <entry producer="producer762" in="01:08:44.083" out="01:08:44.933">
   <property name="kdenlive:id">686</property>
   <filter id="filter571">
    <property name="window">75</property>
    <property name="max_gain">20dB</property>
    <property name="level">1149=-5</property>
    <property name="mlt_service">volume</property>
    <property name="kdenlive_id">-5db</property>
   </filter>
  </entry>
  <entry producer="producer762" in="01:08:49.467" out="01:08:50.333">
   <property name="kdenlive:id">686</property>
   <filter id="filter572">
    <property name="window">75</property>
    <property name="max_gain">20dB</property>
    <property name="level">1472=-5</property>
    <property name="mlt_service">volume</property>
    <property name="kdenlive_id">-5db</property>
   </filter>
  </entry>
  <entry producer="producer762" in="01:09:29.483" out="01:09:33.683">
   <property name="kdenlive:id">686</property>
   <filter id="filter573">
    <property name="window">75</property>
    <property name="max_gain">20dB</property>
    <property name="level">00:01:04.550=-5</property>
    <property name="mlt_service">volume</property>
    <property name="kdenlive_id">-5db</property>
   </filter>
  </entry>
  <entry producer="producer762" in="01:09:39.967" out="01:09:42.050">
   <property name="kdenlive:id">686</property>
   <filter id="filter574">
    <property name="window">75</property>
    <property name="max_gain">20dB</property>
    <property name="level">00:01:15.033=-5</property>
    <property name="mlt_service">volume</property>
    <property name="kdenlive_id">-5db</property>
   </filter>
  </entry>
  <entry producer="producer762" in="01:10:59.867" out="01:11:05.950">
   <property name="kdenlive:id">686</property>
   <filter id="filter575">
    <property name="window">75</property>
    <property name="max_gain">20dB</property>
    <property name="level">00:02:34.933=-5</property>
    <property name="mlt_service">volume</property>
    <property name="kdenlive_id">-5db</property>
   </filter>
  </entry>
  <entry producer="producer762" in="01:11:07.583" out="01:11:09.433">
   <property name="kdenlive:id">686</property>
   <filter id="filter576">
    <property name="window">75</property>
    <property name="max_gain">20dB</property>
    <property name="level">00:02:42.650=-5</property>
    <property name="mlt_service">volume</property>
    <property name="kdenlive_id">-5db</property>
   </filter>
  </entry>
  <entry producer="producer762" in="01:12:38.533" out="01:12:41.900">
   <property name="kdenlive:id">686</property>
   <filter id="filter577">
    <property name="window">75</property>
    <property name="max_gain">20dB</property>
    <property name="level">15216=-5</property>
    <property name="mlt_service">volume</property>
    <property name="kdenlive_id">-5db</property>
   </filter>
  </entry>
  <entry producer="producer762" in="01:14:32.200" out="01:14:34.250">
   <property name="kdenlive:id">686</property>
   <filter id="filter578">
    <property name="window">75</property>
    <property name="max_gain">20dB</property>
    <property name="level">22036=-5</property>
    <property name="mlt_service">volume</property>
    <property name="kdenlive_id">-5db</property>
   </filter>
  </entry>
  <entry producer="producer762" in="01:16:42.617" out="01:16:45.233">
   <property name="kdenlive:id">686</property>
   <filter id="filter579">
    <property name="window">75</property>
    <property name="max_gain">20dB</property>
    <property name="level">29861=-5</property>
    <property name="mlt_service">volume</property>
    <property name="kdenlive_id">-5db</property>
   </filter>
  </entry>
  <entry producer="producer762" in="01:16:55.883" out="01:16:56.267">
   <property name="kdenlive:id">686</property>
  </entry>
  <entry producer="producer762" in="01:16:56.583" out="01:17:00.000">
   <property name="kdenlive:id">686</property>
  </entry>
  <entry producer="producer762" in="01:17:00.250" out="01:17:03.017">
   <property name="kdenlive:id">686</property>
  </entry>
  <entry producer="producer762" in="01:32:32.900" out="01:32:41.333">
   <property name="kdenlive:id">686</property>
   <filter id="filter580">
    <property name="window">75</property>
    <property name="max_gain">20dB</property>
    <property name="level">00:00:15.367=-5</property>
    <property name="mlt_service">volume</property>
    <property name="kdenlive_id">-5db</property>
    <property name="kdenlive:collapsed">0</property>
   </filter>
  </entry>
  <entry producer="producer762" in="01:33:58.967" out="01:33:59.600">
   <property name="kdenlive:id">686</property>
   <filter id="filter581">
    <property name="window">75</property>
    <property name="max_gain">20dB</property>
    <property name="level">01:33:58.967=5</property>
    <property name="mlt_service">volume</property>
    <property name="kdenlive_id">+5db</property>
    <property name="kdenlive:collapsed">0</property>
   </filter>
  </entry>
  <entry producer="producer762" in="01:34:00.800" out="01:34:02.017">
   <property name="kdenlive:id">686</property>
   <filter id="filter582">
    <property name="window">75</property>
    <property name="max_gain">20dB</property>
    <property name="level">01:34:00.800=5</property>
    <property name="mlt_service">volume</property>
    <property name="kdenlive_id">+5db</property>
   </filter>
  </entry>
  <entry producer="producer762" in="01:35:16.617" out="01:35:17.433">
   <property name="kdenlive:id">686</property>
  </entry>
  <entry producer="producer762" in="01:39:46.517" out="01:39:51.117">
   <property name="kdenlive:id">686</property>
  </entry>
  <entry producer="producer762" in="01:40:14.467" out="01:40:18.950">
   <property name="kdenlive:id">686</property>
  </entry>
  <entry producer="producer762" in="01:40:47.300" out="01:40:51.733">
   <property name="kdenlive:id">686</property>
  </entry>
  <entry producer="producer762" in="01:40:57.133" out="01:40:58.433">
   <property name="kdenlive:id">686</property>
  </entry>
  <entry producer="producer762" in="01:43:34.600" out="01:43:36.133">
   <property name="kdenlive:id">686</property>
  </entry>
  <entry producer="producer762" in="01:44:00.433" out="01:44:09.900">
   <property name="kdenlive:id">686</property>
  </entry>
  <entry producer="producer762" in="01:44:29.400" out="01:44:31.433">
   <property name="kdenlive:id">686</property>
  </entry>
  <entry producer="producer762" in="01:44:53.733" out="01:44:55.117">
   <property name="kdenlive:id">686</property>
  </entry>
  <entry producer="producer762" in="01:44:55.133" out="01:44:56.517">
   <property name="kdenlive:id">686</property>
  </entry>
  <entry producer="producer762" in="01:45:27.283" out="01:45:30.867">
   <property name="kdenlive:id">686</property>
  </entry>
  <entry producer="producer762" in="01:45:31.917" out="01:45:34.667">
   <property name="kdenlive:id">686</property>
  </entry>
  <entry producer="producer762" in="01:46:58.700" out="01:47:00.850">
   <property name="kdenlive:id">686</property>
  </entry>
  <entry producer="producer762" in="01:48:07.483" out="01:48:10.817">
   <property name="kdenlive:id">686</property>
  </entry>
  <entry producer="producer762" in="01:48:13.933" out="01:48:14.667">
   <property name="kdenlive:id">686</property>
  </entry>
  <entry producer="producer762" in="01:48:18.233" out="01:48:19.517">
   <property name="kdenlive:id">686</property>
  </entry>
  <entry producer="producer762" in="01:48:33.950" out="01:48:36.117">
   <property name="kdenlive:id">686</property>
  </entry>
  <entry producer="producer762" in="01:48:39.183" out="01:48:40.050">
   <property name="kdenlive:id">686</property>
  </entry>
  <entry producer="producer762" in="01:48:46.133" out="01:48:47.533">
   <property name="kdenlive:id">686</property>
  </entry>
  <entry producer="producer762" in="01:49:34.250" out="01:49:35.117">
   <property name="kdenlive:id">686</property>
  </entry>
  <entry producer="producer762" in="01:49:36.633" out="01:49:37.500">
   <property name="kdenlive:id">686</property>
   <filter id="filter583">
    <property name="window">75</property>
    <property name="max_gain">20dB</property>
    <property name="level">00:00:00.000=10</property>
    <property name="mlt_service">volume</property>
    <property name="kdenlive_id">+10db</property>
    <property name="kdenlive:collapsed">0</property>
   </filter>
  </entry>
  <entry producer="producer762" in="01:49:41.850" out="01:49:43.883">
   <property name="kdenlive:id">686</property>
  </entry>
  <entry producer="producer762" in="01:50:18.900" out="01:50:19.767">
   <property name="kdenlive:id">686</property>
   <filter id="filter584">
    <property name="window">75</property>
    <property name="max_gain">20dB</property>
    <property name="level">00:00:00.000=10</property>
    <property name="mlt_service">volume</property>
    <property name="kdenlive_id">+10db</property>
    <property name="kdenlive:collapsed">0</property>
   </filter>
   <filter id="filter585">
    <property name="window">75</property>
    <property name="max_gain">20dB</property>
    <property name="level">00:00:00.000=10</property>
    <property name="mlt_service">volume</property>
    <property name="kdenlive_id">+10db</property>
    <property name="kdenlive:collapsed">0</property>
   </filter>
  </entry>
 </playlist>
 <playlist id="playlist9">
  <property name="kdenlive:audio_track">1</property>
 </playlist>
 <tractor id="tractor4" in="00:00:00.000" out="00:26:58.483">
  <property name="kdenlive:audio_track">1</property>
  <property name="kdenlive:trackheight">50</property>
  <property name="kdenlive:timeline_active">1</property>
  <property name="kdenlive:collapsed">0</property>
  <property name="kdenlive:thumbs_format"/>
  <property name="kdenlive:audio_rec"/>
  <track hide="video" producer="playlist8"/>
  <track hide="video" producer="playlist9"/>
  <filter id="filter586">
   <property name="window">75</property>
   <property name="max_gain">20dB</property>
   <property name="mlt_service">volume</property>
   <property name="internal_added">237</property>
   <property name="disable">1</property>
  </filter>
  <filter id="filter587">
   <property name="channel">-1</property>
   <property name="mlt_service">panner</property>
   <property name="internal_added">237</property>
   <property name="start">0.5</property>
   <property name="disable">1</property>
  </filter>
  <filter id="filter588">
   <property name="iec_scale">0</property>
   <property name="mlt_service">audiolevel</property>
   <property name="dbpeak">1</property>
   <property name="disable">1</property>
  </filter>
 </tractor>
 <producer id="producer763" in="00:00:00.000" out="00:00:03.833">
  <property name="length">231</property>
  <property name="eof">pause</property>
  <property name="resource">/home/federico/Nextcloud/Kden/EditingUT/Video/Intro/Yt/intro_nuova_2025.mkv</property>
  <property name="audio_index">1</property>
  <property name="video_index">0</property>
  <property name="mute_on_pause">0</property>
  <property name="mlt_service">avformat-novalidate</property>
  <property name="seekable">1</property>
  <property name="aspect_ratio">1</property>
  <property name="format">3</property>
  <property name="kdenlive:clipname"/>
  <property name="kdenlive:clip_type">0</property>
  <property name="kdenlive:folderid">577</property>
  <property name="kdenlive:id">579</property>
  <property name="kdenlive:file_size">738643</property>
  <property name="kdenlive:file_hash">d7c653594efa74c6ea3a2ff66ea3e890</property>
  <property name="kdenlive:audio_max1">171</property>
  <property name="xml">was here</property>
  <property name="meta.media.nb_streams">2</property>
  <property name="meta.media.0.stream.type">video</property>
  <property name="meta.media.0.stream.frame_rate">60</property>
  <property name="meta.media.0.stream.sample_aspect_ratio">1</property>
  <property name="meta.media.0.codec.width">1920</property>
  <property name="meta.media.0.codec.height">1080</property>
  <property name="meta.media.0.codec.rotate">0</property>
  <property name="meta.media.0.codec.pix_fmt">yuv420p</property>
  <property name="meta.media.0.codec.sample_aspect_ratio">1</property>
  <property name="meta.media.0.codec.colorspace">709</property>
  <property name="meta.media.0.codec.color_trc">1</property>
  <property name="meta.media.0.codec.name">h264</property>
  <property name="meta.media.0.codec.long_name">H.264 / AVC / MPEG-4 AVC / MPEG-4 part 10</property>
  <property name="meta.media.0.codec.bit_rate">0</property>
  <property name="meta.attr.0.stream.HANDLER_NAME.markup">VideoHandler</property>
  <property name="meta.attr.0.stream.VENDOR_ID.markup">[0][0][0][0]</property>
  <property name="meta.attr.0.stream.ENCODER.markup">Lavc60.31.102 libx264</property>
  <property name="meta.attr.0.stream.DURATION.markup">00:00:03.837000000</property>
  <property name="meta.media.1.stream.type">audio</property>
  <property name="meta.media.1.codec.sample_fmt">fltp</property>
  <property name="meta.media.1.codec.sample_rate">48000</property>
  <property name="meta.media.1.codec.channels">2</property>
  <property name="meta.media.1.codec.name">vorbis</property>
  <property name="meta.media.1.codec.long_name">Vorbis</property>
  <property name="meta.media.1.codec.bit_rate">0</property>
  <property name="meta.attr.1.stream.HANDLER_NAME.markup">SoundHandler</property>
  <property name="meta.attr.1.stream.VENDOR_ID.markup">[0][0][0][0]</property>
  <property name="meta.attr.1.stream.ENCODER.markup">Lavc60.31.102 libvorbis</property>
  <property name="meta.attr.1.stream.DURATION.markup">00:00:03.843000000</property>
  <property name="meta.attr.COMPATIBLE_BRANDS.markup">isomiso2avc1mp41</property>
  <property name="meta.attr.MAJOR_BRAND.markup">isom</property>
  <property name="meta.attr.MINOR_VERSION.markup">512</property>
  <property name="meta.attr.ENCODER.markup">Lavf60.16.100</property>
  <property name="meta.media.sample_aspect_num">1</property>
  <property name="meta.media.sample_aspect_den">1</property>
  <property name="meta.media.frame_rate_num">60</property>
  <property name="meta.media.frame_rate_den">1</property>
  <property name="meta.media.colorspace">709</property>
  <property name="meta.media.color_trc">1</property>
  <property name="meta.media.has_b_frames">2</property>
  <property name="meta.media.width">1920</property>
  <property name="meta.media.height">1080</property>
  <property name="meta.media.color_range">mpeg</property>
  <property name="meta.media.top_field_first">0</property>
  <property name="meta.media.progressive">1</property>
  <property name="set.test_audio">1</property>
  <property name="set.test_image">0</property>
 </producer>
 <producer id="producer764" in="00:00:00.000" out="02:55:15.583">
  <property name="length">630938</property>
  <property name="eof">pause</property>
  <property name="resource">/home/federico/Videos/Edit/Kden/ProxyRender/proxy/fe0d51893463e6190634030c49539660.mov</property>
  <property name="audio_index">1</property>
  <property name="video_index">0</property>
  <property name="mute_on_pause">0</property>
  <property name="mlt_service">avformat-novalidate</property>
  <property name="meta.media.nb_streams">2</property>
  <property name="meta.media.0.stream.type">video</property>
  <property name="meta.media.0.stream.frame_rate">59.9401</property>
  <property name="meta.media.0.stream.sample_aspect_ratio">1</property>
  <property name="meta.media.0.codec.width">640</property>
  <property name="meta.media.0.codec.height">360</property>
  <property name="meta.media.0.codec.rotate">0</property>
  <property name="meta.media.0.codec.pix_fmt">yuv420p</property>
  <property name="meta.media.0.codec.sample_aspect_ratio">1</property>
  <property name="meta.media.0.codec.colorspace">709</property>
  <property name="meta.media.0.codec.color_trc">1</property>
  <property name="meta.media.0.codec.name">h264</property>
  <property name="meta.media.0.codec.long_name">H.264 / AVC / MPEG-4 AVC / MPEG-4 part 10</property>
  <property name="meta.media.0.codec.bit_rate">5355740</property>
  <property name="meta.attr.0.stream.handler_name.markup">ISO Media file produced by Google Inc.</property>
  <property name="meta.attr.0.stream.vendor_id.markup">FFMP</property>
  <property name="meta.attr.0.stream.encoder.markup">Lavc59.18.100 libx264</property>
  <property name="meta.media.1.stream.type">audio</property>
  <property name="meta.media.1.codec.sample_fmt">fltp</property>
  <property name="meta.media.1.codec.sample_rate">48000</property>
  <property name="meta.media.1.codec.channels">2</property>
  <property name="meta.media.1.codec.name">aac</property>
  <property name="meta.media.1.codec.long_name">AAC (Advanced Audio Coding)</property>
  <property name="meta.media.1.codec.bit_rate">128722</property>
  <property name="meta.attr.1.stream.language.markup">eng</property>
  <property name="meta.attr.1.stream.handler_name.markup">SoundHandler</property>
  <property name="meta.attr.1.stream.vendor_id.markup">[0][0][0][0]</property>
  <property name="meta.attr.major_brand.markup">qt  </property>
  <property name="meta.attr.minor_version.markup">512</property>
  <property name="meta.attr.compatible_brands.markup">qt  </property>
  <property name="meta.attr.encoder.markup">Lavf59.16.100</property>
  <property name="seekable">1</property>
  <property name="meta.media.sample_aspect_num">1</property>
  <property name="meta.media.sample_aspect_den">1</property>
  <property name="aspect_ratio">1</property>
  <property name="format">3</property>
  <property name="kdenlive:clipname">1 - iudex hit - dark souls iii cinders  anima della sfida ii 1.mkv</property>
  <property name="kdenlive:clip_type">0</property>
  <property name="kdenlive:folderid">4</property>
  <property name="kdenlive:id">679</property>
  <property name="kdenlive:file_size">2828126290</property>
  <property name="kdenlive:file_hash">fe0d51893463e6190634030c49539660</property>
  <property name="kdenlive:audio_max1">212</property>
  <property name="kdenlive:proxy">/home/federico/Videos/Edit/Kden/ProxyRender/proxy/fe0d51893463e6190634030c49539660.mov</property>
  <property name="kdenlive:originalurl">/home/federico/Videos/Edit/Projects/DS3_cinders/5-Stream/1 - iudex hit - dark souls iii cinders  anima della sfida ii 1.mkv</property>
  <property name="kdenlive:original.mlt_type">producer</property>
  <property name="kdenlive:original.in">00:00:00.000</property>
  <property name="kdenlive:original.out">02:55:15.617</property>
  <property name="kdenlive:original.length">630938</property>
  <property name="kdenlive:original.eof">pause</property>
  <property name="kdenlive:original.resource">/home/federico/Videos/Edit/Projects/DS3_cinders/5-Stream/1 - iudex hit - dark souls iii cinders  anima della sfida ii 1.mkv</property>
  <property name="kdenlive:original.meta.media.nb_streams">2</property>
  <property name="kdenlive:original.meta.media.0.stream.type">video</property>
  <property name="kdenlive:original.meta.media.0.stream.frame_rate">59.9401</property>
  <property name="kdenlive:original.meta.media.0.stream.sample_aspect_ratio">0</property>
  <property name="kdenlive:original.meta.media.0.codec.width">1920</property>
  <property name="kdenlive:original.meta.media.0.codec.height">1080</property>
  <property name="kdenlive:original.meta.media.0.codec.rotate">0</property>
  <property name="kdenlive:original.meta.media.0.codec.pix_fmt">yuv420p</property>
  <property name="kdenlive:original.meta.media.0.codec.sample_aspect_ratio">0</property>
  <property name="kdenlive:original.meta.media.0.codec.colorspace">709</property>
  <property name="kdenlive:original.meta.media.0.codec.color_trc">1</property>
  <property name="kdenlive:original.meta.media.0.codec.name">libdav1d</property>
  <property name="kdenlive:original.meta.media.0.codec.long_name">dav1d AV1 decoder by VideoLAN</property>
  <property name="kdenlive:original.meta.media.0.codec.bit_rate">0</property>
  <property name="kdenlive:original.meta.attr.0.stream.HANDLER_NAME.markup">ISO Media file produced by Google Inc.</property>
  <property name="kdenlive:original.meta.attr.0.stream.VENDOR_ID.markup">[0][0][0][0]</property>
  <property name="kdenlive:original.meta.attr.0.stream.DURATION.markup">02:55:15.589000000</property>
  <property name="kdenlive:original.meta.media.1.stream.type">audio</property>
  <property name="kdenlive:original.meta.media.1.codec.sample_fmt">fltp</property>
  <property name="kdenlive:original.meta.media.1.codec.sample_rate">48000</property>
  <property name="kdenlive:original.meta.media.1.codec.channels">2</property>
  <property name="kdenlive:original.meta.media.1.codec.name">opus</property>
  <property name="kdenlive:original.meta.media.1.codec.long_name">Opus</property>
  <property name="kdenlive:original.meta.media.1.codec.bit_rate">0</property>
  <property name="kdenlive:original.meta.attr.1.stream.language.markup">eng</property>
  <property name="kdenlive:original.meta.attr.1.stream.DURATION.markup">02:55:15.628000000</property>
  <property name="kdenlive:original.meta.attr.COMPATIBLE_BRANDS.markup">iso6av01mp41</property>
  <property name="kdenlive:original.meta.attr.MAJOR_BRAND.markup">dash</property>
  <property name="kdenlive:original.meta.attr.MINOR_VERSION.markup">0</property>
  <property name="kdenlive:original.meta.attr.ENCODER.markup">Lavf60.16.100</property>
  <property name="kdenlive:original.seekable">1</property>
  <property name="kdenlive:original.width">1920</property>
  <property name="kdenlive:original.height">1080</property>
  <property name="kdenlive:original.meta.media.sample_aspect_num">1</property>
  <property name="kdenlive:original.meta.media.sample_aspect_den">1</property>
  <property name="kdenlive:original.aspect_ratio">1</property>
  <property name="kdenlive:original.format">3</property>
  <property name="kdenlive:original.audio_index">1</property>
  <property name="kdenlive:original.video_index">0</property>
  <property name="kdenlive:original.mute_on_pause">0</property>
  <property name="kdenlive:original.mlt_service">avformat-novalidate</property>
  <property name="kdenlive:original.meta.media.frame_rate_num">60000</property>
  <property name="kdenlive:original.meta.media.frame_rate_den">1001</property>
  <property name="kdenlive:original.meta.media.colorspace">709</property>
  <property name="kdenlive:original.meta.media.color_trc">1</property>
  <property name="kdenlive:original.meta.media.has_b_frames">0</property>
  <property name="kdenlive:original.meta.media.width">1920</property>
  <property name="kdenlive:original.meta.media.height">1080</property>
  <property name="kdenlive:original.meta.media.color_range">mpeg</property>
  <property name="kdenlive:original.meta.media.top_field_first">0</property>
  <property name="kdenlive:original.meta.media.progressive">1</property>
  <property name="kdenlive:original.kdenlive:clip_type">0</property>
  <property name="kdenlive:original.kdenlive:folderid">4</property>
  <property name="kdenlive:original.kdenlive:id">679</property>
  <property name="kdenlive:original.kdenlive:file_size">2828126290</property>
  <property name="kdenlive:original.kdenlive:file_hash">fe0d51893463e6190634030c49539660</property>
  <property name="kdenlive:original.kdenlive:audio_max1">212</property>
  <property name="kdenlive:original.backup">1</property>
  <property name="xml">was here</property>
  <property name="meta.media.frame_rate_num">19001</property>
  <property name="meta.media.frame_rate_den">317</property>
  <property name="meta.media.colorspace">709</property>
  <property name="meta.media.color_trc">1</property>
  <property name="meta.media.has_b_frames">0</property>
  <property name="meta.media.width">640</property>
  <property name="meta.media.height">360</property>
  <property name="meta.media.color_range">mpeg</property>
  <property name="meta.media.top_field_first">0</property>
  <property name="meta.media.progressive">1</property>
  <property name="set.test_audio">1</property>
  <property name="set.test_image">0</property>
 </producer>
 <producer id="producer765" in="00:00:00.000" out="00:00:32.400">
  <property name="length">1951</property>
  <property name="eof">pause</property>
  <property name="resource">323.462000:/home/federico/Videos/Edit/Kden/ProxyRender/proxy/fe0d51893463e6190634030c49539660.mov</property>
  <property name="aspect_ratio">1</property>
  <property name="meta.media.nb_streams">2</property>
  <property name="meta.media.0.stream.type">video</property>
  <property name="meta.media.0.stream.frame_rate">59.9401</property>
  <property name="meta.media.0.stream.sample_aspect_ratio">1</property>
  <property name="meta.media.0.codec.width">640</property>
  <property name="meta.media.0.codec.height">360</property>
  <property name="meta.media.0.codec.rotate">0</property>
  <property name="meta.media.0.codec.pix_fmt">yuv420p</property>
  <property name="meta.media.0.codec.sample_aspect_ratio">1</property>
  <property name="meta.media.0.codec.colorspace">709</property>
  <property name="meta.media.0.codec.color_trc">1</property>
  <property name="meta.media.0.codec.name">h264</property>
  <property name="meta.media.0.codec.long_name">H.264 / AVC / MPEG-4 AVC / MPEG-4 part 10</property>
  <property name="meta.media.0.codec.bit_rate">5355740</property>
  <property name="meta.attr.0.stream.handler_name.markup">ISO Media file produced by Google Inc.</property>
  <property name="meta.attr.0.stream.vendor_id.markup">FFMP</property>
  <property name="meta.attr.0.stream.encoder.markup">Lavc59.18.100 libx264</property>
  <property name="meta.media.1.stream.type">audio</property>
  <property name="meta.media.1.codec.sample_fmt">fltp</property>
  <property name="meta.media.1.codec.sample_rate">48000</property>
  <property name="meta.media.1.codec.channels">2</property>
  <property name="meta.media.1.codec.name">aac</property>
  <property name="meta.media.1.codec.long_name">AAC (Advanced Audio Coding)</property>
  <property name="meta.media.1.codec.bit_rate">128722</property>
  <property name="meta.attr.1.stream.language.markup">eng</property>
  <property name="meta.attr.1.stream.handler_name.markup">SoundHandler</property>
  <property name="meta.attr.1.stream.vendor_id.markup">[0][0][0][0]</property>
  <property name="meta.attr.major_brand.markup">qt  </property>
  <property name="meta.attr.minor_version.markup">512</property>
  <property name="meta.attr.compatible_brands.markup">qt  </property>
  <property name="meta.attr.encoder.markup">Lavf59.16.100</property>
  <property name="seekable">1</property>
  <property name="meta.media.sample_aspect_num">1</property>
  <property name="meta.media.sample_aspect_den">1</property>
  <property name="audio_index">1</property>
  <property name="video_index">0</property>
  <property name="mute_on_pause">1</property>
  <property name="warp_speed">323.462</property>
  <property name="warp_resource">/home/federico/Videos/Edit/Kden/ProxyRender/proxy/fe0d51893463e6190634030c49539660.mov</property>
  <property name="mlt_service">timewarp</property>
  <property name="kdenlive:proxy">/home/federico/Videos/Edit/Kden/ProxyRender/proxy/fe0d51893463e6190634030c49539660.mov</property>
  <property name="kdenlive:originalurl">/home/federico/Videos/Edit/Projects/DS3_cinders/5-Stream/1 - iudex hit - dark souls iii cinders  anima della sfida ii 1.mkv</property>
  <property name="set.test_audio">1</property>
  <property name="set.test_image">0</property>
  <property name="kdenlive:id">679</property>
  <property name="warp_pitch">0</property>
  <property name="meta.media.frame_rate_num">19001</property>
  <property name="meta.media.frame_rate_den">317</property>
  <property name="meta.media.colorspace">709</property>
  <property name="meta.media.color_trc">1</property>
  <property name="meta.media.has_b_frames">0</property>
  <property name="meta.media.width">640</property>
  <property name="meta.media.height">360</property>
  <property name="meta.media.color_range">mpeg</property>
  <property name="meta.media.top_field_first">0</property>
  <property name="meta.media.progressive">1</property>
 </producer>
 <producer id="producer766" in="00:00:00.000" out="02:50:28.900">
  <property name="length">613736</property>
  <property name="eof">pause</property>
  <property name="resource">/home/federico/Videos/Edit/Kden/ProxyRender/proxy/f6918f2d79882f9391f2f765ac219be5.mov</property>
  <property name="audio_index">1</property>
  <property name="video_index">0</property>
  <property name="mute_on_pause">0</property>
  <property name="mlt_service">avformat-novalidate</property>
  <property name="meta.media.nb_streams">2</property>
  <property name="meta.media.0.stream.type">video</property>
  <property name="meta.media.0.stream.frame_rate">60</property>
  <property name="meta.media.0.stream.sample_aspect_ratio">1</property>
  <property name="meta.media.0.codec.width">640</property>
  <property name="meta.media.0.codec.height">360</property>
  <property name="meta.media.0.codec.rotate">0</property>
  <property name="meta.media.0.codec.pix_fmt">yuv420p</property>
  <property name="meta.media.0.codec.sample_aspect_ratio">1</property>
  <property name="meta.media.0.codec.colorspace">709</property>
  <property name="meta.media.0.codec.color_trc">1</property>
  <property name="meta.media.0.codec.name">h264</property>
  <property name="meta.media.0.codec.long_name">H.264 / AVC / MPEG-4 AVC / MPEG-4 part 10</property>
  <property name="meta.media.0.codec.bit_rate">5791824</property>
  <property name="meta.attr.0.stream.handler_name.markup">ISO Media file produced by Google Inc.</property>
  <property name="meta.attr.0.stream.vendor_id.markup">FFMP</property>
  <property name="meta.attr.0.stream.encoder.markup">Lavc59.18.100 libx264</property>
  <property name="meta.media.1.stream.type">audio</property>
  <property name="meta.media.1.codec.sample_fmt">fltp</property>
  <property name="meta.media.1.codec.sample_rate">48000</property>
  <property name="meta.media.1.codec.channels">2</property>
  <property name="meta.media.1.codec.name">aac</property>
  <property name="meta.media.1.codec.long_name">AAC (Advanced Audio Coding)</property>
  <property name="meta.media.1.codec.bit_rate">128878</property>
  <property name="meta.attr.1.stream.language.markup">eng</property>
  <property name="meta.attr.1.stream.handler_name.markup">SoundHandler</property>
  <property name="meta.attr.1.stream.vendor_id.markup">[0][0][0][0]</property>
  <property name="meta.attr.major_brand.markup">qt  </property>
  <property name="meta.attr.minor_version.markup">512</property>
  <property name="meta.attr.compatible_brands.markup">qt  </property>
  <property name="meta.attr.encoder.markup">Lavf59.16.100</property>
  <property name="seekable">1</property>
  <property name="meta.media.sample_aspect_num">1</property>
  <property name="meta.media.sample_aspect_den">1</property>
  <property name="aspect_ratio">1</property>
  <property name="format">3</property>
  <property name="kdenlive:clipname">2 - mod of chaos - dark souls iii cinders  anima della sfida ii 2.mkv</property>
  <property name="kdenlive:clip_type">0</property>
  <property name="kdenlive:folderid">4</property>
  <property name="kdenlive:id">680</property>
  <property name="kdenlive:file_size">3761357757</property>
  <property name="kdenlive:file_hash">f6918f2d79882f9391f2f765ac219be5</property>
  <property name="kdenlive:proxy">/home/federico/Videos/Edit/Kden/ProxyRender/proxy/f6918f2d79882f9391f2f765ac219be5.mov</property>
  <property name="kdenlive:originalurl">/home/federico/Videos/Edit/Projects/DS3_cinders/5-Stream/2 - mod of chaos - dark souls iii cinders  anima della sfida ii 2.mkv</property>
  <property name="kdenlive:original.mlt_type">producer</property>
  <property name="kdenlive:original.in">00:00:00.000</property>
  <property name="kdenlive:original.out">02:50:28.917</property>
  <property name="kdenlive:original.length">613736</property>
  <property name="kdenlive:original.eof">pause</property>
  <property name="kdenlive:original.resource">/home/federico/Videos/Edit/Projects/DS3_cinders/5-Stream/2 - mod of chaos - dark souls iii cinders  anima della sfida ii 2.mkv</property>
  <property name="kdenlive:original.meta.media.nb_streams">2</property>
  <property name="kdenlive:original.meta.media.0.stream.type">video</property>
  <property name="kdenlive:original.meta.media.0.stream.frame_rate">60</property>
  <property name="kdenlive:original.meta.media.0.stream.sample_aspect_ratio">0</property>
  <property name="kdenlive:original.meta.media.0.codec.width">1920</property>
  <property name="kdenlive:original.meta.media.0.codec.height">1080</property>
  <property name="kdenlive:original.meta.media.0.codec.rotate">0</property>
  <property name="kdenlive:original.meta.media.0.codec.pix_fmt">yuv420p</property>
  <property name="kdenlive:original.meta.media.0.codec.sample_aspect_ratio">0</property>
  <property name="kdenlive:original.meta.media.0.codec.colorspace">709</property>
  <property name="kdenlive:original.meta.media.0.codec.color_trc">1</property>
  <property name="kdenlive:original.meta.media.0.codec.name">libdav1d</property>
  <property name="kdenlive:original.meta.media.0.codec.long_name">dav1d AV1 decoder by VideoLAN</property>
  <property name="kdenlive:original.meta.media.0.codec.bit_rate">0</property>
  <property name="kdenlive:original.meta.attr.0.stream.HANDLER_NAME.markup">ISO Media file produced by Google Inc.</property>
  <property name="kdenlive:original.meta.attr.0.stream.VENDOR_ID.markup">[0][0][0][0]</property>
  <property name="kdenlive:original.meta.attr.0.stream.DURATION.markup">02:50:28.900000000</property>
  <property name="kdenlive:original.meta.media.1.stream.type">audio</property>
  <property name="kdenlive:original.meta.media.1.codec.sample_fmt">fltp</property>
  <property name="kdenlive:original.meta.media.1.codec.sample_rate">48000</property>
  <property name="kdenlive:original.meta.media.1.codec.channels">2</property>
  <property name="kdenlive:original.meta.media.1.codec.name">opus</property>
  <property name="kdenlive:original.meta.media.1.codec.long_name">Opus</property>
  <property name="kdenlive:original.meta.media.1.codec.bit_rate">0</property>
  <property name="kdenlive:original.meta.attr.1.stream.language.markup">eng</property>
  <property name="kdenlive:original.meta.attr.1.stream.DURATION.markup">02:50:28.928000000</property>
  <property name="kdenlive:original.meta.attr.COMPATIBLE_BRANDS.markup">iso6av01mp41</property>
  <property name="kdenlive:original.meta.attr.MAJOR_BRAND.markup">dash</property>
  <property name="kdenlive:original.meta.attr.MINOR_VERSION.markup">0</property>
  <property name="kdenlive:original.meta.attr.ENCODER.markup">Lavf60.16.100</property>
  <property name="kdenlive:original.seekable">1</property>
  <property name="kdenlive:original.width">1920</property>
  <property name="kdenlive:original.height">1080</property>
  <property name="kdenlive:original.meta.media.sample_aspect_num">1</property>
  <property name="kdenlive:original.meta.media.sample_aspect_den">1</property>
  <property name="kdenlive:original.aspect_ratio">1</property>
  <property name="kdenlive:original.format">3</property>
  <property name="kdenlive:original.audio_index">1</property>
  <property name="kdenlive:original.video_index">0</property>
  <property name="kdenlive:original.mute_on_pause">0</property>
  <property name="kdenlive:original.mlt_service">avformat-novalidate</property>
  <property name="kdenlive:original.meta.media.frame_rate_num">60</property>
  <property name="kdenlive:original.meta.media.frame_rate_den">1</property>
  <property name="kdenlive:original.meta.media.colorspace">709</property>
  <property name="kdenlive:original.meta.media.color_trc">1</property>
  <property name="kdenlive:original.meta.media.has_b_frames">0</property>
  <property name="kdenlive:original.meta.media.width">1920</property>
  <property name="kdenlive:original.meta.media.height">1080</property>
  <property name="kdenlive:original.meta.media.color_range">mpeg</property>
  <property name="kdenlive:original.meta.media.top_field_first">0</property>
  <property name="kdenlive:original.meta.media.progressive">1</property>
  <property name="kdenlive:original.kdenlive:clip_type">0</property>
  <property name="kdenlive:original.kdenlive:folderid">4</property>
  <property name="kdenlive:original.kdenlive:id">680</property>
  <property name="kdenlive:original.kdenlive:file_size">3761357757</property>
  <property name="kdenlive:original.kdenlive:file_hash">f6918f2d79882f9391f2f765ac219be5</property>
  <property name="kdenlive:original.backup">1</property>
  <property name="kdenlive:audio_max1">206</property>
  <property name="xml">was here</property>
  <property name="meta.media.frame_rate_num">60</property>
  <property name="meta.media.frame_rate_den">1</property>
  <property name="meta.media.colorspace">709</property>
  <property name="meta.media.color_trc">1</property>
  <property name="meta.media.has_b_frames">0</property>
  <property name="meta.media.width">640</property>
  <property name="meta.media.height">360</property>
  <property name="meta.media.color_range">mpeg</property>
  <property name="meta.media.top_field_first">0</property>
  <property name="meta.media.progressive">1</property>
  <property name="set.test_audio">1</property>
  <property name="set.test_image">0</property>
 </producer>
 <producer id="producer767" in="00:00:00.000" out="02:11:32.800">
  <property name="length">473570</property>
  <property name="eof">pause</property>
  <property name="resource">/home/federico/Videos/Edit/Kden/ProxyRender/proxy/e297f2e0f7ae15f1f6c3e6c7a3b137c7.mov</property>
  <property name="audio_index">1</property>
  <property name="video_index">0</property>
  <property name="mute_on_pause">0</property>
  <property name="mlt_service">avformat-novalidate</property>
  <property name="meta.media.nb_streams">2</property>
  <property name="meta.media.0.stream.type">video</property>
  <property name="meta.media.0.stream.frame_rate">59.9401</property>
  <property name="meta.media.0.stream.sample_aspect_ratio">1</property>
  <property name="meta.media.0.codec.width">640</property>
  <property name="meta.media.0.codec.height">360</property>
  <property name="meta.media.0.codec.rotate">0</property>
  <property name="meta.media.0.codec.pix_fmt">yuv420p</property>
  <property name="meta.media.0.codec.sample_aspect_ratio">1</property>
  <property name="meta.media.0.codec.colorspace">709</property>
  <property name="meta.media.0.codec.color_trc">1</property>
  <property name="meta.media.0.codec.name">h264</property>
  <property name="meta.media.0.codec.long_name">H.264 / AVC / MPEG-4 AVC / MPEG-4 part 10</property>
  <property name="meta.media.0.codec.bit_rate">5565045</property>
  <property name="meta.attr.0.stream.handler_name.markup">ISO Media file produced by Google Inc.</property>
  <property name="meta.attr.0.stream.vendor_id.markup">FFMP</property>
  <property name="meta.attr.0.stream.encoder.markup">Lavc59.18.100 libx264</property>
  <property name="meta.media.1.stream.type">audio</property>
  <property name="meta.media.1.codec.sample_fmt">fltp</property>
  <property name="meta.media.1.codec.sample_rate">48000</property>
  <property name="meta.media.1.codec.channels">2</property>
  <property name="meta.media.1.codec.name">aac</property>
  <property name="meta.media.1.codec.long_name">AAC (Advanced Audio Coding)</property>
  <property name="meta.media.1.codec.bit_rate">128838</property>
  <property name="meta.attr.1.stream.language.markup">eng</property>
  <property name="meta.attr.1.stream.handler_name.markup">SoundHandler</property>
  <property name="meta.attr.1.stream.vendor_id.markup">[0][0][0][0]</property>
  <property name="meta.attr.major_brand.markup">qt  </property>
  <property name="meta.attr.minor_version.markup">512</property>
  <property name="meta.attr.compatible_brands.markup">qt  </property>
  <property name="meta.attr.encoder.markup">Lavf59.16.100</property>
  <property name="seekable">1</property>
  <property name="meta.media.sample_aspect_num">1</property>
  <property name="meta.media.sample_aspect_den">1</property>
  <property name="aspect_ratio">1</property>
  <property name="format">3</property>
  <property name="kdenlive:clipname">3 - dark souls iii cinders  anima della sfida ii 3.mkv</property>
  <property name="kdenlive:clip_type">0</property>
  <property name="kdenlive:folderid">4</property>
  <property name="kdenlive:id">681</property>
  <property name="kdenlive:file_size">3370680153</property>
  <property name="kdenlive:file_hash">e297f2e0f7ae15f1f6c3e6c7a3b137c7</property>
  <property name="kdenlive:proxy">/home/federico/Videos/Edit/Kden/ProxyRender/proxy/e297f2e0f7ae15f1f6c3e6c7a3b137c7.mov</property>
  <property name="kdenlive:originalurl">/home/federico/Videos/Edit/Projects/DS3_cinders/5-Stream/3 - dark souls iii cinders  anima della sfida ii 3.mkv</property>
  <property name="kdenlive:original.mlt_type">producer</property>
  <property name="kdenlive:original.in">00:00:00.000</property>
  <property name="kdenlive:original.out">02:11:32.817</property>
  <property name="kdenlive:original.length">473570</property>
  <property name="kdenlive:original.eof">pause</property>
  <property name="kdenlive:original.resource">/home/federico/Videos/Edit/Projects/DS3_cinders/5-Stream/3 - dark souls iii cinders  anima della sfida ii 3.mkv</property>
  <property name="kdenlive:original.meta.media.nb_streams">2</property>
  <property name="kdenlive:original.meta.media.0.stream.type">video</property>
  <property name="kdenlive:original.meta.media.0.stream.frame_rate">59.9401</property>
  <property name="kdenlive:original.meta.media.0.stream.sample_aspect_ratio">0</property>
  <property name="kdenlive:original.meta.media.0.codec.width">1920</property>
  <property name="kdenlive:original.meta.media.0.codec.height">1080</property>
  <property name="kdenlive:original.meta.media.0.codec.rotate">0</property>
  <property name="kdenlive:original.meta.media.0.codec.pix_fmt">yuv420p</property>
  <property name="kdenlive:original.meta.media.0.codec.sample_aspect_ratio">0</property>
  <property name="kdenlive:original.meta.media.0.codec.colorspace">709</property>
  <property name="kdenlive:original.meta.media.0.codec.color_trc">1</property>
  <property name="kdenlive:original.meta.media.0.codec.name">libdav1d</property>
  <property name="kdenlive:original.meta.media.0.codec.long_name">dav1d AV1 decoder by VideoLAN</property>
  <property name="kdenlive:original.meta.media.0.codec.bit_rate">0</property>
  <property name="kdenlive:original.meta.attr.0.stream.HANDLER_NAME.markup">ISO Media file produced by Google Inc.</property>
  <property name="kdenlive:original.meta.attr.0.stream.VENDOR_ID.markup">[0][0][0][0]</property>
  <property name="kdenlive:original.meta.attr.0.stream.DURATION.markup">02:11:32.802000000</property>
  <property name="kdenlive:original.meta.media.1.stream.type">audio</property>
  <property name="kdenlive:original.meta.media.1.codec.sample_fmt">fltp</property>
  <property name="kdenlive:original.meta.media.1.codec.sample_rate">48000</property>
  <property name="kdenlive:original.meta.media.1.codec.channels">2</property>
  <property name="kdenlive:original.meta.media.1.codec.name">opus</property>
  <property name="kdenlive:original.meta.media.1.codec.long_name">Opus</property>
  <property name="kdenlive:original.meta.media.1.codec.bit_rate">0</property>
  <property name="kdenlive:original.meta.attr.1.stream.language.markup">eng</property>
  <property name="kdenlive:original.meta.attr.1.stream.DURATION.markup">02:11:32.828000000</property>
  <property name="kdenlive:original.meta.attr.COMPATIBLE_BRANDS.markup">iso6av01mp41</property>
  <property name="kdenlive:original.meta.attr.MAJOR_BRAND.markup">dash</property>
  <property name="kdenlive:original.meta.attr.MINOR_VERSION.markup">0</property>
  <property name="kdenlive:original.meta.attr.ENCODER.markup">Lavf60.16.100</property>
  <property name="kdenlive:original.seekable">1</property>
  <property name="kdenlive:original.width">1920</property>
  <property name="kdenlive:original.height">1080</property>
  <property name="kdenlive:original.meta.media.sample_aspect_num">1</property>
  <property name="kdenlive:original.meta.media.sample_aspect_den">1</property>
  <property name="kdenlive:original.aspect_ratio">1</property>
  <property name="kdenlive:original.format">3</property>
  <property name="kdenlive:original.audio_index">1</property>
  <property name="kdenlive:original.video_index">0</property>
  <property name="kdenlive:original.mute_on_pause">0</property>
  <property name="kdenlive:original.mlt_service">avformat-novalidate</property>
  <property name="kdenlive:original.meta.media.frame_rate_num">60000</property>
  <property name="kdenlive:original.meta.media.frame_rate_den">1001</property>
  <property name="kdenlive:original.meta.media.colorspace">709</property>
  <property name="kdenlive:original.meta.media.color_trc">1</property>
  <property name="kdenlive:original.meta.media.has_b_frames">0</property>
  <property name="kdenlive:original.meta.media.width">1920</property>
  <property name="kdenlive:original.meta.media.height">1080</property>
  <property name="kdenlive:original.meta.media.color_range">mpeg</property>
  <property name="kdenlive:original.meta.media.top_field_first">0</property>
  <property name="kdenlive:original.meta.media.progressive">1</property>
  <property name="kdenlive:original.kdenlive:clip_type">0</property>
  <property name="kdenlive:original.kdenlive:folderid">4</property>
  <property name="kdenlive:original.kdenlive:id">681</property>
  <property name="kdenlive:original.kdenlive:file_size">3370680153</property>
  <property name="kdenlive:original.kdenlive:file_hash">e297f2e0f7ae15f1f6c3e6c7a3b137c7</property>
  <property name="kdenlive:original.backup">1</property>
  <property name="kdenlive:audio_max1">203</property>
  <property name="xml">was here</property>
  <property name="meta.media.frame_rate_num">19001</property>
  <property name="meta.media.frame_rate_den">317</property>
  <property name="meta.media.colorspace">709</property>
  <property name="meta.media.color_trc">1</property>
  <property name="meta.media.has_b_frames">0</property>
  <property name="meta.media.width">640</property>
  <property name="meta.media.height">360</property>
  <property name="meta.media.color_range">mpeg</property>
  <property name="meta.media.top_field_first">0</property>
  <property name="meta.media.progressive">1</property>
  <property name="set.test_audio">1</property>
  <property name="set.test_image">0</property>
 </producer>
 <producer id="producer768" in="00:00:00.000" out="02:31:23.133">
  <property name="length">544990</property>
  <property name="eof">pause</property>
  <property name="resource">/home/federico/Videos/Edit/Kden/ProxyRender/proxy/ca27a9d972c9214920a1b80c39287441.mov</property>
  <property name="audio_index">1</property>
  <property name="video_index">0</property>
  <property name="mute_on_pause">0</property>
  <property name="mlt_service">avformat-novalidate</property>
  <property name="seekable">1</property>
  <property name="aspect_ratio">1</property>
  <property name="format">3</property>
  <property name="kdenlive:clipname">4 - sleep issue - dark souls iii cinders  anima della sfida ii 4.mkv</property>
  <property name="kdenlive:clip_type">0</property>
  <property name="kdenlive:folderid">4</property>
  <property name="kdenlive:id">682</property>
  <property name="kdenlive:file_size">3681493931</property>
  <property name="kdenlive:file_hash">ca27a9d972c9214920a1b80c39287441</property>
  <property name="kdenlive:proxy">/home/federico/Videos/Edit/Kden/ProxyRender/proxy/ca27a9d972c9214920a1b80c39287441.mov</property>
  <property name="kdenlive:originalurl">/home/federico/Videos/Edit/Projects/DS3_cinders/5-Stream/4 - sleep issue - dark souls iii cinders  anima della sfida ii 4.mkv</property>
  <property name="kdenlive:original.mlt_type">producer</property>
  <property name="kdenlive:original.in">00:00:00.000</property>
  <property name="kdenlive:original.out">02:31:23.150</property>
  <property name="kdenlive:original.length">544990</property>
  <property name="kdenlive:original.eof">pause</property>
  <property name="kdenlive:original.resource">/home/federico/Videos/Edit/Projects/DS3_cinders/5-Stream/4 - sleep issue - dark souls iii cinders  anima della sfida ii 4.mkv</property>
  <property name="kdenlive:original.meta.media.nb_streams">2</property>
  <property name="kdenlive:original.meta.media.0.stream.type">video</property>
  <property name="kdenlive:original.meta.media.0.stream.frame_rate">60</property>
  <property name="kdenlive:original.meta.media.0.stream.sample_aspect_ratio">1</property>
  <property name="kdenlive:original.meta.media.0.codec.width">1920</property>
  <property name="kdenlive:original.meta.media.0.codec.height">1080</property>
  <property name="kdenlive:original.meta.media.0.codec.rotate">0</property>
  <property name="kdenlive:original.meta.media.0.codec.pix_fmt">yuv420p</property>
  <property name="kdenlive:original.meta.media.0.codec.sample_aspect_ratio">0</property>
  <property name="kdenlive:original.meta.media.0.codec.colorspace">709</property>
  <property name="kdenlive:original.meta.media.0.codec.color_trc">1</property>
  <property name="kdenlive:original.meta.media.0.codec.name">vp9</property>
  <property name="kdenlive:original.meta.media.0.codec.long_name">Google VP9</property>
  <property name="kdenlive:original.meta.media.0.codec.bit_rate">0</property>
  <property name="kdenlive:original.meta.attr.0.stream.language.markup">eng</property>
  <property name="kdenlive:original.meta.attr.0.stream.DURATION.markup">02:31:23.116000000</property>
  <property name="kdenlive:original.meta.media.1.stream.type">audio</property>
  <property name="kdenlive:original.meta.media.1.codec.sample_fmt">fltp</property>
  <property name="kdenlive:original.meta.media.1.codec.sample_rate">48000</property>
  <property name="kdenlive:original.meta.media.1.codec.channels">2</property>
  <property name="kdenlive:original.meta.media.1.codec.name">opus</property>
  <property name="kdenlive:original.meta.media.1.codec.long_name">Opus</property>
  <property name="kdenlive:original.meta.media.1.codec.bit_rate">0</property>
  <property name="kdenlive:original.meta.attr.1.stream.language.markup">eng</property>
  <property name="kdenlive:original.meta.attr.1.stream.DURATION.markup">02:31:23.168000000</property>
  <property name="kdenlive:original.meta.attr.ENCODER.markup">Lavf60.16.100</property>
  <property name="kdenlive:original.seekable">1</property>
  <property name="kdenlive:original.width">1920</property>
  <property name="kdenlive:original.height">1080</property>
  <property name="kdenlive:original.meta.media.sample_aspect_num">1</property>
  <property name="kdenlive:original.meta.media.sample_aspect_den">1</property>
  <property name="kdenlive:original.aspect_ratio">1</property>
  <property name="kdenlive:original.format">3</property>
  <property name="kdenlive:original.audio_index">1</property>
  <property name="kdenlive:original.video_index">0</property>
  <property name="kdenlive:original.mute_on_pause">0</property>
  <property name="kdenlive:original.mlt_service">avformat-novalidate</property>
  <property name="kdenlive:original.meta.media.frame_rate_num">60</property>
  <property name="kdenlive:original.meta.media.frame_rate_den">1</property>
  <property name="kdenlive:original.meta.media.colorspace">709</property>
  <property name="kdenlive:original.meta.media.color_trc">1</property>
  <property name="kdenlive:original.meta.media.has_b_frames">0</property>
  <property name="kdenlive:original.meta.media.width">1920</property>
  <property name="kdenlive:original.meta.media.height">1080</property>
  <property name="kdenlive:original.meta.media.color_range">mpeg</property>
  <property name="kdenlive:original.meta.media.top_field_first">0</property>
  <property name="kdenlive:original.meta.media.progressive">1</property>
  <property name="kdenlive:original.kdenlive:clip_type">0</property>
  <property name="kdenlive:original.kdenlive:folderid">4</property>
  <property name="kdenlive:original.kdenlive:id">682</property>
  <property name="kdenlive:original.kdenlive:file_size">3681493931</property>
  <property name="kdenlive:original.kdenlive:file_hash">ca27a9d972c9214920a1b80c39287441</property>
  <property name="kdenlive:original.backup">1</property>
  <property name="kdenlive:audio_max1">205</property>
  <property name="xml">was here</property>
  <property name="meta.media.nb_streams">2</property>
  <property name="meta.media.0.stream.type">video</property>
  <property name="meta.media.0.stream.frame_rate">60</property>
  <property name="meta.media.0.stream.sample_aspect_ratio">1</property>
  <property name="meta.media.0.codec.width">640</property>
  <property name="meta.media.0.codec.height">360</property>
  <property name="meta.media.0.codec.rotate">0</property>
  <property name="meta.media.0.codec.pix_fmt">yuv420p</property>
  <property name="meta.media.0.codec.sample_aspect_ratio">1</property>
  <property name="meta.media.0.codec.colorspace">709</property>
  <property name="meta.media.0.codec.color_trc">1</property>
  <property name="meta.media.0.codec.name">h264</property>
  <property name="meta.media.0.codec.long_name">H.264 / AVC / MPEG-4 AVC / MPEG-4 part 10</property>
  <property name="meta.media.0.codec.bit_rate">5391916</property>
  <property name="meta.attr.0.stream.language.markup">eng</property>
  <property name="meta.attr.0.stream.handler_name.markup">VideoHandler</property>
  <property name="meta.attr.0.stream.vendor_id.markup">FFMP</property>
  <property name="meta.attr.0.stream.encoder.markup">Lavc59.18.100 libx264</property>
  <property name="meta.media.1.stream.type">audio</property>
  <property name="meta.media.1.codec.sample_fmt">fltp</property>
  <property name="meta.media.1.codec.sample_rate">48000</property>
  <property name="meta.media.1.codec.channels">2</property>
  <property name="meta.media.1.codec.name">aac</property>
  <property name="meta.media.1.codec.long_name">AAC (Advanced Audio Coding)</property>
  <property name="meta.media.1.codec.bit_rate">129930</property>
  <property name="meta.attr.1.stream.language.markup">eng</property>
  <property name="meta.attr.1.stream.handler_name.markup">SoundHandler</property>
  <property name="meta.attr.1.stream.vendor_id.markup">[0][0][0][0]</property>
  <property name="meta.attr.major_brand.markup">qt  </property>
  <property name="meta.attr.minor_version.markup">512</property>
  <property name="meta.attr.compatible_brands.markup">qt  </property>
  <property name="meta.attr.encoder.markup">Lavf59.16.100</property>
  <property name="meta.media.sample_aspect_num">1</property>
  <property name="meta.media.sample_aspect_den">1</property>
  <property name="meta.media.frame_rate_num">60</property>
  <property name="meta.media.frame_rate_den">1</property>
  <property name="meta.media.colorspace">709</property>
  <property name="meta.media.color_trc">1</property>
  <property name="meta.media.has_b_frames">0</property>
  <property name="meta.media.width">640</property>
  <property name="meta.media.height">360</property>
  <property name="meta.media.color_range">mpeg</property>
  <property name="meta.media.top_field_first">0</property>
  <property name="meta.media.progressive">1</property>
  <property name="set.test_audio">1</property>
  <property name="set.test_image">0</property>
 </producer>
 <producer id="producer769" in="00:00:00.000" out="02:31:23.133">
  <property name="length">544990</property>
  <property name="eof">pause</property>
  <property name="resource">/home/federico/Videos/Edit/Kden/ProxyRender/proxy/ca27a9d972c9214920a1b80c39287441.mov</property>
  <property name="audio_index">1</property>
  <property name="video_index">0</property>
  <property name="mute_on_pause">0</property>
  <property name="mlt_service">avformat-novalidate</property>
  <property name="seekable">1</property>
  <property name="aspect_ratio">1</property>
  <property name="format">3</property>
  <property name="kdenlive:clipname">4 - sleep issue - dark souls iii cinders  anima della sfida ii 4.mkv</property>
  <property name="kdenlive:clip_type">0</property>
  <property name="kdenlive:folderid">4</property>
  <property name="kdenlive:id">682</property>
  <property name="kdenlive:file_size">3681493931</property>
  <property name="kdenlive:file_hash">ca27a9d972c9214920a1b80c39287441</property>
  <property name="kdenlive:proxy">/home/federico/Videos/Edit/Kden/ProxyRender/proxy/ca27a9d972c9214920a1b80c39287441.mov</property>
  <property name="kdenlive:originalurl">/home/federico/Videos/Edit/Projects/DS3_cinders/5-Stream/4 - sleep issue - dark souls iii cinders  anima della sfida ii 4.mkv</property>
  <property name="kdenlive:original.mlt_type">producer</property>
  <property name="kdenlive:original.in">00:00:00.000</property>
  <property name="kdenlive:original.out">02:31:23.150</property>
  <property name="kdenlive:original.length">544990</property>
  <property name="kdenlive:original.eof">pause</property>
  <property name="kdenlive:original.resource">/home/federico/Videos/Edit/Projects/DS3_cinders/5-Stream/4 - sleep issue - dark souls iii cinders  anima della sfida ii 4.mkv</property>
  <property name="kdenlive:original.meta.media.nb_streams">2</property>
  <property name="kdenlive:original.meta.media.0.stream.type">video</property>
  <property name="kdenlive:original.meta.media.0.stream.frame_rate">60</property>
  <property name="kdenlive:original.meta.media.0.stream.sample_aspect_ratio">1</property>
  <property name="kdenlive:original.meta.media.0.codec.width">1920</property>
  <property name="kdenlive:original.meta.media.0.codec.height">1080</property>
  <property name="kdenlive:original.meta.media.0.codec.rotate">0</property>
  <property name="kdenlive:original.meta.media.0.codec.pix_fmt">yuv420p</property>
  <property name="kdenlive:original.meta.media.0.codec.sample_aspect_ratio">0</property>
  <property name="kdenlive:original.meta.media.0.codec.colorspace">709</property>
  <property name="kdenlive:original.meta.media.0.codec.color_trc">1</property>
  <property name="kdenlive:original.meta.media.0.codec.name">vp9</property>
  <property name="kdenlive:original.meta.media.0.codec.long_name">Google VP9</property>
  <property name="kdenlive:original.meta.media.0.codec.bit_rate">0</property>
  <property name="kdenlive:original.meta.attr.0.stream.language.markup">eng</property>
  <property name="kdenlive:original.meta.attr.0.stream.DURATION.markup">02:31:23.116000000</property>
  <property name="kdenlive:original.meta.media.1.stream.type">audio</property>
  <property name="kdenlive:original.meta.media.1.codec.sample_fmt">fltp</property>
  <property name="kdenlive:original.meta.media.1.codec.sample_rate">48000</property>
  <property name="kdenlive:original.meta.media.1.codec.channels">2</property>
  <property name="kdenlive:original.meta.media.1.codec.name">opus</property>
  <property name="kdenlive:original.meta.media.1.codec.long_name">Opus</property>
  <property name="kdenlive:original.meta.media.1.codec.bit_rate">0</property>
  <property name="kdenlive:original.meta.attr.1.stream.language.markup">eng</property>
  <property name="kdenlive:original.meta.attr.1.stream.DURATION.markup">02:31:23.168000000</property>
  <property name="kdenlive:original.meta.attr.ENCODER.markup">Lavf60.16.100</property>
  <property name="kdenlive:original.seekable">1</property>
  <property name="kdenlive:original.width">1920</property>
  <property name="kdenlive:original.height">1080</property>
  <property name="kdenlive:original.meta.media.sample_aspect_num">1</property>
  <property name="kdenlive:original.meta.media.sample_aspect_den">1</property>
  <property name="kdenlive:original.aspect_ratio">1</property>
  <property name="kdenlive:original.format">3</property>
  <property name="kdenlive:original.audio_index">1</property>
  <property name="kdenlive:original.video_index">0</property>
  <property name="kdenlive:original.mute_on_pause">0</property>
  <property name="kdenlive:original.mlt_service">avformat-novalidate</property>
  <property name="kdenlive:original.meta.media.frame_rate_num">60</property>
  <property name="kdenlive:original.meta.media.frame_rate_den">1</property>
  <property name="kdenlive:original.meta.media.colorspace">709</property>
  <property name="kdenlive:original.meta.media.color_trc">1</property>
  <property name="kdenlive:original.meta.media.has_b_frames">0</property>
  <property name="kdenlive:original.meta.media.width">1920</property>
  <property name="kdenlive:original.meta.media.height">1080</property>
  <property name="kdenlive:original.meta.media.color_range">mpeg</property>
  <property name="kdenlive:original.meta.media.top_field_first">0</property>
  <property name="kdenlive:original.meta.media.progressive">1</property>
  <property name="kdenlive:original.kdenlive:clip_type">0</property>
  <property name="kdenlive:original.kdenlive:folderid">4</property>
  <property name="kdenlive:original.kdenlive:id">682</property>
  <property name="kdenlive:original.kdenlive:file_size">3681493931</property>
  <property name="kdenlive:original.kdenlive:file_hash">ca27a9d972c9214920a1b80c39287441</property>
  <property name="kdenlive:original.backup">1</property>
  <property name="kdenlive:audio_max1">205</property>
  <property name="xml">was here</property>
  <property name="meta.media.nb_streams">2</property>
  <property name="meta.media.0.stream.type">video</property>
  <property name="meta.media.0.stream.frame_rate">60</property>
  <property name="meta.media.0.stream.sample_aspect_ratio">1</property>
  <property name="meta.media.0.codec.width">640</property>
  <property name="meta.media.0.codec.height">360</property>
  <property name="meta.media.0.codec.rotate">0</property>
  <property name="meta.media.0.codec.pix_fmt">yuv420p</property>
  <property name="meta.media.0.codec.sample_aspect_ratio">1</property>
  <property name="meta.media.0.codec.colorspace">709</property>
  <property name="meta.media.0.codec.color_trc">1</property>
  <property name="meta.media.0.codec.name">h264</property>
  <property name="meta.media.0.codec.long_name">H.264 / AVC / MPEG-4 AVC / MPEG-4 part 10</property>
  <property name="meta.media.0.codec.bit_rate">5391916</property>
  <property name="meta.attr.0.stream.language.markup">eng</property>
  <property name="meta.attr.0.stream.handler_name.markup">VideoHandler</property>
  <property name="meta.attr.0.stream.vendor_id.markup">FFMP</property>
  <property name="meta.attr.0.stream.encoder.markup">Lavc59.18.100 libx264</property>
  <property name="meta.media.1.stream.type">audio</property>
  <property name="meta.media.1.codec.sample_fmt">fltp</property>
  <property name="meta.media.1.codec.sample_rate">48000</property>
  <property name="meta.media.1.codec.channels">2</property>
  <property name="meta.media.1.codec.name">aac</property>
  <property name="meta.media.1.codec.long_name">AAC (Advanced Audio Coding)</property>
  <property name="meta.media.1.codec.bit_rate">129930</property>
  <property name="meta.attr.1.stream.language.markup">eng</property>
  <property name="meta.attr.1.stream.handler_name.markup">SoundHandler</property>
  <property name="meta.attr.1.stream.vendor_id.markup">[0][0][0][0]</property>
  <property name="meta.attr.major_brand.markup">qt  </property>
  <property name="meta.attr.minor_version.markup">512</property>
  <property name="meta.attr.compatible_brands.markup">qt  </property>
  <property name="meta.attr.encoder.markup">Lavf59.16.100</property>
  <property name="meta.media.sample_aspect_num">1</property>
  <property name="meta.media.sample_aspect_den">1</property>
  <property name="meta.media.frame_rate_num">60</property>
  <property name="meta.media.frame_rate_den">1</property>
  <property name="meta.media.colorspace">709</property>
  <property name="meta.media.color_trc">1</property>
  <property name="meta.media.has_b_frames">0</property>
  <property name="meta.media.width">640</property>
  <property name="meta.media.height">360</property>
  <property name="meta.media.color_range">mpeg</property>
  <property name="meta.media.top_field_first">0</property>
  <property name="meta.media.progressive">1</property>
  <property name="set.test_audio">1</property>
  <property name="set.test_image">0</property>
 </producer>
 <producer id="producer770" in="00:00:00.000" out="02:27:56.617">
  <property name="length">532598</property>
  <property name="eof">pause</property>
  <property name="resource">/home/federico/Videos/Edit/Kden/ProxyRender/proxy/fa2e21925daa2aa504e340903ed9d0c2.mov</property>
  <property name="audio_index">1</property>
  <property name="video_index">0</property>
  <property name="mute_on_pause">0</property>
  <property name="mlt_service">avformat-novalidate</property>
  <property name="seekable">1</property>
  <property name="aspect_ratio">1</property>
  <property name="format">3</property>
  <property name="kdenlive:clipname"/>
  <property name="kdenlive:clip_type">0</property>
  <property name="kdenlive:folderid">4</property>
  <property name="kdenlive:id">683</property>
  <property name="kdenlive:file_size">3890870258</property>
  <property name="kdenlive:file_hash">fa2e21925daa2aa504e340903ed9d0c2</property>
  <property name="kdenlive:proxy">/home/federico/Videos/Edit/Kden/ProxyRender/proxy/fa2e21925daa2aa504e340903ed9d0c2.mov</property>
  <property name="kdenlive:originalurl">/home/federico/Videos/Edit/Projects/DS3_cinders/5-Stream/5 - difesa - dark souls iii cinders  anima della sfida ii 5.mkv</property>
  <property name="kdenlive:original.mlt_type">producer</property>
  <property name="kdenlive:original.in">00:00:00.000</property>
  <property name="kdenlive:original.out">02:27:56.617</property>
  <property name="kdenlive:original.length">532598</property>
  <property name="kdenlive:original.eof">pause</property>
  <property name="kdenlive:original.resource">/home/federico/Videos/Edit/Projects/DS3_cinders/5-Stream/5 - difesa - dark souls iii cinders  anima della sfida ii 5.mkv</property>
  <property name="kdenlive:original.meta.media.nb_streams">2</property>
  <property name="kdenlive:original.meta.media.0.stream.type">video</property>
  <property name="kdenlive:original.meta.media.0.stream.frame_rate">60</property>
  <property name="kdenlive:original.meta.media.0.stream.sample_aspect_ratio">1</property>
  <property name="kdenlive:original.meta.media.0.codec.width">1920</property>
  <property name="kdenlive:original.meta.media.0.codec.height">1080</property>
  <property name="kdenlive:original.meta.media.0.codec.rotate">0</property>
  <property name="kdenlive:original.meta.media.0.codec.pix_fmt">yuv420p</property>
  <property name="kdenlive:original.meta.media.0.codec.sample_aspect_ratio">0</property>
  <property name="kdenlive:original.meta.media.0.codec.colorspace">709</property>
  <property name="kdenlive:original.meta.media.0.codec.color_trc">1</property>
  <property name="kdenlive:original.meta.media.0.codec.name">vp9</property>
  <property name="kdenlive:original.meta.media.0.codec.long_name">Google VP9</property>
  <property name="kdenlive:original.meta.media.0.codec.bit_rate">0</property>
  <property name="kdenlive:original.meta.attr.0.stream.language.markup">eng</property>
  <property name="kdenlive:original.meta.attr.0.stream.DURATION.markup">02:27:56.599000000</property>
  <property name="kdenlive:original.meta.media.1.stream.type">audio</property>
  <property name="kdenlive:original.meta.media.1.codec.sample_fmt">fltp</property>
  <property name="kdenlive:original.meta.media.1.codec.sample_rate">48000</property>
  <property name="kdenlive:original.meta.media.1.codec.channels">2</property>
  <property name="kdenlive:original.meta.media.1.codec.name">opus</property>
  <property name="kdenlive:original.meta.media.1.codec.long_name">Opus</property>
  <property name="kdenlive:original.meta.media.1.codec.bit_rate">0</property>
  <property name="kdenlive:original.meta.attr.1.stream.language.markup">eng</property>
  <property name="kdenlive:original.meta.attr.1.stream.DURATION.markup">02:27:56.628000000</property>
  <property name="kdenlive:original.meta.attr.ENCODER.markup">Lavf60.16.100</property>
  <property name="kdenlive:original.seekable">1</property>
  <property name="kdenlive:original.width">1920</property>
  <property name="kdenlive:original.height">1080</property>
  <property name="kdenlive:original.meta.media.sample_aspect_num">1</property>
  <property name="kdenlive:original.meta.media.sample_aspect_den">1</property>
  <property name="kdenlive:original.aspect_ratio">1</property>
  <property name="kdenlive:original.format">3</property>
  <property name="kdenlive:original.audio_index">1</property>
  <property name="kdenlive:original.video_index">0</property>
  <property name="kdenlive:original.mute_on_pause">0</property>
  <property name="kdenlive:original.mlt_service">avformat-novalidate</property>
  <property name="kdenlive:original.meta.media.frame_rate_num">60</property>
  <property name="kdenlive:original.meta.media.frame_rate_den">1</property>
  <property name="kdenlive:original.meta.media.colorspace">709</property>
  <property name="kdenlive:original.meta.media.color_trc">1</property>
  <property name="kdenlive:original.meta.media.has_b_frames">0</property>
  <property name="kdenlive:original.meta.media.width">1920</property>
  <property name="kdenlive:original.meta.media.height">1080</property>
  <property name="kdenlive:original.meta.media.color_range">mpeg</property>
  <property name="kdenlive:original.meta.media.top_field_first">0</property>
  <property name="kdenlive:original.meta.media.progressive">1</property>
  <property name="kdenlive:original.kdenlive:clip_type">0</property>
  <property name="kdenlive:original.kdenlive:folderid">4</property>
  <property name="kdenlive:original.kdenlive:id">683</property>
  <property name="kdenlive:original.kdenlive:file_size">3890870258</property>
  <property name="kdenlive:original.kdenlive:file_hash">fa2e21925daa2aa504e340903ed9d0c2</property>
  <property name="kdenlive:original.backup">1</property>
  <property name="kdenlive:audio_max1">195</property>
  <property name="xml">was here</property>
  <property name="meta.media.nb_streams">2</property>
  <property name="meta.media.0.stream.type">video</property>
  <property name="meta.media.0.stream.frame_rate">60</property>
  <property name="meta.media.0.stream.sample_aspect_ratio">1</property>
  <property name="meta.media.0.codec.width">640</property>
  <property name="meta.media.0.codec.height">360</property>
  <property name="meta.media.0.codec.rotate">0</property>
  <property name="meta.media.0.codec.pix_fmt">yuv420p</property>
  <property name="meta.media.0.codec.sample_aspect_ratio">1</property>
  <property name="meta.media.0.codec.colorspace">709</property>
  <property name="meta.media.0.codec.color_trc">1</property>
  <property name="meta.media.0.codec.name">h264</property>
  <property name="meta.media.0.codec.long_name">H.264 / AVC / MPEG-4 AVC / MPEG-4 part 10</property>
  <property name="meta.media.0.codec.bit_rate">5200999</property>
  <property name="meta.attr.0.stream.language.markup">eng</property>
  <property name="meta.attr.0.stream.DURATION.markup">02:27:56.599000000</property>
  <property name="meta.media.1.stream.type">audio</property>
  <property name="meta.media.1.codec.sample_fmt">fltp</property>
  <property name="meta.media.1.codec.sample_rate">48000</property>
  <property name="meta.media.1.codec.channels">2</property>
  <property name="meta.media.1.codec.name">aac</property>
  <property name="meta.media.1.codec.long_name">AAC (Advanced Audio Coding)</property>
  <property name="meta.media.1.codec.bit_rate">128316</property>
  <property name="meta.attr.1.stream.language.markup">eng</property>
  <property name="meta.attr.1.stream.DURATION.markup">02:27:56.628000000</property>
  <property name="meta.attr.ENCODER.markup">Lavf60.16.100</property>
  <property name="meta.media.sample_aspect_num">1</property>
  <property name="meta.media.sample_aspect_den">1</property>
  <property name="meta.media.frame_rate_num">60</property>
  <property name="meta.media.frame_rate_den">1</property>
  <property name="meta.media.colorspace">709</property>
  <property name="meta.media.color_trc">1</property>
  <property name="meta.media.has_b_frames">0</property>
  <property name="meta.media.width">640</property>
  <property name="meta.media.height">360</property>
  <property name="meta.media.color_range">mpeg</property>
  <property name="meta.media.top_field_first">0</property>
  <property name="meta.media.progressive">1</property>
  <property name="meta.attr.0.stream.handler_name.markup">VideoHandler</property>
  <property name="meta.attr.0.stream.vendor_id.markup">FFMP</property>
  <property name="meta.attr.0.stream.encoder.markup">Lavc59.18.100 libx264</property>
  <property name="meta.attr.1.stream.handler_name.markup">SoundHandler</property>
  <property name="meta.attr.1.stream.vendor_id.markup">[0][0][0][0]</property>
  <property name="meta.attr.major_brand.markup">qt  </property>
  <property name="meta.attr.minor_version.markup">512</property>
  <property name="meta.attr.compatible_brands.markup">qt  </property>
  <property name="meta.attr.encoder.markup">Lavf59.16.100</property>
  <property name="set.test_audio">1</property>
  <property name="set.test_image">0</property>
 </producer>
 <producer id="producer771" in="00:00:00.000" out="00:03:51.817">
  <property name="length">13911</property>
  <property name="eof">pause</property>
  <property name="resource">38.285714:/home/federico/Videos/Edit/Kden/ProxyRender/proxy/fa2e21925daa2aa504e340903ed9d0c2.mov</property>
  <property name="aspect_ratio">1</property>
  <property name="meta.media.nb_streams">2</property>
  <property name="meta.media.0.stream.type">video</property>
  <property name="meta.media.0.stream.frame_rate">60</property>
  <property name="meta.media.0.stream.sample_aspect_ratio">1</property>
  <property name="meta.media.0.codec.width">640</property>
  <property name="meta.media.0.codec.height">360</property>
  <property name="meta.media.0.codec.rotate">0</property>
  <property name="meta.media.0.codec.pix_fmt">yuv420p</property>
  <property name="meta.media.0.codec.sample_aspect_ratio">1</property>
  <property name="meta.media.0.codec.colorspace">709</property>
  <property name="meta.media.0.codec.color_trc">1</property>
  <property name="meta.media.0.codec.name">h264</property>
  <property name="meta.media.0.codec.long_name">H.264 / AVC / MPEG-4 AVC / MPEG-4 part 10</property>
  <property name="meta.media.0.codec.bit_rate">5200999</property>
  <property name="meta.attr.0.stream.language.markup">eng</property>
  <property name="meta.attr.0.stream.handler_name.markup">VideoHandler</property>
  <property name="meta.attr.0.stream.vendor_id.markup">FFMP</property>
  <property name="meta.attr.0.stream.encoder.markup">Lavc59.18.100 libx264</property>
  <property name="meta.media.1.stream.type">audio</property>
  <property name="meta.media.1.codec.sample_fmt">fltp</property>
  <property name="meta.media.1.codec.sample_rate">48000</property>
  <property name="meta.media.1.codec.channels">2</property>
  <property name="meta.media.1.codec.name">aac</property>
  <property name="meta.media.1.codec.long_name">AAC (Advanced Audio Coding)</property>
  <property name="meta.media.1.codec.bit_rate">128316</property>
  <property name="meta.attr.1.stream.language.markup">eng</property>
  <property name="meta.attr.1.stream.handler_name.markup">SoundHandler</property>
  <property name="meta.attr.1.stream.vendor_id.markup">[0][0][0][0]</property>
  <property name="meta.attr.major_brand.markup">qt  </property>
  <property name="meta.attr.minor_version.markup">512</property>
  <property name="meta.attr.compatible_brands.markup">qt  </property>
  <property name="meta.attr.encoder.markup">Lavf59.16.100</property>
  <property name="seekable">1</property>
  <property name="meta.media.sample_aspect_num">1</property>
  <property name="meta.media.sample_aspect_den">1</property>
  <property name="audio_index">1</property>
  <property name="video_index">0</property>
  <property name="mute_on_pause">1</property>
  <property name="warp_speed">38.2857</property>
  <property name="warp_resource">/home/federico/Videos/Edit/Kden/ProxyRender/proxy/fa2e21925daa2aa504e340903ed9d0c2.mov</property>
  <property name="mlt_service">timewarp</property>
  <property name="kdenlive:proxy">/home/federico/Videos/Edit/Kden/ProxyRender/proxy/fa2e21925daa2aa504e340903ed9d0c2.mov</property>
  <property name="kdenlive:originalurl">/home/federico/Videos/Edit/Projects/DS3_cinders/5-Stream/5 - difesa - dark souls iii cinders  anima della sfida ii 5.mkv</property>
  <property name="set.test_audio">1</property>
  <property name="set.test_image">0</property>
  <property name="kdenlive:id">683</property>
  <property name="warp_pitch">0</property>
  <property name="meta.media.frame_rate_num">60</property>
  <property name="meta.media.frame_rate_den">1</property>
  <property name="meta.media.colorspace">709</property>
  <property name="meta.media.color_trc">1</property>
  <property name="meta.media.has_b_frames">0</property>
  <property name="meta.media.width">640</property>
  <property name="meta.media.height">360</property>
  <property name="meta.media.color_range">mpeg</property>
  <property name="meta.media.top_field_first">0</property>
  <property name="meta.media.progressive">1</property>
 </producer>
 <producer id="producer772" in="00:00:00.000" out="04:13:37.017">
  <property name="length">913025</property>
  <property name="eof">pause</property>
  <property name="resource">0.583333:/home/federico/Videos/Edit/Kden/ProxyRender/proxy/fa2e21925daa2aa504e340903ed9d0c2.mov</property>
  <property name="aspect_ratio">1</property>
  <property name="meta.media.nb_streams">2</property>
  <property name="meta.media.0.stream.type">video</property>
  <property name="meta.media.0.stream.frame_rate">60</property>
  <property name="meta.media.0.stream.sample_aspect_ratio">1</property>
  <property name="meta.media.0.codec.width">640</property>
  <property name="meta.media.0.codec.height">360</property>
  <property name="meta.media.0.codec.rotate">0</property>
  <property name="meta.media.0.codec.pix_fmt">yuv420p</property>
  <property name="meta.media.0.codec.sample_aspect_ratio">1</property>
  <property name="meta.media.0.codec.colorspace">709</property>
  <property name="meta.media.0.codec.color_trc">1</property>
  <property name="meta.media.0.codec.name">h264</property>
  <property name="meta.media.0.codec.long_name">H.264 / AVC / MPEG-4 AVC / MPEG-4 part 10</property>
  <property name="meta.media.0.codec.bit_rate">5200999</property>
  <property name="meta.attr.0.stream.language.markup">eng</property>
  <property name="meta.attr.0.stream.handler_name.markup">VideoHandler</property>
  <property name="meta.attr.0.stream.vendor_id.markup">FFMP</property>
  <property name="meta.attr.0.stream.encoder.markup">Lavc59.18.100 libx264</property>
  <property name="meta.media.1.stream.type">audio</property>
  <property name="meta.media.1.codec.sample_fmt">fltp</property>
  <property name="meta.media.1.codec.sample_rate">48000</property>
  <property name="meta.media.1.codec.channels">2</property>
  <property name="meta.media.1.codec.name">aac</property>
  <property name="meta.media.1.codec.long_name">AAC (Advanced Audio Coding)</property>
  <property name="meta.media.1.codec.bit_rate">128316</property>
  <property name="meta.attr.1.stream.language.markup">eng</property>
  <property name="meta.attr.1.stream.handler_name.markup">SoundHandler</property>
  <property name="meta.attr.1.stream.vendor_id.markup">[0][0][0][0]</property>
  <property name="meta.attr.major_brand.markup">qt  </property>
  <property name="meta.attr.minor_version.markup">512</property>
  <property name="meta.attr.compatible_brands.markup">qt  </property>
  <property name="meta.attr.encoder.markup">Lavf59.16.100</property>
  <property name="seekable">1</property>
  <property name="meta.media.sample_aspect_num">1</property>
  <property name="meta.media.sample_aspect_den">1</property>
  <property name="audio_index">1</property>
  <property name="video_index">0</property>
  <property name="mute_on_pause">1</property>
  <property name="warp_speed">0.583333</property>
  <property name="warp_resource">/home/federico/Videos/Edit/Kden/ProxyRender/proxy/fa2e21925daa2aa504e340903ed9d0c2.mov</property>
  <property name="mlt_service">timewarp</property>
  <property name="kdenlive:proxy">/home/federico/Videos/Edit/Kden/ProxyRender/proxy/fa2e21925daa2aa504e340903ed9d0c2.mov</property>
  <property name="kdenlive:originalurl">/home/federico/Videos/Edit/Projects/DS3_cinders/5-Stream/5 - difesa - dark souls iii cinders  anima della sfida ii 5.mkv</property>
  <property name="set.test_audio">1</property>
  <property name="set.test_image">0</property>
  <property name="kdenlive:id">683</property>
  <property name="warp_pitch">0</property>
  <property name="meta.media.frame_rate_num">60</property>
  <property name="meta.media.frame_rate_den">1</property>
  <property name="meta.media.colorspace">709</property>
  <property name="meta.media.color_trc">1</property>
  <property name="meta.media.has_b_frames">0</property>
  <property name="meta.media.width">640</property>
  <property name="meta.media.height">360</property>
  <property name="meta.media.color_range">mpeg</property>
  <property name="meta.media.top_field_first">0</property>
  <property name="meta.media.progressive">1</property>
 </producer>
 <producer id="producer773" in="00:00:00.000" out="02:38:45.867">
  <property name="length">571553</property>
  <property name="eof">pause</property>
  <property name="resource">/home/federico/Videos/Edit/Kden/ProxyRender/proxy/cf314eebe17b047f9605a52d59418270.mov</property>
  <property name="audio_index">1</property>
  <property name="video_index">0</property>
  <property name="mute_on_pause">0</property>
  <property name="mlt_service">avformat-novalidate</property>
  <property name="meta.media.nb_streams">2</property>
  <property name="meta.media.0.stream.type">video</property>
  <property name="meta.media.0.stream.frame_rate">60</property>
  <property name="meta.media.0.stream.sample_aspect_ratio">1</property>
  <property name="meta.media.0.codec.width">640</property>
  <property name="meta.media.0.codec.height">360</property>
  <property name="meta.media.0.codec.rotate">0</property>
  <property name="meta.media.0.codec.pix_fmt">yuv420p</property>
  <property name="meta.media.0.codec.sample_aspect_ratio">1</property>
  <property name="meta.media.0.codec.colorspace">709</property>
  <property name="meta.media.0.codec.color_trc">1</property>
  <property name="meta.media.0.codec.name">h264</property>
  <property name="meta.media.0.codec.long_name">H.264 / AVC / MPEG-4 AVC / MPEG-4 part 10</property>
  <property name="meta.media.0.codec.bit_rate">5667419</property>
  <property name="meta.attr.0.stream.language.markup">eng</property>
  <property name="meta.attr.0.stream.handler_name.markup">VideoHandler</property>
  <property name="meta.attr.0.stream.vendor_id.markup">FFMP</property>
  <property name="meta.attr.0.stream.encoder.markup">Lavc59.18.100 libx264</property>
  <property name="meta.media.1.stream.type">audio</property>
  <property name="meta.media.1.codec.sample_fmt">fltp</property>
  <property name="meta.media.1.codec.sample_rate">48000</property>
  <property name="meta.media.1.codec.channels">2</property>
  <property name="meta.media.1.codec.name">aac</property>
  <property name="meta.media.1.codec.long_name">AAC (Advanced Audio Coding)</property>
  <property name="meta.media.1.codec.bit_rate">129290</property>
  <property name="meta.attr.1.stream.language.markup">eng</property>
  <property name="meta.attr.1.stream.handler_name.markup">SoundHandler</property>
  <property name="meta.attr.1.stream.vendor_id.markup">[0][0][0][0]</property>
  <property name="meta.attr.major_brand.markup">qt  </property>
  <property name="meta.attr.minor_version.markup">512</property>
  <property name="meta.attr.compatible_brands.markup">qt  </property>
  <property name="meta.attr.encoder.markup">Lavf59.16.100</property>
  <property name="seekable">1</property>
  <property name="meta.media.sample_aspect_num">1</property>
  <property name="meta.media.sample_aspect_den">1</property>
  <property name="aspect_ratio">1</property>
  <property name="format">3</property>
  <property name="kdenlive:clipname">6 - sfida accettata - dark souls iii cinders  anima della sfida ii 6.mkv</property>
  <property name="kdenlive:clip_type">0</property>
  <property name="kdenlive:folderid">4</property>
  <property name="kdenlive:id">684</property>
  <property name="kdenlive:file_size">4537358114</property>
  <property name="kdenlive:file_hash">cf314eebe17b047f9605a52d59418270</property>
  <property name="kdenlive:proxy">/home/federico/Videos/Edit/Kden/ProxyRender/proxy/cf314eebe17b047f9605a52d59418270.mov</property>
  <property name="kdenlive:originalurl">/home/federico/Videos/Edit/Projects/DS3_cinders/5-Stream/6 - sfida accettata - dark souls iii cinders  anima della sfida ii 6.mkv</property>
  <property name="kdenlive:original.mlt_type">producer</property>
  <property name="kdenlive:original.in">00:00:00.000</property>
  <property name="kdenlive:original.out">02:38:45.867</property>
  <property name="kdenlive:original.length">571553</property>
  <property name="kdenlive:original.eof">pause</property>
  <property name="kdenlive:original.resource">/home/federico/Videos/Edit/Projects/DS3_cinders/5-Stream/6 - sfida accettata - dark souls iii cinders  anima della sfida ii 6.mkv</property>
  <property name="kdenlive:original.meta.media.nb_streams">2</property>
  <property name="kdenlive:original.meta.media.0.stream.type">video</property>
  <property name="kdenlive:original.meta.media.0.stream.frame_rate">60</property>
  <property name="kdenlive:original.meta.media.0.stream.sample_aspect_ratio">1</property>
  <property name="kdenlive:original.meta.media.0.codec.width">1920</property>
  <property name="kdenlive:original.meta.media.0.codec.height">1080</property>
  <property name="kdenlive:original.meta.media.0.codec.rotate">0</property>
  <property name="kdenlive:original.meta.media.0.codec.pix_fmt">yuv420p</property>
  <property name="kdenlive:original.meta.media.0.codec.sample_aspect_ratio">0</property>
  <property name="kdenlive:original.meta.media.0.codec.colorspace">709</property>
  <property name="kdenlive:original.meta.media.0.codec.color_trc">1</property>
  <property name="kdenlive:original.meta.media.0.codec.name">vp9</property>
  <property name="kdenlive:original.meta.media.0.codec.long_name">Google VP9</property>
  <property name="kdenlive:original.meta.media.0.codec.bit_rate">0</property>
  <property name="kdenlive:original.meta.attr.0.stream.language.markup">eng</property>
  <property name="kdenlive:original.meta.attr.0.stream.DURATION.markup">02:38:45.866000000</property>
  <property name="kdenlive:original.meta.media.1.stream.type">audio</property>
  <property name="kdenlive:original.meta.media.1.codec.sample_fmt">fltp</property>
  <property name="kdenlive:original.meta.media.1.codec.sample_rate">48000</property>
  <property name="kdenlive:original.meta.media.1.codec.channels">2</property>
  <property name="kdenlive:original.meta.media.1.codec.name">opus</property>
  <property name="kdenlive:original.meta.media.1.codec.long_name">Opus</property>
  <property name="kdenlive:original.meta.media.1.codec.bit_rate">0</property>
  <property name="kdenlive:original.meta.attr.1.stream.language.markup">eng</property>
  <property name="kdenlive:original.meta.attr.1.stream.DURATION.markup">02:38:45.888000000</property>
  <property name="kdenlive:original.meta.attr.ENCODER.markup">Lavf60.16.100</property>
  <property name="kdenlive:original.seekable">1</property>
  <property name="kdenlive:original.width">1920</property>
  <property name="kdenlive:original.height">1080</property>
  <property name="kdenlive:original.meta.media.sample_aspect_num">1</property>
  <property name="kdenlive:original.meta.media.sample_aspect_den">1</property>
  <property name="kdenlive:original.aspect_ratio">1</property>
  <property name="kdenlive:original.format">3</property>
  <property name="kdenlive:original.audio_index">1</property>
  <property name="kdenlive:original.video_index">0</property>
  <property name="kdenlive:original.mute_on_pause">0</property>
  <property name="kdenlive:original.mlt_service">avformat-novalidate</property>
  <property name="kdenlive:original.meta.media.frame_rate_num">60</property>
  <property name="kdenlive:original.meta.media.frame_rate_den">1</property>
  <property name="kdenlive:original.meta.media.colorspace">709</property>
  <property name="kdenlive:original.meta.media.color_trc">1</property>
  <property name="kdenlive:original.meta.media.has_b_frames">0</property>
  <property name="kdenlive:original.meta.media.width">1920</property>
  <property name="kdenlive:original.meta.media.height">1080</property>
  <property name="kdenlive:original.meta.media.color_range">mpeg</property>
  <property name="kdenlive:original.meta.media.top_field_first">0</property>
  <property name="kdenlive:original.meta.media.progressive">1</property>
  <property name="kdenlive:original.kdenlive:clip_type">0</property>
  <property name="kdenlive:original.kdenlive:folderid">4</property>
  <property name="kdenlive:original.kdenlive:id">684</property>
  <property name="kdenlive:original.kdenlive:file_size">4537358114</property>
  <property name="kdenlive:original.kdenlive:file_hash">cf314eebe17b047f9605a52d59418270</property>
  <property name="kdenlive:original.backup">1</property>
  <property name="kdenlive:audio_max1">196</property>
  <property name="xml">was here</property>
  <property name="meta.media.frame_rate_num">60</property>
  <property name="meta.media.frame_rate_den">1</property>
  <property name="meta.media.colorspace">709</property>
  <property name="meta.media.color_trc">1</property>
  <property name="meta.media.has_b_frames">0</property>
  <property name="meta.media.width">640</property>
  <property name="meta.media.height">360</property>
  <property name="meta.media.color_range">mpeg</property>
  <property name="meta.media.top_field_first">0</property>
  <property name="meta.media.progressive">1</property>
  <property name="set.test_audio">1</property>
  <property name="set.test_image">0</property>
 </producer>
 <producer id="producer774" in="00:00:00.000" out="03:57:17.517">
  <property name="length">854256</property>
  <property name="eof">pause</property>
  <property name="resource">0.669065:/home/federico/Videos/Edit/Kden/ProxyRender/proxy/cf314eebe17b047f9605a52d59418270.mov</property>
  <property name="aspect_ratio">1</property>
  <property name="meta.media.nb_streams">2</property>
  <property name="meta.media.0.stream.type">video</property>
  <property name="meta.media.0.stream.frame_rate">60</property>
  <property name="meta.media.0.stream.sample_aspect_ratio">1</property>
  <property name="meta.media.0.codec.width">640</property>
  <property name="meta.media.0.codec.height">360</property>
  <property name="meta.media.0.codec.rotate">0</property>
  <property name="meta.media.0.codec.pix_fmt">yuv420p</property>
  <property name="meta.media.0.codec.sample_aspect_ratio">1</property>
  <property name="meta.media.0.codec.colorspace">709</property>
  <property name="meta.media.0.codec.color_trc">1</property>
  <property name="meta.media.0.codec.name">h264</property>
  <property name="meta.media.0.codec.long_name">H.264 / AVC / MPEG-4 AVC / MPEG-4 part 10</property>
  <property name="meta.media.0.codec.bit_rate">5667419</property>
  <property name="meta.attr.0.stream.language.markup">eng</property>
  <property name="meta.attr.0.stream.handler_name.markup">VideoHandler</property>
  <property name="meta.attr.0.stream.vendor_id.markup">FFMP</property>
  <property name="meta.attr.0.stream.encoder.markup">Lavc59.18.100 libx264</property>
  <property name="meta.media.1.stream.type">audio</property>
  <property name="meta.media.1.codec.sample_fmt">fltp</property>
  <property name="meta.media.1.codec.sample_rate">48000</property>
  <property name="meta.media.1.codec.channels">2</property>
  <property name="meta.media.1.codec.name">aac</property>
  <property name="meta.media.1.codec.long_name">AAC (Advanced Audio Coding)</property>
  <property name="meta.media.1.codec.bit_rate">129290</property>
  <property name="meta.attr.1.stream.language.markup">eng</property>
  <property name="meta.attr.1.stream.handler_name.markup">SoundHandler</property>
  <property name="meta.attr.1.stream.vendor_id.markup">[0][0][0][0]</property>
  <property name="meta.attr.major_brand.markup">qt  </property>
  <property name="meta.attr.minor_version.markup">512</property>
  <property name="meta.attr.compatible_brands.markup">qt  </property>
  <property name="meta.attr.encoder.markup">Lavf59.16.100</property>
  <property name="seekable">1</property>
  <property name="meta.media.sample_aspect_num">1</property>
  <property name="meta.media.sample_aspect_den">1</property>
  <property name="audio_index">1</property>
  <property name="video_index">0</property>
  <property name="mute_on_pause">1</property>
  <property name="warp_speed">0.669065</property>
  <property name="warp_resource">/home/federico/Videos/Edit/Kden/ProxyRender/proxy/cf314eebe17b047f9605a52d59418270.mov</property>
  <property name="mlt_service">timewarp</property>
  <property name="kdenlive:proxy">/home/federico/Videos/Edit/Kden/ProxyRender/proxy/cf314eebe17b047f9605a52d59418270.mov</property>
  <property name="kdenlive:originalurl">/home/federico/Videos/Edit/Projects/DS3_cinders/5-Stream/6 - sfida accettata - dark souls iii cinders  anima della sfida ii 6.mkv</property>
  <property name="set.test_audio">1</property>
  <property name="set.test_image">0</property>
  <property name="kdenlive:id">684</property>
  <property name="warp_pitch">0</property>
  <property name="meta.media.frame_rate_num">60</property>
  <property name="meta.media.frame_rate_den">1</property>
  <property name="meta.media.colorspace">709</property>
  <property name="meta.media.color_trc">1</property>
  <property name="meta.media.has_b_frames">0</property>
  <property name="meta.media.width">640</property>
  <property name="meta.media.height">360</property>
  <property name="meta.media.color_range">mpeg</property>
  <property name="meta.media.top_field_first">0</property>
  <property name="meta.media.progressive">1</property>
 </producer>
 <producer id="producer775" in="00:00:00.000" out="02:52:36.450">
  <property name="length">621389</property>
  <property name="eof">pause</property>
  <property name="resource">/home/federico/Videos/Edit/Kden/ProxyRender/proxy/e00b59329972f7cbbe05cbe5eabe0684.mov</property>
  <property name="audio_index">1</property>
  <property name="video_index">0</property>
  <property name="mute_on_pause">0</property>
  <property name="mlt_service">avformat-novalidate</property>
  <property name="meta.media.nb_streams">2</property>
  <property name="meta.media.0.stream.type">video</property>
  <property name="meta.media.0.stream.frame_rate">60</property>
  <property name="meta.media.0.stream.sample_aspect_ratio">1</property>
  <property name="meta.media.0.codec.width">640</property>
  <property name="meta.media.0.codec.height">360</property>
  <property name="meta.media.0.codec.rotate">0</property>
  <property name="meta.media.0.codec.pix_fmt">yuv420p</property>
  <property name="meta.media.0.codec.sample_aspect_ratio">1</property>
  <property name="meta.media.0.codec.colorspace">709</property>
  <property name="meta.media.0.codec.color_trc">1</property>
  <property name="meta.media.0.codec.name">h264</property>
  <property name="meta.media.0.codec.long_name">H.264 / AVC / MPEG-4 AVC / MPEG-4 part 10</property>
  <property name="meta.media.0.codec.bit_rate">5487106</property>
  <property name="meta.attr.0.stream.language.markup">eng</property>
  <property name="meta.attr.0.stream.handler_name.markup">VideoHandler</property>
  <property name="meta.attr.0.stream.vendor_id.markup">FFMP</property>
  <property name="meta.attr.0.stream.encoder.markup">Lavc59.18.100 libx264</property>
  <property name="meta.media.1.stream.type">audio</property>
  <property name="meta.media.1.codec.sample_fmt">fltp</property>
  <property name="meta.media.1.codec.sample_rate">48000</property>
  <property name="meta.media.1.codec.channels">2</property>
  <property name="meta.media.1.codec.name">aac</property>
  <property name="meta.media.1.codec.long_name">AAC (Advanced Audio Coding)</property>
  <property name="meta.media.1.codec.bit_rate">125682</property>
  <property name="meta.attr.1.stream.language.markup">eng</property>
  <property name="meta.attr.1.stream.handler_name.markup">SoundHandler</property>
  <property name="meta.attr.1.stream.vendor_id.markup">[0][0][0][0]</property>
  <property name="meta.attr.major_brand.markup">qt  </property>
  <property name="meta.attr.minor_version.markup">512</property>
  <property name="meta.attr.compatible_brands.markup">qt  </property>
  <property name="meta.attr.encoder.markup">Lavf59.16.100</property>
  <property name="seekable">1</property>
  <property name="meta.media.sample_aspect_num">1</property>
  <property name="meta.media.sample_aspect_den">1</property>
  <property name="aspect_ratio">1</property>
  <property name="format">3</property>
  <property name="kdenlive:clipname">7 - builded - dark souls iii cinders  anima della sfida ii 7.mkv</property>
  <property name="kdenlive:clip_type">0</property>
  <property name="kdenlive:folderid">4</property>
  <property name="kdenlive:id">685</property>
  <property name="kdenlive:file_size">4980831000</property>
  <property name="kdenlive:file_hash">e00b59329972f7cbbe05cbe5eabe0684</property>
  <property name="kdenlive:proxy">/home/federico/Videos/Edit/Kden/ProxyRender/proxy/e00b59329972f7cbbe05cbe5eabe0684.mov</property>
  <property name="kdenlive:originalurl">/home/federico/Videos/Edit/Projects/DS3_cinders/5-Stream/7 - builded - dark souls iii cinders  anima della sfida ii 7.mkv</property>
  <property name="kdenlive:original.mlt_type">producer</property>
  <property name="kdenlive:original.in">00:00:00.000</property>
  <property name="kdenlive:original.out">02:52:36.467</property>
  <property name="kdenlive:original.length">621389</property>
  <property name="kdenlive:original.eof">pause</property>
  <property name="kdenlive:original.resource">/home/federico/Videos/Edit/Projects/DS3_cinders/5-Stream/7 - builded - dark souls iii cinders  anima della sfida ii 7.mkv</property>
  <property name="kdenlive:original.meta.media.nb_streams">2</property>
  <property name="kdenlive:original.meta.media.0.stream.type">video</property>
  <property name="kdenlive:original.meta.media.0.stream.frame_rate">60</property>
  <property name="kdenlive:original.meta.media.0.stream.sample_aspect_ratio">1</property>
  <property name="kdenlive:original.meta.media.0.codec.width">1920</property>
  <property name="kdenlive:original.meta.media.0.codec.height">1080</property>
  <property name="kdenlive:original.meta.media.0.codec.rotate">0</property>
  <property name="kdenlive:original.meta.media.0.codec.pix_fmt">yuv420p</property>
  <property name="kdenlive:original.meta.media.0.codec.sample_aspect_ratio">0</property>
  <property name="kdenlive:original.meta.media.0.codec.colorspace">709</property>
  <property name="kdenlive:original.meta.media.0.codec.color_trc">1</property>
  <property name="kdenlive:original.meta.media.0.codec.name">vp9</property>
  <property name="kdenlive:original.meta.media.0.codec.long_name">Google VP9</property>
  <property name="kdenlive:original.meta.media.0.codec.bit_rate">0</property>
  <property name="kdenlive:original.meta.attr.0.stream.language.markup">eng</property>
  <property name="kdenlive:original.meta.attr.0.stream.DURATION.markup">02:52:36.449000000</property>
  <property name="kdenlive:original.meta.media.1.stream.type">audio</property>
  <property name="kdenlive:original.meta.media.1.codec.sample_fmt">fltp</property>
  <property name="kdenlive:original.meta.media.1.codec.sample_rate">48000</property>
  <property name="kdenlive:original.meta.media.1.codec.channels">2</property>
  <property name="kdenlive:original.meta.media.1.codec.name">opus</property>
  <property name="kdenlive:original.meta.media.1.codec.long_name">Opus</property>
  <property name="kdenlive:original.meta.media.1.codec.bit_rate">0</property>
  <property name="kdenlive:original.meta.attr.1.stream.language.markup">eng</property>
  <property name="kdenlive:original.meta.attr.1.stream.DURATION.markup">02:52:36.488000000</property>
  <property name="kdenlive:original.meta.attr.ENCODER.markup">Lavf60.16.100</property>
  <property name="kdenlive:original.seekable">1</property>
  <property name="kdenlive:original.width">1920</property>
  <property name="kdenlive:original.height">1080</property>
  <property name="kdenlive:original.meta.media.sample_aspect_num">1</property>
  <property name="kdenlive:original.meta.media.sample_aspect_den">1</property>
  <property name="kdenlive:original.aspect_ratio">1</property>
  <property name="kdenlive:original.format">3</property>
  <property name="kdenlive:original.audio_index">1</property>
  <property name="kdenlive:original.video_index">0</property>
  <property name="kdenlive:original.mute_on_pause">0</property>
  <property name="kdenlive:original.mlt_service">avformat-novalidate</property>
  <property name="kdenlive:original.meta.media.frame_rate_num">60</property>
  <property name="kdenlive:original.meta.media.frame_rate_den">1</property>
  <property name="kdenlive:original.meta.media.colorspace">709</property>
  <property name="kdenlive:original.meta.media.color_trc">1</property>
  <property name="kdenlive:original.meta.media.has_b_frames">0</property>
  <property name="kdenlive:original.meta.media.width">1920</property>
  <property name="kdenlive:original.meta.media.height">1080</property>
  <property name="kdenlive:original.meta.media.color_range">mpeg</property>
  <property name="kdenlive:original.meta.media.top_field_first">0</property>
  <property name="kdenlive:original.meta.media.progressive">1</property>
  <property name="kdenlive:original.kdenlive:clip_type">0</property>
  <property name="kdenlive:original.kdenlive:folderid">4</property>
  <property name="kdenlive:original.kdenlive:id">685</property>
  <property name="kdenlive:original.kdenlive:file_size">4980831000</property>
  <property name="kdenlive:original.kdenlive:file_hash">e00b59329972f7cbbe05cbe5eabe0684</property>
  <property name="kdenlive:original.backup">1</property>
  <property name="kdenlive:audio_max1">204</property>
  <property name="xml">was here</property>
  <property name="meta.media.frame_rate_num">60</property>
  <property name="meta.media.frame_rate_den">1</property>
  <property name="meta.media.colorspace">709</property>
  <property name="meta.media.color_trc">1</property>
  <property name="meta.media.has_b_frames">0</property>
  <property name="meta.media.width">640</property>
  <property name="meta.media.height">360</property>
  <property name="meta.media.color_range">mpeg</property>
  <property name="meta.media.top_field_first">0</property>
  <property name="meta.media.progressive">1</property>
  <property name="set.test_audio">1</property>
  <property name="set.test_image">0</property>
 </producer>
 <producer id="producer776" in="00:00:00.000" out="01:50:41.183">
  <property name="length">398472</property>
  <property name="eof">pause</property>
  <property name="resource">/home/federico/Videos/Edit/Kden/ProxyRender/proxy/31ec4e3b8500d553e125625112366d7f.mov</property>
  <property name="audio_index">1</property>
  <property name="video_index">0</property>
  <property name="mute_on_pause">0</property>
  <property name="mlt_service">avformat-novalidate</property>
  <property name="meta.media.nb_streams">2</property>
  <property name="meta.media.0.stream.type">video</property>
  <property name="meta.media.0.stream.frame_rate">60</property>
  <property name="meta.media.0.stream.sample_aspect_ratio">1</property>
  <property name="meta.media.0.codec.width">640</property>
  <property name="meta.media.0.codec.height">360</property>
  <property name="meta.media.0.codec.rotate">0</property>
  <property name="meta.media.0.codec.pix_fmt">yuv420p</property>
  <property name="meta.media.0.codec.sample_aspect_ratio">1</property>
  <property name="meta.media.0.codec.colorspace">709</property>
  <property name="meta.media.0.codec.color_trc">1</property>
  <property name="meta.media.0.codec.name">h264</property>
  <property name="meta.media.0.codec.long_name">H.264 / AVC / MPEG-4 AVC / MPEG-4 part 10</property>
  <property name="meta.media.0.codec.bit_rate">5578912</property>
  <property name="meta.attr.0.stream.language.markup">eng</property>
  <property name="meta.attr.0.stream.handler_name.markup">VideoHandler</property>
  <property name="meta.attr.0.stream.vendor_id.markup">FFMP</property>
  <property name="meta.attr.0.stream.encoder.markup">Lavc59.18.100 libx264</property>
  <property name="meta.media.1.stream.type">audio</property>
  <property name="meta.media.1.codec.sample_fmt">fltp</property>
  <property name="meta.media.1.codec.sample_rate">48000</property>
  <property name="meta.media.1.codec.channels">2</property>
  <property name="meta.media.1.codec.name">aac</property>
  <property name="meta.media.1.codec.long_name">AAC (Advanced Audio Coding)</property>
  <property name="meta.media.1.codec.bit_rate">127625</property>
  <property name="meta.attr.1.stream.language.markup">eng</property>
  <property name="meta.attr.1.stream.handler_name.markup">SoundHandler</property>
  <property name="meta.attr.1.stream.vendor_id.markup">[0][0][0][0]</property>
  <property name="meta.attr.major_brand.markup">qt  </property>
  <property name="meta.attr.minor_version.markup">512</property>
  <property name="meta.attr.compatible_brands.markup">qt  </property>
  <property name="meta.attr.encoder.markup">Lavf59.16.100</property>
  <property name="seekable">1</property>
  <property name="meta.media.sample_aspect_num">1</property>
  <property name="meta.media.sample_aspect_den">1</property>
  <property name="aspect_ratio">1</property>
  <property name="format">3</property>
  <property name="kdenlive:clipname">8 - playground - dark souls iii cinders  anima della sfida ii 8.mkv</property>
  <property name="kdenlive:clip_type">0</property>
  <property name="kdenlive:folderid">4</property>
  <property name="kdenlive:id">686</property>
  <property name="kdenlive:file_size">3569794435</property>
  <property name="kdenlive:file_hash">31ec4e3b8500d553e125625112366d7f</property>
  <property name="kdenlive:proxy">/home/federico/Videos/Edit/Kden/ProxyRender/proxy/31ec4e3b8500d553e125625112366d7f.mov</property>
  <property name="kdenlive:originalurl">/home/federico/Videos/Edit/Projects/DS3_cinders/5-Stream/8 - playground - dark souls iii cinders  anima della sfida ii 8.mkv</property>
  <property name="kdenlive:original.mlt_type">producer</property>
  <property name="kdenlive:original.in">00:00:00.000</property>
  <property name="kdenlive:original.out">01:50:41.183</property>
  <property name="kdenlive:original.length">398472</property>
  <property name="kdenlive:original.eof">pause</property>
  <property name="kdenlive:original.resource">/home/federico/Videos/Edit/Projects/DS3_cinders/5-Stream/8 - playground - dark souls iii cinders  anima della sfida ii 8.mkv</property>
  <property name="kdenlive:original.meta.media.nb_streams">2</property>
  <property name="kdenlive:original.meta.media.0.stream.type">video</property>
  <property name="kdenlive:original.meta.media.0.stream.frame_rate">60</property>
  <property name="kdenlive:original.meta.media.0.stream.sample_aspect_ratio">1</property>
  <property name="kdenlive:original.meta.media.0.codec.width">1920</property>
  <property name="kdenlive:original.meta.media.0.codec.height">1080</property>
  <property name="kdenlive:original.meta.media.0.codec.rotate">0</property>
  <property name="kdenlive:original.meta.media.0.codec.pix_fmt">yuv420p</property>
  <property name="kdenlive:original.meta.media.0.codec.sample_aspect_ratio">0</property>
  <property name="kdenlive:original.meta.media.0.codec.colorspace">709</property>
  <property name="kdenlive:original.meta.media.0.codec.color_trc">1</property>
  <property name="kdenlive:original.meta.media.0.codec.name">vp9</property>
  <property name="kdenlive:original.meta.media.0.codec.long_name">Google VP9</property>
  <property name="kdenlive:original.meta.media.0.codec.bit_rate">0</property>
  <property name="kdenlive:original.meta.attr.0.stream.language.markup">eng</property>
  <property name="kdenlive:original.meta.attr.0.stream.DURATION.markup">01:50:41.183000000</property>
  <property name="kdenlive:original.meta.media.1.stream.type">audio</property>
  <property name="kdenlive:original.meta.media.1.codec.sample_fmt">fltp</property>
  <property name="kdenlive:original.meta.media.1.codec.sample_rate">48000</property>
  <property name="kdenlive:original.meta.media.1.codec.channels">2</property>
  <property name="kdenlive:original.meta.media.1.codec.name">opus</property>
  <property name="kdenlive:original.meta.media.1.codec.long_name">Opus</property>
  <property name="kdenlive:original.meta.media.1.codec.bit_rate">0</property>
  <property name="kdenlive:original.meta.attr.1.stream.language.markup">eng</property>
  <property name="kdenlive:original.meta.attr.1.stream.DURATION.markup">01:50:41.208000000</property>
  <property name="kdenlive:original.meta.attr.ENCODER.markup">Lavf60.16.100</property>
  <property name="kdenlive:original.seekable">1</property>
  <property name="kdenlive:original.width">1920</property>
  <property name="kdenlive:original.height">1080</property>
  <property name="kdenlive:original.meta.media.sample_aspect_num">1</property>
  <property name="kdenlive:original.meta.media.sample_aspect_den">1</property>
  <property name="kdenlive:original.aspect_ratio">1</property>
  <property name="kdenlive:original.format">3</property>
  <property name="kdenlive:original.audio_index">1</property>
  <property name="kdenlive:original.video_index">0</property>
  <property name="kdenlive:original.mute_on_pause">0</property>
  <property name="kdenlive:original.mlt_service">avformat-novalidate</property>
  <property name="kdenlive:original.meta.media.frame_rate_num">60</property>
  <property name="kdenlive:original.meta.media.frame_rate_den">1</property>
  <property name="kdenlive:original.meta.media.colorspace">709</property>
  <property name="kdenlive:original.meta.media.color_trc">1</property>
  <property name="kdenlive:original.meta.media.has_b_frames">0</property>
  <property name="kdenlive:original.meta.media.width">1920</property>
  <property name="kdenlive:original.meta.media.height">1080</property>
  <property name="kdenlive:original.meta.media.color_range">mpeg</property>
  <property name="kdenlive:original.meta.media.top_field_first">0</property>
  <property name="kdenlive:original.meta.media.progressive">1</property>
  <property name="kdenlive:original.kdenlive:clip_type">0</property>
  <property name="kdenlive:original.kdenlive:folderid">4</property>
  <property name="kdenlive:original.kdenlive:id">686</property>
  <property name="kdenlive:original.kdenlive:file_size">3569794435</property>
  <property name="kdenlive:original.kdenlive:file_hash">31ec4e3b8500d553e125625112366d7f</property>
  <property name="kdenlive:original.backup">1</property>
  <property name="kdenlive:audio_max1">237</property>
  <property name="xml">was here</property>
  <property name="meta.media.frame_rate_num">60</property>
  <property name="meta.media.frame_rate_den">1</property>
  <property name="meta.media.colorspace">709</property>
  <property name="meta.media.color_trc">1</property>
  <property name="meta.media.has_b_frames">0</property>
  <property name="meta.media.width">640</property>
  <property name="meta.media.height">360</property>
  <property name="meta.media.color_range">mpeg</property>
  <property name="meta.media.top_field_first">0</property>
  <property name="meta.media.progressive">1</property>
  <property name="set.test_audio">1</property>
  <property name="set.test_image">0</property>
 </producer>
 <playlist id="playlist10">
  <entry producer="producer763" in="00:00:00.000" out="00:00:03.833">
   <property name="kdenlive:id">579</property>
   <filter id="filter589">
    <property name="filter">rotoscoping</property>
    <property name="mlt_service">mask_start</property>
    <property name="kdenlive_id">mask_start-rotoscoping</property>
    <property name="filter.spline"/>
    <property name="filter.mode">alpha</property>
    <property name="filter.alpha_operation">clear</property>
    <property name="filter.invert">0</property>
    <property name="filter.feather">0</property>
    <property name="filter.feather_passes">1</property>
    <property name="kdenlive:collapsed">0</property>
   </filter>
  </entry>
  <blank length="00:00:01.933"/>
  <entry producer="producer764" in="00:04:07.667" out="00:04:10.050">
   <property name="kdenlive:id">679</property>
   <filter id="filter590" in="00:04:07.667" out="00:04:10.033">
    <property name="start">1</property>
    <property name="level">1</property>
    <property name="mlt_service">brightness</property>
    <property name="kdenlive_id">fade_from_black</property>
    <property name="alpha">00:00:00.000=0;00:00:02.367=1</property>
   </filter>
  </entry>
  <entry producer="producer764" in="00:04:10.400" out="00:04:12.850">
   <property name="kdenlive:id">679</property>
  </entry>
  <entry producer="producer764" in="00:04:13.350" out="00:04:15.933">
   <property name="kdenlive:id">679</property>
   <filter id="filter591">
    <property name="rotate_center">1</property>
    <property name="mlt_service">qtblend</property>
    <property name="kdenlive_id">qtblend</property>
    <property name="rect">00:04:13.350=0 0 1920 1080 1.000000;00:04:13.433=-1426 -802 3346 1882 1.000000;00:04:15.783=-4992 -2808 6912 3888 1.000000</property>
    <property name="rotation">00:04:13.350=0;00:04:13.433=0;00:04:15.783=0</property>
    <property name="compositing">0</property>
    <property name="distort">0</property>
    <property name="kdenlive:collapsed">0</property>
   </filter>
   <filter id="filter592">
    <property name="rotate_center">1</property>
    <property name="mlt_service">qtblend</property>
    <property name="kdenlive_id">qtblend</property>
    <property name="rect">00:04:13.350=0 0 1920 1080 1</property>
    <property name="rotation">00:04:13.350=0</property>
    <property name="compositing">0</property>
    <property name="distort">0</property>
    <property name="kdenlive:collapsed">0</property>
   </filter>
  </entry>
  <entry producer="producer764" in="00:04:39.067" out="00:04:40.967">
   <property name="kdenlive:id">679</property>
  </entry>
  <entry producer="producer764" in="00:04:41.550" out="00:04:44.483">
   <property name="kdenlive:id">679</property>
  </entry>
  <entry producer="producer764" in="00:04:45.817" out="00:04:47.917">
   <property name="kdenlive:id">679</property>
   <filter id="filter593">
    <property name="rotate_center">1</property>
    <property name="mlt_service">qtblend</property>
    <property name="kdenlive_id">qtblend</property>
    <property name="rect">00:04:45.817=-4992 -2808 6912 3888 1.000000</property>
    <property name="rotation">00:04:45.817=0</property>
    <property name="compositing">0</property>
    <property name="distort">0</property>
    <property name="kdenlive:collapsed">1</property>
   </filter>
   <filter id="filter594">
    <property name="rotate_center">1</property>
    <property name="mlt_service">qtblend</property>
    <property name="kdenlive_id">qtblend</property>
    <property name="rect">00:04:45.817=0 0 1920 1080 1.000000;00:04:46.800=-48 -27 2016 1134 1.000000;00:04:46.867=-291 -97 2304 1296 1.000000</property>
    <property name="rotation">00:04:45.817=0;00:04:46.800=0;00:04:46.867=0</property>
    <property name="compositing">0</property>
    <property name="distort">0</property>
    <property name="kdenlive:collapsed">0</property>
   </filter>
  </entry>
  <entry producer="producer764" in="00:07:37.100" out="00:07:37.783">
   <property name="kdenlive:id">679</property>
  </entry>
  <entry producer="producer764" in="00:07:38.017" out="00:07:40.200">
   <property name="kdenlive:id">679</property>
  </entry>
  <entry producer="producer764" in="00:09:19.233" out="00:09:20.200">
   <property name="kdenlive:id">679</property>
  </entry>
  <entry producer="producer764" in="00:09:21.100" out="00:09:21.917">
   <property name="kdenlive:id">679</property>
   <filter id="filter595">
    <property name="rotate_center">1</property>
    <property name="mlt_service">qtblend</property>
    <property name="kdenlive_id">qtblend</property>
    <property name="rect">00:09:21.100=0 20 1920 1080 1.000000;00:09:21.350=0 7 1920 1080 1.000000;00:09:21.633=0 -17 1920 1080 1.000000;00:09:21.833=0 -12 1920 1080 1.000000</property>
    <property name="rotation">00:09:21.100=0;00:09:21.350=0;00:09:21.633=0;00:09:21.833=0</property>
    <property name="compositing">0</property>
    <property name="distort">0</property>
    <property name="kdenlive:collapsed">0</property>
   </filter>
   <filter id="filter596">
    <property name="rotate_center">1</property>
    <property name="mlt_service">qtblend</property>
    <property name="kdenlive_id">qtblend</property>
    <property name="rect">00:09:21.100=-4992 -2808 6912 3888 1.000000</property>
    <property name="rotation">00:09:21.100=0</property>
    <property name="compositing">0</property>
    <property name="distort">0</property>
    <property name="kdenlive:collapsed">1</property>
   </filter>
   <filter id="filter597">
    <property name="rotate_center">1</property>
    <property name="mlt_service">qtblend</property>
    <property name="kdenlive_id">qtblend</property>
    <property name="rect">00:09:21.100=-1039 -406 3168 1782 1.000000</property>
    <property name="rotation">00:09:21.100=0</property>
    <property name="compositing">0</property>
    <property name="distort">0</property>
    <property name="kdenlive:collapsed">1</property>
   </filter>
  </entry>
  <entry producer="producer764" in="00:09:21.933" out="00:09:24.233">
   <property name="kdenlive:id">679</property>
  </entry>
  <entry producer="producer764" in="00:09:28.733" out="00:09:29.867">
   <property name="kdenlive:id">679</property>
  </entry>
  <entry producer="producer764" in="00:09:30.867" out="00:09:31.650">
   <property name="kdenlive:id">679</property>
  </entry>
  <entry producer="producer764" in="00:09:32.083" out="00:09:33.300">
   <property name="kdenlive:id">679</property>
   <filter id="filter598">
    <property name="rotate_center">1</property>
    <property name="mlt_service">qtblend</property>
    <property name="kdenlive_id">qtblend</property>
    <property name="rect">00:09:32.083=-4992 -2808 6912 3888 1.000000</property>
    <property name="rotation">00:09:32.083=0</property>
    <property name="compositing">0</property>
    <property name="distort">0</property>
    <property name="kdenlive:collapsed">1</property>
   </filter>
   <filter id="filter599">
    <property name="rotate_center">1</property>
    <property name="mlt_service">qtblend</property>
    <property name="kdenlive_id">qtblend</property>
    <property name="rect">00:09:32.083=-48 -27 2016 1134 1.000000</property>
    <property name="rotation">00:09:32.083=0</property>
    <property name="compositing">0</property>
    <property name="distort">0</property>
    <property name="kdenlive:collapsed">0</property>
   </filter>
  </entry>
  <entry producer="producer764" in="00:19:03.183" out="00:19:04.083">
   <property name="kdenlive:id">679</property>
  </entry>
  <entry producer="producer764" in="00:19:04.983" out="00:19:05.617">
   <property name="kdenlive:id">679</property>
  </entry>
  <entry producer="producer764" in="00:19:07.967" out="00:19:09.450">
   <property name="kdenlive:id">679</property>
  </entry>
  <entry producer="producer764" in="00:21:17.433" out="00:21:19.383">
   <property name="kdenlive:id">679</property>
  </entry>
  <entry producer="producer765" in="00:00:03.950" out="00:00:04.367">
   <property name="kdenlive:id">679</property>
  </entry>
  <entry producer="producer764" in="00:23:42.917" out="00:23:43.650">
   <property name="kdenlive:id">679</property>
   <filter id="filter600">
    <property name="rotate_center">1</property>
    <property name="mlt_service">qtblend</property>
    <property name="kdenlive_id">qtblend</property>
    <property name="rect">00:23:42.917=-2268 -509 4224 2376 1.000000</property>
    <property name="rotation">00:23:42.917=0</property>
    <property name="compositing">0</property>
    <property name="distort">0</property>
    <property name="kdenlive:collapsed">0</property>
   </filter>
  </entry>
  <entry producer="producer764" in="00:23:45.333" out="00:23:46.700">
   <property name="kdenlive:id">679</property>
  </entry>
  <entry producer="producer764" in="00:23:50.900" out="00:23:52.183">
   <property name="kdenlive:id">679</property>
  </entry>
  <entry producer="producer764" in="00:24:43.550" out="00:24:45.050">
   <property name="kdenlive:id">679</property>
  </entry>
  <entry producer="producer764" in="00:25:02.617" out="00:25:03.983">
   <property name="kdenlive:id">679</property>
  </entry>
  <entry producer="producer764" in="00:25:04.783" out="00:25:06.817">
   <property name="kdenlive:id">679</property>
  </entry>
  <entry producer="producer764" in="00:25:19.483" out="00:25:21.017">
   <property name="kdenlive:id">679</property>
   <filter id="filter601">
    <property name="rotate_center">1</property>
    <property name="mlt_service">qtblend</property>
    <property name="kdenlive_id">qtblend</property>
    <property name="rect">00:25:19.483=-1530 -232 3456 1944 1.000000</property>
    <property name="rotation">00:25:19.483=0</property>
    <property name="compositing">0</property>
    <property name="distort">0</property>
    <property name="kdenlive:collapsed">1</property>
   </filter>
   <filter id="filter602">
    <property name="rotate_center">1</property>
    <property name="mlt_service">qtblend</property>
    <property name="kdenlive_id">qtblend</property>
    <property name="rect">00:25:19.483=0 0 1920 1080 1.000000;00:25:21.017=-48 -27 2016 1134 1.000000</property>
    <property name="rotation">00:25:19.483=0;00:25:21.017=0</property>
    <property name="compositing">0</property>
    <property name="distort">0</property>
    <property name="kdenlive:collapsed">0</property>
   </filter>
  </entry>
  <entry producer="producer764" in="00:25:21.033" out="00:25:22.383">
   <property name="kdenlive:id">679</property>
  </entry>
  <entry producer="producer764" in="00:25:26.400" out="00:25:27.683">
   <property name="kdenlive:id">679</property>
  </entry>
  <entry producer="producer764" in="00:25:32.050" out="00:25:33.267">
   <property name="kdenlive:id">679</property>
  </entry>
  <entry producer="producer764" in="00:25:47.033" out="00:25:48.617">
   <property name="kdenlive:id">679</property>
  </entry>
  <entry producer="producer764" in="00:26:19.367" out="00:26:20.950">
   <property name="kdenlive:id">679</property>
  </entry>
  <entry producer="producer764" in="00:26:54.500" out="00:26:58.150">
   <property name="kdenlive:id">679</property>
   <filter id="filter603">
    <property name="rotate_center">1</property>
    <property name="mlt_service">qtblend</property>
    <property name="kdenlive_id">qtblend</property>
    <property name="rect">00:26:54.500=0 0 1920 1080 1.000000;00:26:58.150=-48 -27 2016 1134 1.000000</property>
    <property name="rotation">00:26:54.500=0;00:26:58.150=0</property>
    <property name="compositing">0</property>
    <property name="distort">0</property>
    <property name="kdenlive:collapsed">0</property>
   </filter>
  </entry>
  <entry producer="producer764" in="00:26:58.983" out="00:27:00.300">
   <property name="kdenlive:id">679</property>
  </entry>
  <entry producer="producer764" in="00:27:48.417" out="00:27:51.183">
   <property name="kdenlive:id">679</property>
   <filter id="filter604">
    <property name="rotate_center">1</property>
    <property name="mlt_service">qtblend</property>
    <property name="kdenlive_id">qtblend</property>
    <property name="rect">00:27:48.417=-2721 -373 5760 3240 1.000000</property>
    <property name="rotation">00:27:48.417=0</property>
    <property name="compositing">0</property>
    <property name="distort">0</property>
    <property name="kdenlive:collapsed">0</property>
   </filter>
   <filter id="filter605">
    <property name="rotate_center">1</property>
    <property name="mlt_service">qtblend</property>
    <property name="kdenlive_id">qtblend</property>
    <property name="rect">00:27:48.417=0 0 1920 1080 1.000000;00:27:51.183=-48 -27 2016 1134 1.000000</property>
    <property name="rotation">00:27:48.417=0;00:27:51.183=0</property>
    <property name="compositing">0</property>
    <property name="distort">0</property>
    <property name="kdenlive:collapsed">0</property>
   </filter>
  </entry>
  <entry producer="producer764" in="00:27:51.200" out="00:27:53.400">
   <property name="kdenlive:id">679</property>
  </entry>
  <entry producer="producer764" in="00:28:01.017" out="00:28:01.667">
   <property name="kdenlive:id">679</property>
  </entry>
  <entry producer="producer764" in="00:28:01.683" out="00:28:06.733">
   <property name="kdenlive:id">679</property>
   <filter id="filter606">
    <property name="rotate_center">1</property>
    <property name="mlt_service">qtblend</property>
    <property name="kdenlive_id">qtblend</property>
    <property name="rect">00:28:01.683=-437 -490 3648 2052 1.000000</property>
    <property name="rotation">00:28:01.683=0</property>
    <property name="compositing">0</property>
    <property name="distort">0</property>
    <property name="kdenlive:collapsed">1</property>
   </filter>
   <filter id="filter607">
    <property name="rotate_center">1</property>
    <property name="mlt_service">qtblend</property>
    <property name="kdenlive_id">qtblend</property>
    <property name="rect">00:28:01.683=0 0 1920 1080 1.000000;00:28:06.733=-96 -54 2112 1188 1.000000</property>
    <property name="rotation">00:28:01.683=0;00:28:06.733=0</property>
    <property name="compositing">0</property>
    <property name="distort">0</property>
    <property name="kdenlive:collapsed">0</property>
   </filter>
  </entry>
  <entry producer="producer764" in="00:28:49.483" out="00:28:52.483">
   <property name="kdenlive:id">679</property>
  </entry>
  <entry producer="producer764" in="00:28:54.950" out="00:28:59.033">
   <property name="kdenlive:id">679</property>
   <filter id="filter608">
    <property name="rotate_center">1</property>
    <property name="mlt_service">qtblend</property>
    <property name="kdenlive_id">qtblend</property>
    <property name="rect">00:28:54.950=0 0 1920 1080 1.000000;00:28:59.033=-48 -27 2016 1134 1.000000</property>
    <property name="rotation">00:28:54.950=0;00:28:59.033=0</property>
    <property name="compositing">0</property>
    <property name="distort">0</property>
    <property name="kdenlive:collapsed">0</property>
   </filter>
  </entry>
  <entry producer="producer764" in="00:29:24.650" out="00:29:26.900">
   <property name="kdenlive:id">679</property>
  </entry>
  <entry producer="producer764" in="00:32:47.967" out="00:32:48.483">
   <property name="kdenlive:id">679</property>
  </entry>
  <entry producer="producer764" in="00:32:48.867" out="00:32:50.250">
   <property name="kdenlive:id">679</property>
  </entry>
  <entry producer="producer764" in="00:33:42.283" out="00:33:43.567">
   <property name="kdenlive:id">679</property>
  </entry>
  <entry producer="producer764" in="00:33:43.900" out="00:33:44.950">
   <property name="kdenlive:id">679</property>
  </entry>
  <entry producer="producer764" in="00:33:45.183" out="00:33:46.500">
   <property name="kdenlive:id">679</property>
  </entry>
  <entry producer="producer764" in="00:33:46.900" out="00:33:48.233">
   <property name="kdenlive:id">679</property>
   <filter id="filter609">
    <property name="rotate_center">1</property>
    <property name="mlt_service">qtblend</property>
    <property name="kdenlive_id">qtblend</property>
    <property name="rect">00:33:46.900=-2813 -430 5952 3348 1.000000</property>
    <property name="rotation">00:33:46.900=0</property>
    <property name="compositing">0</property>
    <property name="distort">0</property>
    <property name="kdenlive:collapsed">1</property>
   </filter>
   <filter id="filter610">
    <property name="rotate_center">1</property>
    <property name="mlt_service">qtblend</property>
    <property name="kdenlive_id">qtblend</property>
    <property name="rect">00:33:46.900=0 0 1920 1080 1.000000;00:33:48.233=-48 -27 2016 1134 1.000000</property>
    <property name="rotation">00:33:46.900=0;00:33:48.233=0</property>
    <property name="compositing">0</property>
    <property name="distort">0</property>
    <property name="kdenlive:collapsed">0</property>
   </filter>
  </entry>
  <entry producer="producer764" in="00:40:25.867" out="00:40:27.017">
   <property name="kdenlive:id">679</property>
  </entry>
  <entry producer="producer764" in="00:42:20.150" out="00:42:24.350">
   <property name="kdenlive:id">679</property>
  </entry>
  <entry producer="producer764" in="00:42:30.900" out="00:42:31.500">
   <property name="kdenlive:id">679</property>
  </entry>
  <entry producer="producer764" in="00:42:32.917" out="00:42:33.583">
   <property name="kdenlive:id">679</property>
   <filter id="filter611">
    <property name="rotate_center">1</property>
    <property name="mlt_service">qtblend</property>
    <property name="kdenlive_id">qtblend</property>
    <property name="rect">00:42:32.917=-4992 -2808 6912 3888 1.000000</property>
    <property name="rotation">00:42:32.917=0</property>
    <property name="compositing">0</property>
    <property name="distort">0</property>
    <property name="kdenlive:collapsed">0</property>
   </filter>
   <filter id="filter612">
    <property name="rotate_center">1</property>
    <property name="mlt_service">qtblend</property>
    <property name="kdenlive_id">qtblend</property>
    <property name="rect">00:42:32.917=0 0 1920 1080 1</property>
    <property name="rotation">00:42:32.917=0</property>
    <property name="compositing">0</property>
    <property name="distort">0</property>
    <property name="kdenlive:collapsed">0</property>
   </filter>
  </entry>
  <entry producer="producer764" in="00:42:45.250" out="00:42:46.883">
   <property name="kdenlive:id">679</property>
  </entry>
  <entry producer="producer764" in="00:42:46.900" out="00:42:48.617">
   <property name="kdenlive:id">679</property>
  </entry>
  <entry producer="producer764" in="00:43:07.833" out="00:43:08.833">
   <property name="kdenlive:id">679</property>
   <filter id="filter613">
    <property name="rotate_center">1</property>
    <property name="mlt_service">qtblend</property>
    <property name="kdenlive_id">qtblend</property>
    <property name="rect">00:43:07.833=-4992 -2808 6912 3888 1.000000</property>
    <property name="rotation">00:43:07.833=0</property>
    <property name="compositing">0</property>
    <property name="distort">0</property>
    <property name="kdenlive:collapsed">1</property>
   </filter>
   <filter id="filter614">
    <property name="rotate_center">1</property>
    <property name="mlt_service">qtblend</property>
    <property name="kdenlive_id">qtblend</property>
    <property name="rect">00:43:07.833=-1965 -640 3936 2214 1.000000</property>
    <property name="rotation">00:43:07.833=0</property>
    <property name="compositing">0</property>
    <property name="distort">0</property>
    <property name="kdenlive:collapsed">0</property>
   </filter>
  </entry>
  <entry producer="producer764" in="00:43:08.850" out="00:43:10.167">
   <property name="kdenlive:id">679</property>
  </entry>
  <entry producer="producer764" in="00:44:14.017" out="00:44:15.917">
   <property name="kdenlive:id">679</property>
  </entry>
  <entry producer="producer764" in="00:44:46.817" out="00:44:48.483">
   <property name="kdenlive:id">679</property>
  </entry>
  <entry producer="producer764" in="00:45:27.833" out="00:45:31.917">
   <property name="kdenlive:id">679</property>
   <filter id="filter615">
    <property name="rotate_center">1</property>
    <property name="mlt_service">qtblend</property>
    <property name="kdenlive_id">qtblend</property>
    <property name="rect">00:45:27.833=-1473 -302 4800 2700 1.000000</property>
    <property name="rotation">00:45:27.833=0</property>
    <property name="compositing">0</property>
    <property name="distort">0</property>
    <property name="kdenlive:collapsed">0</property>
   </filter>
  </entry>
  <entry producer="producer764" in="00:46:16.950" out="00:46:18.333">
   <property name="kdenlive:id">679</property>
  </entry>
  <entry producer="producer764" in="00:46:33.167" out="00:46:36.800">
   <property name="kdenlive:id">679</property>
  </entry>
  <entry producer="producer764" in="00:46:59.933" out="00:47:02.700">
   <property name="kdenlive:id">679</property>
   <filter id="filter616">
    <property name="rotate_center">1</property>
    <property name="mlt_service">qtblend</property>
    <property name="kdenlive_id">qtblend</property>
    <property name="rect">00:46:59.933=0 0 1920 1080 1.000000;00:47:02.700=-48 -27 2016 1134 1.000000</property>
    <property name="rotation">00:46:59.933=0;00:47:02.700=0</property>
    <property name="compositing">0</property>
    <property name="distort">0</property>
    <property name="kdenlive:collapsed">0</property>
   </filter>
  </entry>
  <entry producer="producer764" in="00:47:02.717" out="00:47:03.533">
   <property name="kdenlive:id">679</property>
   <filter id="filter617">
    <property name="rotate_center">1</property>
    <property name="mlt_service">qtblend</property>
    <property name="kdenlive_id">qtblend</property>
    <property name="rect">00:47:02.717=-4992 -2808 6912 3888 1.000000</property>
    <property name="rotation">00:47:02.717=0</property>
    <property name="compositing">0</property>
    <property name="distort">0</property>
    <property name="kdenlive:collapsed">1</property>
   </filter>
   <filter id="filter618">
    <property name="rotate_center">1</property>
    <property name="mlt_service">qtblend</property>
    <property name="kdenlive_id">qtblend</property>
    <property name="rect">00:47:02.717=-940 -379 2880 1620 1.000000;00:47:03.533=-988 -406 2976 1674 1.000000</property>
    <property name="rotation">00:47:02.717=0;00:47:03.533=0</property>
    <property name="compositing">0</property>
    <property name="distort">0</property>
    <property name="kdenlive:collapsed">0</property>
   </filter>
  </entry>
  <entry producer="producer764" in="00:47:12.917" out="00:47:14.800">
   <property name="kdenlive:id">679</property>
  </entry>
  <entry producer="producer764" in="00:47:21.083" out="00:47:26.383">
   <property name="kdenlive:id">679</property>
   <filter id="filter619">
    <property name="rotate_center">1</property>
    <property name="mlt_service">qtblend</property>
    <property name="kdenlive_id">qtblend</property>
    <property name="rect">00:47:21.083=0 0 1920 1080 1.000000;00:47:26.383=-1440 -810 3360 1890 1.000000</property>
    <property name="rotation">00:47:21.083=0;00:47:26.383=0</property>
    <property name="compositing">0</property>
    <property name="distort">0</property>
    <property name="kdenlive:collapsed">0</property>
   </filter>
  </entry>
  <entry producer="producer764" in="00:47:36.517" out="00:47:37.750">
   <property name="kdenlive:id">679</property>
  </entry>
  <entry producer="producer764" in="00:47:38.717" out="00:47:39.783">
   <property name="kdenlive:id">679</property>
  </entry>
  <entry producer="producer764" in="00:47:46.483" out="00:47:49.883">
   <property name="kdenlive:id">679</property>
  </entry>
  <entry producer="producer764" in="00:48:00.767" out="00:48:01.833">
   <property name="kdenlive:id">679</property>
  </entry>
  <blank length="00:00:01.317"/>
  <entry producer="producer764" in="00:48:01.850" out="00:48:02.950">
   <property name="kdenlive:id">679</property>
  </entry>
  <entry producer="producer764" in="00:48:18.217" out="00:48:19.100">
   <property name="kdenlive:id">679</property>
  </entry>
  <entry producer="producer764" in="00:48:19.700" out="00:48:20.933">
   <property name="kdenlive:id">679</property>
  </entry>
  <entry producer="producer764" in="00:48:21.467" out="00:48:22.767">
   <property name="kdenlive:id">679</property>
  </entry>
  <entry producer="producer764" in="00:48:26.017" out="00:48:26.750">
   <property name="kdenlive:id">679</property>
  </entry>
  <entry producer="producer764" in="00:48:26.983" out="00:48:27.900">
   <property name="kdenlive:id">679</property>
  </entry>
  <entry producer="producer764" in="00:48:27.917" out="00:48:28.633">
   <property name="kdenlive:id">679</property>
   <filter id="filter620">
    <property name="rotate_center">1</property>
    <property name="mlt_service">qtblend</property>
    <property name="kdenlive_id">qtblend</property>
    <property name="rect">00:48:27.917=-4992 -2808 6912 3888 1.000000</property>
    <property name="rotation">00:48:27.917=0</property>
    <property name="compositing">0</property>
    <property name="distort">0</property>
   </filter>
   <filter id="filter621">
    <property name="rotate_center">1</property>
    <property name="mlt_service">qtblend</property>
    <property name="kdenlive_id">qtblend</property>
    <property name="rect">00:48:27.917=0 0 1920 1080 1</property>
    <property name="rotation">00:48:27.917=0</property>
    <property name="compositing">0</property>
    <property name="distort">0</property>
   </filter>
   <filter id="filter622">
    <property name="version">0.3</property>
    <property name="mlt_service">frei0r.saturat0r</property>
    <property name="kdenlive_id">Black&amp;WHite</property>
    <property name="Saturation">00:00:15.367=0.001</property>
   </filter>
  </entry>
  <entry producer="producer764" in="00:48:36.267" out="00:48:37.200">
   <property name="kdenlive:id">679</property>
  </entry>
  <entry producer="producer764" in="00:48:38.217" out="00:48:40.800">
   <property name="kdenlive:id">679</property>
  </entry>
  <entry producer="producer764" in="00:51:27.433" out="00:51:29.133">
   <property name="kdenlive:id">679</property>
  </entry>
  <entry producer="producer764" in="00:51:29.517" out="00:51:32.983">
   <property name="kdenlive:id">679</property>
   <filter id="filter623">
    <property name="rotate_center">1</property>
    <property name="mlt_service">qtblend</property>
    <property name="kdenlive_id">qtblend</property>
    <property name="rect">00:51:29.517=0 0 1920 1080 1.000000;00:51:32.983=-48 -27 2016 1134 1.000000</property>
    <property name="rotation">00:51:29.517=0;00:51:32.983=0</property>
    <property name="compositing">0</property>
    <property name="distort">0</property>
    <property name="kdenlive:collapsed">0</property>
   </filter>
  </entry>
  <entry producer="producer764" in="00:51:33.250" out="00:51:34.533">
   <property name="kdenlive:id">679</property>
   <filter id="filter624">
    <property name="rotate_center">1</property>
    <property name="mlt_service">qtblend</property>
    <property name="kdenlive_id">qtblend</property>
    <property name="rect">00:51:33.250=-1951 -154 5376 3024 1.000000</property>
    <property name="rotation">00:51:33.250=0</property>
    <property name="compositing">0</property>
    <property name="distort">0</property>
    <property name="kdenlive:collapsed">1</property>
   </filter>
   <filter id="filter625">
    <property name="version">0.1</property>
    <property name="mlt_service">frei0r.letterb0xed</property>
    <property name="kdenlive_id">frei0r.letterb0xed</property>
    <property name="Border Width">00:51:33.250=0.073;00:51:33.350=0.4</property>
    <property name="Transparency">0</property>
    <property name="kdenlive:collapsed">0</property>
   </filter>
  </entry>
  <entry producer="producer764" in="00:51:34.550" out="00:51:35.033">
   <property name="kdenlive:id">679</property>
   <filter id="filter626">
    <property name="rotate_center">1</property>
    <property name="mlt_service">qtblend</property>
    <property name="kdenlive_id">qtblend</property>
    <property name="rect">00:51:34.550=-4992 -2808 6912 3888 1.000000</property>
    <property name="rotation">00:51:34.550=0</property>
    <property name="compositing">0</property>
    <property name="distort">0</property>
   </filter>
   <filter id="filter627">
    <property name="rotate_center">1</property>
    <property name="mlt_service">qtblend</property>
    <property name="kdenlive_id">qtblend</property>
    <property name="rect">00:51:34.550=0 0 1920 1080 1</property>
    <property name="rotation">00:51:34.550=0</property>
    <property name="compositing">0</property>
    <property name="distort">0</property>
   </filter>
  </entry>
  <entry producer="producer764" in="00:51:38.517" out="00:51:40.533">
   <property name="kdenlive:id">679</property>
  </entry>
  <entry producer="producer764" in="00:53:57.650" out="00:53:58.567">
   <property name="kdenlive:id">679</property>
  </entry>
  <entry producer="producer764" in="00:54:06.650" out="00:54:07.467">
   <property name="kdenlive:id">679</property>
  </entry>
  <entry producer="producer764" in="00:54:10.900" out="00:54:11.817">
   <property name="kdenlive:id">679</property>
  </entry>
  <entry producer="producer764" in="00:55:03.917" out="00:55:05.517">
   <property name="kdenlive:id">679</property>
  </entry>
  <entry producer="producer764" in="00:55:07.817" out="00:55:09.483">
   <property name="kdenlive:id">679</property>
  </entry>
  <entry producer="producer764" in="00:56:04.517" out="00:56:06.133">
   <property name="kdenlive:id">679</property>
  </entry>
  <entry producer="producer764" in="00:57:20.400" out="00:57:21.900">
   <property name="kdenlive:id">679</property>
  </entry>
  <entry producer="producer764" in="00:59:38.833" out="00:59:41.917">
   <property name="kdenlive:id">679</property>
  </entry>
  <entry producer="producer764" in="01:01:14.383" out="01:01:19.817">
   <property name="kdenlive:id">679</property>
   <filter id="filter628">
    <property name="rotate_center">1</property>
    <property name="mlt_service">qtblend</property>
    <property name="kdenlive_id">qtblend</property>
    <property name="rect">01:01:14.383=0 0 1920 1080 1.000000;01:01:19.817=-48 -27 2016 1134 1.000000</property>
    <property name="rotation">01:01:14.383=0;01:01:19.817=0</property>
    <property name="compositing">0</property>
    <property name="distort">0</property>
    <property name="kdenlive:collapsed">0</property>
   </filter>
  </entry>
  <entry producer="producer764" in="01:01:21.800" out="01:01:22.500">
   <property name="kdenlive:id">679</property>
  </entry>
  <entry producer="producer764" in="01:01:22.517" out="01:01:23.933">
   <property name="kdenlive:id">679</property>
   <filter id="filter629">
    <property name="version">0.3</property>
    <property name="mlt_service">frei0r.saturat0r</property>
    <property name="kdenlive_id">Black&amp;WHite</property>
    <property name="Saturation">00:00:15.367=0.001</property>
    <property name="kdenlive:collapsed">1</property>
   </filter>
   <filter id="filter630">
    <property name="rotate_center">1</property>
    <property name="mlt_service">qtblend</property>
    <property name="kdenlive_id">qtblend</property>
    <property name="rect">01:01:22.517=0 0 1920 1080 1.000000;01:01:22.550=96 54 1728 972 1.000000;01:01:23.933=144 81 1632 918 1.000000</property>
    <property name="rotation">01:01:22.517=0;01:01:22.550=0;01:01:23.933=0</property>
    <property name="compositing">0</property>
    <property name="distort">0</property>
    <property name="kdenlive:collapsed">0</property>
   </filter>
  </entry>
  <entry producer="producer764" in="01:06:33.467" out="01:06:36.750">
   <property name="kdenlive:id">679</property>
  </entry>
  <entry producer="producer764" in="01:06:52.317" out="01:06:53.617">
   <property name="kdenlive:id">679</property>
  </entry>
  <entry producer="producer764" in="01:06:53.883" out="01:06:55.717">
   <property name="kdenlive:id">679</property>
  </entry>
  <entry producer="producer764" in="01:07:42.517" out="01:07:45.533">
   <property name="kdenlive:id">679</property>
  </entry>
  <entry producer="producer764" in="01:07:48.300" out="01:07:49.117">
   <property name="kdenlive:id">679</property>
  </entry>
  <entry producer="producer764" in="01:08:34.550" out="01:08:35.200">
   <property name="kdenlive:id">679</property>
  </entry>
  <entry producer="producer764" in="01:08:38.017" out="01:08:39.333">
   <property name="kdenlive:id">679</property>
  </entry>
  <entry producer="producer764" in="01:08:49.633" out="01:08:51.100">
   <property name="kdenlive:id">679</property>
  </entry>
  <entry producer="producer764" in="01:08:53.800" out="01:08:54.983">
   <property name="kdenlive:id">679</property>
  </entry>
  <entry producer="producer764" in="01:10:54.750" out="01:10:55.600">
   <property name="kdenlive:id">679</property>
  </entry>
  <entry producer="producer764" in="01:10:55.617" out="01:10:56.450">
   <property name="kdenlive:id">679</property>
   <filter id="filter631">
    <property name="rotate_center">1</property>
    <property name="mlt_service">qtblend</property>
    <property name="kdenlive_id">qtblend</property>
    <property name="rect">01:10:55.617=0 0 1920 1080 1.000000;01:10:55.683=-1152 -648 4224 2376 1.000000;01:10:56.050=-2659 -1414 7200 4050 1.000000</property>
    <property name="rotation">01:10:55.617=0;01:10:55.683=0;01:10:56.050=0</property>
    <property name="compositing">0</property>
    <property name="distort">0</property>
    <property name="kdenlive:collapsed">0</property>
   </filter>
  </entry>
  <entry producer="producer764" in="01:11:14.533" out="01:11:16.383">
   <property name="kdenlive:id">679</property>
  </entry>
  <entry producer="producer764" in="01:12:38.200" out="01:12:40.333">
   <property name="kdenlive:id">679</property>
  </entry>
  <entry producer="producer764" in="01:12:53.117" out="01:12:53.950">
   <property name="kdenlive:id">679</property>
  </entry>
  <entry producer="producer764" in="01:12:53.967" out="01:12:54.500">
   <property name="kdenlive:id">679</property>
   <filter id="filter632">
    <property name="rotate_center">1</property>
    <property name="mlt_service">qtblend</property>
    <property name="kdenlive_id">qtblend</property>
    <property name="rect">01:12:53.967=-9230 -4688 11424 6426 1.000000</property>
    <property name="rotation">01:12:53.967=0</property>
    <property name="compositing">0</property>
    <property name="distort">0</property>
    <property name="kdenlive:collapsed">1</property>
   </filter>
   <filter id="filter633">
    <property name="rotate_center">1</property>
    <property name="mlt_service">qtblend</property>
    <property name="kdenlive_id">qtblend</property>
    <property name="rect">01:12:53.967=0 0 1920 1080 1.000000;01:12:54.500=-240 -135 2400 1350 1.000000</property>
    <property name="rotation">01:12:53.967=0;01:12:54.500=0</property>
    <property name="compositing">0</property>
    <property name="distort">0</property>
    <property name="kdenlive:collapsed">0</property>
   </filter>
  </entry>
  <entry producer="producer764" in="01:23:55.633" out="01:23:56.400">
   <property name="kdenlive:id">679</property>
  </entry>
  <entry producer="producer764" in="01:23:56.417" out="01:23:57.100">
   <property name="kdenlive:id">679</property>
   <filter id="filter634">
    <property name="rotate_center">1</property>
    <property name="mlt_service">qtblend</property>
    <property name="kdenlive_id">qtblend</property>
    <property name="rect">01:23:56.417=-9230 -4688 11424 6426 1.000000</property>
    <property name="rotation">01:23:56.417=0</property>
    <property name="compositing">0</property>
    <property name="distort">0</property>
    <property name="kdenlive:collapsed">1</property>
   </filter>
   <filter id="filter635">
    <property name="rotate_center">1</property>
    <property name="mlt_service">qtblend</property>
    <property name="kdenlive_id">qtblend</property>
    <property name="rect">01:23:56.417=0 0 1920 1080 1.000000;01:23:56.467=-192 -108 2304 1296 1.000000;01:23:57.100=-240 -135 2400 1350 1.000000</property>
    <property name="rotation">01:23:56.417=0;01:23:56.467=0;01:23:57.100=0</property>
    <property name="compositing">0</property>
    <property name="distort">0</property>
    <property name="kdenlive:collapsed">0</property>
   </filter>
  </entry>
  <entry producer="producer764" in="01:25:35.567" out="01:25:36.750">
   <property name="kdenlive:id">679</property>
  </entry>
  <entry producer="producer764" in="01:25:37.600" out="01:25:39.133">
   <property name="kdenlive:id">679</property>
  </entry>
  <entry producer="producer764" in="01:25:41.517" out="01:25:43.033">
   <property name="kdenlive:id">679</property>
  </entry>
  <entry producer="producer764" in="01:25:56.833" out="01:25:57.717">
   <property name="kdenlive:id">679</property>
  </entry>
  <entry producer="producer764" in="01:25:48.250" out="01:25:50.100">
   <property name="kdenlive:id">679</property>
  </entry>
  <entry producer="producer764" in="01:26:26.833" out="01:26:27.967">
   <property name="kdenlive:id">679</property>
  </entry>
  <entry producer="producer764" in="01:26:28.300" out="01:26:30.133">
   <property name="kdenlive:id">679</property>
  </entry>
  <entry producer="producer764" in="01:29:20.117" out="01:29:21.033">
   <property name="kdenlive:id">679</property>
  </entry>
  <entry producer="producer764" in="01:29:29.300" out="01:29:30.400">
   <property name="kdenlive:id">679</property>
  </entry>
  <entry producer="producer764" in="01:30:35.867" out="01:30:38.400">
   <property name="kdenlive:id">679</property>
   <property name="kdenlive:activeeffect">-1</property>
  </entry>
  <entry producer="producer764" in="01:39:33.467" out="01:39:34.867">
   <property name="kdenlive:id">679</property>
  </entry>
  <entry producer="producer764" in="01:39:43.150" out="01:39:45.183">
   <property name="kdenlive:id">679</property>
  </entry>
  <entry producer="producer764" in="01:42:09.450" out="01:42:11.350">
   <property name="kdenlive:id">679</property>
   <filter id="filter636">
    <property name="rotate_center">1</property>
    <property name="mlt_service">qtblend</property>
    <property name="kdenlive_id">qtblend</property>
    <property name="rect">01:42:09.450=0 0 1920 1080 1.000000;01:42:10.033=0 0 1920 1080 1.000000;01:42:10.367=-468 -147 3456 1944 1.000000</property>
    <property name="rotation">01:42:09.450=0;01:42:10.033=0;01:42:10.367=0</property>
    <property name="compositing">0</property>
    <property name="distort">0</property>
    <property name="kdenlive:collapsed">0</property>
   </filter>
  </entry>
  <entry producer="producer764" in="01:42:15.083" out="01:42:17.100">
   <property name="kdenlive:id">679</property>
  </entry>
  <entry producer="producer764" in="01:43:04.017" out="01:43:04.967">
   <property name="kdenlive:id">679</property>
  </entry>
  <entry producer="producer764" in="01:43:05.817" out="01:43:08.767">
   <property name="kdenlive:id">679</property>
  </entry>
  <entry producer="producer764" in="01:43:10.417" out="01:43:11.033">
   <property name="kdenlive:id">679</property>
  </entry>
  <entry producer="producer764" in="01:43:13.433" out="01:43:14.517">
   <property name="kdenlive:id">679</property>
  </entry>
  <entry producer="producer764" in="01:43:19.083" out="01:43:20.650">
   <property name="kdenlive:id">679</property>
  </entry>
  <entry producer="producer764" in="01:43:22.250" out="01:43:23.583">
   <property name="kdenlive:id">679</property>
  </entry>
  <entry producer="producer764" in="01:43:25.400" out="01:43:26.500">
   <property name="kdenlive:id">679</property>
   <filter id="filter637">
    <property name="version">0.3</property>
    <property name="mlt_service">frei0r.saturat0r</property>
    <property name="kdenlive_id">Black&amp;WHite</property>
    <property name="Saturation">00:00:15.367=0.001</property>
    <property name="kdenlive:collapsed">1</property>
   </filter>
   <filter id="filter638">
    <property name="rotate_center">1</property>
    <property name="mlt_service">qtblend</property>
    <property name="kdenlive_id">qtblend</property>
    <property name="rect">01:43:25.400=-9230 -4688 11424 6426 1.000000</property>
    <property name="rotation">01:43:25.400=0</property>
    <property name="compositing">0</property>
    <property name="distort">0</property>
    <property name="kdenlive:collapsed">0</property>
   </filter>
   <filter id="filter639">
    <property name="rotate_center">1</property>
    <property name="mlt_service">qtblend</property>
    <property name="kdenlive_id">qtblend</property>
    <property name="rect">01:43:25.400=0 0 1920 1080 1.000000;01:43:25.450=96 54 1728 972 1.000000;01:43:26.500=144 81 1632 918 1.000000</property>
    <property name="rotation">01:43:25.400=0;01:43:25.450=0;01:43:26.500=0</property>
    <property name="compositing">0</property>
    <property name="distort">0</property>
    <property name="kdenlive:collapsed">0</property>
   </filter>
   <filter id="filter640">
    <property name="rotate_center">1</property>
    <property name="mlt_service">qtblend</property>
    <property name="kdenlive_id">qtblend</property>
    <property name="rect">01:43:25.400=0 0 1920 1080 1</property>
    <property name="rotation">01:43:25.400=0</property>
    <property name="compositing">0</property>
    <property name="distort">0</property>
    <property name="kdenlive:collapsed">0</property>
   </filter>
  </entry>
  <entry producer="producer764" in="01:44:25.033" out="01:44:27.283">
   <property name="kdenlive:id">679</property>
  </entry>
  <entry producer="producer764" in="01:44:29.467" out="01:44:31.367">
   <property name="kdenlive:id">679</property>
   <filter id="filter641">
    <property name="rotate_center">1</property>
    <property name="mlt_service">qtblend</property>
    <property name="kdenlive_id">qtblend</property>
    <property name="rect">01:44:29.467=0 0 1920 1080 1.000000;01:44:31.367=-48 -27 2016 1134 1.000000</property>
    <property name="rotation">01:44:29.467=0;01:44:31.367=0</property>
    <property name="compositing">0</property>
    <property name="distort">0</property>
    <property name="kdenlive:collapsed">0</property>
   </filter>
  </entry>
  <entry producer="producer764" in="01:44:38.667" out="01:44:40.150">
   <property name="kdenlive:id">679</property>
  </entry>
  <entry producer="producer764" in="01:44:50.733" out="01:44:52.250">
   <property name="kdenlive:id">679</property>
   <filter id="filter642">
    <property name="rotate_center">1</property>
    <property name="mlt_service">qtblend</property>
    <property name="kdenlive_id">qtblend</property>
    <property name="rect">01:44:50.733=0 0 1920 1080 1.000000;01:44:52.250=-48 -27 2016 1134 1.000000</property>
    <property name="rotation">01:44:50.733=0;01:44:52.250=0</property>
    <property name="compositing">0</property>
    <property name="distort">0</property>
    <property name="kdenlive:collapsed">0</property>
   </filter>
  </entry>
  <entry producer="producer764" in="01:45:15.150" out="01:45:16.167">
   <property name="kdenlive:id">679</property>
  </entry>
  <entry producer="producer764" in="01:45:17.183" out="01:45:18.267">
   <property name="kdenlive:id">679</property>
  </entry>
  <entry producer="producer764" in="01:45:21.217" out="01:45:23.733">
   <property name="kdenlive:id">679</property>
   <filter id="filter643">
    <property name="rotate_center">1</property>
    <property name="mlt_service">qtblend</property>
    <property name="kdenlive_id">qtblend</property>
    <property name="rect">01:45:21.217=0 0 1920 1080 1.000000;01:45:23.733=-96 -54 2112 1188 1.000000</property>
    <property name="rotation">01:45:21.217=0;01:45:23.733=0</property>
    <property name="compositing">0</property>
    <property name="distort">0</property>
    <property name="kdenlive:collapsed">0</property>
   </filter>
  </entry>
  <entry producer="producer764" in="01:45:23.750" out="01:45:24.083">
   <property name="kdenlive:id">679</property>
   <filter id="filter644">
    <property name="rotate_center">1</property>
    <property name="mlt_service">qtblend</property>
    <property name="kdenlive_id">qtblend</property>
    <property name="rect">01:45:23.750=-96 -54 2112 1188 1.000000</property>
    <property name="rotation">01:45:23.750=0</property>
    <property name="compositing">0</property>
    <property name="distort">0</property>
    <property name="kdenlive:collapsed">0</property>
   </filter>
  </entry>
  <entry producer="producer764" in="01:52:06.617" out="01:52:07.933">
   <property name="kdenlive:id">679</property>
  </entry>
  <entry producer="producer764" in="01:55:46.783" out="01:55:49.750">
   <property name="kdenlive:id">679</property>
  </entry>
  <entry producer="producer764" in="01:55:57.667" out="01:55:58.000">
   <property name="kdenlive:id">679</property>
  </entry>
  <entry producer="producer764" in="01:55:58.017" out="01:55:59.250">
   <property name="kdenlive:id">679</property>
  </entry>
  <entry producer="producer764" in="01:56:00.017" out="01:56:00.683">
   <property name="kdenlive:id">679</property>
   <filter id="filter645">
    <property name="rotate_center">1</property>
    <property name="mlt_service">qtblend</property>
    <property name="kdenlive_id">qtblend</property>
    <property name="rect">01:56:00.017=-9230 -4688 11424 6426 1.000000</property>
    <property name="rotation">01:56:00.017=0</property>
    <property name="compositing">0</property>
    <property name="distort">0</property>
    <property name="kdenlive:collapsed">1</property>
   </filter>
   <filter id="filter646">
    <property name="rotate_center">1</property>
    <property name="mlt_service">qtblend</property>
    <property name="kdenlive_id">qtblend</property>
    <property name="rect">01:56:00.017=-528 -297 2976 1674 1.000000</property>
    <property name="rotation">01:56:00.017=0</property>
    <property name="compositing">0</property>
    <property name="distort">0</property>
    <property name="kdenlive:collapsed">0</property>
   </filter>
  </entry>
  <entry producer="producer764" in="01:56:01.283" out="01:56:01.717">
   <property name="kdenlive:id">679</property>
  </entry>
  <entry producer="producer764" in="02:06:27.450" out="02:06:28.467">
   <property name="kdenlive:id">679</property>
  </entry>
  <entry producer="producer764" in="02:06:41.750" out="02:06:43.033">
   <property name="kdenlive:id">679</property>
  </entry>
  <entry producer="producer764" in="02:06:47.617" out="02:06:48.533">
   <property name="kdenlive:id">679</property>
  </entry>
  <entry producer="producer764" in="02:06:57.600" out="02:07:00.250">
   <property name="kdenlive:id">679</property>
  </entry>
  <entry producer="producer764" in="02:07:16.767" out="02:07:17.250">
   <property name="kdenlive:id">679</property>
  </entry>
  <entry producer="producer764" in="02:07:23.017" out="02:07:23.650">
   <property name="kdenlive:id">679</property>
  </entry>
  <entry producer="producer764" in="02:07:25.933" out="02:07:27.000">
   <property name="kdenlive:id">679</property>
   <filter id="filter647">
    <property name="rotate_center">1</property>
    <property name="mlt_service">qtblend</property>
    <property name="kdenlive_id">qtblend</property>
    <property name="rect">02:07:25.933=164 -3 1920 1080 1.000000;02:07:26.600=164 -3 1920 1080 1.000000;02:07:26.633=40 -3 1920 1080 1.000000</property>
    <property name="rotation">02:07:25.933=0;02:07:26.600=0;02:07:26.633=0</property>
    <property name="compositing">0</property>
    <property name="distort">0</property>
    <property name="kdenlive:collapsed">0</property>
   </filter>
   <filter id="filter648">
    <property name="rotate_center">1</property>
    <property name="mlt_service">qtblend</property>
    <property name="kdenlive_id">qtblend</property>
    <property name="rect">02:07:25.933=-9241 -4688 11424 6426 1.000000</property>
    <property name="rotation">02:07:25.933=0</property>
    <property name="compositing">0</property>
    <property name="distort">0</property>
    <property name="kdenlive:collapsed">1</property>
   </filter>
   <filter id="filter649">
    <property name="rotate_center">1</property>
    <property name="mlt_service">qtblend</property>
    <property name="kdenlive_id">qtblend</property>
    <property name="rect">02:07:25.933=0 0 1920 1080 1.000000;02:07:26.017=-288 -162 2496 1404 1.000000;02:07:26.600=-384 -216 2688 1512 1.000000</property>
    <property name="rotation">02:07:25.933=0;02:07:26.017=0;02:07:26.600=0</property>
    <property name="compositing">0</property>
    <property name="distort">0</property>
    <property name="kdenlive:collapsed">0</property>
   </filter>
  </entry>
  <entry producer="producer764" in="02:07:27.017" out="02:07:29.083">
   <property name="kdenlive:id">679</property>
  </entry>
  <entry producer="producer764" in="02:07:37.700" out="02:07:38.317">
   <property name="kdenlive:id">679</property>
  </entry>
  <entry producer="producer764" in="02:07:59.867" out="02:08:02.933">
   <property name="kdenlive:id">679</property>
   <property name="kdenlive:activeeffect">-1</property>
  </entry>
  <entry producer="producer764" in="02:09:10.183" out="02:09:11.200">
   <property name="kdenlive:id">679</property>
  </entry>
  <entry producer="producer764" in="02:09:11.217" out="02:09:11.650">
   <property name="kdenlive:id">679</property>
   <filter id="filter650">
    <property name="rotate_center">1</property>
    <property name="mlt_service">qtblend</property>
    <property name="kdenlive_id">qtblend</property>
    <property name="rect">02:09:11.217=0 0 1920 1080 1.000000;02:09:11.650=-356 -41 3360 1890 1.000000</property>
    <property name="rotation">02:09:11.217=0;02:09:11.650=0</property>
    <property name="compositing">0</property>
    <property name="distort">0</property>
    <property name="kdenlive:collapsed">0</property>
   </filter>
  </entry>
  <entry producer="producer764" in="02:09:11.667" out="02:09:12.700">
   <property name="kdenlive:id">679</property>
   <filter id="filter651">
    <property name="rotate_center">1</property>
    <property name="mlt_service">qtblend</property>
    <property name="kdenlive_id">qtblend</property>
    <property name="rect">02:09:11.667=-356 -41 3360 1890 1.000000</property>
    <property name="rotation">02:09:11.667=0</property>
    <property name="compositing">0</property>
    <property name="distort">0</property>
   </filter>
  </entry>
  <entry producer="producer764" in="02:09:12.717" out="02:09:13.183">
   <property name="kdenlive:id">679</property>
  </entry>
  <entry producer="producer764" in="02:09:13.200" out="02:09:15.567">
   <property name="kdenlive:id">679</property>
  </entry>
  <entry producer="producer764" in="02:16:17.400" out="02:16:18.417">
   <property name="kdenlive:id">679</property>
  </entry>
  <entry producer="producer764" in="02:17:43.317" out="02:17:44.767">
   <property name="kdenlive:id">679</property>
  </entry>
  <entry producer="producer764" in="02:17:46.100" out="02:17:47.033">
   <property name="kdenlive:id">679</property>
  </entry>
  <entry producer="producer764" in="02:17:47.050" out="02:17:47.800">
   <property name="kdenlive:id">679</property>
   <filter id="filter652">
    <property name="rotate_center">1</property>
    <property name="mlt_service">qtblend</property>
    <property name="kdenlive_id">qtblend</property>
    <property name="rect">02:17:47.050=-9230 -4688 11424 6426 1.000000</property>
    <property name="rotation">02:17:47.050=0</property>
    <property name="compositing">0</property>
    <property name="distort">0</property>
    <property name="kdenlive:collapsed">1</property>
   </filter>
   <filter id="filter653">
    <property name="rotate_center">1</property>
    <property name="mlt_service">qtblend</property>
    <property name="kdenlive_id">qtblend</property>
    <property name="rect">02:17:47.050=0 0 1920 1080 1.000000;02:17:47.100=-96 -54 2112 1188 1.000000</property>
    <property name="rotation">02:17:47.050=0;02:17:47.100=0</property>
    <property name="compositing">0</property>
    <property name="distort">0</property>
    <property name="kdenlive:collapsed">0</property>
   </filter>
  </entry>
  <entry producer="producer764" in="02:20:29.283" out="02:20:31.683">
   <property name="kdenlive:id">679</property>
  </entry>
  <entry producer="producer764" in="02:22:48.500" out="02:22:52.683">
   <property name="kdenlive:id">679</property>
  </entry>
  <entry producer="producer764" in="02:27:44.933" out="02:27:45.050">
   <property name="kdenlive:id">679</property>
  </entry>
  <entry producer="producer764" in="02:27:45.067" out="02:27:47.283">
   <property name="kdenlive:id">679</property>
  </entry>
  <entry producer="producer764" in="02:28:03.783" out="02:28:04.100">
   <property name="kdenlive:id">679</property>
  </entry>
  <entry producer="producer764" in="02:28:04.117" out="02:28:04.533">
   <property name="kdenlive:id">679</property>
   <filter id="filter654">
    <property name="rotate_center">1</property>
    <property name="mlt_service">qtblend</property>
    <property name="kdenlive_id">qtblend</property>
    <property name="rect">02:28:04.117=-2064 -189 6048 3402 1.000000</property>
    <property name="rotation">02:28:04.117=0</property>
    <property name="compositing">0</property>
    <property name="distort">0</property>
    <property name="kdenlive:collapsed">0</property>
   </filter>
  </entry>
  <entry producer="producer764" in="02:29:34.100" out="02:29:36.917">
   <property name="kdenlive:id">679</property>
   <filter id="filter655">
    <property name="rotate_center">1</property>
    <property name="mlt_service">qtblend</property>
    <property name="kdenlive_id">qtblend</property>
    <property name="rect">02:29:34.100=0 0 1920 1080 1.000000;02:29:36.917=-48 -27 2016 1134 1.000000</property>
    <property name="rotation">02:29:34.100=0;02:29:36.917=0</property>
    <property name="compositing">0</property>
    <property name="distort">0</property>
    <property name="kdenlive:collapsed">0</property>
   </filter>
  </entry>
  <entry producer="producer764" in="02:31:38.300" out="02:31:40.083">
   <property name="kdenlive:id">679</property>
  </entry>
  <entry producer="producer764" in="02:31:50.983" out="02:31:51.750">
   <property name="kdenlive:id">679</property>
  </entry>
  <entry producer="producer764" in="02:31:52.817" out="02:31:53.433">
   <property name="kdenlive:id">679</property>
   <filter id="filter656">
    <property name="rotate_center">1</property>
    <property name="mlt_service">qtblend</property>
    <property name="kdenlive_id">qtblend</property>
    <property name="rect">02:31:52.817=-9230 -4688 11424 6426 1.000000</property>
    <property name="rotation">02:31:52.817=0</property>
    <property name="compositing">0</property>
    <property name="distort">0</property>
   </filter>
   <filter id="filter657">
    <property name="rotate_center">1</property>
    <property name="mlt_service">qtblend</property>
    <property name="kdenlive_id">qtblend</property>
    <property name="rect">02:31:52.817=0 0 1920 1080 1</property>
    <property name="rotation">02:31:52.817=0</property>
    <property name="compositing">0</property>
    <property name="distort">0</property>
   </filter>
  </entry>
  <entry producer="producer764" in="02:32:04.950" out="02:32:07.217">
   <property name="kdenlive:id">679</property>
  </entry>
  <entry producer="producer764" in="02:33:24.983" out="02:33:27.083">
   <property name="kdenlive:id">679</property>
  </entry>
  <entry producer="producer764" in="02:33:32.250" out="02:33:34.433">
   <property name="kdenlive:id">679</property>
  </entry>
  <entry producer="producer764" in="02:33:56.750" out="02:33:59.000">
   <property name="kdenlive:id">679</property>
  </entry>
  <entry producer="producer764" in="02:34:02.000" out="02:34:03.267">
   <property name="kdenlive:id">679</property>
  </entry>
  <entry producer="producer764" in="02:34:03.283" out="02:34:04.450">
   <property name="kdenlive:id">679</property>
   <filter id="filter658">
    <property name="version">0.3</property>
    <property name="mlt_service">frei0r.saturat0r</property>
    <property name="kdenlive_id">Black&amp;WHite</property>
    <property name="Saturation">00:00:15.367=0.001</property>
   </filter>
  </entry>
  <entry producer="producer764" in="02:38:08.817" out="02:38:10.933">
   <property name="kdenlive:id">679</property>
  </entry>
  <entry producer="producer764" in="02:38:11.283" out="02:38:13.117">
   <property name="kdenlive:id">679</property>
  </entry>
  <entry producer="producer764" in="02:38:15.150" out="02:38:15.983">
   <property name="kdenlive:id">679</property>
   <filter id="filter659">
    <property name="rotate_center">1</property>
    <property name="mlt_service">qtblend</property>
    <property name="kdenlive_id">qtblend</property>
    <property name="rect">02:38:15.150=-9230 -4688 11424 6426 1.000000</property>
    <property name="rotation">02:38:15.150=0</property>
    <property name="compositing">0</property>
    <property name="distort">0</property>
    <property name="kdenlive:collapsed">0</property>
   </filter>
   <filter id="filter660">
    <property name="rotate_center">1</property>
    <property name="mlt_service">qtblend</property>
    <property name="kdenlive_id">qtblend</property>
    <property name="rect">02:38:15.150=0 0 1920 1080 1</property>
    <property name="rotation">02:38:15.150=0</property>
    <property name="compositing">0</property>
    <property name="distort">0</property>
    <property name="kdenlive:collapsed">0</property>
   </filter>
  </entry>
  <entry producer="producer764" in="02:40:54.067" out="02:40:54.283">
   <property name="kdenlive:id">679</property>
  </entry>
  <entry producer="producer764" in="02:40:54.300" out="02:40:55.967">
   <property name="kdenlive:id">679</property>
  </entry>
  <entry producer="producer764" in="02:47:19.533" out="02:47:21.067">
   <property name="kdenlive:id">679</property>
  </entry>
  <entry producer="producer764" in="02:44:03.750" out="02:44:05.267">
   <property name="kdenlive:id">679</property>
  </entry>
  <entry producer="producer764" in="02:44:08.267" out="02:44:09.300">
   <property name="kdenlive:id">679</property>
   <filter id="filter661">
    <property name="rotate_center">1</property>
    <property name="mlt_service">qtblend</property>
    <property name="kdenlive_id">qtblend</property>
    <property name="rect">02:44:08.267=-9230 -4688 11424 6426 1.000000</property>
    <property name="rotation">02:44:08.267=0</property>
    <property name="compositing">0</property>
    <property name="distort">0</property>
    <property name="kdenlive:collapsed">0</property>
   </filter>
   <filter id="filter662">
    <property name="rotate_center">1</property>
    <property name="mlt_service">qtblend</property>
    <property name="kdenlive_id">qtblend</property>
    <property name="rect">02:44:08.267=0 0 1920 1080 1.000000</property>
    <property name="rotation">02:44:08.267=0</property>
    <property name="compositing">0</property>
    <property name="distort">0</property>
    <property name="kdenlive:collapsed">0</property>
   </filter>
  </entry>
  <entry producer="producer766" in="00:27:56.400" out="00:27:57.133">
   <property name="kdenlive:id">680</property>
  </entry>
  <entry producer="producer766" in="00:29:25.567" out="00:29:27.517">
   <property name="kdenlive:id">680</property>
  </entry>
  <entry producer="producer766" in="00:29:27.533" out="00:29:28.500">
   <property name="kdenlive:id">680</property>
   <filter id="filter663">
    <property name="rotate_center">1</property>
    <property name="mlt_service">qtblend</property>
    <property name="kdenlive_id">qtblend</property>
    <property name="rect">00:29:27.533=-912 -379 3744 2106 1.000000</property>
    <property name="rotation">00:29:27.533=0</property>
    <property name="compositing">0</property>
    <property name="distort">0</property>
    <property name="kdenlive:collapsed">0</property>
   </filter>
  </entry>
  <blank length="00:00:00.633"/>
  <entry producer="producer766" in="00:30:36.817" out="00:30:38.300">
   <property name="kdenlive:id">680</property>
  </entry>
  <entry producer="producer766" in="00:31:37.883" out="00:31:40.067">
   <property name="kdenlive:id">680</property>
  </entry>
  <entry producer="producer766" in="00:31:40.683" out="00:31:41.217">
   <property name="kdenlive:id">680</property>
  </entry>
  <entry producer="producer766" in="00:31:44.433" out="00:31:44.933">
   <property name="kdenlive:id">680</property>
  </entry>
  <entry producer="producer766" in="00:33:25.817" out="00:33:26.500">
   <property name="kdenlive:id">680</property>
   <filter id="filter664">
    <property name="rotate_center">1</property>
    <property name="mlt_service">qtblend</property>
    <property name="kdenlive_id">qtblend</property>
    <property name="rect">00:33:25.817=-1799 -1829 5472 3078 1.000000</property>
    <property name="rotation">00:33:25.817=0</property>
    <property name="compositing">0</property>
    <property name="distort">0</property>
    <property name="kdenlive:collapsed">0</property>
   </filter>
  </entry>
  <entry producer="producer766" in="00:33:27.000" out="00:33:28.517">
   <property name="kdenlive:id">680</property>
  </entry>
  <entry producer="producer766" in="00:33:36.767" out="00:33:38.517">
   <property name="kdenlive:id">680</property>
  </entry>
  <entry producer="producer766" in="00:36:51.867" out="00:36:53.350">
   <property name="kdenlive:id">680</property>
  </entry>
  <entry producer="producer766" in="00:37:06.733" out="00:37:08.600">
   <property name="kdenlive:id">680</property>
  </entry>
  <entry producer="producer766" in="00:37:57.317" out="00:37:58.183">
   <property name="kdenlive:id">680</property>
  </entry>
  <entry producer="producer766" in="00:38:05.517" out="00:38:07.467">
   <property name="kdenlive:id">680</property>
  </entry>
  <entry producer="producer766" in="00:38:07.483" out="00:38:07.917">
   <property name="kdenlive:id">680</property>
   <filter id="filter665">
    <property name="rotate_center">1</property>
    <property name="mlt_service">qtblend</property>
    <property name="kdenlive_id">qtblend</property>
    <property name="rect">00:38:07.483=-5280 -2969 7200 4050 1.000000</property>
    <property name="rotation">00:38:07.483=0</property>
    <property name="compositing">0</property>
    <property name="distort">0</property>
    <property name="kdenlive:collapsed">0</property>
   </filter>
   <filter id="filter666">
    <property name="rotate_center">1</property>
    <property name="mlt_service">qtblend</property>
    <property name="kdenlive_id">qtblend</property>
    <property name="rect">00:38:07.483=0 0 1920 1080 1</property>
    <property name="rotation">00:38:07.483=0</property>
    <property name="compositing">0</property>
    <property name="distort">0</property>
    <property name="kdenlive:collapsed">0</property>
   </filter>
  </entry>
  <entry producer="producer766" in="00:38:15.817" out="00:38:17.500">
   <property name="kdenlive:id">680</property>
  </entry>
  <entry producer="producer766" in="00:38:32.750" out="00:38:34.467">
   <property name="kdenlive:id">680</property>
   <filter id="filter667">
    <property name="rotate_center">1</property>
    <property name="mlt_service">qtblend</property>
    <property name="kdenlive_id">qtblend</property>
    <property name="rect">00:38:32.750=-188 -102 2112 1188 1.000000;00:38:33.433=-188 -102 2112 1188 1.000000;00:38:33.533=-188 -69 2112 1188 1.000000;00:38:34.033=-188 -61 2112 1188 1.000000;00:38:34.250=-195 -66 2112 1188 1.000000;00:38:34.367=-195 -97 2112 1188 1.000000;00:38:34.467=-195 -96 2112 1188 1.000000</property>
    <property name="rotation">00:38:32.750=0;00:38:33.433=0;00:38:33.533=0;00:38:34.033=0;00:38:34.250=0;00:38:34.367=0;00:38:34.467=0</property>
    <property name="compositing">0</property>
    <property name="distort">0</property>
    <property name="kdenlive:collapsed">0</property>
   </filter>
   <filter id="filter668">
    <property name="rotate_center">1</property>
    <property name="mlt_service">qtblend</property>
    <property name="kdenlive_id">qtblend</property>
    <property name="rect">00:38:32.750=-4992 -2808 6912 3888 1.000000</property>
    <property name="rotation">00:38:32.750=0</property>
    <property name="compositing">0</property>
    <property name="distort">0</property>
    <property name="kdenlive:collapsed">1</property>
   </filter>
   <filter id="filter669">
    <property name="rotate_center">1</property>
    <property name="mlt_service">qtblend</property>
    <property name="kdenlive_id">qtblend</property>
    <property name="rect">00:38:32.750=0 0 1920 1080 1.000000;00:38:32.817=-288 -162 2208 1242 1.000000;00:38:34.467=-384 -193 2400 1350 1.000000</property>
    <property name="rotation">00:38:32.750=0;00:38:32.817=0;00:38:34.467=0</property>
    <property name="compositing">0</property>
    <property name="distort">0</property>
    <property name="kdenlive:collapsed">1</property>
   </filter>
  </entry>
  <entry producer="producer766" in="00:46:24.133" out="00:46:25.800">
   <property name="kdenlive:id">680</property>
   <filter id="filter670">
    <property name="rotate_center">1</property>
    <property name="mlt_service">qtblend</property>
    <property name="kdenlive_id">qtblend</property>
    <property name="rect">00:46:24.133=-144 -81 2208 1242 1.000000</property>
    <property name="rotation">00:46:24.133=0</property>
    <property name="compositing">0</property>
    <property name="distort">0</property>
    <property name="kdenlive:collapsed">0</property>
   </filter>
  </entry>
  <entry producer="producer766" in="00:46:29.600" out="00:46:33.467">
   <property name="kdenlive:id">680</property>
  </entry>
  <entry producer="producer766" in="00:48:51.083" out="00:48:55.217">
   <property name="kdenlive:id">680</property>
  </entry>
  <entry producer="producer766" in="00:48:55.233" out="00:48:55.517">
   <property name="kdenlive:id">680</property>
  </entry>
  <entry producer="producer766" in="00:49:01.283" out="00:49:03.183">
   <property name="kdenlive:id">680</property>
   <filter id="filter671">
    <property name="rotate_center">1</property>
    <property name="mlt_service">qtblend</property>
    <property name="kdenlive_id">qtblend</property>
    <property name="rect">00:49:01.283=-4992 -2808 6912 3888 1.000000</property>
    <property name="rotation">00:49:01.283=0</property>
    <property name="compositing">0</property>
    <property name="distort">0</property>
    <property name="kdenlive:collapsed">1</property>
   </filter>
   <filter id="filter672">
    <property name="rotate_center">1</property>
    <property name="mlt_service">qtblend</property>
    <property name="kdenlive_id">qtblend</property>
    <property name="rect">00:49:01.283=0 0 1920 1080 1.000000;00:49:03.183=-192 -54 2112 1188 1.000000</property>
    <property name="rotation">00:49:01.283=0;00:49:03.183=0</property>
    <property name="compositing">0</property>
    <property name="distort">0</property>
    <property name="kdenlive:collapsed">0</property>
   </filter>
  </entry>
  <entry producer="producer766" in="00:49:22.133" out="00:49:22.817">
   <property name="kdenlive:id">680</property>
   <filter id="filter673">
    <property name="rotate_center">1</property>
    <property name="mlt_service">qtblend</property>
    <property name="kdenlive_id">qtblend</property>
    <property name="rect">00:49:22.133=-2875 -126 8160 4590 1.000000</property>
    <property name="rotation">00:49:22.133=0</property>
    <property name="compositing">0</property>
    <property name="distort">0</property>
    <property name="kdenlive:collapsed">0</property>
   </filter>
  </entry>
  <entry producer="producer766" in="00:49:22.817" out="00:49:23.817">
   <property name="kdenlive:id">680</property>
  </entry>
  <entry producer="producer766" in="00:49:40.983" out="00:49:41.533">
   <property name="kdenlive:id">680</property>
  </entry>
  <entry producer="producer766" in="00:49:44.833" out="00:49:45.333">
   <property name="kdenlive:id">680</property>
  </entry>
  <entry producer="producer766" in="00:49:48.867" out="00:49:49.467">
   <property name="kdenlive:id">680</property>
  </entry>
  <entry producer="producer766" in="00:52:25.450" out="00:52:26.450">
   <property name="kdenlive:id">680</property>
  </entry>
  <entry producer="producer766" in="00:52:40.467" out="00:52:43.200">
   <property name="kdenlive:id">680</property>
   <filter id="filter674">
    <property name="rotate_center">1</property>
    <property name="mlt_service">qtblend</property>
    <property name="kdenlive_id">qtblend</property>
    <property name="rect">00:52:40.467=0 0 1920 1080 1.000000;00:52:43.200=-48 -27 2016 1134 1.000000</property>
    <property name="rotation">00:52:40.467=0;00:52:43.200=0</property>
    <property name="compositing">0</property>
    <property name="distort">0</property>
    <property name="kdenlive:collapsed">0</property>
   </filter>
  </entry>
  <entry producer="producer766" in="00:52:43.400" out="00:52:44.000">
   <property name="kdenlive:id">680</property>
   <filter id="filter675">
    <property name="rotate_center">1</property>
    <property name="mlt_service">qtblend</property>
    <property name="kdenlive_id">qtblend</property>
    <property name="rect">00:52:43.400=-4992 -2808 6912 3888 1.000000</property>
    <property name="rotation">00:52:43.400=0</property>
    <property name="compositing">0</property>
    <property name="distort">0</property>
    <property name="kdenlive:collapsed">1</property>
   </filter>
   <filter id="filter676">
    <property name="rotate_center">1</property>
    <property name="mlt_service">qtblend</property>
    <property name="kdenlive_id">qtblend</property>
    <property name="rect">00:52:43.400=0 0 1920 1080 1.000000</property>
    <property name="rotation">00:52:43.400=0</property>
    <property name="compositing">0</property>
    <property name="distort">0</property>
    <property name="kdenlive:collapsed">0</property>
   </filter>
  </entry>
  <entry producer="producer766" in="00:52:44.017" out="00:52:44.767">
   <property name="kdenlive:id">680</property>
   <filter id="filter677">
    <property name="rotate_center">1</property>
    <property name="mlt_service">qtblend</property>
    <property name="kdenlive_id">qtblend</property>
    <property name="rect">00:52:44.017=-4992 -2808 6912 3888 1.000000</property>
    <property name="rotation">00:52:44.017=0</property>
    <property name="compositing">0</property>
    <property name="distort">0</property>
    <property name="kdenlive:collapsed">1</property>
   </filter>
   <filter id="filter678">
    <property name="rotate_center">1</property>
    <property name="mlt_service">qtblend</property>
    <property name="kdenlive_id">qtblend</property>
    <property name="rect">00:52:44.017=0 0 1920 1080 1.000000;00:52:44.367=0 0 1920 1080 1.000000;00:52:44.400=-555 -145 2496 1404 1.000000;00:52:44.500=-664 -183 2620 1474 1.000000;00:52:44.567=-1649 -525 3744 2106 1.000000</property>
    <property name="rotation">00:52:44.017=0;00:52:44.367=0;00:52:44.400=0;00:52:44.500=0;00:52:44.567=0</property>
    <property name="compositing">0</property>
    <property name="distort">0</property>
    <property name="kdenlive:collapsed">0</property>
   </filter>
  </entry>
  <entry producer="producer766" in="00:54:29.233" out="00:54:31.583">
   <property name="kdenlive:id">680</property>
   <filter id="filter679">
    <property name="rotate_center">1</property>
    <property name="mlt_service">qtblend</property>
    <property name="kdenlive_id">qtblend</property>
    <property name="rect">00:54:29.233=0 0 1920 1080 1.000000;00:54:31.583=-48 -27 2016 1134 1.000000</property>
    <property name="rotation">00:54:29.233=0;00:54:31.583=0</property>
    <property name="compositing">0</property>
    <property name="distort">0</property>
    <property name="kdenlive:collapsed">0</property>
   </filter>
  </entry>
  <entry producer="producer766" in="00:54:45.850" out="00:54:47.917">
   <property name="kdenlive:id">680</property>
   <filter id="filter680">
    <property name="rotate_center">1</property>
    <property name="mlt_service">qtblend</property>
    <property name="kdenlive_id">qtblend</property>
    <property name="rect">00:54:45.850=-48 -27 2016 1134 1.000000;00:54:47.917=-96 -54 2112 1188 1.000000</property>
    <property name="rotation">00:54:45.850=0;00:54:47.917=0</property>
    <property name="compositing">0</property>
    <property name="distort">0</property>
    <property name="kdenlive:collapsed">0</property>
   </filter>
  </entry>
  <entry producer="producer766" in="00:54:47.933" out="00:54:48.533">
   <property name="kdenlive:id">680</property>
   <filter id="filter681">
    <property name="rotate_center">1</property>
    <property name="mlt_service">qtblend</property>
    <property name="kdenlive_id">qtblend</property>
    <property name="rect">00:54:47.933=-96 -54 2112 1188 1.000000;00:54:47.967=-377 -333 2688 1512 1.000000;00:54:48.150=-377 -333 2688 1512 1.000000</property>
    <property name="rotation">00:54:47.933=0;00:54:47.967=0;00:54:48.150=0</property>
    <property name="compositing">0</property>
    <property name="distort">0</property>
    <property name="kdenlive:collapsed">0</property>
   </filter>
  </entry>
  <entry producer="producer766" in="00:54:48.750" out="00:54:49.267">
   <property name="kdenlive:id">680</property>
   <filter id="filter682">
    <property name="rotate_center">1</property>
    <property name="mlt_service">qtblend</property>
    <property name="kdenlive_id">qtblend</property>
    <property name="rect">00:54:48.750=-4992 -2808 6912 3888 1.000000</property>
    <property name="rotation">00:54:48.750=0</property>
    <property name="compositing">0</property>
    <property name="distort">0</property>
    <property name="kdenlive:collapsed">1</property>
   </filter>
   <filter id="filter683">
    <property name="rotate_center">1</property>
    <property name="mlt_service">qtblend</property>
    <property name="kdenlive_id">qtblend</property>
    <property name="rect">00:54:48.750=-550 -190 2496 1404 1.000000</property>
    <property name="rotation">00:54:48.750=0</property>
    <property name="compositing">0</property>
    <property name="distort">0</property>
    <property name="kdenlive:collapsed">0</property>
   </filter>
  </entry>
  <entry producer="producer766" in="00:54:49.750" out="00:54:51.017">
   <property name="kdenlive:id">680</property>
  </entry>
  <entry producer="producer766" in="00:54:57.650" out="00:54:57.983">
   <property name="kdenlive:id">680</property>
  </entry>
  <entry producer="producer766" in="00:54:58.000" out="00:54:59.017">
   <property name="kdenlive:id">680</property>
   <filter id="filter684">
    <property name="rotate_center">1</property>
    <property name="mlt_service">qtblend</property>
    <property name="kdenlive_id">qtblend</property>
    <property name="rect">00:54:58.000=-1892 -2144 6048 3402 1.000000</property>
    <property name="rotation">00:54:58.000=0</property>
    <property name="compositing">0</property>
    <property name="distort">0</property>
    <property name="kdenlive:collapsed">0</property>
   </filter>
  </entry>
  <entry producer="producer766" in="00:54:59.517" out="00:55:00.217">
   <property name="kdenlive:id">680</property>
   <filter id="filter685">
    <property name="rotate_center">1</property>
    <property name="mlt_service">qtblend</property>
    <property name="kdenlive_id">qtblend</property>
    <property name="rect">00:54:59.517=-4992 -2808 6912 3888 1.000000</property>
    <property name="rotation">00:54:59.517=0</property>
    <property name="compositing">0</property>
    <property name="distort">0</property>
    <property name="kdenlive:collapsed">0</property>
   </filter>
   <filter id="filter686">
    <property name="rotate_center">1</property>
    <property name="mlt_service">qtblend</property>
    <property name="kdenlive_id">qtblend</property>
    <property name="rect">00:54:59.517=0 0 1920 1080 1</property>
    <property name="rotation">00:54:59.517=0</property>
    <property name="compositing">0</property>
    <property name="distort">0</property>
    <property name="kdenlive:collapsed">0</property>
   </filter>
  </entry>
  <entry producer="producer766" in="00:55:42.717" out="00:55:44.683">
   <property name="kdenlive:id">680</property>
  </entry>
  <entry producer="producer766" in="00:56:34.233" out="00:56:36.900">
   <property name="kdenlive:id">680</property>
   <filter id="filter687">
    <property name="rotate_center">1</property>
    <property name="mlt_service">qtblend</property>
    <property name="kdenlive_id">qtblend</property>
    <property name="rect">00:56:34.233=0 0 1920 1080 1.000000;00:56:36.900=-96 -53 2112 1188 1.000000</property>
    <property name="rotation">00:56:34.233=0;00:56:36.900=0</property>
    <property name="compositing">0</property>
    <property name="distort">0</property>
    <property name="kdenlive:collapsed">0</property>
   </filter>
  </entry>
  <entry producer="producer766" in="00:56:38.217" out="00:56:41.217">
   <property name="kdenlive:id">680</property>
  </entry>
  <entry producer="producer766" in="00:56:41.233" out="00:56:42.033">
   <property name="kdenlive:id">680</property>
   <filter id="filter688">
    <property name="rotate_center">1</property>
    <property name="mlt_service">qtblend</property>
    <property name="kdenlive_id">qtblend</property>
    <property name="rect">00:56:41.233=-3072 -3456 8064 4536 1.000000</property>
    <property name="rotation">00:56:41.233=0</property>
    <property name="compositing">0</property>
    <property name="distort">0</property>
    <property name="kdenlive:collapsed">0</property>
   </filter>
  </entry>
  <entry producer="producer766" in="00:57:43.033" out="00:57:46.017">
   <property name="kdenlive:id">680</property>
   <filter id="filter689">
    <property name="rotate_center">1</property>
    <property name="mlt_service">qtblend</property>
    <property name="kdenlive_id">qtblend</property>
    <property name="rect">00:57:43.033=0 0 1920 1080 1.000000;00:57:46.017=-48 -27 2016 1134 1.000000</property>
    <property name="rotation">00:57:43.033=0;00:57:46.017=0</property>
    <property name="compositing">0</property>
    <property name="distort">0</property>
    <property name="kdenlive:collapsed">0</property>
   </filter>
  </entry>
  <entry producer="producer766" in="00:57:54.067" out="00:57:55.300">
   <property name="kdenlive:id">680</property>
   <filter id="filter690">
    <property name="rotate_center">1</property>
    <property name="mlt_service">qtblend</property>
    <property name="kdenlive_id">qtblend</property>
    <property name="rect">00:57:54.067=-4992 -2808 6912 3888 1.000000</property>
    <property name="rotation">00:57:54.067=0</property>
    <property name="compositing">0</property>
    <property name="distort">0</property>
    <property name="kdenlive:collapsed">0</property>
   </filter>
   <filter id="filter691">
    <property name="rotate_center">1</property>
    <property name="mlt_service">qtblend</property>
    <property name="kdenlive_id">qtblend</property>
    <property name="rect">00:57:54.067=0 0 1920 1080 1</property>
    <property name="rotation">00:57:54.067=0</property>
    <property name="compositing">0</property>
    <property name="distort">0</property>
    <property name="kdenlive:collapsed">0</property>
   </filter>
  </entry>
  <entry producer="producer766" in="01:01:48.900" out="01:01:50.333">
   <property name="kdenlive:id">680</property>
   <filter id="filter692">
    <property name="rotate_center">1</property>
    <property name="mlt_service">qtblend</property>
    <property name="kdenlive_id">qtblend</property>
    <property name="rect">01:01:48.900=-432 -247 3264 1836 1.000000</property>
    <property name="rotation">01:01:48.900=0</property>
    <property name="compositing">0</property>
    <property name="distort">0</property>
    <property name="kdenlive:collapsed">0</property>
   </filter>
  </entry>
  <entry producer="producer766" in="01:01:50.350" out="01:01:51.367">
   <property name="kdenlive:id">680</property>
   <filter id="filter693">
    <property name="rotate_center">1</property>
    <property name="mlt_service">qtblend</property>
    <property name="kdenlive_id">qtblend</property>
    <property name="rect">01:01:50.350=-4992 -2808 6912 3888 1.000000</property>
    <property name="rotation">01:01:50.350=0</property>
    <property name="compositing">0</property>
    <property name="distort">0</property>
    <property name="kdenlive:collapsed">1</property>
   </filter>
   <filter id="filter694">
    <property name="rotate_center">1</property>
    <property name="mlt_service">qtblend</property>
    <property name="kdenlive_id">qtblend</property>
    <property name="rect">01:01:50.350=-384 -108 2304 1296 1.000000;01:01:51.133=-480 -135 2400 1350 1.000000</property>
    <property name="rotation">01:01:50.350=0;01:01:51.133=0</property>
    <property name="compositing">0</property>
    <property name="distort">0</property>
    <property name="kdenlive:collapsed">0</property>
   </filter>
  </entry>
  <entry producer="producer766" in="01:02:42.300" out="01:02:44.250">
   <property name="kdenlive:id">680</property>
  </entry>
  <entry producer="producer766" in="01:04:48.700" out="01:04:51.067">
   <property name="kdenlive:id">680</property>
  </entry>
  <entry producer="producer766" in="01:05:25.283" out="01:05:26.350">
   <property name="kdenlive:id">680</property>
  </entry>
  <entry producer="producer766" in="01:06:09.183" out="01:06:10.700">
   <property name="kdenlive:id">680</property>
  </entry>
  <entry producer="producer766" in="01:09:23.467" out="01:09:28.100">
   <property name="kdenlive:id">680</property>
   <filter id="filter695">
    <property name="rotate_center">1</property>
    <property name="mlt_service">qtblend</property>
    <property name="kdenlive_id">qtblend</property>
    <property name="rect">01:09:23.467=0 0 1920 1080 1.000000;01:09:28.100=-48 -27 2016 1134 1.000000</property>
    <property name="rotation">01:09:23.467=0;01:09:28.100=0</property>
    <property name="compositing">0</property>
    <property name="distort">0</property>
    <property name="kdenlive:collapsed">0</property>
   </filter>
  </entry>
  <entry producer="producer766" in="01:09:48.983" out="01:09:50.933">
   <property name="kdenlive:id">680</property>
  </entry>
  <entry producer="producer766" in="01:09:58.950" out="01:10:00.900">
   <property name="kdenlive:id">680</property>
  </entry>
  <entry producer="producer766" in="01:17:01.150" out="01:17:03.233">
   <property name="kdenlive:id">680</property>
  </entry>
  <entry producer="producer766" in="01:17:03.250" out="01:17:03.783">
   <property name="kdenlive:id">680</property>
   <filter id="filter696">
    <property name="rotate_center">1</property>
    <property name="mlt_service">qtblend</property>
    <property name="kdenlive_id">qtblend</property>
    <property name="rect">01:17:03.250=-4992 -2808 6912 3888 1.000000</property>
    <property name="rotation">01:17:03.250=0</property>
    <property name="compositing">0</property>
    <property name="distort">0</property>
    <property name="kdenlive:collapsed">1</property>
   </filter>
   <filter id="filter697">
    <property name="rotate_center">1</property>
    <property name="mlt_service">qtblend</property>
    <property name="kdenlive_id">qtblend</property>
    <property name="rect">01:17:03.250=0 0 1920 1080 1.000000;01:17:03.300=-1409 -557 3360 1890 1.000000</property>
    <property name="rotation">01:17:03.250=0;01:17:03.300=0</property>
    <property name="compositing">0</property>
    <property name="distort">0</property>
    <property name="kdenlive:collapsed">0</property>
   </filter>
  </entry>
  <entry producer="producer766" in="01:20:26.100" out="01:20:28.450">
   <property name="kdenlive:id">680</property>
  </entry>
  <entry producer="producer766" in="01:20:34.017" out="01:20:35.900">
   <property name="kdenlive:id">680</property>
  </entry>
  <entry producer="producer766" in="01:20:49.467" out="01:20:51.683">
   <property name="kdenlive:id">680</property>
  </entry>
  <entry producer="producer766" in="01:22:02.967" out="01:22:04.817">
   <property name="kdenlive:id">680</property>
  </entry>
  <entry producer="producer766" in="01:23:09.033" out="01:23:10.567">
   <property name="kdenlive:id">680</property>
  </entry>
  <entry producer="producer766" in="01:23:13.500" out="01:23:15.250">
   <property name="kdenlive:id">680</property>
  </entry>
  <entry producer="producer766" in="01:23:17.833" out="01:23:19.433">
   <property name="kdenlive:id">680</property>
   <filter id="filter698">
    <property name="rotate_center">1</property>
    <property name="mlt_service">qtblend</property>
    <property name="kdenlive_id">qtblend</property>
    <property name="rect">01:23:17.833=-864 -486 2784 1566 1.000000</property>
    <property name="rotation">01:23:17.833=0</property>
    <property name="compositing">0</property>
    <property name="distort">0</property>
    <property name="kdenlive:collapsed">1</property>
   </filter>
   <filter id="filter699">
    <property name="rotate_center">1</property>
    <property name="mlt_service">qtblend</property>
    <property name="kdenlive_id">qtblend</property>
    <property name="rect">01:23:17.833=-5280 -2864 7200 4050 1.000000</property>
    <property name="rotation">01:23:17.833=0</property>
    <property name="compositing">0</property>
    <property name="distort">0</property>
    <property name="kdenlive:collapsed">1</property>
   </filter>
   <filter id="filter700">
    <property name="rotate_center">1</property>
    <property name="mlt_service">qtblend</property>
    <property name="kdenlive_id">qtblend</property>
    <property name="rect">01:23:17.833=0 0 1920 1080 1</property>
    <property name="rotation">01:23:17.833=0</property>
    <property name="compositing">0</property>
    <property name="distort">0</property>
    <property name="kdenlive:collapsed">1</property>
   </filter>
  </entry>
  <entry producer="producer766" in="01:23:48.633" out="01:23:50.050">
   <property name="kdenlive:id">680</property>
  </entry>
  <entry producer="producer766" in="01:23:50.067" out="01:23:50.867">
   <property name="kdenlive:id">680</property>
   <filter id="filter701">
    <property name="rotate_center">1</property>
    <property name="mlt_service">qtblend</property>
    <property name="kdenlive_id">qtblend</property>
    <property name="rect">01:23:50.067=0 0 1920 1080 1.000000;01:23:50.150=-523 -73 2880 1620 1.000000</property>
    <property name="rotation">01:23:50.067=0;01:23:50.150=0</property>
    <property name="compositing">0</property>
    <property name="distort">0</property>
    <property name="kdenlive:collapsed">0</property>
   </filter>
  </entry>
  <entry producer="producer766" in="01:23:50.883" out="01:23:51.483">
   <property name="kdenlive:id">680</property>
  </entry>
  <entry producer="producer766" in="01:23:53.017" out="01:23:54.200">
   <property name="kdenlive:id">680</property>
  </entry>
  <entry producer="producer766" in="01:24:52.583" out="01:24:54.767">
   <property name="kdenlive:id">680</property>
  </entry>
  <entry producer="producer766" in="01:25:33.283" out="01:25:33.883">
   <property name="kdenlive:id">680</property>
   <filter id="filter702">
    <property name="rotate_center">1</property>
    <property name="mlt_service">qtblend</property>
    <property name="kdenlive_id">qtblend</property>
    <property name="rect">01:25:33.283=-615 -585 4800 2700 1.000000</property>
    <property name="rotation">01:25:33.283=0</property>
    <property name="compositing">0</property>
    <property name="distort">0</property>
    <property name="kdenlive:collapsed">0</property>
   </filter>
  </entry>
  <entry producer="producer766" in="01:26:36.267" out="01:26:38.250">
   <property name="kdenlive:id">680</property>
  </entry>
  <entry producer="producer766" in="01:26:38.267" out="01:26:39.917">
   <property name="kdenlive:id">680</property>
  </entry>
  <entry producer="producer766" in="01:26:54.467" out="01:26:55.783">
   <property name="kdenlive:id">680</property>
  </entry>
  <entry producer="producer766" in="01:27:15.633" out="01:27:16.400">
   <property name="kdenlive:id">680</property>
  </entry>
  <entry producer="producer766" in="01:27:16.417" out="01:27:18.750">
   <property name="kdenlive:id">680</property>
  </entry>
  <entry producer="producer766" in="01:28:06.150" out="01:28:07.450">
   <property name="kdenlive:id">680</property>
  </entry>
  <entry producer="producer766" in="01:28:07.717" out="01:28:08.150">
   <property name="kdenlive:id">680</property>
   <filter id="filter703">
    <property name="rotate_center">1</property>
    <property name="mlt_service">qtblend</property>
    <property name="kdenlive_id">qtblend</property>
    <property name="rect">01:28:07.717=-4992 -2808 6912 3888 1.000000</property>
    <property name="rotation">01:28:07.717=0</property>
    <property name="compositing">0</property>
    <property name="distort">0</property>
    <property name="kdenlive:collapsed">1</property>
   </filter>
   <filter id="filter704">
    <property name="rotate_center">1</property>
    <property name="mlt_service">qtblend</property>
    <property name="kdenlive_id">qtblend</property>
    <property name="rect">01:28:07.717=-680 -428 2688 1512 1.000000</property>
    <property name="rotation">01:28:07.717=0</property>
    <property name="compositing">0</property>
    <property name="distort">0</property>
    <property name="kdenlive:collapsed">0</property>
   </filter>
  </entry>
  <entry producer="producer766" in="01:28:09.983" out="01:28:10.750">
   <property name="kdenlive:id">680</property>
  </entry>
  <entry producer="producer766" in="01:28:10.767" out="01:28:11.150">
   <property name="kdenlive:id">680</property>
   <filter id="filter705">
    <property name="rotate_center">1</property>
    <property name="mlt_service">qtblend</property>
    <property name="kdenlive_id">qtblend</property>
    <property name="rect">01:28:10.767=-4992 -2808 6912 3888 1.000000</property>
    <property name="rotation">01:28:10.767=0</property>
    <property name="compositing">0</property>
    <property name="distort">0</property>
    <property name="kdenlive:collapsed">1</property>
   </filter>
   <filter id="filter706">
    <property name="rotate_center">1</property>
    <property name="mlt_service">qtblend</property>
    <property name="kdenlive_id">qtblend</property>
    <property name="rect">01:28:10.767=-1126 -505 3072 1728 1.000000</property>
    <property name="rotation">01:28:10.767=0</property>
    <property name="compositing">0</property>
    <property name="distort">0</property>
    <property name="kdenlive:collapsed">0</property>
   </filter>
  </entry>
  <entry producer="producer766" in="01:28:19.067" out="01:28:20.117">
   <property name="kdenlive:id">680</property>
  </entry>
  <entry producer="producer766" in="01:29:01.900" out="01:29:05.567">
   <property name="kdenlive:id">680</property>
   <filter id="filter707">
    <property name="rotate_center">1</property>
    <property name="mlt_service">qtblend</property>
    <property name="kdenlive_id">qtblend</property>
    <property name="rect">01:29:01.900=0 0 1920 1080 1.000000;01:29:05.567=-48 -27 2016 1134 1.000000</property>
    <property name="rotation">01:29:01.900=0;01:29:05.567=0</property>
    <property name="compositing">0</property>
    <property name="distort">0</property>
    <property name="kdenlive:collapsed">0</property>
   </filter>
  </entry>
  <entry producer="producer766" in="01:29:05.583" out="01:29:05.967">
   <property name="kdenlive:id">680</property>
   <filter id="filter708">
    <property name="rotate_center">1</property>
    <property name="mlt_service">qtblend</property>
    <property name="kdenlive_id">qtblend</property>
    <property name="rect">01:29:05.583=-672 -421 2592 1458 1.000000</property>
    <property name="rotation">01:29:05.583=0</property>
    <property name="compositing">0</property>
    <property name="distort">0</property>
    <property name="kdenlive:collapsed">0</property>
   </filter>
   <filter id="filter709">
    <property name="rotate_center">1</property>
    <property name="mlt_service">qtblend</property>
    <property name="kdenlive_id">qtblend</property>
    <property name="rect">01:29:05.583=-5280 -2811 7200 4050 1.000000</property>
    <property name="rotation">01:29:05.583=0</property>
    <property name="compositing">0</property>
    <property name="distort">0</property>
    <property name="kdenlive:collapsed">1</property>
   </filter>
   <filter id="filter710">
    <property name="rotate_center">1</property>
    <property name="mlt_service">qtblend</property>
    <property name="kdenlive_id">qtblend</property>
    <property name="rect">01:29:05.583=0 0 1920 1080 1</property>
    <property name="rotation">01:29:05.583=0</property>
    <property name="compositing">0</property>
    <property name="distort">0</property>
    <property name="kdenlive:collapsed">1</property>
   </filter>
  </entry>
  <entry producer="producer766" in="01:29:14.750" out="01:29:16.233">
   <property name="kdenlive:id">680</property>
  </entry>
  <entry producer="producer766" in="01:29:23.467" out="01:29:24.667">
   <property name="kdenlive:id">680</property>
  </entry>
  <entry producer="producer766" in="01:29:24.683" out="01:29:25.533">
   <property name="kdenlive:id">680</property>
   <filter id="filter711">
    <property name="rotate_center">1</property>
    <property name="mlt_service">qtblend</property>
    <property name="kdenlive_id">qtblend</property>
    <property name="rect">01:29:24.683=-439 2 4032 2268 1.000000;01:29:25.100=-587 -19 4032 2268 1.000000</property>
    <property name="rotation">01:29:24.683=0;01:29:25.100=0</property>
    <property name="compositing">0</property>
    <property name="distort">0</property>
    <property name="kdenlive:collapsed">0</property>
   </filter>
  </entry>
  <entry producer="producer766" in="01:29:25.550" out="01:29:26.283">
   <property name="kdenlive:id">680</property>
  </entry>
  <entry producer="producer766" in="01:29:59.067" out="01:29:59.867">
   <property name="kdenlive:id">680</property>
  </entry>
  <entry producer="producer766" in="01:30:01.433" out="01:30:02.900">
   <property name="kdenlive:id">680</property>
  </entry>
  <entry producer="producer766" in="01:31:56.083" out="01:31:56.717">
   <property name="kdenlive:id">680</property>
  </entry>
  <entry producer="producer766" in="01:32:00.700" out="01:32:01.483">
   <property name="kdenlive:id">680</property>
  </entry>
  <entry producer="producer766" in="01:32:02.150" out="01:32:02.800">
   <property name="kdenlive:id">680</property>
  </entry>
  <entry producer="producer766" in="01:32:02.817" out="01:32:03.267">
   <property name="kdenlive:id">680</property>
  </entry>
  <entry producer="producer766" in="01:32:04.817" out="01:32:05.667">
   <property name="kdenlive:id">680</property>
   <filter id="filter712">
    <property name="rotate_center">1</property>
    <property name="mlt_service">qtblend</property>
    <property name="kdenlive_id">qtblend</property>
    <property name="rect">01:32:04.817=-4992 -2808 6912 3888 1.000000</property>
    <property name="rotation">01:32:04.817=0</property>
    <property name="compositing">0</property>
    <property name="distort">0</property>
    <property name="kdenlive:collapsed">1</property>
   </filter>
   <filter id="filter713">
    <property name="rotate_center">1</property>
    <property name="mlt_service">qtblend</property>
    <property name="kdenlive_id">qtblend</property>
    <property name="rect">01:32:04.817=0 0 1920 1080 1.000000;01:32:04.867=-1126 -512 3072 1728 1.000000;01:32:05.383=-1126 -512 3072 1728 1.000000;01:32:05.467=-2002 -943 3936 2214 1.000000</property>
    <property name="rotation">01:32:04.817=0;01:32:04.867=0;01:32:05.383=0;01:32:05.467=0</property>
    <property name="compositing">0</property>
    <property name="distort">0</property>
    <property name="kdenlive:collapsed">0</property>
   </filter>
  </entry>
  <entry producer="producer766" in="01:32:20.900" out="01:32:21.950">
   <property name="kdenlive:id">680</property>
  </entry>
  <entry producer="producer766" in="01:32:25.583" out="01:32:26.767">
   <property name="kdenlive:id">680</property>
  </entry>
  <entry producer="producer766" in="01:35:15.867" out="01:35:17.683">
   <property name="kdenlive:id">680</property>
  </entry>
  <entry producer="producer766" in="01:35:45.517" out="01:35:47.950">
   <property name="kdenlive:id">680</property>
  </entry>
  <entry producer="producer766" in="01:35:58.150" out="01:35:59.417">
   <property name="kdenlive:id">680</property>
  </entry>
  <entry producer="producer766" in="01:36:02.017" out="01:36:03.183">
   <property name="kdenlive:id">680</property>
   <filter id="filter714">
    <property name="rotate_center">1</property>
    <property name="mlt_service">qtblend</property>
    <property name="kdenlive_id">qtblend</property>
    <property name="rect">01:36:02.017=-610 -319 2496 1404 1.000000;01:36:02.467=-610 -319 2496 1404 1.000000;01:36:02.850=-610 -325 2496 1404 1.000000;01:36:03.183=-954 -545 2880 1620 1.000000</property>
    <property name="rotation">01:36:02.017=0;01:36:02.467=0;01:36:02.850=0;01:36:03.183=0</property>
    <property name="compositing">0</property>
    <property name="distort">0</property>
    <property name="kdenlive:collapsed">0</property>
   </filter>
   <filter id="filter715">
    <property name="rotate_center">1</property>
    <property name="mlt_service">qtblend</property>
    <property name="kdenlive_id">qtblend</property>
    <property name="rect">01:36:02.017=-4992 -2808 6912 3888 1.000000</property>
    <property name="rotation">01:36:02.017=0</property>
    <property name="compositing">0</property>
    <property name="distort">0</property>
    <property name="kdenlive:collapsed">1</property>
   </filter>
  </entry>
  <entry producer="producer766" in="01:36:27.133" out="01:36:28.850">
   <property name="kdenlive:id">680</property>
  </entry>
  <entry producer="producer766" in="01:36:29.733" out="01:36:30.783">
   <property name="kdenlive:id">680</property>
  </entry>
  <entry producer="producer766" in="01:37:02.133" out="01:37:06.000">
   <property name="kdenlive:id">680</property>
   <filter id="filter716">
    <property name="rotate_center">1</property>
    <property name="mlt_service">qtblend</property>
    <property name="kdenlive_id">qtblend</property>
    <property name="rect">01:37:02.133=0 0 1920 1080 1.000000;01:37:06.000=-48 -27 2016 1134 1.000000</property>
    <property name="rotation">01:37:02.133=0;01:37:06.000=0</property>
    <property name="compositing">0</property>
    <property name="distort">0</property>
    <property name="kdenlive:collapsed">0</property>
   </filter>
  </entry>
  <entry producer="producer766" in="01:37:06.017" out="01:37:07.000">
   <property name="kdenlive:id">680</property>
  </entry>
  <entry producer="producer766" in="01:37:15.583" out="01:37:16.883">
   <property name="kdenlive:id">680</property>
  </entry>
  <entry producer="producer766" in="01:37:53.417" out="01:37:54.600">
   <property name="kdenlive:id">680</property>
  </entry>
  <blank length="00:00:00.650"/>
  <entry producer="producer766" in="01:38:13.800" out="01:38:16.283">
   <property name="kdenlive:id">680</property>
  </entry>
  <blank length="00:00:01.983"/>
  <entry producer="producer766" in="01:40:08.733" out="01:40:09.500">
   <property name="kdenlive:id">680</property>
  </entry>
  <entry producer="producer766" in="01:44:24.833" out="01:44:25.283">
   <property name="kdenlive:id">680</property>
  </entry>
  <entry producer="producer766" in="01:44:26.450" out="01:44:27.683">
   <property name="kdenlive:id">680</property>
   <filter id="filter717">
    <property name="rotate_center">1</property>
    <property name="mlt_service">qtblend</property>
    <property name="kdenlive_id">qtblend</property>
    <property name="rect">01:44:26.450=-781 -748 3456 1944 1.000000;01:44:26.867=-781 -748 3456 1944 1.000000;01:44:27.017=-873 -823 3744 2106 1.000000;01:44:27.183=-744 -545 3744 2106 1.000000;01:44:27.367=-2513 -1817 5856 3294 1.000000</property>
    <property name="rotation">01:44:26.450=0;01:44:26.867=0;01:44:27.017=0;01:44:27.183=0;01:44:27.367=0</property>
    <property name="compositing">0</property>
    <property name="distort">0</property>
    <property name="kdenlive:collapsed">0</property>
   </filter>
  </entry>
  <entry producer="producer766" in="01:44:28.583" out="01:44:29.133">
   <property name="kdenlive:id">680</property>
  </entry>
  <entry producer="producer766" in="01:44:42.867" out="01:44:44.883">
   <property name="kdenlive:id">680</property>
  </entry>
  <entry producer="producer766" in="01:51:39.933" out="01:51:41.300">
   <property name="kdenlive:id">680</property>
  </entry>
  <entry producer="producer766" in="01:51:44.483" out="01:51:45.533">
   <property name="kdenlive:id">680</property>
  </entry>
  <entry producer="producer766" in="01:54:19.050" out="01:54:21.117">
   <property name="kdenlive:id">680</property>
  </entry>
  <entry producer="producer766" in="01:54:33.383" out="01:54:36.217">
   <property name="kdenlive:id">680</property>
   <filter id="filter718">
    <property name="rotate_center">1</property>
    <property name="mlt_service">qtblend</property>
    <property name="kdenlive_id">qtblend</property>
    <property name="rect">01:54:33.383=0 0 1920 1080 1.000000;01:54:36.217=-48 -27 2016 1134 1.000000</property>
    <property name="rotation">01:54:33.383=0;01:54:36.217=0</property>
    <property name="compositing">0</property>
    <property name="distort">0</property>
    <property name="kdenlive:collapsed">0</property>
   </filter>
  </entry>
  <entry producer="producer766" in="01:54:36.233" out="01:54:37.117">
   <property name="kdenlive:id">680</property>
   <filter id="filter719">
    <property name="rotate_center">1</property>
    <property name="mlt_service">qtblend</property>
    <property name="kdenlive_id">qtblend</property>
    <property name="rect">01:54:36.233=-4992 -2808 6912 3888 1.000000</property>
    <property name="rotation">01:54:36.233=0</property>
    <property name="compositing">0</property>
    <property name="distort">0</property>
    <property name="kdenlive:collapsed">1</property>
   </filter>
   <filter id="filter720">
    <property name="rotate_center">1</property>
    <property name="mlt_service">qtblend</property>
    <property name="kdenlive_id">qtblend</property>
    <property name="rect">01:54:36.233=-1152 -537 3072 1728 1.000000</property>
    <property name="rotation">01:54:36.233=0</property>
    <property name="compositing">0</property>
    <property name="distort">0</property>
    <property name="kdenlive:collapsed">0</property>
   </filter>
  </entry>
  <entry producer="producer766" in="01:54:41.683" out="01:54:42.150">
   <property name="kdenlive:id">680</property>
  </entry>
  <entry producer="producer766" in="01:57:14.183" out="01:57:15.217">
   <property name="kdenlive:id">680</property>
  </entry>
  <entry producer="producer766" in="01:57:15.567" out="01:57:18.083">
   <property name="kdenlive:id">680</property>
   <filter id="filter721">
    <property name="rotate_center">1</property>
    <property name="mlt_service">qtblend</property>
    <property name="kdenlive_id">qtblend</property>
    <property name="rect">01:57:15.567=0 0 1920 1080 1.000000;01:57:18.083=-96 -54 2112 1188 1.000000</property>
    <property name="rotation">01:57:15.567=0;01:57:18.083=0</property>
    <property name="compositing">0</property>
    <property name="distort">0</property>
    <property name="kdenlive:collapsed">0</property>
   </filter>
  </entry>
  <entry producer="producer766" in="01:57:18.800" out="01:57:20.983">
   <property name="kdenlive:id">680</property>
  </entry>
  <entry producer="producer766" in="01:58:09.450" out="01:58:10.500">
   <property name="kdenlive:id">680</property>
  </entry>
  <entry producer="producer766" in="01:58:10.517" out="01:58:11.233">
   <property name="kdenlive:id">680</property>
   <filter id="filter722">
    <property name="rotate_center">1</property>
    <property name="mlt_service">qtblend</property>
    <property name="kdenlive_id">qtblend</property>
    <property name="rect">01:58:10.517=-336 -189 2592 1458 1.000000</property>
    <property name="rotation">01:58:10.517=0</property>
    <property name="compositing">0</property>
    <property name="distort">0</property>
    <property name="kdenlive:collapsed">0</property>
   </filter>
  </entry>
  <entry producer="producer766" in="01:58:11.250" out="01:58:11.700">
   <property name="kdenlive:id">680</property>
   <filter id="filter723">
    <property name="version">0.3</property>
    <property name="mlt_service">frei0r.saturat0r</property>
    <property name="kdenlive_id">Black&amp;WHite</property>
    <property name="Saturation">00:00:15.367=0.001</property>
   </filter>
  </entry>
  <entry producer="producer766" in="02:01:03.050" out="02:01:04.450">
   <property name="kdenlive:id">680</property>
  </entry>
  <entry producer="producer766" in="02:01:43.667" out="02:01:45.083">
   <property name="kdenlive:id">680</property>
  </entry>
  <entry producer="producer766" in="02:02:16.867" out="02:02:19.167">
   <property name="kdenlive:id">680</property>
  </entry>
  <entry producer="producer766" in="02:02:57.083" out="02:02:58.550">
   <property name="kdenlive:id">680</property>
   <filter id="filter724">
    <property name="rotate_center">1</property>
    <property name="mlt_service">qtblend</property>
    <property name="kdenlive_id">qtblend</property>
    <property name="rect">02:02:57.083=-4992 -2808 6912 3888 1.000000</property>
    <property name="rotation">02:02:57.083=0</property>
    <property name="compositing">0</property>
    <property name="distort">0</property>
    <property name="kdenlive:collapsed">1</property>
   </filter>
   <filter id="filter725">
    <property name="rotate_center">1</property>
    <property name="mlt_service">qtblend</property>
    <property name="kdenlive_id">qtblend</property>
    <property name="rect">02:02:57.083=-1257 -558 3168 1782 1.000000;02:02:58.550=-1436 -632 3360 1890 1.000000</property>
    <property name="rotation">02:02:57.083=0;02:02:58.550=0</property>
    <property name="compositing">0</property>
    <property name="distort">0</property>
    <property name="kdenlive:collapsed">0</property>
   </filter>
  </entry>
  <entry producer="producer766" in="02:07:01.767" out="02:07:03.083">
   <property name="kdenlive:id">680</property>
  </entry>
  <entry producer="producer766" in="02:07:08.050" out="02:07:08.850">
   <property name="kdenlive:id">680</property>
  </entry>
  <entry producer="producer766" in="02:07:14.850" out="02:07:16.550">
   <property name="kdenlive:id">680</property>
  </entry>
  <entry producer="producer766" in="02:09:29.300" out="02:09:29.433">
   <property name="kdenlive:id">680</property>
  </entry>
  <entry producer="producer766" in="02:09:29.450" out="02:09:31.417">
   <property name="kdenlive:id">680</property>
  </entry>
  <entry producer="producer766" in="02:09:31.433" out="02:09:32.717">
   <property name="kdenlive:id">680</property>
   <filter id="filter726">
    <property name="rotate_center">1</property>
    <property name="mlt_service">qtblend</property>
    <property name="kdenlive_id">qtblend</property>
    <property name="rect">02:09:31.433=-672 -378 3264 1836 1.000000</property>
    <property name="rotation">02:09:31.433=0</property>
    <property name="compositing">0</property>
    <property name="distort">0</property>
    <property name="kdenlive:collapsed">0</property>
   </filter>
   <filter id="filter727">
    <property name="version">0.3</property>
    <property name="mlt_service">frei0r.saturat0r</property>
    <property name="kdenlive_id">Black&amp;WHite</property>
    <property name="Saturation">00:00:15.367=0.001</property>
    <property name="kdenlive:collapsed">0</property>
   </filter>
  </entry>
  <entry producer="producer766" in="02:09:34.550" out="02:09:35.833">
   <property name="kdenlive:id">680</property>
  </entry>
  <entry producer="producer766" in="02:12:01.850" out="02:12:07.067">
   <property name="kdenlive:id">680</property>
   <filter id="filter728">
    <property name="rotate_center">1</property>
    <property name="mlt_service">qtblend</property>
    <property name="kdenlive_id">qtblend</property>
    <property name="rect">02:12:01.850=0 0 1920 1080 1.000000;02:12:07.067=-48 -27 2015 1133 1.000000</property>
    <property name="rotation">02:12:01.850=0;02:12:07.067=0</property>
    <property name="compositing">0</property>
    <property name="distort">0</property>
    <property name="kdenlive:collapsed">0</property>
   </filter>
  </entry>
  <entry producer="producer766" in="02:12:19.083" out="02:12:20.167">
   <property name="kdenlive:id">680</property>
  </entry>
  <entry producer="producer766" in="02:15:23.333" out="02:15:23.617">
   <property name="kdenlive:id">680</property>
  </entry>
  <entry producer="producer766" in="02:15:23.633" out="02:15:27.650">
   <property name="kdenlive:id">680</property>
  </entry>
  <entry producer="producer766" in="02:19:59.833" out="02:20:02.167">
   <property name="kdenlive:id">680</property>
  </entry>
  <entry producer="producer766" in="02:20:07.083" out="02:20:08.467">
   <property name="kdenlive:id">680</property>
  </entry>
  <entry producer="producer766" in="02:20:08.483" out="02:20:09.250">
   <property name="kdenlive:id">680</property>
   <filter id="filter729">
    <property name="rotate_center">1</property>
    <property name="mlt_service">qtblend</property>
    <property name="kdenlive_id">qtblend</property>
    <property name="rect">02:20:08.483=-746 -574 3456 1944 1.000000;02:20:08.767=-746 -574 3456 1944 1.000000;02:20:08.833=-1345 -942 4608 2592 1.000000</property>
    <property name="rotation">02:20:08.483=0;02:20:08.767=0;02:20:08.833=0</property>
    <property name="compositing">0</property>
    <property name="distort">0</property>
    <property name="kdenlive:collapsed">0</property>
   </filter>
  </entry>
  <entry producer="producer766" in="02:20:09.600" out="02:20:10.783">
   <property name="kdenlive:id">680</property>
   <filter id="filter730">
    <property name="version">0.3</property>
    <property name="mlt_service">frei0r.saturat0r</property>
    <property name="kdenlive_id">Black&amp;WHite</property>
    <property name="Saturation">00:00:15.367=0.001</property>
   </filter>
  </entry>
  <entry producer="producer766" in="02:20:23.683" out="02:20:24.567">
   <property name="kdenlive:id">680</property>
  </entry>
  <entry producer="producer766" in="02:20:24.583" out="02:20:25.133">
   <property name="kdenlive:id">680</property>
  </entry>
  <entry producer="producer766" in="02:20:41.467" out="02:20:42.333">
   <property name="kdenlive:id">680</property>
   <filter id="filter731">
    <property name="rotate_center">1</property>
    <property name="mlt_service">qtblend</property>
    <property name="kdenlive_id">qtblend</property>
    <property name="rect">02:20:41.467=-4992 -2808 6912 3888 1.000000</property>
    <property name="rotation">02:20:41.467=0</property>
    <property name="compositing">0</property>
    <property name="distort">0</property>
    <property name="kdenlive:collapsed">1</property>
   </filter>
   <filter id="filter732">
    <property name="rotate_center">1</property>
    <property name="mlt_service">qtblend</property>
    <property name="kdenlive_id">qtblend</property>
    <property name="rect">02:20:41.467=-720 -396 2688 1512 1.000000</property>
    <property name="rotation">02:20:41.467=0</property>
    <property name="compositing">0</property>
    <property name="distort">0</property>
    <property name="kdenlive:collapsed">1</property>
   </filter>
   <filter id="filter733">
    <property name="rotate_center">1</property>
    <property name="mlt_service">qtblend</property>
    <property name="kdenlive_id">qtblend</property>
    <property name="rect">02:20:41.467=0 0 1920 1080 1</property>
    <property name="rotation">02:20:41.467=0</property>
    <property name="compositing">0</property>
    <property name="distort">0</property>
    <property name="kdenlive:collapsed">0</property>
   </filter>
  </entry>
  <entry producer="producer766" in="02:37:15.583" out="02:37:17.800">
   <property name="kdenlive:id">680</property>
  </entry>
  <entry producer="producer766" in="02:37:19.133" out="02:37:19.800">
   <property name="kdenlive:id">680</property>
   <filter id="filter734">
    <property name="rotate_center">1</property>
    <property name="mlt_service">qtblend</property>
    <property name="kdenlive_id">qtblend</property>
    <property name="rect">02:37:19.133=-4992 -2808 6912 3888 1.000000</property>
    <property name="rotation">02:37:19.133=0</property>
    <property name="compositing">0</property>
    <property name="distort">0</property>
    <property name="kdenlive:collapsed">1</property>
   </filter>
   <filter id="filter735">
    <property name="rotate_center">1</property>
    <property name="mlt_service">qtblend</property>
    <property name="kdenlive_id">qtblend</property>
    <property name="rect">02:37:19.133=-720 -396 2688 1512 1.000000</property>
    <property name="rotation">02:37:19.133=0</property>
    <property name="compositing">0</property>
    <property name="distort">0</property>
    <property name="kdenlive:collapsed">1</property>
   </filter>
   <filter id="filter736">
    <property name="rotate_center">1</property>
    <property name="mlt_service">qtblend</property>
    <property name="kdenlive_id">qtblend</property>
    <property name="rect">02:37:19.133=0 0 1920 1080 1.000000;02:37:19.183=-930 -369 2784 1566 1.000000</property>
    <property name="rotation">02:37:19.133=0;02:37:19.183=0</property>
    <property name="compositing">0</property>
    <property name="distort">0</property>
    <property name="kdenlive:collapsed">0</property>
   </filter>
  </entry>
  <entry producer="producer766" in="02:39:07.533" out="02:39:09.417">
   <property name="kdenlive:id">680</property>
  </entry>
  <entry producer="producer766" in="02:39:47.150" out="02:39:51.867">
   <property name="kdenlive:id">680</property>
   <filter id="filter737">
    <property name="rotate_center">1</property>
    <property name="mlt_service">qtblend</property>
    <property name="kdenlive_id">qtblend</property>
    <property name="rect">02:39:47.150=0 0 1920 1080 1.000000;02:39:51.867=-48 -27 2016 1134 1.000000</property>
    <property name="rotation">02:39:47.150=0;02:39:51.867=0</property>
    <property name="compositing">0</property>
    <property name="distort">0</property>
    <property name="kdenlive:collapsed">0</property>
   </filter>
  </entry>
  <entry producer="producer766" in="02:39:59.817" out="02:40:03.467">
   <property name="kdenlive:id">680</property>
  </entry>
  <entry producer="producer766" in="02:40:04.667" out="02:40:05.083">
   <property name="kdenlive:id">680</property>
  </entry>
  <entry producer="producer766" in="02:42:17.850" out="02:42:18.933">
   <property name="kdenlive:id">680</property>
  </entry>
  <entry producer="producer766" in="02:42:19.817" out="02:42:21.600">
   <property name="kdenlive:id">680</property>
  </entry>
  <entry producer="producer766" in="02:42:22.117" out="02:42:23.233">
   <property name="kdenlive:id">680</property>
  </entry>
  <entry producer="producer767" in="00:17:49.917" out="00:17:51.750">
   <property name="kdenlive:id">681</property>
  </entry>
  <entry producer="producer767" in="00:27:37.517" out="00:27:38.983">
   <property name="kdenlive:id">681</property>
  </entry>
  <entry producer="producer767" in="00:27:39.000" out="00:27:39.933">
   <property name="kdenlive:id">681</property>
   <filter id="filter738">
    <property name="rotate_center">1</property>
    <property name="mlt_service">qtblend</property>
    <property name="kdenlive_id">qtblend</property>
    <property name="rect">00:27:39.000=-1248 -702 4416 2484 1.000000;00:27:39.917=-2208 -1081 5664 3186 1.000000</property>
    <property name="rotation">00:27:39.000=0;00:27:39.917=0</property>
    <property name="compositing">0</property>
    <property name="distort">0</property>
    <property name="kdenlive:collapsed">0</property>
   </filter>
  </entry>
  <entry producer="producer767" in="00:28:36.383" out="00:28:38.567">
   <property name="kdenlive:id">681</property>
  </entry>
  <entry producer="producer767" in="00:28:51.283" out="00:28:51.800">
   <property name="kdenlive:id">681</property>
  </entry>
  <entry producer="producer767" in="00:28:57.467" out="00:29:00.767">
   <property name="kdenlive:id">681</property>
   <filter id="filter739">
    <property name="rotate_center">1</property>
    <property name="mlt_service">qtblend</property>
    <property name="kdenlive_id">qtblend</property>
    <property name="rect">00:28:57.467=0 0 1920 1080 1.000000;00:29:00.767=-48 -27 2016 1134 1.000000</property>
    <property name="rotation">00:28:57.467=0;00:29:00.767=0</property>
    <property name="compositing">0</property>
    <property name="distort">0</property>
    <property name="kdenlive:collapsed">0</property>
   </filter>
  </entry>
  <entry producer="producer767" in="00:29:00.783" out="00:29:01.433">
   <property name="kdenlive:id">681</property>
  </entry>
  <entry producer="producer767" in="00:29:01.450" out="00:29:02.650">
   <property name="kdenlive:id">681</property>
  </entry>
  <entry producer="producer767" in="00:40:08.233" out="00:40:11.700">
   <property name="kdenlive:id">681</property>
  </entry>
  <entry producer="producer767" in="00:43:30.567" out="00:43:32.783">
   <property name="kdenlive:id">681</property>
  </entry>
  <entry producer="producer767" in="00:43:32.800" out="00:43:33.733">
   <property name="kdenlive:id">681</property>
  </entry>
  <entry producer="producer767" in="00:43:44.667" out="00:43:48.617">
   <property name="kdenlive:id">681</property>
  </entry>
  <entry producer="producer767" in="00:43:48.633" out="00:43:49.500">
   <property name="kdenlive:id">681</property>
   <filter id="filter740">
    <property name="rotate_center">1</property>
    <property name="mlt_service">qtblend</property>
    <property name="kdenlive_id">qtblend</property>
    <property name="rect">00:43:48.633=-928 -102 3072 1728 1.000000</property>
    <property name="rotation">00:43:48.633=0</property>
    <property name="compositing">0</property>
    <property name="distort">0</property>
    <property name="kdenlive:collapsed">0</property>
   </filter>
  </entry>
  <entry producer="producer767" in="00:43:53.683" out="00:43:55.133">
   <property name="kdenlive:id">681</property>
  </entry>
  <entry producer="producer767" in="00:44:00.900" out="00:44:01.167">
   <property name="kdenlive:id">681</property>
  </entry>
  <entry producer="producer767" in="00:44:03.417" out="00:44:03.867">
   <property name="kdenlive:id">681</property>
  </entry>
  <entry producer="producer767" in="00:48:38.567" out="00:48:39.017">
   <property name="kdenlive:id">681</property>
  </entry>
  <entry producer="producer767" in="00:48:39.367" out="00:48:39.833">
   <property name="kdenlive:id">681</property>
  </entry>
  <entry producer="producer767" in="00:48:42.950" out="00:48:46.200">
   <property name="kdenlive:id">681</property>
  </entry>
  <entry producer="producer767" in="00:51:32.700" out="00:51:33.750">
   <property name="kdenlive:id">681</property>
  </entry>
  <entry producer="producer767" in="00:51:33.767" out="00:51:34.217">
   <property name="kdenlive:id">681</property>
   <filter id="filter741">
    <property name="rotate_center">1</property>
    <property name="mlt_service">qtblend</property>
    <property name="kdenlive_id">qtblend</property>
    <property name="rect">00:51:33.767=-233 -334 3360 1890 1.000000</property>
    <property name="rotation">00:51:33.767=0</property>
    <property name="compositing">0</property>
    <property name="distort">0</property>
    <property name="kdenlive:collapsed">0</property>
   </filter>
  </entry>
  <entry producer="producer767" in="00:51:34.233" out="00:51:35.517">
   <property name="kdenlive:id">681</property>
  </entry>
  <entry producer="producer767" in="00:51:50.167" out="00:51:51.733">
   <property name="kdenlive:id">681</property>
   <filter id="filter742">
    <property name="rotate_center">1</property>
    <property name="mlt_service">qtblend</property>
    <property name="kdenlive_id">qtblend</property>
    <property name="rect">00:51:50.167=-5052 -2759 6912 3888 1.000000</property>
    <property name="rotation">00:51:50.167=0</property>
    <property name="compositing">0</property>
    <property name="distort">0</property>
    <property name="kdenlive:collapsed">0</property>
   </filter>
   <filter id="filter743">
    <property name="rotate_center">1</property>
    <property name="mlt_service">qtblend</property>
    <property name="kdenlive_id">qtblend</property>
    <property name="rect">00:51:50.167=-720 -396 2688 1512 1.000000</property>
    <property name="rotation">00:51:50.167=0</property>
    <property name="compositing">0</property>
    <property name="distort">0</property>
    <property name="kdenlive:collapsed">0</property>
   </filter>
   <filter id="filter744">
    <property name="rotate_center">1</property>
    <property name="mlt_service">qtblend</property>
    <property name="kdenlive_id">qtblend</property>
    <property name="rect">00:51:50.167=0 0 1920 1080 1</property>
    <property name="rotation">00:51:50.167=0</property>
    <property name="compositing">0</property>
    <property name="distort">0</property>
    <property name="kdenlive:collapsed">0</property>
   </filter>
  </entry>
  <entry producer="producer767" in="00:52:00.567" out="00:52:01.733">
   <property name="kdenlive:id">681</property>
  </entry>
  <blank length="00:00:01.933"/>
  <entry producer="producer767" in="00:52:11.483" out="00:52:12.283">
   <property name="kdenlive:id">681</property>
  </entry>
  <entry producer="producer767" in="00:52:31.467" out="00:52:32.450">
   <property name="kdenlive:id">681</property>
   <filter id="filter745">
    <property name="rotate_center">1</property>
    <property name="mlt_service">qtblend</property>
    <property name="kdenlive_id">qtblend</property>
    <property name="rect">00:52:31.467=-1920 -2106 5760 3240 1.000000</property>
    <property name="rotation">00:52:31.467=0</property>
    <property name="compositing">0</property>
    <property name="distort">0</property>
    <property name="kdenlive:collapsed">0</property>
   </filter>
  </entry>
  <blank length="00:00:00.933"/>
  <entry producer="producer767" in="00:52:48.383" out="00:52:50.667">
   <property name="kdenlive:id">681</property>
  </entry>
  <entry producer="producer767" in="00:52:50.683" out="00:52:51.667">
   <property name="kdenlive:id">681</property>
   <filter id="filter746">
    <property name="rotate_center">1</property>
    <property name="mlt_service">qtblend</property>
    <property name="kdenlive_id">qtblend</property>
    <property name="rect">00:52:50.683=-4992 -2808 6912 3888 1.000000</property>
    <property name="rotation">00:52:50.683=0</property>
    <property name="compositing">0</property>
    <property name="distort">0</property>
    <property name="kdenlive:collapsed">1</property>
   </filter>
   <filter id="filter747">
    <property name="rotate_center">1</property>
    <property name="mlt_service">qtblend</property>
    <property name="kdenlive_id">qtblend</property>
    <property name="rect">00:52:50.683=-720 -396 2688 1512 1.000000</property>
    <property name="rotation">00:52:50.683=0</property>
    <property name="compositing">0</property>
    <property name="distort">0</property>
    <property name="kdenlive:collapsed">1</property>
   </filter>
   <filter id="filter748">
    <property name="rotate_center">1</property>
    <property name="mlt_service">qtblend</property>
    <property name="kdenlive_id">qtblend</property>
    <property name="rect">00:52:50.683=0 0 1920 1080 1.000000;00:52:51.667=-50 -27 2016 1134 1.000000</property>
    <property name="rotation">00:52:50.683=0;00:52:51.667=0</property>
    <property name="compositing">0</property>
    <property name="distort">0</property>
    <property name="kdenlive:collapsed">0</property>
   </filter>
  </entry>
  <entry producer="producer767" in="00:58:11.400" out="00:58:11.833">
   <property name="kdenlive:id">681</property>
  </entry>
  <entry producer="producer767" in="00:58:11.850" out="00:58:15.317">
   <property name="kdenlive:id">681</property>
   <filter id="filter749">
    <property name="rotate_center">1</property>
    <property name="mlt_service">qtblend</property>
    <property name="kdenlive_id">qtblend</property>
    <property name="rect">00:58:11.850=0 0 1920 1080 1.000000;00:58:15.317=-48 -27 2016 1134 1.000000</property>
    <property name="rotation">00:58:11.850=0;00:58:15.317=0</property>
    <property name="compositing">0</property>
    <property name="distort">0</property>
    <property name="kdenlive:collapsed">0</property>
   </filter>
  </entry>
  <entry producer="producer767" in="00:58:17.350" out="00:58:17.817">
   <property name="kdenlive:id">681</property>
   <filter id="filter750">
    <property name="rotate_center">1</property>
    <property name="mlt_service">qtblend</property>
    <property name="kdenlive_id">qtblend</property>
    <property name="rect">00:58:17.350=-4992 -2808 6912 3888 1.000000</property>
    <property name="rotation">00:58:17.350=0</property>
    <property name="compositing">0</property>
    <property name="distort">0</property>
    <property name="kdenlive:collapsed">1</property>
   </filter>
   <filter id="filter751">
    <property name="rotate_center">1</property>
    <property name="mlt_service">qtblend</property>
    <property name="kdenlive_id">qtblend</property>
    <property name="rect">00:58:17.350=-2832 -1218 4800 2700 1.000000</property>
    <property name="rotation">00:58:17.350=0</property>
    <property name="compositing">0</property>
    <property name="distort">0</property>
    <property name="kdenlive:collapsed">1</property>
   </filter>
   <filter id="filter752">
    <property name="rotate_center">1</property>
    <property name="mlt_service">qtblend</property>
    <property name="kdenlive_id">qtblend</property>
    <property name="rect">00:58:17.350=-982 0 3920 1080 1.000000</property>
    <property name="rotation">00:58:17.350=0</property>
    <property name="compositing">0</property>
    <property name="distort">1</property>
    <property name="kdenlive:collapsed">0</property>
   </filter>
  </entry>
  <entry producer="producer767" in="01:05:08.217" out="01:05:08.900">
   <property name="kdenlive:id">681</property>
  </entry>
  <entry producer="producer767" in="01:05:10.750" out="01:05:14.050">
   <property name="kdenlive:id">681</property>
   <filter id="filter753">
    <property name="rotate_center">1</property>
    <property name="mlt_service">qtblend</property>
    <property name="kdenlive_id">qtblend</property>
    <property name="rect">01:05:10.750=0 0 1920 1080 1.000000;01:05:14.050=-48 -27 2016 1134 1.000000</property>
    <property name="rotation">01:05:10.750=0;01:05:14.050=0</property>
    <property name="compositing">0</property>
    <property name="distort">0</property>
    <property name="kdenlive:collapsed">0</property>
   </filter>
  </entry>
  <entry producer="producer767" in="01:05:19.350" out="01:05:22.000">
   <property name="kdenlive:id">681</property>
  </entry>
  <entry producer="producer767" in="01:05:25.750" out="01:05:28.100">
   <property name="kdenlive:id">681</property>
  </entry>
  <entry producer="producer767" in="01:05:28.117" out="01:05:28.850">
   <property name="kdenlive:id">681</property>
   <filter id="filter754">
    <property name="rotate_center">1</property>
    <property name="mlt_service">qtblend</property>
    <property name="kdenlive_id">qtblend</property>
    <property name="rect">01:05:28.117=-1241 -130 4224 2376 1.000000</property>
    <property name="rotation">01:05:28.117=0</property>
    <property name="compositing">0</property>
    <property name="distort">0</property>
    <property name="kdenlive:collapsed">0</property>
   </filter>
  </entry>
  <entry producer="producer767" in="01:05:28.867" out="01:05:29.900">
   <property name="kdenlive:id">681</property>
  </entry>
  <entry producer="producer767" in="01:07:32.300" out="01:07:33.767">
   <property name="kdenlive:id">681</property>
  </entry>
  <entry producer="producer767" in="01:07:37.183" out="01:07:40.583">
   <property name="kdenlive:id">681</property>
  </entry>
  <entry producer="producer767" in="01:07:44.867" out="01:07:47.117">
   <property name="kdenlive:id">681</property>
   <filter id="filter755">
    <property name="rotate_center">1</property>
    <property name="mlt_service">qtblend</property>
    <property name="kdenlive_id">qtblend</property>
    <property name="rect">01:07:44.867=-4992 -2808 6912 3888 1.000000</property>
    <property name="rotation">01:07:44.867=0</property>
    <property name="compositing">0</property>
    <property name="distort">0</property>
    <property name="kdenlive:collapsed">1</property>
   </filter>
   <filter id="filter756">
    <property name="rotate_center">1</property>
    <property name="mlt_service">qtblend</property>
    <property name="kdenlive_id">qtblend</property>
    <property name="rect">01:07:44.867=0 0 1920 1080 1.000000;01:07:46.100=-72 -56 2016 1134 1.000000;01:07:46.417=-1600 -610 3552 1998 1.000000</property>
    <property name="rotation">01:07:44.867=0;01:07:46.100=0;01:07:46.417=0</property>
    <property name="compositing">0</property>
    <property name="distort">0</property>
    <property name="kdenlive:collapsed">0</property>
   </filter>
  </entry>
  <entry producer="producer767" in="01:07:47.133" out="01:07:47.867">
   <property name="kdenlive:id">681</property>
   <filter id="filter757">
    <property name="rotate_center">1</property>
    <property name="mlt_service">qtblend</property>
    <property name="kdenlive_id">qtblend</property>
    <property name="rect">01:07:47.133=-4992 -2808 6912 3888 1.000000</property>
    <property name="rotation">01:07:47.133=0</property>
    <property name="compositing">0</property>
    <property name="distort">0</property>
   </filter>
   <filter id="filter758">
    <property name="rotate_center">1</property>
    <property name="mlt_service">qtblend</property>
    <property name="kdenlive_id">qtblend</property>
    <property name="rect">01:07:47.133=-1600 -610 3552 1998 1.000000</property>
    <property name="rotation">01:07:47.133=0</property>
    <property name="compositing">0</property>
    <property name="distort">0</property>
   </filter>
  </entry>
  <entry producer="producer767" in="01:07:57.867" out="01:07:58.167">
   <property name="kdenlive:id">681</property>
  </entry>
  <entry producer="producer767" in="01:07:58.533" out="01:07:59.100">
   <property name="kdenlive:id">681</property>
  </entry>
  <entry producer="producer767" in="01:07:59.683" out="01:08:01.117">
   <property name="kdenlive:id">681</property>
  </entry>
  <entry producer="producer767" in="01:10:42.450" out="01:10:43.750">
   <property name="kdenlive:id">681</property>
  </entry>
  <entry producer="producer767" in="01:11:09.883" out="01:11:12.583">
   <property name="kdenlive:id">681</property>
  </entry>
  <entry producer="producer767" in="01:12:28.400" out="01:12:31.533">
   <property name="kdenlive:id">681</property>
  </entry>
  <entry producer="producer767" in="01:12:32.200" out="01:12:34.683">
   <property name="kdenlive:id">681</property>
  </entry>
  <entry producer="producer767" in="01:12:34.700" out="01:12:35.267">
   <property name="kdenlive:id">681</property>
   <filter id="filter759">
    <property name="rotate_center">1</property>
    <property name="mlt_service">qtblend</property>
    <property name="kdenlive_id">qtblend</property>
    <property name="rect">01:12:34.700=-61 0 9120 5130 1.000000</property>
    <property name="rotation">01:12:34.700=0</property>
    <property name="compositing">0</property>
    <property name="distort">0</property>
    <property name="kdenlive:collapsed">0</property>
   </filter>
  </entry>
  <entry producer="producer767" in="01:12:35.283" out="01:12:36.950">
   <property name="kdenlive:id">681</property>
   <filter id="filter760">
    <property name="rotate_center">1</property>
    <property name="mlt_service">qtblend</property>
    <property name="kdenlive_id">qtblend</property>
    <property name="rect">01:12:35.283=-672 -378 2592 1458 1.000000</property>
    <property name="rotation">01:12:35.283=0</property>
    <property name="compositing">0</property>
    <property name="distort">0</property>
    <property name="kdenlive:collapsed">1</property>
   </filter>
   <filter id="filter761">
    <property name="rotate_center">1</property>
    <property name="mlt_service">qtblend</property>
    <property name="kdenlive_id">qtblend</property>
    <property name="rect">01:12:35.283=-5280 -2811 7200 4050 1.000000</property>
    <property name="rotation">01:12:35.283=0</property>
    <property name="compositing">0</property>
    <property name="distort">0</property>
    <property name="kdenlive:collapsed">1</property>
   </filter>
   <filter id="filter762">
    <property name="rotate_center">1</property>
    <property name="mlt_service">qtblend</property>
    <property name="kdenlive_id">qtblend</property>
    <property name="rect">01:12:35.283=0 0 1920 1080 1.000000;01:12:35.367=-193 -93 2112 1188 1.000000;01:12:35.600=-193 -93 2112 1188 1.000000;01:12:35.650=-343 -174 2304 1296 1.000000;01:12:36.000=-343 -174 2304 1296 1.000000;01:12:36.050=-593 -316 2688 1512 1.000000;01:12:36.383=-593 -316 2688 1512 1.000000;01:12:36.417=-977 -492 3072 1728 1.000000;01:12:36.717=-977 -492 3072 1728 1.000000;01:12:36.750=-1385 -709 3552 1998 1.000000</property>
    <property name="rotation">01:12:35.283=0;01:12:35.367=0;01:12:35.600=0;01:12:35.650=0;01:12:36.000=0;01:12:36.050=0;01:12:36.383=0;01:12:36.417=0;01:12:36.717=0;01:12:36.750=0</property>
    <property name="compositing">0</property>
    <property name="distort">0</property>
    <property name="kdenlive:collapsed">0</property>
   </filter>
  </entry>
  <entry producer="producer767" in="01:14:55.883" out="01:14:58.150">
   <property name="kdenlive:id">681</property>
  </entry>
  <entry producer="producer767" in="01:15:12.650" out="01:15:16.567">
   <property name="kdenlive:id">681</property>
   <filter id="filter763">
    <property name="rotate_center">1</property>
    <property name="mlt_service">qtblend</property>
    <property name="kdenlive_id">qtblend</property>
    <property name="rect">01:15:12.650=0 0 1920 1080 1.000000;01:15:16.567=-48 -27 2016 1134 1.000000</property>
    <property name="rotation">01:15:12.650=0;01:15:16.567=0</property>
    <property name="compositing">0</property>
    <property name="distort">0</property>
    <property name="kdenlive:collapsed">0</property>
   </filter>
  </entry>
  <entry producer="producer767" in="01:15:16.583" out="01:15:17.283">
   <property name="kdenlive:id">681</property>
  </entry>
  <entry producer="producer767" in="01:15:17.300" out="01:15:18.783">
   <property name="kdenlive:id">681</property>
  </entry>
  <entry producer="producer767" in="01:21:19.200" out="01:21:19.850">
   <property name="kdenlive:id">681</property>
  </entry>
  <entry producer="producer767" in="01:21:19.867" out="01:21:20.683">
   <property name="kdenlive:id">681</property>
   <filter id="filter764">
    <property name="rotate_center">1</property>
    <property name="mlt_service">qtblend</property>
    <property name="kdenlive_id">qtblend</property>
    <property name="rect">01:21:19.867=-4992 -2808 6912 3888 1.000000</property>
    <property name="rotation">01:21:19.867=0</property>
    <property name="compositing">0</property>
    <property name="distort">0</property>
   </filter>
   <filter id="filter765">
    <property name="rotate_center">1</property>
    <property name="mlt_service">qtblend</property>
    <property name="kdenlive_id">qtblend</property>
    <property name="rect">01:21:19.867=-720 -396 2688 1512 1.000000</property>
    <property name="rotation">01:21:19.867=0</property>
    <property name="compositing">0</property>
    <property name="distort">0</property>
   </filter>
   <filter id="filter766">
    <property name="rotate_center">1</property>
    <property name="mlt_service">qtblend</property>
    <property name="kdenlive_id">qtblend</property>
    <property name="rect">01:21:19.867=0 0 1920 1080 1</property>
    <property name="rotation">01:21:19.867=0</property>
    <property name="compositing">0</property>
    <property name="distort">0</property>
   </filter>
  </entry>
  <entry producer="producer767" in="01:21:21.950" out="01:21:23.967">
   <property name="kdenlive:id">681</property>
  </entry>
  <entry producer="producer767" in="01:22:53.250" out="01:22:54.883">
   <property name="kdenlive:id">681</property>
  </entry>
  <entry producer="producer767" in="01:23:21.067" out="01:23:22.567">
   <property name="kdenlive:id">681</property>
  </entry>
  <entry producer="producer767" in="01:25:15.117" out="01:25:16.050">
   <property name="kdenlive:id">681</property>
  </entry>
  <entry producer="producer767" in="01:25:20.050" out="01:25:21.167">
   <property name="kdenlive:id">681</property>
  </entry>
  <entry producer="producer767" in="01:26:07.650" out="01:26:09.033">
   <property name="kdenlive:id">681</property>
   <filter id="filter767">
    <property name="rotate_center">1</property>
    <property name="mlt_service">qtblend</property>
    <property name="kdenlive_id">qtblend</property>
    <property name="rect">01:26:07.650=-4992 -2808 6912 3888 1.000000</property>
    <property name="rotation">01:26:07.650=0</property>
    <property name="compositing">0</property>
    <property name="distort">0</property>
   </filter>
   <filter id="filter768">
    <property name="rotate_center">1</property>
    <property name="mlt_service">qtblend</property>
    <property name="kdenlive_id">qtblend</property>
    <property name="rect">01:26:07.650=-720 -396 2688 1512 1.000000</property>
    <property name="rotation">01:26:07.650=0</property>
    <property name="compositing">0</property>
    <property name="distort">0</property>
   </filter>
   <filter id="filter769">
    <property name="rotate_center">1</property>
    <property name="mlt_service">qtblend</property>
    <property name="kdenlive_id">qtblend</property>
    <property name="rect">01:26:07.650=0 0 1920 1080 1</property>
    <property name="rotation">01:26:07.650=0</property>
    <property name="compositing">0</property>
    <property name="distort">0</property>
   </filter>
  </entry>
  <entry producer="producer767" in="01:26:18.633" out="01:26:20.367">
   <property name="kdenlive:id">681</property>
  </entry>
  <entry producer="producer767" in="01:27:02.783" out="01:27:03.867">
   <property name="kdenlive:id">681</property>
  </entry>
  <entry producer="producer767" in="01:27:09.767" out="01:27:10.183">
   <property name="kdenlive:id">681</property>
  </entry>
  <entry producer="producer767" in="01:27:11.867" out="01:27:12.767">
   <property name="kdenlive:id">681</property>
   <filter id="filter770">
    <property name="rotate_center">1</property>
    <property name="mlt_service">qtblend</property>
    <property name="kdenlive_id">qtblend</property>
    <property name="rect">01:27:11.867=-541 -244 3072 1728 1.000000</property>
    <property name="rotation">01:27:11.867=0</property>
    <property name="compositing">0</property>
    <property name="distort">0</property>
    <property name="kdenlive:collapsed">0</property>
   </filter>
  </entry>
  <entry producer="producer767" in="01:27:12.783" out="01:27:14.133">
   <property name="kdenlive:id">681</property>
  </entry>
  <entry producer="producer767" in="01:27:52.733" out="01:27:54.233">
   <property name="kdenlive:id">681</property>
  </entry>
  <entry producer="producer767" in="01:28:07.833" out="01:28:09.300">
   <property name="kdenlive:id">681</property>
   <filter id="filter771">
    <property name="rotate_center">1</property>
    <property name="mlt_service">qtblend</property>
    <property name="kdenlive_id">qtblend</property>
    <property name="rect">01:28:07.833=-4992 -2764 6912 3888 1.000000</property>
    <property name="rotation">01:28:07.833=0</property>
    <property name="compositing">0</property>
    <property name="distort">0</property>
    <property name="kdenlive:collapsed">0</property>
   </filter>
   <filter id="filter772">
    <property name="rotate_center">1</property>
    <property name="mlt_service">qtblend</property>
    <property name="kdenlive_id">qtblend</property>
    <property name="rect">01:28:07.833=-720 -396 2688 1512 1.000000</property>
    <property name="rotation">01:28:07.833=0</property>
    <property name="compositing">0</property>
    <property name="distort">0</property>
    <property name="kdenlive:collapsed">0</property>
   </filter>
   <filter id="filter773">
    <property name="rotate_center">1</property>
    <property name="mlt_service">qtblend</property>
    <property name="kdenlive_id">qtblend</property>
    <property name="rect">01:28:07.833=0 0 1920 1080 1</property>
    <property name="rotation">01:28:07.833=0</property>
    <property name="compositing">0</property>
    <property name="distort">0</property>
    <property name="kdenlive:collapsed">0</property>
   </filter>
  </entry>
  <entry producer="producer767" in="01:28:10.100" out="01:28:11.400">
   <property name="kdenlive:id">681</property>
  </entry>
  <entry producer="producer767" in="01:28:28.867" out="01:28:32.933">
   <property name="kdenlive:id">681</property>
  </entry>
  <entry producer="producer767" in="01:32:00.950" out="01:32:02.483">
   <property name="kdenlive:id">681</property>
  </entry>
  <entry producer="producer767" in="01:32:09.550" out="01:32:10.450">
   <property name="kdenlive:id">681</property>
  </entry>
  <entry producer="producer767" in="01:32:15.200" out="01:32:16.783">
   <property name="kdenlive:id">681</property>
  </entry>
  <entry producer="producer767" in="01:32:27.767" out="01:32:29.017">
   <property name="kdenlive:id">681</property>
   <filter id="filter774">
    <property name="rotate_center">1</property>
    <property name="mlt_service">qtblend</property>
    <property name="kdenlive_id">qtblend</property>
    <property name="rect">01:32:27.767=0 0 1920 1080 1.000000;01:32:29.017=0 0 1920 1080 1.000000</property>
    <property name="rotation">01:32:27.767=0;01:32:29.017=0</property>
    <property name="compositing">0</property>
    <property name="distort">0</property>
    <property name="kdenlive:collapsed">0</property>
   </filter>
  </entry>
  <entry producer="producer633" in="00:00:00.000" out="00:00:02.417">
   <property name="kdenlive:id">689</property>
   <filter id="filter775">
    <property name="rotate_center">1</property>
    <property name="mlt_service">qtblend</property>
    <property name="kdenlive_id">qtblend</property>
    <property name="rect">00:00:00.000=0 0 1920 1080 1.000000;00:00:02.417=-48 -27 2016 1134 1.000000</property>
    <property name="rotation">00:00:00.000=0;00:00:02.417=0</property>
    <property name="compositing">0</property>
    <property name="distort">0</property>
    <property name="kdenlive:collapsed">0</property>
   </filter>
  </entry>
  <entry producer="producer767" in="01:32:48.283" out="01:32:50.850">
   <property name="kdenlive:id">681</property>
  </entry>
  <entry producer="producer767" in="01:36:55.100" out="01:36:56.883">
   <property name="kdenlive:id">681</property>
  </entry>
  <entry producer="producer767" in="01:36:59.750" out="01:37:01.117">
   <property name="kdenlive:id">681</property>
  </entry>
  <entry producer="producer767" in="01:37:53.200" out="01:37:54.433">
   <property name="kdenlive:id">681</property>
  </entry>
  <entry producer="producer767" in="01:38:14.117" out="01:38:15.717">
   <property name="kdenlive:id">681</property>
  </entry>
  <entry producer="producer767" in="01:38:19.517" out="01:38:21.017">
   <property name="kdenlive:id">681</property>
  </entry>
  <entry producer="producer767" in="01:38:21.900" out="01:38:23.217">
   <property name="kdenlive:id">681</property>
  </entry>
  <entry producer="producer767" in="01:38:28.400" out="01:38:29.450">
   <property name="kdenlive:id">681</property>
  </entry>
  <entry producer="producer767" in="01:38:30.467" out="01:38:31.350">
   <property name="kdenlive:id">681</property>
  </entry>
  <entry producer="producer767" in="01:38:34.133" out="01:38:35.383">
   <property name="kdenlive:id">681</property>
  </entry>
  <entry producer="producer767" in="01:40:27.667" out="01:40:28.983">
   <property name="kdenlive:id">681</property>
  </entry>
  <entry producer="producer767" in="01:40:30.383" out="01:40:31.483">
   <property name="kdenlive:id">681</property>
  </entry>
  <entry producer="producer767" in="01:40:50.467" out="01:40:52.100">
   <property name="kdenlive:id">681</property>
  </entry>
  <entry producer="producer767" in="01:40:53.150" out="01:40:54.600">
   <property name="kdenlive:id">681</property>
  </entry>
  <entry producer="producer767" in="01:41:22.700" out="01:41:23.850">
   <property name="kdenlive:id">681</property>
  </entry>
  <entry producer="producer767" in="01:41:23.867" out="01:41:24.533">
   <property name="kdenlive:id">681</property>
   <filter id="filter776">
    <property name="rotate_center">1</property>
    <property name="mlt_service">qtblend</property>
    <property name="kdenlive_id">qtblend</property>
    <property name="rect">01:41:23.867=-4992 -2808 6912 3888 1.000000</property>
    <property name="rotation">01:41:23.867=0</property>
    <property name="compositing">0</property>
    <property name="distort">0</property>
   </filter>
   <filter id="filter777">
    <property name="rotate_center">1</property>
    <property name="mlt_service">qtblend</property>
    <property name="kdenlive_id">qtblend</property>
    <property name="rect">01:41:23.867=-720 -396 2688 1512 1.000000</property>
    <property name="rotation">01:41:23.867=0</property>
    <property name="compositing">0</property>
    <property name="distort">0</property>
   </filter>
   <filter id="filter778">
    <property name="rotate_center">1</property>
    <property name="mlt_service">qtblend</property>
    <property name="kdenlive_id">qtblend</property>
    <property name="rect">01:41:23.867=0 0 1920 1080 1</property>
    <property name="rotation">01:41:23.867=0</property>
    <property name="compositing">0</property>
    <property name="distort">0</property>
   </filter>
  </entry>
  <entry producer="producer767" in="01:41:42.383" out="01:41:44.783">
   <property name="kdenlive:id">681</property>
  </entry>
  <entry producer="producer767" in="01:41:52.850" out="01:41:55.783">
   <property name="kdenlive:id">681</property>
   <filter id="filter779">
    <property name="rotate_center">1</property>
    <property name="mlt_service">qtblend</property>
    <property name="kdenlive_id">qtblend</property>
    <property name="rect">01:41:52.850=0 0 1920 1080 1.000000;01:41:55.783=-48 -27 2016 1134 1.000000</property>
    <property name="rotation">01:41:52.850=0;01:41:55.783=0</property>
    <property name="compositing">0</property>
    <property name="distort">0</property>
    <property name="kdenlive:collapsed">0</property>
   </filter>
  </entry>
  <entry producer="producer767" in="01:42:03.400" out="01:42:04.783">
   <property name="kdenlive:id">681</property>
  </entry>
  <entry producer="producer767" in="01:42:10.783" out="01:42:12.650">
   <property name="kdenlive:id">681</property>
  </entry>
  <entry producer="producer767" in="01:42:37.183" out="01:42:38.450">
   <property name="kdenlive:id">681</property>
   <filter id="filter780">
    <property name="rotate_center">1</property>
    <property name="mlt_service">qtblend</property>
    <property name="kdenlive_id">qtblend</property>
    <property name="rect">01:42:37.183=-984 -147 3456 1944 1.000000;01:42:37.833=-1424 -472 3456 1944 1.000000;01:42:38.033=-3527 -1188 6048 3402 1.000000;01:42:38.100=-3527 -938 6048 3402 1.000000</property>
    <property name="rotation">01:42:37.183=0;01:42:37.833=0;01:42:38.033=0;01:42:38.100=0</property>
    <property name="compositing">0</property>
    <property name="distort">0</property>
    <property name="kdenlive:collapsed">0</property>
   </filter>
  </entry>
  <entry producer="producer767" in="01:42:40.233" out="01:42:41.250">
   <property name="kdenlive:id">681</property>
   <filter id="filter781">
    <property name="rotate_center">1</property>
    <property name="mlt_service">qtblend</property>
    <property name="kdenlive_id">qtblend</property>
    <property name="rect">01:42:40.233=-4992 -2808 6912 3888 1.000000</property>
    <property name="rotation">01:42:40.233=0</property>
    <property name="compositing">0</property>
    <property name="distort">0</property>
    <property name="kdenlive:collapsed">1</property>
   </filter>
   <filter id="filter782">
    <property name="rotate_center">1</property>
    <property name="mlt_service">qtblend</property>
    <property name="kdenlive_id">qtblend</property>
    <property name="rect">01:42:40.233=-720 -396 2688 1512 1.000000</property>
    <property name="rotation">01:42:40.233=0</property>
    <property name="compositing">0</property>
    <property name="distort">0</property>
    <property name="kdenlive:collapsed">1</property>
   </filter>
   <filter id="filter783">
    <property name="rotate_center">1</property>
    <property name="mlt_service">qtblend</property>
    <property name="kdenlive_id">qtblend</property>
    <property name="rect">01:42:40.233=-1052 -383 2976 1674 1.000000;01:42:41.250=-1100 -410 3072 1728 1.000000</property>
    <property name="rotation">01:42:40.233=0;01:42:41.250=0</property>
    <property name="compositing">0</property>
    <property name="distort">0</property>
    <property name="kdenlive:collapsed">0</property>
   </filter>
  </entry>
  <entry producer="producer767" in="01:43:51.300" out="01:43:54.133">
   <property name="kdenlive:id">681</property>
  </entry>
  <entry producer="producer767" in="01:43:54.150" out="01:44:03.250">
   <property name="kdenlive:id">681</property>
   <filter id="filter784">
    <property name="rotate_center">1</property>
    <property name="mlt_service">qtblend</property>
    <property name="kdenlive_id">qtblend</property>
    <property name="rect">01:43:54.150=-1157 -1782 5088 2862 1.000000</property>
    <property name="rotation">01:43:54.150=0</property>
    <property name="compositing">0</property>
    <property name="distort">0</property>
    <property name="kdenlive:collapsed">0</property>
   </filter>
  </entry>
  <entry producer="producer767" in="01:58:31.150" out="01:58:31.367">
   <property name="kdenlive:id">681</property>
  </entry>
  <entry producer="producer767" in="01:58:31.383" out="01:58:32.800">
   <property name="kdenlive:id">681</property>
  </entry>
  <entry producer="producer767" in="01:59:41.367" out="01:59:44.117">
   <property name="kdenlive:id">681</property>
   <filter id="filter785">
    <property name="rotate_center">1</property>
    <property name="mlt_service">qtblend</property>
    <property name="kdenlive_id">qtblend</property>
    <property name="rect">01:59:41.367=0 0 1920 1080 1.000000;01:59:44.117=-48 -27 2016 1134 1.000000</property>
    <property name="rotation">01:59:41.367=0;01:59:44.117=0</property>
    <property name="compositing">0</property>
    <property name="distort">0</property>
    <property name="kdenlive:collapsed">0</property>
   </filter>
  </entry>
  <entry producer="producer767" in="02:00:43.167" out="02:00:43.817">
   <property name="kdenlive:id">681</property>
  </entry>
  <entry producer="producer767" in="02:01:08.750" out="02:01:12.467">
   <property name="kdenlive:id">681</property>
  </entry>
  <entry producer="producer767" in="02:01:18.033" out="02:01:19.367">
   <property name="kdenlive:id">681</property>
  </entry>
  <entry producer="producer767" in="02:01:19.383" out="02:01:19.550">
   <property name="kdenlive:id">681</property>
  </entry>
  <entry producer="producer767" in="02:01:27.817" out="02:01:29.133">
   <property name="kdenlive:id">681</property>
  </entry>
  <entry producer="producer767" in="02:01:29.150" out="02:01:30.383">
   <property name="kdenlive:id">681</property>
   <filter id="filter786">
    <property name="rotate_center">1</property>
    <property name="mlt_service">qtblend</property>
    <property name="kdenlive_id">qtblend</property>
    <property name="rect">02:01:29.150=0 0 1920 1080 1.000000;02:01:29.183=-956 -538 2876 1618 1.000000;02:01:30.383=-1815 -1021 3735 2101 1.000000</property>
    <property name="rotation">02:01:29.150=0;02:01:29.183=0;02:01:30.383=0</property>
    <property name="compositing">0</property>
    <property name="distort">0</property>
    <property name="kdenlive:collapsed">0</property>
   </filter>
   <filter id="filter787">
    <property name="rotate_center">1</property>
    <property name="mlt_service">qtblend</property>
    <property name="kdenlive_id">qtblend</property>
    <property name="rect">02:01:29.150=0 0 1920 1080 1</property>
    <property name="rotation">02:01:29.150=0</property>
    <property name="compositing">0</property>
    <property name="distort">0</property>
    <property name="kdenlive:collapsed">0</property>
   </filter>
  </entry>
  <entry producer="producer767" in="02:01:30.400" out="02:01:30.683">
   <property name="kdenlive:id">681</property>
   <filter id="filter788">
    <property name="rotate_center">1</property>
    <property name="mlt_service">qtblend</property>
    <property name="kdenlive_id">qtblend</property>
    <property name="rect">02:01:30.400=-4992 -2744 6912 3888 1.000000</property>
    <property name="rotation">02:01:30.400=0</property>
    <property name="compositing">0</property>
    <property name="distort">0</property>
    <property name="kdenlive:collapsed">1</property>
   </filter>
   <filter id="filter789">
    <property name="rotate_center">1</property>
    <property name="mlt_service">qtblend</property>
    <property name="kdenlive_id">qtblend</property>
    <property name="rect">02:01:30.400=-720 -396 2688 1512 1.000000</property>
    <property name="rotation">02:01:30.400=0</property>
    <property name="compositing">0</property>
    <property name="distort">0</property>
    <property name="kdenlive:collapsed">1</property>
   </filter>
   <filter id="filter790">
    <property name="rotate_center">1</property>
    <property name="mlt_service">qtblend</property>
    <property name="kdenlive_id">qtblend</property>
    <property name="rect">02:01:30.400=-1925 -208 3936 2214 1.000000</property>
    <property name="rotation">02:01:30.400=0</property>
    <property name="compositing">0</property>
    <property name="distort">0</property>
    <property name="kdenlive:collapsed">0</property>
   </filter>
  </entry>
  <entry producer="producer768" in="00:34:32.983" out="00:34:35.233">
   <property name="kdenlive:id">682</property>
  </entry>
  <entry producer="producer768" in="00:35:05.717" out="00:35:12.133">
   <property name="kdenlive:id">682</property>
   <filter id="filter791">
    <property name="rotate_center">1</property>
    <property name="mlt_service">qtblend</property>
    <property name="kdenlive_id">qtblend</property>
    <property name="rect">00:35:05.717=0 0 1920 1080 1.000000;00:35:07.017=0 0 1920 1080 1.000000;00:35:07.217=-96 -54 2112 1188 1.000000;00:35:08.017=-96 -54 2112 1188 1.000000;00:35:08.100=-432 -243 2784 1566 1.000000;00:35:08.433=-432 -243 2784 1566 1.000000;00:35:08.467=0 0 1920 1080 1.000000;00:35:11.533=0 0 1920 1080 1.000000;00:35:11.700=-719 -681 3360 1890 1.000000</property>
    <property name="rotation">00:35:05.717=0;00:35:07.017=0;00:35:07.217=0;00:35:08.017=0;00:35:08.100=0;00:35:08.433=0;00:35:08.467=0;00:35:11.533=0;00:35:11.700=0</property>
    <property name="compositing">0</property>
    <property name="distort">0</property>
    <property name="kdenlive:collapsed">0</property>
   </filter>
  </entry>
  <entry producer="producer768" in="00:39:07.483" out="00:39:08.967">
   <property name="kdenlive:id">682</property>
  </entry>
  <entry producer="producer768" in="00:40:43.167" out="00:40:43.967">
   <property name="kdenlive:id">682</property>
  </entry>
  <entry producer="producer768" in="00:40:44.900" out="00:40:45.533">
   <property name="kdenlive:id">682</property>
  </entry>
  <entry producer="producer768" in="00:41:10.767" out="00:41:13.283">
   <property name="kdenlive:id">682</property>
  </entry>
  <entry producer="producer768" in="00:41:23.000" out="00:41:24.500">
   <property name="kdenlive:id">682</property>
  </entry>
  <entry producer="producer768" in="00:41:25.233" out="00:41:27.833">
   <property name="kdenlive:id">682</property>
  </entry>
  <entry producer="producer768" in="00:44:14.333" out="00:44:19.567">
   <property name="kdenlive:id">682</property>
  </entry>
  <blank length="00:00:00.833"/>
  <entry producer="producer768" in="00:45:58.250" out="00:46:00.617">
   <property name="kdenlive:id">682</property>
  </entry>
  <entry producer="producer768" in="00:46:16.283" out="00:46:17.783">
   <property name="kdenlive:id">682</property>
  </entry>
  <entry producer="producer768" in="00:46:19.933" out="00:46:20.733">
   <property name="kdenlive:id">682</property>
  </entry>
  <entry producer="producer768" in="00:46:21.417" out="00:46:22.800">
   <property name="kdenlive:id">682</property>
  </entry>
  <entry producer="producer768" in="00:47:36.600" out="00:47:38.133">
   <property name="kdenlive:id">682</property>
  </entry>
  <entry producer="producer768" in="00:47:45.833" out="00:47:48.133">
   <property name="kdenlive:id">682</property>
  </entry>
  <entry producer="producer768" in="00:48:48.600" out="00:48:50.150">
   <property name="kdenlive:id">682</property>
  </entry>
  <entry producer="producer768" in="00:49:19.900" out="00:49:21.800">
   <property name="kdenlive:id">682</property>
  </entry>
  <entry producer="producer768" in="00:51:45.583" out="00:51:46.817">
   <property name="kdenlive:id">682</property>
  </entry>
  <entry producer="producer768" in="00:51:50.550" out="00:51:53.250">
   <property name="kdenlive:id">682</property>
  </entry>
  <entry producer="producer768" in="00:52:19.817" out="00:52:21.750">
   <property name="kdenlive:id">682</property>
  </entry>
  <entry producer="producer768" in="00:52:21.767" out="00:52:22.167">
   <property name="kdenlive:id">682</property>
  </entry>
  <entry producer="producer768" in="00:54:24.517" out="00:54:25.133">
   <property name="kdenlive:id">682</property>
  </entry>
  <entry producer="producer768" in="00:54:27.433" out="00:54:28.717">
   <property name="kdenlive:id">682</property>
   <filter id="filter792">
    <property name="rotate_center">1</property>
    <property name="mlt_service">qtblend</property>
    <property name="kdenlive_id">qtblend</property>
    <property name="rect">00:54:27.433=-9230 -4579 11424 6426 1.000000</property>
    <property name="rotation">00:54:27.433=0</property>
    <property name="compositing">0</property>
    <property name="distort">0</property>
    <property name="kdenlive:collapsed">1</property>
   </filter>
   <filter id="filter793">
    <property name="rotate_center">1</property>
    <property name="mlt_service">qtblend</property>
    <property name="kdenlive_id">qtblend</property>
    <property name="rect">00:54:27.433=0 0 1920 1080 1</property>
    <property name="rotation">00:54:27.433=0</property>
    <property name="compositing">0</property>
    <property name="distort">0</property>
    <property name="kdenlive:collapsed">0</property>
   </filter>
  </entry>
  <entry producer="producer768" in="00:54:28.733" out="00:54:30.117">
   <property name="kdenlive:id">682</property>
   <filter id="filter794">
    <property name="rotate_center">1</property>
    <property name="mlt_service">qtblend</property>
    <property name="kdenlive_id">qtblend</property>
    <property name="rect">00:54:28.733=-9230 -4579 11424 6426 1.000000</property>
    <property name="rotation">00:54:28.733=0</property>
    <property name="compositing">0</property>
    <property name="distort">0</property>
    <property name="kdenlive:collapsed">1</property>
   </filter>
   <filter id="filter795">
    <property name="rotate_center">1</property>
    <property name="mlt_service">qtblend</property>
    <property name="kdenlive_id">qtblend</property>
    <property name="rect">00:54:28.733=0 0 1920 1080 1.000000</property>
    <property name="rotation">00:54:28.733=0</property>
    <property name="compositing">0</property>
    <property name="distort">0</property>
    <property name="kdenlive:collapsed">1</property>
   </filter>
   <filter id="filter796">
    <property name="rotate_center">1</property>
    <property name="mlt_service">qtblend</property>
    <property name="kdenlive_id">qtblend</property>
    <property name="rect">00:54:28.733=0 0 1920 1080 1.000000;00:54:29.017=48 20 1824 1026 1.000000</property>
    <property name="rotation">00:54:28.733=0;00:54:29.017=0</property>
    <property name="compositing">0</property>
    <property name="distort">0</property>
    <property name="kdenlive:collapsed">0</property>
   </filter>
  </entry>
  <entry producer="producer768" in="00:55:16.050" out="00:55:19.283">
   <property name="kdenlive:id">682</property>
  </entry>
  <entry producer="producer768" in="01:02:26.533" out="01:02:27.650">
   <property name="kdenlive:id">682</property>
  </entry>
  <entry producer="producer768" in="01:02:30.850" out="01:02:31.600">
   <property name="kdenlive:id">682</property>
  </entry>
  <entry producer="producer768" in="01:02:37.750" out="01:02:39.317">
   <property name="kdenlive:id">682</property>
  </entry>
  <entry producer="producer768" in="01:02:39.333" out="01:02:42.167">
   <property name="kdenlive:id">682</property>
  </entry>
  <entry producer="producer768" in="01:02:52.183" out="01:02:53.667">
   <property name="kdenlive:id">682</property>
  </entry>
  <entry producer="producer768" in="01:03:14.567" out="01:03:15.867">
   <property name="kdenlive:id">682</property>
  </entry>
  <entry producer="producer768" in="01:04:52.483" out="01:04:55.100">
   <property name="kdenlive:id">682</property>
  </entry>
  <entry producer="producer768" in="01:04:55.883" out="01:04:56.250">
   <property name="kdenlive:id">682</property>
  </entry>
  <entry producer="producer768" in="01:04:57.583" out="01:04:58.283">
   <property name="kdenlive:id">682</property>
  </entry>
  <entry producer="producer768" in="01:09:18.150" out="01:09:23.983">
   <property name="kdenlive:id">682</property>
   <filter id="filter797">
    <property name="rotate_center">1</property>
    <property name="mlt_service">qtblend</property>
    <property name="kdenlive_id">qtblend</property>
    <property name="rect">01:09:18.150=0 0 1920 1080 1.000000;01:09:23.983=-48 -27 2016 1134 1.000000</property>
    <property name="rotation">01:09:18.150=0;01:09:23.983=0</property>
    <property name="compositing">0</property>
    <property name="distort">0</property>
    <property name="kdenlive:collapsed">0</property>
   </filter>
  </entry>
  <entry producer="producer768" in="01:09:24.000" out="01:09:24.783">
   <property name="kdenlive:id">682</property>
   <filter id="filter798">
    <property name="rotate_center">1</property>
    <property name="mlt_service">qtblend</property>
    <property name="kdenlive_id">qtblend</property>
    <property name="rect">01:09:24.000=-48 -27 2016 1134 1.000000;01:09:24.033=-1536 -256 3456 1944 1.000000;01:09:24.233=-1486 -184 3456 1944 1.000000;01:09:24.500=-1525 -465 3456 1944 1.000000;01:09:24.750=-2485 -356 4800 2700 1.000000</property>
    <property name="rotation">01:09:24.000=0;01:09:24.033=0;01:09:24.233=0;01:09:24.500=0;01:09:24.750=0</property>
    <property name="compositing">0</property>
    <property name="distort">0</property>
    <property name="kdenlive:collapsed">0</property>
   </filter>
  </entry>
  <entry producer="producer768" in="01:11:53.167" out="01:11:56.067">
   <property name="kdenlive:id">682</property>
  </entry>
  <entry producer="producer768" in="01:12:15.717" out="01:12:17.867">
   <property name="kdenlive:id">682</property>
  </entry>
  <entry producer="producer768" in="01:12:33.017" out="01:12:36.867">
   <property name="kdenlive:id">682</property>
  </entry>
  <entry producer="producer768" in="01:12:36.883" out="01:12:37.450">
   <property name="kdenlive:id">682</property>
   <filter id="filter799">
    <property name="rotate_center">1</property>
    <property name="mlt_service">qtblend</property>
    <property name="kdenlive_id">qtblend</property>
    <property name="rect">01:12:36.883=-288 -162 2496 1404 1.000000</property>
    <property name="rotation">01:12:36.883=0</property>
    <property name="compositing">0</property>
    <property name="distort">0</property>
    <property name="kdenlive:collapsed">0</property>
   </filter>
  </entry>
  <entry producer="producer768" in="01:13:24.650" out="01:13:26.183">
   <property name="kdenlive:id">682</property>
  </entry>
  <entry producer="producer768" in="01:13:26.200" out="01:13:27.017">
   <property name="kdenlive:id">682</property>
   <filter id="filter800">
    <property name="version">0.3</property>
    <property name="mlt_service">frei0r.saturat0r</property>
    <property name="kdenlive_id">Black&amp;WHite</property>
    <property name="Saturation">00:00:15.367=0.001</property>
   </filter>
  </entry>
  <entry producer="producer768" in="01:13:28.000" out="01:13:28.717">
   <property name="kdenlive:id">682</property>
  </entry>
  <entry producer="producer768" in="01:13:28.733" out="01:13:30.267">
   <property name="kdenlive:id">682</property>
  </entry>
  <entry producer="producer768" in="01:13:31.183" out="01:13:32.917">
   <property name="kdenlive:id">682</property>
  </entry>
  <entry producer="producer768" in="01:13:41.783" out="01:13:43.200">
   <property name="kdenlive:id">682</property>
  </entry>
  <entry producer="producer768" in="01:13:43.217" out="01:13:44.133">
   <property name="kdenlive:id">682</property>
   <filter id="filter801">
    <property name="rotate_center">1</property>
    <property name="mlt_service">qtblend</property>
    <property name="kdenlive_id">qtblend</property>
    <property name="rect">01:13:43.217=-8589 -4661 11424 6426 1.000000</property>
    <property name="rotation">01:13:43.217=0</property>
    <property name="compositing">0</property>
    <property name="distort">0</property>
    <property name="kdenlive:collapsed">0</property>
   </filter>
   <filter id="filter802">
    <property name="rotate_center">1</property>
    <property name="mlt_service">qtblend</property>
    <property name="kdenlive_id">qtblend</property>
    <property name="rect">01:13:43.217=0 0 1920 1080 1</property>
    <property name="rotation">01:13:43.217=0</property>
    <property name="compositing">0</property>
    <property name="distort">0</property>
    <property name="kdenlive:collapsed">0</property>
   </filter>
  </entry>
  <entry producer="producer768" in="01:14:46.533" out="01:14:48.600">
   <property name="kdenlive:id">682</property>
  </entry>
  <entry producer="producer768" in="01:15:52.550" out="01:15:55.183">
   <property name="kdenlive:id">682</property>
  </entry>
  <entry producer="producer768" in="01:16:07.700" out="01:16:10.367">
   <property name="kdenlive:id">682</property>
  </entry>
  <entry producer="producer768" in="01:16:17.883" out="01:16:18.867">
   <property name="kdenlive:id">682</property>
  </entry>
  <entry producer="producer768" in="01:16:19.550" out="01:16:22.600">
   <property name="kdenlive:id">682</property>
   <filter id="filter803">
    <property name="rotate_center">1</property>
    <property name="mlt_service">qtblend</property>
    <property name="kdenlive_id">qtblend</property>
    <property name="rect">01:16:19.550=0 0 1920 1080 1.000000;01:16:20.117=0 17 1920 1080 1.000000;01:16:21.000=0 4 1920 1080 1.000000;01:16:21.283=0 -19 1920 1080 1.000000;01:16:22.600=0 0 1920 1080 1.000000</property>
    <property name="rotation">01:16:19.550=0;01:16:20.117=0;01:16:21.000=0;01:16:21.283=0;01:16:22.600=0</property>
    <property name="compositing">0</property>
    <property name="distort">0</property>
    <property name="kdenlive:collapsed">0</property>
   </filter>
   <filter id="filter804">
    <property name="rotate_center">1</property>
    <property name="mlt_service">qtblend</property>
    <property name="kdenlive_id">qtblend</property>
    <property name="rect">01:16:19.550=-9230 -4604 11424 6426 1.000000</property>
    <property name="rotation">01:16:19.550=0</property>
    <property name="compositing">0</property>
    <property name="distort">0</property>
    <property name="kdenlive:collapsed">1</property>
   </filter>
   <filter id="filter805">
    <property name="rotate_center">1</property>
    <property name="mlt_service">qtblend</property>
    <property name="kdenlive_id">qtblend</property>
    <property name="rect">01:16:19.550=0 0 1920 1080 1</property>
    <property name="rotation">01:16:19.550=0</property>
    <property name="compositing">0</property>
    <property name="distort">0</property>
    <property name="kdenlive:collapsed">1</property>
   </filter>
  </entry>
  <entry producer="producer768" in="01:17:50.033" out="01:17:50.983">
   <property name="kdenlive:id">682</property>
  </entry>
  <entry producer="producer768" in="01:17:52.117" out="01:17:52.967">
   <property name="kdenlive:id">682</property>
  </entry>
  <entry producer="producer768" in="01:17:54.917" out="01:17:55.733">
   <property name="kdenlive:id">682</property>
   <filter id="filter806">
    <property name="rotate_center">1</property>
    <property name="mlt_service">qtblend</property>
    <property name="kdenlive_id">qtblend</property>
    <property name="rect">01:17:54.917=0 0 1920 1080 1.000000;01:17:54.950=-288 -47 2496 1404 1.000000</property>
    <property name="rotation">01:17:54.917=0;01:17:54.950=0</property>
    <property name="compositing">0</property>
    <property name="distort">0</property>
    <property name="kdenlive:collapsed">0</property>
   </filter>
  </entry>
  <entry producer="producer768" in="01:20:13.300" out="01:20:19.550">
   <property name="kdenlive:id">682</property>
   <filter id="filter807">
    <property name="rotate_center">1</property>
    <property name="mlt_service">qtblend</property>
    <property name="kdenlive_id">qtblend</property>
    <property name="rect">01:20:13.300=0 0 1920 1080 1.000000;01:20:19.550=-96 -54 2112 1188 1.000000</property>
    <property name="rotation">01:20:13.300=0;01:20:19.550=0</property>
    <property name="compositing">0</property>
    <property name="distort">0</property>
    <property name="kdenlive:collapsed">0</property>
   </filter>
  </entry>
  <entry producer="producer768" in="01:25:59.900" out="01:26:04.300">
   <property name="kdenlive:id">682</property>
  </entry>
  <entry producer="producer768" in="01:26:33.200" out="01:26:33.967">
   <property name="kdenlive:id">682</property>
   <filter id="filter808">
    <property name="rotate_center">1</property>
    <property name="mlt_service">qtblend</property>
    <property name="kdenlive_id">qtblend</property>
    <property name="rect">01:26:33.200=-9230 -4688 11424 6426 1.000000</property>
    <property name="rotation">01:26:33.200=0</property>
    <property name="compositing">0</property>
    <property name="distort">0</property>
    <property name="kdenlive:collapsed">1</property>
   </filter>
   <filter id="filter809">
    <property name="rotate_center">1</property>
    <property name="mlt_service">qtblend</property>
    <property name="kdenlive_id">qtblend</property>
    <property name="rect">01:26:33.200=-239 -212 2592 1458 1.000000</property>
    <property name="rotation">01:26:33.200=0</property>
    <property name="compositing">0</property>
    <property name="distort">0</property>
    <property name="kdenlive:collapsed">1</property>
   </filter>
   <filter id="filter810">
    <property name="rotate_center">1</property>
    <property name="mlt_service">qtblend</property>
    <property name="kdenlive_id">qtblend</property>
    <property name="rect">01:26:33.200=-1113 0 3920 1080 1.000000</property>
    <property name="rotation">01:26:33.200=0</property>
    <property name="compositing">0</property>
    <property name="distort">1</property>
    <property name="kdenlive:collapsed">0</property>
   </filter>
  </entry>
  <entry producer="producer768" in="01:28:21.367" out="01:28:22.850">
   <property name="kdenlive:id">682</property>
  </entry>
  <entry producer="producer768" in="01:29:45.867" out="01:29:48.817">
   <property name="kdenlive:id">682</property>
  </entry>
  <entry producer="producer768" in="01:29:50.050" out="01:29:51.233">
   <property name="kdenlive:id">682</property>
  </entry>
  <entry producer="producer768" in="01:30:03.783" out="01:30:06.550">
   <property name="kdenlive:id">682</property>
  </entry>
  <entry producer="producer768" in="01:30:14.433" out="01:30:15.500">
   <property name="kdenlive:id">682</property>
  </entry>
  <entry producer="producer768" in="01:30:15.517" out="01:30:17.083">
   <property name="kdenlive:id">682</property>
   <filter id="filter811">
    <property name="rotate_center">1</property>
    <property name="mlt_service">qtblend</property>
    <property name="kdenlive_id">qtblend</property>
    <property name="rect">01:30:15.517=-1461 -415 3840 2160 1.000000;01:30:17.083=-1738 -490 4128 2322 1.000000</property>
    <property name="rotation">01:30:15.517=0;01:30:17.083=0</property>
    <property name="compositing">0</property>
    <property name="distort">0</property>
    <property name="kdenlive:collapsed">0</property>
   </filter>
  </entry>
  <entry producer="producer768" in="01:30:17.100" out="01:30:18.350">
   <property name="kdenlive:id">682</property>
   <filter id="filter812">
    <property name="rotate_center">1</property>
    <property name="mlt_service">qtblend</property>
    <property name="kdenlive_id">qtblend</property>
    <property name="rect">01:30:17.100=-9181 -4586 11424 6426 1.000000</property>
    <property name="rotation">01:30:17.100=0</property>
    <property name="compositing">0</property>
    <property name="distort">0</property>
    <property name="kdenlive:collapsed">1</property>
   </filter>
   <filter id="filter813">
    <property name="rotate_center">1</property>
    <property name="mlt_service">qtblend</property>
    <property name="kdenlive_id">qtblend</property>
    <property name="rect">01:30:17.100=0 0 1920 1080 1.000000;01:30:18.350=-48 -27 2016 1134 1.000000</property>
    <property name="rotation">01:30:17.100=0;01:30:18.350=0</property>
    <property name="compositing">0</property>
    <property name="distort">0</property>
    <property name="kdenlive:collapsed">0</property>
   </filter>
  </entry>
  <entry producer="producer768" in="01:31:50.050" out="01:31:51.283">
   <property name="kdenlive:id">682</property>
  </entry>
  <entry producer="producer768" in="01:31:54.617" out="01:31:58.550">
   <property name="kdenlive:id">682</property>
   <filter id="filter814">
    <property name="rotate_center">1</property>
    <property name="mlt_service">qtblend</property>
    <property name="kdenlive_id">qtblend</property>
    <property name="rect">01:31:54.617=0 0 1920 1080 1.000000;01:31:58.550=-96 -54 2112 1188 1.000000</property>
    <property name="rotation">01:31:54.617=0;01:31:58.550=0</property>
    <property name="compositing">0</property>
    <property name="distort">0</property>
    <property name="kdenlive:collapsed">0</property>
   </filter>
  </entry>
  <entry producer="producer768" in="01:32:07.033" out="01:32:10.033">
   <property name="kdenlive:id">682</property>
   <filter id="filter815">
    <property name="rotate_center">1</property>
    <property name="mlt_service">qtblend</property>
    <property name="kdenlive_id">qtblend</property>
    <property name="rect">01:32:07.033=-803 -371 2784 1566 1.000000</property>
    <property name="rotation">01:32:07.033=0</property>
    <property name="compositing">0</property>
    <property name="distort">0</property>
    <property name="kdenlive:collapsed">1</property>
   </filter>
   <filter id="filter816">
    <property name="rotate_center">1</property>
    <property name="mlt_service">qtblend</property>
    <property name="kdenlive_id">qtblend</property>
    <property name="rect">01:32:07.033=-5280 -2811 7200 4050 1.000000</property>
    <property name="rotation">01:32:07.033=0</property>
    <property name="compositing">0</property>
    <property name="distort">0</property>
    <property name="kdenlive:collapsed">1</property>
   </filter>
   <filter id="filter817">
    <property name="rotate_center">1</property>
    <property name="mlt_service">qtblend</property>
    <property name="kdenlive_id">qtblend</property>
    <property name="rect">01:32:07.033=0 0 1920 1080 1.000000;01:32:10.033=-48 -27 2016 1134 1.000000</property>
    <property name="rotation">01:32:07.033=0;01:32:10.033=0</property>
    <property name="compositing">0</property>
    <property name="distort">0</property>
    <property name="kdenlive:collapsed">0</property>
   </filter>
  </entry>
  <entry producer="producer768" in="01:41:15.433" out="01:41:16.600">
   <property name="kdenlive:id">682</property>
  </entry>
  <entry producer="producer768" in="01:41:22.300" out="01:41:23.633">
   <property name="kdenlive:id">682</property>
  </entry>
  <entry producer="producer768" in="01:41:26.917" out="01:41:27.817">
   <property name="kdenlive:id">682</property>
  </entry>
  <entry producer="producer768" in="01:41:33.167" out="01:41:33.583">
   <property name="kdenlive:id">682</property>
  </entry>
  <entry producer="producer768" in="01:41:33.600" out="01:41:38.233">
   <property name="kdenlive:id">682</property>
  </entry>
  <entry producer="producer768" in="01:43:02.717" out="01:43:05.750">
   <property name="kdenlive:id">682</property>
  </entry>
  <entry producer="producer768" in="01:43:08.083" out="01:43:08.833">
   <property name="kdenlive:id">682</property>
  </entry>
  <entry producer="producer768" in="01:43:09.083" out="01:43:10.433">
   <property name="kdenlive:id">682</property>
  </entry>
  <entry producer="producer768" in="01:43:10.450" out="01:43:11.017">
   <property name="kdenlive:id">682</property>
   <filter id="filter818">
    <property name="rotate_center">1</property>
    <property name="mlt_service">qtblend</property>
    <property name="kdenlive_id">qtblend</property>
    <property name="rect">01:43:10.450=-355 0 7584 4266 1.000000</property>
    <property name="rotation">01:43:10.450=0</property>
    <property name="compositing">0</property>
    <property name="distort">0</property>
    <property name="kdenlive:collapsed">1</property>
   </filter>
   <filter id="filter819">
    <property name="rotate_center">1</property>
    <property name="mlt_service">qtblend</property>
    <property name="kdenlive_id">qtblend</property>
    <property name="rect">01:43:10.450=0 0 1920 1080 1.000000;01:43:11.017=-48 -27 2016 1134 1.000000</property>
    <property name="rotation">01:43:10.450=0;01:43:11.017=0</property>
    <property name="compositing">0</property>
    <property name="distort">0</property>
    <property name="kdenlive:collapsed">0</property>
   </filter>
  </entry>
  <entry producer="producer768" in="01:45:10.150" out="01:45:12.100">
   <property name="kdenlive:id">682</property>
  </entry>
  <entry producer="producer768" in="01:45:23.050" out="01:45:24.583">
   <property name="kdenlive:id">682</property>
   <filter id="filter820">
    <property name="rotate_center">1</property>
    <property name="mlt_service">qtblend</property>
    <property name="kdenlive_id">qtblend</property>
    <property name="rect">01:45:23.050=0 0 1920 1080 1.000000;01:45:24.583=-96 -54 2112 1188 1.000000</property>
    <property name="rotation">01:45:23.050=0;01:45:24.583=0</property>
    <property name="compositing">0</property>
    <property name="distort">0</property>
    <property name="kdenlive:collapsed">1</property>
   </filter>
   <filter id="filter821">
    <property name="version">0.3</property>
    <property name="mlt_service">frei0r.saturat0r</property>
    <property name="kdenlive_id">Black&amp;WHite</property>
    <property name="Saturation">01:45:23.050=0.124987;01:45:24.583=0.0392216</property>
    <property name="kdenlive:collapsed">0</property>
   </filter>
  </entry>
  <entry producer="producer768" in="01:45:57.750" out="01:46:00.583">
   <property name="kdenlive:id">682</property>
  </entry>
  <entry producer="producer768" in="01:46:17.433" out="01:46:21.083">
   <property name="kdenlive:id">682</property>
  </entry>
  <entry producer="producer768" in="01:46:28.900" out="01:46:31.850">
   <property name="kdenlive:id">682</property>
   <filter id="filter822">
    <property name="rotate_center">1</property>
    <property name="mlt_service">qtblend</property>
    <property name="kdenlive_id">qtblend</property>
    <property name="rect">01:46:28.900=-100 -32 2016 1134 1.000000;01:46:29.917=-98 -32 2016 1134 1.000000;01:46:30.417=-41 -43 2016 1134 1.000000;01:46:30.667=-19 -60 2016 1134 1.000000;01:46:31.300=-38 -38 2016 1134 1.000000;01:46:31.767=-39 -2 2016 1134 1.000000;01:46:31.850=-39 -2 2016 1134 1.000000</property>
    <property name="rotation">01:46:28.900=0;01:46:29.917=0;01:46:30.417=0;01:46:30.667=0;01:46:31.300=0;01:46:31.767=0;01:46:31.850=0</property>
    <property name="compositing">0</property>
    <property name="distort">0</property>
    <property name="kdenlive:collapsed">0</property>
   </filter>
   <filter id="filter823">
    <property name="rotate_center">1</property>
    <property name="mlt_service">qtblend</property>
    <property name="kdenlive_id">qtblend</property>
    <property name="rect">01:46:28.900=-9230 -4688 11424 6426 1.000000</property>
    <property name="rotation">01:46:28.900=0</property>
    <property name="compositing">0</property>
    <property name="distort">0</property>
    <property name="kdenlive:collapsed">1</property>
   </filter>
  </entry>
  <entry producer="producer768" in="02:00:58.717" out="02:01:00.117">
   <property name="kdenlive:id">682</property>
  </entry>
  <entry producer="producer768" in="02:01:01.667" out="02:01:02.850">
   <property name="kdenlive:id">682</property>
  </entry>
  <entry producer="producer768" in="02:01:02.867" out="02:01:05.000">
   <property name="kdenlive:id">682</property>
   <filter id="filter824">
    <property name="rotate_center">1</property>
    <property name="mlt_service">qtblend</property>
    <property name="kdenlive_id">qtblend</property>
    <property name="rect">02:01:02.867=0 0 1920 1080 1.000000;02:01:02.917=-5274 -2613 7350 4134 1.000000;02:01:03.533=-5618 -2783 7704 4333 1.000000;02:01:03.583=-8744 -4332 10924 6144 1.000000;02:01:04.700=-9230 -4573 11424 6426 1.000000</property>
    <property name="rotation">02:01:02.867=0;02:01:02.917=0;02:01:03.533=0;02:01:03.583=0;02:01:04.700=0</property>
    <property name="compositing">0</property>
    <property name="distort">0</property>
    <property name="kdenlive:collapsed">0</property>
   </filter>
   <filter id="filter825">
    <property name="rotate_center">1</property>
    <property name="mlt_service">qtblend</property>
    <property name="kdenlive_id">qtblend</property>
    <property name="rect">02:01:02.867=0 0 1920 1080 1</property>
    <property name="rotation">02:01:02.867=0</property>
    <property name="compositing">0</property>
    <property name="distort">0</property>
    <property name="kdenlive:collapsed">0</property>
   </filter>
  </entry>
  <entry producer="producer768" in="02:01:39.500" out="02:01:39.733">
   <property name="kdenlive:id">682</property>
  </entry>
  <entry producer="producer768" in="02:01:39.750" out="02:01:41.167">
   <property name="kdenlive:id">682</property>
  </entry>
  <entry producer="producer768" in="02:02:15.450" out="02:02:17.800">
   <property name="kdenlive:id">682</property>
  </entry>
  <entry producer="producer768" in="02:02:22.967" out="02:02:25.550">
   <property name="kdenlive:id">682</property>
  </entry>
  <entry producer="producer768" in="02:05:27.650" out="02:05:29.050">
   <property name="kdenlive:id">682</property>
   <filter id="filter826">
    <property name="rotate_center">1</property>
    <property name="mlt_service">qtblend</property>
    <property name="kdenlive_id">qtblend</property>
    <property name="rect">02:05:27.650=-9230 -4589 11424 6426 1.000000</property>
    <property name="rotation">02:05:27.650=0</property>
    <property name="compositing">0</property>
    <property name="distort">0</property>
    <property name="kdenlive:collapsed">1</property>
   </filter>
   <filter id="filter827">
    <property name="rotate_center">1</property>
    <property name="mlt_service">qtblend</property>
    <property name="kdenlive_id">qtblend</property>
    <property name="rect">02:05:27.650=0 0 1920 1080 1.000000;02:05:29.050=-48 -17 2016 1134 1.000000</property>
    <property name="rotation">02:05:27.650=0;02:05:29.050=0</property>
    <property name="compositing">0</property>
    <property name="distort">0</property>
    <property name="kdenlive:collapsed">0</property>
   </filter>
  </entry>
  <entry producer="producer720" in="02:07:23.050" out="02:07:24.400">
   <property name="kdenlive:id">682</property>
  </entry>
  <entry producer="producer769" in="02:07:23.050" out="02:07:23.733">
   <property name="kdenlive:id">682</property>
  </entry>
  <entry producer="producer769" in="02:07:31.983" out="02:07:32.950">
   <property name="kdenlive:id">682</property>
  </entry>
  <entry producer="producer769" in="02:08:43.633" out="02:08:45.267">
   <property name="kdenlive:id">682</property>
   <filter id="filter828">
    <property name="rotate_center">1</property>
    <property name="mlt_service">qtblend</property>
    <property name="kdenlive_id">qtblend</property>
    <property name="rect">02:08:43.633=0 0 1920 1080 1</property>
    <property name="rotation">02:08:43.633=0</property>
    <property name="compositing">0</property>
    <property name="distort">0</property>
    <property name="kdenlive:collapsed">0</property>
   </filter>
  </entry>
  <entry producer="producer637" in="00:00:00.000" out="00:00:01.700">
   <property name="kdenlive:id">699</property>
   <filter id="filter829">
    <property name="rotate_center">1</property>
    <property name="mlt_service">qtblend</property>
    <property name="kdenlive_id">qtblend</property>
    <property name="rect">00:00:00.000=0 0 1920 1080 1.000000;00:00:00.067=192 68 1536 864 1.000000</property>
    <property name="rotation">00:00:00.000=0;00:00:00.067=0</property>
    <property name="compositing">0</property>
    <property name="distort">0</property>
    <property name="kdenlive:collapsed">0</property>
   </filter>
  </entry>
  <entry producer="producer769" in="02:08:46.700" out="02:08:47.117">
   <property name="kdenlive:id">682</property>
  </entry>
  <entry producer="producer769" in="02:08:47.283" out="02:08:48.667">
   <property name="kdenlive:id">682</property>
  </entry>
  <entry producer="producer769" in="02:10:43.317" out="02:10:44.283">
   <property name="kdenlive:id">682</property>
  </entry>
  <entry producer="producer769" in="02:11:05.667" out="02:11:08.417">
   <property name="kdenlive:id">682</property>
  </entry>
  <entry producer="producer769" in="02:14:10.583" out="02:14:12.133">
   <property name="kdenlive:id">682</property>
   <filter id="filter830">
    <property name="rotate_center">1</property>
    <property name="mlt_service">qtblend</property>
    <property name="kdenlive_id">qtblend</property>
    <property name="rect">02:14:10.583=-432 -243 2784 1566 1.000000;02:14:11.650=-432 -243 2784 1566 1.000000;02:14:11.717=-1094 -463 3552 1998 1.000000</property>
    <property name="rotation">02:14:10.583=0;02:14:11.650=0;02:14:11.717=0</property>
    <property name="compositing">0</property>
    <property name="distort">0</property>
    <property name="kdenlive:collapsed">0</property>
   </filter>
  </entry>
  <entry producer="producer769" in="02:14:12.150" out="02:14:13.567">
   <property name="kdenlive:id">682</property>
  </entry>
  <entry producer="producer769" in="02:14:58.900" out="02:15:00.900">
   <property name="kdenlive:id">682</property>
  </entry>
  <entry producer="producer769" in="02:16:04.100" out="02:16:06.250">
   <property name="kdenlive:id">682</property>
  </entry>
  <entry producer="producer769" in="02:16:22.667" out="02:16:25.650">
   <property name="kdenlive:id">682</property>
  </entry>
  <entry producer="producer769" in="02:16:25.667" out="02:16:26.300">
   <property name="kdenlive:id">682</property>
   <filter id="filter831">
    <property name="rotate_center">1</property>
    <property name="mlt_service">qtblend</property>
    <property name="kdenlive_id">qtblend</property>
    <property name="rect">02:16:25.667=-9144 -4649 11424 6426 1.000000</property>
    <property name="rotation">02:16:25.667=0</property>
    <property name="compositing">0</property>
    <property name="distort">0</property>
    <property name="kdenlive:collapsed">0</property>
   </filter>
   <filter id="filter832">
    <property name="rotate_center">1</property>
    <property name="mlt_service">qtblend</property>
    <property name="kdenlive_id">qtblend</property>
    <property name="rect">02:16:25.667=0 0 1920 1080 1</property>
    <property name="rotation">02:16:25.667=0</property>
    <property name="compositing">0</property>
    <property name="distort">0</property>
    <property name="kdenlive:collapsed">0</property>
   </filter>
  </entry>
  <entry producer="producer769" in="02:17:21.283" out="02:17:25.050">
   <property name="kdenlive:id">682</property>
  </entry>
  <entry producer="producer769" in="02:18:25.733" out="02:18:26.350">
   <property name="kdenlive:id">682</property>
  </entry>
  <entry producer="producer769" in="02:18:41.133" out="02:18:44.400">
   <property name="kdenlive:id">682</property>
  </entry>
  <entry producer="producer770" in="00:18:28.117" out="00:18:31.300">
   <property name="kdenlive:id">683</property>
  </entry>
  <entry producer="producer770" in="00:18:35.983" out="00:18:36.917">
   <property name="kdenlive:id">683</property>
  </entry>
  <entry producer="producer770" in="00:19:21.633" out="00:19:22.467">
   <property name="kdenlive:id">683</property>
  </entry>
  <entry producer="producer770" in="00:19:29.117" out="00:19:29.900">
   <property name="kdenlive:id">683</property>
  </entry>
  <entry producer="producer770" in="00:19:33.450" out="00:19:34.100">
   <property name="kdenlive:id">683</property>
  </entry>
  <entry producer="producer770" in="00:19:36.100" out="00:19:36.883">
   <property name="kdenlive:id">683</property>
  </entry>
  <entry producer="producer770" in="00:44:39.767" out="00:44:44.600">
   <property name="kdenlive:id">683</property>
   <filter id="filter833">
    <property name="rotate_center">1</property>
    <property name="mlt_service">qtblend</property>
    <property name="kdenlive_id">qtblend</property>
    <property name="rect">00:44:39.767=0 0 1920 1080 1.000000;00:44:44.600=-48 -27 2016 1134 1.000000</property>
    <property name="rotation">00:44:39.767=0;00:44:44.600=0</property>
    <property name="compositing">0</property>
    <property name="distort">0</property>
    <property name="kdenlive:collapsed">0</property>
   </filter>
  </entry>
  <entry producer="producer770" in="00:44:53.883" out="00:44:56.367">
   <property name="kdenlive:id">683</property>
  </entry>
  <entry producer="producer770" in="00:44:56.383" out="00:44:57.233">
   <property name="kdenlive:id">683</property>
   <filter id="filter834">
    <property name="rotate_center">1</property>
    <property name="mlt_service">qtblend</property>
    <property name="kdenlive_id">qtblend</property>
    <property name="rect">00:44:56.383=-336 -189 2592 1458 1.000000;00:44:56.567=-695 -169 3360 1890 1.000000</property>
    <property name="rotation">00:44:56.383=0;00:44:56.567=0</property>
    <property name="compositing">0</property>
    <property name="distort">0</property>
    <property name="kdenlive:collapsed">0</property>
   </filter>
  </entry>
  <entry producer="producer770" in="00:45:09.750" out="00:45:10.950">
   <property name="kdenlive:id">683</property>
  </entry>
  <entry producer="producer770" in="00:57:49.033" out="00:57:52.650">
   <property name="kdenlive:id">683</property>
  </entry>
  <entry producer="producer770" in="00:57:58.867" out="00:58:01.083">
   <property name="kdenlive:id">683</property>
  </entry>
  <entry producer="producer770" in="01:03:57.400" out="01:03:57.550">
   <property name="kdenlive:id">683</property>
  </entry>
  <entry producer="producer770" in="01:03:57.567" out="01:04:01.417">
   <property name="kdenlive:id">683</property>
  </entry>
  <entry producer="producer770" in="01:08:54.033" out="01:08:56.600">
   <property name="kdenlive:id">683</property>
  </entry>
  <entry producer="producer770" in="01:09:06.583" out="01:09:08.817">
   <property name="kdenlive:id">683</property>
  </entry>
  <entry producer="producer770" in="01:10:27.750" out="01:10:28.567">
   <property name="kdenlive:id">683</property>
  </entry>
  <entry producer="producer770" in="01:16:26.217" out="01:16:27.867">
   <property name="kdenlive:id">683</property>
  </entry>
  <entry producer="producer770" in="01:17:02.133" out="01:17:02.783">
   <property name="kdenlive:id">683</property>
  </entry>
  <entry producer="producer770" in="01:17:03.533" out="01:17:04.167">
   <property name="kdenlive:id">683</property>
  </entry>
  <entry producer="producer770" in="01:17:23.350" out="01:17:25.133">
   <property name="kdenlive:id">683</property>
  </entry>
  <entry producer="producer770" in="01:17:33.800" out="01:17:36.917">
   <property name="kdenlive:id">683</property>
  </entry>
  <entry producer="producer770" in="01:17:37.500" out="01:17:38.967">
   <property name="kdenlive:id">683</property>
   <filter id="filter835">
    <property name="rotate_center">1</property>
    <property name="mlt_service">qtblend</property>
    <property name="kdenlive_id">qtblend</property>
    <property name="rect">01:17:37.500=-9068 -4517 11424 6426 1.000000</property>
    <property name="rotation">01:17:37.500=0</property>
    <property name="compositing">0</property>
    <property name="distort">0</property>
    <property name="kdenlive:collapsed">0</property>
   </filter>
   <filter id="filter836">
    <property name="rotate_center">1</property>
    <property name="mlt_service">qtblend</property>
    <property name="kdenlive_id">qtblend</property>
    <property name="rect">01:17:37.500=0 0 1920 1080 1.000000</property>
    <property name="rotation">01:17:37.500=0</property>
    <property name="compositing">0</property>
    <property name="distort">0</property>
    <property name="kdenlive:collapsed">0</property>
   </filter>
  </entry>
  <entry producer="producer770" in="01:19:36.450" out="01:19:42.117">
   <property name="kdenlive:id">683</property>
   <filter id="filter837">
    <property name="rotate_center">1</property>
    <property name="mlt_service">qtblend</property>
    <property name="kdenlive_id">qtblend</property>
    <property name="rect">01:19:36.450=0 0 1920 1080 1.000000;01:19:42.117=-48 -27 2016 1134 1.000000</property>
    <property name="rotation">01:19:36.450=0;01:19:42.117=0</property>
    <property name="compositing">0</property>
    <property name="distort">0</property>
    <property name="kdenlive:collapsed">0</property>
   </filter>
  </entry>
  <entry producer="producer770" in="01:19:43.600" out="01:19:46.150">
   <property name="kdenlive:id">683</property>
  </entry>
  <entry producer="producer770" in="01:22:59.667" out="01:23:01.017">
   <property name="kdenlive:id">683</property>
  </entry>
  <entry producer="producer770" in="01:23:08.467" out="01:23:09.383">
   <property name="kdenlive:id">683</property>
  </entry>
  <entry producer="producer771" in="00:02:10.317" out="00:02:11.233">
   <property name="kdenlive:id">683</property>
  </entry>
  <entry producer="producer770" in="01:23:45.133" out="01:23:45.700">
   <property name="kdenlive:id">683</property>
  </entry>
  <entry producer="producer770" in="01:23:47.333" out="01:23:50.833">
   <property name="kdenlive:id">683</property>
  </entry>
  <entry producer="producer770" in="01:25:19.000" out="01:25:20.883">
   <property name="kdenlive:id">683</property>
   <filter id="filter838">
    <property name="rotate_center">1</property>
    <property name="mlt_service">qtblend</property>
    <property name="kdenlive_id">qtblend</property>
    <property name="rect">01:25:19.000=-1151 -152 3552 1998 1.000000</property>
    <property name="rotation">01:25:19.000=0</property>
    <property name="compositing">0</property>
    <property name="distort">0</property>
    <property name="kdenlive:collapsed">0</property>
   </filter>
  </entry>
  <entry producer="producer772" in="02:26:18.683" out="02:26:19.067">
   <property name="kdenlive:id">683</property>
   <filter id="filter839">
    <property name="rotate_center">1</property>
    <property name="mlt_service">qtblend</property>
    <property name="kdenlive_id">qtblend</property>
    <property name="rect">02:26:18.683=-1859 -339 5472 3078 1.000000</property>
    <property name="rotation">02:26:18.683=0</property>
    <property name="compositing">0</property>
    <property name="distort">0</property>
    <property name="kdenlive:collapsed">0</property>
   </filter>
  </entry>
  <entry producer="producer770" in="01:25:32.033" out="01:25:32.383">
   <property name="kdenlive:id">683</property>
   <filter id="filter840">
    <property name="rotate_center">1</property>
    <property name="mlt_service">qtblend</property>
    <property name="kdenlive_id">qtblend</property>
    <property name="rect">01:25:32.033=-9068 -4517 11424 6426 1.000000</property>
    <property name="rotation">01:25:32.033=0</property>
    <property name="compositing">0</property>
    <property name="distort">0</property>
   </filter>
   <filter id="filter841">
    <property name="rotate_center">1</property>
    <property name="mlt_service">qtblend</property>
    <property name="kdenlive_id">qtblend</property>
    <property name="rect">01:25:32.033=0 0 1920 1080 1</property>
    <property name="rotation">01:25:32.033=0</property>
    <property name="compositing">0</property>
    <property name="distort">0</property>
   </filter>
  </entry>
  <entry producer="producer770" in="01:27:33.517" out="01:27:38.000">
   <property name="kdenlive:id">683</property>
   <filter id="filter842">
    <property name="rotate_center">1</property>
    <property name="mlt_service">qtblend</property>
    <property name="kdenlive_id">qtblend</property>
    <property name="rect">01:27:33.517=0 0 1920 1080 1.000000;01:27:38.000=-48 -27 2016 1134 1.000000</property>
    <property name="rotation">01:27:33.517=0;01:27:38.000=0</property>
    <property name="compositing">0</property>
    <property name="distort">0</property>
    <property name="kdenlive:collapsed">0</property>
   </filter>
  </entry>
  <entry producer="producer770" in="01:29:42.933" out="01:29:44.883">
   <property name="kdenlive:id">683</property>
  </entry>
  <entry producer="producer770" in="01:29:52.650" out="01:29:54.550">
   <property name="kdenlive:id">683</property>
  </entry>
  <entry producer="producer770" in="01:29:54.567" out="01:29:55.283">
   <property name="kdenlive:id">683</property>
  </entry>
  <entry producer="producer770" in="01:29:59.083" out="01:30:00.633">
   <property name="kdenlive:id">683</property>
  </entry>
  <entry producer="producer770" in="01:30:00.650" out="01:30:01.350">
   <property name="kdenlive:id">683</property>
   <filter id="filter843">
    <property name="rotate_center">1</property>
    <property name="mlt_service">qtblend</property>
    <property name="kdenlive_id">qtblend</property>
    <property name="rect">01:30:00.650=-49 0 8352 4698 1.000000</property>
    <property name="rotation">01:30:00.650=0</property>
    <property name="compositing">0</property>
    <property name="distort">0</property>
    <property name="kdenlive:collapsed">0</property>
   </filter>
  </entry>
  <entry producer="producer770" in="01:30:01.367" out="01:30:03.767">
   <property name="kdenlive:id">683</property>
  </entry>
  <entry producer="producer770" in="01:36:55.117" out="01:36:55.933">
   <property name="kdenlive:id">683</property>
  </entry>
  <entry producer="producer770" in="01:37:03.017" out="01:37:04.250">
   <property name="kdenlive:id">683</property>
  </entry>
  <entry producer="producer770" in="01:37:08.867" out="01:37:09.833">
   <property name="kdenlive:id">683</property>
  </entry>
  <entry producer="producer770" in="01:37:32.817" out="01:37:34.367">
   <property name="kdenlive:id">683</property>
  </entry>
  <entry producer="producer770" in="01:37:47.983" out="01:37:52.267">
   <property name="kdenlive:id">683</property>
   <filter id="filter844">
    <property name="rotate_center">1</property>
    <property name="mlt_service">qtblend</property>
    <property name="kdenlive_id">qtblend</property>
    <property name="rect">01:37:47.983=0 0 1920 1080 1.000000;01:37:52.267=-48 -27 2016 1134 1.000000</property>
    <property name="rotation">01:37:47.983=0;01:37:52.267=0</property>
    <property name="compositing">0</property>
    <property name="distort">0</property>
    <property name="kdenlive:collapsed">0</property>
   </filter>
  </entry>
  <entry producer="producer770" in="01:37:53.883" out="01:37:54.833">
   <property name="kdenlive:id">683</property>
   <filter id="filter845">
    <property name="rotate_center">1</property>
    <property name="mlt_service">qtblend</property>
    <property name="kdenlive_id">qtblend</property>
    <property name="rect">01:37:53.883=-9068 -4517 11424 6426 1.000000</property>
    <property name="rotation">01:37:53.883=0</property>
    <property name="compositing">0</property>
    <property name="distort">0</property>
   </filter>
   <filter id="filter846">
    <property name="rotate_center">1</property>
    <property name="mlt_service">qtblend</property>
    <property name="kdenlive_id">qtblend</property>
    <property name="rect">01:37:53.883=0 0 1920 1080 1</property>
    <property name="rotation">01:37:53.883=0</property>
    <property name="compositing">0</property>
    <property name="distort">0</property>
   </filter>
  </entry>
  <entry producer="producer770" in="01:38:28.733" out="01:38:29.117">
   <property name="kdenlive:id">683</property>
  </entry>
  <entry producer="producer770" in="01:38:31.283" out="01:38:32.117">
   <property name="kdenlive:id">683</property>
  </entry>
  <entry producer="producer770" in="01:43:59.900" out="01:44:00.900">
   <property name="kdenlive:id">683</property>
  </entry>
  <entry producer="producer770" in="01:44:00.917" out="01:44:01.800">
   <property name="kdenlive:id">683</property>
   <filter id="filter847">
    <property name="rotate_center">1</property>
    <property name="mlt_service">qtblend</property>
    <property name="kdenlive_id">qtblend</property>
    <property name="rect">01:44:00.917=-1641 -2133 6048 3402 1.000000</property>
    <property name="rotation">01:44:00.917=0</property>
    <property name="compositing">0</property>
    <property name="distort">0</property>
    <property name="kdenlive:collapsed">0</property>
   </filter>
  </entry>
  <blank length="00:00:00.900"/>
  <entry producer="producer770" in="01:44:12.300" out="01:44:14.533">
   <property name="kdenlive:id">683</property>
   <filter id="filter848">
    <property name="rotate_center">1</property>
    <property name="mlt_service">qtblend</property>
    <property name="kdenlive_id">qtblend</property>
    <property name="rect">01:44:12.300=-1375 -314 4512 2538 1.000000</property>
    <property name="rotation">01:44:12.300=0</property>
    <property name="compositing">0</property>
    <property name="distort">0</property>
    <property name="kdenlive:collapsed">0</property>
   </filter>
  </entry>
  <entry producer="producer770" in="01:44:18.183" out="01:44:19.583">
   <property name="kdenlive:id">683</property>
  </entry>
  <entry producer="producer770" in="01:44:58.067" out="01:44:59.217">
   <property name="kdenlive:id">683</property>
  </entry>
  <entry producer="producer770" in="01:45:26.500" out="01:45:30.033">
   <property name="kdenlive:id">683</property>
  </entry>
  <entry producer="producer770" in="01:45:31.367" out="01:45:32.783">
   <property name="kdenlive:id">683</property>
  </entry>
  <entry producer="producer770" in="01:45:42.367" out="01:45:45.000">
   <property name="kdenlive:id">683</property>
  </entry>
  <entry producer="producer770" in="01:45:50.083" out="01:45:52.550">
   <property name="kdenlive:id">683</property>
   <filter id="filter849">
    <property name="rotate_center">1</property>
    <property name="mlt_service">qtblend</property>
    <property name="kdenlive_id">qtblend</property>
    <property name="rect">01:45:50.083=-769 -332 2784 1566 1.000000</property>
    <property name="rotation">01:45:50.083=0</property>
    <property name="compositing">0</property>
    <property name="distort">0</property>
    <property name="kdenlive:collapsed">1</property>
   </filter>
   <filter id="filter850">
    <property name="rotate_center">1</property>
    <property name="mlt_service">qtblend</property>
    <property name="kdenlive_id">qtblend</property>
    <property name="rect">01:45:50.083=-5280 -2811 7200 4050 1.000000</property>
    <property name="rotation">01:45:50.083=0</property>
    <property name="compositing">0</property>
    <property name="distort">0</property>
    <property name="kdenlive:collapsed">1</property>
   </filter>
   <filter id="filter851">
    <property name="rotate_center">1</property>
    <property name="mlt_service">qtblend</property>
    <property name="kdenlive_id">qtblend</property>
    <property name="rect">01:45:50.083=0 0 1920 1080 1.000000;01:45:52.550=-48 -27 2016 1134 1.000000</property>
    <property name="rotation">01:45:50.083=0;01:45:52.550=0</property>
    <property name="compositing">0</property>
    <property name="distort">0</property>
    <property name="kdenlive:collapsed">0</property>
   </filter>
  </entry>
  <entry producer="producer770" in="01:59:39.350" out="01:59:43.267">
   <property name="kdenlive:id">683</property>
  </entry>
  <entry producer="producer770" in="01:59:45.417" out="01:59:46.583">
   <property name="kdenlive:id">683</property>
  </entry>
  <entry producer="producer770" in="01:59:47.083" out="01:59:47.717">
   <property name="kdenlive:id">683</property>
  </entry>
  <entry producer="producer770" in="02:01:06.417" out="02:01:06.867">
   <property name="kdenlive:id">683</property>
  </entry>
  <entry producer="producer770" in="02:01:06.883" out="02:01:10.767">
   <property name="kdenlive:id">683</property>
   <filter id="filter852">
    <property name="rotate_center">1</property>
    <property name="mlt_service">qtblend</property>
    <property name="kdenlive_id">qtblend</property>
    <property name="rect">02:01:06.883=0 0 1920 1080 1.000000;02:01:10.767=-48 -27 2016 1134 1.000000</property>
    <property name="rotation">02:01:06.883=0;02:01:10.767=0</property>
    <property name="compositing">0</property>
    <property name="distort">0</property>
    <property name="kdenlive:collapsed">0</property>
   </filter>
  </entry>
  <entry producer="producer770" in="02:01:18.867" out="02:01:20.567">
   <property name="kdenlive:id">683</property>
  </entry>
  <entry producer="producer770" in="02:01:22.600" out="02:01:24.100">
   <property name="kdenlive:id">683</property>
  </entry>
  <entry producer="producer770" in="02:04:10.683" out="02:04:12.083">
   <property name="kdenlive:id">683</property>
  </entry>
  <entry producer="producer770" in="02:05:25.533" out="02:05:26.267">
   <property name="kdenlive:id">683</property>
   <filter id="filter853">
    <property name="rotate_center">1</property>
    <property name="mlt_service">qtblend</property>
    <property name="kdenlive_id">qtblend</property>
    <property name="rect">02:05:25.533=-1457 -221 4416 2484 1.000000</property>
    <property name="rotation">02:05:25.533=0</property>
    <property name="compositing">0</property>
    <property name="distort">0</property>
    <property name="kdenlive:collapsed">0</property>
   </filter>
  </entry>
  <entry producer="producer770" in="02:05:26.283" out="02:05:28.467">
   <property name="kdenlive:id">683</property>
   <filter id="filter854">
    <property name="rotate_center">1</property>
    <property name="mlt_service">qtblend</property>
    <property name="kdenlive_id">qtblend</property>
    <property name="rect">02:05:26.283=-1572 -221 4416 2484 1.000000</property>
    <property name="rotation">02:05:26.283=0</property>
    <property name="compositing">0</property>
    <property name="distort">0</property>
   </filter>
  </entry>
  <entry producer="producer770" in="02:07:42.567" out="02:07:45.233">
   <property name="kdenlive:id">683</property>
  </entry>
  <entry producer="producer770" in="02:10:29.850" out="02:10:34.400">
   <property name="kdenlive:id">683</property>
  </entry>
  <entry producer="producer770" in="02:10:34.850" out="02:10:35.717">
   <property name="kdenlive:id">683</property>
  </entry>
  <entry producer="producer770" in="02:16:21.650" out="02:16:22.567">
   <property name="kdenlive:id">683</property>
  </entry>
  <entry producer="producer770" in="02:16:22.583" out="02:16:23.133">
   <property name="kdenlive:id">683</property>
   <filter id="filter855">
    <property name="rotate_center">1</property>
    <property name="mlt_service">qtblend</property>
    <property name="kdenlive_id">qtblend</property>
    <property name="rect">02:16:22.583=-744 0 3920 1080 1.000000</property>
    <property name="rotation">02:16:22.583=0</property>
    <property name="compositing">0</property>
    <property name="distort">1</property>
    <property name="kdenlive:collapsed">0</property>
   </filter>
  </entry>
  <entry producer="producer770" in="02:16:42.267" out="02:16:45.233">
   <property name="kdenlive:id">683</property>
  </entry>
  <entry producer="producer773" in="00:37:49.417" out="00:37:50.967">
   <property name="kdenlive:id">684</property>
  </entry>
  <entry producer="producer773" in="00:37:55.883" out="00:37:57.600">
   <property name="kdenlive:id">684</property>
  </entry>
  <entry producer="producer773" in="00:42:15.317" out="00:42:18.467">
   <property name="kdenlive:id">684</property>
  </entry>
  <entry producer="producer773" in="00:42:19.983" out="00:42:21.867">
   <property name="kdenlive:id">684</property>
  </entry>
  <entry producer="producer773" in="00:42:33.600" out="00:42:34.783">
   <property name="kdenlive:id">684</property>
  </entry>
  <entry producer="producer773" in="00:42:35.267" out="00:42:37.000">
   <property name="kdenlive:id">684</property>
  </entry>
  <entry producer="producer773" in="00:42:37.550" out="00:42:38.217">
   <property name="kdenlive:id">684</property>
   <filter id="filter856">
    <property name="rotate_center">1</property>
    <property name="mlt_service">qtblend</property>
    <property name="kdenlive_id">qtblend</property>
    <property name="rect">00:42:37.550=0 -2281 6048 3402 1.000000</property>
    <property name="rotation">00:42:37.550=0</property>
    <property name="compositing">0</property>
    <property name="distort">0</property>
   </filter>
   <filter id="filter857">
    <property name="rotate_center">1</property>
    <property name="mlt_service">qtblend</property>
    <property name="kdenlive_id">qtblend</property>
    <property name="rect">00:42:37.550=0 0 1920 1080 1</property>
    <property name="rotation">00:42:37.550=0</property>
    <property name="compositing">0</property>
    <property name="distort">0</property>
   </filter>
  </entry>
  <entry producer="producer773" in="00:44:34.867" out="00:44:40.783">
   <property name="kdenlive:id">684</property>
  </entry>
  <entry producer="producer773" in="00:44:44.817" out="00:44:45.517">
   <property name="kdenlive:id">684</property>
  </entry>
  <entry producer="producer773" in="00:45:17.050" out="00:45:17.617">
   <property name="kdenlive:id">684</property>
  </entry>
  <entry producer="producer773" in="00:45:18.217" out="00:45:19.817">
   <property name="kdenlive:id">684</property>
  </entry>
  <entry producer="producer773" in="00:46:12.167" out="00:46:13.767">
   <property name="kdenlive:id">684</property>
  </entry>
  <entry producer="producer773" in="00:47:02.600" out="00:47:03.683">
   <property name="kdenlive:id">684</property>
   <filter id="filter858">
    <property name="rotate_center">1</property>
    <property name="mlt_service">qtblend</property>
    <property name="kdenlive_id">qtblend</property>
    <property name="rect">00:47:02.600=0 -2281 6048 3402 1.000000</property>
    <property name="rotation">00:47:02.600=0</property>
    <property name="compositing">0</property>
    <property name="distort">0</property>
    <property name="kdenlive:collapsed">0</property>
   </filter>
   <filter id="filter859">
    <property name="rotate_center">1</property>
    <property name="mlt_service">qtblend</property>
    <property name="kdenlive_id">qtblend</property>
    <property name="rect">00:47:02.600=0 0 1920 1080 1</property>
    <property name="rotation">00:47:02.600=0</property>
    <property name="compositing">0</property>
    <property name="distort">0</property>
    <property name="kdenlive:collapsed">0</property>
   </filter>
  </entry>
  <entry producer="producer773" in="00:47:25.000" out="00:47:27.667">
   <property name="kdenlive:id">684</property>
  </entry>
  <entry producer="producer773" in="00:51:14.017" out="00:51:15.067">
   <property name="kdenlive:id">684</property>
  </entry>
  <entry producer="producer773" in="00:51:27.283" out="00:51:28.300">
   <property name="kdenlive:id">684</property>
  </entry>
  <entry producer="producer773" in="00:51:38.283" out="00:51:40.100">
   <property name="kdenlive:id">684</property>
  </entry>
  <entry producer="producer773" in="00:51:57.650" out="00:51:58.300">
   <property name="kdenlive:id">684</property>
  </entry>
  <entry producer="producer773" in="00:51:59.050" out="00:52:00.250">
   <property name="kdenlive:id">684</property>
  </entry>
  <entry producer="producer773" in="00:52:21.433" out="00:52:24.000">
   <property name="kdenlive:id">684</property>
  </entry>
  <entry producer="producer773" in="00:52:24.017" out="00:52:25.333">
   <property name="kdenlive:id">684</property>
   <filter id="filter860">
    <property name="rotate_center">1</property>
    <property name="mlt_service">qtblend</property>
    <property name="kdenlive_id">qtblend</property>
    <property name="rect">00:52:24.017=0 -2281 6048 3402 1.000000</property>
    <property name="rotation">00:52:24.017=0</property>
    <property name="compositing">0</property>
    <property name="distort">0</property>
   </filter>
   <filter id="filter861">
    <property name="rotate_center">1</property>
    <property name="mlt_service">qtblend</property>
    <property name="kdenlive_id">qtblend</property>
    <property name="rect">00:52:24.017=0 0 1920 1080 1</property>
    <property name="rotation">00:52:24.017=0</property>
    <property name="compositing">0</property>
    <property name="distort">0</property>
   </filter>
  </entry>
  <entry producer="producer773" in="00:52:28.117" out="00:52:30.050">
   <property name="kdenlive:id">684</property>
  </entry>
  <entry producer="producer773" in="00:52:30.067" out="00:52:31.033">
   <property name="kdenlive:id">684</property>
   <filter id="filter862">
    <property name="rotate_center">1</property>
    <property name="mlt_service">qtblend</property>
    <property name="kdenlive_id">qtblend</property>
    <property name="rect">00:52:30.067=-1859 -510 4608 2592 1.000000</property>
    <property name="rotation">00:52:30.067=0</property>
    <property name="compositing">0</property>
    <property name="distort">0</property>
    <property name="kdenlive:collapsed">0</property>
   </filter>
  </entry>
  <entry producer="producer773" in="00:52:53.100" out="00:52:57.400">
   <property name="kdenlive:id">684</property>
   <filter id="filter863">
    <property name="rotate_center">1</property>
    <property name="mlt_service">qtblend</property>
    <property name="kdenlive_id">qtblend</property>
    <property name="rect">00:52:53.100=0 0 1920 1080 1.000000;00:52:57.400=0 -810 3360 1890 1.000000</property>
    <property name="rotation">00:52:53.100=0;00:52:57.400=0</property>
    <property name="compositing">0</property>
    <property name="distort">0</property>
    <property name="kdenlive:collapsed">0</property>
   </filter>
  </entry>
  <entry producer="producer773" in="00:52:58.800" out="00:53:01.083">
   <property name="kdenlive:id">684</property>
  </entry>
  <entry producer="producer773" in="00:53:01.583" out="00:53:02.617">
   <property name="kdenlive:id">684</property>
  </entry>
  <entry producer="producer773" in="00:58:52.567" out="00:58:53.617">
   <property name="kdenlive:id">684</property>
  </entry>
  <entry producer="producer774" in="01:28:08.850" out="01:28:11.150">
   <property name="kdenlive:id">684</property>
   <filter id="filter864">
    <property name="rotate_center">1</property>
    <property name="mlt_service">qtblend</property>
    <property name="kdenlive_id">qtblend</property>
    <property name="rect">01:28:08.850=-857 -1605 5280 2970 1.000000</property>
    <property name="rotation">01:28:08.850=0</property>
    <property name="compositing">0</property>
    <property name="distort">0</property>
    <property name="kdenlive:collapsed">0</property>
   </filter>
  </entry>
  <entry producer="producer773" in="00:59:34.133" out="00:59:34.833">
   <property name="kdenlive:id">684</property>
  </entry>
  <entry producer="producer773" in="00:59:34.850" out="00:59:35.650">
   <property name="kdenlive:id">684</property>
   <filter id="filter865">
    <property name="rotate_center">1</property>
    <property name="mlt_service">qtblend</property>
    <property name="kdenlive_id">qtblend</property>
    <property name="rect">00:59:34.850=-1792 -361 5280 2970 1.000000</property>
    <property name="rotation">00:59:34.850=0</property>
    <property name="compositing">0</property>
    <property name="distort">0</property>
    <property name="kdenlive:collapsed">0</property>
   </filter>
  </entry>
  <entry producer="producer773" in="00:59:42.700" out="00:59:44.150">
   <property name="kdenlive:id">684</property>
  </entry>
  <entry producer="producer773" in="00:59:44.867" out="00:59:46.683">
   <property name="kdenlive:id">684</property>
  </entry>
  <entry producer="producer773" in="01:00:32.100" out="01:00:34.850">
   <property name="kdenlive:id">684</property>
  </entry>
  <entry producer="producer773" in="01:00:39.750" out="01:00:44.033">
   <property name="kdenlive:id">684</property>
   <filter id="filter866">
    <property name="rotate_center">1</property>
    <property name="mlt_service">qtblend</property>
    <property name="kdenlive_id">qtblend</property>
    <property name="rect">01:00:39.750=0 0 1920 1080 1.000000;01:00:44.033=-48 -27 2016 1134 1.000000</property>
    <property name="rotation">01:00:39.750=0;01:00:44.033=0</property>
    <property name="compositing">0</property>
    <property name="distort">0</property>
    <property name="kdenlive:collapsed">0</property>
   </filter>
  </entry>
  <entry producer="producer773" in="01:00:52.067" out="01:00:53.600">
   <property name="kdenlive:id">684</property>
  </entry>
  <entry producer="producer773" in="01:05:57.233" out="01:06:00.600">
   <property name="kdenlive:id">684</property>
  </entry>
  <entry producer="producer773" in="01:06:01.033" out="01:06:04.517">
   <property name="kdenlive:id">684</property>
  </entry>
  <entry producer="producer773" in="01:06:27.783" out="01:06:30.750">
   <property name="kdenlive:id">684</property>
  </entry>
  <entry producer="producer773" in="01:07:15.633" out="01:07:18.117">
   <property name="kdenlive:id">684</property>
  </entry>
  <entry producer="producer773" in="01:07:20.833" out="01:07:21.750">
   <property name="kdenlive:id">684</property>
  </entry>
  <entry producer="producer773" in="01:07:34.800" out="01:07:35.883">
   <property name="kdenlive:id">684</property>
  </entry>
  <entry producer="producer773" in="01:07:35.900" out="01:07:36.267">
   <property name="kdenlive:id">684</property>
   <filter id="filter867">
    <property name="rotate_center">1</property>
    <property name="mlt_service">qtblend</property>
    <property name="kdenlive_id">qtblend</property>
    <property name="rect">01:07:35.900=0 -2281 6048 3402 1.000000</property>
    <property name="rotation">01:07:35.900=0</property>
    <property name="compositing">0</property>
    <property name="distort">0</property>
   </filter>
   <filter id="filter868">
    <property name="rotate_center">1</property>
    <property name="mlt_service">qtblend</property>
    <property name="kdenlive_id">qtblend</property>
    <property name="rect">01:07:35.900=0 0 1920 1080 1</property>
    <property name="rotation">01:07:35.900=0</property>
    <property name="compositing">0</property>
    <property name="distort">0</property>
   </filter>
  </entry>
  <entry producer="producer773" in="01:07:36.283" out="01:07:37.850">
   <property name="kdenlive:id">684</property>
  </entry>
  <entry producer="producer773" in="01:07:37.867" out="01:07:38.550">
   <property name="kdenlive:id">684</property>
   <filter id="filter869">
    <property name="rotate_center">1</property>
    <property name="mlt_service">qtblend</property>
    <property name="kdenlive_id">qtblend</property>
    <property name="rect">01:07:37.867=0 -2281 6048 3402 1.000000</property>
    <property name="rotation">01:07:37.867=0</property>
    <property name="compositing">0</property>
    <property name="distort">0</property>
   </filter>
   <filter id="filter870">
    <property name="rotate_center">1</property>
    <property name="mlt_service">qtblend</property>
    <property name="kdenlive_id">qtblend</property>
    <property name="rect">01:07:37.867=0 0 1920 1080 1</property>
    <property name="rotation">01:07:37.867=0</property>
    <property name="compositing">0</property>
    <property name="distort">0</property>
   </filter>
  </entry>
  <entry producer="producer773" in="01:07:40.117" out="01:07:40.950">
   <property name="kdenlive:id">684</property>
  </entry>
  <entry producer="producer773" in="01:07:40.967" out="01:07:42.600">
   <property name="kdenlive:id">684</property>
   <filter id="filter871">
    <property name="rotate_center">1</property>
    <property name="mlt_service">qtblend</property>
    <property name="kdenlive_id">qtblend</property>
    <property name="rect">01:07:40.967=0 -2281 6048 3402 1.000000</property>
    <property name="rotation">01:07:40.967=0</property>
    <property name="compositing">0</property>
    <property name="distort">0</property>
   </filter>
   <filter id="filter872">
    <property name="rotate_center">1</property>
    <property name="mlt_service">qtblend</property>
    <property name="kdenlive_id">qtblend</property>
    <property name="rect">01:07:40.967=0 0 1920 1080 1</property>
    <property name="rotation">01:07:40.967=0</property>
    <property name="compositing">0</property>
    <property name="distort">0</property>
   </filter>
  </entry>
  <entry producer="producer773" in="01:07:45.833" out="01:07:47.450">
   <property name="kdenlive:id">684</property>
   <filter id="filter873">
    <property name="version">0.3</property>
    <property name="mlt_service">frei0r.saturat0r</property>
    <property name="kdenlive_id">Black&amp;WHite</property>
    <property name="Saturation">00:00:15.367=0.001</property>
    <property name="kdenlive:collapsed">1</property>
   </filter>
   <filter id="filter874">
    <property name="rotate_center">1</property>
    <property name="mlt_service">qtblend</property>
    <property name="kdenlive_id">qtblend</property>
    <property name="rect">01:07:45.833=0 0 1920 1080 1.000000;01:07:45.900=96 54 1728 972 1.000000;01:07:47.450=144 81 1632 918 1.000000</property>
    <property name="rotation">01:07:45.833=0;01:07:45.900=0;01:07:47.450=0</property>
    <property name="compositing">0</property>
    <property name="distort">0</property>
    <property name="kdenlive:collapsed">0</property>
   </filter>
  </entry>
  <entry producer="producer773" in="01:08:28.217" out="01:08:28.517">
   <property name="kdenlive:id">684</property>
  </entry>
  <entry producer="producer773" in="01:08:34.233" out="01:08:35.633">
   <property name="kdenlive:id">684</property>
  </entry>
  <entry producer="producer773" in="01:11:07.167" out="01:11:08.467">
   <property name="kdenlive:id">684</property>
  </entry>
  <entry producer="producer773" in="01:11:16.067" out="01:11:17.167">
   <property name="kdenlive:id">684</property>
  </entry>
  <entry producer="producer773" in="01:13:14.883" out="01:13:16.133">
   <property name="kdenlive:id">684</property>
  </entry>
  <entry producer="producer773" in="01:13:16.150" out="01:13:16.767">
   <property name="kdenlive:id">684</property>
   <filter id="filter875">
    <property name="rotate_center">1</property>
    <property name="mlt_service">qtblend</property>
    <property name="kdenlive_id">qtblend</property>
    <property name="rect">01:13:16.150=0 -2281 6048 3402 1.000000</property>
    <property name="rotation">01:13:16.150=0</property>
    <property name="compositing">0</property>
    <property name="distort">0</property>
    <property name="kdenlive:collapsed">0</property>
   </filter>
   <filter id="filter876">
    <property name="rotate_center">1</property>
    <property name="mlt_service">qtblend</property>
    <property name="kdenlive_id">qtblend</property>
    <property name="rect">01:13:16.150=0 0 1920 1080 1</property>
    <property name="rotation">01:13:16.150=0</property>
    <property name="compositing">0</property>
    <property name="distort">0</property>
    <property name="kdenlive:collapsed">0</property>
   </filter>
  </entry>
  <entry producer="producer773" in="01:17:14.633" out="01:17:15.717">
   <property name="kdenlive:id">684</property>
  </entry>
  <entry producer="producer773" in="01:17:15.733" out="01:17:16.333">
   <property name="kdenlive:id">684</property>
   <filter id="filter877">
    <property name="rotate_center">1</property>
    <property name="mlt_service">qtblend</property>
    <property name="kdenlive_id">qtblend</property>
    <property name="rect">01:17:15.733=0 -2281 6048 3402 1.000000</property>
    <property name="rotation">01:17:15.733=0</property>
    <property name="compositing">0</property>
    <property name="distort">0</property>
    <property name="kdenlive:collapsed">0</property>
   </filter>
   <filter id="filter878">
    <property name="rotate_center">1</property>
    <property name="mlt_service">qtblend</property>
    <property name="kdenlive_id">qtblend</property>
    <property name="rect">01:17:15.733=0 0 1920 1080 1</property>
    <property name="rotation">01:17:15.733=0</property>
    <property name="compositing">0</property>
    <property name="distort">0</property>
    <property name="kdenlive:collapsed">0</property>
   </filter>
  </entry>
  <entry producer="producer773" in="01:26:29.300" out="01:26:31.517">
   <property name="kdenlive:id">684</property>
  </entry>
  <entry producer="producer773" in="01:29:38.867" out="01:29:40.383">
   <property name="kdenlive:id">684</property>
  </entry>
  <entry producer="producer773" in="01:30:00.783" out="01:30:02.783">
   <property name="kdenlive:id">684</property>
  </entry>
  <entry producer="producer773" in="01:30:04.050" out="01:30:05.500">
   <property name="kdenlive:id">684</property>
  </entry>
  <entry producer="producer773" in="01:30:36.700" out="01:30:40.017">
   <property name="kdenlive:id">684</property>
  </entry>
  <entry producer="producer773" in="01:30:40.033" out="01:30:41.550">
   <property name="kdenlive:id">684</property>
   <filter id="filter879">
    <property name="rotate_center">1</property>
    <property name="mlt_service">qtblend</property>
    <property name="kdenlive_id">qtblend</property>
    <property name="rect">01:30:40.033=0 -2281 6048 3402 1.000000</property>
    <property name="rotation">01:30:40.033=0</property>
    <property name="compositing">0</property>
    <property name="distort">0</property>
    <property name="kdenlive:collapsed">1</property>
   </filter>
   <filter id="filter880">
    <property name="rotate_center">1</property>
    <property name="mlt_service">qtblend</property>
    <property name="kdenlive_id">qtblend</property>
    <property name="rect">01:30:40.033=0 0 1920 1080 1.000000;01:30:40.100=0 -201 2688 1512 1.000000</property>
    <property name="rotation">01:30:40.033=0;01:30:40.100=0</property>
    <property name="compositing">0</property>
    <property name="distort">0</property>
    <property name="kdenlive:collapsed">0</property>
   </filter>
  </entry>
  <entry producer="producer773" in="02:02:30.083" out="02:02:33.300">
   <property name="kdenlive:id">684</property>
  </entry>
  <entry producer="producer773" in="02:02:45.317" out="02:02:47.550">
   <property name="kdenlive:id">684</property>
  </entry>
  <blank length="00:00:10.467"/>
  <entry producer="producer773" in="02:18:55.333" out="02:18:57.550">
   <property name="kdenlive:id">684</property>
  </entry>
  <entry producer="producer773" in="02:19:33.167" out="02:19:36.200">
   <property name="kdenlive:id">684</property>
   <filter id="filter881">
    <property name="rotate_center">1</property>
    <property name="mlt_service">qtblend</property>
    <property name="kdenlive_id">qtblend</property>
    <property name="rect">02:19:33.167=0 0 1920 1080 1.000000;02:19:36.200=-48 -27 2016 1134 1.000000</property>
    <property name="rotation">02:19:33.167=0;02:19:36.200=0</property>
    <property name="compositing">0</property>
    <property name="distort">0</property>
    <property name="kdenlive:collapsed">0</property>
   </filter>
  </entry>
  <entry producer="producer773" in="02:19:36.217" out="02:19:37.600">
   <property name="kdenlive:id">684</property>
  </entry>
  <entry producer="producer773" in="02:21:20.633" out="02:21:22.500">
   <property name="kdenlive:id">684</property>
  </entry>
  <entry producer="producer773" in="02:21:32.433" out="02:21:34.850">
   <property name="kdenlive:id">684</property>
   <filter id="filter882">
    <property name="rotate_center">1</property>
    <property name="mlt_service">qtblend</property>
    <property name="kdenlive_id">qtblend</property>
    <property name="rect">02:21:32.433=0 0 1920 1080 1.000000;02:21:32.967=0 0 1920 1080 1.000000;02:21:33.033=-880 -880 4032 2268 1.000000;02:21:33.567=-1101 -619 4032 2268 1.000000;02:21:33.817=-2287 -520 4992 2808 1.000000;02:21:34.383=-2466 -562 5184 2916 1.000000</property>
    <property name="rotation">02:21:32.433=0;02:21:32.967=0;02:21:33.033=0;02:21:33.567=0;02:21:33.817=0;02:21:34.383=0</property>
    <property name="compositing">0</property>
    <property name="distort">0</property>
    <property name="kdenlive:collapsed">0</property>
   </filter>
  </entry>
  <entry producer="producer773" in="02:21:35.267" out="02:21:36.100">
   <property name="kdenlive:id">684</property>
   <filter id="filter883">
    <property name="rotate_center">1</property>
    <property name="mlt_service">qtblend</property>
    <property name="kdenlive_id">qtblend</property>
    <property name="rect">02:21:35.267=0 -2281 6048 3402 1.000000</property>
    <property name="rotation">02:21:35.267=0</property>
    <property name="compositing">0</property>
    <property name="distort">0</property>
    <property name="kdenlive:collapsed">0</property>
   </filter>
   <filter id="filter884">
    <property name="rotate_center">1</property>
    <property name="mlt_service">qtblend</property>
    <property name="kdenlive_id">qtblend</property>
    <property name="rect">02:21:35.267=0 0 1920 1080 1.000000</property>
    <property name="rotation">02:21:35.267=0</property>
    <property name="compositing">0</property>
    <property name="distort">0</property>
    <property name="kdenlive:collapsed">0</property>
   </filter>
  </entry>
  <entry producer="producer773" in="02:22:00.567" out="02:22:01.583">
   <property name="kdenlive:id">684</property>
  </entry>
  <entry producer="producer773" in="02:22:10.833" out="02:22:12.950">
   <property name="kdenlive:id">684</property>
  </entry>
  <entry producer="producer773" in="02:22:14.950" out="02:22:18.233">
   <property name="kdenlive:id">684</property>
  </entry>
  <entry producer="producer773" in="02:22:18.250" out="02:22:19.533">
   <property name="kdenlive:id">684</property>
   <filter id="filter885">
    <property name="rotate_center">1</property>
    <property name="mlt_service">qtblend</property>
    <property name="kdenlive_id">qtblend</property>
    <property name="rect">02:22:18.250=0 0 1920 1080 1.000000;02:22:18.300=0 -1122 3951 2222 1.000000;02:22:19.250=0 -1257 4195 2359 1.000000;02:22:19.300=0 -2281 6048 3402 1.000000</property>
    <property name="rotation">02:22:18.250=0;02:22:18.300=0;02:22:19.250=0;02:22:19.300=0</property>
    <property name="compositing">0</property>
    <property name="distort">0</property>
    <property name="kdenlive:collapsed">0</property>
   </filter>
   <filter id="filter886">
    <property name="rotate_center">1</property>
    <property name="mlt_service">qtblend</property>
    <property name="kdenlive_id">qtblend</property>
    <property name="rect">02:22:18.250=0 0 1920 1080 1</property>
    <property name="rotation">02:22:18.250=0</property>
    <property name="compositing">0</property>
    <property name="distort">0</property>
    <property name="kdenlive:collapsed">0</property>
   </filter>
  </entry>
  <entry producer="producer773" in="02:23:49.550" out="02:23:51.200">
   <property name="kdenlive:id">684</property>
  </entry>
  <entry producer="producer773" in="02:24:00.450" out="02:24:02.267">
   <property name="kdenlive:id">684</property>
   <filter id="filter887">
    <property name="rotate_center">1</property>
    <property name="mlt_service">qtblend</property>
    <property name="kdenlive_id">qtblend</property>
    <property name="rect">02:24:00.450=0 -2281 6048 3402 1.000000</property>
    <property name="rotation">02:24:00.450=0</property>
    <property name="compositing">0</property>
    <property name="distort">0</property>
    <property name="kdenlive:collapsed">0</property>
   </filter>
   <filter id="filter888">
    <property name="rotate_center">1</property>
    <property name="mlt_service">qtblend</property>
    <property name="kdenlive_id">qtblend</property>
    <property name="rect">02:24:00.450=0 0 1920 1080 1.000000</property>
    <property name="rotation">02:24:00.450=0</property>
    <property name="compositing">0</property>
    <property name="distort">0</property>
    <property name="kdenlive:collapsed">0</property>
   </filter>
  </entry>
  <entry producer="producer773" in="02:24:10.700" out="02:24:11.417">
   <property name="kdenlive:id">684</property>
  </entry>
  <entry producer="producer773" in="02:25:21.067" out="02:25:22.000">
   <property name="kdenlive:id">684</property>
  </entry>
  <entry producer="producer773" in="02:25:22.017" out="02:25:23.783">
   <property name="kdenlive:id">684</property>
   <property name="kdenlive:activeeffect">0</property>
   <filter id="filter889">
    <property name="rotate_center">1</property>
    <property name="mlt_service">qtblend</property>
    <property name="kdenlive_id">qtblend</property>
    <property name="rect">02:25:22.017=0 0 1920 1080 1.000000;02:25:22.067=-1499 -337 3936 2214 1.000000</property>
    <property name="rotation">02:25:22.017=0;02:25:22.067=0</property>
    <property name="compositing">0</property>
    <property name="distort">0</property>
    <property name="kdenlive:collapsed">0</property>
   </filter>
  </entry>
  <entry producer="producer773" in="02:25:23.800" out="02:25:24.700">
   <property name="kdenlive:id">684</property>
   <filter id="filter890">
    <property name="rotate_center">1</property>
    <property name="mlt_service">qtblend</property>
    <property name="kdenlive_id">qtblend</property>
    <property name="rect">02:25:23.800=0 -2281 6048 3402 1.000000</property>
    <property name="rotation">02:25:23.800=0</property>
    <property name="compositing">0</property>
    <property name="distort">0</property>
   </filter>
   <filter id="filter891">
    <property name="rotate_center">1</property>
    <property name="mlt_service">qtblend</property>
    <property name="kdenlive_id">qtblend</property>
    <property name="rect">02:25:23.800=0 0 1920 1080 1</property>
    <property name="rotation">02:25:23.800=0</property>
    <property name="compositing">0</property>
    <property name="distort">0</property>
   </filter>
  </entry>
  <entry producer="producer773" in="02:28:25.600" out="02:28:29.517">
   <property name="kdenlive:id">684</property>
  </entry>
  <entry producer="producer773" in="02:30:16.800" out="02:30:23.433">
   <property name="kdenlive:id">684</property>
   <filter id="filter892">
    <property name="rotate_center">1</property>
    <property name="mlt_service">qtblend</property>
    <property name="kdenlive_id">qtblend</property>
    <property name="rect">02:30:16.800=0 0 1920 1080 1.000000;02:30:23.433=-48 -27 2016 1134 1.000000</property>
    <property name="rotation">02:30:16.800=0;02:30:23.433=0</property>
    <property name="compositing">0</property>
    <property name="distort">0</property>
    <property name="kdenlive:collapsed">0</property>
   </filter>
  </entry>
  <entry producer="producer773" in="02:30:23.450" out="02:30:24.567">
   <property name="kdenlive:id">684</property>
   <filter id="filter893">
    <property name="rotate_center">1</property>
    <property name="mlt_service">qtblend</property>
    <property name="kdenlive_id">qtblend</property>
    <property name="rect">02:30:23.450=-41 -23 2002 1126 1.000000;02:30:24.567=-48 -27 2016 1134 1.000000</property>
    <property name="rotation">02:30:23.450=0;02:30:24.567=0</property>
    <property name="compositing">0</property>
    <property name="distort">0</property>
   </filter>
  </entry>
  <entry producer="producer773" in="02:31:30.517" out="02:31:33.233">
   <property name="kdenlive:id">684</property>
  </entry>
  <entry producer="producer773" in="02:31:33.250" out="02:31:34.300">
   <property name="kdenlive:id">684</property>
   <filter id="filter894">
    <property name="rotate_center">1</property>
    <property name="mlt_service">qtblend</property>
    <property name="kdenlive_id">qtblend</property>
    <property name="rect">02:31:33.250=-1536 -1728 4992 2808 1.000000</property>
    <property name="rotation">02:31:33.250=0</property>
    <property name="compositing">0</property>
    <property name="distort">0</property>
    <property name="kdenlive:collapsed">0</property>
   </filter>
  </entry>
  <entry producer="producer773" in="02:32:03.917" out="02:32:05.167">
   <property name="kdenlive:id">684</property>
  </entry>
  <entry producer="producer773" in="02:32:13.033" out="02:32:14.267">
   <property name="kdenlive:id">684</property>
  </entry>
  <entry producer="producer773" in="02:32:24.933" out="02:32:26.167">
   <property name="kdenlive:id">684</property>
  </entry>
  <entry producer="producer773" in="02:32:40.667" out="02:32:41.250">
   <property name="kdenlive:id">684</property>
   <filter id="filter895">
    <property name="version">0.3</property>
    <property name="mlt_service">frei0r.saturat0r</property>
    <property name="kdenlive_id">Black&amp;WHite</property>
    <property name="Saturation">00:00:15.367=0.001</property>
    <property name="kdenlive:collapsed">0</property>
   </filter>
   <filter id="filter896">
    <property name="rotate_center">1</property>
    <property name="mlt_service">qtblend</property>
    <property name="kdenlive_id">qtblend</property>
    <property name="rect">02:32:40.667=0 0 1920 1080 1.000000;02:32:40.700=96 54 1728 972 1.000000;02:32:41.250=144 81 1632 918 1.000000</property>
    <property name="rotation">02:32:40.667=0;02:32:40.700=0;02:32:41.250=0</property>
    <property name="compositing">0</property>
    <property name="distort">0</property>
    <property name="kdenlive:collapsed">0</property>
   </filter>
  </entry>
  <entry producer="producer773" in="02:32:42.000" out="02:32:43.717">
   <property name="kdenlive:id">684</property>
  </entry>
  <entry producer="producer773" in="02:32:53.667" out="02:32:55.567">
   <property name="kdenlive:id">684</property>
  </entry>
  <entry producer="producer773" in="02:32:56.550" out="02:32:57.617">
   <property name="kdenlive:id">684</property>
   <filter id="filter897">
    <property name="rotate_center">1</property>
    <property name="mlt_service">qtblend</property>
    <property name="kdenlive_id">qtblend</property>
    <property name="rect">02:32:56.550=-2034 -1130 6528 3672 1.000000</property>
    <property name="rotation">02:32:56.550=0</property>
    <property name="compositing">0</property>
    <property name="distort">0</property>
    <property name="kdenlive:collapsed">0</property>
   </filter>
  </entry>
  <entry producer="producer773" in="02:33:01.733" out="02:33:02.550">
   <property name="kdenlive:id">684</property>
   <filter id="filter898">
    <property name="rotate_center">1</property>
    <property name="mlt_service">qtblend</property>
    <property name="kdenlive_id">qtblend</property>
    <property name="rect">02:33:01.733=0 -2281 6048 3402 1.000000</property>
    <property name="rotation">02:33:01.733=0</property>
    <property name="compositing">0</property>
    <property name="distort">0</property>
    <property name="kdenlive:collapsed">0</property>
   </filter>
   <filter id="filter899">
    <property name="rotate_center">1</property>
    <property name="mlt_service">qtblend</property>
    <property name="kdenlive_id">qtblend</property>
    <property name="rect">02:33:01.733=0 0 1920 1080 1</property>
    <property name="rotation">02:33:01.733=0</property>
    <property name="compositing">0</property>
    <property name="distort">0</property>
    <property name="kdenlive:collapsed">0</property>
   </filter>
  </entry>
  <entry producer="producer775" in="00:17:05.833" out="00:17:07.333">
   <property name="kdenlive:id">685</property>
  </entry>
  <entry producer="producer775" in="00:17:09.400" out="00:17:10.150">
   <property name="kdenlive:id">685</property>
  </entry>
  <entry producer="producer775" in="00:17:38.450" out="00:17:41.783">
   <property name="kdenlive:id">685</property>
   <filter id="filter900">
    <property name="rotate_center">1</property>
    <property name="mlt_service">qtblend</property>
    <property name="kdenlive_id">qtblend</property>
    <property name="rect">00:17:38.450=0 0 1920 1080 1.000000;00:17:41.783=-48 -27 2016 1134 1.000000</property>
    <property name="rotation">00:17:38.450=0;00:17:41.783=0</property>
    <property name="compositing">0</property>
    <property name="distort">0</property>
    <property name="kdenlive:collapsed">0</property>
   </filter>
  </entry>
  <entry producer="producer775" in="00:17:45.917" out="00:17:46.783">
   <property name="kdenlive:id">685</property>
   <filter id="filter901">
    <property name="rotate_center">1</property>
    <property name="mlt_service">qtblend</property>
    <property name="kdenlive_id">qtblend</property>
    <property name="rect">00:17:45.917=-5280 -2811 7200 4050 1.000000</property>
    <property name="rotation">00:17:45.917=0</property>
    <property name="compositing">0</property>
    <property name="distort">0</property>
    <property name="kdenlive:collapsed">0</property>
   </filter>
   <filter id="filter902">
    <property name="rotate_center">1</property>
    <property name="mlt_service">qtblend</property>
    <property name="kdenlive_id">qtblend</property>
    <property name="rect">00:17:45.917=0 0 1920 1080 1</property>
    <property name="rotation">00:17:45.917=0</property>
    <property name="compositing">0</property>
    <property name="distort">0</property>
    <property name="kdenlive:collapsed">0</property>
   </filter>
  </entry>
  <entry producer="producer775" in="00:17:51.067" out="00:17:52.517">
   <property name="kdenlive:id">685</property>
  </entry>
  <entry producer="producer775" in="00:21:13.267" out="00:21:14.400">
   <property name="kdenlive:id">685</property>
  </entry>
  <entry producer="producer775" in="00:21:14.733" out="00:21:16.050">
   <property name="kdenlive:id">685</property>
  </entry>
  <entry producer="producer775" in="00:26:39.283" out="00:26:41.367">
   <property name="kdenlive:id">685</property>
  </entry>
  <entry producer="producer775" in="00:27:31.400" out="00:27:32.883">
   <property name="kdenlive:id">685</property>
  </entry>
  <entry producer="producer775" in="00:27:33.867" out="00:27:34.833">
   <property name="kdenlive:id">685</property>
  </entry>
  <entry producer="producer775" in="00:27:43.517" out="00:27:43.783">
   <property name="kdenlive:id">685</property>
  </entry>
  <entry producer="producer775" in="00:27:45.017" out="00:27:45.500">
   <property name="kdenlive:id">685</property>
  </entry>
  <entry producer="producer775" in="00:27:45.817" out="00:27:46.333">
   <property name="kdenlive:id">685</property>
   <filter id="filter903">
    <property name="rotate_center">1</property>
    <property name="mlt_service">qtblend</property>
    <property name="kdenlive_id">qtblend</property>
    <property name="rect">00:27:45.817=-5280 -2811 7200 4050 1.000000</property>
    <property name="rotation">00:27:45.817=0</property>
    <property name="compositing">0</property>
    <property name="distort">0</property>
   </filter>
   <filter id="filter904">
    <property name="rotate_center">1</property>
    <property name="mlt_service">qtblend</property>
    <property name="kdenlive_id">qtblend</property>
    <property name="rect">00:27:45.817=0 0 1920 1080 1.000000</property>
    <property name="rotation">00:27:45.817=0</property>
    <property name="compositing">0</property>
    <property name="distort">0</property>
   </filter>
  </entry>
  <entry producer="producer775" in="00:37:44.617" out="00:37:47.400">
   <property name="kdenlive:id">685</property>
  </entry>
  <entry producer="producer775" in="00:40:13.383" out="00:40:15.233">
   <property name="kdenlive:id">685</property>
  </entry>
  <entry producer="producer775" in="00:40:19.500" out="00:40:22.200">
   <property name="kdenlive:id">685</property>
  </entry>
  <entry producer="producer775" in="00:40:23.050" out="00:40:24.017">
   <property name="kdenlive:id">685</property>
   <filter id="filter905">
    <property name="rotate_center">1</property>
    <property name="mlt_service">qtblend</property>
    <property name="kdenlive_id">qtblend</property>
    <property name="rect">00:40:23.050=-5280 -2811 7200 4050 1.000000</property>
    <property name="rotation">00:40:23.050=0</property>
    <property name="compositing">0</property>
    <property name="distort">0</property>
   </filter>
   <filter id="filter906">
    <property name="rotate_center">1</property>
    <property name="mlt_service">qtblend</property>
    <property name="kdenlive_id">qtblend</property>
    <property name="rect">00:40:23.050=0 0 1920 1080 1.000000</property>
    <property name="rotation">00:40:23.050=0</property>
    <property name="compositing">0</property>
    <property name="distort">0</property>
   </filter>
  </entry>
  <entry producer="producer775" in="00:40:57.983" out="00:40:58.633">
   <property name="kdenlive:id">685</property>
  </entry>
  <entry producer="producer775" in="00:40:58.650" out="00:41:00.150">
   <property name="kdenlive:id">685</property>
  </entry>
  <entry producer="producer775" in="00:41:02.950" out="00:41:03.483">
   <property name="kdenlive:id">685</property>
   <filter id="filter907">
    <property name="rotate_center">1</property>
    <property name="mlt_service">qtblend</property>
    <property name="kdenlive_id">qtblend</property>
    <property name="rect">00:41:02.950=-5280 -2811 7200 4050 1.000000</property>
    <property name="rotation">00:41:02.950=0</property>
    <property name="compositing">0</property>
    <property name="distort">0</property>
    <property name="kdenlive:collapsed">1</property>
   </filter>
   <filter id="filter908">
    <property name="rotate_center">1</property>
    <property name="mlt_service">qtblend</property>
    <property name="kdenlive_id">qtblend</property>
    <property name="rect">00:41:02.950=0 0 1920 1080 1.000000;00:41:03.017=-1151 -343 3072 1728 1.000000</property>
    <property name="rotation">00:41:02.950=0;00:41:03.017=0</property>
    <property name="compositing">0</property>
    <property name="distort">0</property>
    <property name="kdenlive:collapsed">0</property>
   </filter>
  </entry>
  <entry producer="producer775" in="00:41:11.000" out="00:41:11.683">
   <property name="kdenlive:id">685</property>
  </entry>
  <entry producer="producer775" in="00:41:19.217" out="00:41:20.483">
   <property name="kdenlive:id">685</property>
  </entry>
  <entry producer="producer775" in="00:41:49.617" out="00:41:56.433">
   <property name="kdenlive:id">685</property>
   <filter id="filter909">
    <property name="rotate_center">1</property>
    <property name="mlt_service">qtblend</property>
    <property name="kdenlive_id">qtblend</property>
    <property name="rect">00:41:49.617=0 0 1920 1080 1.000000;00:41:56.433=-48 -27 2016 1134 1.000000</property>
    <property name="rotation">00:41:49.617=0;00:41:56.433=0</property>
    <property name="compositing">0</property>
    <property name="distort">0</property>
    <property name="kdenlive:collapsed">0</property>
   </filter>
  </entry>
  <entry producer="producer775" in="00:42:02.217" out="00:42:03.333">
   <property name="kdenlive:id">685</property>
   <filter id="filter910">
    <property name="rotate_center">1</property>
    <property name="mlt_service">qtblend</property>
    <property name="kdenlive_id">qtblend</property>
    <property name="rect">00:42:02.217=-5280 -2811 7200 4050 1.000000</property>
    <property name="rotation">00:42:02.217=0</property>
    <property name="compositing">0</property>
    <property name="distort">0</property>
    <property name="kdenlive:collapsed">0</property>
   </filter>
   <filter id="filter911">
    <property name="rotate_center">1</property>
    <property name="mlt_service">qtblend</property>
    <property name="kdenlive_id">qtblend</property>
    <property name="rect">00:42:02.217=0 0 1920 1080 1</property>
    <property name="rotation">00:42:02.217=0</property>
    <property name="compositing">0</property>
    <property name="distort">0</property>
    <property name="kdenlive:collapsed">0</property>
   </filter>
  </entry>
  <entry producer="producer775" in="00:44:26.833" out="00:44:28.367">
   <property name="kdenlive:id">685</property>
  </entry>
  <entry producer="producer775" in="00:45:46.333" out="00:45:47.017">
   <property name="kdenlive:id">685</property>
  </entry>
  <entry producer="producer775" in="00:45:57.250" out="00:45:59.433">
   <property name="kdenlive:id">685</property>
  </entry>
  <entry producer="producer775" in="00:46:05.000" out="00:46:09.250">
   <property name="kdenlive:id">685</property>
  </entry>
  <entry producer="producer775" in="00:46:33.350" out="00:46:35.900">
   <property name="kdenlive:id">685</property>
  </entry>
  <entry producer="producer775" in="00:46:42.467" out="00:46:45.033">
   <property name="kdenlive:id">685</property>
   <filter id="filter912">
    <property name="rotate_center">1</property>
    <property name="mlt_service">qtblend</property>
    <property name="kdenlive_id">qtblend</property>
    <property name="rect">00:46:42.467=-5280 -2811 7200 4050 1.000000</property>
    <property name="rotation">00:46:42.467=0</property>
    <property name="compositing">0</property>
    <property name="distort">0</property>
    <property name="kdenlive:collapsed">0</property>
   </filter>
   <filter id="filter913">
    <property name="rotate_center">1</property>
    <property name="mlt_service">qtblend</property>
    <property name="kdenlive_id">qtblend</property>
    <property name="rect">00:46:42.467=0 0 1920 1080 1</property>
    <property name="rotation">00:46:42.467=0</property>
    <property name="compositing">0</property>
    <property name="distort">0</property>
    <property name="kdenlive:collapsed">0</property>
   </filter>
   <filter id="filter914">
    <property name="version">0.3</property>
    <property name="mlt_service">frei0r.saturat0r</property>
    <property name="kdenlive_id">Black&amp;WHite</property>
    <property name="Saturation">00:00:15.367=0.001</property>
    <property name="kdenlive:collapsed">0</property>
   </filter>
  </entry>
  <entry producer="producer775" in="00:51:43.783" out="00:51:46.533">
   <property name="kdenlive:id">685</property>
  </entry>
  <entry producer="producer775" in="00:51:52.500" out="00:51:55.467">
   <property name="kdenlive:id">685</property>
   <filter id="filter915">
    <property name="rotate_center">1</property>
    <property name="mlt_service">qtblend</property>
    <property name="kdenlive_id">qtblend</property>
    <property name="rect">00:51:52.500=0 0 1920 1080 1.000000;00:51:55.467=-143 -80 2207 1241 1.000000</property>
    <property name="rotation">00:51:52.500=0;00:51:55.467=0</property>
    <property name="compositing">0</property>
    <property name="distort">0</property>
    <property name="kdenlive:collapsed">0</property>
   </filter>
  </entry>
  <entry producer="producer775" in="00:51:55.483" out="00:51:55.867">
   <property name="kdenlive:id">685</property>
   <filter id="filter916">
    <property name="rotate_center">1</property>
    <property name="mlt_service">qtblend</property>
    <property name="kdenlive_id">qtblend</property>
    <property name="rect">00:51:55.483=-5280 -2811 7200 4050 1.000000</property>
    <property name="rotation">00:51:55.483=0</property>
    <property name="compositing">0</property>
    <property name="distort">0</property>
   </filter>
   <filter id="filter917">
    <property name="rotate_center">1</property>
    <property name="mlt_service">qtblend</property>
    <property name="kdenlive_id">qtblend</property>
    <property name="rect">00:51:55.483=0 0 1920 1080 1</property>
    <property name="rotation">00:51:55.483=0</property>
    <property name="compositing">0</property>
    <property name="distort">0</property>
   </filter>
  </entry>
  <entry producer="producer775" in="00:55:55.117" out="00:55:56.500">
   <property name="kdenlive:id">685</property>
  </entry>
  <entry producer="producer775" in="00:56:39.133" out="00:56:40.350">
   <property name="kdenlive:id">685</property>
  </entry>
  <entry producer="producer775" in="00:56:45.683" out="00:56:47.083">
   <property name="kdenlive:id">685</property>
  </entry>
  <entry producer="producer775" in="00:56:55.100" out="00:56:56.483">
   <property name="kdenlive:id">685</property>
  </entry>
  <entry producer="producer775" in="00:58:29.700" out="00:58:30.717">
   <property name="kdenlive:id">685</property>
  </entry>
  <entry producer="producer775" in="00:59:30.733" out="00:59:32.183">
   <property name="kdenlive:id">685</property>
  </entry>
  <entry producer="producer775" in="01:00:20.150" out="01:00:21.300">
   <property name="kdenlive:id">685</property>
  </entry>
  <entry producer="producer775" in="01:00:34.650" out="01:00:38.700">
   <property name="kdenlive:id">685</property>
  </entry>
  <entry producer="producer775" in="01:05:14.017" out="01:05:15.550">
   <property name="kdenlive:id">685</property>
  </entry>
  <entry producer="producer775" in="01:05:18.167" out="01:05:19.300">
   <property name="kdenlive:id">685</property>
  </entry>
  <entry producer="producer775" in="01:05:21.667" out="01:05:22.233">
   <property name="kdenlive:id">685</property>
  </entry>
  <entry producer="producer775" in="01:05:22.250" out="01:05:23.083">
   <property name="kdenlive:id">685</property>
   <filter id="filter918">
    <property name="rotate_center">1</property>
    <property name="mlt_service">qtblend</property>
    <property name="kdenlive_id">qtblend</property>
    <property name="rect">01:05:22.250=-1440 -1620 4800 2700 1.000000</property>
    <property name="rotation">01:05:22.250=0</property>
    <property name="compositing">0</property>
    <property name="distort">0</property>
    <property name="kdenlive:collapsed">0</property>
   </filter>
  </entry>
  <entry producer="producer775" in="01:05:23.100" out="01:05:24.950">
   <property name="kdenlive:id">685</property>
   <filter id="filter919">
    <property name="rotate_center">1</property>
    <property name="mlt_service">qtblend</property>
    <property name="kdenlive_id">qtblend</property>
    <property name="rect">01:05:23.100=-1440 -1620 4800 2700 1.000000</property>
    <property name="rotation">01:05:23.100=0</property>
    <property name="compositing">0</property>
    <property name="distort">0</property>
    <property name="kdenlive:collapsed">0</property>
   </filter>
  </entry>
  <entry producer="producer775" in="01:05:25.483" out="01:05:27.417">
   <property name="kdenlive:id">685</property>
  </entry>
  <entry producer="producer775" in="01:06:09.750" out="01:06:12.167">
   <property name="kdenlive:id">685</property>
  </entry>
  <entry producer="producer775" in="01:06:12.183" out="01:06:13.117">
   <property name="kdenlive:id">685</property>
   <filter id="filter920">
    <property name="rotate_center">1</property>
    <property name="mlt_service">qtblend</property>
    <property name="kdenlive_id">qtblend</property>
    <property name="rect">01:06:12.183=-5280 -2883 7200 4050 1.000000</property>
    <property name="rotation">01:06:12.183=0</property>
    <property name="compositing">0</property>
    <property name="distort">0</property>
    <property name="kdenlive:collapsed">0</property>
   </filter>
   <filter id="filter921">
    <property name="rotate_center">1</property>
    <property name="mlt_service">qtblend</property>
    <property name="kdenlive_id">qtblend</property>
    <property name="rect">01:06:12.183=0 0 1920 1080 1</property>
    <property name="rotation">01:06:12.183=0</property>
    <property name="compositing">0</property>
    <property name="distort">0</property>
    <property name="kdenlive:collapsed">0</property>
   </filter>
  </entry>
  <entry producer="producer775" in="01:05:28.500" out="01:05:30.367">
   <property name="kdenlive:id">685</property>
  </entry>
  <entry producer="producer775" in="01:06:38.017" out="01:06:39.583">
   <property name="kdenlive:id">685</property>
  </entry>
  <entry producer="producer775" in="01:07:19.500" out="01:07:20.250">
   <property name="kdenlive:id">685</property>
  </entry>
  <entry producer="producer775" in="01:09:25.917" out="01:09:28.683">
   <property name="kdenlive:id">685</property>
  </entry>
  <entry producer="producer775" in="01:10:26.650" out="01:10:28.183">
   <property name="kdenlive:id">685</property>
  </entry>
  <entry producer="producer775" in="01:10:55.983" out="01:10:58.850">
   <property name="kdenlive:id">685</property>
  </entry>
  <entry producer="producer775" in="01:10:58.867" out="01:11:00.633">
   <property name="kdenlive:id">685</property>
  </entry>
  <entry producer="producer775" in="01:11:14.667" out="01:11:19.067">
   <property name="kdenlive:id">685</property>
  </entry>
  <entry producer="producer775" in="01:16:52.200" out="01:16:54.650">
   <property name="kdenlive:id">685</property>
  </entry>
  <entry producer="producer775" in="01:16:54.667" out="01:16:56.450">
   <property name="kdenlive:id">685</property>
   <filter id="filter922">
    <property name="rotate_center">1</property>
    <property name="mlt_service">qtblend</property>
    <property name="kdenlive_id">qtblend</property>
    <property name="rect">01:16:54.667=-766 -185 3744 2106 1.000000;01:16:56.450=-885 -212 3840 2160 1.000000</property>
    <property name="rotation">01:16:54.667=0;01:16:56.450=0</property>
    <property name="compositing">0</property>
    <property name="distort">0</property>
    <property name="kdenlive:collapsed">0</property>
   </filter>
   <filter id="filter923">
    <property name="version">1</property>
    <property name="mlt_service">frei0r.pixeliz0r</property>
    <property name="kdenlive_id">frei0r.pixeliz0r</property>
    <property name="BlockSizeX">01:16:54.667=0;01:16:55.383=0.07</property>
    <property name="BlockSizeY">01:16:54.667=0;01:16:55.383=0.1</property>
    <property name="kdenlive:collapsed">0</property>
   </filter>
  </entry>
  <entry producer="producer775" in="01:19:21.700" out="01:19:27.950">
   <property name="kdenlive:id">685</property>
  </entry>
  <entry producer="producer775" in="01:26:27.500" out="01:26:33.217">
   <property name="kdenlive:id">685</property>
  </entry>
  <entry producer="producer775" in="01:28:19.633" out="01:28:23.883">
   <property name="kdenlive:id">685</property>
  </entry>
  <entry producer="producer775" in="01:32:48.267" out="01:32:51.633">
   <property name="kdenlive:id">685</property>
   <filter id="filter924">
    <property name="rotate_center">1</property>
    <property name="mlt_service">qtblend</property>
    <property name="kdenlive_id">qtblend</property>
    <property name="rect">01:32:48.267=0 0 1920 1080 1.000000;01:32:51.633=-96 -54 2112 1188 1.000000</property>
    <property name="rotation">01:32:48.267=0;01:32:51.633=0</property>
    <property name="compositing">0</property>
    <property name="distort">0</property>
    <property name="kdenlive:collapsed">0</property>
   </filter>
  </entry>
  <entry producer="producer775" in="01:32:51.650" out="01:32:52.217">
   <property name="kdenlive:id">685</property>
   <filter id="filter925">
    <property name="rotate_center">1</property>
    <property name="mlt_service">qtblend</property>
    <property name="kdenlive_id">qtblend</property>
    <property name="rect">01:32:51.650=-5280 -2811 7200 4050 1.000000</property>
    <property name="rotation">01:32:51.650=0</property>
    <property name="compositing">0</property>
    <property name="distort">0</property>
   </filter>
   <filter id="filter926">
    <property name="rotate_center">1</property>
    <property name="mlt_service">qtblend</property>
    <property name="kdenlive_id">qtblend</property>
    <property name="rect">01:32:51.650=0 0 1920 1080 1</property>
    <property name="rotation">01:32:51.650=0</property>
    <property name="compositing">0</property>
    <property name="distort">0</property>
   </filter>
  </entry>
  <entry producer="producer775" in="01:39:55.417" out="01:40:01.933">
   <property name="kdenlive:id">685</property>
  </entry>
  <entry producer="producer775" in="01:44:47.133" out="01:44:47.950">
   <property name="kdenlive:id">685</property>
  </entry>
  <entry producer="producer775" in="01:45:03.367" out="01:45:04.067">
   <property name="kdenlive:id">685</property>
  </entry>
  <entry producer="producer775" in="01:45:04.700" out="01:45:06.017">
   <property name="kdenlive:id">685</property>
  </entry>
  <entry producer="producer775" in="01:45:08.033" out="01:45:08.633">
   <property name="kdenlive:id">685</property>
  </entry>
  <entry producer="producer775" in="01:56:23.850" out="01:56:25.017">
   <property name="kdenlive:id">685</property>
  </entry>
  <entry producer="producer775" in="01:56:26.950" out="01:56:28.350">
   <property name="kdenlive:id">685</property>
  </entry>
  <entry producer="producer775" in="01:56:36.400" out="01:56:38.100">
   <property name="kdenlive:id">685</property>
  </entry>
  <entry producer="producer775" in="01:56:38.567" out="01:56:43.150">
   <property name="kdenlive:id">685</property>
  </entry>
  <entry producer="producer775" in="01:56:43.167" out="01:56:45.800">
   <property name="kdenlive:id">685</property>
   <filter id="filter927">
    <property name="rotate_center">1</property>
    <property name="mlt_service">qtblend</property>
    <property name="kdenlive_id">qtblend</property>
    <property name="rect">01:56:43.167=-5280 -2811 7200 4050 1.000000</property>
    <property name="rotation">01:56:43.167=0</property>
    <property name="compositing">0</property>
    <property name="distort">0</property>
   </filter>
   <filter id="filter928">
    <property name="rotate_center">1</property>
    <property name="mlt_service">qtblend</property>
    <property name="kdenlive_id">qtblend</property>
    <property name="rect">01:56:43.167=0 0 1920 1080 1</property>
    <property name="rotation">01:56:43.167=0</property>
    <property name="compositing">0</property>
    <property name="distort">0</property>
   </filter>
  </entry>
  <entry producer="producer775" in="01:56:47.783" out="01:56:49.233">
   <property name="kdenlive:id">685</property>
  </entry>
  <entry producer="producer775" in="01:58:11.267" out="01:58:13.600">
   <property name="kdenlive:id">685</property>
  </entry>
  <entry producer="producer775" in="01:58:29.733" out="01:58:32.367">
   <property name="kdenlive:id">685</property>
  </entry>
  <entry producer="producer775" in="01:58:50.517" out="01:58:56.067">
   <property name="kdenlive:id">685</property>
  </entry>
  <entry producer="producer775" in="01:58:56.083" out="01:58:58.350">
   <property name="kdenlive:id">685</property>
  </entry>
  <entry producer="producer775" in="01:59:14.467" out="01:59:17.167">
   <property name="kdenlive:id">685</property>
  </entry>
  <entry producer="producer775" in="01:59:45.783" out="01:59:48.900">
   <property name="kdenlive:id">685</property>
  </entry>
  <entry producer="producer775" in="02:05:33.517" out="02:05:41.267">
   <property name="kdenlive:id">685</property>
   <filter id="filter929">
    <property name="rotate_center">1</property>
    <property name="mlt_service">qtblend</property>
    <property name="kdenlive_id">qtblend</property>
    <property name="rect">02:05:33.517=0 0 1920 1080 1.000000;02:05:41.267=-48 -27 2016 1134 1.000000</property>
    <property name="rotation">02:05:33.517=0;02:05:41.267=0</property>
    <property name="compositing">0</property>
    <property name="distort">0</property>
    <property name="kdenlive:collapsed">0</property>
   </filter>
  </entry>
  <entry producer="producer775" in="02:06:19.917" out="02:06:21.550">
   <property name="kdenlive:id">685</property>
  </entry>
  <entry producer="producer775" in="02:06:23.817" out="02:06:24.667">
   <property name="kdenlive:id">685</property>
  </entry>
  <entry producer="producer775" in="02:06:28.783" out="02:06:31.250">
   <property name="kdenlive:id">685</property>
  </entry>
  <entry producer="producer775" in="02:06:40.550" out="02:06:41.933">
   <property name="kdenlive:id">685</property>
   <filter id="filter930">
    <property name="rotate_center">1</property>
    <property name="mlt_service">qtblend</property>
    <property name="kdenlive_id">qtblend</property>
    <property name="rect">02:06:40.550=-5280 -2811 7200 4050 1.000000</property>
    <property name="rotation">02:06:40.550=0</property>
    <property name="compositing">0</property>
    <property name="distort">0</property>
   </filter>
   <filter id="filter931">
    <property name="rotate_center">1</property>
    <property name="mlt_service">qtblend</property>
    <property name="kdenlive_id">qtblend</property>
    <property name="rect">02:06:40.550=0 0 1920 1080 1.000000</property>
    <property name="rotation">02:06:40.550=0</property>
    <property name="compositing">0</property>
    <property name="distort">0</property>
   </filter>
  </entry>
  <entry producer="producer775" in="02:06:41.950" out="02:06:48.750">
   <property name="kdenlive:id">685</property>
   <filter id="filter932">
    <property name="rotate_center">1</property>
    <property name="mlt_service">qtblend</property>
    <property name="kdenlive_id">qtblend</property>
    <property name="rect">02:06:41.950=0 0 1920 1080 1.000000;02:06:48.750=-48 -27 2016 1134 1.000000</property>
    <property name="rotation">02:06:41.950=0;02:06:48.750=0</property>
    <property name="compositing">0</property>
    <property name="distort">0</property>
    <property name="kdenlive:collapsed">0</property>
   </filter>
  </entry>
  <entry producer="producer775" in="02:12:06.000" out="02:12:07.233">
   <property name="kdenlive:id">685</property>
  </entry>
  <entry producer="producer775" in="02:12:41.083" out="02:12:46.800">
   <property name="kdenlive:id">685</property>
   <filter id="filter933">
    <property name="rotate_center">1</property>
    <property name="mlt_service">qtblend</property>
    <property name="kdenlive_id">qtblend</property>
    <property name="rect">02:12:41.083=0 0 1920 1080 1.000000;02:12:46.800=-48 -27 2016 1134 1.000000</property>
    <property name="rotation">02:12:41.083=0;02:12:46.800=0</property>
    <property name="compositing">0</property>
    <property name="distort">0</property>
    <property name="kdenlive:collapsed">0</property>
   </filter>
  </entry>
  <entry producer="producer775" in="02:12:51.967" out="02:12:52.800">
   <property name="kdenlive:id">685</property>
  </entry>
  <entry producer="producer775" in="02:12:59.367" out="02:13:00.283">
   <property name="kdenlive:id">685</property>
  </entry>
  <entry producer="producer776" in="00:13:41.550" out="00:13:44.217">
   <property name="kdenlive:id">686</property>
  </entry>
  <entry producer="producer776" in="00:15:43.383" out="00:15:48.633">
   <property name="kdenlive:id">686</property>
   <filter id="filter934">
    <property name="rotate_center">1</property>
    <property name="mlt_service">qtblend</property>
    <property name="kdenlive_id">qtblend</property>
    <property name="rect">00:15:43.383=0 0 1920 1080 1.000000;00:15:48.633=-48 -27 2016 1134 1.000000</property>
    <property name="rotation">00:15:43.383=0;00:15:48.633=0</property>
    <property name="compositing">0</property>
    <property name="distort">0</property>
    <property name="kdenlive:collapsed">0</property>
   </filter>
  </entry>
  <entry producer="producer776" in="00:15:49.117" out="00:15:51.333">
   <property name="kdenlive:id">686</property>
  </entry>
  <entry producer="producer776" in="00:15:52.233" out="00:15:54.033">
   <property name="kdenlive:id">686</property>
  </entry>
  <entry producer="producer776" in="00:15:54.050" out="00:15:55.767">
   <property name="kdenlive:id">686</property>
  </entry>
  <entry producer="producer776" in="00:15:59.967" out="00:16:00.883">
   <property name="kdenlive:id">686</property>
  </entry>
  <entry producer="producer776" in="00:16:05.383" out="00:16:06.183">
   <property name="kdenlive:id">686</property>
  </entry>
  <entry producer="producer776" in="00:16:07.000" out="00:16:07.767">
   <property name="kdenlive:id">686</property>
  </entry>
  <entry producer="producer776" in="00:16:08.700" out="00:16:09.900">
   <property name="kdenlive:id">686</property>
  </entry>
  <entry producer="producer776" in="00:16:22.450" out="00:16:23.267">
   <property name="kdenlive:id">686</property>
  </entry>
  <entry producer="producer776" in="00:16:26.383" out="00:16:26.917">
   <property name="kdenlive:id">686</property>
  </entry>
  <entry producer="producer776" in="00:16:27.950" out="00:16:29.083">
   <property name="kdenlive:id">686</property>
   <filter id="filter935">
    <property name="rotate_center">1</property>
    <property name="mlt_service">qtblend</property>
    <property name="kdenlive_id">qtblend</property>
    <property name="rect">00:16:27.950=-5280 -2840 7200 4050 1.000000</property>
    <property name="rotation">00:16:27.950=0</property>
    <property name="compositing">0</property>
    <property name="distort">0</property>
    <property name="kdenlive:collapsed">1</property>
   </filter>
   <filter id="filter936">
    <property name="rotate_center">1</property>
    <property name="mlt_service">qtblend</property>
    <property name="kdenlive_id">qtblend</property>
    <property name="rect">00:16:27.950=-2171 -972 4320 2430 1.000000</property>
    <property name="rotation">00:16:27.950=0</property>
    <property name="compositing">0</property>
    <property name="distort">0</property>
    <property name="kdenlive:collapsed">1</property>
   </filter>
   <filter id="filter937">
    <property name="rotate_center">1</property>
    <property name="mlt_service">qtblend</property>
    <property name="kdenlive_id">qtblend</property>
    <property name="rect">00:16:27.950=0 0 1920 1080 1.000000;00:16:29.083=-921 0 3891 1080 1.000000</property>
    <property name="rotation">00:16:27.950=0;00:16:29.083=0</property>
    <property name="compositing">0</property>
    <property name="distort">1</property>
    <property name="kdenlive:collapsed">0</property>
   </filter>
  </entry>
  <entry producer="producer776" in="00:21:15.683" out="00:21:17.950">
   <property name="kdenlive:id">686</property>
  </entry>
  <entry producer="producer776" in="00:21:20.250" out="00:21:24.850">
   <property name="kdenlive:id">686</property>
  </entry>
  <entry producer="producer776" in="00:21:24.867" out="00:21:26.150">
   <property name="kdenlive:id">686</property>
   <filter id="filter938">
    <property name="rotate_center">1</property>
    <property name="mlt_service">qtblend</property>
    <property name="kdenlive_id">qtblend</property>
    <property name="rect">00:21:24.867=-5280 -2898 7200 4050 1.000000</property>
    <property name="rotation">00:21:24.867=0</property>
    <property name="compositing">0</property>
    <property name="distort">0</property>
    <property name="kdenlive:collapsed">0</property>
   </filter>
   <filter id="filter939">
    <property name="rotate_center">1</property>
    <property name="mlt_service">qtblend</property>
    <property name="kdenlive_id">qtblend</property>
    <property name="rect">00:21:24.867=0 0 1920 1080 1</property>
    <property name="rotation">00:21:24.867=0</property>
    <property name="compositing">0</property>
    <property name="distort">0</property>
    <property name="kdenlive:collapsed">0</property>
   </filter>
  </entry>
  <entry producer="producer776" in="00:21:59.583" out="00:22:01.767">
   <property name="kdenlive:id">686</property>
  </entry>
  <entry producer="producer776" in="00:22:02.033" out="00:22:02.967">
   <property name="kdenlive:id">686</property>
   <filter id="filter940">
    <property name="rotate_center">1</property>
    <property name="mlt_service">qtblend</property>
    <property name="kdenlive_id">qtblend</property>
    <property name="rect">00:22:02.033=-5280 -2898 7200 4050 1.000000</property>
    <property name="rotation">00:22:02.033=0</property>
    <property name="compositing">0</property>
    <property name="distort">0</property>
    <property name="kdenlive:collapsed">0</property>
   </filter>
   <filter id="filter941">
    <property name="rotate_center">1</property>
    <property name="mlt_service">qtblend</property>
    <property name="kdenlive_id">qtblend</property>
    <property name="rect">00:22:02.033=0 0 1920 1080 1</property>
    <property name="rotation">00:22:02.033=0</property>
    <property name="compositing">0</property>
    <property name="distort">0</property>
    <property name="kdenlive:collapsed">0</property>
   </filter>
  </entry>
  <entry producer="producer776" in="00:29:31.167" out="00:29:35.467">
   <property name="kdenlive:id">686</property>
  </entry>
  <entry producer="producer776" in="00:29:39.017" out="00:29:41.233">
   <property name="kdenlive:id">686</property>
  </entry>
  <entry producer="producer776" in="00:34:03.267" out="00:34:06.633">
   <property name="kdenlive:id">686</property>
  </entry>
  <entry producer="producer776" in="00:34:07.917" out="00:34:08.633">
   <property name="kdenlive:id">686</property>
  </entry>
  <entry producer="producer776" in="00:34:11.083" out="00:34:13.033">
   <property name="kdenlive:id">686</property>
  </entry>
  <entry producer="producer776" in="00:34:26.333" out="00:34:27.183">
   <property name="kdenlive:id">686</property>
  </entry>
  <entry producer="producer776" in="00:34:32.700" out="00:34:36.150">
   <property name="kdenlive:id">686</property>
  </entry>
  <entry producer="producer776" in="00:35:43.033" out="00:35:45.317">
   <property name="kdenlive:id">686</property>
  </entry>
  <entry producer="producer776" in="00:54:18.800" out="00:54:22.017">
   <property name="kdenlive:id">686</property>
  </entry>
  <entry producer="producer776" in="00:54:22.033" out="00:54:27.267">
   <property name="kdenlive:id">686</property>
  </entry>
  <entry producer="producer776" in="00:54:27.283" out="00:54:28.000">
   <property name="kdenlive:id">686</property>
   <filter id="filter942">
    <property name="rotate_center">1</property>
    <property name="mlt_service">qtblend</property>
    <property name="kdenlive_id">qtblend</property>
    <property name="rect">00:54:27.283=-5280 -2811 7200 4050 1.000000</property>
    <property name="rotation">00:54:27.283=0</property>
    <property name="compositing">0</property>
    <property name="distort">0</property>
   </filter>
   <filter id="filter943">
    <property name="rotate_center">1</property>
    <property name="mlt_service">qtblend</property>
    <property name="kdenlive_id">qtblend</property>
    <property name="rect">00:54:27.283=0 0 1920 1080 1</property>
    <property name="rotation">00:54:27.283=0</property>
    <property name="compositing">0</property>
    <property name="distort">0</property>
   </filter>
  </entry>
  <entry producer="producer776" in="00:54:37.917" out="00:54:38.333">
   <property name="kdenlive:id">686</property>
  </entry>
  <entry producer="producer776" in="00:54:44.950" out="00:54:45.700">
   <property name="kdenlive:id">686</property>
  </entry>
  <entry producer="producer776" in="00:54:46.867" out="00:54:47.317">
   <property name="kdenlive:id">686</property>
   <filter id="filter944">
    <property name="rotate_center">1</property>
    <property name="mlt_service">qtblend</property>
    <property name="kdenlive_id">qtblend</property>
    <property name="rect">00:54:46.867=0 0 7680 4320 1.000000</property>
    <property name="rotation">00:54:46.867=0</property>
    <property name="compositing">0</property>
    <property name="distort">0</property>
    <property name="kdenlive:collapsed">0</property>
   </filter>
  </entry>
  <entry producer="producer776" in="00:55:38.667" out="00:55:41.217">
   <property name="kdenlive:id">686</property>
  </entry>
  <entry producer="producer776" in="00:55:42.417" out="00:55:44.233">
   <property name="kdenlive:id">686</property>
  </entry>
  <entry producer="producer776" in="00:55:47.567" out="00:55:53.350">
   <property name="kdenlive:id">686</property>
  </entry>
  <entry producer="producer776" in="00:57:08.883" out="00:57:11.000">
   <property name="kdenlive:id">686</property>
  </entry>
  <entry producer="producer776" in="00:57:12.617" out="00:57:15.333">
   <property name="kdenlive:id">686</property>
  </entry>
  <entry producer="producer776" in="00:57:22.033" out="00:57:24.283">
   <property name="kdenlive:id">686</property>
  </entry>
  <entry producer="producer776" in="00:58:12.183" out="00:58:17.017">
   <property name="kdenlive:id">686</property>
  </entry>
  <entry producer="producer776" in="01:00:59.967" out="01:01:06.583">
   <property name="kdenlive:id">686</property>
   <property name="kdenlive:activeeffect">0</property>
   <filter id="filter945">
    <property name="rotate_center">1</property>
    <property name="mlt_service">qtblend</property>
    <property name="kdenlive_id">qtblend</property>
    <property name="rect">01:00:59.967=0 0 1920 1080 1.000000;01:01:06.583=-48 -27 2016 1134 1.000000</property>
    <property name="rotation">01:00:59.967=0;01:01:06.583=0</property>
    <property name="compositing">0</property>
    <property name="distort">0</property>
    <property name="kdenlive:collapsed">0</property>
   </filter>
  </entry>
  <entry producer="producer776" in="01:06:37.933" out="01:06:39.233">
   <property name="kdenlive:id">686</property>
  </entry>
  <entry producer="producer776" in="01:06:39.250" out="01:06:40.100">
   <property name="kdenlive:id">686</property>
  </entry>
  <entry producer="producer776" in="01:06:40.117" out="01:06:40.733">
   <property name="kdenlive:id">686</property>
   <filter id="filter946">
    <property name="rotate_center">1</property>
    <property name="mlt_service">qtblend</property>
    <property name="kdenlive_id">qtblend</property>
    <property name="rect">01:06:40.117=-5280 -2811 7200 4050 1.000000</property>
    <property name="rotation">01:06:40.117=0</property>
    <property name="compositing">0</property>
    <property name="distort">0</property>
   </filter>
   <filter id="filter947">
    <property name="rotate_center">1</property>
    <property name="mlt_service">qtblend</property>
    <property name="kdenlive_id">qtblend</property>
    <property name="rect">01:06:40.117=0 0 1920 1080 1</property>
    <property name="rotation">01:06:40.117=0</property>
    <property name="compositing">0</property>
    <property name="distort">0</property>
   </filter>
  </entry>
  <entry producer="producer776" in="01:06:54.117" out="01:06:56.583">
   <property name="kdenlive:id">686</property>
  </entry>
  <entry producer="producer776" in="01:06:56.600" out="01:06:56.900">
   <property name="kdenlive:id">686</property>
   <filter id="filter948">
    <property name="rotate_center">1</property>
    <property name="mlt_service">qtblend</property>
    <property name="kdenlive_id">qtblend</property>
    <property name="rect">01:06:56.600=-5280 -2811 7200 4050 1.000000</property>
    <property name="rotation">01:06:56.600=0</property>
    <property name="compositing">0</property>
    <property name="distort">0</property>
    <property name="kdenlive:collapsed">1</property>
   </filter>
   <filter id="filter949">
    <property name="rotate_center">1</property>
    <property name="mlt_service">qtblend</property>
    <property name="kdenlive_id">qtblend</property>
    <property name="rect">01:06:56.600=-1213 -538 3168 1782 1.000000</property>
    <property name="rotation">01:06:56.600=0</property>
    <property name="compositing">0</property>
    <property name="distort">0</property>
    <property name="kdenlive:collapsed">1</property>
   </filter>
   <filter id="filter950">
    <property name="rotate_center">1</property>
    <property name="mlt_service">qtblend</property>
    <property name="kdenlive_id">qtblend</property>
    <property name="rect">01:06:56.600=-1500 0 3920 1080 1.000000</property>
    <property name="rotation">01:06:56.600=0</property>
    <property name="compositing">0</property>
    <property name="distort">1</property>
    <property name="kdenlive:collapsed">0</property>
   </filter>
  </entry>
  <entry producer="producer776" in="01:08:40.300" out="01:08:44.067">
   <property name="kdenlive:id">686</property>
  </entry>
  <entry producer="producer776" in="01:08:44.083" out="01:08:44.933">
   <property name="kdenlive:id">686</property>
   <filter id="filter951">
    <property name="rotate_center">1</property>
    <property name="mlt_service">qtblend</property>
    <property name="kdenlive_id">qtblend</property>
    <property name="rect">01:08:44.083=-5280 -2811 7200 4050 1.000000</property>
    <property name="rotation">01:08:44.083=0</property>
    <property name="compositing">0</property>
    <property name="distort">0</property>
   </filter>
   <filter id="filter952">
    <property name="rotate_center">1</property>
    <property name="mlt_service">qtblend</property>
    <property name="kdenlive_id">qtblend</property>
    <property name="rect">01:08:44.083=0 0 1920 1080 1</property>
    <property name="rotation">01:08:44.083=0</property>
    <property name="compositing">0</property>
    <property name="distort">0</property>
   </filter>
  </entry>
  <entry producer="producer776" in="01:08:49.467" out="01:08:50.333">
   <property name="kdenlive:id">686</property>
  </entry>
  <entry producer="producer776" in="01:09:29.483" out="01:09:33.683">
   <property name="kdenlive:id">686</property>
  </entry>
  <entry producer="producer776" in="01:09:39.967" out="01:09:42.050">
   <property name="kdenlive:id">686</property>
  </entry>
  <entry producer="producer776" in="01:10:59.867" out="01:11:05.950">
   <property name="kdenlive:id">686</property>
   <property name="kdenlive:activeeffect">0</property>
   <filter id="filter953">
    <property name="rotate_center">1</property>
    <property name="mlt_service">qtblend</property>
    <property name="kdenlive_id">qtblend</property>
    <property name="rect">01:10:59.867=0 0 1920 1080 1.000000;01:11:05.950=-48 -27 2016 1134 1.000000</property>
    <property name="rotation">01:10:59.867=0;01:11:05.950=0</property>
    <property name="compositing">0</property>
    <property name="distort">0</property>
    <property name="kdenlive:collapsed">0</property>
   </filter>
  </entry>
  <entry producer="producer776" in="01:11:07.583" out="01:11:09.433">
   <property name="kdenlive:id">686</property>
  </entry>
  <entry producer="producer776" in="01:12:38.533" out="01:12:41.900">
   <property name="kdenlive:id">686</property>
  </entry>
  <entry producer="producer776" in="01:14:32.200" out="01:14:34.250">
   <property name="kdenlive:id">686</property>
  </entry>
  <entry producer="producer776" in="01:16:42.617" out="01:16:45.233">
   <property name="kdenlive:id">686</property>
  </entry>
  <entry producer="producer776" in="01:16:55.883" out="01:16:56.267">
   <property name="kdenlive:id">686</property>
  </entry>
  <entry producer="producer776" in="01:16:56.583" out="01:17:00.000">
   <property name="kdenlive:id">686</property>
  </entry>
  <entry producer="producer776" in="01:17:00.250" out="01:17:03.017">
   <property name="kdenlive:id">686</property>
  </entry>
  <entry producer="producer776" in="01:32:32.900" out="01:32:41.333">
   <property name="kdenlive:id">686</property>
  </entry>
  <entry producer="producer776" in="01:33:58.967" out="01:33:59.600">
   <property name="kdenlive:id">686</property>
  </entry>
  <entry producer="producer776" in="01:34:00.800" out="01:34:02.017">
   <property name="kdenlive:id">686</property>
  </entry>
  <entry producer="producer776" in="01:35:16.617" out="01:35:17.433">
   <property name="kdenlive:id">686</property>
  </entry>
  <entry producer="producer776" in="01:39:46.517" out="01:39:51.117">
   <property name="kdenlive:id">686</property>
  </entry>
  <entry producer="producer776" in="01:40:14.467" out="01:40:18.950">
   <property name="kdenlive:id">686</property>
  </entry>
  <entry producer="producer776" in="01:40:47.300" out="01:40:51.733">
   <property name="kdenlive:id">686</property>
  </entry>
  <entry producer="producer776" in="01:40:57.133" out="01:40:58.433">
   <property name="kdenlive:id">686</property>
  </entry>
  <entry producer="producer776" in="01:43:34.600" out="01:43:36.133">
   <property name="kdenlive:id">686</property>
  </entry>
  <entry producer="producer776" in="01:44:00.433" out="01:44:09.900">
   <property name="kdenlive:id">686</property>
  </entry>
  <entry producer="producer776" in="01:44:29.400" out="01:44:31.433">
   <property name="kdenlive:id">686</property>
  </entry>
  <entry producer="producer776" in="01:44:53.733" out="01:44:55.117">
   <property name="kdenlive:id">686</property>
  </entry>
  <entry producer="producer776" in="01:44:55.133" out="01:44:56.517">
   <property name="kdenlive:id">686</property>
   <filter id="filter954">
    <property name="rotate_center">1</property>
    <property name="mlt_service">qtblend</property>
    <property name="kdenlive_id">qtblend</property>
    <property name="rect">01:44:55.133=-5280 -2811 7200 4050 1.000000</property>
    <property name="rotation">01:44:55.133=0</property>
    <property name="compositing">0</property>
    <property name="distort">0</property>
   </filter>
   <filter id="filter955">
    <property name="rotate_center">1</property>
    <property name="mlt_service">qtblend</property>
    <property name="kdenlive_id">qtblend</property>
    <property name="rect">01:44:55.133=0 0 1920 1080 1</property>
    <property name="rotation">01:44:55.133=0</property>
    <property name="compositing">0</property>
    <property name="distort">0</property>
   </filter>
  </entry>
  <entry producer="producer776" in="01:45:27.283" out="01:45:30.867">
   <property name="kdenlive:id">686</property>
  </entry>
  <entry producer="producer776" in="01:45:31.917" out="01:45:34.667">
   <property name="kdenlive:id">686</property>
  </entry>
  <entry producer="producer776" in="01:46:58.700" out="01:47:00.850">
   <property name="kdenlive:id">686</property>
  </entry>
  <entry producer="producer776" in="01:48:07.483" out="01:48:10.817">
   <property name="kdenlive:id">686</property>
  </entry>
  <entry producer="producer776" in="01:48:13.933" out="01:48:14.667">
   <property name="kdenlive:id">686</property>
  </entry>
  <entry producer="producer776" in="01:48:18.233" out="01:48:19.517">
   <property name="kdenlive:id">686</property>
   <filter id="filter956">
    <property name="rotate_center">1</property>
    <property name="mlt_service">qtblend</property>
    <property name="kdenlive_id">qtblend</property>
    <property name="rect">01:48:18.233=-528 -297 2976 1674 1.000000</property>
    <property name="rotation">01:48:18.233=0</property>
    <property name="compositing">0</property>
    <property name="distort">0</property>
    <property name="kdenlive:collapsed">0</property>
   </filter>
  </entry>
  <entry producer="producer776" in="01:48:33.950" out="01:48:36.117">
   <property name="kdenlive:id">686</property>
  </entry>
  <entry producer="producer776" in="01:48:39.183" out="01:48:40.050">
   <property name="kdenlive:id">686</property>
   <filter id="filter957">
    <property name="rotate_center">1</property>
    <property name="mlt_service">qtblend</property>
    <property name="kdenlive_id">qtblend</property>
    <property name="rect">01:48:39.183=-5280 -2811 7200 4050 1.000000</property>
    <property name="rotation">01:48:39.183=0</property>
    <property name="compositing">0</property>
    <property name="distort">0</property>
    <property name="kdenlive:collapsed">0</property>
   </filter>
   <filter id="filter958">
    <property name="rotate_center">1</property>
    <property name="mlt_service">qtblend</property>
    <property name="kdenlive_id">qtblend</property>
    <property name="rect">01:48:39.183=0 0 1920 1080 1</property>
    <property name="rotation">01:48:39.183=0</property>
    <property name="compositing">0</property>
    <property name="distort">0</property>
    <property name="kdenlive:collapsed">0</property>
   </filter>
  </entry>
  <entry producer="producer776" in="01:48:46.133" out="01:48:47.533">
   <property name="kdenlive:id">686</property>
  </entry>
  <entry producer="producer776" in="01:49:34.250" out="01:49:35.117">
   <property name="kdenlive:id">686</property>
  </entry>
  <entry producer="producer776" in="01:49:36.633" out="01:49:37.500">
   <property name="kdenlive:id">686</property>
  </entry>
  <entry producer="producer776" in="01:49:41.850" out="01:49:43.883">
   <property name="kdenlive:id">686</property>
  </entry>
 </playlist>
 <playlist id="playlist11"/>
 <tractor id="tractor5" in="00:00:00.000" out="00:26:57.600">
  <property name="kdenlive:trackheight">50</property>
  <property name="kdenlive:timeline_active">1</property>
  <property name="kdenlive:collapsed">0</property>
  <property name="kdenlive:thumbs_format"/>
  <property name="kdenlive:audio_rec"/>
  <track hide="audio" producer="playlist10"/>
  <track hide="audio" producer="playlist11"/>
 </tractor>
 <producer id="producer777" in="00:00:00.000" out="00:00:05.700">
  <property name="length">343</property>
  <property name="eof">pause</property>
  <property name="resource">/home/federico/Nextcloud/Kden/EditingUT/MemeFresh/ds2_meme.mkv</property>
  <property name="audio_index">1</property>
  <property name="video_index">0</property>
  <property name="mute_on_pause">0</property>
  <property name="mlt_service">avformat-novalidate</property>
  <property name="seekable">1</property>
  <property name="aspect_ratio">1</property>
  <property name="format">3</property>
  <property name="kdenlive:clipname"/>
  <property name="kdenlive:clip_type">0</property>
  <property name="kdenlive:folderid">31</property>
  <property name="kdenlive:id">671</property>
  <property name="kdenlive:file_size">6041318</property>
  <property name="kdenlive:file_hash">ece530c65b9f0b7077db86be936353a3</property>
  <property name="kdenlive:audio_max1">196</property>
  <property name="xml">was here</property>
  <property name="meta.media.nb_streams">2</property>
  <property name="meta.media.0.stream.type">video</property>
  <property name="meta.media.0.stream.frame_rate">60</property>
  <property name="meta.media.0.stream.sample_aspect_ratio">1</property>
  <property name="meta.media.0.codec.width">1920</property>
  <property name="meta.media.0.codec.height">1080</property>
  <property name="meta.media.0.codec.rotate">0</property>
  <property name="meta.media.0.codec.pix_fmt">yuv420p</property>
  <property name="meta.media.0.codec.sample_aspect_ratio">1</property>
  <property name="meta.media.0.codec.colorspace">709</property>
  <property name="meta.media.0.codec.color_trc">1</property>
  <property name="meta.media.0.codec.name">h264</property>
  <property name="meta.media.0.codec.long_name">H.264 / AVC / MPEG-4 AVC / MPEG-4 part 10</property>
  <property name="meta.media.0.codec.bit_rate">0</property>
  <property name="meta.attr.0.stream.DURATION.markup">00:00:05.705000000</property>
  <property name="meta.media.1.stream.type">audio</property>
  <property name="meta.media.1.codec.sample_fmt">fltp</property>
  <property name="meta.media.1.codec.sample_rate">48000</property>
  <property name="meta.media.1.codec.channels">2</property>
  <property name="meta.media.1.codec.name">aac</property>
  <property name="meta.media.1.codec.long_name">AAC (Advanced Audio Coding)</property>
  <property name="meta.media.1.codec.bit_rate">0</property>
  <property name="meta.attr.1.stream.DURATION.markup">00:00:05.717000000</property>
  <property name="meta.attr.ENCODER.markup">Lavf59.16.100</property>
  <property name="meta.media.sample_aspect_num">1</property>
  <property name="meta.media.sample_aspect_den">1</property>
  <property name="meta.media.frame_rate_num">60</property>
  <property name="meta.media.frame_rate_den">1</property>
  <property name="meta.media.colorspace">709</property>
  <property name="meta.media.color_trc">1</property>
  <property name="meta.media.has_b_frames">0</property>
  <property name="meta.media.width">1920</property>
  <property name="meta.media.height">1080</property>
  <property name="meta.media.color_range">mpeg</property>
  <property name="meta.media.top_field_first">0</property>
  <property name="meta.media.progressive">1</property>
  <property name="set.test_audio">1</property>
  <property name="set.test_image">0</property>
 </producer>
 <producer id="producer778" in="00:00:00.000" out="02:55:15.583">
  <property name="length">630938</property>
  <property name="eof">pause</property>
  <property name="resource">/home/federico/Videos/Edit/Kden/ProxyRender/proxy/fe0d51893463e6190634030c49539660.mov</property>
  <property name="audio_index">1</property>
  <property name="video_index">0</property>
  <property name="mute_on_pause">0</property>
  <property name="mlt_service">avformat-novalidate</property>
  <property name="meta.media.nb_streams">2</property>
  <property name="meta.media.0.stream.type">video</property>
  <property name="meta.media.0.stream.frame_rate">59.9401</property>
  <property name="meta.media.0.stream.sample_aspect_ratio">1</property>
  <property name="meta.media.0.codec.width">640</property>
  <property name="meta.media.0.codec.height">360</property>
  <property name="meta.media.0.codec.rotate">0</property>
  <property name="meta.media.0.codec.pix_fmt">yuv420p</property>
  <property name="meta.media.0.codec.sample_aspect_ratio">1</property>
  <property name="meta.media.0.codec.colorspace">709</property>
  <property name="meta.media.0.codec.color_trc">1</property>
  <property name="meta.media.0.codec.name">h264</property>
  <property name="meta.media.0.codec.long_name">H.264 / AVC / MPEG-4 AVC / MPEG-4 part 10</property>
  <property name="meta.media.0.codec.bit_rate">5355740</property>
  <property name="meta.attr.0.stream.handler_name.markup">ISO Media file produced by Google Inc.</property>
  <property name="meta.attr.0.stream.vendor_id.markup">FFMP</property>
  <property name="meta.attr.0.stream.encoder.markup">Lavc59.18.100 libx264</property>
  <property name="meta.media.1.stream.type">audio</property>
  <property name="meta.media.1.codec.sample_fmt">fltp</property>
  <property name="meta.media.1.codec.sample_rate">48000</property>
  <property name="meta.media.1.codec.channels">2</property>
  <property name="meta.media.1.codec.name">aac</property>
  <property name="meta.media.1.codec.long_name">AAC (Advanced Audio Coding)</property>
  <property name="meta.media.1.codec.bit_rate">128722</property>
  <property name="meta.attr.1.stream.language.markup">eng</property>
  <property name="meta.attr.1.stream.handler_name.markup">SoundHandler</property>
  <property name="meta.attr.1.stream.vendor_id.markup">[0][0][0][0]</property>
  <property name="meta.attr.major_brand.markup">qt  </property>
  <property name="meta.attr.minor_version.markup">512</property>
  <property name="meta.attr.compatible_brands.markup">qt  </property>
  <property name="meta.attr.encoder.markup">Lavf59.16.100</property>
  <property name="seekable">1</property>
  <property name="meta.media.sample_aspect_num">1</property>
  <property name="meta.media.sample_aspect_den">1</property>
  <property name="aspect_ratio">1</property>
  <property name="format">3</property>
  <property name="kdenlive:clipname">1 - iudex hit - dark souls iii cinders  anima della sfida ii 1.mkv</property>
  <property name="kdenlive:clip_type">0</property>
  <property name="kdenlive:folderid">4</property>
  <property name="kdenlive:id">679</property>
  <property name="kdenlive:file_size">2828126290</property>
  <property name="kdenlive:file_hash">fe0d51893463e6190634030c49539660</property>
  <property name="kdenlive:audio_max1">212</property>
  <property name="kdenlive:proxy">/home/federico/Videos/Edit/Kden/ProxyRender/proxy/fe0d51893463e6190634030c49539660.mov</property>
  <property name="kdenlive:originalurl">/home/federico/Videos/Edit/Projects/DS3_cinders/5-Stream/1 - iudex hit - dark souls iii cinders  anima della sfida ii 1.mkv</property>
  <property name="kdenlive:original.mlt_type">producer</property>
  <property name="kdenlive:original.in">00:00:00.000</property>
  <property name="kdenlive:original.out">02:55:15.617</property>
  <property name="kdenlive:original.length">630938</property>
  <property name="kdenlive:original.eof">pause</property>
  <property name="kdenlive:original.resource">/home/federico/Videos/Edit/Projects/DS3_cinders/5-Stream/1 - iudex hit - dark souls iii cinders  anima della sfida ii 1.mkv</property>
  <property name="kdenlive:original.meta.media.nb_streams">2</property>
  <property name="kdenlive:original.meta.media.0.stream.type">video</property>
  <property name="kdenlive:original.meta.media.0.stream.frame_rate">59.9401</property>
  <property name="kdenlive:original.meta.media.0.stream.sample_aspect_ratio">0</property>
  <property name="kdenlive:original.meta.media.0.codec.width">1920</property>
  <property name="kdenlive:original.meta.media.0.codec.height">1080</property>
  <property name="kdenlive:original.meta.media.0.codec.rotate">0</property>
  <property name="kdenlive:original.meta.media.0.codec.pix_fmt">yuv420p</property>
  <property name="kdenlive:original.meta.media.0.codec.sample_aspect_ratio">0</property>
  <property name="kdenlive:original.meta.media.0.codec.colorspace">709</property>
  <property name="kdenlive:original.meta.media.0.codec.color_trc">1</property>
  <property name="kdenlive:original.meta.media.0.codec.name">libdav1d</property>
  <property name="kdenlive:original.meta.media.0.codec.long_name">dav1d AV1 decoder by VideoLAN</property>
  <property name="kdenlive:original.meta.media.0.codec.bit_rate">0</property>
  <property name="kdenlive:original.meta.attr.0.stream.HANDLER_NAME.markup">ISO Media file produced by Google Inc.</property>
  <property name="kdenlive:original.meta.attr.0.stream.VENDOR_ID.markup">[0][0][0][0]</property>
  <property name="kdenlive:original.meta.attr.0.stream.DURATION.markup">02:55:15.589000000</property>
  <property name="kdenlive:original.meta.media.1.stream.type">audio</property>
  <property name="kdenlive:original.meta.media.1.codec.sample_fmt">fltp</property>
  <property name="kdenlive:original.meta.media.1.codec.sample_rate">48000</property>
  <property name="kdenlive:original.meta.media.1.codec.channels">2</property>
  <property name="kdenlive:original.meta.media.1.codec.name">opus</property>
  <property name="kdenlive:original.meta.media.1.codec.long_name">Opus</property>
  <property name="kdenlive:original.meta.media.1.codec.bit_rate">0</property>
  <property name="kdenlive:original.meta.attr.1.stream.language.markup">eng</property>
  <property name="kdenlive:original.meta.attr.1.stream.DURATION.markup">02:55:15.628000000</property>
  <property name="kdenlive:original.meta.attr.COMPATIBLE_BRANDS.markup">iso6av01mp41</property>
  <property name="kdenlive:original.meta.attr.MAJOR_BRAND.markup">dash</property>
  <property name="kdenlive:original.meta.attr.MINOR_VERSION.markup">0</property>
  <property name="kdenlive:original.meta.attr.ENCODER.markup">Lavf60.16.100</property>
  <property name="kdenlive:original.seekable">1</property>
  <property name="kdenlive:original.width">1920</property>
  <property name="kdenlive:original.height">1080</property>
  <property name="kdenlive:original.meta.media.sample_aspect_num">1</property>
  <property name="kdenlive:original.meta.media.sample_aspect_den">1</property>
  <property name="kdenlive:original.aspect_ratio">1</property>
  <property name="kdenlive:original.format">3</property>
  <property name="kdenlive:original.audio_index">1</property>
  <property name="kdenlive:original.video_index">0</property>
  <property name="kdenlive:original.mute_on_pause">0</property>
  <property name="kdenlive:original.mlt_service">avformat-novalidate</property>
  <property name="kdenlive:original.meta.media.frame_rate_num">60000</property>
  <property name="kdenlive:original.meta.media.frame_rate_den">1001</property>
  <property name="kdenlive:original.meta.media.colorspace">709</property>
  <property name="kdenlive:original.meta.media.color_trc">1</property>
  <property name="kdenlive:original.meta.media.has_b_frames">0</property>
  <property name="kdenlive:original.meta.media.width">1920</property>
  <property name="kdenlive:original.meta.media.height">1080</property>
  <property name="kdenlive:original.meta.media.color_range">mpeg</property>
  <property name="kdenlive:original.meta.media.top_field_first">0</property>
  <property name="kdenlive:original.meta.media.progressive">1</property>
  <property name="kdenlive:original.kdenlive:clip_type">0</property>
  <property name="kdenlive:original.kdenlive:folderid">4</property>
  <property name="kdenlive:original.kdenlive:id">679</property>
  <property name="kdenlive:original.kdenlive:file_size">2828126290</property>
  <property name="kdenlive:original.kdenlive:file_hash">fe0d51893463e6190634030c49539660</property>
  <property name="kdenlive:original.kdenlive:audio_max1">212</property>
  <property name="kdenlive:original.backup">1</property>
  <property name="xml">was here</property>
  <property name="meta.media.frame_rate_num">19001</property>
  <property name="meta.media.frame_rate_den">317</property>
  <property name="meta.media.colorspace">709</property>
  <property name="meta.media.color_trc">1</property>
  <property name="meta.media.has_b_frames">0</property>
  <property name="meta.media.width">640</property>
  <property name="meta.media.height">360</property>
  <property name="meta.media.color_range">mpeg</property>
  <property name="meta.media.top_field_first">0</property>
  <property name="meta.media.progressive">1</property>
  <property name="set.test_audio">1</property>
  <property name="set.test_image">0</property>
 </producer>
 <producer id="producer779" in="00:00:00.000" out="00:00:01.383">
  <property name="length">84</property>
  <property name="eof">pause</property>
  <property name="resource">/home/federico/Nextcloud/Kden/EditingUT/Video/Spongebob/spongebob  my eyes!!!.mkv</property>
  <property name="audio_index">1</property>
  <property name="video_index">0</property>
  <property name="mute_on_pause">0</property>
  <property name="mlt_service">avformat-novalidate</property>
  <property name="seekable">1</property>
  <property name="aspect_ratio">1</property>
  <property name="format">3</property>
  <property name="kdenlive:clipname"/>
  <property name="kdenlive:clip_type">0</property>
  <property name="kdenlive:folderid">640</property>
  <property name="kdenlive:id">649</property>
  <property name="kdenlive:file_size">62411</property>
  <property name="kdenlive:file_hash">7fb3253645fab096b19412d757f51d72</property>
  <property name="kdenlive:audio_max1">113</property>
  <property name="xml">was here</property>
  <property name="meta.media.nb_streams">2</property>
  <property name="meta.media.0.stream.type">video</property>
  <property name="meta.media.0.stream.frame_rate">29.97</property>
  <property name="meta.media.0.stream.sample_aspect_ratio">0</property>
  <property name="meta.media.0.codec.width">530</property>
  <property name="meta.media.0.codec.height">360</property>
  <property name="meta.media.0.codec.rotate">0</property>
  <property name="meta.media.0.codec.pix_fmt">yuv420p</property>
  <property name="meta.media.0.codec.sample_aspect_ratio">0</property>
  <property name="meta.media.0.codec.colorspace">709</property>
  <property name="meta.media.0.codec.color_trc">1</property>
  <property name="meta.media.0.codec.name">h264</property>
  <property name="meta.media.0.codec.long_name">H.264 / AVC / MPEG-4 AVC / MPEG-4 part 10</property>
  <property name="meta.media.0.codec.bit_rate">0</property>
  <property name="meta.attr.0.stream.HANDLER_NAME.markup">ISO Media file produced by Google Inc. Created on: 06/24/2023.</property>
  <property name="meta.attr.0.stream.VENDOR_ID.markup">[0][0][0][0]</property>
  <property name="meta.attr.0.stream.ENCODER.markup">Lavc60.31.102 libx264</property>
  <property name="meta.attr.0.stream.DURATION.markup">00:00:01.337000000</property>
  <property name="meta.media.1.stream.type">audio</property>
  <property name="meta.media.1.codec.sample_fmt">fltp</property>
  <property name="meta.media.1.codec.sample_rate">44100</property>
  <property name="meta.media.1.codec.channels">2</property>
  <property name="meta.media.1.codec.name">vorbis</property>
  <property name="meta.media.1.codec.long_name">Vorbis</property>
  <property name="meta.media.1.codec.bit_rate">0</property>
  <property name="meta.attr.1.stream.HANDLER_NAME.markup">ISO Media file produced by Google Inc.</property>
  <property name="meta.attr.1.stream.VENDOR_ID.markup">[0][0][0][0]</property>
  <property name="meta.attr.1.stream.ENCODER.markup">Lavc60.31.102 libvorbis</property>
  <property name="meta.attr.1.stream.DURATION.markup">00:00:01.396000000</property>
  <property name="meta.attr.COMPATIBLE_BRANDS.markup">isomiso2mp41</property>
  <property name="meta.attr.MAJOR_BRAND.markup">isom</property>
  <property name="meta.attr.MINOR_VERSION.markup">512</property>
  <property name="meta.attr.ENCODER.markup">Lavf60.16.100</property>
  <property name="meta.media.sample_aspect_num">1</property>
  <property name="meta.media.sample_aspect_den">1</property>
  <property name="meta.media.frame_rate_num">30000</property>
  <property name="meta.media.frame_rate_den">1001</property>
  <property name="meta.media.colorspace">709</property>
  <property name="meta.media.color_trc">1</property>
  <property name="meta.media.has_b_frames">2</property>
  <property name="meta.media.width">530</property>
  <property name="meta.media.height">360</property>
  <property name="meta.media.color_range">mpeg</property>
  <property name="meta.media.top_field_first">0</property>
  <property name="meta.media.progressive">1</property>
  <property name="set.test_audio">1</property>
  <property name="set.test_image">0</property>
 </producer>
 <producer id="producer780" in="00:00:00.000" out="02:50:28.900">
  <property name="length">613736</property>
  <property name="eof">pause</property>
  <property name="resource">/home/federico/Videos/Edit/Kden/ProxyRender/proxy/f6918f2d79882f9391f2f765ac219be5.mov</property>
  <property name="audio_index">1</property>
  <property name="video_index">0</property>
  <property name="mute_on_pause">0</property>
  <property name="mlt_service">avformat-novalidate</property>
  <property name="meta.media.nb_streams">2</property>
  <property name="meta.media.0.stream.type">video</property>
  <property name="meta.media.0.stream.frame_rate">60</property>
  <property name="meta.media.0.stream.sample_aspect_ratio">1</property>
  <property name="meta.media.0.codec.width">640</property>
  <property name="meta.media.0.codec.height">360</property>
  <property name="meta.media.0.codec.rotate">0</property>
  <property name="meta.media.0.codec.pix_fmt">yuv420p</property>
  <property name="meta.media.0.codec.sample_aspect_ratio">1</property>
  <property name="meta.media.0.codec.colorspace">709</property>
  <property name="meta.media.0.codec.color_trc">1</property>
  <property name="meta.media.0.codec.name">h264</property>
  <property name="meta.media.0.codec.long_name">H.264 / AVC / MPEG-4 AVC / MPEG-4 part 10</property>
  <property name="meta.media.0.codec.bit_rate">5791824</property>
  <property name="meta.attr.0.stream.handler_name.markup">ISO Media file produced by Google Inc.</property>
  <property name="meta.attr.0.stream.vendor_id.markup">FFMP</property>
  <property name="meta.attr.0.stream.encoder.markup">Lavc59.18.100 libx264</property>
  <property name="meta.media.1.stream.type">audio</property>
  <property name="meta.media.1.codec.sample_fmt">fltp</property>
  <property name="meta.media.1.codec.sample_rate">48000</property>
  <property name="meta.media.1.codec.channels">2</property>
  <property name="meta.media.1.codec.name">aac</property>
  <property name="meta.media.1.codec.long_name">AAC (Advanced Audio Coding)</property>
  <property name="meta.media.1.codec.bit_rate">128878</property>
  <property name="meta.attr.1.stream.language.markup">eng</property>
  <property name="meta.attr.1.stream.handler_name.markup">SoundHandler</property>
  <property name="meta.attr.1.stream.vendor_id.markup">[0][0][0][0]</property>
  <property name="meta.attr.major_brand.markup">qt  </property>
  <property name="meta.attr.minor_version.markup">512</property>
  <property name="meta.attr.compatible_brands.markup">qt  </property>
  <property name="meta.attr.encoder.markup">Lavf59.16.100</property>
  <property name="seekable">1</property>
  <property name="meta.media.sample_aspect_num">1</property>
  <property name="meta.media.sample_aspect_den">1</property>
  <property name="aspect_ratio">1</property>
  <property name="format">3</property>
  <property name="kdenlive:clipname">2 - mod of chaos - dark souls iii cinders  anima della sfida ii 2.mkv</property>
  <property name="kdenlive:clip_type">0</property>
  <property name="kdenlive:folderid">4</property>
  <property name="kdenlive:id">680</property>
  <property name="kdenlive:file_size">3761357757</property>
  <property name="kdenlive:file_hash">f6918f2d79882f9391f2f765ac219be5</property>
  <property name="kdenlive:proxy">/home/federico/Videos/Edit/Kden/ProxyRender/proxy/f6918f2d79882f9391f2f765ac219be5.mov</property>
  <property name="kdenlive:originalurl">/home/federico/Videos/Edit/Projects/DS3_cinders/5-Stream/2 - mod of chaos - dark souls iii cinders  anima della sfida ii 2.mkv</property>
  <property name="kdenlive:original.mlt_type">producer</property>
  <property name="kdenlive:original.in">00:00:00.000</property>
  <property name="kdenlive:original.out">02:50:28.917</property>
  <property name="kdenlive:original.length">613736</property>
  <property name="kdenlive:original.eof">pause</property>
  <property name="kdenlive:original.resource">/home/federico/Videos/Edit/Projects/DS3_cinders/5-Stream/2 - mod of chaos - dark souls iii cinders  anima della sfida ii 2.mkv</property>
  <property name="kdenlive:original.meta.media.nb_streams">2</property>
  <property name="kdenlive:original.meta.media.0.stream.type">video</property>
  <property name="kdenlive:original.meta.media.0.stream.frame_rate">60</property>
  <property name="kdenlive:original.meta.media.0.stream.sample_aspect_ratio">0</property>
  <property name="kdenlive:original.meta.media.0.codec.width">1920</property>
  <property name="kdenlive:original.meta.media.0.codec.height">1080</property>
  <property name="kdenlive:original.meta.media.0.codec.rotate">0</property>
  <property name="kdenlive:original.meta.media.0.codec.pix_fmt">yuv420p</property>
  <property name="kdenlive:original.meta.media.0.codec.sample_aspect_ratio">0</property>
  <property name="kdenlive:original.meta.media.0.codec.colorspace">709</property>
  <property name="kdenlive:original.meta.media.0.codec.color_trc">1</property>
  <property name="kdenlive:original.meta.media.0.codec.name">libdav1d</property>
  <property name="kdenlive:original.meta.media.0.codec.long_name">dav1d AV1 decoder by VideoLAN</property>
  <property name="kdenlive:original.meta.media.0.codec.bit_rate">0</property>
  <property name="kdenlive:original.meta.attr.0.stream.HANDLER_NAME.markup">ISO Media file produced by Google Inc.</property>
  <property name="kdenlive:original.meta.attr.0.stream.VENDOR_ID.markup">[0][0][0][0]</property>
  <property name="kdenlive:original.meta.attr.0.stream.DURATION.markup">02:50:28.900000000</property>
  <property name="kdenlive:original.meta.media.1.stream.type">audio</property>
  <property name="kdenlive:original.meta.media.1.codec.sample_fmt">fltp</property>
  <property name="kdenlive:original.meta.media.1.codec.sample_rate">48000</property>
  <property name="kdenlive:original.meta.media.1.codec.channels">2</property>
  <property name="kdenlive:original.meta.media.1.codec.name">opus</property>
  <property name="kdenlive:original.meta.media.1.codec.long_name">Opus</property>
  <property name="kdenlive:original.meta.media.1.codec.bit_rate">0</property>
  <property name="kdenlive:original.meta.attr.1.stream.language.markup">eng</property>
  <property name="kdenlive:original.meta.attr.1.stream.DURATION.markup">02:50:28.928000000</property>
  <property name="kdenlive:original.meta.attr.COMPATIBLE_BRANDS.markup">iso6av01mp41</property>
  <property name="kdenlive:original.meta.attr.MAJOR_BRAND.markup">dash</property>
  <property name="kdenlive:original.meta.attr.MINOR_VERSION.markup">0</property>
  <property name="kdenlive:original.meta.attr.ENCODER.markup">Lavf60.16.100</property>
  <property name="kdenlive:original.seekable">1</property>
  <property name="kdenlive:original.width">1920</property>
  <property name="kdenlive:original.height">1080</property>
  <property name="kdenlive:original.meta.media.sample_aspect_num">1</property>
  <property name="kdenlive:original.meta.media.sample_aspect_den">1</property>
  <property name="kdenlive:original.aspect_ratio">1</property>
  <property name="kdenlive:original.format">3</property>
  <property name="kdenlive:original.audio_index">1</property>
  <property name="kdenlive:original.video_index">0</property>
  <property name="kdenlive:original.mute_on_pause">0</property>
  <property name="kdenlive:original.mlt_service">avformat-novalidate</property>
  <property name="kdenlive:original.meta.media.frame_rate_num">60</property>
  <property name="kdenlive:original.meta.media.frame_rate_den">1</property>
  <property name="kdenlive:original.meta.media.colorspace">709</property>
  <property name="kdenlive:original.meta.media.color_trc">1</property>
  <property name="kdenlive:original.meta.media.has_b_frames">0</property>
  <property name="kdenlive:original.meta.media.width">1920</property>
  <property name="kdenlive:original.meta.media.height">1080</property>
  <property name="kdenlive:original.meta.media.color_range">mpeg</property>
  <property name="kdenlive:original.meta.media.top_field_first">0</property>
  <property name="kdenlive:original.meta.media.progressive">1</property>
  <property name="kdenlive:original.kdenlive:clip_type">0</property>
  <property name="kdenlive:original.kdenlive:folderid">4</property>
  <property name="kdenlive:original.kdenlive:id">680</property>
  <property name="kdenlive:original.kdenlive:file_size">3761357757</property>
  <property name="kdenlive:original.kdenlive:file_hash">f6918f2d79882f9391f2f765ac219be5</property>
  <property name="kdenlive:original.backup">1</property>
  <property name="kdenlive:audio_max1">206</property>
  <property name="xml">was here</property>
  <property name="meta.media.frame_rate_num">60</property>
  <property name="meta.media.frame_rate_den">1</property>
  <property name="meta.media.colorspace">709</property>
  <property name="meta.media.color_trc">1</property>
  <property name="meta.media.has_b_frames">0</property>
  <property name="meta.media.width">640</property>
  <property name="meta.media.height">360</property>
  <property name="meta.media.color_range">mpeg</property>
  <property name="meta.media.top_field_first">0</property>
  <property name="meta.media.progressive">1</property>
  <property name="set.test_audio">1</property>
  <property name="set.test_image">0</property>
 </producer>
 <producer id="producer781" in="00:00:00.000" out="19:02:13.500">
  <property name="length">4112031</property>
  <property name="eof">pause</property>
  <property name="resource">0.149254:/home/federico/Videos/Edit/Kden/ProxyRender/proxy/f6918f2d79882f9391f2f765ac219be5.mov</property>
  <property name="aspect_ratio">1</property>
  <property name="meta.media.nb_streams">2</property>
  <property name="meta.media.0.stream.type">video</property>
  <property name="meta.media.0.stream.frame_rate">60</property>
  <property name="meta.media.0.stream.sample_aspect_ratio">1</property>
  <property name="meta.media.0.codec.width">640</property>
  <property name="meta.media.0.codec.height">360</property>
  <property name="meta.media.0.codec.rotate">0</property>
  <property name="meta.media.0.codec.pix_fmt">yuv420p</property>
  <property name="meta.media.0.codec.sample_aspect_ratio">1</property>
  <property name="meta.media.0.codec.colorspace">709</property>
  <property name="meta.media.0.codec.color_trc">1</property>
  <property name="meta.media.0.codec.name">h264</property>
  <property name="meta.media.0.codec.long_name">H.264 / AVC / MPEG-4 AVC / MPEG-4 part 10</property>
  <property name="meta.media.0.codec.bit_rate">5791824</property>
  <property name="meta.attr.0.stream.handler_name.markup">ISO Media file produced by Google Inc.</property>
  <property name="meta.attr.0.stream.vendor_id.markup">FFMP</property>
  <property name="meta.attr.0.stream.encoder.markup">Lavc59.18.100 libx264</property>
  <property name="meta.media.1.stream.type">audio</property>
  <property name="meta.media.1.codec.sample_fmt">fltp</property>
  <property name="meta.media.1.codec.sample_rate">48000</property>
  <property name="meta.media.1.codec.channels">2</property>
  <property name="meta.media.1.codec.name">aac</property>
  <property name="meta.media.1.codec.long_name">AAC (Advanced Audio Coding)</property>
  <property name="meta.media.1.codec.bit_rate">128878</property>
  <property name="meta.attr.1.stream.language.markup">eng</property>
  <property name="meta.attr.1.stream.handler_name.markup">SoundHandler</property>
  <property name="meta.attr.1.stream.vendor_id.markup">[0][0][0][0]</property>
  <property name="meta.attr.major_brand.markup">qt  </property>
  <property name="meta.attr.minor_version.markup">512</property>
  <property name="meta.attr.compatible_brands.markup">qt  </property>
  <property name="meta.attr.encoder.markup">Lavf59.16.100</property>
  <property name="seekable">1</property>
  <property name="meta.media.sample_aspect_num">1</property>
  <property name="meta.media.sample_aspect_den">1</property>
  <property name="audio_index">1</property>
  <property name="video_index">0</property>
  <property name="mute_on_pause">1</property>
  <property name="warp_speed">0.149254</property>
  <property name="warp_resource">/home/federico/Videos/Edit/Kden/ProxyRender/proxy/f6918f2d79882f9391f2f765ac219be5.mov</property>
  <property name="mlt_service">timewarp</property>
  <property name="kdenlive:proxy">/home/federico/Videos/Edit/Kden/ProxyRender/proxy/f6918f2d79882f9391f2f765ac219be5.mov</property>
  <property name="kdenlive:originalurl">/home/federico/Videos/Edit/Projects/DS3_cinders/5-Stream/2 - mod of chaos - dark souls iii cinders  anima della sfida ii 2.mkv</property>
  <property name="set.test_audio">1</property>
  <property name="set.test_image">0</property>
  <property name="kdenlive:id">680</property>
  <property name="warp_pitch">0</property>
  <property name="meta.media.frame_rate_num">60</property>
  <property name="meta.media.frame_rate_den">1</property>
  <property name="meta.media.colorspace">709</property>
  <property name="meta.media.color_trc">1</property>
  <property name="meta.media.has_b_frames">0</property>
  <property name="meta.media.width">640</property>
  <property name="meta.media.height">360</property>
  <property name="meta.media.color_range">mpeg</property>
  <property name="meta.media.top_field_first">0</property>
  <property name="meta.media.progressive">1</property>
 </producer>
 <producer id="producer782" in="00:00:00.000" out="02:11:32.800">
  <property name="length">473570</property>
  <property name="eof">pause</property>
  <property name="resource">/home/federico/Videos/Edit/Kden/ProxyRender/proxy/e297f2e0f7ae15f1f6c3e6c7a3b137c7.mov</property>
  <property name="audio_index">1</property>
  <property name="video_index">0</property>
  <property name="mute_on_pause">0</property>
  <property name="mlt_service">avformat-novalidate</property>
  <property name="meta.media.nb_streams">2</property>
  <property name="meta.media.0.stream.type">video</property>
  <property name="meta.media.0.stream.frame_rate">59.9401</property>
  <property name="meta.media.0.stream.sample_aspect_ratio">1</property>
  <property name="meta.media.0.codec.width">640</property>
  <property name="meta.media.0.codec.height">360</property>
  <property name="meta.media.0.codec.rotate">0</property>
  <property name="meta.media.0.codec.pix_fmt">yuv420p</property>
  <property name="meta.media.0.codec.sample_aspect_ratio">1</property>
  <property name="meta.media.0.codec.colorspace">709</property>
  <property name="meta.media.0.codec.color_trc">1</property>
  <property name="meta.media.0.codec.name">h264</property>
  <property name="meta.media.0.codec.long_name">H.264 / AVC / MPEG-4 AVC / MPEG-4 part 10</property>
  <property name="meta.media.0.codec.bit_rate">5565045</property>
  <property name="meta.attr.0.stream.handler_name.markup">ISO Media file produced by Google Inc.</property>
  <property name="meta.attr.0.stream.vendor_id.markup">FFMP</property>
  <property name="meta.attr.0.stream.encoder.markup">Lavc59.18.100 libx264</property>
  <property name="meta.media.1.stream.type">audio</property>
  <property name="meta.media.1.codec.sample_fmt">fltp</property>
  <property name="meta.media.1.codec.sample_rate">48000</property>
  <property name="meta.media.1.codec.channels">2</property>
  <property name="meta.media.1.codec.name">aac</property>
  <property name="meta.media.1.codec.long_name">AAC (Advanced Audio Coding)</property>
  <property name="meta.media.1.codec.bit_rate">128838</property>
  <property name="meta.attr.1.stream.language.markup">eng</property>
  <property name="meta.attr.1.stream.handler_name.markup">SoundHandler</property>
  <property name="meta.attr.1.stream.vendor_id.markup">[0][0][0][0]</property>
  <property name="meta.attr.major_brand.markup">qt  </property>
  <property name="meta.attr.minor_version.markup">512</property>
  <property name="meta.attr.compatible_brands.markup">qt  </property>
  <property name="meta.attr.encoder.markup">Lavf59.16.100</property>
  <property name="seekable">1</property>
  <property name="meta.media.sample_aspect_num">1</property>
  <property name="meta.media.sample_aspect_den">1</property>
  <property name="aspect_ratio">1</property>
  <property name="format">3</property>
  <property name="kdenlive:clipname">3 - dark souls iii cinders  anima della sfida ii 3.mkv</property>
  <property name="kdenlive:clip_type">0</property>
  <property name="kdenlive:folderid">4</property>
  <property name="kdenlive:id">681</property>
  <property name="kdenlive:file_size">3370680153</property>
  <property name="kdenlive:file_hash">e297f2e0f7ae15f1f6c3e6c7a3b137c7</property>
  <property name="kdenlive:proxy">/home/federico/Videos/Edit/Kden/ProxyRender/proxy/e297f2e0f7ae15f1f6c3e6c7a3b137c7.mov</property>
  <property name="kdenlive:originalurl">/home/federico/Videos/Edit/Projects/DS3_cinders/5-Stream/3 - dark souls iii cinders  anima della sfida ii 3.mkv</property>
  <property name="kdenlive:original.mlt_type">producer</property>
  <property name="kdenlive:original.in">00:00:00.000</property>
  <property name="kdenlive:original.out">02:11:32.817</property>
  <property name="kdenlive:original.length">473570</property>
  <property name="kdenlive:original.eof">pause</property>
  <property name="kdenlive:original.resource">/home/federico/Videos/Edit/Projects/DS3_cinders/5-Stream/3 - dark souls iii cinders  anima della sfida ii 3.mkv</property>
  <property name="kdenlive:original.meta.media.nb_streams">2</property>
  <property name="kdenlive:original.meta.media.0.stream.type">video</property>
  <property name="kdenlive:original.meta.media.0.stream.frame_rate">59.9401</property>
  <property name="kdenlive:original.meta.media.0.stream.sample_aspect_ratio">0</property>
  <property name="kdenlive:original.meta.media.0.codec.width">1920</property>
  <property name="kdenlive:original.meta.media.0.codec.height">1080</property>
  <property name="kdenlive:original.meta.media.0.codec.rotate">0</property>
  <property name="kdenlive:original.meta.media.0.codec.pix_fmt">yuv420p</property>
  <property name="kdenlive:original.meta.media.0.codec.sample_aspect_ratio">0</property>
  <property name="kdenlive:original.meta.media.0.codec.colorspace">709</property>
  <property name="kdenlive:original.meta.media.0.codec.color_trc">1</property>
  <property name="kdenlive:original.meta.media.0.codec.name">libdav1d</property>
  <property name="kdenlive:original.meta.media.0.codec.long_name">dav1d AV1 decoder by VideoLAN</property>
  <property name="kdenlive:original.meta.media.0.codec.bit_rate">0</property>
  <property name="kdenlive:original.meta.attr.0.stream.HANDLER_NAME.markup">ISO Media file produced by Google Inc.</property>
  <property name="kdenlive:original.meta.attr.0.stream.VENDOR_ID.markup">[0][0][0][0]</property>
  <property name="kdenlive:original.meta.attr.0.stream.DURATION.markup">02:11:32.802000000</property>
  <property name="kdenlive:original.meta.media.1.stream.type">audio</property>
  <property name="kdenlive:original.meta.media.1.codec.sample_fmt">fltp</property>
  <property name="kdenlive:original.meta.media.1.codec.sample_rate">48000</property>
  <property name="kdenlive:original.meta.media.1.codec.channels">2</property>
  <property name="kdenlive:original.meta.media.1.codec.name">opus</property>
  <property name="kdenlive:original.meta.media.1.codec.long_name">Opus</property>
  <property name="kdenlive:original.meta.media.1.codec.bit_rate">0</property>
  <property name="kdenlive:original.meta.attr.1.stream.language.markup">eng</property>
  <property name="kdenlive:original.meta.attr.1.stream.DURATION.markup">02:11:32.828000000</property>
  <property name="kdenlive:original.meta.attr.COMPATIBLE_BRANDS.markup">iso6av01mp41</property>
  <property name="kdenlive:original.meta.attr.MAJOR_BRAND.markup">dash</property>
  <property name="kdenlive:original.meta.attr.MINOR_VERSION.markup">0</property>
  <property name="kdenlive:original.meta.attr.ENCODER.markup">Lavf60.16.100</property>
  <property name="kdenlive:original.seekable">1</property>
  <property name="kdenlive:original.width">1920</property>
  <property name="kdenlive:original.height">1080</property>
  <property name="kdenlive:original.meta.media.sample_aspect_num">1</property>
  <property name="kdenlive:original.meta.media.sample_aspect_den">1</property>
  <property name="kdenlive:original.aspect_ratio">1</property>
  <property name="kdenlive:original.format">3</property>
  <property name="kdenlive:original.audio_index">1</property>
  <property name="kdenlive:original.video_index">0</property>
  <property name="kdenlive:original.mute_on_pause">0</property>
  <property name="kdenlive:original.mlt_service">avformat-novalidate</property>
  <property name="kdenlive:original.meta.media.frame_rate_num">60000</property>
  <property name="kdenlive:original.meta.media.frame_rate_den">1001</property>
  <property name="kdenlive:original.meta.media.colorspace">709</property>
  <property name="kdenlive:original.meta.media.color_trc">1</property>
  <property name="kdenlive:original.meta.media.has_b_frames">0</property>
  <property name="kdenlive:original.meta.media.width">1920</property>
  <property name="kdenlive:original.meta.media.height">1080</property>
  <property name="kdenlive:original.meta.media.color_range">mpeg</property>
  <property name="kdenlive:original.meta.media.top_field_first">0</property>
  <property name="kdenlive:original.meta.media.progressive">1</property>
  <property name="kdenlive:original.kdenlive:clip_type">0</property>
  <property name="kdenlive:original.kdenlive:folderid">4</property>
  <property name="kdenlive:original.kdenlive:id">681</property>
  <property name="kdenlive:original.kdenlive:file_size">3370680153</property>
  <property name="kdenlive:original.kdenlive:file_hash">e297f2e0f7ae15f1f6c3e6c7a3b137c7</property>
  <property name="kdenlive:original.backup">1</property>
  <property name="kdenlive:audio_max1">203</property>
  <property name="xml">was here</property>
  <property name="meta.media.frame_rate_num">19001</property>
  <property name="meta.media.frame_rate_den">317</property>
  <property name="meta.media.colorspace">709</property>
  <property name="meta.media.color_trc">1</property>
  <property name="meta.media.has_b_frames">0</property>
  <property name="meta.media.width">640</property>
  <property name="meta.media.height">360</property>
  <property name="meta.media.color_range">mpeg</property>
  <property name="meta.media.top_field_first">0</property>
  <property name="meta.media.progressive">1</property>
  <property name="set.test_audio">1</property>
  <property name="set.test_image">0</property>
 </producer>
 <producer id="producer783" in="00:00:00.000" out="00:00:10.383">
  <property name="length">624</property>
  <property name="eof">pause</property>
  <property name="resource">/home/federico/Nextcloud/Kden/EditingUT/Video/GreenScreen/to be continued  green screen.mkv</property>
  <property name="audio_index">1</property>
  <property name="video_index">0</property>
  <property name="mute_on_pause">0</property>
  <property name="mlt_service">avformat-novalidate</property>
  <property name="seekable">1</property>
  <property name="aspect_ratio">1</property>
  <property name="format">3</property>
  <property name="kdenlive:clipname"/>
  <property name="kdenlive:clip_type">0</property>
  <property name="kdenlive:folderid">511</property>
  <property name="kdenlive:id">563</property>
  <property name="kdenlive:file_size">250515</property>
  <property name="kdenlive:file_hash">64d9d8a1b3579be879565348bd3db58e</property>
  <property name="kdenlive:audio_max1">207</property>
  <property name="kdenlive:zone_in">198</property>
  <property name="kdenlive:zone_out">624</property>
  <property name="xml">was here</property>
  <property name="meta.media.nb_streams">2</property>
  <property name="meta.media.0.stream.type">video</property>
  <property name="meta.media.0.stream.frame_rate">59.9401</property>
  <property name="meta.media.0.stream.sample_aspect_ratio">1</property>
  <property name="meta.media.0.codec.width">1920</property>
  <property name="meta.media.0.codec.height">1080</property>
  <property name="meta.media.0.codec.rotate">0</property>
  <property name="meta.media.0.codec.pix_fmt">yuv420p</property>
  <property name="meta.media.0.codec.sample_aspect_ratio">1</property>
  <property name="meta.media.0.codec.colorspace">709</property>
  <property name="meta.media.0.codec.color_trc">1</property>
  <property name="meta.media.0.codec.name">h264</property>
  <property name="meta.media.0.codec.long_name">H.264 / AVC / MPEG-4 AVC / MPEG-4 part 10</property>
  <property name="meta.media.0.codec.bit_rate">0</property>
  <property name="meta.attr.0.stream.HANDLER_NAME.markup">ISO Media file produced by Google Inc.</property>
  <property name="meta.attr.0.stream.VENDOR_ID.markup">[0][0][0][0]</property>
  <property name="meta.attr.0.stream.ENCODER.markup">Lavc60.31.102 libx264</property>
  <property name="meta.attr.0.stream.DURATION.markup">00:00:10.347000000</property>
  <property name="meta.media.1.stream.type">audio</property>
  <property name="meta.media.1.codec.sample_fmt">fltp</property>
  <property name="meta.media.1.codec.sample_rate">44100</property>
  <property name="meta.media.1.codec.channels">2</property>
  <property name="meta.media.1.codec.name">vorbis</property>
  <property name="meta.media.1.codec.long_name">Vorbis</property>
  <property name="meta.media.1.codec.bit_rate">0</property>
  <property name="meta.attr.1.stream.HANDLER_NAME.markup">ISO Media file produced by Google Inc.</property>
  <property name="meta.attr.1.stream.VENDOR_ID.markup">[0][0][0][0]</property>
  <property name="meta.attr.1.stream.ENCODER.markup">Lavc60.31.102 libvorbis</property>
  <property name="meta.attr.1.stream.DURATION.markup">00:00:10.405000000</property>
  <property name="meta.attr.COMPATIBLE_BRANDS.markup">isomiso2avc1mp41</property>
  <property name="meta.attr.MAJOR_BRAND.markup">isom</property>
  <property name="meta.attr.MINOR_VERSION.markup">512</property>
  <property name="meta.attr.ENCODER.markup">Lavf60.16.100</property>
  <property name="meta.media.sample_aspect_num">1</property>
  <property name="meta.media.sample_aspect_den">1</property>
  <property name="meta.media.frame_rate_num">60000</property>
  <property name="meta.media.frame_rate_den">1001</property>
  <property name="meta.media.colorspace">709</property>
  <property name="meta.media.color_trc">1</property>
  <property name="meta.media.has_b_frames">2</property>
  <property name="meta.media.width">1920</property>
  <property name="meta.media.height">1080</property>
  <property name="meta.media.color_range">mpeg</property>
  <property name="meta.media.top_field_first">0</property>
  <property name="meta.media.progressive">1</property>
  <property name="set.test_audio">1</property>
  <property name="set.test_image">0</property>
 </producer>
 <producer id="producer784" in="00:00:00.000" out="02:31:23.133">
  <property name="length">544990</property>
  <property name="eof">pause</property>
  <property name="resource">/home/federico/Videos/Edit/Kden/ProxyRender/proxy/ca27a9d972c9214920a1b80c39287441.mov</property>
  <property name="audio_index">1</property>
  <property name="video_index">0</property>
  <property name="mute_on_pause">0</property>
  <property name="mlt_service">avformat-novalidate</property>
  <property name="seekable">1</property>
  <property name="aspect_ratio">1</property>
  <property name="format">3</property>
  <property name="kdenlive:clipname">4 - sleep issue - dark souls iii cinders  anima della sfida ii 4.mkv</property>
  <property name="kdenlive:clip_type">0</property>
  <property name="kdenlive:folderid">4</property>
  <property name="kdenlive:id">682</property>
  <property name="kdenlive:file_size">3681493931</property>
  <property name="kdenlive:file_hash">ca27a9d972c9214920a1b80c39287441</property>
  <property name="kdenlive:proxy">/home/federico/Videos/Edit/Kden/ProxyRender/proxy/ca27a9d972c9214920a1b80c39287441.mov</property>
  <property name="kdenlive:originalurl">/home/federico/Videos/Edit/Projects/DS3_cinders/5-Stream/4 - sleep issue - dark souls iii cinders  anima della sfida ii 4.mkv</property>
  <property name="kdenlive:original.mlt_type">producer</property>
  <property name="kdenlive:original.in">00:00:00.000</property>
  <property name="kdenlive:original.out">02:31:23.150</property>
  <property name="kdenlive:original.length">544990</property>
  <property name="kdenlive:original.eof">pause</property>
  <property name="kdenlive:original.resource">/home/federico/Videos/Edit/Projects/DS3_cinders/5-Stream/4 - sleep issue - dark souls iii cinders  anima della sfida ii 4.mkv</property>
  <property name="kdenlive:original.meta.media.nb_streams">2</property>
  <property name="kdenlive:original.meta.media.0.stream.type">video</property>
  <property name="kdenlive:original.meta.media.0.stream.frame_rate">60</property>
  <property name="kdenlive:original.meta.media.0.stream.sample_aspect_ratio">1</property>
  <property name="kdenlive:original.meta.media.0.codec.width">1920</property>
  <property name="kdenlive:original.meta.media.0.codec.height">1080</property>
  <property name="kdenlive:original.meta.media.0.codec.rotate">0</property>
  <property name="kdenlive:original.meta.media.0.codec.pix_fmt">yuv420p</property>
  <property name="kdenlive:original.meta.media.0.codec.sample_aspect_ratio">0</property>
  <property name="kdenlive:original.meta.media.0.codec.colorspace">709</property>
  <property name="kdenlive:original.meta.media.0.codec.color_trc">1</property>
  <property name="kdenlive:original.meta.media.0.codec.name">vp9</property>
  <property name="kdenlive:original.meta.media.0.codec.long_name">Google VP9</property>
  <property name="kdenlive:original.meta.media.0.codec.bit_rate">0</property>
  <property name="kdenlive:original.meta.attr.0.stream.language.markup">eng</property>
  <property name="kdenlive:original.meta.attr.0.stream.DURATION.markup">02:31:23.116000000</property>
  <property name="kdenlive:original.meta.media.1.stream.type">audio</property>
  <property name="kdenlive:original.meta.media.1.codec.sample_fmt">fltp</property>
  <property name="kdenlive:original.meta.media.1.codec.sample_rate">48000</property>
  <property name="kdenlive:original.meta.media.1.codec.channels">2</property>
  <property name="kdenlive:original.meta.media.1.codec.name">opus</property>
  <property name="kdenlive:original.meta.media.1.codec.long_name">Opus</property>
  <property name="kdenlive:original.meta.media.1.codec.bit_rate">0</property>
  <property name="kdenlive:original.meta.attr.1.stream.language.markup">eng</property>
  <property name="kdenlive:original.meta.attr.1.stream.DURATION.markup">02:31:23.168000000</property>
  <property name="kdenlive:original.meta.attr.ENCODER.markup">Lavf60.16.100</property>
  <property name="kdenlive:original.seekable">1</property>
  <property name="kdenlive:original.width">1920</property>
  <property name="kdenlive:original.height">1080</property>
  <property name="kdenlive:original.meta.media.sample_aspect_num">1</property>
  <property name="kdenlive:original.meta.media.sample_aspect_den">1</property>
  <property name="kdenlive:original.aspect_ratio">1</property>
  <property name="kdenlive:original.format">3</property>
  <property name="kdenlive:original.audio_index">1</property>
  <property name="kdenlive:original.video_index">0</property>
  <property name="kdenlive:original.mute_on_pause">0</property>
  <property name="kdenlive:original.mlt_service">avformat-novalidate</property>
  <property name="kdenlive:original.meta.media.frame_rate_num">60</property>
  <property name="kdenlive:original.meta.media.frame_rate_den">1</property>
  <property name="kdenlive:original.meta.media.colorspace">709</property>
  <property name="kdenlive:original.meta.media.color_trc">1</property>
  <property name="kdenlive:original.meta.media.has_b_frames">0</property>
  <property name="kdenlive:original.meta.media.width">1920</property>
  <property name="kdenlive:original.meta.media.height">1080</property>
  <property name="kdenlive:original.meta.media.color_range">mpeg</property>
  <property name="kdenlive:original.meta.media.top_field_first">0</property>
  <property name="kdenlive:original.meta.media.progressive">1</property>
  <property name="kdenlive:original.kdenlive:clip_type">0</property>
  <property name="kdenlive:original.kdenlive:folderid">4</property>
  <property name="kdenlive:original.kdenlive:id">682</property>
  <property name="kdenlive:original.kdenlive:file_size">3681493931</property>
  <property name="kdenlive:original.kdenlive:file_hash">ca27a9d972c9214920a1b80c39287441</property>
  <property name="kdenlive:original.backup">1</property>
  <property name="kdenlive:audio_max1">205</property>
  <property name="xml">was here</property>
  <property name="meta.media.nb_streams">2</property>
  <property name="meta.media.0.stream.type">video</property>
  <property name="meta.media.0.stream.frame_rate">60</property>
  <property name="meta.media.0.stream.sample_aspect_ratio">1</property>
  <property name="meta.media.0.codec.width">640</property>
  <property name="meta.media.0.codec.height">360</property>
  <property name="meta.media.0.codec.rotate">0</property>
  <property name="meta.media.0.codec.pix_fmt">yuv420p</property>
  <property name="meta.media.0.codec.sample_aspect_ratio">1</property>
  <property name="meta.media.0.codec.colorspace">709</property>
  <property name="meta.media.0.codec.color_trc">1</property>
  <property name="meta.media.0.codec.name">h264</property>
  <property name="meta.media.0.codec.long_name">H.264 / AVC / MPEG-4 AVC / MPEG-4 part 10</property>
  <property name="meta.media.0.codec.bit_rate">5391916</property>
  <property name="meta.attr.0.stream.language.markup">eng</property>
  <property name="meta.attr.0.stream.handler_name.markup">VideoHandler</property>
  <property name="meta.attr.0.stream.vendor_id.markup">FFMP</property>
  <property name="meta.attr.0.stream.encoder.markup">Lavc59.18.100 libx264</property>
  <property name="meta.media.1.stream.type">audio</property>
  <property name="meta.media.1.codec.sample_fmt">fltp</property>
  <property name="meta.media.1.codec.sample_rate">48000</property>
  <property name="meta.media.1.codec.channels">2</property>
  <property name="meta.media.1.codec.name">aac</property>
  <property name="meta.media.1.codec.long_name">AAC (Advanced Audio Coding)</property>
  <property name="meta.media.1.codec.bit_rate">129930</property>
  <property name="meta.attr.1.stream.language.markup">eng</property>
  <property name="meta.attr.1.stream.handler_name.markup">SoundHandler</property>
  <property name="meta.attr.1.stream.vendor_id.markup">[0][0][0][0]</property>
  <property name="meta.attr.major_brand.markup">qt  </property>
  <property name="meta.attr.minor_version.markup">512</property>
  <property name="meta.attr.compatible_brands.markup">qt  </property>
  <property name="meta.attr.encoder.markup">Lavf59.16.100</property>
  <property name="meta.media.sample_aspect_num">1</property>
  <property name="meta.media.sample_aspect_den">1</property>
  <property name="meta.media.frame_rate_num">60</property>
  <property name="meta.media.frame_rate_den">1</property>
  <property name="meta.media.colorspace">709</property>
  <property name="meta.media.color_trc">1</property>
  <property name="meta.media.has_b_frames">0</property>
  <property name="meta.media.width">640</property>
  <property name="meta.media.height">360</property>
  <property name="meta.media.color_range">mpeg</property>
  <property name="meta.media.top_field_first">0</property>
  <property name="meta.media.progressive">1</property>
  <property name="set.test_audio">1</property>
  <property name="set.test_image">0</property>
 </producer>
 <producer id="producer785" in="00:00:00.000" out="02:31:23.133">
  <property name="length">544990</property>
  <property name="eof">pause</property>
  <property name="resource">/home/federico/Videos/Edit/Kden/ProxyRender/proxy/ca27a9d972c9214920a1b80c39287441.mov</property>
  <property name="audio_index">1</property>
  <property name="video_index">0</property>
  <property name="mute_on_pause">0</property>
  <property name="mlt_service">avformat-novalidate</property>
  <property name="seekable">1</property>
  <property name="aspect_ratio">1</property>
  <property name="format">3</property>
  <property name="kdenlive:clipname">4 - sleep issue - dark souls iii cinders  anima della sfida ii 4.mkv</property>
  <property name="kdenlive:clip_type">0</property>
  <property name="kdenlive:folderid">4</property>
  <property name="kdenlive:id">682</property>
  <property name="kdenlive:file_size">3681493931</property>
  <property name="kdenlive:file_hash">ca27a9d972c9214920a1b80c39287441</property>
  <property name="kdenlive:proxy">/home/federico/Videos/Edit/Kden/ProxyRender/proxy/ca27a9d972c9214920a1b80c39287441.mov</property>
  <property name="kdenlive:originalurl">/home/federico/Videos/Edit/Projects/DS3_cinders/5-Stream/4 - sleep issue - dark souls iii cinders  anima della sfida ii 4.mkv</property>
  <property name="kdenlive:original.mlt_type">producer</property>
  <property name="kdenlive:original.in">00:00:00.000</property>
  <property name="kdenlive:original.out">02:31:23.150</property>
  <property name="kdenlive:original.length">544990</property>
  <property name="kdenlive:original.eof">pause</property>
  <property name="kdenlive:original.resource">/home/federico/Videos/Edit/Projects/DS3_cinders/5-Stream/4 - sleep issue - dark souls iii cinders  anima della sfida ii 4.mkv</property>
  <property name="kdenlive:original.meta.media.nb_streams">2</property>
  <property name="kdenlive:original.meta.media.0.stream.type">video</property>
  <property name="kdenlive:original.meta.media.0.stream.frame_rate">60</property>
  <property name="kdenlive:original.meta.media.0.stream.sample_aspect_ratio">1</property>
  <property name="kdenlive:original.meta.media.0.codec.width">1920</property>
  <property name="kdenlive:original.meta.media.0.codec.height">1080</property>
  <property name="kdenlive:original.meta.media.0.codec.rotate">0</property>
  <property name="kdenlive:original.meta.media.0.codec.pix_fmt">yuv420p</property>
  <property name="kdenlive:original.meta.media.0.codec.sample_aspect_ratio">0</property>
  <property name="kdenlive:original.meta.media.0.codec.colorspace">709</property>
  <property name="kdenlive:original.meta.media.0.codec.color_trc">1</property>
  <property name="kdenlive:original.meta.media.0.codec.name">vp9</property>
  <property name="kdenlive:original.meta.media.0.codec.long_name">Google VP9</property>
  <property name="kdenlive:original.meta.media.0.codec.bit_rate">0</property>
  <property name="kdenlive:original.meta.attr.0.stream.language.markup">eng</property>
  <property name="kdenlive:original.meta.attr.0.stream.DURATION.markup">02:31:23.116000000</property>
  <property name="kdenlive:original.meta.media.1.stream.type">audio</property>
  <property name="kdenlive:original.meta.media.1.codec.sample_fmt">fltp</property>
  <property name="kdenlive:original.meta.media.1.codec.sample_rate">48000</property>
  <property name="kdenlive:original.meta.media.1.codec.channels">2</property>
  <property name="kdenlive:original.meta.media.1.codec.name">opus</property>
  <property name="kdenlive:original.meta.media.1.codec.long_name">Opus</property>
  <property name="kdenlive:original.meta.media.1.codec.bit_rate">0</property>
  <property name="kdenlive:original.meta.attr.1.stream.language.markup">eng</property>
  <property name="kdenlive:original.meta.attr.1.stream.DURATION.markup">02:31:23.168000000</property>
  <property name="kdenlive:original.meta.attr.ENCODER.markup">Lavf60.16.100</property>
  <property name="kdenlive:original.seekable">1</property>
  <property name="kdenlive:original.width">1920</property>
  <property name="kdenlive:original.height">1080</property>
  <property name="kdenlive:original.meta.media.sample_aspect_num">1</property>
  <property name="kdenlive:original.meta.media.sample_aspect_den">1</property>
  <property name="kdenlive:original.aspect_ratio">1</property>
  <property name="kdenlive:original.format">3</property>
  <property name="kdenlive:original.audio_index">1</property>
  <property name="kdenlive:original.video_index">0</property>
  <property name="kdenlive:original.mute_on_pause">0</property>
  <property name="kdenlive:original.mlt_service">avformat-novalidate</property>
  <property name="kdenlive:original.meta.media.frame_rate_num">60</property>
  <property name="kdenlive:original.meta.media.frame_rate_den">1</property>
  <property name="kdenlive:original.meta.media.colorspace">709</property>
  <property name="kdenlive:original.meta.media.color_trc">1</property>
  <property name="kdenlive:original.meta.media.has_b_frames">0</property>
  <property name="kdenlive:original.meta.media.width">1920</property>
  <property name="kdenlive:original.meta.media.height">1080</property>
  <property name="kdenlive:original.meta.media.color_range">mpeg</property>
  <property name="kdenlive:original.meta.media.top_field_first">0</property>
  <property name="kdenlive:original.meta.media.progressive">1</property>
  <property name="kdenlive:original.kdenlive:clip_type">0</property>
  <property name="kdenlive:original.kdenlive:folderid">4</property>
  <property name="kdenlive:original.kdenlive:id">682</property>
  <property name="kdenlive:original.kdenlive:file_size">3681493931</property>
  <property name="kdenlive:original.kdenlive:file_hash">ca27a9d972c9214920a1b80c39287441</property>
  <property name="kdenlive:original.backup">1</property>
  <property name="kdenlive:audio_max1">205</property>
  <property name="xml">was here</property>
  <property name="meta.media.nb_streams">2</property>
  <property name="meta.media.0.stream.type">video</property>
  <property name="meta.media.0.stream.frame_rate">60</property>
  <property name="meta.media.0.stream.sample_aspect_ratio">1</property>
  <property name="meta.media.0.codec.width">640</property>
  <property name="meta.media.0.codec.height">360</property>
  <property name="meta.media.0.codec.rotate">0</property>
  <property name="meta.media.0.codec.pix_fmt">yuv420p</property>
  <property name="meta.media.0.codec.sample_aspect_ratio">1</property>
  <property name="meta.media.0.codec.colorspace">709</property>
  <property name="meta.media.0.codec.color_trc">1</property>
  <property name="meta.media.0.codec.name">h264</property>
  <property name="meta.media.0.codec.long_name">H.264 / AVC / MPEG-4 AVC / MPEG-4 part 10</property>
  <property name="meta.media.0.codec.bit_rate">5391916</property>
  <property name="meta.attr.0.stream.language.markup">eng</property>
  <property name="meta.attr.0.stream.handler_name.markup">VideoHandler</property>
  <property name="meta.attr.0.stream.vendor_id.markup">FFMP</property>
  <property name="meta.attr.0.stream.encoder.markup">Lavc59.18.100 libx264</property>
  <property name="meta.media.1.stream.type">audio</property>
  <property name="meta.media.1.codec.sample_fmt">fltp</property>
  <property name="meta.media.1.codec.sample_rate">48000</property>
  <property name="meta.media.1.codec.channels">2</property>
  <property name="meta.media.1.codec.name">aac</property>
  <property name="meta.media.1.codec.long_name">AAC (Advanced Audio Coding)</property>
  <property name="meta.media.1.codec.bit_rate">129930</property>
  <property name="meta.attr.1.stream.language.markup">eng</property>
  <property name="meta.attr.1.stream.handler_name.markup">SoundHandler</property>
  <property name="meta.attr.1.stream.vendor_id.markup">[0][0][0][0]</property>
  <property name="meta.attr.major_brand.markup">qt  </property>
  <property name="meta.attr.minor_version.markup">512</property>
  <property name="meta.attr.compatible_brands.markup">qt  </property>
  <property name="meta.attr.encoder.markup">Lavf59.16.100</property>
  <property name="meta.media.sample_aspect_num">1</property>
  <property name="meta.media.sample_aspect_den">1</property>
  <property name="meta.media.frame_rate_num">60</property>
  <property name="meta.media.frame_rate_den">1</property>
  <property name="meta.media.colorspace">709</property>
  <property name="meta.media.color_trc">1</property>
  <property name="meta.media.has_b_frames">0</property>
  <property name="meta.media.width">640</property>
  <property name="meta.media.height">360</property>
  <property name="meta.media.color_range">mpeg</property>
  <property name="meta.media.top_field_first">0</property>
  <property name="meta.media.progressive">1</property>
  <property name="set.test_audio">1</property>
  <property name="set.test_image">0</property>
 </producer>
 <producer id="producer786" in="00:00:00.000" out="00:00:05.633">
  <property name="length">339</property>
  <property name="eof">pause</property>
  <property name="resource">/home/federico/Nextcloud/Kden/EditingUT/MemeFresh/troll face smiling meme template.mkv</property>
  <property name="audio_index">1</property>
  <property name="video_index">0</property>
  <property name="mute_on_pause">0</property>
  <property name="mlt_service">avformat-novalidate</property>
  <property name="seekable">1</property>
  <property name="aspect_ratio">1</property>
  <property name="format">3</property>
  <property name="kdenlive:clipname"/>
  <property name="kdenlive:clip_type">0</property>
  <property name="kdenlive:folderid">31</property>
  <property name="kdenlive:id">54</property>
  <property name="kdenlive:file_size">4464917</property>
  <property name="kdenlive:file_hash">2cf7e6929a529c4637fe5faa7b980a3c</property>
  <property name="kdenlive:audio_max1">154</property>
  <property name="kdenlive:zone_in">16</property>
  <property name="kdenlive:zone_out">35</property>
  <property name="xml">was here</property>
  <property name="meta.media.nb_streams">2</property>
  <property name="meta.media.0.stream.type">video</property>
  <property name="meta.media.0.stream.frame_rate">60</property>
  <property name="meta.media.0.stream.sample_aspect_ratio">1</property>
  <property name="meta.media.0.codec.width">1920</property>
  <property name="meta.media.0.codec.height">1080</property>
  <property name="meta.media.0.codec.rotate">0</property>
  <property name="meta.media.0.codec.pix_fmt">yuv420p</property>
  <property name="meta.media.0.codec.sample_aspect_ratio">1</property>
  <property name="meta.media.0.codec.colorspace">709</property>
  <property name="meta.media.0.codec.color_trc">1</property>
  <property name="meta.media.0.codec.name">h264</property>
  <property name="meta.media.0.codec.long_name">H.264 / AVC / MPEG-4 AVC / MPEG-4 part 10</property>
  <property name="meta.media.0.codec.bit_rate">0</property>
  <property name="meta.attr.0.stream.DURATION.markup">00:00:05.638000000</property>
  <property name="meta.media.1.stream.type">audio</property>
  <property name="meta.media.1.codec.sample_fmt">fltp</property>
  <property name="meta.media.1.codec.sample_rate">48000</property>
  <property name="meta.media.1.codec.channels">2</property>
  <property name="meta.media.1.codec.name">aac</property>
  <property name="meta.media.1.codec.long_name">AAC (Advanced Audio Coding)</property>
  <property name="meta.media.1.codec.bit_rate">0</property>
  <property name="meta.attr.1.stream.DURATION.markup">00:00:05.653000000</property>
  <property name="meta.attr.ENCODER.markup">Lavf59.16.100</property>
  <property name="meta.media.sample_aspect_num">1</property>
  <property name="meta.media.sample_aspect_den">1</property>
  <property name="meta.media.frame_rate_num">60</property>
  <property name="meta.media.frame_rate_den">1</property>
  <property name="meta.media.colorspace">709</property>
  <property name="meta.media.color_trc">1</property>
  <property name="meta.media.has_b_frames">0</property>
  <property name="meta.media.width">1920</property>
  <property name="meta.media.height">1080</property>
  <property name="meta.media.color_range">mpeg</property>
  <property name="meta.media.top_field_first">0</property>
  <property name="meta.media.progressive">1</property>
  <property name="set.test_audio">1</property>
  <property name="set.test_image">0</property>
 </producer>
 <producer id="producer787" in="00:00:00.000" out="00:00:05.350">
  <property name="length">322</property>
  <property name="eof">pause</property>
  <property name="resource">/home/federico/Nextcloud/Kden/EditingUT/Video/bsod blue screen of death meme_error_windows.mkv</property>
  <property name="audio_index">1</property>
  <property name="video_index">0</property>
  <property name="mute_on_pause">0</property>
  <property name="mlt_service">avformat-novalidate</property>
  <property name="seekable">1</property>
  <property name="aspect_ratio">1</property>
  <property name="format">3</property>
  <property name="kdenlive:clipname"/>
  <property name="kdenlive:clip_type">0</property>
  <property name="kdenlive:folderid">407</property>
  <property name="kdenlive:id">412</property>
  <property name="kdenlive:file_size">275773</property>
  <property name="kdenlive:file_hash">711951f668033a9e300e8531e78eb20a</property>
  <property name="kdenlive:audio_max1">252</property>
  <property name="xml">was here</property>
  <property name="meta.media.nb_streams">2</property>
  <property name="meta.media.0.stream.type">video</property>
  <property name="meta.media.0.stream.frame_rate">30</property>
  <property name="meta.media.0.stream.sample_aspect_ratio">1</property>
  <property name="meta.media.0.codec.width">852</property>
  <property name="meta.media.0.codec.height">480</property>
  <property name="meta.media.0.codec.rotate">0</property>
  <property name="meta.media.0.codec.pix_fmt">yuv420p</property>
  <property name="meta.media.0.codec.sample_aspect_ratio">1</property>
  <property name="meta.media.0.codec.colorspace">709</property>
  <property name="meta.media.0.codec.color_trc">1</property>
  <property name="meta.media.0.codec.name">h264</property>
  <property name="meta.media.0.codec.long_name">H.264 / AVC / MPEG-4 AVC / MPEG-4 part 10</property>
  <property name="meta.media.0.codec.bit_rate">0</property>
  <property name="meta.attr.0.stream.HANDLER_NAME.markup">ISO Media file produced by Google Inc.</property>
  <property name="meta.attr.0.stream.VENDOR_ID.markup">[0][0][0][0]</property>
  <property name="meta.attr.0.stream.ENCODER.markup">Lavc60.31.102 libx264</property>
  <property name="meta.attr.0.stream.DURATION.markup">00:00:05.236000000</property>
  <property name="meta.media.1.stream.type">audio</property>
  <property name="meta.media.1.codec.sample_fmt">fltp</property>
  <property name="meta.media.1.codec.sample_rate">44100</property>
  <property name="meta.media.1.codec.channels">2</property>
  <property name="meta.media.1.codec.name">vorbis</property>
  <property name="meta.media.1.codec.long_name">Vorbis</property>
  <property name="meta.media.1.codec.bit_rate">0</property>
  <property name="meta.attr.1.stream.HANDLER_NAME.markup">ISO Media file produced by Google Inc.</property>
  <property name="meta.attr.1.stream.VENDOR_ID.markup">[0][0][0][0]</property>
  <property name="meta.attr.1.stream.ENCODER.markup">Lavc60.31.102 libvorbis</property>
  <property name="meta.attr.1.stream.DURATION.markup">00:00:05.367000000</property>
  <property name="meta.attr.COMPATIBLE_BRANDS.markup">isomiso2avc1mp41</property>
  <property name="meta.attr.MAJOR_BRAND.markup">isom</property>
  <property name="meta.attr.MINOR_VERSION.markup">512</property>
  <property name="meta.attr.ENCODER.markup">Lavf60.16.100</property>
  <property name="meta.media.sample_aspect_num">1</property>
  <property name="meta.media.sample_aspect_den">1</property>
  <property name="meta.media.frame_rate_num">30</property>
  <property name="meta.media.frame_rate_den">1</property>
  <property name="meta.media.colorspace">709</property>
  <property name="meta.media.color_trc">1</property>
  <property name="meta.media.has_b_frames">2</property>
  <property name="meta.media.width">852</property>
  <property name="meta.media.height">480</property>
  <property name="meta.media.color_range">mpeg</property>
  <property name="meta.media.top_field_first">0</property>
  <property name="meta.media.progressive">1</property>
  <property name="set.test_audio">1</property>
  <property name="set.test_image">0</property>
 </producer>
 <producer id="producer788" in="00:00:00.000" out="02:27:56.617">
  <property name="length">532598</property>
  <property name="eof">pause</property>
  <property name="resource">/home/federico/Videos/Edit/Kden/ProxyRender/proxy/fa2e21925daa2aa504e340903ed9d0c2.mov</property>
  <property name="audio_index">1</property>
  <property name="video_index">0</property>
  <property name="mute_on_pause">0</property>
  <property name="mlt_service">avformat-novalidate</property>
  <property name="seekable">1</property>
  <property name="aspect_ratio">1</property>
  <property name="format">3</property>
  <property name="kdenlive:clipname"/>
  <property name="kdenlive:clip_type">0</property>
  <property name="kdenlive:folderid">4</property>
  <property name="kdenlive:id">683</property>
  <property name="kdenlive:file_size">3890870258</property>
  <property name="kdenlive:file_hash">fa2e21925daa2aa504e340903ed9d0c2</property>
  <property name="kdenlive:proxy">/home/federico/Videos/Edit/Kden/ProxyRender/proxy/fa2e21925daa2aa504e340903ed9d0c2.mov</property>
  <property name="kdenlive:originalurl">/home/federico/Videos/Edit/Projects/DS3_cinders/5-Stream/5 - difesa - dark souls iii cinders  anima della sfida ii 5.mkv</property>
  <property name="kdenlive:original.mlt_type">producer</property>
  <property name="kdenlive:original.in">00:00:00.000</property>
  <property name="kdenlive:original.out">02:27:56.617</property>
  <property name="kdenlive:original.length">532598</property>
  <property name="kdenlive:original.eof">pause</property>
  <property name="kdenlive:original.resource">/home/federico/Videos/Edit/Projects/DS3_cinders/5-Stream/5 - difesa - dark souls iii cinders  anima della sfida ii 5.mkv</property>
  <property name="kdenlive:original.meta.media.nb_streams">2</property>
  <property name="kdenlive:original.meta.media.0.stream.type">video</property>
  <property name="kdenlive:original.meta.media.0.stream.frame_rate">60</property>
  <property name="kdenlive:original.meta.media.0.stream.sample_aspect_ratio">1</property>
  <property name="kdenlive:original.meta.media.0.codec.width">1920</property>
  <property name="kdenlive:original.meta.media.0.codec.height">1080</property>
  <property name="kdenlive:original.meta.media.0.codec.rotate">0</property>
  <property name="kdenlive:original.meta.media.0.codec.pix_fmt">yuv420p</property>
  <property name="kdenlive:original.meta.media.0.codec.sample_aspect_ratio">0</property>
  <property name="kdenlive:original.meta.media.0.codec.colorspace">709</property>
  <property name="kdenlive:original.meta.media.0.codec.color_trc">1</property>
  <property name="kdenlive:original.meta.media.0.codec.name">vp9</property>
  <property name="kdenlive:original.meta.media.0.codec.long_name">Google VP9</property>
  <property name="kdenlive:original.meta.media.0.codec.bit_rate">0</property>
  <property name="kdenlive:original.meta.attr.0.stream.language.markup">eng</property>
  <property name="kdenlive:original.meta.attr.0.stream.DURATION.markup">02:27:56.599000000</property>
  <property name="kdenlive:original.meta.media.1.stream.type">audio</property>
  <property name="kdenlive:original.meta.media.1.codec.sample_fmt">fltp</property>
  <property name="kdenlive:original.meta.media.1.codec.sample_rate">48000</property>
  <property name="kdenlive:original.meta.media.1.codec.channels">2</property>
  <property name="kdenlive:original.meta.media.1.codec.name">opus</property>
  <property name="kdenlive:original.meta.media.1.codec.long_name">Opus</property>
  <property name="kdenlive:original.meta.media.1.codec.bit_rate">0</property>
  <property name="kdenlive:original.meta.attr.1.stream.language.markup">eng</property>
  <property name="kdenlive:original.meta.attr.1.stream.DURATION.markup">02:27:56.628000000</property>
  <property name="kdenlive:original.meta.attr.ENCODER.markup">Lavf60.16.100</property>
  <property name="kdenlive:original.seekable">1</property>
  <property name="kdenlive:original.width">1920</property>
  <property name="kdenlive:original.height">1080</property>
  <property name="kdenlive:original.meta.media.sample_aspect_num">1</property>
  <property name="kdenlive:original.meta.media.sample_aspect_den">1</property>
  <property name="kdenlive:original.aspect_ratio">1</property>
  <property name="kdenlive:original.format">3</property>
  <property name="kdenlive:original.audio_index">1</property>
  <property name="kdenlive:original.video_index">0</property>
  <property name="kdenlive:original.mute_on_pause">0</property>
  <property name="kdenlive:original.mlt_service">avformat-novalidate</property>
  <property name="kdenlive:original.meta.media.frame_rate_num">60</property>
  <property name="kdenlive:original.meta.media.frame_rate_den">1</property>
  <property name="kdenlive:original.meta.media.colorspace">709</property>
  <property name="kdenlive:original.meta.media.color_trc">1</property>
  <property name="kdenlive:original.meta.media.has_b_frames">0</property>
  <property name="kdenlive:original.meta.media.width">1920</property>
  <property name="kdenlive:original.meta.media.height">1080</property>
  <property name="kdenlive:original.meta.media.color_range">mpeg</property>
  <property name="kdenlive:original.meta.media.top_field_first">0</property>
  <property name="kdenlive:original.meta.media.progressive">1</property>
  <property name="kdenlive:original.kdenlive:clip_type">0</property>
  <property name="kdenlive:original.kdenlive:folderid">4</property>
  <property name="kdenlive:original.kdenlive:id">683</property>
  <property name="kdenlive:original.kdenlive:file_size">3890870258</property>
  <property name="kdenlive:original.kdenlive:file_hash">fa2e21925daa2aa504e340903ed9d0c2</property>
  <property name="kdenlive:original.backup">1</property>
  <property name="kdenlive:audio_max1">195</property>
  <property name="xml">was here</property>
  <property name="meta.media.nb_streams">2</property>
  <property name="meta.media.0.stream.type">video</property>
  <property name="meta.media.0.stream.frame_rate">60</property>
  <property name="meta.media.0.stream.sample_aspect_ratio">1</property>
  <property name="meta.media.0.codec.width">640</property>
  <property name="meta.media.0.codec.height">360</property>
  <property name="meta.media.0.codec.rotate">0</property>
  <property name="meta.media.0.codec.pix_fmt">yuv420p</property>
  <property name="meta.media.0.codec.sample_aspect_ratio">1</property>
  <property name="meta.media.0.codec.colorspace">709</property>
  <property name="meta.media.0.codec.color_trc">1</property>
  <property name="meta.media.0.codec.name">h264</property>
  <property name="meta.media.0.codec.long_name">H.264 / AVC / MPEG-4 AVC / MPEG-4 part 10</property>
  <property name="meta.media.0.codec.bit_rate">5200999</property>
  <property name="meta.attr.0.stream.language.markup">eng</property>
  <property name="meta.attr.0.stream.DURATION.markup">02:27:56.599000000</property>
  <property name="meta.media.1.stream.type">audio</property>
  <property name="meta.media.1.codec.sample_fmt">fltp</property>
  <property name="meta.media.1.codec.sample_rate">48000</property>
  <property name="meta.media.1.codec.channels">2</property>
  <property name="meta.media.1.codec.name">aac</property>
  <property name="meta.media.1.codec.long_name">AAC (Advanced Audio Coding)</property>
  <property name="meta.media.1.codec.bit_rate">128316</property>
  <property name="meta.attr.1.stream.language.markup">eng</property>
  <property name="meta.attr.1.stream.DURATION.markup">02:27:56.628000000</property>
  <property name="meta.attr.ENCODER.markup">Lavf60.16.100</property>
  <property name="meta.media.sample_aspect_num">1</property>
  <property name="meta.media.sample_aspect_den">1</property>
  <property name="meta.media.frame_rate_num">60</property>
  <property name="meta.media.frame_rate_den">1</property>
  <property name="meta.media.colorspace">709</property>
  <property name="meta.media.color_trc">1</property>
  <property name="meta.media.has_b_frames">0</property>
  <property name="meta.media.width">640</property>
  <property name="meta.media.height">360</property>
  <property name="meta.media.color_range">mpeg</property>
  <property name="meta.media.top_field_first">0</property>
  <property name="meta.media.progressive">1</property>
  <property name="meta.attr.0.stream.handler_name.markup">VideoHandler</property>
  <property name="meta.attr.0.stream.vendor_id.markup">FFMP</property>
  <property name="meta.attr.0.stream.encoder.markup">Lavc59.18.100 libx264</property>
  <property name="meta.attr.1.stream.handler_name.markup">SoundHandler</property>
  <property name="meta.attr.1.stream.vendor_id.markup">[0][0][0][0]</property>
  <property name="meta.attr.major_brand.markup">qt  </property>
  <property name="meta.attr.minor_version.markup">512</property>
  <property name="meta.attr.compatible_brands.markup">qt  </property>
  <property name="meta.attr.encoder.markup">Lavf59.16.100</property>
  <property name="set.test_audio">1</property>
  <property name="set.test_image">0</property>
 </producer>
 <producer id="producer789" in="00:00:00.000" out="02:38:45.867">
  <property name="length">571553</property>
  <property name="eof">pause</property>
  <property name="resource">/home/federico/Videos/Edit/Kden/ProxyRender/proxy/cf314eebe17b047f9605a52d59418270.mov</property>
  <property name="audio_index">1</property>
  <property name="video_index">0</property>
  <property name="mute_on_pause">0</property>
  <property name="mlt_service">avformat-novalidate</property>
  <property name="meta.media.nb_streams">2</property>
  <property name="meta.media.0.stream.type">video</property>
  <property name="meta.media.0.stream.frame_rate">60</property>
  <property name="meta.media.0.stream.sample_aspect_ratio">1</property>
  <property name="meta.media.0.codec.width">640</property>
  <property name="meta.media.0.codec.height">360</property>
  <property name="meta.media.0.codec.rotate">0</property>
  <property name="meta.media.0.codec.pix_fmt">yuv420p</property>
  <property name="meta.media.0.codec.sample_aspect_ratio">1</property>
  <property name="meta.media.0.codec.colorspace">709</property>
  <property name="meta.media.0.codec.color_trc">1</property>
  <property name="meta.media.0.codec.name">h264</property>
  <property name="meta.media.0.codec.long_name">H.264 / AVC / MPEG-4 AVC / MPEG-4 part 10</property>
  <property name="meta.media.0.codec.bit_rate">5667419</property>
  <property name="meta.attr.0.stream.language.markup">eng</property>
  <property name="meta.attr.0.stream.handler_name.markup">VideoHandler</property>
  <property name="meta.attr.0.stream.vendor_id.markup">FFMP</property>
  <property name="meta.attr.0.stream.encoder.markup">Lavc59.18.100 libx264</property>
  <property name="meta.media.1.stream.type">audio</property>
  <property name="meta.media.1.codec.sample_fmt">fltp</property>
  <property name="meta.media.1.codec.sample_rate">48000</property>
  <property name="meta.media.1.codec.channels">2</property>
  <property name="meta.media.1.codec.name">aac</property>
  <property name="meta.media.1.codec.long_name">AAC (Advanced Audio Coding)</property>
  <property name="meta.media.1.codec.bit_rate">129290</property>
  <property name="meta.attr.1.stream.language.markup">eng</property>
  <property name="meta.attr.1.stream.handler_name.markup">SoundHandler</property>
  <property name="meta.attr.1.stream.vendor_id.markup">[0][0][0][0]</property>
  <property name="meta.attr.major_brand.markup">qt  </property>
  <property name="meta.attr.minor_version.markup">512</property>
  <property name="meta.attr.compatible_brands.markup">qt  </property>
  <property name="meta.attr.encoder.markup">Lavf59.16.100</property>
  <property name="seekable">1</property>
  <property name="meta.media.sample_aspect_num">1</property>
  <property name="meta.media.sample_aspect_den">1</property>
  <property name="aspect_ratio">1</property>
  <property name="format">3</property>
  <property name="kdenlive:clipname">6 - sfida accettata - dark souls iii cinders  anima della sfida ii 6.mkv</property>
  <property name="kdenlive:clip_type">0</property>
  <property name="kdenlive:folderid">4</property>
  <property name="kdenlive:id">684</property>
  <property name="kdenlive:file_size">4537358114</property>
  <property name="kdenlive:file_hash">cf314eebe17b047f9605a52d59418270</property>
  <property name="kdenlive:proxy">/home/federico/Videos/Edit/Kden/ProxyRender/proxy/cf314eebe17b047f9605a52d59418270.mov</property>
  <property name="kdenlive:originalurl">/home/federico/Videos/Edit/Projects/DS3_cinders/5-Stream/6 - sfida accettata - dark souls iii cinders  anima della sfida ii 6.mkv</property>
  <property name="kdenlive:original.mlt_type">producer</property>
  <property name="kdenlive:original.in">00:00:00.000</property>
  <property name="kdenlive:original.out">02:38:45.867</property>
  <property name="kdenlive:original.length">571553</property>
  <property name="kdenlive:original.eof">pause</property>
  <property name="kdenlive:original.resource">/home/federico/Videos/Edit/Projects/DS3_cinders/5-Stream/6 - sfida accettata - dark souls iii cinders  anima della sfida ii 6.mkv</property>
  <property name="kdenlive:original.meta.media.nb_streams">2</property>
  <property name="kdenlive:original.meta.media.0.stream.type">video</property>
  <property name="kdenlive:original.meta.media.0.stream.frame_rate">60</property>
  <property name="kdenlive:original.meta.media.0.stream.sample_aspect_ratio">1</property>
  <property name="kdenlive:original.meta.media.0.codec.width">1920</property>
  <property name="kdenlive:original.meta.media.0.codec.height">1080</property>
  <property name="kdenlive:original.meta.media.0.codec.rotate">0</property>
  <property name="kdenlive:original.meta.media.0.codec.pix_fmt">yuv420p</property>
  <property name="kdenlive:original.meta.media.0.codec.sample_aspect_ratio">0</property>
  <property name="kdenlive:original.meta.media.0.codec.colorspace">709</property>
  <property name="kdenlive:original.meta.media.0.codec.color_trc">1</property>
  <property name="kdenlive:original.meta.media.0.codec.name">vp9</property>
  <property name="kdenlive:original.meta.media.0.codec.long_name">Google VP9</property>
  <property name="kdenlive:original.meta.media.0.codec.bit_rate">0</property>
  <property name="kdenlive:original.meta.attr.0.stream.language.markup">eng</property>
  <property name="kdenlive:original.meta.attr.0.stream.DURATION.markup">02:38:45.866000000</property>
  <property name="kdenlive:original.meta.media.1.stream.type">audio</property>
  <property name="kdenlive:original.meta.media.1.codec.sample_fmt">fltp</property>
  <property name="kdenlive:original.meta.media.1.codec.sample_rate">48000</property>
  <property name="kdenlive:original.meta.media.1.codec.channels">2</property>
  <property name="kdenlive:original.meta.media.1.codec.name">opus</property>
  <property name="kdenlive:original.meta.media.1.codec.long_name">Opus</property>
  <property name="kdenlive:original.meta.media.1.codec.bit_rate">0</property>
  <property name="kdenlive:original.meta.attr.1.stream.language.markup">eng</property>
  <property name="kdenlive:original.meta.attr.1.stream.DURATION.markup">02:38:45.888000000</property>
  <property name="kdenlive:original.meta.attr.ENCODER.markup">Lavf60.16.100</property>
  <property name="kdenlive:original.seekable">1</property>
  <property name="kdenlive:original.width">1920</property>
  <property name="kdenlive:original.height">1080</property>
  <property name="kdenlive:original.meta.media.sample_aspect_num">1</property>
  <property name="kdenlive:original.meta.media.sample_aspect_den">1</property>
  <property name="kdenlive:original.aspect_ratio">1</property>
  <property name="kdenlive:original.format">3</property>
  <property name="kdenlive:original.audio_index">1</property>
  <property name="kdenlive:original.video_index">0</property>
  <property name="kdenlive:original.mute_on_pause">0</property>
  <property name="kdenlive:original.mlt_service">avformat-novalidate</property>
  <property name="kdenlive:original.meta.media.frame_rate_num">60</property>
  <property name="kdenlive:original.meta.media.frame_rate_den">1</property>
  <property name="kdenlive:original.meta.media.colorspace">709</property>
  <property name="kdenlive:original.meta.media.color_trc">1</property>
  <property name="kdenlive:original.meta.media.has_b_frames">0</property>
  <property name="kdenlive:original.meta.media.width">1920</property>
  <property name="kdenlive:original.meta.media.height">1080</property>
  <property name="kdenlive:original.meta.media.color_range">mpeg</property>
  <property name="kdenlive:original.meta.media.top_field_first">0</property>
  <property name="kdenlive:original.meta.media.progressive">1</property>
  <property name="kdenlive:original.kdenlive:clip_type">0</property>
  <property name="kdenlive:original.kdenlive:folderid">4</property>
  <property name="kdenlive:original.kdenlive:id">684</property>
  <property name="kdenlive:original.kdenlive:file_size">4537358114</property>
  <property name="kdenlive:original.kdenlive:file_hash">cf314eebe17b047f9605a52d59418270</property>
  <property name="kdenlive:original.backup">1</property>
  <property name="kdenlive:audio_max1">196</property>
  <property name="xml">was here</property>
  <property name="meta.media.frame_rate_num">60</property>
  <property name="meta.media.frame_rate_den">1</property>
  <property name="meta.media.colorspace">709</property>
  <property name="meta.media.color_trc">1</property>
  <property name="meta.media.has_b_frames">0</property>
  <property name="meta.media.width">640</property>
  <property name="meta.media.height">360</property>
  <property name="meta.media.color_range">mpeg</property>
  <property name="meta.media.top_field_first">0</property>
  <property name="meta.media.progressive">1</property>
  <property name="set.test_audio">1</property>
  <property name="set.test_image">0</property>
 </producer>
 <producer id="producer790" in="00:00:00.000" out="00:00:01.450">
  <property name="length">88</property>
  <property name="eof">pause</property>
  <property name="resource">/home/federico/Nextcloud/Kden/EditingUT/Video/Explosion/explosion meme.mkv</property>
  <property name="audio_index">1</property>
  <property name="video_index">0</property>
  <property name="mute_on_pause">0</property>
  <property name="mlt_service">avformat-novalidate</property>
  <property name="seekable">1</property>
  <property name="aspect_ratio">1</property>
  <property name="format">3</property>
  <property name="kdenlive:clipname"/>
  <property name="kdenlive:clip_type">0</property>
  <property name="kdenlive:folderid">447</property>
  <property name="kdenlive:id">448</property>
  <property name="kdenlive:file_size">565413</property>
  <property name="kdenlive:file_hash">3e55e542f6455f7e0e4aefaa1d8736d4</property>
  <property name="kdenlive:audio_max1">174</property>
  <property name="kdenlive:zone_in">0</property>
  <property name="kdenlive:zone_out">17</property>
  <property name="xml">was here</property>
  <property name="meta.media.nb_streams">2</property>
  <property name="meta.media.0.stream.type">video</property>
  <property name="meta.media.0.stream.frame_rate">29.97</property>
  <property name="meta.media.0.stream.sample_aspect_ratio">1</property>
  <property name="meta.media.0.codec.width">1920</property>
  <property name="meta.media.0.codec.height">1080</property>
  <property name="meta.media.0.codec.rotate">0</property>
  <property name="meta.media.0.codec.pix_fmt">yuv420p</property>
  <property name="meta.media.0.codec.sample_aspect_ratio">1</property>
  <property name="meta.media.0.codec.colorspace">709</property>
  <property name="meta.media.0.codec.color_trc">1</property>
  <property name="meta.media.0.codec.name">h264</property>
  <property name="meta.media.0.codec.long_name">H.264 / AVC / MPEG-4 AVC / MPEG-4 part 10</property>
  <property name="meta.media.0.codec.bit_rate">0</property>
  <property name="meta.attr.0.stream.HANDLER_NAME.markup">ISO Media file produced by Google Inc.</property>
  <property name="meta.attr.0.stream.VENDOR_ID.markup">[0][0][0][0]</property>
  <property name="meta.attr.0.stream.ENCODER.markup">Lavc60.31.102 libx264</property>
  <property name="meta.attr.0.stream.DURATION.markup">00:00:01.404000000</property>
  <property name="meta.media.1.stream.type">audio</property>
  <property name="meta.media.1.codec.sample_fmt">fltp</property>
  <property name="meta.media.1.codec.sample_rate">44100</property>
  <property name="meta.media.1.codec.channels">2</property>
  <property name="meta.media.1.codec.name">vorbis</property>
  <property name="meta.media.1.codec.long_name">Vorbis</property>
  <property name="meta.media.1.codec.bit_rate">0</property>
  <property name="meta.attr.1.stream.language.markup">eng</property>
  <property name="meta.attr.1.stream.HANDLER_NAME.markup">ISO Media file produced by Google Inc.</property>
  <property name="meta.attr.1.stream.VENDOR_ID.markup">[0][0][0][0]</property>
  <property name="meta.attr.1.stream.ENCODER.markup">Lavc60.31.102 libvorbis</property>
  <property name="meta.attr.1.stream.DURATION.markup">00:00:01.466000000</property>
  <property name="meta.attr.COMPATIBLE_BRANDS.markup">isomiso2avc1mp41</property>
  <property name="meta.attr.MAJOR_BRAND.markup">isom</property>
  <property name="meta.attr.MINOR_VERSION.markup">512</property>
  <property name="meta.attr.ENCODER.markup">Lavf60.16.100</property>
  <property name="meta.media.sample_aspect_num">1</property>
  <property name="meta.media.sample_aspect_den">1</property>
  <property name="meta.media.frame_rate_num">30000</property>
  <property name="meta.media.frame_rate_den">1001</property>
  <property name="meta.media.colorspace">709</property>
  <property name="meta.media.color_trc">1</property>
  <property name="meta.media.has_b_frames">2</property>
  <property name="meta.media.width">1920</property>
  <property name="meta.media.height">1080</property>
  <property name="meta.media.color_range">mpeg</property>
  <property name="meta.media.top_field_first">0</property>
  <property name="meta.media.progressive">1</property>
  <property name="set.test_audio">1</property>
  <property name="set.test_image">0</property>
 </producer>
 <producer id="producer791" in="00:00:00.000" out="00:00:01.117">
  <property name="length">68</property>
  <property name="eof">pause</property>
  <property name="resource">/home/federico/Nextcloud/Kden/EditingUT/Video/Explosion/house exploding meme.mkv</property>
  <property name="audio_index">1</property>
  <property name="video_index">0</property>
  <property name="mute_on_pause">0</property>
  <property name="mlt_service">avformat-novalidate</property>
  <property name="seekable">1</property>
  <property name="aspect_ratio">1</property>
  <property name="format">3</property>
  <property name="kdenlive:clipname"/>
  <property name="kdenlive:clip_type">0</property>
  <property name="kdenlive:folderid">447</property>
  <property name="kdenlive:id">449</property>
  <property name="kdenlive:file_size">2409206</property>
  <property name="kdenlive:file_hash">849111d4251f35132f1fb8a86c2308a4</property>
  <property name="kdenlive:audio_max1">182</property>
  <property name="xml">was here</property>
  <property name="meta.media.nb_streams">2</property>
  <property name="meta.media.0.stream.type">video</property>
  <property name="meta.media.0.stream.frame_rate">60</property>
  <property name="meta.media.0.stream.sample_aspect_ratio">1</property>
  <property name="meta.media.0.codec.width">1920</property>
  <property name="meta.media.0.codec.height">1080</property>
  <property name="meta.media.0.codec.rotate">0</property>
  <property name="meta.media.0.codec.pix_fmt">yuv420p</property>
  <property name="meta.media.0.codec.sample_aspect_ratio">1</property>
  <property name="meta.media.0.codec.colorspace">709</property>
  <property name="meta.media.0.codec.color_trc">1</property>
  <property name="meta.media.0.codec.name">h264</property>
  <property name="meta.media.0.codec.long_name">H.264 / AVC / MPEG-4 AVC / MPEG-4 part 10</property>
  <property name="meta.media.0.codec.bit_rate">0</property>
  <property name="meta.attr.0.stream.DURATION.markup">00:00:01.121000000</property>
  <property name="meta.media.1.stream.type">audio</property>
  <property name="meta.media.1.codec.sample_fmt">fltp</property>
  <property name="meta.media.1.codec.sample_rate">48000</property>
  <property name="meta.media.1.codec.channels">2</property>
  <property name="meta.media.1.codec.name">aac</property>
  <property name="meta.media.1.codec.long_name">AAC (Advanced Audio Coding)</property>
  <property name="meta.media.1.codec.bit_rate">0</property>
  <property name="meta.attr.1.stream.DURATION.markup">00:00:01.130000000</property>
  <property name="meta.attr.ENCODER.markup">Lavf59.16.100</property>
  <property name="meta.media.sample_aspect_num">1</property>
  <property name="meta.media.sample_aspect_den">1</property>
  <property name="meta.media.frame_rate_num">60</property>
  <property name="meta.media.frame_rate_den">1</property>
  <property name="meta.media.colorspace">709</property>
  <property name="meta.media.color_trc">1</property>
  <property name="meta.media.has_b_frames">0</property>
  <property name="meta.media.width">1920</property>
  <property name="meta.media.height">1080</property>
  <property name="meta.media.color_range">mpeg</property>
  <property name="meta.media.top_field_first">0</property>
  <property name="meta.media.progressive">1</property>
  <property name="set.test_audio">1</property>
  <property name="set.test_image">0</property>
 </producer>
 <producer id="producer792" in="00:00:00.000" out="02:52:36.450">
  <property name="length">621389</property>
  <property name="eof">pause</property>
  <property name="resource">/home/federico/Videos/Edit/Kden/ProxyRender/proxy/e00b59329972f7cbbe05cbe5eabe0684.mov</property>
  <property name="audio_index">1</property>
  <property name="video_index">0</property>
  <property name="mute_on_pause">0</property>
  <property name="mlt_service">avformat-novalidate</property>
  <property name="meta.media.nb_streams">2</property>
  <property name="meta.media.0.stream.type">video</property>
  <property name="meta.media.0.stream.frame_rate">60</property>
  <property name="meta.media.0.stream.sample_aspect_ratio">1</property>
  <property name="meta.media.0.codec.width">640</property>
  <property name="meta.media.0.codec.height">360</property>
  <property name="meta.media.0.codec.rotate">0</property>
  <property name="meta.media.0.codec.pix_fmt">yuv420p</property>
  <property name="meta.media.0.codec.sample_aspect_ratio">1</property>
  <property name="meta.media.0.codec.colorspace">709</property>
  <property name="meta.media.0.codec.color_trc">1</property>
  <property name="meta.media.0.codec.name">h264</property>
  <property name="meta.media.0.codec.long_name">H.264 / AVC / MPEG-4 AVC / MPEG-4 part 10</property>
  <property name="meta.media.0.codec.bit_rate">5487106</property>
  <property name="meta.attr.0.stream.language.markup">eng</property>
  <property name="meta.attr.0.stream.handler_name.markup">VideoHandler</property>
  <property name="meta.attr.0.stream.vendor_id.markup">FFMP</property>
  <property name="meta.attr.0.stream.encoder.markup">Lavc59.18.100 libx264</property>
  <property name="meta.media.1.stream.type">audio</property>
  <property name="meta.media.1.codec.sample_fmt">fltp</property>
  <property name="meta.media.1.codec.sample_rate">48000</property>
  <property name="meta.media.1.codec.channels">2</property>
  <property name="meta.media.1.codec.name">aac</property>
  <property name="meta.media.1.codec.long_name">AAC (Advanced Audio Coding)</property>
  <property name="meta.media.1.codec.bit_rate">125682</property>
  <property name="meta.attr.1.stream.language.markup">eng</property>
  <property name="meta.attr.1.stream.handler_name.markup">SoundHandler</property>
  <property name="meta.attr.1.stream.vendor_id.markup">[0][0][0][0]</property>
  <property name="meta.attr.major_brand.markup">qt  </property>
  <property name="meta.attr.minor_version.markup">512</property>
  <property name="meta.attr.compatible_brands.markup">qt  </property>
  <property name="meta.attr.encoder.markup">Lavf59.16.100</property>
  <property name="seekable">1</property>
  <property name="meta.media.sample_aspect_num">1</property>
  <property name="meta.media.sample_aspect_den">1</property>
  <property name="aspect_ratio">1</property>
  <property name="format">3</property>
  <property name="kdenlive:clipname">7 - builded - dark souls iii cinders  anima della sfida ii 7.mkv</property>
  <property name="kdenlive:clip_type">0</property>
  <property name="kdenlive:folderid">4</property>
  <property name="kdenlive:id">685</property>
  <property name="kdenlive:file_size">4980831000</property>
  <property name="kdenlive:file_hash">e00b59329972f7cbbe05cbe5eabe0684</property>
  <property name="kdenlive:proxy">/home/federico/Videos/Edit/Kden/ProxyRender/proxy/e00b59329972f7cbbe05cbe5eabe0684.mov</property>
  <property name="kdenlive:originalurl">/home/federico/Videos/Edit/Projects/DS3_cinders/5-Stream/7 - builded - dark souls iii cinders  anima della sfida ii 7.mkv</property>
  <property name="kdenlive:original.mlt_type">producer</property>
  <property name="kdenlive:original.in">00:00:00.000</property>
  <property name="kdenlive:original.out">02:52:36.467</property>
  <property name="kdenlive:original.length">621389</property>
  <property name="kdenlive:original.eof">pause</property>
  <property name="kdenlive:original.resource">/home/federico/Videos/Edit/Projects/DS3_cinders/5-Stream/7 - builded - dark souls iii cinders  anima della sfida ii 7.mkv</property>
  <property name="kdenlive:original.meta.media.nb_streams">2</property>
  <property name="kdenlive:original.meta.media.0.stream.type">video</property>
  <property name="kdenlive:original.meta.media.0.stream.frame_rate">60</property>
  <property name="kdenlive:original.meta.media.0.stream.sample_aspect_ratio">1</property>
  <property name="kdenlive:original.meta.media.0.codec.width">1920</property>
  <property name="kdenlive:original.meta.media.0.codec.height">1080</property>
  <property name="kdenlive:original.meta.media.0.codec.rotate">0</property>
  <property name="kdenlive:original.meta.media.0.codec.pix_fmt">yuv420p</property>
  <property name="kdenlive:original.meta.media.0.codec.sample_aspect_ratio">0</property>
  <property name="kdenlive:original.meta.media.0.codec.colorspace">709</property>
  <property name="kdenlive:original.meta.media.0.codec.color_trc">1</property>
  <property name="kdenlive:original.meta.media.0.codec.name">vp9</property>
  <property name="kdenlive:original.meta.media.0.codec.long_name">Google VP9</property>
  <property name="kdenlive:original.meta.media.0.codec.bit_rate">0</property>
  <property name="kdenlive:original.meta.attr.0.stream.language.markup">eng</property>
  <property name="kdenlive:original.meta.attr.0.stream.DURATION.markup">02:52:36.449000000</property>
  <property name="kdenlive:original.meta.media.1.stream.type">audio</property>
  <property name="kdenlive:original.meta.media.1.codec.sample_fmt">fltp</property>
  <property name="kdenlive:original.meta.media.1.codec.sample_rate">48000</property>
  <property name="kdenlive:original.meta.media.1.codec.channels">2</property>
  <property name="kdenlive:original.meta.media.1.codec.name">opus</property>
  <property name="kdenlive:original.meta.media.1.codec.long_name">Opus</property>
  <property name="kdenlive:original.meta.media.1.codec.bit_rate">0</property>
  <property name="kdenlive:original.meta.attr.1.stream.language.markup">eng</property>
  <property name="kdenlive:original.meta.attr.1.stream.DURATION.markup">02:52:36.488000000</property>
  <property name="kdenlive:original.meta.attr.ENCODER.markup">Lavf60.16.100</property>
  <property name="kdenlive:original.seekable">1</property>
  <property name="kdenlive:original.width">1920</property>
  <property name="kdenlive:original.height">1080</property>
  <property name="kdenlive:original.meta.media.sample_aspect_num">1</property>
  <property name="kdenlive:original.meta.media.sample_aspect_den">1</property>
  <property name="kdenlive:original.aspect_ratio">1</property>
  <property name="kdenlive:original.format">3</property>
  <property name="kdenlive:original.audio_index">1</property>
  <property name="kdenlive:original.video_index">0</property>
  <property name="kdenlive:original.mute_on_pause">0</property>
  <property name="kdenlive:original.mlt_service">avformat-novalidate</property>
  <property name="kdenlive:original.meta.media.frame_rate_num">60</property>
  <property name="kdenlive:original.meta.media.frame_rate_den">1</property>
  <property name="kdenlive:original.meta.media.colorspace">709</property>
  <property name="kdenlive:original.meta.media.color_trc">1</property>
  <property name="kdenlive:original.meta.media.has_b_frames">0</property>
  <property name="kdenlive:original.meta.media.width">1920</property>
  <property name="kdenlive:original.meta.media.height">1080</property>
  <property name="kdenlive:original.meta.media.color_range">mpeg</property>
  <property name="kdenlive:original.meta.media.top_field_first">0</property>
  <property name="kdenlive:original.meta.media.progressive">1</property>
  <property name="kdenlive:original.kdenlive:clip_type">0</property>
  <property name="kdenlive:original.kdenlive:folderid">4</property>
  <property name="kdenlive:original.kdenlive:id">685</property>
  <property name="kdenlive:original.kdenlive:file_size">4980831000</property>
  <property name="kdenlive:original.kdenlive:file_hash">e00b59329972f7cbbe05cbe5eabe0684</property>
  <property name="kdenlive:original.backup">1</property>
  <property name="kdenlive:audio_max1">204</property>
  <property name="xml">was here</property>
  <property name="meta.media.frame_rate_num">60</property>
  <property name="meta.media.frame_rate_den">1</property>
  <property name="meta.media.colorspace">709</property>
  <property name="meta.media.color_trc">1</property>
  <property name="meta.media.has_b_frames">0</property>
  <property name="meta.media.width">640</property>
  <property name="meta.media.height">360</property>
  <property name="meta.media.color_range">mpeg</property>
  <property name="meta.media.top_field_first">0</property>
  <property name="meta.media.progressive">1</property>
  <property name="set.test_audio">1</property>
  <property name="set.test_image">0</property>
 </producer>
 <producer id="producer793" in="00:00:00.000" out="00:00:02.683">
  <property name="length">162</property>
  <property name="eof">pause</property>
  <property name="resource">/home/federico/Nextcloud/Kden/EditingUT/Video/GreenScreen/loading lost connection green screen with.mkv</property>
  <property name="audio_index">1</property>
  <property name="video_index">0</property>
  <property name="mute_on_pause">0</property>
  <property name="mlt_service">avformat-novalidate</property>
  <property name="seekable">1</property>
  <property name="aspect_ratio">1</property>
  <property name="format">3</property>
  <property name="kdenlive:clipname"/>
  <property name="kdenlive:clip_type">0</property>
  <property name="kdenlive:folderid">511</property>
  <property name="kdenlive:id">545</property>
  <property name="kdenlive:file_size">113189</property>
  <property name="kdenlive:file_hash">7ab0d8a0b3d5a2e51d5b0187c9562ab7</property>
  <property name="kdenlive:audio_max1">99</property>
  <property name="kdenlive:zone_in">8</property>
  <property name="kdenlive:zone_out">38</property>
  <property name="xml">was here</property>
  <property name="meta.media.nb_streams">2</property>
  <property name="meta.media.0.stream.type">video</property>
  <property name="meta.media.0.stream.frame_rate">30</property>
  <property name="meta.media.0.stream.sample_aspect_ratio">1</property>
  <property name="meta.media.0.codec.width">1280</property>
  <property name="meta.media.0.codec.height">720</property>
  <property name="meta.media.0.codec.rotate">0</property>
  <property name="meta.media.0.codec.pix_fmt">yuv420p</property>
  <property name="meta.media.0.codec.sample_aspect_ratio">1</property>
  <property name="meta.media.0.codec.colorspace">601</property>
  <property name="meta.media.0.codec.color_trc">1</property>
  <property name="meta.media.0.codec.name">h264</property>
  <property name="meta.media.0.codec.long_name">H.264 / AVC / MPEG-4 AVC / MPEG-4 part 10</property>
  <property name="meta.media.0.codec.bit_rate">0</property>
  <property name="meta.attr.0.stream.HANDLER_NAME.markup">ISO Media file produced by Google Inc.</property>
  <property name="meta.attr.0.stream.VENDOR_ID.markup">[0][0][0][0]</property>
  <property name="meta.attr.0.stream.ENCODER.markup">Lavc60.31.102 libx264</property>
  <property name="meta.attr.0.stream.DURATION.markup">00:00:02.636000000</property>
  <property name="meta.media.1.stream.type">audio</property>
  <property name="meta.media.1.codec.sample_fmt">fltp</property>
  <property name="meta.media.1.codec.sample_rate">44100</property>
  <property name="meta.media.1.codec.channels">2</property>
  <property name="meta.media.1.codec.name">vorbis</property>
  <property name="meta.media.1.codec.long_name">Vorbis</property>
  <property name="meta.media.1.codec.bit_rate">0</property>
  <property name="meta.attr.1.stream.language.markup">eng</property>
  <property name="meta.attr.1.stream.HANDLER_NAME.markup">ISO Media file produced by Google Inc.</property>
  <property name="meta.attr.1.stream.VENDOR_ID.markup">[0][0][0][0]</property>
  <property name="meta.attr.1.stream.ENCODER.markup">Lavc60.31.102 libvorbis</property>
  <property name="meta.attr.1.stream.DURATION.markup">00:00:02.697000000</property>
  <property name="meta.attr.COMPATIBLE_BRANDS.markup">isomiso2avc1mp41</property>
  <property name="meta.attr.MAJOR_BRAND.markup">isom</property>
  <property name="meta.attr.MINOR_VERSION.markup">512</property>
  <property name="meta.attr.ENCODER.markup">Lavf60.16.100</property>
  <property name="meta.media.sample_aspect_num">1</property>
  <property name="meta.media.sample_aspect_den">1</property>
  <property name="meta.media.frame_rate_num">30</property>
  <property name="meta.media.frame_rate_den">1</property>
  <property name="meta.media.colorspace">601</property>
  <property name="meta.media.color_trc">1</property>
  <property name="meta.media.has_b_frames">2</property>
  <property name="meta.media.width">1280</property>
  <property name="meta.media.height">720</property>
  <property name="meta.media.color_range">mpeg</property>
  <property name="meta.media.top_field_first">0</property>
  <property name="meta.media.progressive">1</property>
  <property name="set.test_audio">1</property>
  <property name="set.test_image">0</property>
 </producer>
 <producer id="producer794" in="00:00:00.000" out="01:50:41.183">
  <property name="length">398472</property>
  <property name="eof">pause</property>
  <property name="resource">/home/federico/Videos/Edit/Kden/ProxyRender/proxy/31ec4e3b8500d553e125625112366d7f.mov</property>
  <property name="audio_index">1</property>
  <property name="video_index">0</property>
  <property name="mute_on_pause">0</property>
  <property name="mlt_service">avformat-novalidate</property>
  <property name="meta.media.nb_streams">2</property>
  <property name="meta.media.0.stream.type">video</property>
  <property name="meta.media.0.stream.frame_rate">60</property>
  <property name="meta.media.0.stream.sample_aspect_ratio">1</property>
  <property name="meta.media.0.codec.width">640</property>
  <property name="meta.media.0.codec.height">360</property>
  <property name="meta.media.0.codec.rotate">0</property>
  <property name="meta.media.0.codec.pix_fmt">yuv420p</property>
  <property name="meta.media.0.codec.sample_aspect_ratio">1</property>
  <property name="meta.media.0.codec.colorspace">709</property>
  <property name="meta.media.0.codec.color_trc">1</property>
  <property name="meta.media.0.codec.name">h264</property>
  <property name="meta.media.0.codec.long_name">H.264 / AVC / MPEG-4 AVC / MPEG-4 part 10</property>
  <property name="meta.media.0.codec.bit_rate">5578912</property>
  <property name="meta.attr.0.stream.language.markup">eng</property>
  <property name="meta.attr.0.stream.handler_name.markup">VideoHandler</property>
  <property name="meta.attr.0.stream.vendor_id.markup">FFMP</property>
  <property name="meta.attr.0.stream.encoder.markup">Lavc59.18.100 libx264</property>
  <property name="meta.media.1.stream.type">audio</property>
  <property name="meta.media.1.codec.sample_fmt">fltp</property>
  <property name="meta.media.1.codec.sample_rate">48000</property>
  <property name="meta.media.1.codec.channels">2</property>
  <property name="meta.media.1.codec.name">aac</property>
  <property name="meta.media.1.codec.long_name">AAC (Advanced Audio Coding)</property>
  <property name="meta.media.1.codec.bit_rate">127625</property>
  <property name="meta.attr.1.stream.language.markup">eng</property>
  <property name="meta.attr.1.stream.handler_name.markup">SoundHandler</property>
  <property name="meta.attr.1.stream.vendor_id.markup">[0][0][0][0]</property>
  <property name="meta.attr.major_brand.markup">qt  </property>
  <property name="meta.attr.minor_version.markup">512</property>
  <property name="meta.attr.compatible_brands.markup">qt  </property>
  <property name="meta.attr.encoder.markup">Lavf59.16.100</property>
  <property name="seekable">1</property>
  <property name="meta.media.sample_aspect_num">1</property>
  <property name="meta.media.sample_aspect_den">1</property>
  <property name="aspect_ratio">1</property>
  <property name="format">3</property>
  <property name="kdenlive:clipname">8 - playground - dark souls iii cinders  anima della sfida ii 8.mkv</property>
  <property name="kdenlive:clip_type">0</property>
  <property name="kdenlive:folderid">4</property>
  <property name="kdenlive:id">686</property>
  <property name="kdenlive:file_size">3569794435</property>
  <property name="kdenlive:file_hash">31ec4e3b8500d553e125625112366d7f</property>
  <property name="kdenlive:proxy">/home/federico/Videos/Edit/Kden/ProxyRender/proxy/31ec4e3b8500d553e125625112366d7f.mov</property>
  <property name="kdenlive:originalurl">/home/federico/Videos/Edit/Projects/DS3_cinders/5-Stream/8 - playground - dark souls iii cinders  anima della sfida ii 8.mkv</property>
  <property name="kdenlive:original.mlt_type">producer</property>
  <property name="kdenlive:original.in">00:00:00.000</property>
  <property name="kdenlive:original.out">01:50:41.183</property>
  <property name="kdenlive:original.length">398472</property>
  <property name="kdenlive:original.eof">pause</property>
  <property name="kdenlive:original.resource">/home/federico/Videos/Edit/Projects/DS3_cinders/5-Stream/8 - playground - dark souls iii cinders  anima della sfida ii 8.mkv</property>
  <property name="kdenlive:original.meta.media.nb_streams">2</property>
  <property name="kdenlive:original.meta.media.0.stream.type">video</property>
  <property name="kdenlive:original.meta.media.0.stream.frame_rate">60</property>
  <property name="kdenlive:original.meta.media.0.stream.sample_aspect_ratio">1</property>
  <property name="kdenlive:original.meta.media.0.codec.width">1920</property>
  <property name="kdenlive:original.meta.media.0.codec.height">1080</property>
  <property name="kdenlive:original.meta.media.0.codec.rotate">0</property>
  <property name="kdenlive:original.meta.media.0.codec.pix_fmt">yuv420p</property>
  <property name="kdenlive:original.meta.media.0.codec.sample_aspect_ratio">0</property>
  <property name="kdenlive:original.meta.media.0.codec.colorspace">709</property>
  <property name="kdenlive:original.meta.media.0.codec.color_trc">1</property>
  <property name="kdenlive:original.meta.media.0.codec.name">vp9</property>
  <property name="kdenlive:original.meta.media.0.codec.long_name">Google VP9</property>
  <property name="kdenlive:original.meta.media.0.codec.bit_rate">0</property>
  <property name="kdenlive:original.meta.attr.0.stream.language.markup">eng</property>
  <property name="kdenlive:original.meta.attr.0.stream.DURATION.markup">01:50:41.183000000</property>
  <property name="kdenlive:original.meta.media.1.stream.type">audio</property>
  <property name="kdenlive:original.meta.media.1.codec.sample_fmt">fltp</property>
  <property name="kdenlive:original.meta.media.1.codec.sample_rate">48000</property>
  <property name="kdenlive:original.meta.media.1.codec.channels">2</property>
  <property name="kdenlive:original.meta.media.1.codec.name">opus</property>
  <property name="kdenlive:original.meta.media.1.codec.long_name">Opus</property>
  <property name="kdenlive:original.meta.media.1.codec.bit_rate">0</property>
  <property name="kdenlive:original.meta.attr.1.stream.language.markup">eng</property>
  <property name="kdenlive:original.meta.attr.1.stream.DURATION.markup">01:50:41.208000000</property>
  <property name="kdenlive:original.meta.attr.ENCODER.markup">Lavf60.16.100</property>
  <property name="kdenlive:original.seekable">1</property>
  <property name="kdenlive:original.width">1920</property>
  <property name="kdenlive:original.height">1080</property>
  <property name="kdenlive:original.meta.media.sample_aspect_num">1</property>
  <property name="kdenlive:original.meta.media.sample_aspect_den">1</property>
  <property name="kdenlive:original.aspect_ratio">1</property>
  <property name="kdenlive:original.format">3</property>
  <property name="kdenlive:original.audio_index">1</property>
  <property name="kdenlive:original.video_index">0</property>
  <property name="kdenlive:original.mute_on_pause">0</property>
  <property name="kdenlive:original.mlt_service">avformat-novalidate</property>
  <property name="kdenlive:original.meta.media.frame_rate_num">60</property>
  <property name="kdenlive:original.meta.media.frame_rate_den">1</property>
  <property name="kdenlive:original.meta.media.colorspace">709</property>
  <property name="kdenlive:original.meta.media.color_trc">1</property>
  <property name="kdenlive:original.meta.media.has_b_frames">0</property>
  <property name="kdenlive:original.meta.media.width">1920</property>
  <property name="kdenlive:original.meta.media.height">1080</property>
  <property name="kdenlive:original.meta.media.color_range">mpeg</property>
  <property name="kdenlive:original.meta.media.top_field_first">0</property>
  <property name="kdenlive:original.meta.media.progressive">1</property>
  <property name="kdenlive:original.kdenlive:clip_type">0</property>
  <property name="kdenlive:original.kdenlive:folderid">4</property>
  <property name="kdenlive:original.kdenlive:id">686</property>
  <property name="kdenlive:original.kdenlive:file_size">3569794435</property>
  <property name="kdenlive:original.kdenlive:file_hash">31ec4e3b8500d553e125625112366d7f</property>
  <property name="kdenlive:original.backup">1</property>
  <property name="kdenlive:audio_max1">237</property>
  <property name="xml">was here</property>
  <property name="meta.media.frame_rate_num">60</property>
  <property name="meta.media.frame_rate_den">1</property>
  <property name="meta.media.colorspace">709</property>
  <property name="meta.media.color_trc">1</property>
  <property name="meta.media.has_b_frames">0</property>
  <property name="meta.media.width">640</property>
  <property name="meta.media.height">360</property>
  <property name="meta.media.color_range">mpeg</property>
  <property name="meta.media.top_field_first">0</property>
  <property name="meta.media.progressive">1</property>
  <property name="set.test_audio">1</property>
  <property name="set.test_image">0</property>
 </producer>
 <playlist id="playlist12">
  <blank length="00:00:48.133"/>
  <entry producer="producer777" in="00:00:00.000" out="00:00:01.600">
   <property name="kdenlive:id">671</property>
   <filter id="filter959">
    <property name="rotate_center">1</property>
    <property name="mlt_service">qtblend</property>
    <property name="kdenlive_id">CLIP_DS2_MEME</property>
    <property name="rect">00:00:00.000=0 0 1920 1080 1.000000;00:00:00.317=0 0 1920 1080 1.000000;00:00:00.500=0 0 1920 1080 0.000000</property>
    <property name="rotation">00:00:00.000=0;00:00:00.317=0;00:00:00.500=0</property>
    <property name="compositing">0</property>
    <property name="distort">0</property>
    <property name="kdenlive:collapsed">0</property>
   </filter>
  </entry>
  <blank length="00:00:15.067"/>
  <entry producer="producer778" in="00:28:06.750" out="00:28:10.600">
   <property name="kdenlive:id">679</property>
   <filter id="filter960" in="00:28:06.750" out="00:28:10.483">
    <property name="start">1</property>
    <property name="level">1</property>
    <property name="mlt_service">brightness</property>
    <property name="kdenlive_id">fade_from_black</property>
    <property name="alpha">00:00:00.000=0;00:00:03.733=1</property>
    <property name="kdenlive:collapsed">0</property>
    <property name="disable">0</property>
   </filter>
   <filter id="filter961">
    <property name="rotate_center">1</property>
    <property name="mlt_service">qtblend</property>
    <property name="kdenlive_id">qtblend</property>
    <property name="rect">00:28:06.750=-4992 -2808 6912 3888 1.000000</property>
    <property name="rotation">00:28:06.750=0</property>
    <property name="compositing">0</property>
    <property name="distort">0</property>
    <property name="kdenlive:collapsed">1</property>
   </filter>
   <filter id="filter962">
    <property name="rotate_center">1</property>
    <property name="mlt_service">qtblend</property>
    <property name="kdenlive_id">qtblend</property>
    <property name="rect">00:28:06.750=-384 -216 2304 1296 1.000000;00:28:10.600=-576 -255 2496 1404 1.000000</property>
    <property name="rotation">00:28:06.750=0;00:28:10.600=0</property>
    <property name="compositing">0</property>
    <property name="distort">0</property>
    <property name="kdenlive:collapsed">0</property>
   </filter>
  </entry>
  <blank length="00:00:03.433"/>
  <entry producer="producer777" in="00:00:00.000" out="00:00:02.300">
   <property name="kdenlive:id">671</property>
   <filter id="filter963">
    <property name="rotate_center">1</property>
    <property name="mlt_service">qtblend</property>
    <property name="kdenlive_id">CLIP_DS2_MEME</property>
    <property name="rect">00:00:00.000=0 0 1920 1080 1.000000;00:00:00.317=0 0 1920 1080 1.000000;00:00:00.500=0 0 1920 1080 0.000000</property>
    <property name="rotation">00:00:00.000=0;00:00:00.317=0;00:00:00.500=0</property>
    <property name="compositing">0</property>
    <property name="distort">0</property>
    <property name="kdenlive:collapsed">0</property>
   </filter>
  </entry>
  <blank length="00:00:01.017"/>
  <entry producer="producer777" in="00:00:00.000" out="00:00:01.883">
   <property name="kdenlive:id">671</property>
   <filter id="filter964">
    <property name="rotate_center">1</property>
    <property name="mlt_service">qtblend</property>
    <property name="kdenlive_id">CLIP_DS2_MEME</property>
    <property name="rect">00:00:00.000=0 0 1920 1080 1.000000;00:00:00.317=0 0 1920 1080 1.000000;00:00:00.500=0 0 1920 1080 0.000000</property>
    <property name="rotation">00:00:00.000=0;00:00:00.317=0;00:00:00.500=0</property>
    <property name="compositing">0</property>
    <property name="distort">0</property>
    <property name="kdenlive:collapsed">0</property>
   </filter>
  </entry>
  <blank length="00:00:23.717"/>
  <entry producer="producer778" in="00:45:27.833" out="00:45:31.917">
   <property name="kdenlive:id">679</property>
   <filter id="filter965">
    <property name="rotate_center">1</property>
    <property name="mlt_service">qtblend</property>
    <property name="kdenlive_id">qtblend</property>
    <property name="rect">00:45:27.833=-1473 -302 4800 2700 1.000000</property>
    <property name="rotation">00:45:27.833=0</property>
    <property name="compositing">0</property>
    <property name="distort">0</property>
    <property name="kdenlive:collapsed">0</property>
   </filter>
   <filter id="filter966" in="00:45:27.833" out="00:45:29.633">
    <property name="start">1</property>
    <property name="level">1</property>
    <property name="mlt_service">brightness</property>
    <property name="kdenlive_id">fade_from_black</property>
    <property name="alpha">00:00:00.000=0;00:00:01.800=1</property>
   </filter>
   <filter id="filter967">
    <property name="mlt_service">avfilter.avgblur</property>
    <property name="kdenlive_id">Blur_Hard</property>
    <property name="av.sizeX">20</property>
    <property name="av.sizeY">20</property>
    <property name="av.planes">7</property>
   </filter>
  </entry>
  <blank length="00:00:22.717"/>
  <entry producer="producer779" in="00:00:00.083" out="00:00:01.383">
   <property name="kdenlive:id">649</property>
  </entry>
  <blank length="00:00:43.717"/>
  <entry producer="producer777" in="00:00:00.000" out="00:00:01.883">
   <property name="kdenlive:id">671</property>
   <filter id="filter968">
    <property name="rotate_center">1</property>
    <property name="mlt_service">qtblend</property>
    <property name="kdenlive_id">CLIP_DS2_MEME</property>
    <property name="rect">00:00:00.000=0 0 1920 1080 1.000000;00:00:00.317=0 0 1920 1080 1.000000;00:00:00.500=0 0 1920 1080 0.000000</property>
    <property name="rotation">00:00:00.000=0;00:00:00.317=0;00:00:00.500=0</property>
    <property name="compositing">0</property>
    <property name="distort">0</property>
    <property name="kdenlive:collapsed">0</property>
   </filter>
  </entry>
  <blank length="00:00:10.200"/>
  <entry producer="producer777" in="00:00:00.000" out="00:00:01.883">
   <property name="kdenlive:id">671</property>
   <filter id="filter969">
    <property name="rotate_center">1</property>
    <property name="mlt_service">qtblend</property>
    <property name="kdenlive_id">CLIP_DS2_MEME</property>
    <property name="rect">00:00:00.000=0 0 1920 1080 1.000000;00:00:00.317=0 0 1920 1080 1.000000;00:00:00.500=0 0 1920 1080 0.000000</property>
    <property name="rotation">00:00:00.000=0;00:00:00.317=0;00:00:00.500=0</property>
    <property name="compositing">0</property>
    <property name="distort">0</property>
    <property name="kdenlive:collapsed">0</property>
   </filter>
  </entry>
  <blank length="00:00:06.550"/>
  <entry producer="producer624" in="00:00:00.000" out="00:00:13.433">
   <property name="kdenlive:id">691</property>
   <filter id="filter970" out="00:00:00.217">
    <property name="start">1</property>
    <property name="level">1</property>
    <property name="mlt_service">brightness</property>
    <property name="kdenlive_id">fade_from_black</property>
    <property name="alpha">00:00:00.000=0;00:00:00.217=1</property>
    <property name="kdenlive:collapsed">0</property>
   </filter>
   <filter id="filter971">
    <property name="rotate_center">1</property>
    <property name="mlt_service">qtblend</property>
    <property name="kdenlive_id">qtblend</property>
    <property name="rect">00:00:00.000=0 0 1920 1080 1.000000;00:00:02.983=0 0 1920 1080 1.000000;00:00:03.083=0 -301 1344 756 1.000000</property>
    <property name="rotation">00:00:00.000=0;00:00:02.983=0;00:00:03.083=0</property>
    <property name="compositing">0</property>
    <property name="distort">0</property>
    <property name="kdenlive:collapsed">0</property>
   </filter>
  </entry>
  <blank length="00:00:02.550"/>
  <entry producer="producer777" in="00:00:00.000" out="00:00:01.883">
   <property name="kdenlive:id">671</property>
   <filter id="filter972">
    <property name="rotate_center">1</property>
    <property name="mlt_service">qtblend</property>
    <property name="kdenlive_id">CLIP_DS2_MEME</property>
    <property name="rect">00:00:00.000=0 0 1920 1080 1.000000;00:00:00.317=0 0 1920 1080 1.000000;00:00:00.500=0 0 1920 1080 0.000000</property>
    <property name="rotation">00:00:00.000=0;00:00:00.317=0;00:00:00.500=0</property>
    <property name="compositing">0</property>
    <property name="distort">0</property>
    <property name="kdenlive:collapsed">0</property>
   </filter>
  </entry>
  <blank length="00:00:24.567"/>
  <entry producer="producer778" in="01:45:23.750" out="01:45:24.083">
   <property name="kdenlive:id">679</property>
   <filter id="filter973">
    <property name="rotate_center">1</property>
    <property name="mlt_service">qtblend</property>
    <property name="kdenlive_id">qtblend</property>
    <property name="rect">01:45:23.750=-358 -217 2304 1296 1.000000</property>
    <property name="rotation">01:45:23.750=0</property>
    <property name="compositing">0</property>
    <property name="distort">0</property>
    <property name="kdenlive:collapsed">0</property>
   </filter>
   <filter id="filter974">
    <property name="rotate_center">1</property>
    <property name="mlt_service">qtblend</property>
    <property name="kdenlive_id">qtblend</property>
    <property name="rect">01:45:23.750=-8230 -4009 10368 5832 1.000000</property>
    <property name="rotation">01:45:23.750=0</property>
    <property name="compositing">0</property>
    <property name="distort">0</property>
    <property name="kdenlive:collapsed">1</property>
   </filter>
   <filter id="filter975">
    <property name="rotate_center">1</property>
    <property name="mlt_service">qtblend</property>
    <property name="kdenlive_id">qtblend</property>
    <property name="rect">01:45:23.750=0 0 1920 1080 1</property>
    <property name="rotation">01:45:23.750=0</property>
    <property name="compositing">0</property>
    <property name="distort">0</property>
    <property name="kdenlive:collapsed">1</property>
   </filter>
   <filter id="filter976">
    <property name="filter">rotoscoping</property>
    <property name="mlt_service">mask_start</property>
    <property name="kdenlive_id">mask_start-rotoscoping</property>
    <property name="filter.spline">{
    "307140": [
        [
            [
                0.14191461836998706,
                0.9857142857142858
            ],
            [
                0.14294954721862874,
                0.9746543778801843
            ],
            [
                0.15019404915912032,
                0.9451612903225807
            ]
        ],
        [
            [
                0.1719275549805951,
                0.8566820276497695
            ],
            [
                0.1791720569210867,
                0.8271889400921658
            ],
            [
                0.2055627425614489,
                0.8133640552995391
            ]
        ],
        [
            [
                0.2847347994825356,
                0.771889400921659
            ],
            [
                0.31112548512289784,
                0.7580645161290323
            ],
            [
                0.322509702457956,
                0.7543778801843318
            ]
        ],
        [
            [
                0.3566623544631307,
                0.7433179723502304
            ],
            [
                0.3680465717981889,
                0.73963133640553
            ],
            [
                0.35976714100905566,
                0.7258064516129032
            ]
        ],
        [
            [
                0.3349288486416559,
                0.684331797235023
            ],
            [
                0.32664941785252266,
                0.6705069124423964
            ],
            [
                0.31888745148771025,
                0.6262672811059907
            ]
        ],
        [
            [
                0.29560155239327296,
                0.4935483870967742
            ],
            [
                0.28783958602846055,
                0.44930875576036866
            ],
            [
                0.29353169469598966,
                0.3930875576036867
            ]
        ],
        [
            [
                0.310608020698577,
                0.22442396313364057
            ],
            [
                0.31630012936610613,
                0.16820276497695855
            ],
            [
                0.33182406209573095,
                0.13686635944700462
            ]
        ],
        [
            [
                0.3783958602846055,
                0.042857142857142864
            ],
            [
                0.3939197930142303,
                0.01152073732718894
            ],
            [
                0.4280724450194049,
                0.0152073732718894
            ]
        ],
        [
            [
                0.5305304010349289,
                0.02626728110599078
            ],
            [
                0.5646830530401036,
                0.029953917050691243
            ],
            [
                0.5822768434670117,
                0.04838709677419355
            ]
        ],
        [
            [
                0.6350582147477362,
                0.10368663594470046
            ],
            [
                0.6526520051746443,
                0.12211981566820276
            ],
            [
                0.6578266494178525,
                0.14608294930875576
            ]
        ],
        [
            [
                0.6733505821474774,
                0.21797235023041475
            ],
            [
                0.6785252263906857,
                0.24193548387096775
            ],
            [
                0.6821474773609315,
                0.267741935483871
            ]
        ],
        [
            [
                0.6930142302716688,
                0.34516129032258064
            ],
            [
                0.6966364812419147,
                0.3709677419354839
            ],
            [
                0.6919793014230272,
                0.41612903225806447
            ]
        ],
        [
            [
                0.6780077619663648,
                0.5516129032258065
            ],
            [
                0.6733505821474774,
                0.5967741935483871
            ],
            [
                0.6614489003880983,
                0.6078341013824885
            ]
        ],
        [
            [
                0.6257438551099612,
                0.6410138248847926
            ],
            [
                0.6138421733505821,
                0.652073732718894
            ],
            [
                0.6184993531694697,
                0.66036866359447
            ]
        ],
        [
            [
                0.632470892626132,
                0.6852534562211982
            ],
            [
                0.6371280724450195,
                0.6935483870967741
            ],
            [
                0.6578266494178526,
                0.7073732718894009
            ]
        ],
        [
            [
                0.7199223803363518,
                0.7488479262672811
            ],
            [
                0.740620957309185,
                0.7626728110599078
            ],
            [
                0.7633893919793013,
                0.7774193548387097
            ]
        ],
        [
            [
                0.8316946959896507,
                0.8216589861751152
            ],
            [
                0.8544631306597671,
                0.836405529953917
            ],
            [
                0.8632600258732211,
                0.8778801843317973
            ]
        ],
        [
            [
                0.8896507115135834,
                1.0023041474654377
            ],
            [
                0.8984476067270375,
                1.0437788018433178
            ],
            [
                0.7463130659767141,
                1.0410138248847927
            ]
        ],
        [
            [
                0.28990944372574384,
                1.0327188940092167
            ],
            [
                0.13777490297542044,
                1.0299539170506913
            ],
            [
                0.13880983182406212,
                1.01889400921659
            ]
        ]
    ]
}
</property>
    <property name="filter.mode">alpha</property>
    <property name="filter.alpha_operation">clear</property>
    <property name="filter.invert">0</property>
    <property name="filter.feather">49</property>
    <property name="filter.feather_passes">2</property>
    <property name="kdenlive:collapsed">1</property>
   </filter>
   <filter id="filter977">
    <property name="rotate_center">1</property>
    <property name="mlt_service">qtblend</property>
    <property name="kdenlive_id">qtblend</property>
    <property name="rect">01:45:23.750=543 -67 2112 1188 1.000000</property>
    <property name="rotation">01:45:23.750=0</property>
    <property name="compositing">0</property>
    <property name="distort">0</property>
    <property name="kdenlive:collapsed">1</property>
   </filter>
  </entry>
  <blank length="00:00:21.017"/>
  <entry producer="producer634" in="00:00:00.000" out="00:00:01.017">
   <property name="kdenlive:id">696</property>
   <filter id="filter978">
    <property name="rotate_center">1</property>
    <property name="mlt_service">qtblend</property>
    <property name="kdenlive_id">qtblend</property>
    <property name="rect">00:00:00.000=-314 -7 1632 918 1.000000</property>
    <property name="rotation">00:00:00.000=0</property>
    <property name="compositing">0</property>
    <property name="distort">0</property>
    <property name="kdenlive:collapsed">1</property>
   </filter>
   <filter id="filter979">
    <property name="rotate_center">1</property>
    <property name="mlt_service">qtblend</property>
    <property name="kdenlive_id">qtblend</property>
    <property name="rect">00:00:00.000=96 54 1728 972 1.000000;00:00:00.050=0 0 1920 1080 1.000000</property>
    <property name="rotation">00:00:00.000=0;00:00:00.050=0</property>
    <property name="compositing">0</property>
    <property name="distort">0</property>
    <property name="kdenlive:collapsed">1</property>
   </filter>
   <filter id="filter980" in="00:00:00.850" out="00:00:01.017">
    <property name="start">1</property>
    <property name="level">1</property>
    <property name="mlt_service">brightness</property>
    <property name="kdenlive_id">fade_to_black</property>
    <property name="alpha">00:00:00.000=1;00:00:00.167=0</property>
    <property name="kdenlive:collapsed">0</property>
   </filter>
  </entry>
  <blank length="00:00:13.100"/>
  <entry producer="producer778" in="02:22:50.600" out="02:22:52.683">
   <property name="kdenlive:id">679</property>
   <filter id="filter981">
    <property name="rotate_center">1</property>
    <property name="mlt_service">qtblend</property>
    <property name="kdenlive_id">qtblend</property>
    <property name="rect">02:22:50.600=-9230 -4688 11424 6426 0.400000;02:22:52.683=-9230 -4688 11424 6426 0.850000</property>
    <property name="rotation">02:22:50.600=0;02:22:52.683=0</property>
    <property name="compositing">0</property>
    <property name="distort">0</property>
    <property name="kdenlive:collapsed">0</property>
   </filter>
   <filter id="filter982">
    <property name="rotate_center">1</property>
    <property name="mlt_service">qtblend</property>
    <property name="kdenlive_id">qtblend</property>
    <property name="rect">02:22:50.600=0 0 1920 1080 1.000000;02:22:52.683=-144 -81 2208 1242 1.000000</property>
    <property name="rotation">02:22:50.600=0;02:22:52.683=0</property>
    <property name="compositing">0</property>
    <property name="distort">0</property>
    <property name="kdenlive:collapsed">0</property>
   </filter>
   <filter id="filter983" in="02:22:50.600" out="02:22:52.000">
    <property name="start">1</property>
    <property name="level">1</property>
    <property name="mlt_service">brightness</property>
    <property name="kdenlive_id">fade_from_black</property>
    <property name="alpha">00:00:00.000=0;00:00:01.400=1</property>
    <property name="kdenlive:collapsed">0</property>
   </filter>
  </entry>
  <blank length="00:00:13.950"/>
  <entry producer="producer636" in="00:00:00.000" out="00:00:04.083">
   <property name="kdenlive:id">698</property>
   <filter id="filter984" out="00:00:03.933">
    <property name="start">1</property>
    <property name="level">1</property>
    <property name="mlt_service">brightness</property>
    <property name="kdenlive_id">fade_from_black</property>
    <property name="alpha">00:00:00.000=0;00:00:03.933=1</property>
    <property name="kdenlive:collapsed">0</property>
   </filter>
   <filter id="filter985">
    <property name="rotate_center">1</property>
    <property name="mlt_service">qtblend</property>
    <property name="kdenlive_id">qtblend</property>
    <property name="rect">00:00:00.000=386 503 384 216 1.000000</property>
    <property name="rotation">00:00:00.000=0</property>
    <property name="compositing">0</property>
    <property name="distort">0</property>
    <property name="kdenlive:collapsed">0</property>
   </filter>
  </entry>
  <blank length="00:00:17.050"/>
  <entry producer="producer780" in="00:29:29.250" out="00:29:29.867">
   <property name="kdenlive:id">680</property>
   <filter id="filter986">
    <property name="rotate_center">1</property>
    <property name="mlt_service">qtblend</property>
    <property name="kdenlive_id">qtblend</property>
    <property name="rect">00:29:29.250=-4992 -2808 6912 3888 1.000000</property>
    <property name="rotation">00:29:29.250=0</property>
    <property name="compositing">0</property>
    <property name="distort">0</property>
    <property name="kdenlive:collapsed">1</property>
   </filter>
   <filter id="filter987">
    <property name="rotate_center">1</property>
    <property name="mlt_service">qtblend</property>
    <property name="kdenlive_id">qtblend</property>
    <property name="rect">00:29:29.250=-633 -130 2587 1455 1.000000;00:29:29.867=-680 -157 2682 1509 1.000000</property>
    <property name="rotation">00:29:29.250=0;00:29:29.867=0</property>
    <property name="compositing">0</property>
    <property name="distort">0</property>
    <property name="kdenlive:collapsed">0</property>
   </filter>
  </entry>
  <blank length="00:00:06.617"/>
  <entry producer="producer777" in="00:00:00.000" out="00:00:01.883">
   <property name="kdenlive:id">671</property>
   <filter id="filter988">
    <property name="rotate_center">1</property>
    <property name="mlt_service">qtblend</property>
    <property name="kdenlive_id">CLIP_DS2_MEME</property>
    <property name="rect">00:00:00.000=0 0 1920 1080 1.000000;00:00:00.317=0 0 1920 1080 1.000000;00:00:00.500=0 0 1920 1080 0.000000</property>
    <property name="rotation">00:00:00.000=0;00:00:00.317=0;00:00:00.500=0</property>
    <property name="compositing">0</property>
    <property name="distort">0</property>
    <property name="kdenlive:collapsed">0</property>
   </filter>
  </entry>
  <blank length="00:00:10.367"/>
  <entry producer="producer781" in="05:10:47.767" out="05:10:49.433">
   <property name="kdenlive:id">680</property>
   <filter id="filter989">
    <property name="filter">frei0r.alphaspot</property>
    <property name="mlt_service">mask_start</property>
    <property name="kdenlive_id">mask_start-frei0r.alphaspot</property>
    <property name="filter.Shape">0</property>
    <property name="filter.Position X">05:10:47.767=0.328</property>
    <property name="filter.Position Y">05:10:47.767=0.128</property>
    <property name="filter.Size X">05:10:47.767=0.215</property>
    <property name="filter.Size Y">05:10:47.767=0.1</property>
    <property name="filter.Tilt">05:10:47.767=0.5</property>
    <property name="filter.Transition width">05:10:47.767=0.2</property>
    <property name="filter.Min">05:10:47.767=0</property>
    <property name="filter.Max">05:10:47.767=1</property>
    <property name="filter.Operation">0</property>
    <property name="kdenlive:collapsed">1</property>
   </filter>
   <filter id="filter990">
    <property name="rotate_center">1</property>
    <property name="mlt_service">qtblend</property>
    <property name="kdenlive_id">qtblend</property>
    <property name="rect">05:10:47.767=-266 -46 2304 1296 1.000000</property>
    <property name="rotation">05:10:47.767=0</property>
    <property name="compositing">0</property>
    <property name="distort">0</property>
    <property name="kdenlive:collapsed">0</property>
   </filter>
   <filter id="filter991" in="05:10:47.767" out="05:10:48.017">
    <property name="start">1</property>
    <property name="level">1</property>
    <property name="mlt_service">brightness</property>
    <property name="kdenlive_id">fade_from_black</property>
    <property name="alpha">00:00:00.000=0;00:00:00.250=1</property>
    <property name="kdenlive:collapsed">0</property>
   </filter>
  </entry>
  <blank length="00:00:29.550"/>
  <entry producer="producer777" in="00:00:00.000" out="00:00:01.883">
   <property name="kdenlive:id">671</property>
   <filter id="filter992">
    <property name="rotate_center">1</property>
    <property name="mlt_service">qtblend</property>
    <property name="kdenlive_id">CLIP_DS2_MEME</property>
    <property name="rect">00:00:00.000=0 0 1920 1080 1.000000;00:00:00.317=0 0 1920 1080 1.000000;00:00:00.500=0 0 1920 1080 0.000000</property>
    <property name="rotation">00:00:00.000=0;00:00:00.317=0;00:00:00.500=0</property>
    <property name="compositing">0</property>
    <property name="distort">0</property>
    <property name="kdenlive:collapsed">0</property>
   </filter>
  </entry>
  <blank length="00:00:04.033"/>
  <entry producer="producer631" in="00:00:00.000" out="00:00:00.800">
   <property name="kdenlive:id">687</property>
   <filter id="filter993">
    <property name="rotate_center">1</property>
    <property name="mlt_service">qtblend</property>
    <property name="kdenlive_id">qtblend</property>
    <property name="rect">00:00:00.000=627 125 1728 972 1.000000</property>
    <property name="rotation">00:00:00.000=0</property>
    <property name="compositing">0</property>
    <property name="distort">0</property>
    <property name="kdenlive:collapsed">0</property>
   </filter>
   <filter id="filter994" out="00:00:00.583">
    <property name="start">1</property>
    <property name="level">1</property>
    <property name="mlt_service">brightness</property>
    <property name="kdenlive_id">fade_from_black</property>
    <property name="alpha">00:00:00.000=0;00:00:00.583=1</property>
   </filter>
  </entry>
  <blank length="00:01:10.100"/>
  <entry producer="producer780" in="01:32:02.817" out="01:32:03.267">
   <property name="kdenlive:id">680</property>
   <filter id="filter995">
    <property name="rotate_center">1</property>
    <property name="mlt_service">qtblend</property>
    <property name="kdenlive_id">qtblend</property>
    <property name="rect">01:32:02.817=-4992 -2808 6912 3888 1.000000</property>
    <property name="rotation">01:32:02.817=0</property>
    <property name="compositing">0</property>
    <property name="distort">0</property>
    <property name="kdenlive:collapsed">1</property>
   </filter>
   <filter id="filter996">
    <property name="rotate_center">1</property>
    <property name="mlt_service">qtblend</property>
    <property name="kdenlive_id">qtblend</property>
    <property name="rect">01:32:02.817=-576 -324 2496 1404 1.000000</property>
    <property name="rotation">01:32:02.817=0</property>
    <property name="compositing">0</property>
    <property name="distort">0</property>
    <property name="kdenlive:collapsed">1</property>
   </filter>
   <filter id="filter997">
    <property name="filter">rotoscoping</property>
    <property name="mlt_service">mask_start</property>
    <property name="kdenlive_id">mask_start-rotoscoping</property>
    <property name="filter.spline">{
    "331369": [
        [
            [
                0.43669250645994834,
                1.0066666666666666
            ],
            [
                0.43669250645994834,
                1.0011494252873563
            ],
            [
                0.45219638242894056,
                0.9772413793103449
            ]
        ],
        [
            [
                0.49870801033591733,
                0.9055172413793103
            ],
            [
                0.5142118863049095,
                0.8816091954022988
            ],
            [
                0.5359173126614987,
                0.8632183908045976
            ]
        ],
        [
            [
                0.6010335917312661,
                0.8080459770114942
            ],
            [
                0.6227390180878554,
                0.789655172413793
            ],
            [
                0.6124031007751938,
                0.7731034482758621
            ]
        ],
        [
            [
                0.5813953488372092,
                0.723448275862069
            ],
            [
                0.5710594315245477,
                0.7068965517241379
            ],
            [
                0.5607235142118863,
                0.7022988505747126
            ]
        ],
        [
            [
                0.5297157622739018,
                0.6885057471264368
            ],
            [
                0.5193798449612402,
                0.6839080459770115
            ],
            [
                0.5167958656330749,
                0.6471264367816092
            ]
        ],
        [
            [
                0.5090439276485789,
                0.5367816091954023
            ],
            [
                0.5064599483204134,
                0.5
            ],
            [
                0.5064599483204134,
                0.4549425287356322
            ]
        ],
        [
            [
                0.5064599483204134,
                0.3197701149425287
            ],
            [
                0.5064599483204134,
                0.2747126436781609
            ],
            [
                0.5136950904392765,
                0.24344827586206894
            ]
        ],
        [
            [
                0.5354005167958656,
                0.1496551724137931
            ],
            [
                0.5426356589147286,
                0.11839080459770114
            ],
            [
                0.5586563307493541,
                0.10643678160919541
            ]
        ],
        [
            [
                0.60671834625323,
                0.07057471264367815
            ],
            [
                0.6227390180878554,
                0.05862068965517241
            ],
            [
                0.6496124031007752,
                0.054942528735632185
            ]
        ],
        [
            [
                0.7302325581395349,
                0.04390804597701149
            ],
            [
                0.7571059431524547,
                0.04022988505747126
            ],
            [
                0.7813953488372093,
                0.04666666666666667
            ]
        ],
        [
            [
                0.8542635658914729,
                0.06597701149425288
            ],
            [
                0.8785529715762274,
                0.07241379310344828
            ],
            [
                0.888888888888889,
                0.09540229885057472
            ]
        ],
        [
            [
                0.8914728682170542,
                0.16896551724137931
            ],
            [
                0.9018087855297157,
                0.19195402298850572
            ],
            [
                0.8992248062015503,
                0.22505747126436781
            ]
        ],
        [
            [
                0.9198966408268734,
                0.3197701149425287
            ],
            [
                0.9173126614987079,
                0.35287356321839075
            ],
            [
                0.9250645994832041,
                0.39793103448275857
            ]
        ],
        [
            [
                0.9302325581395349,
                0.5101149425287357
            ],
            [
                0.937984496124031,
                0.5551724137931034
            ],
            [
                0.9204134366925064,
                0.5781609195402299
            ]
        ],
        [
            [
                0.9322997416020672,
                0.6701149425287357
            ],
            [
                0.9147286821705426,
                0.6931034482758621
            ],
            [
                0.9136950904392764,
                0.707816091954023
            ]
        ],
        [
            [
                0.8640826873385012,
                0.7519540229885058
            ],
            [
                0.8630490956072351,
                0.7666666666666667
            ],
            [
                0.8749354005167959,
                0.7703448275862069
            ]
        ],
        [
            [
                0.910594315245478,
                0.7813793103448275
            ],
            [
                0.9224806201550387,
                0.7850574712643678
            ],
            [
                0.9385012919896641,
                0.8025287356321839
            ]
        ],
        [
            [
                0.98656330749354,
                0.8549425287356321
            ],
            [
                1.0025839793281655,
                0.8724137931034482
            ],
            [
                1.001033591731266,
                0.9312643678160919
            ]
        ],
        [
            [
                0.9963824289405685,
                1.107816091954023
            ],
            [
                0.9948320413436692,
                1.1666666666666667
            ],
            [
                0.8832041343669251,
                1.139080459770115
            ]
        ],
        [
            [
                0.5483204134366926,
                1.0563218390804596
            ],
            [
                0.43669250645994834,
                1.028735632183908
            ],
            [
                0.43669250645994834,
                1.0232183908045978
            ]
        ]
    ]
}
</property>
    <property name="filter.mode">alpha</property>
    <property name="filter.alpha_operation">clear</property>
    <property name="filter.invert">0</property>
    <property name="filter.feather">41</property>
    <property name="filter.feather_passes">3</property>
    <property name="kdenlive:collapsed">1</property>
   </filter>
   <filter id="filter998">
    <property name="rotate_center">1</property>
    <property name="mlt_service">qtblend</property>
    <property name="kdenlive_id">qtblend</property>
    <property name="rect">01:32:02.817=119 -86 2112 1188 1.000000;01:32:03.267=-144 -195 2400 1350 1.000000</property>
    <property name="rotation">01:32:02.817=0;01:32:03.267=0</property>
    <property name="compositing">0</property>
    <property name="distort">0</property>
    <property name="kdenlive:collapsed">0</property>
   </filter>
  </entry>
  <blank length="00:00:16.567"/>
  <entry producer="producer780" in="01:37:06.017" out="01:37:07.000">
   <property name="kdenlive:id">680</property>
   <filter id="filter999">
    <property name="rotate_center">1</property>
    <property name="mlt_service">qtblend</property>
    <property name="kdenlive_id">qtblend</property>
    <property name="rect">01:37:06.017=-206 0 7776 4374 1.000000;01:37:06.467=-2806 0 7776 4374 1.000000</property>
    <property name="rotation">01:37:06.017=0;01:37:06.467=0</property>
    <property name="compositing">0</property>
    <property name="distort">0</property>
    <property name="kdenlive:collapsed">1</property>
   </filter>
  </entry>
  <blank length="00:00:01.650"/>
  <entry producer="producer780" in="01:37:56.000" out="01:37:57.500">
   <property name="kdenlive:id">680</property>
   <filter id="filter1000">
    <property name="rotate_center">1</property>
    <property name="mlt_service">qtblend</property>
    <property name="kdenlive_id">qtblend</property>
    <property name="rect">01:37:56.000=-1 280 2016 1134 1.000000</property>
    <property name="rotation">01:37:56.000=0</property>
    <property name="compositing">0</property>
    <property name="distort">0</property>
    <property name="kdenlive:collapsed">1</property>
   </filter>
   <filter id="filter1001">
    <property name="rotate_center">1</property>
    <property name="mlt_service">qtblend</property>
    <property name="kdenlive_id">qtblend</property>
    <property name="rect">01:37:56.000=-4992 -2808 6912 3888 1.000000</property>
    <property name="rotation">01:37:56.000=0</property>
    <property name="compositing">0</property>
    <property name="distort">0</property>
    <property name="kdenlive:collapsed">1</property>
   </filter>
  </entry>
  <blank length="00:00:02.433"/>
  <entry producer="producer780" in="01:38:19.600" out="01:38:21.633">
   <property name="kdenlive:id">680</property>
   <filter id="filter1002">
    <property name="rotate_center">1</property>
    <property name="mlt_service">qtblend</property>
    <property name="kdenlive_id">qtblend</property>
    <property name="rect">01:38:19.600=-1332 -289 4416 2484 1.000000</property>
    <property name="rotation">01:38:19.600=0</property>
    <property name="compositing">0</property>
    <property name="distort">0</property>
    <property name="kdenlive:collapsed">1</property>
   </filter>
   <filter id="filter1003">
    <property name="rotate_center">1</property>
    <property name="mlt_service">qtblend</property>
    <property name="kdenlive_id">qtblend</property>
    <property name="rect">01:38:19.600=0 0 1920 1080 1.000000;01:38:21.633=-48 -27 2016 1134 1.000000</property>
    <property name="rotation">01:38:19.600=0;01:38:21.633=0</property>
    <property name="compositing">0</property>
    <property name="distort">0</property>
    <property name="kdenlive:collapsed">0</property>
   </filter>
  </entry>
  <blank length="00:00:14.917"/>
  <entry producer="producer780" in="01:57:15.567" out="01:57:18.083">
   <property name="kdenlive:id">680</property>
   <filter id="filter1004">
    <property name="rotate_center">1</property>
    <property name="mlt_service">qtblend</property>
    <property name="kdenlive_id">qtblend</property>
    <property name="rect">01:57:15.567=-4992 -2808 6912 3888 0.500000;01:57:17.800=-4992 -2808 6912 3888 0.750000</property>
    <property name="rotation">01:57:15.567=0;01:57:17.800=0</property>
    <property name="compositing">0</property>
    <property name="distort">0</property>
    <property name="kdenlive:collapsed">1</property>
   </filter>
   <filter id="filter1005">
    <property name="rotate_center">1</property>
    <property name="mlt_service">qtblend</property>
    <property name="kdenlive_id">qtblend</property>
    <property name="rect">01:57:15.567=-2374 -1072 4320 2430 1.000000</property>
    <property name="rotation">01:57:15.567=0</property>
    <property name="compositing">0</property>
    <property name="distort">0</property>
    <property name="kdenlive:collapsed">1</property>
   </filter>
   <filter id="filter1006" in="01:57:15.567" out="01:57:17.317">
    <property name="start">1</property>
    <property name="level">1</property>
    <property name="mlt_service">brightness</property>
    <property name="kdenlive_id">fade_from_black</property>
    <property name="alpha">00:00:00.000=0;00:00:01.750=1</property>
    <property name="kdenlive:collapsed">0</property>
    <property name="disable">0</property>
   </filter>
  </entry>
  <blank length="00:01:19.000"/>
  <entry producer="producer782" in="00:43:48.633" out="00:43:49.500">
   <property name="kdenlive:id">681</property>
   <filter id="filter1007">
    <property name="rotate_center">1</property>
    <property name="mlt_service">qtblend</property>
    <property name="kdenlive_id">qtblend</property>
    <property name="rect">00:43:48.633=-4992 -2725 6912 3888 1.000000</property>
    <property name="rotation">00:43:48.633=0</property>
    <property name="compositing">0</property>
    <property name="distort">0</property>
    <property name="kdenlive:collapsed">1</property>
   </filter>
   <filter id="filter1008">
    <property name="rotate_center">1</property>
    <property name="mlt_service">qtblend</property>
    <property name="kdenlive_id">qtblend</property>
    <property name="rect">00:43:48.633=-576 -324 2496 1404 1.000000</property>
    <property name="rotation">00:43:48.633=0</property>
    <property name="compositing">0</property>
    <property name="distort">0</property>
    <property name="kdenlive:collapsed">1</property>
   </filter>
   <filter id="filter1009">
    <property name="filter">rotoscoping</property>
    <property name="mlt_service">mask_start</property>
    <property name="kdenlive_id">mask_start-rotoscoping</property>
    <property name="filter.spline">{
    "331369": [
        [
            [
                0.43669250645994834,
                1.0066666666666666
            ],
            [
                0.43669250645994834,
                1.0011494252873563
            ],
            [
                0.45219638242894056,
                0.9772413793103449
            ]
        ],
        [
            [
                0.49870801033591733,
                0.9055172413793103
            ],
            [
                0.5142118863049095,
                0.8816091954022988
            ],
            [
                0.5359173126614987,
                0.8632183908045976
            ]
        ],
        [
            [
                0.6010335917312661,
                0.8080459770114942
            ],
            [
                0.6227390180878554,
                0.789655172413793
            ],
            [
                0.6124031007751938,
                0.7731034482758621
            ]
        ],
        [
            [
                0.5813953488372092,
                0.723448275862069
            ],
            [
                0.5710594315245477,
                0.7068965517241379
            ],
            [
                0.5607235142118863,
                0.7022988505747126
            ]
        ],
        [
            [
                0.5297157622739018,
                0.6885057471264368
            ],
            [
                0.5193798449612402,
                0.6839080459770115
            ],
            [
                0.5167958656330749,
                0.6471264367816092
            ]
        ],
        [
            [
                0.5090439276485789,
                0.5367816091954023
            ],
            [
                0.5064599483204134,
                0.5
            ],
            [
                0.5064599483204134,
                0.4549425287356322
            ]
        ],
        [
            [
                0.5064599483204134,
                0.3197701149425287
            ],
            [
                0.5064599483204134,
                0.2747126436781609
            ],
            [
                0.5136950904392765,
                0.24344827586206894
            ]
        ],
        [
            [
                0.5354005167958656,
                0.1496551724137931
            ],
            [
                0.5426356589147286,
                0.11839080459770114
            ],
            [
                0.5586563307493541,
                0.10643678160919541
            ]
        ],
        [
            [
                0.60671834625323,
                0.07057471264367815
            ],
            [
                0.6227390180878554,
                0.05862068965517241
            ],
            [
                0.6496124031007752,
                0.054942528735632185
            ]
        ],
        [
            [
                0.7302325581395349,
                0.04390804597701149
            ],
            [
                0.7571059431524547,
                0.04022988505747126
            ],
            [
                0.7813953488372093,
                0.04666666666666667
            ]
        ],
        [
            [
                0.8542635658914729,
                0.06597701149425288
            ],
            [
                0.8785529715762274,
                0.07241379310344828
            ],
            [
                0.888888888888889,
                0.09540229885057472
            ]
        ],
        [
            [
                0.8914728682170542,
                0.16896551724137931
            ],
            [
                0.9018087855297157,
                0.19195402298850572
            ],
            [
                0.8992248062015503,
                0.22505747126436781
            ]
        ],
        [
            [
                0.9198966408268734,
                0.3197701149425287
            ],
            [
                0.9173126614987079,
                0.35287356321839075
            ],
            [
                0.9250645994832041,
                0.39793103448275857
            ]
        ],
        [
            [
                0.9302325581395349,
                0.5101149425287357
            ],
            [
                0.937984496124031,
                0.5551724137931034
            ],
            [
                0.9204134366925064,
                0.5781609195402299
            ]
        ],
        [
            [
                0.9322997416020672,
                0.6701149425287357
            ],
            [
                0.9147286821705426,
                0.6931034482758621
            ],
            [
                0.9136950904392764,
                0.707816091954023
            ]
        ],
        [
            [
                0.8640826873385012,
                0.7519540229885058
            ],
            [
                0.8630490956072351,
                0.7666666666666667
            ],
            [
                0.8749354005167959,
                0.7703448275862069
            ]
        ],
        [
            [
                0.910594315245478,
                0.7813793103448275
            ],
            [
                0.9224806201550387,
                0.7850574712643678
            ],
            [
                0.9385012919896641,
                0.8025287356321839
            ]
        ],
        [
            [
                0.98656330749354,
                0.8549425287356321
            ],
            [
                1.0025839793281655,
                0.8724137931034482
            ],
            [
                1.001033591731266,
                0.9312643678160919
            ]
        ],
        [
            [
                0.9963824289405685,
                1.107816091954023
            ],
            [
                0.9948320413436692,
                1.1666666666666667
            ],
            [
                0.8832041343669251,
                1.139080459770115
            ]
        ],
        [
            [
                0.5483204134366926,
                1.0563218390804596
            ],
            [
                0.43669250645994834,
                1.028735632183908
            ],
            [
                0.43669250645994834,
                1.0232183908045978
            ]
        ]
    ]
}
</property>
    <property name="filter.mode">alpha</property>
    <property name="filter.alpha_operation">clear</property>
    <property name="filter.invert">0</property>
    <property name="filter.feather">41</property>
    <property name="filter.feather_passes">3</property>
    <property name="kdenlive:collapsed">1</property>
   </filter>
   <filter id="filter1010">
    <property name="rotate_center">1</property>
    <property name="mlt_service">qtblend</property>
    <property name="kdenlive_id">qtblend</property>
    <property name="rect">00:43:48.633=-62 -127 2304 1296 1.000000</property>
    <property name="rotation">00:43:48.633=0</property>
    <property name="compositing">0</property>
    <property name="distort">0</property>
    <property name="kdenlive:collapsed">0</property>
   </filter>
  </entry>
  <blank length="00:00:12.033"/>
  <entry producer="producer782" in="00:52:04.517" out="00:52:06.433">
   <property name="kdenlive:id">681</property>
  </entry>
  <blank length="00:00:01.817"/>
  <entry producer="producer782" in="00:52:33.517" out="00:52:34.433">
   <property name="kdenlive:id">681</property>
  </entry>
  <blank length="00:01:06.967"/>
  <entry producer="producer777" in="00:00:00.000" out="00:00:01.917">
   <property name="kdenlive:id">671</property>
   <filter id="filter1011">
    <property name="rotate_center">1</property>
    <property name="mlt_service">qtblend</property>
    <property name="kdenlive_id">CLIP_DS2_MEME</property>
    <property name="rect">00:00:00.000=0 0 1920 1080 1.000000;00:00:00.317=0 0 1920 1080 1.000000;00:00:00.500=0 0 1920 1080 0.000000</property>
    <property name="rotation">00:00:00.000=0;00:00:00.317=0;00:00:00.500=0</property>
    <property name="compositing">0</property>
    <property name="distort">0</property>
    <property name="kdenlive:collapsed">0</property>
   </filter>
  </entry>
  <blank length="00:00:09.217"/>
  <entry producer="producer783" in="00:00:03.300" out="00:00:06.300">
   <property name="kdenlive:id">563</property>
   <filter id="filter1012">
    <property name="version">0.6</property>
    <property name="mlt_service">frei0r.select0r</property>
    <property name="kdenlive_id">frei0r.select0r</property>
    <property name="Color to select">0x00ff00ff</property>
    <property name="Invert selection">1</property>
    <property name="Selection subspace">0</property>
    <property name="Subspace shape">0.5</property>
    <property name="Edge mode">0.9</property>
    <property name="Delta R / A / Hue">00:00:03.300=0.498</property>
    <property name="Delta G / B / Chroma">00:00:03.300=0.441</property>
    <property name="Delta B / I / I">00:00:03.300=0.701</property>
    <property name="Slope">00:00:03.300=0.513</property>
    <property name="Operation">0.5</property>
    <property name="kdenlive:collapsed">0</property>
   </filter>
   <filter id="filter1013">
    <property name="rotate_center">1</property>
    <property name="mlt_service">qtblend</property>
    <property name="kdenlive_id">qtblend</property>
    <property name="rect">00:00:03.300=-17 129 1728 972 1.000000</property>
    <property name="rotation">00:00:03.300=0</property>
    <property name="compositing">0</property>
    <property name="distort">0</property>
    <property name="kdenlive:collapsed">0</property>
   </filter>
  </entry>
  <blank length="00:00:36.633"/>
  <entry producer="producer782" in="01:43:54.833" out="01:44:03.250">
   <property name="kdenlive:id">681</property>
   <filter id="filter1014" in="01:43:54.833" out="01:43:59.550">
    <property name="start">1</property>
    <property name="level">1</property>
    <property name="mlt_service">brightness</property>
    <property name="kdenlive_id">fade_from_black</property>
    <property name="alpha">00:00:00.000=0;00:00:04.717=1</property>
    <property name="kdenlive:collapsed">1</property>
   </filter>
   <filter id="filter1015">
    <property name="rotate_center">1</property>
    <property name="mlt_service">qtblend</property>
    <property name="kdenlive_id">qtblend</property>
    <property name="rect">01:43:54.833=-4992 -2808 6912 3888 1.000000</property>
    <property name="rotation">01:43:54.833=0</property>
    <property name="compositing">0</property>
    <property name="distort">0</property>
    <property name="kdenlive:collapsed">1</property>
   </filter>
   <filter id="filter1016">
    <property name="rotate_center">1</property>
    <property name="mlt_service">qtblend</property>
    <property name="kdenlive_id">qtblend</property>
    <property name="rect">01:43:54.833=-720 -396 2688 1512 1.000000</property>
    <property name="rotation">01:43:54.833=0</property>
    <property name="compositing">0</property>
    <property name="distort">0</property>
    <property name="kdenlive:collapsed">1</property>
   </filter>
   <filter id="filter1017">
    <property name="rotate_center">1</property>
    <property name="mlt_service">qtblend</property>
    <property name="kdenlive_id">qtblend</property>
    <property name="rect">01:43:54.833=0 0 1920 1080 1.000000;01:44:00.100=-412 -156 2348 1320 1.000000;01:44:01.250=-1017 -500 2976 1674 1.000000</property>
    <property name="rotation">01:43:54.833=0;01:44:00.100=0;01:44:01.250=0</property>
    <property name="compositing">0</property>
    <property name="distort">0</property>
    <property name="kdenlive:collapsed">0</property>
   </filter>
   <filter id="filter1018">
    <property name="version">0.3</property>
    <property name="mlt_service">frei0r.saturat0r</property>
    <property name="kdenlive_id">frei0r.saturat0r</property>
    <property name="Saturation">01:43:54.833=0.125;01:44:03.250=0.05</property>
    <property name="kdenlive:collapsed">0</property>
   </filter>
  </entry>
  <blank length="00:00:35.467"/>
  <entry producer="producer784" in="00:44:19.583" out="00:44:21.767">
   <property name="kdenlive:id">682</property>
   <filter id="filter1019" in="00:44:19.583" out="00:44:20.517">
    <property name="start">1</property>
    <property name="level">1</property>
    <property name="mlt_service">brightness</property>
    <property name="kdenlive_id">fade_from_black</property>
    <property name="alpha">00:00:00.000=0;00:00:00.933=1</property>
    <property name="kdenlive:collapsed">0</property>
   </filter>
   <filter id="filter1020">
    <property name="rotate_center">1</property>
    <property name="mlt_service">qtblend</property>
    <property name="kdenlive_id">qtblend</property>
    <property name="rect">00:44:19.583=-9230 -4607 11424 6426 1.000000</property>
    <property name="rotation">00:44:19.583=0</property>
    <property name="compositing">0</property>
    <property name="distort">0</property>
    <property name="kdenlive:collapsed">0</property>
   </filter>
   <filter id="filter1021">
    <property name="rotate_center">1</property>
    <property name="mlt_service">qtblend</property>
    <property name="kdenlive_id">qtblend</property>
    <property name="rect">00:44:19.583=0 0 1920 1080 1</property>
    <property name="rotation">00:44:19.583=0</property>
    <property name="compositing">0</property>
    <property name="distort">0</property>
    <property name="kdenlive:collapsed">0</property>
   </filter>
  </entry>
  <blank length="00:00:20.433"/>
  <entry producer="producer720" in="00:54:27.433" out="00:54:29.033">
   <property name="kdenlive:id">682</property>
   <filter id="filter1022">
    <property name="rotate_center">1</property>
    <property name="mlt_service">qtblend</property>
    <property name="kdenlive_id">qtblend</property>
    <property name="rect">196046=-9230 -4579 11424 6426 1.000000</property>
    <property name="rotation">196046=0</property>
    <property name="compositing">0</property>
    <property name="distort">0</property>
    <property name="kdenlive:collapsed">1</property>
   </filter>
   <filter id="filter1023">
    <property name="rotate_center">1</property>
    <property name="mlt_service">qtblend</property>
    <property name="kdenlive_id">qtblend</property>
    <property name="rect">196046=0 0 1920 1080 1</property>
    <property name="rotation">196046=0</property>
    <property name="compositing">0</property>
    <property name="distort">0</property>
    <property name="kdenlive:collapsed">0</property>
   </filter>
  </entry>
  <blank length="00:00:07.417"/>
  <entry producer="producer785" in="01:02:38.933" out="01:02:42.167">
   <property name="kdenlive:id">682</property>
   <filter id="filter1024" in="01:02:38.933" out="01:02:41.000">
    <property name="start">1</property>
    <property name="level">1</property>
    <property name="mlt_service">brightness</property>
    <property name="kdenlive_id">fade_from_black</property>
    <property name="alpha">00:00:00.000=0;00:00:02.067=1</property>
    <property name="kdenlive:collapsed">0</property>
   </filter>
   <filter id="filter1025">
    <property name="rotate_center">1</property>
    <property name="mlt_service">qtblend</property>
    <property name="kdenlive_id">qtblend</property>
    <property name="rect">01:02:38.933=-9230 -4648 11424 6426 1.000000</property>
    <property name="rotation">01:02:38.933=0</property>
    <property name="compositing">0</property>
    <property name="distort">0</property>
    <property name="kdenlive:collapsed">1</property>
   </filter>
   <filter id="filter1026">
    <property name="rotate_center">1</property>
    <property name="mlt_service">qtblend</property>
    <property name="kdenlive_id">qtblend</property>
    <property name="rect">01:02:38.933=0 0 1920 1080 1.000000;01:02:42.167=-48 -27 2016 1134 1.000000</property>
    <property name="rotation">01:02:38.933=0;01:02:42.167=0</property>
    <property name="compositing">0</property>
    <property name="distort">0</property>
    <property name="kdenlive:collapsed">0</property>
   </filter>
  </entry>
  <blank length="00:00:41.950"/>
  <entry producer="producer777" in="00:00:00.000" out="00:00:01.933">
   <property name="kdenlive:id">671</property>
   <filter id="filter1027">
    <property name="rotate_center">1</property>
    <property name="mlt_service">qtblend</property>
    <property name="kdenlive_id">CLIP_DS2_MEME</property>
    <property name="rect">00:00:00.000=0 0 1920 1080 1.000000;00:00:00.317=0 0 1920 1080 1.000000;00:00:00.500=0 0 1920 1080 0.000000</property>
    <property name="rotation">00:00:00.000=0;00:00:00.317=0;00:00:00.500=0</property>
    <property name="compositing">0</property>
    <property name="distort">0</property>
    <property name="kdenlive:collapsed">0</property>
   </filter>
  </entry>
  <blank length="00:00:05.633"/>
  <entry producer="producer777" in="00:00:00.000" out="00:00:01.933">
   <property name="kdenlive:id">671</property>
   <filter id="filter1028">
    <property name="rotate_center">1</property>
    <property name="mlt_service">qtblend</property>
    <property name="kdenlive_id">CLIP_DS2_MEME</property>
    <property name="rect">00:00:00.000=0 0 1920 1080 1.000000;00:00:00.317=0 0 1920 1080 1.000000;00:00:00.500=0 0 1920 1080 0.000000</property>
    <property name="rotation">00:00:00.000=0;00:00:00.317=0;00:00:00.500=0</property>
    <property name="compositing">0</property>
    <property name="distort">0</property>
    <property name="kdenlive:collapsed">0</property>
   </filter>
  </entry>
  <blank length="00:00:10.817"/>
  <entry producer="producer786" in="00:00:00.267" out="00:00:00.750">
   <property name="kdenlive:id">54</property>
   <filter id="filter1029">
    <property name="rotate_center">1</property>
    <property name="mlt_service">qtblend</property>
    <property name="kdenlive_id">CLIP_TrollFace</property>
    <property name="rect">00:00:00.000=-576 -324 3072 1728 0.350000</property>
    <property name="rotation">00:00:00.000=0</property>
    <property name="compositing">0</property>
    <property name="distort">0</property>
    <property name="kdenlive:collapsed">0</property>
   </filter>
  </entry>
  <blank length="00:00:40.983"/>
  <entry producer="producer777" in="00:00:00.000" out="00:00:02.467">
   <property name="kdenlive:id">671</property>
   <filter id="filter1030">
    <property name="rotate_center">1</property>
    <property name="mlt_service">qtblend</property>
    <property name="kdenlive_id">CLIP_DS2_MEME</property>
    <property name="rect">00:00:00.000=0 0 1920 1080 1.000000;00:00:00.317=0 0 1920 1080 1.000000;00:00:00.500=0 0 1920 1080 0.000000</property>
    <property name="rotation">00:00:00.000=0;00:00:00.317=0;00:00:00.500=0</property>
    <property name="compositing">0</property>
    <property name="distort">0</property>
    <property name="kdenlive:collapsed">0</property>
   </filter>
  </entry>
  <blank length="00:00:11.033"/>
  <entry producer="producer787" in="00:00:00.333" out="00:00:00.883">
   <property name="kdenlive:id">412</property>
   <filter id="filter1031">
    <property name="version">0.6</property>
    <property name="mlt_service">frei0r.select0r</property>
    <property name="kdenlive_id">frei0r.select0r</property>
    <property name="Color to select">0x000000ff</property>
    <property name="Invert selection">1</property>
    <property name="Selection subspace">0</property>
    <property name="Subspace shape">0.5</property>
    <property name="Edge mode">0.9</property>
    <property name="Delta R / A / Hue">00:00:00.333=0.2</property>
    <property name="Delta G / B / Chroma">00:00:00.333=0.2</property>
    <property name="Delta B / I / I">00:00:00.333=0.2</property>
    <property name="Slope">00:00:00.333=0</property>
    <property name="Operation">0.5</property>
    <property name="kdenlive:collapsed">1</property>
    <property name="disable">0</property>
   </filter>
   <filter id="filter1032">
    <property name="rotate_center">1</property>
    <property name="mlt_service">qtblend</property>
    <property name="kdenlive_id">qtblend</property>
    <property name="rect">00:00:00.333=0 0 1920 1080 0.750000</property>
    <property name="rotation">00:00:00.333=0</property>
    <property name="compositing">0</property>
    <property name="distort">0</property>
    <property name="kdenlive:collapsed">0</property>
   </filter>
  </entry>
  <blank length="00:00:04.700"/>
  <entry producer="producer638" in="00:00:00.000" out="00:00:01.700">
   <property name="kdenlive:id">700</property>
   <filter id="filter1033">
    <property name="rotate_center">1</property>
    <property name="mlt_service">qtblend</property>
    <property name="kdenlive_id">qtblend</property>
    <property name="rect">00:00:00.000=0 547 1920 1080 1.000000;00:00:00.067=0 349 1920 1080 1.000000</property>
    <property name="rotation">00:00:00.000=0;00:00:00.067=0</property>
    <property name="compositing">0</property>
    <property name="distort">0</property>
    <property name="kdenlive:collapsed">0</property>
   </filter>
  </entry>
  <blank length="00:00:10.350"/>
  <entry producer="producer631" in="00:00:00.000" out="00:00:00.933">
   <property name="kdenlive:id">687</property>
   <filter id="filter1034">
    <property name="rotate_center">1</property>
    <property name="mlt_service">qtblend</property>
    <property name="kdenlive_id">qtblend</property>
    <property name="rect">00:00:00.000=0 0 1920 1080 1.000000;00:00:00.933=-48 -27 2016 1134 0.000000</property>
    <property name="rotation">00:00:00.000=0;00:00:00.933=0</property>
    <property name="compositing">0</property>
    <property name="distort">0</property>
    <property name="kdenlive:collapsed">0</property>
   </filter>
   <filter id="filter1035" in="00:00:00.183" out="00:00:00.933">
    <property name="start">1</property>
    <property name="level">1</property>
    <property name="mlt_service">brightness</property>
    <property name="kdenlive_id">fade_to_black</property>
    <property name="alpha">00:00:00.000=1;00:00:00.750=0</property>
    <property name="kdenlive:collapsed">0</property>
   </filter>
  </entry>
  <blank length="00:00:02.483"/>
  <entry producer="producer720" in="02:29:47.533" out="02:29:53.933">
   <property name="kdenlive:id">682</property>
  </entry>
  <entry producer="producer720" in="02:29:53.950" out="02:29:56.733">
   <property name="kdenlive:id">682</property>
  </entry>
  <entry producer="producer720" in="02:30:22.050" out="02:30:23.033">
   <property name="kdenlive:id">682</property>
  </entry>
  <blank length="00:00:57.367"/>
  <entry producer="producer788" in="01:25:19.000" out="01:25:20.883">
   <property name="kdenlive:id">683</property>
   <filter id="filter1036">
    <property name="rotate_center">1</property>
    <property name="mlt_service">qtblend</property>
    <property name="kdenlive_id">qtblend</property>
    <property name="rect">01:25:19.000=-8230 -4009 10368 5832 1.000000</property>
    <property name="rotation">01:25:19.000=0</property>
    <property name="compositing">0</property>
    <property name="distort">0</property>
    <property name="kdenlive:collapsed">1</property>
   </filter>
   <filter id="filter1037">
    <property name="rotate_center">1</property>
    <property name="mlt_service">qtblend</property>
    <property name="kdenlive_id">qtblend</property>
    <property name="rect">01:25:19.000=0 0 1920 1080 1</property>
    <property name="rotation">01:25:19.000=0</property>
    <property name="compositing">0</property>
    <property name="distort">0</property>
    <property name="kdenlive:collapsed">1</property>
   </filter>
   <filter id="filter1038">
    <property name="filter">rotoscoping</property>
    <property name="mlt_service">mask_start</property>
    <property name="kdenlive_id">mask_start-rotoscoping</property>
    <property name="filter.spline">{
    "307140": [
        [
            [
                0.14191461836998706,
                0.9857142857142858
            ],
            [
                0.14294954721862874,
                0.9746543778801843
            ],
            [
                0.15019404915912032,
                0.9451612903225807
            ]
        ],
        [
            [
                0.1719275549805951,
                0.8566820276497695
            ],
            [
                0.1791720569210867,
                0.8271889400921658
            ],
            [
                0.2055627425614489,
                0.8133640552995391
            ]
        ],
        [
            [
                0.2847347994825356,
                0.771889400921659
            ],
            [
                0.31112548512289784,
                0.7580645161290323
            ],
            [
                0.322509702457956,
                0.7543778801843318
            ]
        ],
        [
            [
                0.3566623544631307,
                0.7433179723502304
            ],
            [
                0.3680465717981889,
                0.73963133640553
            ],
            [
                0.35976714100905566,
                0.7258064516129032
            ]
        ],
        [
            [
                0.3349288486416559,
                0.684331797235023
            ],
            [
                0.32664941785252266,
                0.6705069124423964
            ],
            [
                0.31888745148771025,
                0.6262672811059907
            ]
        ],
        [
            [
                0.29560155239327296,
                0.4935483870967742
            ],
            [
                0.28783958602846055,
                0.44930875576036866
            ],
            [
                0.29353169469598966,
                0.3930875576036867
            ]
        ],
        [
            [
                0.310608020698577,
                0.22442396313364057
            ],
            [
                0.31630012936610613,
                0.16820276497695855
            ],
            [
                0.33182406209573095,
                0.13686635944700462
            ]
        ],
        [
            [
                0.3783958602846055,
                0.042857142857142864
            ],
            [
                0.3939197930142303,
                0.01152073732718894
            ],
            [
                0.4280724450194049,
                0.0152073732718894
            ]
        ],
        [
            [
                0.5305304010349289,
                0.02626728110599078
            ],
            [
                0.5646830530401036,
                0.029953917050691243
            ],
            [
                0.5822768434670117,
                0.04838709677419355
            ]
        ],
        [
            [
                0.6350582147477362,
                0.10368663594470046
            ],
            [
                0.6526520051746443,
                0.12211981566820276
            ],
            [
                0.6578266494178525,
                0.14608294930875576
            ]
        ],
        [
            [
                0.6733505821474774,
                0.21797235023041475
            ],
            [
                0.6785252263906857,
                0.24193548387096775
            ],
            [
                0.6821474773609315,
                0.267741935483871
            ]
        ],
        [
            [
                0.6930142302716688,
                0.34516129032258064
            ],
            [
                0.6966364812419147,
                0.3709677419354839
            ],
            [
                0.6919793014230272,
                0.41612903225806447
            ]
        ],
        [
            [
                0.6780077619663648,
                0.5516129032258065
            ],
            [
                0.6733505821474774,
                0.5967741935483871
            ],
            [
                0.6614489003880983,
                0.6078341013824885
            ]
        ],
        [
            [
                0.6257438551099612,
                0.6410138248847926
            ],
            [
                0.6138421733505821,
                0.652073732718894
            ],
            [
                0.6184993531694697,
                0.66036866359447
            ]
        ],
        [
            [
                0.632470892626132,
                0.6852534562211982
            ],
            [
                0.6371280724450195,
                0.6935483870967741
            ],
            [
                0.6578266494178526,
                0.7073732718894009
            ]
        ],
        [
            [
                0.7199223803363518,
                0.7488479262672811
            ],
            [
                0.740620957309185,
                0.7626728110599078
            ],
            [
                0.7633893919793013,
                0.7774193548387097
            ]
        ],
        [
            [
                0.8316946959896507,
                0.8216589861751152
            ],
            [
                0.8544631306597671,
                0.836405529953917
            ],
            [
                0.8632600258732211,
                0.8778801843317973
            ]
        ],
        [
            [
                0.8896507115135834,
                1.0023041474654377
            ],
            [
                0.8984476067270375,
                1.0437788018433178
            ],
            [
                0.7463130659767141,
                1.0410138248847927
            ]
        ],
        [
            [
                0.28990944372574384,
                1.0327188940092167
            ],
            [
                0.13777490297542044,
                1.0299539170506913
            ],
            [
                0.13880983182406212,
                1.01889400921659
            ]
        ]
    ]
}
</property>
    <property name="filter.mode">alpha</property>
    <property name="filter.alpha_operation">clear</property>
    <property name="filter.invert">0</property>
    <property name="filter.feather">49</property>
    <property name="filter.feather_passes">2</property>
    <property name="kdenlive:collapsed">1</property>
   </filter>
   <filter id="filter1039">
    <property name="rotate_center">1</property>
    <property name="mlt_service">qtblend</property>
    <property name="kdenlive_id">qtblend</property>
    <property name="rect">01:25:19.000=543 -67 2112 1188 1.000000</property>
    <property name="rotation">01:25:19.000=0</property>
    <property name="compositing">0</property>
    <property name="distort">0</property>
    <property name="kdenlive:collapsed">0</property>
   </filter>
  </entry>
  <blank length="00:00:05.050"/>
  <entry producer="producer777" in="00:00:00.000" out="00:00:01.250">
   <property name="kdenlive:id">671</property>
   <filter id="filter1040">
    <property name="rotate_center">1</property>
    <property name="mlt_service">qtblend</property>
    <property name="kdenlive_id">CLIP_DS2_MEME</property>
    <property name="rect">00:00:00.000=0 0 1920 1080 1.000000;00:00:00.317=0 0 1920 1080 1.000000;00:00:00.500=0 0 1920 1080 0.000000</property>
    <property name="rotation">00:00:00.000=0;00:00:00.317=0;00:00:00.500=0</property>
    <property name="compositing">0</property>
    <property name="distort">0</property>
    <property name="kdenlive:collapsed">0</property>
   </filter>
  </entry>
  <blank length="00:00:02.833"/>
  <entry producer="producer788" in="01:29:54.567" out="01:29:55.283">
   <property name="kdenlive:id">683</property>
   <filter id="filter1041" in="01:29:54.567" out="01:29:54.783">
    <property name="start">1</property>
    <property name="level">1</property>
    <property name="mlt_service">brightness</property>
    <property name="kdenlive_id">fade_from_black</property>
    <property name="alpha">00:00:00.000=0;00:00:00.217=1</property>
    <property name="kdenlive:collapsed">0</property>
   </filter>
   <filter id="filter1042">
    <property name="rotate_center">1</property>
    <property name="mlt_service">qtblend</property>
    <property name="kdenlive_id">qtblend</property>
    <property name="rect">01:29:54.567=-9068 -4517 11424 6426 1.000000</property>
    <property name="rotation">01:29:54.567=0</property>
    <property name="compositing">0</property>
    <property name="distort">0</property>
    <property name="kdenlive:collapsed">0</property>
   </filter>
   <filter id="filter1043">
    <property name="rotate_center">1</property>
    <property name="mlt_service">qtblend</property>
    <property name="kdenlive_id">qtblend</property>
    <property name="rect">01:29:54.567=0 0 1920 1080 1</property>
    <property name="rotation">01:29:54.567=0</property>
    <property name="compositing">0</property>
    <property name="distort">0</property>
    <property name="kdenlive:collapsed">0</property>
   </filter>
  </entry>
  <blank length="00:00:17.333"/>
  <entry producer="producer788" in="01:44:02.417" out="01:44:03.733">
   <property name="kdenlive:id">683</property>
   <filter id="filter1044">
    <property name="rotate_center">1</property>
    <property name="mlt_service">qtblend</property>
    <property name="kdenlive_id">qtblend</property>
    <property name="rect">01:44:02.417=-9068 -4517 11424 6426 1.000000</property>
    <property name="rotation">01:44:02.417=0</property>
    <property name="compositing">0</property>
    <property name="distort">0</property>
    <property name="kdenlive:collapsed">0</property>
   </filter>
   <filter id="filter1045">
    <property name="rotate_center">1</property>
    <property name="mlt_service">qtblend</property>
    <property name="kdenlive_id">qtblend</property>
    <property name="rect">01:44:02.417=0 0 1920 1080 1</property>
    <property name="rotation">01:44:02.417=0</property>
    <property name="compositing">0</property>
    <property name="distort">0</property>
    <property name="kdenlive:collapsed">0</property>
   </filter>
   <filter id="filter1046" in="01:44:02.417" out="01:44:02.717">
    <property name="start">1</property>
    <property name="level">1</property>
    <property name="mlt_service">brightness</property>
    <property name="kdenlive_id">fade_from_black</property>
    <property name="alpha">00:00:00.000=0;00:00:00.300=1</property>
    <property name="kdenlive:collapsed">0</property>
   </filter>
  </entry>
  <entry producer="producer788" in="01:44:12.300" out="01:44:14.533">
   <property name="kdenlive:id">683</property>
   <filter id="filter1047">
    <property name="rotate_center">1</property>
    <property name="mlt_service">qtblend</property>
    <property name="kdenlive_id">qtblend</property>
    <property name="rect">01:44:12.300=-1375 -314 4512 2538 1.000000</property>
    <property name="rotation">01:44:12.300=0</property>
    <property name="compositing">0</property>
    <property name="distort">0</property>
    <property name="kdenlive:collapsed">0</property>
   </filter>
   <filter id="filter1048" in="01:44:12.300" out="01:44:12.600">
    <property name="start">1</property>
    <property name="level">1</property>
    <property name="mlt_service">brightness</property>
    <property name="kdenlive_id">fade_from_black</property>
    <property name="alpha">00:00:00.000=0;00:00:00.300=1</property>
    <property name="kdenlive:collapsed">0</property>
   </filter>
   <filter id="filter1049">
    <property name="mlt_service">avfilter.avgblur</property>
    <property name="kdenlive_id">Blur_Hard</property>
    <property name="av.sizeX">20</property>
    <property name="av.sizeY">20</property>
    <property name="av.planes">7</property>
    <property name="kdenlive:collapsed">0</property>
   </filter>
  </entry>
  <blank length="00:00:08.367"/>
  <entry producer="producer777" in="00:00:00.000" out="00:00:01.833">
   <property name="kdenlive:id">671</property>
   <filter id="filter1050">
    <property name="rotate_center">1</property>
    <property name="mlt_service">qtblend</property>
    <property name="kdenlive_id">CLIP_DS2_MEME</property>
    <property name="rect">00:00:00.000=0 0 1920 1080 1.000000;00:00:00.317=0 0 1920 1080 1.000000;00:00:00.500=0 0 1920 1080 0.000000</property>
    <property name="rotation">00:00:00.000=0;00:00:00.317=0;00:00:00.500=0</property>
    <property name="compositing">0</property>
    <property name="distort">0</property>
    <property name="kdenlive:collapsed">0</property>
   </filter>
  </entry>
  <blank length="00:00:17.267"/>
  <entry producer="producer788" in="02:05:25.533" out="02:05:26.267">
   <property name="kdenlive:id">683</property>
   <filter id="filter1051">
    <property name="rotate_center">1</property>
    <property name="mlt_service">qtblend</property>
    <property name="kdenlive_id">qtblend</property>
    <property name="rect">02:05:25.533=-1457 -221 4416 2484 1.000000</property>
    <property name="rotation">02:05:25.533=0</property>
    <property name="compositing">0</property>
    <property name="distort">0</property>
    <property name="kdenlive:collapsed">0</property>
   </filter>
   <filter id="filter1052" in="02:05:25.533" out="02:05:25.700">
    <property name="start">1</property>
    <property name="level">1</property>
    <property name="mlt_service">brightness</property>
    <property name="kdenlive_id">fade_from_black</property>
    <property name="alpha">00:00:00.000=0;00:00:00.167=1</property>
    <property name="kdenlive:collapsed">0</property>
   </filter>
   <filter id="filter1053">
    <property name="mlt_service">avfilter.avgblur</property>
    <property name="kdenlive_id">Blur_Hard</property>
    <property name="av.sizeX">20</property>
    <property name="av.sizeY">20</property>
    <property name="av.planes">7</property>
    <property name="kdenlive:collapsed">0</property>
   </filter>
  </entry>
  <entry producer="producer788" in="02:05:28.483" out="02:05:30.667">
   <property name="kdenlive:id">683</property>
   <filter id="filter1054">
    <property name="rotate_center">1</property>
    <property name="mlt_service">qtblend</property>
    <property name="kdenlive_id">qtblend</property>
    <property name="rect">02:05:28.483=-8230 -4009 10368 5832 1.000000</property>
    <property name="rotation">02:05:28.483=0</property>
    <property name="compositing">0</property>
    <property name="distort">0</property>
    <property name="kdenlive:collapsed">1</property>
   </filter>
   <filter id="filter1055">
    <property name="rotate_center">1</property>
    <property name="mlt_service">qtblend</property>
    <property name="kdenlive_id">qtblend</property>
    <property name="rect">02:05:28.483=0 0 1920 1080 1.000000;02:05:29.817=41 -20 1920 1080 1.000000</property>
    <property name="rotation">02:05:28.483=0;02:05:29.817=0</property>
    <property name="compositing">0</property>
    <property name="distort">0</property>
    <property name="kdenlive:collapsed">0</property>
   </filter>
   <filter id="filter1056">
    <property name="filter">rotoscoping</property>
    <property name="mlt_service">mask_start</property>
    <property name="kdenlive_id">mask_start-rotoscoping</property>
    <property name="filter.spline">{
    "307140": [
        [
            [
                0.14191461836998706,
                0.9857142857142858
            ],
            [
                0.14294954721862874,
                0.9746543778801843
            ],
            [
                0.15019404915912032,
                0.9451612903225807
            ]
        ],
        [
            [
                0.1719275549805951,
                0.8566820276497695
            ],
            [
                0.1791720569210867,
                0.8271889400921658
            ],
            [
                0.2055627425614489,
                0.8133640552995391
            ]
        ],
        [
            [
                0.2847347994825356,
                0.771889400921659
            ],
            [
                0.31112548512289784,
                0.7580645161290323
            ],
            [
                0.322509702457956,
                0.7543778801843318
            ]
        ],
        [
            [
                0.3566623544631307,
                0.7433179723502304
            ],
            [
                0.3680465717981889,
                0.73963133640553
            ],
            [
                0.35976714100905566,
                0.7258064516129032
            ]
        ],
        [
            [
                0.3349288486416559,
                0.684331797235023
            ],
            [
                0.32664941785252266,
                0.6705069124423964
            ],
            [
                0.31888745148771025,
                0.6262672811059907
            ]
        ],
        [
            [
                0.29560155239327296,
                0.4935483870967742
            ],
            [
                0.28783958602846055,
                0.44930875576036866
            ],
            [
                0.29353169469598966,
                0.3930875576036867
            ]
        ],
        [
            [
                0.310608020698577,
                0.22442396313364057
            ],
            [
                0.31630012936610613,
                0.16820276497695855
            ],
            [
                0.33182406209573095,
                0.13686635944700462
            ]
        ],
        [
            [
                0.3783958602846055,
                0.042857142857142864
            ],
            [
                0.3939197930142303,
                0.01152073732718894
            ],
            [
                0.4280724450194049,
                0.0152073732718894
            ]
        ],
        [
            [
                0.5305304010349289,
                0.02626728110599078
            ],
            [
                0.5646830530401036,
                0.029953917050691243
            ],
            [
                0.5822768434670117,
                0.04838709677419355
            ]
        ],
        [
            [
                0.6350582147477362,
                0.10368663594470046
            ],
            [
                0.6526520051746443,
                0.12211981566820276
            ],
            [
                0.6578266494178525,
                0.14608294930875576
            ]
        ],
        [
            [
                0.6733505821474774,
                0.21797235023041475
            ],
            [
                0.6785252263906857,
                0.24193548387096775
            ],
            [
                0.6821474773609315,
                0.267741935483871
            ]
        ],
        [
            [
                0.6930142302716688,
                0.34516129032258064
            ],
            [
                0.6966364812419147,
                0.3709677419354839
            ],
            [
                0.6919793014230272,
                0.41612903225806447
            ]
        ],
        [
            [
                0.6780077619663648,
                0.5516129032258065
            ],
            [
                0.6733505821474774,
                0.5967741935483871
            ],
            [
                0.6614489003880983,
                0.6078341013824885
            ]
        ],
        [
            [
                0.6257438551099612,
                0.6410138248847926
            ],
            [
                0.6138421733505821,
                0.652073732718894
            ],
            [
                0.6184993531694697,
                0.66036866359447
            ]
        ],
        [
            [
                0.632470892626132,
                0.6852534562211982
            ],
            [
                0.6371280724450195,
                0.6935483870967741
            ],
            [
                0.6578266494178526,
                0.7073732718894009
            ]
        ],
        [
            [
                0.7199223803363518,
                0.7488479262672811
            ],
            [
                0.740620957309185,
                0.7626728110599078
            ],
            [
                0.7633893919793013,
                0.7774193548387097
            ]
        ],
        [
            [
                0.8316946959896507,
                0.8216589861751152
            ],
            [
                0.8544631306597671,
                0.836405529953917
            ],
            [
                0.8632600258732211,
                0.8778801843317973
            ]
        ],
        [
            [
                0.8896507115135834,
                1.0023041474654377
            ],
            [
                0.8984476067270375,
                1.0437788018433178
            ],
            [
                0.7463130659767141,
                1.0410138248847927
            ]
        ],
        [
            [
                0.28990944372574384,
                1.0327188940092167
            ],
            [
                0.13777490297542044,
                1.0299539170506913
            ],
            [
                0.13880983182406212,
                1.01889400921659
            ]
        ]
    ]
}
</property>
    <property name="filter.mode">alpha</property>
    <property name="filter.alpha_operation">clear</property>
    <property name="filter.invert">0</property>
    <property name="filter.feather">49</property>
    <property name="filter.feather_passes">2</property>
    <property name="kdenlive:collapsed">1</property>
   </filter>
   <filter id="filter1057">
    <property name="rotate_center">1</property>
    <property name="mlt_service">qtblend</property>
    <property name="kdenlive_id">qtblend</property>
    <property name="rect">02:05:28.483=823 1327 2208 1242 1.000000;02:05:28.517=567 -92 2208 1242 1.000000</property>
    <property name="rotation">02:05:28.483=0;02:05:28.517=0</property>
    <property name="compositing">0</property>
    <property name="distort">0</property>
    <property name="kdenlive:collapsed">0</property>
   </filter>
  </entry>
  <blank length="00:00:22.650"/>
  <entry producer="producer777" in="00:00:00.000" out="00:00:01.733">
   <property name="kdenlive:id">671</property>
   <filter id="filter1058">
    <property name="rotate_center">1</property>
    <property name="mlt_service">qtblend</property>
    <property name="kdenlive_id">CLIP_DS2_MEME</property>
    <property name="rect">00:00:00.000=0 0 1920 1080 1.000000;00:00:00.317=0 0 1920 1080 1.000000;00:00:00.500=0 0 1920 1080 0.000000</property>
    <property name="rotation">00:00:00.000=0;00:00:00.317=0;00:00:00.500=0</property>
    <property name="compositing">0</property>
    <property name="distort">0</property>
   </filter>
  </entry>
  <blank length="00:00:35.867"/>
  <entry producer="producer789" in="00:58:58.583" out="00:59:00.883">
   <property name="kdenlive:id">684</property>
   <filter id="filter1059">
    <property name="rotate_center">1</property>
    <property name="mlt_service">qtblend</property>
    <property name="kdenlive_id">qtblend</property>
    <property name="rect">00:58:58.583=0 -2281 6048 3402 1.000000</property>
    <property name="rotation">00:58:58.583=0</property>
    <property name="compositing">0</property>
    <property name="distort">0</property>
    <property name="kdenlive:collapsed">1</property>
   </filter>
   <filter id="filter1060">
    <property name="rotate_center">1</property>
    <property name="mlt_service">qtblend</property>
    <property name="kdenlive_id">qtblend</property>
    <property name="rect">00:58:58.583=0 0 1920 1080 1</property>
    <property name="rotation">00:58:58.583=0</property>
    <property name="compositing">0</property>
    <property name="distort">0</property>
    <property name="kdenlive:collapsed">1</property>
   </filter>
   <filter id="filter1061">
    <property name="filter">rotoscoping</property>
    <property name="mlt_service">mask_start</property>
    <property name="kdenlive_id">mask_start-rotoscoping</property>
    <property name="filter.spline">{
    "212315": [
        [
            [
                0.009961190168175937,
                0.7995391705069125
            ],
            [
                0.013583441138421732,
                0.7995391705069125
            ],
            [
                0.02703751617076326,
                0.7903225806451613
            ]
        ],
        [
            [
                0.06739974126778783,
                0.7626728110599078
            ],
            [
                0.08085381630012936,
                0.7534562211981566
            ],
            [
                0.09223803363518758,
                0.7516129032258064
            ]
        ],
        [
            [
                0.1263906856403622,
                0.7460829493087557
            ],
            [
                0.13777490297542044,
                0.7442396313364056
            ],
            [
                0.11914618369987064,
                0.7
            ]
        ],
        [
            [
                0.06326002587322122,
                0.5672811059907834
            ],
            [
                0.044631306597671415,
                0.5230414746543779
            ],
            [
                0.04928848641655887,
                0.42903225806451617
            ]
        ],
        [
            [
                0.06326002587322122,
                0.14700460829493087
            ],
            [
                0.06791720569210867,
                0.052995391705069124
            ],
            [
                0.09741267787839586,
                0.052995391705069124
            ]
        ],
        [
            [
                0.18589909443725744,
                0.052995391705069124
            ],
            [
                0.21539456662354464,
                0.052995391705069124
            ],
            [
                0.2557567917205692,
                0.05668202764976959
            ]
        ],
        [
            [
                0.37684346701164295,
                0.06774193548387096
            ],
            [
                0.41720569210866754,
                0.07142857142857142
            ],
            [
                0.43169469598965077,
                0.11474654377880185
            ]
        ],
        [
            [
                0.4389391979301423,
                0.24239631336405526
            ],
            [
                0.45342820181112553,
                0.2857142857142857
            ],
            [
                0.4456662354463131,
                0.35115207373271884
            ]
        ],
        [
            [
                0.45860284605433377,
                0.5497695852534562
            ],
            [
                0.45084087968952136,
                0.6152073732718893
            ],
            [
                0.44514877102199224,
                0.6400921658986175
            ]
        ],
        [
            [
                0.3685640362225097,
                0.7032258064516129
            ],
            [
                0.3628719275549806,
                0.7281105990783411
            ],
            [
                0.3939197930142303,
                0.7327188940092166
            ]
        ],
        [
            [
                0.5077619663648125,
                0.838709677419355
            ],
            [
                0.5388098318240622,
                0.8433179723502304
            ],
            [
                0.5465717981888746,
                0.8755760368663594
            ]
        ],
        [
            [
                0.6164294954721863,
                1.0046082949308757
            ],
            [
                0.6241914618369987,
                1.0368663594470047
            ],
            [
                0.6278137128072445,
                1.0672811059907836
            ]
        ],
        [
            [
                0.6309184993531695,
                1.0456221198156683
            ],
            [
                0.6345407503234153,
                1.076036866359447
            ],
            [
                0.503104786545925,
                1.0815668202764979
            ]
        ],
        [
            [
                0.10879689521345408,
                1.0981566820276498
            ],
            [
                -0.022639068564036226,
                1.1036866359447006
            ],
            [
                -0.01901681759379043,
                1.042857142857143
            ]
        ],
        [
            [
                -0.00815006468305304,
                0.8603686635944702
            ],
            [
                -0.004527813712807245,
                0.7995391705069125
            ],
            [
                -0.0009055627425614489,
                0.7995391705069125
            ]
        ]
    ]
}
</property>
    <property name="filter.mode">alpha</property>
    <property name="filter.alpha_operation">clear</property>
    <property name="filter.invert">0</property>
    <property name="filter.feather">30</property>
    <property name="filter.feather_passes">2</property>
    <property name="kdenlive:collapsed">0</property>
   </filter>
   <filter id="filter1062">
    <property name="rotate_center">1</property>
    <property name="mlt_service">qtblend</property>
    <property name="kdenlive_id">qtblend</property>
    <property name="rect">00:58:58.583=-243 -79 2208 1242 1.000000</property>
    <property name="rotation">00:58:58.583=0</property>
    <property name="compositing">0</property>
    <property name="distort">0</property>
    <property name="kdenlive:collapsed">0</property>
   </filter>
  </entry>
  <blank length="00:00:42.150"/>
  <entry producer="producer790" in="00:00:00.000" out="00:00:00.267">
   <property name="kdenlive:id">448</property>
  </entry>
  <blank length="00:00:17.600"/>
  <entry producer="producer789" in="02:02:53.317" out="02:02:55.250">
   <property name="kdenlive:id">684</property>
   <filter id="filter1063">
    <property name="rotate_center">1</property>
    <property name="mlt_service">qtblend</property>
    <property name="kdenlive_id">qtblend</property>
    <property name="rect">02:02:53.317=-1584 -1782 5088 2862 1.000000</property>
    <property name="rotation">02:02:53.317=0</property>
    <property name="compositing">0</property>
    <property name="distort">0</property>
    <property name="kdenlive:collapsed">0</property>
   </filter>
  </entry>
  <entry producer="producer789" in="02:02:55.267" out="02:02:57.350">
   <property name="kdenlive:id">684</property>
   <filter id="filter1064">
    <property name="rotate_center">1</property>
    <property name="mlt_service">qtblend</property>
    <property name="kdenlive_id">qtblend</property>
    <property name="rect">02:02:55.267=-1584 -1782 5088 2862 1.000000</property>
    <property name="rotation">02:02:55.267=0</property>
    <property name="compositing">0</property>
    <property name="distort">0</property>
    <property name="kdenlive:collapsed">0</property>
   </filter>
  </entry>
  <entry producer="producer789" in="02:03:02.633" out="02:03:03.367">
   <property name="kdenlive:id">684</property>
   <filter id="filter1065">
    <property name="rotate_center">1</property>
    <property name="mlt_service">qtblend</property>
    <property name="kdenlive_id">qtblend</property>
    <property name="rect">02:03:02.633=0 -2281 6048 3402 1.000000</property>
    <property name="rotation">02:03:02.633=0</property>
    <property name="compositing">0</property>
    <property name="distort">0</property>
    <property name="kdenlive:collapsed">1</property>
   </filter>
   <filter id="filter1066">
    <property name="rotate_center">1</property>
    <property name="mlt_service">qtblend</property>
    <property name="kdenlive_id">qtblend</property>
    <property name="rect">02:03:02.633=0 0 1920 1080 1.000000;02:03:02.700=0 -421 3264 1836 1.000000</property>
    <property name="rotation">02:03:02.633=0;02:03:02.700=0</property>
    <property name="compositing">0</property>
    <property name="distort">0</property>
    <property name="kdenlive:collapsed">0</property>
   </filter>
  </entry>
  <entry producer="producer789" in="02:03:14.817" out="02:03:16.417">
   <property name="kdenlive:id">684</property>
  </entry>
  <entry producer="producer789" in="02:08:01.233" out="02:08:03.733">
   <property name="kdenlive:id">684</property>
   <property name="kdenlive:activeeffect">2</property>
   <filter id="filter1067">
    <property name="rotate_center">1</property>
    <property name="mlt_service">qtblend</property>
    <property name="kdenlive_id">qtblend</property>
    <property name="rect">02:08:01.233=0 -2281 6048 3402 1.000000</property>
    <property name="rotation">02:08:01.233=0</property>
    <property name="compositing">0</property>
    <property name="distort">0</property>
    <property name="kdenlive:collapsed">1</property>
   </filter>
   <filter id="filter1068">
    <property name="rotate_center">1</property>
    <property name="mlt_service">qtblend</property>
    <property name="kdenlive_id">qtblend</property>
    <property name="rect">02:08:01.233=0 0 1920 1080 1.000000;02:08:02.000=0 -27 2016 1134 1.000000;02:08:02.067=0 -108 2304 1296 1.000000</property>
    <property name="rotation">02:08:01.233=0;02:08:02.000=0;02:08:02.067=0</property>
    <property name="compositing">0</property>
    <property name="distort">0</property>
    <property name="kdenlive:collapsed">1</property>
   </filter>
   <filter id="filter1069">
    <property name="version">0.1</property>
    <property name="mlt_service">frei0r.letterb0xed</property>
    <property name="kdenlive_id">frei0r.letterb0xed</property>
    <property name="Border Width">02:08:01.233=0;02:08:02.000=0;02:08:02.067=0.159</property>
    <property name="Transparency">0</property>
    <property name="kdenlive:collapsed">0</property>
   </filter>
  </entry>
  <entry producer="producer789" in="02:08:07.817" out="02:08:08.583">
   <property name="kdenlive:id">684</property>
   <filter id="filter1070">
    <property name="rotate_center">1</property>
    <property name="mlt_service">qtblend</property>
    <property name="kdenlive_id">qtblend</property>
    <property name="rect">02:08:07.817=0 0 1920 1080 1</property>
    <property name="rotation">02:08:07.817=0</property>
    <property name="compositing">0</property>
    <property name="distort">0</property>
    <property name="kdenlive:collapsed">0</property>
   </filter>
   <filter id="filter1071">
    <property name="rotate_center">1</property>
    <property name="mlt_service">qtblend</property>
    <property name="kdenlive_id">qtblend</property>
    <property name="rect">02:08:07.817=0 -2281 6048 3402 1.000000</property>
    <property name="rotation">02:08:07.817=0</property>
    <property name="compositing">0</property>
    <property name="distort">0</property>
    <property name="kdenlive:collapsed">0</property>
   </filter>
  </entry>
  <entry producer="producer789" in="02:08:08.600" out="02:08:08.800">
   <property name="kdenlive:id">684</property>
   <filter id="filter1072">
    <property name="rotate_center">1</property>
    <property name="mlt_service">qtblend</property>
    <property name="kdenlive_id">qtblend</property>
    <property name="rect">02:08:08.600=0 0 1920 1080 1.000000</property>
    <property name="rotation">02:08:08.600=0</property>
    <property name="compositing">0</property>
    <property name="distort">0</property>
    <property name="kdenlive:collapsed">1</property>
   </filter>
   <filter id="filter1073">
    <property name="rotate_center">1</property>
    <property name="mlt_service">qtblend</property>
    <property name="kdenlive_id">qtblend</property>
    <property name="rect">02:08:08.600=0 -2281 6048 3402 1.000000</property>
    <property name="rotation">02:08:08.600=0</property>
    <property name="compositing">0</property>
    <property name="distort">0</property>
    <property name="kdenlive:collapsed">1</property>
   </filter>
   <filter id="filter1074">
    <property name="rotate_center">1</property>
    <property name="mlt_service">qtblend</property>
    <property name="kdenlive_id">qtblend</property>
    <property name="rect">02:08:08.600=0 -1350 4320 2430 1.000000</property>
    <property name="rotation">02:08:08.600=0</property>
    <property name="compositing">0</property>
    <property name="distort">0</property>
    <property name="kdenlive:collapsed">0</property>
   </filter>
  </entry>
  <entry producer="producer791" in="00:00:00.133" out="00:00:00.650">
   <property name="kdenlive:id">449</property>
  </entry>
  <blank length="00:00:42.117"/>
  <entry producer="producer789" in="02:31:33.667" out="02:31:34.550">
   <property name="kdenlive:id">684</property>
   <filter id="filter1075">
    <property name="rotate_center">1</property>
    <property name="mlt_service">qtblend</property>
    <property name="kdenlive_id">qtblend</property>
    <property name="rect">02:31:33.667=0 -2281 6048 3402 1.000000</property>
    <property name="rotation">02:31:33.667=0</property>
    <property name="compositing">0</property>
    <property name="distort">0</property>
    <property name="kdenlive:collapsed">1</property>
   </filter>
   <filter id="filter1076">
    <property name="rotate_center">1</property>
    <property name="mlt_service">qtblend</property>
    <property name="kdenlive_id">qtblend</property>
    <property name="rect">02:31:33.667=0 0 1920 1080 1.000000</property>
    <property name="rotation">02:31:33.667=0</property>
    <property name="compositing">0</property>
    <property name="distort">0</property>
    <property name="kdenlive:collapsed">1</property>
   </filter>
   <filter id="filter1077">
    <property name="filter">rotoscoping</property>
    <property name="mlt_service">mask_start</property>
    <property name="kdenlive_id">mask_start-rotoscoping</property>
    <property name="filter.spline">{
    "545620": [
        [
            [
                -0.026614987080103358,
                0.9018390804597701
            ],
            [
                -0.02971576227390181,
                0.9045977011494253
            ],
            [
                -0.015762273901808784,
                0.8908045977011494
            ]
        ],
        [
            [
                0.026098191214470278,
                0.8494252873563218
            ],
            [
                0.040051679586563305,
                0.835632183908046
            ],
            [
                0.05813953488372093,
                0.8245977011494253
            ]
        ],
        [
            [
                0.11240310077519379,
                0.7914942528735632
            ],
            [
                0.13049095607235142,
                0.7804597701149425
            ],
            [
                0.13875968992248064,
                0.7786206896551724
            ]
        ],
        [
            [
                0.1635658914728682,
                0.7731034482758621
            ],
            [
                0.17183462532299743,
                0.771264367816092
            ],
            [
                0.1635658914728682,
                0.7317241379310344
            ]
        ],
        [
            [
                0.13875968992248064,
                0.613103448275862
            ],
            [
                0.13049095607235142,
                0.5735632183908046
            ],
            [
                0.11860465116279069,
                0.5708045977011494
            ]
        ],
        [
            [
                0.08294573643410853,
                0.5625287356321839
            ],
            [
                0.0710594315245478,
                0.5597701149425287
            ],
            [
                0.07157622739018087,
                0.49540229885057474
            ]
        ],
        [
            [
                0.0731266149870801,
                0.3022988505747126
            ],
            [
                0.07364341085271317,
                0.23793103448275862
            ],
            [
                0.07984496124031007,
                0.2149425287356322
            ]
        ],
        [
            [
                0.09844961240310077,
                0.14597701149425285
            ],
            [
                0.10465116279069767,
                0.12298850574712643
            ],
            [
                0.11912144702842377,
                0.10551724137931033
            ]
        ],
        [
            [
                0.16253229974160205,
                0.05310344827586207
            ],
            [
                0.17700258397932817,
                0.035632183908045977
            ],
            [
                0.20180878552971576,
                0.031034482758620686
            ]
        ],
        [
            [
                0.27622739018087855,
                0.017241379310344827
            ],
            [
                0.30103359173126615,
                0.01264367816091954
            ],
            [
                0.3175710594315245,
                0.02275862068965517
            ]
        ],
        [
            [
                0.3671834625322997,
                0.05310344827586207
            ],
            [
                0.3837209302325581,
                0.0632183908045977
            ],
            [
                0.3925064599483204,
                0.0889655172413793
            ]
        ],
        [
            [
                0.41886304909560723,
                0.1662068965517241
            ],
            [
                0.4276485788113695,
                0.19195402298850572
            ],
            [
                0.43281653746770027,
                0.21310344827586206
            ]
        ],
        [
            [
                0.4483204134366925,
                0.276551724137931
            ],
            [
                0.45348837209302323,
                0.29770114942528736
            ],
            [
                0.45348837209302323,
                0.340919540229885
            ]
        ],
        [
            [
                0.45348837209302323,
                0.4705747126436782
            ],
            [
                0.45348837209302323,
                0.5137931034482759
            ],
            [
                0.44418604651162785,
                0.5294252873563218
            ]
        ],
        [
            [
                0.4162790697674419,
                0.5763218390804598
            ],
            [
                0.4069767441860465,
                0.5919540229885057
            ],
            [
                0.4069767441860465,
                0.6204597701149425
            ]
        ],
        [
            [
                0.4069767441860465,
                0.7059770114942528
            ],
            [
                0.4069767441860465,
                0.7344827586206896
            ],
            [
                0.4162790697674419,
                0.7510344827586206
            ]
        ],
        [
            [
                0.44418604651162785,
                0.8006896551724139
            ],
            [
                0.45348837209302323,
                0.8172413793103449
            ],
            [
                0.47312661498708003,
                0.836551724137931
            ]
        ],
        [
            [
                0.5320413436692506,
                0.8944827586206897
            ],
            [
                0.5516795865633075,
                0.9137931034482758
            ],
            [
                0.5599483204134367,
                0.9257471264367816
            ]
        ],
        [
            [
                0.5847545219638242,
                0.9616091954022987
            ],
            [
                0.5930232558139534,
                0.9735632183908045
            ],
            [
                0.5816537467700258,
                1.0333333333333334
            ]
        ],
        [
            [
                0.5475452196382429,
                1.2126436781609196
            ],
            [
                0.5361757105943152,
                1.2724137931034483
            ],
            [
                0.417312661498708,
                1.2521839080459771
            ]
        ],
        [
            [
                0.060723514211886306,
                1.1914942528735633
            ],
            [
                -0.05813953488372093,
                1.171264367816092
            ],
            [
                -0.04935400516795865,
                1.1151724137931036
            ]
        ],
        [
            [
                -0.022997416020671835,
                0.946896551724138
            ],
            [
                -0.01421188630490956,
                0.8908045977011494
            ],
            [
                -0.017312661498708012,
                0.8935632183908047
            ]
        ]
    ]
}
</property>
    <property name="filter.mode">alpha</property>
    <property name="filter.alpha_operation">clear</property>
    <property name="filter.invert">0</property>
    <property name="filter.feather">25</property>
    <property name="filter.feather_passes">2</property>
    <property name="kdenlive:collapsed">1</property>
   </filter>
   <filter id="filter1078">
    <property name="rotate_center">1</property>
    <property name="mlt_service">qtblend</property>
    <property name="kdenlive_id">qtblend</property>
    <property name="rect">02:31:33.667=-1282 1456 2208 1242 1.000000;02:31:33.800=-287 34 2208 1242 1.000000</property>
    <property name="rotation">02:31:33.667=12;02:31:33.800=12</property>
    <property name="compositing">0</property>
    <property name="distort">0</property>
    <property name="kdenlive:collapsed">0</property>
   </filter>
  </entry>
  <blank length="00:00:22.200"/>
  <entry producer="producer777" in="00:00:00.000" out="00:00:01.650">
   <property name="kdenlive:id">671</property>
   <filter id="filter1079">
    <property name="rotate_center">1</property>
    <property name="mlt_service">qtblend</property>
    <property name="kdenlive_id">CLIP_DS2_MEME</property>
    <property name="rect">00:00:00.000=0 0 1920 1080 1.000000;00:00:00.317=0 0 1920 1080 1.000000;00:00:00.500=0 0 1920 1080 0.000000</property>
    <property name="rotation">00:00:00.000=0;00:00:00.317=0;00:00:00.500=0</property>
    <property name="compositing">0</property>
    <property name="distort">0</property>
    <property name="kdenlive:collapsed">0</property>
   </filter>
  </entry>
  <blank length="00:00:11.467"/>
  <entry producer="producer792" in="00:40:58.650" out="00:41:00.150">
   <property name="kdenlive:id">685</property>
   <filter id="filter1080" in="00:40:58.650" out="00:40:59.633">
    <property name="start">1</property>
    <property name="level">1</property>
    <property name="mlt_service">brightness</property>
    <property name="kdenlive_id">fade_from_black</property>
    <property name="alpha">00:00:00.000=0;00:00:00.983=1</property>
    <property name="kdenlive:collapsed">0</property>
   </filter>
   <filter id="filter1081">
    <property name="rotate_center">1</property>
    <property name="mlt_service">qtblend</property>
    <property name="kdenlive_id">qtblend</property>
    <property name="rect">00:40:58.650=-5280 -2811 7200 4050 1.000000</property>
    <property name="rotation">00:40:58.650=0</property>
    <property name="compositing">0</property>
    <property name="distort">0</property>
    <property name="kdenlive:collapsed">0</property>
   </filter>
   <filter id="filter1082">
    <property name="rotate_center">1</property>
    <property name="mlt_service">qtblend</property>
    <property name="kdenlive_id">qtblend</property>
    <property name="rect">00:40:58.650=0 0 1920 1080 1</property>
    <property name="rotation">00:40:58.650=0</property>
    <property name="compositing">0</property>
    <property name="distort">0</property>
    <property name="kdenlive:collapsed">0</property>
   </filter>
  </entry>
  <blank length="00:00:47.833"/>
  <entry producer="producer792" in="01:05:23.100" out="01:05:24.950">
   <property name="kdenlive:id">685</property>
   <filter id="filter1083" in="01:05:23.100" out="01:05:23.683">
    <property name="start">1</property>
    <property name="level">1</property>
    <property name="mlt_service">brightness</property>
    <property name="kdenlive_id">fade_from_black</property>
    <property name="alpha">00:00:00.000=0;00:00:00.583=1</property>
    <property name="kdenlive:collapsed">0</property>
   </filter>
   <filter id="filter1084">
    <property name="rotate_center">1</property>
    <property name="mlt_service">qtblend</property>
    <property name="kdenlive_id">qtblend</property>
    <property name="rect">01:05:23.100=-5280 -2811 7200 4050 1.000000</property>
    <property name="rotation">01:05:23.100=0</property>
    <property name="compositing">0</property>
    <property name="distort">0</property>
    <property name="kdenlive:collapsed">1</property>
   </filter>
   <filter id="filter1085">
    <property name="rotate_center">1</property>
    <property name="mlt_service">qtblend</property>
    <property name="kdenlive_id">qtblend</property>
    <property name="rect">01:05:23.100=0 0 1920 1080 1.000000;01:05:24.950=-96 -27 2016 1134 1.000000</property>
    <property name="rotation">01:05:23.100=0;01:05:24.950=0</property>
    <property name="compositing">0</property>
    <property name="distort">0</property>
    <property name="kdenlive:collapsed">0</property>
   </filter>
  </entry>
  <blank length="00:00:25.433"/>
  <entry producer="producer793" in="00:00:00.000" out="00:00:01.800">
   <property name="kdenlive:id">545</property>
   <filter id="filter1086">
    <property name="version">0.6</property>
    <property name="mlt_service">frei0r.select0r</property>
    <property name="kdenlive_id">frei0r.select0r</property>
    <property name="Color to select">0x00ff00ff</property>
    <property name="Invert selection">1</property>
    <property name="Selection subspace">0</property>
    <property name="Subspace shape">0.5</property>
    <property name="Edge mode">0.9</property>
    <property name="Delta R / A / Hue">00:00:00.000=0.51</property>
    <property name="Delta G / B / Chroma">00:00:00.000=0.609</property>
    <property name="Delta B / I / I">00:00:00.000=0.556</property>
    <property name="Slope">00:00:00.000=0.115</property>
    <property name="Operation">0.5</property>
    <property name="kdenlive:collapsed">1</property>
   </filter>
   <filter id="filter1087">
    <property name="rotate_center">1</property>
    <property name="mlt_service">qtblend</property>
    <property name="kdenlive_id">qtblend</property>
    <property name="rect">00:00:00.000=640 188 672 378 1.000000</property>
    <property name="rotation">00:00:00.000=0</property>
    <property name="compositing">0</property>
    <property name="distort">0</property>
    <property name="kdenlive:collapsed">0</property>
   </filter>
  </entry>
  <blank length="00:00:26.617"/>
  <entry producer="producer777" in="00:00:00.000" out="00:00:02.850">
   <property name="kdenlive:id">671</property>
   <filter id="filter1088">
    <property name="rotate_center">1</property>
    <property name="mlt_service">qtblend</property>
    <property name="kdenlive_id">CLIP_DS2_MEME</property>
    <property name="rect">00:00:00.000=0 0 1920 1080 1.000000;00:00:00.317=0 0 1920 1080 1.000000;00:00:00.500=0 0 1920 1080 0.000000</property>
    <property name="rotation">00:00:00.000=0;00:00:00.317=0;00:00:00.500=0</property>
    <property name="compositing">0</property>
    <property name="distort">0</property>
    <property name="kdenlive:collapsed">0</property>
   </filter>
  </entry>
  <blank length="00:00:10.817"/>
  <entry producer="producer14" in="00:00:00.000" out="00:00:01.517">
   <property name="kdenlive:id">22</property>
   <filter id="filter1089" out="00:00:00.850">
    <property name="start">1</property>
    <property name="level">1</property>
    <property name="mlt_service">brightness</property>
    <property name="kdenlive_id">fade_from_black</property>
    <property name="alpha">00:00:00.000=0;00:00:00.850=1</property>
    <property name="kdenlive:collapsed">1</property>
   </filter>
   <filter id="filter1090">
    <property name="rotate_center">1</property>
    <property name="mlt_service">qtblend</property>
    <property name="kdenlive_id">qtblend</property>
    <property name="rect">00:00:00.000=0 0 1920 1080 0.000000;00:00:01.517=-624 -351 3168 1782 0.300000</property>
    <property name="rotation">00:00:00.000=0;00:00:01.517=0</property>
    <property name="compositing">0</property>
    <property name="distort">0</property>
    <property name="kdenlive:collapsed">0</property>
   </filter>
  </entry>
  <blank length="00:00:11.200"/>
  <entry producer="producer792" in="01:58:55.250" out="01:58:58.350">
   <property name="kdenlive:id">685</property>
   <filter id="filter1091" in="01:58:55.250" out="01:58:56.783">
    <property name="start">1</property>
    <property name="level">1</property>
    <property name="mlt_service">brightness</property>
    <property name="kdenlive_id">fade_from_black</property>
    <property name="alpha">00:00:00.000=0;00:00:01.533=1</property>
    <property name="kdenlive:collapsed">0</property>
   </filter>
   <filter id="filter1092">
    <property name="rotate_center">1</property>
    <property name="mlt_service">qtblend</property>
    <property name="kdenlive_id">qtblend</property>
    <property name="rect">01:58:55.250=-5280 -2811 7200 4050 1.000000</property>
    <property name="rotation">01:58:55.250=0</property>
    <property name="compositing">0</property>
    <property name="distort">0</property>
    <property name="kdenlive:collapsed">0</property>
   </filter>
   <filter id="filter1093">
    <property name="rotate_center">1</property>
    <property name="mlt_service">qtblend</property>
    <property name="kdenlive_id">qtblend</property>
    <property name="rect">01:58:55.250=0 0 1920 1080 1.000000</property>
    <property name="rotation">01:58:55.250=0</property>
    <property name="compositing">0</property>
    <property name="distort">0</property>
    <property name="kdenlive:collapsed">0</property>
   </filter>
  </entry>
  <blank length="00:00:47.600"/>
  <entry producer="producer794" in="00:15:54.050" out="00:15:55.767">
   <property name="kdenlive:id">686</property>
   <filter id="filter1094" in="00:15:54.050" out="00:15:54.633">
    <property name="start">1</property>
    <property name="level">1</property>
    <property name="mlt_service">brightness</property>
    <property name="kdenlive_id">fade_from_black</property>
    <property name="alpha">00:00:00.000=0;00:00:00.583=1</property>
    <property name="kdenlive:collapsed">0</property>
   </filter>
   <filter id="filter1095">
    <property name="rotate_center">1</property>
    <property name="mlt_service">qtblend</property>
    <property name="kdenlive_id">qtblend</property>
    <property name="rect">00:15:54.050=-5280 -2811 7200 4050 1.000000</property>
    <property name="rotation">00:15:54.050=0</property>
    <property name="compositing">0</property>
    <property name="distort">0</property>
    <property name="kdenlive:collapsed">0</property>
   </filter>
   <filter id="filter1096">
    <property name="rotate_center">1</property>
    <property name="mlt_service">qtblend</property>
    <property name="kdenlive_id">qtblend</property>
    <property name="rect">00:15:54.050=0 0 1920 1080 1</property>
    <property name="rotation">00:15:54.050=0</property>
    <property name="compositing">0</property>
    <property name="distort">0</property>
    <property name="kdenlive:collapsed">0</property>
   </filter>
  </entry>
  <blank length="00:00:54.400"/>
  <entry producer="producer777" in="00:00:00.000" out="00:00:05.700">
   <property name="kdenlive:id">671</property>
   <property name="kdenlive:activeeffect">0</property>
   <filter id="filter1097">
    <property name="rotate_center">1</property>
    <property name="mlt_service">qtblend</property>
    <property name="kdenlive_id">CLIP_DS2_MEME</property>
    <property name="rect">00:00:00.000=0 0 1920 1080 1.000000;00:00:00.317=0 0 1920 1080 1.000000;00:00:00.500=0 0 1920 1080 0.000000</property>
    <property name="rotation">00:00:00.000=0;00:00:00.317=0;00:00:00.500=0</property>
    <property name="compositing">0</property>
    <property name="distort">0</property>
    <property name="kdenlive:collapsed">0</property>
   </filter>
  </entry>
 </playlist>
 <playlist id="playlist13"/>
 <tractor id="tractor6" in="00:00:00.000" out="00:24:56.817">
  <property name="kdenlive:trackheight">50</property>
  <property name="kdenlive:timeline_active">1</property>
  <property name="kdenlive:collapsed">0</property>
  <property name="kdenlive:thumbs_format"/>
  <property name="kdenlive:audio_rec"/>
  <track hide="audio" producer="playlist12"/>
  <track hide="audio" producer="playlist13"/>
 </tractor>
 <producer id="producer795" in="00:00:00.000" out="02:55:15.583">
  <property name="length">630938</property>
  <property name="eof">pause</property>
  <property name="resource">/home/federico/Videos/Edit/Kden/ProxyRender/proxy/fe0d51893463e6190634030c49539660.mov</property>
  <property name="audio_index">1</property>
  <property name="video_index">0</property>
  <property name="mute_on_pause">0</property>
  <property name="mlt_service">avformat-novalidate</property>
  <property name="meta.media.nb_streams">2</property>
  <property name="meta.media.0.stream.type">video</property>
  <property name="meta.media.0.stream.frame_rate">59.9401</property>
  <property name="meta.media.0.stream.sample_aspect_ratio">1</property>
  <property name="meta.media.0.codec.width">640</property>
  <property name="meta.media.0.codec.height">360</property>
  <property name="meta.media.0.codec.rotate">0</property>
  <property name="meta.media.0.codec.pix_fmt">yuv420p</property>
  <property name="meta.media.0.codec.sample_aspect_ratio">1</property>
  <property name="meta.media.0.codec.colorspace">709</property>
  <property name="meta.media.0.codec.color_trc">1</property>
  <property name="meta.media.0.codec.name">h264</property>
  <property name="meta.media.0.codec.long_name">H.264 / AVC / MPEG-4 AVC / MPEG-4 part 10</property>
  <property name="meta.media.0.codec.bit_rate">5355740</property>
  <property name="meta.attr.0.stream.handler_name.markup">ISO Media file produced by Google Inc.</property>
  <property name="meta.attr.0.stream.vendor_id.markup">FFMP</property>
  <property name="meta.attr.0.stream.encoder.markup">Lavc59.18.100 libx264</property>
  <property name="meta.media.1.stream.type">audio</property>
  <property name="meta.media.1.codec.sample_fmt">fltp</property>
  <property name="meta.media.1.codec.sample_rate">48000</property>
  <property name="meta.media.1.codec.channels">2</property>
  <property name="meta.media.1.codec.name">aac</property>
  <property name="meta.media.1.codec.long_name">AAC (Advanced Audio Coding)</property>
  <property name="meta.media.1.codec.bit_rate">128722</property>
  <property name="meta.attr.1.stream.language.markup">eng</property>
  <property name="meta.attr.1.stream.handler_name.markup">SoundHandler</property>
  <property name="meta.attr.1.stream.vendor_id.markup">[0][0][0][0]</property>
  <property name="meta.attr.major_brand.markup">qt  </property>
  <property name="meta.attr.minor_version.markup">512</property>
  <property name="meta.attr.compatible_brands.markup">qt  </property>
  <property name="meta.attr.encoder.markup">Lavf59.16.100</property>
  <property name="seekable">1</property>
  <property name="meta.media.sample_aspect_num">1</property>
  <property name="meta.media.sample_aspect_den">1</property>
  <property name="aspect_ratio">1</property>
  <property name="format">3</property>
  <property name="kdenlive:clipname">1 - iudex hit - dark souls iii cinders  anima della sfida ii 1.mkv</property>
  <property name="kdenlive:clip_type">0</property>
  <property name="kdenlive:folderid">4</property>
  <property name="kdenlive:id">679</property>
  <property name="kdenlive:file_size">2828126290</property>
  <property name="kdenlive:file_hash">fe0d51893463e6190634030c49539660</property>
  <property name="kdenlive:audio_max1">212</property>
  <property name="kdenlive:proxy">/home/federico/Videos/Edit/Kden/ProxyRender/proxy/fe0d51893463e6190634030c49539660.mov</property>
  <property name="kdenlive:originalurl">/home/federico/Videos/Edit/Projects/DS3_cinders/5-Stream/1 - iudex hit - dark souls iii cinders  anima della sfida ii 1.mkv</property>
  <property name="kdenlive:original.mlt_type">producer</property>
  <property name="kdenlive:original.in">00:00:00.000</property>
  <property name="kdenlive:original.out">02:55:15.617</property>
  <property name="kdenlive:original.length">630938</property>
  <property name="kdenlive:original.eof">pause</property>
  <property name="kdenlive:original.resource">/home/federico/Videos/Edit/Projects/DS3_cinders/5-Stream/1 - iudex hit - dark souls iii cinders  anima della sfida ii 1.mkv</property>
  <property name="kdenlive:original.meta.media.nb_streams">2</property>
  <property name="kdenlive:original.meta.media.0.stream.type">video</property>
  <property name="kdenlive:original.meta.media.0.stream.frame_rate">59.9401</property>
  <property name="kdenlive:original.meta.media.0.stream.sample_aspect_ratio">0</property>
  <property name="kdenlive:original.meta.media.0.codec.width">1920</property>
  <property name="kdenlive:original.meta.media.0.codec.height">1080</property>
  <property name="kdenlive:original.meta.media.0.codec.rotate">0</property>
  <property name="kdenlive:original.meta.media.0.codec.pix_fmt">yuv420p</property>
  <property name="kdenlive:original.meta.media.0.codec.sample_aspect_ratio">0</property>
  <property name="kdenlive:original.meta.media.0.codec.colorspace">709</property>
  <property name="kdenlive:original.meta.media.0.codec.color_trc">1</property>
  <property name="kdenlive:original.meta.media.0.codec.name">libdav1d</property>
  <property name="kdenlive:original.meta.media.0.codec.long_name">dav1d AV1 decoder by VideoLAN</property>
  <property name="kdenlive:original.meta.media.0.codec.bit_rate">0</property>
  <property name="kdenlive:original.meta.attr.0.stream.HANDLER_NAME.markup">ISO Media file produced by Google Inc.</property>
  <property name="kdenlive:original.meta.attr.0.stream.VENDOR_ID.markup">[0][0][0][0]</property>
  <property name="kdenlive:original.meta.attr.0.stream.DURATION.markup">02:55:15.589000000</property>
  <property name="kdenlive:original.meta.media.1.stream.type">audio</property>
  <property name="kdenlive:original.meta.media.1.codec.sample_fmt">fltp</property>
  <property name="kdenlive:original.meta.media.1.codec.sample_rate">48000</property>
  <property name="kdenlive:original.meta.media.1.codec.channels">2</property>
  <property name="kdenlive:original.meta.media.1.codec.name">opus</property>
  <property name="kdenlive:original.meta.media.1.codec.long_name">Opus</property>
  <property name="kdenlive:original.meta.media.1.codec.bit_rate">0</property>
  <property name="kdenlive:original.meta.attr.1.stream.language.markup">eng</property>
  <property name="kdenlive:original.meta.attr.1.stream.DURATION.markup">02:55:15.628000000</property>
  <property name="kdenlive:original.meta.attr.COMPATIBLE_BRANDS.markup">iso6av01mp41</property>
  <property name="kdenlive:original.meta.attr.MAJOR_BRAND.markup">dash</property>
  <property name="kdenlive:original.meta.attr.MINOR_VERSION.markup">0</property>
  <property name="kdenlive:original.meta.attr.ENCODER.markup">Lavf60.16.100</property>
  <property name="kdenlive:original.seekable">1</property>
  <property name="kdenlive:original.width">1920</property>
  <property name="kdenlive:original.height">1080</property>
  <property name="kdenlive:original.meta.media.sample_aspect_num">1</property>
  <property name="kdenlive:original.meta.media.sample_aspect_den">1</property>
  <property name="kdenlive:original.aspect_ratio">1</property>
  <property name="kdenlive:original.format">3</property>
  <property name="kdenlive:original.audio_index">1</property>
  <property name="kdenlive:original.video_index">0</property>
  <property name="kdenlive:original.mute_on_pause">0</property>
  <property name="kdenlive:original.mlt_service">avformat-novalidate</property>
  <property name="kdenlive:original.meta.media.frame_rate_num">60000</property>
  <property name="kdenlive:original.meta.media.frame_rate_den">1001</property>
  <property name="kdenlive:original.meta.media.colorspace">709</property>
  <property name="kdenlive:original.meta.media.color_trc">1</property>
  <property name="kdenlive:original.meta.media.has_b_frames">0</property>
  <property name="kdenlive:original.meta.media.width">1920</property>
  <property name="kdenlive:original.meta.media.height">1080</property>
  <property name="kdenlive:original.meta.media.color_range">mpeg</property>
  <property name="kdenlive:original.meta.media.top_field_first">0</property>
  <property name="kdenlive:original.meta.media.progressive">1</property>
  <property name="kdenlive:original.kdenlive:clip_type">0</property>
  <property name="kdenlive:original.kdenlive:folderid">4</property>
  <property name="kdenlive:original.kdenlive:id">679</property>
  <property name="kdenlive:original.kdenlive:file_size">2828126290</property>
  <property name="kdenlive:original.kdenlive:file_hash">fe0d51893463e6190634030c49539660</property>
  <property name="kdenlive:original.kdenlive:audio_max1">212</property>
  <property name="kdenlive:original.backup">1</property>
  <property name="xml">was here</property>
  <property name="meta.media.frame_rate_num">19001</property>
  <property name="meta.media.frame_rate_den">317</property>
  <property name="meta.media.colorspace">709</property>
  <property name="meta.media.color_trc">1</property>
  <property name="meta.media.has_b_frames">0</property>
  <property name="meta.media.width">640</property>
  <property name="meta.media.height">360</property>
  <property name="meta.media.color_range">mpeg</property>
  <property name="meta.media.top_field_first">0</property>
  <property name="meta.media.progressive">1</property>
  <property name="set.test_audio">1</property>
  <property name="set.test_image">0</property>
 </producer>
 <producer id="producer796" in="00:00:00.000" out="02:50:28.900">
  <property name="length">613736</property>
  <property name="eof">pause</property>
  <property name="resource">/home/federico/Videos/Edit/Kden/ProxyRender/proxy/f6918f2d79882f9391f2f765ac219be5.mov</property>
  <property name="audio_index">1</property>
  <property name="video_index">0</property>
  <property name="mute_on_pause">0</property>
  <property name="mlt_service">avformat-novalidate</property>
  <property name="meta.media.nb_streams">2</property>
  <property name="meta.media.0.stream.type">video</property>
  <property name="meta.media.0.stream.frame_rate">60</property>
  <property name="meta.media.0.stream.sample_aspect_ratio">1</property>
  <property name="meta.media.0.codec.width">640</property>
  <property name="meta.media.0.codec.height">360</property>
  <property name="meta.media.0.codec.rotate">0</property>
  <property name="meta.media.0.codec.pix_fmt">yuv420p</property>
  <property name="meta.media.0.codec.sample_aspect_ratio">1</property>
  <property name="meta.media.0.codec.colorspace">709</property>
  <property name="meta.media.0.codec.color_trc">1</property>
  <property name="meta.media.0.codec.name">h264</property>
  <property name="meta.media.0.codec.long_name">H.264 / AVC / MPEG-4 AVC / MPEG-4 part 10</property>
  <property name="meta.media.0.codec.bit_rate">5791824</property>
  <property name="meta.attr.0.stream.handler_name.markup">ISO Media file produced by Google Inc.</property>
  <property name="meta.attr.0.stream.vendor_id.markup">FFMP</property>
  <property name="meta.attr.0.stream.encoder.markup">Lavc59.18.100 libx264</property>
  <property name="meta.media.1.stream.type">audio</property>
  <property name="meta.media.1.codec.sample_fmt">fltp</property>
  <property name="meta.media.1.codec.sample_rate">48000</property>
  <property name="meta.media.1.codec.channels">2</property>
  <property name="meta.media.1.codec.name">aac</property>
  <property name="meta.media.1.codec.long_name">AAC (Advanced Audio Coding)</property>
  <property name="meta.media.1.codec.bit_rate">128878</property>
  <property name="meta.attr.1.stream.language.markup">eng</property>
  <property name="meta.attr.1.stream.handler_name.markup">SoundHandler</property>
  <property name="meta.attr.1.stream.vendor_id.markup">[0][0][0][0]</property>
  <property name="meta.attr.major_brand.markup">qt  </property>
  <property name="meta.attr.minor_version.markup">512</property>
  <property name="meta.attr.compatible_brands.markup">qt  </property>
  <property name="meta.attr.encoder.markup">Lavf59.16.100</property>
  <property name="seekable">1</property>
  <property name="meta.media.sample_aspect_num">1</property>
  <property name="meta.media.sample_aspect_den">1</property>
  <property name="aspect_ratio">1</property>
  <property name="format">3</property>
  <property name="kdenlive:clipname">2 - mod of chaos - dark souls iii cinders  anima della sfida ii 2.mkv</property>
  <property name="kdenlive:clip_type">0</property>
  <property name="kdenlive:folderid">4</property>
  <property name="kdenlive:id">680</property>
  <property name="kdenlive:file_size">3761357757</property>
  <property name="kdenlive:file_hash">f6918f2d79882f9391f2f765ac219be5</property>
  <property name="kdenlive:proxy">/home/federico/Videos/Edit/Kden/ProxyRender/proxy/f6918f2d79882f9391f2f765ac219be5.mov</property>
  <property name="kdenlive:originalurl">/home/federico/Videos/Edit/Projects/DS3_cinders/5-Stream/2 - mod of chaos - dark souls iii cinders  anima della sfida ii 2.mkv</property>
  <property name="kdenlive:original.mlt_type">producer</property>
  <property name="kdenlive:original.in">00:00:00.000</property>
  <property name="kdenlive:original.out">02:50:28.917</property>
  <property name="kdenlive:original.length">613736</property>
  <property name="kdenlive:original.eof">pause</property>
  <property name="kdenlive:original.resource">/home/federico/Videos/Edit/Projects/DS3_cinders/5-Stream/2 - mod of chaos - dark souls iii cinders  anima della sfida ii 2.mkv</property>
  <property name="kdenlive:original.meta.media.nb_streams">2</property>
  <property name="kdenlive:original.meta.media.0.stream.type">video</property>
  <property name="kdenlive:original.meta.media.0.stream.frame_rate">60</property>
  <property name="kdenlive:original.meta.media.0.stream.sample_aspect_ratio">0</property>
  <property name="kdenlive:original.meta.media.0.codec.width">1920</property>
  <property name="kdenlive:original.meta.media.0.codec.height">1080</property>
  <property name="kdenlive:original.meta.media.0.codec.rotate">0</property>
  <property name="kdenlive:original.meta.media.0.codec.pix_fmt">yuv420p</property>
  <property name="kdenlive:original.meta.media.0.codec.sample_aspect_ratio">0</property>
  <property name="kdenlive:original.meta.media.0.codec.colorspace">709</property>
  <property name="kdenlive:original.meta.media.0.codec.color_trc">1</property>
  <property name="kdenlive:original.meta.media.0.codec.name">libdav1d</property>
  <property name="kdenlive:original.meta.media.0.codec.long_name">dav1d AV1 decoder by VideoLAN</property>
  <property name="kdenlive:original.meta.media.0.codec.bit_rate">0</property>
  <property name="kdenlive:original.meta.attr.0.stream.HANDLER_NAME.markup">ISO Media file produced by Google Inc.</property>
  <property name="kdenlive:original.meta.attr.0.stream.VENDOR_ID.markup">[0][0][0][0]</property>
  <property name="kdenlive:original.meta.attr.0.stream.DURATION.markup">02:50:28.900000000</property>
  <property name="kdenlive:original.meta.media.1.stream.type">audio</property>
  <property name="kdenlive:original.meta.media.1.codec.sample_fmt">fltp</property>
  <property name="kdenlive:original.meta.media.1.codec.sample_rate">48000</property>
  <property name="kdenlive:original.meta.media.1.codec.channels">2</property>
  <property name="kdenlive:original.meta.media.1.codec.name">opus</property>
  <property name="kdenlive:original.meta.media.1.codec.long_name">Opus</property>
  <property name="kdenlive:original.meta.media.1.codec.bit_rate">0</property>
  <property name="kdenlive:original.meta.attr.1.stream.language.markup">eng</property>
  <property name="kdenlive:original.meta.attr.1.stream.DURATION.markup">02:50:28.928000000</property>
  <property name="kdenlive:original.meta.attr.COMPATIBLE_BRANDS.markup">iso6av01mp41</property>
  <property name="kdenlive:original.meta.attr.MAJOR_BRAND.markup">dash</property>
  <property name="kdenlive:original.meta.attr.MINOR_VERSION.markup">0</property>
  <property name="kdenlive:original.meta.attr.ENCODER.markup">Lavf60.16.100</property>
  <property name="kdenlive:original.seekable">1</property>
  <property name="kdenlive:original.width">1920</property>
  <property name="kdenlive:original.height">1080</property>
  <property name="kdenlive:original.meta.media.sample_aspect_num">1</property>
  <property name="kdenlive:original.meta.media.sample_aspect_den">1</property>
  <property name="kdenlive:original.aspect_ratio">1</property>
  <property name="kdenlive:original.format">3</property>
  <property name="kdenlive:original.audio_index">1</property>
  <property name="kdenlive:original.video_index">0</property>
  <property name="kdenlive:original.mute_on_pause">0</property>
  <property name="kdenlive:original.mlt_service">avformat-novalidate</property>
  <property name="kdenlive:original.meta.media.frame_rate_num">60</property>
  <property name="kdenlive:original.meta.media.frame_rate_den">1</property>
  <property name="kdenlive:original.meta.media.colorspace">709</property>
  <property name="kdenlive:original.meta.media.color_trc">1</property>
  <property name="kdenlive:original.meta.media.has_b_frames">0</property>
  <property name="kdenlive:original.meta.media.width">1920</property>
  <property name="kdenlive:original.meta.media.height">1080</property>
  <property name="kdenlive:original.meta.media.color_range">mpeg</property>
  <property name="kdenlive:original.meta.media.top_field_first">0</property>
  <property name="kdenlive:original.meta.media.progressive">1</property>
  <property name="kdenlive:original.kdenlive:clip_type">0</property>
  <property name="kdenlive:original.kdenlive:folderid">4</property>
  <property name="kdenlive:original.kdenlive:id">680</property>
  <property name="kdenlive:original.kdenlive:file_size">3761357757</property>
  <property name="kdenlive:original.kdenlive:file_hash">f6918f2d79882f9391f2f765ac219be5</property>
  <property name="kdenlive:original.backup">1</property>
  <property name="kdenlive:audio_max1">206</property>
  <property name="xml">was here</property>
  <property name="meta.media.frame_rate_num">60</property>
  <property name="meta.media.frame_rate_den">1</property>
  <property name="meta.media.colorspace">709</property>
  <property name="meta.media.color_trc">1</property>
  <property name="meta.media.has_b_frames">0</property>
  <property name="meta.media.width">640</property>
  <property name="meta.media.height">360</property>
  <property name="meta.media.color_range">mpeg</property>
  <property name="meta.media.top_field_first">0</property>
  <property name="meta.media.progressive">1</property>
  <property name="set.test_audio">1</property>
  <property name="set.test_image">0</property>
 </producer>
 <producer id="producer797" in="00:00:00.000" out="02:27:56.617">
  <property name="length">532598</property>
  <property name="eof">pause</property>
  <property name="resource">/home/federico/Videos/Edit/Kden/ProxyRender/proxy/fa2e21925daa2aa504e340903ed9d0c2.mov</property>
  <property name="audio_index">1</property>
  <property name="video_index">0</property>
  <property name="mute_on_pause">0</property>
  <property name="mlt_service">avformat-novalidate</property>
  <property name="seekable">1</property>
  <property name="aspect_ratio">1</property>
  <property name="format">3</property>
  <property name="kdenlive:clipname"/>
  <property name="kdenlive:clip_type">0</property>
  <property name="kdenlive:folderid">4</property>
  <property name="kdenlive:id">683</property>
  <property name="kdenlive:file_size">3890870258</property>
  <property name="kdenlive:file_hash">fa2e21925daa2aa504e340903ed9d0c2</property>
  <property name="kdenlive:proxy">/home/federico/Videos/Edit/Kden/ProxyRender/proxy/fa2e21925daa2aa504e340903ed9d0c2.mov</property>
  <property name="kdenlive:originalurl">/home/federico/Videos/Edit/Projects/DS3_cinders/5-Stream/5 - difesa - dark souls iii cinders  anima della sfida ii 5.mkv</property>
  <property name="kdenlive:original.mlt_type">producer</property>
  <property name="kdenlive:original.in">00:00:00.000</property>
  <property name="kdenlive:original.out">02:27:56.617</property>
  <property name="kdenlive:original.length">532598</property>
  <property name="kdenlive:original.eof">pause</property>
  <property name="kdenlive:original.resource">/home/federico/Videos/Edit/Projects/DS3_cinders/5-Stream/5 - difesa - dark souls iii cinders  anima della sfida ii 5.mkv</property>
  <property name="kdenlive:original.meta.media.nb_streams">2</property>
  <property name="kdenlive:original.meta.media.0.stream.type">video</property>
  <property name="kdenlive:original.meta.media.0.stream.frame_rate">60</property>
  <property name="kdenlive:original.meta.media.0.stream.sample_aspect_ratio">1</property>
  <property name="kdenlive:original.meta.media.0.codec.width">1920</property>
  <property name="kdenlive:original.meta.media.0.codec.height">1080</property>
  <property name="kdenlive:original.meta.media.0.codec.rotate">0</property>
  <property name="kdenlive:original.meta.media.0.codec.pix_fmt">yuv420p</property>
  <property name="kdenlive:original.meta.media.0.codec.sample_aspect_ratio">0</property>
  <property name="kdenlive:original.meta.media.0.codec.colorspace">709</property>
  <property name="kdenlive:original.meta.media.0.codec.color_trc">1</property>
  <property name="kdenlive:original.meta.media.0.codec.name">vp9</property>
  <property name="kdenlive:original.meta.media.0.codec.long_name">Google VP9</property>
  <property name="kdenlive:original.meta.media.0.codec.bit_rate">0</property>
  <property name="kdenlive:original.meta.attr.0.stream.language.markup">eng</property>
  <property name="kdenlive:original.meta.attr.0.stream.DURATION.markup">02:27:56.599000000</property>
  <property name="kdenlive:original.meta.media.1.stream.type">audio</property>
  <property name="kdenlive:original.meta.media.1.codec.sample_fmt">fltp</property>
  <property name="kdenlive:original.meta.media.1.codec.sample_rate">48000</property>
  <property name="kdenlive:original.meta.media.1.codec.channels">2</property>
  <property name="kdenlive:original.meta.media.1.codec.name">opus</property>
  <property name="kdenlive:original.meta.media.1.codec.long_name">Opus</property>
  <property name="kdenlive:original.meta.media.1.codec.bit_rate">0</property>
  <property name="kdenlive:original.meta.attr.1.stream.language.markup">eng</property>
  <property name="kdenlive:original.meta.attr.1.stream.DURATION.markup">02:27:56.628000000</property>
  <property name="kdenlive:original.meta.attr.ENCODER.markup">Lavf60.16.100</property>
  <property name="kdenlive:original.seekable">1</property>
  <property name="kdenlive:original.width">1920</property>
  <property name="kdenlive:original.height">1080</property>
  <property name="kdenlive:original.meta.media.sample_aspect_num">1</property>
  <property name="kdenlive:original.meta.media.sample_aspect_den">1</property>
  <property name="kdenlive:original.aspect_ratio">1</property>
  <property name="kdenlive:original.format">3</property>
  <property name="kdenlive:original.audio_index">1</property>
  <property name="kdenlive:original.video_index">0</property>
  <property name="kdenlive:original.mute_on_pause">0</property>
  <property name="kdenlive:original.mlt_service">avformat-novalidate</property>
  <property name="kdenlive:original.meta.media.frame_rate_num">60</property>
  <property name="kdenlive:original.meta.media.frame_rate_den">1</property>
  <property name="kdenlive:original.meta.media.colorspace">709</property>
  <property name="kdenlive:original.meta.media.color_trc">1</property>
  <property name="kdenlive:original.meta.media.has_b_frames">0</property>
  <property name="kdenlive:original.meta.media.width">1920</property>
  <property name="kdenlive:original.meta.media.height">1080</property>
  <property name="kdenlive:original.meta.media.color_range">mpeg</property>
  <property name="kdenlive:original.meta.media.top_field_first">0</property>
  <property name="kdenlive:original.meta.media.progressive">1</property>
  <property name="kdenlive:original.kdenlive:clip_type">0</property>
  <property name="kdenlive:original.kdenlive:folderid">4</property>
  <property name="kdenlive:original.kdenlive:id">683</property>
  <property name="kdenlive:original.kdenlive:file_size">3890870258</property>
  <property name="kdenlive:original.kdenlive:file_hash">fa2e21925daa2aa504e340903ed9d0c2</property>
  <property name="kdenlive:original.backup">1</property>
  <property name="kdenlive:audio_max1">195</property>
  <property name="xml">was here</property>
  <property name="meta.media.nb_streams">2</property>
  <property name="meta.media.0.stream.type">video</property>
  <property name="meta.media.0.stream.frame_rate">60</property>
  <property name="meta.media.0.stream.sample_aspect_ratio">1</property>
  <property name="meta.media.0.codec.width">640</property>
  <property name="meta.media.0.codec.height">360</property>
  <property name="meta.media.0.codec.rotate">0</property>
  <property name="meta.media.0.codec.pix_fmt">yuv420p</property>
  <property name="meta.media.0.codec.sample_aspect_ratio">1</property>
  <property name="meta.media.0.codec.colorspace">709</property>
  <property name="meta.media.0.codec.color_trc">1</property>
  <property name="meta.media.0.codec.name">h264</property>
  <property name="meta.media.0.codec.long_name">H.264 / AVC / MPEG-4 AVC / MPEG-4 part 10</property>
  <property name="meta.media.0.codec.bit_rate">5200999</property>
  <property name="meta.attr.0.stream.language.markup">eng</property>
  <property name="meta.attr.0.stream.DURATION.markup">02:27:56.599000000</property>
  <property name="meta.media.1.stream.type">audio</property>
  <property name="meta.media.1.codec.sample_fmt">fltp</property>
  <property name="meta.media.1.codec.sample_rate">48000</property>
  <property name="meta.media.1.codec.channels">2</property>
  <property name="meta.media.1.codec.name">aac</property>
  <property name="meta.media.1.codec.long_name">AAC (Advanced Audio Coding)</property>
  <property name="meta.media.1.codec.bit_rate">128316</property>
  <property name="meta.attr.1.stream.language.markup">eng</property>
  <property name="meta.attr.1.stream.DURATION.markup">02:27:56.628000000</property>
  <property name="meta.attr.ENCODER.markup">Lavf60.16.100</property>
  <property name="meta.media.sample_aspect_num">1</property>
  <property name="meta.media.sample_aspect_den">1</property>
  <property name="meta.media.frame_rate_num">60</property>
  <property name="meta.media.frame_rate_den">1</property>
  <property name="meta.media.colorspace">709</property>
  <property name="meta.media.color_trc">1</property>
  <property name="meta.media.has_b_frames">0</property>
  <property name="meta.media.width">640</property>
  <property name="meta.media.height">360</property>
  <property name="meta.media.color_range">mpeg</property>
  <property name="meta.media.top_field_first">0</property>
  <property name="meta.media.progressive">1</property>
  <property name="meta.attr.0.stream.handler_name.markup">VideoHandler</property>
  <property name="meta.attr.0.stream.vendor_id.markup">FFMP</property>
  <property name="meta.attr.0.stream.encoder.markup">Lavc59.18.100 libx264</property>
  <property name="meta.attr.1.stream.handler_name.markup">SoundHandler</property>
  <property name="meta.attr.1.stream.vendor_id.markup">[0][0][0][0]</property>
  <property name="meta.attr.major_brand.markup">qt  </property>
  <property name="meta.attr.minor_version.markup">512</property>
  <property name="meta.attr.compatible_brands.markup">qt  </property>
  <property name="meta.attr.encoder.markup">Lavf59.16.100</property>
  <property name="set.test_audio">1</property>
  <property name="set.test_image">0</property>
 </producer>
 <producer id="producer798" in="00:00:00.000" out="02:38:45.867">
  <property name="length">571553</property>
  <property name="eof">pause</property>
  <property name="resource">/home/federico/Videos/Edit/Kden/ProxyRender/proxy/cf314eebe17b047f9605a52d59418270.mov</property>
  <property name="audio_index">1</property>
  <property name="video_index">0</property>
  <property name="mute_on_pause">0</property>
  <property name="mlt_service">avformat-novalidate</property>
  <property name="meta.media.nb_streams">2</property>
  <property name="meta.media.0.stream.type">video</property>
  <property name="meta.media.0.stream.frame_rate">60</property>
  <property name="meta.media.0.stream.sample_aspect_ratio">1</property>
  <property name="meta.media.0.codec.width">640</property>
  <property name="meta.media.0.codec.height">360</property>
  <property name="meta.media.0.codec.rotate">0</property>
  <property name="meta.media.0.codec.pix_fmt">yuv420p</property>
  <property name="meta.media.0.codec.sample_aspect_ratio">1</property>
  <property name="meta.media.0.codec.colorspace">709</property>
  <property name="meta.media.0.codec.color_trc">1</property>
  <property name="meta.media.0.codec.name">h264</property>
  <property name="meta.media.0.codec.long_name">H.264 / AVC / MPEG-4 AVC / MPEG-4 part 10</property>
  <property name="meta.media.0.codec.bit_rate">5667419</property>
  <property name="meta.attr.0.stream.language.markup">eng</property>
  <property name="meta.attr.0.stream.handler_name.markup">VideoHandler</property>
  <property name="meta.attr.0.stream.vendor_id.markup">FFMP</property>
  <property name="meta.attr.0.stream.encoder.markup">Lavc59.18.100 libx264</property>
  <property name="meta.media.1.stream.type">audio</property>
  <property name="meta.media.1.codec.sample_fmt">fltp</property>
  <property name="meta.media.1.codec.sample_rate">48000</property>
  <property name="meta.media.1.codec.channels">2</property>
  <property name="meta.media.1.codec.name">aac</property>
  <property name="meta.media.1.codec.long_name">AAC (Advanced Audio Coding)</property>
  <property name="meta.media.1.codec.bit_rate">129290</property>
  <property name="meta.attr.1.stream.language.markup">eng</property>
  <property name="meta.attr.1.stream.handler_name.markup">SoundHandler</property>
  <property name="meta.attr.1.stream.vendor_id.markup">[0][0][0][0]</property>
  <property name="meta.attr.major_brand.markup">qt  </property>
  <property name="meta.attr.minor_version.markup">512</property>
  <property name="meta.attr.compatible_brands.markup">qt  </property>
  <property name="meta.attr.encoder.markup">Lavf59.16.100</property>
  <property name="seekable">1</property>
  <property name="meta.media.sample_aspect_num">1</property>
  <property name="meta.media.sample_aspect_den">1</property>
  <property name="aspect_ratio">1</property>
  <property name="format">3</property>
  <property name="kdenlive:clipname">6 - sfida accettata - dark souls iii cinders  anima della sfida ii 6.mkv</property>
  <property name="kdenlive:clip_type">0</property>
  <property name="kdenlive:folderid">4</property>
  <property name="kdenlive:id">684</property>
  <property name="kdenlive:file_size">4537358114</property>
  <property name="kdenlive:file_hash">cf314eebe17b047f9605a52d59418270</property>
  <property name="kdenlive:proxy">/home/federico/Videos/Edit/Kden/ProxyRender/proxy/cf314eebe17b047f9605a52d59418270.mov</property>
  <property name="kdenlive:originalurl">/home/federico/Videos/Edit/Projects/DS3_cinders/5-Stream/6 - sfida accettata - dark souls iii cinders  anima della sfida ii 6.mkv</property>
  <property name="kdenlive:original.mlt_type">producer</property>
  <property name="kdenlive:original.in">00:00:00.000</property>
  <property name="kdenlive:original.out">02:38:45.867</property>
  <property name="kdenlive:original.length">571553</property>
  <property name="kdenlive:original.eof">pause</property>
  <property name="kdenlive:original.resource">/home/federico/Videos/Edit/Projects/DS3_cinders/5-Stream/6 - sfida accettata - dark souls iii cinders  anima della sfida ii 6.mkv</property>
  <property name="kdenlive:original.meta.media.nb_streams">2</property>
  <property name="kdenlive:original.meta.media.0.stream.type">video</property>
  <property name="kdenlive:original.meta.media.0.stream.frame_rate">60</property>
  <property name="kdenlive:original.meta.media.0.stream.sample_aspect_ratio">1</property>
  <property name="kdenlive:original.meta.media.0.codec.width">1920</property>
  <property name="kdenlive:original.meta.media.0.codec.height">1080</property>
  <property name="kdenlive:original.meta.media.0.codec.rotate">0</property>
  <property name="kdenlive:original.meta.media.0.codec.pix_fmt">yuv420p</property>
  <property name="kdenlive:original.meta.media.0.codec.sample_aspect_ratio">0</property>
  <property name="kdenlive:original.meta.media.0.codec.colorspace">709</property>
  <property name="kdenlive:original.meta.media.0.codec.color_trc">1</property>
  <property name="kdenlive:original.meta.media.0.codec.name">vp9</property>
  <property name="kdenlive:original.meta.media.0.codec.long_name">Google VP9</property>
  <property name="kdenlive:original.meta.media.0.codec.bit_rate">0</property>
  <property name="kdenlive:original.meta.attr.0.stream.language.markup">eng</property>
  <property name="kdenlive:original.meta.attr.0.stream.DURATION.markup">02:38:45.866000000</property>
  <property name="kdenlive:original.meta.media.1.stream.type">audio</property>
  <property name="kdenlive:original.meta.media.1.codec.sample_fmt">fltp</property>
  <property name="kdenlive:original.meta.media.1.codec.sample_rate">48000</property>
  <property name="kdenlive:original.meta.media.1.codec.channels">2</property>
  <property name="kdenlive:original.meta.media.1.codec.name">opus</property>
  <property name="kdenlive:original.meta.media.1.codec.long_name">Opus</property>
  <property name="kdenlive:original.meta.media.1.codec.bit_rate">0</property>
  <property name="kdenlive:original.meta.attr.1.stream.language.markup">eng</property>
  <property name="kdenlive:original.meta.attr.1.stream.DURATION.markup">02:38:45.888000000</property>
  <property name="kdenlive:original.meta.attr.ENCODER.markup">Lavf60.16.100</property>
  <property name="kdenlive:original.seekable">1</property>
  <property name="kdenlive:original.width">1920</property>
  <property name="kdenlive:original.height">1080</property>
  <property name="kdenlive:original.meta.media.sample_aspect_num">1</property>
  <property name="kdenlive:original.meta.media.sample_aspect_den">1</property>
  <property name="kdenlive:original.aspect_ratio">1</property>
  <property name="kdenlive:original.format">3</property>
  <property name="kdenlive:original.audio_index">1</property>
  <property name="kdenlive:original.video_index">0</property>
  <property name="kdenlive:original.mute_on_pause">0</property>
  <property name="kdenlive:original.mlt_service">avformat-novalidate</property>
  <property name="kdenlive:original.meta.media.frame_rate_num">60</property>
  <property name="kdenlive:original.meta.media.frame_rate_den">1</property>
  <property name="kdenlive:original.meta.media.colorspace">709</property>
  <property name="kdenlive:original.meta.media.color_trc">1</property>
  <property name="kdenlive:original.meta.media.has_b_frames">0</property>
  <property name="kdenlive:original.meta.media.width">1920</property>
  <property name="kdenlive:original.meta.media.height">1080</property>
  <property name="kdenlive:original.meta.media.color_range">mpeg</property>
  <property name="kdenlive:original.meta.media.top_field_first">0</property>
  <property name="kdenlive:original.meta.media.progressive">1</property>
  <property name="kdenlive:original.kdenlive:clip_type">0</property>
  <property name="kdenlive:original.kdenlive:folderid">4</property>
  <property name="kdenlive:original.kdenlive:id">684</property>
  <property name="kdenlive:original.kdenlive:file_size">4537358114</property>
  <property name="kdenlive:original.kdenlive:file_hash">cf314eebe17b047f9605a52d59418270</property>
  <property name="kdenlive:original.backup">1</property>
  <property name="kdenlive:audio_max1">196</property>
  <property name="xml">was here</property>
  <property name="meta.media.frame_rate_num">60</property>
  <property name="meta.media.frame_rate_den">1</property>
  <property name="meta.media.colorspace">709</property>
  <property name="meta.media.color_trc">1</property>
  <property name="meta.media.has_b_frames">0</property>
  <property name="meta.media.width">640</property>
  <property name="meta.media.height">360</property>
  <property name="meta.media.color_range">mpeg</property>
  <property name="meta.media.top_field_first">0</property>
  <property name="meta.media.progressive">1</property>
  <property name="set.test_audio">1</property>
  <property name="set.test_image">0</property>
 </producer>
 <playlist id="playlist14">
  <blank length="00:01:41.067"/>
  <entry producer="producer795" in="00:45:27.833" out="00:45:31.917">
   <property name="kdenlive:id">679</property>
   <filter id="filter1098">
    <property name="rotate_center">1</property>
    <property name="mlt_service">qtblend</property>
    <property name="kdenlive_id">qtblend</property>
    <property name="rect">00:45:27.833=-1473 -302 4800 2700 1.000000</property>
    <property name="rotation">00:45:27.833=0</property>
    <property name="compositing">0</property>
    <property name="distort">0</property>
    <property name="kdenlive:collapsed">1</property>
   </filter>
   <filter id="filter1099">
    <property name="filter">frei0r.alphaspot</property>
    <property name="mlt_service">mask_start</property>
    <property name="kdenlive_id">mask_start-frei0r.alphaspot</property>
    <property name="filter.Shape">0</property>
    <property name="filter.Position X">00:45:27.833=0.49</property>
    <property name="filter.Position Y">00:45:27.833=0.435</property>
    <property name="filter.Size X">00:45:27.833=0.395</property>
    <property name="filter.Size Y">163670=0.1</property>
    <property name="filter.Tilt">163670=0.5</property>
    <property name="filter.Transition width">163670=0.2</property>
    <property name="filter.Min">163670=0</property>
    <property name="filter.Max">163670=1</property>
    <property name="filter.Operation">0</property>
    <property name="kdenlive:collapsed">0</property>
   </filter>
   <filter id="filter1100">
    <property name="rotate_center">1</property>
    <property name="mlt_service">qtblend</property>
    <property name="kdenlive_id">qtblend</property>
    <property name="rect">00:45:27.833=0 0 1920 1080 1.000000;00:45:31.917=-48 -27 2016 1134 1.000000</property>
    <property name="rotation">00:45:27.833=0;00:45:31.917=0</property>
    <property name="compositing">0</property>
    <property name="distort">0</property>
    <property name="kdenlive:collapsed">0</property>
   </filter>
  </entry>
  <blank length="00:01:31.383"/>
  <entry producer="producer630" in="00:00:00.000" out="00:00:10.350">
   <property name="kdenlive:id">692</property>
   <filter id="filter1101" out="00:00:00.250">
    <property name="start">1</property>
    <property name="level">1</property>
    <property name="mlt_service">brightness</property>
    <property name="kdenlive_id">fade_from_black</property>
    <property name="alpha">00:00:00.000=0;00:00:00.250=1</property>
    <property name="kdenlive:collapsed">0</property>
   </filter>
   <filter id="filter1102">
    <property name="rotate_center">1</property>
    <property name="mlt_service">qtblend</property>
    <property name="kdenlive_id">qtblend</property>
    <property name="rect">00:00:00.000=0 0 1920 1080 1.000000;00:00:02.683=0 0 1920 1080 1.000000;00:00:02.767=0 -131 1344 756 1.000000</property>
    <property name="rotation">00:00:00.000=0;00:00:02.683=0;00:00:02.767=0</property>
    <property name="compositing">0</property>
    <property name="distort">0</property>
    <property name="kdenlive:collapsed">0</property>
   </filter>
  </entry>
  <blank length="00:00:50.383"/>
  <entry producer="producer635" in="00:00:00.000" out="00:00:01.017">
   <property name="kdenlive:id">697</property>
   <filter id="filter1103">
    <property name="rotate_center">1</property>
    <property name="mlt_service">qtblend</property>
    <property name="kdenlive_id">qtblend</property>
    <property name="rect">00:00:00.000=582 -7 1632 918 1.000000</property>
    <property name="rotation">00:00:00.000=0</property>
    <property name="compositing">0</property>
    <property name="distort">0</property>
    <property name="kdenlive:collapsed">1</property>
   </filter>
   <filter id="filter1104">
    <property name="rotate_center">1</property>
    <property name="mlt_service">qtblend</property>
    <property name="kdenlive_id">qtblend</property>
    <property name="rect">00:00:00.000=96 54 1728 972 1.000000;00:00:00.033=0 0 1920 1080 1.000000</property>
    <property name="rotation">00:00:00.000=0;00:00:00.033=0</property>
    <property name="compositing">0</property>
    <property name="distort">0</property>
    <property name="kdenlive:collapsed">1</property>
   </filter>
   <filter id="filter1105" in="00:00:00.850" out="00:00:01.017">
    <property name="start">1</property>
    <property name="level">1</property>
    <property name="mlt_service">brightness</property>
    <property name="kdenlive_id">fade_to_black</property>
    <property name="alpha">00:00:00.000=1;00:00:00.167=0</property>
    <property name="kdenlive:collapsed">0</property>
   </filter>
  </entry>
  <blank length="00:03:17.583"/>
  <entry producer="producer796" in="01:37:56.000" out="01:37:57.500">
   <property name="kdenlive:id">680</property>
   <filter id="filter1106">
    <property name="rotate_center">1</property>
    <property name="mlt_service">qtblend</property>
    <property name="kdenlive_id">qtblend</property>
    <property name="rect">01:37:56.000=-1 280 2016 1134 1.000000</property>
    <property name="rotation">01:37:56.000=0</property>
    <property name="compositing">0</property>
    <property name="distort">0</property>
    <property name="kdenlive:collapsed">1</property>
   </filter>
   <filter id="filter1107">
    <property name="rotate_center">1</property>
    <property name="mlt_service">qtblend</property>
    <property name="kdenlive_id">qtblend</property>
    <property name="rect">01:37:56.000=-4992 -2808 6912 3888 1.000000</property>
    <property name="rotation">01:37:56.000=0</property>
    <property name="compositing">0</property>
    <property name="distort">0</property>
    <property name="kdenlive:collapsed">1</property>
   </filter>
   <filter id="filter1108">
    <property name="mlt_service">avfilter.avgblur</property>
    <property name="kdenlive_id">Blur_Hard</property>
    <property name="av.sizeX">20</property>
    <property name="av.sizeY">20</property>
    <property name="av.planes">7</property>
    <property name="kdenlive:collapsed">0</property>
   </filter>
   <filter id="filter1109">
    <property name="mlt_service">avfilter.avgblur</property>
    <property name="kdenlive_id">Blur_Hard</property>
    <property name="av.sizeX">20</property>
    <property name="av.sizeY">20</property>
    <property name="av.planes">7</property>
    <property name="kdenlive:collapsed">0</property>
   </filter>
   <filter id="filter1110" in="01:37:56.000" out="01:37:56.900">
    <property name="start">1</property>
    <property name="level">1</property>
    <property name="mlt_service">brightness</property>
    <property name="kdenlive_id">fade_from_black</property>
    <property name="alpha">00:00:00.000=0;00:00:00.900=1</property>
    <property name="kdenlive:collapsed">0</property>
   </filter>
  </entry>
  <blank length="00:07:29.750"/>
  <entry producer="producer631" in="00:00:00.000" out="00:00:00.617">
   <property name="kdenlive:id">687</property>
   <filter id="filter1111">
    <property name="rotate_center">1</property>
    <property name="mlt_service">qtblend</property>
    <property name="kdenlive_id">qtblend</property>
    <property name="rect">00:00:00.000=0 0 1920 1080 1.000000;00:00:00.050=-96 -54 2112 1188 1.000000;00:00:00.233=-192 -108 2304 1296 0.000000</property>
    <property name="rotation">00:00:00.000=0;00:00:00.050=0;00:00:00.233=0</property>
    <property name="compositing">0</property>
    <property name="distort">0</property>
    <property name="kdenlive:collapsed">0</property>
   </filter>
  </entry>
  <blank length="00:01:40.833"/>
  <entry producer="producer797" in="01:44:12.300" out="01:44:14.533">
   <property name="kdenlive:id">683</property>
   <filter id="filter1112">
    <property name="rotate_center">1</property>
    <property name="mlt_service">qtblend</property>
    <property name="kdenlive_id">qtblend</property>
    <property name="rect">01:44:12.300=-1375 -314 4512 2538 1.000000</property>
    <property name="rotation">01:44:12.300=0</property>
    <property name="compositing">0</property>
    <property name="distort">0</property>
    <property name="kdenlive:collapsed">1</property>
   </filter>
   <filter id="filter1113">
    <property name="filter">frei0r.alphaspot</property>
    <property name="mlt_service">mask_start</property>
    <property name="kdenlive_id">mask_start-frei0r.alphaspot</property>
    <property name="filter.Shape">0</property>
    <property name="filter.Position X">01:44:12.300=0.5</property>
    <property name="filter.Position Y">01:44:12.300=0.483</property>
    <property name="filter.Size X">01:44:12.300=0.423</property>
    <property name="filter.Size Y">01:44:12.300=0.189</property>
    <property name="filter.Tilt">375138=0.5</property>
    <property name="filter.Transition width">375138=0.2</property>
    <property name="filter.Min">375138=0</property>
    <property name="filter.Max">375138=1</property>
    <property name="filter.Operation">0</property>
    <property name="kdenlive:collapsed">1</property>
   </filter>
   <filter id="filter1114">
    <property name="rotate_center">1</property>
    <property name="mlt_service">qtblend</property>
    <property name="kdenlive_id">qtblend</property>
    <property name="rect">01:44:12.300=0 0 1920 1080 1.000000;01:44:14.533=-28 -16 1977 1112 1.000000</property>
    <property name="rotation">01:44:12.300=0;01:44:14.533=0</property>
    <property name="compositing">0</property>
    <property name="distort">0</property>
    <property name="kdenlive:collapsed">0</property>
   </filter>
  </entry>
  <blank length="00:00:27.483"/>
  <entry producer="producer797" in="02:05:25.533" out="02:05:26.267">
   <property name="kdenlive:id">683</property>
   <filter id="filter1115">
    <property name="rotate_center">1</property>
    <property name="mlt_service">qtblend</property>
    <property name="kdenlive_id">qtblend</property>
    <property name="rect">02:05:25.533=-1457 -221 4416 2484 1.000000</property>
    <property name="rotation">02:05:25.533=0</property>
    <property name="compositing">0</property>
    <property name="distort">0</property>
    <property name="kdenlive:collapsed">1</property>
   </filter>
   <filter id="filter1116">
    <property name="filter">frei0r.alphaspot</property>
    <property name="mlt_service">mask_start</property>
    <property name="kdenlive_id">mask_start-frei0r.alphaspot</property>
    <property name="filter.Shape">0</property>
    <property name="filter.Position X">02:05:25.533=0.414</property>
    <property name="filter.Position Y">02:05:25.533=0.475</property>
    <property name="filter.Size X">02:05:25.533=0.388</property>
    <property name="filter.Size Y">451532=0.1</property>
    <property name="filter.Tilt">451532=0.5</property>
    <property name="filter.Transition width">02:05:25.533=0.304</property>
    <property name="filter.Min">02:05:25.533=0</property>
    <property name="filter.Max">451532=1</property>
    <property name="filter.Operation">0</property>
    <property name="kdenlive:collapsed">1</property>
   </filter>
   <filter id="filter1117">
    <property name="rotate_center">1</property>
    <property name="mlt_service">qtblend</property>
    <property name="kdenlive_id">qtblend</property>
    <property name="rect">02:05:25.533=0 0 1920 1080 1.000000;02:05:25.933=-48 -27 2016 1134 1.000000</property>
    <property name="rotation">02:05:25.533=0;02:05:25.933=0</property>
    <property name="compositing">0</property>
    <property name="distort">0</property>
    <property name="kdenlive:collapsed">0</property>
   </filter>
  </entry>
  <blank length="00:02:05.583"/>
  <entry producer="producer798" in="02:02:54.083" out="02:02:57.350">
   <property name="kdenlive:id">684</property>
   <filter id="filter1118" in="02:02:54.083" out="02:02:55.717">
    <property name="start">1</property>
    <property name="level">1</property>
    <property name="mlt_service">brightness</property>
    <property name="kdenlive_id">fade_from_black</property>
    <property name="alpha">00:00:00.000=0;00:00:01.633=1</property>
    <property name="kdenlive:collapsed">0</property>
   </filter>
   <filter id="filter1119">
    <property name="rotate_center">1</property>
    <property name="mlt_service">qtblend</property>
    <property name="kdenlive_id">qtblend</property>
    <property name="rect">02:02:54.083=0 -2281 6048 3402 1.000000</property>
    <property name="rotation">02:02:54.083=0</property>
    <property name="compositing">0</property>
    <property name="distort">0</property>
    <property name="kdenlive:collapsed">0</property>
   </filter>
   <filter id="filter1120">
    <property name="rotate_center">1</property>
    <property name="mlt_service">qtblend</property>
    <property name="kdenlive_id">qtblend</property>
    <property name="rect">02:02:54.083=0 0 1920 1080 1.000000</property>
    <property name="rotation">02:02:54.083=0</property>
    <property name="compositing">0</property>
    <property name="distort">0</property>
    <property name="kdenlive:collapsed">0</property>
   </filter>
  </entry>
 </playlist>
 <playlist id="playlist15"/>
 <tractor id="tractor7" in="00:00:00.000" out="00:19:27.983">
  <property name="kdenlive:trackheight">50</property>
  <property name="kdenlive:timeline_active">1</property>
  <property name="kdenlive:collapsed">0</property>
  <property name="kdenlive:thumbs_format"/>
  <property name="kdenlive:audio_rec"/>
  <track hide="audio" producer="playlist14"/>
  <track hide="audio" producer="playlist15"/>
 </tractor>
 <producer id="producer799" in="00:00:00.000" out="02:50:28.900">
  <property name="length">613736</property>
  <property name="eof">pause</property>
  <property name="resource">/home/federico/Videos/Edit/Kden/ProxyRender/proxy/f6918f2d79882f9391f2f765ac219be5.mov</property>
  <property name="audio_index">1</property>
  <property name="video_index">0</property>
  <property name="mute_on_pause">0</property>
  <property name="mlt_service">avformat-novalidate</property>
  <property name="meta.media.nb_streams">2</property>
  <property name="meta.media.0.stream.type">video</property>
  <property name="meta.media.0.stream.frame_rate">60</property>
  <property name="meta.media.0.stream.sample_aspect_ratio">1</property>
  <property name="meta.media.0.codec.width">640</property>
  <property name="meta.media.0.codec.height">360</property>
  <property name="meta.media.0.codec.rotate">0</property>
  <property name="meta.media.0.codec.pix_fmt">yuv420p</property>
  <property name="meta.media.0.codec.sample_aspect_ratio">1</property>
  <property name="meta.media.0.codec.colorspace">709</property>
  <property name="meta.media.0.codec.color_trc">1</property>
  <property name="meta.media.0.codec.name">h264</property>
  <property name="meta.media.0.codec.long_name">H.264 / AVC / MPEG-4 AVC / MPEG-4 part 10</property>
  <property name="meta.media.0.codec.bit_rate">5791824</property>
  <property name="meta.attr.0.stream.handler_name.markup">ISO Media file produced by Google Inc.</property>
  <property name="meta.attr.0.stream.vendor_id.markup">FFMP</property>
  <property name="meta.attr.0.stream.encoder.markup">Lavc59.18.100 libx264</property>
  <property name="meta.media.1.stream.type">audio</property>
  <property name="meta.media.1.codec.sample_fmt">fltp</property>
  <property name="meta.media.1.codec.sample_rate">48000</property>
  <property name="meta.media.1.codec.channels">2</property>
  <property name="meta.media.1.codec.name">aac</property>
  <property name="meta.media.1.codec.long_name">AAC (Advanced Audio Coding)</property>
  <property name="meta.media.1.codec.bit_rate">128878</property>
  <property name="meta.attr.1.stream.language.markup">eng</property>
  <property name="meta.attr.1.stream.handler_name.markup">SoundHandler</property>
  <property name="meta.attr.1.stream.vendor_id.markup">[0][0][0][0]</property>
  <property name="meta.attr.major_brand.markup">qt  </property>
  <property name="meta.attr.minor_version.markup">512</property>
  <property name="meta.attr.compatible_brands.markup">qt  </property>
  <property name="meta.attr.encoder.markup">Lavf59.16.100</property>
  <property name="seekable">1</property>
  <property name="meta.media.sample_aspect_num">1</property>
  <property name="meta.media.sample_aspect_den">1</property>
  <property name="aspect_ratio">1</property>
  <property name="format">3</property>
  <property name="kdenlive:clipname">2 - mod of chaos - dark souls iii cinders  anima della sfida ii 2.mkv</property>
  <property name="kdenlive:clip_type">0</property>
  <property name="kdenlive:folderid">4</property>
  <property name="kdenlive:id">680</property>
  <property name="kdenlive:file_size">3761357757</property>
  <property name="kdenlive:file_hash">f6918f2d79882f9391f2f765ac219be5</property>
  <property name="kdenlive:proxy">/home/federico/Videos/Edit/Kden/ProxyRender/proxy/f6918f2d79882f9391f2f765ac219be5.mov</property>
  <property name="kdenlive:originalurl">/home/federico/Videos/Edit/Projects/DS3_cinders/5-Stream/2 - mod of chaos - dark souls iii cinders  anima della sfida ii 2.mkv</property>
  <property name="kdenlive:original.mlt_type">producer</property>
  <property name="kdenlive:original.in">00:00:00.000</property>
  <property name="kdenlive:original.out">02:50:28.917</property>
  <property name="kdenlive:original.length">613736</property>
  <property name="kdenlive:original.eof">pause</property>
  <property name="kdenlive:original.resource">/home/federico/Videos/Edit/Projects/DS3_cinders/5-Stream/2 - mod of chaos - dark souls iii cinders  anima della sfida ii 2.mkv</property>
  <property name="kdenlive:original.meta.media.nb_streams">2</property>
  <property name="kdenlive:original.meta.media.0.stream.type">video</property>
  <property name="kdenlive:original.meta.media.0.stream.frame_rate">60</property>
  <property name="kdenlive:original.meta.media.0.stream.sample_aspect_ratio">0</property>
  <property name="kdenlive:original.meta.media.0.codec.width">1920</property>
  <property name="kdenlive:original.meta.media.0.codec.height">1080</property>
  <property name="kdenlive:original.meta.media.0.codec.rotate">0</property>
  <property name="kdenlive:original.meta.media.0.codec.pix_fmt">yuv420p</property>
  <property name="kdenlive:original.meta.media.0.codec.sample_aspect_ratio">0</property>
  <property name="kdenlive:original.meta.media.0.codec.colorspace">709</property>
  <property name="kdenlive:original.meta.media.0.codec.color_trc">1</property>
  <property name="kdenlive:original.meta.media.0.codec.name">libdav1d</property>
  <property name="kdenlive:original.meta.media.0.codec.long_name">dav1d AV1 decoder by VideoLAN</property>
  <property name="kdenlive:original.meta.media.0.codec.bit_rate">0</property>
  <property name="kdenlive:original.meta.attr.0.stream.HANDLER_NAME.markup">ISO Media file produced by Google Inc.</property>
  <property name="kdenlive:original.meta.attr.0.stream.VENDOR_ID.markup">[0][0][0][0]</property>
  <property name="kdenlive:original.meta.attr.0.stream.DURATION.markup">02:50:28.900000000</property>
  <property name="kdenlive:original.meta.media.1.stream.type">audio</property>
  <property name="kdenlive:original.meta.media.1.codec.sample_fmt">fltp</property>
  <property name="kdenlive:original.meta.media.1.codec.sample_rate">48000</property>
  <property name="kdenlive:original.meta.media.1.codec.channels">2</property>
  <property name="kdenlive:original.meta.media.1.codec.name">opus</property>
  <property name="kdenlive:original.meta.media.1.codec.long_name">Opus</property>
  <property name="kdenlive:original.meta.media.1.codec.bit_rate">0</property>
  <property name="kdenlive:original.meta.attr.1.stream.language.markup">eng</property>
  <property name="kdenlive:original.meta.attr.1.stream.DURATION.markup">02:50:28.928000000</property>
  <property name="kdenlive:original.meta.attr.COMPATIBLE_BRANDS.markup">iso6av01mp41</property>
  <property name="kdenlive:original.meta.attr.MAJOR_BRAND.markup">dash</property>
  <property name="kdenlive:original.meta.attr.MINOR_VERSION.markup">0</property>
  <property name="kdenlive:original.meta.attr.ENCODER.markup">Lavf60.16.100</property>
  <property name="kdenlive:original.seekable">1</property>
  <property name="kdenlive:original.width">1920</property>
  <property name="kdenlive:original.height">1080</property>
  <property name="kdenlive:original.meta.media.sample_aspect_num">1</property>
  <property name="kdenlive:original.meta.media.sample_aspect_den">1</property>
  <property name="kdenlive:original.aspect_ratio">1</property>
  <property name="kdenlive:original.format">3</property>
  <property name="kdenlive:original.audio_index">1</property>
  <property name="kdenlive:original.video_index">0</property>
  <property name="kdenlive:original.mute_on_pause">0</property>
  <property name="kdenlive:original.mlt_service">avformat-novalidate</property>
  <property name="kdenlive:original.meta.media.frame_rate_num">60</property>
  <property name="kdenlive:original.meta.media.frame_rate_den">1</property>
  <property name="kdenlive:original.meta.media.colorspace">709</property>
  <property name="kdenlive:original.meta.media.color_trc">1</property>
  <property name="kdenlive:original.meta.media.has_b_frames">0</property>
  <property name="kdenlive:original.meta.media.width">1920</property>
  <property name="kdenlive:original.meta.media.height">1080</property>
  <property name="kdenlive:original.meta.media.color_range">mpeg</property>
  <property name="kdenlive:original.meta.media.top_field_first">0</property>
  <property name="kdenlive:original.meta.media.progressive">1</property>
  <property name="kdenlive:original.kdenlive:clip_type">0</property>
  <property name="kdenlive:original.kdenlive:folderid">4</property>
  <property name="kdenlive:original.kdenlive:id">680</property>
  <property name="kdenlive:original.kdenlive:file_size">3761357757</property>
  <property name="kdenlive:original.kdenlive:file_hash">f6918f2d79882f9391f2f765ac219be5</property>
  <property name="kdenlive:original.backup">1</property>
  <property name="kdenlive:audio_max1">206</property>
  <property name="xml">was here</property>
  <property name="meta.media.frame_rate_num">60</property>
  <property name="meta.media.frame_rate_den">1</property>
  <property name="meta.media.colorspace">709</property>
  <property name="meta.media.color_trc">1</property>
  <property name="meta.media.has_b_frames">0</property>
  <property name="meta.media.width">640</property>
  <property name="meta.media.height">360</property>
  <property name="meta.media.color_range">mpeg</property>
  <property name="meta.media.top_field_first">0</property>
  <property name="meta.media.progressive">1</property>
  <property name="set.test_audio">1</property>
  <property name="set.test_image">0</property>
 </producer>
 <producer id="producer800" in="00:00:00.000" out="00:00:09.017">
  <property name="length">542</property>
  <property name="eof">pause</property>
  <property name="resource">/home/federico/Nextcloud/Kden/EditingUT/Video/GreenScreen/what meme green screen.mkv</property>
  <property name="audio_index">1</property>
  <property name="video_index">0</property>
  <property name="mute_on_pause">0</property>
  <property name="mlt_service">avformat-novalidate</property>
  <property name="seekable">1</property>
  <property name="aspect_ratio">1</property>
  <property name="format">3</property>
  <property name="kdenlive:clipname"/>
  <property name="kdenlive:clip_type">0</property>
  <property name="kdenlive:folderid">511</property>
  <property name="kdenlive:id">566</property>
  <property name="kdenlive:file_size">166089</property>
  <property name="kdenlive:file_hash">e5eb6121a886b7801777849bd734eb06</property>
  <property name="kdenlive:audio_max1">234</property>
  <property name="xml">was here</property>
  <property name="meta.media.nb_streams">2</property>
  <property name="meta.media.0.stream.type">video</property>
  <property name="meta.media.0.stream.frame_rate">30</property>
  <property name="meta.media.0.stream.sample_aspect_ratio">1</property>
  <property name="meta.media.0.codec.width">1920</property>
  <property name="meta.media.0.codec.height">1080</property>
  <property name="meta.media.0.codec.rotate">0</property>
  <property name="meta.media.0.codec.pix_fmt">yuv420p</property>
  <property name="meta.media.0.codec.sample_aspect_ratio">1</property>
  <property name="meta.media.0.codec.colorspace">709</property>
  <property name="meta.media.0.codec.color_trc">1</property>
  <property name="meta.media.0.codec.name">h264</property>
  <property name="meta.media.0.codec.long_name">H.264 / AVC / MPEG-4 AVC / MPEG-4 part 10</property>
  <property name="meta.media.0.codec.bit_rate">0</property>
  <property name="meta.attr.0.stream.HANDLER_NAME.markup">ISO Media file produced by Google Inc.</property>
  <property name="meta.attr.0.stream.VENDOR_ID.markup">[0][0][0][0]</property>
  <property name="meta.attr.0.stream.ENCODER.markup">Lavc60.31.102 libx264</property>
  <property name="meta.attr.0.stream.DURATION.markup">00:00:08.969000000</property>
  <property name="meta.media.1.stream.type">audio</property>
  <property name="meta.media.1.codec.sample_fmt">fltp</property>
  <property name="meta.media.1.codec.sample_rate">44100</property>
  <property name="meta.media.1.codec.channels">2</property>
  <property name="meta.media.1.codec.name">vorbis</property>
  <property name="meta.media.1.codec.long_name">Vorbis</property>
  <property name="meta.media.1.codec.bit_rate">0</property>
  <property name="meta.attr.1.stream.language.markup">eng</property>
  <property name="meta.attr.1.stream.HANDLER_NAME.markup">ISO Media file produced by Google Inc.</property>
  <property name="meta.attr.1.stream.VENDOR_ID.markup">[0][0][0][0]</property>
  <property name="meta.attr.1.stream.ENCODER.markup">Lavc60.31.102 libvorbis</property>
  <property name="meta.attr.1.stream.DURATION.markup">00:00:09.036000000</property>
  <property name="meta.attr.COMPATIBLE_BRANDS.markup">isomiso2avc1mp41</property>
  <property name="meta.attr.MAJOR_BRAND.markup">isom</property>
  <property name="meta.attr.MINOR_VERSION.markup">512</property>
  <property name="meta.attr.ENCODER.markup">Lavf60.16.100</property>
  <property name="meta.media.sample_aspect_num">1</property>
  <property name="meta.media.sample_aspect_den">1</property>
  <property name="meta.media.frame_rate_num">30</property>
  <property name="meta.media.frame_rate_den">1</property>
  <property name="meta.media.colorspace">709</property>
  <property name="meta.media.color_trc">1</property>
  <property name="meta.media.has_b_frames">2</property>
  <property name="meta.media.width">1920</property>
  <property name="meta.media.height">1080</property>
  <property name="meta.media.color_range">mpeg</property>
  <property name="meta.media.top_field_first">0</property>
  <property name="meta.media.progressive">1</property>
  <property name="set.test_audio">1</property>
  <property name="set.test_image">0</property>
 </producer>
 <playlist id="playlist16">
  <blank length="00:03:19.317"/>
  <entry producer="producer625" in="00:00:00.000" out="00:00:07.583">
   <property name="kdenlive:id">693</property>
   <filter id="filter1121" out="00:00:00.333">
    <property name="start">1</property>
    <property name="level">1</property>
    <property name="mlt_service">brightness</property>
    <property name="kdenlive_id">fade_from_black</property>
    <property name="alpha">00:00:00.000=0;00:00:00.333=1</property>
    <property name="kdenlive:collapsed">0</property>
   </filter>
   <filter id="filter1122">
    <property name="rotate_center">1</property>
    <property name="mlt_service">qtblend</property>
    <property name="kdenlive_id">qtblend</property>
    <property name="rect">00:00:00.000=0 0 1920 1080 1.000000;00:00:02.783=0 0 1920 1080 1.000000;00:00:02.883=0 50 1344 756 1.000000</property>
    <property name="rotation">00:00:00.000=0;00:00:02.783=0;00:00:02.883=0</property>
    <property name="compositing">0</property>
    <property name="distort">0</property>
    <property name="kdenlive:collapsed">0</property>
   </filter>
  </entry>
  <blank length="00:04:09.000"/>
  <entry producer="producer799" in="01:37:56.000" out="01:37:57.500">
   <property name="kdenlive:id">680</property>
   <filter id="filter1123">
    <property name="rotate_center">1</property>
    <property name="mlt_service">qtblend</property>
    <property name="kdenlive_id">qtblend</property>
    <property name="rect">01:37:56.000=-1 280 2016 1134 1.000000</property>
    <property name="rotation">01:37:56.000=0</property>
    <property name="compositing">0</property>
    <property name="distort">0</property>
    <property name="kdenlive:collapsed">1</property>
   </filter>
   <filter id="filter1124">
    <property name="rotate_center">1</property>
    <property name="mlt_service">qtblend</property>
    <property name="kdenlive_id">qtblend</property>
    <property name="rect">01:37:56.000=-4992 -2808 6912 3888 1.000000</property>
    <property name="rotation">01:37:56.000=0</property>
    <property name="compositing">0</property>
    <property name="distort">0</property>
    <property name="kdenlive:collapsed">1</property>
   </filter>
   <filter id="filter1125">
    <property name="filter">frei0r.alphaspot</property>
    <property name="mlt_service">mask_start</property>
    <property name="kdenlive_id">mask_start-frei0r.alphaspot</property>
    <property name="filter.Shape">0</property>
    <property name="filter.Position X">01:37:56.000=0.5</property>
    <property name="filter.Position Y">01:37:56.000=0.492</property>
    <property name="filter.Size X">01:37:56.000=0.556</property>
    <property name="filter.Size Y">01:37:56.000=0.232</property>
    <property name="filter.Tilt">352560=0.5</property>
    <property name="filter.Transition width">352560=0.2</property>
    <property name="filter.Min">352560=0</property>
    <property name="filter.Max">352560=1</property>
    <property name="filter.Operation">0</property>
    <property name="kdenlive:collapsed">0</property>
   </filter>
  </entry>
  <blank length="00:05:03.450"/>
  <entry producer="producer800" in="00:00:00.000" out="00:00:02.067">
   <property name="kdenlive:id">566</property>
   <filter id="filter1126">
    <property name="version">0.6</property>
    <property name="mlt_service">frei0r.select0r</property>
    <property name="kdenlive_id">frei0r.select0r</property>
    <property name="Color to select">0x00ff00ff</property>
    <property name="Invert selection">1</property>
    <property name="Selection subspace">0</property>
    <property name="Subspace shape">0.5</property>
    <property name="Edge mode">0.9</property>
    <property name="Delta R / A / Hue">00:00:00.000=0.701</property>
    <property name="Delta G / B / Chroma">00:00:00.000=0.659</property>
    <property name="Delta B / I / I">00:00:00.000=0.674</property>
    <property name="Slope">00:00:00.000=0.157</property>
    <property name="Operation">0.5</property>
    <property name="kdenlive:collapsed">0</property>
   </filter>
  </entry>
 </playlist>
 <playlist id="playlist17"/>
 <tractor id="tractor8" in="00:00:00.000" out="00:12:42.950">
  <property name="kdenlive:trackheight">50</property>
  <property name="kdenlive:timeline_active">1</property>
  <property name="kdenlive:collapsed">0</property>
  <property name="kdenlive:thumbs_format"/>
  <property name="kdenlive:audio_rec"/>
  <track hide="audio" producer="playlist16"/>
  <track hide="audio" producer="playlist17"/>
 </tractor>
 <producer id="producer801" in="00:00:00.000" out="02:50:28.900">
  <property name="length">613736</property>
  <property name="eof">pause</property>
  <property name="resource">/home/federico/Videos/Edit/Kden/ProxyRender/proxy/f6918f2d79882f9391f2f765ac219be5.mov</property>
  <property name="audio_index">1</property>
  <property name="video_index">0</property>
  <property name="mute_on_pause">0</property>
  <property name="mlt_service">avformat-novalidate</property>
  <property name="seekable">1</property>
  <property name="aspect_ratio">1</property>
  <property name="format">3</property>
  <property name="kdenlive:clipname">2 - mod of chaos - dark souls iii cinders  anima della sfida ii 2.mkv</property>
  <property name="kdenlive:clip_type">0</property>
  <property name="kdenlive:folderid">4</property>
  <property name="kdenlive:id">680</property>
  <property name="kdenlive:file_size">3761357757</property>
  <property name="kdenlive:file_hash">f6918f2d79882f9391f2f765ac219be5</property>
  <property name="kdenlive:proxy">/home/federico/Videos/Edit/Kden/ProxyRender/proxy/f6918f2d79882f9391f2f765ac219be5.mov</property>
  <property name="kdenlive:originalurl">/home/federico/Videos/Edit/Projects/DS3_cinders/5-Stream/2 - mod of chaos - dark souls iii cinders  anima della sfida ii 2.mkv</property>
  <property name="kdenlive:original.mlt_type">producer</property>
  <property name="kdenlive:original.in">00:00:00.000</property>
  <property name="kdenlive:original.out">02:50:28.917</property>
  <property name="kdenlive:original.length">613736</property>
  <property name="kdenlive:original.eof">pause</property>
  <property name="kdenlive:original.resource">/home/federico/Videos/Edit/Projects/DS3_cinders/5-Stream/2 - mod of chaos - dark souls iii cinders  anima della sfida ii 2.mkv</property>
  <property name="kdenlive:original.meta.media.nb_streams">2</property>
  <property name="kdenlive:original.meta.media.0.stream.type">video</property>
  <property name="kdenlive:original.meta.media.0.stream.frame_rate">60</property>
  <property name="kdenlive:original.meta.media.0.stream.sample_aspect_ratio">0</property>
  <property name="kdenlive:original.meta.media.0.codec.width">1920</property>
  <property name="kdenlive:original.meta.media.0.codec.height">1080</property>
  <property name="kdenlive:original.meta.media.0.codec.rotate">0</property>
  <property name="kdenlive:original.meta.media.0.codec.pix_fmt">yuv420p</property>
  <property name="kdenlive:original.meta.media.0.codec.sample_aspect_ratio">0</property>
  <property name="kdenlive:original.meta.media.0.codec.colorspace">709</property>
  <property name="kdenlive:original.meta.media.0.codec.color_trc">1</property>
  <property name="kdenlive:original.meta.media.0.codec.name">libdav1d</property>
  <property name="kdenlive:original.meta.media.0.codec.long_name">dav1d AV1 decoder by VideoLAN</property>
  <property name="kdenlive:original.meta.media.0.codec.bit_rate">0</property>
  <property name="kdenlive:original.meta.attr.0.stream.HANDLER_NAME.markup">ISO Media file produced by Google Inc.</property>
  <property name="kdenlive:original.meta.attr.0.stream.VENDOR_ID.markup">[0][0][0][0]</property>
  <property name="kdenlive:original.meta.attr.0.stream.DURATION.markup">02:50:28.900000000</property>
  <property name="kdenlive:original.meta.media.1.stream.type">audio</property>
  <property name="kdenlive:original.meta.media.1.codec.sample_fmt">fltp</property>
  <property name="kdenlive:original.meta.media.1.codec.sample_rate">48000</property>
  <property name="kdenlive:original.meta.media.1.codec.channels">2</property>
  <property name="kdenlive:original.meta.media.1.codec.name">opus</property>
  <property name="kdenlive:original.meta.media.1.codec.long_name">Opus</property>
  <property name="kdenlive:original.meta.media.1.codec.bit_rate">0</property>
  <property name="kdenlive:original.meta.attr.1.stream.language.markup">eng</property>
  <property name="kdenlive:original.meta.attr.1.stream.DURATION.markup">02:50:28.928000000</property>
  <property name="kdenlive:original.meta.attr.COMPATIBLE_BRANDS.markup">iso6av01mp41</property>
  <property name="kdenlive:original.meta.attr.MAJOR_BRAND.markup">dash</property>
  <property name="kdenlive:original.meta.attr.MINOR_VERSION.markup">0</property>
  <property name="kdenlive:original.meta.attr.ENCODER.markup">Lavf60.16.100</property>
  <property name="kdenlive:original.seekable">1</property>
  <property name="kdenlive:original.width">1920</property>
  <property name="kdenlive:original.height">1080</property>
  <property name="kdenlive:original.meta.media.sample_aspect_num">1</property>
  <property name="kdenlive:original.meta.media.sample_aspect_den">1</property>
  <property name="kdenlive:original.aspect_ratio">1</property>
  <property name="kdenlive:original.format">3</property>
  <property name="kdenlive:original.audio_index">1</property>
  <property name="kdenlive:original.video_index">0</property>
  <property name="kdenlive:original.mute_on_pause">0</property>
  <property name="kdenlive:original.mlt_service">avformat-novalidate</property>
  <property name="kdenlive:original.meta.media.frame_rate_num">60</property>
  <property name="kdenlive:original.meta.media.frame_rate_den">1</property>
  <property name="kdenlive:original.meta.media.colorspace">709</property>
  <property name="kdenlive:original.meta.media.color_trc">1</property>
  <property name="kdenlive:original.meta.media.has_b_frames">0</property>
  <property name="kdenlive:original.meta.media.width">1920</property>
  <property name="kdenlive:original.meta.media.height">1080</property>
  <property name="kdenlive:original.meta.media.color_range">mpeg</property>
  <property name="kdenlive:original.meta.media.top_field_first">0</property>
  <property name="kdenlive:original.meta.media.progressive">1</property>
  <property name="kdenlive:original.kdenlive:clip_type">0</property>
  <property name="kdenlive:original.kdenlive:folderid">4</property>
  <property name="kdenlive:original.kdenlive:id">680</property>
  <property name="kdenlive:original.kdenlive:file_size">3761357757</property>
  <property name="kdenlive:original.kdenlive:file_hash">f6918f2d79882f9391f2f765ac219be5</property>
  <property name="kdenlive:original.backup">1</property>
  <property name="kdenlive:audio_max1">206</property>
  <property name="xml">was here</property>
  <property name="meta.media.nb_streams">2</property>
  <property name="meta.media.0.stream.type">video</property>
  <property name="meta.media.0.stream.frame_rate">60</property>
  <property name="meta.media.0.stream.sample_aspect_ratio">1</property>
  <property name="meta.media.0.codec.width">640</property>
  <property name="meta.media.0.codec.height">360</property>
  <property name="meta.media.0.codec.rotate">0</property>
  <property name="meta.media.0.codec.pix_fmt">yuv420p</property>
  <property name="meta.media.0.codec.sample_aspect_ratio">1</property>
  <property name="meta.media.0.codec.colorspace">709</property>
  <property name="meta.media.0.codec.color_trc">1</property>
  <property name="meta.media.0.codec.name">h264</property>
  <property name="meta.media.0.codec.long_name">H.264 / AVC / MPEG-4 AVC / MPEG-4 part 10</property>
  <property name="meta.media.0.codec.bit_rate">5791824</property>
  <property name="meta.attr.0.stream.handler_name.markup">ISO Media file produced by Google Inc.</property>
  <property name="meta.attr.0.stream.vendor_id.markup">FFMP</property>
  <property name="meta.attr.0.stream.encoder.markup">Lavc59.18.100 libx264</property>
  <property name="meta.media.1.stream.type">audio</property>
  <property name="meta.media.1.codec.sample_fmt">fltp</property>
  <property name="meta.media.1.codec.sample_rate">48000</property>
  <property name="meta.media.1.codec.channels">2</property>
  <property name="meta.media.1.codec.name">aac</property>
  <property name="meta.media.1.codec.long_name">AAC (Advanced Audio Coding)</property>
  <property name="meta.media.1.codec.bit_rate">128878</property>
  <property name="meta.attr.1.stream.language.markup">eng</property>
  <property name="meta.attr.1.stream.handler_name.markup">SoundHandler</property>
  <property name="meta.attr.1.stream.vendor_id.markup">[0][0][0][0]</property>
  <property name="meta.attr.major_brand.markup">qt  </property>
  <property name="meta.attr.minor_version.markup">512</property>
  <property name="meta.attr.compatible_brands.markup">qt  </property>
  <property name="meta.attr.encoder.markup">Lavf59.16.100</property>
  <property name="meta.media.sample_aspect_num">1</property>
  <property name="meta.media.sample_aspect_den">1</property>
  <property name="meta.media.frame_rate_num">60</property>
  <property name="meta.media.frame_rate_den">1</property>
  <property name="meta.media.colorspace">709</property>
  <property name="meta.media.color_trc">1</property>
  <property name="meta.media.has_b_frames">0</property>
  <property name="meta.media.width">640</property>
  <property name="meta.media.height">360</property>
  <property name="meta.media.color_range">mpeg</property>
  <property name="meta.media.top_field_first">0</property>
  <property name="meta.media.progressive">1</property>
  <property name="set.test_audio">1</property>
  <property name="set.test_image">1</property>
 </producer>
 <producer id="producer802" in="00:00:00.000" out="02:52:36.450">
  <property name="length">621389</property>
  <property name="eof">pause</property>
  <property name="resource">/home/federico/Videos/Edit/Kden/ProxyRender/proxy/e00b59329972f7cbbe05cbe5eabe0684.mov</property>
  <property name="audio_index">1</property>
  <property name="video_index">0</property>
  <property name="mute_on_pause">0</property>
  <property name="mlt_service">avformat-novalidate</property>
  <property name="seekable">1</property>
  <property name="aspect_ratio">1</property>
  <property name="format">3</property>
  <property name="kdenlive:clipname">7 - builded - dark souls iii cinders  anima della sfida ii 7.mkv</property>
  <property name="kdenlive:clip_type">0</property>
  <property name="kdenlive:folderid">4</property>
  <property name="kdenlive:id">685</property>
  <property name="kdenlive:file_size">4980831000</property>
  <property name="kdenlive:file_hash">e00b59329972f7cbbe05cbe5eabe0684</property>
  <property name="kdenlive:proxy">/home/federico/Videos/Edit/Kden/ProxyRender/proxy/e00b59329972f7cbbe05cbe5eabe0684.mov</property>
  <property name="kdenlive:originalurl">/home/federico/Videos/Edit/Projects/DS3_cinders/5-Stream/7 - builded - dark souls iii cinders  anima della sfida ii 7.mkv</property>
  <property name="kdenlive:original.mlt_type">producer</property>
  <property name="kdenlive:original.in">00:00:00.000</property>
  <property name="kdenlive:original.out">02:52:36.467</property>
  <property name="kdenlive:original.length">621389</property>
  <property name="kdenlive:original.eof">pause</property>
  <property name="kdenlive:original.resource">/home/federico/Videos/Edit/Projects/DS3_cinders/5-Stream/7 - builded - dark souls iii cinders  anima della sfida ii 7.mkv</property>
  <property name="kdenlive:original.meta.media.nb_streams">2</property>
  <property name="kdenlive:original.meta.media.0.stream.type">video</property>
  <property name="kdenlive:original.meta.media.0.stream.frame_rate">60</property>
  <property name="kdenlive:original.meta.media.0.stream.sample_aspect_ratio">1</property>
  <property name="kdenlive:original.meta.media.0.codec.width">1920</property>
  <property name="kdenlive:original.meta.media.0.codec.height">1080</property>
  <property name="kdenlive:original.meta.media.0.codec.rotate">0</property>
  <property name="kdenlive:original.meta.media.0.codec.pix_fmt">yuv420p</property>
  <property name="kdenlive:original.meta.media.0.codec.sample_aspect_ratio">0</property>
  <property name="kdenlive:original.meta.media.0.codec.colorspace">709</property>
  <property name="kdenlive:original.meta.media.0.codec.color_trc">1</property>
  <property name="kdenlive:original.meta.media.0.codec.name">vp9</property>
  <property name="kdenlive:original.meta.media.0.codec.long_name">Google VP9</property>
  <property name="kdenlive:original.meta.media.0.codec.bit_rate">0</property>
  <property name="kdenlive:original.meta.attr.0.stream.language.markup">eng</property>
  <property name="kdenlive:original.meta.attr.0.stream.DURATION.markup">02:52:36.449000000</property>
  <property name="kdenlive:original.meta.media.1.stream.type">audio</property>
  <property name="kdenlive:original.meta.media.1.codec.sample_fmt">fltp</property>
  <property name="kdenlive:original.meta.media.1.codec.sample_rate">48000</property>
  <property name="kdenlive:original.meta.media.1.codec.channels">2</property>
  <property name="kdenlive:original.meta.media.1.codec.name">opus</property>
  <property name="kdenlive:original.meta.media.1.codec.long_name">Opus</property>
  <property name="kdenlive:original.meta.media.1.codec.bit_rate">0</property>
  <property name="kdenlive:original.meta.attr.1.stream.language.markup">eng</property>
  <property name="kdenlive:original.meta.attr.1.stream.DURATION.markup">02:52:36.488000000</property>
  <property name="kdenlive:original.meta.attr.ENCODER.markup">Lavf60.16.100</property>
  <property name="kdenlive:original.seekable">1</property>
  <property name="kdenlive:original.width">1920</property>
  <property name="kdenlive:original.height">1080</property>
  <property name="kdenlive:original.meta.media.sample_aspect_num">1</property>
  <property name="kdenlive:original.meta.media.sample_aspect_den">1</property>
  <property name="kdenlive:original.aspect_ratio">1</property>
  <property name="kdenlive:original.format">3</property>
  <property name="kdenlive:original.audio_index">1</property>
  <property name="kdenlive:original.video_index">0</property>
  <property name="kdenlive:original.mute_on_pause">0</property>
  <property name="kdenlive:original.mlt_service">avformat-novalidate</property>
  <property name="kdenlive:original.meta.media.frame_rate_num">60</property>
  <property name="kdenlive:original.meta.media.frame_rate_den">1</property>
  <property name="kdenlive:original.meta.media.colorspace">709</property>
  <property name="kdenlive:original.meta.media.color_trc">1</property>
  <property name="kdenlive:original.meta.media.has_b_frames">0</property>
  <property name="kdenlive:original.meta.media.width">1920</property>
  <property name="kdenlive:original.meta.media.height">1080</property>
  <property name="kdenlive:original.meta.media.color_range">mpeg</property>
  <property name="kdenlive:original.meta.media.top_field_first">0</property>
  <property name="kdenlive:original.meta.media.progressive">1</property>
  <property name="kdenlive:original.kdenlive:clip_type">0</property>
  <property name="kdenlive:original.kdenlive:folderid">4</property>
  <property name="kdenlive:original.kdenlive:id">685</property>
  <property name="kdenlive:original.kdenlive:file_size">4980831000</property>
  <property name="kdenlive:original.kdenlive:file_hash">e00b59329972f7cbbe05cbe5eabe0684</property>
  <property name="kdenlive:original.backup">1</property>
  <property name="kdenlive:audio_max1">204</property>
  <property name="xml">was here</property>
  <property name="meta.media.nb_streams">2</property>
  <property name="meta.media.0.stream.type">video</property>
  <property name="meta.media.0.stream.frame_rate">60</property>
  <property name="meta.media.0.stream.sample_aspect_ratio">1</property>
  <property name="meta.media.0.codec.width">640</property>
  <property name="meta.media.0.codec.height">360</property>
  <property name="meta.media.0.codec.rotate">0</property>
  <property name="meta.media.0.codec.pix_fmt">yuv420p</property>
  <property name="meta.media.0.codec.sample_aspect_ratio">1</property>
  <property name="meta.media.0.codec.colorspace">709</property>
  <property name="meta.media.0.codec.color_trc">1</property>
  <property name="meta.media.0.codec.name">h264</property>
  <property name="meta.media.0.codec.long_name">H.264 / AVC / MPEG-4 AVC / MPEG-4 part 10</property>
  <property name="meta.media.0.codec.bit_rate">5487106</property>
  <property name="meta.attr.0.stream.language.markup">eng</property>
  <property name="meta.attr.0.stream.handler_name.markup">VideoHandler</property>
  <property name="meta.attr.0.stream.vendor_id.markup">FFMP</property>
  <property name="meta.attr.0.stream.encoder.markup">Lavc59.18.100 libx264</property>
  <property name="meta.media.1.stream.type">audio</property>
  <property name="meta.media.1.codec.sample_fmt">fltp</property>
  <property name="meta.media.1.codec.sample_rate">48000</property>
  <property name="meta.media.1.codec.channels">2</property>
  <property name="meta.media.1.codec.name">aac</property>
  <property name="meta.media.1.codec.long_name">AAC (Advanced Audio Coding)</property>
  <property name="meta.media.1.codec.bit_rate">125682</property>
  <property name="meta.attr.1.stream.language.markup">eng</property>
  <property name="meta.attr.1.stream.handler_name.markup">SoundHandler</property>
  <property name="meta.attr.1.stream.vendor_id.markup">[0][0][0][0]</property>
  <property name="meta.attr.major_brand.markup">qt  </property>
  <property name="meta.attr.minor_version.markup">512</property>
  <property name="meta.attr.compatible_brands.markup">qt  </property>
  <property name="meta.attr.encoder.markup">Lavf59.16.100</property>
  <property name="meta.media.sample_aspect_num">1</property>
  <property name="meta.media.sample_aspect_den">1</property>
  <property name="meta.media.frame_rate_num">60</property>
  <property name="meta.media.frame_rate_den">1</property>
  <property name="meta.media.colorspace">709</property>
  <property name="meta.media.color_trc">1</property>
  <property name="meta.media.has_b_frames">0</property>
  <property name="meta.media.width">640</property>
  <property name="meta.media.height">360</property>
  <property name="meta.media.color_range">mpeg</property>
  <property name="meta.media.top_field_first">0</property>
  <property name="meta.media.progressive">1</property>
  <property name="set.test_audio">1</property>
  <property name="set.test_image">1</property>
 </producer>
 <producer id="producer803" in="00:00:00.000" out="01:50:41.183">
  <property name="length">398472</property>
  <property name="eof">pause</property>
  <property name="resource">/home/federico/Videos/Edit/Kden/ProxyRender/proxy/31ec4e3b8500d553e125625112366d7f.mov</property>
  <property name="audio_index">1</property>
  <property name="video_index">0</property>
  <property name="mute_on_pause">0</property>
  <property name="mlt_service">avformat-novalidate</property>
  <property name="seekable">1</property>
  <property name="aspect_ratio">1</property>
  <property name="format">3</property>
  <property name="kdenlive:clipname">8 - playground - dark souls iii cinders  anima della sfida ii 8.mkv</property>
  <property name="kdenlive:clip_type">0</property>
  <property name="kdenlive:folderid">4</property>
  <property name="kdenlive:id">686</property>
  <property name="kdenlive:file_size">3569794435</property>
  <property name="kdenlive:file_hash">31ec4e3b8500d553e125625112366d7f</property>
  <property name="kdenlive:proxy">/home/federico/Videos/Edit/Kden/ProxyRender/proxy/31ec4e3b8500d553e125625112366d7f.mov</property>
  <property name="kdenlive:originalurl">/home/federico/Videos/Edit/Projects/DS3_cinders/5-Stream/8 - playground - dark souls iii cinders  anima della sfida ii 8.mkv</property>
  <property name="kdenlive:original.mlt_type">producer</property>
  <property name="kdenlive:original.in">00:00:00.000</property>
  <property name="kdenlive:original.out">01:50:41.183</property>
  <property name="kdenlive:original.length">398472</property>
  <property name="kdenlive:original.eof">pause</property>
  <property name="kdenlive:original.resource">/home/federico/Videos/Edit/Projects/DS3_cinders/5-Stream/8 - playground - dark souls iii cinders  anima della sfida ii 8.mkv</property>
  <property name="kdenlive:original.meta.media.nb_streams">2</property>
  <property name="kdenlive:original.meta.media.0.stream.type">video</property>
  <property name="kdenlive:original.meta.media.0.stream.frame_rate">60</property>
  <property name="kdenlive:original.meta.media.0.stream.sample_aspect_ratio">1</property>
  <property name="kdenlive:original.meta.media.0.codec.width">1920</property>
  <property name="kdenlive:original.meta.media.0.codec.height">1080</property>
  <property name="kdenlive:original.meta.media.0.codec.rotate">0</property>
  <property name="kdenlive:original.meta.media.0.codec.pix_fmt">yuv420p</property>
  <property name="kdenlive:original.meta.media.0.codec.sample_aspect_ratio">0</property>
  <property name="kdenlive:original.meta.media.0.codec.colorspace">709</property>
  <property name="kdenlive:original.meta.media.0.codec.color_trc">1</property>
  <property name="kdenlive:original.meta.media.0.codec.name">vp9</property>
  <property name="kdenlive:original.meta.media.0.codec.long_name">Google VP9</property>
  <property name="kdenlive:original.meta.media.0.codec.bit_rate">0</property>
  <property name="kdenlive:original.meta.attr.0.stream.language.markup">eng</property>
  <property name="kdenlive:original.meta.attr.0.stream.DURATION.markup">01:50:41.183000000</property>
  <property name="kdenlive:original.meta.media.1.stream.type">audio</property>
  <property name="kdenlive:original.meta.media.1.codec.sample_fmt">fltp</property>
  <property name="kdenlive:original.meta.media.1.codec.sample_rate">48000</property>
  <property name="kdenlive:original.meta.media.1.codec.channels">2</property>
  <property name="kdenlive:original.meta.media.1.codec.name">opus</property>
  <property name="kdenlive:original.meta.media.1.codec.long_name">Opus</property>
  <property name="kdenlive:original.meta.media.1.codec.bit_rate">0</property>
  <property name="kdenlive:original.meta.attr.1.stream.language.markup">eng</property>
  <property name="kdenlive:original.meta.attr.1.stream.DURATION.markup">01:50:41.208000000</property>
  <property name="kdenlive:original.meta.attr.ENCODER.markup">Lavf60.16.100</property>
  <property name="kdenlive:original.seekable">1</property>
  <property name="kdenlive:original.width">1920</property>
  <property name="kdenlive:original.height">1080</property>
  <property name="kdenlive:original.meta.media.sample_aspect_num">1</property>
  <property name="kdenlive:original.meta.media.sample_aspect_den">1</property>
  <property name="kdenlive:original.aspect_ratio">1</property>
  <property name="kdenlive:original.format">3</property>
  <property name="kdenlive:original.audio_index">1</property>
  <property name="kdenlive:original.video_index">0</property>
  <property name="kdenlive:original.mute_on_pause">0</property>
  <property name="kdenlive:original.mlt_service">avformat-novalidate</property>
  <property name="kdenlive:original.meta.media.frame_rate_num">60</property>
  <property name="kdenlive:original.meta.media.frame_rate_den">1</property>
  <property name="kdenlive:original.meta.media.colorspace">709</property>
  <property name="kdenlive:original.meta.media.color_trc">1</property>
  <property name="kdenlive:original.meta.media.has_b_frames">0</property>
  <property name="kdenlive:original.meta.media.width">1920</property>
  <property name="kdenlive:original.meta.media.height">1080</property>
  <property name="kdenlive:original.meta.media.color_range">mpeg</property>
  <property name="kdenlive:original.meta.media.top_field_first">0</property>
  <property name="kdenlive:original.meta.media.progressive">1</property>
  <property name="kdenlive:original.kdenlive:clip_type">0</property>
  <property name="kdenlive:original.kdenlive:folderid">4</property>
  <property name="kdenlive:original.kdenlive:id">686</property>
  <property name="kdenlive:original.kdenlive:file_size">3569794435</property>
  <property name="kdenlive:original.kdenlive:file_hash">31ec4e3b8500d553e125625112366d7f</property>
  <property name="kdenlive:original.backup">1</property>
  <property name="kdenlive:audio_max1">237</property>
  <property name="xml">was here</property>
  <property name="meta.media.nb_streams">2</property>
  <property name="meta.media.0.stream.type">video</property>
  <property name="meta.media.0.stream.frame_rate">60</property>
  <property name="meta.media.0.stream.sample_aspect_ratio">1</property>
  <property name="meta.media.0.codec.width">640</property>
  <property name="meta.media.0.codec.height">360</property>
  <property name="meta.media.0.codec.rotate">0</property>
  <property name="meta.media.0.codec.pix_fmt">yuv420p</property>
  <property name="meta.media.0.codec.sample_aspect_ratio">1</property>
  <property name="meta.media.0.codec.colorspace">709</property>
  <property name="meta.media.0.codec.color_trc">1</property>
  <property name="meta.media.0.codec.name">h264</property>
  <property name="meta.media.0.codec.long_name">H.264 / AVC / MPEG-4 AVC / MPEG-4 part 10</property>
  <property name="meta.media.0.codec.bit_rate">5578912</property>
  <property name="meta.attr.0.stream.language.markup">eng</property>
  <property name="meta.attr.0.stream.handler_name.markup">VideoHandler</property>
  <property name="meta.attr.0.stream.vendor_id.markup">FFMP</property>
  <property name="meta.attr.0.stream.encoder.markup">Lavc59.18.100 libx264</property>
  <property name="meta.media.1.stream.type">audio</property>
  <property name="meta.media.1.codec.sample_fmt">fltp</property>
  <property name="meta.media.1.codec.sample_rate">48000</property>
  <property name="meta.media.1.codec.channels">2</property>
  <property name="meta.media.1.codec.name">aac</property>
  <property name="meta.media.1.codec.long_name">AAC (Advanced Audio Coding)</property>
  <property name="meta.media.1.codec.bit_rate">127625</property>
  <property name="meta.attr.1.stream.language.markup">eng</property>
  <property name="meta.attr.1.stream.handler_name.markup">SoundHandler</property>
  <property name="meta.attr.1.stream.vendor_id.markup">[0][0][0][0]</property>
  <property name="meta.attr.major_brand.markup">qt  </property>
  <property name="meta.attr.minor_version.markup">512</property>
  <property name="meta.attr.compatible_brands.markup">qt  </property>
  <property name="meta.attr.encoder.markup">Lavf59.16.100</property>
  <property name="meta.media.sample_aspect_num">1</property>
  <property name="meta.media.sample_aspect_den">1</property>
  <property name="meta.media.frame_rate_num">60</property>
  <property name="meta.media.frame_rate_den">1</property>
  <property name="meta.media.colorspace">709</property>
  <property name="meta.media.color_trc">1</property>
  <property name="meta.media.has_b_frames">0</property>
  <property name="meta.media.width">640</property>
  <property name="meta.media.height">360</property>
  <property name="meta.media.color_range">mpeg</property>
  <property name="meta.media.top_field_first">0</property>
  <property name="meta.media.progressive">1</property>
  <property name="set.test_audio">1</property>
  <property name="set.test_image">1</property>
 </producer>
 <playlist id="playlist18">
  <entry producer="producer753" in="00:02:23.883" out="00:02:27.250">
   <property name="kdenlive:id">679</property>
   <filter id="filter1127">
    <property name="rotate_center">1</property>
    <property name="mlt_service">qtblend</property>
    <property name="kdenlive_id">qtblend</property>
    <property name="rect">00:02:23.883=-4992 -2808 6912 3888 1.000000;00:02:24.617=-4608 -2592 6528 3672 1.000000</property>
    <property name="rotation">00:02:23.883=0;00:02:24.617=0</property>
    <property name="compositing">0</property>
    <property name="distort">0</property>
    <property name="kdenlive:collapsed">0</property>
   </filter>
   <filter id="filter1128">
    <property name="rotate_center">1</property>
    <property name="mlt_service">qtblend</property>
    <property name="kdenlive_id">qtblend</property>
    <property name="rect">00:02:23.883=0 0 1920 1080 1</property>
    <property name="rotation">00:02:23.883=0</property>
    <property name="compositing">0</property>
    <property name="distort">0</property>
    <property name="kdenlive:collapsed">0</property>
   </filter>
  </entry>
  <entry producer="producer801" in="00:48:07.500" out="00:48:08.500">
   <property name="kdenlive:id">680</property>
   <filter id="filter1129">
    <property name="rotate_center">1</property>
    <property name="mlt_service">qtblend</property>
    <property name="kdenlive_id">qtblend</property>
    <property name="rect">00:48:07.500=-4992 -2808 6912 3888 1.000000;00:48:08.033=-4992 -2808 6912 3888 1.000000</property>
    <property name="rotation">00:48:07.500=0;00:48:08.033=0</property>
    <property name="compositing">0</property>
    <property name="distort">0</property>
    <property name="kdenlive:collapsed">0</property>
   </filter>
   <filter id="filter1130">
    <property name="rotate_center">1</property>
    <property name="mlt_service">qtblend</property>
    <property name="kdenlive_id">qtblend</property>
    <property name="rect">00:48:07.500=0 0 1920 1080 1</property>
    <property name="rotation">00:48:07.500=0</property>
    <property name="compositing">0</property>
    <property name="distort">0</property>
    <property name="kdenlive:collapsed">0</property>
   </filter>
  </entry>
  <entry producer="producer801" in="00:58:01.150" out="00:58:02.100">
   <property name="kdenlive:id">680</property>
   <filter id="filter1131">
    <property name="rotate_center">1</property>
    <property name="mlt_service">qtblend</property>
    <property name="kdenlive_id">qtblend</property>
    <property name="rect">00:58:01.150=-4992 -2808 6912 3888 1.000000;00:58:01.500=-4992 -2808 6912 3888 1.000000</property>
    <property name="rotation">00:58:01.150=0;00:58:01.500=0</property>
    <property name="compositing">0</property>
    <property name="distort">0</property>
    <property name="kdenlive:collapsed">0</property>
   </filter>
   <filter id="filter1132">
    <property name="rotate_center">1</property>
    <property name="mlt_service">qtblend</property>
    <property name="kdenlive_id">qtblend</property>
    <property name="rect">00:58:01.150=0 0 1920 1080 1</property>
    <property name="rotation">00:58:01.150=0</property>
    <property name="compositing">0</property>
    <property name="distort">0</property>
    <property name="kdenlive:collapsed">0</property>
   </filter>
  </entry>
  <entry producer="producer720" in="01:26:13.067" out="01:26:15.767">
   <property name="kdenlive:id">682</property>
   <filter id="filter1133">
    <property name="rotate_center">1</property>
    <property name="mlt_service">qtblend</property>
    <property name="kdenlive_id">qtblend</property>
    <property name="rect">01:26:13.067=-5472 -2831 7392 4158 1.000000;01:26:14.150=-5472 -2831 7392 4158 1.000000</property>
    <property name="rotation">01:26:13.067=0;01:26:14.150=0</property>
    <property name="compositing">0</property>
    <property name="distort">0</property>
    <property name="kdenlive:collapsed">0</property>
   </filter>
  </entry>
  <entry producer="producer720" in="02:30:23.050" out="02:30:25.167">
   <property name="kdenlive:id">682</property>
   <filter id="filter1134">
    <property name="rotate_center">1</property>
    <property name="mlt_service">qtblend</property>
    <property name="kdenlive_id">qtblend</property>
    <property name="rect">02:30:23.050=-5472 -2831 7392 4158 1.000000;02:30:24.133=-5472 -2780 7392 4158 1.000000</property>
    <property name="rotation">02:30:23.050=0;02:30:24.133=0</property>
    <property name="compositing">0</property>
    <property name="distort">0</property>
    <property name="kdenlive:collapsed">0</property>
   </filter>
  </entry>
  <entry producer="producer760" in="00:59:00.900" out="00:59:02.817">
   <property name="kdenlive:id">684</property>
   <filter id="filter1135">
    <property name="rotate_center">1</property>
    <property name="mlt_service">qtblend</property>
    <property name="kdenlive_id">qtblend</property>
    <property name="rect">00:59:00.900=0 -2281 6048 3402 1.000000;00:59:02.117=0 -2214 5856 3294 1.000000;00:59:02.817=0 -2214 5856 3294 1.000000</property>
    <property name="rotation">00:59:00.900=0;00:59:02.117=0;00:59:02.817=0</property>
    <property name="compositing">0</property>
    <property name="distort">0</property>
    <property name="kdenlive:collapsed">0</property>
   </filter>
   <filter id="filter1136">
    <property name="rotate_center">1</property>
    <property name="mlt_service">qtblend</property>
    <property name="kdenlive_id">qtblend</property>
    <property name="rect">00:59:00.900=0 0 1920 1080 1</property>
    <property name="rotation">00:59:00.900=0</property>
    <property name="compositing">0</property>
    <property name="distort">0</property>
    <property name="kdenlive:collapsed">0</property>
   </filter>
  </entry>
  <entry producer="producer760" in="01:11:01.283" out="01:11:04.067">
   <property name="kdenlive:id">684</property>
   <filter id="filter1137">
    <property name="rotate_center">1</property>
    <property name="mlt_service">qtblend</property>
    <property name="kdenlive_id">qtblend</property>
    <property name="rect">01:11:01.283=0 -2281 6048 3402 1.000000;01:11:02.533=0 -2160 5760 3240 1.000000</property>
    <property name="rotation">01:11:01.283=0;01:11:02.533=0</property>
    <property name="compositing">0</property>
    <property name="distort">0</property>
    <property name="kdenlive:collapsed">0</property>
   </filter>
   <filter id="filter1138">
    <property name="rotate_center">1</property>
    <property name="mlt_service">qtblend</property>
    <property name="kdenlive_id">qtblend</property>
    <property name="rect">01:11:01.283=0 0 1920 1080 1</property>
    <property name="rotation">01:11:01.283=0</property>
    <property name="compositing">0</property>
    <property name="distort">0</property>
    <property name="kdenlive:collapsed">0</property>
   </filter>
  </entry>
  <entry producer="producer760" in="02:05:06.617" out="02:05:10.350">
   <property name="kdenlive:id">684</property>
   <filter id="filter1139">
    <property name="rotate_center">1</property>
    <property name="mlt_service">qtblend</property>
    <property name="kdenlive_id">qtblend</property>
    <property name="rect">02:05:06.617=0 -2160 5760 3240 1.000000;02:05:06.900=0 -2160 5760 3240 1.000000;02:05:10.183=0 -2160 5760 3240 1.000000</property>
    <property name="rotation">02:05:06.617=0;02:05:06.900=0;02:05:10.183=0</property>
    <property name="compositing">0</property>
    <property name="distort">0</property>
    <property name="kdenlive:collapsed">0</property>
   </filter>
   <filter id="filter1140">
    <property name="rotate_center">1</property>
    <property name="mlt_service">qtblend</property>
    <property name="kdenlive_id">qtblend</property>
    <property name="rect">02:05:06.617=0 0 1920 1080 1</property>
    <property name="rotation">02:05:06.617=0</property>
    <property name="compositing">0</property>
    <property name="distort">0</property>
    <property name="kdenlive:collapsed">0</property>
   </filter>
  </entry>
  <entry producer="producer802" in="00:42:14.183" out="00:42:15.383">
   <property name="kdenlive:id">685</property>
   <filter id="filter1141">
    <property name="rotate_center">1</property>
    <property name="mlt_service">qtblend</property>
    <property name="kdenlive_id">qtblend</property>
    <property name="rect">00:42:14.183=-4128 -2322 6048 3402 1.000000</property>
    <property name="rotation">00:42:14.183=0</property>
    <property name="compositing">0</property>
    <property name="distort">0</property>
    <property name="kdenlive:collapsed">0</property>
   </filter>
   <filter id="filter1142">
    <property name="rotate_center">1</property>
    <property name="mlt_service">qtblend</property>
    <property name="kdenlive_id">qtblend</property>
    <property name="rect">00:42:14.183=0 0 1920 1080 1</property>
    <property name="rotation">00:42:14.183=0</property>
    <property name="compositing">0</property>
    <property name="distort">0</property>
    <property name="kdenlive:collapsed">0</property>
   </filter>
  </entry>
  <entry producer="producer803" in="00:54:31.733" out="00:54:33.483">
   <property name="kdenlive:id">686</property>
   <filter id="filter1143">
    <property name="rotate_center">1</property>
    <property name="mlt_service">qtblend</property>
    <property name="kdenlive_id">qtblend</property>
    <property name="rect">00:54:31.733=-3648 -2052 5568 3132 1.000000;00:54:32.433=-3648 -2052 5568 3132 1.000000</property>
    <property name="rotation">00:54:31.733=0;00:54:32.433=0</property>
    <property name="compositing">0</property>
    <property name="distort">0</property>
    <property name="kdenlive:collapsed">0</property>
   </filter>
   <filter id="filter1144">
    <property name="rotate_center">1</property>
    <property name="mlt_service">qtblend</property>
    <property name="kdenlive_id">qtblend</property>
    <property name="rect">00:54:31.733=0 0 1920 1080 1</property>
    <property name="rotation">00:54:31.733=0</property>
    <property name="compositing">0</property>
    <property name="distort">0</property>
    <property name="kdenlive:collapsed">0</property>
   </filter>
  </entry>
  <blank length="00:00:00.900"/>
  <entry producer="producer647" in="00:49:10.767" out="00:49:15.433">
   <property name="kdenlive:id">681</property>
  </entry>
  <entry producer="producer647" in="00:49:17.917" out="00:49:21.983">
   <property name="kdenlive:id">681</property>
  </entry>
  <blank length="00:02:50.967"/>
  <entry producer="producer629" in="00:00:00.000" out="00:00:04.583">
   <property name="kdenlive:id">694</property>
   <filter id="filter1145" out="00:00:00.183">
    <property name="start">1</property>
    <property name="level">1</property>
    <property name="mlt_service">brightness</property>
    <property name="kdenlive_id">fade_from_black</property>
    <property name="alpha">00:00:00.000=0;00:00:00.183=1</property>
    <property name="kdenlive:collapsed">0</property>
   </filter>
   <filter id="filter1146">
    <property name="rotate_center">1</property>
    <property name="mlt_service">qtblend</property>
    <property name="kdenlive_id">qtblend</property>
    <property name="rect">00:00:00.000=0 277 1920 1080 1.000000</property>
    <property name="rotation">00:00:00.000=0</property>
    <property name="compositing">0</property>
    <property name="distort">0</property>
    <property name="kdenlive:collapsed">0</property>
   </filter>
  </entry>
 </playlist>
 <playlist id="playlist19"/>
 <tractor id="tractor9" in="00:00:00.000" out="00:03:26.900">
  <property name="kdenlive:trackheight">50</property>
  <property name="kdenlive:timeline_active">1</property>
  <property name="kdenlive:collapsed">0</property>
  <property name="kdenlive:thumbs_format"/>
  <property name="kdenlive:audio_rec"/>
  <track hide="audio" producer="playlist18"/>
  <track hide="audio" producer="playlist19"/>
 </tractor>
 <playlist id="playlist20">
  <blank length="00:03:22.317"/>
  <entry producer="producer628" in="00:00:00.000" out="00:00:04.583">
   <property name="kdenlive:id">695</property>
   <filter id="filter1147" out="00:00:02.300">
    <property name="start">1</property>
    <property name="level">1</property>
    <property name="mlt_service">brightness</property>
    <property name="kdenlive_id">fade_from_black</property>
    <property name="alpha">00:00:00.000=0;00:00:02.300=1</property>
    <property name="kdenlive:collapsed">0</property>
   </filter>
   <filter id="filter1148">
    <property name="rotate_center">1</property>
    <property name="mlt_service">qtblend</property>
    <property name="kdenlive_id">qtblend</property>
    <property name="rect">00:00:00.000=0 277 1920 1080 1.000000</property>
    <property name="rotation">00:00:00.000=0</property>
    <property name="compositing">0</property>
    <property name="distort">0</property>
    <property name="kdenlive:collapsed">0</property>
   </filter>
  </entry>
 </playlist>
 <playlist id="playlist21"/>
 <tractor id="tractor10" in="00:00:00.000" out="00:03:26.900">
  <property name="kdenlive:trackheight">50</property>
  <property name="kdenlive:timeline_active">1</property>
  <property name="kdenlive:collapsed">0</property>
  <property name="kdenlive:thumbs_format"/>
  <property name="kdenlive:audio_rec"/>
  <track hide="audio" producer="playlist20"/>
  <track hide="audio" producer="playlist21"/>
 </tractor>
 <tractor id="tractor11" in="00:00:00.000" out="00:35:18.500">
  <track producer="black_track"/>
  <track producer="tractor0"/>
  <track producer="tractor1"/>
  <track producer="tractor2"/>
  <track producer="tractor3"/>
  <track producer="tractor4"/>
  <track producer="tractor5"/>
  <track producer="tractor6"/>
  <track producer="tractor7"/>
  <track producer="tractor8"/>
  <track producer="tractor9"/>
  <track producer="tractor10"/>
  <transition id="transition0">
   <property name="a_track">0</property>
   <property name="b_track">1</property>
   <property name="mlt_service">mix</property>
   <property name="kdenlive_id">mix</property>
   <property name="internal_added">237</property>
   <property name="always_active">1</property>
   <property name="accepts_blanks">1</property>
   <property name="sum">1</property>
  </transition>
  <transition id="transition1">
   <property name="a_track">0</property>
   <property name="b_track">2</property>
   <property name="mlt_service">mix</property>
   <property name="kdenlive_id">mix</property>
   <property name="internal_added">237</property>
   <property name="always_active">1</property>
   <property name="accepts_blanks">1</property>
   <property name="sum">1</property>
  </transition>
  <transition id="transition2">
   <property name="a_track">0</property>
   <property name="b_track">3</property>
   <property name="mlt_service">mix</property>
   <property name="kdenlive_id">mix</property>
   <property name="internal_added">237</property>
   <property name="always_active">1</property>
   <property name="accepts_blanks">1</property>
   <property name="sum">1</property>
  </transition>
  <transition id="transition3">
   <property name="a_track">0</property>
   <property name="b_track">4</property>
   <property name="mlt_service">mix</property>
   <property name="kdenlive_id">mix</property>
   <property name="internal_added">237</property>
   <property name="always_active">1</property>
   <property name="accepts_blanks">1</property>
   <property name="sum">1</property>
  </transition>
  <transition id="transition4">
   <property name="a_track">0</property>
   <property name="b_track">5</property>
   <property name="mlt_service">mix</property>
   <property name="kdenlive_id">mix</property>
   <property name="internal_added">237</property>
   <property name="always_active">1</property>
   <property name="accepts_blanks">1</property>
   <property name="sum">1</property>
  </transition>
  <transition id="transition5">
   <property name="a_track">0</property>
   <property name="b_track">6</property>
   <property name="version">0.1</property>
   <property name="mlt_service">frei0r.cairoblend</property>
   <property name="always_active">1</property>
   <property name="internal_added">237</property>
  </transition>
  <transition id="transition6">
   <property name="a_track">0</property>
   <property name="b_track">7</property>
   <property name="version">0.1</property>
   <property name="mlt_service">frei0r.cairoblend</property>
   <property name="always_active">1</property>
   <property name="internal_added">237</property>
  </transition>
  <transition id="transition7">
   <property name="a_track">0</property>
   <property name="b_track">8</property>
   <property name="version">0.1</property>
   <property name="mlt_service">frei0r.cairoblend</property>
   <property name="always_active">1</property>
   <property name="internal_added">237</property>
  </transition>
  <transition id="transition8">
   <property name="a_track">0</property>
   <property name="b_track">9</property>
   <property name="version">0.1</property>
   <property name="mlt_service">frei0r.cairoblend</property>
   <property name="always_active">1</property>
   <property name="internal_added">237</property>
  </transition>
  <transition id="transition9">
   <property name="a_track">0</property>
   <property name="b_track">10</property>
   <property name="version">0.1</property>
   <property name="mlt_service">frei0r.cairoblend</property>
   <property name="always_active">1</property>
   <property name="internal_added">237</property>
  </transition>
  <transition id="transition10">
   <property name="a_track">0</property>
   <property name="b_track">11</property>
   <property name="version">0.1</property>
   <property name="mlt_service">frei0r.cairoblend</property>
   <property name="always_active">1</property>
   <property name="internal_added">237</property>
  </transition>
  <filter id="filter1149">
   <property name="window">75</property>
   <property name="max_gain">20dB</property>
   <property name="mlt_service">volume</property>
   <property name="internal_added">237</property>
   <property name="disable">1</property>
  </filter>
  <filter id="filter1150">
   <property name="channel">-1</property>
   <property name="mlt_service">panner</property>
   <property name="internal_added">237</property>
   <property name="start">0.5</property>
   <property name="disable">1</property>
  </filter>
 </tractor>
</mlt>
